<svg width="1540" height="820" viewBox="0 0 1540 820" xmlns="http://www.w3.org/2000/svg" xmlns:xlink="http://www.w3.org/1999/xlink"><title>story30</title><defs><path id="b" d="M475 40h1020v160H475z"/><filter x="-50%" y="-50%" width="200%" height="200%" filterUnits="objectBoundingBox" id="a"><feOffset dx="6" dy="6" in="SourceAlpha" result="shadowOffsetOuter1"/><feColorMatrix values="0 0 0 0 0 0 0 0 0 0 0 0 0 0 0 0 0 0 1 0" in="shadowOffsetOuter1"/></filter></defs><g fill="none" fill-rule="evenodd"><path fill="green" d="M1540 280H0v540h1540z"/><path d="M1540 0v738.94c-177.35-42.932-446.83-70.377-748.677-70.377C464.2 668.563 175.01 700.743 0 750V0h1540z" fill="navy"/><path fill="#FFE680" d="M1077.57 339.667l-11.36-10.835-13.362 8.236 6.795-14.15-11.963-10.164 15.558 2.09 5.97-14.52 2.82 15.443 15.652 1.19-13.814 7.456m-603.46 114.594L454.84 437.2l-5.697 14.6-3.093-15.363-15.644-.907 13.654-7.69-3.972-15.157 11.532 10.61 13.19-8.462-6.528 14.25 12.124 9.93M217.824 507.2l-14.286-7.04-10.435 12.032 2.28-15.76-14.668-6.206 15.696-2.703 1.37-15.867 7.42 14.093 15.52-3.6-11.11 11.41 8.22 13.64m383 20.4l-7.18-14.16-15.52 3.35 11.25-11.21-7.98-13.73 14.14 7.23 10.59-11.84-2.51 15.68 14.53 6.41-15.69 2.45-1.6 15.8m851.06-376.26l-11.36-10.84-13.36 8.23 6.8-14.15-11.97-10.17 15.56 2.09 5.97-14.52 2.82 15.44 15.65 1.19-13.81 7.45m15.25 316.18l-5.87-14.55-15.56 1.99 12.02-10.09-6.7-14.19 13.3 8.32 11.42-10.76-3.8 15.22 13.76 7.54-15.65 1.09-2.91 15.41M944.43 230.38l-15.698 2.78-1.3 15.888-7.49-14.07-15.516 3.674 11.067-11.477-8.286-13.618 14.332 6.98 10.39-12.09-2.21 15.788 14.71 6.144m188.99 270.98l-6.56-14.35-15.54 2.7 11.62-10.67-7.37-13.95 13.73 7.75 10.99-11.32-3.13 15.46 14.16 6.95-15.67 1.8-2.24 15.61M452.45 120.23l-11.35-10.82-13.363 8.238 6.795-14.15-11.963-10.164 15.55 2.09 5.97-14.52 2.82 15.443 15.65 1.19-13.82 7.455m659.36-18.446l-14.29-7.04-10.44 12.033 2.28-15.77-14.67-6.2 15.69-2.71 1.37-15.87 7.42 14.09 15.51-3.6-11.11 11.41 8.22 13.64m252.52 514.03l-9.64-13.07-15.09 6 9.45-13.2-10.36-12.49 15.47 4.91 8.68-13.72.11 16.23 15.74 4.02-15.41 5.12 1.04 16.2M816.84 571.8l-11.613 10.67 7.373 13.943-13.74-7.748-10.98 11.324 3.12-15.46-14.16-6.95 15.668-1.81 2.23-15.62 6.56 14.34 15.54-2.71M111.19 99.14l-10.977-11.33-13.746 7.74 7.385-13.94-11.61-10.68 15.54 2.715 6.57-14.342 2.22 15.618 15.67 1.82-14.168 6.94 3.115 15.47M80.38 606.34l-9.02 13.357L82 631.807l-15.49-4.45-8.235 13.854-.555-16.1L42 621.56l15.147-5.507-1.48-16.05 9.916 12.705 14.805-6.367m615.914-365.08l-8.313 13.61 11.05 11.5-15.51-3.7-7.52 14.06-1.28-15.89-15.7-2.8 14.72-6.12-2.19-15.79 10.37 12.12 14.35-6.96"/><path fill="#FC0" d="M218.98 208.7L142 178.34l76.98-30.36L249.34 71l30.36 76.98 76.98 30.36-76.98 30.36-30.36 130.754"/><g transform="translate(526 302)"><path d="M297.4 251.52c8.255-2.02 17.255 4.88 24.372 19.447 6.74 13.793 16.712 24.218 4.025 32.045-7.07 4.362-23.59-.75-21.852-11.16-1.27 5.708-1.046 16.97-4.836 16.917-5.55-.08-11.69-5.59-8.55-16.65.77-2.7.52-5.36 1.29-7.51-.25-.67-.5-1.34-.67-2.03-3.9-15.73-2.05-29.05 6.21-31.07zM36.95 272.045c-6.32 29.472 8.273 38.883 37.144 24.104 31.23-15.99 46.618-12.67 41.907-23.06-5.26-11.6-19.45-28.59-41.9-23.06-13.26 3.27-23.21 13.89-37.14 22z" stroke="#050202" stroke-width="4.008" fill="#DEAA87"/><path stroke="#000" stroke-width="4.008" stroke-linecap="round" stroke-linejoin="bevel" fill="#E3E2DB" d="M2.996 251.473l51.328-22.916 39.036 87.436-51.328 22.916z"/><rect stroke="#000" stroke-width="4.008" fill="#E3E2DB" transform="rotate(-24.058 1107.167 0)" x="3.599" y="221.077" width="41.285" height="19.365" rx="6.138"/><path d="M46.23 295.897c-2 4.478.032 9.74 4.54 11.752 2.164.96 4.62 1.03 6.83.2 2.21-.84 3.99-2.52 4.95-4.67s1.022-4.6.17-6.8c-.85-2.21-2.545-3.99-4.71-4.95-4.507-2.02-9.782-.02-11.78 4.46zm-15.92-34.892c-2 4.478.033 9.74 4.54 11.752 2.164.967 4.622 1.04 6.83.202 2.21-.84 3.99-2.52 4.95-4.67.962-2.15 1.023-4.6.17-6.8-.85-2.21-2.545-3.99-4.71-4.95-4.506-2.02-9.78-.02-11.78 4.46z" stroke="#000" stroke-width="3.006" fill="green"/><path d="M57.63 258.968c0 4.106 6.032 7.436 13.47 7.436 7.44 0 13.47-3.33 13.47-7.436 0-4.107-6.03-7.437-13.47-7.437-7.438 0-13.47 3.33-13.47 7.44z" stroke="#050202" stroke-width="4.008" fill="#DEAA87"/><path d="M140.146 152.26c-16.122 32.878-37.41 60.624-60.334 86.742-3.165 33.078 6.36 40.935 12.837 54.85 24.1-6.32 33.89-9.798 41.07-12.756l6.42-128.835z" stroke="#050202" stroke-width="4.008" fill="#0A0"/><path d="M82.135 258.166l39.844-26.135-.01 17.1-37.3 22.81c-1.48-4.28-2.3-8.88-2.54-13.77z" fill="green"/><path d="M141.877 106.316c0 18.872 6.68 36.97 18.57 50.315 11.893 13.35 28.02 20.85 44.838 20.85 35.02 0 63.408-31.86 63.408-71.15 0-39.3-28.39-71.15-63.408-71.15-16.817 0-32.945 7.5-44.837 20.84-11.89 13.35-18.57 31.45-18.57 50.32z" stroke="#000" stroke-width="4.008" fill="#502D16"/><path d="M269.73 144.042l-6.42 25.512 32.093 109.7 35.944-17.857c-14.297-53.076-33.65-94.846-61.617-117.355z" stroke="#050202" stroke-width="4.008" fill="#0A0"/><path d="M206.828 468.043c0 4.737 3.45 9.28 9.588 12.628 6.14 3.35 14.465 5.24 23.147 5.24 8.68 0 17.007-1.88 23.146-5.23 6.13-3.35 9.58-7.89 9.58-12.63 0-9.86-14.66-17.85-32.74-17.85-18.08 0-32.74 8-32.74 17.86zm-77.662 2.552c0 4.736 3.448 9.278 9.587 12.627 6.14 3.35 14.465 5.23 23.147 5.23 8.68 0 17.007-1.88 23.146-5.23 6.14-3.35 9.588-7.89 9.588-12.627 0-9.863-14.656-17.86-32.734-17.86-18.08 0-32.734 7.997-32.734 17.86z" stroke="#050202" stroke-width="4.008" fill="#2B1100"/><path d="M121.62 284.18c-5.312 57.705-13.832 155.544-1.102 167.46 40.53 17.86 135.082 24.403 166.504-10.626 15.363-30.406 2.52-103.844 6.154-154.127 7.353-101.737-2.75-180.562-91.678-181.75-75.67-1.01-84.81 77.644-79.878 179.044z" stroke="#050202" stroke-width="4.008" fill="#0A0"/><path d="M158.678 88.14c0 15.19 4.973 29.76 13.825 40.5 8.852 10.74 20.858 16.776 33.376 16.776 12.51 0 24.52-6.035 33.37-16.776 8.85-10.74 13.82-25.31 13.82-40.5 0-15.19-4.98-29.76-13.83-40.5-8.85-10.742-20.86-16.776-33.38-16.776-12.52 0-24.53 6.034-33.38 16.775-8.85 10.74-13.83 25.31-13.83 40.5z" stroke="#050202" stroke-width="3.908" fill="#DEAA87"/><path d="M215.97 75.947c0 2.366 1.93 4.284 4.31 4.284 2.383 0 4.313-1.91 4.313-4.28 0-1.13-.454-2.22-1.263-3.03-.808-.8-1.905-1.25-3.05-1.25-1.142 0-2.24.45-3.047 1.26-.81.81-1.263 1.9-1.263 3.03zm-29.963.49c0 2.367 1.93 4.285 4.312 4.285 2.38 0 4.31-1.918 4.31-4.284 0-1.137-.46-2.226-1.27-3.03-.81-.803-1.91-1.255-3.05-1.255s-2.24.452-3.05 1.255c-.81.804-1.27 1.893-1.27 3.03z" fill="#000"/><path d="M222.35 122.755h-32.977l-6.93 341.755c12.944 1.288 32.296 2.33 42.218.46l-2.31-342.215z" stroke="#000" stroke-width="4.008" fill="#0055D4"/><path d="M205.454 162.108c19.04-.05 37.062-43.186 37.062-43.186 20.018-38.054-91.073-33.08-72.738 2.066 0 0 17.464 41.17 35.676 41.12z" stroke="#000" stroke-width="4.008" fill="#502D16"/><path d="M228.717 109.124c-5.976 5.79-43.623 2.11-46.877-.65-3.255-2.758 14.828 22.454 24.174 22.4 9.345-.056 28.68-27.54 22.703-21.75z" stroke="#000" stroke-width="4.008" fill="#DEAA87"/><path d="M264.997 132.598c-3.245-3.61-6.27-7.245-11.897-10.56l-1.04 335.586c4.274-1 8.663-2.564 12.937-4.476v-320.55zm-119.45.69c3.244-3.61 6.384-9.083 12.01-12.396l.693 338.913c-4.273-1-8.893-1.187-13.166-3.1l.462-323.418zm152.16 104.926c-.137-10.39-.868-20.78-1.403-31.172l25.405 56.294c-2.78 1.198-7.07 3.858-12.01 5.813l-12-30.94z" fill="green"/><path stroke="#000" stroke-width="4.731" stroke-linejoin="bevel" fill="#FC0" d="M247.04 58.444l-41.145.183-41.146-.1-13.1-17.698-12.51-17.79 33.05-11.12 33.42-10.89 33.52 10.82 33.16 11.05-12.34 17.81z"/><path d="M215.853 37.362c0 2.8-1.12 5.486-3.112 7.466-1.99 1.98-4.69 3.093-7.51 3.093-5.87 0-10.62-4.72-10.62-10.55s4.76-10.56 10.63-10.56c2.82 0 5.52 1.12 7.52 3.1s3.12 4.67 3.12 7.47zm33.04-5.052c0 2.8-1.12 5.487-3.112 7.467-1.99 1.98-4.69 3.092-7.51 3.092-5.87 0-10.62-4.73-10.62-10.56s4.76-10.56 10.63-10.56c2.82 0 5.52 1.11 7.52 3.09 2 1.98 3.12 4.66 3.12 7.46zm-66.08 0c0 2.8-1.12 5.487-3.113 7.467-1.992 1.98-4.695 3.092-7.513 3.092-5.87 0-10.626-4.73-10.626-10.56s4.76-10.56 10.63-10.56c2.82 0 5.52 1.11 7.52 3.09 2 1.98 3.12 4.66 3.12 7.46z" stroke="#000" stroke-width="4.008" fill="#0A0"/></g><g stroke="#000" fill="#A0892C"><path d="M213.995 800.235c-1.572-84.87-15.254-167.704-3.362-251.06-2.393-8.868 30.185-6.68 23.624 3.066-12.888 82.06 2.113 164.72 2.154 246.79L214 800.24z" stroke-width="3"/><path d="M96.362 573.812c85.523.494 163.773-11.047 256.19-10.645 9.052-7.576-1.074 33.63-3.125 74.792-88.774-1.08-168.608 10.28-251.834 6.82l-1.23-70.97z" stroke-width="2.606"/></g><path d="M1483.453 580.535c6.32 29.472-8.273 38.883-37.144 24.104-31.23-15.99-46.62-12.67-41.91-23.06 5.26-11.6 19.45-28.59 41.9-23.05 13.26 3.27 23.21 13.89 37.14 22z" stroke="#050202" stroke-width="4.008" fill="#502D16"/><path d="M1490.066 544.815c-1.064 2.982-3.436 5.36-6.596 6.61-3.16 1.248-6.846 1.268-10.25.054-3.405-1.22-6.248-3.57-7.903-6.54-1.655-2.97-1.988-6.31-.924-9.29 1.064-2.98 3.436-5.36 6.595-6.61 3.16-1.25 6.847-1.27 10.252-.06 3.404 1.21 6.247 3.56 7.902 6.53 1.655 2.97 1.987 6.31.924 9.29z" stroke="#000" stroke-width="4.008" fill="#F60"/><path stroke="#000" stroke-width="4.008" stroke-linejoin="bevel" fill="#F60" d="M1458.653 537.066l34.36 12.257-28.22 79.11-34.36-12.256z"/><path d="M1477.036 561.948c-1.373 3.85-5.627 5.85-9.5 4.468-1.862-.664-3.384-2.034-4.233-3.81-.85-1.777-.956-3.814-.297-5.663.66-1.848 2.03-3.358 3.813-4.196 1.78-.838 3.82-.936 5.68-.272 3.87 1.382 5.9 5.623 4.53 9.473zm-8.513 23.83c-1.373 3.85-5.627 5.85-9.5 4.47-1.86-.665-3.384-2.036-4.233-3.812-.85-1.777-.956-3.813-.296-5.662.66-1.85 2.03-3.358 3.813-4.196 1.78-.838 3.828-.936 5.688-.272 3.874 1.382 5.902 5.623 4.528 9.472zm-7.835 22.842c-1.374 3.85-5.628 5.85-9.502 4.47-1.86-.665-3.382-2.035-4.232-3.812-.85-1.776-.955-3.813-.296-5.662.66-1.848 2.03-3.358 3.813-4.196 1.79-.838 3.83-.936 5.69-.272 3.88 1.382 5.9 5.623 4.53 9.473z" stroke="#000" stroke-width="3.006" fill="green"/><path d="M1462.772 567.458c0 4.106-6.03 7.436-13.47 7.436s-13.47-3.33-13.47-7.436c0-4.107 6.03-7.437 13.47-7.437s13.47 3.33 13.47 7.44zm-243.687 3.244c-8.257-2.02-17.257 4.88-24.374 19.45-6.73 13.792-16.71 24.217-4.02 32.043 7.07 4.362 23.59-.75 21.86-11.16 1.27 5.71 1.05 16.97 4.84 16.917 5.54-.077 11.69-5.59 8.54-16.645-.77-2.702-.52-5.356-1.29-7.51.24-.662.5-1.332.67-2.03 3.9-15.726 2.05-29.045-6.2-31.065z" stroke="#050202" stroke-width="4.008" fill="#502D16"/><path d="M1246.754 455.65l6.418 25.51-32.092 109.702-35.944-17.858c14.297-53.076 33.65-94.846 61.618-117.355z" stroke="#050202" stroke-width="4.008" fill="#330080"/><path d="M1309.655 779.65c0 4.737-3.45 9.28-9.588 12.628-6.14 3.35-14.465 5.23-23.146 5.23-8.68 0-17-1.88-23.14-5.23-6.14-3.35-9.59-7.89-9.59-12.628 0-9.863 14.66-17.858 32.74-17.858 18.08 0 32.74 7.995 32.74 17.858zm77.663 2.55c0 4.738-3.45 9.28-9.588 12.63-6.14 3.348-14.465 5.23-23.146 5.23-8.682 0-17.008-1.882-23.147-5.23-6.14-3.35-9.588-7.892-9.588-12.63 0-9.86 14.65-17.857 32.73-17.857s32.73 7.996 32.73 17.858z" stroke="#050202" stroke-width="4.008" fill="#000"/><path d="M1380.257 460.75c16.122 32.878 37.41 60.624 60.334 86.742 3.17 33.078-6.36 40.935-12.83 54.85-24.1-6.32-33.89-9.798-41.08-12.756l-6.42-128.835z" stroke="#050202" stroke-width="4.008" fill="#330080"/><path d="M1394.864 595.788c5.312 57.704 13.268 154.976 1.1 167.46-12.475 12.798-66.366 23.52-87.333 15.192-21.72 4.498-64.76 12.65-79.17-25.82-15.36-30.405-2.52-103.843-6.15-154.126-7.35-101.737 2.75-180.562 91.68-181.75 75.67-1.01 84.81 77.644 79.88 179.044z" stroke="#050202" stroke-width="4.008" fill="#330080"/><path d="M1357.805 399.747c0 15.19-4.973 29.758-13.825 40.5-8.852 10.74-20.857 16.776-33.376 16.776-12.518 0-24.524-6.035-33.376-16.776-8.852-10.742-13.824-25.31-13.824-40.5 0-15.19 4.972-29.76 13.824-40.5 8.852-10.742 20.858-16.776 33.376-16.776 12.52 0 24.524 6.04 33.376 16.78 8.852 10.74 13.825 25.31 13.825 40.5z" stroke="#050202" stroke-width="3.908" fill="#784421"/><path d="M1301.784 387.554c0 2.366-1.93 4.284-4.31 4.284-2.383 0-4.313-1.918-4.313-4.284 0-1.136.46-2.226 1.27-3.03.81-.803 1.91-1.255 3.05-1.255s2.24.45 3.05 1.25c.81.8 1.27 1.89 1.27 3.03zm27.42.49c0 2.367-1.93 4.285-4.31 4.285-2.382 0-4.312-1.92-4.312-4.29 0-1.14.454-2.23 1.263-3.03.81-.81 1.905-1.26 3.05-1.26 1.142 0 2.24.45 3.047 1.25.81.8 1.263 1.89 1.263 3.03z" fill="#000"/><path d="M1223.096 584.988l172.532.162c-2.174 6.186-1.144 15.018-.49 22.608l-171.39-.325-.652-22.445z" stroke="#000" stroke-width="3.903" fill="#FC0"/><path d="M1287.766 412.008c5.976 5.79 43.623 2.11 46.878-.65 3.254-2.758-14.83 22.454-24.174 22.4-9.346-.055-28.68-27.54-22.704-21.75z" stroke="#000" stroke-width="4.008" fill="#784421"/><path d="M1309.643 467.248l-17.204-29.61c10.35 5.532 21.45 7.394 34.4 0l-17.21 29.61z" stroke="#000" stroke-width="4.008" stroke-linejoin="round" fill="#000"/><path d="M1318.14 493.665c0 4.088-3.335 7.4-7.448 7.4-1.975 0-3.87-.78-5.266-2.166-1.397-1.39-2.182-3.28-2.182-5.24 0-1.96.785-3.85 2.182-5.24 1.396-1.39 3.29-2.17 5.266-2.17 4.113 0 7.448 3.31 7.448 7.4zm0 37.885c0 4.086-3.335 7.4-7.448 7.4-1.975 0-3.87-.78-5.266-2.168-1.397-1.388-2.182-3.27-2.182-5.233 0-1.97.785-3.85 2.182-5.24 1.396-1.39 3.29-2.17 5.266-2.17 4.113 0 7.448 3.31 7.448 7.4zm0 35.356c0 4.088-3.335 7.4-7.448 7.4-1.975 0-3.87-.778-5.266-2.166-1.397-1.388-2.182-3.27-2.182-5.234 0-1.962.785-3.845 2.182-5.233 1.396-1.388 3.29-2.167 5.266-2.167 4.113 0 7.448 3.313 7.448 7.4zm0 65.664c0 4.088-3.335 7.402-7.448 7.402-1.975 0-3.87-.78-5.266-2.168-1.397-1.388-2.182-3.27-2.182-5.233 0-1.96.785-3.84 2.182-5.23 1.396-1.39 3.29-2.17 5.266-2.17 4.113 0 7.448 3.32 7.448 7.4zm0 35.36c0 4.086-3.335 7.4-7.448 7.4-1.975 0-3.87-.78-5.266-2.168-1.397-1.388-2.182-3.27-2.182-5.233 0-1.97.785-3.85 2.182-5.24 1.396-1.39 3.29-2.17 5.266-2.17 4.113 0 7.448 3.31 7.448 7.4zm0 37.882c0 4.087-3.335 7.4-7.448 7.4-1.975 0-3.87-.78-5.266-2.167-1.397-1.388-2.182-3.27-2.182-5.233 0-1.963.785-3.845 2.182-5.233 1.396-1.39 3.29-2.17 5.266-2.17 4.113 0 7.448 3.31 7.448 7.4zm0 40.408c0 4.088-3.335 7.402-7.448 7.402-1.975 0-3.87-.78-5.266-2.168-1.397-1.388-2.182-3.27-2.182-5.233 0-1.96.785-3.84 2.182-5.23 1.396-1.39 3.29-2.17 5.266-2.17 4.113 0 7.448 3.32 7.448 7.4z" stroke="#000" stroke-width="3.006" fill="#FC0"/><path d="M1329.398 598.646c0 9.86-8.044 17.854-17.967 17.854-4.76 0-9.33-1.88-12.7-5.23-3.37-3.348-5.26-7.89-5.26-12.624 0-4.735 1.9-9.276 5.26-12.625 3.37-3.34 7.94-5.22 12.71-5.22 9.93 0 17.97 8 17.97 17.86z" stroke="#000" stroke-width="3.808" fill="#FC0"/><path d="M1352.96 378.603c-15.854 3.71-41.1-20.698-41.1-20.698s-30.715 28.613-45.404 20.792c-12.445-6.627-13.214-29.22-6.542-41.586 8.982-16.64 32.793-23.81 51.8-23.69 19.92.12 46.048 7.33 53.976 25.49 5.562 12.74 2.277 35.57-12.73 39.7z" stroke="#000" stroke-width="4.008" fill="#4000A1"/><path d="M931.84 570.89c-8.256-2.02-17.256 4.88-24.373 19.448-6.74 13.793-16.713 24.218-4.025 32.044 7.07 4.363 23.59-.75 21.852-11.16 1.27 5.71 1.046 16.97 4.836 16.918 5.54-.078 11.69-5.59 8.54-16.646-.768-2.702-.52-5.356-1.288-7.51.242-.662.494-1.33.667-2.03 3.89-15.725 2.04-29.044-6.21-31.064z" stroke="#050202" stroke-width="4.008" fill="#DEAA87"/><path d="M959.51 455.836l6.418 25.512-32.093 109.7-35.943-17.857c14.297-53.07 33.65-94.84 61.617-117.35z" stroke="#050202" stroke-width="4.008" fill="#FC0"/><path d="M931.533 550.008c.136-10.39.867-20.78 1.402-31.172L907.53 575.13c2.775 1.198 7.07 3.858 12.008 5.813l11.995-30.935z" fill="#A80"/><path d="M953.814 418.11c0 18.872 6.68 36.97 18.57 50.316 11.893 13.344 28.02 20.84 44.838 20.84 35.02 0 63.408-31.857 63.408-71.156 0-39.3-28.39-71.157-63.408-71.157-16.817 0-32.945 7.497-44.837 20.842-11.89 13.344-18.57 31.443-18.57 50.315z" stroke="#000" stroke-width="4.008" fill="#E3DEDB"/><path d="M1081.667 455.836l-6.42 25.512 32.093 109.7 35.944-17.857c-14.297-53.07-33.65-94.84-61.617-117.35z" stroke="#050202" stroke-width="4.008" fill="#FC0"/><path d="M1018.765 779.837c0 4.737 3.45 9.28 9.588 12.628 6.14 3.35 14.465 5.23 23.147 5.23 8.68 0 17.007-1.88 23.146-5.23 6.14-3.35 9.588-7.89 9.588-12.628 0-9.862-14.656-17.858-32.734-17.858-18.08 0-32.735 7.99-32.735 17.85zm-77.663 2.553c0 4.735 3.45 9.277 9.588 12.626 6.14 3.35 14.465 5.23 23.147 5.23 8.68 0 17.007-1.88 23.146-5.23 6.14-3.35 9.588-7.89 9.588-12.627 0-9.87-14.65-17.86-32.73-17.86s-32.73 7.99-32.73 17.86z" stroke="#050202" stroke-width="4.008" fill="#2B1100"/><path d="M933.557 595.975c-5.312 57.705-13.832 155.543-1.102 167.46 40.53 17.86 135.082 24.402 166.504-10.627 15.36-30.406 2.52-103.844 6.15-154.127 7.35-101.73-2.75-180.56-91.68-181.74-75.67-1.01-84.81 77.65-79.88 179.05z" stroke="#050202" stroke-width="4.008" fill="#FC0"/><path d="M970.615 399.934c0 15.19 4.973 29.76 13.825 40.5 8.852 10.74 20.857 16.776 33.376 16.776 12.518 0 24.524-6.035 33.376-16.776 8.852-10.74 13.825-25.31 13.825-40.5 0-15.19-4.973-29.76-13.825-40.5-8.852-10.742-20.858-16.776-33.376-16.776-12.52 0-24.524 6.034-33.376 16.776-8.852 10.74-13.825 25.31-13.825 40.5z" stroke="#050202" stroke-width="3.908" fill="#DEAA87"/><path d="M1027.907 386.478c0 2.367 1.93 4.285 4.31 4.285 2.383 0 4.313-1.918 4.313-4.285 0-1.136-.454-2.226-1.263-3.03-.81-.803-1.905-1.254-3.05-1.254-1.142 0-2.24.45-3.047 1.255-.81.8-1.263 1.89-1.263 3.02zm-29.963.492c0 2.365 1.93 4.284 4.312 4.284 2.38 0 4.31-1.92 4.31-4.285 0-1.14-.453-2.23-1.262-3.03-.808-.81-1.905-1.26-3.048-1.26-1.144 0-2.24.45-3.05 1.25-.808.8-1.262 1.89-1.262 3.03z" fill="#000"/><path d="M1034.288 434.55h-32.978l-6.93 341.754c12.944 1.288 32.296 2.33 42.218.46l-2.31-342.215z" stroke="#000" stroke-width="4.008" fill="maroon"/><path d="M1017.39 501.17l37.063-70.454c20.018-38.054-91.073-33.08-72.738 2.066l35.676 68.388z" stroke="#000" stroke-width="4.008" fill="#E3DBDB"/><path stroke="#000" stroke-width="4.008" stroke-linejoin="round" fill="#FC0" d="M1056.644 364.6l52.2-74.434-67.75 33.154-24.725-58.07-24.46 58.4-72.65-32.83 57.8 74.312 79.57-.533z"/><path d="M1040.654 420.918c-5.976 5.79-43.623 2.11-46.878-.65-3.254-2.758 14.83 22.454 24.174 22.4 9.346-.056 28.68-27.54 22.704-21.75z" stroke="#000" stroke-width="4.008" fill="#DEAA87"/><path d="M997.548 340.383c0 9.86 8.044 17.854 17.967 17.854 4.765 0 9.335-1.88 12.705-5.23 3.37-3.348 5.262-7.89 5.262-12.624 0-4.735-1.893-9.276-5.262-12.624-3.37-3.35-7.94-5.23-12.705-5.23-9.923 0-17.967 7.99-17.967 17.85z" stroke="#000" stroke-width="4.008" fill="#00F"/><path d="M1076.934 444.392c-3.246-3.61-6.27-7.245-11.897-10.56l-1.04 335.586c4.274-1 8.663-2.564 12.937-4.476v-320.55zm-119.45.688c3.244-3.608 6.384-9.08 12.01-12.394l.693 338.913c-4.273-1-8.893-1.19-13.166-3.1l.47-323.42zm152.16 104.928c-.137-10.39-.868-20.78-1.403-31.172l25.41 56.294c-2.77 1.198-7.07 3.858-12.01 5.813l-11.99-30.935z" fill="#A80"/><path d="M1109.335 563.313c8.257-2.02 17.257 4.88 24.374 19.45 6.73 13.79 16.71 24.216 4.02 32.043-7.07 4.362-23.59-.75-21.85-11.16-1.27 5.708-1.05 16.97-4.84 16.917-5.54-.077-11.69-5.59-8.54-16.646.77-2.7.52-5.355 1.29-7.508-.24-.67-.5-1.34-.67-2.04-3.9-15.73-2.05-29.05 6.21-31.07z" stroke="#050202" stroke-width="4.008" fill="#DEAA87"/><path stroke="#000" stroke-width="4.008" stroke-linejoin="round" fill="#D4AA00" d="M887.68 555.87h266.568v79.206H887.68z"/><path stroke="#000" stroke-width="4.008" stroke-linejoin="round" fill="#00F" d="M919.596 609.67l-14.24-14.242 14.15-14.152 14.24 14.242z"/><path d="M958.718 595.473c0 2.8 1.12 5.486 3.113 7.466 2 1.98 4.7 3.09 7.52 3.09 5.87 0 10.63-4.73 10.63-10.56s-4.75-10.56-10.62-10.56c-2.82 0-5.52 1.11-7.51 3.09-1.99 1.98-3.11 4.66-3.11 7.46z" stroke="#000" stroke-width="4.008" fill="#D40000"/><path stroke="#000" stroke-width="4.008" stroke-linejoin="round" fill="#00F" d="M1123.73 609.67l-14.243-14.242 14.152-14.152 14.24 14.24z"/><path d="M1060.308 595.473c0 2.8 1.12 5.486 3.112 7.466 1.993 1.98 4.695 3.09 7.513 3.09 5.87 0 10.626-4.73 10.626-10.56s-4.76-10.56-10.63-10.56c-2.82 0-5.52 1.11-7.52 3.09-2 1.98-3.12 4.66-3.12 7.46z" stroke="#000" stroke-width="4.008" fill="#D40000"/><path stroke="#000" stroke-width="4.008" stroke-linejoin="round" fill="#00F" d="M1018.396 609.67l-14.24-14.242 14.15-14.15 14.24 14.24z"/><use fill="#000" filter="url(#a)" xlink:href="#b"/><use fill="#FFF" xlink:href="#b"/><path d="M576.922 60c1.734 0 2.6.738 2.6 2.215v.545c0 2.027-1.545 3.04-4.64 3.04l-5.782.282c-1.735 9.422-2.602 17.52-2.602 24.293-.47 1.477-.95 2.215-1.44 2.215h-.88c-.996 0-1.576-.276-1.74-.826.972-10.43 2.033-18.903 3.18-25.418l-8.682 1.388c-.81 0-1.29-.826-1.442-2.478 0-2.766 2.414-4.15 7.242-4.15C565.63 60.37 570.36 60 576.922 60zm19.916 4.447c.832.223 1.248.79 1.248 1.705v.23c-1.172 17.308-2.004 25.962-2.496 25.962l-.264.246h-.738c-.867 0-1.453-.404-1.758-1.213.328-2.31.492-5.543.492-9.703h-.246L582.564 84.1l-.738.966v4.606c0 1.37-.504 2.344-1.512 2.918h-.492c-.937 0-1.523-.404-1.758-1.213 1.16-17.473 2.83-26.21 5.01-26.21h.492l.756.985c-1.172 5.8-1.758 10.084-1.758 12.85 7.676-1.008 11.514-2.22 11.514-3.64l1.002-10.194 1.758-.72zm21.62.053c.81.176 1.214.79 1.214 1.846-.258 1.992-1.06 2.988-2.408 2.988-8.836 0-13.254 1.23-13.254 3.69l-.246 2.076v1.142c5.765-1.383 9.703-2.074 11.812-2.074h.475c.81.352 1.22 1.12 1.22 2.303 0 1.69-1.12 2.54-3.37 2.54-7.39.96-11.09 2.12-11.09 3.47l-.23 2.31v.92c0 1.38.88 2.15 2.64 2.3 2.77-.3 6.22-.99 10.37-2.07h.72c.65.25.97.79.97 1.62v.69c0 1.89-4.02 3.35-12.06 4.38h-.72c-2.89 0-4.5-1.84-4.81-5.52 0-2.7.56-7.85 1.69-15.43l-.47-1.39c0-3.11 4.82-4.95 14.45-5.52l3.13-.23zm31.536-.053c5.004.692 7.506 3.686 7.506 8.983 0 6.937-2.742 12.68-8.227 17.226-2.26 1.29-4.283 1.934-6.064 1.934-4.35 0-7.15-2.344-8.41-7.03l-.18-2.18v-.74c0-7.57 3.45-13.312 10.37-17.226 1.73-.644 3.4-.967 4.99-.967zM636.95 83.38c1.806 2.74 4.19 4.112 7.155 4.112 4.77 0 8.104-2.83 10.002-8.49l.352-2.672c0-3.984-1.97-6.328-5.89-7.03h-.55c-3.25 0-6.64 3.233-10.18 9.702-.6 1.945-.9 3.404-.9 4.377zm25.28-18.933h.245c.76 0 1.4.393 1.916 1.178-1.11 8.11-1.91 15.363-2.39 21.762l13.71-2.83.48.703v1.424c0 2.156-4.97 4.125-14.9 5.906-1.77-.317-2.65-.867-2.65-1.653 1.32-17.343 2.28-26.015 2.89-26.015l.72-.475zm23.922 0h1.073c5.097 0 8.22 2.022 9.37 6.065l.21 1.933c0 8.05-5.965 14.684-17.895 19.9l-1.055.245h-.228c-.316 0-.598-.57-.844-1.705l2.127-20.865c-.855 0-1.283-.24-1.283-.72v-.493c0-2.578 1.137-3.868 3.41-3.868l5.115-.5zm-4.254 5.098c-1.277 8.297-1.916 13.875-1.916 16.734v1.21c8.942-4.47 13.413-8.67 13.413-12.62v-.23c0-2.28-.64-3.41-1.916-3.41-1.59-1.13-4.14-1.69-7.67-1.69h-1.92zM713.52 64.5c.787 0 1.18 2.72 1.18 8.156l1.58 10.336h.388c0-.597 1.576-3.803 4.728-9.615.493-3.832 1.413-5.748 2.76-5.748h.387c.797 0 1.453 2.95 1.97 8.87.878 4.04 1.534 6.44 1.967 7.2.422-2.04 2.526-8.05 6.31-18.02.552-.64 1.08-.95 1.583-.95.703 0 1.16.31 1.37.95 0 .82-1.968 6.18-5.905 16.08-.656 2.34-1.248 5.55-1.775 9.61-.422.79-.95 1.19-1.583 1.19-1.195 0-2.11-2.72-2.742-8.16-1.29-5.31-2.08-8.19-2.373-8.65l-3.937 7.68c-.657 1.5-1.248 4.06-1.776 7.68-.35.59-.873.99-1.564 1.2-1.102 0-2.022-4.16-2.76-12.48-1.055-5.88-1.582-10.61-1.582-14.17 0-.48.592-.88 1.775-1.19zm37.302-.053h2.426c3.715 0 5.572 1.295 5.572 3.885v.246c0 4.535-3.88 8.66-11.636 12.375v.23c3.88 3.56 7.113 6.233 9.703 8.014v.72c0 1.255-.405 2.063-1.213 2.427h-.967l-13.324-9.457-.246 4.85v3.64c-.41.81-1.055 1.213-1.934 1.213-.644 0-1.13-.322-1.46-.967v-1.46l2.18-18.93c-.644 0-.966-.48-.966-1.442 0-2.91 2.42-4.61 7.26-5.09l4.605-.24zm-8.472 13.096h.246c8.39-2.156 12.586-4.5 12.586-7.03v-.247c0-.446-.81-.768-2.426-.967-2.684 0-5.912.56-9.686 1.7l-.72 6.54zm22.113-13.166h1.652c.55 0 .826.322.826.967-1.28 10.523-1.93 17.824-1.93 21.902v2.672c-.36 1.78-1.28 2.672-2.74 2.672h-.54l-1.1-.967c.74-11.04 1.66-19.8 2.76-26.28l1.09-.966zm23.642.053c1.524 0 2.286.632 2.286 1.898v.475c0 1.746-1.36 2.62-4.07 2.62l-5.08.245c-1.52 8.12-2.28 15.105-2.28 20.953-.41 1.27-.83 1.9-1.26 1.9h-.77c-.88 0-1.39-.24-1.53-.72.86-8.99 1.79-16.29 2.8-21.9l-7.63 1.2c-.71 0-1.13-.71-1.26-2.14 0-2.38 2.12-3.57 6.37-3.57 2.55-.63 6.7-.95 12.46-.95zm7.207-.053h1.653c.55 0 .826.322.826.967-1.28 10.523-1.93 17.824-1.93 21.902v2.672c-.36 1.78-1.27 2.672-2.74 2.672h-.54l-1.1-.967c.74-11.04 1.66-19.8 2.76-26.28l1.09-.966zm7.98.07c1.067 0 2.345 2.004 3.833 6.012 2.883 5.9 6.088 10.95 9.615 15.15 1.184-11.57 2.063-18.38 2.637-20.45l.967-.72h.72c.48 0 .72.32.72.96-1.44 16.52-2.32 25.34-2.636 26.45l-1.44.47c-2.567 0-6.892-5.45-12.974-16.35l-.966-.97-.247.72-.72 11.07v1.44l.25 1.44c-.21 1.92-.85 2.88-1.91 2.88-.98-.35-1.54-.83-1.68-1.44 1.23-17.32 2.11-25.98 2.64-25.98l1.22-.72zm35.35 0h.176c1.56 0 2.602 1.524 3.13 4.57l-.37.475h-.176l-1.476-.474c-4.03.597-8.256 3.404-12.674 8.42-1.23 2.18-1.846 3.703-1.846 4.57v.967c0 2.566 2.637 4.166 7.91 4.798 3.305 0 5.813-1.763 7.524-5.29l-2.197-.95c-.82 0-3.088.96-6.803 2.883-.363-.82-.545-1.623-.545-2.408v-.246c0-2.555 2.45-4.32 7.348-5.29h.37c2.81 0 4.217 1.844 4.217 5.536 0 3.808-3.123 7.178-9.37 10.107l-2.196.475c-3.973 0-6.668-1.682-8.086-5.045l-.37-3.13c0-7.265 3.733-13.44 11.198-18.526 1.887-.97 3.3-1.45 4.237-1.45zm20.602.053h.37c1.616.2 2.425.984 2.425 2.355v.475c0 2.367-.81 4.57-2.43 6.61h-.37c-.26-.07-.51-.463-.76-1.178l.95-3.533-.74-.48c-1.72.15-4.89 2.04-9.49 5.66v.23l12.27 2.37c1.24.98 1.86 2.63 1.86 4.95v1.4c0 3.17-2.05 5.93-6.14 8.26-1.61.63-3.16.95-4.66.95h-.39c-4.27 0-6.87-1.89-7.81-5.66V85.5c0-1.735.43-2.602 1.3-2.602.85 3 2.41 4.5 4.66 4.5 0 .307.93.46 2.79.46 2.75 0 5.42-1.41 8-4.237 0-1.87-3.97-3.06-11.9-3.55-2.86-.79-4.29-1.97-4.29-3.53 0-3.83 3.84-7.69 11.53-11.56l2.79-.47zm36.088 0h.37c1.616.2 2.425.984 2.425 2.355v.475c0 2.367-.81 4.57-2.426 6.61h-.36c-.26-.07-.51-.463-.75-1.178l.95-3.533-.74-.48c-1.72.15-4.88 2.04-9.49 5.66v.23l12.27 2.37c1.25.98 1.87 2.63 1.87 4.95v1.4c0 3.17-2.04 5.93-6.13 8.26-1.6.63-3.15.95-4.65.95h-.38c-4.26 0-6.87-1.89-7.8-5.66V85.5c0-1.735.44-2.602 1.3-2.602.86 3 2.41 4.5 4.66 4.5 0 .307.93.46 2.8.46 2.76 0 5.42-1.41 8-4.237 0-1.87-3.96-3.06-11.9-3.55-2.86-.79-4.29-1.97-4.29-3.53 0-3.83 3.85-7.69 11.53-11.56l2.8-.47zm17.104 0h.843c1.16 0 2.63 5.36 4.41 16.084 1.4 5.063 2.11 8.502 2.11 10.318-.3.96-.86 1.442-1.69 1.442-1.08 0-1.85-2.56-2.32-7.682l-.21-.228h-.21c-1.83.023-5.69 1.142-11.57 3.357-.57 3.2-1.48 4.8-2.74 4.8-.85-.32-1.27-.96-1.27-1.91 0-1.85 3.86-10.33 11.58-25.45l1.05-.72zm-.422 6.715c-1.688 3.047-3.235 6.252-4.64 9.615h1.476c1.43 0 3.257-.322 5.484-.967l-1.898-8.648h-.422zm15.24-6.838h1.652c.55 0 .826.322.826.967-1.29 10.523-1.933 17.824-1.933 21.902v2.672c-.37 1.78-1.28 2.672-2.75 2.672h-.55l-1.11-.967c.74-11.04 1.65-19.8 2.76-26.28l1.09-.966zm13.5.07h1.072c5.098 0 8.22 2.022 9.37 6.065l.21 1.933c0 8.05-5.965 14.684-17.894 19.9l-1.055.245h-.228c-.32 0-.6-.57-.85-1.705l2.12-20.865c-.86 0-1.29-.24-1.29-.72v-.493c0-2.578 1.13-3.868 3.41-3.868l5.11-.5zm-4.254 5.098c-1.277 8.297-1.916 13.875-1.916 16.734v1.21c8.94-4.47 13.412-8.67 13.412-12.62v-.23c0-2.28-.64-3.41-1.916-3.41-1.582-1.13-4.137-1.69-7.664-1.69H936.5zm49.36-5.115c1.523 0 2.285.632 2.285 1.898v.475c0 1.746-1.36 2.62-4.08 2.62l-5.08.245c-1.522 8.12-2.284 15.105-2.284 20.953-.41 1.27-.83 1.9-1.26 1.9h-.77c-.88 0-1.39-.24-1.53-.72.86-8.99 1.79-16.29 2.8-21.9l-7.63 1.2c-.71 0-1.13-.71-1.26-2.14 0-2.38 2.12-3.57 6.37-3.57 2.55-.63 6.7-.95 12.47-.95zm20.337.017c.832.223 1.248.79 1.248 1.705v.23c-1.172 17.308-2.004 25.962-2.496 25.962l-.27.246h-.74c-.87 0-1.45-.404-1.76-1.213.33-2.31.49-5.543.49-9.703h-.25l-10.5 2.426-.74.966v4.606c0 1.37-.51 2.344-1.51 2.918h-.49c-.93 0-1.52-.404-1.75-1.213 1.16-17.473 2.83-26.21 5.01-26.21h.49l.76.985c-1.17 5.8-1.76 10.084-1.76 12.85 7.67-1.008 11.51-2.22 11.51-3.64l1-10.194 1.76-.72zm13.676.053h.844c1.16 0 2.63 5.36 4.412 16.084 1.4 5.063 2.1 8.502 2.1 10.318-.3.96-.86 1.442-1.69 1.442-1.08 0-1.85-2.56-2.32-7.682l-.21-.228h-.21c-1.83.023-5.69 1.142-11.57 3.357-.56 3.2-1.48 4.8-2.74 4.8-.85-.32-1.27-.96-1.27-1.91 0-1.85 3.86-10.33 11.58-25.45l1.05-.72zm-.422 6.715c-1.68 3.047-3.23 6.252-4.64 9.615h1.48c1.43 0 3.26-.322 5.49-.967l-1.89-8.648h-.42zm29.11-6.785c1.53 0 2.29.632 2.29 1.898v.475c0 1.746-1.36 2.62-4.08 2.62l-5.08.245c-1.52 8.12-2.28 15.105-2.28 20.953-.41 1.27-.83 1.9-1.26 1.9h-.77c-.88 0-1.39-.24-1.53-.72.86-8.99 1.79-16.29 2.8-21.9l-7.63 1.2c-.71 0-1.13-.71-1.26-2.14 0-2.38 2.12-3.57 6.37-3.57 2.55-.63 6.7-.95 12.47-.95zm27.36.07h.85c1.16 0 2.63 5.36 4.41 16.084 1.41 5.063 2.11 8.502 2.11 10.318-.29.96-.85 1.442-1.69 1.442-1.07 0-1.85-2.56-2.32-7.682l-.21-.228h-.21c-1.83.023-5.68 1.142-11.56 3.357-.56 3.2-1.47 4.8-2.74 4.8-.84-.32-1.26-.96-1.26-1.91 0-1.85 3.86-10.33 11.59-25.45l1.06-.72zm-.42 6.715c-1.68 3.047-3.23 6.252-4.64 9.615h1.48c1.43 0 3.26-.322 5.49-.967l-1.9-8.648h-.42zm43.97-6.768h.71c.64.258.95.82.95 1.688 0 1.172-2.45 6.222-7.35 15.152-2.4 6.692-3.9 10.3-4.5 10.828l-2.35.475c-1.03 0-1.74-1.846-2.14-5.537-3.15-11.12-4.73-17.936-4.73-20.444.26-.73.74-1.29 1.43-1.69h.95c.86 0 1.72 3.37 2.6 10.1l2.85 10.58h.23c1.64-4.34 5.19-11.23 10.66-20.69l.72-.48zm20.45.053c.81.176 1.22.79 1.22 1.846-.26 1.992-1.06 2.988-2.41 2.988-8.83 0-13.25 1.23-13.25 3.69l-.25 2.076v1.142c5.77-1.383 9.71-2.074 11.82-2.074h.47c.81.352 1.22 1.12 1.22 2.303 0 1.69-1.12 2.54-3.37 2.54-7.4.96-11.1 2.12-11.1 3.47l-.23 2.31v.92c0 1.38.88 2.15 2.64 2.3 2.77-.3 6.22-.99 10.37-2.07h.72c.65.25.97.79.97 1.62v.69c0 1.89-4.01 3.35-12.05 4.38h-.72c-2.9 0-4.5-1.84-4.82-5.52 0-2.7.56-7.85 1.69-15.43l-.47-1.39c0-3.11 4.82-4.95 14.45-5.52l3.13-.23zm14.31-.053h2.43c3.72 0 5.58 1.295 5.58 3.885v.246c0 4.535-3.88 8.66-11.63 12.375v.23c3.88 3.56 7.12 6.233 9.71 8.014v.72c0 1.255-.4 2.063-1.21 2.427h-.96l-13.33-9.457-.24 4.85v3.64c-.41.81-1.05 1.213-1.93 1.213-.64 0-1.13-.322-1.46-.967v-1.46l2.18-18.93c-.64 0-.97-.48-.97-1.442 0-2.91 2.42-4.61 7.26-5.09l4.6-.24zm-8.47 13.096h.25c8.39-2.156 12.59-4.5 12.59-7.03v-.247c0-.446-.81-.768-2.42-.967-2.68 0-5.91.56-9.68 1.7l-.72 6.54zm18.61-13.043l5.38 8.156 2.36 1.934c2.98-5.297 5.05-8.502 6.22-9.615h1.07l.86.966c-.11.86-3.48 6.86-10.09 18-1.66 3.13-2.88 5.93-3.65 8.41l-.63.25c-1-.47-1.51-1.19-1.51-2.16.06-1.25 1.78-5.17 5.15-11.76-4.86-5.23-7.29-9.47-7.29-12.73.9-.96 1.62-1.44 2.15-1.44zm43.82 0h.37c1.62.2 2.43.984 2.43 2.355v.475c0 2.367-.81 4.57-2.42 6.61h-.37c-.25-.07-.51-.463-.75-1.178l.95-3.533-.74-.48c-1.72.15-4.88 2.04-9.49 5.66v.23l12.27 2.37c1.24.98 1.87 2.63 1.87 4.95v1.4c0 3.17-2.04 5.93-6.13 8.26-1.6.63-3.15.95-4.65.95h-.38c-4.26 0-6.87-1.89-7.8-5.66V85.5c0-1.735.44-2.602 1.3-2.602.86 3 2.41 4.5 4.66 4.5 0 .307.93.46 2.8.46 2.76 0 5.42-1.41 8-4.237 0-1.87-3.97-3.06-11.9-3.55-2.86-.79-4.29-1.97-4.29-3.53 0-3.83 3.84-7.69 11.53-11.56l2.8-.47zm19.3-.053c4.66 0 6.98 1.365 6.98 4.096 0 5.402-5.09 10.29-15.29 14.66-.75 0-1.12.48-1.12 1.442-.1 5.296-.63 7.945-1.58 7.945h-1.13c-.3-.07-.6-.47-.89-1.195l2.02-19.723h-.22c-.6 0-.9-.727-.9-2.18 0-2.355 1.36-3.715 4.06-4.078l8.09-.967zm-9 13.957c5.15-1.347 9.05-3.59 11.71-6.732l.44-1.46v-.474l-1.12-.246h-1.12c-5.99.328-8.98.89-8.98 1.688l-.91 7.224zm34.77-13.904c.81.176 1.22.79 1.22 1.846-.26 1.992-1.06 2.988-2.41 2.988-8.83 0-13.25 1.23-13.25 3.69l-.24 2.076v1.142c5.77-1.383 9.71-2.074 11.82-2.074h.47c.81.352 1.21 1.12 1.21 2.303 0 1.69-1.12 2.54-3.37 2.54-7.39.96-11.09 2.12-11.09 3.47l-.23 2.31v.92c0 1.38.88 2.15 2.64 2.3 2.77-.3 6.23-.99 10.37-2.07h.72c.65.25.97.79.97 1.62v.69c0 1.89-4.02 3.35-12.06 4.38h-.72c-2.89 0-4.5-1.84-4.81-5.52 0-2.7.56-7.85 1.69-15.43l-.47-1.39c0-3.11 4.82-4.95 14.45-5.52l3.13-.23zm18.41 0h1.04c1.3 0 2.08 1.05 2.34 3.146v.493c0 3.17-1.2 5.27-3.6 6.29l-.42-.5v-.25l1.07-4.12-.84-.48c-3.5 0-7.67 3.31-12.5 9.93-1.15 2-1.72 3.53-1.72 4.59v.24c0 2.58 1.56 3.87 4.68 3.87h.2c3 0 6.33-.8 9.97-2.41h.65c.57.25.85.82.85 1.68v.96c-3 3.07-6.53 4.6-10.58 4.6-5.52-.58-8.28-3.32-8.28-8.23v-.49c0-6.27 4.45-12.4 13.34-18.4 1.69-.65 2.96-.97 3.83-.97zm9.02-.123h1.65c.55 0 .83.322.83.967-1.29 10.523-1.93 17.824-1.93 21.902v2.672c-.37 1.78-1.28 2.672-2.75 2.672h-.54l-1.11-.967c.74-11.04 1.66-19.8 2.76-26.28l1.09-.966zm14.98.123h.85c1.16 0 2.63 5.36 4.42 16.084 1.41 5.063 2.11 8.502 2.11 10.318-.29.96-.86 1.442-1.69 1.442-1.08 0-1.85-2.56-2.32-7.682l-.21-.228h-.21c-1.83.023-5.68 1.142-11.57 3.357-.56 3.2-1.47 4.8-2.74 4.8-.84-.32-1.26-.96-1.26-1.91 0-1.85 3.86-10.33 11.59-25.45l1.06-.72zm-.42 6.715c-1.68 3.047-3.23 6.252-4.64 9.615h1.48c1.43 0 3.26-.322 5.49-.967l-1.89-8.648h-.43zm13.2-6.768h.25c.76 0 1.4.393 1.92 1.178-1.11 8.11-1.91 15.363-2.39 21.762l13.71-2.83.48.703v1.424c0 2.156-4.97 4.125-14.9 5.906-1.77-.317-2.66-.867-2.66-1.653 1.31-17.343 2.27-26.015 2.88-26.015l.72-.475zm40.31.053c4.75 0 7.12 1.617 7.12 4.852v.72c0 2.262-1.07 4.442-3.22 6.54v.245c3.53 1.067 5.29 2.842 5.29 5.327v.966c0 4.055-3.98 7.037-11.95 8.948l-3.92.492h-2.28c-1.23 0-1.84-.645-1.84-1.934v-.246l1.84-19.863c-.77 0-1.16-.158-1.16-.475v-1.46c0-2.74 3.38-4.112 10.13-4.112zm-6.68 10.898h.25c7.2 0 10.8-1.617 10.8-4.85-1.18-.798-3.18-1.196-5.98-1.196h-2.76c-1.22 0-1.82.562-1.82 1.687l-.47 4.35zm-.46 4.606l-.46 7.734 2.31.492.23-.246h1.14c6.45-.843 9.67-2.373 9.67-4.588-2.12-2.26-5.42-3.392-9.9-3.392h-.91l-.23-.246-.23.246h-1.61zM1370 64.5h.84c1.16 0 2.63 5.36 4.41 16.084 1.407 5.063 2.11 8.502 2.11 10.318-.293.96-.856 1.442-1.69 1.442-1.076 0-1.85-2.56-2.32-7.682l-.21-.228h-.21c-1.83.023-5.683 1.142-11.566 3.357-.563 3.2-1.48 4.8-2.742 4.8-.843-.32-1.265-.96-1.265-1.91 0-1.85 3.86-10.33 11.585-25.45l1.052-.72zm-.426 6.715c-1.69 3.047-3.234 6.252-4.64 9.615h1.477c1.43 0 3.26-.322 5.49-.967l-1.9-8.648h-.42zm20.41-6.715c4.746 0 7.12 1.617 7.12 4.852v.72c0 2.262-1.073 4.442-3.218 6.54v.245c3.528 1.067 5.29 2.842 5.29 5.327v.966c0 4.055-3.983 7.037-11.952 8.948l-3.92.492h-2.3c-1.23 0-1.847-.645-1.847-1.934v-.246L1381 70.547c-.774 0-1.16-.158-1.16-.475v-1.46c0-2.74 3.374-4.112 10.124-4.112zm-6.68 10.898h.246c7.19 0 10.79-1.617 10.79-4.85-1.19-.798-3.18-1.196-5.98-1.196h-2.76c-1.22 0-1.83.562-1.83 1.687l-.477 4.35zm-.457 4.606l-.457 7.734 2.3.492.23-.246h1.14c6.44-.843 9.67-2.373 9.67-4.588-2.12-2.26-5.42-3.392-9.9-3.392h-.92l-.23-.246-.23.246h-1.61zm19.68-15.504l5.38 8.156 2.355 1.934c2.978-5.297 5.05-8.502 6.224-9.615h1.08l.86.966c-.116.86-3.48 6.86-10.09 18-1.663 3.13-2.88 5.93-3.655 8.41l-.63.25c-1-.47-1.51-1.19-1.51-2.16.06-1.25 1.78-5.17 5.15-11.76-4.86-5.23-7.29-9.47-7.29-12.73.9-.96 1.62-1.44 2.15-1.44zm-852.846 42c.79 0 1.18 2.72 1.18 8.156l1.58 10.336h.39c0-.597 1.58-3.803 4.73-9.615.49-3.832 1.41-5.748 2.76-5.748h.39c.8 0 1.46 2.95 1.97 8.87.88 4.04 1.54 6.44 1.97 7.2.42-2.04 2.53-8.05 6.31-18.02.55-.64 1.08-.95 1.58-.95.7 0 1.16.31 1.37.95 0 .82-1.97 6.18-5.91 16.08-.66 2.34-1.25 5.55-1.78 9.61-.42.79-.95 1.19-1.58 1.19-1.19 0-2.11-2.72-2.74-8.16-1.29-5.31-2.08-8.19-2.37-8.65l-3.94 7.68c-.66 1.5-1.25 4.06-1.77 7.68-.35.59-.87.99-1.56 1.2-1.1 0-2.02-4.16-2.76-12.48-1.05-5.88-1.58-10.61-1.58-14.17 0-.48.59-.88 1.78-1.19zm39.59-.053c5.01.692 7.51 3.686 7.51 8.983 0 6.937-2.75 12.68-8.23 17.226-2.26 1.29-4.28 1.934-6.07 1.934-4.34 0-7.15-2.344-8.4-7.03l-.17-2.18v-.74c0-7.57 3.46-13.312 10.37-17.226 1.74-.644 3.4-.967 5-.967zm-13.05 18.933c1.81 2.74 4.19 4.112 7.16 4.112 4.77 0 8.11-2.83 10-8.49l.36-2.672c0-3.984-1.96-6.328-5.89-7.03h-.54c-3.24 0-6.64 3.233-10.18 9.702-.59 1.945-.89 3.404-.89 4.377zm26.9-18.933c.75.305 1.17.62 1.25.95-1.33 8.355-2 14.425-2 18.21v2.602c4.47 0 8.14-2.06 11-6.16 1.12-9.94 2.21-14.91 3.25-14.91h.26c.99.1 1.49.34 1.49.72-1.5 9.04-2.25 15.82-2.25 20.34v3.77c0 1.24-.51 2.11-1.51 2.6h-1l-.99-.95v-.48l.24-4.01c-.59 0-3.85 1.49-9.75 4.48l-1.76.47c-2-.26-3.01-1.13-3.01-2.6v-.23c1.22-16.56 2.64-24.84 4.26-24.84h.51zm19.6 0h.25c.77 0 1.4.393 1.92 1.178-1.11 8.11-1.91 15.363-2.39 21.762l13.71-2.83.48.703v1.424c0 2.156-4.96 4.125-14.9 5.906-1.77-.317-2.65-.867-2.65-1.653 1.32-17.343 2.28-26.015 2.89-26.015l.72-.475zm23.93 0h1.07c5.1 0 8.22 2.022 9.37 6.065l.21 1.933c0 8.05-5.96 14.684-17.89 19.9l-1.05.245h-.22c-.31 0-.6-.57-.84-1.705l2.13-20.865c-.85 0-1.28-.24-1.28-.72v-.493c0-2.578 1.14-3.868 3.41-3.868l5.12-.5zm-4.25 5.098c-1.27 8.297-1.91 13.875-1.91 16.734v1.21c8.94-4.47 13.41-8.67 13.41-12.62v-.23c0-2.28-.64-3.41-1.91-3.41-1.58-1.13-4.14-1.69-7.66-1.69h-1.92zm40.66-5.045c4.75 0 7.12 1.617 7.12 4.852v.72c0 2.262-1.07 4.442-3.21 6.54v.245c3.53 1.067 5.29 2.842 5.29 5.327v.966c0 4.055-3.98 7.037-11.95 8.948l-3.92.492h-2.29c-1.23 0-1.84-.645-1.84-1.934v-.246l1.85-19.863c-.77 0-1.16-.158-1.16-.475v-1.46c0-2.74 3.38-4.112 10.13-4.112zm-6.68 10.898h.25c7.19 0 10.79-1.617 10.79-4.85-1.19-.798-3.18-1.196-5.98-1.196h-2.76c-1.22 0-1.83.562-1.83 1.687l-.48 4.35zm-.45 4.606l-.46 7.734 2.31.492.23-.246h1.15c6.45-.843 9.67-2.373 9.67-4.588-2.12-2.26-5.42-3.392-9.89-3.392H678l-.23-.246-.226.246h-1.62zm36.33-15.504c.81.176 1.22.79 1.22 1.846-.25 1.992-1.06 2.988-2.41 2.988-8.84 0-13.25 1.23-13.25 3.69l-.24 2.076v1.142c5.77-1.383 9.7-2.074 11.81-2.074h.48c.81.352 1.22 1.12 1.22 2.303 0 1.69-1.12 2.54-3.37 2.54-7.39.96-11.09 2.12-11.09 3.47l-.22 2.31v.92c0 1.38.88 2.15 2.64 2.3 2.77-.3 6.23-.99 10.37-2.07h.72c.65.25.97.79.97 1.62v.69c0 1.89-4.02 3.35-12.06 4.38h-.72c-2.89 0-4.5-1.84-4.81-5.52 0-2.7.56-7.85 1.68-15.43l-.47-1.39c0-3.11 4.82-4.95 14.45-5.52l3.13-.23zm26.99 0c4.75 0 7.12 1.617 7.12 4.852v.72c0 2.262-1.07 4.442-3.22 6.54v.245c3.53 1.067 5.29 2.842 5.29 5.327v.966c0 4.055-3.98 7.037-11.95 8.948l-3.92.492h-2.28c-1.23 0-1.84-.645-1.84-1.934v-.246l1.85-19.863c-.77 0-1.16-.158-1.16-.475v-1.46c0-2.74 3.38-4.112 10.13-4.112zm-6.68 10.898h.25c7.2 0 10.79-1.617 10.79-4.85-1.18-.798-3.17-1.196-5.97-1.196h-2.76c-1.22 0-1.83.562-1.83 1.687l-.47 4.35zm-.45 4.606l-.45 7.734 2.31.492.23-.246h1.15c6.45-.843 9.67-2.373 9.67-4.588-2.12-2.26-5.42-3.392-9.89-3.392h-.91l-.23-.246-.23.246h-1.62zm32.9-15.557c5.01.692 7.51 3.686 7.51 8.983 0 6.937-2.74 12.68-8.22 17.226-2.26 1.29-4.28 1.934-6.06 1.934-4.34 0-7.15-2.344-8.4-7.03l-.17-2.18v-.74c0-7.57 3.46-13.312 10.37-17.226 1.74-.644 3.4-.967 5-.967zm-13.04 18.933c1.81 2.74 4.19 4.112 7.16 4.112 4.77 0 8.11-2.83 10-8.49l.35-2.672c0-3.984-1.96-6.328-5.88-7.03h-.54c-3.24 0-6.64 3.233-10.18 9.702-.59 1.945-.89 3.404-.89 4.377zm34.76-18.933h2.43c3.72 0 5.57 1.295 5.57 3.885v.246c0 4.535-3.87 8.66-11.63 12.375v.23c3.88 3.56 7.12 6.233 9.71 8.014v.72c0 1.255-.4 2.063-1.21 2.427h-.97l-13.32-9.457-.24 4.85v3.64c-.41.81-1.06 1.213-1.94 1.213-.64 0-1.13-.322-1.46-.967v-1.46l2.18-18.93c-.64 0-.96-.48-.96-1.442 0-2.91 2.42-4.61 7.26-5.09l4.6-.24zm-8.47 13.096h.25c8.39-2.156 12.59-4.5 12.59-7.03v-.247c0-.446-.81-.768-2.42-.967-2.68 0-5.91.56-9.69 1.7l-.72 6.54zm20.32-13.096c1.07 0 2.35 2.004 3.84 6.012 2.89 5.9 6.09 10.95 9.62 15.15 1.19-11.57 2.07-18.38 2.64-20.45l.97-.72h.72c.48 0 .72.32.72.96-1.44 16.52-2.32 25.34-2.63 26.45l-1.44.47c-2.56 0-6.89-5.45-12.97-16.35l-.97-.97-.24.72-.72 11.07v1.44l.25 1.44c-.21 1.92-.85 2.88-1.92 2.88-.99-.35-1.55-.83-1.69-1.44 1.23-17.32 2.11-25.98 2.64-25.98l1.21-.72zm40.5-.07h1.66c.55 0 .83.322.83.967-1.29 10.523-1.93 17.824-1.93 21.902v2.672c-.36 1.78-1.27 2.672-2.74 2.672h-.54l-1.11-.967c.74-11.04 1.66-19.8 2.76-26.28l1.09-.966zm7.98.07c1.07 0 2.35 2.004 3.84 6.012 2.89 5.9 6.09 10.95 9.62 15.15 1.18-11.57 2.06-18.38 2.64-20.45l.97-.72h.72c.48 0 .72.32.72.96-1.44 16.52-2.32 25.34-2.63 26.45l-1.44.47c-2.57 0-6.89-5.45-12.97-16.35l-.96-.97-.24.72-.72 11.07v1.44l.25 1.44c-.21 1.92-.85 2.88-1.92 2.88-.98-.35-1.55-.83-1.69-1.44 1.23-17.32 2.11-25.98 2.64-25.98l1.22-.72zm47.8-4.447c5.72 0 8.58 1.875 8.58 5.625v.844c0 2.62-1.29 5.15-3.86 7.57v.28c4.23 1.24 6.35 3.3 6.35 6.19v1.12c0 4.7-4.78 8.16-14.36 10.38l-4.69.56h-2.76c-1.47 0-2.21-.75-2.21-2.25v-.28l2.21-23.03c-.93 0-1.39-.19-1.39-.56v-1.69c0-3.19 4.05-4.78 12.14-4.78zm-7.99 12.64h.28c8.65 0 12.97-1.87 12.97-5.61-1.43-.936-3.82-1.405-7.17-1.405h-3.32c-1.47 0-2.21.656-2.21 1.97l-.55 5.044zm-.56 5.342l-.54 8.983 2.76.562.28-.28h1.37c7.74-.985 11.6-2.76 11.6-5.327-2.53-2.625-6.48-3.938-11.86-3.938h-1.11l-.28-.28-.28.28h-1.93zm39.57-13.482c.81.176 1.22.79 1.22 1.846-.26 1.992-1.06 2.988-2.41 2.988-8.83 0-13.25 1.23-13.25 3.69l-.24 2.076v1.142c5.77-1.383 9.71-2.074 11.82-2.074h.48c.81.352 1.22 1.12 1.22 2.303 0 1.69-1.12 2.54-3.37 2.54-7.39.96-11.09 2.12-11.09 3.47l-.23 2.31v.92c0 1.38.88 2.15 2.64 2.3 2.77-.3 6.23-.99 10.37-2.07h.72c.65.25.97.79.97 1.62v.69c0 1.89-4.02 3.35-12.06 4.38h-.72c-2.9 0-4.5-1.84-4.82-5.52 0-2.7.57-7.85 1.69-15.43l-.47-1.39c0-3.11 4.82-4.95 14.45-5.52l3.13-.23zm20.75-.07c1.52 0 2.29.632 2.29 1.898v.475c0 1.746-1.36 2.62-4.08 2.62l-5.08.245c-1.52 8.12-2.28 15.105-2.28 20.953-.41 1.27-.83 1.9-1.26 1.9h-.77c-.88 0-1.38-.24-1.53-.72.86-8.99 1.79-16.29 2.8-21.9l-7.63 1.2c-.71 0-1.13-.71-1.26-2.14 0-2.38 2.12-3.57 6.36-3.57 2.55-.63 6.7-.95 12.47-.95zm20.34.017c.83.223 1.25.79 1.25 1.705v.23c-1.17 17.308-2 25.962-2.49 25.962l-.26.246h-.73c-.87 0-1.45-.404-1.76-1.213.33-2.31.49-5.543.49-9.703h-.24L952.7 126.1l-.73.966v4.606c0 1.37-.5 2.344-1.51 2.918h-.49c-.934 0-1.52-.404-1.754-1.213 1.16-17.473 2.83-26.21 5.01-26.21h.49l.757.985c-1.17 5.8-1.75 10.084-1.75 12.85 7.68-1.008 11.518-2.22 11.518-3.64l1-10.194 1.76-.72zm6.44 0h.25c.76 0 1.4.393 1.92 1.178-1.11 8.11-1.91 15.363-2.39 21.762l13.71-2.83.48.703v1.424c0 2.156-4.97 4.125-14.9 5.906-1.77-.317-2.65-.867-2.65-1.653 1.31-17.343 2.27-26.015 2.88-26.015l.72-.475zm33.35.053c.81.176 1.22.79 1.22 1.846-.26 1.992-1.06 2.988-2.41 2.988-8.83 0-13.25 1.23-13.25 3.69l-.24 2.076v1.142c5.77-1.383 9.71-2.074 11.82-2.074h.48c.81.352 1.21 1.12 1.21 2.303 0 1.69-1.12 2.54-3.37 2.54-7.39.96-11.09 2.12-11.09 3.47l-.23 2.31v.92c0 1.38.88 2.15 2.64 2.3 2.77-.3 6.23-.99 10.37-2.07h.72c.65.25.97.79.97 1.62v.69c0 1.89-4.02 3.35-12.06 4.38h-.72c-2.9 0-4.5-1.84-4.82-5.52 0-2.7.56-7.85 1.68-15.43l-.47-1.39c0-3.11 4.82-4.95 14.45-5.52l3.13-.23zm20.01-.053c.83.223 1.25.79 1.25 1.705v.23c-1.17 17.308-2 25.962-2.49 25.962l-.26.246h-.73c-.86 0-1.45-.404-1.76-1.213.33-2.31.5-5.543.5-9.703h-.25l-10.51 2.426-.74.966v4.606c0 1.37-.5 2.344-1.51 2.918h-.49c-.94 0-1.52-.404-1.76-1.213 1.16-17.473 2.83-26.21 5.01-26.21h.49l.76.985c-1.17 5.8-1.76 10.084-1.76 12.85 7.68-1.008 11.52-2.22 11.52-3.64l1-10.194 1.76-.72zm21.62.053c.81.176 1.21.79 1.21 1.846-.25 1.992-1.06 2.988-2.4 2.988-8.83 0-13.25 1.23-13.25 3.69l-.24 2.076v1.142c5.76-1.383 9.7-2.074 11.81-2.074h.48c.81.352 1.22 1.12 1.22 2.303 0 1.69-1.12 2.54-3.37 2.54-7.39.96-11.09 2.12-11.09 3.47l-.23 2.31v.92c0 1.38.88 2.15 2.64 2.3 2.77-.3 6.22-.99 10.37-2.07h.72c.64.25.97.79.97 1.62v.69c0 1.89-4.02 3.35-12.06 4.38h-.72c-2.9 0-4.5-1.84-4.82-5.52 0-2.7.56-7.85 1.69-15.43l-.48-1.39c0-3.11 4.82-4.95 14.45-5.52l3.13-.23zm12.15-.053h.46c.75.41 1.13 1.05 1.13 1.916v.492c0 5.204.46 11.297 1.37 18.282h.23c5.02-13.15 7.97-19.723 8.86-19.723h.69c.67 0 1.73 4.57 3.19 13.71 1.36 4.69 2.04 8.614 2.04 11.778-.45 1.125-1.13 1.688-2.04 1.688-.61 0-1.44-3.932-2.5-11.795l-1.83-7.682c-1.3 2.086-3.65 7.535-7.05 16.348-.97 1-1.8 1.56-2.49 1.69-1.97 0-2.95-2.65-2.95-7.94l-1.12-10.09h-.23l-6.82 15.38c-.41 2.57-.79 3.85-1.14 3.85h-.9l-.91-.95v-1.21c0-2.15 1.9-6.8 5.68-13.94 2.7-7.5 4.44-11.35 5.22-11.55l1.14-.24zm22.98 22.15c1.57 0 2.55.954 2.94 2.864 0 1.91-1.37 2.96-4.11 3.13-1.37-.51-2.05-1.38-2.05-2.6v-.26c.54-2.08 1.62-3.13 3.23-3.13zm40.5-26.597h.48c2.04.223 3.06 1.137 3.06 2.742v.545c0 2.742-1.02 5.297-3.06 7.664h-.47c-.31-.08-.62-.53-.93-1.37l1.18-4.09-.95-.56c-2.17.18-6.17 2.37-12.02 6.58v.28l15.56 2.75c1.57 1.14 2.36 3.06 2.36 5.75v1.64c0 3.68-2.59 6.88-7.77 9.6-2.04.73-4 1.09-5.89 1.09h-.47c-5.41 0-8.71-2.19-9.89-6.57v-1.64c0-2.01.55-3.02 1.65-3.02 1.08 3.47 3.04 5.21 5.89 5.21 0 .37 1.18.55 3.53.55 3.5 0 6.87-1.64 10.13-4.92 0-2.17-5.02-3.54-15.08-4.11-3.61-.92-5.41-2.29-5.41-4.09 0-4.45 4.87-8.93 14.61-13.43l3.54-.54zm22.54 4.447c5 .692 7.51 3.686 7.51 8.983 0 6.937-2.75 12.68-8.23 17.226-2.27 1.29-4.29 1.934-6.07 1.934-4.35 0-7.15-2.344-8.4-7.03l-.18-2.18v-.74c0-7.57 3.45-13.312 10.37-17.226 1.73-.644 3.4-.967 4.99-.967zm-13.04 18.932c1.81 2.74 4.19 4.11 7.16 4.11 4.77 0 8.11-2.83 10-8.49l.35-2.67c0-3.99-1.96-6.33-5.89-7.03h-.54c-3.24 0-6.64 3.23-10.17 9.7-.59 1.94-.89 3.4-.89 4.37zm56.13-18.95c1.53 0 2.29.63 2.29 1.89v.47c0 1.74-1.36 2.62-4.08 2.62l-5.08.24c-1.52 8.12-2.28 15.1-2.28 20.95-.41 1.26-.83 1.9-1.26 1.9h-.77c-.88 0-1.39-.24-1.53-.72.86-8.99 1.79-16.29 2.8-21.91l-7.63 1.19c-.71 0-1.13-.72-1.26-2.15 0-2.38 2.12-3.57 6.37-3.57 2.55-.63 6.7-.95 12.47-.95zm20.34.01c.84.22 1.25.79 1.25 1.7v.23c-1.17 17.31-2 25.96-2.49 25.96l-.26.24h-.74c-.87 0-1.45-.41-1.76-1.22.33-2.31.497-5.54.497-9.7h-.247l-10.51 2.42-.74.96v4.6c0 1.37-.504 2.34-1.51 2.92h-.496c-.935 0-1.52-.41-1.76-1.22 1.16-17.47 2.83-26.21 5.01-26.21h.496l.753.99c-1.17 5.8-1.755 10.09-1.755 12.85 7.677-1.01 11.515-2.22 11.515-3.64l1.002-10.19 1.76-.72zm21.62.05c.81.17 1.22.79 1.22 1.84-.26 1.99-1.06 2.99-2.41 2.99-8.84 0-13.26 1.23-13.26 3.69l-.25 2.07v1.14c5.76-1.38 9.7-2.08 11.81-2.08h.47c.81.35 1.21 1.12 1.21 2.3 0 1.68-1.13 2.53-3.38 2.53-7.39.96-11.09 2.11-11.09 3.46l-.23 2.3v.91c0 1.38.88 2.15 2.64 2.3 2.76-.31 6.22-1 10.37-2.08h.72c.64.25.96.79.96 1.62v.68c0 1.88-4.02 3.34-12.06 4.37h-.72c-2.9 0-4.5-1.84-4.82-5.52 0-2.71.56-7.85 1.68-15.44l-.48-1.39c0-3.12 4.81-4.96 14.45-5.52l3.12-.23zm18.5-4.5c1.03 0 1.55 3.15 1.55 9.47l2.06 11.97h.51c0-.68 2.06-4.4 6.19-11.15.646-4.45 1.85-6.68 3.605-6.68h.51c1.03 0 1.884 3.43 2.56 10.3 1.15 4.68 2.01 7.47 2.58 8.36.54-2.37 3.28-9.34 8.22-20.9.72-.74 1.41-1.11 2.05-1.11.92 0 1.53.37 1.81 1.11 0 .94-2.57 7.17-7.72 18.66-.87 2.71-1.64 6.42-2.32 11.14-.55.93-1.24 1.39-2.06 1.39-1.57 0-2.78-3.16-3.61-9.48-1.68-6.15-2.71-9.49-3.1-10.02l-5.12 8.95c-.86 1.73-1.63 4.7-2.32 8.91-.46.68-1.15 1.14-2.06 1.39-1.43 0-2.63-4.83-3.61-14.49-1.37-6.82-2.06-12.3-2.06-16.44 0-.56.77-1.02 2.32-1.39zm34.93 4.37h1.65c.55 0 .83.32.83.96-1.28 10.52-1.93 17.82-1.93 21.9v2.67c-.36 1.78-1.28 2.67-2.74 2.67h-.542l-1.11-.97c.74-11.04 1.66-19.8 2.76-26.28l1.09-.97zm19.02.12h.37c1.62.2 2.43.98 2.43 2.35v.47c0 2.36-.81 4.57-2.42 6.61h-.37c-.26-.07-.51-.47-.76-1.18l.95-3.54-.74-.48c-1.72.15-4.89 2.04-9.49 5.66v.23l12.27 2.37c1.24.98 1.86 2.63 1.86 4.95v1.41c0 3.17-2.05 5.93-6.14 8.26-1.61.63-3.16.95-4.66.95h-.39c-4.27 0-6.87-1.89-7.81-5.66v-1.42c0-1.74.43-2.6 1.3-2.6.85 3 2.41 4.5 4.66 4.5 0 .3.93.45 2.79.45 2.75 0 5.42-1.41 8-4.23 0-1.87-3.97-3.06-11.91-3.55-2.86-.79-4.29-1.97-4.29-3.53 0-3.83 3.84-7.69 11.53-11.57l2.79-.47zm25.05 0c.81.17 1.22.79 1.22 1.84-.26 1.99-1.06 2.99-2.41 2.99-8.84 0-13.26 1.23-13.26 3.69l-.25 2.07v1.14c5.76-1.38 9.7-2.08 11.81-2.08h.47c.81.35 1.21 1.12 1.21 2.3 0 1.69-1.13 2.53-3.38 2.53-7.4.96-11.09 2.11-11.09 3.46l-.23 2.3v.91c0 1.38.88 2.15 2.64 2.3 2.76-.31 6.22-1 10.37-2.08h.72c.64.24.96.78.96 1.62v.69c0 1.88-4.02 3.34-12.06 4.37h-.72c-2.89 0-4.5-1.84-4.82-5.52 0-2.71.56-7.85 1.69-15.44l-.48-1.39c0-3.12 4.82-4.96 14.45-5.52l3.13-.23zm28.64-4.43h.53c.87.48 1.3 1.22 1.3 2.21v.56c0 6.01.52 13.05 1.55 21.13h.27c5.72-15.2 9.09-22.8 10.11-22.8h.78c.77 0 1.97 5.28 3.62 15.85 1.56 5.41 2.34 9.95 2.34 13.6-.5 1.3-1.28 1.95-2.34 1.95-.69 0-1.64-4.54-2.84-13.62l-2.07-8.9c-1.49 2.42-4.16 8.72-8.03 18.89-1.11 1.14-2.06 1.79-2.85 1.95-2.25 0-3.37-3.06-3.37-9.18l-1.28-11.67h-.26l-7.77 17.79c-.47 2.96-.9 4.44-1.3 4.44h-1.04l-1.03-1.11v-1.39c0-2.5 2.16-7.87 6.49-16.12 3.07-8.66 5.06-13.11 5.96-13.34l1.28-.29zm41.4 4.43c.81.17 1.22.79 1.22 1.84-.26 1.99-1.06 2.99-2.41 2.99-8.83 0-13.25 1.23-13.25 3.69l-.24 2.07v1.14c5.77-1.38 9.71-2.08 11.82-2.08h.48c.81.35 1.22 1.12 1.22 2.3 0 1.69-1.12 2.53-3.37 2.53-7.39.96-11.09 2.11-11.09 3.46l-.22 2.3v.91c0 1.38.88 2.15 2.64 2.3 2.77-.31 6.23-1 10.37-2.08h.73c.65.24.97.78.97 1.62v.69c0 1.88-4.02 3.34-12.06 4.37h-.72c-2.89 0-4.5-1.84-4.812-5.52 0-2.71.564-7.85 1.69-15.44l-.476-1.39c0-3.12 4.82-4.96 14.45-5.52l3.13-.23zm5.08-.06c1.07 0 2.35 2 3.83 6.01 2.89 5.9 6.09 10.95 9.62 15.15 1.19-11.57 2.07-18.38 2.64-20.45l.97-.72h.72c.48 0 .73.32.73.97-1.44 16.52-2.32 25.34-2.64 26.45l-1.44.47c-2.56 0-6.89-5.45-12.97-16.35l-.96-.97-.24.72-.72 11.07v1.44l.25 1.44c-.21 1.92-.85 2.89-1.91 2.89-.98-.35-1.55-.83-1.69-1.44 1.23-17.32 2.11-25.98 2.64-25.98l1.21-.72zM526.79 148.5h2.267c1.007.633 1.51 1.342 1.51 2.127-.268 1.887-1.106 2.83-2.512 2.83-4.043 0-7.987.393-11.83 1.178l-.493 5.203 1.248.228h1.002c2.977 0 6.416-.474 10.32-1.423l.755 1.423c-.375 2.836-1.547 4.254-3.516 4.254-1.21.62-4.65 1.09-10.31 1.407-.4 7.09-1.07 10.634-2.02 10.634l-1 .23h-.24c-.42 0-.67-.31-.75-.95 0-3.85.67-10.93 2.01-21.23l-.73-.72c0-2.38 1.68-3.79 5.03-4.23 3.37-.63 6.47-.95 9.3-.95zm19.142-.053c5.004.692 7.505 3.686 7.505 8.983 0 6.937-2.742 12.68-8.226 17.226-2.26 1.29-4.28 1.934-6.06 1.934-4.34 0-7.15-2.344-8.4-7.03l-.17-2.18v-.74c0-7.57 3.46-13.312 10.37-17.226 1.74-.644 3.4-.967 5-.967zM532.89 167.38c1.803 2.74 4.188 4.112 7.153 4.112 4.77 0 8.103-2.83 10.002-8.49l.35-2.672c0-3.984-1.96-6.328-5.887-7.03h-.545c-3.246 0-6.64 3.233-10.178 9.702-.598 1.945-.896 3.404-.896 4.377zm25.276-18.933h.246c.762 0 1.4.393 1.916 1.178-1.113 8.11-1.91 15.363-2.39 21.762l13.71-2.83.475.703v1.424c0 2.156-4.97 4.125-14.906 5.906-1.77-.317-2.654-.867-2.654-1.653 1.312-17.343 2.273-26.015 2.882-26.015l.72-.475zm18.158 0h.246c.762 0 1.4.393 1.916 1.178-1.113 8.11-1.91 15.363-2.39 21.762l13.71-2.83.475.703v1.424c0 2.156-4.96 4.125-14.9 5.906-1.77-.317-2.65-.867-2.65-1.653 1.32-17.343 2.28-26.015 2.89-26.015l.72-.475zm29.918 0c5.004.692 7.506 3.686 7.506 8.983 0 6.937-2.742 12.68-8.227 17.226-2.26 1.29-4.28 1.934-6.06 1.934-4.35 0-7.15-2.344-8.4-7.03l-.17-2.18v-.74c0-7.57 3.46-13.312 10.37-17.226 1.74-.644 3.4-.967 5-.967zM593.2 167.38c1.804 2.74 4.19 4.112 7.154 4.112 4.77 0 8.103-2.83 10-8.49l.353-2.672c0-3.984-1.963-6.328-5.89-7.03h-.544c-3.246 0-6.638 3.233-10.177 9.702-.598 1.945-.897 3.404-.897 4.377zm23.448-18.88c.786 0 1.178 2.72 1.178 8.156l1.582 10.336h.387c0-.597 1.576-3.803 4.728-9.615.493-3.832 1.413-5.748 2.76-5.748h.387c.797 0 1.453 2.95 1.97 8.87.878 4.04 1.534 6.44 1.967 7.2.422-2.04 2.526-8.05 6.31-18.02.552-.64 1.08-.95 1.583-.95.703 0 1.16.31 1.37.95 0 .82-1.968 6.18-5.905 16.08-.656 2.34-1.248 5.55-1.776 9.61-.43.79-.95 1.19-1.59 1.19-1.2 0-2.11-2.72-2.74-8.16-1.29-5.31-2.08-8.19-2.38-8.65l-3.94 7.68c-.66 1.5-1.25 4.06-1.78 7.68-.35.59-.88.99-1.57 1.2-1.1 0-2.02-4.16-2.76-12.48-1.06-5.88-1.58-10.61-1.58-14.17 0-.48.59-.88 1.77-1.19zm43.014 0c.81.176 1.213.79 1.213 1.846-.258 1.992-1.06 2.988-2.408 2.988-8.836 0-13.254 1.23-13.254 3.69l-.246 2.076v1.142c5.765-1.383 9.703-2.074 11.812-2.074h.47c.81.352 1.21 1.12 1.21 2.303 0 1.69-1.13 2.54-3.38 2.54-7.4.96-11.09 2.12-11.09 3.47l-.23 2.31v.92c0 1.38.88 2.15 2.63 2.3 2.76-.3 6.22-.99 10.37-2.07h.72c.64.25.96.79.96 1.62v.69c0 1.89-4.02 3.35-12.06 4.38h-.72c-2.9 0-4.5-1.84-4.82-5.52 0-2.7.56-7.85 1.69-15.43l-.48-1.39c0-3.11 4.81-4.95 14.45-5.52l3.13-.23zm10.6-.053h1.072c5.098 0 8.22 2.022 9.37 6.065l.21 1.933c0 8.05-5.965 14.684-17.894 19.9l-1.055.245h-.23c-.315 0-.596-.57-.842-1.705l2.127-20.865c-.856 0-1.284-.24-1.284-.72v-.493c0-2.578 1.137-3.868 3.41-3.868l5.116-.5zm-4.254 5.098c-1.278 8.297-1.916 13.875-1.916 16.734v1.21c8.94-4.47 13.412-8.67 13.412-12.62v-.23c0-2.28-.64-3.41-1.916-3.41-1.582-1.13-4.137-1.69-7.664-1.69h-1.916zm49.36-5.115c1.523 0 2.284.632 2.284 1.898v.475c0 1.746-1.36 2.62-4.078 2.62l-5.08.245c-1.523 8.12-2.285 15.105-2.285 20.953-.41 1.27-.84 1.9-1.27 1.9h-.78c-.88 0-1.39-.24-1.53-.72.85-8.99 1.78-16.29 2.79-21.9l-7.63 1.2c-.72 0-1.14-.71-1.27-2.14 0-2.38 2.12-3.57 6.36-3.57 2.54-.63 6.7-.95 12.46-.95zm20.337.017c.832.223 1.248.79 1.248 1.705v.23c-1.172 17.308-2.004 25.962-2.496 25.962l-.264.246h-.738c-.867 0-1.453-.404-1.758-1.213.328-2.31.492-5.543.492-9.703h-.25l-10.51 2.426-.74.966v4.606c0 1.37-.51 2.344-1.51 2.918h-.5c-.94 0-1.53-.404-1.76-1.213 1.16-17.473 2.83-26.21 5.01-26.21h.49l.75.985c-1.17 5.8-1.76 10.084-1.76 12.85 7.67-1.008 11.51-2.22 11.51-3.64l1-10.194 1.75-.72zm21.62.053c.81.176 1.214.79 1.214 1.846-.26 1.992-1.06 2.988-2.41 2.988-8.84 0-13.26 1.23-13.26 3.69l-.25 2.076v1.142c5.76-1.383 9.7-2.074 11.81-2.074h.47c.81.352 1.21 1.12 1.21 2.303 0 1.69-1.13 2.54-3.38 2.54-7.4.96-11.09 2.12-11.09 3.47l-.23 2.31v.92c0 1.38.88 2.15 2.64 2.3 2.76-.3 6.22-.99 10.37-2.07h.72c.64.25.97.79.97 1.62v.69c0 1.89-4.02 3.35-12.06 4.38h-.72c-2.9 0-4.5-1.84-4.82-5.52 0-2.7.56-7.85 1.69-15.43l-.48-1.39c0-3.11 4.81-4.95 14.45-5.52l3.12-.23zm31.062 0h.37c1.616.2 2.425.984 2.425 2.355v.475c0 2.367-.81 4.57-2.426 6.61h-.37c-.257-.07-.51-.463-.755-1.178l.95-3.533-.73-.48c-1.72.15-4.88 2.04-9.49 5.66v.23l12.27 2.37c1.24.98 1.87 2.63 1.87 4.95v1.4c0 3.17-2.04 5.93-6.13 8.26-1.6.63-3.16.95-4.66.95h-.38c-4.26 0-6.86-1.89-7.8-5.66v-1.42c0-1.74.43-2.61 1.3-2.61.86 3 2.41 4.5 4.66 4.5 0 .3.93.46 2.79.46 2.76 0 5.42-1.41 8-4.24 0-1.87-3.96-3.06-11.9-3.55-2.86-.8-4.29-1.97-4.29-3.53 0-3.83 3.85-7.69 11.54-11.57l2.79-.48zm25.77-.07c1.523 0 2.284.632 2.284 1.898v.475c0 1.746-1.35 2.62-4.07 2.62l-5.08.245c-1.52 8.12-2.28 15.105-2.28 20.953-.41 1.27-.83 1.9-1.26 1.9h-.77c-.88 0-1.39-.24-1.53-.72.86-8.99 1.79-16.29 2.8-21.9l-7.63 1.2c-.71 0-1.13-.71-1.26-2.14 0-2.38 2.12-3.57 6.37-3.57 2.54-.63 6.7-.95 12.46-.95zm12.41.07h.843c1.16 0 2.63 5.36 4.412 16.084 1.407 5.063 2.11 8.502 2.11 10.318-.293.96-.856 1.442-1.688 1.442-1.078 0-1.85-2.56-2.32-7.682l-.21-.228h-.212c-1.828.023-5.684 1.142-11.566 3.357-.563 3.2-1.477 4.8-2.743 4.8-.843-.32-1.265-.96-1.265-1.91 0-1.85 3.86-10.33 11.584-25.45l1.054-.72zm-.422 6.715c-1.688 3.047-3.235 6.252-4.64 9.615h1.475c1.43 0 3.258-.322 5.485-.967l-1.9-8.648h-.42zm22.675-6.768h2.426c3.715 0 5.572 1.295 5.572 3.885v.246c0 4.535-3.88 8.66-11.636 12.375v.23c3.88 3.56 7.113 6.233 9.703 8.014v.72c0 1.255-.405 2.063-1.213 2.427h-.967l-13.324-9.457-.24 4.85v3.64c-.41.81-1.05 1.213-1.93 1.213-.64 0-1.13-.322-1.46-.967v-1.46l2.18-18.93c-.64 0-.96-.48-.96-1.442 0-2.91 2.42-4.61 7.26-5.09l4.61-.24zm-8.472 13.096h.246c8.39-2.156 12.586-4.5 12.586-7.03v-.247c0-.446-.81-.768-2.426-.967-2.684 0-5.912.56-9.686 1.7l-.72 6.54zm42.257-13.043h.844c1.16 0 2.63 5.36 4.41 16.084 1.4 5.063 2.11 8.502 2.11 10.318-.3.96-.86 1.442-1.69 1.442-1.08 0-1.85-2.56-2.32-7.682l-.21-.228h-.21c-1.83.023-5.69 1.142-11.57 3.357-.57 3.2-1.48 4.8-2.75 4.8-.85-.32-1.27-.96-1.27-1.91 0-1.85 3.86-10.33 11.58-25.45l1.05-.72zm-.42 6.715c-1.69 3.047-3.236 6.252-4.642 9.615h1.477c1.43 0 3.257-.322 5.484-.967l-1.9-8.648h-.42zm13.446-6.768c1.07 0 2.35 2.004 3.84 6.012 2.89 5.9 6.09 10.95 9.62 15.15 1.19-11.57 2.07-18.38 2.64-20.45l.97-.72h.72c.48 0 .72.32.72.96-1.44 16.52-2.32 25.34-2.63 26.45l-1.44.47c-2.56 0-6.89-5.45-12.97-16.35l-.96-.97-.25.72-.72 11.07v1.44l.25 1.44c-.21 1.92-.85 2.88-1.91 2.88-.98-.35-1.55-.83-1.69-1.44 1.23-17.32 2.11-25.98 2.64-25.98l1.21-.72zm29.29 0h1.07c5.1 0 8.22 2.022 9.37 6.065l.21 1.933c0 8.05-5.96 14.684-17.89 19.9l-1.05.245h-.23c-.31 0-.59-.57-.84-1.705l2.13-20.865c-.85 0-1.28-.24-1.28-.72v-.493c0-2.578 1.14-3.868 3.41-3.868l5.12-.5zm-4.25 5.098c-1.27 8.297-1.91 13.875-1.91 16.734v1.21c8.94-4.47 13.41-8.67 13.41-12.62v-.23c0-2.28-.64-3.41-1.91-3.41-1.58-1.13-4.13-1.69-7.66-1.69h-1.91zm49.36-5.115c1.53 0 2.29.632 2.29 1.898v.475c0 1.746-1.36 2.62-4.08 2.62l-5.08.245c-1.52 8.12-2.28 15.105-2.28 20.953-.41 1.27-.83 1.9-1.26 1.9h-.77c-.88 0-1.39-.24-1.53-.72.86-8.99 1.79-16.29 2.8-21.9l-7.63 1.2c-.71 0-1.13-.71-1.26-2.14 0-2.38 2.12-3.57 6.36-3.57 2.54-.63 6.7-.95 12.46-.95zm20.34.017c.83.223 1.25.79 1.25 1.705v.23c-1.17 17.308-2 25.962-2.49 25.962l-.26.246h-.74c-.86 0-1.45-.404-1.75-1.213.33-2.31.5-5.543.5-9.703h-.24L976.1 168.1l-.738.966v4.606c0 1.37-.505 2.344-1.513 2.918h-.5c-.94 0-1.53-.404-1.76-1.213 1.16-17.473 2.83-26.21 5.01-26.21h.49l.75.985c-1.17 5.8-1.76 10.084-1.76 12.85 7.67-1.008 11.51-2.22 11.51-3.64l1-10.194 1.75-.72zm13.68.053h.85c1.16 0 2.63 5.36 4.41 16.084 1.41 5.063 2.11 8.502 2.11 10.318-.29.96-.85 1.442-1.69 1.442-1.08 0-1.85-2.56-2.32-7.682l-.21-.228h-.21c-1.83.023-5.68 1.142-11.56 3.357-.56 3.2-1.47 4.8-2.74 4.8-.84-.32-1.26-.96-1.26-1.91 0-1.85 3.86-10.33 11.58-25.45l1.06-.72zm-.42 6.715c-1.68 3.047-3.23 6.252-4.64 9.615h1.48c1.43 0 3.26-.322 5.49-.967l-1.9-8.648h-.42zm29.11-6.785c1.53 0 2.29.632 2.29 1.898v.475c0 1.746-1.36 2.62-4.08 2.62l-5.08.245c-1.52 8.12-2.28 15.105-2.28 20.953-.41 1.27-.83 1.9-1.26 1.9h-.77c-.88 0-1.39-.24-1.53-.72.86-8.99 1.79-16.29 2.8-21.9l-7.63 1.2c-.71 0-1.13-.71-1.26-2.14 0-2.38 2.13-3.57 6.37-3.57 2.55-.63 6.7-.95 12.47-.95zm8.62-4.412c1.71.55 2.57 1.3 2.57 2.25-.36 1.488-2.61 4.757-6.73 9.808h-1.61l-1.26-1.002v-.756l4.82-7.787c.33-1.67 1.07-2.51 2.23-2.51zm18.28 4.482h.37c1.62.2 2.43.984 2.43 2.355v.475c0 2.367-.81 4.57-2.42 6.61h-.37c-.26-.07-.51-.463-.76-1.178l.95-3.533-.73-.48c-1.72.15-4.88 2.04-9.49 5.66v.23l12.27 2.37c1.24.98 1.87 2.63 1.87 4.95v1.4c0 3.17-2.05 5.93-6.14 8.26-1.6.63-3.16.95-4.66.95h-.38c-4.26 0-6.86-1.89-7.8-5.66v-1.42c0-1.74.43-2.61 1.3-2.61.86 3 2.41 4.5 4.66 4.5 0 .3.93.46 2.79.46 2.76 0 5.42-1.41 8-4.24 0-1.87-3.96-3.06-11.9-3.55-2.86-.8-4.29-1.97-4.29-3.53 0-3.83 3.85-7.69 11.53-11.57l2.8-.48zm22.98 0c.79 0 1.18 2.72 1.18 8.156l1.59 10.336h.39c0-.597 1.58-3.803 4.73-9.615.49-3.832 1.41-5.748 2.76-5.748h.39c.8 0 1.45 2.95 1.97 8.87.88 4.04 1.53 6.44 1.97 7.2.43-2.04 2.53-8.05 6.31-18.02.56-.64 1.08-.95 1.59-.95.71 0 1.16.31 1.37.95 0 .82-1.96 6.18-5.9 16.08-.65 2.34-1.25 5.55-1.77 9.61-.42.79-.95 1.19-1.58 1.19-1.19 0-2.11-2.72-2.74-8.16-1.29-5.31-2.08-8.19-2.37-8.65l-3.94 7.68c-.65 1.5-1.25 4.06-1.77 7.68-.35.59-.87.99-1.56 1.2-1.1 0-2.02-4.16-2.76-12.48-1.05-5.88-1.58-10.61-1.58-14.17 0-.48.59-.88 1.77-1.19zm43-.053c.83.223 1.25.79 1.25 1.705v.23c-1.17 17.308-2 25.962-2.49 25.962l-.26.246h-.74c-.87 0-1.45-.404-1.76-1.213.33-2.31.49-5.543.49-9.703h-.24l-10.51 2.426-.74.966v4.606c0 1.37-.5 2.344-1.51 2.918h-.49c-.94 0-1.52-.404-1.76-1.213 1.16-17.473 2.83-26.21 5.01-26.21h.49l.76.985c-1.17 5.8-1.76 10.084-1.76 12.85 7.68-1.008 11.51-2.22 11.51-3.64l1-10.194 1.76-.72zm21.62.053c.81.176 1.22.79 1.22 1.846-.25 1.992-1.06 2.988-2.4 2.988-8.84 0-13.26 1.23-13.26 3.69l-.24 2.076v1.142c5.77-1.383 9.7-2.074 11.81-2.074h.48c.81.352 1.22 1.12 1.22 2.303 0 1.69-1.12 2.54-3.37 2.54-7.39.96-11.09 2.12-11.09 3.47l-.23 2.31v.92c0 1.38.88 2.15 2.64 2.3 2.77-.3 6.22-.99 10.37-2.07h.72c.64.25.97.79.97 1.62v.69c0 1.89-4.02 3.35-12.06 4.38h-.72c-2.89 0-4.5-1.84-4.81-5.52 0-2.7.56-7.85 1.69-15.43l-.47-1.39c0-3.11 4.82-4.95 14.45-5.52l3.13-.23zm14.31-.053h2.43c3.72 0 5.58 1.295 5.58 3.885v.246c0 4.535-3.88 8.66-11.64 12.375v.23c3.88 3.56 7.11 6.233 9.7 8.014v.72c0 1.255-.4 2.063-1.21 2.427h-.97l-13.32-9.457-.24 4.85v3.64c-.41.81-1.06 1.213-1.94 1.213-.64 0-1.13-.322-1.46-.967v-1.46l2.18-18.93c-.64 0-.96-.48-.96-1.442 0-2.91 2.42-4.61 7.26-5.09l4.61-.24zm-8.47 13.096h.25c8.39-2.156 12.59-4.5 12.59-7.03v-.247c0-.446-.81-.768-2.42-.967-2.68 0-5.91.56-9.68 1.7l-.72 6.54zm35.26-13.043c.81.176 1.22.79 1.22 1.846-.25 1.992-1.06 2.988-2.41 2.988-8.83 0-13.25 1.23-13.25 3.69l-.24 2.076v1.142c5.77-1.383 9.71-2.074 11.82-2.074h.48c.81.352 1.21 1.12 1.21 2.303 0 1.69-1.12 2.54-3.37 2.54-7.39.96-11.09 2.12-11.09 3.47l-.23 2.31v.92c0 1.38.88 2.15 2.64 2.3 2.77-.3 6.23-.99 10.37-2.07h.73c.64.25.97.79.97 1.62v.69c0 1.89-4.02 3.35-12.06 4.38h-.72c-2.9 0-4.5-1.84-4.82-5.52 0-2.7.56-7.85 1.69-15.43l-.48-1.39c0-3.11 4.82-4.95 14.45-5.52l3.13-.23zm21.82-.123h1.66c.55 0 .83.322.83.967-1.29 10.523-1.93 17.824-1.93 21.902v2.672c-.36 1.78-1.27 2.672-2.74 2.672h-.54l-1.11-.967c.74-11.04 1.66-19.8 2.76-26.28l1.09-.966zm23.65.053c1.53 0 2.29.632 2.29 1.898v.475c0 1.746-1.36 2.62-4.08 2.62l-5.08.245c-1.52 8.12-2.28 15.105-2.28 20.953-.41 1.27-.83 1.9-1.27 1.9h-.77c-.88 0-1.39-.24-1.53-.72.86-8.99 1.79-16.29 2.8-21.9l-7.63 1.2c-.71 0-1.13-.71-1.26-2.14 0-2.38 2.12-3.57 6.37-3.57 2.54-.63 6.7-.95 12.46-.95zm36.02 0c1.53 0 2.29.632 2.29 1.898v.475c0 1.746-1.36 2.62-4.07 2.62l-5.08.245c-1.52 8.12-2.28 15.105-2.28 20.953-.41 1.27-.83 1.9-1.26 1.9h-.77c-.88 0-1.39-.24-1.53-.72.86-8.99 1.79-16.29 2.8-21.9l-7.63 1.2c-.71 0-1.13-.71-1.26-2.14 0-2.38 2.12-3.57 6.37-3.57 2.55-.63 6.7-.95 12.47-.95zm16.93.017c5.01.692 7.51 3.686 7.51 8.983 0 6.937-2.74 12.68-8.22 17.226-2.26 1.29-4.28 1.934-6.06 1.934-4.35 0-7.15-2.344-8.4-7.03l-.17-2.18v-.74c0-7.57 3.46-13.312 10.37-17.226 1.74-.644 3.4-.967 4.99-.967zm-13.04 18.932c1.81 2.74 4.19 4.11 7.16 4.11 4.77 0 8.1-2.83 10-8.49l.35-2.67c0-3.99-1.96-6.33-5.89-7.03h-.54c-3.24 0-6.63 3.23-10.17 9.7-.6 1.94-.9 3.4-.9 4.37zm37.04-18.94c5 .69 7.51 3.68 7.51 8.98 0 6.93-2.74 12.68-8.23 17.22-2.26 1.29-4.28 1.93-6.06 1.93-4.35 0-7.15-2.35-8.4-7.03l-.17-2.18v-.74c0-7.57 3.46-13.32 10.37-17.23 1.74-.65 3.4-.97 5-.97zm-13.04 18.93c1.8 2.74 4.19 4.11 7.15 4.11 4.77 0 8.11-2.83 10-8.49l.36-2.68c0-3.99-1.97-6.33-5.89-7.03h-.55c-3.25 0-6.64 3.23-10.18 9.7-.6 1.94-.89 3.4-.89 4.37zm26.88-18.78l.7.96-.7 9.14 14.35-7.95c.62.77.93 1.73.93 2.88-1.61 2.27-5.77 5.16-12.46 8.66v.24c3.09 4.02 6.62 7.38 10.58 10.09v.49c0 2.23-.78 3.35-2.35 3.35l-11.75-9.62c-.47 6.41-.94 9.61-1.4 9.61l-1.17.24c-.78-.26-1.17-.74-1.17-1.44l.93-11.3-.23-2.88c.54 0 1.01-3.54 1.41-10.6.64-1.28 1.43-1.92 2.36-1.92zm49.73-.18c1.52 0 2.28.63 2.28 1.9v.47c0 1.74-1.36 2.62-4.08 2.62l-5.08.24c-1.52 8.12-2.29 15.1-2.29 20.95-.41 1.26-.83 1.9-1.26 1.9h-.77c-.88 0-1.39-.24-1.53-.72.86-8.99 1.79-16.29 2.8-21.91l-7.63 1.19c-.71 0-1.13-.72-1.26-2.15 0-2.38 2.12-3.57 6.37-3.57 2.54-.64 6.7-.95 12.46-.95zm20.33.01c.83.22 1.25.79 1.25 1.7v.23c-1.17 17.3-2 25.96-2.49 25.96l-.27.24h-.74c-.87 0-1.45-.41-1.76-1.22.33-2.31.49-5.55.49-9.71h-.24l-10.51 2.43-.74.96v4.6c0 1.37-.5 2.34-1.51 2.91h-.49c-.93 0-1.52-.41-1.75-1.22 1.16-17.47 2.83-26.21 5.01-26.21h.5l.75.99c-1.17 5.8-1.76 10.08-1.76 12.85 7.68-1.01 11.52-2.22 11.52-3.64l1-10.2 1.76-.72zm21.62.05c.81.17 1.21.79 1.21 1.84-.25 1.99-1.06 2.99-2.41 2.99-8.83 0-13.25 1.23-13.25 3.69l-.24 2.07v1.14c5.77-1.39 9.7-2.08 11.81-2.08h.48c.81.35 1.21 1.12 1.21 2.3 0 1.69-1.12 2.53-3.37 2.53-7.39.96-11.09 2.11-11.09 3.46l-.23 2.3v.91c0 1.38.88 2.15 2.64 2.3 2.77-.3 6.22-.99 10.37-2.07h.72c.65.25.97.78.97 1.62v.68c0 1.88-4.02 3.34-12.06 4.37h-.72c-2.9 0-4.5-1.84-4.82-5.52 0-2.71.56-7.85 1.69-15.44l-.47-1.39c0-3.12 4.82-4.96 14.45-5.52l3.13-.23zm12.15-.06h.46c.75.41 1.12 1.05 1.12 1.91v.49c0 5.2.46 11.3 1.37 18.28h.23c5.02-13.15 7.97-19.73 8.86-19.73h.69c.67 0 1.73 4.57 3.18 13.71 1.36 4.69 2.04 8.61 2.04 11.78-.44 1.12-1.12 1.69-2.04 1.69-.6 0-1.44-3.94-2.49-11.8l-1.83-7.68c-1.3 2.09-3.65 7.54-7.05 16.35-.97 1-1.8 1.56-2.49 1.69-1.97 0-2.95-2.65-2.95-7.95l-1.12-10.09h-.23l-6.82 15.38c-.41 2.57-.79 3.85-1.14 3.85h-.9l-.91-.95v-1.22c0-2.16 1.89-6.8 5.68-13.94 2.7-7.5 4.44-11.35 5.22-11.55l1.15-.25zm31.38-4.42c.7.33 1.05.72 1.05 1.18-3.34 10.76-5.01 17.57-5.01 20.44-.95 1.1-1.74 1.65-2.39 1.65-1.05-.38-1.58-.85-1.58-1.41 1.66-14.58 3.87-21.87 6.61-21.87h1.32zm-6.24 26.38c1.66.31 2.5 1.18 2.5 2.6v.23c-.67 2.23-2.27 3.34-4.8 3.34-1.25 0-2.01-.87-2.26-2.6 0-2.01 1.52-3.2 4.57-3.57z" fill="#000"/><path d="M626.856 383.24L663 422l-70.81 6.587C558.573 455.65 506.7 473 448.5 473 347.156 473 265 420.393 265 355.5S347.156 238 448.5 238 632 290.607 632 355.5c0 9.556-1.782 18.846-5.144 27.74z" stroke="#000" stroke-width="4" fill="#FFF"/><path d="M334.023 301.03c1.542 0 2.313.657 2.313 1.97v.484c0 1.802-1.375 2.704-4.125 2.704l-5.14.25c-1.54 8.375-2.31 15.572-2.31 21.593-.41 1.32-.84 1.97-1.28 1.97h-.78c-.88 0-1.4-.24-1.54-.73.87-9.27 1.81-16.8 2.83-22.59l-7.72 1.24c-.72 0-1.14-.73-1.28-2.2 0-2.46 2.15-3.68 6.44-3.68 2.58-.66 6.78-.98 12.61-.98zm17.704 3.954c.74.198 1.11.703 1.11 1.516v.203c-1.043 15.386-1.782 23.078-2.22 23.078l-.234.22h-.656c-.77 0-1.292-.36-1.563-1.07.292-2.05.438-4.92.438-8.62h-.22l-9.343 2.16-.66.86v4.1c0 1.22-.45 2.09-1.35 2.6h-.44c-.84 0-1.36-.36-1.57-1.07 1.03-15.53 2.51-23.3 4.45-23.3h.43l.67.88c-1.05 5.16-1.57 8.97-1.57 11.43 6.82-.9 10.23-1.97 10.23-3.23l.89-9.06 1.56-.64zm19.218.047c.72.16 1.078.71 1.078 1.65-.23 1.77-.942 2.66-2.14 2.66-7.854 0-11.78 1.1-11.78 3.28l-.22 1.85v1.02c5.125-1.23 8.625-1.84 10.5-1.84h.422c.718.32 1.078 1 1.078 2.05 0 1.5-1 2.25-3 2.25-6.573.86-9.86 1.88-9.86 3.08l-.203 2.05v.81c0 1.23.782 1.91 2.344 2.05 2.458-.27 5.53-.88 9.22-1.84h.64c.572.22.86.7.86 1.44v.61c0 1.68-3.574 2.97-10.72 3.89h-.64c-2.573 0-4-1.63-4.282-4.9 0-2.41.5-6.98 1.5-13.72l-.422-1.23c0-2.77 4.282-4.41 12.844-4.91l2.78-.2zm27.61 0h.328c1.437.18 2.156.88 2.156 2.1v.42c0 2.11-.72 4.06-2.16 5.88h-.33c-.23-.06-.46-.41-.67-1.04l.84-3.14-.66-.42c-1.53.14-4.35 1.82-8.44 5.03v.21l10.9 2.11c1.1.88 1.65 2.34 1.65 4.41v1.25c0 2.82-1.82 5.27-5.45 7.34-1.43.57-2.81.85-4.14.85h-.35c-3.79 0-6.1-1.67-6.94-5.03v-1.26c0-1.54.38-2.31 1.15-2.31.76 2.67 2.14 4 4.14 4 0 .27.83.41 2.48.41 2.44 0 4.81-1.25 7.11-3.76 0-1.67-3.53-2.72-10.58-3.16-2.54-.71-3.82-1.76-3.82-3.14 0-3.41 3.42-6.84 10.25-10.28l2.48-.42zm22.906-.06c1.36 0 2.04.56 2.04 1.69v.42c0 1.55-1.21 2.33-3.62 2.33l-4.51.22c-1.35 7.22-2.03 13.43-2.03 18.63-.36 1.13-.74 1.69-1.12 1.69h-.68c-.78 0-1.23-.21-1.36-.64.76-7.99 1.59-14.48 2.49-19.47l-6.78 1.07c-.63 0-1.01-.63-1.12-1.9 0-2.11 1.88-3.17 5.66-3.17 2.26-.56 5.96-.84 11.08-.84zm11.04.06h.75c1.03 0 2.34 4.77 3.92 14.3 1.25 4.5 1.88 7.56 1.88 9.17-.26.86-.76 1.28-1.5 1.28-.96 0-1.64-2.27-2.06-6.82l-.18-.2h-.19c-1.62.02-5.05 1.02-10.28 2.99-.5 2.85-1.31 4.27-2.44 4.27-.75-.29-1.12-.86-1.12-1.7 0-1.64 3.43-9.18 10.3-22.62l.94-.64zm-.37 5.97c-1.5 2.71-2.87 5.56-4.12 8.55h1.32c1.27 0 2.9-.28 4.88-.86l-1.7-7.69h-.37zm20.16-6.01h2.16c3.31 0 4.96 1.15 4.96 3.46v.22c0 4.04-3.45 7.7-10.34 11v.21c3.45 3.17 6.32 5.54 8.62 7.13v.64c0 1.12-.36 1.84-1.08 2.16h-.86l-11.84-8.4-.22 4.32v3.23c-.36.72-.93 1.08-1.72 1.08-.57 0-1-.28-1.3-.86v-1.29l1.94-16.83c-.57 0-.86-.42-.86-1.28 0-2.59 2.15-4.1 6.45-4.53l4.1-.22zm-7.53 11.64h.22c7.46-1.91 11.19-4 11.19-6.25v-.22c0-.39-.71-.68-2.15-.86-2.38 0-5.25.51-8.61 1.52l-.64 5.81zm32.94-11.7h1.47c.49 0 .74.29.74.86-1.14 9.36-1.72 15.85-1.72 19.47v2.38c-.32 1.59-1.13 2.38-2.43 2.38h-.48l-.98-.86c.66-9.81 1.47-17.59 2.45-23.36l.97-.85zm16.91.11h.33c1.44.18 2.16.88 2.16 2.1v.42c0 2.11-.72 4.06-2.15 5.88h-.33c-.23-.06-.45-.41-.67-1.04l.84-3.14-.65-.42c-1.53.14-4.34 1.81-8.44 5.03v.2l10.91 2.11c1.11.88 1.66 2.34 1.66 4.41v1.25c0 2.82-1.81 5.27-5.45 7.35-1.42.57-2.8.85-4.14.85h-.34c-3.79 0-6.1-1.67-6.93-5.03v-1.26c0-1.54.38-2.31 1.15-2.31.76 2.67 2.14 4 4.14 4 0 .27.83.41 2.49.41 2.45 0 4.82-1.25 7.11-3.76 0-1.67-3.52-2.72-10.58-3.16-2.54-.71-3.81-1.75-3.81-3.14 0-3.41 3.42-6.83 10.25-10.28l2.49-.42zm32.5-.05c4.45.62 6.67 3.28 6.67 7.99 0 6.17-2.44 11.27-7.31 15.31-2.01 1.15-3.81 1.72-5.39 1.72-3.86 0-6.35-2.08-7.47-6.25l-.15-1.93v-.65c0-6.73 3.08-11.83 9.22-15.31 1.54-.57 3.02-.86 4.44-.86zm-11.6 16.83c1.61 2.44 3.73 3.66 6.36 3.66 4.24 0 7.21-2.51 8.89-7.54l.32-2.37c0-3.54-1.74-5.62-5.23-6.25h-.48c-2.88 0-5.9 2.88-9.05 8.63-.53 1.73-.79 3.03-.79 3.89zm36.53-16.83h.63c.57.23.85.73.85 1.5 0 1.04-2.17 5.53-6.53 13.47-2.13 5.95-3.47 9.16-4 9.63l-2.09.42c-.92 0-1.55-1.64-1.91-4.92-2.8-9.88-4.2-15.94-4.2-18.17.23-.64.65-1.14 1.27-1.5h.85c.76 0 1.53 3 2.31 8.99l2.53 9.41h.21c1.46-3.85 4.62-9.98 9.47-18.39l.64-.42zm18.18.05c.72.16 1.08.71 1.08 1.64-.23 1.77-.94 2.66-2.14 2.66-7.85 0-11.78 1.1-11.78 3.28l-.22 1.85v1.02c5.13-1.23 8.63-1.84 10.5-1.84h.43c.72.32 1.08 1 1.08 2.05 0 1.5-1 2.25-3 2.25-6.57.86-9.86 1.88-9.86 3.08l-.2 2.05v.82c0 1.23.79 1.91 2.35 2.05 2.46-.27 5.53-.89 9.22-1.84h.64c.57.22.86.7.86 1.44v.61c0 1.68-3.57 2.98-10.72 3.89h-.64c-2.57 0-4-1.63-4.28-4.9 0-2.4.5-6.98 1.5-13.72l-.42-1.23c0-2.77 4.29-4.4 12.85-4.9l2.78-.2zm12.72-.04h2.16c3.31 0 4.96 1.15 4.96 3.46v.22c0 4.03-3.45 7.7-10.34 11v.2c3.45 3.17 6.32 5.54 8.63 7.12v.64c0 1.12-.36 1.84-1.08 2.16h-.86l-11.84-8.4-.22 4.32v3.24c-.36.72-.94 1.08-1.72 1.08-.57 0-1-.28-1.3-.86v-1.29l1.94-16.83c-.57 0-.86-.42-.86-1.28 0-2.59 2.15-4.1 6.46-4.53l4.1-.22zm-7.53 11.64h.22c7.46-1.91 11.19-4 11.19-6.25v-.22c0-.39-.72-.68-2.15-.86-2.38 0-5.25.51-8.61 1.52l-.64 5.82zm-231.69 26.4c5.09 0 7.63 1.67 7.63 5v.75c0 2.34-1.14 4.58-3.43 6.74v.25c3.76 1.11 5.64 2.94 5.64 5.5v1c0 4.18-4.25 7.26-12.76 9.24l-4.17.5h-2.45c-1.31 0-1.97-.66-1.97-2v-.25l1.97-20.47c-.82 0-1.24-.16-1.24-.5v-1.5c0-2.83 3.6-4.25 10.8-4.25zm-7.11 11.24h.25c7.69 0 11.53-1.66 11.53-4.98-1.27-.83-3.39-1.25-6.37-1.25h-2.95c-1.31 0-1.97.59-1.97 1.75l-.48 4.49zm-.5 4.75l-.48 7.99 2.46.5.25-.25h1.21c6.87-.87 10.31-2.45 10.31-4.73-2.25-2.33-5.77-3.5-10.55-3.5h-.98l-.25-.25-.25.25h-1.72zm35.18-11.98c.72.16 1.08.71 1.08 1.64-.23 1.77-.94 2.66-2.14 2.66-7.85 0-11.78 1.1-11.78 3.28l-.22 1.85v1.02c5.13-1.23 8.63-1.84 10.5-1.84h.42c.72.32 1.08 1 1.08 2.05 0 1.5-1 2.25-3 2.25-6.57.85-9.86 1.88-9.86 3.08l-.2 2.05v.81c0 1.23.78 1.91 2.35 2.04 2.46-.27 5.53-.88 9.22-1.84h.64c.58.22.86.7.86 1.44v.61c0 1.68-3.57 2.98-10.72 3.89h-.64c-2.57 0-4-1.63-4.28-4.9 0-2.41.5-6.98 1.5-13.72l-.42-1.24c0-2.77 4.28-4.4 12.84-4.9l2.78-.2zm18.44-.06c1.35 0 2.03.56 2.03 1.69v.43c0 1.55-1.21 2.33-3.63 2.33l-4.52.22c-1.35 7.22-2.03 13.43-2.03 18.63-.37 1.12-.74 1.69-1.13 1.69h-.68c-.78 0-1.23-.21-1.36-.64.76-7.99 1.59-14.48 2.49-19.47l-6.78 1.06c-.64 0-1.01-.63-1.13-1.91 0-2.11 1.89-3.17 5.66-3.17 2.26-.56 5.95-.84 11.08-.84zm18.07.02c.74.2 1.11.71 1.11 1.52v.2c-1.04 15.39-1.78 23.08-2.22 23.08l-.23.22h-.66c-.77 0-1.29-.36-1.56-1.08.29-2.05.44-4.93.44-8.63h-.21l-9.34 2.16-.66.86v4.09c0 1.22-.45 2.09-1.34 2.6h-.44c-.83 0-1.35-.36-1.56-1.07 1.03-15.53 2.52-23.3 4.45-23.3h.44l.67.88c-1.04 5.15-1.56 8.96-1.56 11.42 6.83-.9 10.24-1.98 10.24-3.24l.89-9.06 1.57-.64zm5.72 0h.22c.68 0 1.24.35 1.7 1.05-.99 7.21-1.7 13.66-2.12 19.35l12.19-2.51.42.62v1.27c0 1.92-4.42 3.67-13.25 5.25-1.57-.28-2.36-.77-2.36-1.47 1.17-15.41 2.02-23.12 2.56-23.12l.64-.42zm29.64.05c.72.16 1.08.71 1.08 1.64-.23 1.77-.94 2.66-2.14 2.66-7.86 0-11.78 1.09-11.78 3.28l-.22 1.84v1.02c5.12-1.23 8.62-1.84 10.5-1.84h.42c.72.31 1.08 1 1.08 2.05 0 1.5-1 2.25-3 2.25-6.57.86-9.86 1.88-9.86 3.08l-.2 2.05v.82c0 1.23.78 1.91 2.35 2.05 2.46-.27 5.53-.89 9.22-1.85h.64c.58.22.86.7.86 1.44v.61c0 1.68-3.57 2.97-10.71 3.89h-.64c-2.57 0-4-1.63-4.28-4.91 0-2.41.5-6.98 1.5-13.72l-.42-1.23c0-2.77 4.28-4.4 12.85-4.9l2.78-.2zm17.78-.04c.74.2 1.11.7 1.11 1.52v.21c-1.04 15.39-1.78 23.08-2.22 23.08l-.23.22h-.65c-.77 0-1.29-.36-1.56-1.08.29-2.05.44-4.93.44-8.62h-.22l-9.34 2.16-.66.86v4.09c0 1.22-.45 2.09-1.34 2.6h-.44c-.83 0-1.36-.36-1.56-1.07 1.03-15.53 2.52-23.3 4.46-23.3h.44l.68.88c-1.04 5.16-1.56 8.97-1.56 11.43 6.82-.9 10.24-1.97 10.24-3.23l.89-9.06 1.56-.64zm19.22.05c.72.16 1.08.71 1.08 1.64-.23 1.77-.94 2.66-2.14 2.66-7.86 0-11.78 1.09-11.78 3.28l-.22 1.84v1.02c5.12-1.23 8.62-1.85 10.5-1.85h.42c.72.32 1.08 1 1.08 2.05 0 1.5-1 2.25-3 2.25-6.57.86-9.86 1.88-9.86 3.08l-.2 2.05v.82c0 1.23.78 1.91 2.35 2.05 2.46-.27 5.53-.88 9.22-1.84h.64c.58.22.86.69.86 1.43v.61c0 1.68-3.57 2.98-10.71 3.89h-.64c-2.57 0-4-1.63-4.28-4.9 0-2.41.5-6.98 1.5-13.72l-.42-1.23c0-2.77 4.28-4.41 12.85-4.91l2.78-.2zm10.8-.05h.41c.67.37 1 .93 1 1.7v.44c0 4.63.41 10.04 1.22 16.25h.2c4.46-11.69 7.08-17.53 7.88-17.53h.61c.59 0 1.54 4.06 2.83 12.19 1.21 4.17 1.81 7.66 1.81 10.47-.39 1-1 1.5-1.81 1.5-.54 0-1.28-3.49-2.21-10.48l-1.62-6.83c-1.16 1.86-3.24 6.7-6.26 14.54-.86.89-1.6 1.39-2.22 1.5-1.75 0-2.62-2.35-2.62-7.06l-1-8.97-.2.01-6.06 13.67c-.37 2.28-.71 3.42-1.02 3.42h-.8l-.81-.84v-1.08c0-1.92 1.68-6.05 5.05-12.39 2.39-6.67 3.94-10.09 4.64-10.27l1.02-.22zm25.03 18.77c.67.19 1.15.55 1.46 1.07v.43c0 2.48-1.86 5.55-5.58 9.22l-.97.22h-.25c-.87 0-1.52-.36-1.94-1.08v-.22c2.92-3.23 4.38-6.08 4.38-8.56.9-.72 1.86-1.07 2.91-1.07zm29.99-18.72h.33c1.44.17 2.16.87 2.16 2.09v.42c0 2.11-.72 4.06-2.15 5.88h-.33c-.23-.06-.45-.41-.67-1.05l.84-3.14-.65-.42c-1.53.14-4.34 1.81-8.43 5.03v.21l10.91 2.11c1.1.88 1.66 2.35 1.66 4.41v1.25c0 2.82-1.82 5.27-5.45 7.34-1.43.57-2.81.85-4.14.85h-.35c-3.79 0-6.11-1.67-6.94-5.03v-1.26c0-1.55.39-2.32 1.16-2.32.76 2.67 2.14 4 4.14 4 0 .27.83.41 2.48.41 2.45 0 4.82-1.26 7.11-3.77 0-1.66-3.53-2.72-10.58-3.15-2.54-.71-3.81-1.76-3.81-3.14 0-3.41 3.42-6.83 10.25-10.28l2.48-.42zm19.22-.05c4.45.62 6.67 3.28 6.67 7.99 0 6.17-2.43 11.27-7.31 15.31-2.01 1.15-3.8 1.72-5.39 1.72-3.86 0-6.35-2.08-7.47-6.25l-.15-1.94v-.65c0-6.73 3.08-11.83 9.22-15.31 1.54-.57 3.02-.86 4.44-.86zm-11.6 16.83c1.61 2.44 3.73 3.66 6.36 3.66 4.24 0 7.21-2.51 8.89-7.55l.32-2.37c0-3.54-1.74-5.63-5.23-6.25h-.48c-2.88 0-5.9 2.87-9.05 8.62-.53 1.73-.8 3.03-.8 3.89zM330.22 389h.22c.68 0 1.245.35 1.704 1.05-.99 7.21-1.7 13.652-2.12 19.34l12.186-2.516.42.622v1.27c0 1.917-4.417 3.667-13.25 5.25-1.574-.28-2.36-.77-2.36-1.47 1.166-15.415 2.02-23.124 2.562-23.124l.64-.42zm29.643.05c.72.16 1.08.7 1.08 1.64-.23 1.77-.94 2.65-2.14 2.65-7.852 0-11.78 1.097-11.78 3.28l-.22 1.85v1.02c5.127-1.23 8.627-1.848 10.5-1.848h.42c.72.315 1.08.997 1.08 2.05 0 1.5-1 2.25-3 2.25-6.57.855-9.86 1.88-9.86 3.08l-.2 2.046v.81c0 1.23.78 1.91 2.34 2.05 2.46-.27 5.53-.883 9.22-1.842h.64c.57.22.86.697.86 1.437v.61c0 1.677-3.58 2.974-10.72 3.89h-.64c-2.576 0-4-1.634-4.28-4.905 0-2.41.5-6.98 1.5-13.72l-.42-1.23c0-2.77 4.28-4.403 12.84-4.903l2.78-.205zm18.44-.06c1.355 0 2.03.56 2.03 1.68v.423c0 1.55-1.206 2.326-3.623 2.326l-4.516.22c-1.36 7.22-2.03 13.42-2.03 18.62-.36 1.12-.74 1.69-1.13 1.69h-.69c-.78 0-1.23-.22-1.36-.64.76-7.99 1.59-14.48 2.488-19.47l-6.78 1.06c-.637 0-1.01-.64-1.126-1.91 0-2.12 1.89-3.17 5.66-3.17 2.26-.57 5.96-.85 11.08-.85zm7.657-3.928c1.52.49 2.28 1.16 2.28 2-.322 1.326-2.317 4.23-5.984 8.72h-1.44l-1.13-.89v-.67l4.28-6.922c.29-1.49.958-2.23 1.99-2.23zm16.25 3.987h.327c1.44.18 2.16.87 2.16 2.09v.42c0 2.1-.72 4.06-2.158 5.87h-.33c-.23-.07-.46-.42-.68-1.05l.84-3.14-.66-.43c-1.53.13-4.35 1.81-8.44 5.03v.2l10.9 2.11c1.1.87 1.65 2.34 1.65 4.4v1.25c0 2.82-1.82 5.27-5.46 7.34-1.43.56-2.81.84-4.14.84h-.35c-3.79 0-6.11-1.68-6.94-5.03v-1.26c0-1.54.38-2.31 1.15-2.31.76 2.67 2.14 4 4.14 4 0 .27.83.41 2.49.41 2.45 0 4.82-1.26 7.11-3.77 0-1.67-3.53-2.72-10.58-3.16-2.54-.71-3.81-1.76-3.81-3.14 0-3.41 3.42-6.84 10.25-10.28l2.48-.43zm32.56-.05h.16c1.384 0 2.31 1.35 2.78 4.06l-.33.42h-.153l-1.31-.42c-3.58.53-7.34 3.02-11.26 7.48-1.097 1.94-1.64 3.29-1.64 4.06v.86c0 2.28 2.34 3.7 7.03 4.27 2.935 0 5.164-1.57 6.685-4.71l-1.95-.85c-.73 0-2.748.85-6.05 2.56-.324-.73-.485-1.44-.485-2.14v-.22c0-2.27 2.177-3.84 6.53-4.7h.33c2.5 0 3.75 1.64 3.75 4.92 0 3.38-2.777 6.38-8.33 8.98l-1.952.42c-3.53 0-5.93-1.5-7.19-4.49l-.33-2.78c0-6.45 3.32-11.94 9.958-16.46 1.678-.86 2.93-1.29 3.767-1.29zm18.737 0c4.45.61 6.67 3.27 6.67 7.98 0 6.16-2.43 11.27-7.31 15.31-2.01 1.14-3.81 1.72-5.39 1.72-3.862 0-6.35-2.09-7.47-6.25l-.152-1.94v-.66c0-6.73 3.07-11.83 9.22-15.31 1.54-.57 3.02-.86 4.434-.86zm-11.6 16.82c1.61 2.44 3.73 3.65 6.36 3.65 4.24 0 7.21-2.52 8.89-7.55l.32-2.38c0-3.54-1.746-5.63-5.235-6.25h-.486c-2.89 0-5.9 2.87-9.05 8.62-.53 1.73-.794 3.02-.794 3.89zm49.89-16.85c1.36 0 2.038.56 2.038 1.68v.42c0 1.55-1.21 2.33-3.63 2.33l-4.51.22c-1.36 7.22-2.037 13.42-2.037 18.62-.36 1.12-.74 1.69-1.12 1.69h-.687c-.78 0-1.23-.22-1.36-.64.76-7.99 1.59-14.48 2.49-19.47l-6.78 1.06c-.63 0-1.01-.64-1.12-1.91 0-2.11 1.89-3.17 5.66-3.17 2.26-.56 5.96-.84 11.08-.84zm18.08.01c.74.2 1.11.7 1.11 1.52v.2c-1.04 15.38-1.78 23.08-2.22 23.08l-.23.22h-.654c-.77 0-1.29-.36-1.563-1.08.29-2.05.44-4.93.44-8.63h-.22l-9.343 2.15-.657.86v4.1c0 1.22-.447 2.08-1.34 2.59h-.44c-.836 0-1.357-.36-1.565-1.08 1.03-15.53 2.514-23.29 4.45-23.29h.436l.67.87c-1.04 5.15-1.56 8.96-1.56 11.42 6.83-.9 10.24-1.98 10.24-3.24l.89-9.06 1.56-.64zm19.22.05c.72.15 1.08.7 1.08 1.64-.23 1.77-.942 2.65-2.14 2.65-7.854 0-11.78 1.09-11.78 3.28l-.22 1.84v1.02c5.126-1.23 8.626-1.84 10.5-1.84h.423c.72.31 1.08.99 1.08 2.05 0 1.5-1 2.25-3 2.25-6.573.85-9.86 1.88-9.86 3.08l-.2 2.04v.81c0 1.23.78 1.91 2.344 2.04 2.46-.27 5.53-.89 9.22-1.85h.64c.575.22.86.7.86 1.44v.61c0 1.67-3.57 2.97-10.717 3.89h-.64c-2.58 0-4-1.64-4.283-4.91 0-2.41.5-6.98 1.5-13.72l-.42-1.23c0-2.77 4.28-4.41 12.84-4.91l2.78-.2zm12.72-.05h2.16c3.3 0 4.952 1.15 4.952 3.45v.21c0 4.04-3.45 7.7-10.35 11v.21c3.45 3.16 6.32 5.54 8.63 7.12v.64c0 1.12-.36 1.84-1.08 2.16h-.86l-11.84-8.4-.22 4.31v3.23c-.37.72-.94 1.08-1.72 1.08-.57 0-1.01-.29-1.3-.86v-1.3l1.94-16.83c-.57 0-.86-.43-.86-1.28 0-2.59 2.15-4.1 6.45-4.53l4.1-.22zm-7.53 11.64h.22c7.46-1.92 11.19-4 11.19-6.25v-.22c0-.4-.72-.68-2.16-.86-2.38 0-5.25.51-8.61 1.52l-.64 5.82zm31.346-11.59c.72.15 1.077.7 1.077 1.64-.23 1.77-.94 2.65-2.14 2.65-7.853 0-11.78 1.09-11.78 3.28l-.22 1.84v1.01c5.127-1.23 8.627-1.85 10.5-1.85h.424c.72.31 1.08.99 1.08 2.04 0 1.5-1 2.25-3 2.25-6.57.85-9.86 1.88-9.86 3.07l-.2 2.05v.81c0 1.23.78 1.91 2.34 2.05 2.46-.27 5.53-.89 9.22-1.84h.64c.57.22.86.7.86 1.44v.61c0 1.67-3.57 2.97-10.72 3.89h-.64c-2.57 0-4-1.64-4.28-4.91 0-2.41.5-6.98 1.5-13.72l-.43-1.23c0-2.77 4.28-4.41 12.847-4.91l2.78-.21zm11.437-3.97c.627.29.94.64.94 1.04-2.97 9.56-4.454 15.62-4.454 18.17-.844.98-1.552 1.47-2.13 1.47-.933-.34-1.402-.75-1.402-1.25 1.48-12.96 3.435-19.44 5.87-19.44h1.175zm-5.545 23.45c1.48.28 2.22 1.05 2.22 2.31v.2c-.59 1.98-2.012 2.97-4.262 2.97-1.11 0-1.782-.77-2.01-2.31 0-1.78 1.355-2.84 4.064-3.17zM132.28 603.61l.795-.04c.683.297 1.047.862 1.09 1.694-.774 1.146-3.65 3.315-8.624 6.507l.01.21 6.44 4.92.04.78c-.27 1.58-.83 2.39-1.67 2.44-4.85-2.6-8.05-5.43-9.6-8.48l-.01-.18c1.28-1.9 4.61-4.35 9.98-7.36l1.56-.47zm27.108-9.37c5.077-.265 7.702 1.267 7.877 4.595l.04.75c.12 2.33-.906 4.63-3.08 6.904l.012.25c3.813.9 5.786 2.63 5.92 5.19l.053 1c.218 4.17-3.87 7.46-12.265 9.89l-4.14.71-2.45.13c-1.31.06-2-.57-2.07-1.9l-.014-.25.9-20.55c-.82.04-1.24-.1-1.26-.44l-.07-1.5c-.15-2.83 3.37-4.44 10.56-4.81zm-6.51 11.592l.248-.013c7.677-.41 11.43-2.27 11.255-5.59-1.31-.77-3.45-1.07-6.43-.92l-2.95.15c-1.31.07-1.93.68-1.87 1.85l-.25 4.5zm-.252 4.77l-.066 8 2.476.37.237-.263 1.217-.07c6.82-1.24 10.17-2.99 10.05-5.27-2.37-2.22-5.94-3.2-10.715-2.95l-.983.05-.263-.24-.24.26-1.72.09zm34.497-13.81c.726.12 1.113.647 1.162 1.583-.136 1.78-.802 2.702-2 2.765-7.842.41-11.706 1.71-11.592 3.893l-.122 1.853.06 1.014c5.06-1.496 8.52-2.293 10.39-2.39l.42-.023c.74.275 1.13.937 1.19 1.988.08 1.498-.88 2.3-2.88 2.404-6.52 1.19-9.74 2.39-9.68 3.59l-.09 2.05.05.81c.07 1.22.88 1.87 2.45 1.92 2.44-.4 5.48-1.17 9.11-2.32l.64-.04c.59.18.9.65.94 1.39l.04.61c.09 1.67-3.41 3.15-10.5 4.44l-.64.03c-2.57.13-4.08-1.43-4.53-4.68-.12-2.41.14-7 .78-13.78l-.48-1.21c-.14-2.77 4.05-4.63 12.57-5.57l2.77-.35zm18.41-1.026c1.35-.07 2.056.455 2.115 1.58l.022.42c.082 1.55-1.084 2.388-3.498 2.515l-4.498.46c-.974 7.28-1.326 13.52-1.053 18.71-.3 1.15-.65 1.73-1.03 1.75l-.68.04c-.78.04-1.24-.14-1.39-.56.34-8.02.83-14.54 1.46-19.57l-6.71 1.42c-.63.04-1.04-.58-1.22-1.84-.11-2.11 1.72-3.26 5.49-3.46 2.23-.68 5.9-1.15 11.02-1.42zm18.053-.93c.75.158 1.144.643 1.187 1.455l.01.21c-.235 15.42-.57 23.14-1.007 23.16l-.223.23-.655.04c-.77.04-1.31-.29-1.617-.99.19-2.06.18-4.94-.01-8.63l-.22.01-9.22 2.64-.61.9.22 4.09c.07 1.22-.34 2.11-1.2 2.66l-.44.03c-.83.05-1.37-.28-1.61-.99.22-15.56 1.3-23.39 3.23-23.49l.44-.02.72.84c-.77 5.21-1.09 9.03-.96 11.49 6.77-1.25 10.12-2.5 10.05-3.76l.42-9.1 1.53-.72zm5.71-.3l.22-.01c.675-.037 1.26.282 1.755.955-.61 7.25-.98 13.73-1.11 19.43l12.04-3.15.46.6.07 1.27c.1 1.92-4.21 3.9-12.95 5.94-1.58-.2-2.39-.64-2.43-1.34.36-15.45.81-23.2 1.35-23.22l.62-.45zm29.603-1.504c.72.118 1.11.645 1.16 1.582-.14 1.78-.81 2.7-2 2.764-7.85.41-11.71 1.71-11.59 3.894l-.13 1.852.05 1.014c5.05-1.495 8.51-2.292 10.39-2.39l.42-.022c.73.274 1.13.937 1.18 1.987.08 1.498-.88 2.3-2.88 2.404-6.52 1.197-9.75 2.394-9.69 3.59l-.1 2.055.04.81c.06 1.23.88 1.87 2.44 1.923 2.44-.4 5.47-1.174 9.11-2.324l.64-.03c.58.19.89.65.93 1.39l.03.61c.09 1.68-3.41 3.16-10.5 4.45l-.64.04c-2.57.14-4.08-1.42-4.53-4.67-.13-2.4.13-6.99.78-13.78l-.49-1.21c-.15-2.76 4.04-4.62 12.57-5.57l2.76-.35zm17.75-.978c.75.16 1.14.644 1.19 1.456l.01.203c-.24 15.418-.57 23.14-1.01 23.162l-.22.23-.66.035c-.77.04-1.31-.29-1.62-.995.18-2.064.17-4.943-.02-8.636l-.22.01-9.22 2.64-.61.89.21 4.09c.06 1.21-.34 2.1-1.21 2.66l-.44.02c-.83.04-1.37-.29-1.62-1 .22-15.57 1.29-23.4 3.23-23.5l.43-.02.72.84c-.77 5.2-1.09 9.03-.97 11.48 6.76-1.25 10.11-2.51 10.05-3.77l.41-9.1 1.53-.72zm19.19-.96c.72.12 1.11.647 1.16 1.583-.14 1.78-.81 2.702-2 2.765-7.84.41-11.71 1.71-11.59 3.893l-.13 1.853.05 1.014c5.05-1.496 8.51-2.293 10.39-2.39l.42-.023c.73.27 1.13.93 1.18 1.98.08 1.5-.88 2.3-2.88 2.4-6.52 1.19-9.75 2.39-9.69 3.59l-.1 2.05.04.81c.06 1.22.88 1.86 2.45 1.92 2.44-.4 5.48-1.18 9.11-2.33l.64-.04c.58.19.89.65.93 1.39l.03.61c.08 1.67-3.42 3.16-10.5 4.44l-.64.03c-2.57.13-4.08-1.43-4.54-4.68-.13-2.4.13-7 .78-13.78l-.49-1.21c-.15-2.77 4.04-4.63 12.57-5.57l2.76-.35zm10.78-.61l.4-.022c.68.33 1.04.88 1.08 1.648l.02.437c.24 4.62.93 10.007 2.07 16.164l.2-.01c3.84-11.9 6.15-17.87 6.94-17.92l.61-.03c.59-.03 1.75 3.98 3.46 12.03 1.42 4.1 2.21 7.55 2.36 10.36-.34 1.02-.92 1.55-1.73 1.6-.54.03-1.46-3.42-2.77-10.35l-1.98-6.73c-1.06 1.91-2.89 6.86-5.5 14.84-.82.93-1.53 1.47-2.14 1.62-1.75.09-2.75-2.21-2.99-6.91l-1.47-8.9-.2.01-5.34 13.97c-.25 2.3-.52 3.45-.84 3.47l-.8.04-.86-.8-.06-1.07c-.1-1.91 1.36-6.13 4.39-12.64 2.04-6.78 3.41-10.28 4.09-10.49l1-.27z" fill="#000"/></g></svg>