<svg width="1540" height="820" viewBox="0 0 1540 820" xmlns="http://www.w3.org/2000/svg" xmlns:xlink="http://www.w3.org/1999/xlink"><title>story16</title><defs><path id="b" d="M40 40h865v120H40z"/><filter x="-50%" y="-50%" width="200%" height="200%" filterUnits="objectBoundingBox" id="a"><feOffset dx="6" dy="6" in="SourceAlpha" result="shadowOffsetOuter1"/><feColorMatrix values="0 0 0 0 0 0 0 0 0 0 0 0 0 0 0 0 0 0 1 0" in="shadowOffsetOuter1"/></filter></defs><g fill="none" fill-rule="evenodd"><path fill="green" d="M1540 280H0v540h1540z"/><path d="M1540 0v738.94c-177.35-42.932-446.83-70.377-748.677-70.377C464.2 668.563 175.01 700.743 0 750V0h1540z" fill="navy"/><path fill="#FFE680" d="M446.43 339.667l11.36-10.835 13.362 8.236-6.795-14.15 11.963-10.164-15.558 2.09-5.97-14.52-2.82 15.443-15.652 1.19 13.814 7.456m603.46 114.594l15.566-1.806 5.697 14.6 3.093-15.36 15.644-.9-13.654-7.69 3.972-15.15-11.532 10.61-13.19-8.46 6.528 14.25-12.124 9.93m252.582 68.19l14.286-7.04 10.435 12.04-2.28-15.76 14.668-6.2-15.696-2.7-1.37-15.87-7.42 14.09-15.52-3.6 11.11 11.41-8.22 13.64m-383 20.41l7.18-14.16 15.52 3.36-11.25-11.21 7.98-13.73-14.14 7.24-10.59-11.84 2.51 15.68-14.53 6.41 15.69 2.46 1.6 15.8M72.11 151.34l11.36-10.833 13.362 8.236-6.795-14.15L102 124.428l-15.558 2.088L80.472 112l-2.82 15.442L62 128.632l13.815 7.455m-15.25 316.176l5.874-14.546 15.56 1.99-12.02-10.082 6.7-14.184-13.3 8.32L51.96 413l3.8 15.22L42 435.758l15.65 1.092 2.915 15.413M579.573 230.38l15.698 2.777 1.3 15.888 7.49-14.07 15.52 3.674-11.06-11.48 8.29-13.62-14.33 6.98-10.39-12.09 2.21 15.79-14.71 6.14m-189 270.99l6.56-14.35 15.54 2.7-11.62-10.67 7.37-13.95-13.73 7.75-10.98-11.32 3.13 15.46-14.16 6.95 15.67 1.8 2.24 15.61m680.96-381.12l11.36-10.84 13.36 8.24-6.8-14.15 11.97-10.17-15.55 2.09-5.97-14.52-2.82 15.44-15.65 1.19 13.82 7.45m-659.4-18.41l14.29-7.04 10.44 12.03-2.28-15.77L453 69.57l-15.696-2.702L435.934 51l-7.42 14.092-15.514-3.6 11.11 11.412-8.22 13.642m-252.528 514.03l9.634-13.07 15.087 6-9.453-13.2L189 567.813l-15.477 4.91L164.845 559l-.112 16.237L149 579.25l15.407 5.123-1.045 16.204M707.155 571.8l11.615 10.672-7.376 13.943 13.74-7.748 10.98 11.324-3.12-15.46 14.16-6.94-15.668-1.81-2.23-15.61-6.56 14.35-15.54-2.7M1412.81 99.15l10.977-11.33 13.746 7.74-7.385-13.94 11.61-10.68-15.54 2.715-6.57-14.343-2.22 15.618-15.67 1.817 14.168 6.94-3.115 15.464m30.81 507.2l9.02 13.36-10.63 12.11 15.49-4.45 8.24 13.86.56-16.1 15.72-3.55-15.14-5.5 1.48-16.05-9.91 12.71-14.8-6.37M827.7 241.26l8.312 13.61-11.05 11.493 15.51-3.7 7.52 14.06 1.276-15.895 15.7-2.8-14.726-6.123 2.185-15.796-10.375 12.11-14.35-6.96"/><use fill="#000" filter="url(#a)" xlink:href="#b"/><use fill="#FFF" xlink:href="#b"/><path d="M86.123 60c6.117.797 9.176 4.26 9.176 10.39 0 8.038-3.36 14.688-10.06 19.95-2.77 1.5-5.24 2.25-7.42 2.25-5.32 0-8.75-2.72-10.29-8.156l-.21-2.514v-.844c0-8.777 4.22-15.428 12.67-19.95 2.14-.75 4.18-1.126 6.12-1.126zM70.18 81.92c2.203 3.176 5.115 4.764 8.736 4.764 5.824 0 9.902-3.276 12.234-9.827l.44-3.093c0-4.618-2.402-7.33-7.207-8.14h-.668c-3.973 0-8.12 3.745-12.445 11.233-.727 2.25-1.09 3.938-1.09 5.063zm31.447-17.473c.75.305 1.166.62 1.248.95-1.336 8.355-2.004 14.425-2.004 18.21v2.602c4.48 0 8.15-2.06 11.01-6.16 1.13-9.94 2.21-14.91 3.25-14.91h.27c1 .1 1.5.34 1.5.72-1.5 9.04-2.25 15.82-2.25 20.34v3.77c0 1.24-.5 2.11-1.51 2.6h-1l-.98-.95v-.48l.25-4.01c-.59 0-3.85 1.49-9.75 4.48l-1.75.47c-2-.26-3-1.13-3-2.6v-.23c1.22-16.56 2.64-24.84 4.26-24.84h.51zm35.508-.017c1.523 0 2.285.632 2.285 1.898v.475c0 1.746-1.36 2.62-4.078 2.62l-5.08.245c-1.524 8.12-2.285 15.105-2.285 20.953-.41 1.27-.832 1.9-1.266 1.9h-.77c-.88 0-1.39-.24-1.53-.72.86-8.99 1.79-16.29 2.8-21.9l-7.63 1.2c-.71 0-1.13-.71-1.26-2.14 0-2.38 2.12-3.57 6.37-3.57 2.55-.63 6.7-.95 12.47-.95zm22.148-.053h1.653c.55 0 .826.322.826.967-1.29 10.523-1.934 17.824-1.934 21.902v2.672c-.363 1.78-1.277 2.672-2.742 2.672h-.545l-1.1-.967c.74-11.04 1.66-19.8 2.76-26.28l1.09-.966zm7.98.07c1.067 0 2.344 2.004 3.833 6.012 2.883 5.9 6.088 10.95 9.615 15.15 1.19-11.57 2.07-18.38 2.64-20.45l.97-.72h.72c.48 0 .72.32.72.96-1.44 16.52-2.32 25.34-2.63 26.45l-1.44.47c-2.57 0-6.89-5.45-12.97-16.35l-.96-.97-.24.72-.72 11.07v1.44l.25 1.44c-.21 1.92-.85 2.88-1.91 2.88-.98-.35-1.54-.83-1.68-1.44 1.23-17.32 2.11-25.98 2.64-25.98l1.22-.72zm54.37-.017c1.523 0 2.285.632 2.285 1.898v.475c0 1.746-1.36 2.62-4.078 2.62l-5.08.245c-1.524 8.12-2.285 15.105-2.285 20.953-.41 1.27-.832 1.9-1.266 1.9h-.78c-.88 0-1.39-.24-1.53-.72.85-8.99 1.78-16.29 2.79-21.9l-7.63 1.2c-.72 0-1.14-.71-1.27-2.14 0-2.38 2.12-3.57 6.36-3.57 2.54-.63 6.69-.95 12.46-.95zm20.338.017c.84.223 1.25.79 1.25 1.705v.23c-1.17 17.308-2 25.962-2.49 25.962l-.26.246h-.74c-.86 0-1.45-.404-1.75-1.213.33-2.31.49-5.543.49-9.703h-.24L227.7 84.1l-.738.966v4.606c0 1.37-.504 2.344-1.512 2.918h-.492c-.937 0-1.523-.404-1.758-1.213 1.16-17.473 2.83-26.21 5.01-26.21h.492l.754.985c-1.17 5.8-1.752 10.084-1.752 12.85 7.676-1.008 11.514-2.22 11.514-3.64l1.003-10.194 1.76-.72zm21.63.053c.81.176 1.22.79 1.22 1.846-.26 1.992-1.06 2.988-2.41 2.988-8.83 0-13.25 1.23-13.25 3.69l-.25 2.076v1.142c5.77-1.383 9.71-2.074 11.82-2.074h.48c.81.352 1.22 1.12 1.22 2.303 0 1.69-1.13 2.54-3.38 2.54-7.39.96-11.09 2.12-11.09 3.47l-.23 2.31v.92c0 1.38.88 2.15 2.64 2.3 2.77-.3 6.23-.99 10.37-2.07h.72c.65.25.97.79.97 1.62v.69c0 1.89-4.02 3.35-12.06 4.38h-.72c-2.89 0-4.5-1.84-4.81-5.52 0-2.7.57-7.85 1.69-15.43l-.47-1.39c0-3.11 4.81-4.95 14.45-5.52l3.13-.23zm31.77 0h2.27c1.01.633 1.52 1.342 1.52 2.127-.27 1.887-1.11 2.83-2.51 2.83-4.04 0-7.98.393-11.83 1.178l-.49 5.203 1.25.228h1c2.98 0 6.42-.474 10.32-1.423l.76 1.423c-.37 2.836-1.54 4.254-3.51 4.254-1.22.62-4.66 1.09-10.32 1.407-.4 7.09-1.07 10.634-2.02 10.634l-1 .23h-.24c-.42 0-.67-.31-.75-.95 0-3.85.67-10.93 2.01-21.23l-.74-.72c0-2.38 1.68-3.79 5.03-4.23 3.36-.63 6.46-.95 9.3-.95zm9.42-.123h1.66c.55 0 .83.322.83.967-1.29 10.523-1.93 17.824-1.93 21.902v2.672c-.36 1.78-1.27 2.672-2.74 2.672h-.54l-1.11-.967c.74-11.04 1.66-19.8 2.76-26.28l1.09-.966zm22.92.123c.81.176 1.22.79 1.22 1.846-.26 1.992-1.06 2.988-2.41 2.988-8.83 0-13.25 1.23-13.25 3.69l-.24 2.076v1.142c5.77-1.383 9.71-2.074 11.81-2.074h.48c.81.352 1.22 1.12 1.22 2.303 0 1.69-1.12 2.54-3.37 2.54-7.39.96-11.09 2.12-11.09 3.47l-.23 2.31v.92c0 1.38.88 2.15 2.64 2.3 2.77-.3 6.23-.99 10.37-2.07h.73c.65.25.97.79.97 1.62v.69c0 1.89-4.02 3.35-12.06 4.38h-.72c-2.89 0-4.5-1.84-4.81-5.52 0-2.7.56-7.85 1.69-15.43l-.47-1.39c0-3.11 4.82-4.95 14.45-5.52l3.13-.23zm4.84-.053h.25c.76 0 1.4.393 1.92 1.178-1.11 8.11-1.91 15.363-2.39 21.762l13.71-2.83.48.703v1.424c0 2.156-4.97 4.125-14.91 5.906-1.77-.317-2.65-.867-2.65-1.653 1.31-17.343 2.28-26.015 2.88-26.015l.72-.475zm23.93 0h1.07c5.1 0 8.22 2.022 9.37 6.065l.21 1.933c0 8.05-5.96 14.684-17.89 19.9l-1.05.245h-.23c-.32 0-.6-.57-.84-1.705l2.13-20.865c-.85 0-1.28-.24-1.28-.72v-.493c0-2.578 1.13-3.868 3.41-3.868l5.11-.5zm-4.25 5.098c-1.28 8.297-1.92 13.875-1.92 16.735v1.21c8.94-4.47 13.41-8.67 13.41-12.62v-.23c0-2.28-.64-3.41-1.91-3.41-1.58-1.13-4.13-1.69-7.66-1.69h-1.92zM382 64.5h.37c1.615.2 2.424.984 2.424 2.355v.475c0 2.367-.81 4.57-2.426 6.61h-.37c-.257-.07-.51-.463-.755-1.178l.95-3.533-.74-.48c-1.722.15-4.886 2.04-9.49 5.66v.23l12.268 2.37c1.25.98 1.87 2.63 1.87 4.95v1.4c0 3.17-2.04 5.93-6.13 8.26-1.6.63-3.16.95-4.66.95h-.38c-4.26 0-6.86-1.89-7.8-5.66V85.5c0-1.735.44-2.602 1.3-2.602.86 3 2.41 4.5 4.66 4.5 0 .307.94.46 2.8.46 2.76 0 5.42-1.41 8-4.237 0-1.87-3.96-3.06-11.9-3.55-2.86-.79-4.29-1.97-4.29-3.53 0-3.83 3.85-7.69 11.53-11.56l2.8-.47zm32.044 0h.844c1.16 0 2.63 5.36 4.412 16.084 1.404 5.063 2.107 8.502 2.107 10.318-.293.96-.855 1.442-1.687 1.442-1.077 0-1.85-2.56-2.32-7.682l-.21-.228h-.21c-1.83.023-5.685 1.142-11.568 3.357-.562 3.2-1.476 4.8-2.742 4.8-.844-.32-1.266-.96-1.266-1.91 0-1.85 3.862-10.33 11.584-25.45l1.055-.72zm-.422 6.715c-1.685 3.047-3.232 6.252-4.64 9.615h1.478c1.43 0 3.258-.322 5.484-.967l-1.897-8.648h-.422zm22.678-6.768h2.426c3.715 0 5.572 1.295 5.572 3.885v.246c0 4.535-3.88 8.66-11.637 12.375v.23c3.88 3.56 7.12 6.233 9.71 8.014v.72c0 1.255-.4 2.063-1.21 2.427h-.96l-13.32-9.457-.24 4.85v3.64c-.41.81-1.05 1.213-1.93 1.213-.64 0-1.13-.322-1.46-.967v-1.46l2.18-18.93c-.64 0-.96-.48-.96-1.442 0-2.91 2.42-4.61 7.26-5.09l4.61-.24zm-8.473 13.096h.246c8.39-2.156 12.587-4.5 12.587-7.03v-.247c0-.446-.808-.768-2.426-.967-2.682 0-5.91.56-9.684 1.7l-.72 6.54zm31.834-13.096c5.01.692 7.51 3.686 7.51 8.983 0 6.937-2.74 12.68-8.22 17.226-2.26 1.29-4.28 1.934-6.06 1.934-4.35 0-7.15-2.344-8.4-7.03l-.17-2.18v-.74c0-7.57 3.46-13.312 10.37-17.226 1.74-.644 3.4-.967 5-.967zM446.62 83.38c1.805 2.74 4.19 4.112 7.155 4.112 4.77 0 8.103-2.83 10-8.49l.353-2.672c0-3.984-1.963-6.328-5.89-7.03h-.544c-3.25 0-6.64 3.233-10.18 9.702-.597 1.945-.896 3.404-.896 4.377zm26.895-18.933c.75.305 1.166.62 1.248.95-1.335 8.355-2.003 14.425-2.003 18.21v2.602c4.476 0 8.144-2.06 11.004-6.16 1.126-9.94 2.21-14.91 3.253-14.91h.26c.998.1 1.496.34 1.496.72-1.5 9.04-2.25 15.82-2.25 20.34v3.77c0 1.24-.505 2.11-1.513 2.6h-1.002l-.984-.95v-.48l.246-4.01c-.598 0-3.85 1.49-9.756 4.48l-1.76.47c-2.004-.26-3.006-1.13-3.006-2.6v-.23c1.22-16.56 2.637-24.84 4.254-24.84h.51zm19.845 0c1.067 0 2.344 2.004 3.832 6.012 2.882 5.9 6.087 10.95 9.615 15.15 1.183-11.57 2.062-18.38 2.636-20.45l.966-.72h.72c.48 0 .72.32.72.96-1.44 16.52-2.32 25.34-2.64 26.45l-1.44.47c-2.57 0-6.89-5.45-12.98-16.35l-.97-.97-.25.72-.72 11.07v1.44l.24 1.44c-.21 1.92-.85 2.88-1.92 2.88-.99-.35-1.55-.83-1.69-1.44 1.23-17.32 2.11-25.98 2.63-25.98l1.21-.72zm29.286 0h1.075c5.1 0 8.22 2.022 9.37 6.065l.21 1.933c0 8.05-5.96 14.684-17.89 19.9l-1.05.245h-.23c-.31 0-.59-.57-.84-1.705l2.13-20.865c-.85 0-1.28-.24-1.28-.72v-.493c0-2.578 1.14-3.868 3.41-3.868l5.12-.5zm-4.25 5.098c-1.28 8.297-1.917 13.875-1.917 16.734v1.21c8.94-4.47 13.41-8.67 13.41-12.62v-.23c0-2.28-.64-3.41-1.92-3.41-1.59-1.13-4.14-1.69-7.67-1.69h-1.92zM561.206 60c5.72 0 8.578 1.875 8.578 5.625v.844c0 2.62-1.29 5.15-3.867 7.57v.28c4.23 1.24 6.346 3.3 6.346 6.19v1.12c0 4.7-4.787 8.16-14.362 10.38l-4.69.56h-2.76c-1.48 0-2.22-.75-2.22-2.25v-.28l2.22-23.03c-.92 0-1.39-.19-1.39-.56v-1.69c0-3.19 4.05-4.78 12.15-4.78zm-8 12.64h.28c8.65 0 12.975-1.87 12.975-5.61-1.43-.936-3.82-1.405-7.17-1.405h-3.32c-1.48 0-2.21.656-2.21 1.97l-.54 5.044zm-.562 5.342l-.544 8.983 2.76.562.28-.28h1.376c7.734-.985 11.6-2.76 11.6-5.327-2.53-2.625-6.485-3.938-11.864-3.938h-1.107l-.282-.28-.28.28h-1.933zm39.57-13.482c.807.176 1.212.79 1.212 1.846-.258 1.992-1.06 2.988-2.408 2.988-8.84 0-13.258 1.23-13.258 3.69l-.246 2.076v1.142c5.764-1.383 9.702-2.074 11.81-2.074h.476c.808.352 1.213 1.12 1.213 2.303 0 1.69-1.126 2.54-3.376 2.54-7.395.96-11.09 2.12-11.09 3.47l-.23 2.31v.92c0 1.38.88 2.15 2.636 2.3 2.767-.3 6.224-.99 10.372-2.07h.72c.643.25.966.79.966 1.62v.69c0 1.89-4.02 3.35-12.06 4.38h-.72c-2.89 0-4.5-1.84-4.81-5.52 0-2.7.57-7.85 1.69-15.43l-.47-1.39c0-3.11 4.82-4.95 14.45-5.52l3.13-.23zm20.74-.07c1.524 0 2.286.632 2.286 1.898v.475c0 1.746-1.36 2.62-4.074 2.62l-5.08.245c-1.523 8.12-2.285 15.105-2.285 20.953-.41 1.27-.83 1.9-1.26 1.9h-.77c-.88 0-1.39-.24-1.53-.72.86-8.99 1.79-16.29 2.8-21.9l-7.63 1.2c-.71 0-1.13-.71-1.26-2.14 0-2.38 2.12-3.57 6.37-3.57 2.55-.63 6.7-.95 12.47-.95zm20.34.017c.83.223 1.247.79 1.247 1.705v.23c-1.17 17.308-2 25.962-2.49 25.962l-.26.246h-.73c-.86 0-1.45-.404-1.76-1.213.33-2.31.49-5.543.49-9.703h-.24L619.02 84.1l-.737.966v4.606c0 1.37-.504 2.344-1.512 2.918h-.49c-.93 0-1.52-.404-1.76-1.213 1.17-17.473 2.84-26.21 5.01-26.21h.5l.76.985c-1.17 5.8-1.76 10.084-1.76 12.85 7.68-1.008 11.52-2.22 11.52-3.64l1-10.194 1.76-.72zm6.433 0h.245c.76 0 1.4.393 1.916 1.178-1.117 8.11-1.91 15.363-2.39 21.762l13.71-2.83.472.703v1.424c0 2.156-4.97 4.125-14.907 5.906-1.77-.317-2.655-.867-2.655-1.653 1.314-17.343 2.274-26.015 2.884-26.015l.72-.475zm33.344.053c.81.176 1.22.79 1.22 1.846-.26 1.992-1.06 2.988-2.41 2.988-8.83 0-13.25 1.23-13.25 3.69l-.24 2.076v1.142c5.77-1.383 9.7-2.074 11.81-2.074h.48c.81.352 1.22 1.12 1.22 2.303 0 1.69-1.12 2.54-3.37 2.54-7.4.96-11.09 2.12-11.09 3.47l-.23 2.31v.92c0 1.38.88 2.15 2.63 2.3 2.77-.3 6.23-.99 10.37-2.07h.73c.65.25.97.79.97 1.62v.69c0 1.89-4.02 3.35-12.06 4.38h-.72c-2.89 0-4.5-1.84-4.81-5.52 0-2.7.56-7.85 1.69-15.43l-.47-1.39c0-3.11 4.82-4.95 14.45-5.52l3.13-.23zm20.01-.053c.83.223 1.25.79 1.25 1.705v.23c-1.17 17.308-2 25.962-2.49 25.962l-.26.246h-.74c-.86 0-1.45-.404-1.75-1.213.33-2.31.49-5.543.49-9.703h-.24L678.81 84.1l-.74.966v4.606c0 1.37-.504 2.344-1.51 2.918h-.495c-.94 0-1.526-.404-1.76-1.213 1.16-17.473 2.83-26.21 5.01-26.21h.49l.757.985c-1.17 5.8-1.76 10.084-1.76 12.85 7.674-1.008 11.51-2.22 11.51-3.64l1.003-10.194 1.758-.72zm21.62.053c.81.176 1.22.79 1.22 1.846-.26 1.992-1.06 2.988-2.41 2.988-8.83 0-13.25 1.23-13.25 3.69L700 75.1v1.142c5.767-1.383 9.704-2.074 11.813-2.074h.475c.81.352 1.21 1.12 1.21 2.303 0 1.69-1.125 2.54-3.375 2.54-7.396.96-11.093 2.12-11.093 3.47l-.228 2.31v.92c0 1.38.877 2.15 2.635 2.3 2.766-.3 6.223-.99 10.37-2.07h.722c.64.25.96.79.96 1.62v.69c0 1.89-4.02 3.35-12.06 4.38h-.72c-2.9 0-4.5-1.84-4.82-5.52 0-2.7.56-7.85 1.68-15.43l-.48-1.39c0-3.11 4.81-4.95 14.45-5.52l3.13-.23zm12.15-.053h.46c.75.41 1.13 1.05 1.13 1.916v.492c0 5.204.46 11.297 1.37 18.282h.23c5.02-13.15 7.97-19.723 8.86-19.723h.69c.67 0 1.73 4.57 3.19 13.71 1.36 4.69 2.04 8.614 2.04 11.778-.44 1.125-1.12 1.688-2.04 1.688-.61 0-1.44-3.932-2.49-11.795l-1.83-7.682c-1.3 2.086-3.65 7.535-7.05 16.348-.97 1-1.8 1.56-2.49 1.69-1.97 0-2.95-2.65-2.95-7.94l-1.12-10.09h-.23L717.8 88.5c-.41 2.57-.79 3.85-1.14 3.85h-.9l-.915-.95v-1.21c0-2.15 1.89-6.8 5.673-13.94 2.695-7.5 4.435-11.35 5.22-11.55l1.143-.24zm28.16 21.112c.75.22 1.3.62 1.64 1.21v.47c0 2.79-2.09 6.24-6.28 10.37l-1.09.24H749c-.985 0-1.71-.41-2.18-1.22v-.24c3.28-3.64 4.92-6.85 4.92-9.64 1.01-.81 2.1-1.21 3.27-1.21zm33.73-21.06h.37c1.62.2 2.43.98 2.43 2.35v.47c0 2.36-.8 4.57-2.42 6.61h-.37c-.26-.07-.51-.47-.75-1.18l.95-3.53-.74-.48c-1.72.15-4.88 2.04-9.49 5.66v.23L790.98 77c1.24.986 1.863 2.638 1.863 4.96v1.406c0 3.174-2.043 5.93-6.133 8.26-1.606.632-3.16.95-4.66.95h-.386c-4.263 0-6.865-1.888-7.802-5.66V85.5c0-1.735.434-2.602 1.3-2.602.857 3 2.41 4.5 4.66 4.5 0 .306.93.458 2.795.458 2.755 0 5.42-1.41 8-4.235 0-1.87-3.97-3.06-11.9-3.55-2.86-.79-4.29-1.97-4.29-3.53 0-3.83 3.844-7.69 11.53-11.56l2.796-.47zm21.62-.06c5.01.69 7.51 3.68 7.51 8.98 0 6.93-2.74 12.68-8.22 17.22-2.26 1.29-4.28 1.93-6.06 1.93-4.34 0-7.14-2.35-8.4-7.03l-.19-2.17v-.74c0-7.57 3.46-13.32 10.37-17.23 1.74-.65 3.4-.97 5-.97zm-13.04 18.93c1.81 2.74 4.19 4.11 7.16 4.11 4.77 0 8.11-2.83 10.01-8.49l.35-2.67c0-3.99-1.96-6.33-5.89-7.03h-.54c-3.24 0-6.64 3.23-10.17 9.7-.6 1.94-.9 3.4-.9 4.37zm32.59-18.94h.46c.75.41 1.13 1.05 1.13 1.91v.49c0 5.2.46 11.3 1.37 18.28h.23c5.01-13.15 7.97-19.73 8.86-19.73h.68c.67 0 1.73 4.57 3.18 13.71 1.36 4.69 2.04 8.61 2.04 11.78-.44 1.12-1.12 1.69-2.04 1.69-.6 0-1.44-3.93-2.49-11.8l-1.83-7.68c-1.3 2.09-3.65 7.53-7.05 16.35-.97 1-1.8 1.56-2.49 1.69-1.96 0-2.95-2.65-2.95-7.95l-1.13-10.08h-.23l-6.82 15.38c-.41 2.56-.79 3.85-1.14 3.85h-.9l-.91-.95v-1.21c0-2.16 1.9-6.8 5.68-13.94 2.7-7.5 4.44-11.35 5.22-11.55l1.15-.25zm38.54.05c.81.17 1.21.79 1.21 1.84-.26 1.99-1.06 2.99-2.41 2.99-8.83 0-13.25 1.23-13.25 3.69l-.24 2.07v1.14c5.77-1.38 9.71-2.08 11.82-2.08h.48c.81.35 1.21 1.12 1.21 2.3 0 1.69-1.12 2.53-3.37 2.53-7.39.96-11.09 2.11-11.09 3.46l-.23 2.3v.91c0 1.38.88 2.15 2.64 2.3 2.77-.31 6.22-1 10.37-2.08h.72c.65.25.97.78.97 1.62v.68c0 1.88-4.02 3.34-12.06 4.37h-.72c-2.89 0-4.5-1.84-4.82-5.52 0-2.7.57-7.85 1.69-15.43l-.47-1.39c0-3.11 4.82-4.95 14.45-5.52l3.13-.23zm-783.92 42h.37c1.62.2 2.43.98 2.43 2.35v.47c0 2.36-.81 4.57-2.42 6.61h-.37c-.26-.07-.51-.47-.75-1.18l.95-3.54-.74-.48c-1.72.15-4.88 2.04-9.49 5.66v.23l12.25 2.4c1.25.98 1.87 2.63 1.87 4.95v1.4c0 3.17-2.05 5.93-6.14 8.26-1.6.63-3.15.95-4.65.95h-.38c-4.27 0-6.87-1.89-7.8-5.66v-1.42c0-1.74.44-2.61 1.3-2.61.86 3 2.41 4.5 4.66 4.5 0 .3.93.45 2.8.45 2.75 0 5.42-1.41 8-4.24 0-1.88-3.97-3.06-11.9-3.55-2.86-.8-4.29-1.98-4.29-3.54 0-3.83 3.84-7.69 11.53-11.57l2.8-.48zm25.04-.06c.84.22 1.25.79 1.25 1.7v.23c-1.17 17.31-2 25.96-2.49 25.96l-.26.24h-.73c-.87 0-1.45-.41-1.76-1.22.33-2.31.49-5.54.49-9.7h-.25l-10.51 2.43-.74.96v4.61c0 1.37-.5 2.34-1.51 2.92h-.49c-.93 0-1.52-.41-1.76-1.22 1.16-17.48 2.83-26.21 5.01-26.21h.5l.76.98c-1.17 5.8-1.76 10.08-1.76 12.85 7.68-1.01 11.52-2.22 11.52-3.64l1-10.2 1.76-.72zm21.62.05c.81.17 1.22.79 1.22 1.84-.26 1.99-1.06 2.99-2.41 2.99-8.83 0-13.25 1.23-13.25 3.69l-.24 2.07v1.14c5.77-1.38 9.71-2.07 11.82-2.07h.47c.81.35 1.21 1.12 1.21 2.3 0 1.69-1.12 2.53-3.37 2.53-7.39.96-11.09 2.11-11.09 3.46l-.23 2.3v.91c0 1.38.88 2.15 2.64 2.3 2.77-.31 6.23-1 10.37-2.08h.73c.64.24.96.78.96 1.62v.68c0 1.88-4.02 3.34-12.06 4.37h-.72c-2.89 0-4.5-1.84-4.81-5.52 0-2.71.56-7.85 1.69-15.43l-.47-1.39c0-3.12 4.81-4.96 14.45-5.52l3.13-.23zm14.28-.06c4.65 0 6.98 1.36 6.98 4.09 0 5.4-5.09 10.29-15.29 14.66-.75 0-1.12.48-1.12 1.44-.1 5.29-.63 7.94-1.58 7.94h-1.13c-.3-.07-.6-.47-.89-1.2l2.02-19.73h-.23c-.6 0-.89-.73-.89-2.18 0-2.36 1.35-3.72 4.06-4.08l8.08-.97zm-9 13.95c5.15-1.35 9.05-3.59 11.71-6.74l.44-1.46v-.48l-1.12-.25h-1.12c-5.99.33-8.98.89-8.98 1.69l-.91 7.22zm34.75-13.96c.84.22 1.25.79 1.25 1.7v.23c-1.17 17.31-2 25.96-2.49 25.96l-.26.24h-.74c-.86 0-1.45-.41-1.76-1.22.33-2.31.5-5.55.5-9.71h-.24l-10.51 2.42-.74.97v4.6c0 1.37-.5 2.35-1.51 2.92h-.49c-.94 0-1.53-.4-1.76-1.21 1.16-17.48 2.83-26.21 5.01-26.21h.49l.76.98c-1.17 5.8-1.76 10.08-1.76 12.85 7.68-1.01 11.52-2.22 11.52-3.64l1.01-10.19 1.76-.72zm21.62.05c.81.17 1.22.79 1.22 1.84-.26 1.99-1.06 2.99-2.41 2.99-8.83 0-13.25 1.23-13.25 3.69l-.25 2.07v1.14c5.77-1.38 9.71-2.07 11.82-2.07h.47c.81.35 1.22 1.12 1.22 2.3 0 1.69-1.12 2.53-3.37 2.53-7.39.96-11.09 2.11-11.09 3.46l-.23 2.3v.91c0 1.38.88 2.15 2.64 2.3 2.77-.3 6.23-1 10.37-2.07h.73c.65.24.97.78.97 1.61v.68c0 1.89-4.02 3.35-12.06 4.38h-.72c-2.89 0-4.5-1.84-4.81-5.52 0-2.7.57-7.85 1.69-15.43l-.47-1.39c0-3.12 4.82-4.96 14.45-5.52l3.13-.23zm14.31-.06h2.43c3.72 0 5.58 1.29 5.58 3.88v.24c0 4.53-3.88 8.66-11.64 12.37v.23c3.88 3.56 7.11 6.23 9.7 8.01v.72c0 1.25-.4 2.06-1.21 2.42h-.96l-13.32-9.46-.24 4.85v3.64c-.41.81-1.05 1.21-1.93 1.21-.64 0-1.13-.32-1.46-.97v-1.46l2.18-18.93c-.64 0-.96-.48-.96-1.44 0-2.92 2.42-4.62 7.26-5.1l4.61-.24zm-8.47 13.09h.25c8.39-2.16 12.59-4.5 12.59-7.03v-.25c0-.45-.81-.77-2.42-.97-2.68 0-5.91.57-9.68 1.7l-.72 6.54zm25.84-13.1h1.08c5.1 0 8.22 2.02 9.37 6.07l.21 1.93c0 8.05-5.97 14.68-17.9 19.9l-1.05.24H216c-.313 0-.594-.57-.84-1.71l2.12-20.86c-.855 0-1.28-.24-1.28-.72v-.49c0-2.58 1.132-3.87 3.41-3.87l5.11-.5zm-4.25 5.1c-1.27 8.3-1.91 13.87-1.91 16.73v1.21c8.94-4.47 13.41-8.67 13.41-12.62v-.23c0-2.28-.64-3.41-1.92-3.41-1.58-1.13-4.13-1.69-7.66-1.69h-1.91zm29.8-5.05h.37c1.62.2 2.43.98 2.43 2.35v.47c0 2.36-.81 4.57-2.42 6.61h-.37c-.26-.07-.51-.47-.76-1.18l.95-3.54-.74-.48c-1.72.15-4.89 2.04-9.49 5.66v.23l12.25 2.4c1.25.98 1.87 2.63 1.87 4.96v1.4c0 3.17-2.04 5.93-6.13 8.26-1.6.63-3.16.95-4.66.95h-.38c-4.27 0-6.87-1.89-7.81-5.66v-1.42c0-1.74.44-2.6 1.3-2.6.86 3 2.41 4.5 4.66 4.5 0 .3.93.46 2.8.46 2.76 0 5.42-1.41 8-4.24 0-1.88-3.96-3.06-11.9-3.55-2.86-.8-4.29-1.98-4.29-3.54 0-3.83 3.85-7.69 11.53-11.57l2.8-.48zm22.97 0c.78 0 1.18 2.72 1.18 8.15l1.59 10.33h.39c0-.59 1.58-3.8 4.73-9.61.49-3.83 1.41-5.75 2.76-5.75h.39c.8 0 1.46 2.95 1.97 8.87.88 4.04 1.54 6.45 1.97 7.21.43-2.04 2.53-8.05 6.31-18.02.55-.63 1.08-.95 1.59-.95.7 0 1.16.32 1.37.95 0 .82-1.97 6.18-5.9 16.09-.65 2.34-1.25 5.55-1.77 9.61-.42.79-.95 1.19-1.58 1.19-1.19 0-2.11-2.72-2.74-8.16-1.29-5.31-2.08-8.19-2.37-8.65l-3.94 7.68c-.66 1.5-1.25 4.06-1.77 7.68-.35.58-.87.98-1.57 1.19-1.1 0-2.02-4.16-2.76-12.48-1.05-5.89-1.58-10.61-1.58-14.17 0-.48.6-.88 1.78-1.2zm43.01 0c.81.17 1.21.79 1.21 1.84-.26 1.99-1.06 2.99-2.41 2.99-8.83 0-13.25 1.23-13.25 3.69l-.25 2.07v1.14c5.77-1.39 9.7-2.08 11.81-2.08h.48c.81.35 1.22 1.12 1.22 2.3 0 1.69-1.12 2.53-3.37 2.53-7.39.96-11.09 2.11-11.09 3.46l-.22 2.3v.91c0 1.38.88 2.15 2.63 2.3 2.77-.3 6.22-.99 10.37-2.07h.72c.65.24.97.78.97 1.62v.68c0 1.88-4.02 3.34-12.06 4.37h-.72c-2.9 0-4.5-1.84-4.82-5.52 0-2.7.57-7.85 1.69-15.43l-.47-1.39c0-3.11 4.82-4.95 14.45-5.52l3.13-.23zm14.31-.05h2.43c3.72 0 5.58 1.29 5.58 3.88v.25c0 4.53-3.88 8.66-11.64 12.37v.23c3.88 3.56 7.11 6.23 9.7 8.01v.72c0 1.25-.4 2.06-1.21 2.43h-.96l-13.32-9.46-.24 4.85v3.64c-.41.81-1.05 1.21-1.93 1.21-.64 0-1.13-.33-1.46-.97v-1.46l2.18-18.93c-.64 0-.96-.48-.96-1.45 0-2.92 2.42-4.61 7.26-5.1l4.61-.25zm-8.47 13.09h.25c8.39-2.16 12.59-4.5 12.59-7.03v-.25c0-.45-.81-.77-2.43-.97-2.68 0-5.91.56-9.68 1.7l-.72 6.54zm35.26-13.04c.81.17 1.22.79 1.22 1.84-.26 1.99-1.06 2.99-2.41 2.99-8.84 0-13.26 1.23-13.26 3.69l-.24 2.08v1.14c5.77-1.38 9.7-2.07 11.81-2.07h.48c.81.35 1.22 1.12 1.22 2.3 0 1.69-1.13 2.53-3.38 2.53-7.4.96-11.09 2.11-11.09 3.46l-.23 2.3v.91c0 1.38.88 2.15 2.64 2.3 2.77-.31 6.22-1 10.37-2.08h.72c.65.25.97.79.97 1.62v.68c0 1.89-4.02 3.35-12.06 4.38h-.72c-2.9 0-4.5-1.84-4.82-5.52 0-2.71.56-7.85 1.69-15.43l-.47-1.39c0-3.12 4.82-4.96 14.45-5.52l3.13-.23zm19.78-.06h.25c.76 0 1.4.39 1.92 1.17-1.11 8.11-1.91 15.36-2.39 21.76l13.71-2.83.48.7v1.42c0 2.16-4.97 4.12-14.91 5.91-1.77-.32-2.65-.87-2.65-1.66 1.31-17.34 2.27-26.01 2.88-26.01l.72-.48zm29.92 0c5.01.69 7.51 3.68 7.51 8.98 0 6.94-2.74 12.68-8.22 17.22-2.26 1.29-4.28 1.93-6.06 1.93-4.35 0-7.15-2.35-8.4-7.03l-.17-2.18v-.74c0-7.57 3.46-13.32 10.37-17.23 1.74-.65 3.4-.97 5-.97zm-13.04 18.93c1.81 2.74 4.19 4.11 7.16 4.11 4.77 0 8.1-2.83 10-8.49l.35-2.67c0-3.99-1.96-6.33-5.88-7.03h-.54c-3.25 0-6.64 3.23-10.18 9.7-.59 1.94-.89 3.4-.89 4.38zm37.04-18.94c5 .69 7.5 3.69 7.5 8.98 0 6.93-2.74 12.68-8.22 17.22-2.26 1.29-4.28 1.93-6.06 1.93-4.34 0-7.14-2.35-8.4-7.03l-.17-2.18v-.74c0-7.57 3.45-13.32 10.37-17.23 1.73-.64 3.4-.97 4.99-.97zm-13.04 18.94c1.8 2.74 4.19 4.11 7.15 4.11 4.77 0 8.11-2.83 10.01-8.49l.35-2.67c0-3.98-1.96-6.33-5.89-7.03h-.55c-3.24 0-6.64 3.23-10.17 9.7-.6 1.95-.89 3.41-.89 4.38zm26.88-18.78l.71.96-.7 9.14 14.31-7.9c.62.77.94 1.73.94 2.88-1.62 2.27-5.77 5.16-12.46 8.67v.24c3.09 4.02 6.62 7.38 10.58 10.09v.49c0 2.24-.78 3.35-2.35 3.35l-11.74-9.62c-.46 6.41-.93 9.61-1.4 9.61l-1.18.24c-.78-.26-1.18-.74-1.18-1.44l.93-11.31-.23-2.88c.54 0 1.01-3.53 1.41-10.6.65-1.28 1.43-1.92 2.36-1.92zm20.92-.23h1.66c.55 0 .83.32.83.96-1.29 10.52-1.93 17.82-1.93 21.9v2.67c-.37 1.78-1.28 2.67-2.74 2.67h-.54l-1.1-.97c.74-11.04 1.66-19.8 2.76-26.28l1.09-.96zm7.98.07c1.07 0 2.35 2 3.84 6.01 2.89 5.9 6.09 10.95 9.62 15.15 1.18-11.57 2.06-18.38 2.64-20.45l.97-.72h.72c.48 0 .72.32.72.97-1.44 16.52-2.32 25.34-2.63 26.45l-1.44.47c-2.57 0-6.9-5.45-12.98-16.35l-.96-.97-.25.72-.72 11.07v1.44l.25 1.44c-.22 1.92-.85 2.88-1.92 2.88-.99-.35-1.55-.83-1.69-1.44 1.23-17.32 2.11-25.98 2.64-25.98l1.21-.72zm35.35 0h.18c1.56 0 2.6 1.52 3.13 4.57l-.37.47h-.18l-1.47-.47c-4.03.6-8.25 3.4-12.67 8.42-1.23 2.18-1.84 3.7-1.84 4.57v.97c0 2.56 2.64 4.16 7.91 4.8 3.3 0 5.81-1.76 7.52-5.29l-2.2-.95c-.82 0-3.08.96-6.8 2.88-.36-.82-.54-1.62-.54-2.41v-.24c0-2.56 2.45-4.32 7.35-5.29h.37c2.81 0 4.22 1.84 4.22 5.53 0 3.81-3.12 7.18-9.37 10.11l-2.19.48c-3.97 0-6.67-1.68-8.08-5.05l-.37-3.13c0-7.27 3.74-13.44 11.2-18.53 1.89-.96 3.3-1.44 4.24-1.44zm31.5.05h.85c1.16 0 2.63 5.36 4.42 16.08 1.41 5.06 2.11 8.5 2.11 10.31-.29.96-.85 1.44-1.69 1.44-1.08 0-1.85-2.56-2.32-7.68l-.21-.23h-.21c-1.83.02-5.68 1.14-11.56 3.36-.56 3.2-1.47 4.8-2.74 4.8-.84-.33-1.26-.97-1.26-1.92 0-1.86 3.86-10.34 11.58-25.46l1.06-.72zm-.42 6.71c-1.69 3.05-3.23 6.25-4.64 9.61h1.48c1.42 0 3.25-.33 5.48-.97l-1.9-8.65H540zm25.19-6.72h2.27c1.01.63 1.51 1.34 1.51 2.12-.27 1.89-1.11 2.83-2.51 2.83-4.04 0-7.98.4-11.83 1.18l-.49 5.2 1.25.23h1c2.98 0 6.42-.47 10.32-1.42l.76 1.42c-.37 2.83-1.54 4.25-3.51 4.25-1.22.62-4.66 1.09-10.32 1.41-.4 7.09-1.08 10.63-2.02 10.63l-1 .23h-.25c-.42 0-.67-.32-.75-.95 0-3.86.67-10.93 2-21.23l-.74-.72c0-2.38 1.68-3.79 5.03-4.24 3.37-.63 6.46-.95 9.3-.95zm23.29-.07c1.53 0 2.29.63 2.29 1.89v.47c0 1.74-1.36 2.62-4.07 2.62l-5.08.24c-1.52 8.12-2.28 15.11-2.28 20.95-.41 1.27-.83 1.9-1.26 1.9h-.78c-.88 0-1.39-.24-1.53-.72.86-8.99 1.79-16.29 2.8-21.9l-7.63 1.2c-.71 0-1.14-.72-1.26-2.15 0-2.38 2.12-3.57 6.36-3.57 2.54-.63 6.7-.95 12.46-.95zm20.36.07c.8.17 1.21.79 1.21 1.84-.26 1.99-1.06 2.98-2.41 2.98-8.84 0-13.26 1.23-13.26 3.69l-.24 2.07v1.14c5.77-1.386 9.71-2.077 11.82-2.077h.48c.81.35 1.21 1.12 1.21 2.3 0 1.69-1.12 2.53-3.37 2.53-7.39.96-11.09 2.115-11.09 3.463l-.22 2.3v.91c0 1.39.88 2.15 2.64 2.31 2.76-.3 6.22-.994 10.37-2.07h.72c.65.25.97.79.97 1.62v.69c0 1.89-4.02 3.35-12.05 4.38h-.72c-2.89 0-4.5-1.84-4.82-5.52 0-2.71.56-7.85 1.69-15.43l-.47-1.39c0-3.12 4.82-4.96 14.45-5.52l3.13-.23zm14.3-.06h2.43c3.72 0 5.57 1.3 5.57 3.89v.25c0 4.53-3.88 8.66-11.63 12.37v.23c3.88 3.56 7.11 6.23 9.7 8.01v.72c0 1.25-.4 2.06-1.21 2.43h-1l-13.32-9.45-.25 4.85v3.64c-.41.81-1.05 1.21-1.93 1.21-.64 0-1.13-.33-1.46-.97v-1.46l2.18-18.93c-.64 0-.96-.48-.96-1.44 0-2.92 2.42-4.62 7.26-5.1l4.61-.25zm-8.47 13.1h.25c8.39-2.15 12.59-4.5 12.59-7.03v-.24c0-.45-.81-.77-2.43-.97-2.68 0-5.91.56-9.68 1.7l-.72 6.54zm50.92-13.11c1.53 0 2.29.63 2.29 1.9v.48c0 1.74-1.36 2.62-4.08 2.62l-5.08.24c-1.52 8.12-2.28 15.1-2.28 20.95-.41 1.27-.83 1.9-1.27 1.9h-.78c-.88 0-1.39-.24-1.53-.72.86-8.99 1.79-16.29 2.8-21.9l-7.63 1.2c-.71 0-1.13-.72-1.26-2.15 0-2.38 2.12-3.57 6.36-3.57 2.54-.64 6.7-.95 12.46-.95zm20.34.02c.83.22 1.25.79 1.25 1.7v.23c-1.17 17.31-2 25.96-2.49 25.96l-.26.25h-.74c-.87 0-1.45-.4-1.76-1.21.33-2.31.49-5.55.49-9.71h-.25L671.68 126l-.74.967v4.6c0 1.37-.5 2.347-1.51 2.92h-.49c-.93 0-1.52-.402-1.75-1.21 1.16-17.47 2.83-26.21 5.01-26.21h.49l.76.985c-1.17 5.8-1.75 10.08-1.75 12.85 7.68-1.01 11.51-2.22 11.51-3.64l1.01-10.194 1.76-.72zm21.62.05c.81.18 1.22.79 1.22 1.85-.26 1.99-1.06 2.98-2.41 2.98-8.83 0-13.25 1.23-13.25 3.69l-.24 2.08v1.14c5.77-1.39 9.71-2.08 11.82-2.08h.48c.81.35 1.21 1.12 1.21 2.3 0 1.69-1.12 2.53-3.37 2.53-7.4.96-11.09 2.112-11.09 3.46l-.23 2.303v.914c0 1.38.88 2.15 2.64 2.3 2.77-.31 6.23-1 10.38-2.08h.72c.65.245.97.784.97 1.62v.68c0 1.89-4.02 3.35-12.06 4.38h-.72c-2.89 0-4.5-1.84-4.82-5.52 0-2.71.57-7.85 1.69-15.435l-.47-1.39c0-3.114 4.82-4.954 14.45-5.52l3.13-.23zm6.88-.12h1.65c.55 0 .83.32.83.97-1.29 10.52-1.93 17.82-1.93 21.9v2.67c-.36 1.78-1.27 2.67-2.74 2.67h-.54l-1.1-.97c.74-11.04 1.66-19.8 2.76-26.28l1.09-.97zm17.21.07h2.43c3.72 0 5.57 1.29 5.57 3.88v.25c0 4.53-3.87 8.66-11.63 12.37v.23c3.88 3.56 7.12 6.23 9.71 8.01v.72c0 1.26-.4 2.07-1.21 2.43h-.96l-13.32-9.46-.25 4.85v3.64c-.41.81-1.06 1.22-1.93 1.22-.65 0-1.13-.32-1.46-.97v-1.46l2.18-18.93c-.65 0-.97-.48-.97-1.44 0-2.91 2.42-4.61 7.26-5.09l4.61-.25zm-8.47 13.1h.25c8.39-2.16 12.59-4.5 12.59-7.03v-.25c0-.45-.81-.77-2.42-.97-2.68 0-5.91.56-9.68 1.7l-.72 6.54zm46.3-13.05h.37c1.62.2 2.43.98 2.43 2.35v.47c0 2.36-.8 4.57-2.42 6.61h-.37c-.26-.07-.51-.47-.76-1.18l.95-3.53-.74-.48c-1.72.15-4.88 2.04-9.49 5.66v.23l12.27 2.37c1.24.98 1.86 2.63 1.86 4.95v1.4c0 3.18-2.04 5.93-6.13 8.26-1.6.636-3.15.95-4.65.95h-.39c-4.27 0-6.87-1.884-7.81-5.66v-1.42c0-1.74.43-2.605 1.3-2.605.86 3 2.41 4.5 4.66 4.5 0 .31.93.46 2.79.46 2.76 0 5.42-1.41 8-4.237 0-1.875-3.96-3.06-11.9-3.55-2.86-.8-4.29-1.975-4.29-3.53 0-3.83 3.85-7.69 11.53-11.57l2.8-.476zm25.03-.05c.83.22 1.25.79 1.25 1.7v.23c-1.17 17.31-2 25.96-2.5 25.96l-.26.24h-.74c-.86 0-1.45-.4-1.76-1.21.33-2.31.5-5.55.5-9.71h-.24L780.26 126l-.73.96v4.605c0 1.37-.5 2.343-1.51 2.92h-.49c-.93 0-1.52-.408-1.752-1.217 1.16-17.47 2.83-26.21 5.01-26.21h.494l.757.99c-1.17 5.8-1.76 10.09-1.76 12.85 7.67-1.01 11.51-2.22 11.51-3.64l1-10.19 1.76-.72zm21.62.05c.81.17 1.22.79 1.22 1.84-.25 1.99-1.06 2.98-2.4 2.98-8.84 0-13.26 1.23-13.26 3.69l-.24 2.08v1.14c5.77-1.38 9.71-2.08 11.81-2.08h.48c.81.35 1.21 1.12 1.21 2.3 0 1.69-1.12 2.53-3.37 2.53-7.39.96-11.09 2.11-11.09 3.46l-.23 2.3v.92c0 1.385.88 2.15 2.64 2.305 2.77-.31 6.22-1 10.37-2.08h.72c.65.25.97.79.97 1.62v.683c0 1.89-4.02 3.35-12.06 4.38h-.72c-2.89 0-4.5-1.84-4.82-5.52 0-2.71.56-7.85 1.69-15.43l-.48-1.39c0-3.12 4.82-4.96 14.45-5.52l3.13-.23zm20.02 0c.81.17 1.22.79 1.22 1.84-.26 1.99-1.06 2.98-2.41 2.98-8.83 0-13.25 1.23-13.25 3.69l-.25 2.08v1.14c5.77-1.38 9.7-2.08 11.81-2.08h.48c.81.35 1.22 1.12 1.22 2.3 0 1.69-1.12 2.53-3.37 2.53-7.39.96-11.09 2.11-11.09 3.46l-.23 2.3v.92c0 1.385.88 2.15 2.64 2.305 2.77-.31 6.22-1 10.37-2.08h.72c.64.25.97.79.97 1.62v.683c0 1.89-4.02 3.35-12.06 4.38h-.72c-2.89 0-4.5-1.84-4.812-5.52 0-2.71.56-7.85 1.69-15.43l-.473-1.39c0-3.12 4.82-4.96 14.45-5.52l3.13-.23zm14.28-.06c4.65 0 6.98 1.36 6.98 4.09 0 5.4-5.1 10.29-15.29 14.66-.75 0-1.13.48-1.13 1.44-.1 5.29-.63 7.94-1.58 7.94h-1.12c-.3-.07-.6-.47-.89-1.2l2.02-19.73h-.22c-.6 0-.9-.73-.9-2.18 0-2.36 1.35-3.72 4.06-4.08l8.09-.97zm-9 13.95c5.15-1.34 9.05-3.59 11.71-6.73l.44-1.46v-.47l-1.12-.24h-1.13c-5.99.33-8.98.89-8.98 1.69l-.91 7.22zm19.22 8.2c1.57 0 2.55.95 2.94 2.86 0 1.91-1.37 2.95-4.11 3.13-1.37-.52-2.05-1.38-2.05-2.6v-.27c.54-2.09 1.62-3.13 3.24-3.13z" fill="#000"/><g transform="translate(874 529)"><rect fill="#000" x="96.016" y="118.701" width="24.023" height="91.815" rx="8"/><rect fill="#000" x="193.867" y="118.701" width="24.023" height="91.815" rx="8"/><path d="M192.792 3.834c-12.403 0-23.862 3.004-33.24 8.05-8.636-3.932-18.757-6.195-29.585-6.195-30.703 0-55.73 18.18-57.185 41.04-14.587 7.82-24.106 20.64-24.106 35.16 0 23.83 25.627 43.17 57.265 43.17 3.43 0 6.79-.28 10.05-.71 8.69 15.5 29.04 26.4 52.78 26.4 17.35 0 32.9-5.82 43.41-15 2.14.18 4.32.31 6.52.31 28.47 0 52.07-15.65 56.51-36.15 13.93-7.88 22.96-20.45 22.96-34.57 0-23.83-25.66-43.13-57.3-43.13-.39 0-.77-.01-1.15 0-10.37-11.1-27.52-18.39-46.9-18.39z" stroke="#000" stroke-width="3.458" fill="#FFF"/><rect fill="#000" x="230.719" y="119.069" width="24.023" height="91.815" rx="8"/><rect fill="#000" x="130.327" y="118.701" width="24.023" height="91.815" rx="8"/><ellipse stroke="#000" stroke-width="3.5" fill="#CCC" transform="rotate(32 91.97 35.598)" cx="91.971" cy="35.598" rx="14.614" ry="17.679"/><ellipse stroke="#000" stroke-width="3.5" fill="#CCC" cx="36.793" cy="27.5" rx="16.5" ry="20.5"/><path d="M64.82 22.504c18.807 6.514 27.182 31.633 18.705 56.104-4.07 11.752-11.562 21.78-20.826 27.877-9.27 6.097-19.55 7.765-28.58 4.637-9.03-3.13-16.08-10.797-19.59-21.32-3.51-10.52-3.19-23.033.88-34.785 4.07-11.75 11.56-21.777 20.82-27.877 9.26-6.09 19.54-7.76 28.57-4.63z" stroke="#000" stroke-width="3.458" fill="#CCC"/><path d="M46.738 47.16c1.357 3.24-.187 6.974-3.448 8.34-3.26 1.364-7.004-.156-8.36-3.396-1.357-3.24.187-6.974 3.448-8.34 3.26-1.365 7.004.155 8.36 3.396z" fill="#000"/><path d="M26.43 74.81c9.742 21.522 21.763 16.996 39.237 9.23" stroke="#000" stroke-width="3.458" stroke-linecap="round"/><path d="M72.062 53.443c1.357 3.24-.187 6.974-3.448 8.34-3.26 1.364-7.004-.156-8.36-3.396-1.358-3.24.186-6.974 3.447-8.34 3.27-1.364 7.01.156 8.37 3.396z" fill="#000"/></g><g transform="matrix(-1 0 0 1 315 595)"><rect fill="#000" x="96.016" y="118.701" width="24.023" height="91.815" rx="8"/><rect fill="#000" x="193.867" y="118.701" width="24.023" height="91.815" rx="8"/><path d="M192.792 3.834c-12.403 0-23.862 3.004-33.24 8.05-8.636-3.932-18.757-6.195-29.585-6.195-30.703 0-55.73 18.18-57.185 41.04-14.587 7.82-24.106 20.64-24.106 35.16 0 23.83 25.627 43.17 57.265 43.17 3.43 0 6.79-.28 10.05-.71 8.69 15.5 29.04 26.4 52.78 26.4 17.35 0 32.9-5.82 43.41-15 2.14.18 4.32.31 6.52.31 28.47 0 52.07-15.65 56.51-36.15 13.93-7.88 22.96-20.45 22.96-34.57 0-23.83-25.66-43.13-57.3-43.13-.39 0-.77-.01-1.15 0-10.37-11.1-27.52-18.39-46.9-18.39z" stroke="#000" stroke-width="3.458" fill="#FFF"/><rect fill="#000" x="230.719" y="119.069" width="24.023" height="91.815" rx="8"/><rect fill="#000" x="130.327" y="118.701" width="24.023" height="91.815" rx="8"/><ellipse stroke="#000" stroke-width="3.5" fill="#CCC" transform="rotate(32 91.97 35.598)" cx="91.971" cy="35.598" rx="14.614" ry="17.679"/><ellipse stroke="#000" stroke-width="3.5" fill="#CCC" cx="36.793" cy="27.5" rx="16.5" ry="20.5"/><path d="M64.82 22.504c18.807 6.514 27.182 31.633 18.705 56.104-4.07 11.752-11.562 21.78-20.826 27.877-9.27 6.097-19.55 7.765-28.58 4.637-9.03-3.13-16.08-10.797-19.59-21.32-3.51-10.52-3.19-23.033.88-34.785 4.07-11.75 11.56-21.777 20.82-27.877 9.26-6.09 19.54-7.76 28.57-4.63z" stroke="#000" stroke-width="3.458" fill="#CCC"/><path d="M46.738 47.16c1.357 3.24-.187 6.974-3.448 8.34-3.26 1.364-7.004-.156-8.36-3.396-1.357-3.24.187-6.974 3.448-8.34 3.26-1.365 7.004.155 8.36 3.396z" fill="#000"/><path d="M26.43 74.81c9.742 21.522 21.763 16.996 39.237 9.23" stroke="#000" stroke-width="3.458" stroke-linecap="round"/><path d="M72.062 53.443c1.357 3.24-.187 6.974-3.448 8.34-3.26 1.364-7.004-.156-8.36-3.396-1.358-3.24.186-6.974 3.447-8.34 3.27-1.364 7.01.156 8.37 3.396z" fill="#000"/></g><path d="M1203.756 571.036c8.256-2.02 17.256 4.88 24.373 19.45 6.73 13.792 16.71 24.217 4.02 32.043-7.07 4.36-23.59-.75-21.85-11.16-1.27 5.7-1.05 16.97-4.84 16.91-5.54-.08-11.69-5.59-8.54-16.65.77-2.7.52-5.36 1.29-7.51-.24-.66-.5-1.33-.67-2.03-3.9-15.73-2.05-29.05 6.21-31.07z" stroke="#050202" stroke-width="4" fill="#FFF6D5"/><path d="M1176.087 455.983l-6.42 25.512 32.093 109.7 35.944-17.857c-14.297-53.076-33.65-94.846-61.617-117.355z" stroke="#050202" stroke-width="4" fill="#502D16"/><path d="M1023.72 571.036c-8.258-2.02-17.257 4.88-24.375 19.45-6.738 13.792-16.712 24.217-4.025 32.043 7.072 4.36 23.59-.75 21.853-11.16 1.268 5.7 1.045 16.97 4.835 16.91 5.542-.08 11.69-5.59 8.54-16.65-.768-2.7-.52-5.36-1.287-7.51.25-.66.5-1.33.67-2.03 3.9-15.73 2.05-29.05-6.21-31.07z" stroke="#050202" stroke-width="4" fill="#FFF6D5"/><path d="M1051.388 455.983l6.418 25.512-32.092 109.7-35.943-17.857c14.3-53.076 33.65-94.846 61.62-117.355z" stroke="#050202" stroke-width="4" fill="#502D16"/><path d="M1114.29 779.984c0 4.737-3.45 9.28-9.59 12.628-6.138 3.35-14.464 5.23-23.145 5.23-8.682 0-17.008-1.88-23.147-5.23-6.14-3.35-9.587-7.89-9.587-12.628 0-9.863 14.66-17.858 32.74-17.858s32.74 7.995 32.74 17.858zm77.662 2.552c0 4.736-3.45 9.278-9.588 12.627-6.14 3.35-14.465 5.23-23.146 5.23-8.682 0-17.008-1.88-23.147-5.23-6.13-3.35-9.58-7.89-9.58-12.627 0-9.863 14.66-17.86 32.74-17.86s32.74 7.997 32.74 17.86z" stroke="#050202" stroke-width="4" fill="#504416"/><path d="M1199.498 596.122c5.312 57.704 13.268 154.976 1.1 167.46-12.475 12.798-66.365 23.52-87.332 15.192-20.24-8.04-63.808 4.587-79.17-25.82-15.363-30.405-2.52-103.843-6.155-154.126-7.35-101.737 2.75-180.562 91.68-181.75 75.67-1.01 84.81 77.644 79.88 179.044z" stroke="#050202" stroke-width="4" fill="#5AA02C"/><path d="M1027.73 585.322l172.532.162c-2.173 6.186-1.144 15.018-.49 22.608l-171.39-.324-.652-22.446z" stroke="#000" stroke-width="3.895" fill="#502D16"/><path d="M1164.923 398.954c0 15.19-4.973 29.76-13.825 40.5-8.852 10.742-20.858 16.776-33.376 16.776-12.518 0-24.524-6.034-33.376-16.776-8.852-10.74-13.825-25.31-13.825-40.5 0-15.19 4.98-29.76 13.83-40.5 8.85-10.742 20.86-16.776 33.38-16.776s24.53 6.034 33.38 16.776c8.85 10.74 13.83 25.31 13.83 40.5z" stroke="#050202" stroke-width="3.9" fill="#FFF6D5"/><path d="M1164.856 355.155c-4.483.767-8.95 3.354-10.652 7.483-1.114 2.88.146 6.25 2.633 8.134.93 1.502-.536 3.018-1.544 4.08-1.83 2.32-2.128 5.716-.4 8.16 1.317 2.803.826 6.287-1.294 8.63-1.55 2.55-.93 5.757.54 8.207.39 1.52 2.16 2.57 1.94 4.26.63 1.63-1.06 2.92-2 4.08-1.38 2.18-1.61 4.88-.95 7.31.23 2.5-1.23 5.16.2 7.5 2.88 4.52 8.61 7.09 14.14 6.84 4.81.03 9.76-2 12.55-5.77 1.38-2.17 1.63-4.87.85-7.27.06-2.56 1.26-5.39-.35-7.74-1.01-1.17-1.36-2.67-1.49-4.13-.85-.82-1.98-2.23-1.05-3.33 3.15-1.76 4.16-5.86 2.95-8.99-.24-1.57-2.22-2.45-2.45-3.8 1.39-1.08-1.28-2.5.72-3.25 2.31-1.47 3.4-4.22 3.36-6.77-.1-1.78-.79-3.59-2.3-4.74-1.29-.95-1.16-2.66-.1-3.71 1.19-1.32 2.3-2.83 2.36-4.63.36-3.93-2.53-7.65-6.28-9.15-3.37-1.43-7.18-1.72-10.82-1.56-.21.03-.41.06-.61.1z" stroke="#050202" stroke-width="3.897" fill="#FFF"/><path d="M1072.932 336.11c-1.474 3.213-2.91 4.472-2.713 2.68.19-1.79-1.81-2.776-3.39-3.114-4.86-1.494-10.83 1.106-12.31 5.81-.82 2.176-.43 4.53.19 6.698.24 1.668-1.27 2.75-2.47 3.69-1.76 1.22-3.31 2.846-3.8 4.903-1.05 3.153-.39 6.844 1.97 9.334.96 2.07-.79 4-1.85 5.67-1.42 3-1 6.54.53 9.42.38 2.88-2.83 4.68-3.03 7.44-.74 3.56.86 7.59 4.22 9.48 1.1 1.03.69 2.73-.32 3.67-2.31 3.65-1.63 8.73 1.58 11.71 1.43 2.28-.7 4.73-.32 7.11.38 5.03 5.61 9.43 11.01 8.76 3.55-1.09 7.11-2.35 10.89-2.51 5.58-1.53 8.91-8.13 6.35-13.11-.56-1.22-1-2.51-1.19-3.84-1.33-.01-1.6-2.3-.16-2.35 2.34-.56 3.23-3.31 2.4-5.27-.42-4.09-1.38-8.28-3.63-11.84-1.08-.97-.94-2.4-.05-3.41.91-2.04.92-4.36 2.06-6.32 1.3-2.78.65-6.02-1.07-8.51-.68-.85-1.08-2.22 0-2.96 1.23-.82 2.82-1.11 3.78-2.29 1.07-.98 1.54-2.5 2.74-3.32 1.73-.42 2.81 1.39 4.33 1.8 3.51 1.53 7.89.82 10.77-1.57 1.45-.53 2.59.91 3.06 2.02 2.56 4.14 8.78 5.83 13.24 3.45.77-1.07 2.99-1.39 3.58 0 1.94 2.49 4.06 5.42 7.54 5.95 4.4.87 9.28-1.31 11.26-5.13 1.59-1.3 3.69-.18 5.43.2 3.68.83 7.34-1.04 9.95-3.38 3.03-2.12 7.52-1.22 10.21-3.93 2.88-2.84 3.93-7.3 2.34-10.96.13-2.53 3.24-3.69 3.65-6.14 1.9-4.88-1.39-11.12-6.9-12.21-1.67-.36-3.41-.35-5.1-.1-1.36-.95-.04-2.62-.6-3.85-1.25-5.04-7.21-8.74-12.61-7.37-.95.52-2.46 1.22-3.26.12-1.52-4.19-6.45-6.95-11.09-6.36-3.72.55-6.96 3.26-7.99 6.67-3.91-3.33-10.67-3.05-14.15.71-.01 1.33-2.53 1.5-2.67.15-3.15-4.71-11.2-5.42-15.15-1.23-1.35 1.27-2.16 2.95-2.74 4.64-2.75.11-5.59-1.56-8.24-.21-3.68 1.24-4.9 6.08-6.38 9.29z" stroke="#050202" stroke-width="3.897" fill="#FFF"/><path d="M1106.36 393.075c0 2.366-1.93 4.285-4.31 4.285-2.382 0-4.313-1.92-4.313-4.285 0-1.136.455-2.226 1.263-3.03.81-.803 1.905-1.254 3.05-1.254 1.142 0 2.24.46 3.048 1.26.808.81 1.262 1.9 1.262 3.03z" fill="#000"/><path d="M1076.735 418.444c0 1.65.627 3.18 1.71 4.447-2.99 1.35-4.994 3.92-4.994 6.86 0 4.35 4.39 7.88 9.81 7.88.75 0 1.47-.08 2.16-.21.06.1.12.21.18.3-2 .77-3.66 2.04-4.63 3.64-.88-.21-1.82-.29-2.79-.29-5.41 0-9.8 3.53-9.8 7.88 0 1.9.85 3.64 2.25 5-.54.98-.81 2.09-.81 3.22 0 4.12 3.96 7.5 9 7.84-1.09 1.27-1.71 2.83-1.71 4.49 0 1.12.29 2.17.81 3.13-1.42 1.37-2.29 3.16-2.29 5.08 0 2.85 1.94 5.31 4.77 6.69-.25.7-.4 1.45-.4 2.21 0 4.35 4.39 7.84 9.81 7.84 1.66 0 3.22-.31 4.59-.89-.37.83-.58 1.7-.58 2.63 0 4.34 4.44 7.88 9.85 7.88 1.73 0 3.36-.38 4.77-1.01 1.73 2.23 4.76 3.73 8.28 3.73 4.28 0 7.93-2.18 9.27-5.25 1.55 2.71 4.99 4.58 8.95 4.58 5.42 0 9.81-3.53 9.81-7.87 0-.16-.03-.31-.04-.46 4.56-.67 8.05-3.89 8.05-7.75 0-1.14-.35-2.2-.9-3.17 1.88-1.43 3.06-3.47 3.06-5.72 0-4.34-4.39-7.88-9.8-7.88-.12 0 5.45-3.95 5.45-7.15 0-.65-.09-1.3-.27-1.91 3.18-1.3 5.35-3.93 5.35-6.99 0-3.59-3-6.64-7.1-7.58 1.69-1.41 2.74-3.3 2.74-5.42 0-1.27-.36-2.49-1.03-3.55 2.81-1.38 4.68-3.89 4.68-6.73 0-1.14-.31-2.2-.85-3.18 1.43-1.37 2.3-3.12 2.3-5.04 0-4.34-4.39-7.88-9.8-7.88-.87 0-1.72.13-2.52.3-.82-.18-1.68-.3-2.56-.3-5.42 0-9.8 3.54-9.8 7.88 0 .56.04 1.13.18 1.66-2 .68-3.66 1.88-4.72 3.39-1.52-.78-3.32-1.27-5.26-1.27-3.41 0-6.424 1.39-8.18 3.51-1.607-.91-3.51-1.44-5.62-1.44-1.52 0-2.95.27-4.23.77-.94-3.57-4.907-6.27-9.63-6.27-.747 0-1.46.08-2.16.21-.19-.3-.397-.62-.63-.89 2.98-1.35 4.99-3.92 4.99-6.86 0-4.35-4.387-7.84-9.8-7.84s-9.81 3.49-9.81 7.83z" stroke="#050202" stroke-width="3.897" fill="#FFF"/><path d="M1094.54 422.045c2.29.78 3.25-2.06 17.47-1.88 5.14 5.325 8.27-.396 11.638-.92 11.485 1.88 6.71 5.615 8.938 5.454" stroke="#000" stroke-width="3.897"/><path d="M1136.323 393.566c0 2.366-1.93 4.284-4.31 4.284-2.383 0-4.313-1.918-4.313-4.284 0-1.136.454-2.226 1.263-3.03.808-.803 1.905-1.254 3.05-1.254 1.142 0 2.24.45 3.047 1.254.81.804 1.263 1.894 1.263 3.03z" fill="#000"/><path d="M1449 575.816c6.32 29.473-8.272 38.884-37.143 24.104-31.23-15.987-46.618-12.668-41.907-23.052 5.263-11.6 19.454-28.583 41.907-23.052 13.266 3.268 23.213 13.89 37.144 22zm-264.368-9.832c-8.256-2.02-17.256 4.88-24.373 19.448-6.74 13.793-16.72 24.218-4.03 32.045 7.07 4.362 23.59-.75 21.85-11.16 1.27 5.708 1.04 16.97 4.83 16.917 5.54-.078 11.69-5.59 8.54-16.646-.77-2.702-.52-5.356-1.29-7.508.24-.664.49-1.333.66-2.032 3.89-15.725 2.05-29.044-6.21-31.064z" stroke="#050202" stroke-width="4" fill="#FFF6D5"/><path d="M1212.3 450.93l6.42 25.512-32.092 109.7-35.944-17.857c14.297-53.075 33.65-94.846 61.617-117.355z" stroke="#050202" stroke-width="4" fill="#5AA02C"/><path d="M1275.202 774.932c0 4.736-3.448 9.278-9.587 12.627-6.14 3.35-14.465 5.23-23.147 5.23-8.68 0-17.007-1.88-23.146-5.23-6.14-3.35-9.588-7.9-9.588-12.63 0-9.87 14.656-17.86 32.734-17.86 18.08 0 32.734 7.99 32.734 17.86zm77.663 2.55c0 4.737-3.448 9.28-9.587 12.63-6.14 3.35-14.465 5.23-23.147 5.23-8.68 0-17-1.88-23.14-5.23-6.14-3.35-9.59-7.89-9.59-12.628 0-9.863 14.66-17.858 32.74-17.858 18.08 0 32.74 7.995 32.74 17.858z" stroke="#050202" stroke-width="4" fill="#504416"/><path d="M1418.072 769.947c-.96-115.94-2.082-257.882-5.103-343.078-1.54-43.19 80.63-71.57 91.1 4.32 1.22 5.69-5.44 11.85-13.34 10.65-12.93-68.94-61.65-28.87-61.48-12.79 1.17 112.37 6.89 227.08 5.4 339.23l-16.6 1.65z" stroke="#000" stroke-width="4" fill="#A0892C"/><path d="M1428.32 562.74c0 4.106-6.03 7.435-13.47 7.435s-13.47-3.33-13.47-7.436c0-4.11 6.03-7.44 13.47-7.44s13.47 3.33 13.47 7.43z" stroke="#050202" stroke-width="4" fill="#FFF6D5"/><path d="M1345.805 456.032c16.122 32.878 37.41 60.623 60.334 86.74 3.16 33.08-6.36 40.936-12.84 54.852-24.11-6.32-33.9-9.798-41.08-12.756l-6.42-128.836z" stroke="#050202" stroke-width="4" fill="#5AA02C"/><path d="M1360.41 591.07c5.313 57.704 13.27 154.975 1.103 167.458-12.477 12.8-66.367 23.52-87.334 15.193-20.24-8.03-63.81 4.59-79.17-25.81-15.37-30.4-2.52-103.84-6.16-154.12-7.36-101.73 2.75-180.56 91.68-181.75 75.67-1.01 84.81 77.65 79.88 179.05z" stroke="#050202" stroke-width="4" fill="#447821"/><path d="M1323.353 395.028c0 15.19-4.973 29.76-13.825 40.5-8.852 10.742-20.858 16.776-33.376 16.776-12.518 0-24.524-6.034-33.376-16.776-8.852-10.74-13.825-25.31-13.825-40.5 0-15.19 4.98-29.76 13.83-40.5 8.85-10.742 20.86-16.776 33.38-16.776s24.53 6.034 33.38 16.776c8.85 10.74 13.83 25.31 13.83 40.5z" stroke="#050202" stroke-width="3.9" fill="#FFF6D5"/><path d="M1264.79 389.15c0 2.365-1.93 4.284-4.31 4.284-2.382 0-4.313-1.92-4.313-4.285 0-1.14.454-2.23 1.263-3.03.81-.81 1.905-1.26 3.05-1.26 1.142 0 2.24.45 3.048 1.25.808.8 1.262 1.89 1.262 3.03z" fill="#000"/><path d="M1237.053 484.21c8.892 15.9 49.965 26.485 63.198 17.536 12.4-21.513 16.59-56.46 12.79-80.73-6.68-4.162-11.91-6.06-27.98-5.74-4.87.1-22 1.21-28.46.754-43.28-3.056-29.82 33.885-19.53 68.18z" stroke="#050202" stroke-width="3.897" fill="#28170B"/><path d="M1294.753 389.64c0 2.366-1.93 4.284-4.312 4.284-2.38 0-4.31-1.918-4.31-4.284 0-1.136.46-2.226 1.27-3.03.81-.803 1.91-1.254 3.05-1.254s2.24.45 3.05 1.254c.81.804 1.27 1.894 1.27 3.03z" fill="#000"/><path d="M1188.643 580.27l172.532.162c-2.173 6.185-1.143 15.018-.49 22.608l-171.388-.325-.654-22.445z" stroke="#000" stroke-width="3.895" fill="#502D16"/><path d="M1245.758 325.084c-34.89 5.745-47.745 87.934-37.67 141.127 1.79 8.46 13.22 10.26 19.91 6.49 5.924-2.57 7.12-9.25 7.446-14.96.96-13.76-6.4-76.69 3.65-88.05 10.053-11.35 63.84-8.61 72.802 3.59 8.962 12.2-5.26 85.78 2.287 101.05 7.035 8.77 24.268 4.59 25.395-6.92-2.223-16.82 5.463-84.4 2.82-98.22-2.642-13.82-15.85-35.62-27.21-39.89-26.007-9.77-34.54-9.93-69.43-4.19z" stroke="#050202" stroke-width="3.897" fill="#5AA02C"/><path d="M1331.118 345.093c2.652 6.538 10.69 15.9 10.093 23.895l-128.45.91c2.01-7.155 3.03-13.08 9.06-23.768l109.31-1.037z" stroke="#000" stroke-width="4" fill="#502D16"/><path d="M1248.694 426.344c5.976 5.79 43.623 2.11 46.878-.65 3.254-2.758-14.83 22.454-24.174 22.4-9.346-.056-28.68-27.54-22.704-21.75z" stroke="#000" stroke-width="4" fill="#FFF6D5"/><path d="M572.568 570.807c-6.32 29.472 8.274 38.883 37.145 24.104 31.23-15.98 46.617-12.66 41.906-23.05-5.27-11.6-19.46-28.58-41.91-23.05-13.27 3.27-23.22 13.89-37.15 22z" stroke="#050202" stroke-width="4" fill="#FFF6D5"/><path d="M597.42 764.938c-1.164-115.976-11.295-229.172-2.49-343.08-1.77-12.12 22.353-9.128 17.494 4.188-9.543 112.128 1.565 225.09 1.595 337.243l-16.6 1.64z" stroke="#000" stroke-width="4" fill="#A0892C"/><path d="M593.25 557.73c0 4.106 6.03 7.436 13.47 7.436s13.47-3.33 13.47-7.436c0-4.107-6.03-7.437-13.47-7.437s-13.47 3.33-13.47 7.437z" stroke="#050202" stroke-width="4" fill="#FFF6D5"/><path d="M675.764 451.023c-16.122 32.877-37.408 60.623-60.333 86.74-3.16 33.08 6.36 40.936 12.84 54.85 24.1-6.32 33.9-9.797 41.08-12.755l6.42-128.835z" stroke="#050202" stroke-width="4" fill="#504416"/><path d="M836.937 560.974c8.257-2.02 17.256 4.88 24.374 19.45 6.74 13.792 16.72 24.217 4.03 32.043-7.07 4.363-23.59-.75-21.85-11.16-1.27 5.71-1.04 16.97-4.83 16.917-5.54-.077-11.69-5.59-8.54-16.645.77-2.71.52-5.36 1.29-7.51-.24-.67-.49-1.34-.66-2.03-3.9-15.73-2.05-29.05 6.21-31.07z" stroke="#050202" stroke-width="4" fill="#FFF6D5"/><path d="M809.268 445.92l-6.418 25.513 32.092 109.7 35.943-17.857c-14.296-53.076-33.65-94.846-61.617-117.355zm-62.9 324.002c0 4.737 3.45 9.28 9.587 12.628 6.138 3.35 14.465 5.23 23.146 5.23 8.69 0 17.01-1.88 23.15-5.23 6.14-3.35 9.59-7.89 9.59-12.628 0-9.863-14.65-17.858-32.73-17.858-18.07 0-32.73 7.995-32.73 17.858zm-77.664 2.552c0 4.736 3.45 9.278 9.588 12.627 6.138 3.35 14.465 5.24 23.146 5.24 8.682 0 17.008-1.88 23.147-5.23 6.14-3.35 9.587-7.89 9.587-12.63 0-9.86-14.655-17.86-32.734-17.86-18.078 0-32.734 8-32.734 17.86z" stroke="#050202" stroke-width="4" fill="#504416"/><path d="M661.158 586.06c-5.312 57.704-13.268 154.976-1.1 167.46 12.475 12.798 66.365 23.52 87.332 15.192 20.24-8.04 63.808 4.587 79.17-25.82 15.363-30.405 2.52-103.843 6.155-154.126 7.352-101.737-2.75-180.562-91.68-181.75-75.67-1.01-84.808 77.644-79.877 179.044z" stroke="#050202" stroke-width="4" fill="#806600"/><path d="M698.217 390.02c0 15.19 4.973 29.758 13.825 40.5 8.85 10.74 20.857 16.775 33.376 16.775 12.518 0 24.524-6.035 33.375-16.776 8.852-10.75 13.825-25.31 13.825-40.5 0-15.2-4.973-29.76-13.825-40.51-8.85-10.74-20.857-16.78-33.375-16.78-12.52 0-24.525 6.03-33.376 16.77-8.852 10.74-13.825 25.31-13.825 40.5z" stroke="#050202" stroke-width="3.9" fill="#FFF6D5"/><path d="M756.78 384.14c0 2.366 1.93 4.284 4.31 4.284 2.382 0 4.312-1.918 4.312-4.284 0-1.137-.454-2.226-1.263-3.03-.81-.803-1.91-1.255-3.05-1.255-1.15 0-2.24.452-3.05 1.255-.81.804-1.27 1.893-1.27 3.03z" fill="#000"/><path d="M784.516 479.2c-8.89 15.9-49.965 26.485-63.198 17.536-12.39-21.513-16.588-56.46-12.782-80.73 6.686-4.16 11.913-6.06 27.983-5.738 4.87.097 22 1.21 28.46.753 43.28-3.05 29.82 33.89 19.53 68.18z" stroke="#050202" stroke-width="3.897" fill="#803300"/><path d="M726.816 384.63c0 2.367 1.93 4.285 4.312 4.285 2.38 0 4.312-1.918 4.312-4.284 0-1.13-.455-2.22-1.263-3.03-.81-.8-1.905-1.25-3.05-1.25-1.142 0-2.24.45-3.048 1.26-.81.81-1.27 1.9-1.27 3.03z" fill="#000"/><path d="M832.926 575.26l-172.532.162c2.173 6.186 1.144 15.018.49 22.608l171.39-.324.652-22.446z" stroke="#000" stroke-width="3.895" fill="#2D5016"/><path d="M775.81 320.075c34.89 5.744 47.747 87.934 37.673 141.126-1.79 8.46-13.22 10.26-19.913 6.49-5.923-2.57-7.118-9.25-7.445-14.96-.96-13.76 6.402-76.69-3.65-88.05-10.053-11.35-63.84-8.61-72.8 3.59-8.964 12.2 5.26 85.78-2.288 101.05-7.035 8.76-24.268 4.58-25.395-6.92 2.222-16.82-5.464-84.4-2.82-98.22 2.64-13.82 15.85-35.61 27.21-39.89 26.006-9.77 34.54-9.93 69.43-4.19z" stroke="#050202" stroke-width="3.897" fill="#504416"/><path d="M690.452 340.084c-2.652 6.537-10.69 15.9-10.094 23.895l128.457.9c-2.005-7.16-3.03-13.08-9.06-23.77l-109.303-1.04z" stroke="#000" stroke-width="4" fill="#2D5016"/><path d="M772.876 421.334c-5.977 5.79-43.623 2.11-46.878-.65-3.255-2.757 14.83 22.455 24.174 22.4 9.345-.055 28.68-27.54 22.704-21.75z" stroke="#000" stroke-width="4" fill="#FFF6D5"/></g></svg>