<svg width="1540" height="820" viewBox="0 0 1540 820" xmlns="http://www.w3.org/2000/svg"><title>story24</title><g fill="none" fill-rule="evenodd"><path fill="#FC0" d="M1540 280H0v540h1540z"/><path d="M1540 0v738.94c-177.35-42.932-446.83-70.377-748.677-70.377C464.2 668.563 175.01 700.743 0 750V0h1540z" fill="navy"/><path fill="#FFE680" d="M451.937 326.34l11.33-10.833 13.327 8.236-6.777-14.15 11.932-10.164-15.52 2.08-5.96-14.51-2.82 15.44-15.61 1.19 13.78 7.45-3.7 15.25M1115.54 368l2.54 15.522 15.62 1.475-13.94 7.22 3.43 15.35-11.155-11.06-13.5 8.01 7.045-14.054-11.77-10.4 15.508 2.376 6.23-14.44m224.41 71.43l7.718 14 15.465-3.93-10.89 11.68 8.51 13.53-14.45-6.78-10.21 12.29 1.96-15.88-14.82-5.93 15.66-3.04 1.05-15.96m-389.99 27.1l14.61 6.58 10.05-12.5-1.73 15.96 14.96 5.72-15.67 3.28-.81 16.03-7.96-13.93-15.46 4.18 10.76-11.89-8.74-13.45M63.95 168.34l11.33-10.833 13.33 8.236-6.78-14.15 11.93-10.164-15.516 2.08L72.28 129l-2.813 15.442-15.61 1.19 13.78 7.455-3.698 15.254m102.62 236.83l15.42 5.42 9.14-13.59-.37 16.38 15.7 4.51-15.65 4.71.57 16.38-9.31-13.46-15.36 5.61 9.9-13.03-10.07-12.91M666.49 168l-2.03 15.85 14.78 5.993-15.66 2.96-1.12 15.94-7.643-14.02-15.47 3.856 10.93-11.63-8.44-13.56 14.4 6.83L666.49 168M383.05 515.032L392.69 502l-1.088 16.188 15.34 5.162-15.69 3.966-.157 16.223-8.61-13.74-15.438 4.86 10.37-12.46-9.385-13.22m733.596-394.81l11.33-10.84 13.327 8.23-6.777-14.15 11.932-10.17-15.518 2.09-5.954-14.52-2.813 15.44-15.612 1.19 13.78 7.45-3.695 15.25m-663.175-77.3l7.72 14 15.463-3.93-10.894 11.69 8.51 13.53-14.452-6.78-10.21 12.3 1.963-15.88-14.816-5.93 15.663-3.03 1.05-15.96M72.843 613.39L84.513 603l-4.22 15.066 13.464 7.917-15.595.63-3.35 15.284-5.415-14.676-15.534 1.53 12.25-9.7-6.25-14.34m727.825-34.55l-10.374 12.45 9.38 13.22-15.016-6.04-9.643 13.03 1.096-16.18-15.33-5.17 15.69-3.95.17-16.22 8.61 13.74 15.44-4.86M1440.63 55.8l11.71 10.345 12.95-8.73-6.19 14.36 12.28 9.65-15.534-1.47-5.36 14.694-3.41-15.27-15.592-.57 13.43-7.97-4.275-15.05m10.79 543.92l-12.49 9.34 5.84 14.48-12.72-9.03-11.94 10.05 4.62-14.93-13.22-8.27 15.58-.19 3.76-15.17 5 14.8 15.54-1.1M901.8 235.18l-12.89 8.75 5.177 14.72-12.29-9.59-12.366 9.49 5.3-14.68-12.82-8.86 15.56.51 4.45-14.96 4.33 15 15.57-.39"/><path fill="#FC0" d="M1273.672 215.7l-76.78-30.36 76.78-30.36L1303.954 78l30.282 76.98 76.78 30.36-76.78 30.36-30.282 130.754"/><path d="M572.84 555.89c-8.256-2.02-17.256 4.88-24.373 19.448-6.74 13.793-16.713 24.218-4.025 32.044 7.07 4.363 23.59-.75 21.852-11.16 1.27 5.71 1.046 16.97 4.836 16.918 5.54-.078 11.69-5.59 8.54-16.646-.768-2.702-.52-5.356-1.288-7.51.242-.662.494-1.33.667-2.03 3.89-15.725 2.04-29.044-6.21-31.064z" stroke="#050202" stroke-width="4.008" fill="#DEAA87"/><path d="M600.51 440.836l6.418 25.512-32.093 109.7-35.943-17.857c14.297-53.07 33.65-94.84 61.617-117.35z" stroke="#050202" stroke-width="4.008" fill="#FC0"/><path d="M572.533 535.008c.136-10.39.867-20.78 1.402-31.172L548.53 560.13c2.775 1.198 7.07 3.858 12.008 5.813l11.995-30.935z" fill="#A80"/><path d="M594.814 403.11c0 18.872 6.68 36.97 18.57 50.316 11.893 13.344 28.02 20.84 44.838 20.84 35.02 0 63.408-31.857 63.408-71.156 0-39.3-28.39-71.157-63.408-71.157-16.817 0-32.945 7.497-44.837 20.842-11.89 13.344-18.57 31.443-18.57 50.315z" stroke="#000" stroke-width="4.008" fill="#E3DEDB"/><path d="M722.667 440.836l-6.42 25.512 32.093 109.7 35.944-17.857c-14.297-53.07-33.65-94.84-61.617-117.35z" stroke="#050202" stroke-width="4.008" fill="#FC0"/><path d="M659.765 764.837c0 4.737 3.45 9.28 9.588 12.628 6.14 3.35 14.465 5.23 23.147 5.23 8.68 0 17.007-1.88 23.146-5.23 6.14-3.35 9.588-7.89 9.588-12.628 0-9.862-14.656-17.858-32.734-17.858-18.08 0-32.735 7.99-32.735 17.85zm-77.663 2.553c0 4.735 3.45 9.277 9.588 12.626 6.14 3.35 14.465 5.23 23.147 5.23 8.68 0 17.007-1.88 23.146-5.23 6.14-3.35 9.588-7.89 9.588-12.627 0-9.87-14.65-17.86-32.73-17.86s-32.73 7.99-32.73 17.86z" stroke="#050202" stroke-width="4.008" fill="#2B1100"/><path d="M574.557 580.975c-5.312 57.705-13.832 155.543-1.102 167.46 40.53 17.86 135.082 24.402 166.504-10.627 15.36-30.406 2.52-103.844 6.15-154.127 7.35-101.73-2.75-180.56-91.68-181.74-75.67-1.01-84.81 77.65-79.88 179.05z" stroke="#050202" stroke-width="4.008" fill="#FC0"/><path d="M611.615 384.934c0 15.19 4.973 29.76 13.825 40.5 8.852 10.74 20.857 16.776 33.376 16.776 12.518 0 24.524-6.035 33.376-16.776 8.852-10.74 13.825-25.31 13.825-40.5 0-15.19-4.973-29.76-13.825-40.5-8.852-10.742-20.858-16.776-33.376-16.776-12.52 0-24.524 6.034-33.376 16.776-8.852 10.74-13.825 25.31-13.825 40.5z" stroke="#050202" stroke-width="3.908" fill="#DEAA87"/><path d="M668.907 371.478c0 2.367 1.93 4.285 4.31 4.285 2.383 0 4.313-1.918 4.313-4.285 0-1.136-.454-2.226-1.263-3.03-.81-.803-1.905-1.254-3.05-1.254-1.142 0-2.24.45-3.047 1.255-.81.8-1.263 1.89-1.263 3.02zm-29.963.492c0 2.365 1.93 4.284 4.312 4.284 2.38 0 4.31-1.92 4.31-4.285 0-1.14-.453-2.23-1.262-3.03-.808-.81-1.905-1.26-3.048-1.26-1.144 0-2.24.45-3.05 1.25-.808.8-1.262 1.89-1.262 3.03z" fill="#000"/><path d="M675.288 419.55H642.31l-6.93 341.754c12.944 1.288 32.296 2.33 42.218.46l-2.31-342.215z" stroke="#000" stroke-width="4.008" fill="maroon"/><path d="M658.39 486.17l37.063-70.454c20.018-38.054-91.073-33.08-72.738 2.066l35.676 68.388z" stroke="#000" stroke-width="4.008" fill="#E3DBDB"/><path stroke="#000" stroke-width="4.008" stroke-linejoin="round" fill="#FC0" d="M697.644 349.6l52.2-74.434-67.75 33.154-24.725-58.07-24.46 58.4-72.65-32.83 57.8 74.312 79.57-.533z"/><path d="M681.654 405.918c-5.976 5.79-43.623 2.11-46.878-.65-3.254-2.758 14.83 22.454 24.174 22.4 9.346-.056 28.68-27.54 22.704-21.75z" stroke="#000" stroke-width="4.008" fill="#DEAA87"/><path d="M638.548 325.383c0 9.86 8.044 17.854 17.967 17.854 4.765 0 9.335-1.88 12.705-5.23 3.37-3.348 5.262-7.89 5.262-12.624 0-4.735-1.893-9.276-5.262-12.624-3.37-3.35-7.94-5.23-12.705-5.23-9.923 0-17.967 7.99-17.967 17.85z" stroke="#000" stroke-width="4.008" fill="#00F"/><path d="M717.934 429.392c-3.246-3.61-6.27-7.245-11.897-10.56l-1.04 335.586c4.274-1 8.663-2.564 12.937-4.476v-320.55zm-119.45.688c3.244-3.608 6.384-9.08 12.01-12.394l.693 338.913c-4.273-1-8.893-1.19-13.166-3.1l.47-323.42zm152.16 104.928c-.137-10.39-.868-20.78-1.403-31.172l25.41 56.294c-2.77 1.198-7.07 3.858-12.01 5.813l-11.99-30.935z" fill="#A80"/><path d="M750.335 548.313c8.257-2.02 17.257 4.88 24.374 19.45 6.73 13.79 16.71 24.216 4.02 32.043-7.07 4.362-23.59-.75-21.85-11.16-1.27 5.708-1.05 16.97-4.84 16.917-5.54-.077-11.69-5.59-8.54-16.646.77-2.7.52-5.355 1.29-7.508-.24-.67-.5-1.34-.67-2.04-3.9-15.73-2.05-29.05 6.21-31.07z" stroke="#050202" stroke-width="4.008" fill="#DEAA87"/><path stroke="#000" stroke-width="4.008" stroke-linejoin="round" fill="#D4AA00" d="M528.68 540.87h266.57v79.206H528.68z"/><path stroke="#000" stroke-width="4.008" stroke-linejoin="round" fill="#00F" d="M560.596 594.67l-14.24-14.242 14.15-14.152 14.24 14.242z"/><path d="M599.718 580.473c0 2.8 1.12 5.486 3.113 7.466 2 1.98 4.7 3.09 7.52 3.09 5.87 0 10.63-4.73 10.63-10.56s-4.75-10.56-10.62-10.56c-2.82 0-5.52 1.11-7.51 3.09-1.99 1.98-3.11 4.66-3.11 7.46z" stroke="#000" stroke-width="4.008" fill="#D40000"/><path stroke="#000" stroke-width="4.008" stroke-linejoin="round" fill="#00F" d="M764.73 594.67l-14.243-14.242 14.152-14.152 14.24 14.24z"/><path d="M701.308 580.473c0 2.8 1.12 5.486 3.112 7.466 1.993 1.98 4.695 3.09 7.513 3.09 5.87 0 10.626-4.73 10.626-10.56s-4.76-10.56-10.63-10.56c-2.82 0-5.52 1.11-7.52 3.09-2 1.98-3.12 4.66-3.12 7.46z" stroke="#000" stroke-width="4.008" fill="#D40000"/><path stroke="#000" stroke-width="4.008" stroke-linejoin="round" fill="#00F" d="M659.396 594.67l-14.24-14.242 14.15-14.15 14.24 14.24z"/><g transform="translate(107 287)"><path d="M297.4 251.52c8.255-2.02 17.255 4.88 24.372 19.447 6.74 13.793 16.712 24.218 4.025 32.045-7.07 4.362-23.59-.75-21.852-11.16-1.27 5.708-1.046 16.97-4.836 16.917-5.55-.08-11.69-5.59-8.55-16.65.77-2.7.52-5.36 1.29-7.51-.25-.67-.5-1.34-.67-2.03-3.9-15.73-2.05-29.05 6.21-31.07zM36.95 272.045c-6.32 29.472 8.273 38.883 37.144 24.104 31.23-15.99 46.618-12.67 41.907-23.06-5.26-11.6-19.45-28.59-41.9-23.06-13.26 3.27-23.21 13.89-37.14 22z" stroke="#050202" stroke-width="4.008" fill="#DEAA87"/><path stroke="#000" stroke-width="4.008" stroke-linecap="round" stroke-linejoin="bevel" fill="#E3E2DB" d="M2.996 251.473l51.328-22.916 39.036 87.436-51.328 22.916z"/><rect stroke="#000" stroke-width="4.008" fill="#E3E2DB" transform="rotate(-24.058 1107.167 0)" x="3.599" y="221.077" width="41.285" height="19.365" rx="6.138"/><path d="M46.23 295.897c-2 4.478.032 9.74 4.54 11.752 2.164.96 4.62 1.03 6.83.2 2.21-.84 3.99-2.52 4.95-4.67s1.022-4.6.17-6.8c-.85-2.21-2.545-3.99-4.71-4.95-4.507-2.02-9.782-.02-11.78 4.46zm-15.92-34.892c-2 4.478.033 9.74 4.54 11.752 2.164.967 4.622 1.04 6.83.202 2.21-.84 3.99-2.52 4.95-4.67.962-2.15 1.023-4.6.17-6.8-.85-2.21-2.545-3.99-4.71-4.95-4.506-2.02-9.78-.02-11.78 4.46z" stroke="#000" stroke-width="3.006" fill="green"/><path d="M57.63 258.968c0 4.106 6.032 7.436 13.47 7.436 7.44 0 13.47-3.33 13.47-7.436 0-4.107-6.03-7.437-13.47-7.437-7.438 0-13.47 3.33-13.47 7.44z" stroke="#050202" stroke-width="4.008" fill="#DEAA87"/><path d="M140.146 152.26c-16.122 32.878-37.41 60.624-60.334 86.742-3.165 33.078 6.36 40.935 12.837 54.85 24.1-6.32 33.89-9.798 41.07-12.756l6.42-128.835z" stroke="#050202" stroke-width="4.008" fill="#0A0"/><path d="M82.135 258.166l39.844-26.135-.01 17.1-37.3 22.81c-1.48-4.28-2.3-8.88-2.54-13.77z" fill="green"/><path d="M141.877 106.316c0 18.872 6.68 36.97 18.57 50.315 11.893 13.35 28.02 20.85 44.838 20.85 35.02 0 63.408-31.86 63.408-71.15 0-39.3-28.39-71.15-63.408-71.15-16.817 0-32.945 7.5-44.837 20.84-11.89 13.35-18.57 31.45-18.57 50.32z" stroke="#000" stroke-width="4.008" fill="#502D16"/><path d="M269.73 144.042l-6.42 25.512 32.093 109.7 35.944-17.857c-14.297-53.076-33.65-94.846-61.617-117.355z" stroke="#050202" stroke-width="4.008" fill="#0A0"/><path d="M206.828 468.043c0 4.737 3.45 9.28 9.588 12.628 6.14 3.35 14.465 5.24 23.147 5.24 8.68 0 17.007-1.88 23.146-5.23 6.13-3.35 9.58-7.89 9.58-12.63 0-9.86-14.66-17.85-32.74-17.85-18.08 0-32.74 8-32.74 17.86zm-77.662 2.552c0 4.736 3.448 9.278 9.587 12.627 6.14 3.35 14.465 5.23 23.147 5.23 8.68 0 17.007-1.88 23.146-5.23 6.14-3.35 9.588-7.89 9.588-12.627 0-9.863-14.656-17.86-32.734-17.86-18.08 0-32.734 7.997-32.734 17.86z" stroke="#050202" stroke-width="4.008" fill="#2B1100"/><path d="M121.62 284.18c-5.312 57.705-13.832 155.544-1.102 167.46 40.53 17.86 135.082 24.403 166.504-10.626 15.363-30.406 2.52-103.844 6.154-154.127 7.353-101.737-2.75-180.562-91.678-181.75-75.67-1.01-84.81 77.644-79.878 179.044z" stroke="#050202" stroke-width="4.008" fill="#0A0"/><path d="M158.678 88.14c0 15.19 4.973 29.76 13.825 40.5 8.852 10.74 20.858 16.776 33.376 16.776 12.51 0 24.52-6.035 33.37-16.776 8.85-10.74 13.82-25.31 13.82-40.5 0-15.19-4.98-29.76-13.83-40.5-8.85-10.742-20.86-16.776-33.38-16.776-12.52 0-24.53 6.034-33.38 16.775-8.85 10.74-13.83 25.31-13.83 40.5z" stroke="#050202" stroke-width="3.908" fill="#DEAA87"/><path d="M215.97 75.947c0 2.366 1.93 4.284 4.31 4.284 2.383 0 4.313-1.91 4.313-4.28 0-1.13-.454-2.22-1.263-3.03-.808-.8-1.905-1.25-3.05-1.25-1.142 0-2.24.45-3.047 1.26-.81.81-1.263 1.9-1.263 3.03zm-29.963.49c0 2.367 1.93 4.285 4.312 4.285 2.38 0 4.31-1.918 4.31-4.284 0-1.137-.46-2.226-1.27-3.03-.81-.803-1.91-1.255-3.05-1.255s-2.24.452-3.05 1.255c-.81.804-1.27 1.893-1.27 3.03z" fill="#000"/><path d="M222.35 122.755h-32.977l-6.93 341.755c12.944 1.288 32.296 2.33 42.218.46l-2.31-342.215z" stroke="#000" stroke-width="4.008" fill="#0055D4"/><path d="M205.454 162.108c19.04-.05 37.062-43.186 37.062-43.186 20.018-38.054-91.073-33.08-72.738 2.066 0 0 17.464 41.17 35.676 41.12z" stroke="#000" stroke-width="4.008" fill="#502D16"/><path d="M228.717 109.124c-5.976 5.79-43.623 2.11-46.877-.65-3.255-2.758 14.828 22.454 24.174 22.4 9.345-.056 28.68-27.54 22.703-21.75z" stroke="#000" stroke-width="4.008" fill="#DEAA87"/><path d="M264.997 132.598c-3.245-3.61-6.27-7.245-11.897-10.56l-1.04 335.586c4.274-1 8.663-2.564 12.937-4.476v-320.55zm-119.45.69c3.244-3.61 6.384-9.083 12.01-12.396l.693 338.913c-4.273-1-8.893-1.187-13.166-3.1l.462-323.418zm152.16 104.926c-.137-10.39-.868-20.78-1.403-31.172l25.405 56.294c-2.78 1.198-7.07 3.858-12.01 5.813l-12-30.94z" fill="green"/><path stroke="#000" stroke-width="4.731" stroke-linejoin="bevel" fill="#FC0" d="M247.04 58.444l-41.145.183-41.146-.1-13.1-17.698-12.51-17.79 33.05-11.12 33.42-10.89 33.52 10.82 33.16 11.05-12.34 17.81z"/><path d="M215.853 37.362c0 2.8-1.12 5.486-3.112 7.466-1.99 1.98-4.69 3.093-7.51 3.093-5.87 0-10.62-4.72-10.62-10.55s4.76-10.56 10.63-10.56c2.82 0 5.52 1.12 7.52 3.1s3.12 4.67 3.12 7.47zm33.04-5.052c0 2.8-1.12 5.487-3.112 7.467-1.99 1.98-4.69 3.092-7.51 3.092-5.87 0-10.62-4.73-10.62-10.56s4.76-10.56 10.63-10.56c2.82 0 5.52 1.11 7.52 3.09 2 1.98 3.12 4.66 3.12 7.46zm-66.08 0c0 2.8-1.12 5.487-3.113 7.467-1.992 1.98-4.695 3.092-7.513 3.092-5.87 0-10.626-4.73-10.626-10.56s4.76-10.56 10.63-10.56c2.82 0 5.52 1.11 7.52 3.09 2 1.98 3.12 4.66 3.12 7.46z" stroke="#000" stroke-width="4.008" fill="#0A0"/></g><path d="M1163.453 565.535c6.32 29.472-8.273 38.883-37.144 24.104-31.23-15.99-46.62-12.67-41.91-23.06 5.26-11.6 19.45-28.59 41.9-23.05 13.26 3.27 23.21 13.89 37.14 22z" stroke="#050202" stroke-width="4.008" fill="#502D16"/><path d="M1170.066 529.815c-1.064 2.982-3.436 5.36-6.596 6.61-3.16 1.248-6.846 1.268-10.25.054-3.405-1.22-6.248-3.57-7.903-6.54-1.655-2.97-1.988-6.31-.924-9.29 1.064-2.98 3.436-5.36 6.595-6.61 3.16-1.25 6.847-1.27 10.252-.06 3.404 1.21 6.247 3.56 7.902 6.53 1.655 2.97 1.987 6.31.924 9.29z" stroke="#000" stroke-width="4.008" fill="#F60"/><path stroke="#000" stroke-width="4.008" stroke-linejoin="bevel" fill="#F60" d="M1138.653 522.066l34.36 12.257-28.22 79.11-34.36-12.256z"/><path d="M1157.036 546.948c-1.373 3.85-5.627 5.85-9.5 4.468-1.862-.664-3.384-2.034-4.233-3.81-.85-1.777-.956-3.814-.297-5.663.66-1.848 2.03-3.358 3.813-4.196 1.78-.838 3.82-.936 5.68-.272 3.87 1.382 5.9 5.623 4.53 9.473zm-8.513 23.83c-1.373 3.85-5.627 5.85-9.5 4.47-1.86-.665-3.384-2.036-4.233-3.812-.85-1.777-.956-3.813-.296-5.662.66-1.85 2.03-3.358 3.813-4.196 1.78-.838 3.828-.936 5.688-.272 3.874 1.382 5.902 5.623 4.528 9.472zm-7.835 22.842c-1.374 3.85-5.628 5.85-9.502 4.47-1.86-.665-3.382-2.035-4.232-3.812-.85-1.776-.955-3.813-.296-5.662.66-1.848 2.03-3.358 3.813-4.196 1.79-.838 3.83-.936 5.69-.272 3.88 1.382 5.9 5.623 4.53 9.473z" stroke="#000" stroke-width="3.006" fill="green"/><path d="M1142.772 552.458c0 4.106-6.03 7.436-13.47 7.436s-13.47-3.33-13.47-7.436c0-4.107 6.03-7.437 13.47-7.437s13.47 3.33 13.47 7.44zm-243.687 3.244c-8.257-2.02-17.257 4.88-24.374 19.45-6.73 13.792-16.71 24.217-4.02 32.043 7.07 4.362 23.59-.75 21.86-11.16 1.27 5.71 1.05 16.97 4.84 16.917 5.54-.077 11.69-5.59 8.54-16.645-.77-2.702-.52-5.356-1.29-7.51.24-.662.5-1.332.67-2.03 3.9-15.726 2.05-29.045-6.2-31.065z" stroke="#050202" stroke-width="4.008" fill="#502D16"/><path d="M926.754 440.65l6.418 25.51-32.092 109.702-35.944-17.858c14.297-53.076 33.65-94.846 61.618-117.355z" stroke="#050202" stroke-width="4.008" fill="#330080"/><path d="M989.655 764.65c0 4.737-3.45 9.28-9.588 12.628-6.14 3.35-14.465 5.23-23.146 5.23-8.68 0-17-1.88-23.14-5.23-6.14-3.35-9.59-7.89-9.59-12.628 0-9.863 14.66-17.858 32.74-17.858 18.08 0 32.74 7.995 32.74 17.858zm77.663 2.55c0 4.738-3.45 9.28-9.588 12.63-6.14 3.348-14.465 5.23-23.146 5.23-8.682 0-17.008-1.882-23.147-5.23-6.14-3.35-9.588-7.892-9.588-12.63 0-9.86 14.65-17.857 32.73-17.857s32.73 7.996 32.73 17.858z" stroke="#050202" stroke-width="4.008" fill="#000"/><path d="M1060.257 445.75c16.122 32.878 37.41 60.624 60.334 86.742 3.17 33.078-6.36 40.935-12.83 54.85-24.1-6.32-33.89-9.798-41.08-12.756l-6.42-128.835z" stroke="#050202" stroke-width="4.008" fill="#330080"/><path d="M1074.864 580.788c5.312 57.704 13.268 154.976 1.1 167.46-12.475 12.798-66.366 23.52-87.333 15.192-21.72 4.498-64.76 12.65-79.17-25.82-15.36-30.405-2.52-103.843-6.15-154.126-7.35-101.737 2.75-180.562 91.68-181.75 75.67-1.01 84.81 77.644 79.88 179.044z" stroke="#050202" stroke-width="4.008" fill="#330080"/><path d="M1037.805 384.747c0 15.19-4.973 29.758-13.825 40.5-8.852 10.74-20.857 16.776-33.376 16.776-12.518 0-24.524-6.035-33.376-16.776-8.852-10.742-13.824-25.31-13.824-40.5 0-15.19 4.972-29.76 13.824-40.5 8.852-10.742 20.858-16.776 33.376-16.776 12.52 0 24.524 6.04 33.376 16.78 8.852 10.74 13.825 25.31 13.825 40.5z" stroke="#050202" stroke-width="3.908" fill="#784421"/><path d="M981.784 372.554c0 2.366-1.93 4.284-4.31 4.284-2.383 0-4.313-1.918-4.313-4.284 0-1.136.46-2.226 1.27-3.03.81-.803 1.91-1.255 3.05-1.255s2.24.45 3.05 1.25c.81.8 1.27 1.89 1.27 3.03zm27.42.49c0 2.367-1.93 4.285-4.31 4.285-2.382 0-4.312-1.92-4.312-4.29 0-1.14.454-2.23 1.263-3.03.81-.81 1.905-1.26 3.05-1.26 1.142 0 2.24.45 3.047 1.25.81.8 1.263 1.89 1.263 3.03z" fill="#000"/><path d="M903.096 569.988l172.532.162c-2.174 6.186-1.144 15.018-.49 22.608l-171.39-.325-.652-22.445z" stroke="#000" stroke-width="3.903" fill="#FC0"/><path d="M967.766 397.008c5.976 5.79 43.623 2.11 46.878-.65 3.254-2.758-14.83 22.454-24.174 22.4-9.346-.055-28.68-27.54-22.704-21.75z" stroke="#000" stroke-width="4.008" fill="#784421"/><path d="M989.643 452.248l-17.204-29.61c10.35 5.532 21.45 7.394 34.4 0l-17.21 29.61z" stroke="#000" stroke-width="4.008" stroke-linejoin="round" fill="#000"/><path d="M998.14 478.665c0 4.088-3.335 7.4-7.448 7.4-1.975 0-3.87-.78-5.266-2.166-1.397-1.39-2.182-3.28-2.182-5.24 0-1.96.785-3.85 2.182-5.24 1.396-1.39 3.29-2.17 5.266-2.17 4.113 0 7.448 3.31 7.448 7.4zm0 37.885c0 4.086-3.335 7.4-7.448 7.4-1.975 0-3.87-.78-5.266-2.168-1.397-1.388-2.182-3.27-2.182-5.233 0-1.97.785-3.85 2.182-5.24 1.396-1.39 3.29-2.17 5.266-2.17 4.113 0 7.448 3.31 7.448 7.4zm0 35.356c0 4.088-3.335 7.4-7.448 7.4-1.975 0-3.87-.778-5.266-2.166-1.397-1.388-2.182-3.27-2.182-5.234 0-1.962.785-3.845 2.182-5.233 1.396-1.388 3.29-2.167 5.266-2.167 4.113 0 7.448 3.313 7.448 7.4zm0 65.664c0 4.088-3.335 7.402-7.448 7.402-1.975 0-3.87-.78-5.266-2.168-1.397-1.388-2.182-3.27-2.182-5.233 0-1.96.785-3.84 2.182-5.23 1.396-1.39 3.29-2.17 5.266-2.17 4.113 0 7.448 3.32 7.448 7.4zm0 35.36c0 4.086-3.335 7.4-7.448 7.4-1.975 0-3.87-.78-5.266-2.168-1.397-1.388-2.182-3.27-2.182-5.233 0-1.97.785-3.85 2.182-5.24 1.396-1.39 3.29-2.17 5.266-2.17 4.113 0 7.448 3.31 7.448 7.4zm0 37.882c0 4.087-3.335 7.4-7.448 7.4-1.975 0-3.87-.78-5.266-2.167-1.397-1.388-2.182-3.27-2.182-5.233 0-1.963.785-3.845 2.182-5.233 1.396-1.39 3.29-2.17 5.266-2.17 4.113 0 7.448 3.31 7.448 7.4zm0 40.408c0 4.088-3.335 7.402-7.448 7.402-1.975 0-3.87-.78-5.266-2.168-1.397-1.388-2.182-3.27-2.182-5.233 0-1.96.785-3.84 2.182-5.23 1.396-1.39 3.29-2.17 5.266-2.17 4.113 0 7.448 3.32 7.448 7.4z" stroke="#000" stroke-width="3.006" fill="#FC0"/><path d="M1009.398 583.646c0 9.86-8.044 17.854-17.967 17.854-4.76 0-9.33-1.88-12.7-5.23-3.37-3.348-5.26-7.89-5.26-12.624 0-4.735 1.9-9.276 5.26-12.625 3.37-3.34 7.94-5.22 12.71-5.22 9.93 0 17.97 8 17.97 17.86z" stroke="#000" stroke-width="3.808" fill="#FC0"/><path d="M1032.96 363.603c-15.854 3.71-41.1-20.698-41.1-20.698s-30.715 28.613-45.404 20.792c-12.445-6.627-13.214-29.22-6.542-41.586 8.982-16.64 32.793-23.81 51.8-23.69 19.92.12 46.048 7.33 53.976 25.49 5.562 12.74 2.277 35.57-12.73 39.7z" stroke="#000" stroke-width="4.008" fill="#4000A1"/><path d="M219.093 269.877l22.64 77.896-94.582-85.87C91.13 246.98 52 213.013 52 173.5 52 120.205 123.187 77 211 77s159 43.205 159 96.5c0 51.648-66.854 93.82-150.907 96.377z" stroke="#000" stroke-width="4" fill="#FFF"/><path d="M99.555 123.03c.916 0 1.375 2.81 1.375 8.423l1.828 10.64h.453c0-.603 1.84-3.905 5.5-9.905.58-3.96 1.65-5.938 3.21-5.938h.46c.92 0 1.68 3.052 2.28 9.156 1.02 4.167 1.79 6.646 2.3 7.438.48-2.104 2.92-8.297 7.32-18.578.65-.657 1.26-.985 1.83-.985.83 0 1.36.33 1.61.99 0 .85-2.28 6.38-6.86 16.6-.77 2.41-1.45 5.71-2.06 9.91-.49.83-1.1 1.24-1.83 1.24-1.39 0-2.46-2.8-3.2-8.42-1.49-5.47-2.4-8.44-2.75-8.9l-4.58 7.92c-.76 1.54-1.45 4.18-2.06 7.92-.4.61-1.01 1.02-1.83 1.24-1.27 0-2.33-4.29-3.2-12.87-1.21-6.06-1.82-10.93-1.82-14.61 0-.49.69-.9 2.07-1.23zm39.687 3.954c4.448.615 6.672 3.276 6.672 7.985 0 6.16-2.437 11.27-7.312 15.31-2.01 1.14-3.808 1.72-5.39 1.72-3.866 0-6.355-2.09-7.47-6.25l-.156-1.94v-.66c0-6.73 3.073-11.84 9.22-15.31 1.54-.58 3.02-.86 4.436-.86zm-11.594 16.83c1.605 2.436 3.724 3.655 6.36 3.655 4.24 0 7.203-2.52 8.89-7.55l.313-2.38c0-3.54-1.74-5.63-5.23-6.25h-.48c-2.88 0-5.9 2.87-9.04 8.62-.53 1.73-.79 3.02-.79 3.89zm20.844-16.783c.698 0 1.047 2.42 1.047 7.25l1.4 9.19h.34c0-.53 1.4-3.38 4.2-8.54.43-3.4 1.25-5.11 2.45-5.11h.34c.7 0 1.29 2.63 1.75 7.89.78 3.6 1.36 5.73 1.75 6.41.37-1.81 2.24-7.15 5.61-16.01.49-.56.96-.84 1.4-.84.62 0 1.03.28 1.22.85 0 .73-1.75 5.5-5.25 14.3-.59 2.09-1.11 4.94-1.58 8.55-.38.71-.85 1.06-1.41 1.06-1.06 0-1.88-2.41-2.44-7.25-1.15-4.72-1.85-7.28-2.11-7.68l-3.5 6.83c-.59 1.33-1.11 3.61-1.58 6.83-.31.52-.78.87-1.39 1.06-.98 0-1.8-3.7-2.46-11.09-.94-5.23-1.4-9.42-1.4-12.59 0-.43.52-.78 1.57-1.06zm31.875-3.96c.625.29.938.64.938 1.05-2.97 9.57-4.453 15.62-4.453 18.17-.844.98-1.553 1.47-2.125 1.47-.938-.33-1.407-.75-1.407-1.25 1.48-12.95 3.438-19.43 5.875-19.43h1.172zm-5.547 23.46c1.48.28 2.22 1.05 2.22 2.31v.21c-.595 1.98-2.017 2.97-4.267 2.97-1.114 0-1.786-.77-2.015-2.31 0-1.78 1.354-2.84 4.062-3.17zm23.422-23.48h.235c.78 0 1.432.41 1.953 1.22-1.136 8.35-1.948 15.81-2.438 22.39l13.89-2.92.485.74v1.47c0 2.22-5.036 4.25-15.11 6.08-1.78-.32-2.67-.89-2.67-1.7 1.332-17.85 2.306-26.78 2.92-26.78l.735-.48zm29.25 3.96c4.448.62 6.672 3.28 6.672 7.99 0 6.17-2.437 11.27-7.312 15.31-2.01 1.15-3.808 1.72-5.39 1.72-3.866 0-6.355-2.08-7.47-6.25l-.156-1.93v-.65c0-6.73 3.073-11.83 9.22-15.31 1.54-.57 3.02-.86 4.436-.86zm-11.594 16.83c1.605 2.44 3.724 3.66 6.36 3.66 4.24 0 7.203-2.51 8.89-7.54l.313-2.37c0-3.54-1.74-5.62-5.23-6.25h-.48c-2.88 0-5.9 2.88-9.04 8.63-.53 1.73-.79 3.03-.79 3.89zM248.82 127c4.448.614 6.672 3.275 6.672 7.984 0 6.166-2.437 11.27-7.312 15.31-2.01 1.148-3.808 1.72-5.39 1.72-3.866 0-6.355-2.082-7.47-6.25l-.156-1.937v-.654c0-6.73 3.073-11.833 9.22-15.312 1.54-.57 3.02-.86 4.436-.86zm-11.593 16.83c1.604 2.435 3.724 3.654 6.36 3.654 4.24 0 7.202-2.516 8.89-7.547l.312-2.373c0-3.54-1.75-5.624-5.24-6.25h-.49c-2.89 0-5.9 2.876-9.05 8.626-.53 1.73-.8 3.024-.8 3.89zm23.89-16.69l.625.86-.625 8.124 12.75-7.062c.552.69.828 1.545.828 2.565-1.437 2.02-5.13 4.588-11.078 7.7v.22c2.75 3.57 5.886 6.56 9.406 8.97v.437c0 1.99-.697 2.985-2.093 2.985l-10.438-8.55c-.416 5.69-.833 8.54-1.25 8.54l-1.047.22c-.698-.23-1.047-.66-1.047-1.29l.83-10.05-.205-2.56c.48 0 .896-3.14 1.25-9.42.573-1.14 1.27-1.71 2.094-1.71zm36.5-.094h.75c1.03 0 2.34 4.767 3.922 14.298 1.25 4.5 1.87 7.56 1.87 9.174-.26.855-.76 1.28-1.5 1.28-.96 0-1.65-2.274-2.06-6.826l-.19-.203h-.19c-1.63.02-5.05 1.01-10.28 2.98-.5 2.84-1.31 4.26-2.44 4.26-.75-.29-1.13-.86-1.13-1.7 0-1.65 3.43-9.19 10.29-22.62l.93-.64zm-.375 5.97c-1.5 2.708-2.875 5.557-4.125 8.547h1.313c1.27 0 2.896-.285 4.875-.86l-1.688-7.69h-.375zm25.875-6.03c1.354 0 2.03.56 2.03 1.686v.42c0 1.555-1.207 2.33-3.624 2.33l-4.515.22c-1.354 7.22-2.03 13.427-2.03 18.625-.366 1.126-.74 1.69-1.126 1.69h-.688c-.78 0-1.234-.213-1.36-.64.76-7.99 1.59-14.48 2.485-19.47l-6.79 1.06c-.64 0-1.01-.633-1.13-1.904 0-2.113 1.88-3.17 5.65-3.17 2.26-.563 5.95-.844 11.07-.844zm-190.156 42c1.36 0 2.04.56 2.04 1.686v.42c0 1.555-1.21 2.33-3.62 2.33l-4.51.22c-1.35 7.22-2.03 13.427-2.03 18.625-.36 1.126-.74 1.69-1.12 1.69h-.68c-.78 0-1.23-.213-1.36-.64.76-7.99 1.59-14.48 2.49-19.47l-6.78 1.064c-.63 0-1.01-.63-1.12-1.9 0-2.11 1.88-3.17 5.66-3.17 2.26-.56 5.96-.84 11.08-.84zm18.08.014c.74.196 1.11.7 1.11 1.514v.202c-1.04 15.39-1.78 23.08-2.22 23.08l-.23.22h-.65c-.77 0-1.29-.36-1.56-1.08.29-2.05.44-4.924.44-8.622h-.22l-9.34 2.157-.66.86v4.09c0 1.22-.45 2.09-1.34 2.6h-.44c-.83 0-1.35-.36-1.56-1.08 1.03-15.53 2.52-23.29 4.45-23.29h.44l.67.88c-1.04 5.16-1.56 8.97-1.56 11.43 6.82-.89 10.24-1.97 10.24-3.23l.89-9.06 1.56-.64zm12.16.045h.75c1.03 0 2.34 4.764 3.92 14.295 1.25 4.5 1.88 7.556 1.88 9.17-.26.854-.76 1.28-1.5 1.28-.96 0-1.64-2.275-2.06-6.827l-.18-.207h-.18c-1.62.02-5.05 1.016-10.28 2.984-.5 2.84-1.31 4.263-2.43 4.263-.75-.29-1.12-.86-1.12-1.702 0-1.64 3.44-9.18 10.3-22.62l.94-.64zm-.37 5.97c-1.5 2.705-2.87 5.554-4.12 8.544h1.32c1.27 0 2.9-.29 4.88-.86l-1.69-7.69h-.37zm25.88-6.03c1.36 0 2.03.56 2.03 1.683v.425c0 1.55-1.21 2.328-3.62 2.328l-4.51.22c-1.35 7.22-2.03 13.43-2.03 18.63-.36 1.13-.74 1.69-1.12 1.69h-.68c-.78 0-1.23-.21-1.36-.64.76-7.99 1.59-14.48 2.49-19.47l-6.78 1.07c-.63 0-1.01-.63-1.12-1.9 0-2.11 1.89-3.17 5.66-3.17 2.26-.56 5.95-.84 11.07-.84zm24.28.06c4.22 0 6.33 1.44 6.33 4.31v.64c0 2.01-.95 3.946-2.86 5.81v.22c3.14.95 4.71 2.527 4.71 4.735v.86c0 3.603-3.54 6.254-10.62 7.95l-3.48.438h-2.03c-1.09 0-1.64-.573-1.64-1.72v-.218l1.64-17.658c-.69 0-1.03-.14-1.03-.42v-1.3c0-2.436 3-3.655 9-3.655zm-5.93 9.69h.22c6.4 0 9.6-1.44 9.6-4.317-1.05-.705-2.82-1.06-5.31-1.06h-2.46c-1.08 0-1.62.5-1.62 1.5l-.42 3.876zm-.4 4.09l-.4 6.873 2.05.437.2-.22h1.01c5.73-.75 8.6-2.11 8.6-4.08-1.88-2.01-4.82-3.014-8.8-3.014h-.81l-.2-.22-.2.22h-1.44zm27.22-13.83h2.16c3.31 0 4.96 1.15 4.96 3.452v.22c0 4.03-3.45 7.7-10.34 11v.205c3.45 3.166 6.33 5.54 8.63 7.124v.64c0 1.116-.36 1.834-1.08 2.157h-.86l-11.84-8.405-.22 4.317v3.235c-.36.72-.93 1.078-1.72 1.078-.57 0-1-.286-1.29-.86v-1.296l1.94-16.83c-.57 0-.86-.427-.86-1.28 0-2.595 2.16-4.106 6.46-4.53l4.09-.22zm-7.53 11.64h.22c7.46-1.918 11.19-4 11.19-6.25v-.22c0-.396-.72-.68-2.15-.86-2.38 0-5.25.506-8.61 1.517l-.64 5.81zM246 168.93h1.47c.49 0 .735.29.735.86-1.145 9.36-1.72 15.85-1.72 19.47v2.38c-.32 1.58-1.133 2.37-2.436 2.37h-.49l-.99-.86c.65-9.81 1.47-17.59 2.45-23.36l.97-.85zm17.39.06h.156c1.387 0 2.31 1.36 2.78 4.06l-.325.43h-.16l-1.31-.42c-3.58.53-7.34 3.03-11.27 7.49-1.09 1.94-1.64 3.292-1.64 4.063v.86c0 2.28 2.35 3.7 7.03 4.265 2.94 0 5.17-1.57 6.69-4.7l-1.95-.85c-.73 0-2.74.857-6.04 2.565-.32-.73-.48-1.444-.48-2.14v-.22c0-2.27 2.18-3.84 6.53-4.704h.33c2.5 0 3.75 1.64 3.75 4.92 0 3.38-2.78 6.38-8.33 8.98l-1.95.42c-3.53 0-5.92-1.5-7.18-4.49l-.33-2.78c0-6.46 3.32-11.95 9.95-16.47 1.68-.86 2.94-1.29 3.77-1.29zm21.766 0c.74.2 1.11.7 1.11 1.52v.21c-1.04 15.386-1.78 23.078-2.22 23.078l-.233.22h-.654c-.77 0-1.3-.36-1.57-1.077.29-2.05.44-4.93.44-8.62h-.22l-9.35 2.16-.66.86v4.09c0 1.22-.45 2.09-1.35 2.6h-.44c-.83 0-1.35-.36-1.56-1.08 1.03-15.53 2.51-23.3 4.45-23.3h.44l.67.88c-1.04 5.16-1.56 8.97-1.56 11.42 6.82-.89 10.23-1.97 10.23-3.23l.89-9.06 1.56-.64zm19.86-.01c1.35 0 2.03.56 2.03 1.69v.42c0 1.56-1.21 2.33-3.624 2.33l-4.513.22c-1.36 7.22-2.03 13.43-2.03 18.63-.37 1.123-.74 1.686-1.13 1.686h-.69c-.79 0-1.24-.214-1.36-.64.76-7.99 1.58-14.48 2.48-19.47l-6.78 1.063c-.64 0-1.01-.64-1.13-1.91 0-2.12 1.88-3.18 5.65-3.18 2.26-.57 5.95-.85 11.08-.85zM134.108 211c.95 0 2.083 1.78 3.406 5.343 2.564 5.25 5.41 9.74 8.548 13.47 1.05-10.28 1.83-16.34 2.34-18.17l.86-.64h.64c.43 0 .64.284.64.86-1.28 14.684-2.06 22.523-2.34 23.51l-1.28.42c-2.28 0-6.123-4.84-11.53-14.53l-.86-.86-.22.64-.64 9.847v1.28l.22 1.28c-.19 1.71-.754 2.56-1.702 2.56-.873-.31-1.373-.74-1.5-1.28 1.096-15.393 1.877-23.09 2.346-23.09l1.08-.64zm34.406.046c.72.16 1.08.706 1.08 1.644-.23 1.77-.943 2.65-2.14 2.65-7.855 0-11.78 1.095-11.78 3.28l-.22 1.846v1.016c5.125-1.23 8.624-1.842 10.5-1.842h.42c.72.313 1.08.995 1.08 2.047 0 1.5-1 2.25-3 2.25-6.574.85-9.86 1.88-9.86 3.076l-.204 2.047v.813c0 1.23.78 1.91 2.34 2.044 2.456-.27 5.53-.886 9.217-1.845h.64c.573.22.86.7.86 1.44v.61c0 1.673-3.573 2.97-10.72 3.89h-.64c-2.573 0-4-1.638-4.28-4.91 0-2.407.5-6.98 1.5-13.72l-.423-1.233c0-2.77 4.28-4.41 12.848-4.91l2.78-.2zm2.67 0c.7 0 1.05 2.42 1.05 7.25l1.407 9.19h.35c0-.53 1.4-3.38 4.2-8.546.44-3.41 1.26-5.11 2.46-5.11h.35c.71 0 1.29 2.63 1.75 7.89.78 3.59 1.37 5.73 1.75 6.402.38-1.812 2.25-7.15 5.61-16.015.49-.563.96-.844 1.41-.844.63 0 1.03.28 1.22.846 0 .73-1.75 5.49-5.25 14.3-.58 2.08-1.11 4.93-1.58 8.54-.37.71-.84 1.06-1.4 1.06-1.06 0-1.87-2.42-2.44-7.25-1.14-4.72-1.85-7.28-2.11-7.69l-3.5 6.83c-.58 1.33-1.11 3.6-1.57 6.82-.31.52-.77.87-1.39 1.06-.98 0-1.8-3.7-2.45-11.1-.94-5.23-1.4-9.43-1.4-12.59 0-.43.53-.78 1.58-1.07zm48.05 0h.33c1.436.18 2.155.878 2.155 2.097v.42c0 2.104-.72 4.06-2.16 5.875h-.33c-.23-.062-.46-.41-.67-1.046l.84-3.14-.66-.424c-1.53.137-4.35 1.814-8.44 5.033v.2l10.9 2.11c1.1.87 1.65 2.34 1.65 4.41v1.25c0 2.83-1.82 5.27-5.46 7.35-1.43.56-2.81.84-4.14.84h-.35c-3.79 0-6.1-1.67-6.94-5.03v-1.27c0-1.54.39-2.31 1.16-2.31.76 2.67 2.14 4 4.14 4 0 .27.83.41 2.48.41 2.44 0 4.81-1.25 7.11-3.76 0-1.66-3.53-2.72-10.58-3.15-2.54-.71-3.82-1.75-3.82-3.14 0-3.41 3.42-6.83 10.25-10.28l2.48-.42zm22.907-.06c1.36 0 2.03.56 2.03 1.688v.424c0 1.554-1.2 2.33-3.62 2.33l-4.51.22c-1.35 7.22-2.03 13.427-2.03 18.625-.36 1.125-.74 1.688-1.12 1.688h-.69c-.78 0-1.23-.21-1.36-.64.76-7.99 1.59-14.48 2.49-19.47l-6.78 1.07c-.63 0-1.01-.63-1.12-1.9 0-2.11 1.89-3.17 5.66-3.17 2.26-.56 5.95-.84 11.08-.84zm11.03.06h.75c1.04 0 2.34 4.77 3.93 14.3 1.25 4.5 1.88 7.558 1.88 9.173-.26.85-.76 1.28-1.5 1.28-.96 0-1.64-2.28-2.06-6.83l-.18-.2h-.18c-1.62.02-5.05 1.01-10.28 2.98-.5 2.84-1.31 4.26-2.44 4.26-.75-.29-1.13-.86-1.13-1.71 0-1.65 3.43-9.19 10.3-22.63l.94-.64zm-.37 5.97c-1.5 2.71-2.87 5.56-4.12 8.55H250c1.27 0 2.89-.287 4.87-.86l-1.697-7.7h-.372zM272.95 211h2.157c3.3 0 4.95 1.15 4.95 3.45v.22c0 4.03-3.448 7.7-10.344 11v.207c3.45 3.166 6.32 5.54 8.622 7.124v.64c0 1.12-.36 1.84-1.08 2.16h-.86l-11.84-8.4-.22 4.31v3.24c-.365.72-.938 1.08-1.72 1.08-.575 0-1.007-.28-1.3-.86v-1.29l1.94-16.83c-.574 0-.86-.43-.86-1.28 0-2.59 2.15-4.1 6.453-4.53l4.094-.22zm-7.53 11.64h.22c7.456-1.915 11.186-4 11.186-6.25v-.22c0-.393-.72-.68-2.16-.86-2.385 0-5.255.51-8.61 1.52l-.64 5.81zm24.984-15.56c.627.29.94.64.94 1.046-2.97 9.563-4.454 15.62-4.454 18.17-.843.98-1.55 1.47-2.124 1.47-.938-.332-1.406-.75-1.406-1.25 1.48-12.957 3.438-19.437 5.876-19.437h1.17zm-5.545 23.45c1.48.28 2.22 1.055 2.22 2.315v.203c-.59 1.98-2.02 2.97-4.27 2.97-1.12 0-1.79-.77-2.02-2.313 0-1.78 1.36-2.84 4.07-3.17z" fill="#000"/><path d="M1171.754 419.33L1060.512 410l99.652 53.15c12.53 36.23 77.98 63.85 156.836 63.85 87.813 0 159-34.25 159-76.5s-71.187-76.5-159-76.5c-64.74 0-120.443 18.616-145.246 45.33z" stroke="#000" stroke-width="4" fill="#FFF"/><path d="M1235.438 410.03c.916 0 1.374 2.81 1.374 8.423l1.83 10.64h.452c0-.603 1.833-3.905 5.5-9.906.573-3.958 1.64-5.937 3.203-5.937h.453c.917 0 1.677 3.052 2.28 9.156 1.022 4.167 1.788 6.646 2.298 7.438.48-2.104 2.917-8.297 7.313-18.578.65-.657 1.26-.985 1.83-.985.83 0 1.36.33 1.61.99 0 .85-2.28 6.38-6.86 16.6-.77 2.41-1.46 5.71-2.06 9.91-.49.83-1.1 1.24-1.83 1.24-1.39 0-2.46-2.8-3.2-8.42-1.49-5.47-2.4-8.44-2.75-8.9l-4.58 7.92c-.76 1.54-1.45 4.18-2.06 7.92-.4.61-1.01 1.02-1.83 1.24-1.27 0-2.34-4.29-3.2-12.87-1.22-6.06-1.83-10.93-1.83-14.61 0-.49.69-.9 2.07-1.23zm42.734 4c.72.158 1.078.704 1.078 1.642-.23 1.77-.943 2.656-2.14 2.656-7.855 0-11.782 1.094-11.782 3.28l-.22 1.845v1.016c5.126-1.23 8.626-1.85 10.5-1.85h.423c.72.31 1.08.99 1.08 2.04 0 1.5-1 2.25-3 2.25-6.57.85-9.86 1.88-9.86 3.08l-.2 2.04v.81c0 1.23.78 1.91 2.35 2.04 2.46-.27 5.53-.89 9.22-1.85h.64c.58.22.86.7.86 1.44v.61c0 1.67-3.57 2.97-10.72 3.89h-.64c-2.57 0-4-1.64-4.28-4.91 0-2.41.5-6.98 1.5-13.72l-.42-1.24c0-2.77 4.28-4.41 12.85-4.91l2.78-.21zm7.36-3.983c1.52.49 2.28 1.156 2.28 2-.322 1.323-2.317 4.23-5.984 8.72h-1.437l-1.12-.892v-.672l4.28-6.922c.3-1.48.96-2.23 1.99-2.23zm6.218 3.937h.22c.676 0 1.244.35 1.702 1.047-.99 7.21-1.698 13.66-2.125 19.35l12.187-2.51.422.63v1.27c0 1.92-4.416 3.67-13.25 5.25-1.573-.28-2.36-.77-2.36-1.47 1.168-15.41 2.022-23.12 2.563-23.12l.64-.42zm16.14 0h.22c.676 0 1.244.35 1.703 1.047-.99 7.21-1.698 13.66-2.126 19.35l12.188-2.51.422.63v1.27c0 1.92-4.417 3.67-13.25 5.25-1.573-.28-2.36-.77-2.36-1.47 1.167-15.41 2.02-23.12 2.563-23.12l.64-.42zm29.64 0c.95 0 2.085 1.782 3.408 5.344 2.562 5.25 5.41 9.74 8.546 13.47 1.052-10.282 1.834-16.34 2.344-18.173l.86-.64h.64c.427 0 .64.286.64.86-1.28 14.686-2.062 22.525-2.343 23.514l-1.28.42c-2.283 0-6.126-4.85-11.533-14.53l-.86-.86-.218.64-.64 9.84v1.28l.218 1.28c-.187 1.71-.755 2.56-1.703 2.56-.88-.32-1.38-.74-1.5-1.28 1.09-15.4 1.87-23.1 2.34-23.1l1.08-.64zm34.408.047c.718.16 1.078.71 1.078 1.65-.23 1.77-.943 2.66-2.14 2.66-7.855 0-11.782 1.1-11.782 3.28l-.22 1.85v1.02c5.126-1.23 8.626-1.84 10.5-1.84h.423c.72.32 1.078 1 1.078 2.05 0 1.5-1 2.25-3 2.25-6.573.86-9.86 1.88-9.86 3.08l-.203 2.05v.81c0 1.23.782 1.91 2.344 2.05 2.46-.27 5.53-.88 9.22-1.84h.64c.573.22.86.7.86 1.44v.61c0 1.68-3.574 2.97-10.72 3.89h-.64c-2.573 0-4-1.63-4.282-4.9 0-2.41.5-6.98 1.5-13.72l-.42-1.23c-.002-2.77 4.28-4.41 12.842-4.91l2.782-.2zm17.796 0c.72.16 1.08.71 1.08 1.65-.23 1.77-.944 2.66-2.142 2.66-7.854 0-11.78 1.1-11.78 3.28l-.22 1.85v1.02c5.125-1.23 8.625-1.84 10.5-1.84h.422c.718.32 1.078 1 1.078 2.05 0 1.5-1 2.25-3 2.25-6.573.86-9.86 1.88-9.86 3.08l-.203 2.05v.81c0 1.23.78 1.91 2.34 2.05 2.46-.27 5.53-.88 9.22-1.84h.64c.57.22.86.7.86 1.44v.61c0 1.68-3.58 2.97-10.72 3.89h-.64c-2.58 0-4-1.63-4.28-4.9 0-2.41.5-6.98 1.5-13.72l-.42-1.23c0-2.77 4.28-4.41 12.84-4.91l2.78-.2zm9.422-.04h.953c4.53 0 7.3 1.8 8.32 5.39l.18 1.72c0 7.16-5.3 13.05-15.91 17.69l-.94.22h-.2c-.28 0-.53-.5-.75-1.51l1.89-18.54c-.76 0-1.14-.21-1.14-.64v-.44c0-2.29 1.01-3.43 3.03-3.43l4.54-.44zm-3.78 4.53c-1.136 7.38-1.704 12.34-1.704 14.88v1.08c7.948-3.97 11.922-7.71 11.922-11.22v-.2c0-2.02-.568-3.03-1.703-3.03-1.4-1-3.67-1.5-6.81-1.5h-1.7zm-190.798 37.52h.328c1.438.18 2.157.88 2.157 2.1v.42c0 2.11-.72 4.06-2.157 5.88h-.328c-.23-.06-.453-.41-.672-1.04l.844-3.14-.656-.42c-1.532.14-4.344 1.82-8.438 5.04v.2l10.907 2.11c1.104.87 1.656 2.34 1.656 4.4v1.25c0 2.83-1.82 5.27-5.46 7.35-1.43.56-2.81.84-4.14.84h-.35c-3.79 0-6.11-1.67-6.94-5.03v-1.26c0-1.54.38-2.31 1.15-2.31.76 2.67 2.14 4 4.14 4 0 .27.83.41 2.48.41 2.45 0 4.82-1.25 7.11-3.76 0-1.66-3.53-2.71-10.58-3.15-2.54-.71-3.81-1.76-3.81-3.14 0-3.41 3.41-6.83 10.25-10.28l2.48-.43zm19.22-.04c4.447.62 6.67 3.28 6.67 7.99 0 6.17-2.437 11.27-7.312 15.31-2.01 1.15-3.807 1.72-5.39 1.72-3.865 0-6.355-2.08-7.47-6.25l-.155-1.93v-.65c0-6.73 3.08-11.83 9.22-15.31 1.54-.57 3.02-.86 4.44-.86zm-11.595 16.83c1.604 2.44 3.724 3.66 6.36 3.66 4.24 0 7.203-2.51 8.89-7.54l.313-2.37c0-3.54-1.745-5.62-5.235-6.25h-.48c-2.88 0-5.9 2.88-9.04 8.63-.53 1.73-.79 3.03-.79 3.89zm28.97-16.83h.405c.667.37 1 .94 1 1.71v.44c0 4.63.406 10.05 1.22 16.25h.202c4.458-11.68 7.083-17.53 7.875-17.53h.61c.593 0 1.536 4.06 2.828 12.19 1.208 4.17 1.812 7.66 1.812 10.47-.396 1-1 1.5-1.813 1.5-.54 0-1.28-3.49-2.218-10.48l-1.625-6.83c-1.16 1.86-3.25 6.7-6.27 14.53-.87.89-1.61 1.39-2.22 1.5-1.75 0-2.63-2.35-2.63-7.06l-1-8.97h-.21l-6.06 13.67c-.37 2.29-.71 3.43-1.02 3.43h-.8l-.81-.84v-1.08c0-1.91 1.68-6.04 5.04-12.39 2.39-6.66 3.94-10.08 4.64-10.26l1.01-.22zm34.25.05c.718.16 1.077.71 1.077 1.64-.23 1.77-.943 2.66-2.14 2.66-7.855 0-11.782 1.1-11.782 3.28l-.22 1.85v1.02c5.126-1.23 8.626-1.84 10.5-1.84h.423c.72.31 1.08.99 1.08 2.05 0 1.5-1 2.25-3 2.25-6.57.86-9.86 1.88-9.86 3.08l-.2 2.05v.81c0 1.23.78 1.91 2.35 2.05 2.46-.27 5.53-.89 9.22-1.85h.64c.58.22.86.7.86 1.44v.61c0 1.68-3.57 2.98-10.72 3.89h-.64c-2.57 0-4-1.63-4.28-4.9 0-2.4.5-6.98 1.5-13.72l-.42-1.23c0-2.77 4.28-4.4 12.85-4.9l2.78-.2zm25.968-.04c4.14 0 6.21 1.22 6.21 3.64 0 4.8-4.53 9.15-13.59 13.03-.66 0-1 .43-1 1.28-.09 4.71-.56 7.07-1.4 7.07h-1c-.27-.06-.53-.41-.79-1.06l1.8-17.53h-.2c-.53 0-.79-.64-.79-1.93 0-2.09 1.21-3.3 3.61-3.62l7.19-.86zm-8 12.41c4.58-1.2 8.05-3.19 10.41-5.98l.39-1.29v-.42l-1-.21h-1c-5.32.29-7.98.79-7.98 1.5l-.81 6.42zm25.83-12.41h2.16c3.3 0 4.96 1.15 4.96 3.45v.22c0 4.04-3.45 7.7-10.34 11v.21c3.45 3.17 6.33 5.54 8.63 7.13v.64c0 1.12-.36 1.83-1.08 2.16h-.85l-11.84-8.4-.22 4.31v3.24c-.36.72-.94 1.08-1.72 1.08-.57 0-1-.28-1.29-.86v-1.29l1.94-16.83c-.57 0-.86-.43-.86-1.28 0-2.6 2.15-4.11 6.46-4.53l4.1-.22zm-7.53 11.64h.22c7.46-1.92 11.19-4 11.19-6.25v-.22c0-.39-.72-.68-2.15-.86-2.38 0-5.25.51-8.61 1.52l-.64 5.81zm31.35-11.59c.72.16 1.08.71 1.08 1.64-.23 1.77-.94 2.66-2.14 2.66-7.85 0-11.78 1.1-11.78 3.28l-.22 1.85v1.02c5.13-1.23 8.63-1.84 10.5-1.84h.42c.72.31 1.08.99 1.08 2.04 0 1.5-1 2.25-3 2.25-6.57.86-9.86 1.88-9.86 3.08l-.2 2.05v.81c0 1.23.78 1.91 2.35 2.05 2.46-.27 5.53-.88 9.22-1.84h.64c.58.22.86.7.86 1.44v.61c0 1.68-3.57 2.98-10.72 3.89h-.64c-2.57 0-4-1.63-4.28-4.9 0-2.41.5-6.98 1.5-13.72l-.42-1.23c0-2.77 4.28-4.4 12.85-4.9l2.78-.2zm14.33 0h.33c1.44.18 2.16.88 2.16 2.1v.43c0 2.11-.72 4.07-2.15 5.88h-.33c-.23-.06-.45-.41-.67-1.05l.84-3.14-.65-.42c-1.53.14-4.34 1.81-8.44 5.03v.21l10.91 2.11c1.11.88 1.66 2.35 1.66 4.41v1.25c0 2.82-1.81 5.27-5.45 7.34-1.43.56-2.81.84-4.14.84h-.34c-3.79 0-6.11-1.67-6.94-5.03v-1.26c0-1.54.39-2.31 1.16-2.31.76 2.67 2.14 4 4.14 4 0 .27.83.41 2.49.41 2.45 0 4.82-1.25 7.11-3.76 0-1.66-3.53-2.71-10.58-3.15-2.54-.71-3.81-1.75-3.81-3.14 0-3.4 3.42-6.83 10.25-10.28l2.48-.42zm22.27 0c.72.16 1.08.71 1.08 1.64-.23 1.77-.94 2.66-2.14 2.66-7.85 0-11.78 1.1-11.78 3.28l-.22 1.85v1.02c5.13-1.23 8.63-1.84 10.5-1.84h.42c.72.31 1.08.99 1.08 2.04 0 1.5-1 2.25-3 2.25-6.57.86-9.86 1.88-9.86 3.08l-.2 2.05v.81c0 1.23.78 1.91 2.35 2.05 2.46-.27 5.53-.88 9.22-1.84h.64c.58.22.86.7.86 1.44v.61c0 1.68-3.57 2.98-10.71 3.89h-.64c-2.58 0-4-1.63-4.28-4.9 0-2.41.5-6.98 1.5-13.72l-.42-1.23c0-2.77 4.28-4.4 12.85-4.9l2.78-.2zm4.52-.04c.95 0 2.09 1.78 3.41 5.34 2.57 5.25 5.41 9.74 8.55 13.47 1.06-10.28 1.84-16.34 2.35-18.17l.86-.64h.64c.43 0 .64.28.64.86-1.28 14.68-2.06 22.52-2.34 23.51l-1.28.42c-2.28 0-6.12-4.84-11.53-14.53l-.86-.86-.22.64-.64 9.85v1.28l.22 1.28c-.19 1.71-.75 2.56-1.7 2.56-.87-.31-1.37-.74-1.5-1.28 1.1-15.4 1.88-23.1 2.34-23.1l1.08-.64zm35.05-.02c1.36 0 2.04.56 2.04 1.69v.42c0 1.55-1.21 2.33-3.63 2.33l-4.52.22c-1.35 7.22-2.03 13.43-2.03 18.62-.36 1.13-.74 1.69-1.12 1.69h-.69c-.78 0-1.23-.21-1.36-.64.76-7.99 1.59-14.48 2.49-19.47l-6.78 1.07c-.64 0-1.01-.63-1.13-1.9 0-2.12 1.89-3.17 5.66-3.17 2.26-.57 5.96-.85 11.08-.85zm14.63.06h.33c1.44.18 2.16.88 2.16 2.1v.42c0 2.11-.72 4.06-2.15 5.88h-.33c-.23-.06-.45-.41-.67-1.04l.84-3.14-.65-.42c-1.53.14-4.34 1.81-8.43 5.03v.2l10.91 2.11c1.11.87 1.66 2.34 1.66 4.41v1.25c0 2.82-1.82 5.27-5.45 7.34-1.42.56-2.8.85-4.14.85h-.34c-3.79 0-6.1-1.68-6.94-5.03v-1.27c0-1.54.39-2.31 1.16-2.31.76 2.67 2.14 4 4.14 4 0 .27.83.41 2.49.41 2.45 0 4.82-1.25 7.11-3.77 0-1.66-3.53-2.71-10.58-3.15-2.54-.71-3.81-1.75-3.81-3.14 0-3.41 3.42-6.83 10.25-10.28l2.49-.42zm15.91-3.96c.63.29.94.64.94 1.05-2.97 9.56-4.45 15.62-4.45 18.17-.84.98-1.55 1.47-2.12 1.47-.93-.33-1.4-.75-1.4-1.25 1.48-12.96 3.44-19.44 5.88-19.44h1.17zm-5.54 23.45c1.48.28 2.22 1.05 2.22 2.31v.21c-.59 1.98-2.02 2.97-4.27 2.97-1.11 0-1.78-.77-2.01-2.31 0-1.78 1.36-2.84 4.07-3.17z" fill="#000"/><path d="M854.85 217.153L733.32 350.117l46.73-112.273C756.208 241.834 730.624 244 704 244c-129.235 0-234-51.04-234-114S574.765 16 704 16s234 51.04 234 114c0 34.958-32.298 66.24-83.15 87.153z" stroke="#000" stroke-width="4" fill="#FFF"/><path d="M528.055 77.03h.234c.78 0 1.43.407 1.95 1.22-1.14 8.344-1.95 15.807-2.44 22.39l13.89-2.92.48.733v1.47c0 2.218-5.04 4.244-15.11 6.077-1.78-.323-2.68-.89-2.68-1.703 1.33-17.854 2.31-26.78 2.92-26.78l.73-.486zm32.297 4c.718.158 1.078.704 1.078 1.642-.23 1.77-.943 2.656-2.14 2.656-7.855 0-11.782 1.094-11.782 3.28l-.22 1.845v1.016c5.126-1.23 8.626-1.85 10.5-1.85h.423c.72.31 1.08.99 1.08 2.04 0 1.5-1 2.25-3 2.25-6.57.85-9.86 1.88-9.86 3.08l-.2 2.04v.81c0 1.23.78 1.91 2.35 2.04 2.46-.27 5.54-.89 9.22-1.85h.64c.58.22.86.7.86 1.44v.61c0 1.67-3.57 2.97-10.72 3.89h-.64c-2.57 0-4-1.64-4.28-4.91 0-2.41.5-6.98 1.5-13.72l-.42-1.24c0-2.77 4.28-4.41 12.84-4.91l2.79-.21zm18.437-.06c1.35 0 2.03.56 2.03 1.686v.422c0 1.552-1.21 2.328-3.63 2.328l-4.52.22c-1.36 7.218-2.04 13.426-2.04 18.624-.37 1.125-.74 1.688-1.13 1.688h-.69c-.78 0-1.24-.214-1.36-.64.76-7.99 1.59-14.48 2.48-19.47l-6.78 1.063c-.64 0-1.01-.63-1.13-1.9 0-2.11 1.88-3.17 5.65-3.17 2.26-.56 5.95-.84 11.08-.84zm7.65-3.923c1.52.49 2.28 1.156 2.28 2-.33 1.323-2.32 4.23-5.99 8.72h-1.43l-1.13-.892v-.672l4.28-6.922c.29-1.48.95-2.23 1.98-2.23zm16.25 3.984h.33c1.44.18 2.15.88 2.15 2.1v.42c0 2.11-.72 4.06-2.16 5.88h-.33c-.23-.06-.45-.41-.67-1.04l.84-3.14-.66-.42c-1.53.14-4.35 1.82-8.44 5.03v.21l10.91 2.11c1.1.88 1.65 2.34 1.65 4.41v1.25c0 2.83-1.82 5.27-5.46 7.35-1.43.56-2.81.84-4.14.84h-.35c-3.79 0-6.11-1.67-6.94-5.03v-1.27c0-1.54.39-2.31 1.16-2.31.76 2.67 2.14 4 4.14 4 0 .27.83.41 2.48.41 2.45 0 4.82-1.25 7.11-3.76 0-1.67-3.53-2.72-10.58-3.16-2.54-.71-3.81-1.76-3.81-3.14 0-3.41 3.41-6.83 10.25-10.28l2.48-.42zm32.56-.04h.15c1.38 0 2.31 1.36 2.78 4.07l-.33.42h-.16l-1.32-.42c-3.59.53-7.34 3.03-11.27 7.49-1.1 1.94-1.64 3.3-1.64 4.07v.86c0 2.28 2.34 3.71 7.03 4.27 2.93 0 5.16-1.57 6.68-4.7l-1.95-.84c-.73 0-2.75.86-6.05 2.57-.32-.73-.49-1.44-.49-2.14v-.22c0-2.27 2.17-3.83 6.53-4.7h.33c2.5 0 3.75 1.64 3.75 4.93 0 3.39-2.78 6.38-8.33 8.99l-1.96.43c-3.53 0-5.93-1.5-7.19-4.49l-.33-2.78c0-6.46 3.31-11.95 9.95-16.47 1.68-.86 2.93-1.28 3.77-1.28zm18.73 0c4.45.62 6.67 3.28 6.67 7.99 0 6.17-2.44 11.27-7.32 15.31-2.01 1.15-3.81 1.72-5.39 1.72-3.87 0-6.36-2.08-7.47-6.25l-.16-1.93v-.65c0-6.73 3.07-11.83 9.22-15.31 1.54-.57 3.02-.86 4.43-.86zm-11.59 16.83c1.6 2.44 3.72 3.66 6.36 3.66 4.24 0 7.2-2.51 8.89-7.54l.31-2.38c0-3.54-1.75-5.62-5.24-6.25h-.49c-2.89 0-5.9 2.88-9.05 8.63-.53 1.73-.8 3.03-.8 3.89zm42.19-16.78h.75c1.03 0 2.34 4.77 3.92 14.3 1.25 4.5 1.87 7.56 1.87 9.18-.26.85-.76 1.28-1.5 1.28-.96 0-1.65-2.28-2.07-6.83l-.19-.2h-.19c-1.63.02-5.05 1.02-10.28 2.99-.5 2.85-1.31 4.27-2.44 4.27-.75-.29-1.13-.86-1.13-1.7 0-1.64 3.43-9.19 10.29-22.62l.94-.64zm-.37 5.96c-1.5 2.71-2.88 5.56-4.13 8.55h1.31c1.27 0 2.89-.28 4.87-.86L684.58 87h-.375zm11.95-6.01c.95 0 2.08 1.78 3.4 5.35 2.56 5.25 5.41 9.74 8.54 13.47 1.05-10.28 1.83-16.34 2.34-18.17l.86-.64h.64c.43 0 .65.29.65.86-1.28 14.69-2.06 22.53-2.34 23.52l-1.28.42c-2.29 0-6.13-4.85-11.54-14.53l-.86-.86-.22.64-.64 9.84v1.28l.22 1.28c-.19 1.71-.76 2.56-1.71 2.56-.88-.31-1.38-.74-1.5-1.28 1.09-15.4 1.87-23.09 2.34-23.09l1.08-.64zm26.03 0h.95c4.53 0 7.31 1.8 8.33 5.39l.18 1.72c0 7.16-5.3 13.05-15.91 17.69l-.94.22h-.21c-.28 0-.53-.5-.75-1.51l1.89-18.54c-.76 0-1.14-.21-1.14-.64v-.44c0-2.29 1.01-3.43 3.03-3.43l4.54-.44zm-3.78 4.53c-1.14 7.38-1.71 12.34-1.71 14.88v1.08c7.95-3.97 11.93-7.71 11.93-11.22v-.2c0-2.02-.57-3.03-1.7-3.03-1.41-1-3.68-1.5-6.81-1.5h-1.71zm43.79-4.53h.63c.56.23.85.73.85 1.5 0 1.04-2.18 5.53-6.53 13.47-2.14 5.95-3.47 9.16-4 9.63l-2.1.42c-.92 0-1.55-1.64-1.91-4.92-2.8-9.88-4.2-15.94-4.2-18.17.23-.64.65-1.14 1.26-1.5h.84c.76 0 1.53 3 2.31 8.99l2.53 9.41h.2c1.45-3.85 4.61-9.98 9.46-18.39l.64-.42zm6.49-.06h1.47c.49 0 .74.29.74.86-1.15 9.36-1.72 15.85-1.72 19.47v2.38c-.32 1.58-1.14 2.38-2.44 2.38h-.49l-.99-.86c.66-9.81 1.47-17.59 2.45-23.36l.97-.85zm16.91.11h.33c1.44.18 2.16.88 2.16 2.1v.42c0 2.11-.72 4.06-2.16 5.88h-.33c-.23-.06-.46-.41-.68-1.04l.84-3.14-.66-.42c-1.53.14-4.35 1.82-8.44 5.03v.21l10.91 2.11c1.1.87 1.65 2.34 1.65 4.41v1.25c0 2.82-1.82 5.27-5.45 7.34-1.43.57-2.81.85-4.14.85h-.34c-3.79 0-6.1-1.67-6.94-5.03v-1.27c0-1.54.38-2.31 1.15-2.31.76 2.67 2.14 4 4.14 4 0 .27.83.41 2.48.41 2.44 0 4.81-1.25 7.11-3.76 0-1.66-3.53-2.71-10.58-3.15-2.54-.71-3.82-1.75-3.82-3.14 0-3.4 3.41-6.83 10.25-10.28l2.48-.42zm10.58-.11h1.47c.49 0 .73.29.73.86-1.15 9.36-1.72 15.85-1.72 19.47v2.38c-.32 1.58-1.14 2.38-2.44 2.38h-.49l-.99-.86c.65-9.81 1.47-17.59 2.45-23.36l.97-.85zm21.01.05c1.35 0 2.03.56 2.03 1.68v.42c0 1.55-1.21 2.33-3.63 2.33l-4.52.22c-1.36 7.22-2.03 13.42-2.03 18.62-.37 1.13-.74 1.69-1.13 1.69h-.69c-.78 0-1.23-.21-1.36-.64.76-7.99 1.59-14.48 2.49-19.47l-6.78 1.06c-.64 0-1.01-.63-1.13-1.9 0-2.11 1.88-3.17 5.66-3.17 2.26-.56 5.95-.84 11.07-.84zm32.01 0c1.35 0 2.03.56 2.03 1.68v.42c0 1.55-1.21 2.33-3.63 2.33l-4.52.22c-1.36 7.22-2.03 13.42-2.03 18.62-.37 1.13-.74 1.69-1.13 1.69h-.69c-.78 0-1.24-.21-1.36-.64.76-7.99 1.59-14.48 2.48-19.47l-6.78 1.06c-.64 0-1.02-.63-1.13-1.9 0-2.11 1.88-3.17 5.65-3.17 2.26-.56 5.95-.84 11.08-.84zm18.08.01c.74.2 1.11.7 1.11 1.51v.2c-1.04 15.39-1.78 23.08-2.22 23.08l-.24.22h-.66c-.77 0-1.3-.36-1.57-1.07.29-2.05.44-4.93.44-8.63h-.22l-9.34 2.16-.66.86v4.1c0 1.22-.45 2.09-1.35 2.6h-.44c-.84 0-1.36-.36-1.57-1.08 1.03-15.53 2.51-23.29 4.45-23.29h.43l.67.88c-1.04 5.16-1.56 8.97-1.56 11.43 6.82-.9 10.23-1.98 10.23-3.24l.89-9.06 1.56-.64zm19.22.04c.72.16 1.08.71 1.08 1.64-.23 1.77-.94 2.66-2.14 2.66-7.86 0-11.78 1.1-11.78 3.28l-.22 1.85v1.02c5.12-1.23 8.62-1.84 10.5-1.84h.42c.72.32 1.08 1 1.08 2.05 0 1.5-1 2.25-3 2.25-6.57.86-9.86 1.88-9.86 3.08l-.2 2.05v.82c0 1.23.78 1.91 2.34 2.05 2.45-.27 5.53-.89 9.21-1.85h.64c.57.22.86.7.86 1.44v.61c0 1.67-3.58 2.97-10.72 3.89h-.64c-2.58 0-4-1.64-4.29-4.91 0-2.41.5-6.98 1.5-13.72l-.43-1.23c0-2.77 4.28-4.41 12.85-4.91l2.78-.2zm-361.76 41.96c.95 0 2.08 1.78 3.41 5.35 2.56 5.25 5.41 9.74 8.54 13.47 1.05-10.28 1.83-16.34 2.34-18.17l.86-.64h.64c.43 0 .64.29.64.86-1.28 14.69-2.06 22.53-2.34 23.52l-1.28.42c-2.28 0-6.12-4.84-11.53-14.53l-.86-.86-.22.64-.64 9.85v1.28l.21 1.28c-.19 1.71-.76 2.57-1.71 2.57-.87-.31-1.37-.74-1.5-1.28 1.09-15.4 1.88-23.09 2.34-23.09l1.07-.64zm34.41.05c.72.16 1.08.71 1.08 1.65-.23 1.77-.95 2.66-2.15 2.66-7.85 0-11.78 1.09-11.78 3.28l-.22 1.84v1.02c5.13-1.23 8.63-1.85 10.5-1.85h.42c.72.32 1.08 1 1.08 2.05 0 1.5-1 2.25-3 2.25-6.57.86-9.86 1.88-9.86 3.08l-.2 2.05v.81c0 1.23.78 1.91 2.35 2.05 2.46-.27 5.53-.88 9.22-1.84h.64c.57.22.86.7.86 1.44v.61c0 1.68-3.58 2.97-10.72 3.89h-.64c-2.58 0-4-1.63-4.29-4.9 0-2.4.5-6.98 1.5-13.72l-.42-1.23c0-2.77 4.28-4.4 12.84-4.9l2.78-.2zm2.67 0c.69 0 1.04 2.42 1.04 7.25l1.4 9.19h.35c0-.53 1.4-3.38 4.2-8.54.44-3.4 1.25-5.11 2.45-5.11h.34c.71 0 1.29 2.63 1.75 7.89.78 3.6 1.37 5.73 1.75 6.41.38-1.81 2.25-7.15 5.61-16.01.49-.56.96-.84 1.41-.84.62 0 1.03.28 1.22.85 0 .73-1.75 5.5-5.25 14.3-.59 2.09-1.11 4.94-1.58 8.55-.38.71-.85 1.06-1.41 1.06-1.07 0-1.88-2.41-2.44-7.25-1.15-4.72-1.85-7.28-2.11-7.68l-3.5 6.83c-.58 1.33-1.11 3.61-1.58 6.83-.31.52-.78.88-1.39 1.06-.98 0-1.8-3.69-2.45-11.09-.94-5.23-1.41-9.43-1.41-12.59 0-.43.52-.78 1.57-1.07zm44.42 0c4.22 0 6.33 1.44 6.33 4.32v.64c0 2.01-.96 3.95-2.86 5.81v.22c3.13.95 4.7 2.53 4.7 4.73v.86c0 3.61-3.55 6.26-10.63 7.95l-3.48.44h-2.04c-1.1 0-1.64-.57-1.64-1.72v-.21l1.64-17.65c-.69 0-1.03-.14-1.03-.42v-1.3c0-2.44 3-3.66 9-3.66zm-5.94 9.69h.22c6.39 0 9.59-1.44 9.59-4.31-1.05-.71-2.82-1.06-5.31-1.06h-2.45c-1.09 0-1.63.5-1.63 1.5l-.43 3.87zm-.41 4.1l-.41 6.88 2.05.43.2-.22h1.01c5.73-.75 8.59-2.1 8.59-4.07-1.89-2.01-4.82-3.01-8.8-3.01h-.82l-.2-.21-.21.22h-1.44zm25.23-13.78h.75c1.03 0 2.34 4.77 3.92 14.3 1.25 4.5 1.87 7.56 1.87 9.17-.26.85-.76 1.28-1.5 1.28-.96 0-1.65-2.27-2.06-6.83l-.19-.2h-.19c-1.63.02-5.05 1.02-10.28 2.98-.5 2.84-1.32 4.27-2.44 4.27-.75-.29-1.13-.86-1.13-1.7 0-1.65 3.43-9.19 10.3-22.62l.93-.64zm-.38 5.97c-1.5 2.71-2.88 5.56-4.13 8.55h1.31c1.27 0 2.89-.29 4.87-.86l-1.69-7.69h-.37zm18.14-5.97c4.22 0 6.33 1.44 6.33 4.32v.64c0 2.01-.96 3.95-2.86 5.81v.22c3.13.95 4.7 2.53 4.7 4.73v.86c0 3.61-3.54 6.26-10.63 7.96l-3.49.44h-2.03c-1.09 0-1.64-.57-1.64-1.72v-.22l1.64-17.65c-.69 0-1.03-.14-1.03-.42v-1.3c0-2.44 3-3.66 9-3.66zm-5.94 9.69h.22c6.39 0 9.59-1.44 9.59-4.31-1.05-.7-2.82-1.06-5.31-1.06H639c-1.082 0-1.623.5-1.623 1.5l-.427 3.88zm-.41 4.09l-.41 6.88 2.04.44.2-.22h1.02c5.73-.75 8.59-2.11 8.59-4.07-1.89-2.01-4.82-3.02-8.8-3.02h-.82l-.2-.22-.21.22h-1.44zm17.5-13.78l4.78 7.25 2.09 1.72c2.64-4.7 4.49-7.55 5.53-8.54h.95l.76.86c-.1.76-3.09 6.1-8.97 16-1.48 2.78-2.56 5.27-3.25 7.47l-.56.22c-.9-.42-1.34-1.06-1.34-1.92.05-1.11 1.58-4.6 4.58-10.45-4.33-4.64-6.49-8.42-6.49-11.31.8-.85 1.44-1.28 1.91-1.28zm30.34.1l.62.86-.63 8.13 12.75-7.06c.55.69.83 1.54.83 2.56-1.44 2.02-5.13 4.59-11.08 7.7v.22c2.75 3.58 5.89 6.57 9.41 8.97v.44c0 1.99-.7 2.98-2.09 2.98l-10.44-8.54c-.42 5.7-.83 8.55-1.25 8.55l-1.05.22c-.7-.23-1.05-.65-1.05-1.28l.82-10.04-.2-2.56c.48 0 .89-3.14 1.25-9.42.57-1.14 1.27-1.71 2.09-1.71zm18.59-.2h1.47c.49 0 .73.29.73.86-1.14 9.35-1.72 15.84-1.72 19.47v2.37c-.33 1.58-1.14 2.38-2.44 2.38h-.49l-.99-.86c.65-9.81 1.47-17.6 2.45-23.36l.97-.86zm7.09.06c.94 0 2.08 1.78 3.4 5.34 2.56 5.25 5.41 9.74 8.54 13.47 1.05-10.28 1.83-16.34 2.34-18.17l.86-.64h.64c.42 0 .64.29.64.86-1.28 14.69-2.07 22.53-2.35 23.52l-1.28.42c-2.28 0-6.13-4.84-11.53-14.53l-.86-.86-.22.64-.64 9.85v1.28l.22 1.28c-.19 1.71-.76 2.56-1.71 2.56-.88-.31-1.38-.74-1.5-1.28 1.09-15.39 1.87-23.09 2.34-23.09l1.08-.64zm31.42 0h.15c1.38 0 2.31 1.35 2.78 4.06l-.33.42h-.15l-1.32-.42c-3.58.53-7.34 3.03-11.27 7.48-1.1 1.94-1.64 3.3-1.64 4.07v.86c0 2.28 2.34 3.71 7.03 4.27 2.94 0 5.17-1.57 6.69-4.7l-1.95-.84c-.73 0-2.75.86-6.05 2.57-.33-.73-.49-1.44-.49-2.14v-.22c0-2.27 2.17-3.84 6.53-4.7h.33c2.5 0 3.75 1.64 3.75 4.93 0 3.38-2.78 6.38-8.33 8.98l-1.95.42c-3.53 0-5.93-1.5-7.19-4.49l-.33-2.78c0-6.46 3.32-11.95 9.95-16.47 1.67-.86 2.93-1.29 3.76-1.29zm15.42-3.92c.62.29.94.64.94 1.04-2.97 9.56-4.45 15.62-4.45 18.17-.85.98-1.56 1.47-2.13 1.47-.94-.33-1.41-.75-1.41-1.25 1.48-12.96 3.43-19.44 5.87-19.44h1.17zm-5.55 23.45c1.48.28 2.22 1.05 2.22 2.31v.2c-.6 1.98-2.02 2.97-4.27 2.97-1.11 0-1.78-.77-2.01-2.31 0-1.78 1.35-2.84 4.06-3.17zm25.45-23.49h1.61c.53 0 .8.34.8 1-1.25 10.8-1.88 18.29-1.88 22.47v2.75c-.35 1.83-1.24 2.75-2.65 2.75h-.55l-1.06-1c.71-11.32 1.6-20.31 2.67-26.97l1.07-1zm9.94.02c1.52.49 2.28 1.16 2.28 2-.32 1.32-2.32 4.23-5.98 8.72h-1.44l-1.13-.89v-.67l4.28-6.92c.29-1.49.95-2.23 1.98-2.23zm6.22 3.94h.22c.68 0 1.24.35 1.7 1.05-.99 7.21-1.7 13.66-2.13 19.35l12.18-2.52.42.63v1.27c0 1.92-4.41 3.67-13.25 5.25-1.57-.28-2.36-.77-2.36-1.47 1.17-15.41 2.02-23.12 2.56-23.12l.64-.42zm16.14 0h.22c.68 0 1.24.35 1.7 1.05-.99 7.21-1.7 13.66-2.12 19.35l12.18-2.52.42.63v1.27c0 1.92-4.42 3.67-13.25 5.25-1.58-.28-2.36-.77-2.36-1.47 1.16-15.41 2.02-23.12 2.56-23.12l.64-.42zm39.94 0h.16c1.39 0 2.31 1.36 2.78 4.06l-.33.43h-.16l-1.31-.42c-3.58.53-7.34 3.03-11.27 7.49-1.09 1.94-1.64 3.3-1.64 4.07v.86c0 2.28 2.34 3.7 7.03 4.27 2.94 0 5.17-1.57 6.69-4.7l-1.96-.85c-.73 0-2.75.86-6.05 2.56-.32-.73-.48-1.44-.48-2.14v-.22c0-2.27 2.17-3.83 6.53-4.7h.32c2.5 0 3.75 1.64 3.75 4.92 0 3.39-2.77 6.38-8.33 8.99l-1.96.42c-3.53 0-5.93-1.49-7.19-4.48l-.32-2.79c0-6.46 3.31-11.95 9.95-16.47 1.68-.85 2.93-1.28 3.76-1.28zm21.78.05c.72.16 1.08.7 1.08 1.64-.23 1.77-.95 2.66-2.14 2.66-7.86 0-11.79 1.09-11.79 3.28l-.22 1.84v1.02c5.12-1.23 8.62-1.84 10.5-1.84h.42c.72.31 1.08.99 1.08 2.05 0 1.5-1 2.25-3 2.25-6.57.85-9.86 1.88-9.86 3.08l-.2 2.04v.81c0 1.23.78 1.91 2.34 2.05 2.46-.27 5.53-.89 9.22-1.85h.64c.57.22.86.7.86 1.44v.61c0 1.68-3.58 2.98-10.72 3.89h-.64c-2.58 0-4-1.63-4.29-4.9 0-2.4.5-6.98 1.5-13.72l-.42-1.23c0-2.77 4.28-4.4 12.84-4.9l2.78-.2zm18.44-.06c1.35 0 2.03.56 2.03 1.69v.43c0 1.56-1.21 2.33-3.62 2.33l-4.52.22c-1.36 7.22-2.04 13.43-2.04 18.63-.36 1.13-.74 1.69-1.12 1.69h-.69c-.78 0-1.24-.21-1.36-.64.76-7.99 1.59-14.48 2.48-19.47l-6.78 1.06c-.64 0-1.01-.63-1.13-1.9 0-2.11 1.89-3.17 5.66-3.17 2.26-.56 5.95-.84 11.08-.84zm-313.99 42c1.35 0 2.03.56 2.03 1.69v.43c0 1.56-1.21 2.33-3.63 2.33l-4.51.22c-1.36 7.22-2.03 13.43-2.03 18.63-.37 1.13-.74 1.69-1.13 1.69h-.69c-.78 0-1.23-.21-1.36-.64.76-7.99 1.59-14.48 2.49-19.47l-6.79 1.06c-.64 0-1.01-.63-1.13-1.9 0-2.11 1.88-3.17 5.66-3.17 2.26-.56 5.95-.84 11.07-.84zm18.08.01c.74.19 1.11.7 1.11 1.51v.21c-1.04 15.39-1.78 23.08-2.22 23.08l-.24.22h-.66c-.77 0-1.29-.36-1.56-1.08.29-2.05.44-4.93.44-8.63H590l-9.34 2.16-.66.86v4.09c0 1.22-.445 2.09-1.34 2.6h-.436c-.83 0-1.35-.36-1.56-1.08 1.032-15.53 2.52-23.29 4.454-23.29h.44l.67.88c-1.04 5.16-1.563 8.97-1.563 11.42 6.82-.89 10.234-1.97 10.234-3.23l.89-9.06 1.56-.64zm19.22.04c.72.16 1.08.71 1.08 1.64-.23 1.77-.95 2.66-2.14 2.66-7.86 0-11.79 1.1-11.79 3.28l-.22 1.85v1.02c5.13-1.23 8.63-1.84 10.5-1.84h.42c.72.32 1.07 1 1.07 2.05 0 1.5-1 2.25-3 2.25-6.57.86-9.86 1.88-9.86 3.08l-.21 2.05v.81c0 1.23.78 1.91 2.34 2.05 2.46-.27 5.53-.88 9.22-1.84h.64c.57.22.86.7.86 1.44v.61c0 1.67-3.57 2.97-10.72 3.89h-.64c-2.57 0-4-1.64-4.28-4.91 0-2.41.5-6.98 1.5-13.72l-.42-1.23c0-2.77 4.28-4.41 12.85-4.91l2.78-.2zm29.64 0h.92c1.16 0 1.85.94 2.08 2.8v.44c0 2.83-1.07 4.69-3.21 5.6l-.38-.44v-.22l.95-3.66-.75-.42c-3.12 0-6.82 2.95-11.11 8.83-1.02 1.78-1.53 3.14-1.53 4.08v.22c0 2.29 1.38 3.44 4.15 3.44h.17c2.67 0 5.62-.71 8.86-2.14h.58c.5.23.75.73.75 1.5v.86c-2.67 2.73-5.8 4.09-9.41 4.09-4.91-.51-7.36-2.95-7.36-7.31v-.44c0-5.57 3.95-11.02 11.86-16.36 1.5-.57 2.64-.86 3.41-.86zm12.64 0h.75c1.03 0 2.34 4.77 3.92 14.3 1.25 4.5 1.87 7.56 1.87 9.17-.26.86-.76 1.28-1.5 1.28-.96 0-1.65-2.27-2.07-6.82l-.19-.2h-.19c-1.63.02-5.05 1.02-10.28 2.99-.5 2.85-1.31 4.27-2.44 4.27-.75-.29-1.13-.86-1.13-1.7 0-1.65 3.43-9.19 10.3-22.62l.93-.64zm-.35 5.95c-1.5 2.71-2.88 5.56-4.13 8.55h1.31c1.27 0 2.89-.28 4.87-.86l-1.68-7.69h-.38zm18.23-6.01h.4c.67.37 1 .94 1 1.71v.44c0 4.63.41 10.05 1.22 16.25h.21c4.46-11.68 7.09-17.53 7.88-17.53h.61c.6 0 1.54 4.06 2.83 12.19 1.21 4.17 1.82 7.66 1.82 10.47-.39 1-1 1.5-1.81 1.5-.54 0-1.28-3.49-2.22-10.48l-1.62-6.83c-1.15 1.86-3.24 6.7-6.26 14.53-.86.89-1.6 1.39-2.22 1.5-1.75 0-2.62-2.35-2.62-7.06l-1-8.97h-.2l-6.06 13.68c-.36 2.28-.7 3.42-1.01 3.42h-.79l-.81-.84v-1.07c0-1.92 1.68-6.05 5.05-12.39 2.4-6.67 3.94-10.09 4.64-10.27l1.02-.22zm34.25.05c.72.16 1.08.71 1.08 1.65-.23 1.77-.95 2.66-2.14 2.66-7.86 0-11.78 1.1-11.78 3.28l-.22 1.85v1.02c5.12-1.23 8.62-1.84 10.5-1.84h.42c.72.32 1.08 1 1.08 2.05 0 1.5-1 2.25-3 2.25-6.58.86-9.86 1.88-9.86 3.08l-.21 2.05v.81c0 1.23.78 1.91 2.34 2.05 2.46-.27 5.53-.88 9.22-1.84h.64c.57.22.86.7.86 1.44v.61c0 1.68-3.58 2.97-10.72 3.89h-.64c-2.58 0-4-1.63-4.28-4.9 0-2.41.5-6.98 1.5-13.72l-.42-1.23c0-2.77 4.28-4.41 12.84-4.91l2.78-.2zm4.29-.04h.22c.68 0 1.25.35 1.71 1.05-.99 7.21-1.7 13.66-2.12 19.35l12.19-2.51.43.63v1.27c0 1.92-4.42 3.67-13.25 5.25-1.57-.28-2.36-.77-2.36-1.47 1.17-15.41 2.02-23.12 2.56-23.12l.64-.42zm26.18.05h.33c1.44.18 2.16.88 2.16 2.1v.42c0 2.11-.72 4.06-2.15 5.88h-.32c-.23-.06-.45-.41-.67-1.04l.85-3.14-.65-.42c-1.53.14-4.34 1.81-8.44 5.03v.2l10.91 2.11c1.11.88 1.66 2.34 1.66 4.41v1.25c0 2.83-1.82 5.27-5.45 7.35-1.43.57-2.81.85-4.14.85h-.34c-3.79 0-6.1-1.67-6.94-5.03v-1.26c0-1.54.39-2.31 1.16-2.31.76 2.67 2.14 4 4.14 4 0 .27.83.41 2.48.41 2.45 0 4.82-1.25 7.11-3.76 0-1.66-3.53-2.72-10.58-3.15-2.54-.71-3.81-1.75-3.81-3.14 0-3.41 3.42-6.83 10.25-10.28l2.48-.42zm30.47-.04h2.16c3.3 0 4.96 1.15 4.96 3.46v.22c0 4.03-3.44 7.7-10.34 11v.2c3.45 3.17 6.33 5.54 8.63 7.13v.64c0 1.12-.36 1.84-1.08 2.16h-.86l-11.84-8.4-.21 4.32v3.24c-.36.72-.94 1.08-1.72 1.08-.57 0-1-.28-1.29-.86v-1.29l1.94-16.83c-.57 0-.86-.43-.86-1.28 0-2.59 2.15-4.11 6.46-4.53l4.1-.22zm-7.53 11.64h.22c7.46-1.91 11.19-4 11.19-6.25v-.22c0-.39-.72-.68-2.15-.86-2.38 0-5.25.51-8.61 1.52l-.64 5.82zm31.35-11.59c.72.16 1.08.71 1.08 1.64-.23 1.77-.94 2.66-2.14 2.66-7.85 0-11.78 1.1-11.78 3.28l-.22 1.85v1.02c5.13-1.23 8.63-1.84 10.5-1.84h.43c.72.32 1.08 1 1.08 2.05 0 1.5-1 2.25-3 2.25-6.57.86-9.86 1.88-9.86 3.08l-.2 2.05v.81c0 1.23.78 1.91 2.35 2.05 2.46-.27 5.53-.88 9.22-1.84h.64c.57.22.86.7.86 1.44v.61c0 1.68-3.57 2.97-10.72 3.89h-.64c-2.57 0-4-1.63-4.28-4.9 0-2.41.5-6.98 1.5-13.72l-.42-1.23c0-2.77 4.28-4.4 12.85-4.9l2.78-.2zm10.74 0h.75c1.03 0 2.34 4.77 3.92 14.3 1.25 4.5 1.88 7.56 1.88 9.18-.26.86-.76 1.28-1.5 1.28-.96 0-1.64-2.27-2.06-6.82l-.18-.2h-.19c-1.62.02-5.05 1.02-10.28 2.99-.5 2.85-1.31 4.27-2.44 4.27-.75-.29-1.12-.86-1.12-1.7 0-1.65 3.44-9.19 10.3-22.63l.94-.64zm-.37 5.97c-1.5 2.71-2.87 5.56-4.12 8.55h1.31c1.28 0 2.9-.28 4.88-.86l-1.69-7.7h-.37zm16.85-6.02h.95c4.53 0 7.31 1.8 8.33 5.39l.19 1.72c0 7.16-5.3 13.05-15.9 17.69l-.94.22h-.21c-.28 0-.53-.5-.75-1.51l1.89-18.54c-.76 0-1.14-.21-1.14-.64v-.43c0-2.29 1.01-3.43 3.03-3.43l4.55-.44zm-3.78 4.53c-1.13 7.38-1.7 12.34-1.7 14.88v1.08c7.95-3.97 11.92-7.71 11.92-11.22v-.2c0-2.02-.56-3.03-1.7-3.03-1.4-1-3.67-1.5-6.81-1.5h-1.7zm15.16-4.48l4.78 7.25 2.1 1.72c2.65-4.71 4.49-7.56 5.53-8.55h.96l.77.86c-.1.76-3.09 6.1-8.97 16-1.48 2.78-2.56 5.27-3.25 7.47l-.56.22c-.9-.41-1.34-1.05-1.34-1.92.05-1.11 1.58-4.6 4.58-10.45-4.32-4.64-6.48-8.41-6.48-11.31.81-.85 1.44-1.28 1.91-1.28zm22.78-3.97c.63.29.94.64.94 1.05-2.97 9.56-4.45 15.62-4.45 18.17-.84.98-1.55 1.47-2.12 1.47-.94-.33-1.41-.75-1.41-1.25 1.48-12.96 3.44-19.44 5.88-19.44h1.18zm-5.54 23.46c1.48.28 2.22 1.05 2.22 2.31v.2c-.59 1.98-2.01 2.97-4.26 2.97-1.11 0-1.78-.77-2.01-2.31 0-1.78 1.35-2.84 4.06-3.17z" fill="#000"/></g></svg>