<svg width="1540" height="820" viewBox="0 0 1540 820" xmlns="http://www.w3.org/2000/svg"><title>story01</title><g fill="none" fill-rule="evenodd"><path fill="green" d="M1540 280H0v540h1540z"/><path d="M1540 0v738.94c-177.35-42.932-446.83-70.377-748.677-70.377C464.2 668.563 175.01 700.743 0 750V0h1540z" fill="navy"/><path fill="#FFE680" d="M181 275.324l-15.566-1.806-5.697 14.598-3.093-15.362-15.644-.906 13.654-7.69-3.97-15.158 11.53 10.61 13.19-8.462-6.527 14.247 12.123 9.93m36.824 231.873l-14.286-7.04-10.435 12.033 2.28-15.76-14.668-6.2 15.696-2.7 1.37-15.86 7.42 14.1 15.52-3.6-11.11 11.41 8.22 13.65m1234.06-355.87l-11.36-10.83-13.36 8.24 6.8-14.15-11.97-10.17 15.56 2.09 5.97-14.52 2.82 15.45 15.65 1.19-13.81 7.46m15.25 316.18l-5.87-14.54-15.56 1.99 12.02-10.08-6.7-14.18 13.3 8.32 11.42-10.76-3.8 15.22 13.76 7.54-15.65 1.09-2.91 15.41M1335 229.94l-15.698 2.777-1.298 15.885-7.492-14.073L1295 238.2l11.068-11.472-8.29-13.617 14.333 6.98L1322.5 208l-2.21 15.788 14.71 6.144M452.458 120.246L441.1 109.41l-13.363 8.238 6.795-14.15-11.963-10.164 15.55 2.09 5.97-14.52 2.82 15.443 15.65 1.19-13.82 7.455m659.36-18.446l-14.29-7.04-10.44 12.033 2.28-15.77-14.67-6.2 15.69-2.71 1.37-15.87 7.42 14.09 15.51-3.6-11.11 11.41 8.22 13.64m252.52 514.03l-9.64-13.07-15.09 6 9.45-13.2-10.36-12.49 15.47 4.91 8.68-13.72.11 16.23 15.74 4.02-15.41 5.12 1.04 16.2M111.19 99.14l-10.977-11.33-13.746 7.74 7.385-13.94-11.61-10.68 15.54 2.715 6.57-14.342 2.22 15.618 15.67 1.82-14.168 6.94 3.115 15.47M80.38 606.34l-9.02 13.357L82 631.807l-15.49-4.45-8.235 13.854-.555-16.1L42 621.56l15.147-5.507-1.48-16.05 9.916 12.705 14.805-6.367"/><path d="M214.082 735.75h1.23c1.706 0 3.86 6.92 6.465 20.762 2.058 6.536 3.086 10.976 3.086 13.32-.43 1.237-1.25 1.856-2.46 1.856-1.576 0-2.71-3.3-3.4-9.903l-.292-.312h-.31c-2.68.026-8.32 1.47-16.93 4.336-.8 4.12-2.14 6.19-4 6.19-1.23-.43-1.85-1.26-1.85-2.48 0-2.39 5.65-13.33 16.94-32.84l1.55-.94zm-.488 8.672c-2.474 3.932-4.733 8.066-6.778 12.402h2.15c2.095 0 4.764-.416 8.007-1.25l-2.774-11.152h-.61zm46.953-3.633h2.52c1.12.7 1.68 1.49 1.68 2.36-.3 2.09-1.23 3.14-2.794 3.14-4.492 0-8.874.43-13.144 1.31l-.55 5.78 1.38.25h1.11c3.3 0 7.13-.53 11.46-1.58l.84 1.58c-.42 3.15-1.72 4.72-3.91 4.72-1.36.69-5.18 1.21-11.47 1.56-.44 7.87-1.19 11.81-2.25 11.81l-1.11.25h-.28c-.47 0-.75-.36-.84-1.06 0-4.29.74-12.15 2.22-23.6l-.82-.8c0-2.65 1.86-4.21 5.59-4.71 3.74-.71 7.18-1.06 10.33-1.06zm10-.06c.833.34 1.295.69 1.387 1.05-1.485 9.28-2.227 16.03-2.227 20.23v2.89c4.974 0 9.05-2.28 12.227-6.84 1.25-11.04 2.454-16.56 3.613-16.56h.293c1.107.11 1.66.38 1.66.8-1.667 10.05-2.5 17.58-2.5 22.6v4.2c0 1.38-.56 2.34-1.68 2.89h-1.113l-1.094-1.06v-.53l.274-4.46c-.664 0-4.278 1.66-10.84 4.98l-1.953.52c-2.227-.29-3.34-1.25-3.34-2.89v-.26c1.354-18.4 2.93-27.6 4.726-27.6h.567zm22.05 0c1.186 0 2.605 2.22 4.258 6.68 3.204 6.56 6.765 12.17 10.684 16.83 1.31-12.85 2.29-20.43 2.93-22.72l1.07-.8h.8c.53 0 .8.36.8 1.07-1.6 18.36-2.58 28.15-2.93 29.39l-1.6.52c-2.85 0-7.66-6.06-14.42-18.16l-1.08-1.08-.28.8-.8 12.3v1.6l.27 1.6c-.24 2.14-.95 3.2-2.13 3.2-1.09-.39-1.72-.93-1.88-1.6 1.37-19.25 2.34-28.87 2.93-28.87l1.35-.8zm49.844-4.94h.96c4.2 0 6.29 1.87 6.29 5.62 0 2.46-2.58 5.58-7.73 9.35 1.38 2.9 3.8 5.92 7.25 9.06 1.12-.72 1.68-1.24 1.68-1.56-.75 0-1.31-.42-1.68-1.25 0-2.71.89-4.07 2.66-4.07l3.87-.31h1.92c1.14 0 1.7.52 1.7 1.56 0 2.08-1.29 3.64-3.86 4.69l-2.89 4.35 3.15 2.18c-.37 2.29-.86 3.43-1.46 3.43h-.23l-4.59-2.81c-5.06 3.96-9.16 5.94-12.3 5.94h-.98c-3.06-.63-4.59-2.61-4.59-5.94l-.23-1.88v-.94c0-3.69 1.94-7.74 5.8-12.17-1.94-3.53-2.91-6.44-2.91-8.73 1.12-4.37 3.86-6.56 8.23-6.56zm-4.35 7.81c.03 1.26.67 2.71 1.94 4.35l6.27-5.3v-.31l-.47-.63h-2.42c-3.54.15-5.31.78-5.31 1.87zm.73 10.6c-2.89 3.86-4.33 6.57-4.33 8.12v1.23c0 .97 1.21 1.6 3.62 1.87 1.96-.08 4.53-1.01 7.74-2.79-2.56-2.7-4.9-5.51-7.01-8.44zm58.01-13.42c.9.19 1.35.88 1.35 2.05-.28 2.21-1.17 3.32-2.67 3.32-9.81 0-14.72 1.36-14.72 4.1l-.27 2.3v1.27c6.41-1.54 10.78-2.31 13.13-2.31h.53c.9.39 1.35 1.24 1.35 2.56 0 1.87-1.25 2.81-3.75 2.81-8.21 1.07-12.32 2.35-12.32 3.85l-.25 2.56v1.01c0 1.53.98 2.39 2.93 2.56 3.08-.34 6.92-1.11 11.53-2.31h.8c.72.27 1.08.87 1.08 1.79v.76c0 2.09-4.47 3.71-13.4 4.86h-.8c-3.21 0-5-2.05-5.35-6.14 0-3.01.63-8.73 1.88-17.15l-.53-1.55c0-3.47 5.35-5.51 16.06-6.14l3.48-.25zm13.42 0h.94c1.29 0 2.92 5.95 4.9 17.87 1.57 5.62 2.35 9.44 2.35 11.46-.32 1.07-.95 1.6-1.87 1.6-1.19 0-2.05-2.85-2.57-8.54l-.23-.26h-.23c-2.03.02-6.31 1.27-12.85 3.73-.62 3.55-1.64 5.33-3.05 5.33-.94-.37-1.4-1.08-1.4-2.13 0-2.06 4.3-11.49 12.88-28.28l1.17-.8zm-.46 7.46c-1.87 3.38-3.59 6.94-5.16 10.68h1.64c1.59 0 3.62-.36 6.1-1.08l-2.11-9.61h-.47zm27.21-7.46h.41c1.8.22 2.7 1.09 2.7 2.61v.53c0 2.63-.9 5.08-2.69 7.34H437c-.287-.08-.567-.52-.84-1.31l1.055-3.93-.82-.53c-1.916.17-5.43 2.26-10.55 6.29v.25l13.634 2.63c1.38 1.09 2.07 2.93 2.07 5.51v1.56c0 3.53-2.28 6.59-6.82 9.18-1.78.7-3.51 1.05-5.18 1.05h-.43c-4.74 0-7.63-2.1-8.67-6.29v-1.58c0-1.93.48-2.89 1.44-2.89.95 3.33 2.67 5 5.17 5 0 .34 1.03.51 3.1.51 3.06 0 6.02-1.57 8.88-4.71 0-2.08-4.41-3.4-13.22-3.95-3.18-.89-4.77-2.2-4.77-3.93 0-4.26 4.27-8.54 12.81-12.85l3.1-.53zm9.34 0l5.98 9.06 2.62 2.14c3.31-5.89 5.62-9.45 6.92-10.69h1.19l.96 1.07c-.13.95-3.87 7.61-11.21 20-1.85 3.47-3.2 6.59-4.06 9.33l-.7.27c-1.12-.52-1.68-1.32-1.68-2.4.07-1.4 1.97-5.75 5.72-13.07-5.4-5.81-8.1-10.52-8.1-14.14 1-1.07 1.8-1.6 2.38-1.6zm53.83-.08c1.69 0 2.54.7 2.54 2.11v.53c0 1.94-1.51 2.91-4.53 2.91l-5.64.27c-1.69 9.02-2.54 16.78-2.54 23.28-.45 1.4-.92 2.11-1.4 2.11h-.86c-.97 0-1.54-.27-1.7-.81.95-9.99 1.99-18.1 3.11-24.34l-8.47 1.32c-.79 0-1.26-.8-1.4-2.39 0-2.64 2.35-3.96 7.07-3.96 2.82-.71 7.44-1.06 13.85-1.06zm18.81.02c5.56.77 8.34 4.09 8.34 9.98 0 7.71-3.05 14.09-9.14 19.14-2.51 1.43-4.76 2.14-6.74 2.14-4.83 0-7.94-2.61-9.33-7.82l-.19-2.42v-.82c0-8.41 3.84-14.79 11.53-19.14 1.93-.72 3.78-1.08 5.55-1.08zm-14.49 21.03c2.01 3.04 4.66 4.57 7.95 4.57 5.3 0 9.01-3.15 11.12-9.44l.39-2.97c0-4.43-2.18-7.03-6.54-7.81h-.6c-3.61 0-7.38 3.59-11.31 10.78-.66 2.16-.99 3.78-.99 4.86zm55.22-21.04h2.69c4.13 0 6.2 1.44 6.2 4.31v.27c0 5.04-4.31 9.62-12.93 13.75v.25c4.31 3.96 7.9 6.92 10.78 8.9v.8c0 1.39-.45 2.29-1.35 2.7H564l-14.804-10.5-.273 5.39v4.04c-.456.9-1.173 1.35-2.15 1.35-.715 0-1.256-.36-1.62-1.08v-1.62l2.42-21.04c-.715 0-1.073-.54-1.073-1.6 0-3.24 2.69-5.13 8.062-5.67l5.12-.28zm-9.41 14.55h.27c9.33-2.4 13.99-5 13.99-7.81v-.28c0-.5-.9-.86-2.69-1.08-2.98 0-6.57.63-10.76 1.89l-.8 7.26zm39.18-14.49c.9.19 1.35.88 1.35 2.05-.28 2.21-1.18 3.32-2.67 3.32-9.81 0-14.72 1.36-14.72 4.1l-.28 2.3v1.27c6.41-1.54 10.78-2.31 13.13-2.31h.53c.9.39 1.35 1.24 1.35 2.56 0 1.87-1.25 2.81-3.75 2.81-8.21 1.07-12.32 2.35-12.32 3.85l-.25 2.56v1.01c0 1.53.98 2.39 2.93 2.56 3.08-.34 6.92-1.11 11.53-2.31h.8c.72.27 1.07.87 1.07 1.8v.76c0 2.09-4.46 3.71-13.39 4.86h-.8c-3.21 0-5-2.05-5.35-6.14 0-3.01.63-8.73 1.88-17.15l-.53-1.55c0-3.47 5.36-5.51 16.06-6.13l3.48-.25zm13.42 0h.94c1.29 0 2.92 5.95 4.9 17.87 1.57 5.62 2.35 9.44 2.35 11.46-.32 1.07-.95 1.6-1.87 1.6-1.2 0-2.06-2.85-2.58-8.54l-.23-.26h-.24c-2.03.02-6.31 1.27-12.85 3.73-.62 3.55-1.64 5.33-3.05 5.33-.94-.37-1.4-1.08-1.4-2.13 0-2.06 4.29-11.49 12.87-28.28l1.17-.8zm-.47 7.46c-1.87 3.38-3.59 6.94-5.15 10.68h1.64c1.59 0 3.62-.36 6.09-1.08l-2.1-9.61h-.47zm21.08-7.52h1.19c5.67 0 9.14 2.24 10.41 6.74l.23 2.14c0 8.94-6.62 16.31-19.88 22.11l-1.17.27H614c-.35 0-.662-.63-.935-1.9l2.36-23.18c-.95 0-1.428-.27-1.428-.8v-.55c0-2.87 1.262-4.3 3.79-4.3l5.682-.55zm-4.73 5.66c-1.42 9.22-2.13 15.41-2.13 18.59v1.34c9.94-4.96 14.91-9.64 14.91-14.03v-.26c0-2.53-.71-3.79-2.13-3.79-1.75-1.25-4.59-1.88-8.51-1.88h-2.13zm54.75-5.67h.78c.7.29 1.06.91 1.06 1.87 0 1.3-2.72 6.91-8.16 16.84-2.67 7.43-4.33 11.44-5 12.03l-2.62.52c-1.14 0-1.94-2.05-2.38-6.16-3.5-12.36-5.25-19.93-5.25-22.71.29-.81.81-1.44 1.58-1.88h1.06c.96 0 1.92 3.74 2.9 11.23l3.17 11.75h.25c1.83-4.82 5.77-12.48 11.84-22.99l.8-.53zm22.71.06c.9.19 1.35.88 1.35 2.05-.28 2.21-1.18 3.32-2.67 3.32-9.81 0-14.72 1.37-14.72 4.1l-.27 2.3v1.27c6.41-1.54 10.79-2.31 13.13-2.31h.53c.9.39 1.35 1.24 1.35 2.56 0 1.87-1.25 2.81-3.75 2.81-8.21 1.07-12.32 2.35-12.32 3.85l-.25 2.56v1.01c0 1.54.98 2.39 2.93 2.56 3.08-.34 6.92-1.11 11.53-2.31h.8c.718.28 1.07.88 1.07 1.8v.77c0 2.09-4.46 3.71-13.39 4.86h-.8c-3.22 0-5-2.05-5.35-6.14 0-3.01.62-8.72 1.87-17.15l-.53-1.55c0-3.46 5.35-5.5 16.055-6.13l3.475-.25zm15.9-.06h2.7c4.13 0 6.19 1.44 6.19 4.32v.27c0 5.04-4.31 9.62-12.93 13.75v.25c4.31 3.96 7.91 6.93 10.78 8.91v.8c0 1.39-.45 2.29-1.35 2.7h-1.07l-14.81-10.51-.27 5.39v4.04c-.45.9-1.17 1.35-2.14 1.35-.71 0-1.25-.36-1.62-1.08v-1.62l2.42-21.03c-.71 0-1.07-.53-1.07-1.6 0-3.24 2.69-5.13 8.07-5.67l5.12-.28zm-9.41 14.55h.27c9.32-2.4 13.99-5 13.99-7.81v-.28c0-.49-.9-.85-2.69-1.07-2.98 0-6.57.63-10.76 1.89l-.8 7.27zm34.85-14.49h.41c1.8.22 2.7 1.09 2.7 2.62v.53c0 2.63-.9 5.08-2.69 7.34h-.41c-.29-.08-.57-.51-.84-1.31l1.05-3.93-.82-.53c-1.91.17-5.43 2.26-10.54 6.29v.25l13.6 2.65c1.38 1.09 2.07 2.93 2.07 5.5v1.56c0 3.52-2.27 6.58-6.81 9.18-1.78.7-3.51 1.05-5.17 1.05h-.43c-4.74 0-7.63-2.1-8.67-6.29v-1.58c0-1.93.48-2.9 1.446-2.9.95 3.33 2.68 5 5.18 5 0 .34 1.04.51 3.11.51 3.06 0 6.02-1.57 8.89-4.71 0-2.09-4.4-3.4-13.22-3.95-3.17-.89-4.76-2.2-4.76-3.93 0-4.26 4.27-8.54 12.81-12.85l3.11-.53zm13.22-.14h1.84c.62 0 .92.35.92 1.07-1.43 11.69-2.15 19.8-2.15 24.33V769c-.4 1.98-1.42 2.97-3.04 2.97h-.6l-1.23-1.07c.82-12.267 1.84-22 3.07-29.2l1.21-1.075zm21.66.07c5.56.77 8.34 4.09 8.34 9.98 0 7.71-3.04 14.09-9.14 19.14-2.51 1.43-4.76 2.15-6.74 2.15-4.83 0-7.94-2.61-9.33-7.81l-.2-2.42v-.82c0-8.41 3.84-14.79 11.52-19.14 1.93-.72 3.78-1.08 5.55-1.08zm-14.49 21.04c2.01 3.05 4.66 4.57 7.95 4.57 5.3 0 9-3.15 11.11-9.43l.39-2.97c0-4.43-2.18-7.03-6.54-7.82h-.6c-3.6 0-7.37 3.59-11.31 10.78-.66 2.16-.99 3.78-.99 4.86zm28.36-21.04c1.19 0 2.61 2.22 4.26 6.68 3.2 6.56 6.76 12.17 10.68 16.83 1.32-12.85 2.3-20.42 2.93-22.72l1.08-.8h.8c.54 0 .8.36.8 1.07-1.6 18.36-2.58 28.15-2.93 29.39l-1.6.53c-2.85 0-7.65-6.06-14.41-18.17l-1.08-1.08-.27.8-.8 12.31v1.6l.28 1.6c-.23 2.13-.94 3.2-2.13 3.2-1.09-.39-1.71-.93-1.87-1.6 1.37-19.25 2.35-28.87 2.93-28.87l1.35-.8zm55.8 0c5.56.77 8.34 4.09 8.34 9.98 0 7.71-3.05 14.09-9.14 19.14-2.51 1.43-4.76 2.14-6.74 2.14-4.83 0-7.94-2.61-9.33-7.81l-.19-2.42v-.82c0-8.41 3.84-14.79 11.52-19.14 1.93-.72 3.78-1.08 5.55-1.08zm-14.5 21.03c2.01 3.05 4.66 4.57 7.95 4.57 5.3 0 9.01-3.14 11.12-9.43l.39-2.97c0-4.43-2.18-7.03-6.54-7.82h-.6c-3.61 0-7.38 3.59-11.31 10.78-.67 2.16-1 3.78-1 4.86zm41.4-20.97h2.52c1.12.7 1.68 1.49 1.68 2.36-.3 2.09-1.23 3.14-2.79 3.14-4.49 0-8.87.44-13.14 1.31l-.54 5.78 1.39.26h1.12c3.31 0 7.13-.53 11.47-1.58l.84 1.58c-.41 3.15-1.72 4.73-3.9 4.73-1.35.69-5.17 1.21-11.46 1.56-.44 7.87-1.19 11.81-2.25 11.81l-1.11.26h-.27c-.47 0-.75-.35-.84-1.05 0-4.29.74-12.15 2.23-23.6l-.82-.8c0-2.65 1.86-4.22 5.59-4.71 3.73-.71 7.18-1.06 10.33-1.06zm44.61-5c1.93 0 2.89.82 2.89 2.46v.61c0 2.25-1.72 3.38-5.15 3.38l-6.43.31c-1.93 10.47-2.89 19.46-2.89 26.99-.52 1.64-1.06 2.46-1.61 2.46h-.97c-1.11 0-1.75-.31-1.93-.92 1.08-11.59 2.26-21.01 3.54-28.24l-9.65 1.54c-.9 0-1.43-.92-1.6-2.75 0-3.07 2.68-4.61 8.05-4.61 3.22-.82 8.47-1.23 15.77-1.23zm22.13 4.94c.93.25 1.39.88 1.39 1.9v.25c-1.3 19.23-2.23 28.85-2.77 28.85l-.29.27h-.82c-.96 0-1.61-.45-1.95-1.35.37-2.57.55-6.16.55-10.78h-.27l-11.68 2.69-.82 1.07v5.12c0 1.52-.56 2.6-1.68 3.24h-.54c-1.04 0-1.69-.45-1.95-1.35 1.29-19.42 3.15-29.12 5.57-29.12h.54l.84 1.09c-1.3 6.44-1.95 11.2-1.95 14.28 8.53-1.12 12.79-2.47 12.79-4.05l1.11-11.33 1.95-.8zm24.02.06c.9.19 1.35.88 1.35 2.05-.28 2.21-1.18 3.32-2.67 3.32-9.81 0-14.72 1.37-14.72 4.1l-.27 2.3v1.27c6.4-1.54 10.78-2.31 13.12-2.31h.53c.9.39 1.35 1.24 1.35 2.56 0 1.87-1.25 2.81-3.75 2.81-8.22 1.07-12.33 2.35-12.33 3.85l-.25 2.56v1.01c0 1.53.98 2.39 2.93 2.56 3.07-.34 6.92-1.11 11.52-2.31h.8c.72.27 1.08.87 1.08 1.8v.76c0 2.09-4.46 3.72-13.4 4.86h-.8c-3.21 0-5-2.05-5.35-6.13 0-3.01.63-8.72 1.88-17.15l-.53-1.55c0-3.46 5.35-5.51 16.05-6.13l3.48-.26zm42.09-5h1.49c1.83 0 2.93 1.35 3.28 4.06v.62c0 4.1-1.69 6.81-5.06 8.11l-.61-.63v-.31l1.5-5.3-1.19-.63c-4.91 0-10.76 4.26-17.57 12.79-1.59 2.59-2.38 4.57-2.38 5.94v.31c0 3.32 2.18 4.98 6.55 4.98h.32c4.21 0 8.87-1.04 13.99-3.11h.9c.8.33 1.2 1.05 1.2 2.17V766c-4.21 3.96-9.17 5.94-14.88 5.94-7.74-.73-11.62-4.265-11.62-10.606v-.625c0-8.08 6.26-16 18.77-23.73 2.38-.83 4.17-1.25 5.35-1.25zm25.63 4.94c.93.25 1.39.88 1.39 1.9v.25c-1.3 19.23-2.23 28.85-2.77 28.85l-.29.27h-.82c-.96 0-1.61-.45-1.95-1.35.36-2.57.55-6.16.55-10.78h-.28l-11.68 2.69-.82 1.07v5.12c0 1.52-.56 2.6-1.68 3.24h-.54c-1.04 0-1.7-.45-1.96-1.35 1.29-19.42 3.15-29.12 5.57-29.12h.55l.84 1.09c-1.3 6.44-1.95 11.2-1.95 14.28 8.53-1.12 12.79-2.47 12.79-4.05l1.12-11.33 1.95-.8zm17.68 0h2.7c4.13 0 6.19 1.44 6.19 4.32v.28c0 5.04-4.31 9.62-12.93 13.75v.25c4.31 3.96 7.91 6.93 10.78 8.9v.8c0 1.39-.45 2.29-1.34 2.69h-1.07l-14.81-10.51-.27 5.39v4.04c-.46.9-1.17 1.35-2.15 1.35-.72 0-1.26-.36-1.62-1.08v-1.62l2.42-21.04c-.72 0-1.07-.54-1.07-1.6 0-3.24 2.69-5.13 8.07-5.67l5.12-.27zm-9.41 14.55h.27c9.32-2.39 13.98-5 13.98-7.81v-.27c0-.5-.9-.86-2.7-1.08-2.98 0-6.57.63-10.76 1.89l-.8 7.26zm24.57-14.63h1.83c.61 0 .92.36.92 1.07-1.43 11.69-2.15 19.81-2.15 24.34V769c-.4 1.98-1.42 2.97-3.05 2.97h-.6l-1.23-1.072c.82-12.266 1.85-22 3.07-29.2l1.21-1.074zm21.13.13h.41c1.79.22 2.69 1.09 2.69 2.61v.53c0 2.63-.9 5.07-2.7 7.34h-.41c-.29-.08-.57-.52-.84-1.31l1.06-3.93-.82-.53c-1.92.17-5.43 2.26-10.55 6.29v.25l13.63 2.63c1.38 1.09 2.07 2.93 2.07 5.51v1.56c0 3.53-2.27 6.59-6.82 9.18-1.79.7-3.51 1.05-5.18 1.05h-.43c-4.74 0-7.63-2.1-8.67-6.29v-1.58c0-1.93.48-2.89 1.45-2.89.95 3.33 2.67 5 5.17 5 0 .34 1.04.51 3.11.51 3.06 0 6.03-1.57 8.89-4.71 0-2.09-4.4-3.4-13.22-3.95-3.17-.89-4.76-2.2-4.76-3.93 0-4.26 4.27-8.54 12.82-12.85l3.1-.53zm28.63-.08c1.69 0 2.54.7 2.54 2.11v.52c0 1.94-1.51 2.91-4.54 2.91l-5.64.27c-1.69 9.02-2.54 16.78-2.54 23.28-.45 1.4-.92 2.11-1.4 2.11h-.86c-.97 0-1.54-.27-1.7-.81.95-9.98 1.99-18.09 3.11-24.33l-8.48 1.33c-.79 0-1.26-.79-1.4-2.38 0-2.64 2.36-3.96 7.07-3.96 2.83-.7 7.44-1.05 13.85-1.05zm13.86.02h.51c.83.45 1.25 1.16 1.25 2.13v.54c0 5.78.51 12.55 1.52 20.31h.26c5.58-14.61 8.86-21.91 9.85-21.91h.76c.74 0 1.92 5.08 3.54 15.23 1.51 5.2 2.26 9.57 2.26 13.08-.49 1.25-1.25 1.87-2.26 1.87-.67 0-1.6-4.37-2.77-13.11l-2.03-8.54c-1.45 2.31-4.06 8.37-7.84 18.16-1.08 1.11-2 1.73-2.77 1.87-2.18 0-3.28-2.94-3.28-8.83l-1.25-11.21h-.25l-7.58 17.09c-.45 2.85-.88 4.27-1.27 4.27h-.99l-1.01-1.054v-1.34c0-2.397 2.11-7.56 6.31-15.49 3-8.33 4.93-12.61 5.8-12.83l1.27-.27zm33.99.06h.94c1.29 0 2.92 5.95 4.9 17.87 1.56 5.62 2.34 9.44 2.34 11.46-.33 1.07-.95 1.6-1.88 1.6-1.2 0-2.06-2.85-2.58-8.54l-.23-.25h-.23c-2.03.02-6.31 1.27-12.85 3.73-.63 3.55-1.64 5.33-3.05 5.33-.94-.37-1.4-1.08-1.4-2.13 0-2.06 4.29-11.49 12.87-28.28l1.18-.8zm-.47 7.46c-1.88 3.38-3.59 6.94-5.16 10.68h1.64c1.59 0 3.62-.36 6.09-1.08l-2.11-9.61h-.47zm27.21-7.46h.41c1.79.22 2.69 1.09 2.69 2.61v.53c0 2.63-.9 5.07-2.7 7.34h-.41c-.28-.08-.56-.52-.84-1.31l1.06-3.93-.82-.53c-1.91.17-5.43 2.26-10.55 6.29v.25l13.64 2.63c1.38 1.09 2.07 2.93 2.07 5.51v1.56c0 3.53-2.27 6.59-6.82 9.18-1.78.7-3.51 1.05-5.18 1.05h-.43c-4.74 0-7.63-2.1-8.67-6.29v-1.58c0-1.93.49-2.89 1.45-2.89.95 3.33 2.68 5 5.18 5 0 .34 1.03.51 3.1.51 3.06 0 6.02-1.57 8.89-4.71 0-2.09-4.41-3.4-13.22-3.95-3.18-.89-4.77-2.2-4.77-3.93 0-4.26 4.27-8.54 12.81-12.85l3.11-.53zm44.49-5h.53c2.26.24 3.39 1.26 3.39 3.04v.6c0 3.05-1.13 5.89-3.4 8.52h-.53c-.35-.09-.7-.6-1.04-1.52l1.31-4.55-1.05-.63c-2.41.2-6.86 2.63-13.36 7.3v.31l17.28 3.05c1.75 1.26 2.62 3.39 2.62 6.39v1.82c0 4.09-2.87 7.64-8.63 10.66-2.26.81-4.44 1.21-6.54 1.21h-.52c-6.02 0-9.68-2.43-11-7.3v-1.82c0-2.24.61-3.36 1.83-3.36 1.2 3.85 3.38 5.78 6.54 5.78 0 .4 1.31.6 3.93.6 3.88 0 7.63-1.82 11.25-5.47 0-2.41-5.59-3.93-16.76-4.57-4.01-1.03-6.01-2.54-6.01-4.55 0-4.95 5.41-9.92 16.23-14.92l3.928-.61zm29.65 4.92c1.69 0 2.54.7 2.54 2.11v.52c0 1.94-1.51 2.91-4.53 2.91l-5.65.27c-1.69 9.02-2.54 16.78-2.54 23.28-.46 1.4-.92 2.11-1.41 2.11h-.86c-.97 0-1.54-.27-1.7-.81.95-9.98 1.99-18.09 3.11-24.33l-8.48 1.33c-.79 0-1.26-.79-1.4-2.38 0-2.64 2.36-3.96 7.07-3.96 2.83-.7 7.44-1.05 13.85-1.05zm18.81.02c5.56.77 8.34 4.09 8.34 9.98 0 7.71-3.05 14.09-9.14 19.14-2.52 1.43-4.76 2.15-6.74 2.15-4.83 0-7.95-2.61-9.34-7.82l-.2-2.42v-.82c0-8.41 3.84-14.79 11.52-19.14 1.93-.72 3.78-1.08 5.55-1.08zm-14.5 21.03c2.01 3.04 4.66 4.57 7.95 4.57 5.3 0 9-3.15 11.11-9.44l.39-2.97c0-4.42-2.18-7.03-6.54-7.81h-.6c-3.6 0-7.37 3.6-11.31 10.78-.66 2.16-.99 3.79-.99 4.87zm38.61-21.04h2.69c4.13 0 6.19 1.44 6.19 4.32v.27c0 5.04-4.3 9.63-12.92 13.75v.26c4.31 3.96 7.9 6.93 10.78 8.91v.8c0 1.4-.45 2.3-1.35 2.7h-1.08l-14.8-10.51-.28 5.39v4.05c-.45.9-1.17 1.34-2.14 1.34-.72 0-1.26-.36-1.62-1.07v-1.62l2.42-21.04c-.71 0-1.07-.54-1.07-1.6 0-3.24 2.69-5.13 8.07-5.67l5.12-.28zm-9.42 14.55h.28c9.32-2.39 13.99-5 13.99-7.81v-.27c0-.49-.9-.85-2.7-1.07-2.98 0-6.57.63-10.76 1.89l-.8 7.26zm20.67-14.47l5.98 9.06 2.62 2.14c3.31-5.88 5.62-9.44 6.92-10.68h1.19l.96 1.08c-.13.95-3.87 7.62-11.21 20-1.85 3.47-3.2 6.59-4.06 9.33l-.7.27c-1.12-.52-1.68-1.32-1.68-2.4.07-1.39 1.97-5.75 5.72-13.07-5.4-5.8-8.1-10.52-8.1-14.14 1-1.06 1.8-1.6 2.38-1.6zm28.48-4.96c.78.36 1.18.8 1.18 1.31-3.71 11.95-5.57 19.52-5.57 22.71-1.05 1.22-1.94 1.84-2.66 1.84-1.17-.42-1.76-.94-1.76-1.56 1.85-16.2 4.3-24.3 7.35-24.3h1.46zm-6.93 29.32c1.85.35 2.78 1.31 2.78 2.89v.25c-.74 2.47-2.52 3.71-5.33 3.71-1.39 0-2.23-.97-2.52-2.89 0-2.23 1.69-3.55 5.08-3.97zM295.29 569.82c3.47 0 5.205 1.477 5.205 4.43v1.09c0 4.055-3.1 6.082-9.28 6.082l-11.57.562c-3.47 18.844-5.2 35.04-5.2 48.586-.94 2.953-1.9 4.43-2.89 4.43h-1.75c-1.99 0-3.15-.55-3.48-1.652 1.94-20.86 4.07-37.805 6.36-50.836l-17.36 2.777c-1.617 0-2.58-1.66-2.882-4.96 0-5.53 4.83-8.3 14.488-8.3 5.79-1.48 15.24-2.22 28.37-2.22zm39.83 8.895c1.667.445 2.5 1.582 2.5 3.41v.457c-2.344 34.617-4.01 51.926-4.993 51.926l-.52.492h-1.47c-1.733 0-2.905-.81-3.514-2.426.65-4.617.98-11.086.98-19.406h-.497l-21.02 4.852-1.475 1.933v9.21c0 2.743-1.01 4.69-3.02 5.837h-.98c-1.87 0-3.04-.81-3.51-2.426 2.32-34.945 5.66-52.418 10.02-52.418h.99l1.51 1.97c-2.34 11.6-3.51 20.167-3.51 25.698 15.36-2.015 23.03-4.44 23.03-7.277l2.01-20.39 3.51-1.442zm43.24.105c1.61.352 2.42 1.582 2.42 3.692-.51 3.984-2.12 5.976-4.812 5.976-17.673 0-26.51 2.46-26.51 7.383l-.49 4.15v2.29c11.53-2.76 19.405-4.15 23.624-4.15h.95c1.615.71 2.424 2.24 2.424 4.61 0 3.38-2.25 5.06-6.75 5.06-14.79 1.92-22.18 4.23-22.18 6.93l-.45 4.61v1.83c0 2.77 1.76 4.3 5.274 4.61 5.53-.61 12.44-1.99 20.74-4.15h1.44c1.29.5 1.93 1.57 1.93 3.24v1.37c0 3.78-8.04 6.69-24.12 8.76h-1.44c-5.79 0-9-3.68-9.633-11.04 0-5.41 1.124-15.7 3.374-30.86l-.95-2.77c0-6.23 9.63-9.91 28.9-11.04l6.26-.46zm67.71-9h5.167c2.28 1.453 3.41 3.094 3.41 4.922-.63 4.383-2.53 6.574-5.69 6.574-9.183 0-18.13.914-26.82 2.743l-1.16 12.05 2.846.53h2.28c6.75 0 14.55-1.09 23.41-3.27l1.72 3.27c-.87 6.58-3.54 9.88-8.02 9.88-2.74 1.45-10.533 2.54-23.38 3.27-.91 16.43-2.435 24.64-4.57 24.64l-2.283.56h-.56c-.96 0-1.54-.73-1.73-2.18 0-8.96 1.526-25.4 4.57-49.33l-1.72-1.62c0-5.53 3.81-8.83 11.427-9.88 7.64-1.46 14.67-2.18 21.09-2.18zm19.9 8.754h3.3c1.1 0 1.65.645 1.65 1.934-2.573 21.047-3.862 35.648-3.862 43.804v5.344C466.33 633.22 464.5 635 461.57 635h-1.09l-2.213-1.934c1.476-22.078 3.316-39.597 5.52-52.558l2.18-1.934zm34.41.14h4.85c7.43 0 11.15 2.59 11.15 7.77v.493c0 9.07-7.76 17.32-23.272 24.75v.457c7.757 7.125 14.226 12.468 19.406 16.03v1.442c0 2.508-.81 4.125-2.43 4.852h-1.935l-26.65-18.914-.49 9.703v7.277c-.82 1.617-2.11 2.426-3.87 2.426-1.29 0-2.26-.645-2.92-1.934v-2.918l4.36-37.863c-1.29 0-1.94-.96-1.94-2.883 0-5.836 4.84-9.234 14.52-10.195l9.21-.492zm-16.94 26.192h.493c16.78-4.312 25.17-9 25.17-14.062v-.492c0-.89-1.62-1.536-4.85-1.934-5.37 0-11.83 1.137-19.37 3.41l-1.45 13.078zm62.72-26.086h.737c3.24.4 4.86 1.97 4.86 4.71v.95c0 4.735-1.62 9.14-4.852 13.22h-.73c-.51-.14-1.02-.927-1.51-2.356l1.9-7.067-1.474-.95c-3.44.306-9.77 4.08-18.98 11.32v.458l24.54 4.747c2.48 1.968 3.73 5.273 3.73 9.914v2.812c0 6.352-4.09 11.86-12.27 16.524-3.21 1.265-6.31 1.898-9.31 1.898h-.8c-8.53 0-13.73-3.773-15.61-11.32v-2.848c0-3.47.87-5.203 2.6-5.203 1.71 6 4.82 9 9.32 9 0 .6 1.87.91 5.59.91 5.51 0 10.84-2.83 16-8.48 0-3.75-7.93-6.12-23.8-7.1-5.72-1.6-8.58-3.95-8.58-7.07 0-7.67 7.69-15.38 23.06-23.13l5.59-.95zm51.54-.14c3.045 0 4.57 1.265 4.57 3.797v.95c0 3.49-2.72 5.237-8.16 5.237l-10.16.492c-3.046 16.243-4.57 30.21-4.57 41.907-.82 2.53-1.663 3.796-2.53 3.796h-1.55c-1.755 0-2.775-.48-3.06-1.45 1.715-17.98 3.578-32.58 5.59-43.81l-15.25 2.4c-1.43 0-2.273-1.43-2.53-4.29 0-4.76 4.24-7.14 12.725-7.14 5.086-1.27 13.395-1.9 24.926-1.9zm76.43-8.86h2.67c3.304 0 5.273 2.438 5.906 7.313v1.125c0 7.383-3.03 12.246-9.1 14.59l-1.09-1.125v-.563l2.707-9.527-2.15-1.125c-8.84 0-19.39 7.676-31.64 23.027-2.86 4.664-4.29 8.227-4.29 10.688v.562c0 5.977 3.92 8.965 11.78 8.965h.56c7.57 0 15.96-1.863 25.17-5.59h1.61c1.43.586 2.147 1.887 2.147 3.903v2.25c-7.57 7.125-16.5 10.687-26.79 10.687-13.94-1.313-20.92-7.676-20.92-19.09v-1.125c0-14.555 11.27-28.793 33.79-42.715 4.29-1.5 7.5-2.25 9.636-2.25zm46.123 8.895c1.66.445 2.49 1.582 2.49 3.41v.457c-2.347 34.617-4.01 51.926-4.995 51.926l-.53.492h-1.48c-1.74 0-2.91-.81-3.52-2.426.655-4.617.983-11.086.983-19.406h-.49l-21.02 4.852-1.47 1.933v9.21c0 2.743-1 4.69-3.02 5.837h-.98c-1.87 0-3.04-.81-3.51-2.426 2.32-34.945 5.66-52.418 10.02-52.418h.99l1.52 1.97c-2.34 11.6-3.51 20.167-3.51 25.698 15.35-2.015 23.03-4.44 23.03-7.277l2.01-20.39 3.52-1.442zm31.81 0h4.85c7.43 0 11.143 2.59 11.143 7.77v.492c0 9.07-7.76 17.32-23.275 24.75v.457c7.76 7.125 14.23 12.468 19.41 16.03v1.442c0 2.508-.81 4.125-2.43 4.852h-1.93l-26.65-18.914-.49 9.703v7.277c-.82 1.617-2.11 2.426-3.87 2.426-1.29 0-2.26-.645-2.92-1.934v-2.918l4.36-37.863c-1.29 0-1.93-.96-1.93-2.883 0-5.836 4.84-9.234 14.52-10.195l9.21-.492zm-16.95 26.19h.495c16.78-4.31 25.17-9 25.17-14.06v-.493c0-.89-1.62-1.536-4.86-1.934-5.37 0-11.827 1.137-19.37 3.41l-1.44 13.078zm44.23-26.33h3.305c1.1 0 1.65.644 1.65 1.933-2.58 21.047-3.87 35.648-3.87 43.804v5.344c-.73 3.563-2.56 5.344-5.49 5.344h-1.09l-2.217-1.934c1.48-22.078 3.32-39.597 5.52-52.558l2.18-1.934zm38.04.245h.738c3.23.4 4.85 1.97 4.85 4.71v.95c0 4.735-1.62 9.14-4.85 13.22h-.74c-.51-.14-1.02-.927-1.51-2.356l1.9-7.067-1.47-.95c-3.44.306-9.77 4.08-18.98 11.32v.458l24.54 4.747c2.48 1.968 3.73 5.273 3.73 9.914v2.812c0 6.352-4.09 11.86-12.27 16.524C810.11 634.367 807 635 804 635h-.77c-8.53 0-13.737-3.773-15.61-11.32v-2.848c0-3.47.865-5.203 2.6-5.203 1.71 6 4.82 9 9.32 9 0 .6 1.86.91 5.59.91 5.51 0 10.84-2.83 15.99-8.48 0-3.75-7.934-6.12-23.8-7.1-5.72-1.6-8.58-3.95-8.58-7.07 0-7.67 7.69-15.38 23.063-23.13l5.59-.95zm51.54-.14c3.046 0 4.57 1.265 4.57 3.797v.95c0 3.49-2.72 5.237-8.16 5.237l-10.16.492c-3.043 16.243-4.57 30.21-4.57 41.907-.82 2.53-1.66 3.796-2.53 3.796h-1.544c-1.76 0-2.78-.48-3.06-1.45 1.71-17.98 3.57-32.58 5.59-43.81l-15.25 2.4c-1.43 0-2.28-1.43-2.54-4.29 0-4.76 4.24-7.14 12.72-7.14 5.08-1.27 13.39-1.9 24.92-1.9zm24.96.035h.914c1.5.82 2.25 2.097 2.25 3.832v.984c0 10.41.91 22.6 2.74 36.57h.456c10.03-26.29 15.94-39.44 17.72-39.44h1.37c1.336 0 3.46 9.14 6.363 27.42 2.72 9.38 4.08 17.23 4.08 23.56-.89 2.25-2.25 3.38-4.08 3.38-1.22 0-2.88-7.86-4.99-23.59l-3.652-15.36c-2.604 4.17-7.303 15.07-14.1 32.7-1.945 1.99-3.61 3.12-4.99 3.38-3.94 0-5.91-5.29-5.91-15.89l-2.25-20.18h-.456l-13.64 30.76c-.82 5.13-1.585 7.7-2.288 7.7h-1.79l-1.83-1.9v-2.43c0-4.31 3.785-13.6 11.355-27.88 5.39-15 8.87-22.7 10.44-23.1l2.29-.49zm61.17.105h1.69c2.32 0 5.26 10.723 8.822 32.168 2.815 10.125 4.22 17.004 4.22 20.637-.585 1.922-1.71 2.883-3.374 2.883-2.15 0-3.7-5.12-4.64-15.363l-.42-.457h-.42c-3.65.046-11.37 2.285-23.13 6.714-1.12 6.4-2.95 9.598-5.48 9.598-1.69-.656-2.53-1.934-2.53-3.832 0-3.703 7.72-20.672 23.17-50.906l2.11-1.442zm-.842 13.43c-3.38 6.094-6.47 12.504-9.28 19.23h2.96c2.86 0 6.52-.644 10.97-1.933l-3.8-17.297h-.84zm48.97-13.43h.74c3.23.4 4.85 1.97 4.85 4.71v.95c0 4.735-1.62 9.14-4.85 13.22h-.74c-.51-.14-1.02-.927-1.51-2.356l1.9-7.067-1.47-.95c-3.44.306-9.77 4.08-18.98 11.32v.458l24.54 4.747c2.48 1.968 3.73 5.273 3.73 9.914v2.812c0 6.352-4.09 11.86-12.27 16.524-3.21 1.265-6.31 1.898-9.31 1.898h-.77c-8.53 0-13.73-3.773-15.61-11.32v-2.848c0-3.47.87-5.203 2.6-5.203 1.71 6 4.82 9 9.32 9 0 .6 1.86.91 5.59.91 5.51 0 10.84-2.83 15.99-8.48 0-3.75-7.93-6.12-23.8-7.1-5.72-1.6-8.58-3.95-8.58-7.07 0-7.67 7.69-15.38 23.07-23.13l5.59-.95zm80.09-9h.95c4.08.446 6.12 2.274 6.12 5.485v1.09c0 5.484-2.04 10.593-6.12 15.328h-.95c-.63-.164-1.25-1.078-1.86-2.743l2.36-8.19-1.9-1.126c-4.33.352-12.35 4.734-24.04 13.15v.56l31.11 5.485c3.14 2.27 4.71 6.1 4.71 11.49v3.27c0 7.36-5.17 13.76-15.53 19.19-4.08 1.45-8 2.18-11.78 2.18h-.95c-10.83 0-17.42-4.39-19.79-13.15v-3.27c0-4.03 1.1-6.05 3.31-6.05 2.16 6.94 6.09 10.4 11.78 10.4 0 .73 2.36 1.09 7.07 1.09 6.99 0 13.74-3.28 20.25-9.84 0-4.34-10.05-7.08-30.16-8.23-7.22-1.85-10.82-4.58-10.82-8.19 0-8.91 9.74-17.86 29.22-26.86l7.07-1.09zm53.37 8.86c3.05 0 4.57 1.265 4.57 3.797v.95c0 3.49-2.72 5.237-8.15 5.237l-10.16.492c-3.04 16.243-4.57 30.21-4.57 41.907-.82 2.53-1.66 3.796-2.53 3.796h-1.54c-1.75 0-2.77-.48-3.06-1.45 1.72-17.98 3.58-32.58 5.59-43.81l-15.25 2.4c-1.43 0-2.27-1.43-2.53-4.29 0-4.76 4.24-7.14 12.73-7.14 5.09-1.27 13.4-1.9 24.93-1.9zm33.86.035c10 1.383 15.01 7.37 15.01 17.965 0 13.875-5.49 25.36-16.46 34.453-4.52 2.578-8.56 3.867-12.13 3.867-8.69 0-14.29-4.687-16.8-14.063l-.35-4.36v-1.475c0-15.14 6.91-26.625 20.74-34.454 3.47-1.29 6.8-1.933 9.99-1.933zm-26.09 37.863c3.61 5.485 8.38 8.227 14.31 8.227 9.54 0 16.2-5.66 20-16.98l.71-5.345c0-7.968-3.92-12.656-11.78-14.062h-1.09c-6.49 0-13.27 6.47-20.35 19.406-1.19 3.89-1.79 6.81-1.79 8.754zm69.5-37.863h4.86c7.43 0 11.14 2.59 11.14 7.77v.492c0 9.07-7.76 17.32-23.27 24.75v.457c7.76 7.125 14.23 12.468 19.41 16.03v1.442c0 2.508-.81 4.125-2.43 4.852h-1.93l-26.65-18.914-.49 9.703v7.277c-.82 1.617-2.11 2.426-3.87 2.426-1.29 0-2.26-.645-2.91-1.934v-2.918l4.36-37.863c-1.29 0-1.93-.96-1.93-2.883 0-5.836 4.84-9.234 14.52-10.195l9.21-.492zm-16.94 26.19h.49c16.78-4.31 25.17-9 25.17-14.06v-.493c0-.89-1.61-1.536-4.85-1.934-5.36 0-11.82 1.137-19.37 3.41l-1.44 13.078zm37.23-26.085l10.76 16.313 4.71 3.867c5.95-10.594 10.1-17.004 12.45-19.23h2.15l1.72 1.933c-.23 1.71-6.96 13.71-20.18 36-3.33 6.258-5.76 11.86-7.31 16.805l-1.27.492c-2.01-.938-3.02-2.38-3.02-4.324.12-2.508 3.55-10.348 10.3-23.52-9.72-10.453-14.59-18.937-14.59-25.453 1.81-1.922 3.24-2.883 4.29-2.883zm51.26-8.93c1.41.657 2.11 1.442 2.11 2.356-6.68 21.516-10.02 35.145-10.02 40.887-1.9 2.203-3.49 3.304-4.78 3.304-2.11-.75-3.16-1.687-3.16-2.812 3.33-29.156 7.74-43.734 13.22-43.734h2.64zm-12.48 52.77c3.33.633 4.99 2.367 4.99 5.203v.457c-1.33 4.453-4.53 6.68-9.6 6.68-2.51 0-4.02-1.734-4.53-5.203 0-4.008 3.05-6.387 9.14-7.137z" fill="#FFF"/><path d="M716.075 298.775L577 243.925l139.075-54.85L770.925 50l54.85 139.075 139.075 54.85-139.075 54.85-54.85 236.223" fill="#FC0"/></g></svg>