<svg width="1540" height="820" viewBox="0 0 1540 820" xmlns="http://www.w3.org/2000/svg" xmlns:xlink="http://www.w3.org/1999/xlink"><title>story28</title><defs><path id="a" d="M0 0h1540v820H0z"/><mask id="b" x="0" y="0" width="1540" height="820" fill="#fff"><use xlink:href="#a"/></mask><path id="d" d="M40 40h954v160H40z"/><filter x="-50%" y="-50%" width="200%" height="200%" filterUnits="objectBoundingBox" id="c"><feOffset dx="6" dy="6" in="SourceAlpha" result="shadowOffsetOuter1"/><feColorMatrix values="0 0 0 0 0 0 0 0 0 0 0 0 0 0 0 0 0 0 1 0" in="shadowOffsetOuter1"/></filter></defs><g fill="none" fill-rule="evenodd"><use stroke="#000" mask="url(#b)" stroke-width="8" fill="#D4AA00" xlink:href="#a"/><path stroke="#000" stroke-width="4" fill="#A80" d="M235 132h1066v556H235z"/><path d="M4 2l229.457 129.306c0 .384.523.694 1.174.694h1065.19c.65 0 1.18-.31 1.18-.694L1538 2H4z" stroke="#000" stroke-width="4" stroke-linejoin="bevel" fill="#D4AA00"/><path d="M4 818l229.457-129.306c0-.384.523-.694 1.174-.694h1065.19c.65 0 1.18.31 1.18.694L1538 818H4z" stroke="#000" stroke-width="4" stroke-linejoin="bevel" fill="purple"/><path stroke="#000" stroke-width="4" fill="#00002B" d="M814 190h380v265H814z"/><path fill="#FFE680" d="M903.89 257.34l-11.36-10.833-13.362 8.236 6.795-14.15L874 230.428l15.558 2.088 5.97-14.518 2.82 15.442L914 234.63l-13.815 7.455M963 317.325l-15.566-1.807-5.697 14.598-3.093-15.362-15.644-.906 13.654-7.69-3.97-15.158 11.53 10.61 13.19-8.462-6.527 14.247 12.123 9.93m188.11 37.22l-14.287-7.04-10.435 12.034 2.28-15.77-14.668-6.2 15.696-2.71 1.37-15.87 7.42 14.09 15.514-3.6-11.11 11.41 8.22 13.64m-274.405 72.8l-7.184-14.17-15.52 3.36 11.25-11.21-7.98-13.72 14.14 7.23L881.99 387l-2.51 15.68 14.53 6.41-15.69 2.457-1.607 15.796"/><path stroke="#000" stroke-width="4" fill="#00002B" d="M340 190h380v265H340z"/><path fill="#FFE680" d="M416.89 253.34l-11.36-10.833-13.362 8.236 6.795-14.15L387 226.428l15.558 2.088 5.97-14.518 2.82 15.442L427 230.63l-13.815 7.455M634 382.325l-15.566-1.807-5.697 14.598-3.093-15.362-15.644-.906 13.654-7.69-3.97-15.158 11.53 10.61 13.19-8.462-6.527 14.247 12.123 9.93m37.11-112.78l-14.287-7.04-10.435 12.034 2.28-15.77-14.668-6.2 15.696-2.71 1.37-15.87 7.42 14.09 15.514-3.6-11.11 11.41 8.22 13.64m-134.405 66.8l-7.184-14.17-15.52 3.36 11.25-11.21-7.98-13.72 14.14 7.23L541.99 296l-2.51 15.68 14.53 6.41-15.69 2.457-1.607 15.796m-92.595 89.203l-14.286-7.04-10.435 12.03 2.28-15.77-14.672-6.2 15.698-2.703L424.07 390l7.42 14.09 15.514-3.6-11.11 11.413 8.22 13.644"/><path fill="#FC0" d="M1053.18 298.82L1008 281l45.18-17.82L1071 218l17.82 45.18L1134 281l-45.18 17.82-17.82 76.74"/><path stroke="#000" stroke-width="3.97" fill="#D4AA00" d="M235 132h75v556h-75z"/><path d="M252.63 673V148.865m20 524.135V148.865m20 524.135V148.865" stroke="#000" stroke-width="4"/><path stroke="#000" stroke-width="3.97" fill="#D4AA00" d="M1301 132h-75v556h75z"/><path d="M1283.417 673V148.865m-20 524.135V148.865m-20 524.135V148.865" stroke="#000" stroke-width="4"/><g stroke="#000"><path stroke-width="4" fill="#D4AA00" d="M946.74 446.638h151.023v148.94H946.74z"/><path stroke-width="4" fill="#00F" d="M1022.503 458.534l32.45 32.45-32.45 32.45-32.45-32.45z"/><path stroke-width="4" fill="#D4AA00" d="M1087.086 405.483h27.083v302.083h-27.09zm-158.584 0h27.083v302.083h-27.083z"/><path d="M1109.083 599.695c0 12.427-39.44 22.5-88.095 22.5-23.364 0-45.77-2.37-62.293-6.59-16.52-4.22-25.802-9.942-25.802-15.91 0-5.967 9.28-11.69 25.802-15.91 16.522-4.22 38.93-6.59 62.293-6.59 48.654 0 88.095 10.074 88.095 22.5z" stroke-width="4.148" fill="#D40000"/><path stroke-width="4" fill="#D4AA00" d="M1097.35 538.442h27.193V707.94h-27.192zm-179.222 0h27.192V707.94h-27.192zm41.38-142.596c0 4.736-1.88 9.278-5.23 12.627-3.35 3.35-7.89 5.23-12.627 5.23-9.86 0-17.85-7.995-17.85-17.857 0-4.736 1.88-9.278 5.23-12.627 3.35-3.35 7.89-5.23 12.63-5.23 4.74 0 9.28 1.88 12.63 5.23 3.35 3.34 5.23 7.89 5.23 12.62zm160 0c0 4.736-1.88 9.278-5.23 12.627-3.35 3.35-7.89 5.23-12.627 5.23-9.86 0-17.85-7.995-17.85-17.857 0-4.736 1.88-9.278 5.23-12.627 3.35-3.35 7.89-5.23 12.63-5.23 4.74 0 9.28 1.88 12.63 5.23 3.35 3.34 5.23 7.89 5.23 12.62z"/><path d="M1129.217 542.105c0 4.736-1.88 9.278-5.23 12.627-3.35 3.35-7.89 5.23-12.627 5.23-9.862 0-17.857-7.995-17.857-17.857 0-4.736 1.88-9.278 5.23-12.627 3.35-3.35 7.89-5.23 12.627-5.23 4.736 0 9.278 1.88 12.627 5.23 3.35 3.35 5.23 7.89 5.23 12.627zm-180 0c0 4.736-1.88 9.278-5.23 12.627-3.35 3.35-7.89 5.23-12.627 5.23-9.862 0-17.857-7.995-17.857-17.857 0-4.736 1.88-9.278 5.23-12.627 3.35-3.35 7.89-5.23 12.627-5.23 4.736 0 9.278 1.88 12.627 5.23 3.35 3.35 5.23 7.89 5.23 12.627z" stroke-width="4" fill="#D4AA00"/><path stroke-width="4" fill="#00F" d="M941.516 441.178l-7.07-7.07 7.07-7.072 7.07 7.07zm0 36.002l-7.07-7.07 7.07-7.07 7.07 7.07zm0 38.004l-7.072-7.07 7.072-7.072 7.07 7.07zm159.01-74.006l-7.07-7.07 7.07-7.072 7.07 7.07zm0 36.002l-7.07-7.07 7.07-7.07 7.07 7.07zm0 38.004l-7.07-7.07 7.07-7.072 7.07 7.07z"/><path d="M925.13 578.13c-1.32-2.956.007-6.422 2.962-7.74 1.42-.635 3.033-.68 4.484-.123 1.452.555 2.624 1.665 3.257 3.084.634 1.42.678 3.04.122 4.49-.555 1.45-1.665 2.63-3.084 3.26-2.95 1.32-6.42 0-7.74-2.96zm0 26c-1.32-2.956.007-6.422 2.962-7.74 1.42-.635 3.033-.68 4.484-.123 1.452.555 2.624 1.665 3.257 3.084.634 1.42.678 3.04.122 4.49-.555 1.45-1.665 2.63-3.084 3.26-2.95 1.32-6.42 0-7.74-2.96zm0 26c-1.32-2.956.007-6.422 2.962-7.74 1.42-.635 3.033-.68 4.484-.123 1.452.555 2.624 1.665 3.257 3.084.634 1.42.678 3.04.122 4.49-.555 1.45-1.665 2.63-3.084 3.26-2.95 1.32-6.42 0-7.74-2.96zm0 28c-1.32-2.956.007-6.422 2.962-7.74 1.42-.635 3.033-.68 4.484-.123 1.452.555 2.624 1.665 3.257 3.084.634 1.42.678 3.04.122 4.49-.555 1.45-1.665 2.63-3.084 3.26-2.95 1.32-6.42 0-7.74-2.96zm0 28c-1.32-2.956.007-6.422 2.962-7.74 1.42-.635 3.033-.68 4.484-.123 1.452.555 2.624 1.665 3.257 3.084.634 1.42.678 3.04.122 4.49-.555 1.45-1.665 2.63-3.084 3.26-2.95 1.32-6.42 0-7.74-2.96zm180-107c-1.32-2.956.007-6.422 2.962-7.74 1.42-.635 3.033-.68 4.484-.123 1.452.555 2.624 1.665 3.257 3.084.634 1.42.678 3.04.122 4.49-.555 1.45-1.665 2.63-3.084 3.26-2.95 1.32-6.42 0-7.74-2.96zm0 26c-1.32-2.956.007-6.422 2.962-7.74 1.42-.635 3.033-.68 4.484-.123 1.452.555 2.624 1.665 3.257 3.084.634 1.42.678 3.04.122 4.49-.555 1.45-1.665 2.63-3.084 3.26-2.95 1.32-6.42 0-7.74-2.96zm0 26c-1.32-2.956.007-6.422 2.962-7.74 1.42-.635 3.033-.68 4.484-.123 1.452.555 2.624 1.665 3.257 3.084.634 1.42.678 3.04.122 4.49-.555 1.45-1.665 2.63-3.084 3.26-2.95 1.32-6.42 0-7.74-2.96zm0 28c-1.32-2.956.007-6.422 2.962-7.74 1.42-.635 3.033-.68 4.484-.123 1.452.555 2.624 1.665 3.257 3.084.634 1.42.678 3.04.122 4.49-.555 1.45-1.665 2.63-3.084 3.26-2.95 1.32-6.42 0-7.74-2.96zm0 28c-1.32-2.956.007-6.422 2.962-7.74 1.42-.635 3.033-.68 4.484-.123 1.452.555 2.624 1.665 3.257 3.084.634 1.42.678 3.04.122 4.49-.555 1.45-1.665 2.63-3.084 3.26-2.95 1.32-6.42 0-7.74-2.96zm-130-221c-1.32-2.956.007-6.422 2.962-7.74 1.42-.635 3.033-.68 4.484-.123 1.452.555 2.624 1.665 3.257 3.084.634 1.42.678 3.04.122 4.49-.555 1.45-1.665 2.63-3.084 3.26-2.95 1.32-6.42 0-7.74-2.96zm82 0c-1.32-2.956.007-6.422 2.962-7.74 1.42-.635 3.033-.68 4.484-.123 1.452.555 2.624 1.665 3.257 3.084.634 1.42.678 3.04.122 4.49-.555 1.45-1.665 2.63-3.084 3.26-2.95 1.32-6.42 0-7.74-2.96zm-82 52c-1.32-2.956.007-6.422 2.962-7.74 1.42-.635 3.033-.68 4.484-.123 1.452.555 2.624 1.665 3.257 3.084.634 1.42.678 3.04.122 4.49-.555 1.45-1.665 2.63-3.084 3.26-2.95 1.32-6.42 0-7.74-2.96zm82 0c-1.32-2.956.007-6.422 2.962-7.74 1.42-.635 3.033-.68 4.484-.123 1.452.555 2.624 1.665 3.257 3.084.634 1.42.678 3.04.122 4.49-.555 1.45-1.665 2.63-3.084 3.26-2.95 1.32-6.42 0-7.74-2.96z" stroke-width="3" fill="green"/></g><g transform="translate(28 313)"><path d="M297.4 251.52c8.255-2.02 17.255 4.88 24.372 19.447 6.74 13.793 16.712 24.218 4.025 32.045-7.07 4.362-23.59-.75-21.852-11.16-1.27 5.708-1.046 16.97-4.836 16.917-5.55-.08-11.69-5.59-8.55-16.65.77-2.7.52-5.36 1.29-7.51-.25-.67-.5-1.34-.67-2.03-3.9-15.73-2.05-29.05 6.21-31.07zM36.95 272.045c-6.32 29.472 8.273 38.883 37.144 24.104 31.23-15.99 46.618-12.67 41.907-23.06-5.26-11.6-19.45-28.59-41.9-23.06-13.26 3.27-23.21 13.89-37.14 22z" stroke="#050202" stroke-width="4.008" fill="#DEAA87"/><path stroke="#000" stroke-width="4.008" stroke-linecap="round" stroke-linejoin="bevel" fill="#E3E2DB" d="M2.996 251.473l51.328-22.916 39.036 87.436-51.328 22.916z"/><rect stroke="#000" stroke-width="4.008" fill="#E3E2DB" transform="rotate(-24.058 1107.167 0)" x="3.599" y="221.077" width="41.285" height="19.365" rx="6.138"/><path d="M46.23 295.897c-2 4.478.032 9.74 4.54 11.752 2.164.96 4.62 1.03 6.83.2 2.21-.84 3.99-2.52 4.95-4.67s1.022-4.6.17-6.8c-.85-2.21-2.545-3.99-4.71-4.95-4.507-2.02-9.782-.02-11.78 4.46zm-15.92-34.892c-2 4.478.033 9.74 4.54 11.752 2.164.967 4.622 1.04 6.83.202 2.21-.84 3.99-2.52 4.95-4.67.962-2.15 1.023-4.6.17-6.8-.85-2.21-2.545-3.99-4.71-4.95-4.506-2.02-9.78-.02-11.78 4.46z" stroke="#000" stroke-width="3.006" fill="green"/><path d="M57.63 258.968c0 4.106 6.032 7.436 13.47 7.436 7.44 0 13.47-3.33 13.47-7.436 0-4.107-6.03-7.437-13.47-7.437-7.438 0-13.47 3.33-13.47 7.44z" stroke="#050202" stroke-width="4.008" fill="#DEAA87"/><path d="M140.146 152.26c-16.122 32.878-37.41 60.624-60.334 86.742-3.165 33.078 6.36 40.935 12.837 54.85 24.1-6.32 33.89-9.798 41.07-12.756l6.42-128.835z" stroke="#050202" stroke-width="4.008" fill="#0A0"/><path d="M82.135 258.166l39.844-26.135-.01 17.1-37.3 22.81c-1.48-4.28-2.3-8.88-2.54-13.77z" fill="green"/><path d="M141.877 106.316c0 18.872 6.68 36.97 18.57 50.315 11.893 13.35 28.02 20.85 44.838 20.85 35.02 0 63.408-31.86 63.408-71.15 0-39.3-28.39-71.15-63.408-71.15-16.817 0-32.945 7.5-44.837 20.84-11.89 13.35-18.57 31.45-18.57 50.32z" stroke="#000" stroke-width="4.008" fill="#502D16"/><path d="M269.73 144.042l-6.42 25.512 32.093 109.7 35.944-17.857c-14.297-53.076-33.65-94.846-61.617-117.355z" stroke="#050202" stroke-width="4.008" fill="#0A0"/><path d="M206.828 468.043c0 4.737 3.45 9.28 9.588 12.628 6.14 3.35 14.465 5.24 23.147 5.24 8.68 0 17.007-1.88 23.146-5.23 6.13-3.35 9.58-7.89 9.58-12.63 0-9.86-14.66-17.85-32.74-17.85-18.08 0-32.74 8-32.74 17.86zm-77.662 2.552c0 4.736 3.448 9.278 9.587 12.627 6.14 3.35 14.465 5.23 23.147 5.23 8.68 0 17.007-1.88 23.146-5.23 6.14-3.35 9.588-7.89 9.588-12.627 0-9.863-14.656-17.86-32.734-17.86-18.08 0-32.734 7.997-32.734 17.86z" stroke="#050202" stroke-width="4.008" fill="#2B1100"/><path d="M121.62 284.18c-5.312 57.705-13.832 155.544-1.102 167.46 40.53 17.86 135.082 24.403 166.504-10.626 15.363-30.406 2.52-103.844 6.154-154.127 7.353-101.737-2.75-180.562-91.678-181.75-75.67-1.01-84.81 77.644-79.878 179.044z" stroke="#050202" stroke-width="4.008" fill="#0A0"/><path d="M158.678 88.14c0 15.19 4.973 29.76 13.825 40.5 8.852 10.74 20.858 16.776 33.376 16.776 12.51 0 24.52-6.035 33.37-16.776 8.85-10.74 13.82-25.31 13.82-40.5 0-15.19-4.98-29.76-13.83-40.5-8.85-10.742-20.86-16.776-33.38-16.776-12.52 0-24.53 6.034-33.38 16.775-8.85 10.74-13.83 25.31-13.83 40.5z" stroke="#050202" stroke-width="3.908" fill="#DEAA87"/><path d="M215.97 75.947c0 2.366 1.93 4.284 4.31 4.284 2.383 0 4.313-1.91 4.313-4.28 0-1.13-.454-2.22-1.263-3.03-.808-.8-1.905-1.25-3.05-1.25-1.142 0-2.24.45-3.047 1.26-.81.81-1.263 1.9-1.263 3.03zm-29.963.49c0 2.367 1.93 4.285 4.312 4.285 2.38 0 4.31-1.918 4.31-4.284 0-1.137-.46-2.226-1.27-3.03-.81-.803-1.91-1.255-3.05-1.255s-2.24.452-3.05 1.255c-.81.804-1.27 1.893-1.27 3.03z" fill="#000"/><path d="M222.35 122.755h-32.977l-6.93 341.755c12.944 1.288 32.296 2.33 42.218.46l-2.31-342.215z" stroke="#000" stroke-width="4.008" fill="#0055D4"/><path d="M205.454 162.108c19.04-.05 37.062-43.186 37.062-43.186 20.018-38.054-91.073-33.08-72.738 2.066 0 0 17.464 41.17 35.676 41.12z" stroke="#000" stroke-width="4.008" fill="#502D16"/><path d="M228.717 109.124c-5.976 5.79-43.623 2.11-46.877-.65-3.255-2.758 14.828 22.454 24.174 22.4 9.345-.056 28.68-27.54 22.703-21.75z" stroke="#000" stroke-width="4.008" fill="#DEAA87"/><path d="M264.997 132.598c-3.245-3.61-6.27-7.245-11.897-10.56l-1.04 335.586c4.274-1 8.663-2.564 12.937-4.476v-320.55zm-119.45.69c3.244-3.61 6.384-9.083 12.01-12.396l.693 338.913c-4.273-1-8.893-1.187-13.166-3.1l.462-323.418zm152.16 104.926c-.137-10.39-.868-20.78-1.403-31.172l25.405 56.294c-2.78 1.198-7.07 3.858-12.01 5.813l-12-30.94z" fill="green"/><path stroke="#000" stroke-width="4.731" stroke-linejoin="bevel" fill="#FC0" d="M247.04 58.444l-41.145.183-41.146-.1-13.1-17.698-12.51-17.79 33.05-11.12 33.42-10.89 33.52 10.82 33.16 11.05-12.34 17.81z"/><path d="M215.853 37.362c0 2.8-1.12 5.486-3.112 7.466-1.99 1.98-4.69 3.093-7.51 3.093-5.87 0-10.62-4.72-10.62-10.55s4.76-10.56 10.63-10.56c2.82 0 5.52 1.12 7.52 3.1s3.12 4.67 3.12 7.47zm33.04-5.052c0 2.8-1.12 5.487-3.112 7.467-1.99 1.98-4.69 3.092-7.51 3.092-5.87 0-10.62-4.73-10.62-10.56s4.76-10.56 10.63-10.56c2.82 0 5.52 1.11 7.52 3.09 2 1.98 3.12 4.66 3.12 7.46zm-66.08 0c0 2.8-1.12 5.487-3.113 7.467-1.992 1.98-4.695 3.092-7.513 3.092-5.87 0-10.626-4.73-10.626-10.56s4.76-10.56 10.63-10.56c2.82 0 5.52 1.11 7.52 3.09 2 1.98 3.12 4.66 3.12 7.46z" stroke="#000" stroke-width="4.008" fill="#0A0"/></g><path d="M875.453 580.535c6.32 29.472-8.273 38.883-37.144 24.104-31.23-15.99-46.62-12.67-41.91-23.06 5.26-11.6 19.45-28.59 41.9-23.05 13.26 3.27 23.21 13.89 37.14 22z" stroke="#050202" stroke-width="4.008" fill="#502D16"/><path d="M882.066 544.815c-1.064 2.982-3.436 5.36-6.596 6.61-3.16 1.248-6.846 1.268-10.25.054-3.405-1.22-6.248-3.57-7.903-6.54-1.655-2.97-1.988-6.31-.924-9.29 1.064-2.98 3.436-5.36 6.595-6.61 3.16-1.25 6.847-1.27 10.252-.06 3.404 1.21 6.247 3.56 7.902 6.53 1.655 2.97 1.987 6.31.924 9.29z" stroke="#000" stroke-width="4.008" fill="#F60"/><path stroke="#000" stroke-width="4.008" stroke-linejoin="bevel" fill="#F60" d="M850.653 537.066l34.36 12.257-28.22 79.11-34.36-12.256z"/><path d="M869.036 561.948c-1.373 3.85-5.627 5.85-9.5 4.468-1.862-.664-3.384-2.034-4.233-3.81-.85-1.777-.956-3.814-.297-5.663.66-1.848 2.03-3.358 3.813-4.196 1.78-.838 3.82-.936 5.68-.272 3.87 1.382 5.9 5.623 4.53 9.473zm-8.513 23.83c-1.373 3.85-5.627 5.85-9.5 4.47-1.86-.665-3.384-2.036-4.233-3.812-.85-1.777-.956-3.813-.296-5.662.66-1.85 2.03-3.358 3.813-4.196 1.78-.838 3.828-.936 5.688-.272 3.874 1.382 5.902 5.623 4.528 9.472zm-7.835 22.842c-1.374 3.85-5.628 5.85-9.502 4.47-1.86-.665-3.382-2.035-4.232-3.812-.85-1.776-.955-3.813-.296-5.662.66-1.848 2.03-3.358 3.813-4.196 1.79-.838 3.83-.936 5.69-.272 3.88 1.382 5.9 5.623 4.53 9.473z" stroke="#000" stroke-width="3.006" fill="green"/><path d="M854.772 567.458c0 4.106-6.03 7.436-13.47 7.436s-13.47-3.33-13.47-7.436c0-4.107 6.03-7.437 13.47-7.437s13.47 3.33 13.47 7.44zm-243.687 3.244c-8.257-2.02-17.257 4.88-24.374 19.45-6.73 13.792-16.71 24.217-4.02 32.043 7.07 4.362 23.59-.75 21.86-11.16 1.27 5.71 1.05 16.97 4.84 16.917 5.54-.077 11.69-5.59 8.54-16.645-.77-2.702-.52-5.356-1.29-7.51.24-.662.5-1.332.67-2.03 3.9-15.726 2.05-29.045-6.2-31.065z" stroke="#050202" stroke-width="4.008" fill="#502D16"/><path d="M638.754 455.65l6.418 25.51-32.092 109.702-35.944-17.858c14.297-53.076 33.65-94.846 61.618-117.355z" stroke="#050202" stroke-width="4.008" fill="#330080"/><path d="M701.655 779.65c0 4.737-3.45 9.28-9.588 12.628-6.14 3.35-14.465 5.23-23.146 5.23-8.68 0-17-1.88-23.14-5.23-6.14-3.35-9.59-7.89-9.59-12.628 0-9.863 14.66-17.858 32.74-17.858 18.08 0 32.74 7.995 32.74 17.858zm77.663 2.55c0 4.738-3.45 9.28-9.588 12.63-6.14 3.348-14.465 5.23-23.146 5.23-8.682 0-17.008-1.882-23.147-5.23-6.14-3.35-9.588-7.892-9.588-12.63 0-9.86 14.65-17.857 32.73-17.857s32.73 7.996 32.73 17.858z" stroke="#050202" stroke-width="4.008" fill="#000"/><path d="M772.257 460.75c16.122 32.878 37.41 60.624 60.334 86.742 3.17 33.078-6.36 40.935-12.83 54.85-24.1-6.32-33.89-9.798-41.08-12.756l-6.42-128.835z" stroke="#050202" stroke-width="4.008" fill="#330080"/><path d="M786.864 595.788c5.312 57.704 13.268 154.976 1.1 167.46-12.475 12.798-66.366 23.52-87.333 15.192-21.72 4.498-64.76 12.65-79.17-25.82-15.36-30.405-2.52-103.843-6.15-154.126-7.35-101.737 2.75-180.562 91.68-181.75 75.67-1.01 84.81 77.644 79.88 179.044z" stroke="#050202" stroke-width="4.008" fill="#330080"/><path d="M749.805 399.747c0 15.19-4.973 29.758-13.825 40.5-8.852 10.74-20.857 16.776-33.376 16.776-12.518 0-24.524-6.035-33.376-16.776-8.852-10.742-13.824-25.31-13.824-40.5 0-15.19 4.972-29.76 13.824-40.5 8.852-10.742 20.858-16.776 33.376-16.776 12.52 0 24.524 6.04 33.376 16.78 8.852 10.74 13.825 25.31 13.825 40.5z" stroke="#050202" stroke-width="3.908" fill="#784421"/><path d="M693.784 387.554c0 2.366-1.93 4.284-4.31 4.284-2.383 0-4.313-1.918-4.313-4.284 0-1.136.46-2.226 1.27-3.03.81-.803 1.91-1.255 3.05-1.255s2.24.45 3.05 1.25c.81.8 1.27 1.89 1.27 3.03zm27.42.49c0 2.367-1.93 4.285-4.31 4.285-2.382 0-4.312-1.92-4.312-4.29 0-1.14.454-2.23 1.263-3.03.81-.81 1.905-1.26 3.05-1.26 1.142 0 2.24.45 3.047 1.25.81.8 1.263 1.89 1.263 3.03z" fill="#000"/><path d="M615.096 584.988l172.532.162c-2.174 6.186-1.144 15.018-.49 22.608l-171.39-.325-.652-22.445z" stroke="#000" stroke-width="3.903" fill="#FC0"/><path d="M679.766 412.008c5.976 5.79 43.623 2.11 46.878-.65 3.254-2.758-14.83 22.454-24.174 22.4-9.346-.055-28.68-27.54-22.704-21.75z" stroke="#000" stroke-width="4.008" fill="#784421"/><path d="M701.643 467.248l-17.204-29.61c10.35 5.532 21.45 7.394 34.4 0l-17.21 29.61z" stroke="#000" stroke-width="4.008" stroke-linejoin="round" fill="#000"/><path d="M710.14 493.665c0 4.088-3.335 7.4-7.448 7.4-1.975 0-3.87-.78-5.266-2.166-1.397-1.39-2.182-3.28-2.182-5.24 0-1.96.785-3.85 2.182-5.24 1.396-1.39 3.29-2.17 5.266-2.17 4.113 0 7.448 3.31 7.448 7.4zm0 37.885c0 4.086-3.335 7.4-7.448 7.4-1.975 0-3.87-.78-5.266-2.168-1.397-1.388-2.182-3.27-2.182-5.233 0-1.97.785-3.85 2.182-5.24 1.396-1.39 3.29-2.17 5.266-2.17 4.113 0 7.448 3.31 7.448 7.4zm0 35.356c0 4.088-3.335 7.4-7.448 7.4-1.975 0-3.87-.778-5.266-2.166-1.397-1.388-2.182-3.27-2.182-5.234 0-1.962.785-3.845 2.182-5.233 1.396-1.388 3.29-2.167 5.266-2.167 4.113 0 7.448 3.313 7.448 7.4zm0 65.664c0 4.088-3.335 7.402-7.448 7.402-1.975 0-3.87-.78-5.266-2.168-1.397-1.388-2.182-3.27-2.182-5.233 0-1.96.785-3.84 2.182-5.23 1.396-1.39 3.29-2.17 5.266-2.17 4.113 0 7.448 3.32 7.448 7.4zm0 35.36c0 4.086-3.335 7.4-7.448 7.4-1.975 0-3.87-.78-5.266-2.168-1.397-1.388-2.182-3.27-2.182-5.233 0-1.97.785-3.85 2.182-5.24 1.396-1.39 3.29-2.17 5.266-2.17 4.113 0 7.448 3.31 7.448 7.4zm0 37.882c0 4.087-3.335 7.4-7.448 7.4-1.975 0-3.87-.78-5.266-2.167-1.397-1.388-2.182-3.27-2.182-5.233 0-1.963.785-3.845 2.182-5.233 1.396-1.39 3.29-2.17 5.266-2.17 4.113 0 7.448 3.31 7.448 7.4zm0 40.408c0 4.088-3.335 7.402-7.448 7.402-1.975 0-3.87-.78-5.266-2.168-1.397-1.388-2.182-3.27-2.182-5.233 0-1.96.785-3.84 2.182-5.23 1.396-1.39 3.29-2.17 5.266-2.17 4.113 0 7.448 3.32 7.448 7.4z" stroke="#000" stroke-width="3.006" fill="#FC0"/><path d="M721.398 598.646c0 9.86-8.044 17.854-17.967 17.854-4.76 0-9.33-1.88-12.7-5.23-3.37-3.348-5.26-7.89-5.26-12.624 0-4.735 1.9-9.276 5.26-12.625 3.37-3.34 7.94-5.22 12.71-5.22 9.93 0 17.97 8 17.97 17.86z" stroke="#000" stroke-width="3.808" fill="#FC0"/><path d="M744.96 378.603c-15.854 3.71-41.1-20.698-41.1-20.698s-30.715 28.613-45.404 20.792c-12.445-6.627-13.214-29.22-6.542-41.586 8.982-16.64 32.793-23.81 51.8-23.69 19.92.12 46.048 7.33 53.976 25.49 5.562 12.74 2.277 35.57-12.73 39.7z" stroke="#000" stroke-width="4.008" fill="#4000A1"/><path d="M366.84 571.89c-8.256-2.02-17.256 4.88-24.373 19.448-6.74 13.793-16.713 24.218-4.025 32.044 7.07 4.363 23.59-.75 21.852-11.16 1.27 5.71 1.046 16.97 4.836 16.918 5.54-.078 11.69-5.59 8.54-16.646-.768-2.702-.52-5.356-1.288-7.51.242-.662.494-1.33.667-2.03 3.89-15.725 2.04-29.044-6.21-31.064z" stroke="#050202" stroke-width="4.008" fill="#DEAA87"/><path d="M394.51 456.836l6.418 25.512-32.093 109.7-35.943-17.857c14.297-53.07 33.65-94.84 61.617-117.35z" stroke="#050202" stroke-width="4.008" fill="#FC0"/><path d="M366.533 551.008c.136-10.39.867-20.78 1.402-31.172L342.53 576.13c2.775 1.198 7.07 3.858 12.008 5.813l11.995-30.935z" fill="#A80"/><path d="M388.814 419.11c0 18.872 6.68 36.97 18.57 50.316 11.893 13.344 28.02 20.84 44.838 20.84 35.02 0 63.408-31.857 63.408-71.156 0-39.3-28.39-71.157-63.408-71.157-16.817 0-32.945 7.497-44.837 20.842-11.89 13.344-18.57 31.443-18.57 50.315z" stroke="#000" stroke-width="4.008" fill="#E3DEDB"/><path d="M516.667 456.836l-6.42 25.512 32.093 109.7 35.944-17.857c-14.297-53.07-33.65-94.84-61.617-117.35z" stroke="#050202" stroke-width="4.008" fill="#FC0"/><path d="M453.765 780.837c0 4.737 3.45 9.28 9.588 12.628 6.14 3.35 14.465 5.23 23.147 5.23 8.68 0 17.007-1.88 23.146-5.23 6.14-3.35 9.588-7.89 9.588-12.628 0-9.862-14.656-17.858-32.734-17.858-18.08 0-32.735 7.99-32.735 17.85zm-77.663 2.553c0 4.735 3.45 9.277 9.588 12.626 6.14 3.35 14.465 5.23 23.147 5.23 8.68 0 17.007-1.88 23.146-5.23 6.14-3.35 9.588-7.89 9.588-12.627 0-9.87-14.65-17.86-32.73-17.86s-32.73 7.99-32.73 17.86z" stroke="#050202" stroke-width="4.008" fill="#2B1100"/><path d="M368.557 596.975c-5.312 57.705-13.832 155.543-1.102 167.46 40.53 17.86 135.082 24.402 166.504-10.627 15.36-30.406 2.52-103.844 6.15-154.127 7.35-101.73-2.75-180.56-91.68-181.74-75.67-1.01-84.81 77.65-79.88 179.05z" stroke="#050202" stroke-width="4.008" fill="#FC0"/><path d="M405.615 400.934c0 15.19 4.973 29.76 13.825 40.5 8.852 10.74 20.857 16.776 33.376 16.776 12.518 0 24.524-6.035 33.376-16.776 8.852-10.74 13.825-25.31 13.825-40.5 0-15.19-4.973-29.76-13.825-40.5-8.852-10.742-20.858-16.776-33.376-16.776-12.52 0-24.524 6.034-33.376 16.776-8.852 10.74-13.825 25.31-13.825 40.5z" stroke="#050202" stroke-width="3.908" fill="#DEAA87"/><path d="M462.907 387.478c0 2.367 1.93 4.285 4.31 4.285 2.383 0 4.313-1.918 4.313-4.285 0-1.136-.454-2.226-1.263-3.03-.81-.803-1.905-1.254-3.05-1.254-1.142 0-2.24.45-3.047 1.255-.81.8-1.263 1.89-1.263 3.02zm-29.963.492c0 2.365 1.93 4.284 4.312 4.284 2.38 0 4.31-1.92 4.31-4.285 0-1.14-.453-2.23-1.262-3.03-.808-.81-1.905-1.26-3.048-1.26-1.144 0-2.24.45-3.05 1.25-.808.8-1.262 1.89-1.262 3.03z" fill="#000"/><path d="M469.288 435.55H436.31l-6.93 341.754c12.944 1.288 32.296 2.33 42.218.46l-2.31-342.215z" stroke="#000" stroke-width="4.008" fill="maroon"/><path d="M452.39 502.17l37.063-70.454c20.018-38.054-91.073-33.08-72.738 2.066l35.676 68.388z" stroke="#000" stroke-width="4.008" fill="#E3DBDB"/><path stroke="#000" stroke-width="4.008" stroke-linejoin="round" fill="#FC0" d="M491.644 365.6l52.2-74.434-67.75 33.154-24.725-58.07-24.46 58.4-72.65-32.83 57.8 74.312 79.57-.533z"/><path d="M475.654 421.918c-5.976 5.79-43.623 2.11-46.878-.65-3.254-2.758 14.83 22.454 24.174 22.4 9.346-.056 28.68-27.54 22.704-21.75z" stroke="#000" stroke-width="4.008" fill="#DEAA87"/><path d="M432.548 341.383c0 9.86 8.044 17.854 17.967 17.854 4.765 0 9.335-1.88 12.705-5.23 3.37-3.348 5.262-7.89 5.262-12.624 0-4.735-1.893-9.276-5.262-12.624-3.37-3.35-7.94-5.23-12.705-5.23-9.923 0-17.967 7.99-17.967 17.85z" stroke="#000" stroke-width="4.008" fill="#00F"/><path d="M511.934 445.392c-3.246-3.61-6.27-7.245-11.897-10.56l-1.04 335.586c4.274-1 8.663-2.564 12.937-4.476v-320.55zm-119.45.688c3.244-3.608 6.384-9.08 12.01-12.394l.693 338.913c-4.273-1-8.893-1.19-13.166-3.1l.47-323.42zm152.16 104.928c-.137-10.39-.868-20.78-1.403-31.172l25.41 56.294c-2.77 1.198-7.07 3.858-12.01 5.813l-11.99-30.935z" fill="#A80"/><path d="M544.335 564.313c8.257-2.02 17.257 4.88 24.374 19.45 6.73 13.79 16.71 24.216 4.02 32.043-7.07 4.362-23.59-.75-21.85-11.16-1.27 5.708-1.05 16.97-4.84 16.917-5.54-.077-11.69-5.59-8.54-16.646.77-2.7.52-5.355 1.29-7.508-.24-.67-.5-1.34-.67-2.04-3.9-15.73-2.05-29.05 6.21-31.07z" stroke="#050202" stroke-width="4.008" fill="#DEAA87"/><path stroke="#000" stroke-width="4.008" stroke-linejoin="round" fill="#D4AA00" d="M322.68 556.87h266.57v79.206H322.68z"/><path stroke="#000" stroke-width="4.008" stroke-linejoin="round" fill="#00F" d="M354.596 610.67l-14.24-14.242 14.15-14.152 14.24 14.242z"/><path d="M393.718 596.473c0 2.8 1.12 5.486 3.113 7.466 2 1.98 4.7 3.09 7.52 3.09 5.87 0 10.63-4.73 10.63-10.56s-4.75-10.56-10.62-10.56c-2.82 0-5.52 1.11-7.51 3.09-1.99 1.98-3.11 4.66-3.11 7.46z" stroke="#000" stroke-width="4.008" fill="#D40000"/><path stroke="#000" stroke-width="4.008" stroke-linejoin="round" fill="#00F" d="M558.73 610.67l-14.243-14.242 14.152-14.152 14.24 14.24z"/><path d="M495.308 596.473c0 2.8 1.12 5.486 3.112 7.466 1.993 1.98 4.695 3.09 7.513 3.09 5.87 0 10.626-4.73 10.626-10.56s-4.76-10.56-10.63-10.56c-2.82 0-5.52 1.11-7.52 3.09-2 1.98-3.12 4.66-3.12 7.46z" stroke="#000" stroke-width="4.008" fill="#D40000"/><path stroke="#000" stroke-width="4.008" stroke-linejoin="round" fill="#00F" d="M453.396 610.67l-14.24-14.242 14.15-14.15 14.24 14.24z"/><path d="M1034.622 579.698c-6.432 30.207 8.42 39.852 37.802 24.704 31.782-16.385 47.443-12.984 42.648-23.626-5.356-11.89-19.798-29.296-42.648-23.627-13.5 3.35-23.624 14.23-37.802 22.54z" stroke="#050202" stroke-width="4" fill="#DEAA87"/><path d="M1055.67 566.295c0 4.21 6.136 7.62 13.707 7.62 7.57 0 13.71-3.41 13.71-7.62s-6.14-7.622-13.71-7.622c-7.57 0-13.708 3.412-13.708 7.622z" stroke="#050202" stroke-width="4" fill="#DEAA87"/><path d="M1139.645 456.93c-16.408 33.695-38.07 62.132-61.402 88.9-3.22 33.903 6.473 41.957 13.064 56.22 24.53-6.48 34.496-10.044 41.805-13.075l6.533-132.046z" stroke="#050202" stroke-width="4" fill="#32007E"/><path d="M1080.606 565.473l52.674-34.538-.677 19.542-49.415 29.11c-1.5-4.385-2.336-9.1-2.582-14.114z" fill="#FC0"/><path d="M1396.91 583.52c6.433 30.208-8.42 39.854-37.8 24.706-31.784-16.386-47.444-12.984-42.65-23.627 5.357-11.89 19.8-29.3 42.65-23.63 13.5 3.35 23.623 14.23 37.8 22.55z" stroke="#050202" stroke-width="4" fill="#DEAA87"/><path d="M1375.864 570.118c0 4.21-6.138 7.62-13.71 7.62-7.57 0-13.707-3.41-13.707-7.62s6.137-7.622 13.708-7.622c7.57 0 13.71 3.413 13.71 7.622z" stroke="#050202" stroke-width="4" fill="#DEAA87"/><path d="M1291.888 460.752c16.408 33.697 38.07 62.134 61.402 88.902 3.22 33.903-6.473 41.956-13.065 56.218-24.53-6.478-34.496-10.042-41.805-13.074l-6.532-132.046z" stroke="#050202" stroke-width="4" fill="#32007E"/><path d="M1350.926 569.296l-52.674-34.538.678 19.542 49.414 29.11c1.5-4.384 2.337-9.1 2.583-14.114z" fill="#FC0"/><path d="M1214.97 779.916c0 4.855 3.51 9.51 9.757 12.943 6.248 3.43 14.72 5.36 23.557 5.36 8.835 0 17.308-1.93 23.556-5.36 6.247-3.44 9.757-8.09 9.757-12.95 0-10.11-14.915-18.31-33.313-18.31-18.4 0-33.314 8.19-33.314 18.3zm-79.038 2.614c0 4.856 3.51 9.51 9.758 12.944 6.247 3.432 14.72 5.36 23.556 5.36 8.835 0 17.31-1.928 23.556-5.36 6.248-3.433 9.757-8.088 9.757-12.943 0-10.1-14.92-18.3-33.32-18.3s-33.32 8.2-33.32 18.31z" stroke="#050202" stroke-width="4" fill="#D4AA00"/><path d="M1128.253 591.472c-5.406 59.142-14.076 159.42-1.12 171.632 41.246 18.306 137.472 25.01 169.45-10.89 15.635-31.164 2.565-106.433 6.263-157.968 7.483-104.273-2.797-185.062-93.3-186.28-77.01-1.035-86.312 79.58-81.293 183.506z" stroke="#050202" stroke-width="4" fill="#330080"/><path d="M1230.718 409.872h-33.475l-7.034 366.3c13.13 1.38 32.78 2.496 42.85.49l-2.35-366.79z" stroke="#000" stroke-width="4.085" fill="#D40000"/><path d="M1274.168 436.11c-3.303-3.698-6.38-7.425-12.107-10.82l-1.05 343.947c4.35-1.023 8.82-2.628 13.17-4.587V436.11zm-121.566.707c3.303-3.7 6.5-9.308 12.225-12.704l.705 347.36c-4.35-1.024-9.05-1.217-13.4-3.177l.47-331.48z" fill="#FC0"/><path d="M1164.9 380.478c0 15.57 5.062 30.5 14.07 41.51 9.01 11.008 21.227 17.193 33.967 17.193 12.74 0 24.96-6.18 33.967-17.19 9.01-11.01 14.07-25.94 14.07-41.51 0-15.57-5.06-30.5-14.07-41.51-9.008-11.01-21.227-17.19-33.967-17.19-12.74 0-24.958 6.19-33.967 17.2-9.008 11.01-14.07 25.94-14.07 41.51z" stroke="#050202" stroke-width="3.9" fill="#DEAA87"/><path d="M1221.913 366.687c0 2.425 1.965 4.39 4.388 4.39 2.43 0 4.39-1.965 4.39-4.39 0-1.165-.46-2.282-1.28-3.105-.82-.824-1.94-1.287-3.1-1.287s-2.28.463-3.1 1.287c-.82.823-1.28 1.94-1.28 3.105zm-30.493.503c0 2.425 1.965 4.39 4.388 4.39 2.424 0 4.388-1.965 4.388-4.39 0-1.165-.462-2.282-1.285-3.105-.82-.824-1.93-1.286-3.1-1.286-1.16 0-2.28.46-3.1 1.28-.82.82-1.28 1.94-1.28 3.1z" fill="#000"/><path d="M1153.927 288.026c0 10.106 25.61 18.3 57.2 18.3 15.17 0 29.718-1.93 40.445-5.36 10.727-3.433 16.753-8.087 16.753-12.94s-6.026-9.508-16.753-12.94c-10.727-3.43-25.276-5.36-40.446-5.36-31.59 0-57.2 8.194-57.2 18.3z" stroke="#000" stroke-width="4.158" fill="#D40000"/><path stroke="#000" stroke-width="4" fill="#CDA500" d="M1252.508 341.068l53.123-76.29-68.95 33.982-25.16-59.517-24.89 59.854-73.93-33.646 58.83 76.17 80.99-.54z"/><path d="M1197.017 231.632c0 8.245 6.68 14.928 14.918 14.928 3.956 0 7.75-1.572 10.548-4.372s4.37-6.597 4.37-10.556c0-3.96-1.572-7.757-4.37-10.557-2.797-2.8-6.592-4.372-10.548-4.372-8.24 0-14.918 6.684-14.918 14.93zm94.295 33.668c0 8.244 6.68 14.927 14.918 14.927 3.956 0 7.75-1.572 10.548-4.372s4.37-6.597 4.37-10.556c0-3.96-1.572-7.76-4.37-10.56-2.797-2.8-6.592-4.37-10.548-4.37-8.24 0-14.918 6.68-14.918 14.93zm-191.75-.337c0 8.245 6.68 14.93 14.918 14.93 3.957 0 7.75-1.574 10.55-4.374 2.797-2.8 4.368-6.6 4.368-10.56 0-3.96-1.57-7.76-4.37-10.56-2.797-2.8-6.59-4.37-10.548-4.37-8.238 0-14.917 6.68-14.917 14.93zm93.352 49.442c0 10.106 8.187 18.3 18.286 18.3 4.85 0 9.5-1.93 12.93-5.36 3.428-3.433 5.355-8.087 5.355-12.94s-1.927-9.508-5.356-12.94c-3.43-3.43-8.08-5.36-12.93-5.36-10.1 0-18.29 8.194-18.29 18.3z" stroke="#000" stroke-width="4" fill="#FC0"/><path d="M1189.587 396.884c6.21 3.742 45.317 1.363 48.698-.42 3.38-1.782-15.404 14.512-25.113 14.477-9.708-.03-29.794-17.79-23.585-14.05z" stroke="#000" stroke-width="3.209" fill="#FAA"/><path d="M1212.34 464.603l-16.76-52.803c10.087 9.866 20.893 13.186 33.515 0l-16.758 52.803z" stroke="#000" stroke-width="4" stroke-linecap="round" stroke-linejoin="round" fill="#CCC"/><path d="M1185.973 352.787l20.368 6.087m33.63-6.087l-20.36 6.087m-8.06 28.623c-10.61-9.464-20.19 10.605-29.28.688m31.04-.688c10.62-9.464 20.2 10.605 29.28.688" stroke="#000" stroke-width="4" stroke-linecap="round"/><use fill="#000" filter="url(#c)" xlink:href="#d"/><use fill="#FFF" xlink:href="#d"/><path d="M92.438 60c1.032 0 1.547 3.158 1.547 9.475l2.057 11.97h.51c0-.68 2.062-4.394 6.187-11.144.64-4.45 1.84-6.68 3.6-6.68h.51c1.03 0 1.88 3.44 2.56 10.31 1.14 4.69 2.01 7.48 2.58 8.37.54-2.36 3.28-9.33 8.22-20.9.72-.74 1.41-1.11 2.05-1.11.92 0 1.53.37 1.81 1.11 0 .95-2.58 7.17-7.72 18.67-.87 2.71-1.64 6.42-2.32 11.15-.55.93-1.24 1.39-2.06 1.39-1.57 0-2.78-3.15-3.61-9.47-1.68-6.15-2.71-9.49-3.1-10.02l-5.15 8.92c-.86 1.73-1.63 4.71-2.32 8.91-.46.68-1.14 1.14-2.06 1.39-1.43 0-2.63-4.83-3.6-14.48-1.37-6.82-2.06-12.3-2.06-16.43 0-.55.77-1.01 2.32-1.39zm48.06 4.447c.83.223 1.247.79 1.247 1.705v.23c-1.172 17.308-2.004 25.962-2.496 25.962l-.27.246h-.74c-.87 0-1.46-.404-1.76-1.213.32-2.31.49-5.543.49-9.703h-.25l-10.5 2.426-.74.966v4.606c0 1.37-.51 2.344-1.51 2.918h-.5c-.94 0-1.53-.404-1.76-1.213 1.16-17.473 2.83-26.21 5.01-26.21h.49l.75.985c-1.17 5.8-1.76 10.084-1.76 12.85 7.67-1.008 11.51-2.22 11.51-3.64l1-10.194 1.75-.72zm21.62.053c.81.176 1.213.79 1.213 1.846-.25 1.992-1.06 2.988-2.4 2.988-8.83 0-13.25 1.23-13.25 3.69l-.24 2.076v1.142c5.77-1.383 9.71-2.074 11.81-2.074h.48c.81.352 1.22 1.12 1.22 2.303 0 1.69-1.12 2.54-3.37 2.54-7.39.96-11.09 2.12-11.09 3.47l-.23 2.31v.92c0 1.38.88 2.15 2.64 2.3 2.77-.3 6.23-.99 10.37-2.07h.72c.65.25.97.79.97 1.62v.69c0 1.89-4.02 3.35-12.06 4.38h-.72c-2.89 0-4.5-1.84-4.81-5.52 0-2.7.56-7.85 1.68-15.43l-.47-1.39c0-3.11 4.82-4.95 14.45-5.52l3.13-.23zm5.08-.053c1.067 0 2.344 2.004 3.832 6.012 2.883 5.9 6.088 10.95 9.616 15.15 1.183-11.57 2.062-18.38 2.636-20.45l.967-.72h.72c.48 0 .72.32.72.96-1.44 16.52-2.32 25.34-2.64 26.45l-1.44.47c-2.57 0-6.89-5.45-12.97-16.35l-.97-.97-.25.72-.72 11.07v1.44l.24 1.44c-.21 1.92-.85 2.88-1.92 2.88-.99-.35-1.55-.83-1.69-1.44 1.23-17.32 2.1-25.98 2.63-25.98l1.21-.72zM208.015 60l.86 1.107-.86 10.6 17.455-9.193c.76.89 1.142 2.004 1.142 3.34-1.968 2.625-7.025 5.964-15.17 10.02v.28c3.762 4.664 8.057 8.567 12.885 11.707v.55c0 2.6-.955 3.91-2.865 3.91l-14.31-11.14c-.56 7.43-1.13 11.15-1.704 11.15l-1.44.28c-.95-.3-1.425-.86-1.425-1.67l1.143-13.09-.282-3.34c.645 0 1.213-4.08 1.705-12.25.78-1.48 1.74-2.23 2.86-2.23zm24.345 4.377h1.653c.55 0 .826.322.826.967-1.29 10.523-1.94 17.824-1.94 21.902v2.672c-.37 1.78-1.28 2.672-2.74 2.672h-.55l-1.11-.967c.74-11.04 1.66-19.8 2.76-26.28l1.09-.966zm7.98.07c1.067 0 2.345 2.004 3.833 6.012 2.883 5.9 6.088 10.95 9.615 15.15 1.184-11.57 2.063-18.38 2.637-20.45l.967-.72h.72c.48 0 .72.32.72.96-1.44 16.52-2.32 25.34-2.636 26.45l-1.44.47c-2.568 0-6.892-5.45-12.974-16.35l-.967-.97-.246.72-.72 11.07v1.44l.24 1.44c-.21 1.92-.85 2.88-1.92 2.88-.99-.35-1.55-.83-1.69-1.44 1.23-17.32 2.11-25.98 2.64-25.98l1.21-.72zm35.35 0h.176c1.56 0 2.602 1.524 3.13 4.57l-.37.475h-.176l-1.476-.474c-4.032.597-8.256 3.404-12.674 8.42-1.23 2.18-1.846 3.703-1.846 4.57v.967c0 2.566 2.637 4.166 7.91 4.798 3.305 0 5.813-1.763 7.524-5.29l-2.198-.95c-.82 0-3.087.96-6.802 2.883-.364-.82-.545-1.623-.545-2.408v-.246c0-2.555 2.45-4.32 7.347-5.29h.37c2.812 0 4.218 1.844 4.218 5.536 0 3.808-3.123 7.178-9.37 10.107l-2.196.475c-3.973 0-6.668-1.682-8.086-5.045l-.37-3.13c0-7.265 3.733-13.44 11.198-18.526 1.887-.97 3.3-1.45 4.236-1.45zM320.726 60c1.078.258 1.617.914 1.617 1.97v.28c-1.512 20.04-2.596 30.06-3.252 30.06l-.31.28h-.98c-1.12 0-1.88-.47-2.26-1.406.44-2.672.65-6.416.65-11.233h-.33l-13.65 2.82-.98 1.13v5.33c0 1.6-.65 2.72-1.95 3.38h-.65c-1.2 0-1.96-.47-2.26-1.4 1.51-20.22 3.68-30.34 6.51-30.34h.65l.97 1.13c-1.51 6.72-2.27 11.68-2.27 14.89 9.96-1.17 14.94-2.58 14.94-4.22l1.3-11.79 2.29-.84zm22.078 4.5c.808.176 1.213.79 1.213 1.846-.258 1.992-1.06 2.988-2.41 2.988-8.835 0-13.253 1.23-13.253 3.69l-.246 2.076v1.142c5.766-1.383 9.704-2.074 11.813-2.074h.48c.81.352 1.21 1.12 1.21 2.303 0 1.69-1.12 2.54-3.37 2.54-7.39.96-11.09 2.12-11.09 3.47l-.23 2.31v.92c0 1.38.88 2.15 2.64 2.3 2.77-.3 6.23-.99 10.37-2.07h.73c.65.25.97.79.97 1.62v.69c0 1.89-4.02 3.35-12.06 4.38h-.72c-2.89 0-4.5-1.84-4.81-5.52 0-2.7.56-7.85 1.69-15.43l-.47-1.39c0-3.11 4.82-4.95 14.45-5.52l3.13-.23zm14.308-.053h2.426c3.715 0 5.572 1.295 5.572 3.885v.246c0 4.535-3.88 8.66-11.636 12.375v.23c3.88 3.56 7.113 6.233 9.703 8.014v.72c0 1.255-.405 2.063-1.213 2.427h-.967l-13.324-9.457-.246 4.85v3.64c-.41.81-1.055 1.213-1.934 1.213-.644 0-1.13-.322-1.46-.967v-1.46l2.18-18.93c-.644 0-.966-.48-.966-1.442 0-2.91 2.42-4.61 7.26-5.09l4.605-.24zm-8.472 13.096h.246c8.39-2.156 12.586-4.5 12.586-7.03v-.247c0-.446-.81-.768-2.426-.967-2.684 0-5.912.56-9.686 1.7l-.72 6.54zm31.834-13.096c5.004.692 7.505 3.686 7.505 8.983 0 6.937-2.75 12.68-8.23 17.226-2.26 1.29-4.29 1.934-6.07 1.934-4.35 0-7.15-2.344-8.4-7.03l-.18-2.18v-.74c0-7.57 3.45-13.312 10.37-17.226 1.73-.644 3.4-.967 4.99-.967zM367.43 83.38c1.805 2.74 4.19 4.112 7.155 4.112 4.77 0 8.103-2.83 10.002-8.49l.35-2.672c0-3.984-1.96-6.328-5.887-7.03h-.545c-3.246 0-6.64 3.233-10.178 9.702-.598 1.945-.896 3.404-.896 4.377zm31.044-18.933h1.072c5.098 0 8.22 2.022 9.37 6.065l.21 1.933c0 8.05-5.965 14.684-17.895 19.9l-1.05.245h-.23c-.31 0-.59-.57-.84-1.705l2.13-20.865c-.85 0-1.28-.24-1.28-.72v-.493c0-2.578 1.14-3.868 3.41-3.868l5.12-.5zm-4.254 5.098c-1.278 8.297-1.916 13.875-1.916 16.734v1.21c8.94-4.47 13.412-8.67 13.412-12.62v-.23c0-2.28-.64-3.41-1.916-3.41-1.582-1.13-4.137-1.69-7.664-1.69h-1.916zm48.62-5.098c.833.223 1.25.79 1.25 1.705v.23c-1.173 17.308-2.005 25.962-2.497 25.962l-.264.246h-.74c-.87 0-1.46-.404-1.76-1.213.33-2.31.49-5.543.49-9.703h-.25L428.56 84.1l-.74.966v4.606c0 1.37-.503 2.344-1.51 2.918h-.49c-.938 0-1.524-.404-1.76-1.213 1.16-17.473 2.83-26.21 5.01-26.21h.493l.755.985c-1.17 5.8-1.76 10.084-1.76 12.85 7.677-1.008 11.515-2.22 11.515-3.64l1.003-10.194 1.76-.72zm21.622.053c.81.176 1.213.79 1.213 1.846-.258 1.992-1.06 2.988-2.408 2.988-8.836 0-13.254 1.23-13.254 3.69l-.246 2.076v1.142c5.765-1.383 9.703-2.074 11.812-2.074h.47c.81.352 1.21 1.12 1.21 2.303 0 1.69-1.13 2.54-3.38 2.54-7.4.96-11.09 2.12-11.09 3.47l-.23 2.31v.92c0 1.38.88 2.15 2.63 2.3 2.76-.3 6.22-.99 10.37-2.07h.72c.64.25.96.79.96 1.62v.69c0 1.89-4.02 3.35-12.06 4.38h-.72c-2.9 0-4.5-1.84-4.82-5.52 0-2.7.56-7.85 1.68-15.43l-.48-1.39c0-3.11 4.81-4.95 14.45-5.52l3.12-.23zm12.076 0h.844c1.16 0 2.63 5.36 4.412 16.084 1.406 5.063 2.11 8.502 2.11 10.318-.294.96-.856 1.442-1.688 1.442-1.078 0-1.852-2.56-2.32-7.682l-.21-.228h-.212c-1.83.023-5.684 1.142-11.567 3.357-.562 3.2-1.476 4.8-2.742 4.8-.844-.32-1.266-.96-1.266-1.91 0-1.85 3.86-10.33 11.58-25.45l1.05-.72zm-.422 6.715c-1.687 3.047-3.234 6.252-4.64 9.615h1.476c1.43 0 3.258-.322 5.485-.967l-1.9-8.648h-.42zm22.676-6.768h2.426c3.715 0 5.572 1.295 5.572 3.885v.246c0 4.535-3.88 8.66-11.637 12.375v.23c3.88 3.56 7.114 6.233 9.703 8.014v.72c0 1.255-.404 2.063-1.212 2.427h-.967l-13.324-9.457-.247 4.85v3.64c-.41.81-1.054 1.213-1.933 1.213-.645 0-1.13-.322-1.46-.967v-1.46l2.18-18.93c-.644 0-.966-.48-.966-1.442 0-2.91 2.42-4.61 7.26-5.09l4.605-.24zm-8.473 13.096h.24c8.39-2.156 12.58-4.5 12.58-7.03v-.247c0-.446-.81-.768-2.43-.967-2.69 0-5.92.56-9.69 1.7l-.72 6.54zm25.84-13.096h1.07c5.1 0 8.22 2.022 9.37 6.065l.21 1.933c0 8.05-5.97 14.684-17.9 19.9l-1.06.245h-.23c-.32 0-.6-.57-.85-1.705l2.13-20.865c-.86 0-1.28-.24-1.28-.72v-.493c0-2.578 1.13-3.868 3.41-3.868l5.11-.5zm-4.26 5.098c-1.28 8.297-1.92 13.875-1.92 16.734v1.21c8.94-4.47 13.41-8.67 13.41-12.62v-.23c0-2.28-.64-3.41-1.92-3.41-1.58-1.13-4.14-1.69-7.67-1.69h-1.91zm49.36-5.115c1.52 0 2.28.632 2.28 1.898v.475c0 1.746-1.36 2.62-4.08 2.62l-5.08.245c-1.53 8.12-2.29 15.105-2.29 20.953-.41 1.27-.83 1.9-1.27 1.9h-.78c-.88 0-1.39-.24-1.53-.72.85-8.99 1.78-16.29 2.79-21.9l-7.63 1.2c-.72 0-1.14-.71-1.27-2.14 0-2.38 2.12-3.57 6.36-3.57 2.54-.63 6.69-.95 12.46-.95zm20.34.017c.83.223 1.25.79 1.25 1.705v.23c-1.17 17.308-2.01 25.962-2.5 25.962l-.27.246h-.74c-.87 0-1.46-.404-1.76-1.213.32-2.31.49-5.543.49-9.703h-.25l-10.5 2.426-.74.966v4.606c0 1.37-.51 2.344-1.51 2.918h-.5c-.94 0-1.53-.404-1.76-1.213 1.16-17.473 2.83-26.21 5.01-26.21h.49l.75.985c-1.17 5.8-1.76 10.084-1.76 12.85 7.67-1.008 11.51-2.22 11.51-3.64l1-10.194 1.75-.72zm21.62.053c.81.176 1.21.79 1.21 1.846-.26 1.992-1.06 2.988-2.41 2.988-8.84 0-13.26 1.23-13.26 3.69l-.25 2.076v1.142c5.76-1.383 9.7-2.074 11.81-2.074h.47c.81.352 1.21 1.12 1.21 2.303 0 1.69-1.13 2.54-3.38 2.54-7.4.96-11.09 2.12-11.09 3.47l-.23 2.31v.92c0 1.38.88 2.15 2.63 2.3 2.76-.3 6.22-.99 10.37-2.07h.72c.64.25.97.79.97 1.62v.69c0 1.89-4.02 3.35-12.06 4.38h-.72c-2.9 0-4.5-1.84-4.82-5.52 0-2.7.56-7.85 1.68-15.43l-.48-1.39c0-3.11 4.82-4.95 14.45-5.52l3.13-.23zm14.31-.053h2.42c3.71 0 5.57 1.295 5.57 3.885v.246c0 4.535-3.88 8.66-11.64 12.375v.23c3.88 3.56 7.11 6.233 9.7 8.014v.72c0 1.255-.41 2.063-1.22 2.427h-.97l-13.33-9.457-.25 4.85v3.64c-.41.81-1.06 1.213-1.94 1.213-.65 0-1.13-.322-1.46-.967v-1.46l2.18-18.93c-.65 0-.97-.48-.97-1.442 0-2.91 2.42-4.61 7.26-5.09l4.61-.24zm-8.48 13.096h.24c8.39-2.156 12.58-4.5 12.58-7.03v-.247c0-.446-.81-.768-2.43-.967-2.69 0-5.91.56-9.69 1.7l-.72 6.54zM644.32 64.5c.81.176 1.214.79 1.214 1.846-.258 1.992-1.06 2.988-2.408 2.988-8.836 0-13.254 1.23-13.254 3.69l-.246 2.076v1.142c5.766-1.383 9.703-2.074 11.812-2.074h.475c.81.352 1.213 1.12 1.213 2.303 0 1.69-1.125 2.54-3.375 2.54-7.39.96-11.09 2.12-11.09 3.47l-.23 2.31v.92c0 1.38.88 2.15 2.64 2.3 2.77-.3 6.23-.99 10.37-2.07h.72c.65.25.97.79.97 1.62v.69c0 1.89-4.02 3.35-12.06 4.38h-.72c-2.89 0-4.5-1.84-4.81-5.52 0-2.7.57-7.85 1.69-15.43l-.47-1.39c0-3.11 4.82-4.95 14.45-5.52l3.13-.23zm17.95 0c.784 0 1.176 2.72 1.176 8.156l1.582 10.336h.387c0-.597 1.576-3.803 4.73-9.615.49-3.832 1.41-5.748 2.758-5.748h.387c.797 0 1.453 2.95 1.97 8.87.878 4.04 1.534 6.44 1.968 7.2.42-2.04 2.525-8.05 6.31-18.02.55-.64 1.078-.95 1.582-.95.703 0 1.16.31 1.37.95 0 .82-1.968 6.18-5.905 16.08-.656 2.34-1.248 5.55-1.775 9.61-.422.79-.95 1.19-1.582 1.19-1.196 0-2.11-2.72-2.743-8.16-1.29-5.31-2.08-8.19-2.373-8.65l-3.937 7.68c-.656 1.5-1.248 4.06-1.776 7.68-.36.59-.88.99-1.57 1.2-1.1 0-2.02-4.16-2.76-12.48-1.06-5.88-1.58-10.61-1.58-14.17 0-.48.59-.88 1.77-1.19zm35.067 0h.844c1.16 0 2.64 5.36 4.42 16.084 1.41 5.063 2.11 8.502 2.11 10.318-.29.96-.85 1.442-1.69 1.442-1.08 0-1.85-2.56-2.32-7.682l-.21-.228h-.21c-1.83.023-5.68 1.142-11.56 3.357-.56 3.2-1.47 4.8-2.74 4.8-.84-.32-1.26-.96-1.26-1.91 0-1.85 3.86-10.33 11.59-25.45l1.06-.72zm-.422 6.715c-1.687 3.047-3.234 6.252-4.64 9.615h1.476c1.43 0 3.26-.322 5.49-.967l-1.9-8.648h-.42zM721.4 64.5h.37c1.618.2 2.426.984 2.426 2.355v.475c0 2.367-.808 4.57-2.425 6.61h-.37c-.25-.07-.5-.463-.75-1.178l.95-3.533-.74-.48c-1.72.15-4.88 2.04-9.49 5.66v.23l12.27 2.37c1.24.98 1.87 2.63 1.87 4.95v1.4c0 3.17-2.04 5.93-6.13 8.26-1.6.63-3.16.95-4.66.95h-.38c-4.26 0-6.87-1.89-7.8-5.66V85.5c0-1.735.44-2.602 1.3-2.602.86 3 2.41 4.5 4.66 4.5 0 .307.93.46 2.8.46 2.76 0 5.42-1.41 8-4.237 0-1.87-3.97-3.06-11.9-3.55-2.86-.79-4.29-1.97-4.29-3.53 0-3.83 3.85-7.69 11.53-11.56l2.8-.47zm32.046 0h.844c1.16 0 2.63 5.36 4.412 16.084 1.406 5.063 2.11 8.502 2.11 10.318-.293.96-.856 1.442-1.688 1.442-1.078 0-1.852-2.56-2.32-7.682l-.21-.228h-.212c-1.828.023-5.684 1.142-11.567 3.357-.562 3.2-1.476 4.8-2.742 4.8-.844-.32-1.265-.96-1.265-1.91 0-1.85 3.86-10.33 11.584-25.45l1.054-.72zm-.422 6.715c-1.687 3.047-3.234 6.252-4.64 9.615h1.476c1.43 0 3.258-.322 5.485-.967l-1.9-8.648h-.42zm28.39-6.768c1.065 0 2.343 2.004 3.83 6.012 2.884 5.9 6.09 10.95 9.616 15.15 1.184-11.57 2.063-18.38 2.637-20.45l.967-.72h.72c.48 0 .72.32.72.96-1.44 16.52-2.32 25.34-2.635 26.45l-1.45.47c-2.57 0-6.89-5.45-12.98-16.35l-.97-.97-.25.72-.72 11.07v1.44l.24 1.44c-.21 1.92-.85 2.88-1.92 2.88-.99-.35-1.55-.83-1.69-1.44 1.23-17.32 2.11-25.98 2.63-25.98l1.21-.72zm38.706.053c.81.176 1.213.79 1.213 1.846-.258 1.992-1.06 2.988-2.408 2.988-8.836 0-13.254 1.23-13.254 3.69l-.24 2.076v1.142c5.77-1.383 9.71-2.074 11.81-2.074h.48c.81.352 1.22 1.12 1.22 2.303 0 1.69-1.12 2.54-3.37 2.54-7.39.96-11.09 2.12-11.09 3.47l-.23 2.31v.92c0 1.38.88 2.15 2.64 2.3 2.77-.3 6.22-.99 10.37-2.07h.72c.65.25.97.79.97 1.62v.69c0 1.89-4.02 3.35-12.06 4.38h-.72c-2.89 0-4.5-1.84-4.81-5.52 0-2.7.57-7.85 1.69-15.43l-.47-1.39c0-3.11 4.82-4.95 14.45-5.52l3.13-.23zm3.006 0c.785 0 1.178 2.72 1.178 8.156l1.582 10.336h.386c0-.597 1.577-3.803 4.73-9.615.49-3.832 1.41-5.748 2.76-5.748h.385c.797 0 1.454 2.95 1.97 8.87.878 4.04 1.534 6.44 1.968 7.2.422-2.04 2.525-8.05 6.31-18.02.55-.64 1.08-.95 1.583-.95.703 0 1.16.31 1.37.95 0 .82-1.968 6.18-5.906 16.08-.656 2.34-1.248 5.55-1.775 9.61-.422.79-.95 1.19-1.582 1.19-1.195 0-2.11-2.72-2.742-8.16-1.29-5.31-2.08-8.19-2.373-8.65l-3.938 7.68c-.656 1.5-1.248 4.06-1.775 7.68-.352.59-.873.99-1.565 1.2-1.1 0-2.02-4.16-2.76-12.48-1.054-5.88-1.58-10.61-1.58-14.17 0-.48.59-.88 1.774-1.19zm49.975 0c4.75 0 7.12 1.617 7.12 4.852v.72c0 2.262-1.07 4.442-3.21 6.54v.245c3.53 1.067 5.29 2.842 5.29 5.327v.966c0 4.055-3.98 7.037-11.95 8.948l-3.92.492h-2.28c-1.23 0-1.84-.645-1.84-1.934v-.246l1.85-19.863c-.77 0-1.16-.158-1.16-.475v-1.46c0-2.74 3.38-4.112 10.13-4.112zm-6.68 10.898h.25c7.2 0 10.8-1.617 10.8-4.85-1.18-.798-3.17-1.196-5.97-1.196h-2.76c-1.22 0-1.82.562-1.82 1.687l-.47 4.35zm-.45 4.606l-.45 7.734 2.31.492.23-.246h1.14c6.45-.843 9.67-2.373 9.67-4.588-2.12-2.26-5.42-3.392-9.9-3.392h-.91l-.22-.246-.23.246h-1.62zM894.36 64.5h.84c1.16 0 2.63 5.36 4.41 16.084 1.408 5.063 2.11 8.502 2.11 10.318-.292.96-.855 1.442-1.69 1.442-1.075 0-1.85-2.56-2.32-7.682l-.21-.228h-.21c-1.83.023-5.682 1.142-11.565 3.357-.563 3.2-1.477 4.8-2.743 4.8-.842-.32-1.264-.96-1.264-1.91 0-1.85 3.86-10.33 11.584-25.45l1.054-.72zm-.424 6.715c-1.687 3.047-3.234 6.252-4.64 9.615h1.477c1.43 0 3.257-.322 5.484-.967l-1.897-8.648h-.423zm20.41-6.715c4.745 0 7.118 1.617 7.118 4.852v.72c0 2.262-1.07 4.442-3.216 6.54v.245c3.53 1.067 5.292 2.842 5.292 5.327v.966c0 4.055-3.985 7.037-11.954 8.948l-3.92.492h-2.286c-1.23 0-1.847-.645-1.847-1.934v-.246l1.847-19.863c-.773 0-1.16-.158-1.16-.475v-1.46c0-2.74 3.375-4.112 10.125-4.112zm-6.68 10.898h.245c7.2 0 10.8-1.617 10.8-4.85-1.18-.798-3.17-1.196-5.97-1.196h-2.76c-1.22 0-1.83.562-1.83 1.687l-.47 4.35zm-.458 4.606l-.457 7.734 2.31.492.23-.246h1.14c6.45-.843 9.67-2.373 9.67-4.588-2.12-2.26-5.42-3.392-9.89-3.392h-.91l-.23-.246-.23.246h-1.61zM926.89 64.5l5.38 8.156 2.354 1.934c2.977-5.297 5.05-8.502 6.223-9.615h1.072l.86.966c-.12.86-3.48 6.86-10.09 18-1.67 3.13-2.89 5.93-3.66 8.41l-.64.25c-1.01-.47-1.51-1.19-1.51-2.16.05-1.25 1.77-5.17 5.15-11.76-4.87-5.23-7.3-9.47-7.3-12.73.9-.96 1.61-1.44 2.14-1.44zM89.793 106.605l.703.967-.703 9.14 14.344-7.944c.62.773.93 1.734.93 2.882-1.616 2.274-5.77 5.162-12.462 8.666v.246c3.094 4.02 6.622 7.383 10.582 10.09v.493c0 2.238-.785 3.357-2.355 3.357l-11.742-9.615c-.47 6.41-.938 9.615-1.406 9.615l-1.178.246c-.785-.258-1.178-.738-1.178-1.44l.932-11.304-.23-2.883c.54 0 1.01-3.53 1.407-10.6.645-1.27 1.43-1.91 2.356-1.91zm20.918-.228h1.66c.55 0 .83.322.83.967-1.29 10.523-1.93 17.824-1.93 21.902v2.672c-.36 1.78-1.27 2.672-2.74 2.672h-.54l-1.11-.967c.74-11.04 1.66-19.8 2.76-26.28l1.09-.966zm7.98.07c1.07 0 2.35 2.004 3.84 6.012 2.89 5.9 6.09 10.95 9.62 15.15 1.19-11.57 2.06-18.38 2.64-20.45l.97-.72h.72c.48 0 .72.32.72.96-1.44 16.52-2.32 25.34-2.63 26.45l-1.44.47c-2.56 0-6.89-5.45-12.97-16.35l-.96-.97-.24.72-.72 11.07v1.44l.25 1.44c-.21 1.92-.85 2.88-1.92 2.88-.98-.35-1.55-.83-1.69-1.44 1.23-17.32 2.11-25.98 2.64-25.98l1.21-.72zm35.35 0h.18c1.56 0 2.6 1.524 3.13 4.57l-.37.475h-.17l-1.47-.474c-4.03.597-8.25 3.404-12.67 8.42-1.23 2.18-1.84 3.703-1.84 4.57v.967c0 2.566 2.64 4.166 7.91 4.798 3.31 0 5.81-1.763 7.53-5.29l-2.19-.95c-.82 0-3.08.96-6.8 2.883-.36-.82-.54-1.623-.54-2.408v-.246c0-2.555 2.45-4.32 7.35-5.29h.37c2.82 0 4.22 1.844 4.22 5.536 0 3.808-3.12 7.178-9.37 10.107l-2.19.475c-3.97 0-6.67-1.682-8.08-5.045l-.37-3.13c0-7.265 3.74-13.44 11.2-18.526 1.89-.97 3.3-1.45 4.24-1.45zm35.44 10.635l.55.475v2.18c0 1.417-3.53 2.302-10.6 2.654-2.54 0-3.81-.48-3.81-1.44v-.24c0-1.77.82-2.65 2.45-2.65h4.91l6.53-.96zm35.51-10.635c.83.223 1.25.79 1.25 1.705v.23c-1.17 17.308-2 25.962-2.49 25.962l-.26.246h-.74c-.86 0-1.45-.404-1.75-1.213.33-2.31.49-5.543.49-9.703h-.24l-10.52 2.426-.74.966v4.606c0 1.37-.5 2.344-1.51 2.918h-.49c-.93 0-1.52-.404-1.75-1.213 1.16-17.473 2.83-26.21 5.01-26.21h.5l.76.985c-1.17 5.8-1.76 10.084-1.76 12.85 7.68-1.008 11.52-2.22 11.52-3.64l1-10.194 1.76-.72zm21.62.053c.81.176 1.22.79 1.22 1.846-.25 1.992-1.06 2.988-2.4 2.988-8.83 0-13.25 1.23-13.25 3.69l-.24 2.076v1.142c5.77-1.383 9.7-2.074 11.81-2.074h.48c.81.352 1.22 1.12 1.22 2.303 0 1.69-1.12 2.54-3.37 2.54-7.39.96-11.09 2.12-11.09 3.47l-.23 2.31v.92c0 1.38.88 2.15 2.64 2.3 2.76-.3 6.22-.99 10.37-2.07h.72c.65.25.97.79.97 1.62v.69c0 1.89-4.02 3.35-12.06 4.38h-.72c-2.89 0-4.5-1.84-4.82-5.52 0-2.7.57-7.85 1.69-15.43l-.47-1.39c0-3.11 4.82-4.95 14.45-5.52l3.13-.23zm17.95 0c.79 0 1.18 2.72 1.18 8.156l1.58 10.336h.39c0-.597 1.58-3.803 4.73-9.615.49-3.832 1.41-5.748 2.76-5.748h.39c.8 0 1.46 2.95 1.97 8.87.88 4.04 1.54 6.44 1.97 7.2.43-2.04 2.53-8.05 6.31-18.02.55-.64 1.08-.95 1.59-.95.7 0 1.16.31 1.37.95 0 .82-1.97 6.18-5.9 16.08-.65 2.34-1.24 5.55-1.77 9.61-.42.79-.95 1.19-1.58 1.19-1.19 0-2.11-2.72-2.74-8.16-1.29-5.31-2.08-8.19-2.37-8.65l-3.93 7.68c-.65 1.5-1.24 4.06-1.77 7.68-.35.59-.87.99-1.56 1.2-1.1 0-2.02-4.16-2.76-12.48-1.05-5.88-1.58-10.61-1.58-14.17 0-.48.59-.88 1.78-1.19zm35.07 0h.85c1.16 0 2.63 5.36 4.41 16.084 1.41 5.063 2.11 8.502 2.11 10.318-.29.96-.85 1.442-1.68 1.442-1.07 0-1.85-2.56-2.32-7.682l-.21-.228h-.21c-1.83.023-5.68 1.142-11.56 3.357-.56 3.2-1.47 4.8-2.74 4.8-.84-.32-1.26-.96-1.26-1.91 0-1.85 3.86-10.33 11.59-25.45l1.06-.72zm-.42 6.715c-1.68 3.047-3.23 6.252-4.64 9.615h1.48c1.43 0 3.26-.322 5.49-.967l-1.89-8.648h-.42zm24.49-6.715h.37c1.62.2 2.43.984 2.43 2.355v.475c0 2.367-.81 4.57-2.42 6.61h-.37c-.25-.07-.51-.463-.75-1.178l.95-3.533-.74-.48c-1.72.15-4.88 2.04-9.49 5.66v.23l12.27 2.37c1.25.98 1.87 2.63 1.87 4.95v1.4c0 3.17-2.04 5.93-6.13 8.26-1.6.63-3.16.95-4.66.95h-.38c-4.27 0-6.87-1.89-7.8-5.66v-1.42c0-1.74.43-2.61 1.3-2.61.86 3 2.41 4.5 4.66 4.5 0 .3.93.46 2.8.46 2.76 0 5.42-1.41 8-4.24 0-1.87-3.96-3.06-11.9-3.55-2.86-.8-4.29-1.97-4.29-3.53 0-3.83 3.85-7.69 11.54-11.57l2.8-.48zm25.88-4.5c1.3 0 2.86 2.32 4.68 6.96 3.51 6.833 7.4 12.68 11.69 17.544 1.44-13.395 2.52-21.28 3.22-23.66l1.16-.844h.88c.59 0 .88.37.88 1.107-1.75 19.15-2.83 29.362-3.21 30.64l-1.76.562c-3.1 0-8.36-6.32-15.76-18.94l-1.17-1.13-.28.84-.89 12.82v1.67l.29 1.67c-.26 2.22-1.04 3.34-2.34 3.34-1.18-.41-1.86-.97-2.04-1.67 1.5-20.05 2.57-30.08 3.22-30.08l1.46-.85zm42.22 0c6.12.797 9.18 4.26 9.18 10.39 0 8.038-3.35 14.688-10.05 19.95-2.76 1.5-5.24 2.25-7.42 2.25-5.32 0-8.74-2.72-10.28-8.156l-.21-2.514v-.844c0-8.777 4.23-15.428 12.68-19.95 2.14-.75 4.18-1.126 6.12-1.126zm-15.94 21.92c2.2 3.176 5.12 4.764 8.74 4.764 5.83 0 9.91-3.276 12.24-9.827l.44-3.093c0-4.618-2.4-7.33-7.21-8.14h-.66c-3.97 0-8.12 3.745-12.44 11.233-.72 2.25-1.09 3.938-1.09 5.063zM423.5 102c1.734 0 2.602.738 2.602 2.215v.545c0 2.027-1.545 3.04-4.64 3.04l-5.782.282c-1.735 9.422-2.602 17.52-2.602 24.293-.468 1.477-.95 2.215-1.44 2.215h-.88c-.996 0-1.576-.276-1.74-.826.972-10.43 2.033-18.903 3.18-25.418l-8.682 1.388c-.81 0-1.29-.826-1.442-2.478 0-2.766 2.415-4.15 7.244-4.15C412.21 102.37 416.94 102 423.5 102zm34.86 4.447c.83.223 1.246.79 1.246 1.705v.23c-1.172 17.308-2.004 25.962-2.497 25.962l-.27.246h-.74c-.87 0-1.46-.404-1.76-1.213.32-2.31.49-5.543.49-9.703h-.25l-10.51 2.426-.74.966v4.606c0 1.37-.51 2.344-1.51 2.918h-.5c-.94 0-1.53-.404-1.76-1.213 1.16-17.473 2.83-26.21 5.01-26.21h.49l.75.985c-1.17 5.8-1.76 10.084-1.76 12.85 7.67-1.008 11.51-2.22 11.51-3.64l1-10.194 1.76-.72zm13.673.053h.84c1.16 0 2.63 5.36 4.414 16.084 1.406 5.063 2.11 8.502 2.11 10.318-.293.96-.856 1.442-1.688 1.442-1.08 0-1.86-2.56-2.32-7.682l-.21-.228h-.22c-1.83.023-5.69 1.142-11.57 3.357-.57 3.2-1.48 4.8-2.75 4.8-.85-.32-1.27-.96-1.27-1.91 0-1.85 3.86-10.33 11.58-25.45l1.05-.72zm-.424 6.715c-1.69 3.047-3.24 6.252-4.64 9.615h1.47c1.43 0 3.26-.322 5.48-.967l-1.9-8.648h-.42zm22.64-6.768c4.65 0 6.98 1.365 6.98 4.096 0 5.402-5.1 10.29-15.3 14.66-.75 0-1.13.48-1.13 1.442-.11 5.296-.64 7.945-1.59 7.945h-1.12c-.31-.07-.61-.47-.9-1.195l2.02-19.723h-.23c-.6 0-.9-.727-.9-2.18 0-2.355 1.35-3.715 4.06-4.078l8.08-.967zm-9 13.957c5.14-1.347 9.04-3.59 11.7-6.732l.44-1.46v-.474l-1.13-.246h-1.13c-5.99.328-8.99.89-8.99 1.688l-.92 7.224zm29.02-13.957c4.65 0 6.98 1.365 6.98 4.096 0 5.402-5.1 10.29-15.3 14.66-.75 0-1.13.48-1.13 1.442-.11 5.296-.64 7.945-1.59 7.945h-1.13c-.31-.07-.6-.47-.9-1.195l2.02-19.723H503c-.6 0-.896-.727-.896-2.18 0-2.355 1.353-3.715 4.06-4.078l8.086-.967zm-9 13.957c5.14-1.347 9.04-3.59 11.7-6.732l.44-1.46v-.474l-1.13-.246h-1.13c-5.99.328-8.99.89-8.99 1.688l-.92 7.224zm18.12-13.904l5.38 8.156 2.35 1.934c2.97-5.297 5.05-8.502 6.22-9.615h1.07l.86.966c-.12.86-3.48 6.86-10.09 18-1.67 3.13-2.88 5.93-3.66 8.41l-.64.25c-1.01-.47-1.51-1.19-1.51-2.16.05-1.25 1.77-5.17 5.15-11.76-4.87-5.23-7.3-9.47-7.3-12.73.9-.96 1.62-1.44 2.14-1.44zm25.63-4.465c.7.328 1.05.72 1.05 1.178-3.34 10.758-5.01 17.572-5.01 20.443-.95 1.102-1.75 1.653-2.39 1.653-1.06-.38-1.58-.85-1.58-1.41 1.66-14.58 3.86-21.87 6.61-21.87h1.31zm-6.24 26.385c1.66.316 2.49 1.184 2.49 2.6v.23c-.67 2.227-2.27 3.34-4.8 3.34-1.26 0-2.01-.867-2.27-2.602 0-2.004 1.52-3.193 4.57-3.568zM583.86 102h.476c2.04.223 3.06 1.137 3.06 2.742v.545c0 2.742-1.02 5.297-3.06 7.664h-.475c-.31-.08-.62-.53-.93-1.37l1.18-4.09-.95-.56c-2.16.18-6.17 2.37-12.02 6.58v.28l15.56 2.75c1.57 1.14 2.36 3.06 2.36 5.75v1.64c0 3.68-2.59 6.88-7.77 9.6-2.04.73-4 1.09-5.89 1.09h-.47c-5.41 0-8.71-2.19-9.89-6.57v-1.64c0-2.01.55-3.02 1.65-3.02 1.08 3.47 3.04 5.21 5.89 5.21 0 .37 1.18.55 3.53.55 3.49 0 6.87-1.64 10.13-4.92 0-2.17-5.02-3.54-15.08-4.11-3.61-.92-5.41-2.29-5.41-4.09 0-4.45 4.87-8.93 14.61-13.43l3.53-.54zm22.536 4.447c5.004.692 7.506 3.686 7.506 8.983 0 6.937-2.742 12.68-8.226 17.226-2.262 1.29-4.283 1.934-6.065 1.934-4.34 0-7.14-2.344-8.4-7.03l-.17-2.18v-.74c0-7.57 3.46-13.312 10.37-17.226 1.74-.644 3.4-.967 5-.967zm-13.042 18.932c1.804 2.74 4.19 4.11 7.154 4.11 4.77 0 8.103-2.83 10.002-8.49l.35-2.67c0-3.99-1.962-6.33-5.887-7.03h-.545c-3.246 0-6.64 3.23-10.178 9.7-.598 1.94-.896 3.4-.896 4.37zm55.388-18.94c.832.22 1.248.79 1.248 1.7v.23c-1.172 17.31-2.004 25.96-2.496 25.96l-.264.24h-.738c-.867 0-1.453-.41-1.758-1.22.33-2.31.493-5.54.493-9.7h-.247l-10.51 2.42-.74.96v4.6c0 1.37-.503 2.34-1.51 2.92h-.493c-.938 0-1.524-.41-1.758-1.22 1.16-17.47 2.83-26.21 5.01-26.21h.49l.75.99c-1.17 5.8-1.76 10.09-1.76 12.85 7.67-1.01 11.51-2.22 11.51-3.64l1-10.19 1.76-.72zm21.62.05c.81.17 1.214.79 1.214 1.84-.258 1.99-1.06 2.99-2.408 2.99-8.836 0-13.254 1.23-13.254 3.69l-.246 2.07v1.14c5.766-1.38 9.703-2.08 11.812-2.08h.475c.81.35 1.213 1.12 1.213 2.3 0 1.68-1.125 2.53-3.375 2.53-7.395.96-11.092 2.11-11.092 3.46l-.22 2.3v.91c0 1.38.88 2.15 2.64 2.3 2.77-.31 6.23-1 10.37-2.08h.72c.65.25.97.79.97 1.62v.68c0 1.88-4.02 3.34-12.06 4.37h-.72c-2.89 0-4.5-1.84-4.81-5.52 0-2.71.57-7.85 1.69-15.44l-.47-1.39c0-3.12 4.82-4.96 14.45-5.52l3.13-.23zm35.685-.07c1.523 0 2.285.63 2.285 1.89v.47c0 1.74-1.36 2.62-4.078 2.62l-5.08.24c-1.524 8.12-2.285 15.1-2.285 20.95-.41 1.26-.84 1.9-1.27 1.9h-.78c-.88 0-1.39-.24-1.53-.72.85-8.99 1.78-16.29 2.79-21.91l-7.63 1.19c-.72 0-1.14-.72-1.27-2.15 0-2.38 2.12-3.57 6.36-3.57 2.54-.64 6.7-.95 12.46-.95zm14.642.01h2.42c3.71 0 5.57 1.29 5.57 3.88v.24c0 4.53-3.88 8.66-11.64 12.37v.23c3.88 3.56 7.11 6.23 9.7 8.01v.72c0 1.25-.41 2.06-1.22 2.43h-.97l-13.33-9.46-.25 4.85v3.64c-.41.81-1.06 1.21-1.94 1.21-.64 0-1.13-.32-1.46-.97v-1.46l2.18-18.93c-.64 0-.96-.48-.96-1.45 0-2.92 2.42-4.62 7.26-5.1l4.6-.25zm-8.48 13.09h.24c8.39-2.16 12.58-4.5 12.58-7.03v-.25c0-.45-.81-.77-2.43-.97-2.69 0-5.91.56-9.69 1.7l-.72 6.54zm22.11-13.17h1.65c.55 0 .83.32.83.96-1.29 10.52-1.94 17.82-1.94 21.9v2.67c-.37 1.78-1.28 2.67-2.74 2.67h-.55l-1.11-.97c.74-11.04 1.66-19.8 2.76-26.28l1.09-.97zm22.92.12c.81.17 1.21.79 1.21 1.84-.26 1.99-1.06 2.99-2.41 2.99-8.84 0-13.26 1.23-13.26 3.69l-.25 2.07v1.14c5.76-1.38 9.7-2.08 11.81-2.08h.47c.8.35 1.21 1.12 1.21 2.3 0 1.69-1.13 2.53-3.38 2.53-7.4.96-11.09 2.11-11.09 3.46l-.23 2.3v.91c0 1.38.88 2.15 2.64 2.3 2.76-.31 6.22-1 10.37-2.08h.72c.64.25.97.79.97 1.62v.69c0 1.88-4.02 3.34-12.06 4.37h-.72c-2.9 0-4.5-1.84-4.82-5.52 0-2.71.56-7.85 1.69-15.43l-.48-1.39c0-3.12 4.81-4.96 14.45-5.52l3.13-.23zm10.6-.06h1.07c5.1 0 8.22 2.02 9.37 6.06l.21 1.93c0 8.05-5.97 14.68-17.9 19.9l-1.06.24h-.23c-.32 0-.6-.57-.84-1.71l2.13-20.86c-.86 0-1.29-.24-1.29-.72v-.5c0-2.58 1.13-3.87 3.41-3.87l5.11-.49zm-4.26 5.09c-1.28 8.29-1.92 13.87-1.92 16.73v1.21c8.94-4.47 13.41-8.68 13.41-12.62v-.23c0-2.28-.64-3.41-1.92-3.41-1.58-1.13-4.14-1.69-7.67-1.69h-1.92zm49.36-5.12c1.52 0 2.28.63 2.28 1.9v.48c0 1.74-1.36 2.62-4.08 2.62l-5.08.24c-1.53 8.12-2.29 15.1-2.29 20.95-.41 1.27-.83 1.9-1.27 1.9h-.77c-.88 0-1.39-.24-1.53-.72.85-8.99 1.79-16.29 2.79-21.91l-7.63 1.19c-.72 0-1.14-.72-1.27-2.15 0-2.38 2.12-3.57 6.36-3.57 2.54-.64 6.69-.95 12.46-.95zm16.92.02c5 .69 7.5 3.68 7.5 8.98 0 6.94-2.74 12.68-8.23 17.22-2.26 1.29-4.28 1.93-6.06 1.93-4.35 0-7.15-2.34-8.41-7.03l-.18-2.18v-.74c0-7.57 3.46-13.31 10.37-17.23 1.73-.64 3.4-.97 4.99-.97zm-13.05 18.93c1.8 2.74 4.19 4.11 7.15 4.11 4.77 0 8.1-2.83 10-8.49l.35-2.68c0-3.98-1.97-6.33-5.89-7.03h-.55c-3.25 0-6.64 3.23-10.18 9.7-.6 1.94-.9 3.4-.9 4.37zm56.12-18.95c1.52 0 2.28.63 2.28 1.9v.47c0 1.74-1.36 2.62-4.08 2.62l-5.08.24c-1.53 8.12-2.29 15.11-2.29 20.95-.41 1.27-.83 1.9-1.27 1.9h-.77c-.88 0-1.39-.24-1.53-.72.85-8.99 1.78-16.29 2.79-21.9l-7.63 1.2c-.72 0-1.14-.71-1.27-2.14 0-2.38 2.12-3.57 6.36-3.57 2.54-.64 6.69-.95 12.46-.95zm14.64.02H890c3.715 0 5.57 1.29 5.57 3.88v.24c0 4.53-3.88 8.66-11.635 12.37v.23c3.88 3.56 7.11 6.23 9.7 8.01v.72c0 1.26-.407 2.07-1.215 2.43h-.966l-13.325-9.46-.25 4.85v3.64c-.41.81-1.06 1.21-1.94 1.21-.65 0-1.13-.32-1.46-.97v-1.46l2.18-18.93c-.65 0-.97-.48-.97-1.44 0-2.92 2.42-4.62 7.26-5.1l4.6-.25zm-8.47 13.1h.24c8.39-2.16 12.58-4.5 12.58-7.03v-.25c0-.45-.81-.77-2.43-.97-2.69 0-5.92.57-9.69 1.7l-.72 6.54zm22.11-13.17h1.65c.55 0 .82.32.82.97-1.29 10.52-1.93 17.82-1.93 21.9v2.67c-.36 1.78-1.28 2.67-2.74 2.67h-.55l-1.11-.97c.74-11.04 1.66-19.8 2.76-26.28l1.09-.97zm21.3.12h1.04c1.3 0 2.08 1.05 2.34 3.14v.5c0 3.17-1.21 5.27-3.61 6.29l-.42-.5v-.24l1.07-4.12-.85-.48c-3.51 0-7.67 3.31-12.5 9.93-1.15 2-1.73 3.53-1.73 4.59v.24c0 2.58 1.56 3.87 4.67 3.87h.19c3 0 6.32-.8 9.96-2.41h.65c.56.26.84.82.84 1.69v.96c-3 3.07-6.53 4.6-10.58 4.6-5.52-.57-8.28-3.31-8.28-8.22v-.5c0-6.27 4.44-12.4 13.34-18.4 1.68-.65 2.96-.97 3.83-.97zm8.58.1l.7.97-.7 9.14 14.34-7.95c.62.77.93 1.73.93 2.88-1.62 2.27-5.77 5.16-12.46 8.67v.25c3.09 4.02 6.62 7.38 10.58 10.09v.49c0 2.24-.79 3.35-2.36 3.35l-11.74-9.62c-.47 6.41-.94 9.61-1.41 9.61l-1.18.24c-.79-.26-1.18-.74-1.18-1.44l.93-11.3-.23-2.88c.54 0 1.01-3.54 1.4-10.6.65-1.28 1.43-1.92 2.36-1.92zm-786.77 41.84c1.52 0 2.28.63 2.28 1.9v.47c0 1.74-1.36 2.62-4.08 2.62l-5.08.24c-1.52 8.12-2.29 15.1-2.29 20.95-.41 1.27-.83 1.9-1.26 1.9h-.77c-.88 0-1.39-.24-1.53-.72.86-8.99 1.79-16.29 2.8-21.9l-7.63 1.19c-.72 0-1.14-.71-1.27-2.14 0-2.38 2.12-3.57 6.36-3.57 2.54-.63 6.7-.95 12.46-.95zm20.34.02c.83.22 1.25.79 1.25 1.7v.23c-1.17 17.31-2 25.97-2.5 25.97l-.27.25h-.73c-.87 0-1.45-.4-1.76-1.21.33-2.31.49-5.54.49-9.7h-.25l-10.5 2.43-.74.97v4.6c0 1.37-.5 2.34-1.51 2.92h-.49c-.94 0-1.52-.41-1.76-1.22 1.16-17.47 2.83-26.21 5.01-26.21h.49l.76.99c-1.17 5.8-1.76 10.08-1.76 12.85 7.68-1.01 11.52-2.22 11.52-3.64l1-10.19 1.76-.72zm21.62.05c.81.17 1.21.79 1.21 1.84-.26 1.99-1.07 2.99-2.41 2.99-8.84 0-13.26 1.23-13.26 3.69l-.25 2.07v1.14c5.76-1.38 9.7-2.08 11.81-2.08h.47c.81.35 1.21 1.12 1.21 2.3 0 1.69-1.13 2.53-3.38 2.53-7.39.96-11.09 2.12-11.09 3.47l-.23 2.3v.91c0 1.38.88 2.15 2.64 2.3 2.76-.3 6.22-1 10.37-2.07h.72c.64.24.96.78.96 1.62v.68c0 1.88-4.02 3.34-12.06 4.37h-.72c-2.9 0-4.5-1.84-4.82-5.52 0-2.7.56-7.85 1.69-15.43l-.47-1.39c0-3.11 4.81-4.95 14.45-5.52l3.13-.23zm18.5-4.5c1.03 0 1.55 3.16 1.55 9.47l2.06 11.97h.51c0-.68 2.06-4.4 6.19-11.15.64-4.45 1.84-6.68 3.6-6.68h.51c1.03 0 1.89 3.44 2.56 10.31 1.15 4.68 2.01 7.47 2.59 8.36.54-2.37 3.28-9.34 8.23-20.9.73-.74 1.41-1.11 2.06-1.11.93 0 1.53.37 1.81 1.11 0 .95-2.57 7.17-7.71 18.67-.87 2.71-1.64 6.42-2.32 11.14-.55.93-1.24 1.39-2.06 1.39-1.57 0-2.77-3.16-3.61-9.48-1.68-6.15-2.71-9.49-3.1-10.02l-5.15 8.91c-.86 1.74-1.63 4.71-2.32 8.91-.46.68-1.14 1.15-2.06 1.39-1.43 0-2.63-4.83-3.61-14.48-1.37-6.82-2.06-12.3-2.06-16.44 0-.55.77-1.01 2.32-1.39zm34.93 4.37h1.65c.55 0 .82.32.82.96-1.29 10.52-1.93 17.82-1.93 21.9v2.67c-.37 1.78-1.28 2.67-2.74 2.67h-.54l-1.1-.97c.74-11.04 1.66-19.8 2.76-26.28l1.09-.97zm19.02.12h.36c1.62.2 2.43.98 2.43 2.35v.48c0 2.36-.81 4.57-2.43 6.61h-.37c-.26-.07-.51-.47-.76-1.18l.95-3.54-.74-.48c-1.72.15-4.88 2.04-9.49 5.66v.23l12.27 2.37c1.24.98 1.87 2.63 1.87 4.96v1.4c0 3.17-2.04 5.93-6.13 8.26-1.6.63-3.16.95-4.66.95h-.38c-4.27 0-6.87-1.89-7.81-5.66v-1.41c0-1.74.43-2.61 1.3-2.61.86 3 2.41 4.5 4.66 4.5 0 .31.93.46 2.79.46 2.75 0 5.42-1.41 7.99-4.23 0-1.87-3.96-3.06-11.9-3.55-2.86-.79-4.29-1.97-4.29-3.53 0-3.83 3.85-7.69 11.53-11.57l2.79-.48zm25.04 0c.81.17 1.21.79 1.21 1.84-.26 1.99-1.06 2.99-2.41 2.99-8.84 0-13.26 1.23-13.26 3.69l-.25 2.07v1.14c5.76-1.38 9.7-2.07 11.81-2.07h.47c.81.35 1.21 1.12 1.21 2.3 0 1.69-1.13 2.54-3.38 2.54-7.4.96-11.09 2.11-11.09 3.46l-.23 2.3v.92c0 1.38.88 2.15 2.64 2.3 2.76-.3 6.22-1 10.37-2.07h.72c.64.24.96.78.96 1.62v.68c0 1.88-4.02 3.34-12.06 4.37h-.72c-2.9 0-4.5-1.84-4.82-5.52 0-2.71.56-7.85 1.68-15.43l-.48-1.39c0-3.12 4.81-4.96 14.45-5.52l3.12-.23zm28.63-4.43h.53c.87.48 1.3 1.22 1.3 2.21v.56c0 6.01.52 13.05 1.55 21.13h.27c5.72-15.2 9.09-22.8 10.11-22.8h.78c.76 0 1.97 5.28 3.62 15.85 1.56 5.41 2.34 9.95 2.34 13.6-.51 1.3-1.29 1.95-2.34 1.95-.69 0-1.64-4.54-2.85-13.63l-2.07-8.89c-1.49 2.43-4.16 8.72-8.03 18.9-1.11 1.14-2.06 1.79-2.85 1.95-2.25 0-3.37-3.06-3.37-9.18L310.11 154h-.267l-7.77 17.79c-.47 2.967-.9 4.45-1.3 4.45h-1.04l-1.033-1.11v-1.38c0-2.5 2.16-7.87 6.49-16.12 3.07-8.66 5.06-13.11 5.96-13.34l1.28-.285zm41.4 4.43c.81.17 1.22.79 1.22 1.84-.26 1.99-1.06 2.99-2.41 2.99-8.83 0-13.25 1.23-13.25 3.69l-.24 2.07v1.14c5.76-1.38 9.7-2.07 11.81-2.07h.48c.81.35 1.21 1.12 1.21 2.3 0 1.69-1.13 2.54-3.38 2.54-7.4.96-11.09 2.11-11.09 3.46l-.23 2.3v.92c0 1.38.88 2.15 2.64 2.3 2.77-.3 6.22-1 10.37-2.07h.72c.65.24.97.78.97 1.62v.68c0 1.88-4.02 3.34-12.06 4.37h-.72c-2.9 0-4.5-1.84-4.82-5.52 0-2.71.56-7.85 1.69-15.43l-.48-1.39c0-3.12 4.81-4.96 14.45-5.52l3.12-.23zm5.08-.06c1.07 0 2.35 2 3.83 6.01 2.89 5.9 6.09 10.95 9.62 15.15 1.19-11.57 2.06-18.38 2.64-20.45l.97-.72h.72c.48 0 .72.32.72.96-1.44 16.52-2.32 25.34-2.63 26.45l-1.44.47c-2.57 0-6.89-5.45-12.97-16.35l-.97-.97-.25.72-.72 11.07v1.44l.24 1.44c-.21 1.92-.85 2.88-1.92 2.88-.99-.35-1.55-.83-1.69-1.44 1.23-17.32 2.11-25.98 2.63-25.98l1.21-.72zm40.5-.07h1.66c.55 0 .83.32.83.96-1.29 10.52-1.93 17.82-1.93 21.9v2.67c-.36 1.78-1.28 2.67-2.74 2.67h-.55l-1.11-.97c.74-11.04 1.66-19.8 2.76-26.28l1.09-.97zm7.98.07c1.07 0 2.35 2 3.84 6.01 2.89 5.9 6.09 10.95 9.62 15.15 1.19-11.57 2.07-18.38 2.64-20.45l.97-.72h.72c.48 0 .72.32.72.96-1.44 16.52-2.32 25.34-2.64 26.45l-1.44.47c-2.56 0-6.89-5.45-12.97-16.35l-.97-.97-.25.72-.72 11.07v1.44l.25 1.44c-.21 1.92-.85 2.88-1.92 2.88-.98-.35-1.55-.83-1.69-1.44 1.23-17.32 2.11-25.98 2.64-25.98l1.21-.72zm39.43-.02c1.53 0 2.29.63 2.29 1.9v.47c0 1.74-1.36 2.62-4.08 2.62l-5.08.24c-1.52 8.12-2.28 15.1-2.28 20.95-.41 1.27-.83 1.9-1.26 1.9h-.78c-.88 0-1.39-.24-1.53-.72.86-8.99 1.79-16.29 2.8-21.9l-7.63 1.2c-.72 0-1.14-.72-1.27-2.15 0-2.38 2.12-3.57 6.36-3.57 2.54-.63 6.7-.95 12.46-.95zm16.93.02c5.01.69 7.51 3.68 7.51 8.98 0 6.93-2.74 12.68-8.22 17.22-2.26 1.29-4.29 1.93-6.07 1.93-4.35 0-7.15-2.35-8.41-7.03l-.18-2.18v-.74c0-7.57 3.45-13.31 10.37-17.23 1.73-.65 3.4-.97 4.99-.97zm-13.05 18.94c1.81 2.74 4.19 4.11 7.16 4.11 4.77 0 8.11-2.83 10-8.49l.36-2.68c0-3.99-1.97-6.33-5.89-7.03h-.55c-3.25 0-6.64 3.23-10.18 9.7-.6 1.94-.9 3.4-.9 4.37zm52.21-18.88h2.27c1.01.63 1.51 1.34 1.51 2.13-.27 1.89-1.11 2.83-2.51 2.83-4.04 0-7.98.39-11.83 1.18l-.49 5.2 1.25.23h1c2.97 0 6.41-.48 10.32-1.42l.75 1.42c-.38 2.83-1.55 4.25-3.52 4.25-1.22.62-4.66 1.09-10.32 1.4-.4 7.09-1.07 10.64-2.02 10.64l-1 .23h-.25c-.42 0-.68-.31-.76-.95 0-3.85.67-10.93 2-21.23l-.74-.72c0-2.38 1.67-3.79 5.02-4.23 3.36-.64 6.46-.95 9.3-.95zm9.42-.12h1.65c.55 0 .82.32.82.97-1.29 10.52-1.93 17.82-1.93 21.9v2.67c-.36 1.78-1.27 2.67-2.74 2.67h-.54l-1.11-.97c.73-11.04 1.65-19.8 2.76-26.28l1.09-.97zm7.98.07c1.06 0 2.34 2 3.83 6.01 2.88 5.9 6.09 10.95 9.61 15.15 1.18-11.57 2.06-18.38 2.64-20.45l.97-.72h.72c.48 0 .72.32.72.96-1.44 16.52-2.32 25.34-2.63 26.45l-1.44.48c-2.57 0-6.89-5.45-12.98-16.35l-.97-.97-.25.72-.72 11.07v1.44l.24 1.44c-.21 1.92-.85 2.88-1.92 2.88-.99-.35-1.55-.83-1.69-1.44 1.23-17.32 2.11-25.98 2.63-25.98l1.21-.72zm29.28 0h1.07c5.1 0 8.22 2.02 9.37 6.06l.21 1.93c0 8.05-5.96 14.68-17.89 19.9l-1.05.24h-.23c-.32 0-.6-.57-.84-1.71l2.13-20.86c-.86 0-1.28-.24-1.28-.72v-.49c0-2.58 1.13-3.87 3.41-3.87l5.11-.5zm-4.25 5.1c-1.28 8.29-1.92 13.87-1.92 16.73v1.21c8.94-4.47 13.41-8.67 13.41-12.62v-.23c0-2.28-.64-3.41-1.92-3.41-1.58-1.13-4.14-1.69-7.67-1.69h-1.91zm20.55-5.17h1.65c.55 0 .83.32.83.97-1.29 10.52-1.94 17.82-1.94 21.9v2.67c-.37 1.78-1.28 2.67-2.74 2.67h-.54l-1.11-.97c.73-11.04 1.65-19.8 2.76-26.28l1.09-.97zm7.98.07c1.07 0 2.34 2 3.83 6.01 2.88 5.9 6.09 10.95 9.62 15.15 1.18-11.57 2.06-18.38 2.63-20.45l.96-.72h.72c.48 0 .72.32.72.96-1.44 16.52-2.32 25.34-2.64 26.45l-1.45.47c-2.56 0-6.89-5.45-12.97-16.35l-.96-.97-.25.72-.72 11.07v1.44l.24 1.44c-.21 1.92-.85 2.88-1.92 2.88-.99-.36-1.55-.84-1.69-1.45 1.23-17.32 2.11-25.98 2.64-25.98l1.22-.72zm35.35 0h.17c1.56 0 2.6 1.52 3.13 4.57l-.37.48h-.18l-1.48-.48c-4.03.6-8.25 3.4-12.67 8.42-1.23 2.18-1.85 3.7-1.85 4.57v.97c0 2.56 2.64 4.16 7.91 4.79 3.3 0 5.81-1.76 7.52-5.29l-2.2-.95c-.82 0-3.09.96-6.8 2.88-.37-.82-.55-1.62-.55-2.41v-.25c0-2.56 2.45-4.32 7.34-5.29h.37c2.81 0 4.22 1.84 4.22 5.53 0 3.81-3.12 7.18-9.37 10.1l-2.2.48c-3.98 0-6.67-1.69-8.09-5.05l-.37-3.13c0-7.27 3.73-13.44 11.2-18.53 1.89-.97 3.3-1.45 4.24-1.45zm31.62-4.44l9.6.56 5.2-.57.54.84v1.12c0 3-1.74 4.5-5.21 4.5h-.28c-.44 16.28-1.9 24.43-4.38 24.43-1.28 1.12-3.02 1.69-5.22 1.69h-1.92c-6.21-.95-9.32-4.04-9.32-9.27.55-3.14 1.37-5.21 2.46-6.19h.28c.28 0 .74 2.06 1.37 6.18 1.25 2.42 3.26 3.64 6.03 3.64 4.02 0 6.03-1.69 6.03-5.05l1.37-15.73h-3.03c-4.02 0-6.03-.47-6.03-1.41v-.56c.55-2.81 1.38-4.22 2.48-4.22zm34.23 4.5c.81.18 1.21.79 1.21 1.85-.26 1.99-1.06 2.98-2.41 2.98-8.84 0-13.26 1.23-13.26 3.69l-.25 2.07v1.14c5.77-1.38 9.7-2.07 11.81-2.07h.47c.81.35 1.21 1.12 1.21 2.3 0 1.69-1.13 2.54-3.38 2.54-7.4.96-11.09 2.12-11.09 3.47l-.23 2.3v.91c0 1.38.88 2.15 2.63 2.3 2.76-.3 6.22-1 10.37-2.07h.72c.65.25.97.79.97 1.62v.68c0 1.89-4.02 3.35-12.06 4.38h-.72c-2.89 0-4.5-1.84-4.82-5.52 0-2.71.56-7.85 1.68-15.43l-.47-1.39c0-3.12 4.82-4.96 14.45-5.52l3.13-.23zm16.12 0h.37c1.61.2 2.42.98 2.42 2.35v.47c0 2.37-.81 4.57-2.43 6.61h-.37c-.26-.07-.51-.46-.76-1.18l.95-3.54-.74-.48c-1.73.15-4.89 2.04-9.5 5.66v.23l12.3 2.41c1.24.98 1.86 2.63 1.86 4.95v1.4c0 3.17-2.05 5.93-6.14 8.26-1.61.63-3.16.95-4.66.95h-.39c-4.27 0-6.87-1.89-7.81-5.66v-1.42c0-1.74.44-2.6 1.3-2.6.86 3 2.41 4.5 4.66 4.5 0 .3.93.46 2.8.46 2.75 0 5.42-1.41 7.99-4.24 0-1.87-3.97-3.06-11.9-3.55-2.86-.79-4.29-1.97-4.29-3.53 0-3.83 3.84-7.69 11.53-11.57l2.792-.48zm11.47-.05c.75.3 1.16.62 1.25.95-1.33 8.35-2 14.42-2 18.21v2.6c4.48 0 8.15-2.06 11.01-6.16 1.13-9.94 2.21-14.91 3.26-14.91h.26c.99.1 1.49.34 1.49.72-1.5 9.04-2.25 15.82-2.25 20.34v3.77c0 1.24-.51 2.11-1.51 2.6h-1.01l-.98-.95v-.48l.25-4.01c-.6 0-3.85 1.49-9.76 4.48l-1.76.48c-2.01-.26-3.01-1.13-3.01-2.6v-.23c1.22-16.56 2.64-24.84 4.25-24.84h.51zm30.88.05h.37c1.61.2 2.42.98 2.42 2.36v.47c0 2.37-.81 4.57-2.43 6.61h-.37c-.26-.07-.51-.46-.76-1.18l.95-3.53-.74-.48c-1.72.15-4.88 2.04-9.49 5.66v.23l12.27 2.37c1.25.98 1.87 2.63 1.87 4.95v1.4c0 3.17-2.04 5.93-6.13 8.26-1.61.63-3.16.95-4.66.95h-.39c-4.27 0-6.87-1.89-7.81-5.66v-1.42c0-1.74.43-2.6 1.3-2.6.85 3 2.41 4.5 4.66 4.5 0 .3.93.46 2.79.46 2.75 0 5.42-1.41 8-4.24 0-1.87-3.97-3.06-11.9-3.55-2.86-.79-4.29-1.97-4.29-3.53 0-3.83 3.84-7.69 11.53-11.57l2.79-.48zm36.79 0h2.26c1.01.63 1.51 1.34 1.51 2.13-.27 1.88-1.11 2.83-2.52 2.83-4.05 0-7.99.39-11.83 1.18l-.5 5.2 1.25.22h1c2.97 0 6.41-.48 10.32-1.43l.75 1.42c-.38 2.83-1.55 4.25-3.52 4.25-1.21.62-4.65 1.09-10.31 1.41-.4 7.09-1.07 10.63-2.02 10.63l-1 .23h-.24c-.42 0-.67-.31-.76-.95 0-3.85.67-10.93 2-21.23l-.737-.72c0-2.38 1.675-3.79 5.03-4.23 3.36-.63 6.46-.95 9.3-.95zm19.14-.05c5.01.69 7.51 3.68 7.51 8.98 0 6.94-2.74 12.68-8.22 17.23-2.26 1.29-4.28 1.93-6.06 1.93-4.34 0-7.15-2.34-8.4-7.03l-.17-2.18v-.74c0-7.57 3.46-13.31 10.37-17.23 1.74-.65 3.4-.97 4.99-.97zm-13.04 18.93c1.81 2.74 4.19 4.11 7.16 4.11 4.77 0 8.11-2.83 10-8.49l.35-2.67c0-3.99-1.96-6.33-5.88-7.03h-.54c-3.25 0-6.64 3.23-10.18 9.7-.6 1.94-.9 3.4-.9 4.38zm34.76-18.93h2.43c3.72 0 5.57 1.29 5.57 3.88v.24c0 4.53-3.87 8.66-11.63 12.37v.23c3.88 3.56 7.11 6.23 9.7 8.01v.72c0 1.25-.41 2.06-1.22 2.42h-.97l-13.33-9.46-.25 4.85v3.64c-.41.81-1.06 1.21-1.94 1.21-.64 0-1.13-.32-1.46-.96v-1.46l2.18-18.93c-.64 0-.97-.48-.97-1.44 0-2.91 2.42-4.61 7.26-5.09l4.6-.24zm-8.47 13.09h.25c8.39-2.16 12.59-4.5 12.59-7.03v-.25c0-.45-.81-.77-2.43-.97-2.69 0-5.92.56-9.69 1.7l-.72 6.54zm50.19-13.1c.83.22 1.25.79 1.25 1.7v.23c-1.17 17.31-2 25.96-2.5 25.96l-.27.24h-.74c-.87 0-1.46-.4-1.76-1.21.33-2.31.49-5.54.49-9.7h-.24l-10.52 2.42-.74.97v4.61c0 1.37-.51 2.34-1.52 2.92h-.49c-.94 0-1.53-.4-1.76-1.21 1.16-17.48 2.83-26.21 5.01-26.21h.49l.76.98c-1.18 5.8-1.76 10.08-1.76 12.85 7.67-1.01 11.51-2.22 11.51-3.64l1-10.2 1.75-.72zm8.47-.07H863c.55 0 .83.32.83.96-1.29 10.52-1.93 17.83-1.93 21.9v2.67c-.36 1.78-1.28 2.67-2.74 2.67h-.55l-1.11-.96c.74-11.04 1.66-19.8 2.76-26.28l1.09-.97zm15.05.07h.45c.75.41 1.12 1.05 1.12 1.91v.49c0 5.2.46 11.3 1.37 18.28h.23c5.01-13.15 7.97-19.72 8.86-19.72h.68c.67 0 1.73 4.57 3.18 13.71 1.36 4.69 2.04 8.61 2.04 11.78-.45 1.12-1.13 1.68-2.04 1.68-.61 0-1.44-3.93-2.5-11.8l-1.8-7.66c-1.3 2.09-3.65 7.53-7.05 16.35-.97 1-1.81 1.56-2.5 1.69-1.97 0-2.954-2.65-2.954-7.94l-1.124-10.09h-.23l-6.82 15.38c-.41 2.57-.79 3.85-1.14 3.85h-.895l-.916-.95v-1.21c0-2.15 1.89-6.8 5.68-13.94 2.7-7.5 4.44-11.35 5.22-11.55l1.15-.24zm22.97 22.15c1.57 0 2.55.95 2.93 2.86 0 1.91-1.37 2.96-4.12 3.13-1.37-.51-2.06-1.38-2.06-2.6v-.26c.54-2.08 1.61-3.13 3.23-3.13z" fill="#000"/><path d="M1301.072 264.838L1254 302l-5.725-36.8C1150.073 257.73 1074 205.445 1074 142.056 1074 73.542 1162.87 18 1272.5 18S1471 73.542 1471 142.057c0 62.45-73.837 114.124-169.928 122.78z" stroke="#000" stroke-width="4" fill="#FFF"/><path d="M1149.398 72h.985c1.364 0 3.088 5.536 5.172 16.61 1.646 5.23 2.468 8.78 2.468 10.656-.343.99-1 1.484-1.968 1.484-1.26 0-2.167-2.64-2.72-7.922l-.233-.25h-.25c-2.146.02-6.662 1.177-13.547 3.47-.646 3.3-1.714 4.952-3.203 4.952-.99-.344-1.485-1.005-1.485-1.984 0-1.907 4.516-10.662 13.547-26.266l1.234-.75zm-.39 6.938c-1.98 3.145-3.787 6.453-5.422 9.92h1.72c1.676 0 3.81-.332 6.405-1l-2.21-8.92h-.48zm27.11-2.954c.74.198 1.11.703 1.11 1.516v.203c-1.043 15.386-1.783 23.078-2.22 23.078l-.235.22h-.656c-.77 0-1.29-.36-1.562-1.07.29-2.05.437-4.92.437-8.62h-.22l-9.342 2.16-.657.86v4.1c0 1.22-.447 2.09-1.343 2.6h-.438c-.833 0-1.354-.36-1.562-1.07 1.03-15.53 2.515-23.3 4.453-23.3h.437l.672.88c-1.04 5.16-1.562 8.97-1.562 11.43 6.823-.9 10.234-1.97 10.234-3.23l.89-9.06 1.563-.64zm10 18.766c.666.198 1.15.557 1.452 1.078v.422c0 2.48-1.86 5.552-5.578 9.22l-.97.218h-.25c-.874 0-1.52-.36-1.936-1.08v-.217c2.917-3.23 4.375-6.08 4.375-8.56.9-.72 1.87-1.08 2.91-1.08zm26.39-18.72h.75c1.03 0 2.338 4.767 3.922 14.298 1.25 4.5 1.875 7.557 1.875 9.172-.26.854-.76 1.28-1.5 1.28-.96 0-1.646-2.275-2.063-6.827l-.187-.203h-.188c-1.625.02-5.052 1.016-10.28 2.984-.5 2.844-1.314 4.266-2.44 4.266-.75-.292-1.124-.86-1.124-1.703 0-1.646 3.433-9.188 10.297-22.625l.938-.64zm-.375 5.97c-1.5 2.708-2.875 5.557-4.125 8.547h1.312c1.27 0 2.896-.287 4.875-.86L1212.508 82h-.375zm31.422-5.97c4.218 0 6.328 1.44 6.328 4.314v.64c0 2.01-.953 3.948-2.86 5.813v.22c3.136.947 4.704 2.525 4.704 4.733v.86c0 3.604-3.542 6.255-10.625 7.953l-3.485.437h-2.03c-1.095 0-1.642-.573-1.642-1.72v-.218l1.64-17.656c-.687 0-1.03-.14-1.03-.422v-1.296c0-2.438 3-3.657 9-3.657zm-5.938 9.69h.22c6.395 0 9.593-1.44 9.593-4.314-1.052-.708-2.823-1.062-5.313-1.062h-2.453c-1.083 0-1.625.5-1.625 1.5l-.43 3.875zm-.406 4.093l-.4 6.874 2.05.438.21-.22h1.02c5.73-.75 8.6-2.108 8.6-4.077-1.88-2.01-4.82-3.016-8.8-3.016h-.81l-.2-.218-.2.22h-1.43zm25.24-13.782h.75c1.03 0 2.34 4.77 3.92 14.3 1.25 4.5 1.88 7.56 1.88 9.17-.26.86-.76 1.28-1.5 1.28-.96 0-1.64-2.27-2.06-6.82l-.18-.2h-.18c-1.62.02-5.05 1.02-10.28 2.99-.5 2.85-1.31 4.27-2.43 4.27-.75-.29-1.12-.86-1.12-1.7 0-1.64 3.44-9.18 10.3-22.62l.94-.64zm-.37 5.97c-1.5 2.71-2.87 5.56-4.12 8.55h1.32c1.27 0 2.9-.28 4.88-.86l-1.69-7.69h-.37zm18.14-5.97c4.22 0 6.33 1.44 6.33 4.32v.64c0 2.01-.95 3.95-2.86 5.82v.22c3.14.95 4.71 2.53 4.71 4.74v.86c0 3.61-3.54 6.26-10.62 7.96l-3.48.44h-2.03c-1.09 0-1.64-.57-1.64-1.72v-.21l1.64-17.66c-.69 0-1.03-.14-1.03-.42v-1.3c0-2.44 3-3.66 9-3.66zm-5.93 9.69h.22c6.4 0 9.6-1.44 9.6-4.31-1.05-.71-2.82-1.06-5.31-1.06h-2.45c-1.08 0-1.62.5-1.62 1.5l-.42 3.88zm-.4 4.1l-.4 6.88 2.05.44.21-.22h1.02c5.73-.75 8.59-2.1 8.59-4.07-1.88-2.01-4.82-3.01-8.8-3.01h-.81l-.2-.21-.2.22h-1.44zm17.5-13.78l4.78 7.25 2.1 1.72c2.65-4.71 4.49-7.55 5.53-8.54h.96l.77.86c-.1.76-3.09 6.1-8.97 16-1.48 2.78-2.56 5.27-3.25 7.47l-.56.22c-.9-.41-1.34-1.05-1.34-1.92.06-1.11 1.58-4.6 4.58-10.45-4.32-4.64-6.48-8.41-6.48-11.31.8-.85 1.44-1.28 1.91-1.28zm19.93 18.72c.67.2 1.15.56 1.45 1.08v.43c0 2.48-1.86 5.55-5.58 9.22l-.97.22h-.25c-.87 0-1.52-.36-1.93-1.08v-.21c2.92-3.23 4.38-6.08 4.38-8.56.9-.72 1.86-1.08 2.91-1.08zm32.02-18.72h.93c1.16 0 1.85.94 2.08 2.8v.44c0 2.82-1.07 4.69-3.2 5.59l-.37-.43v-.22l.95-3.65-.75-.42c-3.11 0-6.81 2.95-11.11 8.83-1.02 1.78-1.53 3.14-1.53 4.08v.22c0 2.29 1.39 3.44 4.16 3.44h.17c2.67 0 5.62-.71 8.86-2.14h.58c.5.23.75.73.75 1.5v.86c-2.66 2.73-5.8 4.1-9.4 4.1-4.91-.51-7.36-2.95-7.36-7.31v-.44c0-5.57 3.95-11.03 11.86-16.36 1.5-.57 2.64-.86 3.41-.86zm7.64-.04c.67.27 1.04.55 1.11.85-1.18 7.43-1.78 12.83-1.78 16.19v2.31c3.98 0 7.24-1.82 9.78-5.47 1-8.83 1.97-13.25 2.89-13.25h.24c.89.1 1.33.31 1.33.65-1.33 8.04-2 14.07-2 18.08v3.36c0 1.11-.44 1.88-1.34 2.32h-.89l-.87-.84v-.42l.22-3.56c-.53 0-3.42 1.33-8.67 3.99l-1.56.42c-1.78-.23-2.67-1-2.67-2.31v-.2c1.09-14.72 2.35-22.08 3.78-22.08h.46zm31.57-.01c1.36 0 2.03.56 2.03 1.69v.42c0 1.55-1.21 2.33-3.62 2.33l-4.51.22c-1.35 7.22-2.03 13.43-2.03 18.63-.36 1.13-.74 1.69-1.12 1.69h-.68c-.78 0-1.23-.21-1.36-.64.76-7.99 1.59-14.48 2.49-19.47l-6.78 1.06c-.63 0-1.01-.63-1.12-1.9 0-2.11 1.89-3.17 5.66-3.17 2.26-.56 5.96-.85 11.08-.85zm18.1.06c.72.16 1.08.71 1.08 1.65-.23 1.77-.95 2.66-2.14 2.66-7.86 0-11.78 1.09-11.78 3.28l-.22 1.85v1.01c5.13-1.23 8.63-1.84 10.5-1.84h.43c.72.31 1.08 1 1.08 2.05 0 1.5-1 2.25-3 2.25-6.57.86-9.86 1.88-9.86 3.08l-.2 2.05v.81c0 1.23.78 1.91 2.34 2.05 2.46-.27 5.54-.89 9.22-1.84h.64c.58.22.86.7.86 1.44v.61c0 1.67-3.57 2.97-10.72 3.89h-.64c-2.57 0-4-1.64-4.28-4.91 0-2.41.5-6.98 1.5-13.72l-.42-1.24c0-2.77 4.28-4.4 12.84-4.9l2.79-.2zm11.44-3.96c.63.3.94.64.94 1.05-2.97 9.57-4.45 15.62-4.45 18.17-.84.98-1.55 1.47-2.12 1.47-.93-.33-1.4-.75-1.4-1.25 1.48-12.95 3.44-19.43 5.88-19.43h1.18zm-5.55 23.46c1.48.28 2.22 1.05 2.22 2.31v.21c-.59 1.98-2.01 2.97-4.26 2.97-1.11 0-1.78-.77-2.01-2.31 0-1.78 1.36-2.84 4.06-3.17zm-250.1 18.52h.24c1.93 0 3.22 1.57 3.88 4.71l-.45.5h-.23l-1.82-.5c-5.01.62-10.25 3.51-15.73 8.67-1.52 2.24-2.28 3.81-2.28 4.71v.99c0 2.65 3.27 4.3 9.81 4.95 4.1 0 7.22-1.81 9.34-5.45l-2.73-.98c-1.01 0-3.82.99-8.43 2.97-.46-.84-.69-1.66-.69-2.47v-.25c0-2.63 3.04-4.45 9.12-5.45h.46c3.5 0 5.25 1.9 5.25 5.7 0 3.92-3.88 7.38-11.63 10.39l-2.75.5c-4.91 0-8.26-1.73-10.03-5.2l-.45-3.22c0-7.46 4.64-13.82 13.91-19.06 2.34-.99 4.09-1.48 5.25-1.48zm20.22 3.96c4.45.62 6.67 3.28 6.67 7.99 0 6.17-2.44 11.27-7.31 15.31-2.01 1.15-3.81 1.72-5.39 1.72-3.86 0-6.35-2.08-7.47-6.25l-.15-1.94v-.65c0-6.73 3.07-11.83 9.22-15.31 1.54-.57 3.02-.86 4.44-.86zm-11.59 16.83c1.61 2.44 3.73 3.66 6.36 3.66 4.24 0 7.2-2.51 8.89-7.55l.31-2.37c0-3.54-1.74-5.62-5.23-6.25h-.48c-2.89 0-5.9 2.88-9.05 8.63-.53 1.73-.8 3.03-.8 3.89zm42.19-16.78h.75c1.03 0 2.34 4.77 3.92 14.3 1.25 4.5 1.88 7.56 1.88 9.17-.26.86-.76 1.28-1.5 1.28-.95 0-1.64-2.27-2.06-6.82l-.18-.21h-.19c-1.63.02-5.05 1.01-10.28 2.98-.5 2.84-1.31 4.27-2.44 4.27-.75-.29-1.12-.86-1.12-1.7 0-1.64 3.43-9.19 10.3-22.62l.94-.64zm-.38 5.97c-1.5 2.71-2.87 5.56-4.12 8.55h1.32c1.27 0 2.9-.29 4.88-.86l-1.69-7.69h-.37zm11.95-6.01c.95 0 2.09 1.78 3.41 5.34 2.56 5.25 5.41 9.74 8.55 13.47 1.05-10.28 1.83-16.34 2.34-18.17l.86-.64h.64c.43 0 .64.29.64.86-1.28 14.69-2.06 22.53-2.34 23.52l-1.28.42c-2.28 0-6.13-4.84-11.53-14.53l-.86-.86-.21.64-.64 9.85v1.28l.22 1.28c-.19 1.71-.76 2.56-1.7 2.56-.88-.31-1.38-.74-1.5-1.28 1.09-15.4 1.87-23.09 2.34-23.09l1.08-.64zm26.04 0h.96c4.53 0 7.31 1.8 8.33 5.39l.19 1.72c0 7.16-5.3 13.05-15.9 17.69l-.93.22h-.2c-.28 0-.53-.5-.75-1.51l1.89-18.55c-.76 0-1.14-.21-1.14-.64v-.43c0-2.29 1.01-3.43 3.03-3.43l4.55-.44zm-3.78 4.53c-1.13 7.38-1.7 12.33-1.7 14.88v1.08c7.95-3.97 11.92-7.71 11.92-11.22v-.2c0-2.02-.57-3.03-1.7-3.03-1.4-1-3.67-1.5-6.81-1.5h-1.7zm40.39-4.48h2.02c.9.56 1.35 1.19 1.35 1.89-.24 1.68-.98 2.52-2.23 2.52-3.59 0-7.1.35-10.52 1.05l-.43 4.63 1.11.2h.89c2.64 0 5.7-.42 9.17-1.26l.67 1.27c-.34 2.52-1.38 3.78-3.13 3.78-1.08.56-4.14.97-9.17 1.25-.35 6.31-.95 9.46-1.79 9.46l-.89.2h-.22c-.37 0-.6-.28-.67-.84 0-3.43.59-9.72 1.78-18.87l-.66-.64c0-2.11 1.49-3.37 4.47-3.76 2.99-.56 5.74-.84 8.26-.84zm8.38-.11h1.47c.49 0 .74.29.74.86-1.14 9.35-1.72 15.84-1.72 19.47v2.37c-.32 1.58-1.13 2.37-2.43 2.37h-.48l-.99-.86c.65-9.81 1.47-17.59 2.45-23.36l.97-.85zm7.1.06c.95 0 2.08 1.78 3.41 5.35 2.56 5.25 5.41 9.74 8.55 13.47 1.05-10.28 1.83-16.34 2.34-18.17l.86-.64h.64c.43 0 .64.29.64.86-1.28 14.69-2.06 22.52-2.34 23.51l-1.28.42c-2.28 0-6.12-4.84-11.53-14.53l-.86-.86-.22.64-.64 9.85v1.28l.22 1.28c-.19 1.71-.75 2.57-1.7 2.57-.88-.32-1.38-.74-1.5-1.28 1.09-15.4 1.87-23.1 2.34-23.1l1.08-.64zm26.03 0h.95c4.53 0 7.31 1.8 8.33 5.39l.19 1.72c0 7.16-5.3 13.05-15.91 17.69l-.94.22h-.2c-.28 0-.53-.5-.75-1.51l1.89-18.55c-.76 0-1.14-.21-1.14-.64v-.44c0-2.29 1.01-3.44 3.03-3.44l4.55-.44zm-3.78 4.53c-1.14 7.38-1.71 12.34-1.71 14.88v1.08c7.95-3.97 11.93-7.71 11.93-11.22v-.2c0-2.02-.57-3.03-1.7-3.03-1.41-1-3.68-1.5-6.81-1.5h-1.7zm43.22-4.53c.74.2 1.11.71 1.11 1.52v.21c-1.05 15.39-1.79 23.08-2.22 23.08l-.24.22h-.66c-.77 0-1.29-.36-1.56-1.08.29-2.05.44-4.93.44-8.62h-.22l-9.34 2.16-.65.86v4.09c0 1.22-.44 2.09-1.34 2.6h-.44c-.83 0-1.35-.36-1.56-1.07 1.03-15.53 2.52-23.3 4.45-23.3h.44l.67.88c-1.04 5.16-1.56 8.96-1.56 11.42 6.83-.89 10.24-1.97 10.24-3.23l.89-9.06 1.57-.64zm7.53-.06h1.47c.49 0 .73.29.73.86-1.14 9.35-1.72 15.84-1.72 19.47v2.38c-.32 1.58-1.13 2.37-2.43 2.37h-.48l-.98-.86c.66-9.81 1.48-17.6 2.45-23.36l.97-.86zm13.37.06h.41c.67.37 1 .93 1 1.71v.44c0 4.62.41 10.04 1.22 16.25h.2c4.46-11.69 7.09-17.53 7.88-17.53h.61c.59 0 1.54 4.06 2.83 12.18 1.21 4.17 1.82 7.66 1.82 10.47-.4 1-1 1.5-1.81 1.5-.54 0-1.28-3.49-2.22-10.48l-1.622-6.83c-1.156 1.86-3.244 6.7-6.265 14.53-.865.89-1.604 1.39-2.22 1.5-1.75 0-2.624-2.35-2.624-7.06l-1-8.97h-.21l-6.06 13.68c-.36 2.28-.7 3.42-1.01 3.42h-.8l-.816-.85v-1.08c0-1.92 1.68-6.05 5.05-12.39 2.39-6.67 3.94-10.09 4.64-10.27l1.01-.22zm25.03 18.77c.67.2 1.15.56 1.45 1.08v.42c0 2.48-1.86 5.55-5.58 9.22l-.97.22h-.25c-.88 0-1.52-.36-1.94-1.08v-.22c2.92-3.23 4.38-6.08 4.38-8.56.9-.72 1.87-1.07 2.91-1.07zM1163.42 160c1.354 0 2.03.56 2.03 1.684v.424c0 1.553-1.21 2.33-3.625 2.33l-4.515.22c-1.35 7.22-2.03 13.426-2.03 18.624-.36 1.12-.74 1.686-1.12 1.686h-.69c-.78 0-1.23-.215-1.36-.64.76-7.99 1.59-14.48 2.49-19.47l-6.78 1.062c-.633 0-1.01-.63-1.123-1.9 0-2.11 1.886-3.17 5.657-3.17 2.26-.56 5.95-.84 11.08-.84zm18.08.012c.737.198 1.107.703 1.107 1.516v.2c-1.04 15.387-1.78 23.08-2.22 23.08l-.23.22h-.652c-.77 0-1.3-.36-1.57-1.07.29-2.05.44-4.924.44-8.62h-.22l-9.35 2.154-.652.86v4.09c0 1.22-.45 2.09-1.34 2.6h-.44c-.83 0-1.35-.36-1.56-1.077 1.03-15.53 2.516-23.3 4.45-23.3h.44l.67.876c-1.04 5.16-1.56 8.97-1.56 11.43 6.82-.9 10.23-1.97 10.23-3.23l.89-9.06 1.564-.64zm19.216.047c.72.16 1.08.71 1.08 1.65-.23 1.77-.94 2.66-2.14 2.66-7.854 0-11.78 1.09-11.78 3.28l-.22 1.84v1.02c5.125-1.23 8.625-1.84 10.5-1.84h.422c.716.31 1.076.99 1.076 2.04 0 1.5-1 2.25-3 2.25-6.57.85-9.86 1.88-9.86 3.08l-.2 2.05v.81c0 1.23.78 1.91 2.347 2.04 2.46-.27 5.53-.89 9.22-1.85h.64c.57.22.86.7.86 1.44v.61c0 1.67-3.57 2.97-10.72 3.89h-.64c-2.57 0-4-1.64-4.28-4.91 0-2.41.5-6.98 1.5-13.72l-.42-1.24c0-2.77 4.28-4.41 12.84-4.91l2.78-.2zm4.517-.04c.95 0 2.08 1.78 3.41 5.35 2.566 5.25 5.415 9.74 8.55 13.47 1.05-10.29 1.83-16.34 2.34-18.18l.86-.64h.64c.43 0 .64.28.64.86-1.28 14.68-2.06 22.52-2.34 23.51l-1.28.42c-2.28 0-6.12-4.84-11.53-14.53l-.86-.86-.22.64-.64 9.85v1.28l.22 1.28c-.19 1.71-.75 2.56-1.7 2.56-.87-.32-1.37-.74-1.5-1.28 1.1-15.4 1.88-23.1 2.35-23.1l1.08-.64zm36.67-3.95h1.61c.53 0 .8.33.8 1-1.25 10.8-1.873 18.29-1.873 22.47v2.75c-.353 1.83-1.24 2.75-2.66 2.75h-.54l-1.064-1c.71-11.32 1.6-20.31 2.68-26.97l1.067-1zm32.22 4h.92c1.16 0 1.85.93 2.08 2.8v.44c0 2.82-1.07 4.68-3.2 5.59l-.37-.44v-.22l.96-3.65-.75-.43c-3.11 0-6.81 2.94-11.11 8.83-1.02 1.78-1.53 3.14-1.53 4.07v.22c0 2.29 1.39 3.43 4.16 3.43h.17c2.67 0 5.62-.72 8.86-2.14h.58c.5.22.75.72.75 1.5v.85c-2.662 2.73-5.8 4.09-9.402 4.09-4.9-.51-7.36-2.95-7.36-7.31v-.44c0-5.58 3.96-11.03 11.86-16.36 1.5-.58 2.64-.86 3.41-.86zm12.64 0h.75c1.03 0 2.34 4.77 3.92 14.3 1.25 4.5 1.88 7.56 1.88 9.17-.26.85-.76 1.28-1.5 1.28-.96 0-1.644-2.28-2.06-6.83l-.19-.2h-.19c-1.63.02-5.05 1.01-10.28 2.98-.5 2.84-1.31 4.27-2.44 4.27-.75-.29-1.13-.86-1.13-1.71 0-1.65 3.43-9.19 10.29-22.63l.94-.64zm-.37 5.97c-1.5 2.71-2.878 5.56-4.128 8.55h1.313c1.27 0 2.9-.29 4.88-.86l-1.69-7.69h-.377zm11.95-6.02c.947 0 2.083 1.78 3.406 5.34 2.56 5.25 5.41 9.74 8.54 13.47 1.05-10.28 1.83-16.34 2.34-18.17l.86-.64h.64c.43 0 .64.29.64.86-1.28 14.69-2.06 22.53-2.34 23.52l-1.28.42c-2.28 0-6.13-4.84-11.53-14.53l-.86-.86-.22.64-.64 9.85v1.28l.22 1.28c-.19 1.71-.76 2.56-1.71 2.56-.87-.32-1.37-.74-1.5-1.28 1.1-15.4 1.88-23.1 2.35-23.1l1.08-.64zm48.25 0h.624c.568.23.85.73.85 1.5 0 1.04-2.177 5.53-6.53 13.47-2.137 5.94-3.47 9.15-4 9.62l-2.095.42c-.92 0-1.55-1.64-1.91-4.93-2.8-9.88-4.205-15.94-4.205-18.17.23-.65.65-1.15 1.267-1.5h.847c.76 0 1.53 2.99 2.31 8.98l2.53 9.4h.2c1.46-3.86 4.61-9.99 9.47-18.39l.64-.43zm6.484-.07h1.47c.49 0 .738.29.738.86-1.14 9.35-1.72 15.84-1.72 19.47v2.37c-.32 1.58-1.13 2.37-2.43 2.37h-.48l-.98-.86c.656-9.81 1.474-17.6 2.453-23.36l.97-.86zm16.91.11h.33c1.438.18 2.156.87 2.156 2.09v.42c0 2.1-.72 4.06-2.16 5.87h-.33c-.23-.07-.45-.42-.67-1.05l.84-3.14-.66-.43c-1.535.13-4.347 1.81-8.44 5.03v.2l10.904 2.11c1.103.87 1.656 2.34 1.656 4.4v1.25c0 2.82-1.82 5.27-5.456 7.34-1.423.56-2.803.84-4.14.84h-.34c-3.79 0-6.106-1.68-6.94-5.03v-1.26c0-1.55.384-2.32 1.155-2.32.76 2.66 2.14 4 4.14 4 0 .27.83.4 2.48.4 2.45 0 4.82-1.26 7.11-3.77 0-1.67-3.53-2.72-10.58-3.16-2.54-.71-3.81-1.76-3.81-3.14 0-3.41 3.413-6.84 10.25-10.28l2.48-.43zm10.58-.11h1.47c.49 0 .735.29.735.86-1.15 9.35-1.72 15.84-1.72 19.47v2.37c-.32 1.58-1.14 2.37-2.44 2.37h-.486l-.987-.86c.66-9.81 1.48-17.6 2.46-23.36l.97-.86zm21.016.05c1.35 0 2.03.56 2.03 1.68v.42c0 1.55-1.21 2.33-3.63 2.33l-4.52.22c-1.357 7.22-2.03 13.43-2.03 18.62-.37 1.12-.74 1.69-1.13 1.69h-.69c-.783 0-1.236-.22-1.36-.64.76-7.99 1.59-14.48 2.484-19.47l-6.78 1.06c-.636 0-1.01-.64-1.126-1.91 0-2.11 1.89-3.17 5.66-3.17 2.26-.56 5.96-.84 11.08-.84zm-211.76 42c.74.19 1.11.7 1.11 1.51v.2c-1.05 15.38-1.79 23.07-2.22 23.07l-.24.22h-.66c-.77 0-1.295-.36-1.566-1.08.293-2.06.44-4.93.44-8.63h-.22l-9.343 2.16-.65.86v4.09c0 1.22-.44 2.09-1.34 2.6h-.44c-.83 0-1.35-.36-1.56-1.08 1.03-15.53 2.52-23.29 4.46-23.29h.44l.67.87c-1.04 5.16-1.56 8.97-1.56 11.43 6.83-.9 10.24-1.97 10.24-3.23l.89-9.07 1.56-.64zm7.53-.07h1.47c.49 0 .73.28.73.86-1.15 9.35-1.72 15.84-1.72 19.47v2.37c-.33 1.58-1.14 2.37-2.44 2.37h-.49l-.985-.86c.654-9.81 1.472-17.6 2.45-23.36l.97-.86zm13.37.06h.4c.667.36 1 .93 1 1.7v.44c0 4.62.406 10.04 1.22 16.25h.202c4.456-11.69 7.08-17.53 7.873-17.53h.61c.59 0 1.534 4.06 2.83 12.18 1.21 4.17 1.81 7.65 1.81 10.47-.397 1-1 1.5-1.81 1.5-.54 0-1.28-3.5-2.22-10.49l-1.626-6.83c-1.156 1.85-3.245 6.69-6.266 14.53-.864.88-1.604 1.38-2.22 1.5-1.75 0-2.624-2.36-2.624-7.06l-1-8.97h-.205l-6.06 13.67c-.365 2.28-.703 3.42-1.016 3.42h-.79l-.81-.84v-1.08c0-1.92 1.69-6.05 5.05-12.39 2.4-6.67 3.94-10.09 4.64-10.27l1.02-.22zm40.47.05h.75c1.03 0 2.34 4.76 3.92 14.29 1.25 4.5 1.87 7.56 1.87 9.18-.26.86-.76 1.28-1.5 1.28-.96 0-1.646-2.27-2.063-6.82l-.186-.21h-.19c-1.623.02-5.05 1.01-10.28 2.98-.5 2.84-1.312 4.26-2.44 4.26-.75-.29-1.122-.86-1.122-1.7 0-1.65 3.43-9.19 10.294-22.63l.94-.64zm-.38 5.97c-1.5 2.7-2.878 5.55-4.128 8.54h1.31c1.27 0 2.897-.29 4.876-.86l-1.69-7.69h-.38zm21.762-5.97h.33c1.436.17 2.155.87 2.155 2.09v.42c0 2.1-.72 4.06-2.156 5.87h-.33c-.23-.07-.45-.41-.67-1.05l.844-3.14-.653-.42c-1.53.13-4.35 1.81-8.44 5.03v.2l10.9 2.11c1.1.87 1.65 2.34 1.65 4.4v1.25c0 2.83-1.82 5.27-5.45 7.35-1.43.56-2.81.85-4.14.85h-.35c-3.79 0-6.106-1.68-6.94-5.03v-1.27c0-1.55.386-2.32 1.157-2.32.76 2.67 2.14 4 4.14 4 0 .27.83.41 2.485.41 2.45 0 4.82-1.25 7.11-3.76 0-1.66-3.523-2.71-10.58-3.15-2.54-.71-3.81-1.76-3.81-3.14 0-3.41 3.42-6.84 10.25-10.29l2.486-.42zm20.42 0c.7 0 1.048 2.41 1.048 7.25l1.41 9.19h.35c0-.54 1.4-3.38 4.2-8.55.44-3.41 1.26-5.11 2.46-5.11h.346c.7 0 1.29 2.63 1.75 7.89.78 3.59 1.36 5.73 1.75 6.4.37-1.81 2.24-7.15 5.6-16.01.49-.56.96-.84 1.4-.84.62 0 1.03.28 1.22.85 0 .73-1.75 5.49-5.25 14.3-.59 2.08-1.11 4.93-1.58 8.54-.38.7-.84 1.06-1.41 1.06-1.06 0-1.87-2.42-2.44-7.25-1.15-4.72-1.85-7.28-2.11-7.69l-3.5 6.83c-.59 1.33-1.11 3.61-1.58 6.83-.32.52-.78.87-1.39 1.06-.98 0-1.8-3.7-2.46-11.1-.94-5.23-1.41-9.43-1.41-12.59 0-.43.52-.78 1.58-1.06zm38.236 0c.72.15 1.08.7 1.08 1.64-.23 1.77-.95 2.65-2.14 2.65-7.86 0-11.79 1.09-11.79 3.28l-.22 1.84v1.01c5.12-1.23 8.62-1.85 10.5-1.85h.42c.72.31 1.08.99 1.08 2.05 0 1.5-1 2.25-3 2.25-6.58.86-9.86 1.88-9.86 3.08l-.21 2.05v.82c0 1.23.78 1.91 2.35 2.05 2.46-.27 5.53-.89 9.22-1.84h.64c.58.22.86.69.86 1.43v.61c0 1.68-3.57 2.97-10.72 3.89h-.64c-2.57 0-4-1.64-4.28-4.91 0-2.41.5-6.98 1.5-13.72l-.42-1.23c0-2.77 4.28-4.4 12.84-4.9l2.78-.21zm4.29-.05h.22c.67 0 1.24.35 1.7 1.04-.99 7.21-1.7 13.65-2.13 19.34l12.19-2.52.42.62v1.26c0 1.91-4.42 3.66-13.25 5.25-1.57-.28-2.36-.77-2.36-1.47 1.17-15.42 2.02-23.13 2.56-23.13l.64-.42zm16.14 0h.22c.68 0 1.24.35 1.7 1.04-.99 7.21-1.7 13.65-2.13 19.34l12.19-2.52.42.62v1.26c0 1.91-4.42 3.66-13.25 5.25-1.57-.28-2.36-.77-2.36-1.47 1.17-15.42 2.02-23.13 2.56-23.13l.64-.42zm23.28-3.93c.62.29.93.64.93 1.05-2.97 9.56-4.45 15.62-4.45 18.17-.84.98-1.55 1.47-2.12 1.47-.94-.33-1.41-.75-1.41-1.25 1.48-12.96 3.44-19.44 5.88-19.44h1.18zm-5.55 23.45c1.48.28 2.22 1.05 2.22 2.31v.2c-.6 1.98-2.02 2.97-4.27 2.97-1.12 0-1.79-.77-2.02-2.32 0-1.78 1.36-2.84 4.06-3.17z" fill="#000"/></g></svg>