<svg width="1540" height="820" viewBox="0 0 1540 820" xmlns="http://www.w3.org/2000/svg" xmlns:xlink="http://www.w3.org/1999/xlink"><title>story27</title><defs><path id="a" d="M0 0h1540v820H0z"/><mask id="b" x="0" y="0" width="1540" height="820" fill="#fff"><use xlink:href="#a"/></mask></defs><g fill="none" fill-rule="evenodd"><use stroke="#000" mask="url(#b)" stroke-width="8" fill="#D4AA00" xlink:href="#a"/><path stroke="#000" stroke-width="4" fill="#A80" d="M235 132h1066v556H235z"/><path d="M4 2l229.457 129.306c0 .384.523.694 1.174.694h1065.19c.65 0 1.18-.31 1.18-.694L1538 2H4z" stroke="#000" stroke-width="4" stroke-linejoin="bevel" fill="#D4AA00"/><path d="M4 818l229.457-129.306c0-.384.523-.694 1.174-.694h1065.19c.65 0 1.18.31 1.18.694L1538 818H4z" stroke="#000" stroke-width="4" stroke-linejoin="bevel" fill="purple"/><path stroke="#000" stroke-width="4" fill="#00002B" d="M814 190h380v265H814z"/><path fill="#FFE680" d="M903.89 257.34l-11.36-10.833-13.362 8.236 6.795-14.15L874 230.428l15.558 2.088 5.97-14.518 2.82 15.442L914 234.63l-13.815 7.455M963 317.325l-15.566-1.807-5.697 14.598-3.093-15.362-15.644-.906 13.654-7.69-3.97-15.158 11.53 10.61 13.19-8.462-6.527 14.247 12.123 9.93m188.11 37.22l-14.287-7.04-10.435 12.034 2.28-15.77-14.668-6.2 15.696-2.71 1.37-15.87 7.42 14.09 15.514-3.6-11.11 11.41 8.22 13.64m-274.405 72.8l-7.184-14.17-15.52 3.36 11.25-11.21-7.98-13.72 14.14 7.23L881.99 387l-2.51 15.68 14.53 6.41-15.69 2.457-1.607 15.796"/><path stroke="#000" stroke-width="4" fill="#00002B" d="M340 190h380v265H340z"/><path fill="#FFE680" d="M416.89 253.34l-11.36-10.833-13.362 8.236 6.795-14.15L387 226.428l15.558 2.088 5.97-14.518 2.82 15.442L427 230.63l-13.815 7.455M634 382.325l-15.566-1.807-5.697 14.598-3.093-15.362-15.644-.906 13.654-7.69-3.97-15.158 11.53 10.61 13.19-8.462-6.527 14.247 12.123 9.93m37.11-112.78l-14.287-7.04-10.435 12.034 2.28-15.77-14.668-6.2 15.696-2.71 1.37-15.87 7.42 14.09 15.514-3.6-11.11 11.41 8.22 13.64m-134.405 66.8l-7.184-14.17-15.52 3.36 11.25-11.21-7.98-13.72 14.14 7.23L541.99 296l-2.51 15.68 14.53 6.41-15.69 2.457-1.607 15.796m-92.595 89.203l-14.286-7.04-10.435 12.03 2.28-15.77-14.672-6.2 15.698-2.703L424.07 390l7.42 14.09 15.514-3.6-11.11 11.413 8.22 13.644"/><path fill="#FC0" d="M1053.18 298.82L1008 281l45.18-17.82L1071 218l17.82 45.18L1134 281l-45.18 17.82-17.82 76.74"/><path stroke="#000" stroke-width="3.97" fill="#D4AA00" d="M235 132h75v556h-75z"/><path d="M252.63 673V148.865m20 524.135V148.865m20 524.135V148.865" stroke="#000" stroke-width="4"/><path stroke="#000" stroke-width="3.97" fill="#D4AA00" d="M1301 132h-75v556h75z"/><path d="M1283.417 673V148.865m-20 524.135V148.865m-20 524.135V148.865" stroke="#000" stroke-width="4"/><g stroke="#000"><path stroke-width="4" fill="#D4AA00" d="M946.74 446.638h151.023v148.94H946.74z"/><path stroke-width="4" fill="#00F" d="M1022.503 458.534l32.45 32.45-32.45 32.45-32.45-32.45z"/><path stroke-width="4" fill="#D4AA00" d="M1087.086 405.483h27.083v302.083h-27.09zm-158.584 0h27.083v302.083h-27.083z"/><path d="M1109.083 599.695c0 12.427-39.44 22.5-88.095 22.5-23.364 0-45.77-2.37-62.293-6.59-16.52-4.22-25.802-9.942-25.802-15.91 0-5.967 9.28-11.69 25.802-15.91 16.522-4.22 38.93-6.59 62.293-6.59 48.654 0 88.095 10.074 88.095 22.5z" stroke-width="4.148" fill="#D40000"/><path stroke-width="4" fill="#D4AA00" d="M1097.35 538.442h27.193V707.94h-27.192zm-179.222 0h27.192V707.94h-27.192zm41.38-142.596c0 4.736-1.88 9.278-5.23 12.627-3.35 3.35-7.89 5.23-12.627 5.23-9.86 0-17.85-7.995-17.85-17.857 0-4.736 1.88-9.278 5.23-12.627 3.35-3.35 7.89-5.23 12.63-5.23 4.74 0 9.28 1.88 12.63 5.23 3.35 3.34 5.23 7.89 5.23 12.62zm160 0c0 4.736-1.88 9.278-5.23 12.627-3.35 3.35-7.89 5.23-12.627 5.23-9.86 0-17.85-7.995-17.85-17.857 0-4.736 1.88-9.278 5.23-12.627 3.35-3.35 7.89-5.23 12.63-5.23 4.74 0 9.28 1.88 12.63 5.23 3.35 3.34 5.23 7.89 5.23 12.62z"/><path d="M1129.217 542.105c0 4.736-1.88 9.278-5.23 12.627-3.35 3.35-7.89 5.23-12.627 5.23-9.862 0-17.857-7.995-17.857-17.857 0-4.736 1.88-9.278 5.23-12.627 3.35-3.35 7.89-5.23 12.627-5.23 4.736 0 9.278 1.88 12.627 5.23 3.35 3.35 5.23 7.89 5.23 12.627zm-180 0c0 4.736-1.88 9.278-5.23 12.627-3.35 3.35-7.89 5.23-12.627 5.23-9.862 0-17.857-7.995-17.857-17.857 0-4.736 1.88-9.278 5.23-12.627 3.35-3.35 7.89-5.23 12.627-5.23 4.736 0 9.278 1.88 12.627 5.23 3.35 3.35 5.23 7.89 5.23 12.627z" stroke-width="4" fill="#D4AA00"/><path stroke-width="4" fill="#00F" d="M941.516 441.178l-7.07-7.07 7.07-7.072 7.07 7.07zm0 36.002l-7.07-7.07 7.07-7.07 7.07 7.07zm0 38.004l-7.072-7.07 7.072-7.072 7.07 7.07zm159.01-74.006l-7.07-7.07 7.07-7.072 7.07 7.07zm0 36.002l-7.07-7.07 7.07-7.07 7.07 7.07zm0 38.004l-7.07-7.07 7.07-7.072 7.07 7.07z"/><path d="M925.13 578.13c-1.32-2.956.007-6.422 2.962-7.74 1.42-.635 3.033-.68 4.484-.123 1.452.555 2.624 1.665 3.257 3.084.634 1.42.678 3.04.122 4.49-.555 1.45-1.665 2.63-3.084 3.26-2.95 1.32-6.42 0-7.74-2.96zm0 26c-1.32-2.956.007-6.422 2.962-7.74 1.42-.635 3.033-.68 4.484-.123 1.452.555 2.624 1.665 3.257 3.084.634 1.42.678 3.04.122 4.49-.555 1.45-1.665 2.63-3.084 3.26-2.95 1.32-6.42 0-7.74-2.96zm0 26c-1.32-2.956.007-6.422 2.962-7.74 1.42-.635 3.033-.68 4.484-.123 1.452.555 2.624 1.665 3.257 3.084.634 1.42.678 3.04.122 4.49-.555 1.45-1.665 2.63-3.084 3.26-2.95 1.32-6.42 0-7.74-2.96zm0 28c-1.32-2.956.007-6.422 2.962-7.74 1.42-.635 3.033-.68 4.484-.123 1.452.555 2.624 1.665 3.257 3.084.634 1.42.678 3.04.122 4.49-.555 1.45-1.665 2.63-3.084 3.26-2.95 1.32-6.42 0-7.74-2.96zm0 28c-1.32-2.956.007-6.422 2.962-7.74 1.42-.635 3.033-.68 4.484-.123 1.452.555 2.624 1.665 3.257 3.084.634 1.42.678 3.04.122 4.49-.555 1.45-1.665 2.63-3.084 3.26-2.95 1.32-6.42 0-7.74-2.96zm180-107c-1.32-2.956.007-6.422 2.962-7.74 1.42-.635 3.033-.68 4.484-.123 1.452.555 2.624 1.665 3.257 3.084.634 1.42.678 3.04.122 4.49-.555 1.45-1.665 2.63-3.084 3.26-2.95 1.32-6.42 0-7.74-2.96zm0 26c-1.32-2.956.007-6.422 2.962-7.74 1.42-.635 3.033-.68 4.484-.123 1.452.555 2.624 1.665 3.257 3.084.634 1.42.678 3.04.122 4.49-.555 1.45-1.665 2.63-3.084 3.26-2.95 1.32-6.42 0-7.74-2.96zm0 26c-1.32-2.956.007-6.422 2.962-7.74 1.42-.635 3.033-.68 4.484-.123 1.452.555 2.624 1.665 3.257 3.084.634 1.42.678 3.04.122 4.49-.555 1.45-1.665 2.63-3.084 3.26-2.95 1.32-6.42 0-7.74-2.96zm0 28c-1.32-2.956.007-6.422 2.962-7.74 1.42-.635 3.033-.68 4.484-.123 1.452.555 2.624 1.665 3.257 3.084.634 1.42.678 3.04.122 4.49-.555 1.45-1.665 2.63-3.084 3.26-2.95 1.32-6.42 0-7.74-2.96zm0 28c-1.32-2.956.007-6.422 2.962-7.74 1.42-.635 3.033-.68 4.484-.123 1.452.555 2.624 1.665 3.257 3.084.634 1.42.678 3.04.122 4.49-.555 1.45-1.665 2.63-3.084 3.26-2.95 1.32-6.42 0-7.74-2.96zm-130-221c-1.32-2.956.007-6.422 2.962-7.74 1.42-.635 3.033-.68 4.484-.123 1.452.555 2.624 1.665 3.257 3.084.634 1.42.678 3.04.122 4.49-.555 1.45-1.665 2.63-3.084 3.26-2.95 1.32-6.42 0-7.74-2.96zm82 0c-1.32-2.956.007-6.422 2.962-7.74 1.42-.635 3.033-.68 4.484-.123 1.452.555 2.624 1.665 3.257 3.084.634 1.42.678 3.04.122 4.49-.555 1.45-1.665 2.63-3.084 3.26-2.95 1.32-6.42 0-7.74-2.96zm-82 52c-1.32-2.956.007-6.422 2.962-7.74 1.42-.635 3.033-.68 4.484-.123 1.452.555 2.624 1.665 3.257 3.084.634 1.42.678 3.04.122 4.49-.555 1.45-1.665 2.63-3.084 3.26-2.95 1.32-6.42 0-7.74-2.96zm82 0c-1.32-2.956.007-6.422 2.962-7.74 1.42-.635 3.033-.68 4.484-.123 1.452.555 2.624 1.665 3.257 3.084.634 1.42.678 3.04.122 4.49-.555 1.45-1.665 2.63-3.084 3.26-2.95 1.32-6.42 0-7.74-2.96z" stroke-width="3" fill="green"/></g><g transform="translate(28 313)"><path d="M297.4 251.52c8.255-2.02 17.255 4.88 24.372 19.447 6.74 13.793 16.712 24.218 4.025 32.045-7.07 4.362-23.59-.75-21.852-11.16-1.27 5.708-1.046 16.97-4.836 16.917-5.55-.08-11.69-5.59-8.55-16.65.77-2.7.52-5.36 1.29-7.51-.25-.67-.5-1.34-.67-2.03-3.9-15.73-2.05-29.05 6.21-31.07zM36.95 272.045c-6.32 29.472 8.273 38.883 37.144 24.104 31.23-15.99 46.618-12.67 41.907-23.06-5.26-11.6-19.45-28.59-41.9-23.06-13.26 3.27-23.21 13.89-37.14 22z" stroke="#050202" stroke-width="4.008" fill="#DEAA87"/><path stroke="#000" stroke-width="4.008" stroke-linecap="round" stroke-linejoin="bevel" fill="#E3E2DB" d="M2.996 251.473l51.328-22.916 39.036 87.436-51.328 22.916z"/><rect stroke="#000" stroke-width="4.008" fill="#E3E2DB" transform="rotate(-24.058 1107.167 0)" x="3.599" y="221.077" width="41.285" height="19.365" rx="6.138"/><path d="M46.23 295.897c-2 4.478.032 9.74 4.54 11.752 2.164.96 4.62 1.03 6.83.2 2.21-.84 3.99-2.52 4.95-4.67s1.022-4.6.17-6.8c-.85-2.21-2.545-3.99-4.71-4.95-4.507-2.02-9.782-.02-11.78 4.46zm-15.92-34.892c-2 4.478.033 9.74 4.54 11.752 2.164.967 4.622 1.04 6.83.202 2.21-.84 3.99-2.52 4.95-4.67.962-2.15 1.023-4.6.17-6.8-.85-2.21-2.545-3.99-4.71-4.95-4.506-2.02-9.78-.02-11.78 4.46z" stroke="#000" stroke-width="3.006" fill="green"/><path d="M57.63 258.968c0 4.106 6.032 7.436 13.47 7.436 7.44 0 13.47-3.33 13.47-7.436 0-4.107-6.03-7.437-13.47-7.437-7.438 0-13.47 3.33-13.47 7.44z" stroke="#050202" stroke-width="4.008" fill="#DEAA87"/><path d="M140.146 152.26c-16.122 32.878-37.41 60.624-60.334 86.742-3.165 33.078 6.36 40.935 12.837 54.85 24.1-6.32 33.89-9.798 41.07-12.756l6.42-128.835z" stroke="#050202" stroke-width="4.008" fill="#0A0"/><path d="M82.135 258.166l39.844-26.135-.01 17.1-37.3 22.81c-1.48-4.28-2.3-8.88-2.54-13.77z" fill="green"/><path d="M141.877 106.316c0 18.872 6.68 36.97 18.57 50.315 11.893 13.35 28.02 20.85 44.838 20.85 35.02 0 63.408-31.86 63.408-71.15 0-39.3-28.39-71.15-63.408-71.15-16.817 0-32.945 7.5-44.837 20.84-11.89 13.35-18.57 31.45-18.57 50.32z" stroke="#000" stroke-width="4.008" fill="#502D16"/><path d="M269.73 144.042l-6.42 25.512 32.093 109.7 35.944-17.857c-14.297-53.076-33.65-94.846-61.617-117.355z" stroke="#050202" stroke-width="4.008" fill="#0A0"/><path d="M206.828 468.043c0 4.737 3.45 9.28 9.588 12.628 6.14 3.35 14.465 5.24 23.147 5.24 8.68 0 17.007-1.88 23.146-5.23 6.13-3.35 9.58-7.89 9.58-12.63 0-9.86-14.66-17.85-32.74-17.85-18.08 0-32.74 8-32.74 17.86zm-77.662 2.552c0 4.736 3.448 9.278 9.587 12.627 6.14 3.35 14.465 5.23 23.147 5.23 8.68 0 17.007-1.88 23.146-5.23 6.14-3.35 9.588-7.89 9.588-12.627 0-9.863-14.656-17.86-32.734-17.86-18.08 0-32.734 7.997-32.734 17.86z" stroke="#050202" stroke-width="4.008" fill="#2B1100"/><path d="M121.62 284.18c-5.312 57.705-13.832 155.544-1.102 167.46 40.53 17.86 135.082 24.403 166.504-10.626 15.363-30.406 2.52-103.844 6.154-154.127 7.353-101.737-2.75-180.562-91.678-181.75-75.67-1.01-84.81 77.644-79.878 179.044z" stroke="#050202" stroke-width="4.008" fill="#0A0"/><path d="M158.678 88.14c0 15.19 4.973 29.76 13.825 40.5 8.852 10.74 20.858 16.776 33.376 16.776 12.51 0 24.52-6.035 33.37-16.776 8.85-10.74 13.82-25.31 13.82-40.5 0-15.19-4.98-29.76-13.83-40.5-8.85-10.742-20.86-16.776-33.38-16.776-12.52 0-24.53 6.034-33.38 16.775-8.85 10.74-13.83 25.31-13.83 40.5z" stroke="#050202" stroke-width="3.908" fill="#DEAA87"/><path d="M215.97 75.947c0 2.366 1.93 4.284 4.31 4.284 2.383 0 4.313-1.91 4.313-4.28 0-1.13-.454-2.22-1.263-3.03-.808-.8-1.905-1.25-3.05-1.25-1.142 0-2.24.45-3.047 1.26-.81.81-1.263 1.9-1.263 3.03zm-29.963.49c0 2.367 1.93 4.285 4.312 4.285 2.38 0 4.31-1.918 4.31-4.284 0-1.137-.46-2.226-1.27-3.03-.81-.803-1.91-1.255-3.05-1.255s-2.24.452-3.05 1.255c-.81.804-1.27 1.893-1.27 3.03z" fill="#000"/><path d="M222.35 122.755h-32.977l-6.93 341.755c12.944 1.288 32.296 2.33 42.218.46l-2.31-342.215z" stroke="#000" stroke-width="4.008" fill="#0055D4"/><path d="M205.454 162.108c19.04-.05 37.062-43.186 37.062-43.186 20.018-38.054-91.073-33.08-72.738 2.066 0 0 17.464 41.17 35.676 41.12z" stroke="#000" stroke-width="4.008" fill="#502D16"/><path d="M228.717 109.124c-5.976 5.79-43.623 2.11-46.877-.65-3.255-2.758 14.828 22.454 24.174 22.4 9.345-.056 28.68-27.54 22.703-21.75z" stroke="#000" stroke-width="4.008" fill="#DEAA87"/><path d="M264.997 132.598c-3.245-3.61-6.27-7.245-11.897-10.56l-1.04 335.586c4.274-1 8.663-2.564 12.937-4.476v-320.55zm-119.45.69c3.244-3.61 6.384-9.083 12.01-12.396l.693 338.913c-4.273-1-8.893-1.187-13.166-3.1l.462-323.418zm152.16 104.926c-.137-10.39-.868-20.78-1.403-31.172l25.405 56.294c-2.78 1.198-7.07 3.858-12.01 5.813l-12-30.94z" fill="green"/><path stroke="#000" stroke-width="4.731" stroke-linejoin="bevel" fill="#FC0" d="M247.04 58.444l-41.145.183-41.146-.1-13.1-17.698-12.51-17.79 33.05-11.12 33.42-10.89 33.52 10.82 33.16 11.05-12.34 17.81z"/><path d="M215.853 37.362c0 2.8-1.12 5.486-3.112 7.466-1.99 1.98-4.69 3.093-7.51 3.093-5.87 0-10.62-4.72-10.62-10.55s4.76-10.56 10.63-10.56c2.82 0 5.52 1.12 7.52 3.1s3.12 4.67 3.12 7.47zm33.04-5.052c0 2.8-1.12 5.487-3.112 7.467-1.99 1.98-4.69 3.092-7.51 3.092-5.87 0-10.62-4.73-10.62-10.56s4.76-10.56 10.63-10.56c2.82 0 5.52 1.11 7.52 3.09 2 1.98 3.12 4.66 3.12 7.46zm-66.08 0c0 2.8-1.12 5.487-3.113 7.467-1.992 1.98-4.695 3.092-7.513 3.092-5.87 0-10.626-4.73-10.626-10.56s4.76-10.56 10.63-10.56c2.82 0 5.52 1.11 7.52 3.09 2 1.98 3.12 4.66 3.12 7.46z" stroke="#000" stroke-width="4.008" fill="#0A0"/></g><path d="M875.453 580.535c6.32 29.472-8.273 38.883-37.144 24.104-31.23-15.99-46.62-12.67-41.91-23.06 5.26-11.6 19.45-28.59 41.9-23.05 13.26 3.27 23.21 13.89 37.14 22z" stroke="#050202" stroke-width="4.008" fill="#502D16"/><path d="M882.066 544.815c-1.064 2.982-3.436 5.36-6.596 6.61-3.16 1.248-6.846 1.268-10.25.054-3.405-1.22-6.248-3.57-7.903-6.54-1.655-2.97-1.988-6.31-.924-9.29 1.064-2.98 3.436-5.36 6.595-6.61 3.16-1.25 6.847-1.27 10.252-.06 3.404 1.21 6.247 3.56 7.902 6.53 1.655 2.97 1.987 6.31.924 9.29z" stroke="#000" stroke-width="4.008" fill="#F60"/><path stroke="#000" stroke-width="4.008" stroke-linejoin="bevel" fill="#F60" d="M850.653 537.066l34.36 12.257-28.22 79.11-34.36-12.256z"/><path d="M869.036 561.948c-1.373 3.85-5.627 5.85-9.5 4.468-1.862-.664-3.384-2.034-4.233-3.81-.85-1.777-.956-3.814-.297-5.663.66-1.848 2.03-3.358 3.813-4.196 1.78-.838 3.82-.936 5.68-.272 3.87 1.382 5.9 5.623 4.53 9.473zm-8.513 23.83c-1.373 3.85-5.627 5.85-9.5 4.47-1.86-.665-3.384-2.036-4.233-3.812-.85-1.777-.956-3.813-.296-5.662.66-1.85 2.03-3.358 3.813-4.196 1.78-.838 3.828-.936 5.688-.272 3.874 1.382 5.902 5.623 4.528 9.472zm-7.835 22.842c-1.374 3.85-5.628 5.85-9.502 4.47-1.86-.665-3.382-2.035-4.232-3.812-.85-1.776-.955-3.813-.296-5.662.66-1.848 2.03-3.358 3.813-4.196 1.79-.838 3.83-.936 5.69-.272 3.88 1.382 5.9 5.623 4.53 9.473z" stroke="#000" stroke-width="3.006" fill="green"/><path d="M854.772 567.458c0 4.106-6.03 7.436-13.47 7.436s-13.47-3.33-13.47-7.436c0-4.107 6.03-7.437 13.47-7.437s13.47 3.33 13.47 7.44zm-243.687 3.244c-8.257-2.02-17.257 4.88-24.374 19.45-6.73 13.792-16.71 24.217-4.02 32.043 7.07 4.362 23.59-.75 21.86-11.16 1.27 5.71 1.05 16.97 4.84 16.917 5.54-.077 11.69-5.59 8.54-16.645-.77-2.702-.52-5.356-1.29-7.51.24-.662.5-1.332.67-2.03 3.9-15.726 2.05-29.045-6.2-31.065z" stroke="#050202" stroke-width="4.008" fill="#502D16"/><path d="M638.754 455.65l6.418 25.51-32.092 109.702-35.944-17.858c14.297-53.076 33.65-94.846 61.618-117.355z" stroke="#050202" stroke-width="4.008" fill="#330080"/><path d="M701.655 779.65c0 4.737-3.45 9.28-9.588 12.628-6.14 3.35-14.465 5.23-23.146 5.23-8.68 0-17-1.88-23.14-5.23-6.14-3.35-9.59-7.89-9.59-12.628 0-9.863 14.66-17.858 32.74-17.858 18.08 0 32.74 7.995 32.74 17.858zm77.663 2.55c0 4.738-3.45 9.28-9.588 12.63-6.14 3.348-14.465 5.23-23.146 5.23-8.682 0-17.008-1.882-23.147-5.23-6.14-3.35-9.588-7.892-9.588-12.63 0-9.86 14.65-17.857 32.73-17.857s32.73 7.996 32.73 17.858z" stroke="#050202" stroke-width="4.008" fill="#000"/><path d="M772.257 460.75c16.122 32.878 37.41 60.624 60.334 86.742 3.17 33.078-6.36 40.935-12.83 54.85-24.1-6.32-33.89-9.798-41.08-12.756l-6.42-128.835z" stroke="#050202" stroke-width="4.008" fill="#330080"/><path d="M786.864 595.788c5.312 57.704 13.268 154.976 1.1 167.46-12.475 12.798-66.366 23.52-87.333 15.192-21.72 4.498-64.76 12.65-79.17-25.82-15.36-30.405-2.52-103.843-6.15-154.126-7.35-101.737 2.75-180.562 91.68-181.75 75.67-1.01 84.81 77.644 79.88 179.044z" stroke="#050202" stroke-width="4.008" fill="#330080"/><path d="M749.805 399.747c0 15.19-4.973 29.758-13.825 40.5-8.852 10.74-20.857 16.776-33.376 16.776-12.518 0-24.524-6.035-33.376-16.776-8.852-10.742-13.824-25.31-13.824-40.5 0-15.19 4.972-29.76 13.824-40.5 8.852-10.742 20.858-16.776 33.376-16.776 12.52 0 24.524 6.04 33.376 16.78 8.852 10.74 13.825 25.31 13.825 40.5z" stroke="#050202" stroke-width="3.908" fill="#784421"/><path d="M693.784 387.554c0 2.366-1.93 4.284-4.31 4.284-2.383 0-4.313-1.918-4.313-4.284 0-1.136.46-2.226 1.27-3.03.81-.803 1.91-1.255 3.05-1.255s2.24.45 3.05 1.25c.81.8 1.27 1.89 1.27 3.03zm27.42.49c0 2.367-1.93 4.285-4.31 4.285-2.382 0-4.312-1.92-4.312-4.29 0-1.14.454-2.23 1.263-3.03.81-.81 1.905-1.26 3.05-1.26 1.142 0 2.24.45 3.047 1.25.81.8 1.263 1.89 1.263 3.03z" fill="#000"/><path d="M615.096 584.988l172.532.162c-2.174 6.186-1.144 15.018-.49 22.608l-171.39-.325-.652-22.445z" stroke="#000" stroke-width="3.903" fill="#FC0"/><path d="M679.766 412.008c5.976 5.79 43.623 2.11 46.878-.65 3.254-2.758-14.83 22.454-24.174 22.4-9.346-.055-28.68-27.54-22.704-21.75z" stroke="#000" stroke-width="4.008" fill="#784421"/><path d="M701.643 467.248l-17.204-29.61c10.35 5.532 21.45 7.394 34.4 0l-17.21 29.61z" stroke="#000" stroke-width="4.008" stroke-linejoin="round" fill="#000"/><path d="M710.14 493.665c0 4.088-3.335 7.4-7.448 7.4-1.975 0-3.87-.78-5.266-2.166-1.397-1.39-2.182-3.28-2.182-5.24 0-1.96.785-3.85 2.182-5.24 1.396-1.39 3.29-2.17 5.266-2.17 4.113 0 7.448 3.31 7.448 7.4zm0 37.885c0 4.086-3.335 7.4-7.448 7.4-1.975 0-3.87-.78-5.266-2.168-1.397-1.388-2.182-3.27-2.182-5.233 0-1.97.785-3.85 2.182-5.24 1.396-1.39 3.29-2.17 5.266-2.17 4.113 0 7.448 3.31 7.448 7.4zm0 35.356c0 4.088-3.335 7.4-7.448 7.4-1.975 0-3.87-.778-5.266-2.166-1.397-1.388-2.182-3.27-2.182-5.234 0-1.962.785-3.845 2.182-5.233 1.396-1.388 3.29-2.167 5.266-2.167 4.113 0 7.448 3.313 7.448 7.4zm0 65.664c0 4.088-3.335 7.402-7.448 7.402-1.975 0-3.87-.78-5.266-2.168-1.397-1.388-2.182-3.27-2.182-5.233 0-1.96.785-3.84 2.182-5.23 1.396-1.39 3.29-2.17 5.266-2.17 4.113 0 7.448 3.32 7.448 7.4zm0 35.36c0 4.086-3.335 7.4-7.448 7.4-1.975 0-3.87-.78-5.266-2.168-1.397-1.388-2.182-3.27-2.182-5.233 0-1.97.785-3.85 2.182-5.24 1.396-1.39 3.29-2.17 5.266-2.17 4.113 0 7.448 3.31 7.448 7.4zm0 37.882c0 4.087-3.335 7.4-7.448 7.4-1.975 0-3.87-.78-5.266-2.167-1.397-1.388-2.182-3.27-2.182-5.233 0-1.963.785-3.845 2.182-5.233 1.396-1.39 3.29-2.17 5.266-2.17 4.113 0 7.448 3.31 7.448 7.4zm0 40.408c0 4.088-3.335 7.402-7.448 7.402-1.975 0-3.87-.78-5.266-2.168-1.397-1.388-2.182-3.27-2.182-5.233 0-1.96.785-3.84 2.182-5.23 1.396-1.39 3.29-2.17 5.266-2.17 4.113 0 7.448 3.32 7.448 7.4z" stroke="#000" stroke-width="3.006" fill="#FC0"/><path d="M721.398 598.646c0 9.86-8.044 17.854-17.967 17.854-4.76 0-9.33-1.88-12.7-5.23-3.37-3.348-5.26-7.89-5.26-12.624 0-4.735 1.9-9.276 5.26-12.625 3.37-3.34 7.94-5.22 12.71-5.22 9.93 0 17.97 8 17.97 17.86z" stroke="#000" stroke-width="3.808" fill="#FC0"/><path d="M744.96 378.603c-15.854 3.71-41.1-20.698-41.1-20.698s-30.715 28.613-45.404 20.792c-12.445-6.627-13.214-29.22-6.542-41.586 8.982-16.64 32.793-23.81 51.8-23.69 19.92.12 46.048 7.33 53.976 25.49 5.562 12.74 2.277 35.57-12.73 39.7z" stroke="#000" stroke-width="4.008" fill="#4000A1"/><path d="M366.84 571.89c-8.256-2.02-17.256 4.88-24.373 19.448-6.74 13.793-16.713 24.218-4.025 32.044 7.07 4.363 23.59-.75 21.852-11.16 1.27 5.71 1.046 16.97 4.836 16.918 5.54-.078 11.69-5.59 8.54-16.646-.768-2.702-.52-5.356-1.288-7.51.242-.662.494-1.33.667-2.03 3.89-15.725 2.04-29.044-6.21-31.064z" stroke="#050202" stroke-width="4.008" fill="#DEAA87"/><path d="M394.51 456.836l6.418 25.512-32.093 109.7-35.943-17.857c14.297-53.07 33.65-94.84 61.617-117.35z" stroke="#050202" stroke-width="4.008" fill="#FC0"/><path d="M366.533 551.008c.136-10.39.867-20.78 1.402-31.172L342.53 576.13c2.775 1.198 7.07 3.858 12.008 5.813l11.995-30.935z" fill="#A80"/><path d="M388.814 419.11c0 18.872 6.68 36.97 18.57 50.316 11.893 13.344 28.02 20.84 44.838 20.84 35.02 0 63.408-31.857 63.408-71.156 0-39.3-28.39-71.157-63.408-71.157-16.817 0-32.945 7.497-44.837 20.842-11.89 13.344-18.57 31.443-18.57 50.315z" stroke="#000" stroke-width="4.008" fill="#E3DEDB"/><path d="M516.667 456.836l-6.42 25.512 32.093 109.7 35.944-17.857c-14.297-53.07-33.65-94.84-61.617-117.35z" stroke="#050202" stroke-width="4.008" fill="#FC0"/><path d="M453.765 780.837c0 4.737 3.45 9.28 9.588 12.628 6.14 3.35 14.465 5.23 23.147 5.23 8.68 0 17.007-1.88 23.146-5.23 6.14-3.35 9.588-7.89 9.588-12.628 0-9.862-14.656-17.858-32.734-17.858-18.08 0-32.735 7.99-32.735 17.85zm-77.663 2.553c0 4.735 3.45 9.277 9.588 12.626 6.14 3.35 14.465 5.23 23.147 5.23 8.68 0 17.007-1.88 23.146-5.23 6.14-3.35 9.588-7.89 9.588-12.627 0-9.87-14.65-17.86-32.73-17.86s-32.73 7.99-32.73 17.86z" stroke="#050202" stroke-width="4.008" fill="#2B1100"/><path d="M368.557 596.975c-5.312 57.705-13.832 155.543-1.102 167.46 40.53 17.86 135.082 24.402 166.504-10.627 15.36-30.406 2.52-103.844 6.15-154.127 7.35-101.73-2.75-180.56-91.68-181.74-75.67-1.01-84.81 77.65-79.88 179.05z" stroke="#050202" stroke-width="4.008" fill="#FC0"/><path d="M405.615 400.934c0 15.19 4.973 29.76 13.825 40.5 8.852 10.74 20.857 16.776 33.376 16.776 12.518 0 24.524-6.035 33.376-16.776 8.852-10.74 13.825-25.31 13.825-40.5 0-15.19-4.973-29.76-13.825-40.5-8.852-10.742-20.858-16.776-33.376-16.776-12.52 0-24.524 6.034-33.376 16.776-8.852 10.74-13.825 25.31-13.825 40.5z" stroke="#050202" stroke-width="3.908" fill="#DEAA87"/><path d="M462.907 387.478c0 2.367 1.93 4.285 4.31 4.285 2.383 0 4.313-1.918 4.313-4.285 0-1.136-.454-2.226-1.263-3.03-.81-.803-1.905-1.254-3.05-1.254-1.142 0-2.24.45-3.047 1.255-.81.8-1.263 1.89-1.263 3.02zm-29.963.492c0 2.365 1.93 4.284 4.312 4.284 2.38 0 4.31-1.92 4.31-4.285 0-1.14-.453-2.23-1.262-3.03-.808-.81-1.905-1.26-3.048-1.26-1.144 0-2.24.45-3.05 1.25-.808.8-1.262 1.89-1.262 3.03z" fill="#000"/><path d="M469.288 435.55H436.31l-6.93 341.754c12.944 1.288 32.296 2.33 42.218.46l-2.31-342.215z" stroke="#000" stroke-width="4.008" fill="maroon"/><path d="M452.39 502.17l37.063-70.454c20.018-38.054-91.073-33.08-72.738 2.066l35.676 68.388z" stroke="#000" stroke-width="4.008" fill="#E3DBDB"/><path stroke="#000" stroke-width="4.008" stroke-linejoin="round" fill="#FC0" d="M491.644 365.6l52.2-74.434-67.75 33.154-24.725-58.07-24.46 58.4-72.65-32.83 57.8 74.312 79.57-.533z"/><path d="M475.654 421.918c-5.976 5.79-43.623 2.11-46.878-.65-3.254-2.758 14.83 22.454 24.174 22.4 9.346-.056 28.68-27.54 22.704-21.75z" stroke="#000" stroke-width="4.008" fill="#DEAA87"/><path d="M432.548 341.383c0 9.86 8.044 17.854 17.967 17.854 4.765 0 9.335-1.88 12.705-5.23 3.37-3.348 5.262-7.89 5.262-12.624 0-4.735-1.893-9.276-5.262-12.624-3.37-3.35-7.94-5.23-12.705-5.23-9.923 0-17.967 7.99-17.967 17.85z" stroke="#000" stroke-width="4.008" fill="#00F"/><path d="M511.934 445.392c-3.246-3.61-6.27-7.245-11.897-10.56l-1.04 335.586c4.274-1 8.663-2.564 12.937-4.476v-320.55zm-119.45.688c3.244-3.608 6.384-9.08 12.01-12.394l.693 338.913c-4.273-1-8.893-1.19-13.166-3.1l.47-323.42zm152.16 104.928c-.137-10.39-.868-20.78-1.403-31.172l25.41 56.294c-2.77 1.198-7.07 3.858-12.01 5.813l-11.99-30.935z" fill="#A80"/><path d="M544.335 564.313c8.257-2.02 17.257 4.88 24.374 19.45 6.73 13.79 16.71 24.216 4.02 32.043-7.07 4.362-23.59-.75-21.85-11.16-1.27 5.708-1.05 16.97-4.84 16.917-5.54-.077-11.69-5.59-8.54-16.646.77-2.7.52-5.355 1.29-7.508-.24-.67-.5-1.34-.67-2.04-3.9-15.73-2.05-29.05 6.21-31.07z" stroke="#050202" stroke-width="4.008" fill="#DEAA87"/><path stroke="#000" stroke-width="4.008" stroke-linejoin="round" fill="#D4AA00" d="M322.68 556.87h266.57v79.206H322.68z"/><path stroke="#000" stroke-width="4.008" stroke-linejoin="round" fill="#00F" d="M354.596 610.67l-14.24-14.242 14.15-14.152 14.24 14.242z"/><path d="M393.718 596.473c0 2.8 1.12 5.486 3.113 7.466 2 1.98 4.7 3.09 7.52 3.09 5.87 0 10.63-4.73 10.63-10.56s-4.75-10.56-10.62-10.56c-2.82 0-5.52 1.11-7.51 3.09-1.99 1.98-3.11 4.66-3.11 7.46z" stroke="#000" stroke-width="4.008" fill="#D40000"/><path stroke="#000" stroke-width="4.008" stroke-linejoin="round" fill="#00F" d="M558.73 610.67l-14.243-14.242 14.152-14.152 14.24 14.24z"/><path d="M495.308 596.473c0 2.8 1.12 5.486 3.112 7.466 1.993 1.98 4.695 3.09 7.513 3.09 5.87 0 10.626-4.73 10.626-10.56s-4.76-10.56-10.63-10.56c-2.82 0-5.52 1.11-7.52 3.09-2 1.98-3.12 4.66-3.12 7.46z" stroke="#000" stroke-width="4.008" fill="#D40000"/><path stroke="#000" stroke-width="4.008" stroke-linejoin="round" fill="#00F" d="M453.396 610.67l-14.24-14.242 14.15-14.15 14.24 14.24z"/><path d="M1034.622 579.698c-6.432 30.207 8.42 39.852 37.802 24.704 31.782-16.385 47.443-12.984 42.648-23.626-5.356-11.89-19.798-29.296-42.648-23.627-13.5 3.35-23.624 14.23-37.802 22.54z" stroke="#050202" stroke-width="4" fill="#DEAA87"/><path d="M1055.67 566.295c0 4.21 6.136 7.62 13.707 7.62 7.57 0 13.71-3.41 13.71-7.62s-6.14-7.622-13.71-7.622c-7.57 0-13.708 3.412-13.708 7.622z" stroke="#050202" stroke-width="4" fill="#DEAA87"/><path d="M1139.645 456.93c-16.408 33.695-38.07 62.132-61.402 88.9-3.22 33.903 6.473 41.957 13.064 56.22 24.53-6.48 34.496-10.044 41.805-13.075l6.533-132.046z" stroke="#050202" stroke-width="4" fill="#32007E"/><path d="M1080.606 565.473l52.674-34.538-.677 19.542-49.415 29.11c-1.5-4.385-2.336-9.1-2.582-14.114z" fill="#FC0"/><path d="M1396.91 583.52c6.433 30.208-8.42 39.854-37.8 24.706-31.784-16.386-47.444-12.984-42.65-23.627 5.357-11.89 19.8-29.3 42.65-23.63 13.5 3.35 23.623 14.23 37.8 22.55z" stroke="#050202" stroke-width="4" fill="#DEAA87"/><path d="M1375.864 570.118c0 4.21-6.138 7.62-13.71 7.62-7.57 0-13.707-3.41-13.707-7.62s6.137-7.622 13.708-7.622c7.57 0 13.71 3.413 13.71 7.622z" stroke="#050202" stroke-width="4" fill="#DEAA87"/><path d="M1291.888 460.752c16.408 33.697 38.07 62.134 61.402 88.902 3.22 33.903-6.473 41.956-13.065 56.218-24.53-6.478-34.496-10.042-41.805-13.074l-6.532-132.046z" stroke="#050202" stroke-width="4" fill="#32007E"/><path d="M1350.926 569.296l-52.674-34.538.678 19.542 49.414 29.11c1.5-4.384 2.337-9.1 2.583-14.114z" fill="#FC0"/><path d="M1214.97 779.916c0 4.855 3.51 9.51 9.757 12.943 6.248 3.43 14.72 5.36 23.557 5.36 8.835 0 17.308-1.93 23.556-5.36 6.247-3.44 9.757-8.09 9.757-12.95 0-10.11-14.915-18.31-33.313-18.31-18.4 0-33.314 8.19-33.314 18.3zm-79.038 2.614c0 4.856 3.51 9.51 9.758 12.944 6.247 3.432 14.72 5.36 23.556 5.36 8.835 0 17.31-1.928 23.556-5.36 6.248-3.433 9.757-8.088 9.757-12.943 0-10.1-14.92-18.3-33.32-18.3s-33.32 8.2-33.32 18.31z" stroke="#050202" stroke-width="4" fill="#D4AA00"/><path d="M1128.253 591.472c-5.406 59.142-14.076 159.42-1.12 171.632 41.246 18.306 137.472 25.01 169.45-10.89 15.635-31.164 2.565-106.433 6.263-157.968 7.483-104.273-2.797-185.062-93.3-186.28-77.01-1.035-86.312 79.58-81.293 183.506z" stroke="#050202" stroke-width="4" fill="#330080"/><path d="M1230.718 409.872h-33.475l-7.034 366.3c13.13 1.38 32.78 2.496 42.85.49l-2.35-366.79z" stroke="#000" stroke-width="4.085" fill="#D40000"/><path d="M1274.168 436.11c-3.303-3.698-6.38-7.425-12.107-10.82l-1.05 343.947c4.35-1.023 8.82-2.628 13.17-4.587V436.11zm-121.566.707c3.303-3.7 6.5-9.308 12.225-12.704l.705 347.36c-4.35-1.024-9.05-1.217-13.4-3.177l.47-331.48z" fill="#FC0"/><path d="M1164.9 380.478c0 15.57 5.062 30.5 14.07 41.51 9.01 11.008 21.227 17.193 33.967 17.193 12.74 0 24.96-6.18 33.967-17.19 9.01-11.01 14.07-25.94 14.07-41.51 0-15.57-5.06-30.5-14.07-41.51-9.008-11.01-21.227-17.19-33.967-17.19-12.74 0-24.958 6.19-33.967 17.2-9.008 11.01-14.07 25.94-14.07 41.51z" stroke="#050202" stroke-width="3.9" fill="#DEAA87"/><path d="M1221.913 366.687c0 2.425 1.965 4.39 4.388 4.39 2.43 0 4.39-1.965 4.39-4.39 0-1.165-.46-2.282-1.28-3.105-.82-.824-1.94-1.287-3.1-1.287s-2.28.463-3.1 1.287c-.82.823-1.28 1.94-1.28 3.105zm-30.493.503c0 2.425 1.965 4.39 4.388 4.39 2.424 0 4.388-1.965 4.388-4.39 0-1.165-.462-2.282-1.285-3.105-.82-.824-1.93-1.286-3.1-1.286-1.16 0-2.28.46-3.1 1.28-.82.82-1.28 1.94-1.28 3.1z" fill="#000"/><path d="M1153.927 288.026c0 10.106 25.61 18.3 57.2 18.3 15.17 0 29.718-1.93 40.445-5.36 10.727-3.433 16.753-8.087 16.753-12.94s-6.026-9.508-16.753-12.94c-10.727-3.43-25.276-5.36-40.446-5.36-31.59 0-57.2 8.194-57.2 18.3z" stroke="#000" stroke-width="4.158" fill="#D40000"/><path stroke="#000" stroke-width="4" fill="#CDA500" d="M1252.508 341.068l53.123-76.29-68.95 33.982-25.16-59.517-24.89 59.854-73.93-33.646 58.83 76.17 80.99-.54z"/><path d="M1197.017 231.632c0 8.245 6.68 14.928 14.918 14.928 3.956 0 7.75-1.572 10.548-4.372s4.37-6.597 4.37-10.556c0-3.96-1.572-7.757-4.37-10.557-2.797-2.8-6.592-4.372-10.548-4.372-8.24 0-14.918 6.684-14.918 14.93zm94.295 33.668c0 8.244 6.68 14.927 14.918 14.927 3.956 0 7.75-1.572 10.548-4.372s4.37-6.597 4.37-10.556c0-3.96-1.572-7.76-4.37-10.56-2.797-2.8-6.592-4.37-10.548-4.37-8.24 0-14.918 6.68-14.918 14.93zm-191.75-.337c0 8.245 6.68 14.93 14.918 14.93 3.957 0 7.75-1.574 10.55-4.374 2.797-2.8 4.368-6.6 4.368-10.56 0-3.96-1.57-7.76-4.37-10.56-2.797-2.8-6.59-4.37-10.548-4.37-8.238 0-14.917 6.68-14.917 14.93zm93.352 49.442c0 10.106 8.187 18.3 18.286 18.3 4.85 0 9.5-1.93 12.93-5.36 3.428-3.433 5.355-8.087 5.355-12.94s-1.927-9.508-5.356-12.94c-3.43-3.43-8.08-5.36-12.93-5.36-10.1 0-18.29 8.194-18.29 18.3z" stroke="#000" stroke-width="4" fill="#FC0"/><path d="M1189.587 396.884c6.21 3.742 45.317 1.363 48.698-.42 3.38-1.782-15.404 14.512-25.113 14.477-9.708-.03-29.794-17.79-23.585-14.05z" stroke="#000" stroke-width="3.209" fill="#FAA"/><path d="M1212.34 464.603l-16.76-52.803c10.087 9.866 20.893 13.186 33.515 0l-16.758 52.803z" stroke="#000" stroke-width="4" stroke-linecap="round" stroke-linejoin="round" fill="#CCC"/><path d="M1185.973 352.787l20.368 6.087m33.63-6.087l-20.36 6.087m-8.06 28.623c-10.61-9.464-20.19 10.605-29.28.688m31.04-.688c10.62-9.464 20.2 10.605 29.28.688" stroke="#000" stroke-width="4" stroke-linecap="round"/><path d="M1119.43 190.716L1158 255l-113.29-62.504C971.385 185.113 916 151.433 916 111c0-45.84 71.187-83 159-83s159 37.16 159 83c0 37.79-48.38 69.68-114.57 79.716z" stroke="#000" stroke-width="4" fill="#FFF"/><path d="M959.008 78.03h1.61c.53 0 .796.335.796 1-1.25 10.803-1.875 18.293-1.875 22.47v2.75c-.36 1.833-1.24 2.75-2.66 2.75h-.55l-1.07-1c.71-11.323 1.6-20.312 2.67-26.97l1.06-1zm8.75.017c1.22.48 1.828 1.14 1.828 1.984-.26 1.3-1.854 4.16-4.78 8.6h-1.142l-.906-.87v-.67l3.422-6.83c.23-1.47.755-2.2 1.578-2.2zm13.078 3.937h.406c.667.365 1 .933 1 1.704v.437c0 4.625.406 10.042 1.22 16.25h.202c4.458-11.688 7.083-17.53 7.875-17.53h.6c.59 0 1.53 4.06 2.83 12.186 1.2 4.17 1.81 7.66 1.81 10.47-.4 1-1 1.5-1.81 1.5-.55 0-1.29-3.49-2.22-10.48l-1.63-6.83c-1.16 1.86-3.25 6.7-6.27 14.54-.87.89-1.61 1.39-2.22 1.5-1.75 0-2.63-2.35-2.63-7.06l-1-8.97h-.2l-6.07 13.68c-.37 2.28-.71 3.42-1.02 3.42h-.8l-.81-.84v-1.08c0-1.91 1.68-6.04 5.05-12.39 2.39-6.66 3.94-10.09 4.64-10.26l1.01-.22zm36.125-3.953l.77.99-.76 9.42 15.52-8.17c.68.79 1.02 1.78 1.02 2.97-1.75 2.34-6.24 5.3-13.48 8.91v.25c3.35 4.15 7.16 7.62 11.46 10.41v.49c0 2.32-.85 3.47-2.55 3.47l-12.72-9.9c-.5 6.61-1 9.91-1.51 9.91l-1.28.25c-.84-.27-1.26-.76-1.26-1.48l1.02-11.64-.25-2.97c.57 0 1.08-3.63 1.52-10.89.7-1.32 1.55-1.98 2.55-1.98zm21.65 3.9h1.47c.49 0 .74.29.74.86-1.14 9.36-1.72 15.85-1.72 19.47v2.38c-.32 1.59-1.13 2.38-2.43 2.38h-.48l-.98-.86c.66-9.81 1.48-17.59 2.46-23.36l.97-.85zm7.1.06c.95 0 2.09 1.78 3.41 5.35 2.56 5.25 5.41 9.74 8.55 13.47 1.06-10.28 1.84-16.34 2.35-18.17l.86-.64h.64c.43 0 .64.29.64.86-1.28 14.69-2.06 22.53-2.34 23.52l-1.28.42c-2.28 0-6.12-4.84-11.53-14.53l-.86-.86-.22.64-.64 9.85v1.28l.22 1.28c-.19 1.71-.76 2.56-1.7 2.56-.87-.31-1.37-.74-1.5-1.28 1.1-15.39 1.88-23.09 2.35-23.09l1.08-.64zm31.42 0h.16c1.39 0 2.32 1.36 2.78 4.07l-.33.42h-.16l-1.31-.42c-3.58.53-7.34 3.03-11.26 7.49-1.09 1.94-1.64 3.3-1.64 4.07v.86c0 2.28 2.35 3.71 7.03 4.27 2.94 0 5.17-1.57 6.69-4.7l-1.95-.84c-.73 0-2.74.86-6.04 2.56-.32-.73-.48-1.44-.48-2.14v-.22c0-2.27 2.18-3.84 6.53-4.7h.33c2.5 0 3.75 1.64 3.75 4.92 0 3.39-2.77 6.38-8.33 8.99l-1.95.43c-3.53 0-5.92-1.49-7.18-4.48l-.33-2.78c0-6.45 3.32-11.94 9.96-16.46 1.68-.86 2.93-1.28 3.77-1.28zm40.03-3.95c.96.23 1.44.82 1.44 1.75v.25c-1.34 17.82-2.31 26.72-2.89 26.72l-.28.25h-.87c-1 0-1.67-.41-2.01-1.25.39-2.37.58-5.7.58-9.98h-.29l-12.12 2.5-.87 1V104c0 1.417-.58 2.417-1.74 3h-.58c-1.07 0-1.74-.417-2.01-1.25 1.35-17.98 3.27-26.97 5.78-26.97h.58l.86 1c-1.34 5.97-2.01 10.38-2.01 13.236 8.86-1.042 13.28-2.292 13.28-3.75l1.16-10.485 2.03-.75zm19.63 4c.72.16 1.08.71 1.08 1.64-.23 1.77-.94 2.66-2.14 2.66-7.85 0-11.78 1.1-11.78 3.28l-.22 1.85v1.02c5.13-1.23 8.63-1.84 10.5-1.84h.43c.72.32 1.08 1 1.08 2.05 0 1.5-1 2.25-3 2.25-6.57.86-9.86 1.88-9.86 3.08l-.2 2.05v.82c0 1.23.79 1.91 2.35 2.05 2.46-.27 5.53-.88 9.22-1.84h.64c.57.22.86.7.86 1.44v.61c0 1.68-3.57 2.98-10.72 3.89h-.64c-2.57 0-4-1.63-4.28-4.9 0-2.4.5-6.98 1.5-13.72l-.42-1.23c0-2.77 4.28-4.4 12.84-4.9l2.78-.2zm12.72-.04h2.16c3.31 0 4.96 1.15 4.96 3.46v.22c0 4.03-3.45 7.7-10.34 11v.2c3.45 3.17 6.32 5.54 8.63 7.13v.64c0 1.12-.36 1.84-1.08 2.16h-.86l-11.85-8.4-.22 4.32v3.24c-.36.72-.93 1.08-1.72 1.08-.57 0-1-.28-1.29-.86v-1.29l1.94-16.83c-.57 0-.86-.43-.86-1.28 0-2.6 2.15-4.11 6.46-4.53l4.1-.22zm-7.53 11.64h.22c7.46-1.91 11.19-4 11.19-6.25v-.22c0-.39-.72-.68-2.15-.86-2.38 0-5.25.51-8.61 1.52l-.64 5.82zm28.3-11.64c4.45.62 6.68 3.28 6.68 7.99 0 6.17-2.44 11.27-7.31 15.31-2.01 1.15-3.8 1.72-5.39 1.72-3.86 0-6.35-2.08-7.47-6.25l-.15-1.93v-.65c0-6.73 3.07-11.83 9.22-15.31 1.55-.57 3.02-.86 4.44-.86zm-11.59 16.83c1.61 2.44 3.73 3.66 6.36 3.66 4.24 0 7.21-2.51 8.89-7.54l.32-2.37c0-3.54-1.74-5.62-5.23-6.25h-.48c-2.88 0-5.9 2.88-9.04 8.63-.53 1.73-.79 3.03-.79 3.89zM1186.28 82h.954c4.53 0 7.31 1.8 8.33 5.39l.19 1.72c0 7.158-5.3 13.05-15.907 17.69l-.94.22h-.202c-.28 0-.53-.506-.75-1.517l1.89-18.546c-.76 0-1.14-.212-1.14-.64v-.44c0-2.29 1.01-3.434 3.03-3.434l4.55-.44zm-3.78 4.53c-1.136 7.378-1.704 12.336-1.704 14.878v1.08c7.95-3.97 11.924-7.71 11.924-11.22v-.203c0-2.02-.568-3.03-1.704-3.03-1.407-1-3.68-1.5-6.813-1.5h-1.7zm20.734 14.237c.67.198 1.15.557 1.457 1.078v.425c0 2.48-1.86 5.55-5.58 9.22l-.97.22h-.25c-.87 0-1.52-.36-1.93-1.08v-.218c2.92-3.23 4.38-6.08 4.38-8.56.9-.72 1.87-1.077 2.91-1.077zM973.15 124.03c.698 0 1.047 2.418 1.047 7.25l1.407 9.19h.343c0-.533 1.4-3.38 4.203-8.548.438-3.406 1.256-5.11 2.454-5.11h.343c.71 0 1.292 2.63 1.75 7.89.782 3.595 1.365 5.73 1.75 6.407.375-1.82 2.245-7.16 5.61-16.02.49-.57.958-.85 1.406-.85.626 0 1.032.28 1.22.84 0 .73-1.75 5.49-5.25 14.29-.584 2.08-1.11 4.93-1.578 8.55-.375.71-.844 1.06-1.407 1.06-1.062 0-1.875-2.42-2.437-7.25-1.14-4.72-1.85-7.28-2.11-7.69l-3.5 6.83c-.58 1.33-1.11 3.6-1.57 6.82-.31.52-.77.87-1.39 1.06-.98 0-1.79-3.7-2.45-11.1-.93-5.23-1.4-9.43-1.4-12.6 0-.43.53-.78 1.58-1.07zm38.22-.046c.74.198 1.11.703 1.11 1.516v.203c-1.043 15.386-1.783 23.078-2.22 23.078l-.235.22h-.656c-.77 0-1.29-.36-1.57-1.07.29-2.05.43-4.92.43-8.62h-.22l-9.34 2.16-.66.86v4.1c0 1.22-.45 2.09-1.35 2.6h-.44c-.84 0-1.36-.36-1.57-1.07 1.03-15.53 2.52-23.3 4.45-23.3h.43l.67.88c-1.04 5.16-1.56 8.97-1.56 11.43 6.83-.9 10.24-1.97 10.24-3.23l.89-9.06 1.56-.64zm16.17 0c4.45.615 6.673 3.276 6.673 7.985 0 6.16-2.437 11.27-7.312 15.31-2.01 1.14-3.8 1.72-5.39 1.72-3.86 0-6.35-2.09-7.47-6.25l-.15-1.94v-.66c0-6.73 3.08-11.84 9.22-15.31 1.54-.58 3.02-.86 4.44-.86zm-11.593 16.83c1.604 2.436 3.724 3.655 6.36 3.655 4.24 0 7.203-2.52 8.89-7.55l.313-2.38c0-3.54-1.745-5.63-5.235-6.25h-.484c-2.88 0-5.9 2.87-9.04 8.62-.53 1.73-.79 3.02-.79 3.89zm42.188-16.783h.75c1.03 0 2.338 4.77 3.922 14.3 1.25 4.5 1.875 7.56 1.875 9.17-.26.86-.76 1.28-1.5 1.28-.96 0-1.646-2.27-2.063-6.82l-.19-.2h-.19c-1.63.02-5.05 1.02-10.28 2.99-.5 2.85-1.32 4.27-2.44 4.27-.75-.29-1.13-.86-1.13-1.7 0-1.64 3.43-9.18 10.29-22.62l.94-.64zm-.375 5.97c-1.5 2.71-2.875 5.56-4.125 8.55h1.312c1.27 0 2.896-.28 4.875-.86l-1.687-7.68h-.375zm20.156-6.01h2.156c3.302 0 4.953 1.15 4.953 3.46v.22c0 4.04-3.447 7.7-10.343 11v.21c3.448 3.17 6.323 5.54 8.625 7.13v.64c0 1.12-.36 1.84-1.078 2.16h-.86l-11.85-8.4-.22 4.32v3.23c-.37.72-.94 1.08-1.72 1.08-.57 0-1.01-.28-1.3-.86v-1.29l1.93-16.83c-.58 0-.86-.42-.86-1.28 0-2.59 2.15-4.1 6.45-4.53l4.09-.22zm-7.53 11.64h.218c7.458-1.91 11.187-4 11.187-6.25v-.22c0-.39-.72-.68-2.15-.86-2.38 0-5.25.51-8.61 1.52l-.64 5.81zm31.343-11.59c.71.16 1.07.71 1.07 1.64-.23 1.77-.95 2.66-2.14 2.66-7.86 0-11.78 1.1-11.78 3.28l-.22 1.85v1.02c5.12-1.23 8.62-1.84 10.5-1.84h.42c.72.32 1.08 1 1.08 2.05 0 1.5-1 2.25-3 2.25-6.58.86-9.86 1.88-9.86 3.08l-.2 2.05v.81c0 1.23.78 1.91 2.34 2.05 2.46-.27 5.53-.88 9.22-1.84h.64c.57.22.86.7.86 1.44v.61c0 1.68-3.58 2.97-10.72 3.89h-.64c-2.58 0-4-1.63-4.28-4.9 0-2.4.5-6.98 1.5-13.72l-.42-1.23c0-2.77 4.28-4.4 12.84-4.9l2.78-.2zm16.28 0l4.78 7.25 2.09 1.72c2.64-4.71 4.49-7.55 5.53-8.54h.95l.76.86c-.11.76-3.1 6.1-8.97 16-1.48 2.78-2.56 5.27-3.25 7.47l-.56.22c-.9-.41-1.35-1.05-1.35-1.92.05-1.11 1.57-4.6 4.57-10.45-4.33-4.64-6.49-8.41-6.49-11.31.8-.85 1.43-1.28 1.9-1.28zm26.09-.04c4.44.62 6.67 3.28 6.67 7.99 0 6.17-2.44 11.27-7.31 15.31-2.01 1.15-3.81 1.72-5.39 1.72-3.87 0-6.36-2.08-7.47-6.25l-.16-1.93v-.65c0-6.73 3.07-11.83 9.22-15.31 1.54-.57 3.02-.86 4.43-.86zm-11.6 16.83c1.6 2.44 3.72 3.66 6.36 3.66 4.24 0 7.2-2.51 8.89-7.54l.31-2.37c0-3.54-1.75-5.62-5.24-6.25h-.49c-2.89 0-5.9 2.88-9.05 8.63-.53 1.73-.8 3.03-.8 3.89zm23.9-16.83c.66.27 1.03.55 1.11.85-1.19 7.43-1.78 12.83-1.78 16.19v2.31c3.98 0 7.24-1.82 9.78-5.47 1-8.83 1.96-13.25 2.89-13.25h.23c.88.1 1.33.31 1.33.65-1.34 8.04-2 14.07-2 18.08v3.36c0 1.11-.45 1.88-1.35 2.32h-.89l-.88-.84v-.42l.22-3.56c-.54 0-3.43 1.33-8.68 3.99l-1.56.42c-1.78-.23-2.67-1-2.67-2.31v-.2c1.08-14.72 2.34-22.08 3.78-22.08h.45zm24.36-3.92c5.1.49 7.65 1.91 7.65 4.27 0 2.42-3.45 5.34-10.33 8.77l-1.96 2.02v.24l1.78.22h1.06l.36.45v1.13c0 1.68-1.07 2.65-3.21 2.92h-.89c-1.11 0-2-.52-2.68-1.58v-1.57c0-3.43 3.5-7.02 10.5-10.78l.72-.89-2.67-.46h-.36c-3.46 0-6.37 1.58-8.72 4.72-.95-.45-1.42-1.2-1.42-2.25 0-3.55 3.38-5.95 10.14-7.19zm-4.1 22.02c1.54 0 2.31.68 2.31 2.02 0 1.8-1.43 2.93-4.27 3.38h-.18c-1.43-.14-2.14-.89-2.14-2.25 0-1.74 1.42-2.78 4.26-3.14z" fill="#000"/><path d="M607.074 255.938l27.73 79.38-101.616-59.135C499.354 282.503 462.11 286 423 286c-155.192 0-281-55.07-281-123S267.808 40 423 40s281 55.07 281 123c0 37.112-37.55 70.385-96.926 92.938z" stroke="#000" stroke-width="4" fill="#FFF"/><path d="M217.383 94.03c.916 0 1.375 2.81 1.375 8.423l1.828 10.64h.453c0-.603 1.83-3.905 5.5-9.906.57-3.958 1.64-5.937 3.2-5.937h.45c.91 0 1.67 3.052 2.28 9.156 1.02 4.167 1.78 6.646 2.29 7.438.48-2.104 2.91-8.297 7.31-18.578.64-.657 1.25-.985 1.83-.985.82 0 1.36.33 1.61.99 0 .85-2.29 6.38-6.86 16.6-.77 2.41-1.46 5.71-2.06 9.91-.49.83-1.1 1.24-1.83 1.24-1.4 0-2.46-2.8-3.2-8.42-1.49-5.47-2.41-8.44-2.75-8.9l-4.58 7.92c-.76 1.54-1.45 4.18-2.06 7.92-.41.61-1.02 1.02-1.83 1.24-1.27 0-2.34-4.29-3.21-12.87-1.22-6.06-1.83-10.93-1.83-14.61 0-.49.68-.9 2.06-1.23zm42.734 4c.72.158 1.078.704 1.078 1.642-.23 1.77-.942 2.656-2.14 2.656-7.855 0-11.782 1.094-11.782 3.28l-.218 1.845v1.016c5.125-1.23 8.625-1.85 10.5-1.85h.422c.718.31 1.078.99 1.078 2.04 0 1.5-1 2.25-3 2.25-6.573.85-9.86 1.88-9.86 3.08l-.203 2.04v.81c0 1.23.78 1.91 2.344 2.04 2.458-.27 5.53-.89 9.22-1.85h.64c.572.22.86.7.86 1.44v.61c0 1.67-3.574 2.97-10.72 3.89h-.64c-2.574 0-4-1.64-4.282-4.91 0-2.41.5-6.98 1.5-13.72l-.422-1.24c0-2.77 4.28-4.41 12.844-4.91l2.78-.21zm7.36-3.983c1.52.49 2.28 1.156 2.28 2-.322 1.323-2.317 4.23-5.984 8.72h-1.437l-1.125-.892v-.672l4.29-6.922c.29-1.48.96-2.23 1.99-2.23zm14.64 3.937h2.156c3.303 0 4.954 1.15 4.954 3.454v.218c0 4.032-3.448 7.698-10.344 11v.203c3.448 3.16 6.323 5.54 8.625 7.12v.64c0 1.11-.36 1.83-1.078 2.15h-.86l-11.843-8.41-.22 4.31v3.23c-.364.72-.937 1.08-1.718 1.08-.58 0-1.01-.29-1.3-.86v-1.3l1.94-16.83c-.58 0-.86-.43-.86-1.28 0-2.6 2.15-4.11 6.45-4.53l4.09-.22zm-7.53 11.64h.218c7.458-1.916 11.187-4 11.187-6.25v-.218c0-.396-.72-.682-2.156-.86-2.385 0-5.255.506-8.61 1.516l-.64 5.813zM305.93 98.03c.718.16 1.078.705 1.078 1.643-.23 1.77-.943 2.656-2.14 2.656-7.855 0-11.782 1.09-11.782 3.28l-.22 1.84v1.01c5.126-1.23 8.626-1.85 10.5-1.85h.423c.71.31 1.07.99 1.07 2.04 0 1.5-1 2.25-3 2.25-6.58.85-9.86 1.88-9.86 3.08l-.2 2.04v.81c0 1.23.78 1.91 2.34 2.04 2.46-.27 5.53-.89 9.22-1.85h.64c.57.22.86.7.86 1.44v.61c0 1.67-3.58 2.97-10.72 3.89h-.64c-2.58 0-4-1.64-4.28-4.91 0-2.41.5-6.98 1.5-13.72l-.43-1.24c0-2.77 4.28-4.41 12.84-4.91l2.78-.21zm16.437-4c.917 0 1.375 2.81 1.375 8.424l1.828 10.64h.453c0-.603 1.834-3.905 5.5-9.906.573-3.958 1.64-5.937 3.204-5.937h.453c.916 0 1.677 3.06 2.28 9.16 1.022 4.17 1.787 6.65 2.298 7.44.48-2.1 2.916-8.29 7.312-18.58.646-.65 1.256-.98 1.828-.98.823 0 1.36.33 1.61.99 0 .85-2.287 6.38-6.86 16.6-.77 2.41-1.458 5.71-2.062 9.91-.49.82-1.1 1.23-1.828 1.23-1.396 0-2.464-2.8-3.203-8.42-1.49-5.47-2.407-8.43-2.75-8.9l-4.578 7.92c-.76 1.54-1.448 4.18-2.063 7.92-.406.61-1.016 1.02-1.828 1.24-1.27 0-2.34-4.29-3.203-12.87-1.22-6.06-1.828-10.93-1.828-14.61 0-.49.687-.9 2.062-1.23zm31.047 3.893h1.47c.488 0 .733.286.733.86-1.146 9.353-1.72 15.843-1.72 19.468v2.38c-.32 1.59-1.134 2.38-2.436 2.38h-.48l-.98-.86c.66-9.81 1.48-17.59 2.46-23.36l.97-.85zm16.906.11h.328c1.438.176 2.157.874 2.157 2.093v.422c0 2.104-.72 4.062-2.157 5.875h-.328c-.23-.063-.453-.412-.672-1.047l.844-3.14-.656-.422c-1.53.135-4.344 1.812-8.438 5.03v.204l10.907 2.11c1.104.874 1.656 2.343 1.656 4.406v1.25c0 2.822-1.81 5.27-5.45 7.343-1.42.563-2.8.844-4.14.844h-.34c-3.79 0-6.1-1.67-6.93-5.03v-1.26c0-1.54.39-2.31 1.16-2.31.76 2.67 2.14 4 4.14 4 0 .27.83.41 2.49.41 2.45 0 4.82-1.25 7.11-3.76 0-1.66-3.52-2.71-10.58-3.15-2.54-.71-3.81-1.75-3.81-3.14 0-3.4 3.42-6.83 10.25-10.28l2.49-.42zm22.266 0c.72.156 1.078.702 1.078 1.64-.23 1.77-.943 2.656-2.14 2.656-7.855 0-11.782 1.09-11.782 3.28l-.22 1.84v1.01c5.126-1.23 8.626-1.85 10.5-1.85h.423c.72.31 1.078.99 1.078 2.04 0 1.5-1 2.25-3 2.25-6.573.85-9.86 1.88-9.86 3.08l-.202 2.04v.81c0 1.23.79 1.91 2.35 2.04 2.46-.27 5.53-.89 9.22-1.85h.64c.58.22.86.7.86 1.44v.61c0 1.67-3.57 2.97-10.72 3.89h-.64c-2.57 0-4-1.64-4.28-4.91 0-2.41.5-6.98 1.5-13.72l-.42-1.24c0-2.77 4.28-4.41 12.85-4.91l2.78-.2zm10.797-.048h.406c.66.365 1 .933 1 1.704v.43c0 4.62.4 10.04 1.21 16.25h.2c4.46-11.69 7.08-17.53 7.87-17.53h.61c.59 0 1.53 4.06 2.82 12.18 1.21 4.17 1.81 7.65 1.81 10.47-.4 1-1 1.5-1.82 1.5-.54 0-1.28-3.5-2.22-10.49l-1.63-6.83c-1.16 1.85-3.25 6.7-6.27 14.53-.87.88-1.61 1.38-2.22 1.5-1.75 0-2.63-2.36-2.63-7.07l-1-8.97h-.2l-6.06 13.67c-.37 2.28-.71 3.42-1.02 3.42h-.8l-.81-.84v-1.08c0-1.92 1.68-6.05 5.04-12.39 2.39-6.67 3.94-10.09 4.64-10.27l1.01-.22zm34.25.047c.72.158 1.078.704 1.078 1.642-.22 1.77-.94 2.656-2.14 2.656-7.85 0-11.78 1.094-11.78 3.28l-.22 1.845v1.016c5.13-1.23 8.63-1.84 10.5-1.84h.43c.72.32 1.08 1 1.08 2.05 0 1.5-1 2.25-3 2.25-6.57.86-9.86 1.88-9.86 3.08l-.2 2.05v.82c0 1.23.78 1.91 2.35 2.05 2.46-.27 5.53-.88 9.22-1.84h.64c.58.22.86.7.86 1.44v.61c0 1.68-3.57 2.97-10.71 3.89h-.64c-2.57 0-4-1.63-4.28-4.9 0-2.4.5-6.98 1.5-13.72l-.42-1.23c0-2.77 4.28-4.4 12.85-4.9l2.78-.2zm4.515-.046c.948 0 2.084 1.782 3.407 5.344 2.562 5.25 5.41 9.74 8.547 13.47 1.052-10.282 1.833-16.34 2.343-18.173l.86-.64h.64c.427 0 .64.286.64.86-1.28 14.686-2.062 22.525-2.343 23.514l-1.28.42c-2.282 0-6.126-4.84-11.532-14.53l-.86-.86-.218.64-.64 9.85v1.28l.218 1.28c-.188 1.71-.756 2.57-1.703 2.57-.875-.31-1.375-.74-1.5-1.28 1.093-15.39 1.875-23.09 2.343-23.09l1.078-.64zm44.844.047h2.016c.896.564 1.344 1.194 1.344 1.892-.24 1.677-.985 2.516-2.235 2.516-3.594 0-7.1.35-10.515 1.05l-.438 4.63 1.11.21h.89c2.646 0 5.703-.42 9.172-1.26l.672 1.27c-.334 2.52-1.375 3.78-3.125 3.78-1.084.55-4.14.97-9.172 1.25-.35 6.3-.95 9.45-1.79 9.45l-.89.2h-.22c-.37 0-.6-.28-.67-.84 0-3.43.6-9.72 1.78-18.88l-.65-.64c0-2.11 1.49-3.37 4.47-3.76 2.99-.56 5.75-.84 8.27-.84zm14.985-.046h2.156c3.302 0 4.953 1.15 4.953 3.454v.22c0 4.03-3.448 7.7-10.344 11v.21c3.448 3.17 6.323 5.54 8.625 7.13v.64c0 1.12-.36 1.84-1.078 2.16h-.86l-11.85-8.4-.22 4.32v3.24c-.37.72-.94 1.08-1.72 1.08-.57 0-1.01-.28-1.3-.86v-1.29l1.93-16.83c-.58 0-.86-.43-.86-1.28 0-2.59 2.15-4.1 6.45-4.53l4.09-.22zm-7.532 11.64h.22c7.457-1.916 11.187-4 11.187-6.25v-.218c0-.4-.72-.69-2.157-.86-2.385 0-5.255.5-8.61 1.51l-.64 5.81zm28.297-11.64c4.448.615 6.672 3.276 6.672 7.985 0 6.165-2.437 11.27-7.312 15.31-2.01 1.147-3.808 1.72-5.39 1.72-3.866 0-6.355-2.083-7.47-6.25l-.156-1.938v-.656c0-6.73 3.073-11.833 9.22-15.312 1.54-.573 3.02-.86 4.436-.86zm-11.594 16.83c1.605 2.436 3.724 3.655 6.36 3.655 4.24 0 7.203-2.517 8.89-7.548l.313-2.375c0-3.55-1.74-5.63-5.23-6.25H521c-2.885 0-5.9 2.87-9.047 8.62-.53 1.73-.797 3.02-.797 3.89zm28.97-16.83h.405c.667.365 1 .933 1 1.704v.44c0 4.63.407 10.04 1.22 16.25h.202c4.46-11.69 7.084-17.53 7.875-17.53h.61c.593 0 1.536 4.06 2.828 12.19 1.208 4.17 1.812 7.66 1.812 10.47-.396 1-1 1.5-1.812 1.5-.542 0-1.28-3.49-2.22-10.48l-1.624-6.83c-1.156 1.86-3.245 6.7-6.266 14.54-.864.89-1.604 1.39-2.218 1.5-1.75 0-2.625-2.35-2.625-7.06l-1-8.97h-.203l-6.063 13.67c-.37 2.28-.71 3.42-1.02 3.42h-.8l-.82-.84v-1.08c0-1.91 1.68-6.04 5.04-12.39 2.39-6.67 3.94-10.09 4.64-10.26l1.02-.23zm48.17-.015c1.355 0 2.032.56 2.032 1.686v.422c0 1.552-1.208 2.328-3.625 2.328l-4.515.22c-1.354 7.218-2.032 13.426-2.032 18.624-.364 1.125-.74 1.688-1.125 1.688h-.687c-.78 0-1.234-.214-1.36-.64.76-7.99 1.59-14.48 2.485-19.47l-6.78 1.063c-.63 0-1.01-.635-1.12-1.906 0-2.114 1.89-3.17 5.66-3.17 2.26-.564 5.96-.845 11.08-.845zm18.08.014c.74.198 1.11.703 1.11 1.516v.203c-1.043 15.386-1.783 23.078-2.22 23.078l-.235.22h-.656c-.77 0-1.29-.36-1.562-1.078.29-2.052.437-4.927.437-8.625h-.22l-9.342 2.156-.657.86v4.093c0 1.22-.447 2.08-1.343 2.59h-.438c-.833 0-1.354-.36-1.562-1.08 1.03-15.53 2.515-23.3 4.453-23.3h.437l.672.87c-1.04 5.15-1.562 8.96-1.562 11.42 6.823-.9 10.234-1.98 10.234-3.24l.89-9.07 1.563-.64zm19.218.047c.72.158 1.078.704 1.078 1.642-.23 1.77-.943 2.656-2.14 2.656-7.855 0-11.782 1.1-11.782 3.28l-.22 1.85v1.02c5.126-1.23 8.626-1.84 10.5-1.84h.423c.72.32 1.078 1 1.078 2.05 0 1.5-1 2.25-3 2.25-6.573.86-9.86 1.88-9.86 3.08l-.202 2.05v.81c0 1.23.79 1.91 2.35 2.05 2.46-.27 5.53-.88 9.22-1.84h.64c.58.22.86.7.86 1.44v.61c0 1.68-3.57 2.98-10.72 3.89h-.64c-2.57 0-4-1.63-4.28-4.9 0-2.4.5-6.98 1.5-13.72l-.42-1.23c0-2.77 4.28-4.41 12.85-4.91l2.78-.2zm-389.25 38c.854.178 1.28.814 1.28 1.907-.28 2.053-1.14 3.08-2.577 3.08-9.44 0-14.16 1.264-14.16 3.796l-.25 2.14v1.188c6.14-1.426 10.35-2.14 12.61-2.14h.51c.85.354 1.28 1.146 1.28 2.375 0 1.74-1.2 2.61-3.6 2.61-7.9.99-11.85 2.17-11.85 3.56l-.25 2.37v.95c0 1.42.94 2.22 2.83 2.37 2.94-.32 6.63-1.03 11.06-2.14h.77c.68.26 1.03.81 1.03 1.67v.7c0 1.95-4.29 3.45-12.86 4.51h-.79c-3.1 0-4.81-1.9-5.14-5.7 0-2.79.6-8.1 1.79-15.91l-.52-1.42c0-3.22 5.15-5.12 15.45-5.71l3.34-.24zm10.906 4h.75c1.03 0 2.34 4.767 3.922 14.298 1.25 4.5 1.875 7.56 1.875 9.18-.26.86-.76 1.28-1.5 1.28-.96 0-1.65-2.27-2.07-6.82l-.19-.2h-.19c-1.63.02-5.06 1.02-10.29 2.99-.5 2.85-1.31 4.27-2.44 4.27-.75-.29-1.13-.86-1.13-1.7 0-1.64 3.43-9.18 10.29-22.62l.93-.64zm-.375 5.97c-1.5 2.708-2.875 5.557-4.125 8.547h1.313c1.27 0 2.896-.287 4.875-.86l-1.688-7.69h-.375zm21.766-5.97h.328c1.44.178 2.16.876 2.16 2.095v.422c0 2.104-.72 4.062-2.15 5.875h-.32c-.23-.063-.45-.412-.67-1.047l.85-3.14-.65-.423c-1.53.136-4.34 1.813-8.43 5.032v.203l10.91 2.11c1.11.874 1.66 2.343 1.66 4.405v1.25c0 2.823-1.81 5.27-5.45 7.344-1.42.56-2.8.84-4.14.84h-.34c-3.79 0-6.1-1.68-6.94-5.03v-1.27c0-1.55.39-2.32 1.16-2.32.76 2.67 2.14 4 4.14 4 0 .27.83.41 2.48.41 2.45 0 4.82-1.26 7.11-3.77 0-1.67-3.53-2.72-10.58-3.16-2.54-.71-3.81-1.76-3.81-3.14 0-3.41 3.42-6.84 10.25-10.29l2.48-.42zm22.906-.06c1.35 0 2.03.56 2.03 1.686v.42c0 1.55-1.21 2.33-3.63 2.33l-4.52.22c-1.36 7.21-2.04 13.42-2.04 18.62-.37 1.12-.74 1.69-1.13 1.69h-.69c-.78 0-1.24-.22-1.36-.64.76-7.99 1.59-14.48 2.48-19.47l-6.78 1.06c-.64 0-1.01-.64-1.13-1.91 0-2.12 1.88-3.17 5.65-3.17 2.26-.56 5.95-.85 11.08-.85zm4.26 19.702c1.39 0 2.26.85 2.61 2.547 0 1.697-1.22 2.624-3.66 2.78-1.22-.458-1.83-1.23-1.83-2.313v-.24c.48-1.86 1.43-2.78 2.87-2.78zm21.36-23.64c.91 0 1.37 2.807 1.37 8.42l1.82 10.642h.45c0-.604 1.83-3.906 5.5-9.906.57-3.96 1.64-5.93 3.2-5.93h.45c.92 0 1.68 3.05 2.28 9.16 1.02 4.17 1.79 6.65 2.3 7.44.48-2.1 2.91-8.29 7.31-18.57.65-.66 1.25-.98 1.83-.98.82 0 1.36.33 1.61.99 0 .84-2.29 6.38-6.86 16.59-.77 2.41-1.46 5.71-2.06 9.91-.49.83-1.1 1.24-1.83 1.24-1.4 0-2.47-2.8-3.21-8.42-1.49-5.47-2.41-8.43-2.75-8.9l-4.58 7.93c-.76 1.54-1.45 4.19-2.06 7.93-.41.6-1.02 1.01-1.83 1.23-1.27 0-2.34-4.29-3.2-12.87-1.22-6.06-1.83-10.93-1.83-14.61 0-.49.69-.9 2.06-1.23zm42.73 4c.72.156 1.08.702 1.08 1.64-.23 1.77-.95 2.656-2.14 2.656-7.86 0-11.78 1.1-11.78 3.28l-.22 1.85v1.02c5.12-1.23 8.62-1.84 10.5-1.84h.42c.72.32 1.08 1 1.08 2.05 0 1.5-1 2.25-3 2.25-6.57.86-9.86 1.88-9.86 3.08l-.2 2.05v.81c0 1.23.78 1.91 2.34 2.05 2.46-.27 5.53-.88 9.22-1.84h.64c.57.22.86.7.86 1.44v.61c0 1.68-3.58 2.98-10.72 3.89h-.64c-2.58 0-4-1.63-4.28-4.9 0-2.4.5-6.98 1.5-13.72l-.42-1.23c0-2.77 4.28-4.41 12.84-4.91l2.78-.2zm7.36-3.985c1.52.49 2.28 1.156 2.28 2-.32 1.323-2.32 4.23-5.99 8.72h-1.44l-1.13-.892v-.672l4.28-6.922c.29-1.488.95-2.233 1.98-2.233zm20.28 3.937h.62c.56.23.84.73.84 1.5 0 1.042-2.18 5.532-6.53 13.47-2.14 5.947-3.47 9.155-4 9.624l-2.1.43c-.92 0-1.55-1.64-1.91-4.92-2.81-9.88-4.21-15.94-4.21-18.17.23-.64.65-1.14 1.27-1.5h.84c.76 0 1.53 3 2.31 8.99l2.53 9.41h.2c1.46-3.85 4.61-9.98 9.47-18.39l.64-.42zm18.17.047c.72.158 1.08.704 1.08 1.642-.23 1.77-.95 2.656-2.15 2.656-7.86 0-11.78 1.094-11.78 3.28l-.22 1.845v1.016c5.12-1.23 8.62-1.845 10.5-1.845h.42c.72.313 1.07.995 1.07 2.047 0 1.5-1 2.25-3 2.25-6.58.854-9.86 1.88-9.86 3.078l-.2 2.047v.812c0 1.23.78 1.91 2.34 2.046 2.45-.27 5.53-.885 9.21-1.844h.64c.57.22.86.698.86 1.438v.61c0 1.676-3.57 2.973-10.72 3.89h-.64c-2.58 0-4-1.635-4.28-4.906 0-2.407.5-6.98 1.5-13.72l-.42-1.233c0-2.77 4.28-4.406 12.84-4.906l2.78-.203zm29.64 0h.92c1.16 0 1.85.934 2.08 2.798v.438c0 2.823-1.07 4.687-3.21 5.593l-.38-.438v-.22l.95-3.655-.75-.422c-3.12 0-6.82 2.943-11.11 8.828-1.02 1.78-1.53 3.14-1.53 4.078v.22c0 2.292 1.38 3.438 4.15 3.438h.17c2.67 0 5.62-.714 8.86-2.14h.58c.5.228.75.728.75 1.5v.858c-2.67 2.73-5.81 4.094-9.41 4.094-4.91-.51-7.36-2.948-7.36-7.313v-.43c0-5.57 3.95-11.02 11.86-16.36 1.5-.57 2.63-.86 3.41-.86zm16.65-.046c4.45.615 6.67 3.276 6.67 7.985 0 6.165-2.44 11.27-7.32 15.31-2.01 1.147-3.81 1.72-5.39 1.72-3.87 0-6.36-2.083-7.47-6.25l-.16-1.938v-.656c0-6.73 3.07-11.84 9.22-15.32 1.54-.58 3.02-.86 4.43-.86zm-11.59 16.828c1.6 2.438 3.72 3.657 6.36 3.657 4.24 0 7.2-2.517 8.89-7.548l.31-2.375c0-3.542-1.75-5.625-5.24-6.25h-.49c-2.88 0-5.9 2.875-9.05 8.625-.53 1.73-.8 3.026-.8 3.89zm28.97-16.828h.4c.66.365 1 .933 1 1.703v.44c0 4.63.4 10.04 1.21 16.25h.2c4.46-11.69 7.08-17.53 7.87-17.53h.61c.59 0 1.53 4.06 2.82 12.19 1.21 4.17 1.81 7.66 1.81 10.47-.4 1-1 1.5-1.82 1.5-.54 0-1.28-3.49-2.22-10.48l-1.63-6.82c-1.16 1.86-3.24 6.7-6.26 14.53-.87.89-1.61 1.39-2.22 1.5-1.75 0-2.63-2.35-2.63-7.06l-1-8.97h-.2l-6.06 13.68c-.36 2.28-.7 3.42-1.01 3.42h-.8l-.81-.84v-1.07c0-1.92 1.68-6.05 5.04-12.39 2.39-6.67 3.94-10.09 4.64-10.27l1.02-.22zm34.25.047c.72.158 1.07.704 1.07 1.642-.23 1.77-.94 2.656-2.14 2.656-7.86 0-11.78 1.094-11.78 3.28l-.22 1.845v1.016c5.12-1.23 8.62-1.845 10.5-1.845h.42c.72.31 1.08.99 1.08 2.04 0 1.5-1 2.25-3 2.25-6.57.85-9.86 1.88-9.86 3.08l-.2 2.04v.81c0 1.23.78 1.91 2.35 2.04 2.46-.27 5.53-.89 9.22-1.85h.64c.57.22.86.69.86 1.43v.61c0 1.67-3.57 2.97-10.72 3.89h-.64c-2.58 0-4-1.64-4.28-4.91 0-2.41.5-6.98 1.5-13.72l-.42-1.23c0-2.77 4.28-4.41 12.84-4.91l2.78-.2zm31.72-.06c1.35 0 2.03.56 2.03 1.686v.43c0 1.55-1.21 2.33-3.63 2.33l-4.52.22c-1.36 7.22-2.03 13.43-2.03 18.63-.37 1.13-.74 1.69-1.13 1.69h-.69c-.78 0-1.24-.21-1.36-.64.76-7.99 1.59-14.48 2.48-19.47l-6.78 1.07c-.64 0-1.01-.63-1.13-1.9 0-2.11 1.88-3.17 5.65-3.17 2.26-.56 5.95-.84 11.08-.84zm15.04.014c4.45.61 6.67 3.27 6.67 7.98 0 6.16-2.44 11.27-7.32 15.31-2.01 1.14-3.81 1.72-5.39 1.72-3.87 0-6.36-2.09-7.47-6.25l-.16-1.94v-.66c0-6.73 3.07-11.84 9.22-15.32 1.54-.58 3.02-.86 4.43-.86zm-11.59 16.82c1.6 2.43 3.72 3.65 6.36 3.65 4.24 0 7.2-2.52 8.89-7.55l.31-2.38c0-3.54-1.75-5.63-5.24-6.25h-.49c-2.89 0-5.9 2.87-9.05 8.62-.53 1.73-.8 3.02-.8 3.89zm45.78-16.78h.33c1.43.17 2.15.87 2.15 2.09v.42c0 2.1-.72 4.06-2.16 5.87h-.33c-.23-.07-.46-.41-.67-1.05l.84-3.14-.65-.43c-1.53.13-4.35 1.81-8.44 5.03v.2l10.9 2.11c1.1.87 1.65 2.34 1.65 4.4v1.25c0 2.82-1.82 5.27-5.46 7.34-1.43.56-2.81.84-4.14.84h-.34c-3.8 0-6.11-1.68-6.94-5.03v-1.27c0-1.55.38-2.32 1.15-2.32.76 2.66 2.14 4 4.14 4 0 .27.83.4 2.48.4 2.45 0 4.82-1.26 7.11-3.77 0-1.67-3.53-2.72-10.58-3.16-2.54-.71-3.81-1.76-3.81-3.14 0-3.41 3.41-6.84 10.25-10.28l2.48-.43zm22.26 0c.72.15 1.08.7 1.08 1.64-.23 1.77-.95 2.65-2.14 2.65-7.86 0-11.79 1.09-11.79 3.28l-.22 1.84v1.02c5.12-1.23 8.62-1.85 10.5-1.85h.42c.72.31 1.08.99 1.08 2.04 0 1.5-1 2.25-3 2.25-6.58.85-9.86 1.88-9.86 3.08l-.21 2.05v.81c0 1.23.78 1.91 2.34 2.04 2.46-.27 5.53-.89 9.22-1.85h.64c.57.22.86.7.86 1.44v.61c0 1.67-3.57 2.97-10.72 3.89h-.64c-2.57 0-4-1.64-4.28-4.91 0-2.41.5-6.98 1.5-13.72l-.42-1.23c0-2.77 4.28-4.4 12.84-4.9l2.78-.21zm17.79 0c.72.15 1.08.7 1.08 1.64-.23 1.77-.95 2.65-2.15 2.65-7.85 0-11.78 1.09-11.78 3.28l-.22 1.84v1.02c5.13-1.23 8.63-1.85 10.5-1.85h.42c.72.31 1.08.99 1.08 2.04 0 1.5-1 2.25-3 2.25-6.57.85-9.86 1.88-9.86 3.08l-.2 2.05v.81c0 1.23.78 1.91 2.34 2.04 2.46-.27 5.53-.89 9.22-1.85h.64c.57.22.86.7.86 1.44v.61c0 1.67-3.57 2.97-10.72 3.89h-.64c-2.57 0-4-1.64-4.28-4.91 0-2.41.5-6.98 1.5-13.72l-.42-1.23c0-2.77 4.28-4.4 12.84-4.9l2.78-.21zm-392.38 41.93c1.35 0 2.03.56 2.03 1.68v.42c0 1.55-1.21 2.33-3.63 2.33l-4.51.22c-1.36 7.21-2.03 13.42-2.03 18.62-.37 1.12-.74 1.69-1.13 1.69h-.69c-.78 0-1.24-.22-1.36-.64.76-7.99 1.59-14.48 2.48-19.47l-6.78 1.06c-.63 0-1.01-.64-1.12-1.91 0-2.12 1.89-3.18 5.66-3.18 2.26-.57 5.96-.85 11.08-.85zm18.07.01c.74.2 1.11.7 1.11 1.52v.2c-1.05 15.38-1.79 23.08-2.22 23.08l-.23.22h-.66c-.77 0-1.3-.36-1.57-1.08.3-2.06.44-4.93.44-8.63h-.2l-9.35 2.15-.66.86v4.09c0 1.22-.45 2.08-1.35 2.59h-.44c-.84 0-1.36-.36-1.57-1.08 1.03-15.53 2.51-23.3 4.45-23.3h.43l.67.87c-1.05 5.15-1.57 8.96-1.57 11.42 6.82-.9 10.23-1.98 10.23-3.24l.89-9.07 1.56-.64zm19.22.05c.71.16 1.07.7 1.07 1.64-.23 1.77-.94 2.65-2.14 2.65-7.86 0-11.78 1.09-11.78 3.28l-.22 1.84v1.01c5.12-1.23 8.62-1.85 10.5-1.85h.42c.72.31 1.08.99 1.08 2.04 0 1.5-1 2.25-3 2.25-6.57.85-9.86 1.88-9.86 3.08l-.2 2.05v.81c0 1.23.78 1.91 2.34 2.05 2.46-.27 5.53-.89 9.22-1.85h.64c.57.22.86.7.86 1.44v.61c0 1.67-3.58 2.97-10.72 3.89h-.64c-2.58 0-4-1.64-4.28-4.91 0-2.41.5-6.98 1.5-13.72l-.43-1.24c0-2.77 4.28-4.41 12.85-4.91l2.78-.21zm17.79-.05c.94 0 2.08 1.78 3.4 5.34 2.56 5.25 5.41 9.74 8.54 13.47 1.05-10.28 1.83-16.34 2.34-18.18l.86-.64h.64c.43 0 .64.28.64.86-1.28 14.68-2.06 22.52-2.34 23.51l-1.28.42c-2.28 0-6.13-4.84-11.53-14.53l-.86-.86-.22.64-.64 9.85v1.28l.22 1.28c-.19 1.71-.76 2.56-1.7 2.56-.88-.31-1.38-.74-1.5-1.28 1.09-15.4 1.87-23.1 2.34-23.1l1.08-.64zm34.4.04c.71.16 1.07.7 1.07 1.64-.23 1.77-.94 2.66-2.14 2.66-7.85 0-11.78 1.09-11.78 3.28l-.22 1.84v1.01c5.13-1.23 8.63-1.85 10.5-1.85h.43c.72.31 1.07.99 1.07 2.05 0 1.5-1 2.25-3 2.25-6.57.85-9.86 1.88-9.86 3.08l-.2 2.05v.81c0 1.23.78 1.91 2.34 2.05 2.46-.27 5.54-.89 9.22-1.85h.64c.58.22.86.7.86 1.44v.61c0 1.68-3.57 2.97-10.72 3.89h-.64c-2.57 0-4-1.64-4.28-4.91 0-2.41.5-6.98 1.5-13.72l-.42-1.24c0-2.77 4.28-4.41 12.84-4.91l2.78-.2zm2.67 0c.7 0 1.04 2.42 1.04 7.25l1.41 9.19h.35c0-.53 1.4-3.38 4.2-8.55.43-3.41 1.25-5.11 2.45-5.11h.34c.71 0 1.29 2.63 1.75 7.89.78 3.59 1.36 5.73 1.75 6.41.37-1.81 2.24-7.15 5.61-16.02.49-.57.96-.85 1.4-.85.63 0 1.03.28 1.22.84 0 .73-1.75 5.49-5.25 14.29-.58 2.09-1.11 4.93-1.58 8.55-.37.71-.84 1.06-1.41 1.06-1.064 0-1.88-2.42-2.44-7.25-1.15-4.72-1.85-7.28-2.11-7.69l-3.5 6.83c-.584 1.33-1.11 3.61-1.58 6.82-.31.52-.776.88-1.39 1.06-.98 0-1.8-3.69-2.453-11.09-.94-5.23-1.406-9.43-1.406-12.59 0-.43.52-.78 1.57-1.07zm39.44.09l.62.86-.63 8.12 12.75-7.06c.55.68.83 1.54.83 2.56-1.44 2.02-5.13 4.59-11.08 7.7v.22c2.75 3.57 5.89 6.56 9.41 8.97v.44c0 1.99-.7 2.98-2.1 2.98l-10.44-8.55c-.42 5.69-.84 8.54-1.25 8.54l-1.05.22c-.7-.23-1.05-.66-1.05-1.28l.83-10.05-.2-2.56c.48 0 .89-3.14 1.25-9.42.57-1.13 1.27-1.7 2.09-1.7zm18.59-.21h1.47c.49 0 .73.29.73.86-1.15 9.35-1.72 15.84-1.72 19.47v2.37c-.32 1.59-1.14 2.38-2.44 2.38H380l-.984-.86c.653-9.81 1.47-17.6 2.45-23.36l.97-.86zm7.09.06c.94 0 2.08 1.78 3.4 5.34 2.56 5.25 5.41 9.74 8.55 13.47 1.05-10.29 1.84-16.34 2.35-18.18l.86-.64h.64c.42 0 .64.28.64.86-1.28 14.68-2.06 22.52-2.35 23.51l-1.28.42c-2.28 0-6.12-4.84-11.53-14.53l-.86-.86-.22.64-.64 9.84v1.28l.22 1.28c-.19 1.71-.75 2.56-1.7 2.56-.88-.32-1.38-.74-1.5-1.28 1.09-15.4 1.87-23.1 2.34-23.1l1.08-.64zm31.42 0h.15c1.38 0 2.31 1.35 2.78 4.06l-.33.42h-.16l-1.31-.42c-3.58.53-7.34 3.02-11.26 7.48-1.09 1.94-1.64 3.29-1.64 4.06v.86c0 2.28 2.34 3.7 7.03 4.26 2.94 0 5.17-1.57 6.69-4.71l-1.96-.84c-.73 0-2.74.85-6.04 2.56-.33-.73-.49-1.45-.49-2.14v-.22c0-2.27 2.18-3.84 6.53-4.71h.33c2.5 0 3.75 1.64 3.75 4.92 0 3.39-2.78 6.38-8.33 8.99l-1.95.42c-3.53 0-5.93-1.5-7.19-4.49l-.32-2.78c0-6.46 3.31-11.95 9.95-16.47 1.67-.86 2.93-1.28 3.76-1.28zm7.95 19.68c1.4 0 2.27.85 2.61 2.55 0 1.7-1.22 2.63-3.66 2.78-1.22-.46-1.82-1.23-1.82-2.31v-.24c.48-1.86 1.43-2.78 2.87-2.78zM450.25 178c.92 0 1.376 2.81 1.376 8.42l1.83 10.65h.45c0-.606 1.83-3.908 5.5-9.908.57-3.96 1.64-5.94 3.2-5.94h.45c.918 0 1.678 3.05 2.28 9.152 1.02 4.17 1.79 6.647 2.3 7.44.48-2.105 2.917-8.3 7.313-18.58.64-.656 1.25-.984 1.83-.984.82 0 1.36.33 1.61.99 0 .84-2.29 6.37-6.86 16.59-.77 2.4-1.46 5.7-2.06 9.9-.49.82-1.1 1.234-1.83 1.234-1.4 0-2.46-2.81-3.2-8.424-1.49-5.47-2.41-8.436-2.75-8.905l-4.58 7.926c-.76 1.54-1.45 4.18-2.06 7.92-.41.61-1.02 1.02-1.83 1.24-1.27 0-2.34-4.29-3.21-12.87-1.22-6.06-1.83-10.93-1.83-14.61 0-.49.69-.9 2.06-1.23zm42.735 4c.72.16 1.08.71 1.08 1.64-.23 1.77-.94 2.66-2.14 2.66-7.85 0-11.78 1.097-11.78 3.28l-.22 1.85v1.016c5.128-1.23 8.628-1.84 10.5-1.84h.42c.72.312 1.08.994 1.08 2.05 0 1.5-1 2.25-3 2.25-6.57.85-9.86 1.88-9.86 3.08l-.2 2.042v.81c0 1.23.78 1.91 2.35 2.044 2.457-.27 5.53-.887 9.22-1.846h.64c.57.22.86.7.86 1.44v.61c0 1.673-3.575 2.97-10.72 3.89h-.64c-2.575 0-4-1.64-4.283-4.91 0-2.406.5-6.98 1.5-13.72l-.42-1.23c0-2.77 4.28-4.41 12.845-4.91l2.78-.205zm27.61 0h.33c1.44.18 2.16.88 2.16 2.1v.424c0 2.105-.72 4.06-2.15 5.876h-.33c-.23-.06-.452-.41-.67-1.044l.84-3.14-.66-.42c-1.53.13-4.34 1.81-8.432 5.03v.2l10.907 2.11c1.107.872 1.66 2.34 1.66 4.403v1.25c0 2.82-1.815 5.27-5.45 7.34-1.427.56-2.807.84-4.14.84h-.344c-3.79 0-6.1-1.68-6.94-5.03v-1.27c0-1.55.39-2.32 1.16-2.32.76 2.66 2.14 4 4.14 4 0 .27.83.4 2.48.4 2.45 0 4.82-1.26 7.11-3.77 0-1.67-3.52-2.72-10.58-3.16-2.54-.71-3.81-1.76-3.81-3.14 0-3.41 3.42-6.84 10.25-10.28l2.49-.42zm15.21 0h.75c1.03 0 2.338 4.77 3.92 14.3 1.25 4.5 1.876 7.56 1.876 9.17-.26.86-.76 1.28-1.5 1.28-.96 0-1.64-2.27-2.06-6.82l-.19-.2h-.19c-1.63.02-5.05 1.014-10.28 2.982-.5 2.846-1.31 4.27-2.44 4.27-.75-.29-1.12-.86-1.12-1.7 0-1.648 3.44-9.19 10.3-22.627l.94-.64zm-.37 5.97c-1.5 2.71-2.876 5.56-4.126 8.55h1.31c1.27 0 2.9-.287 4.87-.86l-1.68-7.68h-.37zm10.108-5.97c.7 0 1.05 2.42 1.05 7.25l1.41 9.19h.35c0-.53 1.4-3.38 4.2-8.547.44-3.41 1.253-5.11 2.45-5.11h.346c.71 0 1.29 2.63 1.75 7.89.78 3.59 1.37 5.73 1.75 6.402.38-1.817 2.25-7.156 5.61-16.02.49-.564.96-.845 1.41-.845.62 0 1.03.28 1.22.847 0 .73-1.75 5.494-5.25 14.297-.59 2.084-1.11 4.933-1.58 8.55-.38.71-.85 1.064-1.41 1.064-1.06 0-1.88-2.42-2.44-7.25-1.14-4.72-1.85-7.28-2.11-7.69l-3.5 6.83c-.58 1.33-1.11 3.61-1.58 6.824-.32.52-.78.87-1.39 1.06-.98 0-1.8-3.7-2.46-11.093-.94-5.23-1.41-9.43-1.41-12.6 0-.43.52-.78 1.57-1.06zm51.5-.045c.74.2 1.11.705 1.11 1.52v.2c-1.04 15.384-1.78 23.076-2.22 23.076l-.23.22h-.656c-.77 0-1.29-.36-1.56-1.07.29-2.05.44-4.92.44-8.62h-.22l-9.347 2.16-.65.86v4.1c0 1.22-.45 2.08-1.34 2.59h-.44c-.833 0-1.354-.36-1.562-1.08 1.03-15.53 2.517-23.3 4.455-23.3h.437l.676.88c-1.04 5.16-1.56 8.97-1.56 11.43 6.822-.9 10.233-1.98 10.233-3.24l.89-9.07 1.57-.64zm7.53-.06h1.47c.49 0 .74.286.74.86-1.145 9.35-1.72 15.84-1.72 19.47v2.372c-.32 1.584-1.134 2.376-2.436 2.376h-.485l-.988-.86c.657-9.813 1.474-17.6 2.454-23.36l.97-.86zm16.91.11h.33c1.44.176 2.16.87 2.16 2.09v.425c0 2.107-.72 4.065-2.157 5.878h-.33c-.23-.066-.45-.415-.67-1.05l.846-3.14-.66-.423c-1.53.134-4.34 1.81-8.43 5.03v.203l10.906 2.11c1.105.878 1.657 2.347 1.657 4.41v1.25c0 2.82-1.817 5.27-5.45 7.345-1.425.56-2.805.84-4.14.84h-.34c-3.795 0-6.107-1.678-6.94-5.03v-1.26c0-1.54.385-2.31 1.16-2.31.76 2.67 2.14 4 4.14 4 0 .27.83.41 2.484.41 2.45 0 4.82-1.26 7.11-3.77 0-1.66-3.53-2.714-10.58-3.15-2.54-.71-3.81-1.757-3.81-3.14 0-3.41 3.42-6.836 10.25-10.284l2.49-.42zm-318.32 42h.33c1.44.176 2.16.87 2.16 2.09v.425c0 2.107-.72 4.065-2.157 5.878h-.33c-.23-.066-.45-.415-.67-1.05l.85-3.14-.66-.423c-1.53.134-4.34 1.81-8.44 5.03v.203l10.91 2.11c1.105.878 1.657 2.347 1.657 4.41v1.25c0 2.82-1.82 5.27-5.45 7.345-1.43.56-2.81.84-4.14.84h-.344c-3.79 0-6.11-1.678-6.94-5.03v-1.26c0-1.54.39-2.31 1.16-2.31.76 2.67 2.14 4 4.14 4 0 .27.83.41 2.48.41 2.44 0 4.81-1.26 7.11-3.77 0-1.66-3.53-2.714-10.58-3.15-2.54-.71-3.81-1.757-3.81-3.14 0-3.41 3.41-6.836 10.25-10.284l2.48-.42zm22.91-.063c1.357 0 2.03.56 2.03 1.683v.42c0 1.554-1.21 2.33-3.62 2.33l-4.517.22c-1.35 7.218-2.03 13.426-2.03 18.624-.37 1.12-.74 1.69-1.13 1.69h-.68c-.78 0-1.24-.21-1.36-.64.76-7.99 1.59-14.48 2.48-19.47l-6.78 1.07c-.64 0-1.01-.64-1.13-1.91 0-2.11 1.88-3.17 5.65-3.17 2.26-.56 5.956-.84 11.08-.84zm11.03.06h.75c1.03 0 2.34 4.764 3.926 14.295 1.25 4.5 1.87 7.56 1.87 9.172-.26.85-.76 1.28-1.5 1.28-.96 0-1.65-2.28-2.07-6.83l-.19-.2h-.19c-1.63.02-5.06 1.01-10.28 2.98-.5 2.84-1.32 4.26-2.44 4.26-.75-.29-1.13-.86-1.13-1.7 0-1.65 3.43-9.19 10.3-22.63l.94-.64zm-.37 5.97c-1.5 2.705-2.876 5.554-4.126 8.544h1.313c1.27 0 2.896-.285 4.875-.86l-1.69-7.68h-.375zm20.155-6.02h2.16c3.304 0 4.955 1.15 4.955 3.45v.22c0 4.03-3.45 7.7-10.345 11v.203c3.45 3.165 6.327 5.54 8.63 7.123v.64c0 1.11-.36 1.83-1.08 2.15h-.86l-11.84-8.4-.218 4.31v3.23c-.36.72-.94 1.08-1.72 1.08-.57 0-1-.29-1.29-.86v-1.3l1.93-16.83c-.57 0-.86-.422-.86-1.28 0-2.59 2.15-4.1 6.457-4.53l4.09-.22zm-7.53 11.64h.22c7.46-1.92 11.19-4 11.19-6.25v-.22c0-.4-.72-.686-2.16-.86-2.39 0-5.26.5-8.61 1.513l-.64 5.81zm32.94-11.706h1.47c.49 0 .735.287.735.86-1.147 9.354-1.72 15.844-1.72 19.47v2.374c-.324 1.58-1.137 2.377-2.44 2.377h-.484l-.98-.86c.66-9.81 1.47-17.6 2.45-23.36l.96-.86zm7.096.063c.95 0 2.08 1.78 3.404 5.34 2.567 5.25 5.41 9.74 8.55 13.47 1.05-10.28 1.837-16.34 2.347-18.18l.86-.64h.64c.43 0 .65.28.65.86-1.28 14.68-2.065 22.52-2.346 23.51l-1.28.42c-2.28 0-6.12-4.84-11.53-14.53l-.86-.86-.22.64-.64 9.84v1.28l.22 1.28c-.19 1.71-.75 2.56-1.7 2.56-.87-.32-1.37-.74-1.5-1.28 1.1-15.4 1.88-23.1 2.35-23.1l1.07-.64zm48.33-.02c1.35 0 2.03.56 2.03 1.68v.42c0 1.55-1.21 2.33-3.628 2.33l-4.52.22c-1.355 7.21-2.03 13.42-2.03 18.62-.367 1.12-.74 1.69-1.127 1.69h-.69c-.79 0-1.24-.22-1.36-.64.76-7.99 1.58-14.48 2.48-19.47l-6.78 1.06c-.64 0-1.01-.64-1.13-1.91 0-2.11 1.88-3.17 5.65-3.17 2.26-.56 5.95-.84 11.08-.84zm18.074.01c.74.2 1.11.7 1.11 1.52v.2c-1.04 15.39-1.78 23.08-2.22 23.08l-.23.22h-.654c-.77 0-1.29-.36-1.565-1.08.29-2.05.44-4.92.44-8.62h-.22l-9.35 2.15-.66.86v4.09c0 1.22-.45 2.09-1.35 2.6h-.44c-.83 0-1.35-.36-1.56-1.08 1.03-15.53 2.515-23.3 4.45-23.3h.44l.67.87c-1.04 5.15-1.567 8.96-1.567 11.42 6.824-.9 10.235-1.98 10.235-3.24l.89-9.067 1.56-.64zm19.22.05c.72.15 1.08.7 1.08 1.64-.23 1.77-.94 2.65-2.14 2.65-7.85 0-11.78 1.09-11.78 3.28l-.22 1.84v1.02c5.127-1.23 8.627-1.85 10.5-1.85h.42c.72.31 1.08.99 1.08 2.05 0 1.5-1 2.25-3 2.25-6.57.85-9.86 1.88-9.86 3.08l-.2 2.05v.81c0 1.23.78 1.91 2.345 2.04 2.46-.27 5.53-.88 9.22-1.84h.64c.57.22.86.7.86 1.44v.61c0 1.67-3.577 2.97-10.72 3.89h-.64c-2.577 0-4-1.64-4.28-4.91 0-2.41.5-6.98 1.5-13.72l-.427-1.23c0-2.77 4.28-4.41 12.85-4.91l2.78-.2zm27.61 0h.33c1.44.17 2.157.87 2.157 2.09v.42c0 2.1-.72 4.06-2.16 5.87h-.33c-.23-.07-.45-.41-.67-1.05l.84-3.14-.657-.42c-1.53.13-4.34 1.81-8.437 5.03v.21l10.91 2.11c1.11.87 1.66 2.34 1.66 4.4v1.25c0 2.82-1.82 5.27-5.46 7.34-1.42.56-2.8.84-4.14.84h-.34c-3.79 0-6.11-1.68-6.94-5.03v-1.27c0-1.54.38-2.31 1.15-2.31.76 2.66 2.14 4 4.14 4 0 .27.83.4 2.48.4 2.45 0 4.82-1.26 7.11-3.77 0-1.67-3.53-2.72-10.58-3.16-2.54-.71-3.82-1.75-3.82-3.14 0-3.41 3.42-6.83 10.25-10.28l2.49-.42zm10.19.09l.624.86-.62 8.12 12.75-7.06c.55.69.83 1.54.83 2.56-1.44 2.02-5.13 4.59-11.08 7.7v.22c2.75 3.57 5.883 6.56 9.404 8.97v.44c0 1.99-.7 2.98-2.095 2.98l-10.43-8.55c-.41 5.7-.83 8.55-1.25 8.55l-1.04.22c-.69-.23-1.04-.66-1.04-1.29l.83-10.05-.2-2.564c.48 0 .89-3.14 1.25-9.42.57-1.135 1.27-1.703 2.09-1.703zm15.48-.09l4.78 7.25 2.097 1.72c2.643-4.71 4.49-7.56 5.53-8.55h.95l.765.86c-.102.76-3.09 6.09-8.97 16-1.48 2.78-2.563 5.27-3.25 7.47l-.563.22c-.9-.42-1.348-1.06-1.348-1.92.05-1.12 1.58-4.6 4.58-10.46-4.32-4.65-6.48-8.42-6.48-11.31.8-.85 1.44-1.28 1.9-1.28zm22.78-3.97c.63.29.94.64.94 1.04-2.97 9.56-4.46 15.62-4.46 18.17-.84.98-1.55 1.47-2.12 1.47-.935-.34-1.403-.75-1.403-1.25 1.48-12.96 3.435-19.44 5.873-19.44h1.17zm-5.54 23.45c1.48.28 2.22 1.05 2.22 2.31v.21c-.59 1.98-2.017 2.97-4.267 2.97-1.11 0-1.78-.77-2.01-2.31 0-1.78 1.36-2.84 4.06-3.17z" fill="#000"/></g></svg>