<svg width="1540" height="820" viewBox="0 0 1540 820" xmlns="http://www.w3.org/2000/svg" xmlns:xlink="http://www.w3.org/1999/xlink"><title>story19</title><defs><path id="b" d="M40 40h792v120H40z"/><filter x="-50%" y="-50%" width="200%" height="200%" filterUnits="objectBoundingBox" id="a"><feOffset dx="6" dy="6" in="SourceAlpha" result="shadowOffsetOuter1"/><feColorMatrix values="0 0 0 0 0 0 0 0 0 0 0 0 0 0 0 0 0 0 1 0" in="shadowOffsetOuter1"/></filter></defs><g fill="none" fill-rule="evenodd"><path fill="green" d="M1540 280H0v540h1540z"/><path d="M1540 0v738.94c-177.35-42.932-446.83-70.377-748.677-70.377C464.2 668.563 175.01 700.743 0 750V0h1540z" fill="navy"/><path fill="#FFE680" d="M446.43 339.667l11.36-10.835 13.362 8.236-6.795-14.15 11.963-10.164-15.558 2.09-5.97-14.52-2.82 15.443-15.652 1.19 13.814 7.456m603.46 114.594l15.566-1.806 5.697 14.6 3.093-15.36 15.644-.9-13.654-7.69 3.972-15.15-11.532 10.61-13.19-8.46 6.528 14.25-12.124 9.93m252.582 68.19l14.286-7.04 10.435 12.04-2.28-15.76 14.668-6.2-15.696-2.7-1.37-15.87-7.42 14.09-15.52-3.6 11.11 11.41-8.22 13.64m-383 20.41l7.18-14.16 15.52 3.36-11.25-11.21 7.98-13.73-14.14 7.24-10.59-11.84 2.51 15.68-14.53 6.41 15.69 2.46 1.6 15.8M72.11 151.34l11.36-10.833 13.362 8.236-6.795-14.15L102 124.428l-15.558 2.088L80.472 112l-2.82 15.442L62 128.632l13.815 7.455m-15.25 316.176l5.874-14.546 15.56 1.99-12.02-10.082 6.7-14.184-13.3 8.32L51.96 413l3.8 15.22L42 435.758l15.65 1.092 2.915 15.413M579.573 230.38l15.698 2.777 1.3 15.888 7.49-14.07 15.52 3.674-11.06-11.48 8.29-13.62-14.33 6.98-10.39-12.09 2.21 15.79-14.71 6.14m-189 270.99l6.56-14.35 15.54 2.7-11.62-10.67 7.37-13.95-13.73 7.75-10.98-11.32 3.13 15.46-14.16 6.95 15.67 1.8 2.24 15.61m680.96-381.12l11.36-10.84 13.36 8.24-6.8-14.15 11.97-10.17-15.55 2.09-5.97-14.52-2.82 15.44-15.65 1.19 13.82 7.45m-659.4-18.41l14.29-7.04 10.44 12.03-2.28-15.77L453 69.57l-15.696-2.702L435.934 51l-7.42 14.092-15.514-3.6 11.11 11.412-8.22 13.642m-252.528 514.03l9.634-13.07 15.087 6-9.453-13.2L189 567.813l-15.477 4.91L164.845 559l-.112 16.237L149 579.25l15.407 5.123-1.045 16.204M707.155 571.8l11.615 10.672-7.376 13.943 13.74-7.748 10.98 11.324-3.12-15.46 14.16-6.94-15.668-1.81-2.23-15.61-6.56 14.35-15.54-2.7M1412.81 99.15l10.977-11.33 13.746 7.74-7.385-13.94 11.61-10.68-15.54 2.715-6.57-14.343-2.22 15.618-15.67 1.817 14.168 6.94-3.115 15.464m30.81 507.2l9.02 13.36-10.63 12.11 15.49-4.45 8.24 13.86.56-16.1 15.72-3.55-15.14-5.5 1.48-16.05-9.91 12.71-14.8-6.37M827.7 241.26l8.312 13.61-11.05 11.493 15.51-3.7 7.52 14.06 1.276-15.895 15.7-2.8-14.726-6.123 2.185-15.796-10.375 12.11-14.35-6.96"/><g transform="translate(874 529)"><rect fill="#000" x="96.016" y="118.701" width="24.023" height="91.815" rx="8"/><rect fill="#000" x="193.867" y="118.701" width="24.023" height="91.815" rx="8"/><path d="M192.792 3.834c-12.403 0-23.862 3.004-33.24 8.05-8.636-3.932-18.757-6.195-29.585-6.195-30.703 0-55.73 18.18-57.185 41.04-14.587 7.82-24.106 20.64-24.106 35.16 0 23.83 25.627 43.17 57.265 43.17 3.43 0 6.79-.28 10.05-.71 8.69 15.5 29.04 26.4 52.78 26.4 17.35 0 32.9-5.82 43.41-15 2.14.18 4.32.31 6.52.31 28.47 0 52.07-15.65 56.51-36.15 13.93-7.88 22.96-20.45 22.96-34.57 0-23.83-25.66-43.13-57.3-43.13-.39 0-.77-.01-1.15 0-10.37-11.1-27.52-18.39-46.9-18.39z" stroke="#000" stroke-width="3.458" fill="#FFF"/><rect fill="#000" x="230.719" y="119.069" width="24.023" height="91.815" rx="8"/><rect fill="#000" x="130.327" y="118.701" width="24.023" height="91.815" rx="8"/><ellipse stroke="#000" stroke-width="3.5" fill="#CCC" transform="rotate(32 91.97 35.598)" cx="91.971" cy="35.598" rx="14.614" ry="17.679"/><ellipse stroke="#000" stroke-width="3.5" fill="#CCC" cx="36.793" cy="27.5" rx="16.5" ry="20.5"/><path d="M64.82 22.504c18.807 6.514 27.182 31.633 18.705 56.104-4.07 11.752-11.562 21.78-20.826 27.877-9.27 6.097-19.55 7.765-28.58 4.637-9.03-3.13-16.08-10.797-19.59-21.32-3.51-10.52-3.19-23.033.88-34.785 4.07-11.75 11.56-21.777 20.82-27.877 9.26-6.09 19.54-7.76 28.57-4.63z" stroke="#000" stroke-width="3.458" fill="#CCC"/><path d="M46.738 47.16c1.357 3.24-.187 6.974-3.448 8.34-3.26 1.364-7.004-.156-8.36-3.396-1.357-3.24.187-6.974 3.448-8.34 3.26-1.365 7.004.155 8.36 3.396z" fill="#000"/><path d="M26.43 74.81c9.742 21.522 21.763 16.996 39.237 9.23" stroke="#000" stroke-width="3.458" stroke-linecap="round"/><path d="M72.062 53.443c1.357 3.24-.187 6.974-3.448 8.34-3.26 1.364-7.004-.156-8.36-3.396-1.358-3.24.186-6.974 3.447-8.34 3.27-1.364 7.01.156 8.37 3.396z" fill="#000"/></g><g transform="translate(51 185)"><ellipse stroke="#000" stroke-width="3.5" fill="#FFF" transform="rotate(-135.477 177.124 73.23)" cx="177.124" cy="73.231" rx="46.234" ry="56.549"/><ellipse stroke="#000" stroke-width="3.5" fill="#FFF" transform="rotate(-44.523 72.782 73.23)" cx="72.782" cy="73.231" rx="46.234" ry="56.549"/><path d="M87.493 83.652l3.933 15.613L84.573 166l-26.428-9.34c8.76-32.48 12.21-59.233 29.348-73.008z" stroke="#050202" stroke-width="4" fill="#FFF"/><ellipse stroke="#000" stroke-width="4" fill="#502D16" transform="matrix(-1 0 0 1 248.59 0)" cx="124.294" cy="60.566" rx="38.853" ry="43.545"/><path d="M163.783 83.652l-3.933 15.613L166.704 166l26.427-9.34c-8.76-32.48-12.21-59.233-29.34-73.008z" stroke="#050202" stroke-width="4" fill="#FFF"/><ellipse stroke="#050202" stroke-width="4" fill="#E6C2AA" transform="matrix(-1 0 0 1 290.596 0)" cx="145.298" cy="281.928" rx="20.058" ry="10.929"/><ellipse stroke="#050202" stroke-width="4" fill="#E6C2AA" transform="matrix(-1 0 0 1 195.42 0)" cx="97.71" cy="283.489" rx="20.058" ry="10.929"/><path d="M84.21 175.33c-2.77 35.35-9.612 89.37-2.976 96.67 21.128 10.94 70.418 14.95 86.8-6.51 8.007-18.628-5.493-59.356-3.6-90.16 10.076-60.556 5.758-114.804-40.985-115.605-41.2-.705-49.87 53.485-39.24 115.605z" stroke="#000" stroke-width="3.691" fill="#FFF"/><path d="M141.492 73.875c-3.663 3.543-33.32.486-35.315-1.202-1.994-1.688 8.032 23.194 17.854 23.266 9.43.07 21.13-25.61 17.47-22.07z" stroke="#000" stroke-width="4" fill="#E6C2AA"/><ellipse stroke="#050202" stroke-width="3.9" fill="#E6C2AA" transform="matrix(-1 0 0 1 249.317 0)" cx="124.659" cy="49.443" rx="28.922" ry="35.051"/><ellipse fill="#000" transform="matrix(-1 0 0 1 266.967 0)" cx="133.484" cy="41.208" rx="2.642" ry="2.622"/><ellipse fill="#000" transform="matrix(-1 0 0 1 231.806 0)" cx="115.903" cy="41.509" rx="2.642" ry="2.622"/><path d="M138.653 57.647c-3.662 3.543-26.73 1.29-28.724-.397-2-1.688 9.08 13.74 14.81 13.707 5.72-.034 17.57-16.853 13.91-13.31z" stroke="#000" stroke-width="4" fill="#FFD5D5"/><path d="M108.438 5.233C87.06 8.748 79.183 59.045 85.355 91.597c1.097 5.172 8.102 6.277 12.202 3.97 3.63-1.576 4.36-5.66 4.562-9.158-.23-6-6.69-38.46 2.23-53.89s39.65-12 44.61 2.19c4.95 14.19-3.23 52.9 1.4 61.83 4.31 5.36 14.87 2.8 15.56-4.24-1.36-10.3 3.35-51.66 1.73-60.11-1.62-8.46-9.72-21.8-16.68-24.41-15.94-5.99-21.17-6.08-42.55-2.57z" stroke="#050202" stroke-width="3.897" fill="#FC0"/><path d="M83.255 165.866l83.318.1c-1.05 3.87-.552 9.395-.237 14.143l-82.766-.21-.31-14.04z" stroke="#000" stroke-width="3.496" fill="#FC0"/><path d="M190.565 158.497c-1.245 3.857-.315 6.678-3.28 15.86-2.885 8.936-3.743 17.583-12.6 15.304-4.937-1.27-9.64-10.7-4.26-14.33-3.083 1.86-8.015 6.71-9.593 5.02-2.31-2.47-2.448-7.5 3.818-10.79 1.53-.8.81-1.33 2.095-1.91.193-.38 2.042-1.62 2.426-1.84 6.57-3.77 17.94-6.48 21.4-7.3zm-129.855 0c1.246 3.857.316 6.678 3.28 15.86 2.886 8.936 3.744 17.583 12.6 15.304 4.938-1.27 9.64-10.7 4.26-14.33 3.084 1.86 8.016 6.71 9.594 5.02 2.31-2.47 2.448-7.5-3.818-10.79-1.53-.8-.81-1.33-2.094-1.91-.194-.38-2.043-1.62-2.427-1.84-6.563-3.77-17.937-6.48-21.394-7.3z" stroke="#050202" stroke-width="4" fill="#E6C2AA"/></g><g transform="translate(216 185)"><ellipse stroke="#000" stroke-width="3.5" fill="#FFF" transform="rotate(-135.477 177.124 73.23)" cx="177.124" cy="73.231" rx="46.234" ry="56.549"/><ellipse stroke="#000" stroke-width="3.5" fill="#FFF" transform="rotate(-44.523 72.782 73.23)" cx="72.782" cy="73.231" rx="46.234" ry="56.549"/><path d="M87.493 83.652l3.933 15.613L84.573 166l-26.428-9.34c8.76-32.48 12.21-59.233 29.348-73.008z" stroke="#050202" stroke-width="4" fill="#FFF"/><ellipse stroke="#000" stroke-width="4" fill="#502D16" transform="matrix(-1 0 0 1 248.59 0)" cx="124.294" cy="60.566" rx="38.853" ry="43.545"/><path d="M163.783 83.652l-3.933 15.613L166.704 166l26.427-9.34c-8.76-32.48-12.21-59.233-29.34-73.008z" stroke="#050202" stroke-width="4" fill="#FFF"/><ellipse stroke="#050202" stroke-width="4" fill="#E6C2AA" transform="matrix(-1 0 0 1 290.596 0)" cx="145.298" cy="281.928" rx="20.058" ry="10.929"/><ellipse stroke="#050202" stroke-width="4" fill="#E6C2AA" transform="matrix(-1 0 0 1 195.42 0)" cx="97.71" cy="283.489" rx="20.058" ry="10.929"/><path d="M84.21 175.33c-2.77 35.35-9.612 89.37-2.976 96.67 21.128 10.94 70.418 14.95 86.8-6.51 8.007-18.628-5.493-59.356-3.6-90.16 10.076-60.556 5.758-114.804-40.985-115.605-41.2-.705-49.87 53.485-39.24 115.605z" stroke="#000" stroke-width="3.691" fill="#FFF"/><path d="M141.492 73.875c-3.663 3.543-33.32.486-35.315-1.202-1.994-1.688 8.032 23.194 17.854 23.266 9.43.07 21.13-25.61 17.47-22.07z" stroke="#000" stroke-width="4" fill="#E6C2AA"/><ellipse stroke="#050202" stroke-width="3.9" fill="#E6C2AA" transform="matrix(-1 0 0 1 249.317 0)" cx="124.659" cy="49.443" rx="28.922" ry="35.051"/><ellipse fill="#000" transform="matrix(-1 0 0 1 266.967 0)" cx="133.484" cy="41.208" rx="2.642" ry="2.622"/><ellipse fill="#000" transform="matrix(-1 0 0 1 231.806 0)" cx="115.903" cy="41.509" rx="2.642" ry="2.622"/><path d="M138.653 57.647c-3.662 3.543-26.73 1.29-28.724-.397-2-1.688 9.08 13.74 14.81 13.707 5.72-.034 17.57-16.853 13.91-13.31z" stroke="#000" stroke-width="4" fill="#FFD5D5"/><path d="M108.438 5.233C87.06 8.748 79.183 59.045 85.355 91.597c1.097 5.172 8.102 6.277 12.202 3.97 3.63-1.576 4.36-5.66 4.562-9.158-.23-6-6.69-38.46 2.23-53.89s39.65-12 44.61 2.19c4.95 14.19-3.23 52.9 1.4 61.83 4.31 5.36 14.87 2.8 15.56-4.24-1.36-10.3 3.35-51.66 1.73-60.11-1.62-8.46-9.72-21.8-16.68-24.41-15.94-5.99-21.17-6.08-42.55-2.57z" stroke="#050202" stroke-width="3.897" fill="#FC0"/><path d="M83.255 165.866l83.318.1c-1.05 3.87-.552 9.395-.237 14.143l-82.766-.21-.31-14.04z" stroke="#000" stroke-width="3.496" fill="#FC0"/><path d="M190.565 158.497c-1.245 3.857-.315 6.678-3.28 15.86-2.885 8.936-3.743 17.583-12.6 15.304-4.937-1.27-9.64-10.7-4.26-14.33-3.083 1.86-8.015 6.71-9.593 5.02-2.31-2.47-2.448-7.5 3.818-10.79 1.53-.8.81-1.33 2.095-1.91.193-.38 2.042-1.62 2.426-1.84 6.57-3.77 17.94-6.48 21.4-7.3zm-129.855 0c1.246 3.857.316 6.678 3.28 15.86 2.886 8.936 3.744 17.583 12.6 15.304 4.938-1.27 9.64-10.7 4.26-14.33 3.084 1.86 8.016 6.71 9.594 5.02 2.31-2.47 2.448-7.5-3.818-10.79-1.53-.8-.81-1.33-2.094-1.91-.194-.38-2.043-1.62-2.427-1.84-6.563-3.77-17.937-6.48-21.394-7.3z" stroke="#050202" stroke-width="4" fill="#E6C2AA"/></g><g transform="translate(381 185)"><ellipse stroke="#000" stroke-width="3.5" fill="#FFF" transform="rotate(-135.477 177.124 73.23)" cx="177.124" cy="73.231" rx="46.234" ry="56.549"/><ellipse stroke="#000" stroke-width="3.5" fill="#FFF" transform="rotate(-44.523 72.782 73.23)" cx="72.782" cy="73.231" rx="46.234" ry="56.549"/><path d="M87.493 83.652l3.933 15.613L84.573 166l-26.428-9.34c8.76-32.48 12.21-59.233 29.348-73.008z" stroke="#050202" stroke-width="4" fill="#FFF"/><ellipse stroke="#000" stroke-width="4" fill="#502D16" transform="matrix(-1 0 0 1 248.59 0)" cx="124.294" cy="60.566" rx="38.853" ry="43.545"/><path d="M163.783 83.652l-3.933 15.613L166.704 166l26.427-9.34c-8.76-32.48-12.21-59.233-29.34-73.008z" stroke="#050202" stroke-width="4" fill="#FFF"/><ellipse stroke="#050202" stroke-width="4" fill="#E6C2AA" transform="matrix(-1 0 0 1 290.596 0)" cx="145.298" cy="281.928" rx="20.058" ry="10.929"/><ellipse stroke="#050202" stroke-width="4" fill="#E6C2AA" transform="matrix(-1 0 0 1 195.42 0)" cx="97.71" cy="283.489" rx="20.058" ry="10.929"/><path d="M84.21 175.33c-2.77 35.35-9.612 89.37-2.976 96.67 21.128 10.94 70.418 14.95 86.8-6.51 8.007-18.628-5.493-59.356-3.6-90.16 10.076-60.556 5.758-114.804-40.985-115.605-41.2-.705-49.87 53.485-39.24 115.605z" stroke="#000" stroke-width="3.691" fill="#FFF"/><path d="M141.492 73.875c-3.663 3.543-33.32.486-35.315-1.202-1.994-1.688 8.032 23.194 17.854 23.266 9.43.07 21.13-25.61 17.47-22.07z" stroke="#000" stroke-width="4" fill="#E6C2AA"/><ellipse stroke="#050202" stroke-width="3.9" fill="#E6C2AA" transform="matrix(-1 0 0 1 249.317 0)" cx="124.659" cy="49.443" rx="28.922" ry="35.051"/><ellipse fill="#000" transform="matrix(-1 0 0 1 266.967 0)" cx="133.484" cy="41.208" rx="2.642" ry="2.622"/><ellipse fill="#000" transform="matrix(-1 0 0 1 231.806 0)" cx="115.903" cy="41.509" rx="2.642" ry="2.622"/><path d="M138.653 57.647c-3.662 3.543-26.73 1.29-28.724-.397-2-1.688 9.08 13.74 14.81 13.707 5.72-.034 17.57-16.853 13.91-13.31z" stroke="#000" stroke-width="4" fill="#FFD5D5"/><path d="M108.438 5.233C87.06 8.748 79.183 59.045 85.355 91.597c1.097 5.172 8.102 6.277 12.202 3.97 3.63-1.576 4.36-5.66 4.562-9.158-.23-6-6.69-38.46 2.23-53.89s39.65-12 44.61 2.19c4.95 14.19-3.23 52.9 1.4 61.83 4.31 5.36 14.87 2.8 15.56-4.24-1.36-10.3 3.35-51.66 1.73-60.11-1.62-8.46-9.72-21.8-16.68-24.41-15.94-5.99-21.17-6.08-42.55-2.57z" stroke="#050202" stroke-width="3.897" fill="#FC0"/><path d="M83.255 165.866l83.318.1c-1.05 3.87-.552 9.395-.237 14.143l-82.766-.21-.31-14.04z" stroke="#000" stroke-width="3.496" fill="#FC0"/><path d="M190.565 158.497c-1.245 3.857-.315 6.678-3.28 15.86-2.885 8.936-3.743 17.583-12.6 15.304-4.937-1.27-9.64-10.7-4.26-14.33-3.083 1.86-8.015 6.71-9.593 5.02-2.31-2.47-2.448-7.5 3.818-10.79 1.53-.8.81-1.33 2.095-1.91.193-.38 2.042-1.62 2.426-1.84 6.57-3.77 17.94-6.48 21.4-7.3zm-129.855 0c1.246 3.857.316 6.678 3.28 15.86 2.886 8.936 3.744 17.583 12.6 15.304 4.938-1.27 9.64-10.7 4.26-14.33 3.084 1.86 8.016 6.71 9.594 5.02 2.31-2.47 2.448-7.5-3.818-10.79-1.53-.8-.81-1.33-2.094-1.91-.194-.38-2.043-1.62-2.427-1.84-6.563-3.77-17.937-6.48-21.394-7.3z" stroke="#050202" stroke-width="4" fill="#E6C2AA"/></g><g transform="translate(546 185)"><ellipse stroke="#000" stroke-width="3.5" fill="#FFF" transform="rotate(-135.477 177.124 73.23)" cx="177.124" cy="73.231" rx="46.234" ry="56.549"/><ellipse stroke="#000" stroke-width="3.5" fill="#FFF" transform="rotate(-44.523 72.782 73.23)" cx="72.782" cy="73.231" rx="46.234" ry="56.549"/><path d="M87.493 83.652l3.933 15.613L84.573 166l-26.428-9.34c8.76-32.48 12.21-59.233 29.348-73.008z" stroke="#050202" stroke-width="4" fill="#FFF"/><ellipse stroke="#000" stroke-width="4" fill="#502D16" transform="matrix(-1 0 0 1 248.59 0)" cx="124.294" cy="60.566" rx="38.853" ry="43.545"/><path d="M163.783 83.652l-3.933 15.613L166.704 166l26.427-9.34c-8.76-32.48-12.21-59.233-29.34-73.008z" stroke="#050202" stroke-width="4" fill="#FFF"/><ellipse stroke="#050202" stroke-width="4" fill="#E6C2AA" transform="matrix(-1 0 0 1 290.596 0)" cx="145.298" cy="281.928" rx="20.058" ry="10.929"/><ellipse stroke="#050202" stroke-width="4" fill="#E6C2AA" transform="matrix(-1 0 0 1 195.42 0)" cx="97.71" cy="283.489" rx="20.058" ry="10.929"/><path d="M84.21 175.33c-2.77 35.35-9.612 89.37-2.976 96.67 21.128 10.94 70.418 14.95 86.8-6.51 8.007-18.628-5.493-59.356-3.6-90.16 10.076-60.556 5.758-114.804-40.985-115.605-41.2-.705-49.87 53.485-39.24 115.605z" stroke="#000" stroke-width="3.691" fill="#FFF"/><path d="M141.492 73.875c-3.663 3.543-33.32.486-35.315-1.202-1.994-1.688 8.032 23.194 17.854 23.266 9.43.07 21.13-25.61 17.47-22.07z" stroke="#000" stroke-width="4" fill="#E6C2AA"/><ellipse stroke="#050202" stroke-width="3.9" fill="#E6C2AA" transform="matrix(-1 0 0 1 249.317 0)" cx="124.659" cy="49.443" rx="28.922" ry="35.051"/><ellipse fill="#000" transform="matrix(-1 0 0 1 266.967 0)" cx="133.484" cy="41.208" rx="2.642" ry="2.622"/><ellipse fill="#000" transform="matrix(-1 0 0 1 231.806 0)" cx="115.903" cy="41.509" rx="2.642" ry="2.622"/><path d="M138.653 57.647c-3.662 3.543-26.73 1.29-28.724-.397-2-1.688 9.08 13.74 14.81 13.707 5.72-.034 17.57-16.853 13.91-13.31z" stroke="#000" stroke-width="4" fill="#FFD5D5"/><path d="M108.438 5.233C87.06 8.748 79.183 59.045 85.355 91.597c1.097 5.172 8.102 6.277 12.202 3.97 3.63-1.576 4.36-5.66 4.562-9.158-.23-6-6.69-38.46 2.23-53.89s39.65-12 44.61 2.19c4.95 14.19-3.23 52.9 1.4 61.83 4.31 5.36 14.87 2.8 15.56-4.24-1.36-10.3 3.35-51.66 1.73-60.11-1.62-8.46-9.72-21.8-16.68-24.41-15.94-5.99-21.17-6.08-42.55-2.57z" stroke="#050202" stroke-width="3.897" fill="#FC0"/><path d="M83.255 165.866l83.318.1c-1.05 3.87-.552 9.395-.237 14.143l-82.766-.21-.31-14.04z" stroke="#000" stroke-width="3.496" fill="#FC0"/><path d="M190.565 158.497c-1.245 3.857-.315 6.678-3.28 15.86-2.885 8.936-3.743 17.583-12.6 15.304-4.937-1.27-9.64-10.7-4.26-14.33-3.083 1.86-8.015 6.71-9.593 5.02-2.31-2.47-2.448-7.5 3.818-10.79 1.53-.8.81-1.33 2.095-1.91.193-.38 2.042-1.62 2.426-1.84 6.57-3.77 17.94-6.48 21.4-7.3zm-129.855 0c1.246 3.857.316 6.678 3.28 15.86 2.886 8.936 3.744 17.583 12.6 15.304 4.938-1.27 9.64-10.7 4.26-14.33 3.084 1.86 8.016 6.71 9.594 5.02 2.31-2.47 2.448-7.5-3.818-10.79-1.53-.8-.81-1.33-2.094-1.91-.194-.38-2.043-1.62-2.427-1.84-6.563-3.77-17.937-6.48-21.394-7.3z" stroke="#050202" stroke-width="4" fill="#E6C2AA"/></g><g transform="translate(711 185)"><ellipse stroke="#000" stroke-width="3.5" fill="#FFF" transform="rotate(-135.477 177.124 73.23)" cx="177.124" cy="73.231" rx="46.234" ry="56.549"/><ellipse stroke="#000" stroke-width="3.5" fill="#FFF" transform="rotate(-44.523 72.782 73.23)" cx="72.782" cy="73.231" rx="46.234" ry="56.549"/><path d="M87.493 83.652l3.933 15.613L84.573 166l-26.428-9.34c8.76-32.48 12.21-59.233 29.348-73.008z" stroke="#050202" stroke-width="4" fill="#FFF"/><ellipse stroke="#000" stroke-width="4" fill="#502D16" transform="matrix(-1 0 0 1 248.59 0)" cx="124.294" cy="60.566" rx="38.853" ry="43.545"/><path d="M163.783 83.652l-3.933 15.613L166.704 166l26.427-9.34c-8.76-32.48-12.21-59.233-29.34-73.008z" stroke="#050202" stroke-width="4" fill="#FFF"/><ellipse stroke="#050202" stroke-width="4" fill="#E6C2AA" transform="matrix(-1 0 0 1 290.596 0)" cx="145.298" cy="281.928" rx="20.058" ry="10.929"/><ellipse stroke="#050202" stroke-width="4" fill="#E6C2AA" transform="matrix(-1 0 0 1 195.42 0)" cx="97.71" cy="283.489" rx="20.058" ry="10.929"/><path d="M84.21 175.33c-2.77 35.35-9.612 89.37-2.976 96.67 21.128 10.94 70.418 14.95 86.8-6.51 8.007-18.628-5.493-59.356-3.6-90.16 10.076-60.556 5.758-114.804-40.985-115.605-41.2-.705-49.87 53.485-39.24 115.605z" stroke="#000" stroke-width="3.691" fill="#FFF"/><path d="M141.492 73.875c-3.663 3.543-33.32.486-35.315-1.202-1.994-1.688 8.032 23.194 17.854 23.266 9.43.07 21.13-25.61 17.47-22.07z" stroke="#000" stroke-width="4" fill="#E6C2AA"/><ellipse stroke="#050202" stroke-width="3.9" fill="#E6C2AA" transform="matrix(-1 0 0 1 249.317 0)" cx="124.659" cy="49.443" rx="28.922" ry="35.051"/><ellipse fill="#000" transform="matrix(-1 0 0 1 266.967 0)" cx="133.484" cy="41.208" rx="2.642" ry="2.622"/><ellipse fill="#000" transform="matrix(-1 0 0 1 231.806 0)" cx="115.903" cy="41.509" rx="2.642" ry="2.622"/><path d="M138.653 57.647c-3.662 3.543-26.73 1.29-28.724-.397-2-1.688 9.08 13.74 14.81 13.707 5.72-.034 17.57-16.853 13.91-13.31z" stroke="#000" stroke-width="4" fill="#FFD5D5"/><path d="M108.438 5.233C87.06 8.748 79.183 59.045 85.355 91.597c1.097 5.172 8.102 6.277 12.202 3.97 3.63-1.576 4.36-5.66 4.562-9.158-.23-6-6.69-38.46 2.23-53.89s39.65-12 44.61 2.19c4.95 14.19-3.23 52.9 1.4 61.83 4.31 5.36 14.87 2.8 15.56-4.24-1.36-10.3 3.35-51.66 1.73-60.11-1.62-8.46-9.72-21.8-16.68-24.41-15.94-5.99-21.17-6.08-42.55-2.57z" stroke="#050202" stroke-width="3.897" fill="#FC0"/><path d="M83.255 165.866l83.318.1c-1.05 3.87-.552 9.395-.237 14.143l-82.766-.21-.31-14.04z" stroke="#000" stroke-width="3.496" fill="#FC0"/><path d="M190.565 158.497c-1.245 3.857-.315 6.678-3.28 15.86-2.885 8.936-3.743 17.583-12.6 15.304-4.937-1.27-9.64-10.7-4.26-14.33-3.083 1.86-8.015 6.71-9.593 5.02-2.31-2.47-2.448-7.5 3.818-10.79 1.53-.8.81-1.33 2.095-1.91.193-.38 2.042-1.62 2.426-1.84 6.57-3.77 17.94-6.48 21.4-7.3zm-129.855 0c1.246 3.857.316 6.678 3.28 15.86 2.886 8.936 3.744 17.583 12.6 15.304 4.938-1.27 9.64-10.7 4.26-14.33 3.084 1.86 8.016 6.71 9.594 5.02 2.31-2.47 2.448-7.5-3.818-10.79-1.53-.8-.81-1.33-2.094-1.91-.194-.38-2.043-1.62-2.427-1.84-6.563-3.77-17.937-6.48-21.394-7.3z" stroke="#050202" stroke-width="4" fill="#E6C2AA"/></g><g transform="translate(876 185)"><ellipse stroke="#000" stroke-width="3.5" fill="#FFF" transform="rotate(-135.477 177.124 73.23)" cx="177.124" cy="73.231" rx="46.234" ry="56.549"/><ellipse stroke="#000" stroke-width="3.5" fill="#FFF" transform="rotate(-44.523 72.782 73.23)" cx="72.782" cy="73.231" rx="46.234" ry="56.549"/><path d="M87.493 83.652l3.933 15.613L84.573 166l-26.428-9.34c8.76-32.48 12.21-59.233 29.348-73.008z" stroke="#050202" stroke-width="4" fill="#FFF"/><ellipse stroke="#000" stroke-width="4" fill="#502D16" transform="matrix(-1 0 0 1 248.59 0)" cx="124.294" cy="60.566" rx="38.853" ry="43.545"/><path d="M163.783 83.652l-3.933 15.613L166.704 166l26.427-9.34c-8.76-32.48-12.21-59.233-29.34-73.008z" stroke="#050202" stroke-width="4" fill="#FFF"/><ellipse stroke="#050202" stroke-width="4" fill="#E6C2AA" transform="matrix(-1 0 0 1 290.596 0)" cx="145.298" cy="281.928" rx="20.058" ry="10.929"/><ellipse stroke="#050202" stroke-width="4" fill="#E6C2AA" transform="matrix(-1 0 0 1 195.42 0)" cx="97.71" cy="283.489" rx="20.058" ry="10.929"/><path d="M84.21 175.33c-2.77 35.35-9.612 89.37-2.976 96.67 21.128 10.94 70.418 14.95 86.8-6.51 8.007-18.628-5.493-59.356-3.6-90.16 10.076-60.556 5.758-114.804-40.985-115.605-41.2-.705-49.87 53.485-39.24 115.605z" stroke="#000" stroke-width="3.691" fill="#FFF"/><path d="M141.492 73.875c-3.663 3.543-33.32.486-35.315-1.202-1.994-1.688 8.032 23.194 17.854 23.266 9.43.07 21.13-25.61 17.47-22.07z" stroke="#000" stroke-width="4" fill="#E6C2AA"/><ellipse stroke="#050202" stroke-width="3.9" fill="#E6C2AA" transform="matrix(-1 0 0 1 249.317 0)" cx="124.659" cy="49.443" rx="28.922" ry="35.051"/><ellipse fill="#000" transform="matrix(-1 0 0 1 266.967 0)" cx="133.484" cy="41.208" rx="2.642" ry="2.622"/><ellipse fill="#000" transform="matrix(-1 0 0 1 231.806 0)" cx="115.903" cy="41.509" rx="2.642" ry="2.622"/><path d="M138.653 57.647c-3.662 3.543-26.73 1.29-28.724-.397-2-1.688 9.08 13.74 14.81 13.707 5.72-.034 17.57-16.853 13.91-13.31z" stroke="#000" stroke-width="4" fill="#FFD5D5"/><path d="M108.438 5.233C87.06 8.748 79.183 59.045 85.355 91.597c1.097 5.172 8.102 6.277 12.202 3.97 3.63-1.576 4.36-5.66 4.562-9.158-.23-6-6.69-38.46 2.23-53.89s39.65-12 44.61 2.19c4.95 14.19-3.23 52.9 1.4 61.83 4.31 5.36 14.87 2.8 15.56-4.24-1.36-10.3 3.35-51.66 1.73-60.11-1.62-8.46-9.72-21.8-16.68-24.41-15.94-5.99-21.17-6.08-42.55-2.57z" stroke="#050202" stroke-width="3.897" fill="#FC0"/><path d="M83.255 165.866l83.318.1c-1.05 3.87-.552 9.395-.237 14.143l-82.766-.21-.31-14.04z" stroke="#000" stroke-width="3.496" fill="#FC0"/><path d="M190.565 158.497c-1.245 3.857-.315 6.678-3.28 15.86-2.885 8.936-3.743 17.583-12.6 15.304-4.937-1.27-9.64-10.7-4.26-14.33-3.083 1.86-8.015 6.71-9.593 5.02-2.31-2.47-2.448-7.5 3.818-10.79 1.53-.8.81-1.33 2.095-1.91.193-.38 2.042-1.62 2.426-1.84 6.57-3.77 17.94-6.48 21.4-7.3zm-129.855 0c1.246 3.857.316 6.678 3.28 15.86 2.886 8.936 3.744 17.583 12.6 15.304 4.938-1.27 9.64-10.7 4.26-14.33 3.084 1.86 8.016 6.71 9.594 5.02 2.31-2.47 2.448-7.5-3.818-10.79-1.53-.8-.81-1.33-2.094-1.91-.194-.38-2.043-1.62-2.427-1.84-6.563-3.77-17.937-6.48-21.394-7.3z" stroke="#050202" stroke-width="4" fill="#E6C2AA"/></g><g transform="translate(1041 185)"><ellipse stroke="#000" stroke-width="3.5" fill="#FFF" transform="rotate(-135.477 177.124 73.23)" cx="177.124" cy="73.231" rx="46.234" ry="56.549"/><ellipse stroke="#000" stroke-width="3.5" fill="#FFF" transform="rotate(-44.523 72.782 73.23)" cx="72.782" cy="73.231" rx="46.234" ry="56.549"/><path d="M87.493 83.652l3.933 15.613L84.573 166l-26.428-9.34c8.76-32.48 12.21-59.233 29.348-73.008z" stroke="#050202" stroke-width="4" fill="#FFF"/><ellipse stroke="#000" stroke-width="4" fill="#502D16" transform="matrix(-1 0 0 1 248.59 0)" cx="124.294" cy="60.566" rx="38.853" ry="43.545"/><path d="M163.783 83.652l-3.933 15.613L166.704 166l26.427-9.34c-8.76-32.48-12.21-59.233-29.34-73.008z" stroke="#050202" stroke-width="4" fill="#FFF"/><ellipse stroke="#050202" stroke-width="4" fill="#E6C2AA" transform="matrix(-1 0 0 1 290.596 0)" cx="145.298" cy="281.928" rx="20.058" ry="10.929"/><ellipse stroke="#050202" stroke-width="4" fill="#E6C2AA" transform="matrix(-1 0 0 1 195.42 0)" cx="97.71" cy="283.489" rx="20.058" ry="10.929"/><path d="M84.21 175.33c-2.77 35.35-9.612 89.37-2.976 96.67 21.128 10.94 70.418 14.95 86.8-6.51 8.007-18.628-5.493-59.356-3.6-90.16 10.076-60.556 5.758-114.804-40.985-115.605-41.2-.705-49.87 53.485-39.24 115.605z" stroke="#000" stroke-width="3.691" fill="#FFF"/><path d="M141.492 73.875c-3.663 3.543-33.32.486-35.315-1.202-1.994-1.688 8.032 23.194 17.854 23.266 9.43.07 21.13-25.61 17.47-22.07z" stroke="#000" stroke-width="4" fill="#E6C2AA"/><ellipse stroke="#050202" stroke-width="3.9" fill="#E6C2AA" transform="matrix(-1 0 0 1 249.317 0)" cx="124.659" cy="49.443" rx="28.922" ry="35.051"/><ellipse fill="#000" transform="matrix(-1 0 0 1 266.967 0)" cx="133.484" cy="41.208" rx="2.642" ry="2.622"/><ellipse fill="#000" transform="matrix(-1 0 0 1 231.806 0)" cx="115.903" cy="41.509" rx="2.642" ry="2.622"/><path d="M138.653 57.647c-3.662 3.543-26.73 1.29-28.724-.397-2-1.688 9.08 13.74 14.81 13.707 5.72-.034 17.57-16.853 13.91-13.31z" stroke="#000" stroke-width="4" fill="#FFD5D5"/><path d="M108.438 5.233C87.06 8.748 79.183 59.045 85.355 91.597c1.097 5.172 8.102 6.277 12.202 3.97 3.63-1.576 4.36-5.66 4.562-9.158-.23-6-6.69-38.46 2.23-53.89s39.65-12 44.61 2.19c4.95 14.19-3.23 52.9 1.4 61.83 4.31 5.36 14.87 2.8 15.56-4.24-1.36-10.3 3.35-51.66 1.73-60.11-1.62-8.46-9.72-21.8-16.68-24.41-15.94-5.99-21.17-6.08-42.55-2.57z" stroke="#050202" stroke-width="3.897" fill="#FC0"/><path d="M83.255 165.866l83.318.1c-1.05 3.87-.552 9.395-.237 14.143l-82.766-.21-.31-14.04z" stroke="#000" stroke-width="3.496" fill="#FC0"/><path d="M190.565 158.497c-1.245 3.857-.315 6.678-3.28 15.86-2.885 8.936-3.743 17.583-12.6 15.304-4.937-1.27-9.64-10.7-4.26-14.33-3.083 1.86-8.015 6.71-9.593 5.02-2.31-2.47-2.448-7.5 3.818-10.79 1.53-.8.81-1.33 2.095-1.91.193-.38 2.042-1.62 2.426-1.84 6.57-3.77 17.94-6.48 21.4-7.3zm-129.855 0c1.246 3.857.316 6.678 3.28 15.86 2.886 8.936 3.744 17.583 12.6 15.304 4.938-1.27 9.64-10.7 4.26-14.33 3.084 1.86 8.016 6.71 9.594 5.02 2.31-2.47 2.448-7.5-3.818-10.79-1.53-.8-.81-1.33-2.094-1.91-.194-.38-2.043-1.62-2.427-1.84-6.563-3.77-17.937-6.48-21.394-7.3z" stroke="#050202" stroke-width="4" fill="#E6C2AA"/></g><g transform="translate(1206 185)"><ellipse stroke="#000" stroke-width="3.5" fill="#FFF" transform="rotate(-135.477 177.124 73.23)" cx="177.124" cy="73.231" rx="46.234" ry="56.549"/><ellipse stroke="#000" stroke-width="3.5" fill="#FFF" transform="rotate(-44.523 72.782 73.23)" cx="72.782" cy="73.231" rx="46.234" ry="56.549"/><path d="M87.493 83.652l3.933 15.613L84.573 166l-26.428-9.34c8.76-32.48 12.21-59.233 29.348-73.008z" stroke="#050202" stroke-width="4" fill="#FFF"/><ellipse stroke="#000" stroke-width="4" fill="#502D16" transform="matrix(-1 0 0 1 248.59 0)" cx="124.294" cy="60.566" rx="38.853" ry="43.545"/><path d="M163.783 83.652l-3.933 15.613L166.704 166l26.427-9.34c-8.76-32.48-12.21-59.233-29.34-73.008z" stroke="#050202" stroke-width="4" fill="#FFF"/><ellipse stroke="#050202" stroke-width="4" fill="#E6C2AA" transform="matrix(-1 0 0 1 290.596 0)" cx="145.298" cy="281.928" rx="20.058" ry="10.929"/><ellipse stroke="#050202" stroke-width="4" fill="#E6C2AA" transform="matrix(-1 0 0 1 195.42 0)" cx="97.71" cy="283.489" rx="20.058" ry="10.929"/><path d="M84.21 175.33c-2.77 35.35-9.612 89.37-2.976 96.67 21.128 10.94 70.418 14.95 86.8-6.51 8.007-18.628-5.493-59.356-3.6-90.16 10.076-60.556 5.758-114.804-40.985-115.605-41.2-.705-49.87 53.485-39.24 115.605z" stroke="#000" stroke-width="3.691" fill="#FFF"/><path d="M141.492 73.875c-3.663 3.543-33.32.486-35.315-1.202-1.994-1.688 8.032 23.194 17.854 23.266 9.43.07 21.13-25.61 17.47-22.07z" stroke="#000" stroke-width="4" fill="#E6C2AA"/><ellipse stroke="#050202" stroke-width="3.9" fill="#E6C2AA" transform="matrix(-1 0 0 1 249.317 0)" cx="124.659" cy="49.443" rx="28.922" ry="35.051"/><ellipse fill="#000" transform="matrix(-1 0 0 1 266.967 0)" cx="133.484" cy="41.208" rx="2.642" ry="2.622"/><ellipse fill="#000" transform="matrix(-1 0 0 1 231.806 0)" cx="115.903" cy="41.509" rx="2.642" ry="2.622"/><path d="M138.653 57.647c-3.662 3.543-26.73 1.29-28.724-.397-2-1.688 9.08 13.74 14.81 13.707 5.72-.034 17.57-16.853 13.91-13.31z" stroke="#000" stroke-width="4" fill="#FFD5D5"/><path d="M108.438 5.233C87.06 8.748 79.183 59.045 85.355 91.597c1.097 5.172 8.102 6.277 12.202 3.97 3.63-1.576 4.36-5.66 4.562-9.158-.23-6-6.69-38.46 2.23-53.89s39.65-12 44.61 2.19c4.95 14.19-3.23 52.9 1.4 61.83 4.31 5.36 14.87 2.8 15.56-4.24-1.36-10.3 3.35-51.66 1.73-60.11-1.62-8.46-9.72-21.8-16.68-24.41-15.94-5.99-21.17-6.08-42.55-2.57z" stroke="#050202" stroke-width="3.897" fill="#FC0"/><path d="M83.255 165.866l83.318.1c-1.05 3.87-.552 9.395-.237 14.143l-82.766-.21-.31-14.04z" stroke="#000" stroke-width="3.496" fill="#FC0"/><path d="M190.565 158.497c-1.245 3.857-.315 6.678-3.28 15.86-2.885 8.936-3.743 17.583-12.6 15.304-4.937-1.27-9.64-10.7-4.26-14.33-3.083 1.86-8.015 6.71-9.593 5.02-2.31-2.47-2.448-7.5 3.818-10.79 1.53-.8.81-1.33 2.095-1.91.193-.38 2.042-1.62 2.426-1.84 6.57-3.77 17.94-6.48 21.4-7.3zm-129.855 0c1.246 3.857.316 6.678 3.28 15.86 2.886 8.936 3.744 17.583 12.6 15.304 4.938-1.27 9.64-10.7 4.26-14.33 3.084 1.86 8.016 6.71 9.594 5.02 2.31-2.47 2.448-7.5-3.818-10.79-1.53-.8-.81-1.33-2.094-1.91-.194-.38-2.043-1.62-2.427-1.84-6.563-3.77-17.937-6.48-21.394-7.3z" stroke="#050202" stroke-width="4" fill="#E6C2AA"/></g><path d="M1203.756 571.036c8.256-2.02 17.256 4.88 24.373 19.45 6.73 13.792 16.71 24.217 4.02 32.043-7.07 4.36-23.59-.75-21.85-11.16-1.27 5.7-1.05 16.97-4.84 16.91-5.54-.08-11.69-5.59-8.54-16.65.77-2.7.52-5.36 1.29-7.51-.24-.66-.5-1.33-.67-2.03-3.9-15.73-2.05-29.05 6.21-31.07z" stroke="#050202" stroke-width="4" fill="#FFF6D5"/><path d="M1176.087 455.983l-6.42 25.512 32.093 109.7 35.944-17.857c-14.297-53.076-33.65-94.846-61.617-117.355z" stroke="#050202" stroke-width="4" fill="#502D16"/><path d="M1023.72 571.036c-8.258-2.02-17.257 4.88-24.375 19.45-6.738 13.792-16.712 24.217-4.025 32.043 7.072 4.36 23.59-.75 21.853-11.16 1.268 5.7 1.045 16.97 4.835 16.91 5.542-.08 11.69-5.59 8.54-16.65-.768-2.7-.52-5.36-1.287-7.51.25-.66.5-1.33.67-2.03 3.9-15.73 2.05-29.05-6.21-31.07z" stroke="#050202" stroke-width="4" fill="#FFF6D5"/><path d="M1051.388 455.983l6.418 25.512-32.092 109.7-35.943-17.857c14.3-53.076 33.65-94.846 61.62-117.355z" stroke="#050202" stroke-width="4" fill="#502D16"/><path d="M1114.29 779.984c0 4.737-3.45 9.28-9.59 12.628-6.138 3.35-14.464 5.23-23.145 5.23-8.682 0-17.008-1.88-23.147-5.23-6.14-3.35-9.587-7.89-9.587-12.628 0-9.863 14.66-17.858 32.74-17.858s32.74 7.995 32.74 17.858zm77.662 2.552c0 4.736-3.45 9.278-9.588 12.627-6.14 3.35-14.465 5.23-23.146 5.23-8.682 0-17.008-1.88-23.147-5.23-6.13-3.35-9.58-7.89-9.58-12.627 0-9.863 14.66-17.86 32.74-17.86s32.74 7.997 32.74 17.86z" stroke="#050202" stroke-width="4" fill="#504416"/><path d="M1199.498 596.122c5.312 57.704 13.268 154.976 1.1 167.46-12.475 12.798-66.365 23.52-87.332 15.192-20.24-8.04-63.808 4.587-79.17-25.82-15.363-30.405-2.52-103.843-6.155-154.126-7.35-101.737 2.75-180.562 91.68-181.75 75.67-1.01 84.81 77.644 79.88 179.044z" stroke="#050202" stroke-width="4" fill="#5AA02C"/><path d="M1027.73 585.322l172.532.162c-2.173 6.186-1.144 15.018-.49 22.608l-171.39-.324-.652-22.446z" stroke="#000" stroke-width="3.895" fill="#502D16"/><path d="M1164.923 398.954c0 15.19-4.973 29.76-13.825 40.5-8.852 10.742-20.858 16.776-33.376 16.776-12.518 0-24.524-6.034-33.376-16.776-8.852-10.74-13.825-25.31-13.825-40.5 0-15.19 4.98-29.76 13.83-40.5 8.85-10.742 20.86-16.776 33.38-16.776s24.53 6.034 33.38 16.776c8.85 10.74 13.83 25.31 13.83 40.5z" stroke="#050202" stroke-width="3.9" fill="#FFF6D5"/><path d="M1164.856 355.155c-4.483.767-8.95 3.354-10.652 7.483-1.114 2.88.146 6.25 2.633 8.134.93 1.502-.536 3.018-1.544 4.08-1.83 2.32-2.128 5.716-.4 8.16 1.317 2.803.826 6.287-1.294 8.63-1.55 2.55-.93 5.757.54 8.207.39 1.52 2.16 2.57 1.94 4.26.63 1.63-1.06 2.92-2 4.08-1.38 2.18-1.61 4.88-.95 7.31.23 2.5-1.23 5.16.2 7.5 2.88 4.52 8.61 7.09 14.14 6.84 4.81.03 9.76-2 12.55-5.77 1.38-2.17 1.63-4.87.85-7.27.06-2.56 1.26-5.39-.35-7.74-1.01-1.17-1.36-2.67-1.49-4.13-.85-.82-1.98-2.23-1.05-3.33 3.15-1.76 4.16-5.86 2.95-8.99-.24-1.57-2.22-2.45-2.45-3.8 1.39-1.08-1.28-2.5.72-3.25 2.31-1.47 3.4-4.22 3.36-6.77-.1-1.78-.79-3.59-2.3-4.74-1.29-.95-1.16-2.66-.1-3.71 1.19-1.32 2.3-2.83 2.36-4.63.36-3.93-2.53-7.65-6.28-9.15-3.37-1.43-7.18-1.72-10.82-1.56-.21.03-.41.06-.61.1z" stroke="#050202" stroke-width="3.897" fill="#FFF"/><path d="M1072.932 336.11c-1.474 3.213-2.91 4.472-2.713 2.68.19-1.79-1.81-2.776-3.39-3.114-4.86-1.494-10.83 1.106-12.31 5.81-.82 2.176-.43 4.53.19 6.698.24 1.668-1.27 2.75-2.47 3.69-1.76 1.22-3.31 2.846-3.8 4.903-1.05 3.153-.39 6.844 1.97 9.334.96 2.07-.79 4-1.85 5.67-1.42 3-1 6.54.53 9.42.38 2.88-2.83 4.68-3.03 7.44-.74 3.56.86 7.59 4.22 9.48 1.1 1.03.69 2.73-.32 3.67-2.31 3.65-1.63 8.73 1.58 11.71 1.43 2.28-.7 4.73-.32 7.11.38 5.03 5.61 9.43 11.01 8.76 3.55-1.09 7.11-2.35 10.89-2.51 5.58-1.53 8.91-8.13 6.35-13.11-.56-1.22-1-2.51-1.19-3.84-1.33-.01-1.6-2.3-.16-2.35 2.34-.56 3.23-3.31 2.4-5.27-.42-4.09-1.38-8.28-3.63-11.84-1.08-.97-.94-2.4-.05-3.41.91-2.04.92-4.36 2.06-6.32 1.3-2.78.65-6.02-1.07-8.51-.68-.85-1.08-2.22 0-2.96 1.23-.82 2.82-1.11 3.78-2.29 1.07-.98 1.54-2.5 2.74-3.32 1.73-.42 2.81 1.39 4.33 1.8 3.51 1.53 7.89.82 10.77-1.57 1.45-.53 2.59.91 3.06 2.02 2.56 4.14 8.78 5.83 13.24 3.45.77-1.07 2.99-1.39 3.58 0 1.94 2.49 4.06 5.42 7.54 5.95 4.4.87 9.28-1.31 11.26-5.13 1.59-1.3 3.69-.18 5.43.2 3.68.83 7.34-1.04 9.95-3.38 3.03-2.12 7.52-1.22 10.21-3.93 2.88-2.84 3.93-7.3 2.34-10.96.13-2.53 3.24-3.69 3.65-6.14 1.9-4.88-1.39-11.12-6.9-12.21-1.67-.36-3.41-.35-5.1-.1-1.36-.95-.04-2.62-.6-3.85-1.25-5.04-7.21-8.74-12.61-7.37-.945.52-2.456 1.22-3.26.12-1.52-4.19-6.45-6.95-11.09-6.36-3.715.55-6.955 3.26-7.986 6.67-3.906-3.33-10.67-3.05-14.15.71-.01 1.33-2.53 1.5-2.665.15-3.148-4.71-11.2-5.42-15.148-1.23-1.35 1.27-2.16 2.95-2.74 4.64-2.75.11-5.59-1.56-8.24-.21-3.68 1.24-4.9 6.08-6.38 9.29z" stroke="#050202" stroke-width="3.897" fill="#FFF"/><path d="M1106.36 393.075c0 2.366-1.93 4.285-4.31 4.285-2.382 0-4.313-1.92-4.313-4.285 0-1.136.455-2.226 1.263-3.03.81-.803 1.905-1.254 3.05-1.254 1.142 0 2.24.46 3.048 1.26.808.81 1.262 1.9 1.262 3.03z" fill="#000"/><path d="M1076.735 418.444c0 1.65.627 3.18 1.71 4.447-2.99 1.35-4.994 3.92-4.994 6.86 0 4.35 4.39 7.88 9.81 7.88.75 0 1.47-.08 2.16-.21.06.1.12.21.18.3-2 .77-3.66 2.04-4.63 3.64-.88-.21-1.82-.29-2.79-.29-5.41 0-9.8 3.53-9.8 7.88 0 1.9.85 3.64 2.25 5-.54.98-.81 2.09-.81 3.22 0 4.12 3.96 7.5 9 7.84-1.09 1.27-1.71 2.83-1.71 4.49 0 1.12.29 2.17.81 3.13-1.42 1.37-2.29 3.16-2.29 5.08 0 2.85 1.94 5.31 4.77 6.69-.25.7-.4 1.45-.4 2.21 0 4.35 4.39 7.84 9.81 7.84 1.66 0 3.22-.31 4.59-.89-.37.83-.58 1.7-.58 2.63 0 4.34 4.44 7.88 9.85 7.88 1.73 0 3.36-.38 4.77-1.01 1.73 2.23 4.76 3.73 8.28 3.73 4.28 0 7.93-2.18 9.27-5.25 1.55 2.71 4.99 4.58 8.95 4.58 5.42 0 9.81-3.53 9.81-7.87 0-.16-.03-.31-.04-.46 4.56-.67 8.05-3.89 8.05-7.75 0-1.14-.35-2.2-.9-3.17 1.88-1.43 3.06-3.47 3.06-5.72 0-4.34-4.39-7.88-9.8-7.88-.12 0 5.45-3.95 5.45-7.15 0-.65-.09-1.3-.27-1.91 3.18-1.3 5.35-3.93 5.35-6.99 0-3.59-3-6.64-7.1-7.58 1.69-1.41 2.74-3.3 2.74-5.42 0-1.27-.36-2.49-1.03-3.55 2.81-1.38 4.68-3.89 4.68-6.73 0-1.14-.31-2.2-.85-3.18 1.43-1.37 2.3-3.12 2.3-5.04 0-4.34-4.39-7.88-9.806-7.88-.87 0-1.72.13-2.52.3-.82-.18-1.68-.3-2.565-.3-5.42 0-9.806 3.54-9.806 7.88 0 .56.04 1.13.18 1.66-2 .68-3.66 1.88-4.726 3.386-1.52-.78-3.32-1.27-5.26-1.27-3.41 0-6.424 1.39-8.18 3.51-1.607-.91-3.51-1.44-5.62-1.44-1.52 0-2.95.27-4.23.764-.94-3.57-4.907-6.27-9.63-6.27-.747 0-1.46.08-2.16.21-.19-.3-.397-.62-.63-.89 2.98-1.35 4.99-3.92 4.99-6.86 0-4.35-4.387-7.84-9.8-7.84s-9.81 3.49-9.81 7.83z" stroke="#050202" stroke-width="3.897" fill="#FFF"/><path d="M1094.54 422.045c2.29.78 3.25-2.06 17.47-1.88 5.14 5.325 8.27-.396 11.638-.92 11.485 1.88 6.71 5.615 8.938 5.454" stroke="#000" stroke-width="3.897"/><path d="M1136.323 393.566c0 2.366-1.93 4.284-4.31 4.284-2.383 0-4.313-1.918-4.313-4.284 0-1.136.454-2.226 1.263-3.03.808-.803 1.905-1.254 3.05-1.254 1.142 0 2.24.45 3.047 1.254.81.804 1.263 1.894 1.263 3.03z" fill="#000"/><path d="M1449 575.816c6.32 29.473-8.272 38.884-37.143 24.104-31.23-15.987-46.618-12.668-41.907-23.052 5.263-11.6 19.454-28.583 41.907-23.052 13.266 3.268 23.213 13.89 37.144 22zm-264.368-9.832c-8.256-2.02-17.256 4.88-24.373 19.448-6.74 13.793-16.72 24.218-4.03 32.045 7.07 4.362 23.59-.75 21.85-11.16 1.27 5.708 1.04 16.97 4.83 16.917 5.54-.078 11.69-5.59 8.54-16.646-.77-2.702-.52-5.356-1.29-7.508.24-.664.49-1.333.66-2.032 3.89-15.725 2.05-29.044-6.21-31.064z" stroke="#050202" stroke-width="4" fill="#FFF6D5"/><path d="M1212.3 450.93l6.42 25.512-32.092 109.7-35.944-17.857c14.297-53.075 33.65-94.846 61.617-117.355z" stroke="#050202" stroke-width="4" fill="#5AA02C"/><path d="M1275.202 774.932c0 4.736-3.448 9.278-9.587 12.627-6.14 3.35-14.465 5.23-23.147 5.23-8.68 0-17.007-1.88-23.146-5.23-6.14-3.35-9.588-7.9-9.588-12.63 0-9.87 14.656-17.86 32.734-17.86 18.08 0 32.734 7.99 32.734 17.86zm77.663 2.55c0 4.737-3.448 9.28-9.587 12.63-6.14 3.35-14.465 5.23-23.147 5.23-8.68 0-17-1.88-23.14-5.23-6.14-3.35-9.59-7.89-9.59-12.628 0-9.863 14.66-17.858 32.74-17.858 18.08 0 32.74 7.995 32.74 17.858z" stroke="#050202" stroke-width="4" fill="#504416"/><path d="M1418.072 769.947c-.96-115.94-2.082-257.882-5.103-343.078-1.54-43.19 80.63-71.57 91.1 4.32 1.22 5.69-5.44 11.85-13.34 10.65-12.93-68.94-61.65-28.87-61.48-12.79 1.17 112.37 6.89 227.08 5.4 339.23l-16.6 1.65z" stroke="#000" stroke-width="4" fill="#A0892C"/><path d="M1428.32 562.74c0 4.106-6.03 7.435-13.47 7.435s-13.47-3.33-13.47-7.436c0-4.11 6.03-7.44 13.47-7.44s13.47 3.33 13.47 7.43z" stroke="#050202" stroke-width="4" fill="#FFF6D5"/><path d="M1345.805 456.032c16.122 32.878 37.41 60.623 60.334 86.74 3.16 33.08-6.36 40.936-12.84 54.852-24.11-6.32-33.9-9.798-41.08-12.756l-6.42-128.836z" stroke="#050202" stroke-width="4" fill="#5AA02C"/><path d="M1360.41 591.07c5.313 57.704 13.27 154.975 1.103 167.458-12.477 12.8-66.367 23.52-87.334 15.193-20.24-8.03-63.81 4.59-79.17-25.81-15.37-30.4-2.52-103.84-6.16-154.12-7.36-101.73 2.75-180.56 91.68-181.75 75.67-1.01 84.81 77.65 79.88 179.05z" stroke="#050202" stroke-width="4" fill="#447821"/><path d="M1323.353 395.028c0 15.19-4.973 29.76-13.825 40.5-8.852 10.742-20.858 16.776-33.376 16.776-12.518 0-24.524-6.034-33.376-16.776-8.852-10.74-13.825-25.31-13.825-40.5 0-15.19 4.98-29.76 13.83-40.5 8.85-10.742 20.86-16.776 33.38-16.776s24.53 6.034 33.38 16.776c8.85 10.74 13.83 25.31 13.83 40.5z" stroke="#050202" stroke-width="3.9" fill="#FFF6D5"/><path d="M1264.79 389.15c0 2.365-1.93 4.284-4.31 4.284-2.382 0-4.313-1.92-4.313-4.285 0-1.14.454-2.23 1.263-3.03.81-.81 1.905-1.26 3.05-1.26 1.142 0 2.24.45 3.048 1.25.808.8 1.262 1.89 1.262 3.03z" fill="#000"/><path d="M1237.053 484.21c8.892 15.9 49.965 26.485 63.198 17.536 12.4-21.513 16.59-56.46 12.79-80.73-6.68-4.162-11.91-6.06-27.98-5.74-4.87.1-22 1.21-28.46.754-43.28-3.056-29.82 33.885-19.53 68.18z" stroke="#050202" stroke-width="3.897" fill="#28170B"/><path d="M1294.753 389.64c0 2.366-1.93 4.284-4.312 4.284-2.38 0-4.31-1.918-4.31-4.284 0-1.136.46-2.226 1.27-3.03.81-.803 1.91-1.254 3.05-1.254s2.24.45 3.05 1.254c.81.804 1.27 1.894 1.27 3.03z" fill="#000"/><path d="M1188.643 580.27l172.532.162c-2.173 6.185-1.143 15.018-.49 22.608l-171.388-.325-.654-22.445z" stroke="#000" stroke-width="3.895" fill="#502D16"/><path d="M1245.758 325.084c-34.89 5.745-47.745 87.934-37.67 141.127 1.79 8.46 13.22 10.26 19.91 6.49 5.924-2.57 7.12-9.25 7.446-14.96.96-13.76-6.4-76.69 3.65-88.05 10.053-11.35 63.84-8.61 72.802 3.59 8.962 12.2-5.26 85.78 2.287 101.05 7.035 8.77 24.268 4.59 25.395-6.92-2.223-16.82 5.463-84.4 2.82-98.22-2.642-13.82-15.85-35.62-27.21-39.89-26.007-9.77-34.54-9.93-69.43-4.19z" stroke="#050202" stroke-width="3.897" fill="#5AA02C"/><path d="M1331.118 345.093c2.652 6.538 10.69 15.9 10.093 23.895l-128.45.91c2.01-7.155 3.03-13.08 9.06-23.768l109.31-1.037z" stroke="#000" stroke-width="4" fill="#502D16"/><path d="M1248.694 426.344c5.976 5.79 43.623 2.11 46.878-.65 3.254-2.758-14.83 22.454-24.174 22.4-9.346-.056-28.68-27.54-22.704-21.75z" stroke="#000" stroke-width="4" fill="#FFF6D5"/><path d="M572.568 570.807c-6.32 29.472 8.274 38.883 37.145 24.104 31.23-15.98 46.617-12.66 41.906-23.05-5.27-11.6-19.46-28.58-41.91-23.05-13.27 3.27-23.22 13.89-37.15 22z" stroke="#050202" stroke-width="4" fill="#FFF6D5"/><path d="M597.42 764.938c-1.164-115.976-11.295-229.172-2.49-343.08-1.77-12.12 22.353-9.128 17.494 4.188-9.543 112.128 1.565 225.09 1.595 337.243l-16.6 1.64z" stroke="#000" stroke-width="4" fill="#A0892C"/><path d="M593.25 557.73c0 4.106 6.03 7.436 13.47 7.436s13.47-3.33 13.47-7.436c0-4.107-6.03-7.437-13.47-7.437s-13.47 3.33-13.47 7.437z" stroke="#050202" stroke-width="4" fill="#FFF6D5"/><path d="M675.764 451.023c-16.122 32.877-37.408 60.623-60.333 86.74-3.16 33.08 6.36 40.936 12.84 54.85 24.1-6.32 33.9-9.797 41.08-12.755l6.42-128.835z" stroke="#050202" stroke-width="4" fill="#504416"/><path d="M836.937 560.974c8.257-2.02 17.256 4.88 24.374 19.45 6.74 13.792 16.72 24.217 4.03 32.043-7.07 4.363-23.59-.75-21.85-11.16-1.27 5.71-1.04 16.97-4.83 16.917-5.54-.077-11.69-5.59-8.54-16.645.77-2.71.52-5.36 1.29-7.51-.24-.67-.49-1.34-.66-2.03-3.9-15.73-2.05-29.05 6.21-31.07z" stroke="#050202" stroke-width="4" fill="#FFF6D5"/><path d="M809.268 445.92l-6.418 25.513 32.092 109.7 35.943-17.857c-14.296-53.076-33.65-94.846-61.617-117.355zm-62.9 324.002c0 4.737 3.45 9.28 9.587 12.628 6.138 3.35 14.465 5.23 23.146 5.23 8.69 0 17.01-1.88 23.15-5.23 6.14-3.35 9.59-7.89 9.59-12.628 0-9.863-14.65-17.858-32.73-17.858-18.07 0-32.73 7.995-32.73 17.858zm-77.664 2.552c0 4.736 3.45 9.278 9.588 12.627 6.138 3.35 14.465 5.24 23.146 5.24 8.682 0 17.008-1.88 23.147-5.23 6.14-3.35 9.587-7.89 9.587-12.63 0-9.86-14.655-17.86-32.734-17.86-18.078 0-32.734 8-32.734 17.86z" stroke="#050202" stroke-width="4" fill="#504416"/><path d="M661.158 586.06c-5.312 57.704-13.268 154.976-1.1 167.46 12.475 12.798 66.365 23.52 87.332 15.192 20.24-8.04 63.808 4.587 79.17-25.82 15.363-30.405 2.52-103.843 6.155-154.126 7.352-101.737-2.75-180.562-91.68-181.75-75.67-1.01-84.808 77.644-79.877 179.044z" stroke="#050202" stroke-width="4" fill="#806600"/><path d="M698.217 390.02c0 15.19 4.973 29.758 13.825 40.5 8.85 10.74 20.857 16.775 33.376 16.775 12.518 0 24.524-6.035 33.375-16.776 8.852-10.75 13.825-25.31 13.825-40.5 0-15.2-4.973-29.76-13.825-40.51-8.85-10.74-20.857-16.78-33.375-16.78-12.52 0-24.525 6.03-33.376 16.77-8.852 10.74-13.825 25.31-13.825 40.5z" stroke="#050202" stroke-width="3.9" fill="#FFF6D5"/><path d="M756.78 384.14c0 2.366 1.93 4.284 4.31 4.284 2.382 0 4.312-1.918 4.312-4.284 0-1.137-.454-2.226-1.263-3.03-.81-.803-1.91-1.255-3.05-1.255-1.15 0-2.24.452-3.05 1.255-.81.804-1.27 1.893-1.27 3.03z" fill="#000"/><path d="M784.516 479.2c-8.89 15.9-49.965 26.485-63.198 17.536-12.39-21.513-16.588-56.46-12.782-80.73 6.686-4.16 11.913-6.06 27.983-5.738 4.87.097 22 1.21 28.46.753 43.28-3.05 29.82 33.89 19.53 68.18z" stroke="#050202" stroke-width="3.897" fill="#803300"/><path d="M726.816 384.63c0 2.367 1.93 4.285 4.312 4.285 2.38 0 4.312-1.918 4.312-4.284 0-1.13-.455-2.22-1.263-3.03-.81-.8-1.905-1.25-3.05-1.25-1.142 0-2.24.45-3.048 1.26-.81.81-1.27 1.9-1.27 3.03z" fill="#000"/><path d="M832.926 575.26l-172.532.162c2.173 6.186 1.144 15.018.49 22.608l171.39-.324.652-22.446z" stroke="#000" stroke-width="3.895" fill="#2D5016"/><path d="M775.81 320.075c34.89 5.744 47.747 87.934 37.673 141.126-1.79 8.46-13.22 10.26-19.913 6.49-5.923-2.57-7.118-9.25-7.445-14.96-.96-13.76 6.402-76.69-3.65-88.05-10.053-11.35-63.84-8.61-72.8 3.59-8.964 12.2 5.26 85.78-2.288 101.05-7.035 8.76-24.268 4.58-25.395-6.92 2.222-16.82-5.464-84.4-2.82-98.22 2.64-13.82 15.85-35.61 27.21-39.89 26.006-9.77 34.54-9.93 69.43-4.19z" stroke="#050202" stroke-width="3.897" fill="#504416"/><path d="M690.452 340.084c-2.652 6.537-10.69 15.9-10.094 23.895l128.457.9c-2.005-7.16-3.03-13.08-9.06-23.77l-109.303-1.04z" stroke="#000" stroke-width="4" fill="#2D5016"/><path d="M772.876 421.334c-5.977 5.79-43.623 2.11-46.878-.65-3.255-2.757 14.83 22.455 24.174 22.4 9.345-.055 28.68-27.54 22.704-21.75z" stroke="#000" stroke-width="4" fill="#FFF6D5"/><g transform="translate(210 270)"><ellipse stroke="#000" stroke-width="3.5" fill="#FFF" transform="rotate(-135.477 290.066 118.666)" cx="290.066" cy="118.666" rx="75.453" ry="92.406"/><ellipse stroke="#000" stroke-width="3.5" fill="#FFF" transform="rotate(-44.523 119.78 118.666)" cx="119.78" cy="118.666" rx="75.453" ry="92.406"/><path d="M143.79 135.696l6.417 25.512-11.185 109.052L95.892 255c14.297-53.077 19.93-96.795 47.897-119.304z" stroke="#050202" stroke-width="4" fill="#FFF"/><ellipse stroke="#000" stroke-width="4" fill="#502D16" transform="matrix(-1 0 0 1 407.697 0)" cx="203.848" cy="97.97" rx="63.408" ry="71.157"/><path d="M268.294 135.696l-6.42 25.512L273.06 270.26 316.19 255c-14.296-53.077-19.93-96.795-47.896-119.304z" stroke="#050202" stroke-width="4" fill="#FFF"/><ellipse stroke="#050202" stroke-width="4" fill="#E6C2AA" transform="matrix(-1 0 0 1 476.253 0)" cx="238.126" cy="459.698" rx="32.734" ry="17.858"/><ellipse stroke="#050202" stroke-width="4" fill="#E6C2AA" transform="matrix(-1 0 0 1 320.927 0)" cx="160.463" cy="462.249" rx="32.734" ry="17.858"/><path d="M138.43 285.507c-4.518 57.766-15.686 146.037-4.856 157.966 34.48 17.88 114.923 24.43 141.655-10.637 13.07-30.44-8.97-96.993-5.88-147.33 16.44-98.954 9.39-187.6-66.89-188.91-67.23-1.152-81.39 87.4-64.04 188.91z" stroke="#000" stroke-width="3.691" fill="#FFF"/><path d="M231.914 119.72c-5.976 5.79-54.378.794-57.633-1.965-3.25-2.76 13.11 37.9 29.14 38.02 15.38.113 34.47-41.845 28.5-36.055z" stroke="#000" stroke-width="4" fill="#E6C2AA"/><ellipse stroke="#050202" stroke-width="3.9" fill="#E6C2AA" transform="matrix(-1 0 0 1 408.8 0)" cx="204.356" cy="79.794" rx="47.201" ry="57.276"/><ellipse fill="#000" transform="matrix(-1 0 0 1 440.33 0)" cx="221.484" cy="66.338" rx="4.312" ry="4.284"/><ellipse fill="#000" transform="matrix(-1 0 0 1 382.946 0)" cx="192.792" cy="66.829" rx="4.312" ry="4.284"/><path d="M227.28 93.2c-5.975 5.79-43.622 2.11-46.877-.648-3.254-2.76 14.83 22.454 24.174 22.4 9.346-.056 28.68-27.54 22.704-21.75z" stroke="#000" stroke-width="4" fill="#FFD5D5"/><path d="M177.972 7.55c-34.89 5.746-47.746 87.935-37.672 141.128 1.79 8.45 13.22 10.257 19.913 6.488 5.923-2.576 7.118-9.25 7.445-14.965-.37-9.79-10.92-62.84 3.65-88.05 14.57-25.21 64.72-19.61 72.8 3.59 8.082 23.2-5.26 86.45 2.288 101.05 7.035 8.76 24.268 4.59 25.395-6.92-2.22-16.82 5.47-84.4 2.83-98.22-2.64-13.82-15.85-35.62-27.21-39.89-26-9.77-34.54-9.93-69.42-4.19z" stroke="#050202" stroke-width="3.897" fill="#FC0"/><path d="M136.872 270.04l135.975.167c-1.713 6.323-.9 15.35-.386 23.108l-135.07-.332-.51-22.942z" stroke="#000" stroke-width="3.496" fill="#FC0"/><path d="M312.002 258c-2.03 6.303-.514 10.91-5.353 25.92-4.71 14.6-6.11 28.73-20.57 25.004-8.06-2.076-15.73-17.484-6.95-23.417-5.04 3.026-13.08 10.956-15.66 8.194-3.77-4.03-4-12.26 6.23-17.62 2.49-1.31 1.32-2.18 3.41-3.12.31-.63 3.33-2.65 3.96-3.02 10.71-6.16 29.27-10.6 34.91-11.94zm-211.922 0c2.032 6.303.514 10.91 5.353 25.92 4.708 14.6 6.11 28.73 20.564 25.004 8.057-2.076 15.73-17.484 6.95-23.417 5.033 3.026 13.082 10.956 15.658 8.194 3.768-4.03 3.995-12.26-6.23-17.62-2.5-1.31-1.32-2.18-3.42-3.12-.316-.63-3.332-2.65-3.96-3.02-10.71-6.16-29.274-10.6-34.914-11.93z" stroke="#050202" stroke-width="4" fill="#E6C2AA"/></g><path d="M1145.035 165.567l-91.15 29.503 12.23-66.09c-11.386-10.47-17.746-22.156-17.746-34.48 0-45.01 84.84-81.5 189.5-81.5 104.65 0 189.5 36.49 189.5 81.5s-84.85 81.5-189.5 81.5c-33.73 0-65.4-3.79-92.84-10.433z" stroke="#000" stroke-width="4" fill="#FFF"/><path d="M1109.79 63.03h.233c1.928 0 3.22 1.57 3.875 4.704l-.453.5h-.234l-1.82-.5c-5.01.615-10.25 3.506-15.73 8.672-1.52 2.24-2.28 3.808-2.28 4.703v.98c0 2.64 3.27 4.29 9.81 4.95 4.11 0 7.22-1.82 9.35-5.46l-2.73-.99c-1.01 0-3.82.99-8.43 2.97-.46-.85-.69-1.67-.69-2.47v-.25c0-2.64 3.04-4.45 9.13-5.45h.45c3.5 0 5.25 1.9 5.25 5.7 0 3.91-3.87 7.38-11.62 10.39l-2.75.5c-4.92 0-8.26-1.74-10.03-5.2l-.45-3.22c0-7.47 4.64-13.82 13.91-19.06 2.34-.99 4.09-1.49 5.25-1.49zm9.765 3.954h.218c.678 0 1.245.35 1.704 1.047-.99 7.21-1.698 13.66-2.125 19.35l12.187-2.51.42.63v1.27c0 1.92-4.42 3.67-13.25 5.25-1.58-.28-2.36-.77-2.36-1.47 1.16-15.41 2.02-23.12 2.56-23.12l.64-.42zm26.593 0c4.448.615 6.672 3.276 6.672 7.985 0 6.16-2.437 11.27-7.312 15.31-2.01 1.14-3.807 1.72-5.39 1.72-3.865 0-6.355-2.09-7.47-6.25l-.156-1.94v-.66c0-6.73 3.073-11.84 9.22-15.31 1.54-.58 3.02-.86 4.436-.86zm-11.593 16.83c1.604 2.436 3.724 3.655 6.36 3.655 4.24 0 7.202-2.52 8.89-7.55l.312-2.38c0-3.54-1.745-5.63-5.234-6.25h-.485c-2.885 0-5.9 2.87-9.046 8.62-.532 1.73-.797 3.02-.797 3.89zm30.89-16.83h2.157c3.302 0 4.953 1.15 4.953 3.454v.218c0 4.032-3.448 7.698-10.344 11v.203c3.45 3.16 6.33 5.54 8.63 7.12v.64c0 1.11-.36 1.83-1.08 2.15h-.86l-11.84-8.41-.22 4.31v3.23c-.36.72-.93 1.08-1.72 1.08-.57 0-1-.29-1.29-.86v-1.29l1.94-16.83c-.57 0-.86-.43-.86-1.28 0-2.6 2.15-4.11 6.46-4.53l4.1-.22zm-7.53 11.64h.218c7.458-1.916 11.187-4 11.187-6.25v-.218c0-.396-.718-.682-2.156-.86-2.385 0-5.255.506-8.61 1.516l-.64 5.813zm16.546-11.593l4.79 7.25 2.1 1.72c2.65-4.7 4.49-7.55 5.53-8.54h.96l.77.86c-.1.76-3.09 6.1-8.97 16-1.48 2.78-2.56 5.27-3.25 7.47l-.56.22c-.89-.41-1.34-1.05-1.34-1.92.06-1.11 1.58-4.6 4.58-10.45-4.32-4.64-6.48-8.41-6.48-11.31.8-.85 1.44-1.28 1.91-1.28zm43.07-.06c1.36 0 2.03.56 2.03 1.69v.42c0 1.55-1.21 2.33-3.62 2.33l-4.51.22c-1.35 7.22-2.03 13.43-2.03 18.63-.36 1.13-.74 1.69-1.12 1.69h-.69c-.78 0-1.23-.21-1.36-.64.76-7.99 1.59-14.48 2.49-19.47l-6.78 1.07c-.64 0-1.01-.63-1.13-1.9 0-2.11 1.89-3.17 5.66-3.17 2.26-.56 5.95-.84 11.08-.84zm15.05.02c4.45.62 6.68 3.28 6.68 7.99 0 6.17-2.43 11.27-7.31 15.31-2.01 1.15-3.8 1.72-5.39 1.72-3.86 0-6.35-2.08-7.47-6.25l-.15-1.93v-.65c0-6.73 3.08-11.83 9.22-15.31 1.54-.57 3.02-.86 4.44-.86zm-11.59 16.83c1.61 2.44 3.73 3.66 6.36 3.66 4.24 0 7.21-2.51 8.89-7.54l.32-2.37c0-3.54-1.74-5.62-5.23-6.25h-.48c-2.88 0-5.9 2.88-9.04 8.63-.53 1.73-.79 3.03-.79 3.89zm51.71-20.78h.24c1.93 0 3.22 1.57 3.88 4.71l-.45.5h-.23l-1.83-.5c-5.01.62-10.25 3.51-15.73 8.67-1.52 2.24-2.28 3.81-2.28 4.71v.99c0 2.65 3.27 4.3 9.81 4.96 4.11 0 7.22-1.81 9.35-5.45l-2.73-.98c-1.01 0-3.82.99-8.44 2.97-.46-.84-.69-1.66-.69-2.47v-.25c0-2.63 3.04-4.45 9.13-5.45h.45c3.5 0 5.25 1.9 5.25 5.7 0 3.92-3.87 7.38-11.62 10.39l-2.75.5c-4.92 0-8.26-1.73-10.03-5.2l-.45-3.22c0-7.47 4.64-13.82 13.91-19.06 2.34-.99 4.09-1.48 5.25-1.48zm20.22 3.96c4.45.62 6.67 3.28 6.67 7.99 0 6.17-2.43 11.27-7.31 15.31-2.01 1.15-3.81 1.72-5.39 1.72-3.86 0-6.35-2.08-7.47-6.25l-.15-1.93v-.65c0-6.73 3.08-11.83 9.22-15.31 1.54-.57 3.02-.86 4.44-.86zm-11.59 16.83c1.61 2.44 3.73 3.66 6.36 3.66 4.24 0 7.2-2.51 8.89-7.54l.31-2.37c0-3.54-1.74-5.62-5.23-6.25h-.48c-2.88 0-5.9 2.88-9.04 8.63-.53 1.73-.8 3.03-.8 3.89zM1308.92 67h.954c4.53 0 7.307 1.8 8.328 5.39l.19 1.72c0 7.16-5.3 13.05-15.904 17.69l-.934.22h-.204c-.28 0-.53-.502-.75-1.513l1.89-18.546c-.76 0-1.14-.21-1.14-.64v-.44c0-2.29 1.01-3.43 3.03-3.43l4.548-.44zm-3.78 4.53c-1.136 7.38-1.704 12.34-1.704 14.88v1.08c7.948-3.97 11.92-7.71 11.92-11.22v-.2c0-2.02-.57-3.03-1.703-3.03-1.41-1-3.68-1.5-6.815-1.5h-1.7zm36.17-4.48h.75c1.03 0 2.34 4.77 3.923 14.3 1.25 4.5 1.874 7.56 1.874 9.174-.26.854-.76 1.28-1.5 1.28-.957 0-1.645-2.275-2.062-6.827l-.183-.205h-.19c-1.625.02-5.05 1.018-10.28 2.986-.5 2.84-1.313 4.263-2.44 4.263-.75-.29-1.126-.86-1.126-1.7 0-1.64 3.43-9.18 10.298-22.62l.937-.64zm-.374 5.97c-1.5 2.71-2.875 5.56-4.125 8.55h1.32c1.27 0 2.9-.286 4.88-.86l-1.69-7.69h-.37zM1352.88 67c.946 0 2.082 1.78 3.404 5.34 2.564 5.25 5.41 9.74 8.548 13.47 1.053-10.28 1.835-16.34 2.345-18.172l.86-.64h.64c.427 0 .64.287.64.86-1.28 14.687-2.06 22.526-2.343 23.515l-1.28.42c-2.28 0-6.124-4.842-11.53-14.53l-.86-.86-.22.64-.64 9.845v1.28l.22 1.28c-.188 1.71-.756 2.562-1.704 2.562-.873-.315-1.373-.74-1.5-1.28 1.096-15.4 1.877-23.097 2.346-23.097l1.076-.64zm26.03 0h.953c4.53 0 7.308 1.794 8.33 5.39l.187 1.72c0 7.153-5.3 13.05-15.903 17.684l-.94.22h-.204c-.28 0-.53-.505-.75-1.516l1.89-18.55c-.76 0-1.14-.213-1.14-.64v-.44c0-2.29 1.01-3.435 3.03-3.435l4.544-.44zm-3.78 4.53c-1.137 7.373-1.705 12.33-1.705 14.873v1.08c7.946-3.97 11.92-7.71 11.92-11.22v-.202c0-2.02-.57-3.03-1.705-3.03-1.405-1-3.676-1.5-6.812-1.5h-1.702zm-255.03 37.466c4.132 0 6.2 1.214 6.2 3.64 0 4.803-4.53 9.147-13.595 13.03-.668 0-1 .424-1 1.28-.095 4.71-.564 7.06-1.408 7.06h-1c-.27-.062-.537-.416-.8-1.062l1.8-17.53h-.205c-.53 0-.797-.647-.797-1.94 0-2.093 1.2-3.3 3.607-3.624l7.185-.86zm-8 12.407c4.57-1.196 8.04-3.19 10.403-5.983l.39-1.297v-.42l-1-.22h-1c-5.32.294-7.983.794-7.983 1.5l-.81 6.425zm30.903-12.36c.72.16 1.08.705 1.08 1.643-.23 1.77-.94 2.655-2.14 2.655-7.855 0-11.78 1.1-11.78 3.28l-.22 1.85v1.02c5.125-1.23 8.625-1.84 10.5-1.84h.422c.72.31 1.08 1 1.08 2.05 0 1.5-1 2.25-3 2.25-6.573.86-9.86 1.88-9.86 3.08l-.203 2.05v.81c0 1.23.78 1.91 2.343 2.05 2.46-.27 5.53-.88 9.22-1.84h.64c.573.22.86.7.86 1.44v.61c0 1.68-3.573 2.98-10.72 3.89h-.64c-2.573 0-4-1.63-4.28-4.9 0-2.4.5-6.98 1.5-13.72l-.423-1.23c0-2.77 4.28-4.4 12.843-4.9l2.78-.2zm10.736 0h.75c1.03 0 2.33 4.768 3.92 14.3 1.25 4.5 1.87 7.556 1.87 9.17-.26.855-.76 1.28-1.5 1.28-.96 0-1.65-2.274-2.06-6.826l-.19-.206h-.19c-1.63.02-5.05 1.02-10.28 2.99-.5 2.85-1.31 4.27-2.44 4.27-.75-.29-1.12-.86-1.12-1.7 0-1.64 3.43-9.18 10.29-22.62l.94-.64zm-.38 5.97c-1.5 2.71-2.88 5.558-4.13 8.548h1.31c1.27 0 2.89-.28 4.87-.86l-1.69-7.68h-.38zm23.79-5.97h.92c1.16 0 1.85.935 2.08 2.8v.437c0 2.823-1.07 4.687-3.2 5.593l-.38-.437v-.22l.95-3.656-.75-.42c-3.11 0-6.82 2.944-11.11 8.83-1.02 1.78-1.53 3.14-1.53 4.077v.22c0 2.293 1.39 3.44 4.16 3.44h.17c2.67 0 5.62-.715 8.86-2.14h.58c.5.227.75.727.75 1.5v.857c-2.67 2.73-5.8 4.096-9.41 4.096-4.91-.51-7.36-2.945-7.36-7.31v-.434c0-5.57 3.95-11.024 11.86-16.36 1.5-.57 2.63-.86 3.4-.86zm19.7 0c.72.16 1.08.705 1.08 1.643-.23 1.77-.95 2.655-2.14 2.655-7.86 0-11.78 1.1-11.78 3.28l-.22 1.85v1.02c5.12-1.23 8.62-1.84 10.5-1.84h.42c.72.31 1.08 1 1.08 2.05 0 1.5-1 2.25-3 2.25-6.58.86-9.86 1.88-9.86 3.08l-.21 2.05v.81c0 1.23.78 1.91 2.34 2.05 2.46-.27 5.53-.88 9.22-1.84h.64c.57.22.86.7.86 1.44v.61c0 1.68-3.58 2.98-10.72 3.89h-.64c-2.58 0-4-1.63-4.29-4.9 0-2.4.5-6.98 1.5-13.72l-.42-1.23c0-2.77 4.28-4.4 12.84-4.9l2.78-.2zm28.03-.045c4.45.615 6.67 3.276 6.67 7.985 0 6.164-2.44 11.27-7.31 15.31-2.01 1.146-3.81 1.72-5.39 1.72-3.87 0-6.36-2.084-7.47-6.25l-.16-1.94v-.655c0-6.73 3.07-11.835 9.21-15.314 1.54-.57 3.02-.86 4.44-.86zm-11.59 16.83c1.6 2.436 3.72 3.655 6.36 3.655 4.24 0 7.2-2.518 8.89-7.55l.31-2.374c0-3.54-1.75-5.63-5.24-6.25h-.49c-2.89 0-5.9 2.87-9.05 8.62-.53 1.73-.8 3.02-.8 3.89zm22.69-16.83c.94 0 2.08 1.78 3.4 5.344 2.56 5.25 5.41 9.74 8.54 13.47 1.05-10.28 1.83-16.34 2.34-18.17l.86-.64h.64c.42 0 .64.28.64.86-1.28 14.68-2.06 22.52-2.35 23.51l-1.28.42c-2.28 0-6.13-4.84-11.53-14.53l-.86-.86-.22.64-.64 9.845v1.28l.22 1.28c-.19 1.71-.76 2.563-1.71 2.563-.88-.314-1.38-.74-1.5-1.28 1.09-15.398 1.87-23.096 2.34-23.096l1.08-.64zm47.68.047c.72.16 1.08.705 1.08 1.643-.23 1.77-.95 2.655-2.14 2.655-7.86 0-11.79 1.094-11.79 3.28l-.22 1.845v1.012c5.12-1.23 8.62-1.846 10.5-1.846h.42c.72.31 1.08.99 1.08 2.043 0 1.5-1 2.25-3 2.25-6.58.857-9.86 1.88-9.86 3.08l-.21 2.048v.81c0 1.23.78 1.91 2.34 2.048 2.45-.27 5.53-.886 9.22-1.845h.64c.57.22.86.7.86 1.44v.61c0 1.673-3.58 2.97-10.72 3.89h-.64c-2.58 0-4-1.638-4.29-4.91 0-2.405.5-6.98 1.5-13.72l-.42-1.23c0-2.77 4.28-4.405 12.84-4.905l2.78-.203zm10.73 0h.75c1.03 0 2.34 4.768 3.92 14.3 1.25 4.5 1.87 7.556 1.87 9.17-.26.855-.76 1.28-1.5 1.28-.96 0-1.64-2.274-2.06-6.826l-.19-.21h-.18c-1.63.02-5.06 1.01-10.28 2.98-.5 2.84-1.32 4.26-2.44 4.26-.75-.3-1.13-.86-1.13-1.71 0-1.65 3.43-9.19 10.3-22.63l.94-.64zm-.38 5.97c-1.5 2.71-2.88 5.558-4.13 8.548h1.31c1.27 0 2.89-.285 4.87-.86l-1.69-7.685h-.37zm20.16-6.015h2.15c3.3 0 4.95 1.15 4.95 3.45v.22c0 4.032-3.45 7.7-10.35 11v.203c3.45 3.168 6.32 5.54 8.62 7.126v.64c0 1.11-.36 1.83-1.08 2.15h-.86l-11.84-8.41-.22 4.31v3.23c-.37.72-.94 1.08-1.72 1.08-.58 0-1.01-.29-1.3-.86v-1.3l1.94-16.83c-.57 0-.86-.43-.86-1.28 0-2.6 2.15-4.11 6.45-4.53l4.09-.22zm-7.53 11.64h.22c7.45-1.92 11.18-4 11.18-6.25v-.22c0-.397-.72-.68-2.16-.86-2.39 0-5.26.505-8.61 1.515l-.64 5.814zm31.98-11.658c1.35 0 2.03.56 2.03 1.686v.42c0 1.552-1.21 2.33-3.63 2.33l-4.52.22c-1.36 7.216-2.03 13.424-2.03 18.622-.37 1.128-.74 1.69-1.13 1.69h-.69c-.78 0-1.24-.212-1.36-.64.76-7.99 1.59-14.48 2.48-19.47l-6.79 1.065c-.64 0-1.01-.634-1.13-1.905 0-2.115 1.89-3.17 5.66-3.17 2.26-.565 5.95-.846 11.07-.846zm18.08.014c.74.198 1.11.703 1.11 1.516v.203c-1.04 15.387-1.78 23.08-2.21 23.08l-.24.22h-.66c-.77 0-1.29-.36-1.57-1.077.29-2.052.44-4.927.44-8.625h-.22l-9.35 2.157-.66.86v4.092c0 1.22-.45 2.086-1.35 2.596h-.43c-.84 0-1.36-.36-1.57-1.08 1.03-15.53 2.52-23.297 4.453-23.297h.436l.67.88c-1.04 5.16-1.56 8.97-1.56 11.43 6.82-.89 10.23-1.97 10.23-3.23l.89-9.06 1.565-.64zm12.86-3.92c.63.29.94.64.94 1.045-2.97 9.57-4.45 15.62-4.45 18.17-.85.98-1.55 1.47-2.13 1.47-.94-.33-1.41-.75-1.41-1.25 1.48-12.95 3.44-19.43 5.87-19.43h1.17zm-5.54 23.452c1.48.28 2.22 1.05 2.22 2.31v.203c-.6 1.98-2.02 2.97-4.27 2.97-1.12 0-1.79-.77-2.02-2.31 0-1.78 1.35-2.84 4.06-3.17z" fill="#000"/><use fill="#000" filter="url(#a)" xlink:href="#b"/><use fill="#FFF" xlink:href="#b"/><path d="M167.896 60h.475c2.04.223 3.06 1.137 3.06 2.742v.545c0 2.742-1.02 5.297-3.06 7.664h-.47c-.31-.08-.62-.53-.93-1.37l1.18-4.09-.95-.56c-2.17.18-6.17 2.37-12.02 6.58v.28l15.56 2.75c1.57 1.14 2.36 3.06 2.36 5.75v1.64c0 3.68-2.59 6.88-7.77 9.6-2.04.73-4 1.09-5.89 1.09h-.47c-5.41 0-8.71-2.19-9.89-6.57V84.4c0-2.013.55-3.02 1.65-3.02 1.08 3.47 3.04 5.203 5.89 5.203 0 .365 1.18.546 3.53.546 3.49 0 6.87-1.64 10.13-4.92 0-2.17-5.02-3.54-15.08-4.12-3.61-.93-5.41-2.29-5.41-4.1 0-4.46 4.87-8.93 14.61-13.43l3.53-.55zm12.393 4.447c.75.305 1.16.62 1.24.95-1.34 8.355-2.01 14.425-2.01 18.21v2.602c4.47 0 8.14-2.06 11-6.16 1.12-9.94 2.21-14.91 3.25-14.91h.26c.99.1 1.49.34 1.49.72-1.5 9.04-2.25 15.82-2.25 20.34v3.77c0 1.24-.51 2.11-1.51 2.6h-1.01l-.98-.95v-.48l.24-4.01c-.6 0-3.85 1.49-9.76 4.48l-1.76.47c-2-.26-3.01-1.13-3.01-2.6v-.23c1.22-16.56 2.64-24.84 4.25-24.84h.51zm25.36 0h1.07c5.09 0 8.22 2.022 9.37 6.065l.21 1.933c0 8.05-5.97 14.684-17.9 19.9l-1.06.245h-.23c-.32 0-.6-.57-.85-1.705l2.13-20.865c-.86 0-1.29-.24-1.29-.72v-.493c0-2.578 1.13-3.868 3.41-3.868l5.11-.5zm-4.26 5.098c-1.28 8.297-1.92 13.875-1.92 16.734v1.21c8.94-4.47 13.41-8.67 13.41-12.62v-.23c0-2.28-.64-3.41-1.92-3.41-1.59-1.13-4.14-1.69-7.67-1.69h-1.91zm24.27-5.098h1.07c5.09 0 8.22 2.022 9.37 6.065l.21 1.933c0 8.05-5.97 14.684-17.9 19.9l-1.06.245h-.23c-.32 0-.6-.57-.85-1.705l2.13-20.865c-.86 0-1.29-.24-1.29-.72v-.493c0-2.578 1.13-3.868 3.41-3.868l5.11-.5zm-4.26 5.098c-1.27 8.297-1.91 13.875-1.91 16.735v1.21c8.94-4.467 13.41-8.67 13.41-12.62v-.23c0-2.275-.64-3.41-1.92-3.41-1.58-1.127-4.14-1.69-7.67-1.69h-1.91zm33.7-5.045c.8.176 1.21.79 1.21 1.846-.26 1.992-1.06 2.988-2.41 2.988-8.84 0-13.26 1.23-13.26 3.69l-.24 2.076v1.142c5.76-1.383 9.7-2.074 11.81-2.074h.47c.81.352 1.21 1.12 1.21 2.303 0 1.69-1.13 2.54-3.38 2.54-7.4.96-11.09 2.12-11.09 3.47l-.23 2.31v.92c0 1.38.87 2.15 2.63 2.3 2.76-.3 6.22-.99 10.37-2.07h.72c.64.25.97.79.97 1.62v.69c0 1.89-4.02 3.35-12.06 4.38h-.72c-2.9 0-4.5-1.84-4.82-5.52 0-2.7.56-7.85 1.69-15.43l-.48-1.39c0-3.11 4.81-4.95 14.45-5.52l3.13-.23zm5.08-.053c1.06 0 2.34 2.004 3.83 6.012 2.88 5.9 6.09 10.95 9.61 15.15 1.18-11.57 2.06-18.38 2.63-20.45l.96-.72h.72c.48 0 .72.32.72.96-1.44 16.52-2.32 25.34-2.64 26.45l-1.44.47c-2.57 0-6.89-5.45-12.97-16.35l-.97-.97-.25.72-.72 11.07v1.44l.24 1.44c-.21 1.92-.85 2.88-1.92 2.88-.99-.35-1.55-.83-1.69-1.44 1.23-17.32 2.11-25.98 2.63-25.98l1.21-.72zm23.52 0h.24c.76 0 1.4.393 1.92 1.178-1.11 8.11-1.91 15.363-2.39 21.762l13.71-2.83.47.703v1.424c0 2.156-4.97 4.125-14.91 5.906-1.77-.317-2.66-.867-2.66-1.653 1.31-17.343 2.27-26.015 2.88-26.015l.72-.475zm16.69.053l5.38 8.156 2.35 1.934c2.97-5.297 5.05-8.502 6.22-9.615h1.07l.86.966c-.12.86-3.48 6.86-10.09 18-1.67 3.13-2.89 5.93-3.66 8.41l-.63.25c-1.01-.47-1.51-1.19-1.51-2.16.06-1.25 1.77-5.17 5.15-11.76-4.86-5.23-7.3-9.47-7.3-12.73.9-.96 1.61-1.44 2.14-1.44zm32.53-.053h.25c.76 0 1.4.393 1.91 1.178-1.11 8.11-1.91 15.363-2.39 21.762l13.71-2.83.47.703v1.424c0 2.156-4.97 4.125-14.91 5.906-1.77-.317-2.66-.867-2.66-1.653 1.31-17.343 2.27-26.015 2.88-26.015l.72-.475zm29.92 0c5 .692 7.5 3.686 7.5 8.983 0 6.937-2.74 12.68-8.23 17.226-2.26 1.29-4.28 1.934-6.06 1.934-4.35 0-7.15-2.344-8.4-7.03l-.18-2.18v-.74c0-7.57 3.45-13.312 10.37-17.226 1.73-.644 3.4-.967 4.99-.967zM349.83 83.38c1.805 2.74 4.19 4.112 7.154 4.112 4.77 0 8.104-2.83 10.002-8.49l.352-2.672c0-3.984-1.963-6.328-5.89-7.03h-.544c-3.246 0-6.638 3.233-10.177 9.702-.598 1.945-.897 3.404-.897 4.377zm41.186-18.95c1.523 0 2.285.632 2.285 1.898v.475c0 1.746-1.36 2.62-4.07 2.62l-5.08.245c-1.52 8.12-2.28 15.105-2.28 20.953-.41 1.27-.83 1.9-1.26 1.9h-.77c-.88 0-1.39-.24-1.53-.72.86-8.99 1.79-16.29 2.8-21.9l-7.63 1.2c-.71 0-1.13-.71-1.26-2.14 0-2.38 2.12-3.57 6.37-3.57 2.55-.63 6.7-.95 12.47-.95zm16.453.07h.36c1.61.2 2.42.984 2.42 2.355v.475c0 2.367-.81 4.57-2.43 6.61h-.37c-.26-.07-.51-.463-.76-1.178l.95-3.533-.74-.48c-1.72.15-4.89 2.04-9.49 5.66v.23l12.27 2.37c1.24.98 1.86 2.63 1.86 4.95v1.4c0 3.17-2.05 5.93-6.14 8.26-1.61.63-3.16.95-4.66.95h-.39c-4.27 0-6.87-1.89-7.81-5.66V85.5c0-1.735.43-2.602 1.3-2.602.85 3 2.41 4.5 4.66 4.5 0 .307.93.46 2.79.46 2.75 0 5.42-1.41 8-4.237 0-1.87-3.97-3.06-11.9-3.55-2.86-.79-4.29-1.97-4.29-3.53 0-3.83 3.84-7.69 11.53-11.56l2.79-.47zm36.56-.053c5 .692 7.5 3.686 7.5 8.983 0 6.937-2.74 12.68-8.23 17.226-2.26 1.29-4.29 1.934-6.07 1.934-4.35 0-7.15-2.344-8.4-7.03l-.18-2.18v-.74c0-7.57 3.45-13.312 10.37-17.226 1.73-.644 3.4-.967 4.99-.967zM430.99 83.38c1.805 2.74 4.19 4.112 7.155 4.112 4.77 0 8.103-2.83 10.002-8.49l.35-2.672c0-3.984-1.962-6.328-5.888-7.03h-.55c-3.25 0-6.64 3.233-10.18 9.702-.6 1.945-.9 3.404-.9 4.377zm37.266-18.88h2.267c1.01.633 1.513 1.342 1.513 2.127-.27 1.887-1.107 2.83-2.513 2.83-4.043 0-7.987.393-11.83 1.178l-.493 5.203 1.248.228h1.002c2.977 0 6.416-.474 10.32-1.423l.754 1.423c-.374 2.836-1.545 4.254-3.514 4.254-1.22.62-4.658 1.09-10.318 1.407-.4 7.09-1.073 10.634-2.022 10.634l-1.002.23h-.246c-.422 0-.674-.31-.756-.95 0-3.85.668-10.93 2.004-21.23l-.738-.72c0-2.38 1.675-3.79 5.027-4.23 3.36-.63 6.46-.95 9.3-.95zm34.084-.053c5.004.692 7.506 3.686 7.506 8.983 0 6.937-2.742 12.68-8.227 17.226-2.27 1.29-4.29 1.934-6.07 1.934-4.35 0-7.15-2.344-8.41-7.03l-.18-2.18v-.74c0-7.57 3.45-13.312 10.37-17.226 1.73-.644 3.4-.967 4.99-.967zM489.295 83.38c1.805 2.74 4.19 4.112 7.154 4.112 4.77 0 8.1-2.83 10-8.49l.35-2.672c0-3.984-1.97-6.328-5.89-7.03h-.55c-3.25 0-6.64 3.233-10.18 9.702-.6 1.945-.9 3.404-.9 4.377zm41.185-18.95c1.524 0 2.286.632 2.286 1.898v.475c0 1.746-1.36 2.62-4.078 2.62l-5.08.245c-1.524 8.12-2.286 15.105-2.286 20.953-.41 1.27-.832 1.9-1.265 1.9h-.774c-.88 0-1.388-.24-1.53-.72.856-8.99 1.788-16.29 2.796-21.9l-7.63 1.2c-.72 0-1.14-.71-1.27-2.14 0-2.38 2.12-3.57 6.36-3.57 2.54-.63 6.69-.95 12.46-.95zm20.338.017c.832.223 1.248.79 1.248 1.705v.23c-1.17 17.308-2.003 25.962-2.496 25.962l-.263.246h-.74c-.866 0-1.452-.404-1.756-1.213.33-2.31.5-5.543.5-9.703h-.24L536.55 84.1l-.738.966v4.606c0 1.37-.504 2.344-1.512 2.918h-.492c-.938 0-1.524-.404-1.758-1.213 1.16-17.473 2.83-26.21 5.01-26.21h.492l.754.985c-1.172 5.8-1.758 10.084-1.758 12.85 7.676-1.008 11.514-2.22 11.514-3.64l1-10.194 1.754-.72zm21.62.053c.81.176 1.214.79 1.214 1.846-.257 1.992-1.06 2.988-2.408 2.988-8.836 0-13.254 1.23-13.254 3.69l-.246 2.076v1.142c5.766-1.383 9.703-2.074 11.813-2.074h.474c.81.352 1.22 1.12 1.22 2.303 0 1.69-1.12 2.54-3.37 2.54-7.39.96-11.09 2.12-11.09 3.47l-.22 2.31v.92c0 1.38.88 2.15 2.64 2.3 2.77-.3 6.23-.99 10.37-2.07h.72c.65.25.97.79.97 1.62v.69c0 1.89-4.02 3.35-12.06 4.38h-.72c-2.89 0-4.5-1.84-4.81-5.52 0-2.7.57-7.85 1.69-15.43l-.47-1.39c0-3.11 4.82-4.95 14.45-5.52l3.13-.23zm14.31-.053h2.426c3.715 0 5.572 1.295 5.572 3.885v.246c0 4.535-3.88 8.66-11.637 12.375v.23c3.87 3.56 7.11 6.233 9.7 8.014v.72c0 1.255-.41 2.063-1.21 2.427h-.97l-13.33-9.457-.25 4.85v3.64c-.41.81-1.06 1.213-1.94 1.213-.65 0-1.13-.322-1.46-.967v-1.46l2.18-18.93c-.65 0-.97-.48-.97-1.442 0-2.91 2.42-4.61 7.26-5.09l4.6-.24zm-8.473 13.096h.246c8.4-2.156 12.59-4.5 12.59-7.03v-.247c0-.446-.81-.768-2.42-.967-2.68 0-5.91.56-9.68 1.7l-.72 6.54zM620.533 64.5h.844c1.16 0 2.63 5.36 4.412 16.084 1.4 5.063 2.1 8.502 2.1 10.318-.3.96-.86 1.442-1.69 1.442-1.08 0-1.85-2.56-2.32-7.682l-.21-.228h-.21c-1.83.023-5.69 1.142-11.57 3.357-.56 3.2-1.48 4.8-2.74 4.8-.85-.32-1.27-.96-1.27-1.91 0-1.85 3.86-10.33 11.58-25.45l1.05-.72zm-.422 6.715c-1.68 3.047-3.23 6.252-4.64 9.615h1.48c1.43 0 3.26-.322 5.49-.967l-1.9-8.648h-.42zm13.45-6.768c1.07 0 2.35 2.004 3.83 6.012 2.89 5.9 6.09 10.95 9.62 15.15 1.19-11.57 2.06-18.38 2.64-20.45l.97-.72h.72c.48 0 .72.32.72.96-1.44 16.52-2.32 25.34-2.63 26.45l-1.44.47c-2.57 0-6.89-5.45-12.97-16.35l-.96-.97-.25.72-.72 11.07v1.44l.25 1.44c-.21 1.92-.85 2.88-1.91 2.88-.98-.35-1.54-.83-1.68-1.44 1.23-17.32 2.11-25.98 2.64-25.98l1.21-.72zm35.35 0h.18c1.56 0 2.6 1.524 3.13 4.57l-.37.475h-.17l-1.47-.474c-4.03.597-8.25 3.404-12.67 8.42-1.23 2.18-1.84 3.703-1.84 4.57v.967c0 2.566 2.64 4.166 7.91 4.798 3.31 0 5.82-1.763 7.53-5.29l-2.19-.95c-.82 0-3.09.96-6.8 2.883-.36-.82-.54-1.623-.54-2.408v-.246c0-2.555 2.45-4.32 7.35-5.29h.37c2.82 0 4.22 1.844 4.22 5.536 0 3.808-3.12 7.178-9.37 10.107l-2.19.475c-3.97 0-6.66-1.682-8.08-5.045l-.37-3.13c0-7.265 3.73-13.44 11.2-18.526 1.89-.97 3.3-1.45 4.24-1.45zm24.51.053c.81.176 1.22.79 1.22 1.846-.26 1.992-1.06 2.988-2.41 2.988-8.83 0-13.25 1.23-13.25 3.69l-.24 2.076v1.142c5.77-1.383 9.7-2.074 11.81-2.074h.48c.81.352 1.22 1.12 1.22 2.303 0 1.69-1.12 2.54-3.37 2.54-7.39.96-11.09 2.12-11.09 3.47l-.23 2.31v.92c0 1.38.88 2.15 2.64 2.3 2.77-.3 6.23-.99 10.37-2.07h.72c.65.25.97.79.97 1.62v.69c0 1.89-4.02 3.35-12.06 4.38h-.72c-2.89 0-4.5-1.84-4.81-5.52 0-2.7.57-7.85 1.69-15.43l-.47-1.39c0-3.11 4.82-4.95 14.45-5.52l3.13-.23zm4.84-.053h.25c.76 0 1.4.393 1.92 1.178-1.11 8.11-1.91 15.363-2.39 21.762l13.71-2.83.48.703v1.424c0 2.156-4.97 4.125-14.9 5.906-1.77-.317-2.65-.867-2.65-1.653 1.31-17.343 2.28-26.015 2.88-26.015l.72-.475zm29.45.053h.37c1.62.2 2.43.984 2.43 2.355v.475c0 2.367-.8 4.57-2.42 6.61h-.37c-.26-.07-.51-.463-.75-1.178l.95-3.533-.74-.48c-1.72.15-4.88 2.04-9.49 5.66v.23l12.27 2.37c1.25.98 1.87 2.63 1.87 4.95v1.4c0 3.17-2.04 5.93-6.13 8.26-1.6.63-3.16.95-4.66.95h-.38c-4.26 0-6.86-1.89-7.8-5.66V85.5c0-1.735.44-2.602 1.31-2.602.85 3 2.41 4.5 4.66 4.5 0 .307.93.46 2.8.46 2.76 0 5.42-1.41 8-4.237 0-1.87-3.96-3.06-11.9-3.55-2.86-.79-4.29-1.97-4.29-3.53 0-3.83 3.85-7.69 11.54-11.56l2.79-.47zm-646.94 42h.85c1.16 0 2.63 5.36 4.41 16.084 1.41 5.063 2.11 8.502 2.11 10.318-.29.96-.85 1.442-1.68 1.442-1.08 0-1.85-2.56-2.32-7.682l-.21-.228h-.22c-1.82.023-5.68 1.142-11.56 3.357-.56 3.2-1.47 4.8-2.74 4.8-.84-.32-1.26-.96-1.26-1.91 0-1.85 3.86-10.33 11.58-25.45l1.05-.72zm-.42 6.715c-1.69 3.047-3.23 6.252-4.64 9.615h1.48c1.43 0 3.26-.322 5.49-.967l-1.9-8.648h-.42zm22.64-6.768c4.65 0 6.98 1.365 6.98 4.096 0 5.402-5.1 10.29-15.29 14.66-.75 0-1.12.48-1.12 1.442-.1 5.296-.63 7.945-1.58 7.945h-1.13c-.3-.07-.6-.47-.89-1.195l2.02-19.723h-.22c-.59 0-.89-.727-.89-2.18 0-2.355 1.35-3.715 4.06-4.078l8.09-.967zm-9 13.957c5.15-1.347 9.05-3.59 11.71-6.732l.44-1.46v-.474l-1.12-.246h-1.12c-5.99.328-8.98.89-8.98 1.688l-.92 7.224zM123 106.447c4.653 0 6.98 1.365 6.98 4.096 0 5.402-5.1 10.29-15.294 14.66-.75 0-1.123.48-1.123 1.442-.11 5.296-.635 7.945-1.584 7.945h-1.13c-.31-.07-.61-.47-.9-1.195l2.02-19.723h-.23c-.6 0-.9-.727-.9-2.18 0-2.355 1.35-3.715 4.06-4.078l8.08-.967zm-9 13.957c5.145-1.347 9.047-3.59 11.707-6.732l.44-1.46v-.474l-1.122-.246H123.9c-5.986.328-8.98.89-8.98 1.688l-.915 7.224zm34.77-13.904c.81.176 1.213.79 1.213 1.846-.257 1.992-1.06 2.988-2.407 2.988-8.84 0-13.255 1.23-13.255 3.69l-.24 2.076v1.142c5.77-1.383 9.7-2.074 11.81-2.074h.48c.81.352 1.22 1.12 1.22 2.303 0 1.69-1.13 2.54-3.38 2.54-7.39.96-11.09 2.12-11.09 3.47l-.23 2.31v.92c0 1.38.88 2.15 2.64 2.3 2.77-.3 6.22-.99 10.37-2.07h.72c.65.25.97.79.97 1.62v.69c0 1.89-4.02 3.35-12.06 4.38h-.72c-2.9 0-4.5-1.84-4.82-5.52 0-2.7.56-7.85 1.69-15.43l-.47-1.39c0-3.11 4.82-4.95 14.45-5.52l3.13-.23zm12.076 0h.846c1.16 0 2.63 5.36 4.41 16.084 1.41 5.063 2.11 8.502 2.11 10.318-.29.96-.853 1.442-1.685 1.442-1.08 0-1.854-2.56-2.32-7.682l-.21-.228h-.214c-1.83.023-5.684 1.142-11.57 3.357-.56 3.2-1.475 4.8-2.74 4.8-.844-.32-1.266-.96-1.266-1.91 0-1.85 3.864-10.33 11.586-25.45l1.053-.72zm-.42 6.715c-1.69 3.047-3.234 6.252-4.64 9.615h1.476c1.43 0 3.26-.322 5.486-.967l-1.9-8.648h-.424zm22.676-6.768h2.427c3.71 0 5.57 1.295 5.57 3.885v.246c0 4.535-3.88 8.66-11.64 12.375v.23c3.88 3.56 7.11 6.233 9.7 8.014v.72c0 1.255-.41 2.063-1.21 2.427h-.97l-13.33-9.457-.25 4.85v3.64c-.41.81-1.06 1.213-1.93 1.213-.65 0-1.13-.322-1.46-.967v-1.46l2.18-18.93c-.65 0-.97-.48-.97-1.442 0-2.91 2.42-4.61 7.26-5.09l4.61-.24zm-8.472 13.096h.25c8.39-2.156 12.585-4.5 12.585-7.03v-.247c0-.446-.81-.768-2.426-.967-2.69 0-5.92.56-9.69 1.7l-.72 6.54zm35.26-13.043c.81.176 1.214.79 1.214 1.846-.26 1.992-1.06 2.988-2.41 2.988-8.836 0-13.254 1.23-13.254 3.69l-.247 2.076v1.142c5.764-1.383 9.7-2.074 11.81-2.074h.476c.8.352 1.21 1.12 1.21 2.303 0 1.69-1.12 2.54-3.37 2.54-7.4.96-11.1 2.12-11.1 3.47l-.23 2.31v.92c0 1.38.88 2.15 2.63 2.3 2.76-.3 6.22-.99 10.37-2.07h.72c.64.25.97.79.97 1.62v.69c0 1.89-4.02 3.35-12.06 4.38h-.72c-2.9 0-4.5-1.84-4.82-5.52 0-2.7.56-7.85 1.68-15.43l-.48-1.39c0-3.11 4.81-4.95 14.45-5.52l3.13-.23zm10.6-.053h1.07c5.1 0 8.22 2.022 9.37 6.065l.21 1.933c0 8.05-5.962 14.684-17.892 19.9l-1.052.245h-.23c-.314 0-.595-.57-.84-1.705l2.13-20.865c-.854 0-1.28-.24-1.28-.72v-.493c0-2.578 1.135-3.868 3.41-3.868l5.114-.5zm-4.253 5.098c-1.28 8.297-1.918 13.875-1.918 16.734v1.21c8.94-4.47 13.41-8.67 13.41-12.62v-.23c0-2.28-.64-3.41-1.92-3.41-1.59-1.13-4.14-1.69-7.67-1.69h-1.92zm40.69-5.045h.844c1.16 0 2.63 5.36 4.42 16.084 1.41 5.063 2.11 8.502 2.11 10.318-.29.96-.85 1.442-1.69 1.442-1.08 0-1.85-2.56-2.32-7.682l-.21-.228h-.21c-1.83.023-5.68 1.142-11.56 3.357-.56 3.2-1.47 4.8-2.74 4.8-.84-.32-1.26-.96-1.26-1.91 0-1.85 3.87-10.33 11.59-25.45l1.06-.72zm-.422 6.715c-1.687 3.047-3.234 6.252-4.64 9.615h1.476c1.43 0 3.26-.322 5.49-.967l-1.89-8.648h-.42zm13.447-6.768c1.065 0 2.342 2.004 3.83 6.012 2.88 5.9 6.087 10.95 9.615 15.15 1.18-11.57 2.06-18.38 2.63-20.45l.97-.72h.72c.48 0 .72.32.72.96-1.44 16.52-2.32 25.34-2.634 26.45l-1.44.47c-2.57 0-6.89-5.45-12.973-16.35l-.966-.97-.246.72-.72 11.07v1.44l.246 1.44c-.21 1.92-.846 2.88-1.91 2.88-.986-.35-1.548-.83-1.69-1.44 1.23-17.32 2.11-25.98 2.637-25.98l1.21-.72zm29.284 0h1.07c5.094 0 8.22 2.022 9.37 6.065l.21 1.933c0 8.05-5.97 14.684-17.9 19.9l-1.053.245h-.23c-.315 0-.596-.57-.842-1.705l2.13-20.865c-.85 0-1.28-.24-1.28-.72v-.493c0-2.578 1.14-3.868 3.41-3.868l5.12-.5zm-4.255 5.098c-1.28 8.297-1.92 13.875-1.92 16.734v1.21c8.94-4.47 13.42-8.67 13.42-12.62v-.23c0-2.28-.64-3.41-1.91-3.41-1.58-1.13-4.14-1.69-7.66-1.69H295zm44.74-5.045h.37c1.62.2 2.43.984 2.43 2.355v.475c0 2.367-.81 4.57-2.42 6.61h-.37c-.25-.07-.51-.463-.75-1.178l.95-3.533-.74-.48c-1.72.15-4.88 2.04-9.49 5.66v.23l12.27 2.37c1.24.98 1.87 2.63 1.87 4.95v1.4c0 3.17-2.04 5.93-6.13 8.26-1.6.63-3.16.95-4.66.95h-.38c-4.26 0-6.86-1.89-7.8-5.66v-1.42c0-1.74.44-2.61 1.3-2.61.86 3 2.41 4.5 4.66 4.5 0 .3.93.46 2.8.46 2.75 0 5.42-1.41 7.99-4.24 0-1.87-3.97-3.06-11.9-3.55-2.86-.8-4.29-1.97-4.29-3.53 0-3.83 3.84-7.69 11.53-11.57l2.79-.48zm17.11 0h.84c1.16 0 2.63 5.36 4.42 16.084 1.41 5.063 2.11 8.502 2.11 10.318-.29.96-.85 1.442-1.69 1.442-1.07 0-1.85-2.56-2.32-7.682l-.21-.228h-.21c-1.83.023-5.68 1.142-11.56 3.357-.57 3.2-1.48 4.8-2.74 4.8-.84-.32-1.27-.96-1.27-1.91 0-1.85 3.86-10.33 11.59-25.45l1.06-.72zm-.42 6.715c-1.69 3.047-3.24 6.252-4.64 9.615h1.48c1.43 0 3.26-.322 5.49-.967l-1.9-8.648h-.42zm13.45-6.768c1.07 0 2.34 2.004 3.83 6.012 2.88 5.9 6.09 10.95 9.62 15.15 1.19-11.57 2.07-18.38 2.64-20.45l.96-.72h.72c.48 0 .72.32.72.96-1.44 16.52-2.32 25.34-2.63 26.45l-1.44.47c-2.56 0-6.89-5.45-12.97-16.35l-.96-.97-.25.72-.72 11.07v1.44l.25 1.44c-.21 1.92-.85 2.88-1.91 2.88-.99-.35-1.55-.83-1.69-1.44 1.23-17.32 2.11-25.98 2.64-25.98l1.217-.72zm35.35 0h.18c1.56 0 2.6 1.524 3.13 4.57l-.37.475h-.17l-1.47-.474c-4.03.597-8.26 3.404-12.68 8.42-1.23 2.18-1.84 3.703-1.84 4.57v.967c0 2.566 2.63 4.166 7.91 4.798 3.3 0 5.81-1.763 7.52-5.29l-2.2-.95c-.82 0-3.09.96-6.8 2.883-.37-.82-.55-1.623-.55-2.408v-.246c0-2.555 2.45-4.32 7.35-5.29h.37c2.81 0 4.22 1.844 4.22 5.536 0 3.808-3.12 7.178-9.36 10.107l-2.2.475c-3.97 0-6.66-1.682-8.08-5.045l-.37-3.13c0-7.265 3.73-13.44 11.2-18.526 1.89-.97 3.3-1.45 4.24-1.45zm31.5.053h.84c1.16 0 2.63 5.36 4.41 16.084 1.41 5.063 2.11 8.502 2.11 10.318-.29.96-.85 1.442-1.69 1.442-1.07 0-1.85-2.56-2.32-7.682l-.21-.228h-.21c-1.83.023-5.68 1.142-11.56 3.357-.56 3.2-1.47 4.8-2.74 4.8-.84-.32-1.26-.96-1.26-1.91 0-1.85 3.86-10.33 11.59-25.45l1.06-.72zm-.42 6.715c-1.69 3.047-3.23 6.252-4.64 9.615h1.48c1.43 0 3.26-.322 5.49-.967l-1.89-8.648h-.42zm39.43-6.715h.37c1.62.2 2.43.984 2.43 2.355v.475c0 2.367-.81 4.57-2.42 6.61h-.37c-.25-.07-.51-.463-.75-1.178l.95-3.533-.74-.48c-1.72.15-4.88 2.04-9.49 5.66v.23l12.27 2.37c1.24.98 1.86 2.63 1.86 4.95v1.4c0 3.17-2.04 5.93-6.13 8.26-1.6.63-3.16.95-4.66.95h-.38c-4.27 0-6.87-1.89-7.81-5.66v-1.42c0-1.74.44-2.61 1.3-2.61.86 3 2.41 4.5 4.66 4.5 0 .3.93.46 2.8.46 2.76 0 5.42-1.41 8-4.24 0-1.87-3.97-3.06-11.9-3.55-2.86-.8-4.29-1.97-4.29-3.53 0-3.83 3.84-7.69 11.53-11.57l2.8-.48zm21.62-.053c5.01.692 7.51 3.686 7.51 8.983 0 6.937-2.74 12.68-8.22 17.226-2.26 1.29-4.28 1.934-6.06 1.934-4.34 0-7.15-2.344-8.4-7.03l-.17-2.18v-.74c0-7.57 3.46-13.312 10.37-17.226 1.74-.644 3.4-.967 5-.967zM484.3 125.38c1.81 2.74 4.19 4.112 7.16 4.112 4.77 0 8.1-2.83 10-8.49l.35-2.672c0-3.984-1.96-6.328-5.89-7.03h-.55c-3.245 0-6.64 3.233-10.18 9.702-.6 1.945-.895 3.404-.895 4.377zm25.524-18.933c1.066 0 2.344 2.004 3.83 6.012 2.88 5.9 6.088 10.95 9.615 15.15 1.18-11.57 2.06-18.38 2.64-20.45l.96-.72h.72c.48 0 .72.32.72.96-1.44 16.52-2.32 25.34-2.63 26.45l-1.44.47c-2.57 0-6.89-5.45-12.98-16.35l-.97-.97-.25.72-.72 11.07v1.44l.24 1.44c-.21 1.92-.85 2.88-1.92 2.88-.98-.35-1.55-.83-1.69-1.44 1.23-17.32 2.11-25.98 2.64-25.98l1.21-.72zm35.35 0h.175c1.56 0 2.6 1.524 3.13 4.57l-.37.475h-.18l-1.48-.474c-4.03.597-8.26 3.404-12.68 8.42-1.23 2.18-1.85 3.703-1.85 4.57v.967c0 2.566 2.64 4.166 7.91 4.798 3.31 0 5.81-1.763 7.52-5.29l-2.2-.95c-.82 0-3.09.96-6.81 2.883-.36-.82-.55-1.623-.55-2.408v-.246c0-2.555 2.45-4.32 7.344-5.29h.37c2.815 0 4.22 1.844 4.22 5.536 0 3.808-3.12 7.178-9.37 10.107l-2.195.475c-3.976 0-6.67-1.682-8.09-5.045l-.37-3.13c0-7.265 3.73-13.44 11.2-18.526 1.884-.97 3.3-1.45 4.234-1.45zm33.697 0c4.66 0 6.98 1.365 6.98 4.096 0 5.402-5.09 10.29-15.29 14.66-.75 0-1.12.48-1.12 1.442-.1 5.296-.63 7.945-1.58 7.945h-1.13c-.3-.07-.6-.47-.89-1.195l2.02-19.723h-.22c-.6 0-.89-.727-.89-2.18 0-2.355 1.36-3.715 4.06-4.078l8.09-.967zm-9 13.957c5.15-1.347 9.05-3.59 11.71-6.732l.44-1.46v-.474l-1.12-.246h-1.12c-5.99.328-8.98.89-8.98 1.688l-.92 7.224zm29.06-13.957h2.43c3.72 0 5.57 1.295 5.57 3.885v.246c0 4.535-3.88 8.66-11.63 12.375v.23c3.88 3.56 7.12 6.233 9.71 8.014v.72c0 1.255-.41 2.063-1.22 2.427h-.96l-13.32-9.457-.24 4.85v3.64c-.41.81-1.05 1.213-1.93 1.213-.64 0-1.13-.322-1.46-.967v-1.46l2.18-18.93c-.64 0-.96-.48-.96-1.442 0-2.91 2.42-4.61 7.26-5.09l4.608-.24zm-8.47 13.096h.25c8.39-2.156 12.59-4.5 12.59-7.03v-.247c0-.446-.81-.768-2.42-.967-2.68 0-5.91.56-9.68 1.7l-.72 6.54zm27.31-13.043h.85c1.16 0 2.63 5.36 4.41 16.084 1.41 5.063 2.11 8.502 2.11 10.318-.29.96-.86 1.442-1.69 1.442-1.08 0-1.85-2.56-2.32-7.682l-.21-.228h-.21c-1.82.023-5.68 1.142-11.56 3.357-.56 3.2-1.48 4.8-2.74 4.8-.84-.32-1.26-.96-1.26-1.91 0-1.85 3.86-10.33 11.58-25.45l1.06-.72zm-.42 6.715c-1.69 3.047-3.23 6.252-4.64 9.615h1.48c1.43 0 3.26-.322 5.49-.967l-1.9-8.648h-.42zm15.24-6.838h1.65c.55 0 .83.322.83.967-1.29 10.523-1.93 17.824-1.93 21.902v2.672c-.36 1.78-1.28 2.672-2.74 2.672h-.54l-1.11-.967c.74-11.04 1.66-19.8 2.76-26.28l1.09-.966zm19.02.123h.37c1.62.2 2.43.984 2.43 2.355v.475c0 2.367-.81 4.57-2.42 6.61h-.37c-.26-.07-.51-.463-.76-1.178l.95-3.533-.74-.48c-1.72.15-4.88 2.04-9.49 5.66v.23l12.27 2.37c1.24.98 1.87 2.63 1.87 4.95v1.4c0 3.17-2.04 5.93-6.13 8.26-1.6.63-3.16.95-4.66.95h-.39c-4.26 0-6.86-1.89-7.8-5.66v-1.42c0-1.74.44-2.61 1.3-2.61.86 3 2.41 4.5 4.66 4.5 0 .3.93.46 2.8.46 2.76 0 5.42-1.41 8-4.24 0-1.87-3.96-3.06-11.9-3.55-2.86-.8-4.29-1.97-4.29-3.53 0-3.83 3.85-7.69 11.53-11.57l2.8-.48zm11.9-.123h1.65c.55 0 .83.322.83.967-1.29 10.523-1.94 17.824-1.94 21.902v2.672c-.36 1.78-1.28 2.672-2.74 2.672h-.55l-1.1-.967c.74-11.04 1.66-19.8 2.76-26.28l1.09-.966zm7.98.07c1.07 0 2.35 2.004 3.83 6.012 2.88 5.9 6.09 10.95 9.62 15.15 1.19-11.57 2.06-18.38 2.64-20.45l.97-.72h.72c.48 0 .72.32.72.96-1.44 16.52-2.32 25.34-2.63 26.45l-1.44.47c-2.56 0-6.89-5.45-12.97-16.35l-.96-.97-.24.72-.72 11.07v1.44l.25 1.44c-.21 1.92-.85 2.88-1.92 2.88-.98-.35-1.54-.83-1.69-1.44 1.23-17.32 2.11-25.98 2.64-25.98l1.21-.72zm35.35 0h.17c1.56 0 2.6 1.524 3.13 4.57l-.37.475h-.17l-1.48-.474c-4.03.597-8.26 3.404-12.67 8.42-1.23 2.18-1.84 3.703-1.84 4.57v.967c0 2.566 2.64 4.166 7.91 4.798 3.31 0 5.81-1.763 7.52-5.29l-2.2-.95c-.82 0-3.09.96-6.8 2.883-.36-.82-.54-1.623-.54-2.408v-.246c0-2.555 2.45-4.32 7.35-5.29h.37c2.81 0 4.22 1.844 4.22 5.536 0 3.808-3.12 7.178-9.37 10.107l-2.19.475c-3.97 0-6.67-1.682-8.09-5.045l-.37-3.13c0-7.265 3.74-13.44 11.2-18.526 1.89-.97 3.3-1.45 4.24-1.45zm42.2-4.447h.26c2.17 0 3.62 1.764 4.36 5.29l-.51.564h-.26l-2.05-.563c-5.64.7-11.54 3.95-17.7 9.76-1.71 2.52-2.57 4.29-2.57 5.29v1.11c0 2.98 3.68 4.84 11.04 5.58 4.62 0 8.12-2.04 10.51-6.13l-3.07-1.11c-1.13 0-4.3 1.12-9.49 3.34-.51-.95-.77-1.87-.77-2.77v-.28c0-2.97 3.43-5.01 10.27-6.14h.51c3.93 0 5.9 2.14 5.9 6.42 0 4.41-4.36 8.31-13.08 11.69l-3.09.56c-5.53 0-9.29-1.95-11.29-5.85l-.51-3.62c0-8.4 5.22-15.55 15.65-21.44 2.63-1.11 4.6-1.67 5.91-1.67zm22.75 4.447c5 .692 7.5 3.686 7.5 8.983 0 6.937-2.74 12.68-8.23 17.226-2.26 1.29-4.28 1.934-6.06 1.934-4.35 0-7.15-2.344-8.4-7.03l-.18-2.18v-.74c0-7.57 3.46-13.312 10.37-17.226 1.74-.644 3.4-.967 5-.967zm-13.05 18.933c1.8 2.74 4.19 4.11 7.15 4.11 4.77 0 8.1-2.83 10-8.49l.35-2.67c0-3.99-1.96-6.33-5.89-7.03h-.54c-3.25 0-6.64 3.23-10.18 9.7-.59 1.94-.89 3.4-.89 4.37zm31.04-18.94h1.07c5.1 0 8.22 2.02 9.37 6.06l.21 1.93c0 8.05-5.96 14.684-17.89 19.9l-1.06.245h-.23c-.32 0-.6-.57-.85-1.707l2.13-20.866c-.85 0-1.28-.24-1.28-.72v-.495c0-2.578 1.14-3.868 3.41-3.868l5.12-.5zm-4.25 5.1c-1.27 8.29-1.91 13.87-1.91 16.73v1.21c8.94-4.47 13.41-8.676 13.41-12.62v-.23c0-2.277-.64-3.41-1.91-3.41-1.58-1.13-4.13-1.69-7.66-1.69h-1.91zm26.55-9.51c.71.33 1.06.72 1.06 1.18-3.34 10.76-5.01 17.57-5.01 20.44-.95 1.1-1.74 1.65-2.39 1.65-1.05-.38-1.58-.85-1.58-1.41 1.66-14.58 3.87-21.87 6.61-21.87h1.32zm-6.24 26.38c1.67.31 2.5 1.18 2.5 2.6v.23c-.66 2.222-2.26 3.34-4.8 3.34-1.25 0-2.01-.87-2.26-2.607 0-2.004 1.53-3.193 4.57-3.568z" fill="#000"/><g transform="matrix(-1 0 0 1 315 595)"><rect fill="#000" x="96.016" y="118.701" width="24.023" height="91.815" rx="8"/><rect fill="#000" x="193.867" y="118.701" width="24.023" height="91.815" rx="8"/><path d="M192.792 3.834c-12.403 0-23.862 3.004-33.24 8.05-8.636-3.932-18.757-6.195-29.585-6.195-30.703 0-55.73 18.18-57.185 41.04-14.587 7.82-24.106 20.64-24.106 35.16 0 23.83 25.627 43.17 57.265 43.17 3.43 0 6.79-.28 10.05-.71 8.69 15.5 29.04 26.4 52.78 26.4 17.35 0 32.9-5.82 43.41-15 2.14.18 4.32.31 6.52.31 28.47 0 52.07-15.65 56.51-36.15 13.93-7.88 22.96-20.45 22.96-34.57 0-23.83-25.66-43.13-57.3-43.13-.39 0-.77-.01-1.15 0-10.37-11.1-27.52-18.39-46.9-18.39z" stroke="#000" stroke-width="3.458" fill="#FFF"/><rect fill="#000" x="230.719" y="119.069" width="24.023" height="91.815" rx="8"/><rect fill="#000" x="130.327" y="118.701" width="24.023" height="91.815" rx="8"/><ellipse stroke="#000" stroke-width="3.5" fill="#CCC" transform="rotate(32 91.97 35.598)" cx="91.971" cy="35.598" rx="14.614" ry="17.679"/><ellipse stroke="#000" stroke-width="3.5" fill="#CCC" cx="36.793" cy="27.5" rx="16.5" ry="20.5"/><path d="M64.82 22.504c18.807 6.514 27.182 31.633 18.705 56.104-4.07 11.752-11.562 21.78-20.826 27.877-9.27 6.097-19.55 7.765-28.58 4.637-9.03-3.13-16.08-10.797-19.59-21.32-3.51-10.52-3.19-23.033.88-34.785 4.07-11.75 11.56-21.777 20.82-27.877 9.26-6.09 19.54-7.76 28.57-4.63z" stroke="#000" stroke-width="3.458" fill="#CCC"/><path d="M46.738 47.16c1.357 3.24-.187 6.974-3.448 8.34-3.26 1.364-7.004-.156-8.36-3.396-1.357-3.24.187-6.974 3.448-8.34 3.26-1.365 7.004.155 8.36 3.396z" fill="#000"/><path d="M26.43 74.81c9.742 21.522 21.763 16.996 39.237 9.23" stroke="#000" stroke-width="3.458" stroke-linecap="round"/><path d="M72.062 53.443c1.357 3.24-.187 6.974-3.448 8.34-3.26 1.364-7.004-.156-8.36-3.396-1.358-3.24.186-6.974 3.447-8.34 3.27-1.364 7.01.156 8.37 3.396z" fill="#000"/></g></g></svg>