<svg width="1540" height="820" viewBox="0 0 1540 820" xmlns="http://www.w3.org/2000/svg" xmlns:xlink="http://www.w3.org/1999/xlink"><title>story21</title><defs><path id="a" d="M0 0h1540v820H0z"/><mask id="b" x="0" y="0" width="1540" height="820" fill="#fff"><use xlink:href="#a"/></mask><path id="d" d="M40 40h1190v80H40z"/><filter x="-50%" y="-50%" width="200%" height="200%" filterUnits="objectBoundingBox" id="c"><feOffset dx="6" dy="6" in="SourceAlpha" result="shadowOffsetOuter1"/><feColorMatrix values="0 0 0 0 0 0 0 0 0 0 0 0 0 0 0 0 0 0 1 0" in="shadowOffsetOuter1"/></filter></defs><g fill="none" fill-rule="evenodd"><use stroke="#000" mask="url(#b)" stroke-width="8" fill="#402412" xlink:href="#a"/><path stroke="#000" stroke-width="4" fill="#371F0F" d="M235 132h1066v556H235z"/><path d="M4 2l229.457 129.306c0 .384.523.694 1.174.694h1065.19c.65 0 1.18-.31 1.18-.694L1538 2H4z" stroke="#000" stroke-width="4" stroke-linejoin="bevel" fill="#28170B"/><path d="M4 818l229.457-129.306c0-.384.523-.694 1.174-.694h1065.19c.65 0 1.18.31 1.18.694L1538 818H4z" stroke="#000" stroke-width="4" stroke-linejoin="bevel" fill="#2B2200"/><path stroke="#000" stroke-width="4" fill="#00002B" d="M860 190h380v265H860z"/><path fill="#FFE680" d="M935.89 260.923l-11.36-10.72-13.362 8.15 6.795-14L906 234.295l15.558 2.068 5.97-14.364 2.82 15.27L946 238.45l-13.815 7.375M1014 347.043l-15.566-1.786-5.697 14.443-3.093-15.196-15.644-.898L987.654 336l-3.97-15 11.53 10.498 13.19-8.372-6.527 14.095 12.123 9.83m175.11 60.13l-14.287-6.96-10.435 11.91 2.28-15.59L1152 390.4l15.696-2.675 1.37-15.7 7.42 13.94L1192 382.4l-11.11 11.29 8.22 13.5m-280.405 20.74l-7.184-14.01-15.52 3.31 11.25-11.088-7.98-13.58 14.14 7.16L913.98 388l-2.512 15.513 14.53 6.34-15.69 2.43-1.606 15.63"/><path fill="#FC0" d="M1093.18 295.82L1048 278l45.18-17.82L1111 215l17.82 45.18L1174 278l-45.18 17.82-17.82 76.74"/><path d="M974.822 598.068c-4.218-35.467-6.177-78.575-14.484-92.342-11.238-23.41-40.198-30.41-63.754-34.853-45.41-8.38-97.777 5.935-119.104 7.65-21.326 1.713-34.004 10.205-27.023-4.04 6.98-14.247 38.13-12.988 45.395-33.497 8.34-25.197-30.25-15.408-40.546-8.006-10.296 7.403-18.432 27.314-30.203 9.775-11.772-17.54-47.64-21.015-60.394-8.92-12.76 12.094-16.04 18.093-30.15 10.385-12.71-5.477-43.22-6.395-35.74 14.364 8.55 18.377 40.88 10.81 44.11 32.633.22 25.126 9.43 48.736 18.29 71.782 27.43 25.2 36.36 24.88 48.27 31.27 16.52 12.25 29.87 29.14 49.69 36.42 22.5 12.28-1.05 38.61-10.93 51.95 12.11 16.36 26.23 5.09 38.65 8.17 14.93 7.38 39.99 11.19 35.37-10.5 2.69-71.37 40.79-77.02 51.4-51.45 10.61 25.57 10.14 27.07 5.55 46.17-14.79 18.97 18.09 4.17 27.46 12.63 17.64 13.91 29.63 17.95 34.99-2.14-11.63-21.06.06-52.73 7.65-73.05 7.39-24.01 9.69-50.08 5.19-74.9 8.78 5.56 12.09 98.27 28.92 98.25-.68-7.17-7.01-24.08-8.63-37.77z" stroke="#000" stroke-width="3.5" stroke-linejoin="round" fill="#FFF"/><path d="M886.592 469.73c-21.93 2.025-11.753 25.546-7.617 40.92 17.95 52.234 91.205 62.256 75.015-7.773-1.99-22.46-44.176-31.005-67.398-33.147z" stroke="#000" stroke-width="3.5" fill="#A05A2C"/><path d="M850.062 614.234c-16.657 9.544-11.562 15.88-8.827 23.932 2.16 6.356 10.333 11.115 17.036 10.74 5.32-.295 7.28-11.106 12.47-9.958 5.5 1.214 2.33 12.966 7.53 15.116 4.46 1.842 9.59-2.126 13.71-4.62 3.21-1.94 7.05-4.18 8.14-7.77 2.3-7.61.7-18.006-5.27-23.25-11.26-9.89-24.67-14.29-44.77-4.19" stroke="#000" stroke-width="3.5" fill="#FFD5D5"/><path d="M895.63 619.738c-2.14 15.115 9.522 30.06 10.436 45.637.298 5.085-5.45 15.735-1.64 15.194 5.094-.35 29.92 2.75 32.414-.96-.58-10.31-.954-23.16 1.667-32.78 1.682-7.2 5.807-18.43 7.004-25.87 2.06-8.69-4.15-17.69-12.34-20.43-15.65-3.5-36.73 1.33-37.53 19.19zM678.526 432.814c-20.284-12.115-35.258 37.24-37.3 51.363 2.28 16.723-1.263 40.69 22.15 39.544 16.67-3.78 30.325-20.14 34.81-36.45 5.554-22.46-1.666-40.02-19.66-54.45zm50.512 171.82c-6.99 8.05 26.03 25.216 31.884 26.282 9.878-.178 7.33-19.815 3.77-23.874-7.52-8.57-28.835-10.26-35.654-2.408z" stroke="#000" stroke-width="3.5" fill="#A05A2C"/><path d="M825.433 691.455c-1.188-14.75-21.37-24.48-25.957-23.745-4.586.734-11.888 3.295-14.61 9.478-9.732-1.593-20.486-5.22-30.66-1.634-3.524 2.123-9.17 10.853-8.847 15.45 3.13 12.15 40.74 8.14 51.32 8.625 9.79 1.13 29.94 6.57 28.75-8.18zm87.807 9.572c7.087.63 24.3 2.405 29.582-4.095 4.5-11.71-3.943-21.926-14.87-24.77-3.7-.966-7.584-1.334-11.384-.76-3.348.508-9.318 4.856-12.042 4.64-3.234-.257-8.844-5.49-12.923-6.335-5.275-1.09-8.315-.72-11.774 3.678-1.63 2.062-2.81 4.696-3.53 7.196-1.27 4.44-1.14 4.76 2.91 6.18 4.09 1.43 9.36 1.35 13.65 1.78 1.45.15 5.47-.39 6.45.47.36.32.29 3.83.92 4.79 3.72 5.68 5.9 6.62 12.99 7.25z" stroke="#000" stroke-width="3.5" fill="#CCC"/><path d="M676.96 481.205c.02 4.046-2.094 7.336-4.718 7.347-2.623.01-4.764-3.26-4.782-7.306-.017-4.047 2.096-7.336 4.72-7.347 2.623-.02 4.764 3.25 4.78 7.3z" fill="#000"/><path d="M743.398 556.383c0 8.08-4.55 15.83-12.645 21.544-8.096 5.714-19.076 8.924-30.526 8.924-23.842 0-43.17-13.64-43.17-30.46s19.328-30.47 43.17-30.47c11.45 0 22.43 3.21 30.526 8.93s12.645 13.47 12.645 21.55z" stroke="#000" stroke-width="3.5" fill="#FFD5D5"/><path d="M676.307 568.2c17.944 14.215 40.677 6.284 44.537-.103" stroke="#000" stroke-width="3.5" stroke-linecap="round"/><path d="M727.276 477.613c.017 4.046-2.095 7.335-4.72 7.347-2.623.01-4.764-3.26-4.78-7.307-.018-4.046 2.094-7.336 4.718-7.347 2.623-.01 4.764 3.26 4.782 7.307zm-32.53 69.407c.017 4.046-2.096 7.335-4.72 7.346-2.623.01-4.763-3.26-4.78-7.307-.017-4.05 2.096-7.34 4.72-7.35 2.623-.01 4.764 3.26 4.78 7.3zm20.952-.212c.017 4.046-2.096 7.336-4.72 7.347-2.623.01-4.764-3.26-4.78-7.307-.017-4.047 2.096-7.336 4.72-7.347 2.623-.01 4.763 3.26 4.78 7.31z" fill="#000"/><path d="M640.46 460.546c-.468 2.34-2.632 4.24-6.013 5.285-3.382 1.05-7.705 1.15-12.02.28-8.98-1.8-15.47-7.21-14.494-12.08.977-4.87 9.05-7.36 18.033-5.56 4.313.87 8.264 2.63 10.982 4.89 2.718 2.27 3.982 4.86 3.513 7.2zm145.802-25.534c1.133 2.1.556 5.013-1.604 8.097-2.16 3.08-5.727 6.08-9.916 8.34-8.723 4.7-17.708 4.97-20.07.6-2.36-4.38 2.8-11.74 11.52-16.45 4.19-2.26 8.658-3.6 12.42-3.71 3.765-.12 6.516 1 7.65 3.1z" stroke="#000" stroke-width="3.573" fill="#FFD5D5"/><path d="M865.122 535.832c0 8.674-4.703 16.992-13.075 23.125-8.37 6.133-19.725 9.578-31.564 9.578-24.654 0-44.64-14.64-44.64-32.703 0-18.06 19.986-32.702 44.64-32.702 11.84 0 23.193 3.445 31.564 9.578 8.372 6.133 13.075 14.45 13.075 23.124z" stroke="#000" stroke-width="3.505" fill="#A05A2C"/><path d="M734.92 574.648c11.743-12.22 30.058-56.073 13.477-94.53m25.685 219.135c1.785-2.67 1.296-10.48 10.395-21.54 10.51-12.777 4.918-37.89-.913-36.99-5.832.9-12.404.16-23.3-9.498M904.13 676.18c-4.05 2.253-4.608 9.518-4.996 12.47" stroke="#000" stroke-width="3.5"/><path d="M1220.85 370.097c.896 14.876.34 31.347-8.775 43.815 2.054 31.206 27.592 68.776 52.223 78.118-21.396-6.353-21.987 25.384-26.11 43.208-4.913 13.678-50.696-8.86-47.925 5.264 10.67 50.193-28.15 89.786-30.2 137.633-8.277 1.347-17.155 5.817-24.45 9.872 1.472-17.143-7.69-46.036-5.802-54.194.34-8.948 8.19-20.48 7.61-26.774-4.5 14.44-9.4 30.61-13.43 46.1-2.63 10.12 3.74 34.63-4.62 32.37-11.43 1.29-24.14 9.61-34.01 11.96 2.93-16.15-8.04-70.31-13.68-86.09 1.38 4.12 9.02 36.79 9.64 40.86-3.88-1.51-3.49-.28-8.41-1.04-5.43 3.91-4.23 27.15-1.2 33.07-3.68 2.4-17.29 3.46-20.82 6.07-12.53-3.46-11.36-31.05-8.64-41.18-19.07-9.35-10.14-33.79-22.29-51.63 4.25 6.55 8.54 17.26 8.77 29.3 1.45 8.87 12.03 59.61.15 54.33-19.04-4.7-22.85 5.95-24-8-10.43-49.66-60.02-92.47-30.38-143.24 29.81-37.54 76.72-18.51 116.42-9.3 38.38 8.32 36.36-48.62 40.72-75.64-1.32-11.66-14.36-15.81-19.84-25.11-12.07-16.4-19-36.73-18.42-57.16 23 5.36 39.52 25.45 46.77 47.09 9.49 20.51 45.08 18.78 51.32-5.24 5.16-21.18 8.35-44.51 23.75-61.16 0 0 4.32 17.76 5.67 26.67z" stroke="#000" stroke-width="3.5" stroke-linecap="round" stroke-linejoin="round" fill="#A05A2C"/><path d="M1199.312 512.69c0 7.694 4.03 15.073 11.2 20.513 7.17 5.44 16.894 8.497 27.035 8.497 10.14 0 19.865-3.056 27.036-8.497 7.17-5.44 11.198-12.82 11.198-20.513 0-7.694-4.02-15.073-11.19-20.514-7.17-5.44-16.89-8.497-27.03-8.497s-19.86 3.05-27.03 8.49c-7.17 5.44-11.2 12.82-11.2 20.51z" stroke="#000" stroke-width="3.106" fill="#FFD5D5"/><path d="M1165.69 689.764c.096.272.194.532.29.81 4.207 12.055.55 13.818-11.59 14.972 13.15-1.25 15.467-3.64 11.3-15.782zm44.97-273.15c1.054-3.506 3.63-6.456 5.693-9.58-1.49 3.564-3.367 6.8-5.694 9.58zm.53 5.376c1.333 1.172 2.628 2.352 3.886 3.544-.115-.1-.23-.205-.344-.306-1.42-1.238-2.71-2.146-3.542-3.238zm-40.162-.04c-.677.1-1.36.187-2.053.254-.503-.133-1.036-.28-1.593-.44 1.257.14 2.476.198 3.646.186zm44.14-78.528c.29-.313.56-.636.86-.945.09.3.178.614.266.92-.176-.047-.357-.083-.55-.085-.183-.002-.377.038-.576.11z"/><path d="M1033.672 682.77c1.686 2.38 1.93 5.43 2.85 8.145 1.126 4.018 1.698 8.19 3.185 12.092-6.825 6.854-38.59 13.19-38.033-1.856 1.126-6.34.89-14.36 5.463-19.36 6.187-3.1 20.755-3.53 26.535.98z" stroke="#000" stroke-width="3.5" fill="#520"/><path d="M1211.82 364.635c.294 6.608 6.17 36.677-5.636 37.548-11.66-4.924 5.637-37.548 5.637-37.548z" stroke="#000" stroke-width="3.5" fill="#FFD5D5"/><path d="M1134.873 451.933c1.54 7.314 2.023 12.144-2.72 22.857-4.745 10.712-11.076 30.75-17.5 43.724-6.424 12.973.658 46.36 4.883 54.2 4.225 7.84-10.024 7.81-13.543 2.552-10.327-11.677-3.095-22.328-6.594-43.11-3.5-20.783 6.2-50.907 13.17-76.035 2.14-6.45 3.26-21.58 8.89-23.17 5.63-1.59 11.86 11.67 13.4 18.99zm-160.143 78.1c-11.846 34.307-8.23 74.435 9.71 105.29 3.28 4.457 8.44 19.776 1.598 23.87-5.97 3.57-11.96-2.082-17.69-11.076-18.554-32.875-13.435-70.442-.366-104.22 1.613-4.112 5.1-9.765 6.748-13.863zm97.217 155.4c4.11 6.79 6.545 15.678 5.79 23.715-7.542 3.26-23.35 3.688-26.93-4.704-.52-2.234-3.933-12.145-2.9-14.128 4.272-3.288 18.558-7.323 24.04-4.882zm61.753 25.12c-2.94 6.903-45.726 4.106-48.914-1.65-7.673-13.85 21.604-20.723 28.865-22.775 14.91-6.41 17.43 13.143 20.05 24.424zm26.868-29.908c11.8 18.373 8.508 25.342-14.69 25.657-1.716.59-3.86.157-5.615-.362-1.254-.858-5.657-14.423-4.91-16.635 7.252-4.403 16.323-14.25 25.215-8.66zm-17.374-280.225c6.85-12.434 22.4-7.94 33.864-5.824 11.17-2.677 10.138 8.397 13.48 15.895 1.856 2.25 5.85 1.3 7.165 4.17-4.224 29.63-63.082 11.29-54.51-14.23z" stroke="#000" stroke-width="3.5" fill="#520"/><path d="M1204.222 575.028c-1.752 2.973 1.398-2.368 0 0zM1195.03 445.4c2.092 3.464 5.61 5.172 7.855 3.815 2.245-1.358 2.37-5.265.275-8.728-2.093-3.463-5.61-5.17-7.855-3.814-2.245 1.358-2.37 5.265-.276 8.728zm-25.756 7.315c1.098 3.895 4.034 6.476 6.56 5.765 2.525-.71 3.683-4.445 2.585-8.34-1.1-3.895-4.04-6.476-6.56-5.765-2.53.71-3.69 4.445-2.59 8.34z" fill="#000"/><path d="M1198.207 535.368c-20.916 1.127-37.48-12.53-47.815-27.99" stroke="#000" stroke-width="3.5" stroke-linecap="round"/><path d="M1106.24 378.948c5.11 5.608 32.366 27.796 22.6 37.23-13.89 4.22-22.6-37.23-22.6-37.23z" stroke="#000" stroke-width="3.5" fill="#FFD5D5"/><path d="M1208.333 536.99c-24.062-9.096-29.536-35.59-25.606-42.998" stroke="#000" stroke-width="3.5" stroke-linecap="round"/><path d="M1165.69 689.764c.096.272.194.532.29.81 4.207 12.055.55 13.818-11.59 14.972 13.15-1.25 15.467-3.64 11.3-15.782zm44.97-273.15c1.054-3.506 3.63-6.456 5.693-9.58-1.49 3.564-3.367 6.8-5.694 9.58zm.53 5.376c1.333 1.172 2.628 2.352 3.886 3.544-.115-.1-.23-.205-.344-.306-1.42-1.238-2.71-2.146-3.542-3.238zm-40.162-.04c-.677.1-1.36.187-2.053.254-.503-.133-1.036-.28-1.593-.44 1.257.14 2.476.198 3.646.186zm44.14-78.528c.29-.313.56-.636.86-.945.09.3.178.614.266.92-.176-.047-.357-.083-.55-.085-.183-.002-.377.038-.576.11z"/><path d="M1204.222 575.028c-1.752 2.973 1.398-2.368 0 0zM1195.03 445.4c2.092 3.464 5.61 5.172 7.855 3.815 2.245-1.358 2.37-5.265.275-8.728-2.093-3.463-5.61-5.17-7.855-3.814-2.245 1.358-2.37 5.265-.276 8.728zm-25.756 7.315c1.098 3.895 4.034 6.476 6.56 5.765 2.525-.71 3.683-4.445 2.585-8.34-1.1-3.895-4.04-6.476-6.56-5.765-2.53.71-3.69 4.445-2.59 8.34zm87.61 62.375c.873 3.95 3.658 6.694 6.22 6.127 2.562-.566 3.93-4.228 3.056-8.18-.873-3.95-3.658-6.694-6.22-6.128-2.562.56-3.93 4.22-3.056 8.18zm-23.354 8.347c1.097 3.895 4.033 6.476 6.56 5.765 2.524-.71 3.682-4.445 2.585-8.34-1.097-3.895-4.034-6.476-6.56-5.765-2.525.71-3.682 4.446-2.585 8.34z" fill="#000"/><path d="M428.707 519.154c-8.256-2.02-17.256 4.88-24.374 19.448-6.738 13.793-16.712 24.218-4.024 32.045 7.07 4.362 23.58-.75 21.85-11.16 1.27 5.708 1.04 16.97 4.83 16.917 5.54-.078 11.69-5.59 8.54-16.646-.77-2.702-.52-5.356-1.29-7.508.24-.664.49-1.333.66-2.032 3.89-15.725 2.05-29.044-6.21-31.064z" stroke="#050202" stroke-width="4" fill="#DEAA87"/><path d="M456.376 411.677l6.42 25.512-32.094 109.7-35.943-17.86c14.29-53.08 33.65-94.85 61.61-117.36z" stroke="#050202" stroke-width="4" fill="#D45500"/><path d="M608.744 519.154c8.257-2.02 17.256 4.88 24.374 19.448 6.738 13.793 16.712 24.218 4.025 32.045-7.072 4.362-23.59-.75-21.853-11.16-1.27 5.708-1.045 16.97-4.835 16.917-5.542-.078-11.69-5.59-8.542-16.646.77-2.702.52-5.356 1.29-7.508-.243-.664-.495-1.333-.668-2.032-3.896-15.725-2.048-29.044 6.21-31.064z" stroke="#050202" stroke-width="4" fill="#DEAA87"/><path d="M453.222 373.95c0 18.873 6.68 36.972 18.572 50.316 11.89 13.345 28.02 20.842 44.836 20.842 35.02 0 63.408-31.858 63.408-71.157 0-39.29-28.39-71.15-63.408-71.15-16.817 0-32.945 7.5-44.836 20.84-11.89 13.35-18.572 31.45-18.572 50.32z" stroke="#000" stroke-width="4" fill="#502D16"/><path d="M581.075 411.677l-6.418 25.512 32.092 109.7 35.94-17.86c-14.3-53.08-33.65-94.85-61.62-117.36z" stroke="#050202" stroke-width="4" fill="#D45500"/><path d="M518.174 735.678c0 4.737 3.45 9.28 9.588 12.628 6.138 3.35 14.464 5.23 23.146 5.23s17.008-1.88 23.147-5.23c6.138-3.35 9.587-7.89 9.587-12.628 0-9.863-14.655-17.858-32.734-17.858-18.08 0-32.734 7.995-32.734 17.858zm-77.664 2.552c0 4.736 3.45 9.278 9.59 12.627 6.137 3.35 14.463 5.23 23.145 5.23s17.008-1.88 23.147-5.23c6.138-3.35 9.587-7.89 9.587-12.627 0-9.863-14.66-17.86-32.74-17.86-18.08 0-32.74 7.997-32.74 17.86z" stroke="#050202" stroke-width="4" fill="#2B1100"/><path d="M432.965 551.816c-5.312 57.704-13.83 155.543-1.1 167.46 40.528 17.86 135.08 24.402 166.502-10.627 15.363-30.41 2.52-103.85 6.155-154.13 7.352-101.74-2.75-180.56-91.68-181.75-75.67-1.01-84.808 77.64-79.877 179.04z" stroke="#050202" stroke-width="4" fill="#D45500"/><path d="M470.024 355.775c0 15.19 4.973 29.76 13.824 40.5 8.852 10.74 20.858 16.776 33.376 16.776 12.52 0 24.524-6.03 33.376-16.77 8.852-10.74 13.825-25.31 13.825-40.5 0-15.19-4.973-29.76-13.825-40.5-8.852-10.74-20.857-16.77-33.376-16.77-12.518 0-24.524 6.04-33.376 16.78-8.85 10.74-13.824 25.31-13.824 40.5z" stroke="#050202" stroke-width="3.9" fill="#DEAA87"/><path d="M527.315 343.582c0 2.366 1.93 4.284 4.312 4.284 2.38 0 4.31-1.918 4.31-4.284 0-1.136-.453-2.226-1.26-3.03-.81-.803-1.907-1.254-3.05-1.254-1.144 0-2.24.45-3.05 1.254-.808.804-1.262 1.894-1.262 3.03zm-28.692.49c0 2.367 1.93 4.285 4.312 4.285 2.38 0 4.312-1.918 4.312-4.284 0-1.137-.455-2.226-1.263-3.03-.81-.803-1.906-1.255-3.05-1.255-1.143 0-2.24.452-3.048 1.255-.808.804-1.263 1.893-1.263 3.03z" fill="#000"/><path d="M533.696 390.39H500.72l-6.93 341.755c12.942 1.288 32.294 2.33 42.216.46l-2.31-342.215z" stroke="#000" stroke-width="4" fill="#2CA02C"/><path d="M516.8 429.743c19.038-.05 37.06-43.186 37.06-43.186 20.02-38.054-91.07-33.08-72.737 2.066 0 0 17.464 41.17 35.676 41.12z" stroke="#000" stroke-width="4" fill="#502D16"/><path d="M540.063 376.76c-5.977 5.788-43.623 2.108-46.878-.65-3.255-2.76 14.83 22.453 24.174 22.398 9.34-.055 28.68-27.54 22.7-21.75z" stroke="#000" stroke-width="4" fill="#DEAA87"/><path d="M432.368 538.717l172.53.163c-2.172 6.185-1.142 15.017-.49 22.607l-171.387-.324-.65-22.446z" stroke="#000" stroke-width="3.895" fill="#520"/><path d="M490.753 283.532c-34.89 5.744-47.745 87.934-37.67 141.127 1.79 8.45 13.22 10.25 19.91 6.48 5.924-2.58 7.12-9.25 7.446-14.97.96-13.77-6.41-76.7 3.65-88.05 10.05-11.36 63.83-8.61 72.8 3.58 8.96 12.19-5.26 85.77 2.28 101.04 7.03 8.76 24.27 4.58 25.39-6.92-2.23-16.83 5.46-84.41 2.82-98.23-2.64-13.82-15.85-35.62-27.21-39.89-26.01-9.78-34.54-9.94-69.43-4.19z" stroke="#050202" stroke-width="3.897" fill="#2CA02C"/><path d="M576.113 303.54c2.652 6.538 10.69 15.902 10.093 23.896l-128.456.91c2.004-7.155 3.03-13.08 9.06-23.768l109.303-1.037z" stroke="#000" stroke-width="4" fill="#520"/><path d="M212.32 411.677l6.42 25.512-11.185 109.05-43.13-15.26c14.296-53.08 19.928-96.8 47.896-119.31z" stroke="#050202" stroke-width="4.067" fill="#ACF"/><path d="M208.973 373.95c0 18.873 6.68 36.972 18.57 50.316 11.893 13.345 28.02 20.842 44.838 20.842 35.02 0 63.41-31.858 63.41-71.157 0-39.29-28.39-71.15-63.41-71.15-16.81 0-32.94 7.5-44.83 20.84-11.89 13.35-18.57 31.45-18.57 50.32z" stroke="#000" stroke-width="4.067" fill="#502D16"/><path d="M336.826 411.677l-6.42 25.512 11.186 109.05 43.13-15.26c-14.296-53.08-19.93-96.8-47.896-119.31z" stroke="#050202" stroke-width="4.067" fill="#ACF"/><path d="M273.924 735.678c0 4.737 3.45 9.28 9.588 12.628 6.14 3.35 14.465 5.23 23.147 5.23 8.68 0 17-1.88 23.14-5.23 6.14-3.35 9.59-7.89 9.59-12.628 0-9.863-14.66-17.858-32.74-17.858-18.08 0-32.74 7.995-32.74 17.858zm-77.664 2.552c0 4.736 3.45 9.278 9.59 12.627 6.138 3.35 14.464 5.23 23.146 5.23 8.68 0 17.007-1.88 23.146-5.23 6.14-3.35 9.588-7.89 9.588-12.627 0-9.863-14.656-17.86-32.734-17.86-18.08 0-32.735 7.997-32.735 17.86z" stroke="#050202" stroke-width="4.067" fill="#2B1100"/><path d="M206.963 561.487c-4.52 57.767-15.687 146.038-4.857 157.967 34.48 17.88 114.923 24.43 141.655-10.637 13.08-30.44-8.96-96.993-5.87-147.33 16.45-98.954 9.4-187.6-66.89-188.91-67.22-1.153-81.38 87.4-64.03 188.91z" stroke="#050202" stroke-width="3.753" fill="#06F"/><path d="M225.774 355.775c0 15.19 4.973 29.76 13.825 40.5 8.85 10.74 20.85 16.776 33.37 16.776 12.52 0 24.52-6.03 33.37-16.77 8.85-10.74 13.82-25.31 13.82-40.5 0-15.19-4.98-29.76-13.83-40.5-8.85-10.74-20.86-16.77-33.38-16.77-12.52 0-24.53 6.04-33.38 16.78-8.85 10.74-13.83 25.31-13.83 40.5z" stroke="#050202" stroke-width="3.965" fill="#E6C2AA"/><path d="M283.066 343.582c0 2.366 1.93 4.284 4.31 4.284 2.383 0 4.313-1.918 4.313-4.284 0-1.136-.46-2.226-1.27-3.03-.81-.803-1.91-1.254-3.05-1.254s-2.24.45-3.05 1.254c-.81.804-1.27 1.894-1.27 3.03zm-27.42.49c0 2.367 1.93 4.285 4.31 4.285s4.312-1.918 4.312-4.284c0-1.137-.454-2.226-1.263-3.03-.81-.803-1.905-1.255-3.05-1.255-1.142 0-2.24.452-3.048 1.255-.808.804-1.262 1.893-1.262 3.03z" fill="#000"/><path d="M295.554 408.967c-12.528 8.722-41.714 5.273-47.626-.792-25.434 67.066 3.47 324.16 1.54 324.16 12.987 1.184 32.404 2.142 42.36.422-2.786.107 25.683-251.68 3.726-323.79z" stroke="#000" stroke-width="3.953" fill="#ACF"/><path d="M295.813 369.182c-5.976 5.79-43.623 2.11-46.878-.65-3.254-2.758 14.83 22.454 24.174 22.4 9.34-.056 28.68-27.54 22.7-21.75z" stroke="#000" stroke-width="4.067" fill="#FFD5D5"/><path d="M246.504 283.532c-34.89 5.744-47.746 87.934-37.672 141.127 1.79 8.45 13.22 10.25 19.913 6.48 5.923-2.58 7.118-9.25 7.445-14.97-.37-9.8-10.92-62.84 3.65-88.05 14.57-25.22 64.72-19.61 72.8 3.58 8.082 23.19-5.26 86.44 2.288 101.04 7.035 8.76 24.268 4.58 25.395-6.92-2.222-16.83 5.464-84.41 2.82-98.23-2.64-13.82-15.85-35.62-27.21-39.89-26.006-9.78-34.54-9.94-69.43-4.19z" stroke="#050202" stroke-width="3.962" fill="#ACF"/><path d="M330.07 301.358c2.506 4.112 8.802 9.352 8.238 14.38l-121.484.572c1.896-4.5 2.54-9.2 8.243-15.923l105.002.97z" stroke="#000" stroke-width="3.956" fill="#06F"/><path d="M380.534 533.98c-2.03 6.303-.513 10.912-5.352 25.92-4.708 14.6-6.11 28.73-20.564 25.005-8.057-2.076-15.73-17.484-6.95-23.418-5.033 3.026-13.082 10.957-15.66 8.195-3.766-4.04-3.993-12.264 6.233-17.63 2.5-1.31 1.32-2.184 3.42-3.117.32-.632 3.34-2.657 3.96-3.017 10.71-6.16 29.28-10.598 34.92-11.937zm-211.92 0c2.03 6.303.512 10.912 5.35 25.92 4.71 14.6 6.11 28.73 20.565 25.005 8.05-2.076 15.73-17.484 6.95-23.418 5.03 3.026 13.08 10.957 15.65 8.195 3.77-4.04 3.99-12.264-6.23-17.63-2.5-1.31-1.32-2.184-3.42-3.117-.32-.632-3.33-2.657-3.96-3.017-10.71-6.16-29.28-10.598-34.92-11.937z" stroke="#050202" stroke-width="4.067" fill="#E6C2AA"/><g stroke="#000"><path d="M290.94 675.8c38.493 14.403 77.112 22.287 115.88 22.447 37.613.155 75.365-6.96 113.28-22.448 1.366 0 2.466 1.14 2.466 2.56v105.15c0 1.42-1.1 2.56-2.467 2.56H290.94c-1.368 0-2.468-1.15-2.468-2.56V678.36c0-1.418 1.1-2.56 2.467-2.56z" stroke-width="3.561" fill="#C8BEB7"/><path d="M329.758 645.693c22.785-1.435 45.35-6.698 68.18-6.51 23.39.193 46.42 5.93 69.734 7.823 22.642 1.838 53.633-14.012 68.063 3.422 11.443 13.826 6.024 41.597-7.737 53.15-16.045 13.47-42.09-3.535-62.997-1.51-20.3 1.964-39.34 12.79-59.74 13.17-18.51.346-36.14-9.3-54.65-9.93-18.18-.618-39.43 16.596-54.23 6.086-17.95-12.75-27.84-46.936-14.29-64.245 9.77-12.47 31.81-.46 47.68-1.46z" stroke-width="4.686" fill="#FD5"/></g><path d="M405.005 618.362c-13.877-1.113-26.713 1.186-36.36 5.855-5.984-5.437-14.26-9.127-23.614-9.877-19.77-1.586-36.87 10.576-38.2 27.154-1.33 16.58 13.62 31.312 33.39 32.898 9.36.75 18.11-1.573 24.89-5.986 8.78 6.147 21.08 10.507 34.96 11.62 8.99.722 17.56-.023 25.09-1.89 7.14 3.036 15.46 5.143 24.43 5.863 28.25 2.26 52.27-9.73 53.64-26.75 1.37-17.03-20.44-32.65-48.69-34.92-8.97-.72-17.51-.01-25.04 1.85-7.14-3.05-15.48-5.1-24.47-5.82z" stroke="#000" stroke-width="4.709" fill="#FFF"/><path d="M367.424 645.22c-.876 10.92-12.51 18.894-25.985 17.813-13.48-1.08-23.69-10.81-22.82-21.728.87-10.92 12.51-18.896 25.98-17.815 13.47 1.08 23.69 10.81 22.81 21.73z" stroke="#000" stroke-width="2.145" fill="#E6C2AA"/><path d="M337.015 645.84c-.145 1.816-1.86 3.16-3.832 3.002-1.972-.158-3.45-1.758-3.306-3.574.07-.872.513-1.678 1.232-2.24.71-.564 1.65-.838 2.6-.762.94.076 1.82.495 2.44 1.166.62.67.93 1.536.86 2.408zm5.865-11.168c-.146 1.816-1.862 3.16-3.833 3.002-1.97-.158-3.45-1.758-3.305-3.574.07-.872.513-1.678 1.232-2.24.718-.564 1.654-.838 2.6-.762.947.076 1.827.495 2.447 1.166.62.67.93 1.536.86 2.408z" fill="#000"/><path d="M340.598 653.05c9.187-2.207 17.502-5.146 14.178-17.863" stroke="#000" stroke-width="2.034"/><path d="M1419.645 66.323l-3.944 102.985" stroke="#000" stroke-width="3.106"/><path d="M1461.87 192.217c0 8.123-4.772 15.913-13.266 21.656-8.494 5.744-20.014 8.97-32.027 8.97-12.012 0-23.533-3.226-32.027-8.97-8.494-5.743-13.266-13.533-13.266-21.656s4.772-15.913 13.266-21.656c8.494-5.74 20.015-8.97 32.027-8.97 12.013 0 23.533 3.23 32.027 8.97 8.494 5.75 13.266 13.54 13.266 21.66z" fill="#000"/><path d="M1395.504 169.96c-28.13-19.805-51.945-24.28-78.275-19.182m78.27 31.812c-28.13-19.807-51.95-24.283-78.28-19.185m80.99 22.945c-32.61-11.122-56.73-8.746-80.55 3.523m76.84.105c-34.45-1.387-56.88 7.748-76.16 26.274m121.04-46.292c28.13-19.805 51.94-24.28 78.27-19.182m-78.28 31.812c28.13-19.807 51.94-24.283 78.27-19.185m-80.99 22.945c32.61-11.122 56.73-8.746 80.54 3.523m-76.84.105c34.45-1.387 56.87 7.748 76.16 26.274" stroke="#000" stroke-width="3" stroke-linecap="round"/><path d="M1409.798 186.006c0 2.12-1.73 3.837-3.86 3.837-1.025 0-2.007-.404-2.73-1.124-.725-.72-1.132-1.7-1.132-2.72s.407-2 1.13-2.72c.725-.72 1.707-1.13 2.73-1.13 2.133 0 3.862 1.71 3.862 3.83zm20.332 0c0 2.12-1.728 3.837-3.86 3.837-1.025 0-2.007-.404-2.73-1.124-.725-.72-1.132-1.7-1.132-2.72s.407-2 1.13-2.72c.725-.72 1.707-1.13 2.73-1.13 2.134 0 3.863 1.71 3.863 3.83z" fill="#FFF"/><path d="M1394.45 199.26c4.997 8.452 27.79 14.247 44.93-.35" stroke="#FFF" stroke-width="2" stroke-linecap="round"/><path d="M1481.756 571.036c8.256-2.02 17.256 4.88 24.373 19.45 6.73 13.792 16.71 24.217 4.02 32.043-7.07 4.36-23.59-.75-21.85-11.16-1.27 5.7-1.05 16.97-4.84 16.91-5.54-.08-11.69-5.59-8.54-16.65.77-2.7.52-5.36 1.29-7.51-.24-.66-.5-1.33-.67-2.03-3.9-15.73-2.05-29.05 6.21-31.07z" stroke="#050202" stroke-width="4" fill="#FFF6D5"/><path d="M1454.087 455.983l-6.42 25.512 32.093 109.7 35.944-17.857c-14.297-53.076-33.65-94.846-61.617-117.355z" stroke="#050202" stroke-width="4" fill="#502D16"/><path d="M1301.72 571.036c-8.258-2.02-17.257 4.88-24.375 19.45-6.738 13.792-16.712 24.217-4.025 32.043 7.072 4.36 23.59-.75 21.853-11.16 1.268 5.7 1.045 16.97 4.835 16.91 5.542-.08 11.69-5.59 8.54-16.65-.768-2.7-.52-5.36-1.287-7.51.25-.66.5-1.33.67-2.03 3.9-15.73 2.05-29.05-6.21-31.07z" stroke="#050202" stroke-width="4" fill="#FFF6D5"/><path d="M1329.388 455.983l6.418 25.512-32.092 109.7-35.943-17.857c14.3-53.076 33.65-94.846 61.62-117.355z" stroke="#050202" stroke-width="4" fill="#502D16"/><path d="M1392.29 779.984c0 4.737-3.45 9.28-9.59 12.628-6.138 3.35-14.464 5.23-23.145 5.23-8.682 0-17.008-1.88-23.147-5.23-6.14-3.35-9.587-7.89-9.587-12.628 0-9.863 14.66-17.858 32.74-17.858s32.74 7.995 32.74 17.858zm77.662 2.552c0 4.736-3.45 9.278-9.588 12.627-6.14 3.35-14.465 5.23-23.146 5.23-8.682 0-17.008-1.88-23.147-5.23-6.13-3.35-9.58-7.89-9.58-12.627 0-9.863 14.66-17.86 32.74-17.86s32.74 7.997 32.74 17.86z" stroke="#050202" stroke-width="4" fill="#504416"/><path d="M1477.498 596.122c5.312 57.704 13.268 154.976 1.1 167.46-12.475 12.798-66.365 23.52-87.332 15.192-20.24-8.04-63.808 4.587-79.17-25.82-15.363-30.405-2.52-103.843-6.155-154.126-7.35-101.737 2.75-180.562 91.68-181.75 75.67-1.01 84.81 77.644 79.88 179.044z" stroke="#050202" stroke-width="4" fill="#5AA02C"/><path d="M1305.73 585.322l172.532.162c-2.173 6.186-1.144 15.018-.49 22.608l-171.39-.324-.652-22.446z" stroke="#000" stroke-width="3.895" fill="#502D16"/><path d="M1442.923 398.954c0 15.19-4.973 29.76-13.825 40.5-8.852 10.742-20.858 16.776-33.376 16.776-12.518 0-24.524-6.034-33.376-16.776-8.852-10.74-13.825-25.31-13.825-40.5 0-15.19 4.98-29.76 13.83-40.5 8.85-10.742 20.86-16.776 33.38-16.776s24.53 6.034 33.38 16.776c8.85 10.74 13.83 25.31 13.83 40.5z" stroke="#050202" stroke-width="3.9" fill="#FFF6D5"/><path d="M1442.856 355.155c-4.483.767-8.95 3.354-10.652 7.483-1.114 2.88.146 6.25 2.633 8.134.93 1.502-.536 3.018-1.544 4.08-1.83 2.32-2.128 5.716-.4 8.16 1.317 2.803.826 6.287-1.294 8.63-1.55 2.55-.93 5.757.54 8.207.39 1.52 2.16 2.57 1.94 4.26.63 1.63-1.06 2.92-2 4.08-1.38 2.18-1.61 4.88-.95 7.31.23 2.5-1.23 5.16.2 7.5 2.88 4.52 8.61 7.09 14.14 6.84 4.81.03 9.76-2 12.55-5.77 1.38-2.17 1.63-4.87.85-7.27.06-2.56 1.26-5.39-.35-7.74-1.01-1.17-1.36-2.67-1.49-4.13-.85-.82-1.98-2.23-1.05-3.33 3.15-1.76 4.16-5.86 2.95-8.99-.24-1.57-2.22-2.45-2.45-3.8 1.39-1.08-1.28-2.5.72-3.25 2.31-1.47 3.4-4.22 3.36-6.77-.1-1.78-.79-3.59-2.3-4.74-1.29-.95-1.16-2.66-.1-3.71 1.19-1.32 2.3-2.83 2.36-4.63.36-3.93-2.53-7.65-6.28-9.15-3.37-1.43-7.18-1.72-10.82-1.56-.21.03-.41.06-.61.1z" stroke="#050202" stroke-width="3.897" fill="#FFF"/><path d="M1350.932 336.11c-1.474 3.213-2.91 4.472-2.713 2.68.19-1.79-1.81-2.776-3.39-3.114-4.86-1.494-10.83 1.106-12.31 5.81-.82 2.176-.43 4.53.19 6.698.24 1.668-1.27 2.75-2.47 3.69-1.76 1.22-3.31 2.846-3.8 4.903-1.05 3.153-.39 6.844 1.97 9.334.96 2.07-.79 4-1.85 5.67-1.42 3-1 6.54.53 9.42.38 2.88-2.83 4.68-3.03 7.44-.74 3.56.86 7.59 4.22 9.48 1.1 1.03.69 2.73-.32 3.67-2.31 3.65-1.63 8.73 1.58 11.71 1.43 2.28-.7 4.73-.32 7.11.38 5.03 5.61 9.43 11.01 8.76 3.55-1.09 7.11-2.35 10.89-2.51 5.58-1.53 8.91-8.13 6.35-13.11-.56-1.22-1-2.51-1.19-3.84-1.33-.01-1.6-2.3-.16-2.35 2.34-.56 3.23-3.31 2.4-5.27-.42-4.09-1.38-8.28-3.63-11.84-1.08-.97-.94-2.4-.05-3.41.91-2.04.92-4.36 2.06-6.32 1.3-2.78.65-6.02-1.07-8.51-.68-.85-1.08-2.22 0-2.96 1.23-.82 2.82-1.11 3.78-2.29 1.07-.98 1.54-2.5 2.74-3.32 1.73-.42 2.81 1.39 4.33 1.8 3.51 1.53 7.89.82 10.77-1.57 1.45-.53 2.59.91 3.06 2.02 2.56 4.14 8.78 5.83 13.24 3.45.77-1.07 2.99-1.39 3.58 0 1.94 2.49 4.06 5.42 7.54 5.95 4.4.87 9.28-1.31 11.26-5.13 1.59-1.3 3.69-.18 5.43.2 3.68.83 7.34-1.04 9.95-3.38 3.03-2.12 7.52-1.22 10.21-3.93 2.88-2.84 3.93-7.3 2.34-10.96.13-2.53 3.24-3.69 3.65-6.14 1.9-4.88-1.39-11.12-6.9-12.21-1.67-.36-3.41-.35-5.1-.1-1.36-.95-.04-2.62-.6-3.85-1.25-5.04-7.21-8.74-12.61-7.37-.95.52-2.46 1.22-3.26.12-1.52-4.19-6.45-6.95-11.09-6.36-3.72.55-6.96 3.26-7.99 6.67-3.91-3.33-10.67-3.05-14.15.71-.01 1.33-2.53 1.5-2.67.15-3.15-4.71-11.2-5.42-15.15-1.23-1.35 1.27-2.16 2.95-2.74 4.64-2.75.11-5.59-1.56-8.24-.21-3.68 1.24-4.9 6.08-6.38 9.29z" stroke="#050202" stroke-width="3.897" fill="#FFF"/><path d="M1384.36 393.075c0 2.366-1.93 4.285-4.31 4.285-2.382 0-4.313-1.92-4.313-4.285 0-1.136.455-2.226 1.263-3.03.81-.803 1.905-1.254 3.05-1.254 1.142 0 2.24.46 3.048 1.26.808.81 1.262 1.9 1.262 3.03z" fill="#000"/><path d="M1354.735 418.444c0 1.65.627 3.18 1.71 4.447-2.99 1.35-4.994 3.92-4.994 6.86 0 4.35 4.39 7.88 9.81 7.88.75 0 1.47-.08 2.16-.21.06.1.12.21.18.3-2 .77-3.66 2.04-4.63 3.64-.88-.21-1.82-.29-2.79-.29-5.41 0-9.8 3.53-9.8 7.88 0 1.9.85 3.64 2.25 5-.54.98-.81 2.09-.81 3.22 0 4.12 3.96 7.5 9 7.84-1.09 1.27-1.71 2.83-1.71 4.49 0 1.12.29 2.17.81 3.13-1.42 1.37-2.29 3.16-2.29 5.08 0 2.85 1.94 5.31 4.77 6.69-.25.7-.4 1.45-.4 2.21 0 4.35 4.39 7.84 9.81 7.84 1.66 0 3.22-.31 4.59-.89-.37.83-.58 1.7-.58 2.63 0 4.34 4.44 7.88 9.85 7.88 1.73 0 3.36-.38 4.77-1.01 1.73 2.23 4.76 3.73 8.28 3.73 4.28 0 7.93-2.18 9.27-5.25 1.55 2.71 4.99 4.58 8.95 4.58 5.42 0 9.81-3.53 9.81-7.87 0-.16-.03-.31-.04-.46 4.56-.67 8.05-3.89 8.05-7.75 0-1.14-.35-2.2-.9-3.17 1.88-1.43 3.06-3.47 3.06-5.72 0-4.34-4.39-7.88-9.8-7.88-.12 0 5.45-3.95 5.45-7.15 0-.65-.09-1.3-.27-1.91 3.18-1.3 5.35-3.93 5.35-6.99 0-3.59-3-6.64-7.1-7.58 1.69-1.41 2.74-3.3 2.74-5.42 0-1.27-.36-2.49-1.03-3.55 2.81-1.38 4.68-3.89 4.68-6.73 0-1.14-.31-2.2-.85-3.18 1.43-1.37 2.3-3.12 2.3-5.04 0-4.34-4.39-7.88-9.8-7.88-.87 0-1.72.13-2.52.3-.82-.18-1.68-.3-2.56-.3-5.42 0-9.804 3.54-9.804 7.88 0 .56.04 1.13.18 1.66-2 .68-3.66 1.88-4.726 3.39-1.52-.78-3.32-1.27-5.26-1.27-3.41 0-6.425 1.39-8.18 3.51-1.608-.91-3.51-1.44-5.62-1.44-1.52 0-2.95.27-4.23.77-.94-3.57-4.908-6.27-9.63-6.27-.748 0-1.46.08-2.16.21-.19-.3-.398-.62-.63-.89 2.98-1.35 4.99-3.92 4.99-6.86 0-4.35-4.388-7.84-9.8-7.84s-9.81 3.49-9.81 7.83z" stroke="#050202" stroke-width="3.897" fill="#FFF"/><path d="M1372.54 422.045c2.29.78 3.25-2.06 17.47-1.88 5.14 5.325 8.27-.396 11.638-.92 11.485 1.88 6.71 5.615 8.938 5.454" stroke="#000" stroke-width="3.897"/><path d="M1414.323 393.566c0 2.366-1.93 4.284-4.31 4.284-2.383 0-4.313-1.918-4.313-4.284 0-1.136.454-2.226 1.263-3.03.808-.803 1.905-1.254 3.05-1.254 1.142 0 2.24.45 3.047 1.254.81.804 1.263 1.894 1.263 3.03z" fill="#000"/><path d="M1245 580.816c6.32 29.473-8.272 38.884-37.143 24.104-31.23-15.987-46.618-12.668-41.907-23.052 5.263-11.6 19.454-28.583 41.907-23.052 13.266 3.268 23.213 13.89 37.144 22zm-264.368-9.832c-8.256-2.02-17.256 4.88-24.373 19.448-6.74 13.793-16.72 24.218-4.03 32.045 7.07 4.362 23.59-.75 21.85-11.16 1.27 5.708 1.04 16.97 4.83 16.917 5.54-.078 11.69-5.59 8.54-16.646-.77-2.702-.52-5.356-1.29-7.508.24-.664.49-1.333.66-2.032 3.89-15.725 2.05-29.044-6.21-31.064z" stroke="#050202" stroke-width="4" fill="#FFF6D5"/><path d="M1008.3 455.93l6.42 25.512-32.092 109.7-35.944-17.857c14.297-53.075 33.65-94.846 61.617-117.355z" stroke="#050202" stroke-width="4" fill="#5AA02C"/><path d="M1071.202 779.932c0 4.736-3.448 9.278-9.587 12.627-6.14 3.35-14.465 5.23-23.147 5.23-8.68 0-17.007-1.88-23.146-5.23-6.14-3.35-9.588-7.9-9.588-12.63 0-9.87 14.656-17.86 32.734-17.86 18.08 0 32.734 7.99 32.734 17.86zm77.663 2.55c0 4.737-3.448 9.28-9.587 12.63-6.14 3.35-14.465 5.23-23.147 5.23-8.68 0-17-1.88-23.14-5.23-6.14-3.35-9.59-7.89-9.59-12.628 0-9.863 14.66-17.858 32.74-17.858 18.08 0 32.74 7.995 32.74 17.858z" stroke="#050202" stroke-width="4" fill="#504416"/><path d="M1214.072 774.947c-.96-115.94-2.082-257.882-5.103-343.078-1.54-43.19 80.63-71.57 91.1 4.32 1.22 5.69-5.44 11.85-13.34 10.65-12.93-68.94-61.65-28.87-61.48-12.79 1.17 112.37 6.89 227.08 5.4 339.23l-16.6 1.65z" stroke="#000" stroke-width="4" fill="#A0892C"/><path d="M1224.32 567.74c0 4.106-6.03 7.435-13.47 7.435s-13.47-3.33-13.47-7.436c0-4.11 6.03-7.44 13.47-7.44s13.47 3.33 13.47 7.43z" stroke="#050202" stroke-width="4" fill="#FFF6D5"/><path d="M1141.805 461.032c16.122 32.878 37.41 60.623 60.334 86.74 3.16 33.08-6.36 40.936-12.84 54.852-24.11-6.32-33.9-9.798-41.08-12.756l-6.42-128.836z" stroke="#050202" stroke-width="4" fill="#5AA02C"/><path d="M1156.41 596.07c5.313 57.704 13.27 154.975 1.103 167.458-12.477 12.8-66.367 23.52-87.334 15.193-20.24-8.03-63.81 4.59-79.17-25.81-15.37-30.4-2.52-103.84-6.16-154.12-7.36-101.73 2.75-180.56 91.68-181.75 75.67-1.01 84.81 77.65 79.88 179.05z" stroke="#050202" stroke-width="4" fill="#447821"/><path d="M1119.353 400.028c0 15.19-4.973 29.76-13.825 40.5-8.852 10.742-20.858 16.776-33.376 16.776-12.518 0-24.524-6.034-33.376-16.776-8.852-10.74-13.825-25.31-13.825-40.5 0-15.19 4.98-29.76 13.83-40.5 8.85-10.742 20.86-16.776 33.38-16.776s24.53 6.034 33.38 16.776c8.85 10.74 13.83 25.31 13.83 40.5z" stroke="#050202" stroke-width="3.9" fill="#FFF6D5"/><path d="M1060.79 394.15c0 2.365-1.93 4.284-4.31 4.284-2.382 0-4.313-1.92-4.313-4.285 0-1.14.454-2.23 1.263-3.03.81-.81 1.905-1.26 3.05-1.26 1.142 0 2.24.45 3.048 1.25.808.8 1.262 1.89 1.262 3.03z" fill="#000"/><path d="M1033.053 489.21c8.892 15.9 49.965 26.485 63.198 17.536 12.4-21.513 16.59-56.46 12.79-80.73-6.68-4.162-11.91-6.06-27.98-5.74-4.87.1-22 1.21-28.46.754-43.28-3.056-29.82 33.885-19.53 68.18z" stroke="#050202" stroke-width="3.897" fill="#28170B"/><path d="M1090.753 394.64c0 2.366-1.93 4.284-4.312 4.284-2.38 0-4.31-1.918-4.31-4.284 0-1.136.46-2.226 1.27-3.03.81-.803 1.91-1.254 3.05-1.254s2.24.45 3.05 1.254c.81.804 1.27 1.894 1.27 3.03z" fill="#000"/><path d="M984.643 585.27l172.532.162c-2.173 6.185-1.143 15.018-.49 22.608l-171.388-.325-.654-22.445z" stroke="#000" stroke-width="3.895" fill="#502D16"/><path d="M1041.758 330.084c-34.89 5.745-47.745 87.934-37.67 141.127 1.79 8.46 13.22 10.26 19.91 6.49 5.924-2.57 7.12-9.25 7.446-14.96.96-13.76-6.4-76.69 3.65-88.05 10.053-11.35 63.84-8.61 72.802 3.59 8.962 12.2-5.26 85.78 2.287 101.05 7.035 8.77 24.268 4.59 25.395-6.92-2.223-16.82 5.463-84.4 2.82-98.22-2.642-13.82-15.85-35.62-27.21-39.89-26.007-9.77-34.54-9.93-69.43-4.19z" stroke="#050202" stroke-width="3.897" fill="#5AA02C"/><path d="M1127.118 350.093c2.652 6.538 10.69 15.9 10.093 23.895l-128.45.91c2.01-7.155 3.03-13.08 9.06-23.768l109.31-1.037z" stroke="#000" stroke-width="4" fill="#502D16"/><path d="M1044.694 431.344c5.976 5.79 43.623 2.11 46.878-.65 3.254-2.758-14.83 22.454-24.174 22.4-9.346-.056-28.68-27.54-22.704-21.75z" stroke="#000" stroke-width="4" fill="#FFF6D5"/><path d="M748.568 575.807c-6.32 29.472 8.274 38.883 37.145 24.104 31.23-15.98 46.617-12.66 41.906-23.05-5.27-11.6-19.46-28.58-41.91-23.05-13.27 3.27-23.22 13.89-37.15 22z" stroke="#050202" stroke-width="4" fill="#FFF6D5"/><path d="M773.42 769.938c-1.164-115.976-11.295-229.172-2.49-343.08-1.77-12.12 22.353-9.128 17.494 4.188-9.543 112.128 1.565 225.09 1.595 337.243l-16.6 1.64z" stroke="#000" stroke-width="4" fill="#A0892C"/><path d="M769.25 562.73c0 4.106 6.03 7.436 13.47 7.436s13.47-3.33 13.47-7.436c0-4.107-6.03-7.437-13.47-7.437s-13.47 3.33-13.47 7.437z" stroke="#050202" stroke-width="4" fill="#FFF6D5"/><path d="M851.764 456.023c-16.122 32.877-37.408 60.623-60.333 86.74-3.16 33.08 6.36 40.936 12.84 54.85 24.1-6.32 33.9-9.797 41.08-12.755l6.42-128.835z" stroke="#050202" stroke-width="4" fill="#504416"/><path d="M1012.937 565.974c8.257-2.02 17.256 4.88 24.374 19.45 6.74 13.792 16.72 24.217 4.03 32.043-7.07 4.363-23.59-.75-21.85-11.16-1.27 5.71-1.04 16.97-4.83 16.917-5.54-.077-11.69-5.59-8.54-16.645.77-2.71.52-5.36 1.29-7.51-.24-.67-.49-1.34-.66-2.03-3.9-15.73-2.05-29.05 6.21-31.07z" stroke="#050202" stroke-width="4" fill="#FFF6D5"/><path d="M985.268 450.92l-6.418 25.513 32.092 109.7 35.943-17.857c-14.296-53.076-33.65-94.846-61.617-117.355zm-62.9 324.002c0 4.737 3.45 9.28 9.587 12.628 6.138 3.35 14.465 5.23 23.146 5.23 8.69 0 17.01-1.88 23.15-5.23 6.14-3.35 9.59-7.89 9.59-12.628 0-9.863-14.65-17.858-32.73-17.858-18.07 0-32.73 7.995-32.73 17.858zm-77.664 2.552c0 4.736 3.45 9.278 9.588 12.627 6.138 3.35 14.465 5.24 23.146 5.24 8.682 0 17.008-1.88 23.147-5.23 6.14-3.35 9.587-7.89 9.587-12.63 0-9.86-14.655-17.86-32.734-17.86-18.078 0-32.734 8-32.734 17.86z" stroke="#050202" stroke-width="4" fill="#504416"/><path d="M837.158 591.06c-5.312 57.704-13.268 154.976-1.1 167.46 12.475 12.798 66.365 23.52 87.332 15.192 20.24-8.04 63.808 4.587 79.17-25.82 15.363-30.405 2.52-103.843 6.155-154.126 7.352-101.737-2.75-180.562-91.68-181.75-75.67-1.01-84.808 77.644-79.877 179.044z" stroke="#050202" stroke-width="4" fill="#806600"/><path d="M874.217 395.02c0 15.19 4.973 29.758 13.825 40.5 8.85 10.74 20.857 16.775 33.376 16.775 12.518 0 24.524-6.035 33.375-16.776 8.852-10.75 13.825-25.31 13.825-40.5 0-15.2-4.973-29.76-13.825-40.51-8.85-10.74-20.857-16.78-33.375-16.78-12.52 0-24.525 6.03-33.376 16.77-8.852 10.74-13.825 25.31-13.825 40.5z" stroke="#050202" stroke-width="3.9" fill="#FFF6D5"/><path d="M932.78 389.14c0 2.366 1.93 4.284 4.31 4.284 2.382 0 4.312-1.918 4.312-4.284 0-1.137-.454-2.226-1.263-3.03-.81-.803-1.91-1.255-3.05-1.255-1.15 0-2.24.452-3.05 1.255-.81.804-1.27 1.893-1.27 3.03z" fill="#000"/><path d="M960.516 484.2c-8.89 15.9-49.965 26.485-63.198 17.536-12.39-21.513-16.588-56.46-12.782-80.73 6.686-4.16 11.913-6.06 27.983-5.738 4.87.097 22 1.21 28.46.753 43.28-3.05 29.82 33.89 19.53 68.18z" stroke="#050202" stroke-width="3.897" fill="#803300"/><path d="M902.816 389.63c0 2.367 1.93 4.285 4.312 4.285 2.38 0 4.312-1.918 4.312-4.284 0-1.13-.455-2.22-1.263-3.03-.81-.8-1.905-1.25-3.05-1.25-1.142 0-2.24.45-3.048 1.26-.81.81-1.27 1.9-1.27 3.03z" fill="#000"/><path d="M1008.926 580.26l-172.532.162c2.173 6.186 1.144 15.018.49 22.608l171.39-.324.652-22.446z" stroke="#000" stroke-width="3.895" fill="#2D5016"/><path d="M951.81 325.075c34.89 5.744 47.747 87.934 37.673 141.126-1.79 8.46-13.22 10.26-19.913 6.49-5.923-2.57-7.118-9.25-7.445-14.96-.96-13.76 6.402-76.69-3.65-88.05-10.053-11.35-63.84-8.61-72.8 3.59-8.964 12.2 5.26 85.78-2.288 101.05-7.035 8.76-24.268 4.58-25.395-6.92 2.222-16.82-5.464-84.4-2.82-98.22 2.64-13.82 15.85-35.61 27.21-39.89 26.006-9.77 34.54-9.93 69.43-4.19z" stroke="#050202" stroke-width="3.897" fill="#504416"/><path d="M866.452 345.084c-2.652 6.537-10.69 15.9-10.094 23.895l128.457.9c-2.005-7.16-3.03-13.08-9.06-23.77l-109.303-1.04z" stroke="#000" stroke-width="4" fill="#2D5016"/><path d="M948.876 426.334c-5.977 5.79-43.623 2.11-46.878-.65-3.255-2.757 14.83 22.455 24.174 22.4 9.345-.055 28.68-27.54 22.704-21.75z" stroke="#000" stroke-width="4" fill="#FFF6D5"/><g transform="translate(614 596)"><rect fill="#000" x="96.016" y="118.701" width="24.023" height="91.815" rx="8"/><rect fill="#000" x="193.867" y="118.701" width="24.023" height="91.815" rx="8"/><path d="M192.792 3.834c-12.403 0-23.862 3.004-33.24 8.05-8.636-3.932-18.757-6.195-29.585-6.195-30.703 0-55.73 18.18-57.185 41.04-14.587 7.82-24.106 20.64-24.106 35.16 0 23.83 25.627 43.17 57.265 43.17 3.43 0 6.79-.28 10.05-.71 8.69 15.5 29.04 26.4 52.78 26.4 17.35 0 32.9-5.82 43.41-15 2.14.18 4.32.31 6.52.31 28.47 0 52.07-15.65 56.51-36.15 13.93-7.88 22.96-20.45 22.96-34.57 0-23.83-25.66-43.13-57.3-43.13-.39 0-.77-.01-1.15 0-10.37-11.1-27.52-18.39-46.9-18.39z" stroke="#000" stroke-width="3.458" fill="#FFF"/><rect fill="#000" x="230.719" y="119.069" width="24.023" height="91.815" rx="8"/><rect fill="#000" x="130.327" y="118.701" width="24.023" height="91.815" rx="8"/><ellipse stroke="#000" stroke-width="3.5" fill="#CCC" transform="rotate(32 91.97 35.598)" cx="91.971" cy="35.598" rx="14.614" ry="17.679"/><ellipse stroke="#000" stroke-width="3.5" fill="#CCC" cx="36.793" cy="27.5" rx="16.5" ry="20.5"/><path d="M64.82 22.504c18.807 6.514 27.182 31.633 18.705 56.104-4.07 11.752-11.562 21.78-20.826 27.877-9.27 6.097-19.55 7.765-28.58 4.637-9.03-3.13-16.08-10.797-19.59-21.32-3.51-10.52-3.19-23.033.88-34.785 4.07-11.75 11.56-21.777 20.82-27.877 9.26-6.09 19.54-7.76 28.57-4.63z" stroke="#000" stroke-width="3.458" fill="#CCC"/><path d="M46.738 47.16c1.357 3.24-.187 6.974-3.448 8.34-3.26 1.364-7.004-.156-8.36-3.396-1.357-3.24.187-6.974 3.448-8.34 3.26-1.365 7.004.155 8.36 3.396z" fill="#000"/><path d="M26.43 74.81c9.742 21.522 21.763 16.996 39.237 9.23" stroke="#000" stroke-width="3.458" stroke-linecap="round"/><path d="M72.062 53.443c1.357 3.24-.187 6.974-3.448 8.34-3.26 1.364-7.004-.156-8.36-3.396-1.358-3.24.186-6.974 3.447-8.34 3.27-1.364 7.01.156 8.37 3.396z" fill="#000"/></g><path d="M1276.61 310.635l43.218 59.853-106.172-48.478c-8.54.652-17.273.99-26.156.99-99.687 0-180.5-42.533-180.5-95s80.813-95 180.5-95 180.5 42.533 180.5 95c0 35.41-36.81 66.296-91.39 82.635z" stroke="#000" stroke-width="4" fill="#FFF"/><path d="M1081.5 173h.984c1.365 0 3.09 5.536 5.172 16.61 1.646 5.23 2.47 8.78 2.47 10.656-.345.99-1 1.484-1.97 1.484-1.26 0-2.166-2.64-2.718-7.922l-.235-.25h-.25c-2.146.02-6.66 1.177-13.547 3.47-.646 3.3-1.713 4.952-3.203 4.952-.99-.344-1.484-1.005-1.484-1.984 0-1.907 4.51-10.662 13.54-26.266l1.23-.75zm-.39 6.938c-1.98 3.145-3.787 6.453-5.422 9.92h1.718c1.677 0 3.813-.332 6.407-1l-2.22-8.92h-.484zm13.843-2.954c.948 0 2.083 1.782 3.406 5.344 2.56 5.25 5.41 9.74 8.54 13.47 1.05-10.282 1.83-16.34 2.34-18.173l.86-.64h.64c.42 0 .64.286.64.86-1.28 14.686-2.07 22.525-2.35 23.514l-1.28.42c-2.29 0-6.13-4.85-11.54-14.53l-.86-.86-.22.64-.64 9.84v1.28l.21 1.28c-.19 1.71-.76 2.56-1.7 2.56-.88-.32-1.38-.74-1.5-1.28 1.09-15.4 1.87-23.1 2.34-23.1l1.08-.64zm40.625.047h.75c1.03 0 2.34 4.77 3.922 14.3 1.25 4.5 1.875 7.56 1.875 9.17-.26.86-.76 1.28-1.5 1.28-.958 0-1.646-2.27-2.063-6.82l-.187-.2h-.188c-1.625.02-5.052 1.02-10.28 2.99-.5 2.85-1.313 4.27-2.438 4.27-.75-.29-1.13-.86-1.13-1.7 0-1.64 3.43-9.18 10.29-22.62l.93-.64zm-.375 5.97c-1.5 2.71-2.875 5.56-4.125 8.55h1.313c1.27 0 2.9-.28 4.88-.86l-1.69-7.69h-.37zm11.953-6.01c.948 0 2.084 1.78 3.407 5.35 2.562 5.25 5.41 9.74 8.546 13.47 1.05-10.28 1.83-16.34 2.34-18.17l.86-.64h.64c.42 0 .64.29.64.86-1.28 14.69-2.06 22.53-2.35 23.52l-1.28.42c-2.29 0-6.13-4.84-11.54-14.53l-.86-.86-.22.64-.64 9.85v1.28l.21 1.28c-.19 1.71-.76 2.57-1.71 2.57-.88-.31-1.38-.74-1.5-1.28 1.09-15.39 1.87-23.09 2.34-23.09l1.08-.64zm31.422 0h.156c1.386 0 2.313 1.36 2.782 4.07l-.33.42h-.155l-1.31-.42c-3.58.53-7.34 3.03-11.26 7.49-1.09 1.94-1.64 3.3-1.64 4.07v.86c0 2.28 2.35 3.71 7.03 4.27 2.94 0 5.17-1.57 6.69-4.7l-1.95-.84c-.73 0-2.74.86-6.04 2.57-.32-.73-.48-1.44-.48-2.14v-.22c0-2.27 2.18-3.83 6.53-4.7h.33c2.5 0 3.75 1.64 3.75 4.93 0 3.39-2.77 6.38-8.33 8.99l-1.95.43c-3.53 0-5.93-1.5-7.19-4.49l-.32-2.78c0-6.46 3.32-11.95 9.95-16.47 1.68-.86 2.93-1.28 3.77-1.28zm21.78.05c.72.16 1.08.71 1.08 1.64-.23 1.77-.943 2.66-2.14 2.66-7.855 0-11.782 1.1-11.782 3.28l-.22 1.85v1.02c5.126-1.23 8.626-1.84 10.5-1.84h.423c.71.32 1.07 1 1.07 2.05 0 1.5-1 2.25-3 2.25-6.58.86-9.86 1.88-9.86 3.08l-.21 2.05v.81c0 1.23.78 1.91 2.34 2.05 2.46-.27 5.53-.88 9.22-1.84h.64c.57.22.86.7.86 1.44v.61c0 1.68-3.58 2.97-10.72 3.89h-.64c-2.58 0-4-1.63-4.28-4.9 0-2.4.5-6.98 1.5-13.72l-.43-1.23c0-2.77 4.28-4.4 12.84-4.9l2.78-.2zm4.298-.04h.22c.676 0 1.244.35 1.702 1.05-.99 7.21-1.698 13.66-2.125 19.35l12.188-2.51.43.62v1.27c0 1.92-4.41 3.67-13.25 5.25-1.57-.28-2.36-.77-2.36-1.47 1.17-15.41 2.02-23.12 2.57-23.12l.64-.42zm43.563-.01c1.35 0 2.03.56 2.03 1.69v.42c0 1.55-1.21 2.33-3.63 2.33l-4.52.22c-1.36 7.22-2.03 13.43-2.03 18.63-.37 1.13-.74 1.69-1.13 1.69h-.69c-.78 0-1.24-.21-1.36-.64.76-7.99 1.59-14.48 2.48-19.47l-6.78 1.06c-.64 0-1.01-.63-1.13-1.9 0-2.11 1.88-3.17 5.65-3.17 2.26-.56 5.95-.84 11.08-.84zm15.04.02c4.45.62 6.67 3.28 6.67 7.99 0 6.17-2.44 11.27-7.31 15.31-2.01 1.15-3.81 1.72-5.39 1.72-3.87 0-6.36-2.08-7.47-6.25l-.16-1.93v-.66c0-6.73 3.07-11.83 9.22-15.31 1.54-.57 3.02-.86 4.44-.86zm-11.6 16.83c1.6 2.44 3.72 3.66 6.36 3.66 4.24 0 7.2-2.51 8.89-7.54l.31-2.38c0-3.54-1.75-5.62-5.24-6.25h-.49c-2.89 0-5.9 2.88-9.05 8.63-.54 1.73-.8 3.03-.8 3.89zm22.47-16.83h.21c.67 0 1.24.35 1.7 1.05-.99 7.21-1.7 13.66-2.13 19.35l12.19-2.52.42.63v1.27c0 1.92-4.42 3.67-13.25 5.25-1.57-.28-2.36-.77-2.36-1.47 1.17-15.41 2.02-23.12 2.56-23.12l.64-.42zm21.26 0h.95c4.53 0 7.3 1.8 8.33 5.39l.18 1.72c0 7.16-5.31 13.05-15.91 17.69l-.94.22h-.21c-.28 0-.53-.5-.75-1.51l1.89-18.54c-.76 0-1.14-.21-1.14-.64v-.44c0-2.29 1.01-3.43 3.03-3.43l4.55-.44zm-3.78 4.53c-1.14 7.38-1.71 12.34-1.71 14.88v1.08c7.95-3.97 11.92-7.71 11.92-11.22v-.2c0-2.02-.57-3.03-1.7-3.03-1.41-1-3.68-1.5-6.81-1.5h-1.71zM1074.6 219c.66.27 1.03.55 1.11.843-1.19 7.428-1.79 12.824-1.79 16.19v2.31c3.98 0 7.24-1.823 9.782-5.47 1-8.832 1.962-13.25 2.89-13.25h.234c.887.095 1.33.31 1.33.64-1.333 8.044-2 14.07-2 18.08v3.36c0 1.104-.45 1.874-1.344 2.31h-.89l-.874-.842v-.42l.22-3.56c-.534 0-3.425 1.33-8.675 3.99l-1.564.43c-1.78-.23-2.67-1-2.67-2.31v-.2c1.08-14.72 2.34-22.08 3.78-22.08h.45zm27.45.046h.33c1.44.178 2.15.876 2.15 2.095v.42c0 2.11-.72 4.06-2.15 5.88h-.322c-.23-.06-.45-.41-.67-1.04l.844-3.14-.656-.42c-1.53.14-4.346 1.82-8.44 5.03v.21l10.91 2.11c1.103.87 1.655 2.34 1.655 4.4v1.25c0 2.82-1.82 5.27-5.45 7.35-1.42.56-2.8.85-4.14.85h-.34c-3.79 0-6.1-1.67-6.94-5.03v-1.27c0-1.54.39-2.31 1.16-2.31.76 2.67 2.14 4 4.14 4 0 .27.83.41 2.49.41 2.45 0 4.82-1.26 7.11-3.77 0-1.67-3.52-2.72-10.58-3.16-2.54-.71-3.81-1.76-3.81-3.14 0-3.41 3.42-6.84 10.25-10.28l2.49-.42zm28.48 0h.75c1.03 0 2.337 4.767 3.92 14.298 1.25 4.5 1.875 7.56 1.875 9.175-.26.85-.76 1.28-1.5 1.28-.96 0-1.647-2.28-2.064-6.83l-.18-.2h-.18c-1.63.02-5.05 1.02-10.28 2.99-.5 2.84-1.32 4.27-2.44 4.27-.75-.3-1.13-.86-1.13-1.71 0-1.65 3.43-9.19 10.29-22.63l.94-.64zm-.376 5.97c-1.5 2.708-2.874 5.557-4.124 8.547h1.32c1.27 0 2.898-.286 4.877-.86l-1.688-7.686h-.38zm18.14-5.97c4.22 0 6.33 1.44 6.33 4.314v.64c0 2.01-.953 3.946-2.86 5.81v.22c3.136.947 4.703 2.525 4.703 4.733v.86c0 3.605-3.54 6.256-10.623 7.953l-3.484.436h-2.03c-1.1 0-1.64-.573-1.64-1.72v-.22l1.64-17.655c-.69 0-1.03-.14-1.03-.43v-1.3c0-2.44 3-3.66 9-3.66zm-5.936 9.69h.22c6.39 0 9.59-1.44 9.59-4.314-1.05-.71-2.82-1.06-5.31-1.06h-2.46c-1.08 0-1.627.5-1.627 1.5l-.42 3.873zm-.41 4.093l-.41 6.87 2.04.44.204-.22h1.01c5.73-.75 8.594-2.11 8.594-4.08-1.887-2.01-4.82-3.02-8.798-3.02h-.814l-.2-.22-.207.22h-1.435zm29.25-13.83c4.44.61 6.67 3.27 6.67 7.98 0 6.16-2.44 11.27-7.32 15.31-2.01 1.15-3.806 1.72-5.39 1.72-3.864 0-6.354-2.08-7.47-6.25l-.155-1.94v-.66c0-6.73 3.072-11.84 9.22-15.31 1.54-.58 3.02-.86 4.436-.86zm-11.6 16.83c1.6 2.43 3.72 3.65 6.36 3.65 4.24 0 7.2-2.52 8.89-7.55l.31-2.38c0-3.54-1.746-5.63-5.236-6.25h-.485c-2.888 0-5.903 2.87-9.05 8.62-.53 1.73-.797 3.02-.797 3.89zM1183.5 219c.668.27 1.038.55 1.11.84-1.187 7.43-1.78 12.82-1.78 16.19v2.31c3.98 0 7.24-1.828 9.78-5.47 1-8.83 1.964-13.25 2.89-13.25h.236c.885.09 1.33.31 1.33.64-1.335 8.04-2 14.064-2 18.074v3.36c0 1.105-.45 1.875-1.345 2.313h-.89l-.88-.848v-.42l.22-3.56c-.53 0-3.42 1.32-8.67 3.98l-1.56.42c-1.78-.23-2.67-1-2.67-2.31v-.21c1.08-14.72 2.34-22.08 3.78-22.08h.45zm31.564-.02c1.355 0 2.03.56 2.03 1.68v.42c0 1.55-1.206 2.33-3.623 2.33l-4.52.22c-1.35 7.214-2.03 13.422-2.03 18.62-.36 1.126-.74 1.69-1.12 1.69h-.68c-.78 0-1.23-.215-1.36-.64.76-7.99 1.59-14.48 2.49-19.47l-6.78 1.062c-.63 0-1.01-.635-1.12-1.906 0-2.118 1.89-3.176 5.66-3.176 2.26-.56 5.95-.842 11.08-.842zm16.58.06l4.78 7.25 2.096 1.72c2.646-4.71 4.49-7.56 5.53-8.55h.954l.77.86c-.107.76-3.097 6.09-8.97 16-1.48 2.78-2.56 5.27-3.25 7.464l-.56.22c-.9-.416-1.348-1.056-1.348-1.92.052-1.114 1.58-4.6 4.58-10.453-4.325-4.64-6.486-8.41-6.486-11.31.8-.85 1.435-1.28 1.904-1.28zm26.095-.05c4.45.61 6.67 3.27 6.67 7.98 0 6.166-2.44 11.27-7.31 15.31-2.01 1.15-3.81 1.72-5.39 1.72-3.87 0-6.36-2.08-7.47-6.25l-.16-1.937v-.656c0-6.73 3.07-11.832 9.22-15.31 1.54-.574 3.02-.86 4.44-.86zm-11.6 16.823c1.6 2.44 3.72 3.657 6.36 3.657 4.24 0 7.2-2.515 8.89-7.546l.31-2.372c0-3.54-1.75-5.624-5.24-6.25h-.48c-2.89 0-5.9 2.876-9.05 8.626-.54 1.73-.8 3.028-.8 3.89zm23.9-16.83c.66.27 1.03.55 1.11.84-1.19 7.428-1.79 12.82-1.79 16.19v2.31c3.98 0 7.24-1.826 9.78-5.47 1-8.835 1.96-13.25 2.89-13.25h.23c.89.092 1.33.31 1.33.64-1.33 8.04-2 14.07-2 18.08v3.36c0 1.1-.44 1.87-1.34 2.31h-.89l-.87-.845v-.42l.22-3.56c-.53 0-3.42 1.326-8.67 3.982l-1.57.42c-1.79-.23-2.68-1-2.68-2.315v-.2c1.08-14.72 2.34-22.08 3.78-22.08h.45zm25.84 0h2.16c3.3 0 4.95 1.15 4.95 3.45v.22c0 4.03-3.45 7.7-10.35 11v.205c3.44 3.166 6.32 5.54 8.62 7.124v.64c0 1.118-.36 1.836-1.08 2.16h-.86l-11.84-8.404-.22 4.315v3.233c-.37.72-.94 1.08-1.72 1.08-.58 0-1.01-.29-1.3-.86v-1.3l1.94-16.83c-.58 0-.86-.426-.86-1.28 0-2.594 2.15-4.105 6.45-4.53l4.09-.22zm-7.53 11.64h.22c7.46-1.92 11.18-4 11.18-6.25v-.22c0-.395-.72-.68-2.16-.86-2.39 0-5.26.507-8.61 1.518l-.64 5.82zm-193.51 30.406h.33c1.44.18 2.15.87 2.15 2.09v.42c0 2.1-.72 4.06-2.16 5.87h-.33c-.23-.06-.46-.41-.67-1.05l.84-3.14-.66-.43c-1.53.13-4.34 1.81-8.44 5.03v.2l10.91 2.11c1.1.87 1.65 2.34 1.65 4.41v1.25c0 2.82-1.82 5.27-5.46 7.34-1.42.56-2.8.84-4.14.84h-.34c-3.79 0-6.11-1.67-6.94-5.03v-1.26c0-1.54.39-2.31 1.16-2.31.76 2.67 2.14 4 4.14 4 0 .27.83.41 2.48.41 2.45 0 4.82-1.26 7.11-3.77 0-1.67-3.528-2.72-10.58-3.16-2.54-.71-3.81-1.76-3.81-3.14 0-3.41 3.42-6.84 10.25-10.29l2.482-.43zm17.16-.05c4.13 0 6.2 1.21 6.2 3.64 0 4.8-4.53 9.14-13.6 13.03-.66 0-1 .42-1 1.28-.09 4.71-.56 7.06-1.4 7.06h-1c-.27-.07-.54-.42-.8-1.07l1.8-17.53h-.21c-.53 0-.8-.65-.8-1.94 0-2.09 1.2-3.3 3.61-3.63l7.19-.86zm-8 12.4c4.57-1.2 8.04-3.19 10.4-5.99l.39-1.29v-.42l-1-.22h-1c-5.32.29-7.99.79-7.99 1.5l-.82 6.42zm30.9-12.36c.72.16 1.08.7 1.08 1.64-.23 1.77-.94 2.65-2.14 2.65-7.86 0-11.78 1.09-11.78 3.28l-.22 1.84v1.01c5.12-1.23 8.62-1.85 10.5-1.85h.42c.72.31 1.08.99 1.08 2.04 0 1.5-1 2.25-3 2.25-6.58.85-9.86 1.88-9.86 3.08l-.21 2.04v.81c0 1.23.78 1.91 2.34 2.05 2.46-.27 5.53-.89 9.22-1.85h.64c.57.22.86.69.86 1.43v.61c0 1.68-3.57 2.97-10.72 3.89h-.64c-2.57 0-4-1.63-4.28-4.9 0-2.41.5-6.98 1.5-13.72l-.42-1.24c0-2.77 4.28-4.41 12.84-4.91l2.78-.2zm16.36 0h.92c1.16 0 1.85.93 2.08 2.8v.44c0 2.82-1.07 4.68-3.21 5.59l-.38-.44v-.22l.95-3.66-.75-.43c-3.12 0-6.82 2.94-11.11 8.82-1.02 1.78-1.53 3.14-1.53 4.08v.22c0 2.29 1.38 3.43 4.15 3.43h.17c2.66 0 5.62-.72 8.86-2.14h.58c.5.23.75.73.75 1.5v.86c-2.67 2.73-5.8 4.09-9.41 4.09-4.91-.51-7.36-2.95-7.36-7.31v-.44c0-5.58 3.95-11.03 11.86-16.36 1.5-.58 2.64-.86 3.41-.86zm8.01-.11h1.47c.49 0 .73.28.73.86-1.14 9.35-1.71 15.84-1.71 19.47v2.37c-.32 1.58-1.14 2.38-2.44 2.38h-.49l-.99-.86c.66-9.81 1.47-17.6 2.45-23.36l.97-.86zm13.31.11h.75c1.03 0 2.34 4.76 3.93 14.29 1.25 4.5 1.87 7.55 1.87 9.17-.26.85-.76 1.28-1.5 1.28-.96 0-1.65-2.28-2.06-6.83l-.19-.21h-.19c-1.62.02-5.05 1.01-10.28 2.98-.5 2.84-1.31 4.26-2.44 4.26-.75-.3-1.12-.86-1.12-1.71 0-1.65 3.43-9.19 10.29-22.63l.94-.64zm-.37 5.97c-1.5 2.71-2.88 5.56-4.13 8.55h1.31c1.27 0 2.89-.29 4.87-.86l-1.69-7.69h-.38zm11.73-6.02h.22c.67 0 1.24.35 1.7 1.04-.99 7.21-1.7 13.66-2.13 19.34l12.19-2.52.42.62v1.26c0 1.91-4.42 3.66-13.25 5.25-1.57-.28-2.36-.77-2.36-1.47 1.16-15.42 2.02-23.13 2.56-23.13l.64-.43zm35.82.04c4.22 0 6.33 1.44 6.33 4.31v.64c0 2.01-.95 3.95-2.86 5.81v.22c3.14.95 4.71 2.53 4.71 4.73v.86c0 3.6-3.54 6.25-10.63 7.95l-3.49.44h-2.03c-1.1 0-1.64-.58-1.64-1.72v-.22l1.64-17.66c-.69 0-1.03-.14-1.03-.42v-1.3c0-2.44 3-3.66 9-3.66zm-5.93 9.69h.22c6.39 0 9.59-1.44 9.59-4.31-1.05-.71-2.83-1.06-5.31-1.06h-2.45c-1.09 0-1.63.5-1.63 1.5l-.42 3.87zm-.41 4.09l-.41 6.87 2.05.44.2-.22h1.01c5.73-.75 8.59-2.11 8.59-4.08-1.89-2.01-4.82-3.02-8.8-3.02h-.81l-.2-.22-.2.22h-1.43zm25.23-13.78h.75c1.04 0 2.34 4.76 3.93 14.29 1.25 4.5 1.88 7.55 1.88 9.17-.26.85-.76 1.28-1.5 1.28-.96 0-1.65-2.28-2.06-6.83l-.19-.21h-.19c-1.63.02-5.06 1.01-10.28 2.98-.5 2.85-1.32 4.27-2.44 4.27-.75-.29-1.13-.86-1.13-1.7 0-1.65 3.44-9.19 10.3-22.63l.94-.64zm-.37 5.96c-1.5 2.71-2.88 5.56-4.13 8.55h1.31c1.27 0 2.9-.28 4.88-.86l-1.69-7.69h-.38zm18.14-5.97c4.22 0 6.33 1.44 6.33 4.32v.64c0 2.01-.95 3.95-2.86 5.81v.22c3.13.95 4.7 2.53 4.7 4.74v.86c0 3.6-3.54 6.26-10.62 7.95l-3.48.43h-2.03c-1.1 0-1.64-.58-1.64-1.72v-.22l1.64-17.66c-.69 0-1.03-.14-1.03-.42v-1.3c0-2.44 3-3.66 9-3.66zm-5.94 9.69h.22c6.4 0 9.6-1.44 9.6-4.31-1.06-.71-2.83-1.06-5.32-1.06h-2.46c-1.09 0-1.63.5-1.63 1.5l-.42 3.87zm-.4 4.09l-.41 6.88 2.04.44.2-.22h1.01c5.73-.75 8.59-2.11 8.59-4.08-1.88-2.01-4.82-3.02-8.79-3.02h-.81l-.2-.22-.21.22h-1.44zm17.5-13.78l4.78 7.25 2.09 1.72c2.65-4.71 4.49-7.55 5.53-8.54h.95l.76.86c-.11.76-3.1 6.09-8.97 16-1.48 2.78-2.56 5.27-3.25 7.47l-.56.22c-.9-.42-1.35-1.06-1.35-1.92.05-1.12 1.58-4.6 4.58-10.46-4.32-4.65-6.48-8.42-6.48-11.32.8-.86 1.44-1.28 1.91-1.28zm22.78-3.97c.62.29.94.64.94 1.05-2.97 9.56-4.46 15.62-4.46 18.17-.84.98-1.55 1.47-2.13 1.47-.94-.33-1.41-.75-1.41-1.25 1.48-12.96 3.43-19.44 5.87-19.44h1.17zm-5.55 23.46c1.48.28 2.22 1.05 2.22 2.31v.2c-.6 1.98-2.02 2.97-4.27 2.97-1.12 0-1.79-.77-2.02-2.32 0-1.78 1.35-2.84 4.06-3.17z" fill="#000"/><path d="M446.067 293.946L352.56 354.47l22.912-64.327C292.812 279.72 233 249.346 233 213.5c0-44.46 92.005-80.5 205.5-80.5S644 169.04 644 213.5c0 43.466-87.944 78.887-197.933 80.446z" stroke="#000" stroke-width="4" fill="#FFF"/><path d="M298.14 177.03c.917 0 1.376 2.81 1.376 8.423l1.828 10.64h.453c0-.603 1.833-3.905 5.5-9.905.573-3.96 1.64-5.938 3.203-5.938h.453c.917 0 1.677 3.052 2.28 9.156 1.022 4.167 1.788 6.646 2.298 7.438.48-2.104 2.92-8.297 7.32-18.578.65-.657 1.26-.985 1.83-.985.83 0 1.36.33 1.61.99 0 .85-2.28 6.38-6.86 16.6-.77 2.41-1.46 5.71-2.06 9.91-.49.83-1.1 1.24-1.83 1.24-1.39 0-2.46-2.8-3.2-8.42-1.49-5.47-2.4-8.44-2.75-8.9l-4.58 7.92c-.76 1.54-1.45 4.19-2.06 7.93-.4.6-1.01 1.02-1.83 1.23-1.27 0-2.34-4.29-3.2-12.87-1.22-6.06-1.83-10.93-1.83-14.61 0-.49.69-.9 2.07-1.24zm39.688 3.954c4.448.615 6.672 3.276 6.672 7.985 0 6.16-2.437 11.27-7.313 15.31-2.01 1.14-3.807 1.72-5.39 1.72-3.865 0-6.354-2.09-7.47-6.25l-.155-1.94v-.66c0-6.73 3.073-11.84 9.22-15.31 1.54-.58 3.02-.86 4.436-.86zm-11.594 16.828c1.605 2.438 3.724 3.657 6.36 3.657 4.24 0 7.203-2.52 8.89-7.55l.313-2.38c0-3.54-1.745-5.63-5.235-6.25h-.484c-2.885 0-5.9 2.87-9.047 8.62-.53 1.73-.79 3.02-.79 3.89zm20.844-16.78c.698 0 1.047 2.416 1.047 7.25l1.406 9.187h.35c0-.54 1.4-3.38 4.21-8.55.44-3.41 1.26-5.11 2.46-5.11h.35c.71 0 1.3 2.63 1.75 7.89.78 3.59 1.37 5.73 1.75 6.4.38-1.82 2.25-7.15 5.61-16.02.49-.57.96-.85 1.41-.85.63 0 1.03.28 1.22.84 0 .73-1.75 5.49-5.25 14.3-.58 2.08-1.11 4.93-1.58 8.54-.37.71-.84 1.06-1.4 1.06-1.06 0-1.87-2.42-2.44-7.25-1.14-4.72-1.84-7.28-2.11-7.69l-3.5 6.83c-.58 1.33-1.1 3.61-1.57 6.83-.31.52-.77.87-1.39 1.06-.98 0-1.8-3.7-2.45-11.09-.94-5.23-1.4-9.43-1.4-12.6 0-.43.53-.78 1.58-1.07zm31.875-3.97c.625.292.938.64.938 1.047-2.96 9.56-4.45 15.62-4.45 18.17-.84.98-1.55 1.47-2.12 1.47-.94-.34-1.4-.75-1.4-1.25 1.48-12.96 3.44-19.44 5.88-19.44h1.18zm-5.547 23.454c1.48.28 2.22 1.052 2.22 2.312v.203c-.595 1.98-2.017 2.97-4.267 2.97-1.12 0-1.79-.77-2.02-2.31 0-1.78 1.35-2.84 4.06-3.17zm38.813-23.485c1.54 0 2.31.66 2.31 1.97v.49c0 1.8-1.38 2.71-4.13 2.71l-5.14.25c-1.54 8.38-2.32 15.58-2.32 21.6-.42 1.32-.85 1.97-1.28 1.97h-.78c-.89 0-1.4-.24-1.55-.73.86-9.27 1.8-16.8 2.82-22.59l-7.72 1.23c-.72 0-1.15-.73-1.28-2.2 0-2.46 2.15-3.69 6.44-3.69 2.57-.66 6.77-.98 12.61-.98zm17.7 3.96c.74.2 1.11.71 1.11 1.52v.21c-1.04 15.39-1.78 23.08-2.22 23.08l-.24.22h-.66c-.77 0-1.29-.36-1.57-1.07.29-2.05.43-4.93.43-8.62h-.22l-9.35 2.16-.66.86v4.09c0 1.22-.45 2.09-1.35 2.6h-.44c-.83 0-1.36-.36-1.56-1.08 1.03-15.53 2.51-23.29 4.45-23.29h.43l.67.88c-1.04 5.16-1.56 8.96-1.56 11.42 6.83-.89 10.24-1.97 10.24-3.23l.89-9.06 1.56-.64zm12.15.05h.75c1.03 0 2.34 4.77 3.92 14.3 1.25 4.5 1.87 7.56 1.87 9.18-.26.86-.76 1.28-1.5 1.28-.96 0-1.65-2.27-2.07-6.82l-.19-.2h-.19c-1.63.02-5.05 1.02-10.28 2.98-.5 2.85-1.32 4.27-2.44 4.27-.75-.29-1.13-.86-1.13-1.7 0-1.64 3.43-9.19 10.29-22.62l.94-.64zm-.38 5.97c-1.5 2.71-2.88 5.56-4.13 8.55h1.31c1.27 0 2.89-.28 4.87-.86l-1.69-7.69h-.38zm11.95-6.01c.95 0 2.08 1.78 3.4 5.35 2.56 5.25 5.41 9.74 8.54 13.47 1.05-10.28 1.83-16.34 2.34-18.17l.86-.64h.64c.43 0 .64.29.64.86-1.28 14.69-2.06 22.53-2.34 23.52l-1.28.42c-2.28 0-6.13-4.84-11.53-14.53l-.86-.86-.22.64-.64 9.85v1.28l.21 1.29c-.19 1.71-.76 2.56-1.7 2.56-.88-.31-1.38-.74-1.5-1.28 1.09-15.39 1.87-23.09 2.34-23.09l1.08-.64zm22.33.14l.62.86-.63 8.13 12.75-7.06c.55.69.83 1.55.83 2.57-1.44 2.02-5.13 4.59-11.08 7.7v.22c2.75 3.58 5.88 6.57 9.41 8.97v.44c0 1.99-.7 2.99-2.1 2.99l-10.44-8.55c-.42 5.7-.84 8.55-1.25 8.55l-1.05.22c-.7-.23-1.05-.66-1.05-1.28l.82-10.05-.2-2.56c.48 0 .9-3.14 1.25-9.42.57-1.13 1.27-1.7 2.09-1.7zm26.81-.09h.32c1.44.18 2.16.88 2.16 2.1v.42c0 2.11-.72 4.07-2.16 5.88h-.33c-.23-.06-.46-.41-.68-1.05l.84-3.14-.66-.42c-1.53.14-4.34 1.82-8.44 5.03v.21l10.9 2.11c1.11.88 1.66 2.35 1.66 4.41v1.25c0 2.83-1.82 5.27-5.45 7.35-1.43.57-2.81.85-4.14.85h-.35c-3.8 0-6.11-1.68-6.94-5.03v-1.27c0-1.54.38-2.31 1.15-2.31.76 2.67 2.14 4 4.14 4 0 .27.82.41 2.48.41 2.44 0 4.81-1.25 7.11-3.76 0-1.67-3.53-2.72-10.58-3.16-2.54-.71-3.82-1.75-3.82-3.14 0-3.41 3.42-6.83 10.25-10.28l2.49-.42zm32.7 0h2.01c.9.57 1.34 1.2 1.34 1.89-.24 1.68-.99 2.52-2.24 2.52-3.59 0-7.1.35-10.52 1.05l-.44 4.63 1.11.2h.89c2.65 0 5.7-.42 9.17-1.26l.67 1.27c-.34 2.52-1.38 3.78-3.13 3.78-1.08.56-4.14.97-9.17 1.25-.36 6.31-.96 9.46-1.8 9.46l-.89.21h-.22c-.38 0-.6-.28-.67-.84 0-3.43.59-9.72 1.78-18.87l-.66-.64c0-2.11 1.49-3.37 4.47-3.77 2.99-.56 5.74-.84 8.26-.84zm17.02-.05c4.45.62 6.67 3.28 6.67 7.99 0 6.17-2.44 11.27-7.32 15.31-2.01 1.15-3.81 1.72-5.39 1.72-3.87 0-6.36-2.08-7.47-6.25l-.16-1.94v-.65c0-6.73 3.07-11.83 9.22-15.31 1.54-.57 3.02-.86 4.44-.86zm-11.59 16.83c1.6 2.44 3.72 3.66 6.36 3.66 4.24 0 7.2-2.51 8.89-7.54l.31-2.37c0-3.54-1.75-5.62-5.24-6.25h-.49c-2.89 0-5.9 2.88-9.05 8.63-.53 1.73-.8 3.03-.8 3.89zM571.8 181h2.157c3.3 0 4.953 1.15 4.953 3.45v.22c0 4.03-3.45 7.7-10.344 11v.202c3.45 3.166 6.326 5.54 8.628 7.124v.64c0 1.113-.36 1.83-1.077 2.154h-.86l-11.844-8.405-.22 4.31v3.235c-.364.72-.937 1.078-1.72 1.078-.573 0-1.005-.286-1.297-.86v-1.296l1.94-16.83c-.57 0-.86-.43-.86-1.286 0-2.593 2.152-4.104 6.454-4.53l4.092-.22zm-7.53 11.64h.22c7.456-1.92 11.186-4 11.186-6.25v-.22c0-.4-.72-.685-2.158-.86-2.386 0-5.256.503-8.61 1.514l-.64 5.813zm-260.86 30.403h.92c1.158 0 1.85.935 2.08 2.8v.437c0 2.824-1.067 4.69-3.202 5.594l-.376-.437v-.22l.952-3.657-.75-.42c-3.114 0-6.817 2.942-11.11 8.827-1.02 1.78-1.53 3.14-1.53 4.076v.22c0 2.29 1.386 3.438 4.157 3.438h.17c2.67 0 5.62-.71 8.86-2.14h.58c.5.23.75.73.75 1.5v.86c-2.67 2.73-5.8 4.1-9.4 4.1-4.9-.51-7.36-2.95-7.36-7.31v-.43c0-5.57 3.96-11.02 11.86-16.36 1.5-.57 2.64-.86 3.41-.86zm16.656-.045c4.447.614 6.67 3.275 6.67 7.984 0 6.167-2.437 11.27-7.313 15.31-2.01 1.15-3.804 1.72-5.39 1.72-3.862 0-6.35-2.08-7.47-6.25l-.152-1.936v-.656c0-6.73 3.08-11.833 9.22-15.312 1.54-.573 3.02-.86 4.44-.86zm-11.595 16.827c1.61 2.44 3.73 3.658 6.36 3.658 4.24 0 7.21-2.515 8.89-7.546l.32-2.375c0-3.54-1.74-5.624-5.23-6.25h-.48c-2.88 0-5.9 2.876-9.04 8.626-.53 1.73-.79 3.025-.79 3.89zm28.97-16.827h.41c.67.362 1 .93 1 1.7v.44c0 4.624.41 10.04 1.22 16.25h.21c4.46-11.69 7.09-17.53 7.88-17.53h.61c.6 0 1.54 4.06 2.83 12.185 1.21 4.168 1.81 7.657 1.81 10.47-.39 1-1 1.5-1.81 1.5-.54 0-1.28-3.495-2.22-10.484l-1.62-6.83c-1.16 1.85-3.25 6.7-6.27 14.53-.86.89-1.6 1.39-2.21 1.5-1.75 0-2.62-2.35-2.62-7.06l-1-8.97h-.2l-6.06 13.67c-.36 2.28-.7 3.42-1.01 3.42h-.8l-.81-.85v-1.08c0-1.92 1.68-6.05 5.05-12.39 2.4-6.67 3.95-10.09 4.64-10.27l1.02-.22zm22.56-.065h1.47c.49 0 .74.286.74.86-1.14 9.353-1.72 15.843-1.72 19.468v2.38c-.32 1.58-1.13 2.38-2.43 2.38h-.48l-.98-.86c.66-9.81 1.47-17.59 2.45-23.36l.97-.85zm7.1.062c.95 0 2.08 1.78 3.41 5.343 2.57 5.25 5.41 9.74 8.55 13.47 1.05-10.28 1.83-16.34 2.34-18.175l.86-.64h.64c.43 0 .64.285.64.86-1.28 14.685-2.06 22.524-2.34 23.513l-1.28.42c-2.28 0-6.12-4.84-11.53-14.53l-.86-.86-.21.64-.64 9.846v1.28l.22 1.28c-.18 1.71-.75 2.565-1.7 2.565-.87-.31-1.37-.74-1.5-1.28 1.1-15.394 1.88-23.092 2.35-23.092l1.08-.64zm31.42 0h.16c1.39 0 2.32 1.354 2.78 4.062l-.32.422h-.15l-1.31-.43c-3.58.53-7.34 3.02-11.27 7.48-1.09 1.94-1.64 3.29-1.64 4.06v.86c0 2.28 2.35 3.7 7.03 4.26 2.94 0 5.17-1.57 6.69-4.7l-1.95-.85c-.73 0-2.74.85-6.05 2.56-.32-.73-.48-1.44-.48-2.14v-.22c0-2.27 2.18-3.84 6.53-4.7h.33c2.5 0 3.75 1.64 3.75 4.92 0 3.38-2.78 6.38-8.33 8.98l-1.95.42c-3.53 0-5.92-1.5-7.18-4.49l-.32-2.78c0-6.46 3.32-11.95 9.96-16.47 1.68-.86 2.94-1.29 3.77-1.29zm35.71-.016c1.36 0 2.03.56 2.03 1.68v.42c0 1.55-1.21 2.33-3.62 2.33l-4.51.22c-1.35 7.22-2.03 13.42-2.03 18.62-.36 1.12-.74 1.69-1.12 1.69h-.69c-.78 0-1.23-.22-1.35-.64.76-7.99 1.59-14.48 2.49-19.47l-6.78 1.06c-.63 0-1.01-.64-1.12-1.91 0-2.12 1.89-3.18 5.66-3.18 2.26-.56 5.95-.84 11.08-.84zm15.05.01c4.45.61 6.67 3.27 6.67 7.98 0 6.16-2.43 11.27-7.31 15.31-2.01 1.14-3.8 1.72-5.39 1.72-3.86 0-6.35-2.09-7.47-6.25l-.15-1.94v-.66c0-6.73 3.07-11.84 9.22-15.31 1.54-.58 3.02-.86 4.44-.86zm-11.59 16.82c1.61 2.44 3.73 3.66 6.36 3.66 4.24 0 7.2-2.52 8.89-7.55l.31-2.38c0-3.55-1.74-5.63-5.23-6.25h-.48c-2.88 0-5.9 2.87-9.04 8.62-.53 1.73-.79 3.02-.79 3.89zm45.78-16.78h.33c1.44.17 2.16.87 2.16 2.09v.42c0 2.1-.72 4.06-2.16 5.87h-.33c-.23-.07-.45-.41-.67-1.05l.85-3.14-.65-.43c-1.53.13-4.34 1.81-8.43 5.03v.2l10.91 2.11c1.1.87 1.65 2.34 1.65 4.4v1.25c0 2.82-1.82 5.27-5.45 7.34-1.42.56-2.8.84-4.14.84h-.34c-3.79 0-6.1-1.68-6.94-5.03v-1.26c0-1.54.39-2.31 1.16-2.31.76 2.66 2.14 4 4.14 4 0 .27.83.4 2.49.4 2.45 0 4.82-1.25 7.11-3.77 0-1.67-3.53-2.72-10.58-3.16-2.54-.71-3.81-1.76-3.81-3.14 0-3.41 3.42-6.84 10.25-10.28l2.48-.43zm22.27 0c.72.15 1.08.7 1.08 1.64-.23 1.77-.94 2.65-2.14 2.65-7.85 0-11.78 1.09-11.78 3.28l-.22 1.84v1.01c5.13-1.23 8.63-1.85 10.5-1.85h.43c.72.31 1.08.99 1.08 2.04 0 1.5-1 2.25-3 2.25-6.57.85-9.86 1.88-9.86 3.08l-.2 2.04v.81c0 1.23.78 1.91 2.35 2.05 2.46-.27 5.53-.89 9.22-1.85h.64c.58.22.86.7.86 1.44v.61c0 1.67-3.57 2.97-10.72 3.89h-.64c-2.57 0-4-1.64-4.28-4.91 0-2.41.5-6.98 1.5-13.72l-.42-1.23c0-2.77 4.28-4.41 12.85-4.91l2.78-.21zm17.8 0c.72.15 1.08.7 1.08 1.64-.23 1.77-.94 2.65-2.14 2.65-7.85 0-11.78 1.09-11.78 3.28l-.21 1.84v1.01c5.12-1.23 8.62-1.85 10.5-1.85h.42c.72.31 1.08.99 1.08 2.04 0 1.5-1 2.25-3 2.25-6.58.85-9.86 1.88-9.86 3.08l-.21 2.04v.81c0 1.23.78 1.91 2.35 2.05 2.46-.27 5.53-.89 9.22-1.85h.64c.57.22.86.7.86 1.44v.61c0 1.67-3.57 2.97-10.72 3.89h-.64c-2.57 0-4-1.64-4.28-4.91 0-2.41.5-6.98 1.5-13.72l-.42-1.23c0-2.77 4.28-4.41 12.85-4.91l2.78-.21zm19.02-.05c.67.27 1.04.55 1.11.84-1.18 7.43-1.78 12.82-1.78 16.19v2.31c3.98 0 7.24-1.82 9.78-5.47 1-8.83 1.97-13.25 2.9-13.25h.23c.89.09 1.33.31 1.33.64-1.33 8.04-2 14.07-2 18.08v3.36c0 1.1-.45 1.87-1.34 2.31h-.89l-.87-.85v-.43l.22-3.57c-.53 0-3.42 1.33-8.67 3.98l-1.56.42c-1.78-.23-2.67-1-2.67-2.31v-.21c1.09-14.72 2.35-22.08 3.79-22.08h.46zm27.46.04h.33c1.44.18 2.16.87 2.16 2.09v.42c0 2.1-.71 4.06-2.15 5.87H570c-.23-.07-.453-.41-.672-1.05l.844-3.14-.656-.43c-1.532.13-4.344 1.81-8.438 5.03v.2l10.906 2.11c1.105.87 1.657 2.34 1.657 4.4v1.25c0 2.82-1.81 5.27-5.45 7.34-1.43.56-2.81.84-4.14.84h-.34c-3.79 0-6.1-1.68-6.93-5.03v-1.26c0-1.54.39-2.31 1.16-2.31.76 2.66 2.14 4 4.14 4 0 .27.83.4 2.49.4 2.45 0 4.82-1.26 7.11-3.77 0-1.67-3.52-2.72-10.58-3.16-2.54-.7-3.81-1.75-3.81-3.14 0-3.4 3.42-6.83 10.25-10.28l2.49-.42zm15.9-3.97c.63.29.94.64.94 1.04-2.97 9.56-4.45 15.62-4.45 18.17-.84.98-1.55 1.47-2.12 1.47-.94-.34-1.4-.75-1.4-1.25 1.48-12.96 3.44-19.44 5.87-19.44h1.17zm-5.54 23.45c1.48.28 2.22 1.05 2.22 2.31v.2c-.59 1.98-2.01 2.97-4.26 2.97-1.11 0-1.79-.77-2.02-2.32 0-1.78 1.36-2.84 4.06-3.17z" fill="#000"/><use fill="#000" filter="url(#c)" xlink:href="#d"/><use fill="#FFF" xlink:href="#d"/><path d="M94.843 60h.474c2.04.223 3.06 1.137 3.06 2.742v.545c0 2.742-1.02 5.297-3.06 7.664h-.474c-.317-.08-.627-.53-.932-1.37l1.18-4.09-.95-.56c-2.16.18-6.17 2.37-12.02 6.58v.28l15.56 2.75c1.57 1.14 2.36 3.06 2.36 5.75v1.64c0 3.68-2.59 6.88-7.77 9.6-2.04.73-4 1.09-5.89 1.09h-.48c-5.41 0-8.71-2.19-9.89-6.57V84.4c0-2.013.55-3.02 1.65-3.02 1.08 3.47 3.05 5.203 5.89 5.203 0 .365 1.18.546 3.54.546 3.49 0 6.87-1.64 10.13-4.92 0-2.17-5.03-3.54-15.08-4.12-3.61-.93-5.42-2.29-5.42-4.1 0-4.46 4.87-8.93 14.61-13.43l3.53-.55zm22.535 4.447c5.004.692 7.506 3.686 7.506 8.983 0 6.937-2.742 12.68-8.227 17.226-2.262 1.29-4.283 1.934-6.064 1.934-4.348 0-7.15-2.344-8.403-7.03l-.175-2.18v-.74c0-7.57 3.457-13.312 10.37-17.226 1.735-.644 3.4-.967 4.993-.967zM104.335 83.38c1.805 2.74 4.19 4.112 7.154 4.112 4.77 0 8.1-2.83 10-8.49l.35-2.672c0-3.984-1.97-6.328-5.89-7.03h-.55c-3.25 0-6.64 3.233-10.18 9.702-.6 1.945-.9 3.404-.9 4.377zm56.127-18.95c1.523 0 2.285.632 2.285 1.898v.475c0 1.746-1.36 2.62-4.078 2.62l-5.08.245c-1.53 8.12-2.29 15.105-2.29 20.953-.41 1.27-.83 1.9-1.27 1.9h-.78c-.88 0-1.39-.24-1.53-.72.85-8.99 1.78-16.29 2.79-21.9l-7.63 1.2c-.72 0-1.14-.71-1.27-2.14 0-2.38 2.12-3.57 6.36-3.57 2.54-.63 6.7-.95 12.46-.95zm20.338.017c.832.223 1.248.79 1.248 1.705v.23c-1.172 17.308-2.004 25.962-2.496 25.962l-.264.246h-.738c-.867 0-1.453-.404-1.758-1.213.328-2.31.492-5.543.492-9.703h-.246L166.526 84.1l-.738.966v4.606c0 1.37-.504 2.344-1.512 2.918h-.492c-.937 0-1.523-.404-1.758-1.213 1.16-17.473 2.83-26.21 5.01-26.21h.492l.756.985c-1.172 5.8-1.758 10.084-1.758 12.85 7.676-1.008 11.514-2.22 11.514-3.64l1.002-10.194 1.758-.72zm21.62.053c.81.176 1.214.79 1.214 1.846-.258 1.992-1.06 2.988-2.408 2.988-8.836 0-13.254 1.23-13.254 3.69l-.246 2.076v1.142c5.765-1.383 9.703-2.074 11.812-2.074h.475c.808.352 1.213 1.12 1.213 2.303 0 1.69-1.125 2.54-3.375 2.54-7.39.96-11.09 2.12-11.09 3.47l-.23 2.31v.92c0 1.38.88 2.15 2.64 2.3 2.77-.3 6.23-.99 10.37-2.07h.72c.65.25.97.79.97 1.62v.69c0 1.89-4.02 3.35-12.06 4.38h-.72c-2.89 0-4.5-1.84-4.81-5.52 0-2.7.57-7.85 1.69-15.43l-.47-1.39c0-3.11 4.82-4.95 14.45-5.52l3.13-.23zm35.017-4.5h.474c2.04.223 3.06 1.137 3.06 2.742v.545c0 2.742-1.02 5.297-3.06 7.664h-.47c-.31-.08-.62-.53-.93-1.37l1.18-4.09-.95-.56c-2.17.18-6.17 2.37-12.02 6.58v.28l15.56 2.75c1.57 1.14 2.36 3.06 2.36 5.75v1.64c0 3.68-2.59 6.88-7.77 9.6-2.04.73-4 1.09-5.89 1.09h-.47c-5.41 0-8.71-2.19-9.89-6.57V84.4c0-2.013.55-3.02 1.65-3.02 1.08 3.47 3.04 5.203 5.89 5.203 0 .365 1.18.546 3.53.546 3.49 0 6.87-1.64 10.13-4.92 0-2.17-5.02-3.54-15.08-4.12-3.61-.93-5.41-2.29-5.41-4.1 0-4.46 4.87-8.93 14.61-13.43l3.54-.55zm25.945 4.447c.832.223 1.248.79 1.248 1.705v.23c-1.172 17.308-2.004 25.962-2.496 25.962l-.264.246h-.738c-.867 0-1.453-.404-1.758-1.213.328-2.31.492-5.543.492-9.703h-.246L249.108 84.1l-.738.966v4.606c0 1.37-.504 2.344-1.512 2.918h-.492c-.937 0-1.523-.404-1.758-1.213 1.16-17.473 2.83-26.21 5.01-26.21h.492l.756.985c-1.172 5.8-1.758 10.084-1.758 12.85 7.676-1.008 11.514-2.22 11.514-3.64l1.002-10.194 1.758-.72zm21.62.053c.81.176 1.214.79 1.214 1.846-.258 1.992-1.06 2.988-2.408 2.988-8.836 0-13.254 1.23-13.254 3.69l-.246 2.076v1.142c5.765-1.383 9.703-2.074 11.812-2.074h.475c.808.352 1.213 1.12 1.213 2.303 0 1.69-1.125 2.54-3.375 2.54-7.395.96-11.092 2.12-11.092 3.47l-.22 2.31v.92c0 1.38.88 2.15 2.64 2.3 2.77-.3 6.23-.99 10.37-2.07h.72c.65.25.97.79.97 1.62v.69c0 1.89-4.02 3.35-12.06 4.38h-.72c-2.89 0-4.5-1.84-4.81-5.52 0-2.7.56-7.85 1.69-15.43l-.47-1.39c0-3.11 4.82-4.95 14.45-5.52l3.13-.23zm14.274-.053c4.653 0 6.98 1.365 6.98 4.096 0 5.402-5.1 10.29-15.294 14.66-.75 0-1.125.48-1.125 1.442-.106 5.296-.633 7.945-1.582 7.945h-1.125c-.305-.07-.604-.47-.897-1.195l2.022-19.723h-.23c-.596 0-.895-.727-.895-2.18 0-2.355 1.353-3.715 4.06-4.078l8.086-.967zm-9 13.957c5.145-1.347 9.047-3.59 11.707-6.732l.44-1.46v-.474l-1.125-.246h-1.125c-5.988.328-8.983.89-8.983 1.688l-.914 7.224zm34.752-13.957c.832.223 1.248.79 1.248 1.705v.23c-1.172 17.308-2.004 25.962-2.496 25.962l-.263.246h-.74c-.866 0-1.452-.404-1.756-1.213.33-2.31.5-5.543.5-9.703h-.24L310.76 84.1l-.738.966v4.606c0 1.37-.504 2.344-1.512 2.918h-.492c-.938 0-1.524-.404-1.758-1.213 1.16-17.473 2.83-26.21 5.01-26.21h.492l.754.985c-1.172 5.8-1.758 10.084-1.758 12.85 7.676-1.008 11.514-2.22 11.514-3.64l1-10.194 1.754-.72zm21.62.053c.81.176 1.214.79 1.214 1.846-.258 1.992-1.06 2.988-2.408 2.988-8.836 0-13.254 1.23-13.254 3.69l-.246 2.076v1.142c5.766-1.383 9.703-2.074 11.813-2.074h.474c.81.352 1.22 1.12 1.22 2.303 0 1.69-1.12 2.54-3.37 2.54-7.39.96-11.09 2.12-11.09 3.47l-.22 2.31v.92c0 1.38.88 2.15 2.64 2.3 2.77-.3 6.23-.99 10.37-2.07h.72c.65.25.97.79.97 1.62v.69c0 1.89-4.02 3.35-12.06 4.38h-.72c-2.89 0-4.5-1.84-4.81-5.52 0-2.7.57-7.85 1.69-15.43l-.47-1.39c0-3.11 4.82-4.95 14.45-5.52l3.13-.23zm14.31-.053h2.426c3.715 0 5.572 1.295 5.572 3.885v.246c0 4.535-3.88 8.66-11.637 12.375v.23c3.87 3.56 7.11 6.233 9.7 8.014v.72c0 1.255-.41 2.063-1.21 2.427h-.97l-13.33-9.457-.25 4.85v3.64c-.41.81-1.06 1.213-1.94 1.213-.65 0-1.13-.322-1.46-.967v-1.46l2.18-18.93c-.65 0-.97-.48-.97-1.442 0-2.91 2.42-4.61 7.26-5.09l4.6-.24zm-8.473 13.096h.246c8.4-2.156 12.59-4.5 12.59-7.03v-.247c0-.446-.81-.768-2.42-.967-2.68 0-5.91.56-9.68 1.7l-.72 6.54zm25.84-13.096h1.072c5.098 0 8.22 2.022 9.37 6.065l.21 1.933c0 8.05-5.964 14.684-17.894 19.9l-1.055.245h-.228c-.317 0-.598-.57-.844-1.705l2.127-20.865c-.855 0-1.283-.24-1.283-.72v-.493c0-2.578 1.137-3.868 3.41-3.868l5.115-.5zm-4.254 5.098c-1.27 8.297-1.91 13.875-1.91 16.734v1.21c8.94-4.47 13.41-8.67 13.41-12.62v-.23c0-2.28-.64-3.41-1.91-3.41-1.58-1.13-4.13-1.69-7.66-1.69h-1.91zm29.8-5.045h.37c1.62.2 2.43.984 2.43 2.355v.475c0 2.367-.8 4.57-2.42 6.61h-.37c-.25-.07-.51-.463-.75-1.178l.95-3.533-.74-.48c-1.72.15-4.88 2.04-9.49 5.66v.23l12.27 2.37c1.24.98 1.86 2.63 1.86 4.95v1.4c0 3.17-2.04 5.93-6.13 8.26-1.6.63-3.16.95-4.66.95h-.38c-4.26 0-6.87-1.89-7.8-5.66V85.5c0-1.735.43-2.602 1.3-2.602.86 3 2.41 4.5 4.66 4.5 0 .307.93.46 2.79.46 2.76 0 5.42-1.41 8-4.237 0-1.87-3.96-3.06-11.9-3.55-2.86-.79-4.29-1.97-4.29-3.53 0-3.83 3.85-7.69 11.53-11.56l2.8-.47zm22.98 0c.79 0 1.18 2.72 1.18 8.156l1.58 10.336h.39c0-.597 1.58-3.803 4.73-9.615.49-3.832 1.41-5.748 2.76-5.748h.39c.8 0 1.46 2.95 1.97 8.87.88 4.04 1.54 6.44 1.97 7.2.42-2.04 2.53-8.05 6.31-18.02.55-.64 1.08-.95 1.58-.95.7 0 1.16.31 1.37.95 0 .82-1.97 6.18-5.9 16.08-.65 2.34-1.25 5.55-1.77 9.61-.42.79-.95 1.19-1.58 1.19-1.19 0-2.11-2.72-2.74-8.16-1.29-5.31-2.08-8.19-2.37-8.65l-3.93 7.68c-.65 1.5-1.25 4.06-1.77 7.68-.35.59-.87.99-1.56 1.2-1.1 0-2.02-4.16-2.76-12.48-1.05-5.88-1.58-10.61-1.58-14.17 0-.48.59-.88 1.78-1.19zm43.02 0c.81.176 1.22.79 1.22 1.846-.26 1.992-1.06 2.988-2.41 2.988-8.83 0-13.25 1.23-13.25 3.69l-.24 2.076v1.142c5.77-1.383 9.7-2.074 11.81-2.074h.48c.81.352 1.21 1.12 1.21 2.303 0 1.69-1.12 2.54-3.37 2.54-7.39.96-11.09 2.12-11.09 3.47l-.23 2.31v.92c0 1.38.88 2.15 2.64 2.3 2.77-.3 6.23-.99 10.38-2.07h.72c.65.25.97.79.97 1.62v.69c0 1.89-4.02 3.35-12.06 4.38h-.72c-2.9 0-4.5-1.84-4.82-5.52 0-2.7.56-7.85 1.69-15.43l-.48-1.39c0-3.11 4.82-4.95 14.45-5.52l3.13-.23zm5.08-.053c1.07 0 2.35 2.004 3.84 6.012 2.88 5.9 6.09 10.95 9.62 15.15 1.19-11.57 2.06-18.38 2.64-20.45l.97-.72h.72c.49 0 .73.32.73.96-1.44 16.52-2.32 25.34-2.64 26.45l-1.44.47c-2.57 0-6.89-5.45-12.97-16.35l-.97-.97-.25.72-.72 11.07v1.44l.25 1.44c-.21 1.92-.85 2.88-1.91 2.88-.98-.35-1.54-.83-1.68-1.44 1.23-17.32 2.11-25.98 2.64-25.98l1.21-.72zm39.43-.017c1.53 0 2.29.632 2.29 1.898v.475c0 1.746-1.36 2.62-4.08 2.62l-5.08.245c-1.52 8.12-2.28 15.105-2.28 20.953-.41 1.27-.83 1.9-1.26 1.9h-.77c-.88 0-1.39-.24-1.53-.72.86-8.99 1.79-16.29 2.8-21.9l-7.62 1.2c-.72 0-1.14-.71-1.27-2.14 0-2.38 2.12-3.57 6.37-3.57 2.54-.63 6.7-.95 12.46-.95zm27.36.07h.84c1.16 0 2.63 5.36 4.42 16.084 1.41 5.063 2.11 8.502 2.11 10.318-.29.96-.85 1.442-1.68 1.442-1.08 0-1.85-2.56-2.32-7.682l-.21-.228h-.21c-1.83.023-5.68 1.142-11.57 3.357-.56 3.2-1.48 4.8-2.74 4.8-.84-.32-1.26-.96-1.26-1.91 0-1.85 3.86-10.33 11.59-25.45l1.06-.72zm-.42 6.715c-1.69 3.047-3.23 6.252-4.64 9.615h1.48c1.43 0 3.26-.322 5.49-.967l-1.9-8.648h-.42zm13.45-6.768c1.07 0 2.35 2.004 3.83 6.012 2.89 5.9 6.09 10.95 9.62 15.15 1.19-11.57 2.07-18.38 2.64-20.45l.97-.72h.72c.48 0 .72.32.72.96-1.44 16.52-2.32 25.34-2.63 26.45l-1.44.47c-2.56 0-6.89-5.45-12.97-16.35l-.96-.97-.25.72-.72 11.07v1.44l.25 1.44c-.21 1.92-.85 2.88-1.92 2.88-.98-.35-1.55-.83-1.69-1.44 1.23-17.32 2.11-25.98 2.64-25.98l1.22-.72zm29.29 0h1.08c5.1 0 8.22 2.022 9.37 6.065l.21 1.933c0 8.05-5.96 14.684-17.89 19.9l-1.05.245h-.23c-.31 0-.59-.57-.84-1.705l2.12-20.865c-.86 0-1.28-.24-1.28-.72v-.493c0-2.578 1.14-3.868 3.41-3.868l5.12-.5zm-4.25 5.098c-1.27 8.297-1.91 13.875-1.91 16.734v1.21c8.94-4.47 13.41-8.67 13.41-12.62v-.23c0-2.28-.64-3.41-1.91-3.41-1.58-1.13-4.13-1.69-7.66-1.69h-1.92zm45.44-5.045h2.27c1.01.633 1.51 1.342 1.51 2.127-.27 1.887-1.11 2.83-2.51 2.83-4.04 0-7.98.393-11.83 1.178l-.49 5.203 1.25.228h1c2.98 0 6.42-.474 10.32-1.423l.76 1.423c-.38 2.836-1.55 4.254-3.52 4.254-1.22.62-4.66 1.09-10.32 1.407-.4 7.09-1.07 10.634-2.02 10.634l-1 .23h-.25c-.42 0-.68-.31-.76-.95 0-3.85.67-10.93 2.01-21.23l-.74-.72c0-2.38 1.68-3.79 5.03-4.23 3.37-.63 6.47-.95 9.3-.95zm19.15-.053c5 .692 7.51 3.686 7.51 8.983 0 6.937-2.74 12.68-8.22 17.226-2.26 1.29-4.28 1.934-6.06 1.934-4.34 0-7.15-2.344-8.4-7.03l-.18-2.18v-.74c0-7.57 3.46-13.312 10.37-17.226 1.74-.644 3.4-.967 5-.967zM631.31 83.38c1.804 2.74 4.19 4.112 7.154 4.112 4.77 0 8.103-2.83 10.002-8.49l.35-2.672c0-3.984-1.96-6.328-5.887-7.03h-.55c-3.25 0-6.64 3.233-10.18 9.702-.6 1.945-.9 3.404-.9 4.377zm26.894-18.933c.75.305 1.166.62 1.248.95-1.336 8.355-2.004 14.425-2.004 18.21v2.602c4.477 0 8.145-2.06 11.004-6.16 1.125-9.94 2.21-14.91 3.252-14.91h.264c.996.1 1.494.34 1.494.72-1.5 9.04-2.25 15.82-2.25 20.34v3.77c0 1.24-.504 2.11-1.512 2.6h-1.002l-.984-.95v-.48l.246-4.01c-.598 0-3.85 1.49-9.756 4.48l-1.758.47c-2.004-.26-3.006-1.13-3.006-2.6v-.23c1.22-16.56 2.637-24.84 4.254-24.84h.51zm19.846 0c1.066 0 2.344 2.004 3.832 6.012 2.883 5.9 6.088 10.95 9.615 15.15 1.184-11.57 2.063-18.38 2.637-20.45l.967-.72h.72c.49 0 .73.32.73.96-1.44 16.52-2.32 25.34-2.63 26.45l-1.44.47c-2.57 0-6.89-5.45-12.97-16.35l-.96-.97-.25.72-.72 11.07v1.44l.25 1.44c-.21 1.92-.85 2.88-1.92 2.88-.98-.35-1.54-.83-1.68-1.44 1.23-17.32 2.11-25.98 2.64-25.98l1.21-.72zm29.285 0h1.072c5.098 0 8.22 2.022 9.37 6.065l.21 1.933c0 8.05-5.964 14.684-17.894 19.9l-1.055.245h-.228c-.317 0-.598-.57-.844-1.705l2.127-20.865c-.856 0-1.283-.24-1.283-.72v-.493c0-2.578 1.136-3.868 3.41-3.868l5.115-.5zm-4.254 5.098c-1.27 8.297-1.91 13.875-1.91 16.734v1.21c8.94-4.47 13.41-8.67 13.41-12.62v-.23c0-2.28-.64-3.41-1.91-3.41-1.58-1.13-4.13-1.69-7.66-1.69h-1.91zm42.32-9.475h.53c.87.48 1.3 1.22 1.3 2.215v.563c0 6.01.52 13.054 1.55 21.13h.27c5.72-15.2 9.09-22.8 10.11-22.8h.77c.77 0 1.97 5.285 3.63 15.855 1.56 5.414 2.34 9.95 2.34 13.606-.5 1.3-1.28 1.95-2.33 1.95-.69 0-1.64-4.54-2.84-13.63l-2.07-8.9c-1.49 2.42-4.16 8.72-8.03 18.89-1.11 1.14-2.06 1.8-2.85 1.95-2.25 0-3.37-3.06-3.37-9.18l-1.29-11.67h-.26l-7.77 17.79c-.47 2.96-.9 4.44-1.3 4.44h-1.04l-1.03-1.11V89.8c0-2.495 2.16-7.87 6.49-16.12 3.07-8.66 5.05-13.105 5.95-13.34l1.28-.28zm33.45 4.43h.85c1.16 0 2.63 5.36 4.41 16.084 1.41 5.063 2.11 8.502 2.11 10.318-.29.96-.85 1.442-1.68 1.442-1.07 0-1.85-2.56-2.32-7.682l-.21-.228h-.21c-1.83.023-5.68 1.142-11.56 3.357-.56 3.2-1.47 4.8-2.74 4.8-.84-.32-1.26-.96-1.26-1.91 0-1.85 3.86-10.33 11.59-25.45l1.06-.72zm-.42 6.715c-1.69 3.047-3.23 6.252-4.64 9.615h1.48c1.43 0 3.26-.322 5.49-.967l-1.89-8.648h-.42zm22.68-6.768h2.43c3.72 0 5.58 1.295 5.58 3.885v.246c0 4.535-3.88 8.66-11.63 12.375v.23c3.88 3.56 7.12 6.233 9.71 8.014v.72c0 1.255-.4 2.063-1.21 2.427H805l-13.325-9.457-.246 4.85v3.64c-.41.81-1.06 1.213-1.93 1.213-.65 0-1.13-.322-1.46-.967v-1.46l2.18-18.93c-.65 0-.97-.48-.97-1.442 0-2.91 2.42-4.61 7.26-5.09l4.6-.24zm-8.47 13.096h.25c8.39-2.156 12.59-4.5 12.59-7.03v-.247c0-.446-.81-.768-2.43-.967-2.68 0-5.91.56-9.68 1.7l-.72 6.54zm18.6-13.043l5.38 8.156 2.36 1.934c2.98-5.297 5.05-8.502 6.22-9.615h1.08l.86.966c-.12.86-3.48 6.86-10.09 18-1.67 3.13-2.89 5.93-3.66 8.41l-.64.25c-1.01-.47-1.51-1.19-1.51-2.16.06-1.25 1.77-5.17 5.15-11.76-4.86-5.23-7.3-9.47-7.3-12.73.91-.96 1.62-1.44 2.15-1.44zm22.41 21.06c.75.22 1.3.626 1.64 1.21v.476c0 2.79-2.09 6.246-6.27 10.37l-1.09.247h-.28c-.98 0-1.71-.404-2.18-1.213v-.246c3.28-3.633 4.93-6.843 4.93-9.633 1.01-.8 2.1-1.21 3.27-1.21zM863.47 60l9.598.563L878.27 60l.544.844v1.125c0 3-1.73 4.5-5.2 4.5h-.28c-.43 16.28-1.89 24.43-4.38 24.43-1.27 1.12-3.01 1.69-5.22 1.69h-1.91c-6.21-.95-9.31-4.04-9.31-9.27.55-3.14 1.37-5.21 2.46-6.19h.28c.28 0 .74 2.06 1.37 6.18 1.255 2.42 3.265 3.64 6.03 3.64 4.02 0 6.03-1.69 6.03-5.05l1.37-15.74h-3.02c-4.02 0-6.03-.47-6.03-1.41v-.56c.55-2.82 1.375-4.22 2.48-4.22zm30.797 4.447c5.005.692 7.507 3.686 7.507 8.983 0 6.937-2.75 12.68-8.23 17.226-2.26 1.29-4.29 1.934-6.07 1.934-4.35 0-7.15-2.344-8.41-7.03l-.174-2.18v-.74c0-7.57 3.456-13.312 10.37-17.226 1.734-.644 3.4-.967 4.99-.967zM881.22 83.38c1.804 2.74 4.19 4.112 7.154 4.112 4.77 0 8.104-2.83 10.002-8.49l.352-2.672c0-3.984-1.963-6.328-5.89-7.03h-.544c-3.246 0-6.64 3.233-10.178 9.702-.597 1.945-.896 3.404-.896 4.377zm36.56-18.88h.37c1.617.2 2.425.984 2.425 2.355v.475c0 2.367-.808 4.57-2.426 6.61h-.37c-.26-.07-.51-.463-.76-1.178l.95-3.533-.74-.48c-1.72.15-4.89 2.04-9.49 5.66v.23l12.27 2.37c1.24.98 1.86 2.63 1.86 4.95v1.4c0 3.17-2.05 5.93-6.14 8.26-1.61.63-3.16.95-4.66.95h-.39c-4.27 0-6.87-1.89-7.81-5.66V85.5c0-1.735.43-2.602 1.3-2.602.85 3 2.41 4.5 4.66 4.5 0 .307.93.46 2.79.46 2.75 0 5.42-1.41 7.99-4.237 0-1.87-3.97-3.06-11.9-3.55-2.86-.79-4.29-1.97-4.29-3.53 0-3.83 3.84-7.69 11.53-11.56l2.79-.47zm25.05 0c.808.176 1.212.79 1.212 1.846-.258 1.992-1.06 2.988-2.408 2.988-8.836 0-13.254 1.23-13.254 3.69l-.246 2.076v1.142c5.765-1.383 9.703-2.074 11.812-2.074h.475c.81.352 1.22 1.12 1.22 2.303 0 1.69-1.12 2.54-3.37 2.54-7.39.96-11.09 2.12-11.09 3.47l-.23 2.31v.92c0 1.38.88 2.15 2.64 2.3 2.77-.3 6.22-.99 10.37-2.07h.72c.65.25.97.79.97 1.62v.69c0 1.89-4.02 3.35-12.06 4.38h-.72c-2.89 0-4.5-1.84-4.81-5.52 0-2.7.57-7.85 1.69-15.43l-.47-1.39c0-3.11 4.82-4.95 14.45-5.52l3.13-.23zm14.273-.053c4.652 0 6.978 1.365 6.978 4.096 0 5.402-5.09 10.29-15.29 14.66-.75 0-1.12.48-1.12 1.442-.1 5.296-.63 7.945-1.58 7.945h-1.12c-.3-.07-.6-.47-.89-1.195l2.02-19.723h-.22c-.6 0-.89-.727-.89-2.18 0-2.355 1.35-3.715 4.06-4.078l8.09-.967zm-9 13.957c5.144-1.347 9.046-3.59 11.707-6.732l.44-1.46v-.474l-1.126-.246H958c-5.99.328-8.983.89-8.983 1.688l-.914 7.224zm34.75-13.957c.834.223 1.25.79 1.25 1.705v.23c-1.172 17.308-2.004 25.962-2.497 25.962l-.263.246h-.74c-.866 0-1.452-.404-1.756-1.213.328-2.31.492-5.543.492-9.703h-.25L968.58 84.1l-.737.966v4.606c0 1.37-.504 2.344-1.512 2.918h-.49c-.94 0-1.52-.404-1.76-1.213 1.16-17.473 2.83-26.21 5.01-26.21h.5l.76.985c-1.17 5.8-1.76 10.084-1.76 12.85 7.68-1.008 11.52-2.22 11.52-3.64l1-10.194 1.76-.72zm28.62.053h.842c1.16 0 2.63 5.36 4.413 16.084 1.406 5.063 2.11 8.502 2.11 10.318-.294.96-.857 1.442-1.69 1.442-1.077 0-1.85-2.56-2.32-7.682l-.21-.228h-.21c-1.83.023-5.684 1.142-11.567 3.357-.56 3.2-1.47 4.8-2.74 4.8-.84-.32-1.26-.96-1.26-1.91 0-1.85 3.86-10.33 11.59-25.45l1.06-.72zm-.423 6.715c-1.688 3.047-3.235 6.252-4.64 9.615h1.476c1.43 0 3.258-.322 5.484-.967l-1.898-8.648h-.422zm13.447-6.768c1.066 0 2.344 2.004 3.832 6.012 2.88 5.9 6.08 10.95 9.61 15.15 1.18-11.57 2.06-18.38 2.63-20.45l.96-.72h.72c.48 0 .72.32.72.96-1.44 16.52-2.32 25.34-2.64 26.45l-1.45.47c-2.57 0-6.89-5.45-12.97-16.35l-.97-.97-.25.72-.72 11.07v1.44l.24 1.44c-.21 1.92-.85 2.88-1.92 2.88-.99-.35-1.55-.83-1.69-1.44 1.23-17.32 2.11-25.98 2.63-25.98l1.21-.72zm29.285 0h1.072c5.098 0 8.22 2.022 9.37 6.065l.21 1.933c0 8.05-5.964 14.684-17.894 19.9l-1.055.245h-.228c-.317 0-.598-.57-.844-1.705l2.127-20.865c-.855 0-1.283-.24-1.283-.72v-.493c0-2.578 1.137-3.868 3.41-3.868l5.115-.5zm-4.254 5.098c-1.277 8.297-1.916 13.875-1.916 16.734v1.21c8.942-4.47 13.412-8.67 13.412-12.62v-.23c0-2.28-.638-3.41-1.916-3.41-1.582-1.13-4.136-1.69-7.664-1.69h-1.916zM1090.345 60l9.597.563 5.204-.563.544.844v1.125c0 3-1.734 4.5-5.203 4.5h-.28c-.435 16.28-1.894 24.43-4.378 24.43-1.28 1.12-3.02 1.69-5.23 1.69h-1.92c-6.21-.95-9.32-4.04-9.32-9.27.55-3.14 1.37-5.21 2.46-6.19h.28c.28 0 .73 2.06 1.37 6.18 1.25 2.42 3.26 3.64 6.03 3.64 4.02 0 6.03-1.69 6.03-5.05l1.37-15.74h-3.03c-4.02 0-6.03-.47-6.03-1.41v-.56c.55-2.82 1.38-4.22 2.48-4.22zm34.224 4.5c.8.176 1.21.79 1.21 1.846-.26 1.992-1.06 2.988-2.41 2.988-8.84 0-13.26 1.23-13.26 3.69l-.25 2.076v1.142c5.76-1.383 9.7-2.074 11.81-2.074h.47c.81.352 1.21 1.12 1.21 2.303 0 1.69-1.13 2.54-3.38 2.54-7.4.96-11.1 2.12-11.1 3.47l-.23 2.31v.92c0 1.38.88 2.15 2.63 2.3 2.76-.3 6.22-.99 10.37-2.07h.72c.65.25.97.79.97 1.62v.69c0 1.89-4.02 3.35-12.06 4.38h-.72c-2.9 0-4.5-1.84-4.82-5.52 0-2.7.56-7.85 1.69-15.43l-.48-1.39c0-3.11 4.81-4.95 14.45-5.52l3.13-.23zm16.11 0h.37c1.61.2 2.42.984 2.42 2.355v.475c0 2.367-.81 4.57-2.43 6.61h-.37c-.26-.07-.51-.463-.76-1.178l.95-3.533-.74-.48c-1.72.15-4.89 2.04-9.49 5.66v.23l12.27 2.37c1.24.98 1.86 2.63 1.86 4.95v1.4c0 3.17-2.05 5.93-6.14 8.26-1.61.63-3.16.95-4.66.95h-.39c-4.27 0-6.87-1.89-7.8-5.66V85.5c0-1.735.43-2.602 1.3-2.602.85 3 2.41 4.5 4.66 4.5 0 .307.93.46 2.79.46 2.75 0 5.42-1.41 8-4.237 0-1.87-3.97-3.06-11.9-3.55-2.86-.79-4.29-1.97-4.29-3.53 0-3.83 3.84-7.69 11.53-11.56l2.79-.47zm11.48-.053c.75.305 1.16.62 1.24.95-1.34 8.355-2.01 14.425-2.01 18.21v2.602c4.47 0 8.14-2.06 11-6.16 1.12-9.94 2.21-14.91 3.25-14.91h.26c1 .1 1.49.34 1.49.72-1.5 9.04-2.25 15.82-2.25 20.34v3.77c0 1.24-.51 2.11-1.51 2.6h-1l-.99-.95v-.48l.24-4.01c-.6 0-3.85 1.49-9.76 4.48l-1.76.47c-2.01-.26-3.01-1.13-3.01-2.6v-.23c1.22-16.56 2.63-24.84 4.25-24.84h.51zm30.88.053h.37c1.61.2 2.42.984 2.42 2.355v.475c0 2.367-.81 4.57-2.43 6.61h-.37c-.26-.07-.51-.463-.76-1.178l.95-3.533-.74-.48c-1.72.15-4.89 2.04-9.49 5.66v.23l12.27 2.37c1.24.98 1.86 2.63 1.86 4.95v1.4c0 3.17-2.05 5.93-6.14 8.26-1.61.63-3.16.95-4.66.95h-.39c-4.27 0-6.87-1.89-7.8-5.66V85.5c0-1.735.43-2.602 1.3-2.602.85 3 2.41 4.5 4.66 4.5 0 .307.93.46 2.79.46 2.75 0 5.42-1.41 7.99-4.237 0-1.87-3.97-3.06-11.9-3.55-2.86-.79-4.29-1.97-4.29-3.53 0-3.83 3.84-7.69 11.53-11.56l2.79-.47zm17.89-4.465c.7.328 1.05.72 1.05 1.178-3.34 10.758-5.01 17.572-5.01 20.443-.95 1.102-1.75 1.653-2.39 1.653-1.06-.38-1.58-.85-1.58-1.41 1.66-14.58 3.86-21.87 6.6-21.87h1.31zm-6.24 26.385c1.66.316 2.49 1.184 2.49 2.6v.23c-.67 2.227-2.27 3.34-4.8 3.34-1.25 0-2.01-.867-2.27-2.602 0-2.004 1.52-3.193 4.57-3.568z" fill="#000"/></g></svg>