<svg width="1540" height="820" viewBox="0 0 1540 820" xmlns="http://www.w3.org/2000/svg" xmlns:xlink="http://www.w3.org/1999/xlink"><title>story35</title><defs><path id="b" d="M518 40h970v120H518z"/><filter x="-50%" y="-50%" width="200%" height="200%" filterUnits="objectBoundingBox" id="a"><feOffset dx="6" dy="6" in="SourceAlpha" result="shadowOffsetOuter1"/><feColorMatrix values="0 0 0 0 0 0 0 0 0 0 0 0 0 0 0 0 0 0 1 0" in="shadowOffsetOuter1"/></filter></defs><g fill="none" fill-rule="evenodd"><path fill="#FC0" d="M.108 3.214h1543.75v817.18H.108z"/><path d="M.11.214v668.65c177.777-38.848 447.908-63.683 750.486-63.683 327.915 0 617.803 29.12 793.237 73.7V.22H.11z" fill="navy"/><path stroke="#000" stroke-width="5.596" fill="#FC0" d="M586.927 721.05l-521.473 5.244L360.42 375.032z"/><path stroke="#000" stroke-width="5.448" fill="#FC0" d="M745.936 721.754L303.1 726.206l257.273-276.463z"/><path d="M750.606 581.596c-302.578 0-572.71 31.907-750.487 81.818L.11 814.797h1543.73V676.272c-175.433-57.264-465.32-94.676-793.236-94.676z" fill="#FC0"/><path fill="#FFE680" d="M382.067 133.063l-11.358-10.835-13.37 8.237 6.79-14.15-11.97-10.164 15.56 2.09 5.97-14.51 2.82 15.44 15.65 1.19-13.82 7.46M1456 536.39l-15.566-1.81-5.697 14.6-3.093-15.364-15.644-.907 13.654-7.69-3.97-15.16 11.53 10.61 13.19-8.47-6.527 14.24 12.123 9.93M96.823 416.57L86.388 428.6l2.28-15.763L74 406.63l15.696-2.704 1.37-15.867 7.42 14.09 15.514-3.6-11.11 11.41 8.22 13.64M1458.705 93.4l-7.184-14.162L1436 82.59l11.25-11.207-7.983-13.726 14.136 7.234 10.585-11.83-2.512 15.68 14.528 6.41-15.69 2.46-1.604 15.8m-876-.65l-15.567-1.8-5.7 14.6-3.093-15.36-15.64-.91 13.66-7.69-3.97-15.15 11.54 10.61 13.19-8.46-6.53 14.25 12.13 9.93m47.16 314.63l-11.36-10.83-13.362 8.24 6.795-14.15L600 380.49l15.558 2.09 5.97-14.52 2.82 15.442L640 384.69l-13.815 7.454M1318 346.382l-15.566-1.805-5.697 14.598-3.093-15.362-15.644-.907 13.654-7.69-3.97-15.157 11.53 10.61 13.19-8.47-6.527 14.24 12.123 9.93M1035.11 168.6l-14.287-7.04-10.435 12.033 2.28-15.762-14.668-6.2 15.696-2.7 1.37-15.86 7.42 14.09 15.514-3.6-11.11 11.41 8.22 13.64M903.705 467.4l-7.184-14.162L881 456.59l11.25-11.207-7.983-13.726 14.136 7.234 10.585-11.83-2.512 15.68 14.528 6.41-15.69 2.46-1.604 15.8"/><path fill="#FC0" d="M143.74 176.807L74 149.303l69.74-27.505 27.504-69.74 27.504 69.74 69.74 27.505-69.74 27.504-27.504 118.454"/><use fill="#000" filter="url(#a)" xlink:href="#b"/><use fill="#FFF" xlink:href="#b"/><path d="M587.773 60h.475c2.04.223 3.06 1.137 3.06 2.742v.545c0 2.742-1.02 5.297-3.06 7.664h-.475c-.316-.08-.627-.53-.93-1.37l1.177-4.09-.95-.56c-2.168.18-6.175 2.37-12.023 6.58v.28l15.557 2.75c1.57 1.14 2.355 3.06 2.355 5.75v1.64c0 3.68-2.59 6.88-7.77 9.6-2.04.73-4.01 1.09-5.89 1.09h-.48c-5.42 0-8.72-2.19-9.9-6.57V84.4c0-2.013.55-3.02 1.65-3.02 1.08 3.47 3.04 5.203 5.89 5.203 0 .365 1.17.546 3.53.546 3.49 0 6.86-1.64 10.12-4.92 0-2.17-5.03-3.54-15.09-4.12-3.61-.93-5.42-2.29-5.42-4.1 0-4.46 4.87-8.93 14.6-13.43l3.53-.55zm22.536 4.447c5 .692 7.5 3.686 7.5 8.983 0 6.937-2.74 12.68-8.23 17.226-2.26 1.29-4.29 1.934-6.07 1.934-4.35 0-7.15-2.344-8.4-7.03l-.18-2.18v-.74c0-7.57 3.45-13.312 10.37-17.226 1.73-.644 3.4-.967 4.99-.967zM597.26 83.38c1.804 2.74 4.19 4.112 7.154 4.112 4.77 0 8.102-2.83 10-8.49l.35-2.672c0-3.984-1.96-6.328-5.886-7.03h-.544c-3.247 0-6.64 3.233-10.18 9.702-.597 1.945-.895 3.404-.895 4.377zm56.127-18.95c1.523 0 2.285.632 2.285 1.898v.475c0 1.746-1.36 2.62-4.078 2.62l-5.08.245c-1.525 8.12-2.287 15.105-2.287 20.953-.41 1.27-.83 1.9-1.263 1.9h-.775c-.88 0-1.39-.24-1.53-.72.85-8.99 1.79-16.29 2.79-21.9l-7.63 1.2c-.72 0-1.14-.71-1.27-2.14 0-2.38 2.12-3.57 6.36-3.57 2.54-.63 6.69-.95 12.46-.95zm20.337.017c.832.223 1.25.79 1.25 1.705v.23c-1.174 17.308-2.006 25.962-2.5 25.962l-.262.246h-.74c-.867 0-1.453-.404-1.757-1.213.33-2.31.49-5.543.49-9.703h-.245L659.45 84.1l-.74.966v4.606c0 1.37-.504 2.344-1.512 2.918h-.49c-.938 0-1.524-.404-1.758-1.213 1.16-17.473 2.83-26.21 5.01-26.21h.492l.755.985c-1.17 5.8-1.758 10.084-1.758 12.85 7.67-1.008 11.51-2.22 11.51-3.64l1-10.194 1.75-.72zm21.62.053c.81.176 1.213.79 1.213 1.846-.255 1.992-1.06 2.988-2.406 2.988-8.83 0-13.25 1.23-13.25 3.69l-.24 2.076v1.142c5.77-1.383 9.71-2.074 11.82-2.074h.48c.81.352 1.22 1.12 1.22 2.303 0 1.69-1.12 2.54-3.37 2.54-7.4.96-11.09 2.12-11.09 3.47l-.23 2.31v.92c0 1.38.88 2.15 2.63 2.3 2.77-.3 6.22-.99 10.37-2.07h.72c.65.25.97.79.97 1.62v.69c0 1.89-4.02 3.35-12.06 4.38h-.72c-2.89 0-4.5-1.84-4.81-5.52 0-2.7.56-7.85 1.69-15.43l-.47-1.39c0-3.11 4.82-4.95 14.45-5.52l3.13-.23zm3.376 0l5.378 8.156 2.357 1.934c2.978-5.297 5.052-8.502 6.224-9.615h1.07l.86.966c-.12.86-3.48 6.86-10.09 18-1.67 3.13-2.88 5.93-3.66 8.41l-.63.25c-1.01-.47-1.51-1.19-1.51-2.16.05-1.25 1.77-5.17 5.15-11.76-4.87-5.23-7.3-9.47-7.3-12.73.9-.96 1.62-1.44 2.14-1.44zm47.724 0c.81.176 1.214.79 1.214 1.846-.257 1.992-1.06 2.988-2.407 2.988-8.83 0-13.25 1.23-13.25 3.69l-.24 2.076v1.142c5.77-1.383 9.71-2.074 11.82-2.074h.48c.81.352 1.22 1.12 1.22 2.303 0 1.69-1.12 2.54-3.37 2.54-7.39.96-11.09 2.12-11.09 3.47l-.23 2.31v.92c0 1.38.88 2.15 2.64 2.3 2.77-.3 6.23-.99 10.37-2.07h.73c.64.25.96.79.96 1.62v.69c0 1.89-4.02 3.35-12.06 4.38h-.72c-2.89 0-4.5-1.84-4.81-5.52 0-2.7.57-7.85 1.69-15.43l-.47-1.39c0-3.11 4.82-4.95 14.45-5.52l3.13-.23zm16.12 0h.37c1.617.2 2.425.984 2.425 2.355v.475c0 2.367-.81 4.57-2.43 6.61h-.37c-.26-.07-.51-.463-.76-1.178l.95-3.533-.74-.48c-1.72.15-4.89 2.04-9.49 5.66v.23l12.27 2.37c1.24.98 1.86 2.63 1.86 4.95v1.4c0 3.17-2.05 5.93-6.14 8.26-1.61.63-3.16.95-4.66.95h-.39c-4.27 0-6.87-1.89-7.81-5.66V85.5c0-1.735.43-2.602 1.3-2.602.85 3 2.41 4.5 4.66 4.5 0 .307.93.46 2.79.46 2.75 0 5.42-1.41 8-4.237 0-1.87-3.97-3.06-11.9-3.55-2.86-.79-4.29-1.97-4.29-3.53 0-3.83 3.84-7.69 11.53-11.56l2.79-.47zm23.432 0h1.036c1.3 0 2.08 1.05 2.336 3.146v.493c0 3.17-1.2 5.27-3.604 6.29l-.42-.5v-.25l1.07-4.12-.845-.48c-3.51 0-7.67 3.31-12.5 9.93-1.15 2-1.73 3.53-1.73 4.59v.24c0 2.58 1.56 3.87 4.67 3.87h.19c3 0 6.32-.8 9.96-2.41h.65c.56.25.84.82.84 1.68v.96c-3 3.07-6.53 4.6-10.59 4.6-5.52-.58-8.28-3.32-8.28-8.23v-.49c0-6.27 4.45-12.4 13.34-18.4 1.68-.65 2.96-.97 3.83-.97zm14.22 0h.843c1.16 0 2.63 5.36 4.41 16.084 1.4 5.063 2.1 8.502 2.1 10.318-.3.96-.86 1.442-1.69 1.442-1.08 0-1.85-2.56-2.32-7.682l-.21-.228h-.21c-1.83.023-5.69 1.142-11.57 3.357-.57 3.2-1.48 4.8-2.74 4.8-.85-.32-1.27-.96-1.27-1.91 0-1.85 3.86-10.33 11.58-25.45l1.05-.72zm-.42 6.715c-1.69 3.047-3.237 6.252-4.643 9.615h1.477c1.43 0 3.258-.322 5.484-.967l-1.898-8.648h-.422zm22.64-6.768c4.65 0 6.977 1.365 6.977 4.096 0 5.402-5.098 10.29-15.293 14.66-.75 0-1.125.48-1.125 1.442-.107 5.296-.634 7.945-1.583 7.945h-1.125c-.305-.07-.604-.47-.897-1.195l2.022-19.723h-.23c-.596 0-.895-.727-.895-2.18 0-2.355 1.353-3.715 4.06-4.078l8.086-.967zm-9 13.957c5.143-1.347 9.045-3.59 11.705-6.732l.44-1.46v-.474l-1.12-.246h-1.12c-5.99.328-8.98.89-8.98 1.688l-.91 7.224zM848.21 64.5c.808.176 1.212.79 1.212 1.846-.258 1.992-1.06 2.988-2.408 2.988-8.836 0-13.254 1.23-13.254 3.69l-.246 2.076v1.142c5.765-1.383 9.703-2.074 11.812-2.074h.475c.81.352 1.22 1.12 1.22 2.303 0 1.69-1.12 2.54-3.37 2.54-7.39.96-11.09 2.12-11.09 3.47l-.23 2.31v.92c0 1.38.88 2.15 2.64 2.3 2.77-.3 6.23-.99 10.37-2.07h.72c.65.25.97.79.97 1.62v.69c0 1.89-4.02 3.35-12.06 4.38h-.72c-2.89 0-4.5-1.84-4.81-5.52 0-2.7.56-7.85 1.69-15.43l-.47-1.39c0-3.11 4.82-4.95 14.45-5.52l3.13-.23zm10.6-.053h1.07c5.098 0 8.222 2.022 9.37 6.065l.21 1.933c0 8.05-5.964 14.684-17.894 19.9l-1.054.245h-.23c-.315 0-.596-.57-.843-1.705l2.12-20.865c-.86 0-1.29-.24-1.29-.72v-.493c0-2.578 1.13-3.868 3.41-3.868l5.11-.5zm-4.255 5.098c-1.278 8.297-1.916 13.875-1.916 16.734v1.21c8.94-4.47 13.41-8.67 13.41-12.62v-.23c0-2.28-.64-3.41-1.92-3.41-1.58-1.13-4.14-1.69-7.67-1.69h-1.92zm49.36-5.115c1.522 0 2.284.632 2.284 1.898v.475c0 1.746-1.36 2.62-4.08 2.62l-5.08.245c-1.53 8.12-2.29 15.105-2.29 20.953-.41 1.27-.83 1.9-1.27 1.9h-.78c-.88 0-1.39-.24-1.53-.72.85-8.99 1.78-16.29 2.79-21.9l-7.63 1.2c-.72 0-1.14-.71-1.27-2.14 0-2.38 2.12-3.57 6.36-3.57 2.54-.63 6.7-.95 12.46-.95zm16.927.017c5.004.692 7.506 3.686 7.506 8.983 0 6.937-2.743 12.68-8.227 17.226-2.26 1.29-4.28 1.934-6.06 1.934-4.35 0-7.15-2.344-8.4-7.03l-.17-2.18v-.74c0-7.57 3.46-13.312 10.37-17.226 1.74-.644 3.4-.967 4.99-.967zM907.8 83.38c1.805 2.74 4.19 4.112 7.155 4.112 4.77 0 8.104-2.83 10.002-8.49l.352-2.672c0-3.984-1.97-6.328-5.89-7.03h-.55c-3.25 0-6.64 3.233-10.18 9.702-.6 1.945-.9 3.404-.9 4.377zM967.005 60c.96.2 1.44.914 1.44 2.145-.315 2.308-1.282 3.462-2.9 3.462-10.616 0-15.925 1.424-15.925 4.272l-.282 2.4v1.33c6.914-1.61 11.642-2.41 14.185-2.41h.58c.96.39 1.442 1.29 1.442 2.67 0 1.96-1.348 2.93-4.043 2.93-8.883 1.11-13.324 2.45-13.324 4.01l-.282 2.67v1.07c0 1.6 1.06 2.49 3.182 2.67 3.317-.35 7.465-1.16 12.445-2.41h.862c.773.29 1.16.92 1.16 1.88v.79c0 2.19-4.822 3.88-14.467 5.08h-.88c-3.48 0-5.407-2.14-5.782-6.42 0-3.14.674-9.11 2.02-17.9l-.58-1.6c0-3.62 5.796-5.76 17.386-6.42l3.762-.27zm16.857 4.447h.177c1.56 0 2.6 1.524 3.13 4.57l-.37.475h-.18l-1.48-.474c-4.03.597-8.26 3.404-12.68 8.42-1.23 2.18-1.85 3.703-1.85 4.57v.967c0 2.566 2.63 4.166 7.91 4.798 3.3 0 5.81-1.763 7.52-5.29l-2.2-.95c-.82 0-3.09.96-6.8 2.883-.37-.82-.55-1.623-.55-2.408v-.246c0-2.555 2.45-4.32 7.34-5.29h.37c2.81 0 4.22 1.844 4.22 5.536 0 3.808-3.12 7.178-9.37 10.107l-2.2.475c-3.98 0-6.67-1.682-8.09-5.045l-.37-3.13c0-7.265 3.73-13.44 11.2-18.526 1.88-.97 3.3-1.45 4.23-1.45zm7.86.053l5.378 8.156 2.355 1.934c2.977-5.297 5.05-8.502 6.223-9.615h1.072l.86.966c-.116.86-3.48 6.86-10.088 18-1.665 3.13-2.883 5.93-3.657 8.41l-.633.25c-1.007-.47-1.51-1.19-1.51-2.16.057-1.25 1.774-5.17 5.15-11.76-4.864-5.23-7.296-9.47-7.296-12.73.903-.96 1.617-1.44 2.145-1.44zm27.034-.053c4.652 0 6.978 1.365 6.978 4.096 0 5.402-5.097 10.29-15.293 14.66-.75 0-1.12.48-1.12 1.442-.1 5.296-.63 7.945-1.58 7.945h-1.12c-.3-.07-.6-.47-.89-1.195l2.02-19.723h-.23c-.59 0-.89-.727-.89-2.18 0-2.355 1.36-3.715 4.06-4.078l8.09-.967zm-9 13.957c5.144-1.347 9.047-3.59 11.707-6.732l.44-1.46v-.474l-1.125-.246h-1.125c-5.988.328-8.982.89-8.982 1.688l-.91 7.224zm35.49-13.974c1.524 0 2.285.632 2.285 1.898v.475c0 1.746-1.36 2.62-4.08 2.62l-5.08.245c-1.52 8.12-2.28 15.105-2.28 20.953-.41 1.27-.83 1.9-1.26 1.9h-.77c-.88 0-1.39-.24-1.53-.72.86-8.99 1.79-16.29 2.8-21.9l-7.63 1.2c-.71 0-1.13-.71-1.26-2.14 0-2.38 2.12-3.57 6.37-3.57 2.55-.63 6.7-.95 12.47-.95zm27.352.07h.843c1.16 0 2.63 5.36 4.42 16.084 1.41 5.063 2.11 8.502 2.11 10.318-.29.96-.85 1.442-1.69 1.442-1.07 0-1.85-2.56-2.32-7.682l-.21-.228h-.21c-1.83.023-5.68 1.142-11.56 3.357-.56 3.2-1.47 4.8-2.74 4.8-.84-.32-1.26-.96-1.26-1.91 0-1.85 3.86-10.33 11.59-25.45l1.06-.72zm-.422 6.715c-1.688 3.047-3.235 6.252-4.64 9.615h1.476c1.43 0 3.258-.322 5.484-.967l-1.898-8.648h-.422zm13.447-6.768c1.068 0 2.345 2.004 3.833 6.012 2.883 5.9 6.088 10.95 9.615 15.15 1.19-11.57 2.07-18.38 2.64-20.45l.97-.72h.72c.48 0 .72.32.72.96-1.44 16.52-2.32 25.34-2.63 26.45l-1.44.47c-2.56 0-6.89-5.45-12.97-16.35l-.96-.97-.24.72-.72 11.07v1.44l.25 1.44c-.21 1.92-.85 2.88-1.91 2.88-.98-.35-1.54-.83-1.69-1.44 1.24-17.32 2.11-25.98 2.64-25.98l1.21-.72zm29.286 0h1.07c5.09 0 8.22 2.022 9.37 6.065l.21 1.933c0 8.05-5.97 14.684-17.9 19.9l-1.06.245h-.23c-.32 0-.6-.57-.85-1.705l2.12-20.865c-.86 0-1.29-.24-1.29-.72v-.493c0-2.578 1.14-3.868 3.41-3.868l5.11-.5zm-4.26 5.098c-1.28 8.297-1.92 13.875-1.92 16.734v1.21c8.94-4.47 13.41-8.67 13.41-12.62v-.23c0-2.28-.64-3.41-1.92-3.41-1.58-1.13-4.14-1.69-7.67-1.69h-1.92zm49.36-5.115c1.52 0 2.28.632 2.28 1.898v.475c0 1.746-1.36 2.62-4.08 2.62l-5.08.245c-1.53 8.12-2.29 15.105-2.29 20.953-.41 1.27-.84 1.9-1.27 1.9h-.78c-.88 0-1.39-.24-1.53-.72.85-8.99 1.79-16.29 2.79-21.9l-7.63 1.2c-.72 0-1.14-.71-1.27-2.14 0-2.38 2.12-3.57 6.36-3.57 2.54-.63 6.7-.95 12.46-.95zm20.34.017c.83.223 1.25.79 1.25 1.705v.23c-1.17 17.308-2.01 25.962-2.5 25.962l-.27.246h-.74c-.87 0-1.46-.404-1.76-1.213.32-2.31.49-5.543.49-9.703h-.25l-10.51 2.426-.74.966v4.606c0 1.37-.51 2.344-1.51 2.918h-.5c-.94 0-1.53-.404-1.76-1.213 1.16-17.473 2.83-26.21 5.01-26.21h.49l.75.985c-1.18 5.8-1.76 10.084-1.76 12.85 7.67-1.008 11.51-2.22 11.51-3.64l1-10.194 1.76-.72zm21.62.053c.81.176 1.21.79 1.21 1.846-.26 1.992-1.06 2.988-2.41 2.988-8.84 0-13.26 1.23-13.26 3.69l-.25 2.076v1.142c5.76-1.383 9.7-2.074 11.81-2.074h.47c.81.352 1.21 1.12 1.21 2.303 0 1.69-1.13 2.54-3.38 2.54-7.4.96-11.09 2.12-11.09 3.47l-.23 2.31v.92c0 1.38.88 2.15 2.64 2.3 2.76-.3 6.22-.99 10.37-2.07h.72c.64.25.96.79.96 1.62v.69c0 1.89-4.02 3.35-12.06 4.38h-.72c-2.9 0-4.5-1.84-4.82-5.52 0-2.7.56-7.85 1.69-15.43l-.48-1.39c0-3.11 4.81-4.95 14.45-5.52l3.13-.23zm3.37 0l5.38 8.156 2.35 1.934c2.97-5.297 5.05-8.502 6.22-9.615h1.07l.86.966c-.12.86-3.48 6.86-10.09 18-1.67 3.13-2.88 5.93-3.66 8.41l-.63.25c-1.01-.47-1.51-1.19-1.51-2.16.05-1.25 1.77-5.17 5.15-11.76-4.87-5.23-7.3-9.47-7.3-12.73.9-.96 1.62-1.44 2.14-1.44zm32.53-.053h.24c.76 0 1.4.393 1.91 1.178-1.12 8.11-1.91 15.363-2.39 21.762l13.71-2.83.47.703v1.424c0 2.156-4.97 4.125-14.91 5.906-1.77-.317-2.66-.867-2.66-1.653 1.31-17.343 2.27-26.015 2.88-26.015l.72-.475zm20.19-.07h1.65c.55 0 .82.322.82.967-1.29 10.523-1.94 17.824-1.94 21.902v2.672c-.36 1.78-1.28 2.672-2.74 2.672h-.55l-1.11-.967c.74-11.04 1.66-19.8 2.76-26.28l1.09-.966zm23.55.07h.7c.63.258.95.82.95 1.688 0 1.172-2.45 6.222-7.35 15.152-2.4 6.692-3.9 10.3-4.5 10.828l-2.36.475c-1.03 0-1.75-1.846-2.15-5.537-3.15-11.12-4.73-17.936-4.73-20.444.26-.73.73-1.29 1.42-1.69h.95c.85 0 1.72 3.37 2.6 10.1L1270 85.6h.23c1.64-4.34 5.19-11.23 10.65-20.69l.724-.48zm20.44.053c.81.176 1.21.79 1.21 1.846-.26 1.992-1.06 2.988-2.41 2.988-8.84 0-13.26 1.23-13.26 3.69l-.25 2.076v1.142c5.76-1.383 9.7-2.074 11.81-2.074h.47c.81.352 1.21 1.12 1.21 2.303 0 1.69-1.13 2.54-3.38 2.54-7.4.96-11.09 2.12-11.09 3.47l-.23 2.31v.92c0 1.38.88 2.15 2.64 2.3 2.76-.3 6.22-.99 10.37-2.07h.72c.64.25.96.79.96 1.62v.69c0 1.89-4.02 3.35-12.06 4.38h-.72c-2.9 0-4.5-1.84-4.82-5.52 0-2.7.56-7.85 1.68-15.43l-.47-1.39c0-3.11 4.81-4.95 14.45-5.52l3.12-.23zm10.6-.053h1.07c5.1 0 8.22 2.022 9.37 6.065l.21 1.933c0 8.05-5.97 14.684-17.9 19.9l-1.06.245h-.23c-.32 0-.6-.57-.85-1.705l2.12-20.865c-.86 0-1.29-.24-1.29-.72v-.493c0-2.578 1.13-3.868 3.41-3.868l5.11-.5zm-4.26 5.098c-1.28 8.297-1.92 13.875-1.92 16.734v1.21c8.94-4.47 13.41-8.67 13.41-12.62v-.23c0-2.28-.64-3.41-1.92-3.41-1.59-1.13-4.14-1.69-7.67-1.69h-1.92zm49.36-5.115c1.52 0 2.28.632 2.28 1.898v.475c0 1.746-1.36 2.62-4.08 2.62l-5.08.245c-1.52 8.12-2.28 15.105-2.28 20.953-.41 1.27-.83 1.9-1.27 1.9h-.78c-.88 0-1.39-.24-1.53-.72.85-8.99 1.79-16.29 2.79-21.9l-7.63 1.2c-.72 0-1.14-.71-1.27-2.14 0-2.38 2.12-3.57 6.36-3.57 2.54-.63 6.7-.95 12.46-.95zm20.33.017c.83.223 1.25.79 1.25 1.705v.23c-1.18 17.308-2.01 25.962-2.5 25.962l-.27.246h-.74c-.87 0-1.45-.404-1.76-1.213.33-2.31.49-5.543.49-9.703h-.25l-10.5 2.426-.74.966v4.606c0 1.37-.51 2.344-1.51 2.918h-.5c-.94 0-1.52-.404-1.76-1.213 1.16-17.473 2.83-26.21 5.01-26.21h.49l.75.985c-1.17 5.8-1.76 10.084-1.76 12.85 7.67-1.008 11.51-2.22 11.51-3.64l1-10.194 1.76-.72zm21.62.053c.81.176 1.21.79 1.21 1.846-.26 1.992-1.06 2.988-2.41 2.988-8.83 0-13.25 1.23-13.25 3.69L1385 75.1v1.142c5.766-1.383 9.703-2.074 11.81-2.074h.475c.81.352 1.214 1.12 1.214 2.303 0 1.69-1.13 2.54-3.38 2.54-7.4.96-11.09 2.12-11.09 3.47l-.23 2.31v.92c0 1.38.88 2.15 2.63 2.3 2.76-.3 6.22-.99 10.37-2.07h.72c.64.25.97.79.97 1.62v.69c0 1.89-4.02 3.35-12.06 4.38h-.72c-2.89 0-4.5-1.84-4.81-5.52 0-2.7.56-7.85 1.69-15.43l-.48-1.39c0-3.11 4.81-4.95 14.45-5.52l3.13-.23zm14.31-.053h2.42c3.71 0 5.57 1.295 5.57 3.885v.246c0 4.535-3.88 8.66-11.64 12.375v.23c3.88 3.56 7.11 6.233 9.7 8.014v.72c0 1.255-.41 2.063-1.22 2.427h-.97l-13.33-9.457-.25 4.85v3.64c-.41.81-1.06 1.213-1.94 1.213-.65 0-1.13-.322-1.46-.967v-1.46l2.18-18.93c-.65 0-.97-.48-.97-1.442 0-2.91 2.42-4.61 7.26-5.09l4.6-.24zm-8.48 13.096h.24c8.39-2.156 12.59-4.5 12.59-7.03v-.247c0-.446-.81-.768-2.43-.967-2.68 0-5.91.56-9.69 1.7l-.72 6.54zM1440.8 64.5c.806.176 1.21.79 1.21 1.846-.257 1.992-1.06 2.988-2.407 2.988-8.84 0-13.257 1.23-13.257 3.69l-.24 2.076v1.142c5.766-1.383 9.704-2.074 11.813-2.074h.47c.8.352 1.21 1.12 1.21 2.303 0 1.69-1.13 2.54-3.38 2.54-7.4.96-11.09 2.12-11.09 3.47l-.23 2.31v.92c0 1.38.88 2.15 2.63 2.3 2.76-.3 6.22-.99 10.37-2.07h.72c.64.25.96.79.96 1.62v.69c0 1.89-4.02 3.35-12.06 4.38h-.72c-2.9 0-4.5-1.84-4.82-5.52 0-2.7.56-7.85 1.68-15.43l-.47-1.39c0-3.11 4.81-4.95 14.45-5.52l3.13-.23zm-875.885 42h2.27c1.01.633 1.51 1.342 1.51 2.127-.27 1.887-1.104 2.83-2.51 2.83-4.043 0-7.987.393-11.83 1.178l-.493 5.203 1.246.228h1.002c2.975 0 6.414-.474 10.32-1.423l.753 1.423c-.375 2.836-1.547 4.254-3.516 4.254-1.22.62-4.66 1.09-10.32 1.407-.4 7.09-1.073 10.634-2.02 10.634l-1.004.23h-.248c-.42 0-.678-.31-.76-.95 0-3.85.67-10.93 2.005-21.23l-.74-.72c0-2.38 1.675-3.79 5.026-4.23 3.363-.63 6.462-.95 9.3-.95zm19.147-.053c5.002.692 7.503 3.686 7.503 8.983 0 6.937-2.74 12.68-8.227 17.226-2.264 1.29-4.285 1.934-6.07 1.934-4.344 0-7.145-2.344-8.4-7.03l-.174-2.18v-.74c0-7.57 3.453-13.312 10.37-17.226 1.732-.644 3.4-.967 4.99-.967zm-13.04 18.933c1.804 2.74 4.19 4.11 7.154 4.11 4.77 0 8.11-2.83 10.007-8.49l.35-2.67c0-3.99-1.96-6.33-5.885-7.03h-.546c-3.247 0-6.64 3.23-10.18 9.7-.6 1.94-.896 3.4-.896 4.373zm34.752-18.94h2.42c3.712 0 5.57 1.296 5.57 3.886v.246c0 4.535-3.88 8.66-11.637 12.375v.23c3.88 3.56 7.11 6.233 9.7 8.014v.72c0 1.26-.408 2.07-1.217 2.43h-.97l-13.327-9.45-.25 4.85v3.64c-.41.81-1.055 1.22-1.93 1.22-.65 0-1.13-.32-1.46-.97v-1.46l2.18-18.93c-.65 0-.97-.48-.97-1.44 0-2.92 2.42-4.61 7.26-5.1l4.604-.24zm-8.48 13.097h.244c8.39-2.156 12.587-4.5 12.587-7.03v-.247c0-.445-.81-.767-2.42-.966-2.68 0-5.91.567-9.685 1.704l-.72 6.54zm42.26-13.043h.84c1.16 0 2.63 5.36 4.414 16.083 1.406 5.065 2.11 8.504 2.11 10.32-.294.96-.856 1.443-1.69 1.443-1.08 0-1.85-2.56-2.32-7.68l-.21-.226h-.21c-1.83.023-5.684 1.142-11.57 3.357-.56 3.2-1.475 4.8-2.74 4.8-.84-.32-1.26-.96-1.26-1.91 0-1.85 3.86-10.33 11.583-25.45l1.06-.72zm-.42 6.714c-1.69 3.047-3.238 6.252-4.64 9.615h1.5c1.43 0 3.256-.323 5.482-.968l-1.898-8.65h-.423zm41.71-6.715h1.036c1.3 0 2.08 1.05 2.34 3.145v.494c0 3.174-1.2 5.272-3.603 6.292l-.43-.493v-.24l1.073-4.11-.84-.47c-3.504 0-7.67 3.31-12.5 9.93-1.15 2.01-1.72 3.54-1.72 4.59v.25c0 2.58 1.56 3.87 4.68 3.87h.19c3 0 6.324-.8 9.97-2.4h.65c.56.26.84.82.84 1.69v.96c-3 3.07-6.525 4.61-10.58 4.61-5.52-.57-8.28-3.31-8.28-8.22v-.49c0-6.27 4.45-12.4 13.34-18.4 1.69-.64 2.97-.96 3.836-.96zm18.74-.054c5.002.69 7.504 3.68 7.504 8.98 0 6.93-2.74 12.68-8.23 17.22-2.26 1.29-4.28 1.93-6.063 1.93-4.343 0-7.15-2.35-8.4-7.03l-.173-2.18v-.74c0-7.57 3.46-13.32 10.37-17.23 1.74-.65 3.4-.97 4.997-.97zm-13.04 18.93c1.802 2.74 4.19 4.11 7.15 4.11 4.77 0 8.1-2.83 10-8.49l.35-2.67c0-3.99-1.964-6.33-5.89-7.03h-.545c-3.25 0-6.64 3.23-10.18 9.7-.6 1.94-.9 3.4-.9 4.38zm26.892-18.94c.75.3 1.163.62 1.245.95-1.33 8.35-2 14.42-2 18.21v2.6c4.47 0 8.14-2.06 11-6.16 1.13-9.94 2.21-14.91 3.25-14.91h.27c1 .1 1.49.34 1.49.72-1.5 9.04-2.25 15.82-2.25 20.34v3.77c0 1.24-.5 2.11-1.51 2.6h-1l-.98-.95v-.48l.25-4.01c-.59 0-3.85 1.49-9.75 4.48l-1.75.47c-2.01-.26-3.01-1.13-3.01-2.6v-.23c1.22-16.56 2.64-24.84 4.26-24.84h.51zm29.04 0c4.65 0 6.974 1.36 6.974 4.09 0 5.4-5.097 10.29-15.293 14.66-.75 0-1.13.48-1.13 1.44-.105 5.29-.633 7.94-1.58 7.94h-1.126c-.31-.07-.6-.47-.9-1.2l2.02-19.72h-.23c-.59 0-.89-.73-.89-2.18 0-2.36 1.36-3.72 4.06-4.08l8.09-.97zm-9 13.95c5.14-1.35 9.043-3.59 11.703-6.73l.44-1.46v-.48l-1.12-.25h-1.12c-5.99.33-8.98.89-8.98 1.69l-.92 7.22zm19.58-13.96h.244c.76 0 1.4.39 1.916 1.18-1.11 8.11-1.91 15.36-2.39 21.76l13.71-2.83.475.7v1.42c0 2.15-4.97 4.12-14.9 5.9-1.77-.32-2.65-.87-2.65-1.66 1.32-17.35 2.28-26.02 2.89-26.02l.72-.48zm33.343.05c.81.17 1.22.79 1.22 1.84-.26 1.99-1.06 2.99-2.41 2.99-8.84 0-13.26 1.23-13.26 3.69l-.25 2.07v1.14c5.76-1.38 9.7-2.08 11.81-2.08h.48c.81.35 1.21 1.12 1.21 2.3 0 1.69-1.13 2.53-3.38 2.53-7.39.96-11.09 2.12-11.09 3.46l-.23 2.3v.92c0 1.39.88 2.15 2.64 2.31 2.76-.31 6.22-1 10.37-2.08h.72c.65.25.97.79.97 1.62v.69c0 1.89-4.02 3.35-12.06 4.38h-.72c-2.9 0-4.5-1.84-4.82-5.52 0-2.71.56-7.85 1.69-15.43l-.48-1.39c0-3.12 4.82-4.96 14.45-5.52l3.13-.23zm31.54-.06c5 .69 7.5 3.69 7.5 8.98 0 6.93-2.74 12.68-8.23 17.22-2.27 1.29-4.29 1.93-6.07 1.93-4.35 0-7.15-2.34-8.4-7.03l-.18-2.18v-.74c0-7.57 3.46-13.31 10.37-17.23 1.74-.64 3.4-.97 4.99-.97zm-13.04 18.94c1.8 2.74 4.19 4.11 7.15 4.11 4.77 0 8.1-2.83 10-8.49l.35-2.67c0-3.99-1.96-6.33-5.89-7.03h-.55c-3.25 0-6.64 3.23-10.18 9.7-.6 1.94-.9 3.4-.9 4.38zm37.28-18.87h2.26c1.01.63 1.51 1.34 1.51 2.13-.27 1.88-1.11 2.83-2.52 2.83-4.05 0-7.99.39-11.83 1.18l-.49 5.2 1.25.22h1c2.97 0 6.41-.48 10.32-1.42l.75 1.42c-.38 2.83-1.55 4.25-3.52 4.25-1.22.62-4.66 1.09-10.32 1.41-.4 7.09-1.07 10.63-2.02 10.63l-1 .23h-.25c-.43 0-.68-.31-.76-.95 0-3.85.66-10.93 2-21.23l-.74-.72c0-2.38 1.67-3.79 5.02-4.23 3.37-.63 6.46-.95 9.3-.95zm20.86 0l5.38 8.15 2.35 1.93c2.97-5.3 5.05-8.5 6.22-9.61h1.07l.86.96c-.12.86-3.48 6.86-10.09 18-1.67 3.13-2.88 5.93-3.66 8.41l-.64.25c-1.01-.47-1.51-1.19-1.51-2.16.06-1.25 1.77-5.17 5.15-11.76-4.86-5.23-7.3-9.47-7.3-12.73.9-.96 1.61-1.44 2.14-1.44zm32.78 0c.8.17 1.21.79 1.21 1.84-.25 1.99-1.06 2.98-2.4 2.98-8.83 0-13.25 1.23-13.25 3.69l-.24 2.08v1.14c5.76-1.38 9.7-2.07 11.81-2.07h.47c.81.35 1.21 1.12 1.21 2.3 0 1.69-1.13 2.54-3.38 2.54-7.39.96-11.09 2.12-11.09 3.47l-.23 2.3v.91c0 1.38.88 2.15 2.64 2.3 2.76-.31 6.22-1 10.37-2.08h.72c.64.25.96.79.96 1.62v.69c0 1.89-4.02 3.35-12.06 4.38h-.72c-2.9 0-4.5-1.84-4.82-5.52 0-2.7.56-7.85 1.68-15.43l-.48-1.39c0-3.11 4.81-4.95 14.45-5.52l3.13-.23zm12.07 0h.84c1.16 0 2.63 5.36 4.41 16.08 1.4 5.06 2.11 8.5 2.11 10.32-.3.96-.86 1.44-1.69 1.44-1.08 0-1.85-2.56-2.32-7.68l-.21-.23h-.21c-1.83.02-5.69 1.14-11.57 3.35-.57 3.2-1.48 4.8-2.74 4.8-.84-.32-1.26-.96-1.26-1.91 0-1.85 3.86-10.33 11.59-25.45l1.06-.72zm-.42 6.71c-1.69 3.04-3.24 6.25-4.64 9.61h1.47c1.43 0 3.26-.32 5.48-.97l-1.89-8.64h-.43zm22.67-6.77h2.42c3.71 0 5.57 1.29 5.57 3.88v.24c0 4.53-3.88 8.66-11.64 12.37v.23c3.87 3.56 7.11 6.23 9.7 8.01v.72c0 1.25-.41 2.06-1.22 2.43H934l-13.33-9.46-.25 4.85v3.64c-.41.81-1.053 1.21-1.932 1.21-.64 0-1.13-.32-1.46-.97v-1.46l2.18-18.93c-.64 0-.963-.48-.963-1.44 0-2.91 2.42-4.61 7.26-5.09l4.602-.24zm-8.47 13.09h.24c8.4-2.16 12.59-4.5 12.59-7.03v-.25c0-.45-.81-.77-2.42-.97-2.68 0-5.91.56-9.68 1.7l-.72 6.54zm31.36-13.05h.37c1.61.2 2.42.98 2.42 2.35v.47c0 2.37-.81 4.57-2.43 6.61h-.37c-.26-.07-.51-.46-.76-1.18l.95-3.53-.74-.48c-1.73.15-4.89 2.04-9.5 5.66v.23l12.27 2.37c1.24.98 1.86 2.63 1.86 4.95v1.4c0 3.17-2.05 5.93-6.14 8.26-1.61.63-3.16.95-4.66.95h-.39c-4.27 0-6.87-1.89-7.81-5.66v-1.42c0-1.74.43-2.6 1.3-2.6.85 3 2.41 4.5 4.66 4.5 0 .3.93.46 2.79.46 2.75 0 5.42-1.41 8-4.24 0-1.87-3.97-3.06-11.9-3.55-2.86-.79-4.29-1.97-4.29-3.53 0-3.83 3.84-7.69 11.53-11.57l2.79-.47zm26.42-.05c.75.3 1.16.62 1.24.95-1.34 8.35-2 14.42-2 18.21v2.6c4.47 0 8.14-2.06 11-6.16 1.12-9.94 2.21-14.91 3.25-14.91h.26c.99.1 1.49.34 1.49.72-1.5 9.04-2.25 15.82-2.25 20.34v3.77c0 1.24-.51 2.11-1.51 2.6h-1l-.99-.95v-.48l.24-4.01c-.6 0-3.85 1.49-9.76 4.48l-1.76.47c-2.01-.26-3.01-1.13-3.01-2.6v-.23c1.22-16.56 2.64-24.84 4.26-24.84h.51zm19.84 0c1.06 0 2.34 2 3.83 6.01 2.88 5.9 6.08 10.95 9.61 15.15 1.18-11.57 2.06-18.38 2.64-20.45l.96-.72h.73c.48 0 .72.32.72.96-1.44 16.52-2.32 25.34-2.63 26.45l-1.44.47c-2.57 0-6.89-5.45-12.97-16.35l-.97-.97-.25.72-.72 11.07v1.44l.24 1.44c-.21 1.92-.85 2.88-1.92 2.88-.99-.35-1.55-.83-1.69-1.44 1.23-17.32 2.11-25.98 2.64-25.98l1.21-.72zm39.43-.02c1.52 0 2.28.63 2.28 1.9v.47c0 1.75-1.36 2.62-4.08 2.62l-5.08.24c-1.53 8.12-2.29 15.1-2.29 20.95-.41 1.27-.83 1.9-1.27 1.9h-.78c-.87 0-1.38-.24-1.53-.72.86-8.99 1.79-16.29 2.8-21.9l-7.63 1.2c-.71 0-1.13-.71-1.26-2.14 0-2.38 2.12-3.57 6.37-3.57 2.54-.63 6.7-.95 12.46-.95zm7.2-.05h1.65c.55 0 .82.32.82.96-1.29 10.52-1.93 17.82-1.93 21.9v2.67c-.37 1.78-1.28 2.67-2.75 2.67h-.55l-1.11-.97c.74-11.04 1.66-19.8 2.76-26.28l1.09-.97zm7.73.07h.24c.76 0 1.4.39 1.91 1.17-1.12 8.11-1.91 15.36-2.39 21.76l13.71-2.83.47.7v1.42c0 2.15-4.97 4.12-14.91 5.9-1.77-.32-2.66-.87-2.66-1.66 1.31-17.34 2.27-26.02 2.88-26.02l.72-.48zm35.45-4.45l.86 1.1-.86 10.6 17.45-9.19c.76.89 1.14 2 1.14 3.34-1.97 2.62-7.03 5.96-15.17 10.02v.28c3.76 4.66 8.05 8.56 12.88 11.7v.55c0 2.6-.96 3.91-2.87 3.91l-14.31-11.14c-.56 7.43-1.13 11.15-1.71 11.15l-1.44.28c-.95-.31-1.42-.86-1.42-1.67l1.14-13.1-.28-3.34c.64 0 1.21-4.08 1.7-12.25.78-1.49 1.74-2.23 2.86-2.23zm24.34 4.37h1.65c.55 0 .83.32.83.97-1.29 10.52-1.94 17.82-1.94 21.9v2.67c-.37 1.78-1.28 2.67-2.74 2.67h-.55l-1.11-.97c.74-11.04 1.66-19.8 2.76-26.28l1.09-.97zm7.98.07c1.06 0 2.34 2 3.83 6.01 2.88 5.9 6.09 10.95 9.61 15.15 1.18-11.57 2.06-18.38 2.63-20.45l.96-.72h.72c.48 0 .72.32.72.96-1.44 16.52-2.32 25.34-2.64 26.45l-1.44.47c-2.57 0-6.9-5.45-12.98-16.35l-.97-.97-.25.72-.72 11.07v1.44l.24 1.44c-.21 1.92-.85 2.88-1.92 2.88-.98-.36-1.55-.84-1.69-1.45 1.23-17.32 2.11-25.98 2.64-25.98l1.21-.72zm35.35 0h.17c1.56 0 2.6 1.52 3.13 4.57l-.37.48h-.18l-1.48-.48c-4.03.59-8.26 3.4-12.68 8.42-1.23 2.18-1.84 3.7-1.84 4.57v.96c0 2.56 2.63 4.16 7.91 4.8 3.3 0 5.81-1.77 7.52-5.29l-2.19-.95c-.82 0-3.09.96-6.8 2.88-.37-.82-.55-1.63-.55-2.41v-.25c0-2.56 2.45-4.32 7.34-5.29h.37c2.81 0 4.22 1.84 4.22 5.54 0 3.8-3.12 7.17-9.37 10.1l-2.2.48c-3.97 0-6.67-1.68-8.09-5.05l-.37-3.13c0-7.26 3.73-13.44 11.2-18.53 1.88-.97 3.3-1.45 4.23-1.45zm45.04-4.45c1.07.26 1.61.91 1.61 1.97v.28c-1.51 20.04-2.6 30.06-3.25 30.06l-.32.28h-.99c-1.13 0-1.88-.47-2.27-1.41.43-2.67.65-6.42.65-11.24h-.33l-13.64 2.82-.99 1.13v5.33c0 1.59-.65 2.72-1.95 3.38h-.65c-1.21 0-1.96-.47-2.27-1.41 1.51-20.23 3.68-30.34 6.51-30.34h.65l.97 1.12c-1.51 6.72-2.27 11.68-2.27 14.89 9.96-1.17 14.94-2.58 14.94-4.22l1.3-11.8 2.28-.84zm22.07 4.5c.81.17 1.21.79 1.21 1.84-.25 1.99-1.06 2.99-2.4 2.99-8.84 0-13.26 1.23-13.26 3.69l-.24 2.07v1.14c5.76-1.39 9.7-2.08 11.81-2.08h.48c.81.35 1.21 1.12 1.21 2.3 0 1.69-1.13 2.54-3.38 2.54-7.39.96-11.09 2.12-11.09 3.47l-.23 2.3v.913c0 1.38.88 2.15 2.63 2.3 2.76-.3 6.22-.994 10.37-2.07h.72c.64.25.96.79.96 1.62v.69c0 1.886-4.02 3.345-12.06 4.376h-.72c-2.9 0-4.5-1.84-4.82-5.52 0-2.7.56-7.85 1.69-15.43l-.48-1.39c0-3.11 4.81-4.95 14.45-5.52l3.12-.23zm14.31-.05h2.42c3.72 0 5.57 1.29 5.57 3.88v.24c0 4.53-3.88 8.66-11.64 12.37v.23c3.88 3.56 7.12 6.23 9.71 8.01v.72c0 1.25-.41 2.06-1.22 2.43h-.97l-13.33-9.46-.25 4.85v3.64c-.41.81-1.06 1.21-1.93 1.21-.65 0-1.13-.32-1.46-.96v-1.46l2.18-18.93c-.65 0-.97-.48-.97-1.45 0-2.91 2.42-4.61 7.26-5.09l4.61-.24zm-8.48 13.09h.24c8.39-2.15 12.58-4.5 12.58-7.03v-.24c0-.45-.81-.77-2.42-.97-2.68 0-5.91.56-9.68 1.7l-.72 6.54zm31.83-13.09c5 .69 7.5 3.68 7.5 8.98 0 6.94-2.75 12.68-8.23 17.23-2.27 1.29-4.29 1.93-6.07 1.93-4.35 0-7.15-2.35-8.4-7.03l-.17-2.18v-.74c0-7.57 3.45-13.31 10.37-17.23 1.73-.65 3.4-.97 4.99-.97zm-13.05 18.93c1.81 2.74 4.19 4.11 7.16 4.11 4.77 0 8.1-2.83 10-8.49l.35-2.67c0-3.99-1.96-6.33-5.89-7.03h-.55c-3.24 0-6.64 3.23-10.18 9.7-.6 1.94-.9 3.4-.9 4.37zm31.05-18.94h1.07c5.1 0 8.22 2.02 9.37 6.06l.21 1.93c0 8.05-5.96 14.68-17.89 19.9l-1.06.24h-.23c-.32 0-.6-.57-.85-1.71l2.13-20.87c-.86 0-1.28-.24-1.28-.72v-.5c0-2.58 1.13-3.87 3.41-3.87l5.11-.49zm-4.26 5.1c-1.28 8.29-1.92 13.87-1.92 16.73v1.21c8.94-4.47 13.41-8.68 13.41-12.62v-.23c0-2.28-.64-3.41-1.92-3.41-1.58-1.13-4.14-1.69-7.66-1.69h-1.92zm48.62-5.1c.83.22 1.25.79 1.25 1.7v.23c-1.17 17.31-2.01 25.96-2.5 25.96l-.27.24h-.74c-.86 0-1.45-.41-1.75-1.22.32-2.31.49-5.54.49-9.7h-.25l-10.51 2.42-.74.96v4.6c0 1.37-.5 2.34-1.51 2.92h-.49c-.94 0-1.53-.41-1.76-1.22 1.16-17.47 2.83-26.21 5.01-26.21h.49l.76.99c-1.17 5.8-1.76 10.09-1.76 12.85 7.67-1.01 11.51-2.22 11.51-3.64l1-10.19 1.76-.72zm13.68.05h.84c1.16 0 2.63 5.36 4.41 16.08 1.4 5.06 2.11 8.5 2.11 10.32-.3.96-.86 1.44-1.69 1.44-1.08 0-1.85-2.56-2.32-7.68l-.21-.23h-.21c-1.83.02-5.69 1.14-11.57 3.36-.56 3.2-1.48 4.8-2.74 4.8-.85-.33-1.27-.97-1.27-1.92 0-1.85 3.86-10.34 11.58-25.46l1.05-.72zm-.43 6.71c-1.69 3.04-3.23 6.25-4.64 9.61h1.48c1.43 0 3.26-.33 5.48-.97l-1.9-8.65h-.42zm18.97-6.77h1.07c5.1 0 8.22 2.02 9.37 6.06l.21 1.93c0 8.05-5.96 14.69-17.89 19.9l-1.06.25h-.23c-.32 0-.6-.57-.85-1.71l2.12-20.87c-.86 0-1.29-.24-1.29-.72v-.5c0-2.58 1.14-3.87 3.41-3.87l5.12-.49zm-4.25 5.1c-1.28 8.3-1.92 13.88-1.92 16.74v1.21c8.94-4.47 13.41-8.68 13.41-12.62v-.23c0-2.28-.64-3.41-1.92-3.41-1.58-1.13-4.14-1.69-7.67-1.69h-1.92zm39.22-5.09h1.07c5.1 0 8.22 2.02 9.37 6.06l.21 1.93c0 8.05-5.96 14.68-17.89 19.9l-1.05.25h-.23c-.32 0-.6-.57-.85-1.71l2.13-20.87c-.86 0-1.29-.24-1.29-.72v-.49c0-2.58 1.13-3.87 3.41-3.87l5.11-.5zm-4.25 5.1c-1.28 8.3-1.92 13.87-1.92 16.73v1.21c8.94-4.47 13.41-8.68 13.41-12.62v-.23c0-2.28-.64-3.41-1.92-3.41-1.59-1.13-4.14-1.69-7.67-1.69h-1.92zm20.55-5.17h1.65c.55 0 .83.32.83.97-1.29 10.52-1.94 17.82-1.94 21.9v2.67c-.36 1.78-1.28 2.67-2.74 2.67h-.55l-1.11-.97c.73-11.04 1.65-19.8 2.76-26.28l1.09-.97zm22.92.12c.81.17 1.21.79 1.21 1.84-.26 1.99-1.06 2.99-2.41 2.99-8.84 0-13.26 1.23-13.26 3.69l-.25 2.07v1.14c5.76-1.38 9.7-2.08 11.81-2.08h.47c.81.36 1.21 1.12 1.21 2.31 0 1.69-1.13 2.53-3.38 2.53-7.4.96-11.09 2.11-11.09 3.46l-.23 2.31v.91c0 1.38.88 2.15 2.63 2.3 2.76-.31 6.22-1 10.37-2.08h.72c.64.24.96.78.96 1.61v.68c0 1.884-4.02 3.343-12.06 4.374h-.72c-2.9 0-4.5-1.84-4.82-5.52 0-2.71.56-7.85 1.68-15.434l-.48-1.39c0-3.112 4.81-4.952 14.45-5.514l3.13-.23zm10.6-.06h1.07c5.1 0 8.22 2.02 9.37 6.07l.21 1.93c0 8.05-5.96 14.68-17.89 19.9l-1.06.24h-.23c-.32 0-.6-.57-.84-1.71l2.12-20.87c-.85 0-1.28-.24-1.28-.72v-.5c0-2.58 1.14-3.87 3.41-3.87l5.12-.49zm-4.26 5.1c-1.27 8.3-1.91 13.88-1.91 16.74v1.21c8.94-4.46 13.41-8.67 13.41-12.62v-.23c0-2.27-.64-3.41-1.92-3.41-1.59-1.12-4.14-1.69-7.67-1.69h-1.91zm18.14 17.05c1.57 0 2.55.96 2.94 2.87 0 1.91-1.37 2.95-4.11 3.13-1.38-.52-2.06-1.38-2.06-2.6v-.27c.54-2.09 1.62-3.13 3.23-3.13z" fill="#000"/><path d="M986.442 397.094l6.55 26.146L981.578 535l-44.01-15.64c14.588-54.393 20.336-99.197 48.872-122.266z" stroke="#050202" stroke-width="4.067" fill="#ACF"/><path d="M985.158 357.23c0 19.022 6.704 37.265 18.637 50.715 11.934 13.45 28.12 21.007 44.995 21.007 35.143 0 63.632-32.11 63.632-71.722 0-39.612-28.49-71.723-63.632-71.723-16.876 0-33.06 7.556-44.995 21.007-11.933 13.45-18.637 31.693-18.637 50.716z" stroke="#000" stroke-width="4.067" fill="#502D16"/><path d="M1113.48 397.094l-6.548 26.146L1118.344 535l44.008-15.64c-14.588-54.393-20.335-99.197-48.872-122.266z" stroke="#050202" stroke-width="4.067" fill="#ACF"/><path d="M980.976 550.626c-4.612 59.202-8.44 77.395 2.61 89.62 35.18 18.325 108.032 26.558 135.31-9.38 13.335-31.194-7.484-28.653-4.33-80.24 16.777-101.413 9.587-192.26-68.25-193.602-68.595-1.182-83.044 89.57-65.34 193.602z" stroke="#050202" stroke-width="3.753" fill="#06F"/><path d="M1001.757 338.836c0 15.312 4.99 29.996 13.873 40.822 8.883 10.827 20.93 16.91 33.494 16.91 12.563 0 24.61-6.083 33.494-16.91 8.883-10.826 13.874-25.51 13.874-40.822 0-15.31-4.99-29.995-13.874-40.822-8.883-10.827-20.93-16.91-33.494-16.91-12.563 0-24.61 6.083-33.494 16.91-8.883 10.827-13.873 25.51-13.873 40.822z" stroke="#050202" stroke-width="3.965" fill="#E6C2AA"/><path d="M1057.475 327.214c0 2.385 1.937 4.32 4.327 4.32 2.39 0 4.327-1.935 4.327-4.32 0-1.145-.46-2.244-1.27-3.053-.81-.81-1.91-1.26-3.06-1.26s-2.25.46-3.06 1.27-1.27 1.91-1.27 3.06zm-28.022.503c0 2.385 1.937 4.32 4.327 4.32 2.39 0 4.327-1.935 4.327-4.32 0-1.145-.456-2.244-1.267-3.053-.812-.81-1.912-1.265-3.06-1.265-1.148 0-2.248.45-3.06 1.26-.81.81-1.267 1.91-1.267 3.05z" fill="#000"/><path d="M1071.37 390.92c-12.784 8.997-42.563 5.44-48.596-.817-25.952 69.18.298 263.03-1.67 263.03 13.25 1.222 40.17 4.045 50.327 2.27-2.84.11 22.35-190.1-.06-264.483z" stroke="#000" stroke-width="3.953" fill="#ACF"/><path d="M1071.634 353.544c-6.1 5.933-44.51 2.162-47.832-.665-3.32-2.83 15.13 23.01 24.666 22.95 9.535-.06 29.264-28.23 23.166-22.29z" stroke="#000" stroke-width="4.067" fill="#FFD5D5"/><path d="M1021.32 265.766c-35.598 5.887-48.716 90.118-38.438 144.633 1.827 8.66 13.49 10.51 20.318 6.64 6.044-2.64 7.263-9.48 7.597-15.34-.376-10.05-11.14-64.4 3.725-90.24 14.865-25.84 66.037-20.1 74.282 3.67 8.245 23.77-5.367 88.59 2.334 103.55 7.178 8.98 24.76 4.69 25.91-7.1-2.266-17.24 5.576-86.5 2.88-100.67-2.696-14.17-16.174-36.51-27.766-40.88-26.535-10.02-35.243-10.19-70.84-4.3z" stroke="#050202" stroke-width="3.962" fill="#ACF"/><path d="M1106.586 284.035c2.56 4.214 8.983 9.584 8.407 14.737l-123.956.586c1.935-4.612 2.59-9.428 8.41-16.318l107.14.995z" stroke="#000" stroke-width="3.956" fill="#06F"/><path d="M1158.078 522.436c-2.072 6.46-.524 11.183-5.46 26.563-4.805 14.96-6.234 29.44-20.983 25.62-8.22-2.13-16.05-17.92-7.09-24-5.137 3.1-13.35 11.23-15.98 8.4-3.843-4.14-4.074-12.57 6.36-18.07 2.55-1.35 1.346-2.24 3.487-3.2.323-.65 3.4-2.73 4.04-3.1 10.93-6.32 29.87-10.87 35.626-12.24zm-216.233 0c2.072 6.46.524 11.183 5.46 26.563 4.805 14.96 6.234 29.44 20.983 25.62 8.22-2.13 16.05-17.92 7.09-24 5.137 3.1 13.35 11.23 15.98 8.4 3.843-4.14 4.074-12.57-6.36-18.07-2.55-1.35-1.346-2.24-3.488-3.2-.322-.65-3.4-2.73-4.04-3.1-10.93-6.32-29.87-10.87-35.625-12.24z" stroke="#050202" stroke-width="4.067" fill="#E6C2AA"/><path d="M863.15 397.097c-.896 14.876-.34 31.347 8.775 43.815-2.054 31.206-27.592 68.776-52.223 78.118 21.396-6.353 21.987 25.384 26.11 43.208 4.913 13.678 50.696-8.86 47.925 5.264-10.67 50.193 28.15 89.786 30.2 137.633 8.277 1.347 17.155 5.817 24.45 9.872-1.472-17.143 7.69-46.036 5.802-54.194-.34-8.948-8.19-20.48-7.61-26.774 4.5 14.44 9.4 30.61 13.43 46.1 2.63 10.12-3.74 34.63 4.62 32.37 11.43 1.29 24.14 9.61 34.01 11.96-2.93-16.15 8.04-70.31 13.68-86.09-1.38 4.12-9.02 36.79-9.64 40.86 3.88-1.51 3.49-.28 8.41-1.04 5.43 3.91 4.23 27.15 1.2 33.07 3.68 2.4 17.29 3.46 20.82 6.07 12.53-3.46 11.36-31.05 8.64-41.18 19.07-9.35 10.14-33.79 22.29-51.63-4.25 6.55-8.54 17.26-8.77 29.3-1.45 8.87-12.03 59.61-.15 54.33 19.04-4.7 22.85 5.95 24-8 10.43-49.66 60.02-92.47 30.38-143.24-29.81-37.54-76.72-18.51-116.42-9.3-38.38 8.32-36.36-48.62-40.72-75.64 1.32-11.66 14.36-15.81 19.84-25.11 12.07-16.4 19-36.73 18.42-57.16-23 5.36-39.52 25.45-46.77 47.09-9.49 20.51-45.08 18.78-51.32-5.24-5.16-21.18-8.35-44.51-23.75-61.16 0 0-4.32 17.76-5.67 26.67z" stroke="#000" stroke-width="3.5" stroke-linecap="round" stroke-linejoin="round" fill="#A05A2C"/><path d="M884.688 539.69c0 7.694-4.03 15.073-11.2 20.513-7.17 5.44-16.894 8.497-27.035 8.497-10.14 0-19.865-3.056-27.036-8.497-7.17-5.44-11.198-12.82-11.198-20.513 0-7.694 4.02-15.073 11.19-20.514 7.17-5.44 16.89-8.497 27.03-8.497s19.86 3.05 27.03 8.49c7.17 5.44 11.2 12.82 11.2 20.51z" stroke="#000" stroke-width="3.106" fill="#FFD5D5"/><path d="M918.31 716.764c-.096.272-.194.532-.29.81-4.207 12.055-.55 13.818 11.59 14.972-13.15-1.25-15.467-3.64-11.3-15.782zm-44.97-273.15c-1.054-3.506-3.63-6.456-5.693-9.58 1.49 3.564 3.367 6.8 5.694 9.58zm-.53 5.376c-1.333 1.172-2.628 2.352-3.886 3.544.115-.1.23-.205.344-.306 1.42-1.238 2.71-2.146 3.542-3.238zm40.162-.04c.677.1 1.36.187 2.053.254.503-.133 1.036-.28 1.593-.44-1.257.14-2.476.198-3.646.186zm-44.14-78.528c-.29-.313-.56-.636-.86-.945-.09.3-.178.614-.266.92.176-.047.357-.083.55-.085.183-.002.377.038.576.11z"/><path d="M1050.328 709.77c-1.686 2.38-1.93 5.43-2.85 8.145-1.126 4.018-1.698 8.19-3.185 12.092 6.825 6.854 38.59 13.19 38.033-1.856-1.126-6.34-.89-14.36-5.463-19.36-6.187-3.1-20.755-3.53-26.535.98z" stroke="#000" stroke-width="3.5" fill="#520"/><path d="M872.18 391.635c-.294 6.608-6.17 36.677 5.636 37.548 11.66-4.924-5.637-37.548-5.637-37.548z" stroke="#000" stroke-width="3.5" fill="#FFD5D5"/><path d="M949.127 478.933c-1.54 7.314-2.023 12.144 2.72 22.857 4.745 10.712 11.076 30.75 17.5 43.724 6.424 12.973-.658 46.36-4.883 54.2-4.225 7.84 10.024 7.81 13.543 2.552 10.327-11.677 3.095-22.328 6.594-43.11 3.5-20.783-6.2-50.907-13.17-76.035-2.14-6.45-3.26-21.58-8.89-23.17-5.63-1.59-11.86 11.67-13.4 18.99zm160.143 78.1c11.846 34.307 8.23 74.435-9.71 105.29-3.28 4.457-8.44 19.776-1.598 23.87 5.97 3.57 11.96-2.082 17.69-11.076 18.554-32.875 13.435-70.442.366-104.22-1.613-4.112-5.1-9.765-6.748-13.863zm-97.217 155.4c-4.11 6.79-6.545 15.678-5.79 23.715 7.542 3.26 23.35 3.688 26.93-4.704.52-2.234 3.933-12.145 2.9-14.128-4.272-3.288-18.558-7.323-24.04-4.882zm-61.753 25.12c2.94 6.903 45.726 4.106 48.914-1.65 7.673-13.85-21.604-20.723-28.865-22.775-14.91-6.41-17.43 13.143-20.05 24.424zm-26.868-29.908c-11.8 18.373-8.508 25.342 14.69 25.657 1.716.59 3.86.157 5.615-.362 1.254-.858 5.657-14.423 4.91-16.635-7.252-4.403-16.323-14.25-25.215-8.66zm17.374-280.225c-6.85-12.434-22.4-7.94-33.865-5.824-11.16-2.677-10.13 8.397-13.48 15.895-1.85 2.25-5.84 1.3-7.16 4.17 4.23 29.63 63.08 11.29 54.51-14.23z" stroke="#000" stroke-width="3.5" fill="#520"/><path d="M879.778 602.028c1.752 2.973-1.398-2.368 0 0zM888.97 472.4c-2.092 3.464-5.61 5.172-7.855 3.815-2.245-1.358-2.37-5.265-.275-8.728 2.093-3.463 5.61-5.17 7.855-3.814 2.245 1.358 2.37 5.265.276 8.728zm25.756 7.315c-1.098 3.895-4.034 6.476-6.56 5.765-2.525-.71-3.683-4.445-2.585-8.34 1.1-3.895 4.04-6.476 6.56-5.765 2.53.71 3.69 4.445 2.59 8.34z" fill="#000"/><path d="M885.793 562.368c20.916 1.127 37.48-12.53 47.815-27.99" stroke="#000" stroke-width="3.5" stroke-linecap="round"/><path d="M977.76 405.948c-5.11 5.608-32.366 27.796-22.6 37.23 13.89 4.22 22.6-37.23 22.6-37.23z" stroke="#000" stroke-width="3.5" fill="#FFD5D5"/><path d="M875.667 563.99c24.062-9.096 29.536-35.59 25.606-42.998" stroke="#000" stroke-width="3.5" stroke-linecap="round"/><path d="M918.31 716.764c-.096.272-.194.532-.29.81-4.207 12.055-.55 13.818 11.59 14.972-13.15-1.25-15.467-3.64-11.3-15.782zm-44.97-273.15c-1.054-3.506-3.63-6.456-5.693-9.58 1.49 3.564 3.367 6.8 5.694 9.58zm-.53 5.376c-1.333 1.172-2.628 2.352-3.886 3.544.115-.1.23-.205.344-.306 1.42-1.238 2.71-2.146 3.542-3.238zm40.162-.04c.677.1 1.36.187 2.053.254.503-.133 1.036-.28 1.593-.44-1.257.14-2.476.198-3.646.186zm-44.14-78.528c-.29-.313-.56-.636-.86-.945-.09.3-.178.614-.266.92.176-.047.357-.083.55-.085.183-.002.377.038.576.11z"/><path d="M879.778 602.028c1.752 2.973-1.398-2.368 0 0zM888.97 472.4c-2.092 3.464-5.61 5.172-7.855 3.815-2.245-1.358-2.37-5.265-.275-8.728 2.093-3.463 5.61-5.17 7.855-3.814 2.245 1.358 2.37 5.265.276 8.728zm25.756 7.315c-1.098 3.895-4.034 6.476-6.56 5.765-2.525-.71-3.683-4.445-2.585-8.34 1.1-3.895 4.04-6.476 6.56-5.765 2.53.71 3.69 4.445 2.59 8.34zm-87.61 62.375c-.873 3.95-3.658 6.694-6.22 6.127-2.562-.566-3.93-4.228-3.056-8.18.873-3.95 3.658-6.694 6.22-6.128 2.562.56 3.93 4.22 3.056 8.18zm23.354 8.347c-1.097 3.895-4.033 6.476-6.56 5.765-2.524-.71-3.682-4.445-2.585-8.34 1.097-3.895 4.034-6.476 6.56-5.765 2.525.71 3.682 4.446 2.585 8.34z" fill="#000"/><path d="M1062.005 510.362c-13.877-1.113-26.713 1.186-36.36 5.855-5.984-5.437-14.26-9.127-23.614-9.877-19.77-1.586-36.87 10.576-38.2 27.154-1.33 16.58 13.62 31.312 33.39 32.898 9.36.75 18.11-1.573 24.89-5.986 8.78 6.147 21.08 10.507 34.96 11.62 8.99.722 17.56-.023 25.09-1.89 7.14 3.036 15.46 5.143 24.43 5.863 28.25 2.26 52.27-9.73 53.64-26.75 1.37-17.03-20.44-32.65-48.69-34.92-8.97-.72-17.51-.01-25.04 1.85-7.14-3.05-15.48-5.1-24.47-5.82z" stroke="#000" stroke-width="4.709" fill="#FFF"/><path d="M1024.424 537.22c-.876 10.92-12.51 18.894-25.985 17.813-13.48-1.08-23.69-10.81-22.82-21.728.87-10.92 12.51-18.896 25.98-17.815 13.47 1.08 23.69 10.81 22.81 21.73z" stroke="#000" stroke-width="2.145" fill="#E6C2AA"/><path d="M994.015 537.84c-.145 1.816-1.86 3.16-3.832 3.002-1.972-.158-3.45-1.758-3.306-3.574.07-.872.513-1.678 1.232-2.24.71-.564 1.65-.838 2.6-.762.94.076 1.82.495 2.44 1.166.62.67.93 1.536.86 2.408zm5.865-11.168c-.146 1.816-1.862 3.16-3.833 3.002-1.97-.158-3.45-1.758-3.305-3.574.07-.872.513-1.678 1.232-2.24.718-.564 1.654-.838 2.6-.762.947.076 1.827.495 2.447 1.166.62.67.93 1.536.86 2.408z" fill="#000"/><path d="M997.598 545.05c9.187-2.207 17.502-5.146 14.178-17.863" stroke="#000" stroke-width="2.034"/><path d="M1122.707 504.154c-8.256-2.02-17.256 4.88-24.374 19.448-6.738 13.793-16.712 24.218-4.024 32.045 7.07 4.362 23.58-.75 21.85-11.16 1.27 5.708 1.04 16.97 4.83 16.917 5.54-.078 11.69-5.59 8.54-16.646-.77-2.702-.52-5.356-1.29-7.508.24-.664.49-1.333.66-2.032 3.89-15.725 2.05-29.044-6.21-31.064z" stroke="#050202" stroke-width="4" fill="#DEAA87"/><path d="M1150.376 396.677l6.42 25.512-32.094 109.7-35.943-17.86c14.29-53.08 33.65-94.85 61.61-117.36z" stroke="#050202" stroke-width="4" fill="#D45500"/><path d="M1302.744 504.154c8.257-2.02 17.256 4.88 24.374 19.448 6.738 13.793 16.712 24.218 4.025 32.045-7.072 4.362-23.59-.75-21.853-11.16-1.27 5.708-1.045 16.97-4.835 16.917-5.542-.078-11.69-5.59-8.542-16.646.77-2.702.52-5.356 1.29-7.508-.243-.664-.495-1.333-.668-2.032-3.896-15.725-2.048-29.044 6.21-31.064z" stroke="#050202" stroke-width="4" fill="#DEAA87"/><path d="M1147.222 358.95c0 18.873 6.68 36.972 18.572 50.316 11.89 13.345 28.02 20.842 44.836 20.842 35.02 0 63.408-31.858 63.408-71.157 0-39.29-28.39-71.15-63.408-71.15-16.817 0-32.945 7.5-44.836 20.84-11.89 13.35-18.572 31.45-18.572 50.32z" stroke="#000" stroke-width="4" fill="#502D16"/><path d="M1275.075 396.677l-6.418 25.512 32.092 109.7 35.94-17.86c-14.3-53.08-33.65-94.85-61.62-117.36z" stroke="#050202" stroke-width="4" fill="#D45500"/><path d="M1212.174 720.678c0 4.737 3.45 9.28 9.588 12.628 6.138 3.35 14.464 5.23 23.146 5.23s17.008-1.88 23.147-5.23c6.138-3.35 9.587-7.89 9.587-12.628 0-9.863-14.655-17.858-32.734-17.858-18.08 0-32.734 7.995-32.734 17.858zm-77.664 2.552c0 4.736 3.45 9.278 9.59 12.627 6.137 3.35 14.463 5.23 23.145 5.23s17.008-1.88 23.147-5.23c6.138-3.35 9.587-7.89 9.587-12.627 0-9.863-14.66-17.86-32.74-17.86-18.08 0-32.74 7.997-32.74 17.86z" stroke="#050202" stroke-width="4" fill="#2B1100"/><path d="M1126.965 536.816c-5.312 57.704-13.83 155.543-1.1 167.46 40.528 17.86 135.08 24.402 166.502-10.627 15.363-30.41 2.52-103.85 6.155-154.13 7.352-101.74-2.75-180.56-91.68-181.75-75.67-1.01-84.808 77.64-79.877 179.04z" stroke="#050202" stroke-width="4" fill="#D45500"/><path d="M1164.024 340.775c0 15.19 4.973 29.76 13.824 40.5 8.852 10.74 20.858 16.776 33.376 16.776 12.52 0 24.524-6.03 33.376-16.77 8.852-10.74 13.825-25.31 13.825-40.5 0-15.19-4.973-29.76-13.825-40.5-8.852-10.74-20.857-16.77-33.376-16.77-12.518 0-24.524 6.04-33.376 16.78-8.85 10.74-13.824 25.31-13.824 40.5z" stroke="#050202" stroke-width="3.9" fill="#DEAA87"/><path d="M1221.315 328.582c0 2.366 1.93 4.284 4.312 4.284 2.38 0 4.31-1.918 4.31-4.284 0-1.136-.453-2.226-1.26-3.03-.81-.803-1.907-1.254-3.05-1.254-1.144 0-2.24.45-3.05 1.254-.808.804-1.262 1.894-1.262 3.03zm-28.692.49c0 2.367 1.93 4.285 4.312 4.285 2.38 0 4.312-1.918 4.312-4.284 0-1.137-.455-2.226-1.263-3.03-.81-.803-1.906-1.255-3.05-1.255-1.143 0-2.24.452-3.048 1.255-.808.804-1.263 1.893-1.263 3.03z" fill="#000"/><path d="M1227.696 375.39h-32.977l-6.93 341.755c12.94 1.288 32.29 2.33 42.21.46l-2.31-342.215z" stroke="#000" stroke-width="4" fill="#2CA02C"/><path d="M1210.8 414.743c19.038-.05 37.06-43.186 37.06-43.186 20.02-38.054-91.07-33.08-72.737 2.066 0 0 17.464 41.17 35.676 41.12z" stroke="#000" stroke-width="4" fill="#502D16"/><path d="M1234.063 361.76c-5.977 5.788-43.623 2.108-46.878-.65-3.255-2.76 14.83 22.453 24.174 22.398 9.34-.055 28.68-27.54 22.7-21.75z" stroke="#000" stroke-width="4" fill="#DEAA87"/><path d="M1126.368 523.717l172.53.163c-2.172 6.185-1.142 15.017-.49 22.607l-171.387-.324-.65-22.446z" stroke="#000" stroke-width="3.895" fill="#520"/><path d="M1184.753 268.532c-34.89 5.744-47.745 87.934-37.67 141.127 1.79 8.45 13.22 10.25 19.91 6.48 5.924-2.58 7.12-9.25 7.446-14.97.96-13.77-6.41-76.7 3.65-88.05 10.05-11.36 63.83-8.61 72.8 3.58 8.96 12.19-5.26 85.77 2.28 101.04 7.03 8.76 24.27 4.58 25.39-6.92-2.23-16.83 5.46-84.41 2.82-98.23-2.64-13.82-15.85-35.62-27.21-39.89-26.01-9.78-34.54-9.94-69.43-4.19z" stroke="#050202" stroke-width="3.897" fill="#2CA02C"/><path d="M1270.113 288.54c2.652 6.538 10.69 15.902 10.093 23.896l-128.456.91c2.004-7.155 3.03-13.08 9.06-23.768l109.303-1.037z" stroke="#000" stroke-width="4" fill="#520"/></g></svg>