<svg width="1540" height="820" viewBox="0 0 1540 820" xmlns="http://www.w3.org/2000/svg" xmlns:xlink="http://www.w3.org/1999/xlink" style="background:#2D32FD"><title>story11</title><defs><path d="M743.61 612.718c-.752 1.016-.055.32-1.072 1.025-2.575 3.452-6.542 8.67-11.37 9.76-1.237-2.518-2.51-5.072-3.784-7.572-4.086.31-10.38 1.32-12.44-1.62-8.87-14.61-.14-14.32 6.476-22.74.348.21.696.38 1.108.56 1.622 5.57 4.25 7.46 9.17 9.74.927-3.26 2.108-11.57 4.335-14.08 2.51.2 5.04.37 7.55.58 1.557 9.65-.633 15.36-6.478 19.98.165.36.348.74.54 1.1 1.997 1.07 3.967 2.18 5.965 3.28zm-54.082-51.996c-13.743 1.245-25.02-.75-35.208.55-1.87 7.864-5.488 9.137-9.712 14.08-2.336-2.334-4.68-4.687-7.027-7.022 1.95-4.312 4.32-9.348 8.65-11.334 6.48-.733 12.96-1.456 19.46-2.17 6.38-2.417 7.96-10.942 12.96-14.613 4.7-1.245 9.37-2.518 14.1-3.79.54-.87 1.07-1.795 1.61-2.692.9.36 1.79.72 2.7 1.1-4.17 6.77-2.97 8.25-2.18 17.88-3.65 1.88-3.97 3.69-5.34 8.02zm1338.048 948.366c-7.686 1.062-11.397 4.22-16.225 5.97H1987c-8.677 1.502-19.085 5.576-30.244 3.772-8.383-1.318-12.002-5.274-18.406-6.995-12.075-.165-24.14-.375-36.234-.577-13.697-5.96-20.907-5.96-28.136-5.96-4.168-1.73-9.858-5.52-15.666-6.473-.037-8.277-5.937-12.004-8.072-17.845-1.896-5.072-1.51-9.86-2.757-13.532-17.847-5.86-26.77-2.48-35.163.513-.934 4.34-13.165 11.52-16.757 14.62-7.393-.78-10.8-6.16-16.738-8.13-10.73-3.59-19.66-3.28-28.65-8.65-4.03-4.85-7.997-9.76-11.927-14.58-7.687-5.52-21.026-4.71-26.523-12.47-4.645-6.58-13.56-21.66-16.226-28.65v-8.65c-2.39-5.7-10.93-11.94-14.6-17.83-6.47 2.48-17.29 3.41-20.52-2.7-1.52-1.86-1.74-4.63-1.65-8.12-8.44 2.89-7.78 8.36-12.44 13-5.63-.18-17.75.31-20.02 3.23.74 3.44 1.46 6.86 2.18 10.27-5.64 2.17-7.41 4.34-9.22 6.51 16.74 16.18 24.29 30.8 30.3 46.52 8.03 4.22 7.24 4.13 10.28 6.51 3.7 8.47 15.85 7.64 21.1 14.6-2.71 8.29-1.6 10.11-.54 11.9-3.87 9.58-1.68 10.38 1.07 19.47 7.11 11.2 12.42 24.16 16.26 29.21 5.15.45 4.92-1.64 4.3-7.6-4.16-10.09-1.09-29.52 5.97-34.59 8.86 6.45 10.42 26.84 10.3 29.23-.35 7.54-9.63 10.81-6.51 18.39 11.72 6.6 16.52 7.6 22.74 7.03 9.72-.36 36.96.06 43.26-2.17 10.31-6.38 11.66-5.52 14.61-8.11 1.97-3.76 4-7.55 5.97-11.35 8.19-10.5 16.89-15.06 26.51-22.7 3.76-4.87 7.56-9.75 11.34-14.61 1.45 9.58-.5 13.69-4.29 19.47 6.87 6.07 4.2 13.37 5.94 18.93 2.32 7.41 11.79 16.95 17.88 21.09 7.54 4.13 15.13 8.3 22.71 12.42 5.22 1.25 10.04-2.27 14.08.57 5.41 6.83 10.82 13.7 16.23 20.53 3.65 3.35 12.49 5.24 13.53 10.81-3.84 7.41-8.49 14.29-13.53 20.58-3.59 3.38-7.21 6.82-10.82 10.27-3.18 5.31-3.78 14.27-8.65 17.88-4.13 2.34-9.82-1.54-14.6.54-3.18 9.84-1.34 25.81-2.13 35.7-13.59.52-25.62 3.27-29.73 13.54-1.51 3.7-1.04 7.46-3.83 9.73-7.45 6.12-15.09.53-23.21 4.31-7.89 3.66-5.4 13.37-9.21 21.06-12.44 3.1-18.4 2.38-24.39 1.66-10.26 3.42-20.54 6.86-30.83 10.3-6.01 2.49-15.35 8.68-17.84 14.6-2.6 6.15-1.24 10.28-6.51 13.53-18.9 11.71-45.13 11.68-65.41 22.72-5.57 3.05-7.15 10.48-12.99 13.55-5.58 2.94-12.84-.57-19.48 1.61-9.78 3.22-18.34 11.32-29.18 14.58-6.95 2.13-17.41-1.27-25.44 1.11-4.85 3.97-9.71 7.95-14.6 11.89-14.39 9.25-38.93 12.53-47.04-4.86v-18.4c-4.44-12.1-11.52-27.57-14.06-42.19-.86-5.03 2.03-7.47 2.73-10.82-.93-5.77-1.86-11.52-2.73-17.29-3.39-9.47-12.7-23.16-20.01-29.23-2.92-2.1-5.75-4.3-8.67-6.47-7.58-15.53-15.17-31.01-22.74-46.54-6.28-7.64-19.46-9.17-25.43-17.3-4.3-6.14-8.64-12.26-12.95-18.39-4.51-12.24 1.27-28.08-4.33-38.93-5.56-10.09-11.2-20.2-16.74-30.29-8.63-8.36-20.41-11.1-27.59-21.08 3.44-15.92-6.95-25.14-14.09-35.14-9.43-13.3-16.58-26.13-25.38-40.59-4-5.03-7.96-10.1-11.9-15.12-8.3-10.88-3.06-23.49-1.12-35.19-10.68-18.57-16.99-34.41-23.28-50.29 8.03-6.71 11.12-17.24 14.6-28.67.71-3.63 1.44-7.21 2.17-10.81 8.36-14.55 13.53-36.95 25.94-49.21-4.75-11.52.92-18.38-6.51-28.17 2.2-3.87 4.45-8.15 5.43-12.97-1.43-2.52-2.88-5.06-4.34-7.58 3.13-3.97 7.46-6.11 10.86-9.74-1.66-4.69-2.73-6.15-3.78-7.59-5.24 4.05-9.3 6.51-12.48 9.74-9.31-1.23-12.6-5.85-24.32-5.96-4.67 5.38-9.97 7.13-13.53 14.06-6.8 1.6-20.9 7.27-32.45 3.83-8.1-2.43-11.08-10.56-17.29-14.61-8.47-5.53-20.94-8.53-33.01-7.03-1.27 6.13-2.54 12.26-3.78 18.39-9.05-3.21-20.19 1.55-28.62-1.09-2.18-5.05-4.34-10.09-6.51-15.14-11.59.84-11.75-1.33-18.95-1.09-11.74-4.9-17.53-5.42-23.31-5.96 5.23-6.66 5.07-7.41 4.86-8.1-10.98-8.91-8.89-14.38-9.19-19.49-7.64-2.05-9.98-4.86-18.94-5.97.86-5.78 1.81-7.76 2.72-9.74 6.73-3.53 5.31-6.02 5.98-8.16 1.54-9.63 3.29-9.35 2.11-11.36-4.13-5.21-2.88-6.67-1.62-8.11-2.51-3.8-9.93-2.72-17.29-1.66.31-5.14 1.88-10.21 2.69-16.21 10.29-10.04 19.82-12.6 27.6-13.54 1.44 4.64 7.81 5.7 13.54 3.78 12.58-1.15 21.1-1.53 30.84 0-6.52-7.11-5.84-7.28-4.36-9.19 7.75.03 17.66-.74 23.81-2.68-14.67-4.06-18.06-4.95-20.54-7.62 11.19-5.75 19.08-5.06 27.03-4.31 14.8.1 20.17 5.8 31.91-.51 14.39-9.2 26.58-19.78 43.24-23.84 18.51-4.44 31.27 6.74 46.01-2.68 3.8 4.89 3.18 10.67 10.28 12.44 5.89 1.48 12.14-2.93 14.6-1.1 3.57 6.02 3.63 9.35 10.26 12.44 12.06-4.52 14.17 4.69 24.9 6.51 8.9 1.47 24.14 5.08 32.49 3.2 4.48-1.43 9.01-2.84 13.49-4.3 9.79-1.64 17.5 5.38 28.66 2.7 19.99-4.813 34.31-13.273 27.59-37.88-1.25-4.463-2.52-9.023-3.79-13.53-6-9.16-23.72-11.424-32.46-17.833-4.22-4.56-10-13.06-14.07-16.27-7.49-5.94-14.88-13.74-23.81-17.87-14.51-5.42-15.94-9-19.47-11.33-12.26-2.61-17.32-10.13-21.11-15.14 4.81-1.16 13.72-2.08 17.905-4.34.5-8.41 5.21-12.57 7.55-19.5 7.69-9.42 1.44-13.3-4.86-17.81 16.02-3.26 28.84-8.935 37.33-15.665-10.63-3.96-18.58-2.52-26.51-1.11-7.38 2.9-13.7 3.63-20.01 4.34-16.575 8.48-27.25 10.45-37.86 12.44-10.79 6.06-10.55 6.51-12.43 5.42-6.34 2.54-8.76 4.76-11.92 8.12-9.19.24-17.212-.8-25.943 1.62 12.28 4.6 27.14 16.02 29.24 26.523 7.97 2.13 13.84-2.6 20.01-3.27 5.41.73 10.82 1.44 16.22 2.17-.95 3.64-3.433 6.96-5.403 9.74-13.54.92-15.97-2.05-21.12-.55-2.89 2.35-5.75 4.69-8.64 7.03-28.2 6.46-17.38 13.14-41.66 8.64 9.65-24.137-4.62-21.13-21.63-24.35 5.79-8.815 21.41-11.516 27.05-17.84-19.68-6.806-33.91-2.72-42.17-14.066 5.96-6.85 5.96-7.22 5.96-7.61-43.59-2.42-35.6 14.75-52.49 24.91-5.13 3.09-15.67 2.52-12.95 11.41 2.333 9.54.32 13.69-1.62 17.84-19.23.89-21.29 16.05-24.35 33-.35 3.42-.73 6.83-1.08 10.27-11.35 9.19-13.25 14.99-14.62 22.19-4.6 1.78-5.55 3.59-8.64 6.47 7.56 3.09 15.34 25.58 22.74 29.73 5.69 3.25 14.05 2.49 17.84 7.62-1.54 3.32-3.19 5.58-5.41 8.08-13.76-.306-11.7-5.69-23.25-1.09-14.23 4.17-15.49 6.67-16.76 9.23-5.21 2.34-10.44 4.683-15.65 6.98-4.22 3.1-6.33 8.483-11.917 10.31.7-2.697 1.46-5.44 2.17-8.127 4.05-7.09-2.01-7.96-4.9-9.75-3.312-9.14-22.84.605-26.482-8.1-4.26 2.223-6.27 4.274-12.97 4.3-12.42 4.98-10.23 1.05-21.66 3.28 3.47 9.32 10.957 10.73 16.22 17.33-7.27-4.63-9.87-5.35-12.95-5.93-.83 5.84 2.29 6.22 4.31 9.74-6.69-2.17-10.33-6.19-16.78-6.48 2.46 4.947 6.17 6.16 9.19 9.76-9.82-10.91-18.22-9.96-21.59-16.78-5.76 5.897-6.89 7.34-7.06 11.33 4.56 10.1 12.2 18.4 18.94 26.53-11.37.86-10.27 3.39-9.205 5.92-2.04 5.59 26.57 20.32 27.044 25.4-1.07 3.97 0 7.39 1.11 10.83-6.06-2.023-10.89-8.212-15.2-8.68-9.19 6.63-8.84 8.86-6.99 12.97 3.01 4.42 2.15 5.2.53 8.12-6.66-5.78-9.56-6.68-12.44-7.573 3.41 10.99 7.68 16.06 8.12 27.57-12.82-.53-13.74 1.1-14.6 2.72-2.03-5.1-6.51-14.32-10.3-12.44-9.983-4.53-7.49-9.22-8.664-12.96-3.22-3.957-6.49-7.95-9.72-11.91 1.82-3.24 3.59-6.49 5.44-9.75 6.55.252 10.23-3.16 13.5-2.69 10.2 1.47 19.02 14.66 27.59 3.27-8.83-1.19-12.36-6.258-18.956-8.15-10.46-2.99-20.99 1.41-29.73 2.15-3.083-4.67-6.13-9.36-9.212-14.08 8.49-5.59 7.77-6.33 7.05-7.028-10.79 1.67-20.39-6.05-23.81-14.61-.58-2.52-1.06-5.04-1.65-7.58-3.95-5.17-13.91-6.97-16.23-13.54 2.7-4.27 1.32-5.36-.51-8.08 1.46-2.7 2.89-5.41 4.32-8.106.31-.76-1.62-16.34-1.08-20.05-.37-7.75-3.97-9.55-7.56-11.38-2.556-3.06-5.07-6.12-7.58-9.19-11.523-7.92-23.342-13.07-34.62-21.08-4.313-3.095-7.75-8.4-11.91-11.4-.95-.695-13.58-5.804-14.06-5.93-16.16-7.57-25.56-12.44-31.92-21.63-12.67-7.72 1.81-25.31-20-34.11-1.44 3.99-2.89 7.96-4.324 11.89-9.64-1.3-13.86-7.9-15.65-16.21 5.58-4.686 4.69-6.12 3.788-7.53-13.7 1.41-13.88 2.84-14.08 4.3-8 .52-17.39 3.53-21.08 5.95 1.65 12.19 3.88 12.01 6.54 15.19-1.8 3.35-4.22 4.4-6.51 7.04 3.59 17.05 10.47 21.77 23.25 29.21 3.84 2.26 8.76 3.06 11.37 6.47 3.46 4.54 3.04 12.22 5.43 17.87 3.84 9.12 14.8 19.07 21.597 25.99 7.38 7.41 31.21.23 35.21 6.46-3.39 4-4.86 6.34-7.55 8.66 28.9 9.97 49.31 24.14 65.99 40.54-1.28 3.79-2.55 7.56-3.79 11.36-3.08-2.01-6.13-3.97-9.207-5.97-7.37-10.28-19.95-7.6-19.5-15.71-9.41-1.28-16.62 13.27-16.74 22.73 5.24 2.86 10.47 5.76 15.68 8.64-1.69 3.79-1.72 7.78.54 11.38-10.87 2.91-12.38 4.99-16.23 8.65.44 3.89 1.3 6.29 0 9.19-6.71 2.13-9.15 8.62-12.46 14.08-10.25-4.34-10.25-6.487-10.25-8.657 5.78-2.52 7.12-6.216 5.41-11.91 9.46-5.99-3.07-40.78-5.9-41.65-9.75-.7-13.535-3.08-17.347-5.41 1.32-2.46 1.84-4.63 1.09-8.13-8.68-3.96-11.88-3.04-15.16-2.14-10.73-22.21-23.6-17.52-36.78-24.32-14.67-7.56-27.11-22.71-42.73-32.455-17.92-11.17-16.88-42.5-35.7-51.93-14.44-7.23-25.28-6.95-36.27 1.61-2.15 2.36-4.31 4.69-6.48 7.05-25.75 12.22-31.46 24.32-51.95 28.08-10.64 1.94-14.26-7.27-20.57-9.72-23.54.99-25.85-9.1-39.48.56-21.48 15.2-2.25 26.4-8.64 43.27-5.18 6.64-16.97 6.8-23.25 12.43-13.79 12.15-28.9 5.7-36.21 18.43-8.99 9.03-25.5 29.71-28.16 42.16 2 4.52 3.98 9.03 5.95 13.55-2.33 11.34-15.12 20.46-17.29 33.55-9.49 7.41-20.04 7.12-24.33 14.62-4.19 7.34-3.27 10.44-9.71 15.18-27.28.87-41.51.7-55.77.52-2.7 2.35-5.41 4.69-8.1 7.04-9.34 3.12-12.8 1.35-15.18 11.36-13.63 3.47-20.71-5.73-22.17-14.61-3.77-10.94-16.13-21.2-28.67-17.84-3.78 1.8-7.56 3.58-11.343 5.4-16.86-4.08-22.19-1.29-27.043 1.08-1.41-5.45 2.78-10.62 3.8-14.61 1.322-5.33-.83-10.59-2.18-12.98 1.16-5.32 2.32-10.73 3.23-15.16-11.68-.92-12.05-2.33-12.43-3.79 8.5-5.78 7.75-7.22 7.055-8.65-3.06 4.57-5.38 5.49-8.65 7.04-1.93-8.38-.63-13.78-1.1-20.57 13.88-7.5 20.01-53.52 11.89-70.36 1.49-2.5 7.18-19.32 6.51-20.55-2.28-6.99-6.04-11.33-14.08-12.96 2.7-11.946 7.37-14.254 16.23-14.6 8.13-2.877 9.22-5.79 10.29-8.655 11.78-4.66 19.72 1.82 31.38 3.76 9.28 1.57 16.2-4.49 22.74-5.96 1.44-.32 23.88 6.024 30.25 7.02 14.02 2.23 37.23 5.38 43.8-2.68 11.09 3.15 18.08 8.81 31.94 6.47 4.62-9.92 7.4-23.23 10.27-36.25-.7-11.8.37-22.46 3.78-28.63 3.45 3.58 6.325 7.21 9.2 10.8-1.83-8.28-7.034-11.63-11.33-17.31.485-4.53 2.54-7.39 4.32-10.78-6.13-13.02-4.19-7.18-15.7-12.98-3.45-4.15-6.86-8.306-10.28-12.44-1.28-8.8-8.35-11.27-11.37-15.17-16.41-13.24-31.79-16.84-44.89-15.73-2.54-5.17-6.56-4.63-8.1-7.55 7.67-7.15 7.87-7.79 9.17-10.34-11.16-.68-10.99-3.07-10.81-5.4 7.69-.06 12.44-4.92 18.94-5.41 15.697-3.58 19.5-3.97 23.28-4.34 2.35 3.09 4.69 6.14 7.03 9.24 5.92.32 18.57-2.52 23.29-4.9 5.92-2.8 6.87-8.06 7.02-15.15-5.04-2.56-8.26-9.61-9.24-16.24 7.01.75 10.91 1.02 17.3 0-.63 5.55.2 8.13 2.17 11.91 12.2-6.04 26.07 6.25 36.24-3.78 2.256-13.57 15.21-11.45 24.88-17.86 8.49-5.55 4.33-17.39 7.6-27.55 3.97-2 7.94-3.97 11.89-5.96 13.91-3.62 18.57-6.66 23.28-9.76 6.48-2.54 13.87 3.32 18.403-2.13.33-11.4 6.64-16.78 13-22.186 3.21-8.13 6.48-16.25 9.72-24.35 10.76-.32 12.56 1.32 14.09 4.32-5.2 8.61-5.2 9.95-6.5 13.02 6.28.884 9.78 3.86 14.067 1.085 2.47-3.85 5.4-3.185 6.48-9.23-6.31-5.57-5.59-6.095-4.31-8.1-7.06-6.59-7.08-8.3-5.96-13.01 8.19-2.75 24.7-11.34 35.14-7.03 1.15 2.61 4.57 4.61 6.51 6.51.48-3.95-1.54-3.44-2.17-7.58 7.2-7.43 15.76-8.17 24.88-8.12 1.21 4.02 1.66 5.84 2.16 9.19 8.38-8.76 9.75-10 11.4-15.15 7.94-6.1 8.84-6.83 9.75-7.55-5.68-6.1-8.19-4.98-9.21-8.65 7.78-9.51 2.35-12.38 1.08-16.77-1.23-4.11.19-15.37-.56-20.55-10.62-2.35-12.05-3.098-13.51-3.79 1.81-4.63 3.85-6.86 6.48-10.3-.606-8.94-7.63-15.24-1.62-24.33 14.665.92 15.31-5.36 19.47-7.577 1.104 2.51 2.13 5.02 3.23 7.57 4.35-6.13 4.864-10.67 5.44-15.18 7.74-.23 15.88-1.22 21.594 1.64.09 4.31-.045 11.4 2.695 12.95 15.5 2.98 10.68 12.35 9.72 14.12-10.26 8.25-16.94 9.31-18.93 16.23-9.747 7.75-11.86 14.9-12.95 22.7 5.97 2.12 16.42 9.81 11.37 17.88 10.14.87 10.77 4.29 15.663 5.38 12.98 0 13.53 1.08 14.09 2.14-2.78 4.524-4.82 5.41-8.66 8.644 12.79 3.8 14.79 3.8 16.76 3.8 2.63-6.57 34.04-17.147 38.95-16.78 4.05 11.69 12.1 6.77 18.95 10.3.38 3.07.73 6.13 1.07 9.193 6.04 2.352 11.05 4.69 17.87 7.04-.07-4.94-.74-6.63-1.09-12.44 30.04-2.11 47.7-16.61 72.44-24.35 5.71-1.78 24.26-6.35 23.84 1.09 2.04 2.94 3.542 5.773 4.3 10.27 15.22 5.58 22.36-2.52 33-8.1.35-4.63.79-9.77 2.14-14.08 9.63.6 23.98 3.38 30.82-.56.47-3.58-.07-4.64-1.05-7.55-.88-9.29-9.58-39.79-3.78-51.95 2.68-2.17 5.4-4.34 8.05-6.51.22-3.77.41-7.56.6-11.35 2.89-3.62 5.755-7.23 8.64-10.827 9.6-.08 13.084-4.53 22.74-4.88 3.97 6.7 7.943 9.57 11.883 12.43 1.27 3.45 2.54 6.86 3.79 10.31 8.68 8.01 24.07 2.5 27.59-6.5-4.4-15.55 1.48-24.78 3.23-38.4-13.21 2.14-15.18.83-20.01-.53.19-4.88.38-9.75.54-14.6-6.7-3.54-6.67-6.6-8.64-11.9 13.65-6.51 18.71-10.7 25.97-14.61 13.88-2.33 18.02-1.41 22.15-.55 7.45-1.24 14.99-4.43 21.65-3.24 13.21 2.41 24.58 4.97 38.4 5.93 11.63-8.07 8.68-9.2 5.97-12.43 10.14-4.71 10.03-3.68 11.37-5.96 12.05-1.43 14.11-6.53 20.5-7.05 7.03 2.2 10.91 5.66 18.98 5.94-8.486-25.68-25.25-3.9-37.86-22.14.8-3.04 4.07-9.95 1.616-9.74-10.66 4.57-22.54 8.08-27.56 12.95-15.5 0-18.57-1.08-21.63-2.12-8.28 6.8-15.33 3.19-16.78 10.25-9.63.1-17.29.89-21.66 3.24-7.53.14-10.32 1.07-14.02 5.97-14.99-.24-25.66 5.43-31.4 1.09-3.67-1.53-5.37-4.02-7.02-7.57-11.72-4.9-11.51-7.07-11.34-9.21-24.21-9.37-26.3-19.69-23.24-35.72.7-3.44 1.43-6.86 2.16-10.3-2.92-4.47-5.78-9.03-8.65-13.53.96-6.22 2.67-10.36 2.7-18.4-4.88-15.125-.78-18.05 5.38-23.805 3.9-8.72 7.43-7.99 12.44-5.94 12.14-6.23 5.89-15.83 13.53-23.807 11.62-2.25 49.51-41.36 57.86-43.76 10.51-2.71 10.88-4.39 9.75-5.96-3.24-8.2-1.47-15.24-2.7-18.42-14.93-4.97-18.27-9.49-24.87-14.64-7-.14-24.09 3.87-25.97 2.69-4.33-2.87-8.65-5.78-12.99-8.65-9.79 4.72-10.08 15.28-17.83 21.09-6.57 4.95-9.118-.7-15.68 8.14 1.94 2.48 5.73 5.55 3.78 8.64-2.04 4.4-8.5 9.37-12.95 11.333 3.85 6.19 9.02 8.56 11.9 13.02-10.19 6.052-10.7 15.34-16.73 22.715-8.47 5.75-16.97 11.53-25.41 17.3-11.43-1.13-11.46 3.84-15.71 7.05-8.99 6.74-12.12 6.72-18.9 16.23-10.14 3.53-8.44 7.46-9.75 9.75-1.81 2.34-3.62 4.68-5.43 6.99-8.11 9.7-3.37 12.31-8.11 27.06-8.16 10.5.1 32.39-3.8 35.7 6.66 1.24 8.67 3.64 11.94 4.89 10.04 7.95 16.84 15.26 27.59 16.77 1.85 6.69 5.78 7.13 5.94 15.17-6.98 2.79-24.35 16.66-31.38 12.97-5.5-2.88-28.18-10.44-31.39-7.02 9.95.23 14.4 10.3 23.8 11.92 8.99 1.5 15.12-7.3 23.83-3.82-7.45 8.5-10.68 10.46-11.88 16.28-5.41-2.72-5.41-5.43-5.41-8.12-7.24 2.74-1.21 16.72-16.25 14.05-5.59 3.44-10.65 3.61-15.69 3.82 1.13 5.465 14 20.97 5.96 27.03-4.2 7.02-2.92 7.6-1.65 8.11-1.5 3.71.84 6.37-.55 8.65-1.587 3.67-3.93 6.475-4.88 11.345-.19 3.44-.35 6.85-.55 10.29-5.07 9.17-10.1 18.37-15.17 27.57-13.243-3.39-18.73-2.66-28.13-2.72-9.31 5.93-10.46 9.99-12.43 15.12 2.08 3.27 4.74 4.86 1.65 7.59-13.3.77-22.33 5.98-35.17 3.23 1.01-5.01 2.95-6.19 4.347-11.34-6.056-4.57-10.004-11.9-13.53-18.96 5.22-4.14 5.06-5.59 4.87-7-1.957-11.83-10.47-17.48-14.6-31.42-4.025-10.53-6.8-12.75-10.82-17.81 1.58-3.99 4.45-10.02 3.753-14.1-9.74-4.12-11.34-3.96-12.97-3.77 0-6.32-.44-18.82-4.876-21.1.98-4.165 3.19-5.355 2.7-9.75-10.45 3.415-10.678-2.4-15.18-8.65 2.02-2.8 2.102-3.58 1.1-7.57-4 10.82-5.558 17.68-10.82 21.643-16.68 3.06-16.71 6.16-20.01 9.2-9.55 8.8-21.12 14.74-30.26 23.81-5.78 2.93-23.73 5.23-29.76 3.77-9.17-4.89-8.09-5.93-7.02-7.03-9.75-2.45-15.47-6.73-25.947-9.75l-4.89-9.74c1.92-3.6 3.46-5.49 2.17-9.75 8.57 1.16 10.99 4.02 14.03 5.96-2.74-5.52-1.49-4.25-5.37-7.02 2.68-5.59 5.95-7.41 9.19-9.212-5.56-4.73-3.66-5.86-2.17-9.2-2.35 2.17-4.69 4.34-7.02 6.48-13.17.9-13.34 1.83-13.53 2.72-3.43-4.15-4.18-6.67-4.87-9.23 2.18-2.51 4.32-5.01 6.48-7.53 14.027.92 17.18-.64 19.496-3.8-12.08 1.59-13.32.52-14.61-.54 6.31-4.08 7.46-7.15 8.13-11.9-9.446-.95-14.43 2.84-18.937-3.79 3.29-3.26 7.31-6.81 10.8-9.74-6.99-1.41-9.46-1.94-12.96-4.37.85-9.662 3.87-10.66 8.66-14.542-5.58-3.1-6.32-6.39-9.24-10.34 3.18-4.96 1.17-11.47 3.24-17.84 5.59-.38 11.17-.71 16.76-1.09-3.07-4.02-7.04-5.19-9.21-8.13 9.4-7.27 13.13-14.17 21.6-10.79 6.66-2.46 5.75-4.73 7.58-11.93 9.21.67 17.34 5.83 22.72-.54-6.21-1.02-12.09-3.67-13.53-9.72 13.9-2.766 24.09-3.05 31.36 0-.25-8.92 12.14-25.21 18.93-20.57 9.36-4.78 16.74-6.36 20.04-11.92.56-2.89 1.1-5.77 1.62-8.65 3.81-8.02 18.5-19.96 26.51-23.786 12.96-2.19 12.44-3.78 11.9-5.4 6.85-6.03 10.93-13.62 17.29-20.04 10.12-3.25 9.92-7.01 9.75-10.8-.14-11.15.17-22.7 14.09-19.48.51-3.623 1.09-7.202 1.61-10.81 7.89-7.59 3.58-9.182 0-13.55 1.79-2.85 3.61-5.75 5.41-8.642 5.59.28 9.66-.2 15.18-.52-1.81-3.65-3.61-6.71-5.43-9.77 7.92-4.34 21.98-6.03 24.88-12.45.51-6.95 1.74-10.59 5.43-13.53 12.89-1.08 14.9-1.89 19.46-3.28-2.56-5.1-4.53-7.46-3.742-9.74 5.37-1.94 5.78-8.13 11.33-8.645 2.62 4.07 4.25 5.23 8.13 7.562 3.26-3.44 4.86-5.75 6.5-8.09-.89-3.99-1.81-7.96-2.71-11.91 5.62 1.18 11.57 1.06 14.61-3.25-4.9-7.79-3.27-9.58-1.63-11.39 9.66-3.1 6.8-8.86 12.42-12.97 10.63-7.84 13.2 3.61 18.41-17.3 17.895 1.27 20.396 7.03 31.89 8.1 4.17-6.98 9.58-22.59 16.74-26.508.66 8.48-.37 14.19-1.62 20.03 6.34-4.72 10.66-10.75 12.99-19.47 9.72-1.1 13.2-4.89 17.305-11.37 5.23 3.63 8.85 6.69 12.44 9.75 8.62-30.27 16.53-15.19 32.44-7.02 2.32-7.492 8.42-19.55 14.61-23.25 22.564-13.202 26.41-20.2 50.35-18.412-8.64 11.23-18.505 13.14-18.386 34.11 9.92-13.37 25.45-27.63 37.3-35.73.38 7.97.7 15.89 1.1 23.81 11.14-5.23 17.24-13.69 21.09-25.94 6.71-1.23 16.254-4.53 20.55 1.08-5.87 8.45-7.31 12.81-10.8 23.84 11.59-7.72 17.25-15.27 23.24-20.57 10.35 3.07 16.36 9.7 25.39 13.55 4.34 1.85 10.68-.32 16.23 1.61 7.2 6.31 7.38 8.3 7.61 10.3-10.5 10.53-30.17 8.27-50.32 8.11 6.37 8.1 18.16 10.16 23.81 18.92 12.77-.88 21.66-4.11 31.37 2.17 17.12-6.86 22.39-9.916 27.6-12.955.38 17.98 14.17 20.78 29.73 23.78.37 3.95.69 7.92 1.09 11.91 22.91-4.89 38.23-3.8 53.54-2.75 9.22 3.24 18.39 6.51 27.62 9.75 5.74 1.82 11.54 3.62 17.32 5.44 10.28 8.64 20.5 17.29 30.83 25.94 10.79 3.25 21.6 6.48 32.45 9.76 10.16 3.32 20.35 10.64 28.11 16.74-.45 11.54.6 14.73 6.51 20.57.4 15.47-10.53 22.07-20.01 29.2-44.81 33.74-113.21 1.92-155.81-10.8-5.93-.91-11.88-1.84-17.88-2.7-7.66-4.31-10.357-21.44-29.22-11.91 9.99 9.23 19.27 20.646 30.84 28.14 7.01 4.51 20.38 5.75 25.97 11.89 7.94 8.67 4.45 21.85-5.94 24.92.69 7.044 14.69 42.97 18.38 44.89 7.28 3.694 18.38 1.61 24.923 4.89.86 3.18 2.89 7.97 5.4 9.74 4.48 2.8 11.74 1.27 17.84 2.69 13.71 3.18 34.99 4.704 22.17-17.87-4.54-.627-11.4 1.52-16.22-.56-5.53-2.337-15.95-14.047-16.25-19.47 4.52-4.13 4.23-10.73 12.99-10.79 14.54 9.03 32.85 17.41 51.353 22.706 8.07 2.31 14.03-.95 20.04-1.62 18.92-12.28-2.81-22.65-3.25-37.36 14.35-17.71 45.7-15.67 56.213-37.84 19.68-2.31 34.042 14.99 48.132 15.67.58-4.17 1.09-7.2 1.68-10.29 5.18-16.44 9.44-14.41 2.69-34.59-6.24-.95-10.12-3.32-12.975-7.59 5.44-7.95 9.73-14.81 14.08-21.67 3.3-14.72-11.75-16.05-10.26-28.66 7.02-1.81 11.44 1.156 18.36 2.69 8.3-.69 16.63-1.44 24.9-2.14 11.6 2.236 21.31 22.21 25.97 31.91-19.34.74-39.79.2-43.27 17.295 17.15 13.31 24.47 26.97 53.534 21.1 4.89-.88 9.75-1.816 14.61-2.7 7.686-5.53 4.44-23.75 11.87-29.73 4.35-1.25 8.67-2.52 12.99-3.79 17.69-7.3 37-15.63 56.27-23.26 11.33-4.685 22.7-9.345 34.04-14.07.89 2.904 1.82 5.806 2.68 8.654 23.21-3.55 4.92-20.68 37.377-20.556-.72 6.26-2.14 11.74-2.16 20-11.3 3.93-11.93 4.95-11.9 9.21 12.9 4.36 16.48-1.34 31.91-1.62 10.86.57 10.6-10.92 18.38-14.07 7-2.84 21.86-5.26 30.84-2.69 4.99 1.42 11.47 6.9 20.01 4.34 3.62-2.89 7.2-5.79 10.82-8.64 14.02-10.68 23.28-9.69 38.41-2.73-2.52 3.24-5.06 6.52-7.59 9.75 2.12 6.03 10.33 11.69 18.39 7.56 1.16-2.753 2.53-9.6 4.32-12.43 14.67-2.05 24.04 1.667 24.93-17.31-5.25-6.65-10.49-13.33-15.695-19.99 6.36-3.95 9.36-10.87 16.228-12.45 14.94-3.44 43.61 4.66 54.1 7.57 48.7 13.59 29.67 1461.15 22.85 1446.91zm-932.377-451.27c-1.44-.724-2.93-1.456-4.35-2.17-.37.924-.69 1.822-1.09 2.69 3.55.633 4.88 1.942 7.02 3.792.38-.348.73-.696 1.11-1.108-.89-1.666-1.02-2.197-2.7-3.204zm686.35 2.206c-2.35-3.635-3.08-13.633-4.35-18.412-8.5-.513-15.79.842-23.22 2.142-1.81 6.74-.42 19.877-2.76 25.948v-1.062c-1.82-3.022-5.34-7.243-6.48-9.76.18-1.64.35-3.26.56-4.88-1.07-.55-2.17-1.1-3.24-1.658-1.86-3.763.36-7.022-1.62-10.254 2.16-5.164 5.17-11.893 8.08-17.314-5.95-6.162-12.42-4.413-20.01-5.374-1.49-3.91-4.42-7.435-7.57-9.75h-7.59c.5-14.11-8.99-18.166-11.4-31.378-4.3-.64-12.4-2.05-15.63-4.312v-7.023c.54-.558 1.05-1.108 1.62-1.62 10.42-.568 23.5 5.4 28.65 1.62-.55-.696-1.07-1.456-1.63-2.188-4.28-1.23-7.46-3.7-9.75-7 1.62-4.79 3.99-3.47 6.51-6.5 1.07-2.88 2.16-5.76 3.23-8.66 4.69.15 5.47-1.6 8.65-2.14 11.74 1.09 23.45 2.14 35.2 3.25-.21-.35-.4-.7-.57-1.11-3.8-1.06-9.44-3.16-9.74-8.11 7.94-10.56 11.04-14.2 7.05-28.15 1.44-1.44 2.86-2.89 4.29-4.32-1.25-2.17-2.51-4.34-3.78-6.5-4.87-1.1-9.72-2.14-14.58-3.21-3.13 1.09-4.77 5.68-11.37 4.3-6.19-1.33-9.72-6.94-17.85-7.59-14.61-1.12-24.14 13.31-35.19 16.79-3.41.16-6.83.35-10.27.51-7.01 2.67-9.75 11.06-18.39 12.99.05 3.44-.26 4.26-1.65 5.92-1.24-.7-2.53-1.44-3.77-2.14-6.82 3.93-14.89 10.78-23.82 6.47-.38.52-.69 1.09-1.08 1.63-2.44 7.81-4.95 16.53-10.29 24.34-2.69 3.96-9.34 4.49-9.74 10.82v2.68c1.18 2.9 4.88 2.2 7.58 3.8 8.52 5.06 9.66 14.69 9.75 24.34h.57c.9-3.23 1.79-6.49 2.69-9.74h2.17v1.63c-3.13 8.04-6.54 19.63-1.65 26.52 4.31 2.43 1.12 5.21 3.79 9.16 1.24.35 2.54.73 3.81 1.11 5.36 4.75 7.68 12.41 11.87 18.39 1.62.53 3.25 1.1 4.87 1.62 4.48 3.56 10.06 11.13 13.53 15.7 2.43 3.19 1.26 7.15 3.23 11.35 1.68 3.58 5.55 7.28 8.1 10.81 4.36 6.16 15.81-1.65 20.54 9.19.19.9.36 1.82.54 2.72h-.54c-22.89-9.68-24.86 14.38-23.81 28.68-2-.42-2.07-.24-3.76.55-.59 2.51-1.1 5.03-1.68 7.53-.53-.35-1.07-.68-1.62-1.09-.52-2.33-.73-2.52-2.16-3.77-.53.37-1.07.73-1.62 1.08.02 14.25-9.29 30.71-4.86 47.61 8.38 2.84 19.59 5.36 29.75 8.07 9.37 25.34 46.3 22.76 72.98 16.77 7.46-1.64 18.67.26 23.81-3.78 7.12-5.59-.61-27-2.12-35.7-.32-1.57 1.59-5.82 1.62-9.23.03-7.27 4.47-12.7 3.24-17.3-2.48-4.87-7.75-5.59-9.75-11.36-5.14-.97-7.22-1.9-10.81.56v-3.8c.89-1.23 1.84-2.52 2.7-3.75 3.8.35 7.59.69 11.34 1.04v-1.62c-2.3-.67-4.71-1.83-5.89-3.8-.4-1.07-.72-2.17-1.1-3.24 1.27-1.62 2.54-3.21 3.79-4.9-7.03.15-15.04 1.31-18.4-.51-2.86-8.31-1.9-25 3.79-31.37 1.45 2.87 2.89 5.77 4.31 8.67 4.64-.64 5.12-.44 9.24.54.35-1.46.71-2.9 1.06-4.31 1.1.34 2.18.67 3.2 1.06.24 1.99.41 3.98.58 5.96.38.16.69.37 1.09.55 2.87-.9 5.73-1.83 8.66-2.7 3.31-.58 3.52 2.08 5.95 1.06-.73-2.14-1.48-4.31-2.17-6.48 3.43.69 3.52 1.99 7.02 2.7 2.6-1.22 3.52-1.72 4.83-4.31-4.22-8.8-12.7-9.21-16.64-15.16zM441.79 750.594v.514c5.24.256 24.26 1.94 25.414 2.69h1.07v7.61c-4.103.96-11.05 2.527-11.37 7.544-8.785-.805-10.983 4.203-17.296 5.42-5.24-.705-10.426-1.41-15.666-2.17-3.62.89-7.24 1.823-10.82 2.71-2.74-.512-3.987-3.286-8.128-2.71-7.192 1.072-14.402 2.17-21.603 3.233.35 1.245.7 2.517 1.11 3.79-15.83-1.41-20.32-3.122-37.31-1.09-.56 17.04-8.67 12.608-17.87 7.563-2.19 1.474-4.25 2.903-8.12 1.108-7.55 2.6-13.97 7.123-18.36 12.992-1.24-1.245-2.51-2.518-3.77-3.79-2.7-.733-5.43-1.41-8.1-2.17.17-.348.33-.733.51-1.1 9.98-3.01 28.65-15.454 29.73-27.045 6.48 1.07 5.09-2.463 8.13-5.97 9.5-4.44 18.11 2.298 29.22-.54.29-6.162 5.11-9.55 7.57-14.613-5.63 2.326-9.69 6.126-17.29 6.483h-1.11c-5.2-2.518-10.45-5.027-15.69-7.572-7.2-.18-14.41-.34-21.61-.52-2.16-1.83-4.33-3.62-6.49-5.45.93-.86 1.81-1.78 2.71-2.68 2.72-5.03 18.8-5.55 25.4-15.12.17-4.75 1.38-10.5-.53-13.55v-1.09h-11.37v-.52c6.29-12.59 23.35-14.41 41.66-14.6v-.55c-5.39-10.74.67-16.96 1.06-30.28h-.51c-3.09.55-6.13 1.1-9.22 1.61-2.88-3.38-5.41-4.7-7.55-9.16 1.47-7.31 6.45-10.32 10.3-15.19-15.38-3.99-10.99 2.04-22.74 2.72-3.2-.89-6.48-1.82-9.75-2.72-.39 3.28-1.24 3.94-3.24 5.44-4.32-1.06-8.64-2.16-12.96-3.23 1.27-8.36 13.15-18.51 10.26-23.8-3.62-1.88-5.08-6.02-4.31-10.82 3.11-.95 4.8-2.52 6.48-4.85-.52-2.35-1.09-4.68-1.62-7.04h-2.17c-5.97 4.97-12.99 9-20.01 12.99v-1.09c-4.03-8.04 4.8-18.34 7.57-25.95-2.16-1.42-4.31-2.87-6.47-4.3-.17.33-.38.7-.55 1.06-2.19 2.87-3.49 4.95-6.48 7.04-1.8-.91-3.62-1.81-5.41-2.7 1.06-1.82 9.75-17.3 9.75-17.3-.72-3.44-1.48-6.85-2.18-10.26 1.34-1.94 4.92-1.77 6.49-4.34-2.34-2.69-4.68-5.4-7.03-8.12 1.33-2.64 2.7-5.13 5.95-5.93 3.8 1.32 6.57 1.82 10.85 1.62-2.16-4.33-4.34-8.64-6.48-12.98 3.44-1.08 6.83-2.15 10.26-3.25-1.62-2.51-3.24-5.03-4.86-7.55 1.61-2.17 3.24-4.32 4.86-6.51 3.27 2.01 6.48 4.01 9.75 5.96 10.1 2.82 23.6-8.17 34.62-3.77 1.69 3.23 3.56 3.23.53 5.94-6.08 11.61-26.16 9.79-27.59 26.53.57.7 1.1 1.46 1.62 2.15 13.85.08 44.45-4.02 53.01 2.16 1.19 2.55 2.19 2.18 1.1 4.34-4.57 11.92-11.24 35.93-28.14 36.21.2.35.37.7.55 1.11 2.88 1.63 5.78 3.23 8.64 4.89-.35.18-.73.34-1.09.51-4.57 5.7-16.06 6.74-26.49 6.49.17.37.33.71.54 1.1 14.04 5.84 14.78.05 25.95-.52 6.9-.38 24.4 14.4 27.04 18.9 3.35 8.74 2.25 18.31 8.1 25.44 3.18 3.82 8.31 1.76 12.98 4.3 4.13 5.42 8.29 10.82 12.44 16.24 2.93 4.28 1.99 17.15 2.17 17.29 11.14 12.12 17.95 10.02 6.48 27.06 2.86.58 5.78 1.09 8.64 1.64 8.37-11.75 24-3.09 31.41 2.7.53 4.71 1.07 9.36 1.62 14.06-2.71 8.07-25.02 22.82-34.12 25.43zM292.5 608.854c1.438-.348 2.895-.732 4.333-1.09.347 2.912.695 5.778 1.1 8.644-.927 1.062-1.815 2.15-2.722 3.232-.89-.165-1.78-.376-2.68-.55-.75-3.955-.72-6.125-.02-10.236zm1.09 46.548c-5.085 8.753-8.795 10.346-19.496 13.532 4.6 6.364 13.393 26.9 10.306 37.31-1.905 6.345-7.265 10.365-8.657 19.465-4.16.18-8.292.34-12.424.55-.74 1.1-1.49 2.17-2.18 3.24-6.3.55-12.61 1.1-18.94 1.63-6.48 4.69-12.96 9.39-19.43 14.08-2.92.17-5.78.35-8.65.51-6.85 2-13.07 5.38-23.24 5.96.22-5.18.35-8.33-1.11-12.43-3.09.33-6.13.68-9.2 1.09-.64-3.03-1.67-4.79-1.09-7.58 1.96-.69 3.95-1.45 5.92-2.15v-.55c-3.96-.17-7.93-.35-11.88-.54.17-1.25.35-2.52.51-3.8 4.6.18 12.98.99 15.71-1.06 2.05-2.06 1.99-6.43 3.78-8.65 5.7-.99 12.03-.76 13.53-6.49-3.95.56-7.92 1.1-11.91 1.62.37-.35.72-.72 1.1-1.06 1.09-1.63 2.16-3.28 3.24-4.89-1.43-2.2-1.74-1.4-1.11-3.25 3.07-6.95 7.01-5.13 14.06-8.11-.53-1.45-1.11-2.89-1.62-4.34-4.28 2.49-24.87-1.22-29.21-3.23 1.1-1.46 2.16-2.91 3.23-4.34-.73-.7-1.42-1.46-2.17-2.15 2.51-.56 5.02-1.11 7.54-1.65-.97-5.68.08-5.08 3.26-8.66h-1.09c-3.3-3-5.99-2.4-10.82-1.09v-3.21c1.51-5.59 3.27-8.34 7.03-11.4 8.66 3.23 21.01 3.49 31.94 4.34-.99-2.01-1.69-3.63-1.63-5.42 5.73-1.65 9.21-3.73 11.33-9.22h-15.67c.56-.7 1.07-1.41 1.62-2.17 2.18-.52 4.34-1.09 6.5-1.62 2.95-10.96 6.8-16.23 19.43-17.31 1.22 4.31 3.25 6.41 8.65 6.48 10.05-4.25 26.1-6.8 34.08-1.09 2.92 9.03 7.2 17.05 8.73 27.59zm384.003 438.663c-.706 2.216-3.207 5.054-3.784 8.122.57 3.955 1.11 7.928 1.65 11.865.87 7.215-3.15 11.857-4.86 16.774-4.07-1.044-7.89-3.278-12.43-1.108-1.65 2.17-3.25 4.34-4.87 6.482-18.72-3.873-4.98-20.82-8.13-36.76-1.54-7.82-6.66-9.898-8.13-16.783.37-.34.71-.714 1.06-1.062 12.53-2.325 19.29-2.902 26.51-9.76 4.69 1.75 15.62 14.164 12.95 22.23zm-13.532-68.686c.39-2.53.74-5.06 1.11-7.6.38-.17.73-.35 1.08-.52.72.51 1.44 1.09 2.17 1.62.35 15.9 2.8 38.14-6.48 47.61-1.1-.19-2.16-.35-3.23-.56v-2.7c-1.62-.17-3.27-.35-4.89-.52-.89-.73-1.78-1.46-2.69-2.17.91-1.25 1.81-2.52 2.69-3.79-1.78-.74-3.62-1.45-5.4-2.17.18-.35.35-.7.55-1.06.89-.92 1.82-1.81 2.7-2.7v-.55c-3.67.25-3.67 1.1-4.85-1.65.89-.69 1.81-1.41 2.7-2.14-1.84-2.27-3.23-2.24-3.81-5.96.72-.55 1.48-1.1 2.16-1.64-1.53-1.75-1.5-1.66-1.61-3.8 3.33-3.47 17.71-9.45 17.84-9.73zm149.85 167.67c-3.32 1.88-5.15 5.69-8.12 8.12-16.66-4.77-30.89-14.37-45.98-21.64-7.33-3.49-12.53-1.41-16.22-8.66 3.85-12.41 13.88-6.04 21.63-12.96 13.4 8.65 20.74 8.29 38.96 3.79 4.34-1.11 9.63-3.33 14.62-2.17v.57c-2.55 5.78-11.74 16.78-8.66 24.88 1.59 3.35 4.95 4.91 3.8 8.04zm273.16 47.61c-.58 3.58-1.27 6.23-2.71 8.65-12.09.71-24.16 1.43-36.25 2.17v-3.79c-8.14-3.27-22.89-2.61-30.27-5.97.52-2.69 1.07-5.43 1.62-8.13h2.72c.23-2.18.17-2.08 1.06-3.21v1.05c1.77 2.1 3.62 2.24 6.51 3.26 1.28-.7 2.51-1.44 3.79-2.17.38.57.7 1.09 1.07 1.66-.54.67-1.07 1.43-1.64 2.13 3.18.57 2.61 1.06 4.35 2.72 5.95-.55 11.88-1.11 17.84-1.66 6.33 2.87 9.54 3.67 17.89 2.72.2.18.36.35.54.53-.34 1.44-.69 2.88-1.07 4.31.73.37 1.49.71 2.16 1.09 4.18-2.4 8.57-2.98 12.42-5.38zm178.47-2.17c8.48-3.08 16.95-6.15 25.4-9.21-4.66 5.44-11.72 8.27-16.22 14.06 1.28 1.62 2.55 3.23 3.79 4.88-10.49.78-12.48 8.33-24.86 8.65-.23 2.83.35 2.17-1.62 3.27-3.04-2.26-9.68-3.1-13.53-4.34-1.42-3.71-2.81-5.19-3.8-9.76 1.14.09 15.17-3.29 15.69-3.79 1.05-2.05.89-3.46 0-5.4 5.12.51 10.17 1.09 15.18 1.62zm-1063.35 94.65c2.42-4.98-.25-11.29 1.62-16.24 1.82-4.77 16.56-17.44 21.07-20.56 13.55-9.26 31.43-10.3 41.15-23.26 6.64-8.89 15.06-40.82 21.07-45.45 2.7-1.28 5.42-2.53 8.09-3.8 7.65 7.56 12.04 17.04 23.85 20.57 11.21 3.36 39.91-5.62 40.56-5.41 2.95 7.43 15.97 10.78 27.06 7.55 10.01-2.96 9.4-9.76 16.23-14.62 2.77-1.97 17.24-7.01 20.53-7.58 2.09 1.99 3.67 2.92 7.55 3.24 7.33-6.28 13.08-14.39 22.74-18.4 10.24-4.25 24.45-1.18 36.79-3.79 3.96-1.8 7.93-3.62 11.89-5.4 4.65-.64 7.29 3.85 13.54 1.62 3.25-1.79 6.52-3.63 9.75-5.41 16.94-4.38 27.99 8.7 42.75 5.41 9.49-2.08 16.07-7.18 22.71-11.87 5.55 1.91 8.64 5.99 15.12 7.01 4.26-2.15 6.01-5.73 11.4-6.49 6.65 2.22 9.83 7.52 11.88 8.13 14.2 4.01 28.7-10.99 36.78-14.09 2.53-.35 5.07-.69 7.59-1.08 3.97 1.82 7.96 3.63 11.91 5.45.15 4.68 1.74 7.38 3.23 10.82 8.1-2.73 13.5-5.96 18.93-9.24.13 17.96-29.21 24.75-.58 41.12.89 3.61 1.82 7.21 2.72 10.81.15 7.06-22.56 25.85-27.59 31.4 1.83 8.39 10.36 14.4 17.29 17.84 4.38-1.07 5.08-2.54 10.3-2.17.7 2.93 1.45 5.79 2.14 8.65 10.99 4.68 22.01 9.37 33 14.09 8.1-.58 16.23-1.11 24.35-1.65 5.54 1.07 11.16 2.17 16.74 3.24 2.35 2.17 4.68 4.34 7.05 6.48 4.03 1.91 8.01.35 12.99 2.17 8.89 3.26 10.41 24 20.54 29.74 9.13 5.14 34.75 5.49 46.01 9.74 11.42 4.34 21.05 18.5 34.03 20.01 4.99.62 9.26-3.7 12.44-5.4 26.67-14.42.79-25.2 12.44-44.89 8.62-14.55 44.59-27.48 66.52-17.88 8.57 3.74 5.43 11.33 11.36 14.61 6.31 2.48 21.03 4.91 27.63 5.94h12.43c5.39 1.84 4.25 10.22 9.2 12.44H1086c12.653 2.7 25.26 5.42 37.856 8.1 1.09 1.43 2.16 2.9 3.27 4.34 5.185.51 10.425 1.09 15.63 1.62 4.73 1.31 11.14 6.87 17.874 5.43 3.434-2.72 6.833-5.43 10.27-8.14 12.724-8.55 33.054-12.93 51.396-9.19 1.687 5.93 4.48 6.63 8.1 10.27 10.37-1.76 14.255 4.08 23.83-2.68 14.63 8.01 18.25-.32 28.65-1.66 6.31 16.22 12.623 32.48 18.92 48.69-10.795 9.39-8.844 29.7-15.67 43.27-2.49.51-4.92.65-6.496-1.11-15.118-13-27.23-33.76-34.055-54.64-4.88 1.94-5.29 3.76-8.095 7.57 3.5 19.91 17.315 29.82 25.414 44.38 4.662 12.26 9.343 24.52 14.062 36.78 10.99 17.51 19.5 38.97 31.38 56.77 4.345 4.31 8.64 8.65 12.985 12.98-1.99 1.82-3.95 3.61-5.96 5.43 2.17 6.77 2.7 15.22 6.49 20.55 3.1 4.34 9.27 5.46 13.54 8.65 8.66 6.44 18.83 24.69 21.64 36.25 4.34 17.71-1.45 49.38 7.57 61.67 5.71 7.76 26.64 12.1 30.84 21.65 9.08 20.6 12.64 60.56 28.11 73.52 1.61-2.72 1.13-7.66 2.72-9.74 5.09 2.86 8.07 9.99 11.37 14.58 4.36-.2 7.88-.82 10.8.58 7.59 8.27 15.14 16.56 22.72 24.88 2.84 1.64 7.04.11 9.23 2.14 4.78 4.36 6.13 14.87 7.57 16.25 8.31 8.01 27.62 11.57 28.15 25.94-4.52 4.84-16.31 9.64-22.18 12.44 6.45 2.4 12.73 1.54 17.31 2.69 4.93 10.76 15.53 20.28 23.25 28.72h15.16c7.75-3.41 15.5-6.85 23.25-10.32 9.55-1.8 12.19 6.35 20.54 3.23 6.13-3.94 12.26-7.96 18.39-11.89 6.13.58 11.16 1.06 16.25 1.66 4.94-1.38 9.44-7.44 16.75-5.95 3.9.72 9.78 3.58 16.23 2.15 14.74-3.25 22.81-10.62 32.99-17.87 4.32 1.82 8.65 3.6 12.96 5.38-.87 5.1-2.32 8.5-3.76 11.95-1.56 5.48 1.44 10.74 1.65 14.58.23 4.87-5.36 7.37-6.54 10.82-.53 7.4-1.04 14.8-1.62 22.22-4.69 8.24-9.33 16.57-14.05 24.87-3.61 3.41-7.23 6.8-10.81 10.27.17 2.33.33 4.68.55 7.02-6.35 10.09-12.64 20.2-18.95 30.26-.89 4.16-1.79 8.29-2.71 12.44-9.27 22.49-30.6 40.11-44.9 58.46-7.19 8.82-14.42 17.67-21.63 26.5-19.49 15.61-905.68 5.97-906.43 3.31.89-3.65 1.82-7.23 2.72-10.81-1.42-8.01-6.89-13.8-8.65-20.57 1.62-1.24 3.2-2.49 4.85-3.76-1.81-2.17-2.54-3.23-3.27-4.34-19.31.64-13.09-3.51-18.93-14.05-2.69-3.18-12.99-5.73-15.15-4.33.92 2.27 1.3 3.1 1.09 5.46-9.48 3.83-20.65 1.94-29.2.51-15.81 14.19-43.34 1.06-45.42-16.76 1.11-2.7 2.13-5.39 3.24-8.07-3.62-2.35-5.59-2.56-7.58-2.72-1.24-2.14-2.51-4.34-3.78-6.51-3.81-4.81-21.56-16.07-28.13-17.31-3.68 1.28-4.32 3.89-7.01 4.87-18.21 1.66-36.44 3.23-54.66 4.86-6.19 2.13-6.36 8.06-10.78 11.36-7.42.72-14.82 1.48-22.19 2.17-17.5 7.97-35 15.85-52.46 23.77-3.43-2.62-20.88-13.59-24.36-14.04-.89 1.09-1.79 2.17-2.68 3.25-5.55 1.92-13.62-2.39-17.84-3.25-9.75-1.97-26.82-.12-34.61 2.17-9.04 2.51-18.03 5.06-27.05 7.57-8.64 4.48-17.3 9-25.94 13.51-6.54 1.79-27.73-11.92-33-14.58-16.9-8.62-26.09-20.62-40.58-30.83-6.83-3.63-13.7-7.24-20.56-10.84-9.26-6.2-15.45-15.27-27.57-18.94.55-4.14.99-5.17-.54-8.13-8.94-1.44-19.78-9.31-22.19-17.3 3.07-1.62 5.07-3.21 7.03-4.85-2.96-2.44-4.68-2.81-5.91-4.32v-8.1c-1.88-6.63-9.14-8.29-11.93-13.55-.58-2.68-1.09-5.36-1.62-8.05-8.59-2.61-17.15-8.19-22.72-14.09.98-2.97.98-5.26 0-8.1-5.43.21-7.4-.71-10.28-2.68.32-2.51.7-3.18-.56-4.86-1.85-1.9-6.42-2.38-8.65-3.82-1.42-7.31 3.21-9.95 6.52-14.08-4.31-4.98-11.95-1.59-17.3-.53-3.62-2.17-7.22-4.34-10.8-6.51-.35-1.24-.74-2.52-1.11-3.78-8.54-5.61-5.06 2.84-11.91-8.68 1.84-7.11-1.49-16.32 2.7-22.17 1.62-.37 3.21-.68 4.86-1.06.09-3.01-.26-4.81-1.06-6.54-7.36-3.44-7.29-20.07-22.73-26.48 11.42-4.91 20.61-20.41 23.79-31.908.72-5.764 1.44-11.54 2.18-17.33 5.94-19.93 17.72-51.43-2.18-67.054 8.1-11.71 7.2-39.25-9.72-40.57-1.24 1.43-2.51 2.88-3.76 4.3-1.59-11.2.64-25.895 5.4-32.98 3.97-4.34 7.93-8.654 11.93-12.99 5.4-12.45 10.77-24.87 16.21-37.31 5.26-7.18 17.14-11.43 20.54-20.01.2-3.8.38-7.59.55-11.38 1.89-9.14 6.05-19.58 10.85-26.5 4.54-6.57 15.56-7.72 20.52-14.07 6.25-7.97 8.1-27.93 17.3-32.46 8.01-3.92 18.36-3.28 25.95-6.49 14.71-6.19 40.59-28.4 49.22-41.11 13.56-20.18-6-29.03.44-46.02 2.65-7.05 9.94-11.62 12.96-17.83zm441.38 745.93c-1.1-.37-2.17-.69-3.26-1.06v-4.85c3.79-1.4 5.21-6.47 7.57-9.21 3.48.78 4.95 1.62 6.48 4.34-5.15 2.77-3.78 9.98-10.78 10.78z" id="b"/><filter x="-50%" y="-50%" width="200%" height="200%" filterUnits="objectBoundingBox" id="a"><feOffset dx="2" dy="2" in="SourceAlpha" result="shadowOffsetOuter1"/><feColorMatrix values="0 0 0 0 0 0 0 0 0 0 0 0 0 0 0 0 0 0 1 0" in="shadowOffsetOuter1"/></filter><path d="M67.658.505v106.4l-67.5 26.6 67.5-133zm0 0v23.543l43.603 85.912-43.6-17.182v14.126l67.5 26.6-67.5-133z" id="d"/><filter x="-50%" y="-50%" width="200%" height="200%" filterUnits="objectBoundingBox" id="c"><feOffset dx="3" dy="3" in="SourceAlpha" result="shadowOffsetOuter1"/><feColorMatrix values="0 0 0 0 0 0 0 0 0 0 0 0 0 0 0 0 0 0 1 0" in="shadowOffsetOuter1"/></filter><path id="f" d="M40 40h1100v160H40z"/><filter x="-50%" y="-50%" width="200%" height="200%" filterUnits="objectBoundingBox" id="e"><feOffset dx="6" dy="6" in="SourceAlpha" result="shadowOffsetOuter1"/><feColorMatrix values="0 0 0 0 0 0 0 0 0 0 0 0 0 0 0 0 0 0 1 0" in="shadowOffsetOuter1"/></filter><path d="M1198.578 449.295h-131.316v115.22h131.316v44.9l115.22-102.086-115.22-102.09v44.05z" id="h"/><filter x="-50%" y="-50%" width="200%" height="200%" filterUnits="objectBoundingBox" id="g"><feOffset dx="3" dy="3" in="SourceAlpha" result="shadowOffsetOuter1"/><feColorMatrix values="0 0 0 0 0 0 0 0 0 0 0 0 0 0 0 0 0 0 1 0" in="shadowOffsetOuter1"/></filter><circle id="j" cx="1314" cy="620" r="5"/><filter x="-50%" y="-50%" width="200%" height="200%" filterUnits="objectBoundingBox" id="i"><feOffset dx="2" dy="2" in="SourceAlpha" result="shadowOffsetOuter1"/><feColorMatrix values="0 0 0 0 0 0 0 0 0 0 0 0 0 0 0 0 0 0 1 0" in="shadowOffsetOuter1"/></filter><circle id="l" cx="1333" cy="584" r="5"/><filter x="-50%" y="-50%" width="200%" height="200%" filterUnits="objectBoundingBox" id="k"><feOffset dx="2" dy="2" in="SourceAlpha" result="shadowOffsetOuter1"/><feColorMatrix values="0 0 0 0 0 0 0 0 0 0 0 0 0 0 0 0 0 0 1 0" in="shadowOffsetOuter1"/></filter></defs><g fill="none" fill-rule="evenodd"><g transform="translate(0 -713)"><use fill="#000" filter="url(#a)" xlink:href="#b"/><use fill="#2A7E00" xlink:href="#b"/></g><g transform="translate(201 645)"><use fill="#000" filter="url(#c)" xlink:href="#d"/><use fill="#FFF" xlink:href="#d"/></g><use fill="#000" filter="url(#e)" xlink:href="#f"/><use fill="#FFF" xlink:href="#f"/><path d="M92.112 60l9.598.563 5.203-.563.545.844v1.125c0 3-1.734 4.5-5.203 4.5h-.28c-.435 16.28-1.895 24.43-4.38 24.43-1.277 1.12-3.017 1.68-5.22 1.68H90.46c-6.21-.95-9.316-4.04-9.316-9.27.55-3.14 1.37-5.21 2.46-6.19h.282c.28 0 .738 2.06 1.37 6.18 1.255 2.42 3.264 3.64 6.03 3.64 4.02 0 6.03-1.69 6.03-5.05l1.37-15.73h-3.023c-4.02 0-6.03-.47-6.03-1.41v-.56c.552-2.82 1.378-4.22 2.48-4.22zm30.797 4.447c5 .692 7.5 3.686 7.5 8.983 0 6.937-2.74 12.68-8.23 17.226-2.26 1.29-4.29 1.934-6.07 1.934-4.35 0-7.15-2.344-8.4-7.03l-.18-2.18v-.74c0-7.57 3.45-13.312 10.37-17.226 1.73-.644 3.4-.967 4.99-.967zM109.86 83.38c1.805 2.74 4.19 4.112 7.155 4.112 4.77 0 8.103-2.83 10-8.49l.353-2.672c0-3.984-1.962-6.328-5.89-7.03h-.543c-3.247 0-6.64 3.233-10.178 9.702-.6 1.945-.9 3.404-.9 4.377zm36.57-18.88h.368c1.617.2 2.426.984 2.426 2.355v.475c0 2.367-.81 4.57-2.426 6.61h-.37c-.257-.07-.51-.463-.755-1.178l.95-3.533-.74-.48c-1.722.15-4.886 2.04-9.49 5.66v.23l12.268 2.37c1.25.98 1.87 2.63 1.87 4.95v1.4c0 3.17-2.04 5.93-6.13 8.26-1.6.63-3.16.95-4.66.95h-.38c-4.26 0-6.86-1.89-7.8-5.66V85.5c0-1.735.44-2.602 1.3-2.602.86 3 2.41 4.5 4.66 4.5 0 .307.93.46 2.8.46 2.75 0 5.42-1.41 8-4.237 0-1.87-3.96-3.06-11.9-3.55-2.86-.79-4.29-1.97-4.29-3.53 0-3.83 3.85-7.69 11.53-11.56l2.8-.47zm25.048 0c.808.176 1.212.79 1.212 1.846-.257 1.992-1.06 2.988-2.408 2.988-8.836 0-13.254 1.23-13.254 3.69l-.246 2.076v1.142c5.766-1.383 9.703-2.074 11.813-2.074h.474c.8.352 1.21 1.12 1.21 2.303 0 1.69-1.13 2.54-3.38 2.54-7.4.96-11.09 2.12-11.09 3.47l-.23 2.31v.92c0 1.38.88 2.15 2.63 2.3 2.76-.3 6.22-.99 10.37-2.07h.72c.64.25.97.79.97 1.62v.69c0 1.89-4.02 3.35-12.06 4.38h-.72c-2.9 0-4.5-1.84-4.82-5.52 0-2.7.56-7.85 1.68-15.43l-.48-1.39c0-3.11 4.81-4.95 14.45-5.52l3.12-.23zm14.273-.053c4.66 0 6.98 1.365 6.98 4.096 0 5.402-5.09 10.29-15.29 14.66-.75 0-1.12.48-1.12 1.442-.1 5.296-.63 7.945-1.58 7.945h-1.12c-.3-.07-.6-.47-.89-1.195l2.02-19.723h-.22c-.59 0-.89-.727-.89-2.18 0-2.355 1.36-3.715 4.06-4.078l8.09-.967zm-9 13.957c5.15-1.347 9.05-3.59 11.71-6.732l.44-1.46v-.474l-1.12-.246h-1.12c-5.99.328-8.98.89-8.98 1.688l-.91 7.224zm34.76-13.957c.83.223 1.25.79 1.25 1.705v.23c-1.17 17.308-2 25.962-2.49 25.962l-.26.246h-.73c-.86 0-1.45-.404-1.76-1.213.33-2.31.49-5.543.49-9.703h-.24L197.23 84.1l-.74.966v4.606c0 1.37-.503 2.344-1.51 2.918h-.493c-.937 0-1.523-.404-1.758-1.213 1.16-17.473 2.83-26.21 5.01-26.21h.49l.75.985c-1.17 5.8-1.76 10.084-1.76 12.85 7.67-1.008 11.51-2.22 11.51-3.64l1-10.194 1.75-.72zm28.62.053h.85c1.16 0 2.63 5.36 4.41 16.084 1.41 5.063 2.11 8.502 2.11 10.318-.29.96-.85 1.442-1.69 1.442-1.08 0-1.85-2.56-2.32-7.682l-.21-.228h-.21c-1.83.023-5.68 1.142-11.56 3.357-.56 3.2-1.47 4.8-2.74 4.8-.84-.32-1.26-.96-1.26-1.91 0-1.85 3.87-10.33 11.59-25.45l1.06-.72zm-.42 6.715c-1.69 3.047-3.23 6.252-4.64 9.615h1.48c1.43 0 3.26-.322 5.49-.967l-1.9-8.648h-.42zm13.45-6.768c1.07 0 2.35 2.004 3.83 6.012 2.88 5.9 6.09 10.95 9.62 15.15 1.19-11.57 2.06-18.38 2.64-20.45l.97-.72h.72c.48 0 .73.32.73.96-1.44 16.52-2.32 25.34-2.64 26.45l-1.44.47c-2.56 0-6.89-5.45-12.97-16.35l-.97-.97-.24.72-.72 11.07v1.44l.25 1.44c-.21 1.92-.85 2.88-1.91 2.88-.98-.35-1.54-.83-1.68-1.44 1.23-17.32 2.11-25.98 2.64-25.98l1.22-.72zm29.29 0h1.08c5.1 0 8.22 2.022 9.37 6.065l.21 1.933c0 8.05-5.96 14.684-17.89 19.9l-1.05.245h-.23c-.31 0-.59-.57-.84-1.705l2.12-20.865c-.85 0-1.28-.24-1.28-.72v-.493c0-2.578 1.14-3.868 3.41-3.868l5.12-.5zm-4.25 5.098c-1.28 8.297-1.91 13.875-1.91 16.734v1.21c8.94-4.47 13.42-8.67 13.42-12.62v-.23c0-2.28-.64-3.41-1.91-3.41-1.58-1.13-4.13-1.69-7.66-1.69h-1.92zm42.31-9.475h.53c.87.48 1.3 1.22 1.3 2.215v.563c0 6.01.52 13.054 1.55 21.13h.27c5.72-15.2 9.09-22.8 10.11-22.8h.78c.76 0 1.97 5.285 3.62 15.855 1.56 5.414 2.34 9.95 2.34 13.606-.5 1.3-1.28 1.95-2.34 1.95-.69 0-1.64-4.54-2.85-13.63l-2.07-8.9c-1.49 2.42-4.16 8.72-8.03 18.89-1.11 1.14-2.06 1.8-2.85 1.95-2.25 0-3.37-3.06-3.37-9.18l-1.29-11.67h-.26l-7.77 17.79c-.46 2.96-.9 4.44-1.3 4.44h-1.04l-1.03-1.11V89.8c0-2.495 2.16-7.87 6.49-16.12 3.07-8.66 5.06-13.105 5.96-13.34l1.28-.28zm33.45 4.43h.85c1.16 0 2.63 5.36 4.42 16.084 1.41 5.063 2.11 8.502 2.11 10.318-.29.96-.85 1.442-1.69 1.442-1.08 0-1.85-2.56-2.32-7.682l-.21-.228h-.21c-1.83.023-5.68 1.142-11.56 3.357-.56 3.2-1.47 4.8-2.74 4.8-.84-.32-1.26-.96-1.26-1.91 0-1.85 3.86-10.33 11.59-25.45l1.06-.72zm-.42 6.715c-1.69 3.047-3.23 6.252-4.64 9.615h1.48c1.43 0 3.26-.322 5.49-.967l-1.9-8.648h-.42zm22.68-6.768h2.43c3.72 0 5.57 1.295 5.57 3.885v.246c0 4.535-3.88 8.66-11.63 12.375v.23c3.88 3.56 7.12 6.233 9.71 8.014v.72c0 1.255-.4 2.063-1.21 2.427h-.96l-13.33-9.457-.24 4.85v3.64c-.41.81-1.05 1.213-1.93 1.213-.64 0-1.13-.322-1.46-.967v-1.46l2.18-18.93c-.64 0-.96-.48-.96-1.442 0-2.91 2.42-4.61 7.26-5.09l4.61-.24zm-8.47 13.096h.25c8.39-2.156 12.59-4.5 12.59-7.03v-.247c0-.446-.81-.768-2.42-.967-2.68 0-5.91.56-9.69 1.7l-.72 6.54zm18.6-13.043l5.38 8.156 2.36 1.934c2.98-5.297 5.05-8.502 6.22-9.615h1.07l.87.966c-.12.86-3.48 6.86-10.09 18-1.66 3.13-2.88 5.93-3.65 8.41l-.63.25c-1.01-.47-1.51-1.19-1.51-2.16.06-1.25 1.78-5.17 5.15-11.76-4.86-5.23-7.29-9.47-7.29-12.73.91-.96 1.62-1.44 2.15-1.44zm47.71-.053c.84.223 1.25.79 1.25 1.705v.23c-1.17 17.308-2 25.962-2.49 25.962l-.27.246h-.74c-.87 0-1.45-.404-1.76-1.213.33-2.31.49-5.543.49-9.703h-.24L419.77 84.1l-.74.966v4.606c0 1.37-.504 2.344-1.51 2.918h-.494c-.937 0-1.523-.404-1.757-1.213 1.16-17.473 2.83-26.21 5-26.21h.49l.75.985c-1.17 5.8-1.76 10.084-1.76 12.85 7.67-1.008 11.51-2.22 11.51-3.64l1-10.194 1.76-.72zm13.68.053h.85c1.16 0 2.63 5.36 4.42 16.084 1.4 5.063 2.11 8.502 2.11 10.318-.3.96-.86 1.442-1.69 1.442-1.08 0-1.85-2.56-2.32-7.682l-.21-.228h-.21c-1.83.023-5.69 1.142-11.57 3.357-.57 3.2-1.48 4.8-2.74 4.8-.85-.32-1.27-.96-1.27-1.91 0-1.85 3.86-10.33 11.58-25.45l1.05-.72zm-.42 6.715c-1.68 3.047-3.23 6.252-4.64 9.615h1.48c1.43 0 3.26-.322 5.49-.967l-1.89-8.648h-.42zm18.97-6.768h1.07c5.1 0 8.22 2.022 9.37 6.065l.21 1.933c0 8.05-5.96 14.684-17.89 19.9l-1.05.245h-.23c-.31 0-.59-.57-.84-1.705l2.13-20.865c-.85 0-1.28-.24-1.28-.72v-.493c0-2.578 1.14-3.868 3.41-3.868l5.12-.5zm-4.25 5.098c-1.28 8.297-1.92 13.875-1.92 16.734v1.21c8.94-4.47 13.42-8.67 13.42-12.62v-.23c0-2.28-.64-3.41-1.91-3.41-1.58-1.13-4.14-1.69-7.66-1.69h-1.92zm49.36-5.115c1.53 0 2.29.632 2.29 1.898v.475c0 1.746-1.36 2.62-4.07 2.62l-5.08.245c-1.52 8.12-2.28 15.105-2.28 20.953-.41 1.27-.83 1.9-1.27 1.9h-.77c-.88 0-1.39-.24-1.53-.72.86-8.99 1.79-16.29 2.8-21.9l-7.63 1.2c-.71 0-1.13-.71-1.26-2.14 0-2.38 2.12-3.57 6.36-3.57 2.55-.63 6.7-.95 12.47-.95zm16.93.017c5.01.692 7.51 3.686 7.51 8.983 0 6.937-2.74 12.68-8.22 17.226-2.26 1.29-4.28 1.934-6.06 1.934-4.35 0-7.15-2.344-8.4-7.03l-.17-2.18v-.74c0-7.57 3.46-13.312 10.37-17.226 1.74-.644 3.4-.967 5-.967zM515.26 83.38c1.804 2.74 4.19 4.112 7.153 4.112 4.77 0 8.105-2.83 10.003-8.49l.35-2.672c0-3.984-1.965-6.328-5.89-7.03h-.546c-3.246 0-6.64 3.233-10.178 9.702-.6 1.945-.898 3.404-.898 4.377zm56.126-18.95c1.522 0 2.284.632 2.284 1.898v.475c0 1.746-1.36 2.62-4.078 2.62l-5.08.245c-1.526 8.12-2.287 15.105-2.287 20.953-.41 1.27-.83 1.9-1.264 1.9h-.77c-.88 0-1.39-.24-1.53-.72.86-8.99 1.79-16.29 2.8-21.9l-7.63 1.2c-.71 0-1.13-.71-1.26-2.14 0-2.38 2.12-3.57 6.37-3.57 2.55-.63 6.7-.95 12.47-.95zm14.64.017h2.427c3.716 0 5.574 1.295 5.574 3.885v.246c0 4.535-3.876 8.66-11.634 12.375v.23c3.88 3.56 7.11 6.233 9.7 8.014v.72c0 1.255-.406 2.063-1.215 2.427h-.967l-13.32-9.457-.24 4.85v3.64c-.41.81-1.05 1.213-1.93 1.213-.64 0-1.13-.322-1.46-.967v-1.46l2.18-18.93c-.64 0-.96-.48-.96-1.442 0-2.91 2.42-4.61 7.26-5.09l4.61-.24zm-8.47 13.096h.245c8.39-2.156 12.59-4.5 12.59-7.03v-.247c0-.446-.81-.768-2.42-.967-2.68 0-5.91.56-9.68 1.7l-.72 6.54zm27.31-13.043h.845c1.16 0 2.63 5.36 4.41 16.084 1.41 5.063 2.11 8.502 2.11 10.318-.29.96-.85 1.442-1.69 1.442-1.07 0-1.85-2.56-2.32-7.682l-.21-.228h-.21c-1.83.023-5.68 1.142-11.56 3.357-.56 3.2-1.47 4.8-2.74 4.8-.84-.32-1.26-.96-1.26-1.91 0-1.85 3.86-10.33 11.59-25.45l1.06-.72zm-.42 6.715c-1.688 3.047-3.235 6.252-4.64 9.615h1.475c1.43 0 3.26-.322 5.48-.967l-1.9-8.648h-.42zm29.02-6.768h.704c.63.258.945.82.945 1.688 0 1.172-2.45 6.222-7.347 15.152-2.403 6.692-3.903 10.3-4.5 10.828l-2.356.475c-1.03 0-1.746-1.846-2.144-5.537-3.15-11.12-4.727-17.936-4.727-20.444.26-.73.73-1.29 1.42-1.69h.95c.86 0 1.73 3.37 2.6 10.1l2.85 10.58h.23c1.64-4.34 5.19-11.23 10.65-20.69l.73-.48zm20.444.053c.805.176 1.21.79 1.21 1.846-.26 1.992-1.06 2.988-2.41 2.988-8.835 0-13.253 1.23-13.253 3.69l-.247 2.076v1.142c5.767-1.383 9.704-2.074 11.813-2.074h.48c.81.352 1.213 1.12 1.213 2.303 0 1.69-1.124 2.54-3.374 2.54-7.398.96-11.095 2.12-11.095 3.47l-.227 2.31v.92c0 1.38.877 2.15 2.635 2.3 2.766-.3 6.223-.99 10.37-2.07h.722c.645.25.967.79.967 1.62v.69c0 1.89-4.02 3.35-12.06 4.38h-.72c-2.896 0-4.5-1.84-4.82-5.52 0-2.7.564-7.85 1.69-15.43l-.475-1.39c0-3.11 4.81-4.95 14.45-5.52l3.13-.23zm4.83-.053h.246c.76 0 1.4.393 1.915 1.178-1.11 8.11-1.91 15.363-2.39 21.762l13.71-2.83.48.703v1.424c0 2.156-4.97 4.125-14.9 5.906-1.77-.317-2.65-.867-2.65-1.653 1.31-17.343 2.28-26.015 2.88-26.015l.72-.475zm45.09.053h2.27c1.004.633 1.51 1.342 1.51 2.127-.27 1.887-1.11 2.83-2.515 2.83-4.043 0-7.987.393-11.83 1.178l-.493 5.203 1.248.228h1.003c2.98 0 6.42-.474 10.32-1.423l.76 1.423c-.378 2.836-1.55 4.254-3.52 4.254-1.22.62-4.66 1.09-10.32 1.407-.4 7.09-1.07 10.634-2.02 10.634l-1.002.23H689c-.42 0-.673-.31-.755-.95 0-3.85.667-10.93 2.003-21.23l-.74-.72c0-2.38 1.674-3.79 5.025-4.23 3.366-.63 6.465-.95 9.3-.95zm16.856-.053h2.426c3.715 0 5.573 1.295 5.573 3.885v.246c0 4.535-3.88 8.66-11.637 12.375v.23c3.88 3.56 7.112 6.233 9.702 8.014v.72c0 1.255-.404 2.063-1.213 2.427h-.968l-13.33-9.457-.25 4.85v3.64c-.41.81-1.06 1.213-1.94 1.213-.65 0-1.13-.322-1.46-.967v-1.46l2.18-18.93c-.65 0-.97-.48-.97-1.442 0-2.91 2.42-4.61 7.26-5.09l4.6-.24zm-8.472 13.096h.246c8.39-2.156 12.587-4.5 12.587-7.03v-.247c0-.446-.81-.768-2.426-.967-2.68 0-5.91.56-9.68 1.7l-.72 6.54zm31.834-13.096c5.003.692 7.505 3.686 7.505 8.983 0 6.937-2.74 12.68-8.223 17.226-2.264 1.29-4.285 1.934-6.066 1.934-4.35 0-7.15-2.344-8.403-7.03l-.17-2.18v-.74c0-7.57 3.46-13.312 10.37-17.226 1.74-.644 3.4-.967 5-.967zm-13.04 18.933c1.805 2.74 4.19 4.112 7.154 4.112 4.77 0 8.107-2.83 10.005-8.49l.352-2.672c0-3.984-1.97-6.328-5.89-7.03h-.55c-3.25 0-6.64 3.233-10.18 9.702-.6 1.945-.9 3.404-.9 4.377zm32.59-18.933h.457c.75.41 1.125 1.05 1.125 1.916v.492c0 5.204.454 11.297 1.37 18.282h.226c5.016-13.15 7.97-19.723 8.86-19.723h.685c.67 0 1.73 4.57 3.18 13.71 1.36 4.69 2.04 8.614 2.04 11.778-.44 1.125-1.12 1.688-2.04 1.688-.61 0-1.44-3.932-2.49-11.795l-1.83-7.682c-1.3 2.086-3.65 7.535-7.05 16.348-.97 1-1.8 1.56-2.49 1.69-1.97 0-2.95-2.65-2.95-7.94l-1.12-10.09h-.23L754.5 88.5c-.41 2.567-.79 3.85-1.14 3.85h-.896l-.914-.95v-1.213c0-2.157 1.893-6.803 5.678-13.94 2.696-7.5 4.436-11.35 5.22-11.55l1.144-.245zM802.954 60c1.3 0 2.86 2.32 4.676 6.96 3.504 6.833 7.4 12.68 11.69 17.544 1.44-13.395 2.513-21.28 3.216-23.66l1.16-.844h.88c.585 0 .878.37.878 1.107-1.758 19.15-2.83 29.362-3.217 30.64l-1.758.562c-3.11 0-8.37-6.32-15.77-18.94l-1.18-1.13-.28.84-.88 12.81v1.67l.28 1.67c-.26 2.22-1.04 3.34-2.34 3.34-1.19-.41-1.87-.97-2.04-1.67 1.5-20.05 2.57-30.08 3.22-30.08l1.46-.85zm34.277 4.5h.85c1.16 0 2.63 5.36 4.41 16.084 1.41 5.063 2.11 8.502 2.11 10.318-.29.96-.85 1.442-1.69 1.442-1.08 0-1.85-2.56-2.32-7.682l-.21-.228h-.21c-1.83.023-5.68 1.142-11.56 3.357-.56 3.2-1.47 4.8-2.74 4.8-.84-.32-1.26-.96-1.26-1.91 0-1.85 3.86-10.33 11.59-25.45l1.06-.72zm-.42 6.715c-1.68 3.047-3.23 6.252-4.64 9.615h1.48c1.43 0 3.26-.322 5.49-.967l-1.9-8.648h-.42zm22.36-6.768h1.6c2.43 0 3.64 1.143 3.64 3.428v2.057c-5.45 5.86-9.7 11.43-12.76 16.716h.23l8.21-.914c1.82 0 2.73 1.143 2.73 3.428 0 .785-.23 1.242-.68 1.37H861c-2.286 0-6.54.687-12.763 2.058-1.218-.563-1.828-1.553-1.828-2.97 1.34-2.872 5.75-9.587 13.22-20.145v-.23h-.92c-1.68 0-4.87.61-9.57 1.83h-.23l-.69-.686v-.23c0-2.94 1.44-4.62 4.32-5.03 2.31-.46 4.51-.69 6.61-.69zm16.09.053h.85c1.16 0 2.63 5.36 4.41 16.084 1.41 5.063 2.11 8.502 2.11 10.318-.29.96-.85 1.442-1.68 1.442-1.07 0-1.85-2.56-2.32-7.682l-.21-.228h-.21c-1.83.023-5.68 1.142-11.56 3.357-.56 3.2-1.47 4.8-2.74 4.8-.84-.32-1.26-.96-1.26-1.91 0-1.85 3.86-10.33 11.59-25.45l1.06-.72zm-.42 6.715c-1.68 3.047-3.23 6.252-4.64 9.615h1.48c1.43 0 3.26-.322 5.49-.967l-1.89-8.648h-.42zm22.68-6.768h2.43c3.72 0 5.57 1.295 5.57 3.885v.246c0 4.535-3.88 8.66-11.63 12.375v.23c3.88 3.56 7.12 6.233 9.71 8.014v.72c0 1.255-.4 2.063-1.21 2.427h-.96l-13.33-9.457-.24 4.85v3.64c-.41.81-1.05 1.213-1.93 1.213-.64 0-1.13-.322-1.46-.967v-1.46l2.18-18.93c-.64 0-.97-.48-.97-1.442 0-2.91 2.42-4.61 7.26-5.09l4.61-.24zm-8.47 13.096h.25c8.39-2.156 12.59-4.5 12.59-7.03v-.247c0-.446-.81-.768-2.42-.967-2.68 0-5.91.56-9.68 1.7l-.72 6.54zM924.3 64.5c.807.176 1.212.79 1.212 1.846-.26 1.992-1.064 2.988-2.41 2.988-8.837 0-13.255 1.23-13.255 3.69L909.6 75.1v1.142c5.766-1.383 9.704-2.074 11.813-2.074h.475c.808.352 1.213 1.12 1.213 2.303 0 1.69-1.12 2.54-3.37 2.54-7.39.96-11.09 2.12-11.09 3.47l-.23 2.31v.92c0 1.38.88 2.15 2.64 2.3 2.77-.3 6.23-.99 10.37-2.07h.72c.65.25.97.79.97 1.62v.69c0 1.89-4.02 3.35-12.06 4.38h-.72c-2.89 0-4.5-1.84-4.81-5.52 0-2.7.56-7.85 1.69-15.43l-.47-1.39c0-3.11 4.82-4.95 14.45-5.52l3.13-.23zm20.74-.07c1.524 0 2.285.632 2.285 1.898v.475c0 1.746-1.36 2.62-4.078 2.62l-5.08.245c-1.523 8.12-2.285 15.105-2.285 20.953-.41 1.27-.83 1.9-1.265 1.9h-.773c-.876 0-1.386-.24-1.526-.72.855-8.99 1.787-16.29 2.794-21.9l-7.628 1.2c-.716 0-1.138-.71-1.267-2.14 0-2.38 2.12-3.57 6.363-3.57 2.543-.63 6.697-.95 12.463-.95zm20.338.017c.832.223 1.248.79 1.248 1.705v.23c-1.172 17.308-2.004 25.962-2.496 25.962l-.265.246h-.738c-.867 0-1.453-.404-1.758-1.213.32-2.31.49-5.543.49-9.703h-.25L951.1 84.1l-.74.966v4.606c0 1.37-.503 2.344-1.51 2.918h-.493c-.937 0-1.523-.404-1.757-1.213 1.16-17.473 2.83-26.21 5.01-26.21h.49l.758.985c-1.17 5.8-1.755 10.084-1.755 12.85 7.675-1.008 11.513-2.22 11.513-3.64l1.002-10.194 1.757-.72zM993.838 60h.51l.753.65v.44c0 .363-1.27 2.097-3.81 5.203-3.04 4.63-4.57 8.977-4.57 13.043 0 3.668 1.78 7.072 5.33 10.213l.27.86c0 .86-.51 1.59-1.53 2.18h-1.02c-4.4-3-6.61-7.2-6.61-12.61v-.65c0-5.48 2.46-11.27 7.39-17.39 1.48-1.3 2.58-1.95 3.31-1.95zm3.073 4.5c.79 0 1.18 2.72 1.18 8.156l1.58 10.336h.39c0-.597 1.58-3.803 4.73-9.615.49-3.832 1.41-5.748 2.76-5.748h.39c.8 0 1.46 2.95 1.97 8.87.88 4.04 1.54 6.44 1.97 7.2.42-2.04 2.53-8.05 6.31-18.02.55-.64 1.08-.95 1.59-.95.71 0 1.16.31 1.37.95 0 .82-1.97 6.18-5.9 16.08-.65 2.34-1.25 5.55-1.77 9.61-.42.79-.95 1.19-1.58 1.19-1.19 0-2.11-2.72-2.74-8.16-1.29-5.31-2.08-8.19-2.37-8.65l-3.93 7.68c-.66 1.5-1.25 4.06-1.78 7.68-.35.59-.87.99-1.56 1.2-1.1 0-2.02-4.16-2.76-12.48-1.05-5.88-1.58-10.61-1.58-14.17 0-.48.6-.88 1.78-1.19zm43-.053c.83.223 1.25.79 1.25 1.705v.23c-1.17 17.308-2 25.962-2.49 25.962l-.26.246h-.74c-.86 0-1.45-.404-1.75-1.213.33-2.31.49-5.543.49-9.703h-.24l-10.51 2.426-.74.966v4.606c0 1.37-.5 2.344-1.51 2.918h-.49c-.93 0-1.52-.404-1.75-1.213 1.16-17.473 2.83-26.21 5.01-26.21h.5l.76.985c-1.17 5.8-1.75 10.084-1.75 12.85 7.68-1.008 11.52-2.22 11.52-3.64l1-10.194 1.76-.72zm21.62.053c.81.176 1.22.79 1.22 1.846-.25 1.992-1.06 2.988-2.4 2.988-8.83 0-13.25 1.23-13.25 3.69l-.24 2.076v1.142c5.77-1.383 9.7-2.074 11.81-2.074h.48c.81.352 1.22 1.12 1.22 2.303 0 1.69-1.12 2.54-3.37 2.54-7.39.96-11.09 2.12-11.09 3.47l-.23 2.31v.92c0 1.38.88 2.15 2.64 2.3 2.77-.3 6.23-.99 10.38-2.07h.72c.64.25.97.79.97 1.62v.69c0 1.89-4.02 3.35-12.06 4.38h-.72c-2.89 0-4.5-1.84-4.81-5.52 0-2.7.56-7.85 1.69-15.43l-.47-1.39c0-3.11 4.82-4.95 14.45-5.52l3.13-.23zm14.31-.053h2.43c3.72 0 5.57 1.295 5.57 3.885v.246c0 4.535-3.88 8.66-11.63 12.375v.23c3.88 3.56 7.12 6.233 9.71 8.014v.72c0 1.255-.4 2.063-1.21 2.427h-.96l-13.32-9.457-.24 4.85v3.64c-.41.81-1.05 1.213-1.93 1.213-.64 0-1.13-.322-1.46-.967v-1.46l2.18-18.93c-.64 0-.97-.48-.97-1.442 0-2.91 2.42-4.61 7.26-5.09l4.61-.24zm-8.47 13.096h.25c8.39-2.156 12.59-4.5 12.59-7.03v-.247c0-.446-.81-.768-2.42-.967-2.68 0-5.91.56-9.68 1.7l-.72 6.54zm35.26-13.043c.81.176 1.22.79 1.22 1.846-.26 1.992-1.06 2.988-2.41 2.988-8.83 0-13.25 1.23-13.25 3.69l-.24 2.076v1.142c5.77-1.383 9.71-2.074 11.82-2.074h.48c.81.352 1.22 1.12 1.22 2.303 0 1.69-1.12 2.54-3.37 2.54-7.39.96-11.09 2.12-11.09 3.47l-.23 2.31v.92c0 1.38.88 2.15 2.64 2.3 2.77-.3 6.23-.99 10.37-2.07h.72c.65.25.97.79.97 1.62v.69c0 1.89-4.02 3.35-12.05 4.38h-.72c-2.89 0-4.5-1.84-4.82-5.52 0-2.7.56-7.85 1.69-15.43l-.47-1.39c0-3.11 4.82-4.95 14.45-5.52l3.13-.23zm-999.98 41.93c1.53 0 2.29.632 2.29 1.898v.475c0 1.746-1.36 2.62-4.08 2.62l-5.08.245c-1.52 8.12-2.28 15.105-2.28 20.953-.41 1.27-.83 1.9-1.26 1.9h-.78c-.88 0-1.38-.24-1.53-.72.86-8.99 1.79-16.29 2.8-21.9l-7.63 1.2c-.71 0-1.13-.71-1.26-2.14 0-2.38 2.12-3.57 6.37-3.57 2.54-.63 6.69-.95 12.46-.95zm20.34.017c.84.223 1.25.79 1.25 1.705v.23c-1.17 17.308-2 25.962-2.5 25.962l-.26.246h-.74c-.86 0-1.45-.404-1.75-1.213.33-2.31.49-5.543.49-9.703h-.25l-10.51 2.426-.73.966v4.606c0 1.37-.5 2.344-1.51 2.918h-.49c-.94 0-1.52-.404-1.76-1.213 1.16-17.473 2.83-26.21 5.01-26.21h.49l.76.985c-1.17 5.8-1.75 10.084-1.75 12.85 7.68-1.008 11.52-2.22 11.52-3.64l1-10.194 1.76-.72zm21.62.053c.81.176 1.22.79 1.22 1.846-.25 1.992-1.06 2.988-2.41 2.988-8.83 0-13.25 1.23-13.25 3.69l-.24 2.076v1.142c5.77-1.383 9.71-2.074 11.82-2.074h.48c.81.352 1.21 1.12 1.21 2.303 0 1.69-1.12 2.54-3.37 2.54-7.39.96-11.09 2.12-11.09 3.47l-.23 2.31v.92c0 1.38.88 2.15 2.64 2.3 2.77-.3 6.23-.99 10.37-2.07h.72c.65.25.97.79.97 1.62v.69c0 1.89-4.02 3.35-12.05 4.38h-.72c-2.89 0-4.5-1.84-4.81-5.52 0-2.7.56-7.85 1.69-15.43l-.47-1.39c0-3.11 4.82-4.95 14.45-5.52l3.13-.23zm3.38 0l5.38 8.156 2.36 1.934c2.98-5.297 5.05-8.502 6.23-9.615h1.07l.86.966c-.11.86-3.48 6.86-10.09 18-1.66 3.13-2.88 5.93-3.65 8.41l-.63.25c-1.01-.47-1.51-1.19-1.51-2.16.06-1.25 1.78-5.17 5.15-11.76-4.86-5.23-7.29-9.47-7.29-12.73.9-.96 1.62-1.44 2.15-1.44zm32.54-.053h.25c.76 0 1.4.393 1.92 1.178-1.11 8.11-1.91 15.363-2.39 21.762l13.71-2.83.48.703v1.424c0 2.156-4.97 4.125-14.91 5.906-1.77-.317-2.65-.867-2.65-1.653 1.31-17.343 2.28-26.015 2.88-26.015l.72-.475zm20.2-.07h1.66c.55 0 .83.322.83.967-1.29 10.523-1.93 17.824-1.93 21.902v2.672c-.36 1.78-1.27 2.672-2.74 2.672H198l-1.11-.967c.74-11.04 1.66-19.8 2.76-26.28l1.09-.966zm23.56.07h.71c.63.258.95.82.95 1.688 0 1.172-2.45 6.222-7.35 15.152-2.4 6.692-3.9 10.3-4.5 10.828l-2.36.475c-1.03 0-1.74-1.846-2.14-5.537-3.15-11.12-4.73-17.936-4.73-20.444.26-.73.73-1.29 1.43-1.69h.95c.85 0 1.72 3.37 2.6 10.1l2.85 10.58h.23c1.64-4.34 5.19-11.23 10.65-20.69l.73-.48zm20.45.053c.81.176 1.21.79 1.21 1.846-.25 1.992-1.06 2.988-2.4 2.988-8.83 0-13.25 1.23-13.25 3.69l-.24 2.076v1.142c5.77-1.383 9.71-2.074 11.82-2.074h.48c.81.352 1.22 1.12 1.22 2.303 0 1.69-1.12 2.54-3.37 2.54-7.4.96-11.1 2.12-11.1 3.47l-.23 2.31v.92c0 1.38.88 2.15 2.64 2.3 2.77-.3 6.22-.99 10.37-2.07h.72c.65.25.97.79.97 1.62v.69c0 1.89-4.02 3.35-12.06 4.38h-.72c-2.89 0-4.5-1.84-4.81-5.52 0-2.7.56-7.85 1.69-15.43l-.47-1.39c0-3.11 4.82-4.95 14.45-5.52l3.13-.23zm10.6-.053h1.07c5.1 0 8.22 2.022 9.37 6.065l.21 1.933c0 8.05-5.96 14.684-17.89 19.9l-1.05.245h-.22c-.31 0-.59-.57-.84-1.705l2.13-20.865c-.86 0-1.28-.24-1.28-.72v-.493c0-2.578 1.14-3.868 3.41-3.868l5.12-.5zm-4.26 5.098c-1.27 8.297-1.91 13.875-1.91 16.734v1.21c8.94-4.47 13.41-8.67 13.41-12.62v-.23c0-2.28-.64-3.41-1.91-3.41-1.58-1.13-4.14-1.69-7.67-1.69h-1.91zM272.19 102h.754c3.316 3.07 4.974 7.547 4.974 13.43 0 8.52-3.486 14.906-10.46 19.16h-.49c-.67-.235-1.003-.75-1.003-1.547 0-.69 1.413-2.232 4.237-4.623 2.66-3.61 3.99-7.424 3.99-11.443 0-3.762-1.33-8.022-3.99-12.78.48-1.03 1.142-1.763 1.986-2.197zm40.217 4.43c1.528 0 2.29.632 2.29 1.898v.475c0 1.746-1.36 2.62-4.08 2.62l-5.08.245c-1.522 8.12-2.284 15.105-2.284 20.953-.41 1.27-.832 1.9-1.265 1.9h-.772c-.88 0-1.39-.24-1.53-.72.855-8.99 1.787-16.29 2.795-21.9l-7.63 1.2c-.71 0-1.13-.71-1.26-2.14 0-2.38 2.12-3.57 6.37-3.57 2.55-.63 6.7-.95 12.47-.95zm16.93.017c5.006.692 7.508 3.686 7.508 8.983 0 6.937-2.74 12.68-8.226 17.226-2.26 1.29-4.28 1.934-6.07 1.934-4.35 0-7.15-2.344-8.41-7.03l-.18-2.18v-.74c0-7.57 3.45-13.312 10.37-17.226 1.73-.644 3.4-.967 4.99-.967zm-13.04 18.933c1.805 2.74 4.19 4.11 7.154 4.11 4.77 0 8.11-2.83 10.01-8.49l.35-2.67c0-3.986-1.96-6.33-5.89-7.03h-.54c-3.24 0-6.63 3.23-10.17 9.7-.6 1.945-.89 3.404-.89 4.377zm49.58-23.38c5.72 0 8.58 1.875 8.58 5.625v.844c0 2.62-1.29 5.15-3.864 7.57v.28c4.23 1.24 6.346 3.3 6.346 6.19v1.12c0 4.7-4.79 8.16-14.36 10.38l-4.69.56h-2.76c-1.48 0-2.22-.75-2.22-2.25v-.28l2.21-23.03c-.93 0-1.39-.19-1.39-.56v-1.69c0-3.19 4.05-4.78 12.14-4.78zm-7.997 12.64h.28c8.65 0 12.974-1.87 12.974-5.61-1.43-.936-3.82-1.405-7.176-1.405h-3.322c-1.477 0-2.215.656-2.215 1.97l-.54 5.044zm-.563 5.342l-.544 8.983 2.756.562.28-.28h1.37c7.73-.985 11.6-2.76 11.6-5.327-2.53-2.625-6.49-3.938-11.87-3.938h-1.11l-.29-.28-.28.28h-1.93zm39.57-13.482c.807.176 1.212.79 1.212 1.846-.26 1.992-1.06 2.988-2.41 2.988-8.84 0-13.26 1.23-13.26 3.69l-.25 2.076v1.142c5.76-1.383 9.7-2.074 11.81-2.074h.47c.81.352 1.21 1.12 1.21 2.303 0 1.69-1.13 2.54-3.38 2.54-7.4.96-11.09 2.12-11.09 3.47l-.23 2.31v.92c0 1.38.88 2.15 2.63 2.3 2.77-.3 6.22-.99 10.37-2.07h.72c.64.25.96.79.96 1.62v.69c0 1.89-4.02 3.35-12.06 4.38h-.72c-2.9 0-4.5-1.84-4.82-5.52 0-2.7.56-7.85 1.69-15.43l-.48-1.39c0-3.11 4.81-4.95 14.45-5.52l3.13-.23zm20.74-.07c1.524 0 2.286.632 2.286 1.898v.475c0 1.746-1.36 2.62-4.08 2.62l-5.08.245c-1.524 8.12-2.286 15.105-2.286 20.953-.41 1.27-.832 1.9-1.266 1.9h-.77c-.88 0-1.39-.24-1.53-.72.86-8.99 1.79-16.29 2.8-21.9l-7.63 1.2c-.71 0-1.13-.71-1.26-2.14 0-2.38 2.12-3.57 6.37-3.57 2.55-.63 6.7-.95 12.47-.95zm20.34.017c.83.223 1.247.79 1.247 1.705v.23c-1.176 17.308-2.008 25.962-2.5 25.962l-.264.246h-.74c-.866 0-1.452-.404-1.757-1.213.33-2.31.49-5.543.49-9.703h-.244l-10.52 2.426-.74.966v4.606c0 1.37-.51 2.344-1.52 2.918h-.49c-.94 0-1.52-.404-1.76-1.213 1.16-17.473 2.83-26.21 5.01-26.21h.49l.75.985c-1.17 5.8-1.76 10.084-1.76 12.85 7.67-1.008 11.51-2.22 11.51-3.64l1-10.194 1.76-.72zm6.433 0h.246c.76 0 1.4.393 1.92 1.178-1.114 8.11-1.91 15.363-2.39 21.762l13.71-2.83.475.703v1.424c0 2.156-4.97 4.125-14.9 5.906-1.77-.317-2.65-.867-2.65-1.653 1.32-17.343 2.28-26.015 2.89-26.015l.72-.475zm33.345.053c.81.176 1.217.79 1.217 1.846-.258 1.992-1.06 2.988-2.408 2.988-8.837 0-13.255 1.23-13.255 3.69l-.25 2.076v1.142c5.76-1.383 9.7-2.074 11.81-2.074h.47c.81.352 1.21 1.12 1.21 2.303 0 1.69-1.13 2.54-3.38 2.54-7.4.96-11.09 2.12-11.09 3.47l-.23 2.31v.92c0 1.38.88 2.15 2.63 2.3 2.76-.3 6.22-.99 10.37-2.07h.72c.64.25.96.79.96 1.62v.69c0 1.89-4.02 3.35-12.06 4.38h-.72c-2.9 0-4.5-1.84-4.82-5.52 0-2.7.56-7.85 1.69-15.43l-.48-1.39c0-3.11 4.81-4.95 14.45-5.52l3.13-.23zm20.008-.053c.833.223 1.25.79 1.25 1.705v.23c-1.173 17.308-2.005 25.962-2.497 25.962l-.27.246h-.737c-.87 0-1.46-.404-1.76-1.213.32-2.31.49-5.543.49-9.703h-.25l-10.51 2.426-.74.966v4.606c0 1.37-.51 2.344-1.51 2.918h-.5c-.94 0-1.53-.404-1.76-1.213 1.16-17.473 2.83-26.21 5.01-26.21h.49l.75.985c-1.17 5.8-1.76 10.084-1.76 12.85 7.67-1.008 11.51-2.22 11.51-3.64l1-10.194 1.75-.72zm21.62.053c.81.176 1.215.79 1.215 1.846-.26 1.992-1.06 2.988-2.41 2.988-8.83 0-13.25 1.23-13.25 3.69l-.244 2.076v1.142c5.77-1.383 9.706-2.074 11.815-2.074h.47c.81.352 1.21 1.12 1.21 2.303 0 1.69-1.13 2.54-3.38 2.54-7.4.96-11.1 2.12-11.1 3.47l-.23 2.31v.92c0 1.38.87 2.15 2.63 2.3 2.76-.3 6.22-.99 10.37-2.07h.72c.64.25.96.79.96 1.62v.69c0 1.89-4.02 3.35-12.06 4.38h-.72c-2.89 0-4.5-1.84-4.82-5.52 0-2.7.56-7.85 1.69-15.43l-.48-1.39c0-3.11 4.82-4.95 14.45-5.52l3.13-.23zm12.15-.053h.456c.75.41 1.12 1.05 1.12 1.916v.492c0 5.204.45 11.297 1.37 18.282h.23c5.01-13.15 7.96-19.723 8.86-19.723h.68c.66 0 1.73 4.57 3.18 13.71 1.36 4.69 2.04 8.614 2.04 11.778-.45 1.125-1.13 1.688-2.04 1.688-.61 0-1.44-3.932-2.5-11.795l-1.83-7.682c-1.3 2.086-3.65 7.535-7.05 16.348-.98 1-1.81 1.56-2.5 1.69-1.97 0-2.96-2.65-2.96-7.94l-1.13-10.09h-.23l-6.82 15.38c-.41 2.57-.79 3.85-1.14 3.85h-.9l-.92-.95v-1.21c0-2.15 1.89-6.8 5.68-13.94 2.7-7.5 4.44-11.35 5.22-11.55l1.14-.24zM576.89 102h.51l.753.65v.44c0 .363-1.27 2.097-3.82 5.203-3.046 4.63-4.57 8.977-4.57 13.043 0 3.668 1.776 7.072 5.327 10.213l.263.86c0 .86-.51 1.59-1.53 2.18h-1.02c-4.405-3-6.61-7.2-6.61-12.61v-.65c0-5.48 2.463-11.27 7.385-17.39 1.477-1.3 2.578-1.95 3.305-1.95zm3.074 4.5c.785 0 1.178 2.72 1.178 8.156l1.582 10.336h.38c0-.597 1.577-3.803 4.73-9.615.49-3.832 1.41-5.748 2.76-5.748h.385c.79 0 1.45 2.95 1.96 8.87.88 4.04 1.53 6.44 1.97 7.2.42-2.04 2.52-8.05 6.31-18.02.55-.64 1.08-.95 1.58-.95.7 0 1.16.31 1.37.95 0 .82-1.97 6.18-5.91 16.08-.66 2.34-1.25 5.55-1.78 9.61-.42.79-.95 1.19-1.58 1.19-1.2 0-2.11-2.72-2.74-8.16-1.29-5.31-2.08-8.19-2.38-8.65l-3.94 7.68c-.66 1.5-1.25 4.06-1.78 7.68-.35.59-.87.99-1.57 1.2-1.1 0-2.02-4.16-2.76-12.48-1.06-5.88-1.58-10.61-1.58-14.17 0-.48.59-.88 1.77-1.19zm42.996-.053c.832.223 1.248.79 1.248 1.705v.23c-1.172 17.308-2.004 25.962-2.496 25.962l-.264.246h-.738c-.867 0-1.453-.404-1.758-1.213.328-2.31.492-5.543.492-9.703h-.25l-10.51 2.426-.74.966v4.606c0 1.37-.506 2.344-1.51 2.918h-.496c-.938 0-1.524-.404-1.758-1.213 1.16-17.473 2.83-26.21 5.01-26.21h.492l.754.985c-1.17 5.8-1.757 10.084-1.757 12.85 7.67-1.008 11.51-2.22 11.51-3.64l1-10.194 1.75-.72zm21.62.053c.81.176 1.214.79 1.214 1.846-.26 1.992-1.06 2.988-2.41 2.988-8.84 0-13.258 1.23-13.258 3.69l-.246 2.076v1.142c5.766-1.383 9.703-2.074 11.812-2.074h.474c.81.352 1.213 1.12 1.213 2.303 0 1.69-1.13 2.54-3.38 2.54-7.4.96-11.09 2.12-11.09 3.47l-.23 2.31v.92c0 1.38.88 2.15 2.63 2.3 2.77-.3 6.22-.99 10.37-2.07h.72c.64.25.97.79.97 1.62v.69c0 1.89-4.02 3.35-12.06 4.38h-.72c-2.9 0-4.5-1.84-4.82-5.52 0-2.7.56-7.85 1.69-15.43l-.48-1.39c0-3.11 4.81-4.95 14.45-5.52l3.12-.23zm14.31-.053h2.426c3.72 0 5.578 1.295 5.578 3.885v.246c0 4.535-3.88 8.66-11.637 12.375v.23c3.88 3.56 7.113 6.233 9.703 8.014v.72c0 1.255-.404 2.063-1.213 2.427h-.968l-13.33-9.457-.25 4.85v3.64c-.41.81-1.06 1.213-1.93 1.213-.65 0-1.13-.322-1.46-.967v-1.46l2.18-18.93c-.65 0-.97-.48-.97-1.442 0-2.91 2.41-4.61 7.25-5.09l4.6-.24zm-8.473 13.096h.247c8.39-2.156 12.58-4.5 12.58-7.03v-.247c0-.446-.808-.768-2.426-.967-2.684 0-5.913.56-9.686 1.7l-.72 6.54zM685.68 106.5c.808.176 1.213.79 1.213 1.846-.26 1.992-1.06 2.988-2.41 2.988-8.835 0-13.253 1.23-13.253 3.69l-.246 2.076v1.142c5.766-1.383 9.704-2.074 11.813-2.074h.475c.808.352 1.213 1.12 1.213 2.303 0 1.69-1.124 2.54-3.374 2.54-7.39.96-11.09 2.12-11.09 3.47l-.23 2.31v.92c0 1.38.88 2.15 2.64 2.3 2.77-.3 6.22-.99 10.37-2.07h.72c.65.25.97.79.97 1.62v.69c0 1.89-4.02 3.35-12.06 4.38h-.72c-2.89 0-4.5-1.84-4.81-5.52 0-2.7.57-7.85 1.69-15.43l-.47-1.39c0-3.11 4.82-4.95 14.45-5.52l3.13-.23zm27.14-4.5l9.598.563 5.204-.563.545.844v1.125c0 3-1.735 4.5-5.204 4.5h-.28c-.436 16.28-1.895 24.43-4.38 24.43-1.276 1.12-3.017 1.69-5.22 1.69h-1.916c-6.21-.95-9.315-4.04-9.315-9.27.55-3.14 1.37-5.21 2.46-6.19h.28c.28 0 .74 2.06 1.37 6.18 1.256 2.42 3.266 3.64 6.03 3.64 4.02 0 6.03-1.69 6.03-5.05l1.37-15.74h-3.022c-4.02 0-6.03-.47-6.03-1.41v-.56c.552-2.82 1.378-4.22 2.48-4.22zm30.797 4.447c5.004.692 7.506 3.686 7.506 8.983 0 6.937-2.743 12.68-8.227 17.226-2.262 1.29-4.284 1.934-6.065 1.934-4.34 0-7.14-2.344-8.4-7.03l-.17-2.18v-.74c0-7.57 3.45-13.312 10.37-17.226 1.73-.644 3.4-.967 4.99-.967zM730.57 125.38c1.804 2.74 4.19 4.11 7.154 4.11 4.77 0 8.103-2.83 10.002-8.49l.35-2.67c0-3.985-1.962-6.33-5.887-7.03h-.55c-3.25 0-6.64 3.232-10.18 9.7-.6 1.946-.9 3.405-.9 4.378zm36.562-18.88h.37c1.616.2 2.425.983 2.425 2.354v.475c0 2.36-.81 4.57-2.426 6.61h-.37c-.25-.07-.51-.47-.75-1.18l.95-3.54-.74-.48c-1.72.15-4.88 2.04-9.49 5.66v.23l12.27 2.37c1.24.98 1.87 2.63 1.87 4.95v1.4c0 3.17-2.04 5.93-6.13 8.26-1.6.63-3.15.95-4.65.95h-.38c-4.26 0-6.86-1.89-7.8-5.66v-1.42c0-1.74.44-2.61 1.3-2.61.86 3 2.41 4.5 4.66 4.5 0 .31.93.46 2.8.46 2.75 0 5.42-1.41 8-4.24 0-1.88-3.96-3.06-11.9-3.55-2.86-.8-4.29-1.98-4.29-3.54 0-3.83 3.85-7.69 11.53-11.57l2.8-.48zm25.05 0c.807.175 1.212.79 1.212 1.845-.258 1.992-1.06 2.988-2.41 2.988-8.835 0-13.253 1.23-13.253 3.69l-.24 2.076v1.14c5.77-1.39 9.71-2.08 11.82-2.08h.48c.81.35 1.22 1.12 1.22 2.3 0 1.68-1.12 2.53-3.37 2.53-7.39.96-11.09 2.11-11.09 3.46l-.23 2.3v.91c0 1.38.88 2.15 2.64 2.3 2.77-.31 6.23-1 10.37-2.08h.73c.64.24.97.78.97 1.61v.69c0 1.89-4.02 3.35-12.05 4.38h-.72c-2.89 0-4.5-1.84-4.82-5.52 0-2.71.57-7.85 1.69-15.44l-.47-1.39c0-3.11 4.82-4.95 14.45-5.52l3.13-.23zm14.272-.054c4.653 0 6.98 1.365 6.98 4.096 0 5.402-5.1 10.29-15.294 14.66-.75 0-1.125.48-1.125 1.442-.106 5.296-.633 7.945-1.582 7.945h-1.124c-.31-.07-.61-.47-.9-1.2l2.02-19.73h-.23c-.6 0-.9-.73-.9-2.18 0-2.36 1.35-3.72 4.06-4.08l8.08-.97zm-9 13.957c5.145-1.347 9.047-3.59 11.707-6.732l.44-1.46v-.47l-1.12-.24h-1.12c-5.99.33-8.98.89-8.98 1.69l-.91 7.23zm34.752-13.957c.832.223 1.248.79 1.248 1.705v.23c-1.172 17.31-2.004 25.97-2.496 25.97l-.264.25h-.738c-.867 0-1.453-.4-1.758-1.21.328-2.31.492-5.54.492-9.7h-.246l-10.51 2.43-.74.97v4.61c0 1.37-.504 2.35-1.51 2.92h-.494c-.937 0-1.523-.4-1.757-1.21 1.16-17.47 2.83-26.21 5.01-26.21h.493l.755.99c-1.17 5.8-1.75 10.09-1.75 12.85 7.68-1 11.52-2.22 11.52-3.64l1-10.19 1.76-.72zm9.88-4.43c1.71.55 2.565 1.3 2.565 2.25-.36 1.49-2.6 4.758-6.73 9.81h-1.62l-1.26-1.003v-.756l4.82-7.787c.33-1.675 1.08-2.512 2.24-2.512zm18.28 4.483h.37c1.617.2 2.425.98 2.425 2.35v.47c0 2.36-.81 4.57-2.42 6.61h-.37c-.25-.07-.51-.47-.75-1.18l.95-3.53-.74-.48c-1.72.15-4.88 2.04-9.49 5.66v.23l12.27 2.37c1.24.98 1.86 2.63 1.86 4.96v1.4c0 3.17-2.04 5.93-6.13 8.26-1.6.63-3.16.95-4.66.95h-.38c-4.26 0-6.86-1.89-7.8-5.66v-1.42c0-1.74.44-2.61 1.3-2.61.86 3 2.41 4.5 4.66 4.5 0 .3.93.46 2.8.46 2.76 0 5.42-1.41 8-4.24 0-1.87-3.97-3.06-11.9-3.55-2.86-.8-4.29-1.97-4.29-3.53 0-3.83 3.85-7.69 11.53-11.57l2.8-.48zm36.79 0h2.27c1.007.63 1.51 1.34 1.51 2.12-.27 1.88-1.107 2.83-2.513 2.83-4.042 0-7.985.39-11.83 1.18l-.49 5.2 1.247.23h1.002c2.975 0 6.415-.48 10.317-1.43l.75 1.42c-.38 2.83-1.55 4.25-3.52 4.25-1.22.62-4.66 1.09-10.32 1.4-.4 7.09-1.07 10.63-2.02 10.63l-1 .23h-.25c-.43 0-.68-.32-.76-.95 0-3.86.67-10.94 2-21.24l-.74-.72c0-2.38 1.67-3.79 5.02-4.24 3.36-.64 6.46-.95 9.3-.95zm14.626 0h.844c1.16 0 2.63 5.36 4.412 16.08 1.406 5.06 2.11 8.5 2.11 10.32-.293.96-.856 1.44-1.688 1.44-1.078 0-1.852-2.56-2.32-7.68l-.21-.23h-.212c-1.828.02-5.684 1.14-11.567 3.35-.56 3.2-1.47 4.8-2.74 4.8-.84-.33-1.26-.97-1.26-1.92 0-1.85 3.86-10.34 11.59-25.46l1.06-.72zm-.422 6.71c-1.687 3.04-3.234 6.25-4.64 9.61h1.476c1.43 0 3.258-.33 5.485-.97l-1.9-8.65h-.42zm20.514-6.77h.457c.75.41 1.13 1.05 1.13 1.91v.49c0 5.2.46 11.29 1.37 18.28h.23c5.02-13.15 7.97-19.72 8.86-19.72h.69c.67 0 1.73 4.57 3.18 13.71 1.36 4.69 2.04 8.61 2.04 11.78-.44 1.12-1.12 1.69-2.04 1.69-.61 0-1.44-3.94-2.49-11.8l-1.83-7.68c-1.3 2.09-3.65 7.53-7.05 16.35-.97.99-1.8 1.56-2.49 1.69-1.96 0-2.95-2.65-2.95-7.95l-1.12-10.09h-.23l-6.82 15.38c-.41 2.57-.79 3.85-1.14 3.85h-.9l-.91-.95v-1.22c0-2.16 1.89-6.8 5.68-13.94 2.69-7.5 4.43-11.35 5.22-11.55l1.14-.25zm25.383-.07h1.652c.55 0 .82.32.82.96-1.29 10.52-1.94 17.82-1.94 21.9v2.67c-.37 1.78-1.28 2.67-2.74 2.67h-.55l-1.11-.97c.74-11.04 1.65-19.8 2.76-26.28l1.09-.97zm7.734.07h.25c.76 0 1.4.39 1.92 1.18-1.11 8.11-1.91 15.36-2.39 21.76l13.71-2.83.48.7v1.42c0 2.15-4.97 4.12-14.9 5.9-1.77-.32-2.65-.87-2.65-1.66 1.31-17.35 2.27-26.02 2.88-26.02l.72-.48zm16.7.05l5.38 8.15 2.36 1.93c2.98-5.3 5.05-8.51 6.23-9.62h1.07l.86.96c-.11.85-3.48 6.85-10.09 18-1.66 3.13-2.88 5.93-3.65 8.4l-.63.24c-1-.47-1.51-1.19-1.51-2.16.06-1.26 1.78-5.18 5.15-11.76-4.86-5.23-7.29-9.47-7.29-12.73.9-.96 1.62-1.44 2.15-1.44zm46.11 0h1.04c1.3 0 2.08 1.05 2.34 3.14v.49c0 3.17-1.2 5.27-3.6 6.29l-.42-.5v-.25l1.07-4.12-.84-.48c-3.5 0-7.67 3.31-12.5 9.93-1.15 2-1.72 3.53-1.72 4.59v.24c0 2.58 1.56 3.86 4.68 3.86h.2c3 0 6.33-.8 9.97-2.41h.65c.57.26.85.82.85 1.69v.97c-3 3.07-6.52 4.6-10.58 4.6-5.52-.57-8.28-3.32-8.28-8.23v-.49c0-6.27 4.45-12.41 13.34-18.41 1.69-.65 2.97-.97 3.84-.97zm14.22 0h.85c1.16 0 2.63 5.36 4.42 16.08 1.41 5.06 2.11 8.5 2.11 10.32-.29.96-.85 1.44-1.69 1.44-1.08 0-1.85-2.56-2.32-7.68l-.21-.23h-.21c-1.83.02-5.68 1.14-11.56 3.35-.56 3.2-1.47 4.8-2.74 4.8-.84-.33-1.26-.97-1.26-1.92 0-1.86 3.86-10.34 11.59-25.46l1.06-.72zm-.42 6.71c-1.69 3.04-3.23 6.25-4.64 9.61h1.48c1.43 0 3.26-.33 5.49-.97l-1.9-8.65h-.42zm20.51-6.77h.46c.75.41 1.13 1.05 1.13 1.91v.49c0 5.2.46 11.29 1.38 18.28h.23c5.02-13.15 7.97-19.73 8.86-19.73h.69c.67 0 1.73 4.57 3.19 13.71 1.36 4.69 2.04 8.61 2.04 11.78-.45 1.12-1.12 1.69-2.04 1.69-.61 0-1.44-3.94-2.49-11.8l-1.83-7.69c-1.3 2.09-3.65 7.53-7.05 16.35-.97.99-1.8 1.56-2.49 1.69-1.97 0-2.95-2.65-2.95-7.95l-1.12-10.09h-.23l-6.82 15.38c-.41 2.57-.79 3.85-1.14 3.85h-.9l-.91-.95v-1.22c0-2.16 1.89-6.81 5.68-13.94 2.7-7.5 4.44-11.35 5.22-11.55l1.15-.25zm38.53.05c.81.17 1.22.79 1.22 1.84-.26 1.99-1.06 2.99-2.41 2.99-8.83 0-13.25 1.23-13.25 3.69l-.24 2.07v1.14c5.77-1.38 9.71-2.07 11.82-2.07h.48c.81.35 1.22 1.12 1.22 2.3 0 1.68-1.12 2.53-3.37 2.53-7.39.96-11.09 2.11-11.09 3.46l-.23 2.3v.91c0 1.38.88 2.15 2.64 2.3 2.77-.31 6.22-1 10.37-2.08h.72c.65.24.97.78.97 1.62v.68c0 1.88-4.02 3.34-12.06 4.37h-.72c-2.89 0-4.5-1.84-4.81-5.52 0-2.7.56-7.85 1.69-15.43l-.47-1.39c0-3.11 4.82-4.95 14.45-5.52l3.13-.23zm-841.66 42h2.27c1.01.63 1.51 1.34 1.51 2.12-.27 1.88-1.1 2.83-2.51 2.83-4.04 0-7.98.39-11.83 1.18l-.49 5.2 1.25.22h1c2.98 0 6.42-.47 10.32-1.42l.76 1.42c-.37 2.83-1.54 4.25-3.51 4.25-1.22.62-4.66 1.09-10.32 1.4-.4 7.09-1.07 10.64-2.02 10.64l-1 .23h-.24c-.42 0-.67-.32-.76-.95 0-3.86.67-10.94 2.01-21.24l-.74-.72c0-2.38 1.68-3.79 5.03-4.24 3.37-.64 6.46-.95 9.3-.95zm16.86-.06h2.43c3.72 0 5.57 1.29 5.57 3.88v.25c0 4.53-3.88 8.66-11.63 12.37v.23c3.88 3.56 7.12 6.23 9.71 8.01v.72c0 1.25-.4 2.06-1.21 2.42h-.96l-13.32-9.46-.25 4.85v3.64c-.41.81-1.05 1.21-1.93 1.21-.64 0-1.13-.33-1.46-.97v-1.46l2.18-18.93c-.64 0-.96-.48-.96-1.45 0-2.92 2.42-4.61 7.26-5.1l4.61-.25zm-8.47 13.09h.25c8.39-2.16 12.59-4.5 12.59-7.03v-.25c0-.45-.81-.77-2.42-.97-2.68 0-5.91.56-9.68 1.7l-.72 6.54zm31.84-13.1c5.01.69 7.51 3.68 7.51 8.98 0 6.93-2.74 12.68-8.22 17.22-2.26 1.29-4.28 1.93-6.06 1.93-4.35 0-7.15-2.35-8.4-7.03l-.17-2.18v-.74c0-7.57 3.46-13.32 10.37-17.23 1.74-.65 3.4-.97 5-.97zm-13.04 18.93c1.81 2.74 4.19 4.11 7.16 4.11 4.77 0 8.11-2.83 10-8.49l.36-2.67c0-3.99-1.96-6.33-5.89-7.03h-.54c-3.24 0-6.63 3.23-10.17 9.7-.6 1.94-.9 3.4-.9 4.37zm32.59-18.94h.46c.75.41 1.13 1.05 1.13 1.92v.49c0 5.21.46 11.3 1.37 18.28h.23c5.02-13.15 7.97-19.73 8.86-19.73h.69c.67 0 1.73 4.57 3.18 13.71 1.36 4.69 2.04 8.61 2.04 11.77-.44 1.12-1.12 1.69-2.04 1.69-.61 0-1.44-3.93-2.49-11.8l-1.83-7.68c-1.3 2.08-3.65 7.53-7.05 16.35-.97.99-1.8 1.56-2.49 1.68-1.97 0-2.95-2.65-2.95-7.95l-1.12-10.09h-.23l-6.82 15.38c-.41 2.57-.79 3.85-1.14 3.85h-.9l-.91-.95v-1.22c0-2.16 1.89-6.8 5.68-13.94 2.7-7.5 4.44-11.35 5.22-11.55l1.15-.25zm25.95-4.43h.76c3.32 3.07 4.98 7.55 4.98 13.43 0 8.52-3.48 14.9-10.46 19.16h-.49c-.67-.24-1-.75-1-1.55 0-.69 1.42-2.23 4.24-4.62 2.66-3.61 3.99-7.43 3.99-11.45 0-3.76-1.33-8.02-3.99-12.78.48-1.03 1.15-1.77 1.99-2.2zm9 26.59c1.57 0 2.55.95 2.94 2.86 0 1.91-1.37 2.96-4.11 3.13-1.37-.51-2.05-1.38-2.05-2.6v-.26c.54-2.08 1.62-3.13 3.24-3.13zM381.82 144h1.81c.6 0 .897.375.897 1.125-1.406 12.152-2.11 20.578-2.11 25.277v3.094c-.397 2.063-1.393 3.094-2.987 3.094h-.615l-1.196-1.125c.79-12.74 1.8-22.852 3-30.34l1.2-1.125zm23.643 4.43c1.524 0 2.286.632 2.286 1.898v.475c0 1.746-1.36 2.62-4.08 2.62l-5.08.245c-1.53 8.12-2.29 15.105-2.29 20.953-.41 1.27-.83 1.9-1.27 1.9h-.78c-.88 0-1.39-.24-1.53-.72.85-8.99 1.79-16.29 2.79-21.9l-7.63 1.2c-.72 0-1.14-.71-1.27-2.14 0-2.38 2.12-3.57 6.36-3.57 2.54-.63 6.7-.95 12.46-.95zm18.28.07c.787 0 1.18 2.72 1.18 8.156l1.58 10.336h.39c0-.597 1.575-3.803 4.727-9.615.492-3.832 1.412-5.748 2.76-5.748h.387c.797 0 1.453 2.95 1.968 8.87.88 4.04 1.54 6.44 1.97 7.2.43-2.04 2.53-8.05 6.31-18.02.56-.64 1.08-.95 1.59-.95.708 0 1.16.31 1.37.95 0 .82-1.97 6.18-5.9 16.08-.657 2.34-1.25 5.55-1.776 9.61-.43.79-.95 1.19-1.59 1.19-1.19 0-2.11-2.72-2.74-8.16-1.29-5.31-2.08-8.19-2.37-8.65l-3.94 7.68c-.66 1.5-1.25 4.06-1.78 7.68-.35.59-.88.99-1.57 1.2-1.11 0-2.03-4.16-2.76-12.48-1.06-5.88-1.59-10.61-1.59-14.17 0-.48.59-.88 1.77-1.19zm35.07 0h.844c1.16 0 2.63 5.36 4.412 16.084 1.4 5.063 2.11 8.502 2.11 10.318-.3.96-.86 1.442-1.69 1.442-1.08 0-1.85-2.56-2.32-7.682l-.21-.228h-.21c-1.83.023-5.69 1.142-11.57 3.357-.57 3.2-1.48 4.8-2.75 4.8-.85-.32-1.27-.96-1.27-1.91 0-1.85 3.86-10.33 11.58-25.45l1.05-.72zm-.42 6.715c-1.69 3.047-3.236 6.252-4.64 9.615h1.475c1.43 0 3.257-.322 5.484-.967l-1.9-8.648h-.42zm24.485-6.715h.37c1.616.2 2.425.984 2.425 2.355v.475c0 2.367-.81 4.57-2.43 6.61h-.37c-.26-.07-.51-.463-.76-1.178l.95-3.533-.74-.48c-1.72.15-4.89 2.04-9.49 5.66v.23l12.27 2.37c1.24.98 1.86 2.63 1.86 4.95v1.4c0 3.17-2.047 5.93-6.137 8.26-1.607.63-3.16.95-4.66.95h-.386c-4.267 0-6.868-1.89-7.806-5.66v-1.42c0-1.74.436-2.61 1.3-2.61.86 3 2.41 4.5 4.66 4.5 0 .3.93.46 2.796.46 2.75 0 5.42-1.41 7.995-4.24 0-1.87-3.964-3.06-11.9-3.55-2.86-.8-4.29-1.97-4.29-3.53 0-3.83 3.847-7.69 11.534-11.57l2.79-.48zm32.045 0h.84c1.16 0 2.63 5.36 4.41 16.084 1.4 5.063 2.11 8.502 2.11 10.318-.3.96-.86 1.442-1.69 1.442-1.08 0-1.85-2.56-2.32-7.682l-.21-.228h-.21c-1.83.023-5.69 1.142-11.57 3.357-.56 3.2-1.48 4.8-2.74 4.8-.848-.32-1.27-.96-1.27-1.91 0-1.85 3.86-10.33 11.583-25.45l1.054-.72zm-.43 6.715c-1.69 3.047-3.24 6.252-4.64 9.615h1.47c1.43 0 3.26-.322 5.485-.967l-1.898-8.648h-.424zm20.41-6.715c4.74 0 7.12 1.617 7.12 4.852v.72c0 2.262-1.078 4.442-3.22 6.54v.245c3.525 1.067 5.29 2.842 5.29 5.327v.966c0 4.055-3.986 7.037-11.95 8.948l-3.92.492h-2.29c-1.23 0-1.845-.645-1.845-1.934v-.246l1.844-19.863c-.775 0-1.16-.158-1.16-.475v-1.46c0-2.74 3.373-4.112 10.123-4.112zm-6.68 10.898h.242c7.195 0 10.793-1.617 10.793-4.85-1.18-.798-3.174-1.196-5.975-1.196h-2.76c-1.217 0-1.827.562-1.827 1.687l-.476 4.35zm-.46 4.606l-.46 7.734 2.3.492.23-.246h1.14c6.45-.843 9.67-2.373 9.67-4.588-2.12-2.26-5.42-3.392-9.895-3.392h-.91l-.23-.246-.228.246h-1.617zm32.904-15.557c5.004.692 7.506 3.686 7.506 8.983 0 6.937-2.74 12.68-8.226 17.226-2.26 1.29-4.283 1.934-6.064 1.934-4.35 0-7.15-2.344-8.403-7.03l-.176-2.18v-.74c0-7.57 3.46-13.312 10.37-17.226 1.74-.644 3.4-.967 4.998-.967zm-13.04 18.933c1.804 2.74 4.19 4.11 7.153 4.11 4.77 0 8.104-2.83 10.002-8.49l.35-2.67c0-3.985-1.963-6.33-5.89-7.03h-.544c-3.244 0-6.64 3.232-10.176 9.7-.596 1.946-.895 3.405-.895 4.378zm26.893-18.934c.75.305 1.166.62 1.25.95-1.337 8.355-2.004 14.425-2.004 18.21v2.602c4.47 0 8.14-2.052 11-6.153 1.123-9.938 2.21-14.907 3.25-14.907h.264c.997.106 1.495.346 1.495.72-1.5 9.048-2.25 15.827-2.25 20.34v3.778c0 1.242-.504 2.11-1.51 2.602h-1l-.987-.95v-.474l.247-4.008c-.597 0-3.85 1.494-9.756 4.483l-1.76.47c-2.01-.26-3.01-1.13-3.01-2.6v-.23c1.22-16.56 2.64-24.84 4.25-24.84h.51zm35.51-.017c1.523 0 2.284.63 2.284 1.89v.47c0 1.74-1.36 2.62-4.08 2.62l-5.08.24c-1.52 8.12-2.282 15.1-2.282 20.95-.41 1.26-.83 1.9-1.264 1.9h-.773c-.88 0-1.39-.24-1.53-.72.858-8.99 1.79-16.29 2.798-21.91l-7.63 1.19c-.717 0-1.14-.72-1.268-2.15 0-2.38 2.12-3.57 6.36-3.57 2.545-.63 6.7-.95 12.465-.95zm27.562-4.4h5.095c3.973 0 5.96 1.31 5.96 3.94v.26l-4.817 10.67c2.26 0 3.39.75 3.39 2.25l.28.84c-.444 2.98-1.2 4.48-2.266 4.48l-3.677-.56c-.95 2.49-1.8 5.67-2.55 9.54-.913.75-1.67 1.12-2.266 1.12-1.33-.46-1.99-1.12-1.99-1.97l2.27-8.7h-.28l-3.41.56h-.56l-1.14-1.13v-1.11c0-3.57 2.46-5.35 7.39-5.35h.57v-.28l3.4-7.86-2.83-.28h-2.55l-10.21.84-.84-1.69c0-3.55 1.7-5.33 5.1-5.33l5.96-.28zm26.013 0c2.695 0 4.593 2.15 5.695 6.45l.42 4.78v.56c0 9.16-2.6 15.61-7.804 19.35-.634.59-2.034 1.06-4.2 1.4-3.635 0-6.166-2.9-7.596-8.7l-.42-4.21c0-8.24 3.58-14.6 10.74-19.09l3.163-.57zm-10.53 21.6c1.02 3 2.496 4.5 4.43 4.5h1.265c4.49-1.09 6.732-2.69 6.732-4.79.56-2.19.84-4.44.84-6.73v-.28c0-5.05-1.197-7.58-3.587-7.58h-.635c-3.21 0-6.017 3.37-8.42 10.1l-.632 4.76zm43.63-17.2h.456c.75.41 1.13 1.05 1.13 1.91v.49c0 5.2.46 11.29 1.37 18.28h.23c5.02-13.15 7.97-19.73 8.86-19.73h.69c.67 0 1.73 4.57 3.18 13.71 1.36 4.69 2.04 8.61 2.04 11.78-.44 1.12-1.12 1.68-2.04 1.68-.61 0-1.44-3.93-2.49-11.8l-1.82-7.68c-1.3 2.09-3.65 7.54-7.05 16.35-.97 1-1.8 1.56-2.49 1.69-1.96 0-2.95-2.65-2.95-7.95l-1.12-10.09h-.23l-6.82 15.38c-.41 2.57-.79 3.85-1.14 3.85h-.89l-.91-.95v-1.22c0-2.15 1.89-6.8 5.68-13.94 2.7-7.5 4.44-11.35 5.22-11.55l1.14-.24zm25.382-.07h1.65c.55 0 .827.32.827.96-1.29 10.52-1.93 17.82-1.93 21.9v2.67c-.36 1.78-1.28 2.67-2.74 2.67h-.544l-1.108-.97c.736-11.04 1.656-19.8 2.76-26.28l1.09-.97zm7.733.07h.244c.76 0 1.4.39 1.915 1.18-1.12 8.11-1.91 15.36-2.39 21.76l13.71-2.83.47.7v1.42c0 2.15-4.97 4.12-14.91 5.9-1.77-.32-2.66-.87-2.66-1.66 1.31-17.35 2.27-26.02 2.88-26.02l.72-.48zm33.344.05c.81.17 1.212.79 1.212 1.84-.258 1.99-1.06 2.99-2.41 2.99-8.834 0-13.252 1.23-13.252 3.69l-.246 2.07v1.14c5.764-1.39 9.702-2.08 11.81-2.08h.476c.81.35 1.213 1.12 1.213 2.3 0 1.69-1.126 2.53-3.377 2.53-7.4.96-11.09 2.11-11.09 3.46l-.23 2.3v.91c0 1.38.88 2.15 2.63 2.3 2.768-.3 6.225-1 10.373-2.07h.72c.648.24.97.78.97 1.61v.68c0 1.88-4.02 3.34-12.06 4.37h-.72c-2.893 0-4.5-1.84-4.815-5.52 0-2.71.56-7.85 1.686-15.44l-.47-1.39c0-3.12 4.814-4.96 14.45-5.52l3.13-.23zm16.12 0h.37c1.614.2 2.423.98 2.423 2.35v.47c0 2.36-.81 4.57-2.426 6.61h-.37c-.26-.07-.51-.47-.76-1.18l.95-3.54-.74-.48c-1.72.15-4.88 2.04-9.49 5.66v.23l12.27 2.38c1.24.98 1.87 2.63 1.87 4.96v1.4c0 3.17-2.04 5.93-6.13 8.26-1.6.63-3.16.95-4.66.95h-.39c-4.27 0-6.87-1.89-7.81-5.66v-1.42c0-1.74.44-2.61 1.3-2.61.86 3 2.41 4.5 4.66 4.5 0 .31.93.46 2.8.46 2.76 0 5.42-1.41 8-4.23 0-1.88-3.96-3.06-11.9-3.55-2.86-.8-4.29-1.98-4.29-3.54 0-3.83 3.85-7.68 11.53-11.56l2.8-.47zm38.53-4.4c1.054 0 1.83.5 2.32 1.51v.6c0 .61-4.54 9.79-13.624 27.54-.88 3.02-2.04 4.53-3.48 4.53-1.16-.42-1.74-1.23-1.74-2.43l15.94-31.47.3-.3h.28zm26.19-.07c1.008.3 1.51.86 1.51 1.69-2.2 14.14-3.302 23.03-3.302 26.66v1.95c-.863 1.5-1.97 2.25-3.3 2.25l-2.11-1.13c.796-8.99 2-17.5 3.603-25.54-1.805-.38-2.707-1.22-2.707-2.52v-.84c0-.8 2.103-1.64 6.31-2.53zm11.11 0c1.008.3 1.51.86 1.51 1.69-2.2 14.14-3.303 23.03-3.303 26.66v1.95c-.86 1.5-1.97 2.25-3.3 2.25l-2.11-1.13c.8-8.99 2-17.5 3.61-25.54-1.81-.38-2.71-1.22-2.71-2.52v-.84c0-.8 2.1-1.64 6.31-2.53zm18.105 0c2.69 0 4.59 2.15 5.69 6.45l.42 4.78v.56c0 9.16-2.61 15.61-7.81 19.35-.63.59-2.03 1.06-4.2 1.4-3.63 0-6.16-2.9-7.59-8.7l-.43-4.21c0-8.24 3.58-14.61 10.74-19.09l3.16-.57zm-10.53 21.61c1.02 3 2.49 4.5 4.43 4.5h1.26c4.49-1.09 6.73-2.69 6.73-4.79.56-2.19.84-4.44.84-6.74v-.28c0-5.05-1.2-7.58-3.59-7.58h-.64c-3.21 0-6.02 3.37-8.42 10.11l-.64 4.76zm22.98-17.03l.7.97-.71 9.14 14.35-7.95c.62.77.93 1.73.93 2.88-1.62 2.27-5.77 5.16-12.47 8.66v.25c3.09 4.02 6.62 7.38 10.58 10.09v.49c0 2.23-.79 3.35-2.36 3.35l-11.74-9.62c-.47 6.41-.94 9.61-1.41 9.61l-1.18.25c-.79-.26-1.18-.74-1.18-1.44l.93-11.3-.23-2.89c.54 0 1.01-3.54 1.4-10.6.64-1.28 1.43-1.92 2.35-1.92zm26.19-.16h.46c.75.41 1.12 1.05 1.12 1.91v.5c0 5.2.45 11.29 1.37 18.28h.23c5.01-13.15 7.97-19.73 8.86-19.73h.68c.66 0 1.72 4.57 3.18 13.71 1.36 4.69 2.04 8.61 2.04 11.78-.45 1.12-1.13 1.69-2.04 1.69-.61 0-1.44-3.94-2.5-11.8l-1.83-7.68c-1.3 2.08-3.65 7.53-7.05 16.35-.97.99-1.81 1.56-2.5 1.68-1.97 0-2.96-2.65-2.96-7.95l-1.12-10.09h-.23l-6.82 15.38c-.41 2.57-.79 3.85-1.15 3.85h-.9l-.91-.95v-1.21c0-2.15 1.89-6.8 5.68-13.94 2.69-7.5 4.43-11.35 5.22-11.55l1.14-.24zm22.97 22.15c1.57 0 2.55.95 2.94 2.86 0 1.91-1.37 2.95-4.11 3.13-1.37-.52-2.06-1.39-2.06-2.61v-.27c.54-2.09 1.61-3.13 3.23-3.13z" fill="#000"/><path d="M1355.475 572.273c.867 0 1.906 1.547 3.117 4.64 2.336 4.556 4.933 8.454 7.793 11.696.96-8.93 1.676-14.19 2.144-15.78l.77-.57h.58c.39 0 .58.24.58.74-1.17 12.76-1.89 19.57-2.15 20.42l-1.17.37c-2.07 0-5.58-4.21-10.51-12.62l-.79-.75-.19.56-.59 8.54v1.11l.19 1.11c-.17 1.48-.69 2.22-1.56 2.22-.79-.28-1.24-.65-1.36-1.12 1-13.37 1.71-20.05 2.14-20.05l.97-.56zm22.85 3h.564c.77 0 1.75 3.575 2.94 10.723.93 3.375 1.4 5.668 1.4 6.88-.2.64-.57.96-1.13.96-.72 0-1.24-1.707-1.55-5.12l-.14-.154h-.14c-1.22.016-3.79.762-7.71 2.24-.38 2.132-.99 3.198-1.83 3.198-.56-.22-.85-.645-.85-1.277 0-1.235 2.57-6.89 7.72-16.97l.7-.48zm-.28 4.477c-1.125 2.03-2.156 4.168-3.094 6.41h.99c.96 0 2.17-.215 3.66-.644l-1.26-5.766h-.28zm14.906-4.512h1.07c1.62 0 2.43.762 2.43 2.285v1.372c-3.63 3.906-6.47 7.62-8.5 11.144h.15l5.48-.61c1.21 0 1.82.76 1.82 2.28 0 .52-.15.83-.46.91h-.75c-1.52 0-4.36.45-8.5 1.37-.81-.38-1.22-1.04-1.22-1.98.9-1.92 3.84-6.39 8.82-13.43v-.16h-.61c-1.11 0-3.24.4-6.37 1.22h-.15l-.46-.46v-.16c0-1.96.96-3.08 2.88-3.35 1.54-.31 3.01-.46 4.41-.46zm16.02.035c.54.118.81.528.81 1.23-.17 1.33-.7 1.993-1.6 1.993-5.89 0-8.83.82-8.83 2.46l-.16 1.384v.762c3.85-.922 6.47-1.383 7.88-1.383h.32c.54.23.81.74.81 1.53 0 1.12-.75 1.68-2.25 1.68-4.93.64-7.39 1.41-7.39 2.31l-.15 1.53v.61c0 .92.59 1.43 1.76 1.53 1.84-.21 4.15-.67 6.91-1.39h.48c.43.16.65.52.65 1.08v.45c0 1.26-2.68 2.23-8.04 2.92h-.48c-1.93 0-3-1.23-3.21-3.68 0-1.81.38-5.24 1.13-10.29l-.31-.93c0-2.08 3.21-3.31 9.63-3.68l2.09-.15zm9.54-.035h1.62c2.48 0 3.72.864 3.72 2.59v.164c0 3.024-2.58 5.774-7.76 8.25v.153c2.59 2.375 4.74 4.156 6.47 5.343v.48c0 .837-.27 1.376-.81 1.618h-.64l-8.88-6.305-.16 3.24v2.43c-.27.54-.7.81-1.29.81-.43 0-.75-.21-.97-.64v-.97l1.46-12.62c-.43 0-.64-.32-.64-.96 0-1.94 1.62-3.08 4.84-3.4l3.07-.16zm-5.65 8.73h.17c5.6-1.437 8.39-3 8.39-4.687v-.16c0-.29-.54-.51-1.61-.64-1.79 0-3.94.38-6.45 1.14l-.48 4.36zm23.51-8.695c.54.118.81.528.81 1.23-.17 1.33-.7 1.993-1.6 1.993-5.89 0-8.83.82-8.83 2.46l-.16 1.384v.762c3.85-.922 6.47-1.383 7.88-1.383h.32c.54.23.81.74.81 1.53 0 1.12-.75 1.68-2.25 1.68-4.93.64-7.39 1.41-7.39 2.31l-.15 1.53v.61c0 .92.59 1.43 1.76 1.53 1.85-.21 4.15-.67 6.92-1.39h.48c.43.16.65.52.65 1.08v.45c0 1.26-2.68 2.23-8.04 2.92h-.48c-1.93 0-3-1.23-3.21-3.68 0-1.81.38-5.24 1.13-10.29l-.32-.93c0-2.08 3.21-3.31 9.64-3.68l2.09-.15zm13.83-.046c1.02 0 1.53.42 1.53 1.265v.317c0 1.16-.9 1.74-2.72 1.74l-3.38.16c-1.01 5.41-1.52 10.07-1.52 13.96-.27.84-.55 1.26-.84 1.26h-.51c-.59 0-.92-.16-1.02-.48.57-6 1.19-10.86 1.86-14.6l-5.08.79c-.47 0-.76-.48-.84-1.43 0-1.59 1.42-2.38 4.25-2.38 1.7-.42 4.47-.63 8.31-.63zm13.56.01c.56.15.83.53.83 1.138v.152c-.78 11.54-1.33 17.31-1.66 17.31l-.17.163h-.49c-.57 0-.97-.27-1.17-.81.22-1.538.33-3.694.33-6.467h-.16l-7.01 1.617-.49.644v3.07c0 .915-.34 1.563-1.01 1.946h-.33c-.62 0-1.01-.27-1.17-.81.78-11.647 1.89-17.47 3.34-17.47h.33l.51.655c-.78 3.867-1.17 6.723-1.17 8.566 5.12-.67 7.68-1.48 7.68-2.42l.67-6.79 1.18-.48zm-286.73 35.036c3.82 0 5.72 1.25 5.72 3.75v.563c0 1.75-.86 3.434-2.57 5.05v.188c2.82.828 4.23 2.203 4.23 4.125v.75c0 3.13-3.19 5.44-9.57 6.92l-3.13.37h-1.84c-.98 0-1.47-.5-1.47-1.5v-.19l1.48-15.35c-.62 0-.92-.13-.92-.38v-1.13c0-2.13 2.7-3.19 8.1-3.19zm-5.33 8.426h.19c5.77 0 8.65-1.25 8.65-3.74-.95-.63-2.54-.94-4.78-.94h-2.21c-.98 0-1.47.44-1.47 1.31l-.36 3.36zm-.37 3.56l-.36 5.99 1.84.37.19-.19h.92c5.16-.66 7.74-1.84 7.74-3.55-1.68-1.75-4.32-2.63-7.91-2.63h-.74l-.18-.19-.19.18h-1.29zm26.38-8.99c.54.12.81.53.81 1.23-.17 1.33-.7 1.99-1.6 1.99-5.89 0-8.83.82-8.83 2.46l-.16 1.38v.76c3.85-.92 6.47-1.38 7.88-1.38h.32c.54.23.81.74.81 1.53 0 1.12-.75 1.68-2.25 1.68-4.93.64-7.39 1.41-7.39 2.31l-.15 1.53v.61c0 .92.59 1.43 1.76 1.53 1.85-.21 4.15-.67 6.92-1.39h.49c.43.16.64.52.64 1.07v.45c0 1.26-2.68 2.23-8.04 2.92h-.48c-1.93 0-3-1.23-3.21-3.68 0-1.81.38-5.24 1.13-10.29l-.32-.93c0-2.08 3.21-3.3 9.63-3.68l2.09-.15zm13.83-.05c1.02 0 1.53.42 1.53 1.26v.31c0 1.16-.9 1.74-2.72 1.74l-3.38.16c-1.01 5.41-1.52 10.07-1.52 13.96-.27.84-.55 1.26-.84 1.26h-.52c-.58 0-.92-.16-1.02-.48.57-6 1.19-10.86 1.87-14.61l-5.08.8c-.47 0-.76-.48-.84-1.43 0-1.59 1.42-2.38 4.24-2.38 1.7-.42 4.47-.63 8.31-.63zm13.56.01c.56.15.84.53.84 1.14v.15c-.78 11.54-1.33 17.31-1.66 17.31l-.17.16h-.49c-.58 0-.97-.27-1.17-.81.22-1.54.33-3.7.33-6.47h-.16l-7.01 1.61-.49.64v3.07c0 .91-.34 1.56-1.01 1.94h-.33c-.62 0-1.01-.27-1.17-.81.77-11.65 1.89-17.47 3.34-17.47h.33l.51.65c-.78 3.86-1.17 6.72-1.17 8.56 5.12-.67 7.68-1.48 7.68-2.43l.67-6.8 1.17-.48zm4.29 0h.17c.51 0 .94.26 1.28.78-.74 5.4-1.27 10.24-1.59 14.51l9.14-1.89.32.47v.95c0 1.43-3.31 2.75-9.94 3.93-1.18-.21-1.77-.58-1.77-1.11.88-11.57 1.52-17.35 1.92-17.35l.48-.32zm22.23.03c.54.12.81.53.81 1.23-.17 1.33-.71 1.99-1.6 1.99-5.89 0-8.83.82-8.83 2.46l-.16 1.38v.76c3.84-.92 6.47-1.38 7.88-1.38h.32c.54.23.81.74.81 1.53 0 1.12-.75 1.68-2.25 1.68-4.93.64-7.39 1.41-7.39 2.31l-.15 1.53v.61c0 .92.59 1.43 1.76 1.53 1.84-.21 4.15-.67 6.92-1.39h.48c.43.16.65.52.65 1.07v.46c0 1.26-2.68 2.23-8.04 2.92h-.48c-1.93 0-3-1.23-3.21-3.68 0-1.81.37-5.24 1.12-10.29l-.31-.93c0-2.08 3.21-3.3 9.63-3.68l2.09-.15zm13.34-.04c.56.15.83.53.83 1.13v.15c-.78 11.54-1.33 17.31-1.66 17.31l-.17.16h-.49c-.58 0-.97-.27-1.17-.81.22-1.54.33-3.7.33-6.47h-.16l-7 1.61-.49.64v3.07c0 .91-.33 1.56-1.01 1.94h-.32c-.63 0-1.02-.27-1.17-.81.78-11.65 1.89-17.47 3.34-17.47h.33l.51.65c-.78 3.87-1.17 6.72-1.17 8.57 5.12-.67 7.68-1.48 7.68-2.43l.67-6.8 1.17-.49zm14.42.03c.54.12.81.53.81 1.23-.17 1.33-.7 1.99-1.6 1.99-5.89 0-8.83.82-8.83 2.46l-.16 1.38v.76c3.85-.92 6.47-1.39 7.88-1.39h.32c.54.23.81.74.81 1.53 0 1.12-.75 1.69-2.25 1.69-4.93.64-7.39 1.41-7.39 2.31l-.15 1.53v.61c0 .92.59 1.43 1.76 1.53 1.85-.21 4.15-.67 6.92-1.39h.48c.43.16.65.52.65 1.08v.45c0 1.26-2.68 2.23-8.04 2.92h-.48c-1.93 0-3-1.23-3.21-3.68 0-1.81.38-5.24 1.13-10.29l-.32-.93c0-2.08 3.22-3.3 9.64-3.68l2.09-.15zm8.1-.04h.31c.5.27.75.7.75 1.27v.33c0 3.47.31 7.53.92 12.19h.15c3.35-8.77 5.31-13.15 5.91-13.15h.46c.45 0 1.16 3.04 2.12 9.14.91 3.12 1.36 5.74 1.36 7.85-.3.75-.75 1.12-1.36 1.12-.41 0-.96-2.62-1.66-7.87l-1.22-5.12c-.86 1.39-2.43 5.02-4.7 10.9-.64.66-1.2 1.04-1.66 1.12-1.31 0-1.97-1.77-1.97-5.3l-.75-6.72h-.15l-4.55 10.25c-.27 1.71-.53 2.57-.76 2.57h-.6l-.61-.64v-.81c0-1.44 1.26-4.54 3.79-9.3 1.8-5 2.96-7.57 3.48-7.7l.76-.16z" fill="#FFF"/><g transform="rotate(35 1190.53 507.33)"><use fill="#000" filter="url(#g)" xlink:href="#h"/><use fill="#B8E986" xlink:href="#h"/></g><use fill="#000" filter="url(#i)" xlink:href="#j"/><use fill="#F6A623" xlink:href="#j"/><use fill="#000" filter="url(#k)" xlink:href="#l"/><use fill="#F6A623" xlink:href="#l"/></g></svg>