<svg width="1540" height="820" viewBox="0 0 1540 820" xmlns="http://www.w3.org/2000/svg" xmlns:xlink="http://www.w3.org/1999/xlink"><title>story07</title><defs><path id="a" d="M0 0h1540v820H0z"/><mask id="b" x="0" y="0" width="1540" height="820" fill="#fff"><use xlink:href="#a"/></mask><path id="d" d="M742 40h746v120H742z"/><filter x="-50%" y="-50%" width="200%" height="200%" filterUnits="objectBoundingBox" id="c"><feOffset dx="6" dy="6" in="SourceAlpha" result="shadowOffsetOuter1"/><feColorMatrix values="0 0 0 0 0 0 0 0 0 0 0 0 0 0 0 0 0 0 1 0" in="shadowOffsetOuter1"/></filter></defs><g fill="none" fill-rule="evenodd"><use stroke="#000" mask="url(#b)" stroke-width="8" fill="#402412" xlink:href="#a"/><path stroke="#000" stroke-width="4" fill="#371F0F" d="M235 132h1066v556H235z"/><path d="M4 2l229.457 129.306c0 .384.523.694 1.174.694h1065.19c.65 0 1.18-.31 1.18-.694L1538 2H4z" stroke="#000" stroke-width="4" stroke-linejoin="bevel" fill="#28170B"/><path d="M4 818l229.457-129.306c0-.384.523-.694 1.174-.694h1065.19c.65 0 1.18.31 1.18.694L1538 818H4z" stroke="#000" stroke-width="4" stroke-linejoin="bevel" fill="#2B2200"/><path stroke="#000" stroke-width="4" fill="#00002B" d="M320 190h380v265H320z"/><path fill="#FFE680" d="M411.89 249.34l-11.36-10.833-13.362 8.236 6.795-14.15L382 222.428l15.558 2.088 5.97-14.518 2.82 15.442L422 226.63l-13.815 7.455M503 336.325l-15.566-1.807-5.697 14.598-3.093-15.362-15.644-.906 13.654-7.69-3.97-15.158 11.53 10.61 13.19-8.462-6.527 14.247 12.123 9.93m129.11 67.22l-14.287-7.04-10.435 12.034 2.28-15.77-14.668-6.2 15.696-2.71 1.37-15.87 7.42 14.09 15.514-3.6-11.11 11.41 8.22 13.64m-219.405 30.8l-7.184-14.17-15.52 3.36 11.25-11.21-7.98-13.72 14.14 7.23L417.99 394l-2.51 15.68 14.53 6.41-15.69 2.457-1.607 15.796"/><path d="M625.56 226c18.968 21.77 15.5 55.838-7.745 76.093-23.247 20.255-57.47 19.026-76.437-2.744l-.378-.44s15.08-9.06 46.775-36.13C614.71 239.77 625.56 226 625.56 226z" stroke="#222" stroke-width="4.01" fill="#E6E6E6"/><use fill="#000" filter="url(#c)" xlink:href="#d"/><use fill="#FFF" xlink:href="#d"/><path d="M784.264 60c6.117.797 9.175 4.26 9.175 10.39 0 8.038-3.36 14.688-10.06 19.95-2.77 1.5-5.24 2.25-7.42 2.25-5.32 0-8.75-2.72-10.29-8.156l-.21-2.514v-.844c0-8.777 4.22-15.428 12.67-19.95 2.13-.75 4.17-1.126 6.11-1.126zM768.32 81.92c2.203 3.176 5.116 4.764 8.737 4.764 5.824 0 9.902-3.276 12.234-9.827l.44-3.093c0-4.618-2.4-7.33-7.2-8.14h-.67c-3.97 0-8.12 3.745-12.44 11.233-.72 2.25-1.09 3.938-1.09 5.063zm30.076-17.473c1.067 0 2.344 2.004 3.833 6.012 2.88 5.9 6.08 10.95 9.61 15.15 1.18-11.57 2.06-18.38 2.63-20.45l.96-.72h.72c.48 0 .72.32.72.96-1.45 16.52-2.33 25.34-2.64 26.45l-1.44.47c-2.57 0-6.89-5.45-12.98-16.35l-.97-.97-.25.72-.72 11.07v1.44l.24 1.44c-.21 1.92-.85 2.88-1.92 2.88-.99-.35-1.55-.83-1.69-1.44 1.23-17.32 2.11-25.98 2.63-25.98l1.21-.72zm38.708.053c.808.176 1.212.79 1.212 1.846-.257 1.992-1.06 2.988-2.408 2.988-8.836 0-13.254 1.23-13.254 3.69l-.246 2.076v1.142c5.766-1.383 9.703-2.074 11.813-2.074h.48c.81.352 1.22 1.12 1.22 2.303 0 1.69-1.12 2.54-3.37 2.54-7.39.96-11.09 2.12-11.09 3.47l-.22 2.31v.92c0 1.38.88 2.15 2.64 2.3 2.77-.3 6.23-.99 10.37-2.07h.72c.65.25.97.79.97 1.62v.69c0 1.89-4.02 3.35-12.06 4.38h-.72c-2.89 0-4.5-1.84-4.81-5.52 0-2.7.56-7.85 1.69-15.43l-.47-1.39c0-3.11 4.82-4.95 14.45-5.52l3.13-.23zm20.02-.053c1.067 0 2.345 2.004 3.833 6.012 2.883 5.9 6.088 10.95 9.615 15.15 1.184-11.57 2.063-18.38 2.637-20.45l.96-.72h.72c.48 0 .72.32.72.96-1.44 16.52-2.32 25.34-2.64 26.45l-1.44.47c-2.57 0-6.9-5.45-12.98-16.35l-.97-.97-.25.72-.72 11.07v1.44l.24 1.44c-.21 1.92-.85 2.88-1.92 2.88-.98-.35-1.55-.83-1.69-1.44 1.23-17.32 2.11-25.98 2.63-25.98l1.21-.72zm25.56-.07h1.652c.55 0 .826.322.826.967-1.29 10.523-1.933 17.824-1.933 21.902v2.672c-.37 1.78-1.28 2.672-2.75 2.672h-.55l-1.11-.967c.74-11.04 1.66-19.8 2.76-26.28l1.09-.966zm19.564.07h.176c1.558 0 2.6 1.524 3.13 4.57l-.37.475h-.176l-1.477-.474c-4.03.597-8.25 3.404-12.67 8.42-1.23 2.18-1.84 3.703-1.84 4.57v.967c0 2.566 2.64 4.166 7.91 4.798 3.31 0 5.81-1.763 7.53-5.29l-2.19-.95c-.82 0-3.09.96-6.8 2.883-.36-.82-.54-1.623-.54-2.408v-.246c0-2.555 2.45-4.32 7.35-5.29h.37c2.81 0 4.22 1.844 4.22 5.536 0 3.808-3.12 7.178-9.37 10.107l-2.19.475c-3.97 0-6.66-1.682-8.08-5.045l-.37-3.13c0-7.265 3.74-13.44 11.2-18.526 1.89-.97 3.3-1.45 4.24-1.45zm24.486 0c.832.223 1.248.79 1.248 1.705v.23c-1.17 17.308-2.003 25.962-2.496 25.962l-.263.246h-.74c-.866 0-1.452-.404-1.756-1.213.328-2.31.492-5.543.492-9.703h-.25L912.46 84.1l-.737.966v4.606c0 1.37-.504 2.344-1.512 2.918h-.49c-.94 0-1.52-.404-1.76-1.213 1.16-17.473 2.83-26.21 5.01-26.21h.5l.76.985c-1.17 5.8-1.76 10.084-1.76 12.85 7.68-1.008 11.52-2.22 11.52-3.64l1-10.194 1.76-.72zm22.342-.017c1.524 0 2.285.632 2.285 1.898v.475c0 1.746-1.35 2.62-4.07 2.62l-5.08.245c-1.52 8.12-2.28 15.105-2.28 20.953-.41 1.27-.83 1.9-1.26 1.9h-.77c-.88 0-1.39-.24-1.53-.72.86-8.99 1.79-16.29 2.8-21.9l-7.63 1.2c-.71 0-1.13-.71-1.26-2.14 0-2.38 2.12-3.57 6.37-3.57 2.54-.63 6.7-.95 12.46-.95zm18.28.07c.787 0 1.18 2.72 1.18 8.156l1.58 10.336h.388c0-.597 1.576-3.803 4.728-9.615.493-3.832 1.413-5.748 2.76-5.748h.387c.79 0 1.45 2.95 1.96 8.87.88 4.04 1.53 6.44 1.97 7.2.42-2.04 2.52-8.05 6.31-18.02.55-.64 1.08-.95 1.58-.95.7 0 1.16.31 1.37.95 0 .82-1.97 6.18-5.91 16.08-.66 2.34-1.25 5.55-1.78 9.61-.42.79-.95 1.19-1.58 1.19-1.2 0-2.11-2.72-2.75-8.16-1.29-5.31-2.08-8.19-2.37-8.65l-3.94 7.68c-.66 1.5-1.25 4.06-1.78 7.68-.35.59-.88.99-1.57 1.2-1.1 0-2.02-4.16-2.76-12.48-1.06-5.88-1.58-10.61-1.58-14.17 0-.48.59-.88 1.77-1.19zm42.998-.053c.832.223 1.248.79 1.248 1.705v.23c-1.172 17.308-2.004 25.962-2.497 25.962l-.263.246h-.738c-.868 0-1.454-.404-1.758-1.213.328-2.31.492-5.543.492-9.703h-.246L996.08 84.1l-.738.966v4.606c0 1.37-.504 2.344-1.512 2.918h-.492c-.938 0-1.524-.404-1.758-1.213 1.16-17.473 2.83-26.21 5.01-26.21h.492l.756.985c-1.172 5.8-1.758 10.084-1.758 12.85 7.676-1.008 11.514-2.22 11.514-3.64l1.002-10.194 1.758-.72zm21.62.053c.81.176 1.214.79 1.214 1.846-.258 1.992-1.06 2.988-2.41 2.988-8.835 0-13.253 1.23-13.253 3.69l-.246 2.076v1.142c5.76-1.383 9.7-2.074 11.81-2.074h.47c.81.352 1.21 1.12 1.21 2.303 0 1.69-1.13 2.54-3.38 2.54-7.4.96-11.09 2.12-11.09 3.47l-.23 2.31v.92c0 1.38.88 2.15 2.63 2.3 2.76-.3 6.22-.99 10.37-2.07h.72c.64.25.97.79.97 1.62v.69c0 1.89-4.02 3.35-12.06 4.38h-.72c-2.9 0-4.5-1.84-4.82-5.52 0-2.7.56-7.85 1.68-15.43l-.48-1.39c0-3.11 4.81-4.95 14.45-5.52l3.13-.23zm5.08-.053c1.067 0 2.344 2.004 3.833 6.012 2.883 5.9 6.088 10.95 9.615 15.15 1.184-11.57 2.062-18.38 2.637-20.45l.96-.72h.72c.48 0 .72.32.72.96-1.44 16.52-2.32 25.34-2.64 26.45l-1.44.47c-2.57 0-6.9-5.45-12.98-16.35l-.97-.97-.25.72-.72 11.07v1.44l.24 1.44c-.22 1.92-.85 2.88-1.92 2.88-.99-.35-1.55-.83-1.69-1.44 1.23-17.32 2.11-25.98 2.63-25.98l1.21-.72zM1082.882 60l9.6.563 5.202-.563.545.844v1.125c0 3-1.74 4.5-5.21 4.5h-.28c-.44 16.28-1.9 24.43-4.38 24.43-1.28 1.12-3.02 1.69-5.22 1.69h-1.92c-6.21-.95-9.32-4.04-9.32-9.27.55-3.14 1.37-5.21 2.46-6.19h.28c.28 0 .74 2.06 1.37 6.18 1.25 2.42 3.26 3.64 6.03 3.64 4.02 0 6.03-1.69 6.03-5.05l1.37-15.74h-3.02c-4.02 0-6.03-.47-6.03-1.41v-.56c.55-2.82 1.37-4.22 2.48-4.22zm30.798 4.447c5.004.692 7.506 3.686 7.506 8.983 0 6.937-2.743 12.68-8.227 17.226-2.27 1.29-4.29 1.934-6.07 1.934-4.35 0-7.15-2.344-8.41-7.03l-.18-2.18v-.74c0-7.57 3.45-13.312 10.37-17.226 1.73-.644 3.39-.967 4.99-.967zm-13.043 18.932c1.804 2.74 4.19 4.11 7.154 4.11 4.77 0 8.11-2.83 10-8.49l.36-2.67c0-3.99-1.96-6.33-5.89-7.03h-.54c-3.24 0-6.64 3.23-10.18 9.7-.59 1.94-.89 3.4-.89 4.37zM1137.2 64.5h.37c1.616.2 2.424.983 2.424 2.354v.475c0 2.36-.808 4.57-2.426 6.61h-.37c-.257-.07-.508-.47-.755-1.18l.95-3.54-.738-.48c-1.722.15-4.886 2.04-9.492 5.66v.23l12.27 2.37c1.242.98 1.863 2.63 1.863 4.95v1.4c0 3.17-2.045 5.93-6.135 8.26-1.6.63-3.15.95-4.65.95h-.38c-4.26 0-6.86-1.89-7.8-5.66v-1.4c0-1.74.43-2.61 1.3-2.61.86 3 2.41 4.5 4.66 4.5 0 .31.93.46 2.8.46 2.76 0 5.42-1.41 8-4.24 0-1.88-3.97-3.06-11.9-3.55-2.86-.8-4.29-1.98-4.29-3.54 0-3.83 3.85-7.69 11.54-11.57l2.8-.48zm25.05 0c.807.175 1.21.79 1.21 1.845-.26 1.992-1.06 2.988-2.41 2.988-8.834 0-13.252 1.23-13.252 3.69l-.246 2.076v1.14c5.766-1.39 9.704-2.08 11.813-2.08h.475c.808.35 1.213 1.12 1.213 2.3 0 1.68-1.124 2.53-3.374 2.53-7.4.96-11.1 2.11-11.1 3.46l-.23 2.3v.91c0 1.38.88 2.15 2.64 2.3 2.76-.31 6.22-1 10.37-2.08h.72c.64.24.96.78.96 1.61v.69c0 1.89-4.02 3.35-12.06 4.38h-.72c-2.9 0-4.5-1.84-4.82-5.52 0-2.71.56-7.85 1.68-15.44l-.48-1.39c0-3.11 4.81-4.95 14.45-5.52l3.13-.23zm14.272-.054c4.652 0 6.978 1.365 6.978 4.096 0 5.402-5.098 10.29-15.293 14.66-.75 0-1.125.48-1.125 1.442-.105 5.296-.633 7.945-1.582 7.945h-1.125c-.305-.07-.603-.47-.896-1.2l2.02-19.73h-.23c-.6 0-.9-.73-.9-2.18 0-2.36 1.35-3.72 4.06-4.08l8.08-.97zm-9 13.957c5.144-1.347 9.046-3.59 11.707-6.732l.44-1.46v-.47l-1.13-.24h-1.13c-5.99.33-8.99.89-8.99 1.69l-.92 7.23zm34.75-13.957c.834.223 1.25.79 1.25 1.705v.23c-1.172 17.31-2.004 25.97-2.497 25.97l-.263.25h-.74c-.866 0-1.452-.4-1.756-1.21.328-2.31.492-5.54.492-9.7h-.246L1188 84.1l-.738.965v4.606c0 1.37-.504 2.35-1.512 2.92h-.492c-.938 0-1.524-.4-1.758-1.21 1.16-17.47 2.83-26.21 5.01-26.21h.492l.756.99C1188.586 71.95 1188 76.24 1188 79c7.676-1.007 11.514-2.22 11.514-3.64l1.002-10.193 1.757-.72zm19.548.053c.786 0 1.178 2.72 1.178 8.15l1.582 10.33h.387c0-.6 1.576-3.81 4.728-9.62.493-3.83 1.412-5.75 2.76-5.75h.387c.797 0 1.453 2.95 1.97 8.87.878 4.04 1.534 6.44 1.967 7.2.42-2.04 2.52-8.05 6.31-18.02.55-.63 1.08-.95 1.58-.95.7 0 1.16.32 1.37.95 0 .82-1.97 6.18-5.91 16.08-.66 2.34-1.25 5.55-1.78 9.61-.42.8-.95 1.19-1.59 1.19-1.2 0-2.11-2.72-2.74-8.16-1.29-5.31-2.08-8.19-2.38-8.65l-3.94 7.68c-.66 1.5-1.25 4.06-1.78 7.68-.35.59-.88.99-1.57 1.2-1.1 0-2.02-4.16-2.76-12.48-1.06-5.88-1.58-10.61-1.58-14.17 0-.48.59-.88 1.77-1.19zm35.07 0h.842c1.16 0 2.63 5.36 4.413 16.08 1.406 5.06 2.11 8.5 2.11 10.32-.294.96-.857 1.44-1.69 1.44-1.077 0-1.85-2.56-2.32-7.68l-.21-.23h-.21c-1.83.02-5.684 1.14-11.567 3.35-.563 3.2-1.477 4.8-2.742 4.8-.844-.33-1.266-.97-1.266-1.92 0-1.85 3.86-10.34 11.584-25.46l1.055-.72zm-.423 6.71c-1.688 3.04-3.235 6.25-4.64 9.61h1.476c1.43 0 3.26-.33 5.485-.97l-1.898-8.65h-.422zm24.486-6.72h.37c1.618.2 2.426.98 2.426 2.35v.47c0 2.36-.81 4.57-2.43 6.61h-.37c-.26-.07-.51-.47-.76-1.18l.95-3.53-.74-.48c-1.72.15-4.89 2.04-9.49 5.66v.23l12.27 2.37c1.24.98 1.86 2.63 1.86 4.96v1.4c0 3.17-2.05 5.93-6.14 8.26-1.61.63-3.16.95-4.66.95h-.39c-4.27 0-6.87-1.89-7.81-5.66v-1.4c0-1.74.43-2.6 1.3-2.6.86 3 2.41 4.5 4.66 4.5 0 .3.93.45 2.79.45 2.75 0 5.42-1.41 8-4.24 0-1.88-3.97-3.06-11.9-3.55-2.86-.8-4.29-1.98-4.29-3.54 0-3.83 3.84-7.69 11.53-11.57l2.79-.48zm36.09 0h.368c1.62.2 2.43.98 2.43 2.35v.47c0 2.36-.81 4.57-2.42 6.61h-.37c-.25-.07-.51-.47-.75-1.18l.95-3.53-.74-.48c-1.72.15-4.88 2.04-9.49 5.66v.23l12.27 2.37c1.25.98 1.87 2.63 1.87 4.96v1.4c0 3.17-2.04 5.93-6.13 8.26-1.6.63-3.15.95-4.65.95h-.39c-4.26 0-6.86-1.89-7.8-5.66v-1.4c0-1.74.44-2.6 1.3-2.6.86 3 2.41 4.5 4.66 4.5 0 .3.93.45 2.8.45 2.76 0 5.42-1.41 8-4.24 0-1.88-3.96-3.06-11.9-3.55-2.86-.8-4.29-1.98-4.29-3.54 0-3.83 3.85-7.69 11.53-11.57l2.8-.48zm9.86-.06h.246c.76 0 1.4.39 1.91 1.18-1.12 8.11-1.91 15.36-2.39 21.76l13.71-2.83.47.7v1.42c0 2.15-4.97 4.12-14.91 5.9-1.77-.32-2.66-.87-2.66-1.66 1.31-17.34 2.27-26.01 2.88-26.01l.72-.48zm33.346.05c.81.17 1.21.79 1.21 1.84-.26 1.99-1.06 2.99-2.41 2.99-8.84 0-13.26 1.23-13.26 3.69l-.25 2.07v1.14c5.76-1.38 9.7-2.08 11.81-2.08h.47c.81.35 1.21 1.12 1.21 2.3 0 1.69-1.13 2.53-3.38 2.53-7.4.96-11.1 2.11-11.1 3.46l-.23 2.3v.91c0 1.38.88 2.15 2.64 2.3 2.76-.31 6.22-1 10.37-2.08h.72c.64.24.97.78.97 1.62v.69c0 1.88-4.02 3.34-12.06 4.37h-.72c-2.9 0-4.5-1.84-4.82-5.52 0-2.71.56-7.85 1.68-15.44l-.48-1.39c0-3.12 4.81-4.96 14.45-5.52l3.12-.23zm20.02 0c.81.17 1.21.79 1.21 1.84-.26 1.99-1.06 2.99-2.41 2.99-8.84 0-13.26 1.23-13.26 3.69l-.25 2.07v1.14c5.76-1.38 9.7-2.08 11.81-2.08h.47c.81.35 1.21 1.12 1.21 2.3 0 1.69-1.13 2.53-3.38 2.53-7.4.96-11.09 2.11-11.09 3.46l-.23 2.3v.91c0 1.38.88 2.15 2.63 2.3 2.76-.31 6.22-1 10.37-2.08h.72c.64.24.97.78.97 1.62v.69c0 1.88-4.02 3.34-12.06 4.37h-.72c-2.9 0-4.5-1.84-4.82-5.52 0-2.71.56-7.85 1.68-15.44l-.48-1.39c0-3.12 4.82-4.96 14.45-5.52l3.13-.23zm14.27-.06c4.65 0 6.98 1.36 6.98 4.09 0 5.4-5.1 10.29-15.3 14.66-.75 0-1.13.48-1.13 1.44-.11 5.29-.64 7.94-1.58 7.94h-1.13c-.31-.07-.61-.47-.9-1.2l2.02-19.73h-.23c-.6 0-.9-.73-.9-2.18 0-2.36 1.35-3.72 4.06-4.08l8.08-.97zm-9 13.95c5.14-1.35 9.05-3.59 11.71-6.74l.44-1.46v-.47l-1.13-.25h-1.13c-5.99.33-8.98.89-8.98 1.69l-.92 7.22zm21.62-14.03h1.65c.55 0 .82.32.82.96-1.29 10.52-1.94 17.82-1.94 21.9v2.68c-.37 1.78-1.28 2.67-2.74 2.67h-.55l-1.11-.97c.74-11.04 1.66-19.8 2.76-26.28l1.09-.97zm7.98.07c1.06 0 2.34 2 3.83 6.01 2.88 5.9 6.08 10.95 9.61 15.15 1.18-11.57 2.06-18.38 2.63-20.44l.96-.72h.72c.48 0 .72.32.72.96-1.45 16.52-2.32 25.34-2.64 26.45l-1.44.47c-2.57 0-6.89-5.45-12.98-16.35l-.97-.97-.25.72-.72 11.07v1.44l.24 1.44c-.21 1.92-.85 2.88-1.92 2.88-.98-.36-1.55-.84-1.69-1.45 1.23-17.32 2.11-25.98 2.64-25.98l1.21-.72zm35.35 0h.17c1.56 0 2.6 1.52 3.13 4.57l-.37.47h-.18l-1.48-.48c-4.03.6-8.26 3.4-12.68 8.42-1.23 2.18-1.85 3.7-1.85 4.57v.97c0 2.56 2.64 4.16 7.91 4.8 3.3 0 5.81-1.77 7.52-5.29l-2.2-.95c-.82 0-3.09.96-6.81 2.88-.36-.82-.54-1.63-.54-2.41v-.25c0-2.56 2.45-4.32 7.34-5.29h.37c2.81 0 4.22 1.84 4.22 5.53 0 3.81-3.12 7.18-9.37 10.1l-2.2.47c-3.97 0-6.67-1.69-8.09-5.05l-.37-3.13c0-7.27 3.73-13.44 11.2-18.53 1.89-.96 3.3-1.45 4.24-1.45zm14.13 21.11c.75.22 1.29.62 1.63 1.21v.47c0 2.79-2.09 6.24-6.28 10.37l-1.09.24h-.28c-.99 0-1.71-.4-2.18-1.21v-.24c3.28-3.64 4.92-6.85 4.92-9.64 1.01-.81 2.1-1.21 3.27-1.21zM844.25 106.5h.843c1.16 0 2.63 5.36 4.412 16.084 1.406 5.063 2.11 8.502 2.11 10.318-.294.96-.856 1.442-1.688 1.442-1.078 0-1.852-2.56-2.32-7.682l-.21-.228h-.212c-1.83.023-5.684 1.142-11.567 3.357-.562 3.2-1.476 4.8-2.742 4.8-.844-.32-1.266-.96-1.266-1.91 0-1.85 3.862-10.33 11.584-25.45l1.055-.72zm-.423 6.715c-1.687 3.047-3.234 6.252-4.64 9.615h1.476c1.43 0 3.258-.322 5.484-.967l-1.898-8.648h-.43zm13.447-6.768c1.067 0 2.344 2.004 3.832 6.012 2.883 5.9 6.088 10.95 9.616 15.15 1.183-11.57 2.062-18.38 2.636-20.45l.967-.72h.72c.48 0 .722.32.722.96-1.442 16.52-2.32 25.34-2.637 26.45l-1.442.47c-2.566 0-6.89-5.45-12.972-16.35l-.967-.97-.25.72-.72 11.07v1.44l.24 1.44c-.21 1.92-.85 2.88-1.92 2.88-.99-.35-1.55-.83-1.69-1.44 1.23-17.32 2.11-25.98 2.63-25.98l1.21-.72zm49.905-4.482h1.1c1.53 0 3.47 6.228 5.82 18.685 1.85 5.883 2.78 9.88 2.78 11.99-.39 1.112-1.13 1.67-2.22 1.67-1.42 0-2.44-2.972-3.06-8.914l-.26-.28h-.28c-2.42.023-7.5 1.323-15.24 3.902-.73 3.714-1.93 5.572-3.6 5.572-1.12-.387-1.67-1.13-1.67-2.233 0-2.144 5.08-11.994 15.24-29.548l1.39-.85zm-.44 7.805c-2.23 3.54-4.26 7.26-6.1 11.162h1.93c1.88 0 4.29-.375 7.2-1.125l-2.5-10.037h-.55zm15.57-3.323c1.06 0 2.34 2.004 3.83 6.012 2.88 5.9 6.08 10.95 9.61 15.15 1.18-11.57 2.06-18.38 2.63-20.45l.96-.72h.72c.48 0 .72.32.72.96-1.45 16.52-2.32 25.34-2.64 26.45l-1.45.47c-2.57 0-6.89-5.45-12.97-16.35l-.97-.97-.25.72-.72 11.07v1.44l.24 1.44c-.21 1.92-.85 2.88-1.92 2.88-.99-.35-1.55-.83-1.69-1.44 1.23-17.32 2.11-25.98 2.64-25.98l1.21-.72zm35.35 0h.17c1.55 0 2.6 1.524 3.13 4.57l-.37.475h-.18l-1.48-.474c-4.03.597-8.26 3.404-12.68 8.42-1.23 2.18-1.85 3.703-1.85 4.57v.967c0 2.566 2.63 4.166 7.91 4.798 3.3 0 5.81-1.763 7.52-5.29l-2.2-.95c-.82 0-3.09.96-6.8 2.883-.37-.82-.55-1.623-.55-2.408v-.246c0-2.555 2.45-4.32 7.35-5.29h.37c2.81 0 4.22 1.844 4.22 5.536 0 3.808-3.12 7.178-9.37 10.107l-2.2.475c-3.98 0-6.67-1.682-8.09-5.045l-.37-3.13c0-7.265 3.73-13.44 11.2-18.526 1.89-.97 3.3-1.45 4.24-1.45zm24.5.053c.81.176 1.21.79 1.21 1.846-.26 1.992-1.06 2.988-2.41 2.988-8.84 0-13.26 1.23-13.26 3.69l-.25 2.076v1.142c5.76-1.383 9.7-2.074 11.81-2.074h.47c.81.352 1.21 1.12 1.21 2.303 0 1.69-1.13 2.54-3.38 2.54-7.39.96-11.09 2.12-11.09 3.47l-.23 2.31v.92c0 1.38.88 2.15 2.64 2.3 2.76-.3 6.22-.99 10.37-2.07h.73c.64.25.96.79.96 1.62v.69c0 1.89-4.02 3.35-12.06 4.38h-.72c-2.9 0-4.5-1.84-4.82-5.52 0-2.7.57-7.85 1.69-15.43l-.47-1.39c0-3.11 4.82-4.95 14.45-5.52l3.13-.23zm4.83-.053h.24c.76 0 1.4.393 1.91 1.178-1.12 8.11-1.91 15.363-2.39 21.762l13.71-2.83.47.703v1.424c0 2.156-4.97 4.125-14.91 5.906-1.77-.317-2.66-.867-2.66-1.653 1.31-17.343 2.27-26.015 2.88-26.015l.72-.475zm40.34.053h.84c1.16 0 2.63 5.36 4.41 16.084 1.4 5.063 2.1 8.502 2.1 10.318-.3.96-.86 1.442-1.69 1.442-1.08 0-1.85-2.56-2.32-7.682l-.21-.228h-.22c-1.83.023-5.68 1.142-11.57 3.357-.57 3.2-1.48 4.8-2.74 4.8-.85-.32-1.27-.96-1.27-1.91 0-1.85 3.86-10.33 11.58-25.45l1.05-.72zm-.43 6.715c-1.69 3.047-3.23 6.252-4.64 9.615h1.48c1.43 0 3.26-.322 5.48-.967l-1.9-8.648h-.43zm22.64-6.768c4.65 0 6.98 1.365 6.98 4.096 0 5.402-5.1 10.29-15.29 14.66-.75 0-1.13.48-1.13 1.442-.11 5.296-.64 7.945-1.58 7.945h-1.13c-.31-.07-.61-.47-.9-1.195l2.02-19.723h-.23c-.6 0-.9-.727-.9-2.18 0-2.355 1.35-3.715 4.06-4.078l8.08-.967zm-9 13.957c5.14-1.347 9.04-3.59 11.71-6.732l.44-1.46v-.474l-1.13-.246h-1.13c-5.99.328-8.98.89-8.98 1.688l-.92 7.224zm29.02-13.957c4.65 0 6.98 1.365 6.98 4.096 0 5.402-5.1 10.29-15.29 14.66-.75 0-1.13.48-1.13 1.442-.11 5.296-.64 7.945-1.59 7.945h-1.13c-.31-.07-.61-.47-.9-1.195l2.02-19.723h-.23c-.6 0-.9-.727-.9-2.18 0-2.355 1.35-3.715 4.06-4.078l8.08-.967zm-9 13.957c5.14-1.347 9.05-3.59 11.71-6.732l.44-1.46v-.474l-1.13-.246h-1.13c-5.99.328-8.99.89-8.99 1.688l-.92 7.224zm34.77-13.904c.81.176 1.21.79 1.21 1.846-.26 1.992-1.06 2.988-2.41 2.988-8.84 0-13.26 1.23-13.26 3.69l-.25 2.076v1.142c5.76-1.383 9.7-2.074 11.81-2.074h.47c.81.352 1.21 1.12 1.21 2.303 0 1.69-1.13 2.54-3.38 2.54-7.4.96-11.09 2.12-11.09 3.47l-.23 2.31v.92c0 1.38.88 2.15 2.63 2.3 2.76-.3 6.22-.99 10.37-2.07h.72c.65.25.97.79.97 1.62v.69c0 1.89-4.02 3.35-12.06 4.38h-.73c-2.89 0-4.5-1.84-4.82-5.52 0-2.7.56-7.85 1.69-15.43l-.48-1.39c0-3.11 4.82-4.95 14.45-5.52l3.13-.23zm12.08 0h.84c1.16 0 2.63 5.36 4.41 16.084 1.4 5.063 2.11 8.502 2.11 10.318-.3.96-.86 1.442-1.69 1.442-1.08 0-1.85-2.56-2.32-7.682l-.21-.228h-.21c-1.83.023-5.69 1.142-11.57 3.357-.57 3.2-1.48 4.8-2.74 4.8-.85-.32-1.27-.96-1.27-1.91 0-1.85 3.86-10.33 11.58-25.45l1.05-.72zm-.43 6.715c-1.69 3.047-3.24 6.252-4.64 9.615h1.47c1.43 0 3.26-.322 5.48-.967l-1.9-8.648h-.42zm22.67-6.768h2.42c3.71 0 5.57 1.295 5.57 3.885v.246c0 4.535-3.88 8.66-11.64 12.375v.23c3.88 3.56 7.11 6.233 9.7 8.014v.72c0 1.255-.41 2.063-1.22 2.427h-.97l-13.33-9.457-.24 4.85v3.64c-.41.81-1.06 1.213-1.94 1.213-.64 0-1.13-.322-1.46-.967v-1.46l2.18-18.93c-.64 0-.96-.48-.96-1.442 0-2.91 2.42-4.61 7.26-5.09l4.6-.24zm-8.47 13.096h.24c8.39-2.156 12.58-4.5 12.58-7.03v-.247c0-.446-.81-.768-2.43-.967-2.69 0-5.92.56-9.69 1.7l-.72 6.54zm35.26-13.043c.81.176 1.21.79 1.21 1.846-.26 1.992-1.06 2.988-2.41 2.988-8.84 0-13.26 1.23-13.26 3.69l-.25 2.076v1.142c5.76-1.383 9.7-2.074 11.81-2.074h.47c.81.352 1.21 1.12 1.21 2.303 0 1.69-1.13 2.54-3.38 2.54-7.4.96-11.09 2.12-11.09 3.47l-.23 2.31v.92c0 1.38.88 2.15 2.63 2.3 2.76-.3 6.22-.99 10.37-2.07h.72c.64.25.96.79.96 1.62v.69c0 1.89-4.02 3.35-12.06 4.38h-.72c-2.89 0-4.5-1.84-4.82-5.52 0-2.7.56-7.85 1.69-15.43l-.48-1.39c0-3.11 4.81-4.95 14.45-5.52l3.12-.23zm10.6-.053h1.07c5.09 0 8.22 2.022 9.37 6.065l.21 1.933c0 8.05-5.97 14.684-17.9 19.9l-1.06.245h-.23c-.32 0-.6-.57-.85-1.705l2.13-20.865c-.86 0-1.29-.24-1.29-.72v-.493c0-2.578 1.14-3.868 3.41-3.868l5.12-.5zm-4.26 5.098c-1.28 8.297-1.92 13.875-1.92 16.734v1.21c8.94-4.47 13.41-8.67 13.41-12.62v-.23c0-2.28-.64-3.41-1.92-3.41-1.58-1.13-4.14-1.69-7.67-1.69h-1.92zm35.49-5.168h1.65c.55 0 .82.322.82.967-1.29 10.523-1.94 17.824-1.94 21.902v2.672c-.37 1.78-1.28 2.672-2.75 2.672h-.54l-1.11-.967c.74-11.04 1.66-19.8 2.76-26.28l1.09-.966zm7.98.07c1.07 0 2.35 2.004 3.83 6.012 2.88 5.9 6.09 10.95 9.61 15.15 1.18-11.57 2.06-18.38 2.63-20.45l.97-.72h.72c.48 0 .72.32.72.96-1.44 16.52-2.32 25.34-2.64 26.45l-1.45.47c-2.57 0-6.89-5.45-12.97-16.35l-.97-.97-.25.72-.72 11.07v1.44l.24 1.44c-.21 1.92-.85 2.88-1.92 2.88-.98-.35-1.55-.83-1.69-1.44 1.23-17.32 2.11-25.98 2.64-25.98l1.21-.72zm45.7.053h.84c1.16 0 2.63 5.36 4.41 16.084 1.4 5.063 2.11 8.502 2.11 10.318-.3.96-.86 1.442-1.69 1.442-1.08 0-1.85-2.56-2.32-7.682l-.21-.228h-.21c-1.83.023-5.69 1.142-11.57 3.357-.56 3.2-1.48 4.8-2.74 4.8-.85-.32-1.27-.96-1.27-1.91 0-1.85 3.86-10.33 11.58-25.45l1.05-.72zm-.42 6.715c-1.69 3.047-3.24 6.252-4.64 9.615h1.47c1.43 0 3.26-.322 5.48-.967l-1.9-8.648h-.42zm33.91-6.768h1.07c5.1 0 8.22 2.022 9.37 6.065l.21 1.933c0 8.05-5.97 14.684-17.9 19.9l-1.05.245h-.23c-.32 0-.6-.57-.84-1.705l2.12-20.865c-.85 0-1.28-.24-1.28-.72v-.493c0-2.578 1.14-3.868 3.41-3.868l5.12-.5zm-4.26 5.098c-1.28 8.297-1.92 13.875-1.92 16.734v1.21c8.94-4.47 13.41-8.67 13.41-12.62v-.23c0-2.28-.64-3.41-1.92-3.41-1.58-1.13-4.14-1.69-7.66-1.69h-1.92zm27.98-5.098h2.42c3.72 0 5.57 1.295 5.57 3.885v.246c0 4.535-3.88 8.66-11.64 12.375v.23c3.87 3.56 7.11 6.233 9.7 8.014v.72c0 1.255-.41 2.063-1.21 2.427h-.97l-13.33-9.457-.25 4.85v3.64c-.41.81-1.06 1.213-1.94 1.213-.65 0-1.13-.322-1.46-.967v-1.46l2.18-18.93c-.65 0-.97-.48-.97-1.442 0-2.91 2.42-4.61 7.26-5.09l4.61-.24zm-8.48 13.096h.24c8.39-2.156 12.59-4.5 12.59-7.03v-.247c0-.446-.81-.768-2.43-.967-2.69 0-5.91.56-9.69 1.7l-.72 6.54zm35.26-13.043c.81.176 1.21.79 1.21 1.846-.26 1.992-1.06 2.988-2.41 2.988-8.84 0-13.25 1.23-13.25 3.69l-.25 2.076v1.142c5.76-1.383 9.7-2.074 11.81-2.074h.47c.8.352 1.21 1.12 1.21 2.303 0 1.69-1.13 2.54-3.38 2.54-7.4.96-11.09 2.12-11.09 3.47l-.23 2.31v.92c0 1.38.88 2.15 2.64 2.3 2.77-.3 6.22-.99 10.37-2.07h.72c.64.25.96.79.96 1.62v.69c0 1.89-4.02 3.35-12.06 4.38h-.72c-2.89 0-4.5-1.84-4.82-5.52 0-2.7.56-7.85 1.69-15.43l-.48-1.39c0-3.11 4.82-4.95 14.45-5.52l3.13-.23zm12.07 0h.84c1.16 0 2.63 5.36 4.41 16.084 1.4 5.063 2.1 8.502 2.1 10.318-.3.96-.86 1.442-1.69 1.442-1.08 0-1.85-2.56-2.32-7.682l-.21-.228h-.21c-1.83.023-5.68 1.142-11.57 3.357-.56 3.2-1.48 4.8-2.74 4.8-.85-.32-1.27-.96-1.27-1.91 0-1.85 3.86-10.33 11.58-25.45l1.05-.72zm-.42 6.715c-1.69 3.047-3.23 6.252-4.64 9.615h1.48c1.43 0 3.25-.322 5.48-.967l-1.9-8.648h-.42zm20.51-6.768h.45c.75.41 1.13 1.05 1.13 1.916v.492c0 5.204.45 11.297 1.37 18.282h.23c5.01-13.15 7.96-19.723 8.86-19.723h.68c.67 0 1.73 4.57 3.18 13.71 1.36 4.69 2.04 8.614 2.04 11.778-.45 1.125-1.13 1.688-2.04 1.688-.61 0-1.44-3.932-2.5-11.795l-1.83-7.682c-1.3 2.086-3.65 7.535-7.05 16.348-.97 1-1.81 1.56-2.5 1.69-1.97 0-2.95-2.65-2.95-7.94l-1.13-10.09h-.23L1359 130.5c-.41 2.57-.79 3.85-1.14 3.85h-.9l-.91-.95v-1.21c0-2.15 1.896-6.8 5.68-13.94 2.7-7.5 4.44-11.35 5.22-11.55l1.145-.24zm31.37-4.412c.71.328 1.06.72 1.06 1.178-3.34 10.758-5.01 17.572-5.01 20.443-.95 1.102-1.75 1.653-2.39 1.653-1.06-.38-1.59-.85-1.59-1.41 1.66-14.58 3.86-21.87 6.61-21.87h1.32zm-6.24 26.385c1.67.316 2.5 1.184 2.5 2.6v.23c-.67 2.227-2.27 3.34-4.8 3.34-1.25 0-2.01-.867-2.27-2.602 0-2.004 1.53-3.193 4.57-3.568z" fill="#000"/><path d="M829.686 598.91c157.66 4.084 302.21-6.206 472.588-1.948 16.872-8.49-2.81 39.292-7.603 87.354-163.64-4.894-311.1 5.115-464.45-2.346l-.52-83.06z" stroke="#000" stroke-width="3" fill="#A0892C"/><path d="M832.54 732.832c1.9-51.49 18.45-101.745 4.067-152.316 2.893-5.38-36.51-4.053-28.573 1.86 15.587 49.78-2.557 99.932-2.606 149.724l27.112.732z" stroke="#000" stroke-width="3" fill="#A0892C"/><path d="M1251.12 534.245c94.898-.59 100.38 68.652 1.528 73.61-121.75 6.104-110.634-72.934-1.527-73.61z" stroke="#050202" stroke-width="2.964" fill="#806600"/><path d="M1318.22 732.91c1.852-100.058 17.968-197.72 3.96-295.994 2.82-10.457-35.556-7.877-27.827 3.613 15.18 96.73-2.49 194.19-2.537 290.95l26.404 1.42z" stroke="#000" stroke-width="3" fill="#A0892C"/><path d="M1060.073 475.858c.26-8.496-8.36-15.865-24.092-19.798-14.89-3.723-27.16-11.312-32.18 2.726-2.79 7.824 5.64 22.918 15.46 19.054-5.32 2.428-16.38 4.55-15.54 8.247 1.23 5.405 7.9 10.272 18.06 4.894 2.48-1.31 5.13-1.62 7.08-2.82.7.1 1.41.21 2.13.23 16.19.54 28.84-4.03 29.1-12.53z" stroke="#050202" stroke-width="4" fill="#DEAA87"/><path d="M1170.954 480.576l-23.62 11.583-113.977-8.59 9.995-38.87c54.888 2.95 99.77 13.19 127.602 35.87z" stroke="#050202" stroke-width="4" fill="#D45500"/><path d="M1097.504 651.96c3.693 7.656-1.185 17.894-13.956 27.885-12.09 9.46-20.214 21.382-30.507 10.6-5.73-6.01-4.17-23.23 6.38-23.696-5.84-.06-16.81 2.5-17.55-1.22-1.07-5.44 3.04-12.6 14.51-11.82 2.81.19 5.35-.61 7.62-.3.6-.38 1.2-.76 1.85-1.08 14.58-7.08 27.99-8.04 31.68-.39z" stroke="#050202" stroke-width="4" fill="#DEAA87"/><path d="M1207.2 469.647c-18.46 3.924-34.775 14.222-45.355 28.628-10.58 14.406-14.56 31.74-11.064 48.19 7.29 34.253 44.35 55.398 82.79 47.227 38.44-8.17 63.7-42.562 56.42-76.816-3.5-16.45-14.18-30.667-29.71-39.524-15.52-8.857-34.61-11.628-53.07-7.705z" stroke="#000" stroke-width="4" fill="#502D16"/><path d="M1196.88 602.55l-26.29-.974-100.63 54.2 24.94 31.444c48.944-25.02 85.778-52.633 101.98-84.67z" stroke="#050202" stroke-width="4" fill="#D45500"/><path d="M866.88 608.387c-4.632.985-8.358 5.303-10.358 12.004-2 6.71-2.11 15.24-.303 23.73 1.8 8.49 5.37 16.25 9.92 21.56 4.55 5.31 9.71 7.74 14.34 6.76 9.65-2.05 14.42-18.05 10.66-35.73s-14.63-30.35-24.28-28.3zm-18.642-75.435c-4.632.985-8.36 5.302-10.358 12.003-2 6.7-2.11 15.237-.304 23.73 1.805 8.49 5.376 16.243 9.93 21.552 4.55 5.308 9.71 7.737 14.344 6.752 9.647-2.05 14.42-18.05 10.662-35.74-3.758-17.69-14.626-30.36-24.274-28.31z" stroke="#050202" stroke-width="4" fill="#2B1100"/><path d="M1029.01 486.813c-57.548 6.802-155.02 18.81-164.03 33.74-9.043 43.357 4.216 137.203 45.012 160.656 32.936 8.7 102.1-19.13 152.04-26.03 101.04-13.96 176.044-40.23 158.716-127.47-14.744-74.23-93.58-66.82-191.74-40.91z" stroke="#050202" stroke-width="4" fill="#D45500"/><path d="M1228.472 482.303c-14.86 3.158-28.075 11.05-36.74 21.943-8.667 10.892-12.074 23.89-9.47 36.134 2.602 12.245 11 22.734 23.347 29.16 12.34 6.424 27.63 8.26 42.49 5.1 14.85-3.157 28.07-11.05 36.74-21.942 8.66-10.89 12.07-23.89 9.47-36.134-2.61-12.245-11.01-22.734-23.35-29.16-12.35-6.424-27.63-8.26-42.49-5.1z" stroke="#050202" stroke-width="3.9" fill="#DEAA87"/><path d="M1252.31 535.807c-2.315.492-3.79 2.78-3.295 5.11.495 2.328 2.773 3.817 5.087 3.325 1.112-.236 2.083-.907 2.7-1.865.62-.958.833-2.124.595-3.243-.238-1.118-.907-2.097-1.862-2.72-.954-.625-2.114-.843-3.225-.607zm-6.446-27.962c-2.314.492-3.79 2.78-3.294 5.108.495 2.33 2.772 3.818 5.087 3.326 1.11-.24 2.083-.91 2.7-1.87.62-.96.832-2.13.594-3.25-.23-1.12-.9-2.1-1.86-2.72-.95-.63-2.11-.85-3.22-.61z" fill="#000"/><path d="M1207.85 551.78l-6.855-32.256L865.267 583.8c1.43 12.93 4.435 32.075 8.328 41.39l334.256-73.41z" stroke="#000" stroke-width="4" fill="#2CA02C"/><path d="M1165.845 543.435c4.008 18.612 49.948 27.274 49.948 27.274 41.384 11.66 13.42-95.96-17.144-70.72 0 0-36.64 25.64-32.81 43.44z" stroke="#000" stroke-width="4" fill="#502D16"/><path d="M1202.075 559.518c4.42-7.05-7.006-43.11-10.38-45.72-3.376-2.61 25.045 9.837 26.934 18.99 1.88 9.152-20.98 33.78-16.56 26.73z" stroke="#000" stroke-width="4" fill="#DEAA87"/><path d="M1041.698 483.506L1077.41 652.3c-6.502-.84-14.927 2.005-22.215 4.222l-35.316-167.71 21.81-5.306z" stroke="#000" stroke-width="3.895" fill="#520"/><path d="M1303.446 487.56c-12.873-32.933-95.94-28.42-145.875-7.507-7.89 3.508-7.28 15.065-2.2 20.826 3.75 5.25 10.53 5.03 16.19 4.17 13.67-1.92 73.69-22.21 86.89-14.74 13.2 7.47 21.7 60.65 11.63 71.95-10.06 11.3-84.99 12.68-98.36 23.24-7.11 8.7.56 24.69 12.05 23.4 16-5.67 83.7-12.21 96.67-17.66 12.97-5.46 31.55-22.91 33.36-34.91 4.16-27.47 2.54-35.86-10.33-68.79z" stroke="#050202" stroke-width="3.897" fill="#2CA02C"/><path d="M1301.62 575.214c-5.842 3.953-13.33 13.762-21.273 14.84l-27.597-125.46c7.415.474 13.423.244 25.132 3.922l23.74 106.698z" stroke="#000" stroke-width="4" fill="#520"/><path d="M385.934 211c-52.713 0-99.88 20.875-131.56 53.742-10.873-1.893-22.14-2.903-33.64-2.903C125.338 261.84 48 330.13 48 414.35c0 36.295 14.387 69.62 38.364 95.804-10.71 19.848-16.724 42.106-16.724 65.557 0 84.23 77.34 152.52 172.733 152.52 10.603 0 20.947-.95 31.023-2.56 31.667 34.48 79.98 56.58 134.177 56.58 50.27 0 95.528-19.02 127.093-49.28 12.094 2.37 24.632 3.65 37.534 3.65 92 0 167.182-63.53 172.414-143.6C781.56 565.03 805 523.55 805 477.21c0-68.944-51.82-127.163-122.943-146.035-22.857-60.59-87.62-104.31-163.924-104.31-15.44 0-30.378 1.843-44.62 5.198C447.84 218.707 417.89 211 385.933 211z" stroke="#000" stroke-width="4.161" fill="#FFF"/><path d="M348.102 376.03l8.53.5 4.626-.5.484.75v1c0 2.668-1.54 4-4.625 4h-.25c-.385 14.48-1.682 21.72-3.89 21.72-1.136 1-2.683 1.5-4.64 1.5h-1.704c-5.52-.844-8.28-3.59-8.28-8.234.488-2.792 1.217-4.625 2.186-5.5h.25c.25 0 .65 1.833 1.21 5.5 1.11 2.156 2.9 3.234 5.36 3.234 3.57 0 5.36-1.495 5.36-4.484l1.21-13.985h-2.69c-3.58 0-5.36-.41-5.36-1.25v-.5c.49-2.5 1.22-3.75 2.2-3.75zm27.375 3.954c4.448.615 6.67 3.276 6.67 7.985 0 6.16-2.436 11.27-7.31 15.31-2.01 1.14-3.808 1.72-5.392 1.72-3.864 0-6.354-2.09-7.468-6.25l-.157-1.94v-.66c0-6.73 3.073-11.84 9.22-15.31 1.54-.58 3.02-.86 4.437-.86zm-11.594 16.83c1.604 2.436 3.724 3.655 6.36 3.655 4.24 0 7.202-2.52 8.89-7.55l.312-2.38c0-3.54-1.744-5.63-5.234-6.25h-.48c-2.88 0-5.9 2.87-9.04 8.62-.53 1.73-.79 3.02-.79 3.89zm32.5-16.783h.328c1.44.18 2.16.88 2.16 2.1v.42c0 2.11-.72 4.06-2.15 5.88h-.32c-.23-.06-.45-.41-.67-1.04l.85-3.14-.65-.42c-1.53.14-4.34 1.82-8.43 5.03v.21l10.91 2.11c1.11.88 1.66 2.34 1.66 4.41v1.25c0 2.82-1.81 5.27-5.45 7.34-1.42.57-2.8.85-4.14.85h-.34c-3.79 0-6.1-1.67-6.94-5.03v-1.26c0-1.54.39-2.31 1.16-2.31.76 2.67 2.14 4 4.14 4 0 .27.83.41 2.48.41 2.45 0 4.82-1.25 7.11-3.76 0-1.67-3.53-2.72-10.58-3.16-2.54-.71-3.81-1.76-3.81-3.14 0-3.41 3.42-6.84 10.25-10.28l2.48-.42zm22.265 0c.72.16 1.08.71 1.08 1.65-.23 1.77-.944 2.66-2.142 2.66-7.854 0-11.78 1.1-11.78 3.28l-.22 1.85v1.02c5.125-1.23 8.625-1.84 10.5-1.84h.422c.72.32 1.078 1 1.078 2.05 0 1.5-1 2.25-3 2.25-6.573.86-9.86 1.88-9.86 3.08l-.203 2.05v.81c0 1.23.782 1.91 2.344 2.05 2.46-.27 5.53-.88 9.22-1.84h.64c.572.22.86.7.86 1.44v.61c0 1.68-3.574 2.97-10.72 3.89h-.64c-2.573 0-4-1.63-4.282-4.9 0-2.41.5-6.98 1.5-13.72l-.422-1.23c0-2.77 4.282-4.41 12.844-4.91l2.78-.2zm12.688-.04c4.135 0 6.203 1.22 6.203 3.64 0 4.81-4.54 9.15-13.6 13.03-.67 0-1 .43-1 1.28-.1 4.71-.56 7.07-1.41 7.07h-1c-.27-.06-.54-.41-.8-1.06l1.79-17.53h-.21c-.53 0-.8-.64-.8-1.93 0-2.09 1.2-3.3 3.6-3.62l7.19-.86zm-8 12.41c4.573-1.19 8.042-3.19 10.406-5.98l.39-1.29v-.42l-1-.21h-1c-5.322.29-7.984.79-7.984 1.5l-.812 6.42zm30.89-12.4c.74.2 1.11.71 1.11 1.52v.21c-1.042 15.39-1.78 23.08-2.22 23.08l-.233.22h-.656c-.77 0-1.292-.36-1.563-1.07.292-2.05.438-4.92.438-8.62h-.22l-9.343 2.16-.66.86v4.1c0 1.22-.45 2.09-1.35 2.6h-.44c-.84 0-1.36-.36-1.57-1.07 1.03-15.53 2.51-23.3 4.45-23.3h.43l.67.88c-1.05 5.16-1.57 8.97-1.57 11.43 6.82-.89 10.23-1.97 10.23-3.23l.89-9.06 1.56-.64zm12.86-3.92c.625.29.937.64.937 1.05-2.968 9.57-4.453 15.62-4.453 18.17-.843.98-1.552 1.47-2.125 1.47-.937-.33-1.406-.75-1.406-1.25 1.47-12.95 3.43-19.43 5.87-19.43h1.17zm-5.547 23.45c1.47.28 2.21 1.05 2.21 2.31v.21c-.6 1.98-2.02 2.97-4.27 2.97-1.12 0-1.79-.77-2.02-2.31 0-1.78 1.35-2.83 4.06-3.17zm30.57-23.48h1.23c5.88 0 9.49 2.09 10.81 6.25l.25 1.99c0 8.29-6.89 15.12-20.66 20.49l-1.22.25h-.25c-.37 0-.69-.58-.99-1.75l2.45-21.47c-.98 0-1.47-.25-1.47-.75v-.5c0-2.66 1.31-4 3.94-4l5.89-.5zm-4.91 5.25c-1.48 8.55-2.22 14.28-2.22 17.22v1.25c10.32-4.59 15.48-8.92 15.48-12.98v-.25c0-2.32-.74-3.48-2.21-3.48-1.84-1.16-4.79-1.75-8.86-1.75h-2.2zm30.09-1.3c4.45.62 6.67 3.28 6.67 7.99 0 6.17-2.44 11.27-7.32 15.31-2.01 1.15-3.81 1.72-5.39 1.72-3.87 0-6.36-2.08-7.47-6.25l-.16-1.94v-.65c0-6.73 3.07-11.83 9.22-15.31 1.54-.57 3.02-.86 4.44-.86zm-11.6 16.83c1.6 2.44 3.72 3.66 6.36 3.66 4.24 0 7.2-2.51 8.89-7.55l.31-2.37c0-3.54-1.74-5.63-5.23-6.25h-.49c-2.89 0-5.9 2.87-9.05 8.62-.53 1.73-.8 3.03-.8 3.89zM528.38 380c.948 0 2.084 1.78 3.407 5.348 2.56 5.25 5.41 9.74 8.546 13.47 1.05-10.28 1.83-16.34 2.34-18.173l.86-.64h.64c.425 0 .64.284.64.86-1.28 14.684-2.064 22.523-2.345 23.51l-1.28.42c-2.28 0-6.123-4.84-11.53-14.53l-.86-.86-.215.64-.64 9.847v1.28l.22 1.28c-.186 1.71-.754 2.56-1.7 2.56-.876-.313-1.376-.74-1.5-1.28 1.09-15.4 1.874-23.095 2.34-23.095l1.08-.64zm23.97-3.94c1.52.49 2.28 1.16 2.28 2-.322 1.33-2.317 4.23-5.984 8.72h-1.437l-1.13-.89v-.67l4.28-6.92c.29-1.49.95-2.23 1.98-2.23zm20.36 3.93c1.353 0 2.03.56 2.03 1.687v.42c0 1.558-1.21 2.33-3.625 2.33l-4.51.22c-1.353 7.22-2.03 13.43-2.03 18.628-.365 1.125-.74 1.688-1.125 1.688h-.687c-.78 0-1.235-.21-1.36-.64.76-7.99 1.59-14.48 2.484-19.47l-6.78 1.067c-.635 0-1.01-.633-1.125-1.904 0-2.114 1.89-3.17 5.66-3.17 2.26-.564 5.952-.845 11.08-.845zm16.25.06c.696 0 1.045 2.42 1.045 7.25l1.41 9.19h.346c0-.532 1.4-3.38 4.21-8.55.44-3.404 1.26-5.11 2.45-5.11h.35c.71 0 1.29 2.63 1.75 7.89.78 3.597 1.37 5.73 1.75 6.41.38-1.81 2.25-7.15 5.61-16.015.49-.565.96-.846 1.41-.846.62 0 1.03.28 1.22.84 0 .73-1.75 5.49-5.25 14.29-.58 2.08-1.11 4.93-1.58 8.55-.37.7-.84 1.06-1.41 1.06-1.06 0-1.87-2.42-2.43-7.25-1.15-4.72-1.85-7.28-2.11-7.69l-3.5 6.83c-.58 1.33-1.11 3.6-1.58 6.82-.31.52-.77.87-1.39 1.06-.98 0-1.79-3.7-2.45-11.09-.94-5.23-1.41-9.43-1.41-12.6 0-.43.53-.78 1.58-1.07zm35.188-.05c4.45.61 6.672 3.27 6.672 7.98 0 6.17-2.44 11.27-7.314 15.31-2.01 1.15-3.81 1.72-5.39 1.72-3.867 0-6.356-2.08-7.47-6.25l-.157-1.934v-.657c0-6.73 3.07-11.84 9.22-15.31 1.54-.58 3.02-.86 4.43-.86zm-11.594 16.83c1.605 2.43 3.725 3.65 6.36 3.65 4.24 0 7.204-2.513 8.89-7.544l.314-2.376c0-3.54-1.74-5.624-5.23-6.25h-.485c-2.883 0-5.9 2.876-9.045 8.626-.53 1.73-.796 3.026-.796 3.89zm30.89-16.83h2.16c3.3 0 4.95 1.15 4.95 3.45v.22c0 4.03-3.446 7.697-10.34 11v.2c3.446 3.168 6.32 5.54 8.624 7.126v.64c0 1.115-.36 1.833-1.08 2.156h-.853l-11.845-8.402-.22 4.314v3.24c-.364.72-.937 1.074-1.72 1.074-.57 0-1.003-.286-1.295-.86v-1.296l1.937-16.83c-.57 0-.86-.422-.86-1.28 0-2.59 2.155-4.1 6.457-4.53l4.09-.22zm-7.53 11.64h.22c7.46-1.92 11.187-4 11.187-6.25v-.22c0-.4-.72-.684-2.15-.86-2.38 0-5.25.504-8.61 1.515l-.64 5.81zm26.27-11.64h2.156c3.303 0 4.954 1.15 4.954 3.452v.22c0 4.03-3.447 7.696-10.343 11v.2c3.45 3.167 6.33 5.54 8.63 7.125v.64c0 1.115-.36 1.833-1.08 2.156h-.86l-11.84-8.404-.22 4.31v3.23c-.36.72-.93 1.07-1.71 1.07-.57 0-1-.29-1.3-.86v-1.3l1.94-16.83c-.57 0-.86-.42-.86-1.28 0-2.59 2.15-4.1 6.46-4.53l4.1-.22zm-7.53 11.64h.217c7.46-1.918 11.19-4 11.19-6.25v-.22c0-.397-.71-.683-2.15-.86-2.38 0-5.25.505-8.61 1.516l-.64 5.81zm16.545-11.595l4.78 7.25 2.09 1.72c2.64-4.71 4.49-7.558 5.53-8.548h.95l.76.86c-.11.76-3.1 6.09-8.97 16-1.48 2.78-2.56 5.27-3.25 7.468l-.56.22c-.9-.417-1.35-1.057-1.35-1.922.05-1.113 1.58-4.6 4.58-10.452-4.33-4.64-6.49-8.41-6.49-11.31.8-.85 1.43-1.28 1.9-1.28zm-329.85 42h.75c1.03 0 2.34 4.766 3.92 14.297 1.25 4.5 1.87 7.557 1.87 9.172-.26.852-.76 1.28-1.5 1.28-.96 0-1.65-2.277-2.06-6.83l-.19-.203h-.19c-1.63.02-5.05 1.02-10.28 2.99-.5 2.85-1.31 4.27-2.44 4.27-.75-.29-1.13-.86-1.13-1.7 0-1.64 3.43-9.19 10.29-22.62l.94-.64zm-.38 5.97c-1.5 2.707-2.88 5.556-4.13 8.546h1.31c1.27 0 2.89-.28 4.87-.86l-1.69-7.69h-.38zm18.14-5.97c4.22 0 6.33 1.44 6.33 4.313v.64c0 2.01-.96 3.947-2.86 5.812v.22c3.13.948 4.7 2.526 4.7 4.734v.86c0 3.603-3.54 6.254-10.63 7.95l-3.49.437h-2.03c-1.1 0-1.64-.57-1.64-1.72v-.21l1.64-17.66c-.69 0-1.03-.14-1.03-.42v-1.3c0-2.43 3-3.65 9-3.65zm-5.94 9.69h.22c6.39 0 9.59-1.44 9.59-4.315-1.06-.71-2.83-1.06-5.32-1.06h-2.45c-1.09 0-1.63.5-1.63 1.5l-.43 3.875zm-.41 4.09l-.41 6.875 2.05.44.2-.22h1.01c5.73-.75 8.59-2.11 8.59-4.077-1.89-2.01-4.82-3.013-8.8-3.013h-.81l-.21-.22-.2.22h-1.44zm29.25-13.83c4.45.616 6.67 3.277 6.67 7.986 0 6.17-2.44 11.27-7.31 15.31-2.01 1.15-3.81 1.72-5.39 1.72-3.87 0-6.36-2.08-7.47-6.25l-.16-1.94v-.65c0-6.73 3.07-11.83 9.22-15.31 1.54-.57 3.02-.86 4.43-.86zm-11.6 16.83c1.6 2.437 3.72 3.656 6.36 3.656 4.24 0 7.2-2.51 8.89-7.55l.31-2.37c0-3.54-1.75-5.62-5.24-6.25h-.49c-2.89 0-5.9 2.88-9.05 8.63-.53 1.73-.8 3.03-.8 3.89zm23.91-16.83c.67.27 1.04.55 1.11.845-1.19 7.43-1.78 12.825-1.78 16.19v2.31c3.98 0 7.24-1.82 9.78-5.47 1-8.83 1.96-13.25 2.89-13.25h.23c.88.097 1.32.31 1.32.644-1.34 8.04-2 14.067-2 18.077v3.36c0 1.11-.45 1.88-1.35 2.32h-.89l-.88-.84v-.42l.22-3.56c-.53 0-3.42 1.33-8.67 3.99l-1.56.42c-1.78-.23-2.68-1-2.68-2.31v-.2c1.08-14.72 2.34-22.08 3.78-22.08h.45zm31.56-.014c1.35 0 2.03.56 2.03 1.69v.42c0 1.56-1.21 2.33-3.63 2.33l-4.52.22c-1.36 7.22-2.04 13.43-2.04 18.63-.37 1.13-.74 1.69-1.13 1.69h-.69c-.78 0-1.24-.21-1.36-.64.76-7.99 1.59-14.48 2.48-19.47l-6.78 1.07c-.64 0-1.01-.63-1.13-1.9 0-2.11 1.89-3.17 5.66-3.17 2.26-.56 5.95-.84 11.08-.84zm24.37.02h.4c.67.36 1 .93 1 1.7v.44c0 4.63.41 10.05 1.22 16.25h.2c4.46-11.68 7.08-17.53 7.87-17.53h.61c.59 0 1.54 4.06 2.83 12.19 1.21 4.17 1.81 7.66 1.81 10.47-.4 1-1 1.5-1.81 1.5-.54 0-1.28-3.49-2.22-10.48l-1.62-6.83c-1.16 1.86-3.25 6.7-6.27 14.54-.86.89-1.6 1.39-2.22 1.5-1.75 0-2.63-2.35-2.63-7.06l-1-8.97h-.21l-6.06 13.67c-.37 2.28-.7 3.42-1.02 3.42h-.8l-.81-.84v-1.08c0-1.91 1.68-6.04 5.05-12.39 2.39-6.66 3.94-10.08 4.64-10.26l1.01-.22zm27.19.05h.75c1.03 0 2.33 4.77 3.92 14.3 1.25 4.5 1.87 7.56 1.87 9.18-.26.86-.76 1.28-1.5 1.28-.96 0-1.65-2.27-2.07-6.82l-.18-.2h-.19c-1.63.02-5.06 1.01-10.28 2.98-.5 2.85-1.32 4.27-2.44 4.27-.75-.29-1.13-.86-1.13-1.7 0-1.65 3.43-9.19 10.29-22.62l.94-.64zm-.38 5.97c-1.5 2.71-2.88 5.56-4.13 8.55h1.31c1.27 0 2.89-.28 4.87-.86l-1.67-7.7h-.38zm20.16-6.02h2.15c3.3 0 4.95 1.15 4.95 3.46v.22c0 4.03-3.45 7.7-10.35 11v.2c3.45 3.17 6.32 5.54 8.62 7.13v.64c0 1.12-.36 1.84-1.08 2.16h-.86l-11.85-8.4-.22 4.32v3.24c-.36.72-.94 1.08-1.72 1.08-.57 0-1-.28-1.29-.86v-1.29l1.94-16.83c-.57 0-.86-.43-.86-1.28 0-2.59 2.15-4.11 6.45-4.53l4.09-.22zm-7.53 11.64h.21c7.46-1.91 11.19-4 11.19-6.25v-.22c0-.39-.72-.68-2.16-.86-2.39 0-5.26.51-8.61 1.52l-.64 5.81zM515.96 422h2.16c3.3 0 4.95 1.15 4.95 3.46v.22c0 4.03-3.45 7.696-10.344 11v.2c3.45 3.167 6.32 5.54 8.63 7.125v.64c0 1.116-.36 1.834-1.08 2.157h-.86l-11.84-8.403-.22 4.31v3.23c-.366.72-.94 1.07-1.72 1.07-.575 0-1.007-.28-1.3-.86v-1.29l1.937-16.83c-.573 0-.86-.43-.86-1.29 0-2.6 2.15-4.11 6.453-4.53l4.095-.22zm-7.53 11.64h.22c7.46-1.91 11.19-4 11.19-6.25v-.22c0-.39-.72-.68-2.155-.86-2.38 0-5.25.51-8.603 1.52l-.64 5.81zm16.56-11.6l4.78 7.25 2.094 1.72c2.64-4.7 4.49-7.55 5.53-8.54h.95l.765.86c-.11.76-3.1 6.09-8.97 16-1.48 2.78-2.56 5.27-3.25 7.468l-.56.22c-.9-.416-1.35-1.056-1.35-1.92.05-1.115 1.57-4.6 4.57-10.454-4.32-4.65-6.48-8.42-6.48-11.31.8-.86 1.44-1.28 1.91-1.28zm17.45-.1h1.47c.49 0 .737.286.737.86-1.146 9.353-1.72 15.843-1.72 19.468v2.376c-.32 1.58-1.134 2.37-2.436 2.37h-.48l-.98-.86c.66-9.81 1.48-17.597 2.45-23.36l.97-.857zm7.098.06c.946 0 2.08 1.78 3.404 5.34 2.56 5.25 5.41 9.74 8.543 13.47 1.05-10.283 1.83-16.34 2.34-18.174l.86-.64h.64c.42 0 .64.285.64.86-1.28 14.685-2.06 22.524-2.35 23.513l-1.28.42c-2.28 0-6.127-4.85-11.53-14.53l-.86-.86-.22.64-.64 9.84v1.28l.22 1.28c-.19 1.71-.758 2.57-1.706 2.57-.88-.32-1.38-.74-1.5-1.28 1.09-15.4 1.87-23.1 2.34-23.1l1.07-.64zm31.42 0h.155c1.382 0 2.31 1.35 2.78 4.06l-.33.42h-.157l-1.31-.42c-3.583.53-7.338 3.02-11.265 7.48-1.09 1.94-1.64 3.294-1.64 4.065v.86c0 2.28 2.35 3.7 7.03 4.265 2.94 0 5.17-1.57 6.69-4.708l-1.95-.84c-.73 0-2.74.856-6.04 2.564-.32-.73-.48-1.443-.48-2.14v-.22c0-2.27 2.18-3.84 6.54-4.703h.33c2.5 0 3.75 1.64 3.75 4.924 0 3.38-2.77 6.38-8.32 8.98l-1.95.42c-3.53 0-5.93-1.497-7.19-4.486l-.33-2.78c0-6.46 3.32-11.95 9.95-16.47 1.68-.85 2.94-1.28 3.77-1.28zm29.436-3.89h.47c.77.42 1.16 1.08 1.16 1.97v.494c0 5.344.456 11.605 1.373 18.78h.236c5.083-13.51 8.08-20.27 8.984-20.27h.69c.678 0 1.75 4.7 3.22 14.096 1.385 4.82 2.078 8.85 2.078 12.1-.45 1.156-1.14 1.734-2.08 1.734-.617 0-1.46-4.04-2.533-12.11l-1.844-7.91c-1.32 2.16-3.7 7.76-7.14 16.8-.99 1.027-1.83 1.6-2.53 1.74-2 0-3-2.72-3-8.16L608.34 427h-.234l-6.91 15.81c-.416 2.636-.8 3.954-1.155 3.954h-.92l-.92-.98v-1.236c0-2.216 1.93-6.992 5.77-14.325 2.73-7.7 4.49-11.65 5.3-11.86l1.14-.25zm29.74 3.93h.75c1.03 0 2.34 4.77 3.92 14.3 1.25 4.5 1.87 7.56 1.87 9.18-.26.855-.76 1.28-1.5 1.28-.96 0-1.65-2.274-2.068-6.826l-.18-.206h-.188c-1.627.02-5.054 1.018-10.28 2.986-.5 2.84-1.316 4.262-2.44 4.262-.75-.29-1.126-.86-1.126-1.707 0-1.65 3.433-9.19 10.3-22.63l.94-.64zm-.38 5.97c-1.5 2.71-2.88 5.56-4.13 8.55h1.31c1.27 0 2.896-.29 4.875-.86l-1.69-7.69h-.38zm20.16-6.013h2.16c3.3 0 4.95 1.15 4.95 3.45v.21c0 4.033-3.45 7.7-10.35 11v.204c3.45 3.17 6.32 5.54 8.62 7.13v.64c0 1.12-.36 1.83-1.076 2.16h-.86l-11.842-8.4-.22 4.32v3.23c-.37.72-.94 1.08-1.72 1.08-.57 0-1.01-.28-1.3-.86v-1.29l1.94-16.83c-.574 0-.86-.42-.86-1.28 0-2.59 2.15-4.1 6.453-4.53l4.09-.22zm-7.53 11.64h.22c7.46-1.92 11.18-4 11.18-6.25v-.22c0-.4-.72-.68-2.16-.86-2.384 0-5.254.5-8.61 1.513l-.64 5.81zm16.54-11.6l4.78 7.25 2.09 1.72c2.646-4.706 4.49-7.555 5.53-8.545h.955l.76.86c-.11.76-3.1 6.09-8.97 16-1.48 2.78-2.56 5.27-3.25 7.464l-.56.22c-.9-.42-1.35-1.06-1.35-1.93.05-1.12 1.58-4.6 4.58-10.46-4.33-4.65-6.49-8.42-6.49-11.315.8-.85 1.43-1.28 1.9-1.28zm15.31 19.646c1.397 0 2.266.85 2.61 2.546 0 1.7-1.22 2.63-3.656 2.78-1.217-.45-1.826-1.23-1.826-2.31v-.23c.48-1.86 1.436-2.78 2.874-2.78zM357.87 460.04c.96.227 1.44.81 1.44 1.75v.25c-1.344 17.81-2.307 26.717-2.89 26.717l-.28.25h-.877c-1 0-1.67-.415-2.015-1.25.38-2.373.57-5.7.57-9.982h-.3l-12.127 2.5-.87 1V486c0 1.417-.57 2.417-1.73 3h-.58c-1.07 0-1.74-.417-2.02-1.25 1.35-17.98 3.27-26.97 5.78-26.97h.58l.86 1c-1.34 5.97-2.01 10.38-2.01 13.236 8.86-1.042 13.28-2.292 13.28-3.75l1.16-10.485 2.03-.75zm19.627 4c.715.155 1.075.7 1.075 1.64-.23 1.77-.945 2.655-2.14 2.655-7.857 0-11.784 1.098-11.784 3.28l-.22 1.85v1.01c5.12-1.23 8.62-1.85 10.5-1.85h.42c.72.31 1.074.99 1.074 2.043 0 1.5-1 2.25-3 2.25-6.57.85-9.86 1.88-9.86 3.075l-.2 2.05v.81c0 1.23.783 1.91 2.345 2.047 2.46-.27 5.53-.89 9.22-1.85h.64c.57.22.86.7.86 1.44v.61c0 1.676-3.577 2.973-10.72 3.89h-.64c-2.576 0-4-1.635-4.28-4.906-.005-2.41.495-6.98 1.495-13.72l-.42-1.23c0-2.77 4.28-4.41 12.84-4.91l2.78-.207zm12.715-.05h2.155c3.3 0 4.952 1.15 4.952 3.453v.22c0 4.03-3.45 7.69-10.34 11v.2c3.45 3.16 6.32 5.54 8.62 7.12v.64c0 1.11-.36 1.83-1.08 2.153h-.86l-11.85-8.406-.22 4.31v3.23c-.37.72-.94 1.08-1.72 1.08-.58 0-1.01-.29-1.3-.86v-1.3l1.94-16.83c-.58 0-.86-.424-.86-1.28 0-2.59 2.15-4.103 6.45-4.53l4.09-.22zm-7.53 11.64h.216c7.46-1.917 11.18-4 11.18-6.25v-.22c0-.397-.72-.683-2.154-.86-2.383 0-5.253.505-8.61 1.516l-.64 5.81zm43.185-11.594h.92c1.156 0 1.848.938 2.078 2.8v.44c0 2.825-1.068 4.69-3.2 5.595l-.378-.44v-.22l.95-3.65-.75-.42c-3.11 0-6.817 2.95-11.11 8.83-1.02 1.78-1.53 3.14-1.53 4.08v.22c0 2.29 1.39 3.44 4.16 3.44h.17c2.665 0 5.62-.71 8.86-2.14h.576c.5.23.75.73.75 1.5v.86c-2.664 2.73-5.8 4.1-9.404 4.1-4.91-.51-7.36-2.95-7.36-7.31v-.43c0-5.57 3.95-11.02 11.86-16.36 1.5-.57 2.63-.86 3.41-.86zm19.69-.042c.74.2 1.11.706 1.11 1.52v.202c-1.04 15.39-1.78 23.08-2.22 23.08l-.237.22h-.66c-.77 0-1.29-.36-1.56-1.08.29-2.05.437-4.93.437-8.63h-.22l-9.345 2.157-.653.86v4.095c0 1.22-.45 2.084-1.34 2.594h-.44c-.83 0-1.35-.36-1.56-1.08 1.03-15.53 2.52-23.3 4.46-23.3h.44l.67.875c-1.04 5.155-1.56 8.963-1.56 11.42 6.82-.895 10.23-1.973 10.23-3.234l.89-9.063 1.56-.64zm7.53-.06h1.47c.49 0 .732.287.732.86-1.14 9.354-1.72 15.844-1.72 19.47v2.374c-.32 1.59-1.13 2.38-2.43 2.38h-.48l-.99-.86c.65-9.81 1.47-17.6 2.45-23.36l.97-.86zm6.873.06h.22c.674 0 1.24.35 1.7 1.05-.99 7.21-1.7 13.657-2.126 19.345l12.19-2.52.42.62v1.27c0 1.91-4.415 3.66-13.25 5.25-1.57-.28-2.36-.77-2.36-1.47 1.17-15.42 2.023-23.13 2.565-23.13l.64-.42zm21.264 0h.954c4.53 0 7.305 1.8 8.33 5.39l.19 1.72c0 7.16-5.306 13.055-15.91 17.69l-.94.22h-.205c-.28 0-.53-.505-.75-1.516l1.89-18.54c-.76 0-1.14-.214-1.14-.64v-.44c0-2.29 1.01-3.44 3.03-3.44l4.547-.44zm-3.78 4.535c-1.136 7.37-1.703 12.33-1.703 14.87v1.08c7.95-3.97 11.92-7.71 11.92-11.22v-.21c0-2.02-.56-3.03-1.7-3.03-1.4-1-3.67-1.5-6.81-1.5h-1.7zm31.556-4.6h1.47c.49 0 .737.28.737.86-1.15 9.35-1.72 15.84-1.72 19.46v2.37c-.325 1.58-1.137 2.37-2.44 2.37h-.484l-.98-.86c.654-9.82 1.472-17.6 2.45-23.36l.97-.86zm16.91.11h.328c1.438.17 2.156.87 2.156 2.09v.42c0 2.1-.72 4.06-2.157 5.87h-.33c-.23-.07-.453-.42-.67-1.05l.842-3.14-.66-.43c-1.53.13-4.35 1.81-8.44 5.03v.2l10.9 2.11c1.1.88 1.65 2.35 1.65 4.41v1.25c0 2.82-1.82 5.27-5.46 7.35-1.43.57-2.81.85-4.14.85h-.35c-3.79 0-6.11-1.68-6.94-5.03v-1.27c0-1.55.38-2.32 1.15-2.32.76 2.66 2.14 4 4.14 4 0 .27.83.4 2.48.4 2.44 0 4.81-1.26 7.11-3.77 0-1.66-3.53-2.72-10.58-3.15-2.54-.71-3.82-1.76-3.82-3.14 0-3.41 3.42-6.84 10.25-10.28l2.48-.43zm35.53-.05c.74.2 1.11.7 1.11 1.51v.2c-1.04 15.39-1.78 23.08-2.22 23.08l-.234.22h-.656c-.77 0-1.29-.36-1.56-1.08.292-2.05.44-4.93.44-8.63h-.22l-9.34 2.15-.66.86v4.09c0 1.22-.45 2.08-1.344 2.59h-.438c-.834 0-1.355-.36-1.563-1.08 1.03-15.53 2.514-23.29 4.452-23.29h.435l.67.87c-1.044 5.15-1.564 8.96-1.564 11.42 6.82-.9 10.23-1.98 10.23-3.24l.89-9.07 1.565-.64zm16.173 0c4.447.61 6.67 3.27 6.67 7.98 0 6.16-2.437 11.27-7.312 15.31-2.01 1.14-3.8 1.72-5.39 1.72-3.86 0-6.35-2.09-7.47-6.25l-.15-1.94v-.66c0-6.73 3.08-11.84 9.22-15.31 1.54-.58 3.02-.86 4.44-.86zm-11.595 16.83c1.604 2.43 3.724 3.65 6.36 3.65 4.24 0 7.203-2.52 8.89-7.55l.313-2.38c0-3.54-1.74-5.63-5.23-6.25h-.48c-2.88 0-5.9 2.87-9.04 8.62-.53 1.73-.79 3.02-.79 3.89zm22.47-16.83h.22c.675 0 1.243.35 1.7 1.05-.99 7.21-1.697 13.65-2.124 19.34l12.19-2.51.42.62v1.27c0 1.91-4.415 3.66-13.25 5.25-1.57-.28-2.36-.77-2.36-1.47 1.17-15.42 2.023-23.13 2.564-23.13l.64-.43zm14.843.05l4.78 7.25 2.1 1.72c2.65-4.71 4.49-7.56 5.53-8.55h.96l.77.86c-.1.76-3.09 6.09-8.97 16-1.48 2.78-2.56 5.27-3.25 7.47l-.56.22c-.89-.42-1.34-1.06-1.34-1.92.05-1.12 1.58-4.6 4.58-10.46-4.32-4.65-6.48-8.42-6.48-11.32.8-.85 1.44-1.28 1.91-1.28zm35.36 0h.75c1.03 0 2.34 4.76 3.92 14.29 1.25 4.5 1.88 7.55 1.88 9.17-.26.85-.76 1.28-1.5 1.28-.95 0-1.64-2.28-2.06-6.83l-.18-.2h-.19c-1.62.02-5.05 1.01-10.28 2.98-.5 2.84-1.31 4.27-2.43 4.27-.75-.3-1.12-.86-1.12-1.71 0-1.64 3.43-9.19 10.3-22.62l.94-.64zm-.37 5.97c-1.5 2.7-2.87 5.55-4.12 8.54h1.31c1.27 0 2.9-.29 4.88-.86l-1.7-7.7h-.37zm11.96-6.02c.95 0 2.09 1.78 3.41 5.34 2.57 5.25 5.41 9.74 8.55 13.47 1.05-10.29 1.84-16.34 2.35-18.18l.86-.64h.64c.43 0 .64.29.64.86-1.28 14.69-2.06 22.53-2.34 23.52l-1.28.42c-2.28 0-6.13-4.84-11.53-14.53l-.86-.86-.22.64-.64 9.85v1.28l.22 1.28c-.19 1.71-.75 2.56-1.7 2.56-.87-.31-1.37-.74-1.5-1.28 1.1-15.4 1.88-23.09 2.35-23.09l1.08-.64zm26.04 0h.96c4.53 0 7.31 1.79 8.33 5.39l.18 1.72c0 7.15-5.3 13.05-15.9 17.68l-.94.22h-.2c-.28 0-.53-.51-.75-1.52l1.89-18.55c-.76 0-1.14-.21-1.14-.64v-.44c0-2.29 1.01-3.44 3.03-3.44l4.55-.44zm-3.78 4.53c-1.13 7.37-1.7 12.33-1.7 14.87v1.08c7.95-3.97 11.92-7.71 11.92-11.22v-.21c0-2.02-.56-3.03-1.7-3.03-1.4-1-3.67-1.5-6.81-1.5h-1.7zm-351.6 37.51c.7 0 1.05 2.41 1.05 7.25l1.41 9.19h.34c0-.54 1.4-3.38 4.2-8.55.44-3.41 1.25-5.11 2.45-5.11h.34c.71 0 1.29 2.63 1.75 7.89.78 3.59 1.37 5.73 1.75 6.4.38-1.82 2.25-7.16 5.61-16.02.49-.56.96-.85 1.41-.85.63 0 1.03.28 1.22.84 0 .73-1.75 5.49-5.25 14.3-.58 2.08-1.11 4.93-1.58 8.54-.37.71-.84 1.06-1.4 1.06-1.06 0-1.87-2.42-2.44-7.25-1.14-4.72-1.85-7.28-2.11-7.69l-3.5 6.83c-.58 1.33-1.11 3.61-1.57 6.82-.31.52-.77.87-1.39 1.06-.98 0-1.8-3.7-2.45-11.09-.94-5.23-1.4-9.43-1.4-12.6 0-.43.53-.78 1.58-1.07zm26.55-.11h1.47c.49 0 .74.28.74.86-1.14 9.35-1.72 15.84-1.72 19.47v2.37c-.32 1.58-1.13 2.37-2.43 2.37h-.48l-.98-.86c.66-9.82 1.48-17.6 2.46-23.36l.97-.86zm6.88.06h.22c.68 0 1.25.35 1.71 1.04-.99 7.21-1.7 13.65-2.13 19.34l12.19-2.51.42.63v1.27c0 1.91-4.41 3.66-13.25 5.25-1.57-.28-2.36-.77-2.36-1.47 1.17-15.42 2.02-23.13 2.57-23.13l.64-.42zm16.14 0h.22c.67 0 1.24.35 1.7 1.04-.99 7.21-1.7 13.65-2.12 19.34l12.19-2.51.42.63v1.27c0 1.91-4.41 3.66-13.25 5.25-1.57-.28-2.36-.77-2.36-1.47 1.17-15.42 2.02-23.13 2.57-23.13l.64-.42zm35.83.04c4.22 0 6.33 1.44 6.33 4.31v.64c0 2.01-.95 3.94-2.86 5.81v.22c3.14.94 4.71 2.52 4.71 4.73v.86c0 3.6-3.54 6.25-10.63 7.95l-3.48.44h-2.03c-1.09 0-1.64-.58-1.64-1.72v-.22l1.64-17.66c-.69 0-1.03-.14-1.03-.43v-1.3c0-2.44 3-3.66 9-3.66zm-5.93 9.69h.22c6.39 0 9.59-1.44 9.59-4.32-1.05-.71-2.82-1.06-5.31-1.06h-2.45c-1.09 0-1.63.5-1.63 1.5l-.42 3.87zm-.41 4.09l-.41 6.87 2.05.44.2-.22h1.02c5.73-.75 8.6-2.11 8.6-4.08-1.89-2.01-4.82-3.02-8.8-3.02h-.81l-.2-.22-.2.22H400zm32.3-13.78c.72.15 1.08.7 1.08 1.64-.23 1.77-.94 2.65-2.14 2.65-7.85 0-11.78 1.1-11.78 3.28l-.22 1.85v1.01c5.13-1.23 8.63-1.84 10.5-1.84h.43c.72.32 1.08 1 1.08 2.05 0 1.5-1 2.25-3 2.25-6.57.85-9.85 1.88-9.85 3.08l-.2 2.05v.81c0 1.23.78 1.91 2.35 2.05 2.46-.27 5.53-.88 9.22-1.84h.64c.57.22.86.7.86 1.44v.61c0 1.68-3.57 2.97-10.72 3.89h-.64c-2.57 0-4-1.64-4.28-4.91 0-2.41.5-6.98 1.5-13.72l-.42-1.23c0-2.77 4.29-4.41 12.85-4.91l2.78-.2zm33.53-4h.24c1.93 0 3.22 1.56 3.88 4.7l-.45.5h-.23l-1.83-.5c-5.01.61-10.25 3.5-15.73 8.67-1.52 2.24-2.28 3.81-2.28 4.7v.99c0 2.64 3.27 4.3 9.81 4.95 4.11 0 7.22-1.82 9.35-5.46l-2.74-.99c-1.01 0-3.82.99-8.43 2.96-.46-.84-.69-1.67-.69-2.47v-.25c0-2.63 3.04-4.45 9.12-5.45h.46c3.5 0 5.25 1.9 5.25 5.7 0 3.92-3.88 7.38-11.63 10.39l-2.75.5c-4.92 0-8.26-1.73-10.03-5.2l-.46-3.22c0-7.46 4.64-13.82 13.91-19.06 2.34-.99 4.09-1.48 5.25-1.48zm20.22 3.95c4.45.61 6.67 3.27 6.67 7.98 0 6.17-2.43 11.27-7.31 15.31-2.01 1.15-3.81 1.72-5.39 1.72-3.86 0-6.35-2.08-7.47-6.25l-.15-1.94v-.65c0-6.73 3.07-11.84 9.22-15.32 1.54-.57 3.02-.86 4.44-.86zm-11.59 16.83c1.61 2.43 3.73 3.65 6.36 3.65 4.24 0 7.21-2.52 8.89-7.55l.32-2.37c0-3.54-1.75-5.63-5.24-6.25h-.49c-2.88 0-5.9 2.87-9.05 8.62-.53 1.73-.79 3.02-.79 3.89zm27.6-16.83h.95c4.53 0 7.31 1.79 8.33 5.39l.19 1.72c0 7.15-5.3 13.05-15.91 17.68l-.94.22h-.2c-.28 0-.53-.51-.75-1.52l1.89-18.55c-.76 0-1.14-.22-1.14-.64v-.44c0-2.3 1.01-3.44 3.03-3.44l4.55-.44zm-3.78 4.53c-1.14 7.37-1.71 12.33-1.71 14.87v1.08c7.95-3.97 11.92-7.71 11.92-11.22v-.21c0-2.02-.56-3.03-1.7-3.03-1.4-1-3.67-1.5-6.81-1.5h-1.7zm19.51-8.47c1.52.49 2.28 1.15 2.28 2-.32 1.32-2.31 4.23-5.98 8.72h-1.44l-1.12-.89v-.68l4.28-6.92c.3-1.49.96-2.24 1.99-2.24zm16.25 3.98h.33c1.44.18 2.16.87 2.16 2.09v.42c0 2.1-.72 4.06-2.15 5.87H534c-.23-.06-.454-.41-.673-1.05l.845-3.14-.658-.43c-1.53.14-4.344 1.81-8.438 5.03v.2l10.903 2.11c1.1.87 1.65 2.34 1.65 4.4v1.25c0 2.82-1.82 5.27-5.45 7.34-1.43.56-2.81.84-4.14.84h-.35c-3.79 0-6.11-1.68-6.94-5.03v-1.27c0-1.54.38-2.31 1.16-2.31.76 2.66 2.14 4 4.14 4 0 .27.83.4 2.48.4 2.45 0 4.81-1.26 7.11-3.77 0-1.67-3.53-2.72-10.58-3.16-2.54-.71-3.81-1.76-3.81-3.14 0-3.41 3.42-6.84 10.25-10.29l2.48-.42zm35.6-4h.42c1.82.2 2.72 1.01 2.72 2.44v.48c0 2.43-.9 4.7-2.72 6.81h-.42c-.28-.08-.55-.48-.83-1.22l1.05-3.64-.84-.5c-1.93.15-5.49 2.1-10.69 5.84v.25l13.83 2.44c1.4 1.01 2.09 2.72 2.09 5.11v1.45c0 3.27-2.3 6.12-6.9 8.53-1.81.65-3.56.97-5.23.97h-.42c-4.81 0-7.74-1.94-8.8-5.84v-1.45c0-1.79.49-2.69 1.47-2.69.96 3.09 2.71 4.63 5.24 4.63 0 .32 1.05.48 3.14.48 3.1 0 6.1-1.46 9-4.38 0-1.93-4.47-3.15-13.41-3.66-3.21-.82-4.81-2.04-4.81-3.64 0-3.96 4.33-7.94 12.99-11.94l3.14-.49zm20.03 3.95c4.45.61 6.68 3.27 6.68 7.98 0 6.16-2.43 11.27-7.31 15.31-2.01 1.14-3.8 1.72-5.39 1.72-3.86 0-6.35-2.09-7.47-6.25l-.15-1.94v-.66c0-6.73 3.07-11.84 9.22-15.32 1.54-.58 3.02-.86 4.44-.86zm-11.59 16.83c1.6 2.43 3.72 3.65 6.36 3.65 4.24 0 7.21-2.52 8.89-7.55l.32-2.38c0-3.55-1.74-5.63-5.23-6.25h-.48c-2.88 0-5.9 2.87-9.04 8.62-.53 1.73-.8 3.02-.8 3.89zm22.69-16.83c.95 0 2.09 1.78 3.41 5.34 2.56 5.25 5.41 9.74 8.55 13.47 1.05-10.29 1.84-16.34 2.35-18.18l.86-.64h.64c.43 0 .64.28.64.86-1.28 14.68-2.06 22.52-2.34 23.51l-1.28.42c-2.28 0-6.13-4.85-11.53-14.53l-.86-.86-.22.64-.64 9.84v1.28l.22 1.29c-.19 1.71-.76 2.56-1.7 2.56-.87-.31-1.37-.74-1.5-1.28 1.1-15.4 1.88-23.1 2.35-23.1l1.08-.64zm28.05-3.92c.63.29.94.64.94 1.04-2.97 9.56-4.45 15.62-4.45 18.17-.84.98-1.55 1.47-2.12 1.47-.94-.34-1.41-.75-1.41-1.25 1.48-12.96 3.44-19.44 5.88-19.44h1.17zm-5.55 23.45c1.48.28 2.22 1.05 2.22 2.31v.2c-.59 1.98-2.01 2.97-4.26 2.97-1.12 0-1.79-.77-2.02-2.32 0-1.78 1.36-2.84 4.07-3.17zM645.59 502l6.356 8.43 2.8 1.98c3.52-5.47 5.98-8.77 7.374-9.91h1.27l1.014.98c-.134.87-4.12 7.063-11.952 18.574-1.96 3.22-3.4 6.1-4.33 8.655l-.75.25c-1.182-.49-1.78-1.24-1.78-2.24.067-1.29 2.098-5.33 6.098-12.12-5.76-5.39-8.64-9.77-8.64-13.12 1.07-.99 1.92-1.49 2.54-1.49zm30.575 3.96c4.45.62 6.67 3.28 6.67 7.99 0 6.17-2.433 11.27-7.31 15.31-2.01 1.15-3.81 1.72-5.39 1.72-3.87 0-6.353-2.08-7.47-6.25l-.16-1.94v-.66c0-6.73 3.078-11.84 9.22-15.32 1.54-.57 3.02-.86 4.44-.86zm-11.59 16.83c1.604 2.44 3.723 3.66 6.36 3.66 4.24 0 7.2-2.52 8.89-7.55l.31-2.38c0-3.54-1.745-5.63-5.234-6.25h-.48c-2.88 0-5.9 2.87-9.04 8.62-.53 1.73-.8 3.03-.8 3.89zm23.906-16.83c.67.27 1.04.55 1.11.84-1.19 7.42-1.78 12.82-1.78 16.18v2.31c3.98 0 7.24-1.825 9.78-5.47 1-8.834 1.97-13.25 2.89-13.25h.24c.88.093 1.32.31 1.32.64-1.33 8.04-2 14.07-2 18.08v3.36c0 1.1-.45 1.87-1.34 2.31h-.89l-.87-.844v-.42l.22-3.565c-.53 0-3.42 1.33-8.67 3.99l-1.56.43c-1.78-.23-2.67-1-2.67-2.31v-.2c1.08-14.72 2.34-22.08 3.78-22.08h.45zM336.34 548h.75c1.035 0 2.34 4.77 3.925 14.3 1.25 4.5 1.88 7.55 1.88 9.17-.26.85-.76 1.28-1.5 1.28-.96 0-1.64-2.28-2.06-6.83l-.19-.21h-.18c-1.62.02-5.05 1.02-10.28 2.99-.5 2.845-1.31 4.267-2.43 4.267-.75-.29-1.12-.86-1.12-1.7 0-1.647 3.43-9.19 10.294-22.626l.94-.64zm-.37 5.97c-1.5 2.71-2.878 5.56-4.128 8.55h1.32c1.27 0 2.9-.29 4.88-.86l-1.7-7.69h-.37zm20.153-6.02h2.15c3.3 0 4.95 1.15 4.95 3.45v.22c0 4.03-3.45 7.696-10.35 11v.2c3.45 3.16 6.32 5.54 8.62 7.12v.64c0 1.11-.36 1.83-1.08 2.15h-.86l-11.85-8.41-.22 4.317v3.232c-.366.72-.94 1.08-1.72 1.08-.57 0-1.006-.29-1.297-.86v-1.3l1.94-16.83c-.575 0-.86-.43-.86-1.28 0-2.6 2.15-4.11 6.45-4.53l4.09-.22zm-7.53 11.64h.22c7.46-1.92 11.19-4 11.19-6.25v-.22c0-.4-.72-.68-2.16-.86-2.38 0-5.25.505-8.6 1.515l-.64 5.813zM379.92 548c.72.16 1.074.71 1.074 1.65-.23 1.77-.943 2.66-2.14 2.66-7.855 0-11.78 1.095-11.78 3.28l-.21 1.846v1.014c5.13-1.23 8.63-1.84 10.5-1.84h.42c.72.314 1.08.996 1.08 2.048 0 1.5-1 2.25-3 2.25-6.57.858-9.86 1.88-9.86 3.08l-.2 2.05v.81c0 1.23.78 1.91 2.345 2.048 2.45-.27 5.53-.885 9.22-1.84h.64c.57.22.85.7.85 1.44v.61c0 1.672-3.57 2.97-10.72 3.89h-.64c-2.58 0-4-1.64-4.29-4.91 0-2.408.5-6.98 1.5-13.72l-.42-1.234c0-2.77 4.28-4.406 12.84-4.906l2.78-.205zm31.72-.06c1.35 0 2.03.56 2.03 1.69v.42c0 1.55-1.21 2.33-3.63 2.33l-4.52.22c-1.35 7.22-2.03 13.43-2.03 18.63-.362 1.13-.74 1.69-1.123 1.69h-.684c-.78 0-1.23-.212-1.36-.64.77-7.99 1.59-14.48 2.49-19.47l-6.8 1.08c-.63 0-1.01-.633-1.12-1.904 0-2.114 1.89-3.17 5.66-3.17 2.26-.56 5.953-.84 11.08-.84zm15.042.02c4.45.62 6.68 3.28 6.68 7.99 0 6.168-2.44 11.27-7.31 15.31-2.01 1.15-3.802 1.72-5.39 1.72-3.86 0-6.35-2.08-7.47-6.25l-.15-1.935v-.656c0-6.73 3.07-11.83 9.22-15.31 1.54-.57 3.02-.86 4.436-.86zm-11.59 16.83c1.61 2.44 3.73 3.66 6.36 3.66 4.24 0 7.2-2.514 8.89-7.545l.31-2.375c0-3.54-1.74-5.62-5.23-6.25h-.48c-2.88 0-5.9 2.88-9.04 8.63-.533 1.73-.8 3.025-.8 3.89zm47.81-16.78h.92c1.16 0 1.85.93 2.08 2.8v.44c0 2.825-1.06 4.69-3.2 5.595l-.37-.44v-.22l.96-3.66-.75-.42c-3.115 0-6.82 2.946-11.11 8.83-1.02 1.78-1.53 3.14-1.53 4.08v.22c0 2.295 1.384 3.44 4.155 3.44h.17c2.67 0 5.62-.713 8.86-2.14h.58c.5.23.75.73.75 1.5v.86c-2.67 2.73-5.806 4.096-9.41 4.096-4.907-.51-7.36-2.95-7.36-7.31v-.43c0-5.57 3.953-11.02 11.86-16.36 1.5-.57 2.635-.86 3.405-.86zm12.64 0h.75c1.03 0 2.34 4.77 3.93 14.3 1.25 4.5 1.88 7.558 1.88 9.17-.26.857-.76 1.28-1.5 1.28-.96 0-1.646-2.272-2.063-6.824l-.19-.205h-.19c-1.63.02-5.06 1.02-10.29 2.99-.5 2.84-1.32 4.27-2.44 4.27-.75-.29-1.13-.86-1.13-1.7 0-1.65 3.43-9.19 10.3-22.62l.93-.64zm-.37 5.97c-1.5 2.71-2.87 5.56-4.12 8.55h1.317c1.27 0 2.89-.285 4.87-.86l-1.7-7.7h-.38zm11.726-6h.22c.677 0 1.245.35 1.703 1.047-.99 7.21-1.69 13.66-2.12 19.347l12.19-2.51.42.63v1.27c0 1.92-4.41 3.67-13.25 5.25-1.57-.28-2.36-.77-2.36-1.47 1.17-15.41 2.02-23.12 2.57-23.12l.64-.42zm16.14 0h.22c.677 0 1.245.35 1.7 1.047-.99 7.21-1.695 13.66-2.12 19.347l12.185-2.51.42.63v1.27c0 1.92-4.415 3.67-13.25 5.25-1.57-.28-2.36-.77-2.36-1.47 1.17-15.41 2.02-23.12 2.564-23.12l.64-.42zm42.907 0c.74.198 1.11.703 1.11 1.516v.203c-1.04 15.38-1.78 23.07-2.22 23.07l-.233.22h-.657c-.77 0-1.29-.36-1.56-1.08.29-2.06.43-4.93.43-8.63h-.22l-9.35 2.15-.66.86v4.09c0 1.22-.45 2.08-1.35 2.59h-.44c-.83 0-1.356-.36-1.56-1.08 1.03-15.53 2.51-23.3 4.45-23.3h.44l.67.87c-1.04 5.16-1.56 8.96-1.56 11.42 6.82-.9 10.23-1.98 10.23-3.24l.89-9.06 1.56-.64zm7.53-.062h1.47c.49 0 .736.29.736.86-1.14 9.355-1.71 15.845-1.71 19.47v2.376c-.32 1.584-1.13 2.376-2.43 2.376h-.5l-.98-.86c.66-9.81 1.48-17.595 2.46-23.36l.96-.855zm13.38.064h.405c.666.362 1 .93 1 1.7v.44c0 4.624.406 10.04 1.218 16.25h.2c4.46-11.69 7.08-17.53 7.875-17.53h.61c.59 0 1.533 4.06 2.825 12.185 1.21 4.17 1.814 7.66 1.814 10.47-.396 1-1 1.5-1.813 1.5-.54 0-1.28-3.493-2.22-10.48l-1.63-6.83c-1.16 1.853-3.25 6.696-6.27 14.53-.87.885-1.61 1.385-2.22 1.5-1.75 0-2.63-2.354-2.63-7.06l-1-8.97h-.2l-6.06 13.67c-.37 2.28-.71 3.42-1.02 3.42h-.8l-.82-.843v-1.08c0-1.917 1.68-6.047 5.05-12.39 2.39-6.668 3.94-10.09 4.64-10.267l1.01-.22zm40.58-3.956l8.53.5 4.627-.5.48.75v1c0 2.67-1.54 4-4.62 4h-.25c-.387 14.48-1.684 21.72-3.89 21.72-1.138 1-2.685 1.5-4.64 1.5h-1.706c-5.52-.84-8.28-3.59-8.28-8.23.49-2.79 1.22-4.628 2.19-5.5h.25c.25 0 .66 1.83 1.22 5.5 1.11 2.16 2.9 3.23 5.36 3.23 3.57 0 5.36-1.494 5.36-4.483l1.22-13.98h-2.68c-3.57 0-5.36-.42-5.36-1.25v-.5c.49-2.5 1.23-3.75 2.21-3.75zm30.422 4c.72.16 1.08.704 1.08 1.642-.23 1.77-.94 2.654-2.14 2.654-7.856 0-11.78 1.092-11.78 3.28l-.22 1.843v1.01c5.123-1.23 8.623-1.85 10.5-1.85h.42c.72.31 1.08.99 1.08 2.04 0 1.5-1 2.25-3 2.25-6.57.854-9.86 1.88-9.86 3.08l-.2 2.046v.82c0 1.23.78 1.91 2.34 2.04 2.46-.27 5.53-.89 9.22-1.84h.64c.57.22.86.7.86 1.44v.61c0 1.68-3.57 2.97-10.72 3.89h-.64c-2.57 0-4-1.63-4.28-4.9 0-2.41.5-6.98 1.5-13.72l-.42-1.23c0-2.77 4.28-4.4 12.85-4.9l2.79-.2zm14.33 0h.33c1.434.18 2.153.88 2.153 2.095v.42c0 2.11-.72 4.06-2.157 5.88h-.33c-.23-.06-.45-.41-.67-1.04l.843-3.14-.657-.42c-1.53.14-4.35 1.82-8.44 5.03v.2l10.9 2.11c1.1.88 1.65 2.34 1.65 4.41v1.25c0 2.83-1.81 5.27-5.45 7.35-1.42.56-2.8.84-4.14.84h-.34c-3.79 0-6.1-1.68-6.94-5.03v-1.27c0-1.54.39-2.31 1.16-2.31.76 2.67 2.14 4 4.14 4 0 .27.83.41 2.49.41 2.45 0 4.82-1.25 7.11-3.77 0-1.66-3.52-2.71-10.58-3.15-2.54-.71-3.81-1.76-3.81-3.14 0-3.41 3.42-6.84 10.25-10.28l2.49-.42zm10.202-.046c.66.27 1.03.55 1.11.84-1.19 7.43-1.78 12.825-1.78 16.19v2.314c3.98 0 7.24-1.82 9.78-5.47 1-8.83 1.96-13.25 2.89-13.25h.23c.88.095 1.32.31 1.32.64-1.34 8.044-2 14.07-2 18.08v3.36c0 1.104-.45 1.874-1.35 2.31h-.89l-.88-.84v-.42l.22-3.56c-.54 0-3.43 1.322-8.68 3.98l-1.56.42c-1.78-.23-2.67-1-2.67-2.31v-.2c1.09-14.72 2.35-22.08 3.78-22.08h.46zm27.45.045h.33c1.44.18 2.15.877 2.15 2.096v.42c0 2.1-.71 4.06-2.15 5.87h-.33c-.23-.07-.45-.42-.67-1.05l.85-3.14-.65-.42c-1.53.13-4.34 1.81-8.44 5.03v.2l10.91 2.11c1.1.87 1.66 2.34 1.66 4.4v1.25c0 2.82-1.82 5.27-5.45 7.34-1.43.56-2.81.85-4.14.85h-.35c-3.8 0-6.11-1.68-6.94-5.03v-1.26c0-1.54.38-2.31 1.16-2.31.76 2.67 2.14 4 4.14 4 0 .27.83.41 2.49.41 2.45 0 4.82-1.26 7.11-3.77 0-1.66-3.53-2.71-10.58-3.15-2.54-.7-3.81-1.75-3.81-3.14 0-3.4 3.41-6.83 10.25-10.28l2.48-.42zm-365.51 42h.75c1.03 0 2.34 4.77 3.92 14.3 1.25 4.5 1.88 7.555 1.88 9.17-.26.854-.76 1.28-1.5 1.28-.96 0-1.65-2.275-2.06-6.827l-.19-.205h-.19c-1.63.02-5.06 1.01-10.28 2.98-.5 2.84-1.32 4.262-2.44 4.262-.75-.295-1.13-.86-1.13-1.706 0-1.65 3.43-9.19 10.3-22.63l.93-.64zm-.38 5.97c-1.5 2.71-2.87 5.56-4.12 8.55h1.31c1.27 0 2.9-.28 4.88-.86l-1.7-7.7h-.37zm11.95-6.015c.95 0 2.09 1.78 3.41 5.34 2.57 5.25 5.42 9.74 8.55 13.47 1.06-10.28 1.84-16.34 2.35-18.17l.86-.64h.64c.43 0 .64.29.64.86-1.28 14.69-2.06 22.53-2.34 23.518l-1.28.42c-2.28 0-6.12-4.84-11.53-14.53l-.86-.86-.22.64-.64 9.845v1.28l.22 1.28c-.19 1.71-.76 2.563-1.7 2.563-.88-.314-1.38-.74-1.5-1.28 1.09-15.4 1.87-23.096 2.34-23.096l1.08-.64zm26.03 0h.96c4.53 0 7.31 1.796 8.33 5.39l.19 1.72c0 7.155-5.3 13.05-15.9 17.686l-.93.22h-.2c-.28 0-.53-.5-.75-1.512l1.89-18.55c-.76 0-1.14-.21-1.14-.64v-.438c0-2.29 1.01-3.43 3.03-3.43l4.54-.44zm-3.78 4.53c-1.13 7.375-1.7 12.33-1.7 14.875v1.08c7.95-3.97 11.92-7.71 11.92-11.22v-.204c0-2.02-.56-3.03-1.7-3.03-1.4-1-3.67-1.5-6.81-1.5h-1.7zm43.22-4.532c.74.2 1.11.703 1.11 1.516v.21c-1.04 15.39-1.78 23.08-2.22 23.08l-.23.22h-.65c-.77 0-1.29-.36-1.56-1.07.29-2.05.44-4.92.44-8.62H398l-9.344 2.16-.656.86v4.09c0 1.22-.448 2.083-1.344 2.593h-.438c-.832 0-1.353-.36-1.562-1.078 1.032-15.53 2.516-23.3 4.454-23.3h.437l.67.87c-1.04 5.15-1.56 8.96-1.56 11.42 6.823-.9 10.235-1.97 10.235-3.24l.89-9.06 1.563-.64zm19.22.05c.72.155 1.08.7 1.08 1.64-.23 1.77-.94 2.653-2.14 2.653-7.85 0-11.78 1.1-11.78 3.28l-.22 1.85v1.02c5.13-1.23 8.63-1.84 10.5-1.84h.42c.72.31 1.08 1 1.08 2.05 0 1.5-1 2.25-3 2.25-6.57.86-9.86 1.88-9.86 3.08l-.2 2.04v.81c0 1.23.78 1.91 2.35 2.04 2.46-.27 5.54-.89 9.22-1.85h.64c.58.22.86.7.86 1.44v.61c0 1.68-3.57 2.98-10.72 3.89h-.64c-2.57 0-4-1.63-4.28-4.9 0-2.41.5-6.98 1.5-13.72l-.42-1.23c0-2.77 4.28-4.4 12.85-4.9l2.78-.2zm15.96 0c.7 0 1.05 2.415 1.05 7.25l1.41 9.19h.35c0-.536 1.4-3.38 4.2-8.55.44-3.41 1.25-5.11 2.45-5.11h.34c.7 0 1.29 2.63 1.75 7.89.78 3.592 1.36 5.73 1.75 6.404.37-1.814 2.24-7.15 5.61-16.017.49-.56.95-.84 1.4-.84.62 0 1.03.28 1.22.847 0 .73-1.75 5.49-5.25 14.294-.59 2.085-1.11 4.934-1.58 8.55-.38.71-.84 1.062-1.41 1.062-1.07 0-1.88-2.42-2.44-7.25-1.15-4.72-1.85-7.28-2.11-7.69l-3.5 6.83c-.59 1.33-1.11 3.61-1.58 6.827-.31.52-.78.87-1.39 1.06-.98 0-1.8-3.7-2.46-11.09-.94-5.23-1.41-9.43-1.41-12.6 0-.43.53-.78 1.58-1.07zm26.55-.11h1.47c.49 0 .74.283.74.86-1.15 9.35-1.72 15.84-1.72 19.465v2.37c-.32 1.58-1.14 2.37-2.44 2.37h-.48l-.99-.86c.65-9.81 1.47-17.6 2.45-23.36l.97-.86zm6.88.06h.22c.68 0 1.25.35 1.71 1.043-.99 7.21-1.7 13.66-2.13 19.35l12.19-2.51.42.62v1.26c0 1.92-4.42 3.67-13.25 5.25-1.57-.28-2.36-.77-2.36-1.47 1.17-15.41 2.02-23.12 2.56-23.12l.64-.42zm16.14 0h.22c.68 0 1.25.35 1.71 1.043-.99 7.21-1.7 13.66-2.13 19.35l12.19-2.51.42.62v1.26c0 1.92-4.42 3.67-13.25 5.25-1.57-.28-2.36-.77-2.36-1.47 1.17-15.41 2.02-23.12 2.56-23.12l.64-.42zm39.46.043h.33c1.43.18 2.15.88 2.15 2.1v.43c0 2.11-.72 4.06-2.16 5.88h-.33c-.23-.06-.45-.41-.67-1.04l.84-3.14-.66-.42c-1.53.14-4.35 1.82-8.44 5.03v.21l10.91 2.11c1.1.88 1.65 2.35 1.65 4.41v1.25c0 2.82-1.82 5.27-5.46 7.35-1.43.57-2.81.85-4.14.85h-.35c-3.79 0-6.1-1.68-6.94-5.03v-1.27c0-1.54.38-2.31 1.16-2.31.76 2.67 2.14 4 4.14 4 0 .27.83.41 2.484.41 2.447 0 4.817-1.25 7.11-3.76 0-1.67-3.53-2.72-10.58-3.16-2.54-.71-3.81-1.76-3.81-3.14 0-3.41 3.414-6.83 10.25-10.28l2.48-.42zm15.2 0h.75c1.03 0 2.33 4.77 3.92 14.3 1.25 4.5 1.87 7.56 1.87 9.17-.26.86-.76 1.28-1.5 1.28-.96 0-1.65-2.27-2.07-6.82l-.19-.2h-.19c-1.62.02-5.05 1.02-10.28 2.99-.5 2.84-1.31 4.27-2.44 4.27-.75-.29-1.12-.86-1.12-1.7 0-1.64 3.43-9.19 10.29-22.62l.932-.64zm-.38 5.97c-1.5 2.71-2.88 5.56-4.13 8.55h1.31c1.27 0 2.9-.28 4.87-.86l-1.69-7.69h-.38zm25.79-6.01h.62c.56.23.84.73.84 1.5 0 1.04-2.18 5.53-6.53 13.47-2.14 5.95-3.47 9.15-4 9.62l-2.09.42c-.92 0-1.56-1.64-1.91-4.92-2.8-9.88-4.2-15.94-4.2-18.17.23-.65.65-1.15 1.26-1.5h.84c.76 0 1.53 2.99 2.32 8.98l2.53 9.41h.2c1.45-3.86 4.61-9.99 9.46-18.39l.64-.42zm18.17.05c.72.16 1.08.71 1.08 1.65-.23 1.77-.95 2.66-2.14 2.66-7.86 0-11.78 1.1-11.78 3.28l-.22 1.85v1.01c5.12-1.23 8.62-1.85 10.5-1.85h.42c.72.31 1.08.99 1.08 2.04 0 1.5-1 2.25-3 2.25-6.58.85-9.86 1.88-9.86 3.08l-.21 2.05v.81c0 1.23.78 1.91 2.34 2.05 2.46-.27 5.53-.89 9.22-1.84h.64c.57.22.86.7.86 1.44v.61c0 1.68-3.57 2.97-10.72 3.89h-.64c-2.57 0-4-1.63-4.28-4.91 0-2.4.5-6.98 1.5-13.72l-.42-1.23c0-2.77 4.28-4.4 12.84-4.9l2.78-.2zm25.97-.04c4.13 0 6.2 1.21 6.2 3.64 0 4.8-4.53 9.15-13.6 13.03-.67 0-1 .43-1 1.28-.09 4.71-.56 7.06-1.41 7.06h-1c-.27-.06-.54-.42-.8-1.06l1.8-17.53h-.21c-.53 0-.8-.64-.8-1.94 0-2.09 1.202-3.3 3.61-3.62l7.19-.86zm-8 12.41c4.57-1.19 8.04-3.19 10.4-5.98l.39-1.3v-.42l-1-.22h-1c-5.32.29-7.98.79-7.98 1.5l-.82 6.42zm30.9-12.36c.72.16 1.08.71 1.08 1.64-.23 1.77-.94 2.66-2.14 2.66-7.85 0-11.78 1.09-11.78 3.28l-.22 1.84v1.02c5.13-1.23 8.63-1.84 10.5-1.84h.42c.72.32 1.08 1 1.08 2.05 0 1.5-1 2.25-3 2.25-6.57.86-9.86 1.88-9.86 3.08l-.2 2.05v.82c0 1.23.78 1.91 2.35 2.05 2.46-.27 5.53-.88 9.22-1.84h.64c.57.22.86.7.86 1.44v.61c0 1.68-3.58 2.98-10.72 3.89h-.64c-2.58 0-4-1.63-4.28-4.9 0-2.41.5-6.98 1.5-13.72l-.43-1.23c0-2.77 4.28-4.403 12.84-4.903l2.78-.202zm14.75-.04c4.45.62 6.67 3.28 6.67 7.99 0 6.17-2.43 11.27-7.31 15.31-2.01 1.15-3.81 1.72-5.39 1.72-3.87 0-6.35-2.08-7.47-6.25l-.16-1.93v-.66c0-6.73 3.07-11.84 9.22-15.31 1.54-.58 3.02-.86 4.44-.86zm-11.59 16.83c1.6 2.44 3.72 3.66 6.36 3.66 4.24 0 7.2-2.51 8.89-7.54l.31-2.38c0-3.55-1.75-5.63-5.24-6.25h-.48c-2.89 0-5.9 2.87-9.05 8.62-.53 1.73-.8 3.03-.8 3.89zM667.25 590c4.13 0 6.2 1.213 6.2 3.64 0 4.802-4.53 9.15-13.596 13.03-.66 0-1 .43-1 1.28-.09 4.71-.56 7.065-1.4 7.065h-1c-.27-.067-.54-.42-.8-1.067l1.793-17.53h-.2c-.53 0-.794-.646-.794-1.937 0-2.09 1.206-3.3 3.61-3.62l7.19-.86zm-8 12.41c4.57-1.2 8.04-3.196 10.4-5.988l.39-1.3v-.422l-1-.22h-1c-5.32.29-7.983.79-7.983 1.5l-.81 6.42zm17.4-12.41h.22c.677 0 1.245.35 1.7 1.05-.99 7.21-1.7 13.655-2.12 19.343l12.19-2.514.42.62v1.27c0 1.92-4.41 3.67-13.25 5.25-1.57-.28-2.355-.77-2.355-1.47 1.164-15.42 2.02-23.13 2.56-23.13l.64-.42zm29.64.05c.72.156 1.08.702 1.08 1.64-.23 1.77-.943 2.656-2.14 2.656-7.855 0-11.78 1.095-11.78 3.28l-.22 1.846v1.02c5.124-1.23 8.624-1.847 10.5-1.847h.42c.72.31 1.08.994 1.08 2.046 0 1.5-1 2.25-3 2.25-6.574.86-9.86 1.88-9.86 3.08l-.203 2.05v.81c0 1.23.78 1.91 2.34 2.05 2.46-.27 5.53-.88 9.22-1.84h.64c.573.22.86.7.86 1.44v.61c0 1.68-3.574 2.98-10.72 3.89h-.64c-2.57 0-4-1.63-4.28-4.9 0-2.4.5-6.98 1.5-13.72l-.42-1.23c0-2.77 4.28-4.4 12.84-4.9l2.78-.2zm-317.865 42h2.016c.89.562 1.34 1.192 1.34 1.89-.24 1.677-.98 2.515-2.23 2.515-3.59 0-7.1.35-10.51 1.05l-.43 4.62 1.11.2h.89c2.65 0 5.7-.42 9.17-1.27l.67 1.26c-.33 2.52-1.37 3.78-3.12 3.78-1.08.55-4.14.964-9.17 1.25-.35 6.3-.95 9.45-1.8 9.45l-.89.2h-.22c-.37 0-.6-.28-.67-.85 0-3.43.6-9.72 1.78-18.874l-.65-.64c0-2.12 1.49-3.37 4.47-3.77 2.99-.56 5.75-.84 8.27-.84zm14.985-.05h2.16c3.3 0 4.95 1.15 4.95 3.454v.22c0 4.03-3.44 7.7-10.34 11v.206c3.45 3.17 6.33 5.54 8.63 7.123v.64c0 1.113-.36 1.83-1.08 2.154h-.86l-11.89-8.4-.22 4.315v3.237c-.363.72-.94 1.08-1.72 1.08-.57 0-1.002-.29-1.294-.86v-1.3l1.94-16.83c-.57 0-.86-.43-.86-1.29 0-2.6 2.15-4.11 6.454-4.53l4.1-.22zm-7.53 11.64h.22c7.46-1.915 11.19-4 11.19-6.25v-.22c0-.4-.72-.69-2.153-.86-2.385 0-5.254.5-8.61 1.51l-.64 5.81zm28.3-11.64c4.45.616 6.67 3.277 6.67 7.986 0 6.163-2.434 11.27-7.31 15.31-2.01 1.145-3.81 1.72-5.39 1.72-3.87 0-6.36-2.085-7.47-6.25l-.16-1.94v-.656c0-6.73 3.08-11.84 9.22-15.31 1.54-.58 3.02-.86 4.44-.86zm-11.6 16.83c1.607 2.44 3.727 3.66 6.36 3.66 4.24 0 7.2-2.52 8.89-7.55l.31-2.373c0-3.548-1.74-5.63-5.23-6.25h-.49c-2.88 0-5.9 2.87-9.04 8.62-.53 1.73-.8 3.03-.8 3.89zM441.53 632h.404c.668.368 1 .936 1 1.706v.437c0 4.623.407 10.04 1.22 16.25h.203c4.457-11.69 7.082-17.53 7.874-17.53h.61c.6 0 1.54 4.06 2.83 12.184 1.21 4.167 1.81 7.656 1.81 10.47-.39 1-1 1.5-1.81 1.5-.54 0-1.28-3.496-2.22-10.485l-1.62-6.83c-1.15 1.853-3.24 6.696-6.26 14.53-.86.885-1.6 1.385-2.22 1.5-1.75 0-2.62-2.354-2.62-7.063l-1-8.97h-.2l-6.06 13.67c-.36 2.28-.7 3.42-1.01 3.42h-.8l-.81-.84v-1.08c0-1.92 1.69-6.05 5.05-12.39 2.4-6.67 3.94-10.09 4.64-10.27l1.02-.22zm48.17-.012c1.354 0 2.03.56 2.03 1.687v.423c0 1.55-1.21 2.327-3.625 2.327l-4.514.22c-1.36 7.217-2.03 13.425-2.03 18.623-.37 1.126-.74 1.69-1.13 1.69h-.69c-.78 0-1.23-.215-1.36-.64.76-7.99 1.59-14.48 2.49-19.47l-6.78 1.062c-.63 0-1.01-.64-1.12-1.91 0-2.115 1.89-3.17 5.66-3.17 2.26-.56 5.95-.845 11.08-.845zm18.08.015c.737.2 1.107.702 1.107 1.515v.202c-1.042 15.39-1.78 23.08-2.22 23.08l-.233.22h-.655c-.77 0-1.3-.36-1.57-1.08.29-2.05.44-4.924.44-8.62h-.22l-9.35 2.154-.65.86v4.094c0 1.22-.45 2.084-1.35 2.594h-.44c-.83 0-1.35-.36-1.56-1.08 1.03-15.53 2.51-23.294 4.45-23.294h.44l.67.876c-1.04 5.154-1.57 8.962-1.57 11.42 6.82-.896 10.23-1.974 10.23-3.235l.89-9.06 1.56-.64zm19.216.046c.72.15 1.077.7 1.077 1.64-.23 1.77-.94 2.65-2.14 2.65-7.854 0-11.78 1.09-11.78 3.28l-.22 1.84v1.01c5.125-1.23 8.625-1.85 10.5-1.85h.42c.72.31 1.08.99 1.08 2.05 0 1.5-1 2.25-3 2.25-6.575.85-9.86 1.88-9.86 3.07l-.205 2.05v.81c0 1.23.78 1.91 2.347 2.04 2.46-.27 5.53-.88 9.22-1.84h.64c.57.22.86.7.86 1.44v.61c0 1.67-3.573 2.97-10.72 3.89h-.64c-2.572 0-4-1.64-4.28-4.91 0-2.41.5-6.98 1.5-13.72l-.42-1.23c0-2.77 4.28-4.41 12.844-4.91l2.78-.21zm6.11-.11h1.467c.49 0 .735.28.735.86-1.15 9.35-1.72 15.84-1.72 19.47v2.37c-.326 1.58-1.138 2.37-2.44 2.37h-.484l-.982-.86c.657-9.82 1.475-17.6 2.454-23.36l.97-.86zm15.296.06h2.157c3.3 0 4.95 1.15 4.95 3.45v.22c0 4.03-3.45 7.69-10.35 11v.2c3.44 3.16 6.32 5.54 8.62 7.12v.64c0 1.11-.36 1.83-1.08 2.15h-.86L540 648.37l-.22 4.317v3.233c-.362.72-.935 1.08-1.716 1.08-.573 0-1.006-.28-1.297-.86v-1.29l1.937-16.83c-.573 0-.86-.423-.86-1.28 0-2.59 2.152-4.102 6.454-4.53l4.094-.22zm-7.53 11.64h.218c7.46-1.92 11.19-4 11.19-6.25v-.22c0-.4-.72-.69-2.155-.86-2.385 0-5.255.5-8.61 1.51l-.64 5.81zm41.156-11.6h.324c1.436.18 2.155.87 2.155 2.09v.42c0 2.11-.72 4.06-2.155 5.88h-.328c-.23-.07-.455-.41-.674-1.05l.843-3.14-.655-.42c-1.53.13-4.34 1.81-8.433 5.03v.2l10.908 2.11c1.103.87 1.655 2.34 1.655 4.4v1.25c0 2.82-1.818 5.27-5.454 7.34-1.427.56-2.807.84-4.14.84h-.344c-3.792 0-6.104-1.68-6.94-5.03v-1.27c0-1.54.388-2.31 1.16-2.31.76 2.67 2.14 4 4.14 4 0 .27.83.41 2.485.41 2.45 0 4.82-1.26 7.11-3.77 0-1.67-3.525-2.72-10.58-3.16-2.54-.71-3.81-1.76-3.81-3.14 0-3.41 3.418-6.84 10.25-10.29l2.486-.42zm10.574-.11h1.467c.49 0 .73.29.73.86-1.15 9.35-1.72 15.84-1.72 19.47v2.37c-.33 1.58-1.14 2.37-2.44 2.37h-.49l-.99-.86c.65-9.81 1.47-17.6 2.45-23.36l.97-.86zm7.092.06c.946 0 2.082 1.78 3.405 5.34 2.56 5.25 5.41 9.74 8.54 13.47 1.05-10.29 1.83-16.34 2.34-18.18l.86-.64h.64c.42 0 .64.28.64.86-1.28 14.68-2.06 22.52-2.35 23.51l-1.28.42c-2.28 0-6.13-4.85-11.53-14.53l-.86-.86-.22.64-.64 9.84v1.28l.22 1.28c-.19 1.7-.76 2.56-1.7 2.56-.87-.32-1.37-.74-1.5-1.28 1.09-15.4 1.88-23.1 2.34-23.1l1.07-.64zm30.936.04h.328c1.438.18 2.156.88 2.156 2.09v.42c0 2.1-.72 4.06-2.157 5.87h-.326c-.23-.06-.45-.41-.67-1.05l.85-3.14-.65-.42c-1.53.13-4.34 1.81-8.43 5.03v.2l10.91 2.11c1.11.87 1.66 2.34 1.66 4.4v1.25c0 2.83-1.82 5.27-5.45 7.35-1.42.56-2.8.84-4.14.84h-.34c-3.79 0-6.1-1.68-6.93-5.03v-1.27c0-1.54.39-2.31 1.16-2.31.76 2.67 2.14 4 4.14 4 0 .27.83.41 2.48.41 2.45 0 4.82-1.26 7.11-3.77 0-1.67-3.52-2.72-10.58-3.16-2.54-.71-3.81-1.76-3.81-3.14 0-3.41 3.42-6.83 10.25-10.28l2.49-.42zm15.906-3.97c.627.29.94.64.94 1.04-2.97 9.56-4.453 15.62-4.453 18.17-.844.98-1.55 1.47-2.125 1.47-.934-.34-1.403-.75-1.403-1.25 1.48-12.96 3.44-19.44 5.876-19.44h1.17zm-5.545 23.45c1.48.28 2.22 1.05 2.22 2.31v.2c-.6 1.98-2.02 2.97-4.27 2.97-1.11 0-1.79-.77-2.01-2.31 0-1.78 1.36-2.84 4.07-3.17z" fill="#000"/><g transform="translate(76 346)"><ellipse stroke="#000" stroke-width="3.5" fill="#FFF" transform="rotate(-135.477 177.124 73.23)" cx="177.124" cy="73.231" rx="46.234" ry="56.549"/><ellipse stroke="#000" stroke-width="3.5" fill="#FFF" transform="rotate(-44.523 72.782 73.23)" cx="72.782" cy="73.231" rx="46.234" ry="56.549"/><path d="M87.493 83.652l3.933 15.613L84.573 166l-26.428-9.34c8.76-32.48 12.21-59.233 29.348-73.008z" stroke="#050202" stroke-width="4" fill="#FFF"/><ellipse stroke="#000" stroke-width="4" fill="#502D16" transform="matrix(-1 0 0 1 248.59 0)" cx="124.294" cy="60.566" rx="38.853" ry="43.545"/><path d="M163.783 83.652l-3.933 15.613L166.704 166l26.427-9.34c-8.76-32.48-12.21-59.233-29.34-73.008z" stroke="#050202" stroke-width="4" fill="#FFF"/><ellipse stroke="#050202" stroke-width="4" fill="#E6C2AA" transform="matrix(-1 0 0 1 290.596 0)" cx="145.298" cy="281.928" rx="20.058" ry="10.929"/><ellipse stroke="#050202" stroke-width="4" fill="#E6C2AA" transform="matrix(-1 0 0 1 195.42 0)" cx="97.71" cy="283.489" rx="20.058" ry="10.929"/><path d="M84.21 175.33c-2.77 35.35-9.612 89.37-2.976 96.67 21.128 10.94 70.418 14.95 86.8-6.51 8.007-18.628-5.493-59.356-3.6-90.16 10.076-60.556 5.758-114.804-40.985-115.605-41.2-.705-49.87 53.485-39.24 115.605z" stroke="#000" stroke-width="3.691" fill="#FFF"/><path d="M141.492 73.875c-3.663 3.543-33.32.486-35.315-1.202-1.994-1.688 8.032 23.194 17.854 23.266 9.43.07 21.13-25.61 17.47-22.07z" stroke="#000" stroke-width="4" fill="#E6C2AA"/><ellipse stroke="#050202" stroke-width="3.9" fill="#E6C2AA" transform="matrix(-1 0 0 1 249.317 0)" cx="124.659" cy="49.443" rx="28.922" ry="35.051"/><ellipse fill="#000" transform="matrix(-1 0 0 1 266.967 0)" cx="133.484" cy="41.208" rx="2.642" ry="2.622"/><ellipse fill="#000" transform="matrix(-1 0 0 1 231.806 0)" cx="115.903" cy="41.509" rx="2.642" ry="2.622"/><path d="M138.653 57.647c-3.662 3.543-26.73 1.29-28.724-.397-2-1.688 9.08 13.74 14.81 13.707 5.72-.034 17.57-16.853 13.91-13.31z" stroke="#000" stroke-width="4" fill="#FFD5D5"/><path d="M108.438 5.233C87.06 8.748 79.183 59.045 85.355 91.597c1.097 5.172 8.102 6.277 12.202 3.97 3.63-1.576 4.36-5.66 4.562-9.158-.23-6-6.69-38.46 2.23-53.89s39.65-12 44.61 2.19c4.95 14.19-3.23 52.9 1.4 61.83 4.31 5.36 14.87 2.8 15.56-4.24-1.36-10.3 3.35-51.66 1.73-60.11-1.62-8.46-9.72-21.8-16.68-24.41-15.94-5.99-21.17-6.08-42.55-2.57z" stroke="#050202" stroke-width="3.897" fill="#FC0"/><path d="M83.255 165.866l83.318.1c-1.05 3.87-.552 9.395-.237 14.143l-82.766-.21-.31-14.04z" stroke="#000" stroke-width="3.496" fill="#FC0"/><path d="M190.565 158.497c-1.245 3.857-.315 6.678-3.28 15.86-2.885 8.936-3.743 17.583-12.6 15.304-4.937-1.27-9.64-10.7-4.26-14.33-3.083 1.86-8.015 6.71-9.593 5.02-2.31-2.47-2.448-7.5 3.818-10.79 1.53-.8.81-1.33 2.095-1.91.193-.38 2.042-1.62 2.426-1.84 6.57-3.77 17.94-6.48 21.4-7.3zm-129.855 0c1.246 3.857.316 6.678 3.28 15.86 2.886 8.936 3.744 17.583 12.6 15.304 4.938-1.27 9.64-10.7 4.26-14.33 3.084 1.86 8.016 6.71 9.594 5.02 2.31-2.47 2.448-7.5-3.818-10.79-1.53-.8-.81-1.33-2.094-1.91-.194-.38-2.043-1.62-2.427-1.84-6.563-3.77-17.937-6.48-21.394-7.3z" stroke="#050202" stroke-width="4" fill="#E6C2AA"/></g></g></svg>