<svg width="1540" height="820" viewBox="0 0 1540 820" xmlns="http://www.w3.org/2000/svg" xmlns:xlink="http://www.w3.org/1999/xlink"><title>story23</title><defs><path id="b" d="M40 40h999v120H40z"/><filter x="-50%" y="-50%" width="200%" height="200%" filterUnits="objectBoundingBox" id="a"><feOffset dx="6" dy="6" in="SourceAlpha" result="shadowOffsetOuter1"/><feColorMatrix values="0 0 0 0 0 0 0 0 0 0 0 0 0 0 0 0 0 0 1 0" in="shadowOffsetOuter1"/></filter></defs><g fill="none" fill-rule="evenodd"><path fill="#FC0" d="M1540 280H0v540h1540z"/><path d="M1540 0v738.94c-177.35-42.932-446.83-70.377-748.677-70.377C464.2 668.563 175.01 700.743 0 750V0h1540z" fill="navy"/><path fill="#FFE680" d="M451.937 326.34l11.33-10.833 13.327 8.236-6.777-14.15 11.932-10.164-15.52 2.08-5.96-14.51-2.82 15.44-15.61 1.19 13.78 7.45-3.7 15.25M1115.54 368l2.54 15.522 15.62 1.475-13.94 7.22 3.43 15.35-11.155-11.06-13.5 8.01 7.045-14.054-11.77-10.4 15.508 2.376 6.23-14.44m224.41 71.43l7.718 14 15.465-3.93-10.89 11.68 8.51 13.53-14.45-6.78-10.21 12.29 1.96-15.88-14.82-5.93 15.66-3.04 1.05-15.96m-389.99 27.1l14.61 6.58 10.05-12.5-1.73 15.96 14.96 5.72-15.67 3.28-.81 16.03-7.96-13.93-15.46 4.18 10.76-11.89-8.74-13.45M63.95 168.34l11.33-10.833 13.33 8.236-6.78-14.15 11.93-10.164-15.516 2.08L72.28 129l-2.813 15.442-15.61 1.19 13.78 7.455-3.698 15.254m102.62 236.83l15.42 5.42 9.14-13.59-.37 16.38 15.7 4.51-15.65 4.71.57 16.38-9.31-13.46-15.36 5.61 9.9-13.03-10.07-12.91M666.49 168l-2.03 15.85 14.78 5.993-15.66 2.96-1.12 15.94-7.643-14.02-15.47 3.856 10.93-11.63-8.44-13.56 14.4 6.83L666.49 168M383.05 515.032L392.69 502l-1.088 16.188 15.34 5.162-15.69 3.966-.157 16.223-8.61-13.74-15.438 4.86 10.37-12.46-9.385-13.22m733.596-394.81l11.33-10.84 13.327 8.23-6.777-14.15 11.932-10.17-15.518 2.09-5.954-14.52-2.813 15.44-15.612 1.19 13.78 7.45-3.695 15.25m-663.175-77.3l7.72 14 15.463-3.93-10.894 11.69 8.51 13.53-14.452-6.78-10.21 12.3 1.963-15.88-14.816-5.93 15.663-3.03 1.05-15.96M72.843 613.39L84.513 603l-4.22 15.066 13.464 7.917-15.595.63-3.35 15.284-5.415-14.676-15.534 1.53 12.25-9.7-6.25-14.34m727.825-34.55l-10.374 12.45 9.38 13.22-15.016-6.04-9.643 13.03 1.096-16.18-15.33-5.17 15.69-3.95.17-16.22 8.61 13.74 15.44-4.86M1440.63 55.8l11.71 10.345 12.95-8.73-6.19 14.36 12.28 9.65-15.534-1.47-5.36 14.694-3.41-15.27-15.592-.57 13.43-7.97-4.275-15.05m10.79 543.92l-12.49 9.34 5.84 14.48-12.72-9.03-11.94 10.05 4.62-14.93-13.22-8.27 15.58-.19 3.76-15.164 5.002 14.8 15.544-1.1M901.8 235.186l-12.89 8.75 5.177 14.72-12.29-9.59-12.366 9.488 5.3-14.68-12.82-8.86 15.56.51 4.45-14.96 4.33 15 15.57-.39"/><path fill="#FC0" d="M1273.672 215.7l-76.78-30.36 76.78-30.36L1303.954 78l30.282 76.98 76.78 30.36-76.78 30.36-30.282 130.754"/><use fill="#000" filter="url(#a)" xlink:href="#b"/><use fill="#FFF" xlink:href="#b"/><path d="M118.182 60c1.734 0 2.6.738 2.6 2.215v.545c0 2.027-1.546 3.04-4.64 3.04l-5.783.282c-1.74 9.422-2.61 17.52-2.61 24.293-.47 1.477-.95 2.215-1.44 2.215h-.88c-1 0-1.58-.276-1.74-.826.97-10.43 2.03-18.903 3.18-25.418l-8.69 1.388c-.81 0-1.29-.826-1.44-2.478 0-2.766 2.41-4.15 7.24-4.15 2.9-.736 7.62-1.106 14.19-1.106zm19.916 4.447c.832.223 1.248.79 1.248 1.705v.23c-1.172 17.308-2.004 25.962-2.496 25.962l-.264.246h-.738c-.868 0-1.453-.404-1.758-1.213.328-2.31.492-5.543.492-9.703h-.246L123.824 84.1l-.738.966v4.606c0 1.37-.504 2.344-1.512 2.918h-.492c-.937 0-1.523-.404-1.758-1.213 1.16-17.473 2.83-26.21 5.01-26.21h.492l.756.985c-1.172 5.8-1.758 10.084-1.758 12.85 7.676-1.008 11.514-2.22 11.514-3.64l1.002-10.194 1.758-.72zm21.62.053c.81.176 1.214.79 1.214 1.846-.258 1.992-1.06 2.988-2.41 2.988-8.835 0-13.252 1.23-13.252 3.69l-.247 2.076v1.142c5.766-1.383 9.704-2.074 11.813-2.074h.475c.81.352 1.22 1.12 1.22 2.303 0 1.69-1.12 2.54-3.37 2.54-7.39.96-11.09 2.12-11.09 3.47l-.23 2.31v.92c0 1.38.88 2.15 2.64 2.3 2.77-.3 6.22-.99 10.37-2.07h.72c.65.25.97.79.97 1.62v.69c0 1.89-4.02 3.35-12.06 4.38h-.72c-2.89 0-4.5-1.84-4.81-5.52 0-2.7.56-7.85 1.69-15.43l-.47-1.39c0-3.11 4.82-4.95 14.45-5.52l3.13-.23zM178.21 60c1.033 0 1.55 3.158 1.55 9.475l2.055 11.97h.51c0-.68 2.063-4.394 6.188-11.144.644-4.45 1.845-6.68 3.603-6.68h.51c1.03 0 1.887 3.44 2.566 10.31 1.15 4.69 2.01 7.48 2.585 8.37.54-2.36 3.282-9.33 8.227-20.9.727-.74 1.412-1.11 2.057-1.11.93 0 1.53.37 1.81 1.11 0 .95-2.57 7.17-7.71 18.67-.86 2.71-1.64 6.42-2.32 11.15-.55.93-1.23 1.39-2.05 1.39-1.57 0-2.77-3.15-3.6-9.47-1.67-6.15-2.7-9.49-3.09-10.02l-5.15 8.92c-.85 1.73-1.63 4.71-2.32 8.91-.46.68-1.14 1.14-2.05 1.39-1.43 0-2.63-4.83-3.6-14.48-1.37-6.82-2.06-12.3-2.06-16.43 0-.55.78-1.01 2.32-1.39zm34.93 4.377h1.65c.553 0 .828.322.828.967-1.29 10.523-1.933 17.824-1.933 21.902v2.672c-.364 1.78-1.278 2.672-2.743 2.672h-.544l-1.107-.967c.74-11.04 1.66-19.8 2.76-26.28l1.09-.966zm19.02.123h.37c1.616.2 2.424.984 2.424 2.355v.475c0 2.367-.808 4.57-2.426 6.61h-.37c-.257-.07-.51-.463-.755-1.178l.95-3.533-.74-.48c-1.72.15-4.885 2.04-9.49 5.66v.23l12.27 2.37c1.24.98 1.862 2.63 1.862 4.95v1.4c0 3.17-2.045 5.93-6.135 8.26-1.606.63-3.16.95-4.66.95h-.386c-4.265 0-6.867-1.89-7.804-5.66V85.5c0-1.735.433-2.602 1.3-2.602.856 3 2.41 4.5 4.66 4.5 0 .307.93.46 2.793.46 2.754 0 5.42-1.41 7.998-4.237 0-1.87-3.96-3.06-11.9-3.55-2.85-.79-4.28-1.97-4.28-3.53 0-3.83 3.85-7.69 11.53-11.56l2.8-.47zm25.05 0c.807.176 1.21.79 1.21 1.846-.257 1.992-1.06 2.988-2.407 2.988-8.836 0-13.254 1.23-13.254 3.69l-.25 2.076v1.142c5.76-1.383 9.7-2.074 11.81-2.074h.47c.8.352 1.21 1.12 1.21 2.303 0 1.69-1.13 2.54-3.38 2.54-7.4.96-11.09 2.12-11.09 3.47l-.23 2.31v.92c0 1.38.88 2.15 2.64 2.3 2.76-.3 6.22-.99 10.37-2.07h.72c.64.25.96.79.96 1.62v.69c0 1.89-4.02 3.35-12.06 4.38h-.72c-2.9 0-4.5-1.84-4.82-5.52 0-2.7.56-7.85 1.69-15.43l-.48-1.39c0-3.11 4.81-4.95 14.44-5.52l3.13-.23zm28.633-4.43h.527c.866.48 1.3 1.22 1.3 2.215v.563c0 6.01.516 13.054 1.547 21.13h.263c5.72-15.2 9.088-22.8 10.108-22.8h.773c.77 0 1.97 5.285 3.63 15.855 1.56 5.414 2.34 9.95 2.34 13.606-.5 1.3-1.28 1.95-2.33 1.95-.69 0-1.64-4.54-2.84-13.63l-2.07-8.9c-1.49 2.42-4.16 8.72-8.03 18.89-1.11 1.14-2.06 1.8-2.84 1.95-2.25 0-3.38-3.06-3.38-9.18l-1.28-11.67h-.26l-7.77 17.79c-.47 2.96-.9 4.44-1.3 4.44h-1.04l-1.03-1.11V89.8c0-2.497 2.17-7.87 6.49-16.12 3.07-8.66 5.06-13.107 5.96-13.34l1.28-.283zm41.396 4.43c.81.176 1.21.79 1.21 1.846-.26 1.992-1.06 2.988-2.41 2.988-8.84 0-13.26 1.23-13.26 3.69l-.25 2.076v1.142c5.76-1.383 9.7-2.074 11.81-2.074h.47c.81.352 1.21 1.12 1.21 2.303 0 1.69-1.13 2.54-3.38 2.54-7.4.96-11.1 2.12-11.1 3.47l-.23 2.31v.92c0 1.38.88 2.15 2.64 2.3 2.76-.3 6.22-.99 10.37-2.07h.72c.64.25.97.79.97 1.62v.69c0 1.89-4.02 3.35-12.06 4.38h-.72c-2.9 0-4.5-1.84-4.82-5.52 0-2.7.56-7.85 1.69-15.43l-.47-1.39c0-3.11 4.82-4.95 14.45-5.52l3.13-.23zm5.08-.053c1.06 0 2.34 2.004 3.83 6.012 2.88 5.9 6.09 10.95 9.61 15.15 1.18-11.57 2.06-18.38 2.63-20.45l.96-.72h.72c.48 0 .72.32.72.96-1.44 16.52-2.32 25.34-2.64 26.45l-1.44.47c-2.57 0-6.89-5.45-12.97-16.35l-.97-.97-.25.72-.72 11.07v1.44l.24 1.44c-.21 1.92-.85 2.88-1.92 2.88-.99-.35-1.55-.83-1.69-1.44 1.23-17.32 2.11-25.98 2.63-25.98l1.21-.72zm49.74.053h.37c1.61.2 2.42.984 2.42 2.355v.475c0 2.367-.81 4.57-2.43 6.61h-.37c-.26-.07-.51-.463-.76-1.178l.94-3.533-.74-.48c-1.73.15-4.89 2.04-9.5 5.66v.23l12.27 2.37c1.24.98 1.86 2.63 1.86 4.95v1.4c0 3.17-2.05 5.93-6.14 8.26-1.61.63-3.16.95-4.66.95h-.39c-4.27 0-6.87-1.89-7.81-5.66V85.5c0-1.735.43-2.602 1.3-2.602.86 3 2.41 4.5 4.66 4.5 0 .307.93.46 2.79.46 2.75 0 5.42-1.41 8-4.237 0-1.87-3.97-3.06-11.9-3.55-2.86-.79-4.29-1.97-4.29-3.53 0-3.83 3.84-7.69 11.53-11.56l2.79-.47zm17.1 0h.84c1.16 0 2.63 5.36 4.41 16.084 1.4 5.063 2.11 8.502 2.11 10.318-.3.96-.86 1.442-1.69 1.442-1.08 0-1.85-2.56-2.32-7.682l-.21-.228h-.21c-1.83.023-5.69 1.142-11.57 3.357-.57 3.2-1.48 4.8-2.75 4.8-.85-.32-1.27-.96-1.27-1.91 0-1.85 3.86-10.33 11.58-25.45l1.05-.72zm-.43 6.715c-1.69 3.047-3.24 6.252-4.64 9.615h1.47c1.43 0 3.26-.322 5.48-.967l-1.9-8.648h-.43zm11.38-6.715c.78 0 1.17 2.72 1.17 8.156l1.58 10.336h.38c0-.597 1.57-3.803 4.73-9.615.49-3.832 1.41-5.748 2.76-5.748h.38c.79 0 1.45 2.95 1.97 8.87.87 4.04 1.53 6.44 1.96 7.2.42-2.04 2.52-8.05 6.31-18.02.55-.64 1.08-.95 1.58-.95.71 0 1.16.31 1.37.95 0 .82-1.97 6.18-5.91 16.08-.66 2.34-1.25 5.55-1.78 9.61-.42.79-.95 1.19-1.58 1.19-1.2 0-2.11-2.72-2.74-8.16-1.29-5.31-2.08-8.19-2.37-8.65L416 83.43c-.657 1.5-1.25 4.06-1.776 7.68-.35.59-.87.99-1.56 1.2-1.104 0-2.024-4.16-2.76-12.48-1.057-5.88-1.584-10.604-1.584-14.17 0-.48.59-.876 1.78-1.19zm50.01 0h.84c1.16 0 2.63 5.36 4.41 16.084 1.4 5.063 2.11 8.502 2.11 10.318-.3.96-.86 1.442-1.69 1.442-1.08 0-1.85-2.56-2.32-7.682l-.21-.228h-.21c-1.83.023-5.69 1.142-11.57 3.357-.57 3.2-1.48 4.8-2.75 4.8-.84-.32-1.27-.96-1.27-1.91 0-1.85 3.86-10.33 11.58-25.45l1.05-.72zm-.43 6.715c-1.69 3.047-3.24 6.252-4.64 9.615h1.47c1.43 0 3.25-.322 5.48-.967l-1.9-8.648h-.43zm28.39-6.768c1.06 0 2.34 2.004 3.83 6.012 2.88 5.9 6.09 10.95 9.61 15.15 1.18-11.57 2.06-18.38 2.63-20.45l.96-.72h.72c.48 0 .72.32.72.96-1.45 16.52-2.32 25.34-2.64 26.45l-1.44.47c-2.56 0-6.89-5.45-12.97-16.35l-.97-.97-.25.72-.72 11.07v1.44l.25 1.44c-.21 1.92-.85 2.88-1.92 2.88-.99-.35-1.55-.83-1.69-1.44 1.23-17.32 2.11-25.98 2.64-25.98l1.21-.72zm38.7.053c.8.176 1.21.79 1.21 1.846-.26 1.992-1.06 2.988-2.41 2.988-8.84 0-13.26 1.23-13.26 3.69l-.24 2.076v1.142c5.76-1.383 9.7-2.074 11.81-2.074h.47c.81.352 1.21 1.12 1.21 2.303 0 1.69-1.12 2.54-3.37 2.54-7.4.96-11.09 2.12-11.09 3.47l-.23 2.31v.92c0 1.38.88 2.15 2.63 2.3 2.76-.3 6.22-.99 10.37-2.07h.72c.64.25.96.79.96 1.62v.69c0 1.89-4.02 3.35-12.06 4.38h-.728c-2.89 0-4.5-1.84-4.814-5.52 0-2.7.56-7.85 1.69-15.43l-.475-1.39c0-3.11 4.813-4.95 14.45-5.52l3.13-.23zm3 0c.78 0 1.17 2.72 1.17 8.156l1.58 10.336h.39c0-.597 1.57-3.803 4.73-9.615.49-3.832 1.41-5.748 2.76-5.748h.38c.79 0 1.45 2.95 1.97 8.87.88 4.04 1.53 6.44 1.97 7.2.42-2.04 2.52-8.05 6.31-18.02.55-.64 1.08-.95 1.58-.95.7 0 1.16.31 1.37.95 0 .82-1.97 6.18-5.91 16.08-.66 2.34-1.25 5.55-1.78 9.61-.43.79-.95 1.19-1.59 1.19-1.2 0-2.11-2.72-2.74-8.16-1.29-5.31-2.08-8.19-2.37-8.65l-3.94 7.68c-.65 1.5-1.25 4.06-1.77 7.68-.36.59-.88.99-1.57 1.2-1.11 0-2.02-4.16-2.76-12.48-1.05-5.88-1.58-10.6-1.58-14.17 0-.48.59-.88 1.78-1.19zm54.05 0h.37c1.61.2 2.42.984 2.42 2.355v.475c0 2.367-.81 4.57-2.43 6.61h-.37c-.26-.07-.51-.463-.76-1.178l.95-3.533-.74-.48c-1.72.15-4.89 2.04-9.49 5.66v.23l12.27 2.37c1.24.98 1.86 2.63 1.86 4.95v1.4c0 3.17-2.05 5.93-6.14 8.26-1.61.63-3.16.95-4.66.95h-.39c-4.27 0-6.87-1.89-7.81-5.66V85.5c0-1.735.43-2.602 1.3-2.602.85 3 2.41 4.5 4.66 4.5 0 .307.93.46 2.79.46 2.75 0 5.42-1.41 8-4.237 0-1.87-3.97-3.06-11.9-3.55-2.86-.79-4.29-1.97-4.29-3.53 0-3.83 3.84-7.69 11.53-11.56l2.8-.47zm25.77-.07c1.52 0 2.28.632 2.28 1.898v.475c0 1.746-1.36 2.62-4.08 2.62l-5.08.245c-1.53 8.12-2.29 15.105-2.29 20.953-.41 1.27-.83 1.9-1.27 1.9h-.77c-.88 0-1.39-.24-1.53-.72.85-8.99 1.79-16.29 2.79-21.9l-7.63 1.2c-.72 0-1.14-.71-1.27-2.14 0-2.38 2.12-3.57 6.36-3.57 2.54-.63 6.697-.95 12.46-.95zm12.41.07h.84c1.16 0 2.63 5.36 4.41 16.084 1.4 5.063 2.11 8.502 2.11 10.318-.3.96-.86 1.442-1.69 1.442-1.08 0-1.86-2.56-2.33-7.682l-.21-.228h-.21c-1.83.023-5.69 1.142-11.57 3.357-.56 3.2-1.48 4.8-2.74 4.8-.85-.32-1.27-.96-1.27-1.91 0-1.85 3.86-10.33 11.58-25.45l1.05-.72zm-.42 6.715c-1.69 3.047-3.24 6.252-4.64 9.615h1.47c1.43 0 3.26-.322 5.48-.967l-1.9-8.648h-.42zm22.67-6.768h2.42c3.71 0 5.57 1.295 5.57 3.885v.246c0 4.535-3.88 8.66-11.64 12.375v.23c3.88 3.56 7.11 6.233 9.7 8.014v.72c0 1.255-.41 2.063-1.22 2.427h-.97l-13.32-9.457-.25 4.85v3.64c-.41.81-1.06 1.213-1.94 1.213-.65 0-1.13-.322-1.46-.967v-1.46l2.18-18.93c-.65 0-.97-.48-.97-1.442 0-2.91 2.42-4.61 7.26-5.09l4.602-.24zm-8.47 13.096h.24c8.39-2.156 12.58-4.5 12.58-7.03v-.247c0-.446-.81-.768-2.43-.967-2.69 0-5.92.56-9.69 1.7l-.72 6.54zM678.08 64.5h.844c1.16 0 2.63 5.36 4.412 16.084 1.406 5.063 2.11 8.502 2.11 10.318-.294.96-.856 1.442-1.688 1.442-1.078 0-1.852-2.56-2.32-7.682l-.21-.228h-.212c-1.83.023-5.684 1.142-11.567 3.357-.57 3.2-1.48 4.8-2.75 4.8-.85-.32-1.27-.96-1.27-1.91 0-1.85 3.86-10.33 11.58-25.45l1.05-.72zm-.422 6.715c-1.687 3.047-3.234 6.252-4.64 9.615h1.476c1.43 0 3.258-.322 5.485-.967l-1.9-8.648h-.43zm22.64-6.768c4.653 0 6.98 1.365 6.98 4.096 0 5.402-5.098 10.29-15.294 14.66-.75 0-1.125.48-1.125 1.442-.11 5.296-.64 7.945-1.59 7.945h-1.13c-.31-.07-.61-.47-.9-1.195l2.02-19.723h-.23c-.6 0-.9-.727-.9-2.18 0-2.355 1.35-3.715 4.06-4.078l8.08-.967zm-9 13.957c5.145-1.347 9.048-3.59 11.708-6.732l.44-1.46v-.474l-1.126-.246h-1.125c-5.988.328-8.982.89-8.982 1.688l-.914 7.224zm29.022-13.957c4.653 0 6.98 1.365 6.98 4.096 0 5.402-5.1 10.29-15.294 14.66-.75 0-1.125.48-1.125 1.442-.1 5.296-.63 7.945-1.58 7.945h-1.12c-.3-.07-.6-.47-.89-1.195l2.02-19.723h-.23c-.59 0-.89-.727-.89-2.18 0-2.355 1.36-3.715 4.06-4.078l8.09-.967zm-9 13.957c5.145-1.347 9.047-3.59 11.707-6.732l.44-1.46v-.474l-1.125-.246h-1.125c-5.99.328-8.983.89-8.983 1.688l-.914 7.224zM746.09 64.5c.808.176 1.213.79 1.213 1.846-.258 1.992-1.06 2.988-2.408 2.988-8.836 0-13.254 1.23-13.254 3.69l-.24 2.076v1.142c5.77-1.383 9.71-2.074 11.82-2.074h.48c.81.352 1.22 1.12 1.22 2.303 0 1.69-1.12 2.54-3.37 2.54-7.39.96-11.09 2.12-11.09 3.47l-.23 2.31v.92c0 1.38.88 2.15 2.64 2.3 2.77-.3 6.22-.99 10.37-2.07h.72c.65.25.97.79.97 1.62v.69c0 1.89-4.02 3.35-12.06 4.38h-.72c-2.89 0-4.5-1.84-4.81-5.52 0-2.7.56-7.85 1.69-15.43l-.47-1.39c0-3.11 4.82-4.95 14.45-5.52l3.13-.23zm12.076 0h.844c1.16 0 2.63 5.36 4.412 16.084 1.406 5.063 2.11 8.502 2.11 10.318-.294.96-.856 1.442-1.688 1.442-1.078 0-1.852-2.56-2.32-7.682l-.212-.228h-.21c-1.83.023-5.684 1.142-11.567 3.357-.562 3.2-1.476 4.8-2.742 4.8-.844-.32-1.266-.96-1.266-1.91 0-1.85 3.862-10.33 11.584-25.45l1.06-.72zm-.422 6.715c-1.687 3.047-3.234 6.252-4.64 9.615h1.476c1.43 0 3.258-.322 5.484-.967l-1.898-8.648h-.422zm22.676-6.768h2.426c3.715 0 5.572 1.295 5.572 3.885v.246c0 4.535-3.88 8.66-11.637 12.375v.23c3.88 3.56 7.12 6.233 9.71 8.014v.72c0 1.255-.4 2.063-1.21 2.427h-.96L771 82.887l-.246 4.85v3.64c-.41.81-1.054 1.213-1.933 1.213-.64 0-1.13-.322-1.46-.967v-1.46l2.18-18.93c-.64 0-.96-.48-.96-1.442 0-2.91 2.42-4.61 7.26-5.09l4.61-.24zm-8.473 13.096h.246c8.39-2.156 12.586-4.5 12.586-7.03v-.247c0-.446-.81-.768-2.43-.967-2.69 0-5.92.56-9.69 1.7l-.72 6.54zm37.055-13.166h1.652c.55 0 .826.322.826.967-1.29 10.523-1.933 17.824-1.933 21.902v2.672c-.363 1.78-1.277 2.672-2.742 2.672h-.545l-1.108-.967c.74-11.04 1.66-19.8 2.76-26.28l1.09-.966zm7.98.07c1.067 0 2.344 2.004 3.832 6.012 2.883 5.9 6.088 10.95 9.616 15.15 1.183-11.57 2.062-18.38 2.636-20.45l.967-.72h.72c.48 0 .722.32.722.96-1.442 16.52-2.32 25.34-2.637 26.45l-1.442.47c-2.566 0-6.89-5.45-12.972-16.35l-.967-.97-.246.72-.72 11.07v1.44l.25 1.44c-.21 1.92-.85 2.88-1.91 2.88-.98-.35-1.54-.83-1.68-1.44 1.23-17.32 2.11-25.98 2.64-25.98l1.22-.72zm54.37-.017c1.523 0 2.285.632 2.285 1.898v.475c0 1.746-1.36 2.62-4.078 2.62l-5.08.245c-1.53 8.12-2.29 15.105-2.29 20.953-.41 1.27-.83 1.9-1.27 1.9h-.78c-.88 0-1.39-.24-1.53-.72.85-8.99 1.79-16.29 2.79-21.9l-7.63 1.2c-.72 0-1.14-.71-1.27-2.14 0-2.38 2.12-3.57 6.36-3.57 2.54-.63 6.7-.95 12.46-.95zm20.337.017c.83.223 1.24.79 1.24 1.705v.23c-1.17 17.308-2.01 25.962-2.5 25.962l-.27.246h-.74c-.87 0-1.45-.404-1.76-1.213.33-2.31.49-5.543.49-9.703h-.25L877.4 84.1l-.74.966v4.606c0 1.37-.502 2.344-1.51 2.918h-.492c-.937 0-1.523-.404-1.757-1.213 1.16-17.473 2.83-26.21 5.01-26.21h.5l.76.985c-1.17 5.8-1.75 10.084-1.75 12.85 7.68-1.008 11.52-2.22 11.52-3.64l1-10.194 1.76-.72zm21.62.053c.81.176 1.21.79 1.21 1.846-.26 1.992-1.06 2.988-2.41 2.988-8.84 0-13.26 1.23-13.26 3.69l-.25 2.076v1.142c5.76-1.383 9.7-2.074 11.81-2.074h.47c.81.352 1.21 1.12 1.21 2.303 0 1.69-1.13 2.54-3.38 2.54-7.4.96-11.09 2.12-11.09 3.47l-.23 2.31v.92c0 1.38.88 2.15 2.63 2.3 2.76-.3 6.22-.99 10.37-2.07h.72c.64.25.97.79.97 1.62v.69c0 1.89-4.02 3.35-12.06 4.38h-.72c-2.9 0-4.5-1.84-4.82-5.52 0-2.7.56-7.85 1.69-15.43l-.48-1.39c0-3.11 4.82-4.95 14.45-5.52l3.13-.23zm31.06 0h.37c1.61.2 2.42.984 2.42 2.355v.475c0 2.367-.81 4.57-2.43 6.61h-.37c-.26-.07-.51-.463-.76-1.178l.95-3.533-.74-.48c-1.72.15-4.89 2.04-9.49 5.66v.23l12.27 2.37c1.24.98 1.86 2.63 1.86 4.95v1.4c0 3.17-2.05 5.93-6.14 8.26-1.61.63-3.16.95-4.66.95h-.39c-4.27 0-6.87-1.89-7.81-5.66V85.5c0-1.735.43-2.602 1.3-2.602.85 3 2.41 4.5 4.66 4.5 0 .307.93.46 2.79.46 2.75 0 5.42-1.41 7.99-4.237 0-1.87-3.96-3.06-11.9-3.55-2.86-.79-4.29-1.97-4.29-3.53 0-3.83 3.85-7.69 11.53-11.56l2.79-.47zm11.46.105l.7.967-.71 9.14 14.34-7.944c.62.773.93 1.734.93 2.882-1.62 2.274-5.77 5.162-12.46 8.666v.246c3.09 4.02 6.62 7.383 10.58 10.09v.493c0 2.238-.79 3.357-2.36 3.357l-11.74-9.615c-.47 6.41-.94 9.615-1.41 9.615l-1.18.246c-.79-.258-1.18-.738-1.18-1.44l.93-11.304-.23-2.883c.54 0 1-3.53 1.4-10.6.64-1.27 1.43-1.91 2.35-1.91zm17.42-.105l5.38 8.156 2.35 1.934c2.97-5.297 5.05-8.502 6.22-9.615h1.07l.86.966c-.12.86-3.48 6.86-10.09 18-1.67 3.13-2.89 5.93-3.66 8.41l-.63.25c-1.01-.47-1.51-1.19-1.51-2.16.06-1.25 1.77-5.17 5.15-11.76-4.87-5.23-7.3-9.47-7.3-12.73.9-.96 1.61-1.44 2.14-1.44zm17.22 22.096c1.57 0 2.54.955 2.93 2.865 0 1.91-1.37 2.96-4.12 3.13-1.37-.51-2.06-1.38-2.06-2.6v-.26c.54-2.08 1.62-3.13 3.23-3.13zM84.67 102h1.81c.6 0 .9.375.9 1.125-1.404 12.152-2.11 20.578-2.11 25.277v3.094c-.4 2.063-1.392 3.094-2.99 3.094h-.61l-1.19-1.125c.796-12.74 1.8-22.852 3.005-30.34L84.68 102zm23.64 4.43c1.53 0 2.29.632 2.29 1.898v.475c0 1.746-1.36 2.62-4.08 2.62l-5.08.245c-1.52 8.12-2.28 15.105-2.28 20.953-.41 1.27-.83 1.9-1.26 1.9h-.774c-.88 0-1.39-.24-1.53-.72.855-8.99 1.787-16.29 2.795-21.9l-7.63 1.2c-.71 0-1.13-.71-1.26-2.14 0-2.38 2.12-3.57 6.36-3.57 2.55-.63 6.7-.95 12.47-.95zm27.43.017h.46c.75.41 1.126 1.05 1.126 1.916v.492c0 5.204.456 11.297 1.37 18.282h.23c5.014-13.15 7.97-19.723 8.86-19.723h.684c.667 0 1.727 4.57 3.18 13.71 1.36 4.69 2.04 8.614 2.04 11.778-.446 1.125-1.126 1.688-2.04 1.688-.61 0-1.44-3.932-2.496-11.795l-1.827-7.682c-1.3 2.086-3.65 7.535-7.05 16.348-.97 1-1.804 1.56-2.496 1.69-1.96 0-2.95-2.65-2.95-7.94l-1.12-10.09h-.23l-6.82 15.38c-.41 2.57-.79 3.85-1.14 3.85h-.9l-.91-.95v-1.21c0-2.15 1.9-6.8 5.68-13.94 2.7-7.5 4.44-11.35 5.22-11.55l1.14-.24zm38.53.053c.81.176 1.22.79 1.22 1.846-.258 1.992-1.06 2.988-2.41 2.988-8.836 0-13.254 1.23-13.254 3.69l-.247 2.076v1.142c5.76-1.383 9.7-2.074 11.81-2.074h.48c.81.352 1.21 1.12 1.21 2.303 0 1.69-1.13 2.54-3.38 2.54-7.4.96-11.1 2.12-11.1 3.47l-.23 2.31v.92c0 1.38.88 2.15 2.63 2.3 2.76-.3 6.22-.99 10.37-2.07h.72c.64.25.97.79.97 1.62v.69c0 1.89-4.02 3.35-12.06 4.38h-.72c-2.9 0-4.5-1.84-4.82-5.52 0-2.7.57-7.85 1.69-15.43l-.47-1.39c0-3.11 4.82-4.95 14.45-5.52l3.13-.23zm12.08 0h.846c1.16 0 2.63 5.36 4.41 16.084 1.407 5.063 2.11 8.502 2.11 10.318-.293.96-.856 1.442-1.69 1.442-1.08 0-1.85-2.56-2.32-7.682l-.21-.228h-.21c-1.83.023-5.684 1.142-11.567 3.357-.57 3.2-1.48 4.8-2.74 4.8-.85-.32-1.27-.96-1.27-1.91 0-1.85 3.86-10.33 11.58-25.45l1.05-.72zm-.42 6.715c-1.69 3.047-3.234 6.252-4.64 9.615h1.477c1.43 0 3.254-.322 5.48-.967l-1.9-8.648h-.42zm13.45-6.768c1.064 0 2.342 2.004 3.83 6.012 2.882 5.9 6.087 10.95 9.614 15.15 1.185-11.57 2.064-18.38 2.638-20.45l.967-.72h.72c.48 0 .72.32.72.96-1.44 16.52-2.32 25.34-2.64 26.45l-1.44.47c-2.57 0-6.89-5.45-12.98-16.35l-.97-.97-.25.72-.72 11.07v1.44l.24 1.44c-.21 1.92-.85 2.88-1.92 2.88-.99-.35-1.55-.83-1.69-1.44 1.23-17.32 2.11-25.98 2.63-25.98l1.21-.72zm39.426-.017c1.522 0 2.284.632 2.284 1.898v.475c0 1.746-1.36 2.62-4.08 2.62l-5.08.245c-1.523 8.12-2.284 15.105-2.284 20.953-.41 1.27-.834 1.9-1.268 1.9h-.777c-.87 0-1.38-.24-1.53-.72.86-8.99 1.79-16.29 2.8-21.9l-7.63 1.2c-.71 0-1.14-.71-1.26-2.14 0-2.38 2.12-3.57 6.37-3.57 2.54-.63 6.7-.95 12.46-.95zm36.016 0c1.524 0 2.285.632 2.285 1.898v.475c0 1.746-1.36 2.62-4.08 2.62l-5.08.245c-1.523 8.12-2.285 15.105-2.285 20.953-.41 1.27-.83 1.9-1.264 1.9h-.77c-.88 0-1.39-.24-1.53-.72.857-8.99 1.79-16.29 2.797-21.9l-7.63 1.2c-.715 0-1.137-.71-1.266-2.14 0-2.38 2.12-3.57 6.36-3.57 2.54-.63 6.7-.95 12.46-.95zm20.338.017c.833.223 1.25.79 1.25 1.705v.23c-1.173 17.308-2.005 25.962-2.497 25.962l-.266.246h-.74c-.867 0-1.453-.404-1.76-1.213.33-2.31.494-5.543.494-9.703h-.24l-10.51 2.426-.74.966v4.606c0 1.37-.5 2.344-1.51 2.918h-.49c-.93 0-1.52-.404-1.75-1.213 1.16-17.473 2.83-26.21 5.01-26.21h.49l.76.985c-1.17 5.8-1.76 10.084-1.76 12.85 7.68-1.008 11.52-2.22 11.52-3.64l1-10.194 1.76-.72zm13.677.053h.843c1.16 0 2.63 5.36 4.413 16.084 1.404 5.063 2.11 8.502 2.11 10.318-.296.96-.858 1.442-1.69 1.442-1.078 0-1.85-2.56-2.32-7.682l-.21-.228h-.21c-1.83.023-5.686 1.142-11.57 3.357-.56 3.2-1.475 4.8-2.74 4.8-.844-.32-1.266-.96-1.266-1.91 0-1.85 3.863-10.33 11.585-25.45l1.054-.72zm-.423 6.715c-1.685 3.047-3.232 6.252-4.64 9.615h1.478c1.43 0 3.258-.322 5.484-.967l-1.9-8.648h-.424zm29.11-6.785c1.525 0 2.287.632 2.287 1.898v.475c0 1.746-1.36 2.62-4.08 2.62l-5.08.245c-1.52 8.12-2.28 15.105-2.28 20.953-.41 1.27-.83 1.9-1.26 1.9h-.77c-.88 0-1.39-.24-1.53-.72.86-8.99 1.79-16.29 2.8-21.9l-7.63 1.2c-.71 0-1.13-.71-1.26-2.14 0-2.38 2.12-3.57 6.37-3.57 2.54-.63 6.7-.95 12.46-.95zm27.35.07h.847c1.16 0 2.63 5.36 4.41 16.084 1.41 5.063 2.11 8.502 2.11 10.318-.29.96-.85 1.442-1.68 1.442-1.07 0-1.85-2.56-2.32-7.682l-.21-.228h-.21c-1.83.023-5.68 1.142-11.57 3.357-.56 3.2-1.47 4.8-2.74 4.8-.84-.32-1.26-.96-1.26-1.91 0-1.85 3.87-10.33 11.59-25.45l1.06-.72zm-.42 6.715c-1.686 3.047-3.233 6.252-4.64 9.615h1.477c1.43 0 3.26-.322 5.49-.967l-1.89-8.648h-.42zm28.39-6.768c1.066 0 2.344 2.004 3.83 6.012 2.885 5.9 6.09 10.95 9.617 15.15 1.19-11.57 2.07-18.38 2.64-20.45l.97-.72h.72c.49 0 .73.32.73.96-1.44 16.52-2.32 25.34-2.63 26.45l-1.44.47c-2.57 0-6.89-5.45-12.97-16.35l-.96-.97-.24.72-.72 11.07v1.44l.25 1.44c-.21 1.92-.85 2.88-1.91 2.88-.99-.35-1.55-.83-1.69-1.44 1.23-17.32 2.11-25.98 2.64-25.98l1.21-.72zm38.707.053c.81.176 1.22.79 1.22 1.846-.26 1.992-1.06 2.988-2.41 2.988-8.83 0-13.25 1.23-13.25 3.69l-.24 2.076v1.142c5.77-1.383 9.71-2.074 11.82-2.074h.48c.81.352 1.21 1.12 1.21 2.303 0 1.69-1.12 2.54-3.37 2.54-7.39.96-11.09 2.12-11.09 3.47l-.23 2.31v.92c0 1.38.88 2.15 2.64 2.3 2.77-.3 6.23-.99 10.37-2.07h.72c.65.25.97.79.97 1.62v.69c0 1.89-4.02 3.35-12.06 4.38h-.72c-2.89 0-4.5-1.84-4.81-5.52 0-2.7.56-7.85 1.69-15.43l-.47-1.39c0-3.11 4.82-4.95 14.45-5.52l3.13-.23zm3.01 0c.79 0 1.18 2.72 1.18 8.156l1.58 10.336h.39c0-.597 1.58-3.803 4.73-9.615.49-3.832 1.41-5.748 2.76-5.748h.39c.8 0 1.46 2.95 1.97 8.87.88 4.04 1.54 6.44 1.97 7.2.42-2.04 2.53-8.05 6.31-18.02.55-.64 1.08-.95 1.58-.95.71 0 1.16.31 1.37.95 0 .82-1.96 6.18-5.9 16.08-.66 2.34-1.25 5.55-1.77 9.61-.42.79-.95 1.19-1.58 1.19-1.2 0-2.11-2.72-2.74-8.16-1.29-5.31-2.08-8.19-2.37-8.65l-3.94 7.68c-.65 1.5-1.25 4.06-1.77 7.68-.35.59-.87.99-1.56 1.2-1.1 0-2.02-4.16-2.76-12.48-1.06-5.88-1.58-10.61-1.58-14.17 0-.48.59-.88 1.78-1.19zm45.13-4.5l.86 1.107-.86 10.6 17.46-9.193c.76.89 1.14 2.004 1.14 3.34-1.97 2.625-7.02 5.964-15.17 10.02v.28c3.76 4.664 8.06 8.567 12.89 11.707v.55c0 2.6-.95 3.91-2.86 3.91l-14.31-11.14c-.56 7.43-1.13 11.15-1.7 11.15l-1.44.28c-.95-.3-1.42-.86-1.42-1.67l1.14-13.09-.28-3.34c.65 0 1.22-4.08 1.71-12.25.79-1.48 1.74-2.23 2.87-2.23zm24.35 4.377h1.66c.55 0 .83.322.83.967-1.29 10.523-1.93 17.824-1.93 21.902v2.672c-.36 1.78-1.27 2.672-2.74 2.672h-.54l-1.11-.967c.74-11.04 1.66-19.8 2.76-26.28l1.09-.966zm7.98.07c1.07 0 2.35 2.004 3.84 6.012 2.88 5.9 6.09 10.95 9.62 15.15 1.18-11.57 2.06-18.38 2.64-20.45l.97-.72h.72c.48 0 .72.32.72.96-1.44 16.52-2.32 25.34-2.64 26.45l-1.44.47c-2.57 0-6.89-5.45-12.97-16.35l-.96-.97-.25.72-.72 11.07v1.44l.24 1.44c-.21 1.92-.85 2.88-1.92 2.88-.98-.35-1.55-.83-1.69-1.44 1.23-17.32 2.11-25.98 2.64-25.98l1.21-.72zm35.35 0h.18c1.56 0 2.6 1.524 3.13 4.57l-.37.475h-.17l-1.47-.474c-4.03.597-8.25 3.404-12.67 8.42-1.23 2.18-1.84 3.703-1.84 4.57v.967c0 2.566 2.64 4.166 7.91 4.798 3.31 0 5.81-1.763 7.53-5.29l-2.2-.95c-.82 0-3.09.96-6.8 2.883-.36-.82-.54-1.623-.54-2.408v-.246c0-2.555 2.45-4.32 7.35-5.29h.37c2.81 0 4.217 1.844 4.217 5.536 0 3.808-3.12 7.178-9.37 10.107l-2.194.475c-3.97 0-6.67-1.682-8.083-5.045l-.37-3.13c0-7.265 3.73-13.44 11.19-18.526 1.89-.97 3.3-1.45 4.24-1.45zm39.43 0c.83.223 1.25.79 1.25 1.705v.23c-1.17 17.308-2 25.962-2.49 25.962l-.26.246h-.74c-.86 0-1.45-.404-1.75-1.213.33-2.31.5-5.543.5-9.703h-.24l-10.52 2.426-.73.966v4.606c0 1.37-.5 2.344-1.51 2.918h-.5c-.94 0-1.53-.404-1.76-1.213 1.16-17.473 2.83-26.21 5.01-26.21h.49l.76.985c-1.17 5.8-1.76 10.084-1.76 12.85 7.676-1.008 11.514-2.22 11.514-3.64l1-10.194 1.76-.72zm13.68.053h.85c1.16 0 2.63 5.36 4.41 16.084 1.41 5.063 2.11 8.502 2.11 10.318-.29.96-.85 1.442-1.68 1.442-1.07 0-1.85-2.56-2.32-7.682l-.21-.228h-.21c-1.83.023-5.68 1.142-11.56 3.357-.56 3.2-1.48 4.8-2.74 4.8-.84-.32-1.27-.96-1.27-1.91 0-1.85 3.86-10.33 11.59-25.45l1.06-.72zm-.42 6.715c-1.68 3.047-3.23 6.252-4.64 9.615h1.48c1.43 0 3.26-.322 5.49-.967l-1.9-8.648h-.42zm18.96-6.768h1.08c5.1 0 8.22 2.022 9.37 6.065l.21 1.933c0 8.05-5.96 14.684-17.89 19.9l-1.05.245h-.23c-.31 0-.6-.57-.84-1.705l2.13-20.865c-.85 0-1.28-.24-1.28-.72v-.493c0-2.578 1.14-3.868 3.41-3.868l5.12-.5zm-4.25 5.098c-1.28 8.297-1.91 13.875-1.91 16.734v1.21c8.94-4.47 13.41-8.67 13.41-12.62v-.23c0-2.28-.63-3.41-1.91-3.41-1.58-1.13-4.13-1.69-7.66-1.69h-1.91zm40.66-5.045c4.75 0 7.12 1.617 7.12 4.852v.72c0 2.262-1.07 4.442-3.21 6.54v.245c3.53 1.067 5.29 2.842 5.29 5.327v.966c0 4.055-3.98 7.037-11.95 8.948l-3.92.492h-2.28c-1.23 0-1.85-.645-1.85-1.934v-.246l1.85-19.863c-.77 0-1.16-.158-1.16-.475v-1.46c0-2.74 3.37-4.112 10.12-4.112zm-6.68 10.898h.25c7.2 0 10.8-1.617 10.8-4.85-1.18-.798-3.17-1.196-5.97-1.196h-2.76c-1.22 0-1.83.562-1.83 1.687l-.47 4.35zm-.45 4.606l-.45 7.734 2.31.492.23-.246h1.14c6.45-.843 9.67-2.373 9.67-4.588-2.12-2.26-5.42-3.392-9.9-3.392h-.91l-.23-.246-.22.246h-1.62zm36.3-15.504c.81.176 1.22.79 1.22 1.846-.25 1.992-1.06 2.988-2.41 2.988-8.83 0-13.25 1.23-13.25 3.69l-.25 2.076v1.142c5.76-1.383 9.7-2.074 11.81-2.074h.47c.81.352 1.21 1.12 1.21 2.303 0 1.69-1.13 2.54-3.38 2.54-7.4.96-11.09 2.12-11.09 3.47l-.23 2.31v.92c0 1.38.88 2.15 2.63 2.3 2.76-.3 6.22-.99 10.37-2.07h.72c.65.25.97.79.97 1.62v.69c0 1.89-4.02 3.35-12.06 4.38h-.72c-2.9 0-4.5-1.84-4.82-5.52 0-2.7.56-7.85 1.69-15.43l-.48-1.39c0-3.11 4.82-4.95 14.45-5.52l3.13-.23zm20.02 0c.81.176 1.22.79 1.22 1.846-.26 1.992-1.06 2.988-2.41 2.988-8.83 0-13.25 1.23-13.25 3.69l-.24 2.076v1.142c5.77-1.383 9.7-2.074 11.81-2.074h.48c.81.352 1.218 1.12 1.218 2.303 0 1.69-1.13 2.54-3.38 2.54-7.393.96-11.09 2.12-11.09 3.47l-.22 2.31v.92c0 1.38.88 2.15 2.637 2.3 2.77-.3 6.23-.99 10.37-2.07h.72c.65.25.97.79.97 1.62v.69c0 1.89-4.02 3.35-12.06 4.38h-.72c-2.89 0-4.5-1.84-4.81-5.52 0-2.7.57-7.85 1.69-15.43l-.47-1.39c0-3.11 4.82-4.95 14.45-5.52l3.13-.23zm5.08-.053c1.07 0 2.35 2.004 3.84 6.012 2.89 5.9 6.09 10.95 9.62 15.15 1.19-11.57 2.07-18.38 2.64-20.45l.97-.72h.72c.48 0 .72.32.72.96-1.44 16.52-2.32 25.34-2.63 26.45l-1.45.47c-2.57 0-6.89-5.45-12.97-16.35l-.97-.97-.25.72-.72 11.07v1.44l.24 1.44c-.21 1.92-.85 2.88-1.92 2.88-.99-.35-1.55-.83-1.69-1.44 1.23-17.32 2.11-25.98 2.63-25.98l1.21-.72zm45.67.053c4.75 0 7.12 1.617 7.12 4.852v.72c0 2.262-1.07 4.442-3.21 6.54v.245c3.53 1.067 5.29 2.842 5.29 5.327v.966c0 4.055-3.98 7.037-11.95 8.948l-3.92.492h-2.28c-1.23 0-1.84-.645-1.84-1.934v-.246l1.85-19.863c-.77 0-1.16-.158-1.16-.475v-1.46c0-2.74 3.38-4.112 10.13-4.112zm-6.68 10.898h.25c7.2 0 10.79-1.617 10.79-4.85-1.18-.798-3.17-1.196-5.97-1.196H751c-1.22 0-1.83.562-1.83 1.687l-.476 4.35zm-.45 4.606l-.45 7.734 2.3.492.23-.246h1.14c6.45-.843 9.67-2.373 9.67-4.588-2.12-2.26-5.42-3.392-9.89-3.392h-.91l-.23-.246-.23.246h-1.62zm32.91-15.557c5.01.692 7.51 3.686 7.51 8.983 0 6.937-2.74 12.68-8.23 17.226-2.26 1.29-4.28 1.934-6.07 1.934-4.35 0-7.15-2.344-8.4-7.03l-.18-2.18v-.74c0-7.57 3.46-13.312 10.37-17.226 1.73-.644 3.4-.967 4.99-.967zM768.1 125.38c1.804 2.74 4.19 4.112 7.154 4.112 4.77 0 8.103-2.83 10.002-8.49l.35-2.672c0-3.984-1.96-6.328-5.887-7.03h-.55c-3.25 0-6.64 3.233-10.18 9.702-.6 1.945-.9 3.404-.9 4.377zm34.752-18.933h2.425c3.715 0 5.573 1.295 5.573 3.885v.246c0 4.535-3.88 8.66-11.637 12.375v.23c3.88 3.56 7.114 6.233 9.704 8.014v.72c0 1.255-.404 2.063-1.213 2.427h-.966l-13.324-9.457-.246 4.85v3.64c-.41.81-1.055 1.213-1.934 1.213-.644 0-1.13-.322-1.46-.967v-1.46l2.18-18.93c-.643 0-.966-.48-.966-1.442 0-2.91 2.42-4.61 7.26-5.09l4.606-.24zm-8.473 13.096h.24c8.39-2.156 12.58-4.5 12.58-7.03v-.247c0-.446-.81-.768-2.43-.967-2.69 0-5.91.56-9.69 1.7l-.72 6.54zm20.32-13.096c1.06 0 2.34 2.004 3.83 6.012 2.88 5.9 6.08 10.95 9.61 15.15 1.18-11.57 2.06-18.38 2.63-20.45l.97-.72h.72c.48 0 .72.32.72.96-1.44 16.52-2.32 25.34-2.64 26.45l-1.44.47c-2.57 0-6.89-5.45-12.97-16.35l-.97-.97-.25.72-.72 11.07v1.44l.24 1.44c-.21 1.92-.85 2.88-1.92 2.88-.99-.35-1.55-.83-1.69-1.44 1.23-17.32 2.11-25.98 2.63-25.98l1.21-.72zm40.5-.07h1.65c.55 0 .82.322.82.967-1.29 10.523-1.94 17.824-1.94 21.902v2.672c-.37 1.78-1.28 2.672-2.74 2.672h-.55l-1.11-.967c.73-11.04 1.65-19.8 2.76-26.28l1.09-.966zm7.98.07c1.06 0 2.34 2.004 3.83 6.012 2.88 5.9 6.09 10.95 9.61 15.15 1.18-11.57 2.06-18.38 2.63-20.45l.96-.72h.72c.48 0 .72.32.72.96-1.44 16.52-2.32 25.34-2.64 26.45l-1.44.47c-2.57 0-6.89-5.45-12.97-16.35l-.97-.97-.25.72-.72 11.07v1.44l.24 1.44c-.21 1.92-.85 2.88-1.92 2.88-.99-.35-1.55-.83-1.69-1.44 1.23-17.32 2.11-25.98 2.64-25.98l1.21-.72zM909 102l9.598.563 5.204-.563.545.844v1.125c0 3-1.736 4.5-5.205 4.5h-.28c-.434 16.28-1.893 24.43-4.378 24.43-1.28 1.12-3.02 1.69-5.22 1.69h-1.918c-6.21-.95-9.318-4.04-9.318-9.27.55-3.14 1.37-5.21 2.46-6.19h.282c.282 0 .74 2.06 1.37 6.18 1.255 2.42 3.265 3.64 6.03 3.64 4.02 0 6.03-1.69 6.03-5.05l1.37-15.74h-3.022c-4.02 0-6.03-.47-6.03-1.41v-.56c.55-2.82 1.377-4.22 2.48-4.22zm20.654 4.447c.75.305 1.165.62 1.247.95-1.33 8.355-2 14.425-2 18.21v2.602c4.48 0 8.15-2.06 11.01-6.16 1.13-9.94 2.21-14.91 3.26-14.91h.27c1 .1 1.5.34 1.5.72-1.5 9.04-2.25 15.82-2.25 20.34v3.77c0 1.24-.5 2.11-1.51 2.6h-1l-.98-.95v-.48l.25-4.01c-.59 0-3.85 1.49-9.75 4.48l-1.76.47c-2-.26-3-1.13-3-2.6v-.23c1.22-16.56 2.64-24.84 4.26-24.84h.51zm25.364 0h1.074c5.097 0 8.22 2.022 9.37 6.065l.21 1.933c0 8.05-5.965 14.684-17.895 19.9l-1.055.245h-.23c-.316 0-.598-.57-.844-1.705l2.128-20.865c-.855 0-1.283-.24-1.283-.72v-.493c0-2.578 1.138-3.868 3.41-3.868l5.116-.5zm-4.252 5.098c-1.278 8.297-1.916 13.875-1.916 16.734v1.21c8.94-4.47 13.412-8.67 13.412-12.62v-.23c0-2.28-.64-3.41-1.916-3.41-1.58-1.13-4.136-1.69-7.663-1.69h-1.916zm33.697-5.045c.808.176 1.213.79 1.213 1.846-.257 1.992-1.06 2.988-2.41 2.988-8.833 0-13.25 1.23-13.25 3.69l-.248 2.076v1.142c5.767-1.383 9.705-2.074 11.814-2.074h.475c.81.352 1.21 1.12 1.21 2.303 0 1.69-1.124 2.54-3.374 2.54-7.394.96-11.09 2.12-11.09 3.47l-.23 2.31v.92c0 1.38.88 2.15 2.637 2.3 2.766-.3 6.223-.99 10.37-2.07h.722c.644.25.966.79.966 1.62v.69c0 1.89-4.017 3.35-12.056 4.38h-.72c-2.895 0-4.5-1.84-4.817-5.52 0-2.7.56-7.85 1.686-15.43l-.47-1.39c0-3.11 4.82-4.95 14.45-5.52l3.13-.23zm12.076 0h.84c1.16 0 2.63 5.36 4.41 16.084 1.4 5.063 2.1 8.502 2.1 10.318-.3.96-.86 1.442-1.69 1.442-1.08 0-1.85-2.56-2.32-7.682l-.21-.228h-.21c-1.83.023-5.69 1.142-11.57 3.357-.56 3.2-1.48 4.8-2.74 4.8-.85-.32-1.27-.96-1.27-1.91 0-1.85 3.86-10.33 11.58-25.45l1.05-.72zm-.42 6.715c-1.69 3.047-3.24 6.252-4.64 9.615h1.47c1.43 0 3.25-.322 5.48-.967l-1.9-8.648h-.42zm12.83 15.38c1.57 0 2.55.956 2.93 2.866 0 1.91-1.37 2.96-4.12 3.13-1.37-.51-2.06-1.38-2.06-2.6v-.26c.53-2.08 1.61-3.13 3.23-3.13z" fill="#000"/><path d="M572.84 555.89c-8.256-2.02-17.256 4.88-24.373 19.448-6.74 13.793-16.713 24.218-4.025 32.044 7.07 4.363 23.59-.75 21.852-11.16 1.27 5.71 1.046 16.97 4.836 16.918 5.54-.078 11.69-5.59 8.54-16.646-.768-2.702-.52-5.356-1.288-7.51.242-.662.494-1.33.667-2.03 3.89-15.725 2.04-29.044-6.21-31.064z" stroke="#050202" stroke-width="4.008" fill="#DEAA87"/><path d="M600.51 440.836l6.418 25.512-32.093 109.7-35.943-17.857c14.297-53.07 33.65-94.84 61.617-117.35z" stroke="#050202" stroke-width="4.008" fill="#FC0"/><path d="M572.533 535.008c.136-10.39.867-20.78 1.402-31.172L548.53 560.13c2.775 1.198 7.07 3.858 12.008 5.813l11.995-30.935z" fill="#A80"/><path d="M594.814 403.11c0 18.872 6.68 36.97 18.57 50.316 11.893 13.344 28.02 20.84 44.838 20.84 35.02 0 63.408-31.857 63.408-71.156 0-39.3-28.39-71.157-63.408-71.157-16.817 0-32.945 7.497-44.837 20.842-11.89 13.344-18.57 31.443-18.57 50.315z" stroke="#000" stroke-width="4.008" fill="#E3DEDB"/><path d="M722.667 440.836l-6.42 25.512 32.093 109.7 35.944-17.857c-14.297-53.07-33.65-94.84-61.617-117.35z" stroke="#050202" stroke-width="4.008" fill="#FC0"/><path d="M659.765 764.837c0 4.737 3.45 9.28 9.588 12.628 6.14 3.35 14.465 5.23 23.147 5.23 8.68 0 17.007-1.88 23.146-5.23 6.14-3.35 9.588-7.89 9.588-12.628 0-9.862-14.656-17.858-32.734-17.858-18.08 0-32.735 7.99-32.735 17.85zm-77.663 2.553c0 4.735 3.45 9.277 9.588 12.626 6.14 3.35 14.465 5.23 23.147 5.23 8.68 0 17.007-1.88 23.146-5.23 6.14-3.35 9.588-7.89 9.588-12.627 0-9.87-14.65-17.86-32.73-17.86s-32.73 7.99-32.73 17.86z" stroke="#050202" stroke-width="4.008" fill="#2B1100"/><path d="M574.557 580.975c-5.312 57.705-13.832 155.543-1.102 167.46 40.53 17.86 135.082 24.402 166.504-10.627 15.36-30.406 2.52-103.844 6.15-154.127 7.35-101.73-2.75-180.56-91.68-181.74-75.67-1.01-84.81 77.65-79.88 179.05z" stroke="#050202" stroke-width="4.008" fill="#FC0"/><path d="M611.615 384.934c0 15.19 4.973 29.76 13.825 40.5 8.852 10.74 20.857 16.776 33.376 16.776 12.518 0 24.524-6.035 33.376-16.776 8.852-10.74 13.825-25.31 13.825-40.5 0-15.19-4.973-29.76-13.825-40.5-8.852-10.742-20.858-16.776-33.376-16.776-12.52 0-24.524 6.034-33.376 16.776-8.852 10.74-13.825 25.31-13.825 40.5z" stroke="#050202" stroke-width="3.908" fill="#DEAA87"/><path d="M668.907 371.478c0 2.367 1.93 4.285 4.31 4.285 2.383 0 4.313-1.918 4.313-4.285 0-1.136-.454-2.226-1.263-3.03-.81-.803-1.905-1.254-3.05-1.254-1.142 0-2.24.45-3.047 1.255-.81.8-1.263 1.89-1.263 3.02zm-29.963.492c0 2.365 1.93 4.284 4.312 4.284 2.38 0 4.31-1.92 4.31-4.285 0-1.14-.453-2.23-1.262-3.03-.808-.81-1.905-1.26-3.048-1.26-1.144 0-2.24.45-3.05 1.25-.808.8-1.262 1.89-1.262 3.03z" fill="#000"/><path d="M675.288 419.55H642.31l-6.93 341.754c12.944 1.288 32.296 2.33 42.218.46l-2.31-342.215z" stroke="#000" stroke-width="4.008" fill="maroon"/><path d="M658.39 486.17l37.063-70.454c20.018-38.054-91.073-33.08-72.738 2.066l35.676 68.388z" stroke="#000" stroke-width="4.008" fill="#E3DBDB"/><path stroke="#000" stroke-width="4.008" stroke-linejoin="round" fill="#FC0" d="M697.644 349.6l52.2-74.434-67.75 33.154-24.725-58.07-24.46 58.4-72.65-32.83 57.8 74.312 79.57-.533z"/><path d="M681.654 405.918c-5.976 5.79-43.623 2.11-46.878-.65-3.254-2.758 14.83 22.454 24.174 22.4 9.346-.056 28.68-27.54 22.704-21.75z" stroke="#000" stroke-width="4.008" fill="#DEAA87"/><path d="M638.548 325.383c0 9.86 8.044 17.854 17.967 17.854 4.765 0 9.335-1.88 12.705-5.23 3.37-3.348 5.262-7.89 5.262-12.624 0-4.735-1.893-9.276-5.262-12.624-3.37-3.35-7.94-5.23-12.705-5.23-9.923 0-17.967 7.99-17.967 17.85z" stroke="#000" stroke-width="4.008" fill="#00F"/><path d="M717.934 429.392c-3.246-3.61-6.27-7.245-11.897-10.56l-1.04 335.586c4.274-1 8.663-2.564 12.937-4.476v-320.55zm-119.45.688c3.244-3.608 6.384-9.08 12.01-12.394l.693 338.913c-4.273-1-8.893-1.19-13.166-3.1l.47-323.42zm152.16 104.928c-.137-10.39-.868-20.78-1.403-31.172l25.41 56.294c-2.77 1.198-7.07 3.858-12.01 5.813l-11.99-30.935z" fill="#A80"/><path d="M750.335 548.313c8.257-2.02 17.257 4.88 24.374 19.45 6.73 13.79 16.71 24.216 4.02 32.043-7.07 4.362-23.59-.75-21.85-11.16-1.27 5.708-1.05 16.97-4.84 16.917-5.54-.077-11.69-5.59-8.54-16.646.77-2.7.52-5.355 1.29-7.508-.24-.67-.5-1.34-.67-2.04-3.9-15.73-2.05-29.05 6.21-31.07z" stroke="#050202" stroke-width="4.008" fill="#DEAA87"/><path stroke="#000" stroke-width="4.008" stroke-linejoin="round" fill="#D4AA00" d="M528.68 540.87h266.57v79.206H528.68z"/><path stroke="#000" stroke-width="4.008" stroke-linejoin="round" fill="#00F" d="M560.596 594.67l-14.24-14.242 14.15-14.152 14.24 14.242z"/><path d="M599.718 580.473c0 2.8 1.12 5.486 3.113 7.466 2 1.98 4.7 3.09 7.52 3.09 5.87 0 10.63-4.73 10.63-10.56s-4.75-10.56-10.62-10.56c-2.82 0-5.52 1.11-7.51 3.09-1.99 1.98-3.11 4.66-3.11 7.46z" stroke="#000" stroke-width="4.008" fill="#D40000"/><path stroke="#000" stroke-width="4.008" stroke-linejoin="round" fill="#00F" d="M764.73 594.67l-14.243-14.242 14.152-14.152 14.24 14.24z"/><path d="M701.308 580.473c0 2.8 1.12 5.486 3.112 7.466 1.993 1.98 4.695 3.09 7.513 3.09 5.87 0 10.626-4.73 10.626-10.56s-4.76-10.56-10.63-10.56c-2.82 0-5.52 1.11-7.52 3.09-2 1.98-3.12 4.66-3.12 7.46z" stroke="#000" stroke-width="4.008" fill="#D40000"/><path stroke="#000" stroke-width="4.008" stroke-linejoin="round" fill="#00F" d="M659.396 594.67l-14.24-14.242 14.15-14.15 14.24 14.24z"/><g transform="translate(107 287)"><path d="M297.4 251.52c8.255-2.02 17.255 4.88 24.372 19.447 6.74 13.793 16.712 24.218 4.025 32.045-7.07 4.362-23.59-.75-21.852-11.16-1.27 5.708-1.046 16.97-4.836 16.917-5.55-.08-11.69-5.59-8.55-16.65.77-2.7.52-5.36 1.29-7.51-.25-.67-.5-1.34-.67-2.03-3.9-15.73-2.05-29.05 6.21-31.07zM36.95 272.045c-6.32 29.472 8.273 38.883 37.144 24.104 31.23-15.99 46.618-12.67 41.907-23.06-5.26-11.6-19.45-28.59-41.9-23.06-13.26 3.27-23.21 13.89-37.14 22z" stroke="#050202" stroke-width="4.008" fill="#DEAA87"/><path stroke="#000" stroke-width="4.008" stroke-linecap="round" stroke-linejoin="bevel" fill="#E3E2DB" d="M2.996 251.473l51.328-22.916 39.036 87.436-51.328 22.916z"/><rect stroke="#000" stroke-width="4.008" fill="#E3E2DB" transform="rotate(-24.058 1107.167 0)" x="3.599" y="221.077" width="41.285" height="19.365" rx="6.138"/><path d="M46.23 295.897c-2 4.478.032 9.74 4.54 11.752 2.164.96 4.62 1.03 6.83.2 2.21-.84 3.99-2.52 4.95-4.67s1.022-4.6.17-6.8c-.85-2.21-2.545-3.99-4.71-4.95-4.507-2.02-9.782-.02-11.78 4.46zm-15.92-34.892c-2 4.478.033 9.74 4.54 11.752 2.164.967 4.622 1.04 6.83.202 2.21-.84 3.99-2.52 4.95-4.67.962-2.15 1.023-4.6.17-6.8-.85-2.21-2.545-3.99-4.71-4.95-4.506-2.02-9.78-.02-11.78 4.46z" stroke="#000" stroke-width="3.006" fill="green"/><path d="M57.63 258.968c0 4.106 6.032 7.436 13.47 7.436 7.44 0 13.47-3.33 13.47-7.436 0-4.107-6.03-7.437-13.47-7.437-7.438 0-13.47 3.33-13.47 7.44z" stroke="#050202" stroke-width="4.008" fill="#DEAA87"/><path d="M140.146 152.26c-16.122 32.878-37.41 60.624-60.334 86.742-3.165 33.078 6.36 40.935 12.837 54.85 24.1-6.32 33.89-9.798 41.07-12.756l6.42-128.835z" stroke="#050202" stroke-width="4.008" fill="#0A0"/><path d="M82.135 258.166l39.844-26.135-.01 17.1-37.3 22.81c-1.48-4.28-2.3-8.88-2.54-13.77z" fill="green"/><path d="M141.877 106.316c0 18.872 6.68 36.97 18.57 50.315 11.893 13.35 28.02 20.85 44.838 20.85 35.02 0 63.408-31.86 63.408-71.15 0-39.3-28.39-71.15-63.408-71.15-16.817 0-32.945 7.5-44.837 20.84-11.89 13.35-18.57 31.45-18.57 50.32z" stroke="#000" stroke-width="4.008" fill="#502D16"/><path d="M269.73 144.042l-6.42 25.512 32.093 109.7 35.944-17.857c-14.297-53.076-33.65-94.846-61.617-117.355z" stroke="#050202" stroke-width="4.008" fill="#0A0"/><path d="M206.828 468.043c0 4.737 3.45 9.28 9.588 12.628 6.14 3.35 14.465 5.24 23.147 5.24 8.68 0 17.007-1.88 23.146-5.23 6.13-3.35 9.58-7.89 9.58-12.63 0-9.86-14.66-17.85-32.74-17.85-18.08 0-32.74 8-32.74 17.86zm-77.662 2.552c0 4.736 3.448 9.278 9.587 12.627 6.14 3.35 14.465 5.23 23.147 5.23 8.68 0 17.007-1.88 23.146-5.23 6.14-3.35 9.588-7.89 9.588-12.627 0-9.863-14.656-17.86-32.734-17.86-18.08 0-32.734 7.997-32.734 17.86z" stroke="#050202" stroke-width="4.008" fill="#2B1100"/><path d="M121.62 284.18c-5.312 57.705-13.832 155.544-1.102 167.46 40.53 17.86 135.082 24.403 166.504-10.626 15.363-30.406 2.52-103.844 6.154-154.127 7.353-101.737-2.75-180.562-91.678-181.75-75.67-1.01-84.81 77.644-79.878 179.044z" stroke="#050202" stroke-width="4.008" fill="#0A0"/><path d="M158.678 88.14c0 15.19 4.973 29.76 13.825 40.5 8.852 10.74 20.858 16.776 33.376 16.776 12.51 0 24.52-6.035 33.37-16.776 8.85-10.74 13.82-25.31 13.82-40.5 0-15.19-4.98-29.76-13.83-40.5-8.85-10.742-20.86-16.776-33.38-16.776-12.52 0-24.53 6.034-33.38 16.775-8.85 10.74-13.83 25.31-13.83 40.5z" stroke="#050202" stroke-width="3.908" fill="#DEAA87"/><path d="M215.97 75.947c0 2.366 1.93 4.284 4.31 4.284 2.383 0 4.313-1.91 4.313-4.28 0-1.13-.454-2.22-1.263-3.03-.808-.8-1.905-1.25-3.05-1.25-1.142 0-2.24.45-3.047 1.26-.81.81-1.263 1.9-1.263 3.03zm-29.963.49c0 2.367 1.93 4.285 4.312 4.285 2.38 0 4.31-1.918 4.31-4.284 0-1.137-.46-2.226-1.27-3.03-.81-.803-1.91-1.255-3.05-1.255s-2.24.452-3.05 1.255c-.81.804-1.27 1.893-1.27 3.03z" fill="#000"/><path d="M222.35 122.755h-32.977l-6.93 341.755c12.944 1.288 32.296 2.33 42.218.46l-2.31-342.215z" stroke="#000" stroke-width="4.008" fill="#0055D4"/><path d="M205.454 162.108c19.04-.05 37.062-43.186 37.062-43.186 20.018-38.054-91.073-33.08-72.738 2.066 0 0 17.464 41.17 35.676 41.12z" stroke="#000" stroke-width="4.008" fill="#502D16"/><path d="M228.717 109.124c-5.976 5.79-43.623 2.11-46.877-.65-3.255-2.758 14.828 22.454 24.174 22.4 9.345-.056 28.68-27.54 22.703-21.75z" stroke="#000" stroke-width="4.008" fill="#DEAA87"/><path d="M264.997 132.598c-3.245-3.61-6.27-7.245-11.897-10.56l-1.04 335.586c4.274-1 8.663-2.564 12.937-4.476v-320.55zm-119.45.69c3.244-3.61 6.384-9.083 12.01-12.396l.693 338.913c-4.273-1-8.893-1.187-13.166-3.1l.462-323.418zm152.16 104.926c-.137-10.39-.868-20.78-1.403-31.172l25.405 56.294c-2.78 1.198-7.07 3.858-12.01 5.813l-12-30.94z" fill="green"/><path stroke="#000" stroke-width="4.731" stroke-linejoin="bevel" fill="#FC0" d="M247.04 58.444l-41.145.183-41.146-.1-13.1-17.698-12.51-17.79 33.05-11.12 33.42-10.89 33.52 10.82 33.16 11.05-12.34 17.81z"/><path d="M215.853 37.362c0 2.8-1.12 5.486-3.112 7.466-1.99 1.98-4.69 3.093-7.51 3.093-5.87 0-10.62-4.72-10.62-10.55s4.76-10.56 10.63-10.56c2.82 0 5.52 1.12 7.52 3.1s3.12 4.67 3.12 7.47zm33.04-5.052c0 2.8-1.12 5.487-3.112 7.467-1.99 1.98-4.69 3.092-7.51 3.092-5.87 0-10.62-4.73-10.62-10.56s4.76-10.56 10.63-10.56c2.82 0 5.52 1.11 7.52 3.09 2 1.98 3.12 4.66 3.12 7.46zm-66.08 0c0 2.8-1.12 5.487-3.113 7.467-1.992 1.98-4.695 3.092-7.513 3.092-5.87 0-10.626-4.73-10.626-10.56s4.76-10.56 10.63-10.56c2.82 0 5.52 1.11 7.52 3.09 2 1.98 3.12 4.66 3.12 7.46z" stroke="#000" stroke-width="4.008" fill="#0A0"/></g><path d="M1163.453 565.535c6.32 29.472-8.273 38.883-37.144 24.104-31.23-15.99-46.62-12.67-41.91-23.06 5.26-11.6 19.45-28.59 41.9-23.05 13.26 3.27 23.21 13.89 37.14 22z" stroke="#050202" stroke-width="4.008" fill="#502D16"/><path d="M1170.066 529.815c-1.064 2.982-3.436 5.36-6.596 6.61-3.16 1.248-6.846 1.268-10.25.054-3.405-1.22-6.248-3.57-7.903-6.54-1.655-2.97-1.988-6.31-.924-9.29 1.064-2.98 3.436-5.36 6.595-6.61 3.16-1.25 6.847-1.27 10.252-.06 3.404 1.21 6.247 3.56 7.902 6.53 1.655 2.97 1.987 6.31.924 9.29z" stroke="#000" stroke-width="4.008" fill="#F60"/><path stroke="#000" stroke-width="4.008" stroke-linejoin="bevel" fill="#F60" d="M1138.653 522.066l34.36 12.257-28.22 79.11-34.36-12.256z"/><path d="M1157.036 546.948c-1.373 3.85-5.627 5.85-9.5 4.468-1.862-.664-3.384-2.034-4.233-3.81-.85-1.777-.956-3.814-.297-5.663.66-1.848 2.03-3.358 3.813-4.196 1.78-.838 3.82-.936 5.68-.272 3.87 1.382 5.9 5.623 4.53 9.473zm-8.513 23.83c-1.373 3.85-5.627 5.85-9.5 4.47-1.86-.665-3.384-2.036-4.233-3.812-.85-1.777-.956-3.813-.296-5.662.66-1.85 2.03-3.358 3.813-4.196 1.78-.838 3.828-.936 5.688-.272 3.874 1.382 5.902 5.623 4.528 9.472zm-7.835 22.842c-1.374 3.85-5.628 5.85-9.502 4.47-1.86-.665-3.382-2.035-4.232-3.812-.85-1.776-.955-3.813-.296-5.662.66-1.848 2.03-3.358 3.813-4.196 1.79-.838 3.83-.936 5.69-.272 3.88 1.382 5.9 5.623 4.53 9.473z" stroke="#000" stroke-width="3.006" fill="green"/><path d="M1142.772 552.458c0 4.106-6.03 7.436-13.47 7.436s-13.47-3.33-13.47-7.436c0-4.107 6.03-7.437 13.47-7.437s13.47 3.33 13.47 7.44zm-243.687 3.244c-8.257-2.02-17.257 4.88-24.374 19.45-6.73 13.792-16.71 24.217-4.02 32.043 7.07 4.362 23.59-.75 21.86-11.16 1.27 5.71 1.05 16.97 4.84 16.917 5.54-.077 11.69-5.59 8.54-16.645-.77-2.702-.52-5.356-1.29-7.51.24-.662.5-1.332.67-2.03 3.9-15.726 2.05-29.045-6.2-31.065z" stroke="#050202" stroke-width="4.008" fill="#502D16"/><path d="M926.754 440.65l6.418 25.51-32.092 109.702-35.944-17.858c14.297-53.076 33.65-94.846 61.618-117.355z" stroke="#050202" stroke-width="4.008" fill="#330080"/><path d="M989.655 764.65c0 4.737-3.45 9.28-9.588 12.628-6.14 3.35-14.465 5.23-23.146 5.23-8.68 0-17-1.88-23.14-5.23-6.14-3.35-9.59-7.89-9.59-12.628 0-9.863 14.66-17.858 32.74-17.858 18.08 0 32.74 7.995 32.74 17.858zm77.663 2.55c0 4.738-3.45 9.28-9.588 12.63-6.14 3.348-14.465 5.23-23.146 5.23-8.682 0-17.008-1.882-23.147-5.23-6.14-3.35-9.588-7.892-9.588-12.63 0-9.86 14.65-17.857 32.73-17.857s32.73 7.996 32.73 17.858z" stroke="#050202" stroke-width="4.008" fill="#000"/><path d="M1060.257 445.75c16.122 32.878 37.41 60.624 60.334 86.742 3.17 33.078-6.36 40.935-12.83 54.85-24.1-6.32-33.89-9.798-41.08-12.756l-6.42-128.835z" stroke="#050202" stroke-width="4.008" fill="#330080"/><path d="M1074.864 580.788c5.312 57.704 13.268 154.976 1.1 167.46-12.475 12.798-66.366 23.52-87.333 15.192-21.72 4.498-64.76 12.65-79.17-25.82-15.36-30.405-2.52-103.843-6.15-154.126-7.35-101.737 2.75-180.562 91.68-181.75 75.67-1.01 84.81 77.644 79.88 179.044z" stroke="#050202" stroke-width="4.008" fill="#330080"/><path d="M1037.805 384.747c0 15.19-4.973 29.758-13.825 40.5-8.852 10.74-20.857 16.776-33.376 16.776-12.518 0-24.524-6.035-33.376-16.776-8.852-10.742-13.824-25.31-13.824-40.5 0-15.19 4.972-29.76 13.824-40.5 8.852-10.742 20.858-16.776 33.376-16.776 12.52 0 24.524 6.04 33.376 16.78 8.852 10.74 13.825 25.31 13.825 40.5z" stroke="#050202" stroke-width="3.908" fill="#784421"/><path d="M981.784 372.554c0 2.366-1.93 4.284-4.31 4.284-2.383 0-4.313-1.918-4.313-4.284 0-1.136.46-2.226 1.27-3.03.81-.803 1.91-1.255 3.05-1.255s2.24.45 3.05 1.25c.81.8 1.27 1.89 1.27 3.03zm27.42.49c0 2.367-1.93 4.285-4.31 4.285-2.382 0-4.312-1.92-4.312-4.29 0-1.14.454-2.23 1.263-3.03.81-.81 1.905-1.26 3.05-1.26 1.142 0 2.24.45 3.047 1.25.81.8 1.263 1.89 1.263 3.03z" fill="#000"/><path d="M903.096 569.988l172.532.162c-2.174 6.186-1.144 15.018-.49 22.608l-171.39-.325-.652-22.445z" stroke="#000" stroke-width="3.903" fill="#FC0"/><path d="M967.766 397.008c5.976 5.79 43.623 2.11 46.878-.65 3.254-2.758-14.83 22.454-24.174 22.4-9.346-.055-28.68-27.54-22.704-21.75z" stroke="#000" stroke-width="4.008" fill="#784421"/><path d="M989.643 452.248l-17.204-29.61c10.35 5.532 21.45 7.394 34.4 0l-17.21 29.61z" stroke="#000" stroke-width="4.008" stroke-linejoin="round" fill="#000"/><path d="M998.14 478.665c0 4.088-3.335 7.4-7.448 7.4-1.975 0-3.87-.78-5.266-2.166-1.397-1.39-2.182-3.28-2.182-5.24 0-1.96.785-3.85 2.182-5.24 1.396-1.39 3.29-2.17 5.266-2.17 4.113 0 7.448 3.31 7.448 7.4zm0 37.885c0 4.086-3.335 7.4-7.448 7.4-1.975 0-3.87-.78-5.266-2.168-1.397-1.388-2.182-3.27-2.182-5.233 0-1.97.785-3.85 2.182-5.24 1.396-1.39 3.29-2.17 5.266-2.17 4.113 0 7.448 3.31 7.448 7.4zm0 35.356c0 4.088-3.335 7.4-7.448 7.4-1.975 0-3.87-.778-5.266-2.166-1.397-1.388-2.182-3.27-2.182-5.234 0-1.962.785-3.845 2.182-5.233 1.396-1.388 3.29-2.167 5.266-2.167 4.113 0 7.448 3.313 7.448 7.4zm0 65.664c0 4.088-3.335 7.402-7.448 7.402-1.975 0-3.87-.78-5.266-2.168-1.397-1.388-2.182-3.27-2.182-5.233 0-1.96.785-3.84 2.182-5.23 1.396-1.39 3.29-2.17 5.266-2.17 4.113 0 7.448 3.32 7.448 7.4zm0 35.36c0 4.086-3.335 7.4-7.448 7.4-1.975 0-3.87-.78-5.266-2.168-1.397-1.388-2.182-3.27-2.182-5.233 0-1.97.785-3.85 2.182-5.24 1.396-1.39 3.29-2.17 5.266-2.17 4.113 0 7.448 3.31 7.448 7.4zm0 37.882c0 4.087-3.335 7.4-7.448 7.4-1.975 0-3.87-.78-5.266-2.167-1.397-1.388-2.182-3.27-2.182-5.233 0-1.963.785-3.845 2.182-5.233 1.396-1.39 3.29-2.17 5.266-2.17 4.113 0 7.448 3.31 7.448 7.4zm0 40.408c0 4.088-3.335 7.402-7.448 7.402-1.975 0-3.87-.78-5.266-2.168-1.397-1.388-2.182-3.27-2.182-5.233 0-1.96.785-3.84 2.182-5.23 1.396-1.39 3.29-2.17 5.266-2.17 4.113 0 7.448 3.32 7.448 7.4z" stroke="#000" stroke-width="3.006" fill="#FC0"/><path d="M1009.398 583.646c0 9.86-8.044 17.854-17.967 17.854-4.76 0-9.33-1.88-12.7-5.23-3.37-3.348-5.26-7.89-5.26-12.624 0-4.735 1.9-9.276 5.26-12.625 3.37-3.34 7.94-5.22 12.71-5.22 9.93 0 17.97 8 17.97 17.86z" stroke="#000" stroke-width="3.808" fill="#FC0"/><path d="M1032.96 363.603c-15.854 3.71-41.1-20.698-41.1-20.698s-30.715 28.613-45.404 20.792c-12.445-6.627-13.214-29.22-6.542-41.586 8.982-16.64 32.793-23.81 51.8-23.69 19.92.12 46.048 7.33 53.976 25.49 5.562 12.74 2.277 35.57-12.73 39.7z" stroke="#000" stroke-width="4.008" fill="#4000A1"/></g></svg>