<svg width="1540" height="820" viewBox="0 0 1540 820" xmlns="http://www.w3.org/2000/svg" xmlns:xlink="http://www.w3.org/1999/xlink"><title>story06</title><defs><path id="a" d="M0 0h1540v820H0z"/><mask id="b" x="0" y="0" width="1540" height="820" fill="#fff"><use xlink:href="#a"/></mask><path id="d" d="M40 40h788v160H40z"/><filter x="-50%" y="-50%" width="200%" height="200%" filterUnits="objectBoundingBox" id="c"><feOffset dx="6" dy="6" in="SourceAlpha" result="shadowOffsetOuter1"/><feColorMatrix values="0 0 0 0 0 0 0 0 0 0 0 0 0 0 0 0 0 0 1 0" in="shadowOffsetOuter1"/></filter></defs><g fill="none" fill-rule="evenodd"><use stroke="#000" mask="url(#b)" stroke-width="8" fill="#402412" xlink:href="#a"/><path stroke="#000" stroke-width="4" fill="#371F0F" d="M235 132h1066v556H235z"/><path d="M4 2l229.457 129.306c0 .384.523.694 1.174.694h1065.19c.65 0 1.18-.31 1.18-.694L1538 2H4z" stroke="#000" stroke-width="4" stroke-linejoin="bevel" fill="#28170B"/><path d="M4 818l229.457-129.306c0-.384.523-.694 1.174-.694h1065.19c.65 0 1.18.31 1.18.694L1538 818H4z" stroke="#000" stroke-width="4" stroke-linejoin="bevel" fill="#2B2200"/><path stroke="#000" stroke-width="4" fill="#00002B" d="M320 190h380v265H320z"/><path fill="#FFE680" d="M411.89 249.34l-11.36-10.833-13.362 8.236 6.795-14.15L382 222.428l15.558 2.088 5.97-14.518 2.82 15.442L422 226.63l-13.815 7.455M503 336.325l-15.566-1.807-5.697 14.598-3.093-15.362-15.644-.906 13.654-7.69-3.97-15.158 11.53 10.61 13.19-8.462-6.527 14.247 12.123 9.93m129.11 67.22l-14.287-7.04-10.435 12.034 2.28-15.77-14.668-6.2 15.696-2.71 1.37-15.87 7.42 14.09 15.514-3.6-11.11 11.41 8.22 13.64m-219.405 30.8l-7.184-14.17-15.52 3.36 11.25-11.21-7.98-13.72 14.14 7.23L417.99 394l-2.51 15.68 14.53 6.41-15.69 2.457-1.607 15.796"/><path d="M625.56 226c18.968 21.77 15.5 55.838-7.745 76.093-23.247 20.255-57.47 19.026-76.437-2.744l-.378-.44s15.08-9.06 46.775-36.13C614.71 239.77 625.56 226 625.56 226z" stroke="#222" stroke-width="4.01" fill="#E6E6E6"/><use fill="#000" filter="url(#c)" xlink:href="#d"/><use fill="#FFF" xlink:href="#d"/><path d="M85.89 60.07h.528c.867.48 1.3 1.22 1.3 2.215v.563c0 6.01.516 13.054 1.548 21.13h.263c5.71-15.2 9.08-22.8 10.1-22.8h.77c.76 0 1.97 5.285 3.62 15.855 1.56 5.414 2.34 9.95 2.34 13.606-.51 1.3-1.29 1.95-2.34 1.95-.69 0-1.64-4.54-2.85-13.63l-2.07-8.9c-1.49 2.42-4.17 8.72-8.04 18.89-1.12 1.14-2.06 1.8-2.85 1.95-2.25 0-3.38-3.06-3.38-9.18l-1.28-11.67h-.26l-7.77 17.79c-.47 2.96-.91 4.44-1.3 4.44H73.2l-1.04-1.11V89.8c0-2.494 2.162-7.87 6.486-16.12 3.07-8.66 5.057-13.104 5.96-13.34l1.283-.28zm33.452 4.43h.844c1.16 0 2.63 5.36 4.412 16.084 1.406 5.063 2.11 8.502 2.11 10.318-.294.96-.856 1.442-1.688 1.442-1.08 0-1.852-2.56-2.32-7.682l-.212-.228h-.21c-1.83.023-5.684 1.142-11.567 3.357-.56 3.2-1.47 4.8-2.74 4.8-.84-.32-1.26-.96-1.26-1.91 0-1.85 3.86-10.33 11.59-25.45l1.06-.72zm-.422 6.715c-1.688 3.047-3.234 6.252-4.64 9.615h1.476c1.43 0 3.258-.322 5.484-.967l-1.898-8.648h-.422zm22.676-6.768h2.425c3.72 0 5.58 1.295 5.58 3.885v.246c0 4.535-3.88 8.66-11.63 12.375v.23c3.88 3.56 7.12 6.233 9.71 8.014v.72c0 1.255-.4 2.063-1.21 2.427h-.96l-13.32-9.457-.24 4.85v3.64c-.41.81-1.05 1.213-1.93 1.213-.64 0-1.13-.322-1.46-.967v-1.46l2.18-18.93c-.64 0-.96-.48-.96-1.442 0-2.91 2.42-4.61 7.26-5.09l4.61-.24zm-8.473 13.096h.246c8.39-2.156 12.58-4.5 12.58-7.03v-.247c0-.446-.81-.768-2.43-.967-2.69 0-5.92.56-9.69 1.7l-.72 6.54zM151.738 64.5l5.38 8.156 2.355 1.934c2.976-5.297 5.05-8.502 6.222-9.615h1.073l.86.966c-.116.86-3.48 6.86-10.09 18-1.663 3.13-2.882 5.93-3.655 8.41l-.633.25c-1.008-.47-1.512-1.19-1.512-2.16.06-1.25 1.776-5.17 5.15-11.76-4.863-5.23-7.294-9.47-7.294-12.73.902-.96 1.617-1.44 2.144-1.44zm30.71 0c.784 0 1.177 2.72 1.177 8.156l1.582 10.336h.387c0-.597 1.576-3.803 4.728-9.615.492-3.832 1.412-5.748 2.76-5.748h.387c.79 0 1.45 2.95 1.96 8.87.88 4.04 1.53 6.44 1.97 7.2.42-2.04 2.52-8.05 6.31-18.02.55-.64 1.08-.95 1.58-.95.7 0 1.16.31 1.37.95 0 .82-1.97 6.18-5.91 16.08-.66 2.34-1.25 5.55-1.78 9.61-.42.79-.95 1.19-1.58 1.19-1.2 0-2.11-2.72-2.75-8.16-1.29-5.31-2.08-8.19-2.37-8.65l-3.94 7.68c-.66 1.5-1.25 4.06-1.78 7.68-.35.59-.88.99-1.57 1.2-1.1 0-2.02-4.16-2.76-12.48-1.06-5.88-1.58-10.61-1.58-14.17 0-.48.59-.88 1.77-1.19zm35.068 0h.843c1.16 0 2.63 5.36 4.41 16.084 1.4 5.063 2.11 8.502 2.11 10.318-.3.96-.86 1.442-1.69 1.442-1.08 0-1.85-2.56-2.32-7.682l-.21-.228h-.21c-1.83.023-5.69 1.142-11.57 3.357-.57 3.2-1.48 4.8-2.74 4.8-.85-.32-1.27-.96-1.27-1.91 0-1.85 3.86-10.33 11.58-25.45l1.05-.72zm-.422 6.715c-1.688 3.047-3.235 6.252-4.64 9.615h1.476c1.43 0 3.257-.322 5.484-.967l-1.898-8.648h-.422zM241.58 64.5h.37c1.616.2 2.425.984 2.425 2.355v.475c0 2.367-.81 4.57-2.426 6.61h-.37c-.26-.07-.51-.463-.76-1.178l.95-3.533-.74-.48c-1.72.15-4.89 2.04-9.49 5.66v.23l12.27 2.37c1.24.98 1.86 2.63 1.86 4.95v1.4c0 3.17-2.05 5.93-6.14 8.26-1.61.63-3.16.95-4.66.95h-.39c-4.27 0-6.87-1.89-7.81-5.66V85.5c0-1.735.43-2.602 1.3-2.602.85 3 2.41 4.5 4.66 4.5 0 .307.93.46 2.79.46 2.75 0 5.42-1.41 7.99-4.237 0-1.87-3.97-3.06-11.9-3.55-2.86-.79-4.29-1.97-4.29-3.53 0-3.83 3.84-7.69 11.53-11.56l2.79-.47zm39.99 0c.81.176 1.213.79 1.213 1.846-.258 1.992-1.06 2.988-2.408 2.988-8.836 0-13.254 1.23-13.254 3.69l-.24 2.076v1.142c5.77-1.383 9.71-2.074 11.82-2.074h.48c.81.352 1.22 1.12 1.22 2.303 0 1.69-1.12 2.54-3.37 2.54-7.39.96-11.09 2.12-11.09 3.47l-.23 2.31v.92c0 1.38.88 2.15 2.64 2.3 2.77-.3 6.22-.99 10.37-2.07h.72c.65.25.97.79.97 1.62v.69c0 1.89-4.02 3.35-12.06 4.38h-.72c-2.89 0-4.5-1.84-4.81-5.52 0-2.7.56-7.85 1.69-15.43l-.47-1.39c0-3.11 4.82-4.95 14.45-5.52l3.13-.23zm5.08-.053c1.067 0 2.344 2.004 3.832 6.012 2.883 5.9 6.088 10.95 9.616 15.15 1.183-11.57 2.062-18.38 2.636-20.45l.967-.72h.73c.48 0 .72.32.72.96-1.44 16.52-2.32 25.34-2.63 26.45l-1.44.47c-2.56 0-6.89-5.45-12.97-16.35l-.97-.97-.24.72-.72 11.07v1.44l.25 1.44c-.21 1.92-.85 2.88-1.91 2.88-.98-.35-1.54-.83-1.68-1.44 1.23-17.32 2.11-25.98 2.64-25.98l1.22-.72zm35.35 0h.176c1.558 0 2.6 1.524 3.13 4.57l-.37.475h-.176l-1.477-.474c-4.03.597-8.256 3.404-12.674 8.42-1.23 2.18-1.85 3.703-1.85 4.57v.967c0 2.566 2.63 4.166 7.91 4.798 3.3 0 5.81-1.763 7.52-5.29l-2.2-.95c-.82 0-3.09.96-6.81 2.883-.37-.82-.55-1.623-.55-2.408v-.246c0-2.555 2.45-4.32 7.35-5.29h.37c2.81 0 4.21 1.844 4.21 5.536 0 3.808-3.13 7.178-9.37 10.107l-2.19.475c-3.97 0-6.67-1.682-8.09-5.045l-.37-3.13c0-7.265 3.73-13.44 11.2-18.526 1.88-.97 3.29-1.45 4.23-1.45zm16.56.053h.842c1.16 0 2.63 5.36 4.412 16.084 1.407 5.063 2.11 8.502 2.11 10.318-.293.96-.856 1.442-1.688 1.442-1.078 0-1.85-2.56-2.32-7.682l-.21-.228h-.212c-1.828.023-5.683 1.142-11.566 3.357-.563 3.2-1.477 4.8-2.742 4.8-.844-.32-1.266-.96-1.266-1.91 0-1.85 3.86-10.33 11.584-25.45l1.055-.72zm-.423 6.715c-1.688 3.047-3.235 6.252-4.64 9.615h1.476c1.43 0 3.257-.322 5.484-.967l-1.898-8.648h-.43zm25.03-6.768h.177c1.558 0 2.6 1.524 3.13 4.57l-.37.475h-.176l-1.477-.474c-4.03.597-8.25 3.404-12.67 8.42-1.23 2.18-1.84 3.703-1.84 4.57v.967c0 2.566 2.64 4.166 7.91 4.798 3.31 0 5.81-1.763 7.53-5.29l-2.19-.95c-.82 0-3.09.96-6.8 2.883-.36-.82-.54-1.623-.54-2.408v-.246c0-2.555 2.45-4.32 7.35-5.29h.37c2.81 0 4.22 1.844 4.22 5.536 0 3.808-3.12 7.178-9.37 10.107l-2.19.475c-3.97 0-6.67-1.682-8.08-5.045l-.37-3.13c0-7.265 3.74-13.44 11.2-18.526 1.89-.97 3.3-1.45 4.24-1.45zm24.505.053c.808.176 1.213.79 1.213 1.846-.258 1.992-1.06 2.988-2.408 2.988-8.836 0-13.254 1.23-13.254 3.69l-.246 2.076v1.142c5.765-1.383 9.703-2.074 11.812-2.074h.47c.81.352 1.21 1.12 1.21 2.303 0 1.69-1.13 2.54-3.38 2.54-7.4.96-11.09 2.12-11.09 3.47l-.23 2.31v.92c0 1.38.88 2.15 2.63 2.3 2.76-.3 6.22-.99 10.37-2.07h.72c.64.25.96.79.96 1.62v.69c0 1.89-4.02 3.35-12.06 4.38h-.72c-2.9 0-4.5-1.84-4.82-5.52 0-2.7.56-7.85 1.68-15.43l-.48-1.39c0-3.11 4.81-4.95 14.45-5.52l3.12-.23zm10.6-.053h1.072c5.097 0 8.22 2.022 9.37 6.065l.21 1.933c0 8.05-5.965 14.684-17.895 19.9l-1.06.245h-.23c-.32 0-.6-.57-.85-1.705l2.12-20.865c-.86 0-1.29-.24-1.29-.72v-.493c0-2.578 1.13-3.868 3.41-3.868l5.11-.5zm-4.254 5.098c-1.278 8.297-1.916 13.875-1.916 16.734v1.21c8.94-4.47 13.412-8.67 13.412-12.62v-.23c0-2.28-.64-3.41-1.916-3.41-1.582-1.13-4.137-1.69-7.664-1.69h-1.916zm49.36-5.115c1.522 0 2.284.632 2.284 1.898v.475c0 1.746-1.36 2.62-4.078 2.62l-5.08.245c-1.524 8.12-2.285 15.105-2.285 20.953-.41 1.27-.84 1.9-1.27 1.9h-.78c-.88 0-1.39-.24-1.53-.72.85-8.99 1.78-16.29 2.79-21.9l-7.63 1.2c-.72 0-1.14-.71-1.27-2.14 0-2.38 2.12-3.57 6.36-3.57 2.54-.63 6.7-.95 12.46-.95zm16.927.017c5.004.692 7.506 3.686 7.506 8.983 0 6.937-2.74 12.68-8.22 17.226-2.26 1.29-4.28 1.934-6.06 1.934-4.34 0-7.15-2.344-8.4-7.03l-.17-2.18v-.74c0-7.57 3.46-13.312 10.38-17.226 1.74-.644 3.4-.967 5-.967zM447.262 83.38c1.804 2.74 4.19 4.112 7.154 4.112 4.77 0 8.104-2.83 10.002-8.49l.352-2.672c0-3.984-1.963-6.328-5.89-7.03h-.544c-3.246 0-6.64 3.233-10.178 9.702-.597 1.945-.896 3.404-.896 4.377zM494.846 60l9.597.563 5.203-.563.545.844v1.125c0 3-1.73 4.5-5.2 4.5h-.28c-.43 16.28-1.89 24.43-4.38 24.43-1.27 1.12-3.01 1.69-5.22 1.69h-1.91c-6.21-.95-9.31-4.04-9.31-9.27.55-3.14 1.37-5.21 2.46-6.19h.28c.28 0 .74 2.06 1.37 6.18 1.26 2.42 3.27 3.64 6.03 3.64 4.02 0 6.03-1.69 6.03-5.05l1.37-15.74h-3.03c-4.02 0-6.03-.47-6.03-1.41v-.56c.56-2.82 1.38-4.22 2.48-4.22zm30.797 4.447c5.004.692 7.505 3.686 7.505 8.983 0 6.937-2.742 12.68-8.226 17.226-2.262 1.29-4.283 1.934-6.065 1.934-4.347 0-7.148-2.344-8.402-7.03l-.176-2.18v-.74c0-7.57 3.45-13.312 10.37-17.226 1.73-.644 3.4-.967 4.99-.967zM512.6 83.38c1.804 2.74 4.19 4.112 7.154 4.112 4.77 0 8.103-2.83 10.002-8.49l.35-2.672c0-3.984-1.96-6.328-5.887-7.03h-.55c-3.25 0-6.64 3.233-10.18 9.702-.6 1.945-.9 3.404-.9 4.377zm36.562-18.88h.37c1.616.2 2.425.984 2.425 2.355v.475c0 2.367-.81 4.57-2.426 6.61h-.36c-.26-.07-.51-.463-.75-1.178l.95-3.533-.74-.48c-1.72.15-4.88 2.04-9.49 5.66v.23l12.27 2.37c1.24.98 1.86 2.63 1.86 4.95v1.4c0 3.17-2.04 5.93-6.13 8.26-1.6.63-3.16.95-4.66.95h-.38c-4.26 0-6.87-1.89-7.8-5.66V85.5c0-1.735.44-2.602 1.3-2.602.86 3 2.41 4.5 4.66 4.5 0 .307.93.46 2.8.46 2.76 0 5.42-1.41 8-4.237 0-1.87-3.96-3.06-11.9-3.55-2.86-.79-4.29-1.97-4.29-3.53 0-3.83 3.85-7.69 11.53-11.56l2.8-.47zm25.05 0c.808.176 1.212.79 1.212 1.846-.258 1.992-1.06 2.988-2.408 2.988-8.836 0-13.254 1.23-13.254 3.69l-.246 2.076v1.142c5.765-1.383 9.703-2.074 11.812-2.074h.475c.808.352 1.213 1.12 1.213 2.303 0 1.69-1.125 2.54-3.375 2.54-7.39.96-11.09 2.12-11.09 3.47l-.23 2.31v.92c0 1.38.88 2.15 2.64 2.3 2.77-.3 6.23-.99 10.37-2.07h.72c.65.25.97.79.97 1.62v.69c0 1.89-4.02 3.35-12.06 4.38h-.72c-2.89 0-4.5-1.84-4.81-5.52 0-2.7.57-7.85 1.69-15.43l-.47-1.39c0-3.11 4.82-4.95 14.45-5.52l3.13-.23zm14.272-.053c4.653 0 6.98 1.365 6.98 4.096 0 5.402-5.1 10.29-15.294 14.66-.75 0-1.125.48-1.125 1.442-.106 5.296-.633 7.945-1.582 7.945h-1.125c-.305-.07-.604-.47-.897-1.195l2.03-19.723h-.23c-.59 0-.89-.727-.89-2.18 0-2.355 1.36-3.715 4.06-4.078l8.09-.967zm-9 13.957c5.145-1.347 9.047-3.59 11.707-6.732l.44-1.46v-.474l-1.12-.246h-1.12c-5.98.328-8.98.89-8.98 1.688l-.91 7.224zm34.752-13.957c.832.223 1.248.79 1.248 1.705v.23c-1.172 17.308-2.004 25.962-2.496 25.962l-.263.246h-.74c-.866 0-1.452-.404-1.756-1.213.32-2.31.49-5.543.49-9.703h-.25L599.96 84.1l-.74.966v4.606c0 1.37-.502 2.344-1.51 2.918h-.492c-.937 0-1.523-.404-1.757-1.213 1.16-17.473 2.83-26.21 5.01-26.21h.5l.76.985c-1.17 5.8-1.75 10.084-1.75 12.85 7.68-1.008 11.52-2.22 11.52-3.64l1-10.194 1.76-.72zm6.065 22.15c1.57 0 2.55.954 2.94 2.864 0 1.91-1.37 2.96-4.11 3.13-1.37-.51-2.05-1.38-2.05-2.6v-.26c.54-2.08 1.62-3.13 3.24-3.13zM644.33 60c1.03 0 1.547 3.158 1.547 9.475l2.057 11.97h.51c0-.68 2.062-4.394 6.187-11.144.65-4.45 1.85-6.68 3.61-6.68h.51c1.03 0 1.89 3.44 2.57 10.31 1.15 4.69 2.01 7.48 2.59 8.37.54-2.36 3.28-9.33 8.23-20.9.73-.74 1.42-1.11 2.06-1.11.93 0 1.53.37 1.81 1.11 0 .95-2.57 7.17-7.71 18.67-.86 2.71-1.64 6.42-2.32 11.15-.55.93-1.23 1.39-2.05 1.39-1.57 0-2.77-3.15-3.6-9.47-1.67-6.15-2.7-9.49-3.09-10.02l-5.15 8.92c-.85 1.73-1.63 4.71-2.32 8.91-.45.68-1.14 1.14-2.05 1.39-1.43 0-2.63-4.83-3.6-14.48-1.37-6.82-2.05-12.3-2.05-16.43 0-.55.77-1.01 2.32-1.39zm48.06 4.447c.83.223 1.247.79 1.247 1.705v.23c-1.172 17.308-2.004 25.962-2.496 25.962l-.26.246h-.74c-.87 0-1.45-.404-1.76-1.213.33-2.31.5-5.543.5-9.703h-.24L678.12 84.1l-.738.966v4.606c0 1.37-.504 2.344-1.512 2.918h-.492c-.937 0-1.523-.404-1.758-1.213 1.16-17.473 2.83-26.21 5.01-26.21h.492l.754.985c-1.172 5.8-1.758 10.084-1.758 12.85 7.676-1.008 11.514-2.22 11.514-3.64l1-10.194 1.76-.72zm21.62.053c.808.176 1.213.79 1.213 1.846-.258 1.992-1.06 2.988-2.41 2.988-8.835 0-13.252 1.23-13.252 3.69l-.24 2.076v1.142c5.77-1.383 9.71-2.074 11.82-2.074h.48c.81.352 1.21 1.12 1.21 2.303 0 1.69-1.12 2.54-3.37 2.54-7.39.96-11.09 2.12-11.09 3.47l-.23 2.31v.92c0 1.38.88 2.15 2.64 2.3 2.77-.3 6.23-.99 10.37-2.07h.73c.64.25.97.79.97 1.62v.69c0 1.89-4.02 3.35-12.06 4.38h-.72c-2.89 0-4.5-1.84-4.81-5.52 0-2.7.56-7.85 1.69-15.43l-.47-1.39c0-3.11 4.82-4.95 14.45-5.52l3.13-.23zm5.08-.053c1.066 0 2.344 2.004 3.832 6.012 2.883 5.9 6.088 10.95 9.615 15.15 1.184-11.57 2.063-18.38 2.637-20.45l.967-.72h.72c.49 0 .73.32.73.96-1.44 16.52-2.32 25.34-2.63 26.45l-1.44.47c-2.57 0-6.89-5.45-12.97-16.35l-.96-.97-.25.72-.72 11.07v1.44l.25 1.44c-.21 1.92-.85 2.88-1.92 2.88-.98-.35-1.54-.83-1.68-1.44 1.23-17.32 2.11-25.98 2.64-25.98l1.21-.72zm53.63 0c.833.223 1.25.79 1.25 1.705v.23c-1.173 17.308-2.005 25.962-2.497 25.962l-.264.246h-.74c-.87 0-1.46-.404-1.76-1.213.33-2.31.49-5.543.49-9.703h-.25L758.44 84.1l-.74.966v4.606c0 1.37-.503 2.344-1.51 2.918h-.49c-.938 0-1.524-.404-1.76-1.213 1.16-17.473 2.83-26.21 5.01-26.21h.493l.755.985c-1.17 5.8-1.76 10.084-1.76 12.85 7.677-1.008 11.515-2.22 11.515-3.64l1.003-10.194 1.76-.72zm21.622.053c.808.176 1.213.79 1.213 1.846-.258 1.992-1.06 2.988-2.41 2.988-8.834 0-13.252 1.23-13.252 3.69l-.247 2.076v1.142c5.766-1.383 9.704-2.074 11.813-2.074h.47c.81.352 1.21 1.12 1.21 2.303 0 1.69-1.13 2.54-3.38 2.54-7.4.96-11.09 2.12-11.09 3.47l-.23 2.31v.92c0 1.38.88 2.15 2.63 2.3 2.76-.3 6.22-.99 10.37-2.07h.72c.64.25.96.79.96 1.62v.69c0 1.89-4.02 3.35-12.06 4.38h-.72c-2.9 0-4.5-1.84-4.82-5.52 0-2.7.56-7.85 1.69-15.43l-.48-1.39c0-3.11 4.81-4.95 14.45-5.52l3.13-.23zm-696.173 42h2.26c1 .633 1.51 1.342 1.51 2.127-.27 1.887-1.11 2.83-2.51 2.83-4.05 0-7.99.393-11.83 1.178l-.5 5.203 1.25.228h1c2.97 0 6.41-.474 10.32-1.423l.75 1.423c-.38 2.836-1.55 4.254-3.52 4.254-1.22.62-4.66 1.09-10.32 1.407-.4 7.09-1.08 10.634-2.03 10.634l-1 .23h-.25c-.42 0-.68-.31-.76-.95 0-3.85.66-10.93 2-21.23l-.74-.72c0-2.38 1.67-3.79 5.03-4.23 3.36-.63 6.46-.95 9.3-.95zm19.14-.053c5 .692 7.5 3.686 7.5 8.983 0 6.937-2.74 12.68-8.23 17.226-2.26 1.29-4.29 1.934-6.07 1.934-4.35 0-7.15-2.344-8.4-7.03l-.18-2.18v-.74c0-7.57 3.45-13.312 10.37-17.226 1.73-.644 3.4-.967 4.99-.967zm-13.04 18.933c1.8 2.74 4.18 4.112 7.15 4.112 4.77 0 8.1-2.83 10-8.49l.35-2.672c0-3.984-1.96-6.328-5.89-7.03h-.55c-3.25 0-6.64 3.233-10.18 9.702-.6 1.945-.9 3.404-.9 4.377zm26.89-18.933c.75.305 1.16.62 1.25.95-1.34 8.355-2.01 14.425-2.01 18.21v2.602c4.47 0 8.14-2.06 11-6.16 1.12-9.94 2.21-14.91 3.25-14.91h.26c.99.1 1.49.34 1.49.72-1.5 9.04-2.25 15.82-2.25 20.34v3.77c0 1.24-.51 2.11-1.51 2.6h-1.01l-.99-.95v-.48l.24-4.01c-.6 0-3.85 1.49-9.76 4.48l-1.76.47c-2.01-.26-3.01-1.13-3.01-2.6v-.23c1.22-16.56 2.64-24.84 4.25-24.84h.51zm19.84 0c1.06 0 2.34 2.004 3.83 6.012 2.88 5.9 6.09 10.95 9.61 15.15 1.18-11.57 2.06-18.38 2.63-20.45l.96-.72h.72c.48 0 .72.32.72.96-1.44 16.52-2.32 25.34-2.64 26.45l-1.44.47c-2.57 0-6.9-5.45-12.98-16.35l-.97-.97-.25.72-.72 11.07v1.44l.25 1.44c-.21 1.92-.85 2.88-1.92 2.88-.99-.35-1.55-.83-1.69-1.44 1.23-17.32 2.11-25.98 2.63-25.98l1.21-.72zm29.28 0h1.07c5.09 0 8.22 2.022 9.37 6.065l.21 1.933c0 8.05-5.97 14.684-17.9 19.9l-1.06.245h-.23c-.32 0-.6-.57-.85-1.705l2.13-20.865c-.86 0-1.29-.24-1.29-.72v-.493c0-2.578 1.13-3.868 3.41-3.868l5.11-.5zm-4.26 5.098c-1.28 8.297-1.92 13.875-1.92 16.734v1.21c8.94-4.47 13.41-8.67 13.41-12.62v-.23c0-2.28-.64-3.41-1.92-3.41-1.59-1.13-4.14-1.69-7.67-1.69H176zm49.36-5.115c1.52 0 2.28.632 2.28 1.898v.475c0 1.746-1.36 2.62-4.08 2.62l-5.08.245c-1.52 8.12-2.28 15.105-2.28 20.953-.41 1.27-.83 1.9-1.27 1.9h-.78c-.88 0-1.39-.24-1.53-.72.85-8.99 1.78-16.29 2.79-21.9l-7.63 1.2c-.71 0-1.14-.71-1.26-2.14 0-2.38 2.12-3.57 6.36-3.57 2.54-.63 6.7-.95 12.46-.95zm20.33.017c.83.223 1.24.79 1.24 1.705v.23c-1.17 17.308-2 25.962-2.5 25.962l-.27.246h-.74c-.87 0-1.45-.404-1.76-1.213.32-2.31.49-5.543.49-9.703h-.25l-10.51 2.426-.74.966v4.606c0 1.37-.51 2.344-1.52 2.918h-.49c-.94 0-1.53-.404-1.76-1.213 1.16-17.473 2.83-26.21 5.01-26.21h.49l.76.985c-1.18 5.8-1.76 10.084-1.76 12.85 7.67-1.008 11.51-2.22 11.51-3.64l1-10.194 1.76-.72zm13.67.053h.84c1.16 0 2.63 5.36 4.41 16.084 1.4 5.063 2.1 8.502 2.1 10.318-.29.96-.86 1.442-1.69 1.442-1.08 0-1.85-2.56-2.32-7.682l-.21-.228h-.21c-1.83.023-5.69 1.142-11.57 3.357-.56 3.2-1.48 4.8-2.74 4.8-.85-.32-1.27-.96-1.27-1.91 0-1.85 3.86-10.33 11.58-25.45l1.06-.72zm-.43 6.715c-1.69 3.047-3.24 6.252-4.64 9.615h1.47c1.43 0 3.26-.322 5.48-.967l-1.9-8.648h-.42zm29.11-6.785c1.52 0 2.28.632 2.28 1.898v.475c0 1.746-1.36 2.62-4.08 2.62l-5.08.245c-1.53 8.12-2.29 15.105-2.29 20.953-.41 1.27-.84 1.9-1.27 1.9h-.77c-.88 0-1.39-.24-1.53-.72.85-8.99 1.79-16.29 2.79-21.9l-7.63 1.2c-.71 0-1.14-.71-1.26-2.14 0-2.38 2.12-3.57 6.36-3.57 2.54-.63 6.7-.95 12.46-.95zm28.97-4.36h.52c.86.48 1.3 1.22 1.3 2.215v.563c0 6.01.51 13.054 1.54 21.13h.26c5.72-15.2 9.08-22.8 10.1-22.8h.77c.76 0 1.97 5.285 3.62 15.855 1.56 5.414 2.34 9.95 2.34 13.606-.5 1.3-1.28 1.95-2.34 1.95-.69 0-1.64-4.54-2.85-13.63l-2.08-8.9c-1.49 2.42-4.17 8.72-8.03 18.89-1.12 1.14-2.07 1.8-2.85 1.95-2.25 0-3.38-3.06-3.38-9.18l-1.28-11.67h-.26l-7.77 17.79c-.47 2.96-.91 4.44-1.3 4.44h-1.04l-1.04-1.11v-1.38c0-2.5 2.16-7.87 6.49-16.12 3.07-8.66 5.05-13.11 5.96-13.34l1.28-.29zm33.45 4.43h.84c1.16 0 2.63 5.36 4.41 16.084 1.41 5.063 2.11 8.502 2.11 10.318-.29.96-.86 1.442-1.69 1.442-1.08 0-1.85-2.56-2.32-7.682l-.21-.228h-.21c-1.83.023-5.68 1.142-11.57 3.357-.57 3.2-1.48 4.8-2.75 4.8-.84-.32-1.26-.96-1.26-1.91 0-1.85 3.86-10.33 11.58-25.45l1.05-.72zm-.42 6.715c-1.69 3.047-3.24 6.252-4.64 9.615h1.47c1.43 0 3.25-.322 5.48-.967l-1.9-8.648h-.42zm22.67-6.768h2.43c3.71 0 5.57 1.295 5.57 3.885v.246c0 4.535-3.88 8.66-11.64 12.375v.23c3.88 3.56 7.11 6.233 9.7 8.014v.72c0 1.255-.41 2.063-1.22 2.427h-.97l-13.33-9.457-.25 4.85v3.64c-.41.81-1.06 1.213-1.93 1.213-.65 0-1.13-.322-1.46-.967v-1.46l2.18-18.93c-.65 0-.97-.48-.97-1.442 0-2.91 2.42-4.61 7.26-5.09l4.6-.24zm-8.47 13.096h.25c8.39-2.156 12.58-4.5 12.58-7.03v-.247c0-.446-.81-.768-2.43-.967-2.68 0-5.91.56-9.69 1.7l-.72 6.54zM382.9 106.5l5.38 8.156 2.355 1.934c2.98-5.297 5.053-8.502 6.225-9.615h1.07l.86.966c-.12.86-3.48 6.86-10.09 18-1.666 3.13-2.885 5.93-3.66 8.41l-.63.25c-1.01-.47-1.513-1.19-1.513-2.16.06-1.25 1.778-5.17 5.15-11.76-4.86-5.23-7.292-9.47-7.292-12.73.9-.96 1.616-1.44 2.143-1.44zm30.71 0c.785 0 1.178 2.72 1.178 8.156l1.583 10.336h.39c0-.597 1.58-3.803 4.73-9.615.49-3.832 1.41-5.748 2.76-5.748h.39c.79 0 1.45 2.95 1.97 8.87.87 4.04 1.53 6.44 1.96 7.2.43-2.04 2.53-8.05 6.31-18.02.55-.64 1.08-.95 1.59-.95.7 0 1.16.31 1.37.95 0 .82-1.97 6.18-5.9 16.08-.65 2.34-1.25 5.55-1.77 9.61-.42.79-.95 1.19-1.58 1.19-1.19 0-2.11-2.72-2.74-8.16-1.29-5.31-2.08-8.19-2.37-8.65l-3.94 7.68c-.65 1.5-1.25 4.06-1.77 7.68-.35.59-.87.99-1.56 1.2-1.1 0-2.02-4.16-2.76-12.48-1.06-5.88-1.58-10.61-1.58-14.17 0-.48.59-.88 1.77-1.19zm35.068 0h.845c1.16 0 2.63 5.36 4.41 16.084 1.407 5.063 2.11 8.502 2.11 10.318-.292.96-.855 1.442-1.687 1.442-1.08 0-1.85-2.56-2.32-7.682l-.21-.228h-.213c-1.83.023-5.685 1.142-11.568 3.357-.565 3.2-1.48 4.8-2.745 4.8-.84-.32-1.264-.96-1.264-1.91 0-1.85 3.86-10.33 11.58-25.45l1.05-.72zm-.42 6.715c-1.688 3.047-3.235 6.252-4.64 9.615h1.475c1.43 0 3.257-.322 5.484-.967l-1.9-8.648h-.42zm24.486-6.715h.366c1.617.2 2.426.984 2.426 2.355v.475c0 2.367-.81 4.57-2.43 6.61h-.37c-.256-.07-.51-.463-.754-1.178l.95-3.533-.74-.48c-1.72.15-4.885 2.04-9.49 5.66v.23l12.27 2.37c1.25.98 1.87 2.63 1.87 4.95v1.4c0 3.17-2.045 5.93-6.135 8.26-1.605.63-3.157.95-4.657.95h-.39c-4.264 0-6.865-1.89-7.803-5.66v-1.42c0-1.74.434-2.61 1.3-2.61.856 3 2.41 4.5 4.66 4.5 0 .3.93.46 2.794.46 2.76 0 5.42-1.41 8-4.24 0-1.87-3.96-3.06-11.9-3.55-2.86-.8-4.29-1.97-4.29-3.53 0-3.83 3.85-7.69 11.53-11.57l2.8-.48zm36.63-.053h.175c1.56 0 2.6 1.524 3.13 4.57l-.37.475h-.18l-1.48-.474c-4.03.597-8.26 3.404-12.68 8.42-1.23 2.18-1.85 3.703-1.85 4.57v.967c0 2.566 2.63 4.166 7.91 4.798 3.3 0 5.81-1.763 7.52-5.29l-2.2-.95c-.82 0-3.09.96-6.81 2.883-.36-.82-.55-1.623-.55-2.408v-.246c0-2.555 2.45-4.32 7.35-5.29h.37c2.81 0 4.22 1.844 4.22 5.536 0 3.808-3.13 7.178-9.37 10.107l-2.2.475c-3.97 0-6.67-1.682-8.08-5.045l-.37-3.13c0-7.265 3.73-13.44 11.2-18.526 1.89-.97 3.3-1.45 4.24-1.45zm21.076 0c5.004.692 7.506 3.686 7.506 8.983 0 6.937-2.746 12.68-8.23 17.226-2.26 1.29-4.283 1.934-6.064 1.934-4.347 0-7.15-2.344-8.4-7.03l-.18-2.18v-.74c0-7.57 3.46-13.312 10.374-17.226 1.734-.644 3.398-.967 4.99-.967zm-13.04 18.933c1.805 2.74 4.19 4.11 7.154 4.11 4.77 0 8.104-2.83 10-8.49l.354-2.67c0-3.986-1.96-6.33-5.89-7.03h-.542c-3.246 0-6.64 3.23-10.18 9.7-.595 1.945-.894 3.404-.894 4.377zm27.316-19.005h1.653c.55 0 .82.322.82.967-1.29 10.523-1.94 17.824-1.94 21.902v2.672c-.37 1.78-1.28 2.672-2.75 2.672H542l-1.108-.968c.738-11.04 1.658-19.8 2.76-26.28l1.09-.966zm7.98.07c1.067 0 2.344 2.004 3.833 6.012 2.88 5.905 6.09 10.956 9.61 15.15 1.18-11.565 2.06-18.38 2.63-20.442l.96-.72h.72c.48 0 .72.322.72.966-1.45 16.53-2.32 25.35-2.64 26.46l-1.44.48c-2.57 0-6.89-5.45-12.98-16.34l-.97-.96-.25.72-.72 11.08v1.45l.24 1.44c-.21 1.92-.85 2.88-1.92 2.88-.99-.35-1.55-.83-1.69-1.44 1.23-17.32 2.11-25.98 2.63-25.98l1.21-.72zm35.35 0h.176c1.56 0 2.603 1.524 3.13 4.57l-.37.475h-.175l-1.475-.473c-4.03.597-8.253 3.404-12.67 8.42-1.23 2.18-1.85 3.703-1.85 4.57v.967c0 2.566 2.63 4.166 7.91 4.798 3.3 0 5.81-1.763 7.52-5.29l-2.2-.95c-.82 0-3.088.96-6.8 2.883-.366-.82-.547-1.623-.547-2.408v-.246c0-2.55 2.45-4.32 7.347-5.29h.37c2.815 0 4.22 1.85 4.22 5.54 0 3.81-3.122 7.18-9.37 10.11l-2.195.48c-3.973 0-6.67-1.68-8.086-5.04l-.37-3.13c0-7.26 3.73-13.44 11.2-18.52 1.89-.96 3.3-1.44 4.24-1.44zm40.166-.017c1.525 0 2.286.63 2.286 1.897v.475c0 1.746-1.36 2.62-4.078 2.62l-5.08.245c-1.525 8.12-2.287 15.105-2.287 20.953-.41 1.267-.833 1.9-1.267 1.9h-.772c-.88 0-1.39-.24-1.53-.72.855-8.99 1.787-16.29 2.795-21.904l-7.63 1.196c-.72 0-1.14-.715-1.27-2.145 0-2.38 2.12-3.568 6.36-3.568 2.54-.635 6.7-.95 12.46-.95zm16.93.016c5.01.692 7.51 3.686 7.51 8.983 0 6.936-2.74 12.68-8.22 17.225-2.26 1.29-4.283 1.934-6.064 1.934-4.347 0-7.15-2.345-8.4-7.03l-.177-2.18v-.74c0-7.57 3.46-13.313 10.37-17.227 1.74-.65 3.4-.97 4.99-.97zm-13.04 18.932c1.81 2.74 4.19 4.112 7.16 4.112 4.77 0 8.104-2.83 10-8.49l.35-2.672c0-3.984-1.96-6.328-5.89-7.03h-.54c-3.248 0-6.64 3.233-10.18 9.702-.6 1.945-.9 3.404-.9 4.377zm55.39-18.933c.83.223 1.25.79 1.25 1.705v.23c-1.17 17.308-2.003 25.962-2.5 25.962l-.26.246h-.74c-.866 0-1.45-.404-1.757-1.213.33-2.31.492-5.543.492-9.703h-.246l-10.51 2.426-.73.966v4.606c0 1.37-.5 2.344-1.51 2.918h-.49c-.93 0-1.52-.404-1.75-1.213 1.16-17.473 2.83-26.21 5.01-26.21h.49l.76.985c-1.17 5.8-1.76 10.084-1.76 12.85 7.68-1.008 11.52-2.22 11.52-3.64l1.01-10.194 1.76-.72zm13.68.053h.844c1.16 0 2.63 5.36 4.41 16.084 1.41 5.063 2.11 8.502 2.11 10.318-.29.96-.854 1.442-1.69 1.442-1.074 0-1.85-2.56-2.32-7.682l-.21-.228h-.21c-1.83.023-5.68 1.142-11.564 3.357-.566 3.2-1.48 4.8-2.746 4.8-.842-.33-1.264-.968-1.264-1.917 0-1.852 3.86-10.336 11.588-25.453l1.054-.72zm-.42 6.715c-1.688 3.05-3.235 6.26-4.64 9.62h1.476c1.43 0 3.26-.32 5.486-.96l-1.9-8.64h-.42zm29.02-6.76h.704c.63.26.948.82.948 1.69 0 1.18-2.45 6.23-7.345 15.16-2.41 6.69-3.91 10.3-4.5 10.83l-2.36.48c-1.03 0-1.75-1.84-2.15-5.53-3.15-11.12-4.73-17.93-4.73-20.44.26-.72.73-1.29 1.42-1.69h.95c.85 0 1.72 3.37 2.6 10.11l2.85 10.58h.22c1.64-4.33 5.19-11.23 10.65-20.69l.72-.47zm20.444.06c.808.18 1.21.79 1.21 1.85-.255 1.99-1.06 2.99-2.406 2.99-8.835 0-13.253 1.23-13.253 3.69l-.25 2.08v1.14c5.767-1.38 9.704-2.07 11.814-2.07h.48c.81.36 1.22 1.12 1.22 2.31 0 1.69-1.12 2.53-3.37 2.53-7.39.96-11.09 2.11-11.09 3.46l-.23 2.31v.91c0 1.38.88 2.15 2.64 2.3 2.77-.3 6.22-.99 10.37-2.07h.72c.65.25.97.79.97 1.62v.69c0 1.89-4.02 3.35-12.06 4.38h-.72c-2.89 0-4.5-1.84-4.82-5.52 0-2.71.57-7.85 1.69-15.44l-.47-1.39c0-3.12 4.82-4.96 14.45-5.52l3.13-.23zm27.017 0h.847c1.16 0 2.63 5.36 4.413 16.09 1.406 5.07 2.11 8.51 2.11 10.32-.294.96-.856 1.44-1.688 1.44-1.08 0-1.85-2.56-2.32-7.68l-.21-.23h-.21c-1.83.03-5.686 1.15-11.57 3.36-.56 3.2-1.47 4.8-2.74 4.8-.84-.33-1.263-.96-1.263-1.91 0-1.85 3.865-10.33 11.587-25.45l1.05-.72zm-.42 6.72c-1.69 3.05-3.233 6.26-4.64 9.62h1.477c1.43 0 3.26-.32 5.486-.96l-1.9-8.64h-.42zM100.507 148.5c4.747 0 7.12 1.617 7.12 4.852v.72c0 2.262-1.072 4.442-3.217 6.54v.245c3.524 1.067 5.29 2.842 5.29 5.327v.966c0 4.055-3.987 7.037-11.956 8.948l-3.92.492H91.54c-1.23 0-1.845-.645-1.845-1.934v-.246l1.846-19.863c-.77 0-1.16-.158-1.16-.475v-1.46c0-2.74 3.38-4.112 10.13-4.112zm-6.68 10.898h.247c7.198 0 10.795-1.617 10.795-4.85-1.19-.798-3.18-1.196-5.98-1.196h-2.76c-1.22 0-1.83.562-1.83 1.687l-.48 4.35zm-.456 4.606l-.46 7.734 2.3.492.23-.246h1.14c6.45-.843 9.67-2.373 9.67-4.588-2.12-2.26-5.42-3.392-9.9-3.392h-.91l-.22-.246-.23.246h-1.61zm28.39-15.504h.84c1.16 0 2.63 5.36 4.41 16.084 1.41 5.063 2.11 8.502 2.11 10.318-.29.96-.86 1.442-1.69 1.442-1.08 0-1.85-2.56-2.32-7.682l-.21-.228h-.21c-1.83.023-5.68 1.142-11.57 3.357-.56 3.2-1.47 4.8-2.74 4.8-.84-.32-1.26-.96-1.26-1.91 0-1.85 3.86-10.33 11.59-25.45l1.06-.72zm-.43 6.715c-1.69 3.047-3.23 6.252-4.64 9.615h1.48c1.43 0 3.26-.322 5.49-.967l-1.9-8.648h-.42zm20.41-6.715c4.75 0 7.12 1.617 7.12 4.852v.72c0 2.262-1.07 4.442-3.22 6.54v.245c3.53 1.067 5.29 2.842 5.29 5.327v.966c0 4.055-3.98 7.037-11.95 8.948l-3.92.492h-2.28c-1.23 0-1.84-.645-1.84-1.934v-.246l1.85-19.863c-.77 0-1.16-.158-1.16-.475v-1.46c0-2.74 3.38-4.112 10.13-4.112zm-6.68 10.898h.25c7.2 0 10.79-1.617 10.79-4.85-1.18-.798-3.17-1.196-5.97-1.196h-2.76c-1.22 0-1.83.562-1.83 1.687l-.47 4.35zm-.46 4.606l-.45 7.734 2.31.492.23-.246h1.14c6.45-.843 9.67-2.373 9.67-4.588-2.12-2.26-5.42-3.392-9.89-3.392h-.91l-.23-.246-.23.246h-1.62zm19.69-15.504l5.38 8.156 2.36 1.934c2.98-5.297 5.05-8.502 6.22-9.615h1.07l.87.966c-.11.86-3.48 6.86-10.09 18-1.66 3.13-2.88 5.93-3.65 8.41l-.63.25c-1-.47-1.51-1.19-1.51-2.16.06-1.25 1.78-5.17 5.15-11.76-4.86-5.23-7.29-9.47-7.29-12.73.91-.96 1.62-1.44 2.15-1.44zm22.42 21.06c.75.22 1.3.626 1.64 1.21v.476c0 2.79-2.09 6.246-6.28 10.37l-1.09.247h-.28c-.98 0-1.71-.404-2.18-1.213v-.246c3.28-3.633 4.92-6.843 4.92-9.633 1.01-.8 2.1-1.21 3.27-1.21zm37.62-21.113c.84.223 1.25.79 1.25 1.705v.23c-1.17 17.308-2 25.962-2.49 25.962l-.26.246h-.73c-.87 0-1.45-.404-1.76-1.213.33-2.31.5-5.543.5-9.703h-.25l-10.51 2.426-.74.966v4.606c0 1.37-.5 2.344-1.51 2.918h-.49c-.94 0-1.52-.404-1.76-1.213 1.16-17.473 2.83-26.21 5.01-26.21h.5l.76.985c-1.17 5.8-1.76 10.084-1.76 12.85 7.68-1.008 11.52-2.22 11.52-3.64l1.01-10.194 1.76-.72zm21.62.053c.81.176 1.22.79 1.22 1.846-.26 1.992-1.06 2.988-2.41 2.988-8.83 0-13.25 1.23-13.25 3.69l-.24 2.076v1.142c5.77-1.383 9.71-2.074 11.81-2.074h.48c.81.352 1.22 1.12 1.22 2.303 0 1.69-1.12 2.54-3.37 2.54-7.39.96-11.09 2.12-11.09 3.47l-.23 2.31v.92c0 1.38.88 2.15 2.64 2.3 2.77-.3 6.23-.99 10.37-2.07h.72c.65.25.97.79.97 1.62v.69c0 1.89-4.02 3.35-12.06 4.38H222c-2.895 0-4.5-1.84-4.817-5.52 0-2.7.564-7.85 1.69-15.43l-.476-1.39c0-3.11 4.815-4.95 14.45-5.52l3.126-.23zm17.95 0c.79 0 1.18 2.72 1.18 8.156l1.59 10.336h.39c0-.597 1.58-3.803 4.73-9.615.49-3.832 1.41-5.748 2.76-5.748h.39c.8 0 1.46 2.95 1.97 8.87.88 4.04 1.54 6.44 1.97 7.2.42-2.04 2.53-8.05 6.31-18.02.55-.64 1.08-.95 1.58-.95.71 0 1.16.31 1.37.95 0 .82-1.97 6.18-5.9 16.08-.65 2.34-1.24 5.55-1.77 9.61-.42.79-.95 1.19-1.58 1.19-1.19 0-2.11-2.72-2.74-8.16-1.29-5.31-2.08-8.19-2.37-8.65l-3.93 7.68c-.65 1.5-1.25 4.06-1.77 7.68-.35.59-.87.99-1.56 1.2-1.1 0-2.02-4.16-2.76-12.48-1.05-5.88-1.58-10.61-1.58-14.17 0-.48.59-.88 1.78-1.19zm35.07 0h.85c1.16 0 2.63 5.36 4.41 16.084 1.41 5.063 2.11 8.502 2.11 10.318-.29.96-.85 1.442-1.69 1.442-1.08 0-1.85-2.56-2.32-7.682l-.21-.228h-.21c-1.83.023-5.68 1.142-11.56 3.357-.56 3.2-1.47 4.8-2.74 4.8-.84-.32-1.26-.96-1.26-1.91 0-1.85 3.87-10.33 11.59-25.45l1.05-.72zm-.42 6.715c-1.69 3.047-3.23 6.252-4.64 9.615h1.48c1.43 0 3.26-.322 5.49-.967l-1.9-8.648h-.42zm24.49-6.715h.37c1.62.2 2.43.984 2.43 2.355v.475c0 2.367-.81 4.57-2.42 6.61h-.37c-.25-.07-.51-.463-.75-1.178l.95-3.533-.74-.48c-1.72.15-4.88 2.04-9.49 5.66v.23l12.27 2.37c1.24.98 1.86 2.63 1.86 4.95v1.4c0 3.17-2.04 5.93-6.13 8.26-1.61.63-3.16.95-4.66.95h-.39c-4.26 0-6.87-1.89-7.8-5.66v-1.42c0-1.74.43-2.61 1.3-2.61.85 3 2.41 4.5 4.66 4.5 0 .3.93.46 2.79.46 2.76 0 5.42-1.41 8-4.24 0-1.87-3.97-3.06-11.9-3.55-2.86-.8-4.29-1.97-4.29-3.53 0-3.83 3.85-7.69 11.53-11.57l2.8-.48zm40.63-.053h.7c.64.258.95.82.95 1.688 0 1.172-2.45 6.222-7.35 15.152-2.4 6.692-3.9 10.3-4.5 10.828l-2.35.475c-1.03 0-1.74-1.846-2.14-5.537-3.15-11.12-4.73-17.936-4.73-20.444.26-.73.74-1.29 1.43-1.69h.95c.86 0 1.72 3.37 2.6 10.1l2.85 10.58h.23c1.64-4.34 5.19-11.23 10.66-20.69l.72-.48zm20.44.053c.81.176 1.22.79 1.22 1.846-.25 1.992-1.06 2.988-2.41 2.988-8.83 0-13.25 1.23-13.25 3.69l-.25 2.076v1.142c5.77-1.383 9.71-2.074 11.82-2.074h.48c.81.352 1.21 1.12 1.21 2.303 0 1.69-1.12 2.54-3.37 2.54-7.39.96-11.09 2.12-11.09 3.47l-.23 2.31v.92c0 1.38.88 2.15 2.64 2.3 2.77-.3 6.23-.99 10.37-2.07h.72c.65.25.97.79.97 1.62v.69c0 1.89-4.02 3.35-12.05 4.38h-.72c-2.89 0-4.5-1.84-4.81-5.52 0-2.7.56-7.85 1.69-15.43l-.47-1.39c0-3.11 4.81-4.95 14.45-5.52l3.13-.23zm14.31-.053h2.43c3.72 0 5.57 1.295 5.57 3.885v.246c0 4.535-3.88 8.66-11.64 12.375v.23c3.88 3.56 7.12 6.233 9.71 8.014v.72c0 1.255-.4 2.063-1.21 2.427h-.96L379 166.887l-.25 4.85v3.64c-.41.81-1.057 1.213-1.936 1.213-.65 0-1.13-.322-1.46-.967v-1.46l2.18-18.93c-.65 0-.97-.48-.97-1.442 0-2.91 2.42-4.61 7.26-5.09l4.604-.24zm-8.47 13.096h.25c8.39-2.156 12.59-4.5 12.59-7.03v-.247c0-.446-.8-.768-2.42-.967-2.68 0-5.91.56-9.68 1.7l-.72 6.54zm18.61-13.043l5.38 8.156 2.36 1.934c2.98-5.297 5.05-8.502 6.23-9.615h1.08l.87.966c-.12.86-3.48 6.86-10.09 18-1.66 3.13-2.88 5.93-3.65 8.41l-.63.25c-1.01-.47-1.51-1.19-1.51-2.16.06-1.25 1.78-5.17 5.15-11.76-4.86-5.23-7.29-9.47-7.29-12.73.9-.96 1.62-1.44 2.15-1.44zm30.71 0c.79 0 1.18 2.72 1.18 8.156l1.59 10.336h.39c0-.597 1.58-3.803 4.73-9.615.49-3.832 1.41-5.748 2.76-5.748h.39c.8 0 1.46 2.95 1.97 8.87.88 4.04 1.54 6.44 1.97 7.2.43-2.04 2.53-8.05 6.31-18.02.55-.64 1.08-.95 1.59-.95.71 0 1.16.31 1.38.95 0 .82-1.97 6.18-5.9 16.08-.66 2.34-1.25 5.55-1.77 9.61-.43.79-.95 1.19-1.59 1.19-1.2 0-2.11-2.72-2.74-8.16-1.29-5.31-2.08-8.19-2.38-8.65l-3.94 7.68c-.65 1.5-1.25 4.06-1.77 7.68-.35.59-.87.99-1.56 1.2-1.1 0-2.02-4.16-2.76-12.48-1.05-5.88-1.58-10.61-1.58-14.17 0-.48.59-.88 1.777-1.19zm39.59-.053c5 .692 7.5 3.686 7.5 8.983 0 6.937-2.74 12.68-8.22 17.226-2.26 1.29-4.28 1.934-6.06 1.934-4.35 0-7.15-2.344-8.41-7.03l-.18-2.18v-.74c0-7.57 3.46-13.312 10.37-17.226 1.74-.644 3.4-.967 5-.967zM455.8 167.38c1.804 2.74 4.19 4.11 7.153 4.11 4.77 0 8.103-2.83 10-8.49l.353-2.67c0-3.987-1.963-6.33-5.89-7.03h-.544c-3.248 0-6.64 3.23-10.18 9.7-.597 1.944-.896 3.403-.896 4.376zm34.75-18.936h2.426c3.71 0 5.57 1.295 5.57 3.885v.24c0 4.53-3.88 8.66-11.64 12.37v.23c3.88 3.56 7.11 6.23 9.7 8.01v.72c0 1.25-.41 2.06-1.22 2.42h-.967l-13.32-9.46-.25 4.85v3.64c-.41.81-1.06 1.21-1.94 1.21-.65 0-1.13-.33-1.46-.97v-1.46l2.18-18.93c-.65 0-.97-.48-.97-1.44 0-2.92 2.42-4.62 7.26-5.1l4.6-.25zm-8.473 13.096h.245c8.39-2.155 12.587-4.5 12.587-7.03v-.246c0-.446-.81-.768-2.43-.967-2.68 0-5.91.567-9.68 1.704l-.72 6.54zm29.55-13.095h2.424c3.72 0 5.57 1.295 5.57 3.885v.247c0 4.535-3.88 8.66-11.63 12.375v.23c3.88 3.56 7.11 6.233 9.7 8.014v.72c0 1.255-.41 2.063-1.21 2.427h-.97l-13.33-9.457-.25 4.85v3.64c-.41.81-1.05 1.213-1.93 1.213-.65 0-1.13-.33-1.46-.97v-1.46l2.18-18.93c-.65 0-.97-.48-.97-1.44 0-2.92 2.42-4.62 7.26-5.1l4.6-.25zm-8.475 13.096h.247c8.39-2.15 12.58-4.5 12.58-7.03v-.24c0-.44-.81-.77-2.43-.96-2.69 0-5.91.57-9.69 1.71l-.72 6.54zm22.115-13.16h1.66c.55 0 .83.32.83.97-1.29 10.53-1.93 17.83-1.93 21.9v2.67c-.36 1.78-1.276 2.67-2.74 2.67h-.545l-1.11-.97c.74-11.04 1.66-19.8 2.76-26.28l1.09-.96zm22.93.13c.81.18 1.21.79 1.21 1.85-.26 1.99-1.06 2.99-2.41 2.99-8.83 0-13.25 1.23-13.25 3.69l-.24 2.08v1.14c5.766-1.38 9.703-2.07 11.813-2.07h.475c.81.35 1.21 1.12 1.21 2.3 0 1.69-1.12 2.53-3.37 2.53-7.39.96-11.09 2.12-11.09 3.47l-.226 2.31v.92c0 1.38.88 2.15 2.63 2.3 2.76-.3 6.22-1 10.37-2.07h.72c.64.25.97.79.97 1.62v.69c0 1.89-4.02 3.35-12.06 4.38h-.72c-2.9 0-4.5-1.84-4.82-5.52 0-2.71.56-7.85 1.68-15.43l-.48-1.39c0-3.11 4.82-4.95 14.45-5.52l3.13-.23zm10.6-.05h1.07c5.1 0 8.22 2.02 9.37 6.07l.21 1.94c0 8.05-5.96 14.69-17.89 19.9l-1.05.25h-.23c-.317 0-.6-.57-.844-1.7l2.128-20.86c-.85 0-1.28-.24-1.28-.72v-.49c0-2.57 1.14-3.86 3.41-3.86l5.12-.49zm-4.25 5.1c-1.275 8.3-1.914 13.88-1.914 16.74v1.22c8.94-4.46 13.41-8.67 13.41-12.62v-.23c0-2.27-.64-3.41-1.915-3.41-1.582-1.12-4.14-1.69-7.664-1.69h-1.916zm40.696-5.04h.843c1.16 0 2.63 5.36 4.41 16.09 1.405 5.07 2.11 8.51 2.11 10.32-.295.96-.86 1.45-1.69 1.45-1.08 0-1.85-2.56-2.32-7.68l-.21-.23h-.214c-1.827.03-5.68 1.15-11.565 3.36-.562 3.2-1.476 4.8-2.74 4.8-.84-.33-1.263-.97-1.263-1.91 0-1.85 3.86-10.33 11.59-25.45l1.057-.72zm-.422 6.72c-1.68 3.05-3.23 6.25-4.64 9.62h1.48c1.43 0 3.26-.32 5.49-.97l-1.9-8.64h-.42zm13.45-6.77c1.07 0 2.35 2 3.84 6.01 2.88 5.91 6.09 10.96 9.62 15.15 1.19-11.56 2.06-18.38 2.64-20.44l.97-.72h.72c.48 0 .72.32.72.97-1.44 16.53-2.32 25.34-2.63 26.46l-1.44.47c-2.57 0-6.89-5.45-12.97-16.34l-.96-.96-.24.72-.72 11.07v1.44l.25 1.44c-.21 1.92-.85 2.89-1.92 2.89-.99-.35-1.55-.83-1.69-1.44 1.23-17.32 2.11-25.98 2.64-25.98l1.21-.72zm29.29 0h1.07c5.1 0 8.22 2.02 9.37 6.07l.21 1.94c0 8.05-5.96 14.69-17.89 19.9l-1.05.25h-.23c-.31 0-.59-.57-.84-1.71l2.13-20.86c-.85 0-1.28-.24-1.28-.72v-.49c0-2.58 1.14-3.87 3.41-3.87l5.12-.49zm-4.25 5.1c-1.27 8.3-1.91 13.88-1.91 16.74v1.21c8.94-4.46 13.41-8.67 13.41-12.62v-.23c0-2.27-.64-3.41-1.92-3.41-1.58-1.12-4.13-1.68-7.66-1.68h-1.92zm35.07-5.09c.75.31 1.17.62 1.25.95-1.34 8.36-2 14.43-2 18.21v2.6c4.48 0 8.15-2.05 11.01-6.15 1.13-9.94 2.21-14.9 3.25-14.9h.27c.99.11 1.49.35 1.49.72-1.5 9.05-2.25 15.83-2.25 20.34V174c0 1.243-.5 2.11-1.51 2.603h-1l-.99-.95v-.48l.25-4.004c-.6 0-3.85 1.49-9.76 4.48l-1.75.47c-2-.26-3-1.13-3-2.6v-.23c1.22-16.56 2.64-24.84 4.25-24.84h.51zm29.04 0c4.66 0 6.98 1.37 6.98 4.1 0 5.4-5.09 10.29-15.29 14.66-.75 0-1.12.48-1.12 1.44-.1 5.3-.63 7.95-1.58 7.95h-1.12c-.3-.07-.6-.47-.9-1.19l2.02-19.72h-.22c-.6 0-.9-.72-.9-2.18 0-2.35 1.35-3.71 4.06-4.08l8.09-.96zm-9 13.96c5.15-1.34 9.05-3.59 11.71-6.73l.44-1.46v-.47l-1.12-.24h-1.13c-5.98.33-8.98.89-8.98 1.69l-.91 7.22zm30.87-13.9h.37c1.62.2 2.43.99 2.43 2.36v.48c0 2.37-.81 4.57-2.43 6.61h-.37c-.25-.07-.51-.46-.75-1.18l.95-3.53-.73-.47c-1.72.16-4.89 2.04-9.49 5.66v.23l12.27 2.38c1.24.99 1.86 2.64 1.86 4.96v1.41c0 3.18-2.04 5.93-6.13 8.26-1.61.63-3.16.95-4.66.95h-.39c-4.27 0-6.87-1.89-7.81-5.66v-1.42c0-1.73.43-2.6 1.3-2.6.86 3 2.41 4.5 4.66 4.5 0 .31.93.46 2.79.46 2.76 0 5.42-1.41 8-4.23 0-1.87-3.96-3.06-11.9-3.55-2.86-.8-4.29-1.97-4.29-3.53 0-3.83 3.85-7.69 11.54-11.562l2.8-.48zm25.05 0c.81.18 1.22.79 1.22 1.85-.26 1.99-1.06 2.99-2.41 2.99-8.84 0-13.25 1.23-13.25 3.69l-.24 2.08v1.14c5.76-1.38 9.7-2.07 11.81-2.07h.47c.81.35 1.22 1.12 1.22 2.3 0 1.69-1.13 2.53-3.38 2.53-7.39.96-11.09 2.12-11.09 3.47l-.23 2.31v.92c0 1.39.88 2.15 2.64 2.31 2.76-.3 6.22-.99 10.37-2.07h.72c.64.25.97.79.97 1.62v.69c0 1.89-4.02 3.35-12.06 4.38h-.72c-2.9 0-4.5-1.84-4.82-5.52 0-2.71.56-7.85 1.69-15.43l-.48-1.39c0-3.12 4.81-4.96 14.45-5.52l3.13-.23zm20.74-.07c1.53 0 2.29.63 2.29 1.9v.48c0 1.75-1.36 2.62-4.07 2.62l-5.08.25c-1.52 8.12-2.28 15.11-2.28 20.96-.41 1.27-.83 1.9-1.26 1.9h-.77c-.88 0-1.39-.24-1.53-.72.86-8.99 1.79-16.29 2.8-21.9l-7.63 1.2c-.71 0-1.13-.71-1.26-2.14 0-2.38 2.12-3.57 6.37-3.57 2.54-.63 6.7-.95 12.46-.95zm13.21-4.39c.7.33 1.05.72 1.05 1.18-3.34 10.76-5.01 17.57-5.01 20.45-.95 1.1-1.74 1.66-2.39 1.66-1.05-.37-1.58-.84-1.58-1.4 1.67-14.58 3.87-21.87 6.61-21.87h1.32zm-6.24 26.39c1.66.32 2.49 1.18 2.49 2.6v.23c-.67 2.23-2.27 3.34-4.8 3.34-1.25 0-2.01-.87-2.27-2.6 0-2 1.53-3.19 4.57-3.57z" fill="#000"/><path d="M829.686 598.91c157.66 4.084 302.21-6.206 472.588-1.948 16.872-8.49-2.81 39.292-7.603 87.354-163.64-4.894-311.1 5.115-464.45-2.346l-.52-83.06z" stroke="#000" stroke-width="3" fill="#A0892C"/><path d="M832.54 732.832c1.9-51.49 18.45-101.745 4.067-152.316 2.893-5.38-36.51-4.053-28.573 1.86 15.587 49.78-2.557 99.932-2.606 149.724l27.112.732z" stroke="#000" stroke-width="3" fill="#A0892C"/><path d="M1251.12 534.245c94.898-.59 100.38 68.652 1.528 73.61-121.75 6.104-110.634-72.934-1.527-73.61z" stroke="#050202" stroke-width="2.964" fill="#806600"/><path d="M1318.22 732.91c1.852-100.058 17.968-197.72 3.96-295.994 2.82-10.457-35.556-7.877-27.827 3.613 15.18 96.73-2.49 194.19-2.537 290.95l26.404 1.42z" stroke="#000" stroke-width="3" fill="#A0892C"/><path d="M952.707 540.154c-8.256-2.02-17.256 4.88-24.374 19.448-6.738 13.793-16.712 24.218-4.024 32.045 7.07 4.362 23.58-.75 21.85-11.16 1.27 5.708 1.04 16.97 4.83 16.917 5.54-.078 11.69-5.59 8.54-16.646-.77-2.702-.52-5.356-1.29-7.508.24-.664.49-1.333.66-2.032 3.89-15.725 2.05-29.044-6.21-31.064z" stroke="#050202" stroke-width="4" fill="#DEAA87"/><path d="M980.376 432.677l6.42 25.512-32.094 109.7-35.943-17.86c14.29-53.08 33.65-94.85 61.61-117.36z" stroke="#050202" stroke-width="4" fill="#D45500"/><path d="M1132.744 540.154c8.257-2.02 17.256 4.88 24.374 19.448 6.738 13.793 16.712 24.218 4.025 32.045-7.072 4.362-23.59-.75-21.853-11.16-1.27 5.708-1.045 16.97-4.835 16.917-5.542-.078-11.69-5.59-8.542-16.646.77-2.702.52-5.356 1.29-7.508-.243-.664-.495-1.333-.668-2.032-3.896-15.725-2.048-29.044 6.21-31.064z" stroke="#050202" stroke-width="4" fill="#DEAA87"/><path d="M977.222 394.95c0 18.873 6.68 36.972 18.572 50.316 11.89 13.345 28.02 20.842 44.836 20.842 35.02 0 63.408-31.858 63.408-71.157 0-39.29-28.39-71.15-63.408-71.15-16.817 0-32.945 7.5-44.836 20.84-11.89 13.35-18.572 31.45-18.572 50.32z" stroke="#000" stroke-width="4" fill="#502D16"/><path d="M1105.075 432.677l-6.418 25.512 32.092 109.7 35.94-17.86c-14.3-53.08-33.65-94.85-61.62-117.36z" stroke="#050202" stroke-width="4" fill="#D45500"/><path d="M1042.174 756.678c0 4.737 3.45 9.28 9.588 12.628 6.138 3.35 14.464 5.23 23.146 5.23s17.008-1.88 23.147-5.23c6.138-3.35 9.587-7.89 9.587-12.628 0-9.863-14.655-17.858-32.734-17.858-18.08 0-32.734 7.995-32.734 17.858zm-77.664 2.552c0 4.736 3.45 9.278 9.59 12.627 6.137 3.35 14.463 5.23 23.145 5.23s17.008-1.88 23.147-5.23c6.138-3.35 9.587-7.89 9.587-12.627 0-9.863-14.66-17.86-32.74-17.86-18.08 0-32.74 7.997-32.74 17.86z" stroke="#050202" stroke-width="4" fill="#2B1100"/><path d="M956.965 572.816c-5.312 57.704-13.83 155.543-1.1 167.46 40.528 17.86 135.08 24.402 166.502-10.627 15.363-30.41 2.52-103.85 6.155-154.13 7.352-101.74-2.75-180.56-91.68-181.75-75.67-1.01-84.808 77.64-79.877 179.04z" stroke="#050202" stroke-width="4" fill="#D45500"/><path d="M994.024 376.775c0 15.19 4.973 29.76 13.824 40.5 8.852 10.74 20.858 16.776 33.376 16.776 12.52 0 24.524-6.03 33.376-16.77 8.852-10.74 13.825-25.31 13.825-40.5 0-15.19-4.973-29.76-13.825-40.5-8.852-10.74-20.857-16.77-33.376-16.77-12.518 0-24.524 6.04-33.376 16.78-8.85 10.74-13.824 25.31-13.824 40.5z" stroke="#050202" stroke-width="3.9" fill="#DEAA87"/><path d="M1051.315 364.582c0 2.366 1.93 4.284 4.312 4.284 2.38 0 4.31-1.918 4.31-4.284 0-1.136-.453-2.226-1.26-3.03-.81-.803-1.907-1.254-3.05-1.254-1.144 0-2.24.45-3.05 1.254-.808.804-1.262 1.894-1.262 3.03zm-28.692.49c0 2.367 1.93 4.285 4.312 4.285 2.38 0 4.312-1.918 4.312-4.284 0-1.137-.455-2.226-1.263-3.03-.81-.803-1.906-1.255-3.05-1.255-1.143 0-2.24.452-3.048 1.255-.808.804-1.263 1.893-1.263 3.03z" fill="#000"/><path d="M1057.696 411.39h-32.977l-6.93 341.755c12.94 1.288 32.29 2.33 42.21.46l-2.31-342.215z" stroke="#000" stroke-width="4" fill="#2CA02C"/><path d="M1040.8 450.743c19.038-.05 37.06-43.186 37.06-43.186 20.02-38.054-91.07-33.08-72.737 2.066 0 0 17.464 41.17 35.676 41.12z" stroke="#000" stroke-width="4" fill="#502D16"/><path d="M1064.063 418.648c-5.977-5.79-43.623-2.11-46.878.65-3.255 2.758 14.83-22.454 24.174-22.4 9.34.056 28.68 27.54 22.7 21.75z" stroke="#000" stroke-width="4" fill="#DEAA87"/><path d="M956.368 559.717l172.53.163c-2.172 6.185-1.142 15.017-.49 22.607l-171.387-.324-.65-22.446z" stroke="#000" stroke-width="3.895" fill="#520"/><path d="M1014.753 304.532c-34.89 5.744-47.745 87.934-37.67 141.127 1.79 8.45 13.22 10.25 19.91 6.48 5.924-2.58 7.12-9.25 7.446-14.97.96-13.77-6.41-76.7 3.65-88.05 10.05-11.36 63.83-8.61 72.8 3.58 8.96 12.19-5.26 85.77 2.28 101.04 7.03 8.76 24.27 4.58 25.39-6.92-2.23-16.83 5.46-84.41 2.82-98.23-2.64-13.82-15.85-35.62-27.21-39.89-26.01-9.78-34.54-9.94-69.43-4.19z" stroke="#050202" stroke-width="3.897" fill="#2CA02C"/><path d="M1100.113 324.54c2.652 6.538 10.69 15.902 10.093 23.896l-128.456.91c2.004-7.155 3.03-13.08 9.06-23.768l109.303-1.037z" stroke="#000" stroke-width="4" fill="#520"/><path d="M538.473 336c-36.418 0-69.004 11.52-90.893 29.658-7.51-1.045-15.295-1.602-23.24-1.602-65.907 0-119.34 37.686-119.34 84.167 0 20.03 9.94 38.42 26.505 52.87-7.4 10.953-11.555 23.237-11.555 36.178 0 46.49 53.433 84.17 119.34 84.17 7.325 0 14.472-.52 21.432-1.41 21.88 19.03 55.257 31.23 92.702 31.23 34.73 0 65.998-10.49 87.806-27.2 8.356 1.31 17.018 2.02 25.932 2.02 63.562 0 115.504-35.06 119.118-79.25 25.526-15.44 41.72-38.33 41.72-63.9 0-38.05-35.802-70.17-84.94-80.59-15.79-33.44-60.534-57.56-113.252-57.56-10.667 0-20.988 1.02-30.827 2.87-17.73-7.38-38.42-11.63-60.5-11.63z" stroke="#000" stroke-width="4.161" fill="#FFF"/><path d="M406.688 418.03h1.61c.53 0 .796.335.796 1-1.25 10.803-1.875 18.293-1.875 22.47v2.75c-.36 1.833-1.24 2.75-2.66 2.75h-.55l-1.07-1c.71-11.323 1.6-20.312 2.67-26.97l1.06-1zm34.296 3.94c1.355 0 2.032.56 2.032 1.686v.422c0 1.552-1.21 2.328-3.625 2.328l-4.51.22c-1.35 7.218-2.03 13.426-2.03 18.624-.36 1.125-.74 1.688-1.12 1.688h-.69c-.78 0-1.23-.214-1.35-.64.76-7.99 1.59-14.48 2.49-19.47l-6.78 1.063c-.63 0-1.01-.63-1.12-1.9 0-2.11 1.89-3.17 5.66-3.17 2.26-.56 5.96-.84 11.08-.84zm18.08.014c.738.198 1.108.703 1.108 1.516v.203c-1.042 15.386-1.78 23.078-2.22 23.078l-.233.22h-.66c-.77 0-1.29-.36-1.56-1.07.29-2.05.43-4.92.43-8.62h-.22l-9.35 2.16-.66.86v4.1c0 1.22-.45 2.09-1.35 2.6h-.44c-.84 0-1.36-.36-1.57-1.07 1.03-15.53 2.52-23.3 4.45-23.3h.44l.67.88c-1.04 5.16-1.56 8.97-1.56 11.43 6.82-.9 10.23-1.97 10.23-3.23l.89-9.06 1.56-.64zm7.53-.062h1.47c.488 0 .733.286.733.86-1.146 9.353-1.72 15.843-1.72 19.468v2.375c-.322 1.583-1.134 2.375-2.436 2.375h-.48l-.98-.86c.66-9.812 1.48-17.598 2.46-23.36l.97-.858zm7.094.062c.947 0 2.083 1.782 3.406 5.344 2.562 5.25 5.41 9.74 8.547 13.47 1.06-10.282 1.84-16.34 2.35-18.173l.86-.64h.64c.43 0 .64.286.64.86-1.28 14.686-2.06 22.525-2.34 23.514l-1.28.42c-2.28 0-6.12-4.85-11.53-14.53l-.86-.86-.22.64-.64 9.84v1.28l.22 1.28c-.19 1.71-.75 2.56-1.7 2.56-.87-.32-1.37-.74-1.5-1.28 1.1-15.4 1.88-23.1 2.35-23.1l1.08-.64zm22.328.14l.625.86-.62 8.125 12.75-7.07c.55.68.83 1.54.83 2.56-1.44 2.02-5.13 4.59-11.08 7.7v.22c2.75 3.57 5.89 6.56 9.41 8.96v.44c0 1.99-.7 2.98-2.09 2.98l-10.43-8.55c-.41 5.69-.83 8.54-1.25 8.54l-1.04.22c-.69-.23-1.04-.66-1.04-1.29l.83-10.05-.2-2.56c.48 0 .9-3.14 1.25-9.42.58-1.14 1.27-1.71 2.1-1.71zm37.937-4.03h.47c.77.427 1.155 1.083 1.155 1.97v.498c0 5.344.458 11.605 1.375 18.782h.235c5.083-13.51 8.078-20.266 8.984-20.266h.687c.67 0 1.75 4.698 3.21 14.094 1.38 4.812 2.08 8.844 2.08 12.094-.45 1.156-1.14 1.734-2.08 1.734-.62 0-1.46-4.036-2.53-12.11l-1.85-7.906c-1.33 2.157-3.71 7.756-7.14 16.797-.99 1.03-1.84 1.6-2.53 1.74-2 0-3-2.72-3-8.15L531.88 427h-.236l-6.9 15.81c-.42 2.636-.806 3.954-1.16 3.954h-.92l-.92-.983v-1.23c0-2.21 1.92-6.99 5.763-14.32 2.73-7.7 4.494-11.65 5.297-11.86l1.14-.25zm29.735 3.937h.75c1.03 0 2.338 4.77 3.92 14.3 1.25 4.5 1.876 7.56 1.876 9.17-.26.86-.76 1.28-1.5 1.28-.958 0-1.645-2.27-2.062-6.82l-.188-.2h-.187c-1.625.02-5.052 1.02-10.28 2.99-.5 2.85-1.314 4.27-2.44 4.27-.75-.29-1.124-.86-1.124-1.7 0-1.64 3.432-9.18 10.297-22.62l.938-.64zm-.375 5.97c-1.5 2.71-2.875 5.56-4.125 8.55h1.312c1.27 0 2.896-.28 4.875-.86l-1.688-7.69h-.375zm20.156-6.01h2.15c3.3 0 4.95 1.15 4.95 3.46v.22c0 4.04-3.45 7.7-10.35 11v.21c3.45 3.17 6.32 5.54 8.62 7.13v.64c0 1.12-.36 1.84-1.08 2.16h-.86l-11.85-8.4-.22 4.32v3.23c-.37.72-.94 1.08-1.72 1.08-.58 0-1.01-.28-1.3-.86v-1.29l1.93-16.83c-.57 0-.86-.42-.86-1.28 0-2.59 2.15-4.1 6.45-4.53l4.09-.22zm-7.54 11.64h.22c7.46-1.91 11.18-4 11.18-6.25v-.22c0-.39-.72-.68-2.16-.86-2.39 0-5.26.51-8.61 1.52l-.64 5.81zm16.54-11.59l4.78 7.25 2.09 1.72c2.64-4.71 4.49-7.55 5.53-8.54h.95l.76.86c-.11.76-3.1 6.1-8.97 16-1.48 2.78-2.56 5.27-3.25 7.47l-.56.22c-.9-.41-1.35-1.05-1.35-1.92.05-1.11 1.58-4.6 4.58-10.45-4.33-4.64-6.49-8.41-6.49-11.31.8-.85 1.43-1.28 1.9-1.28zm28.92-.04h.22c.67 0 1.24.35 1.7 1.05-.99 7.21-1.7 13.66-2.13 19.35l12.19-2.51.42.62v1.27c0 1.92-4.42 3.67-13.25 5.25-1.57-.28-2.36-.77-2.36-1.47 1.17-15.41 2.02-23.12 2.56-23.12l.64-.42zm26.59 0c4.44.62 6.67 3.28 6.67 7.99 0 6.17-2.44 11.27-7.31 15.31-2.01 1.15-3.81 1.72-5.39 1.72-3.87 0-6.36-2.08-7.47-6.25l-.16-1.93v-.65c0-6.73 3.07-11.83 9.21-15.31 1.54-.57 3.02-.86 4.44-.86zm-11.58 16.82c1.6 2.44 3.72 3.66 6.36 3.66 4.24 0 7.2-2.51 8.89-7.54l.31-2.37c0-3.54-1.75-5.62-5.24-6.25h-.49c-2.89 0-5.9 2.88-9.05 8.63-.53 1.73-.8 3.03-.8 3.89zm36.53-16.83h.62c.56.23.84.73.84 1.5 0 1.04-2.18 5.53-6.53 13.47-2.14 5.95-3.47 9.16-4 9.63l-2.1.43c-.92 0-1.55-1.64-1.91-4.92-2.8-9.88-4.21-15.94-4.21-18.17.23-.64.65-1.14 1.26-1.5h.84c.76 0 1.53 3 2.31 8.99l2.53 9.41h.2c1.45-3.85 4.61-9.98 9.47-18.39l.64-.42zm18.17.05c.72.16 1.08.71 1.08 1.64-.23 1.77-.95 2.66-2.14 2.66-7.86 0-11.78 1.1-11.78 3.28l-.22 1.85v1.02c5.13-1.23 8.63-1.84 10.5-1.84h.43c.72.32 1.08 1 1.08 2.05 0 1.5-1 2.25-3 2.25-6.57.86-9.86 1.88-9.86 3.08l-.2 2.05v.81c0 1.23.78 1.91 2.34 2.05 2.46-.27 5.53-.88 9.22-1.84h.64c.57.22.86.7.86 1.44v.61c0 1.68-3.58 2.98-10.72 3.89h-.64c-2.58 0-4-1.63-4.28-4.9 0-2.4.5-6.98 1.5-13.72l-.42-1.23c0-2.77 4.28-4.4 12.84-4.9l2.78-.2zm14.33 0h.33c1.44.18 2.16.88 2.16 2.1v.42c0 2.11-.72 4.07-2.15 5.88h-.33c-.23-.06-.46-.41-.67-1.04l.84-3.14-.66-.42c-1.53.14-4.35 1.82-8.44 5.03v.21l10.9 2.11c1.1.88 1.66 2.35 1.66 4.41v1.25c0 2.83-1.82 5.27-5.46 7.35-1.42.57-2.8.85-4.14.85h-.34c-3.79 0-6.11-1.67-6.94-5.03v-1.26c0-1.54.39-2.31 1.16-2.31.76 2.67 2.14 4 4.14 4 0 .27.83.41 2.48.41 2.45 0 4.82-1.25 7.11-3.77 0-1.66-3.53-2.72-10.58-3.15-2.54-.7-3.81-1.75-3.81-3.14 0-3.4 3.41-6.83 10.25-10.28l2.48-.42zm-308.54 42h.75c1.03 0 2.34 4.77 3.92 14.3 1.25 4.5 1.87 7.56 1.87 9.18-.26.86-.76 1.28-1.5 1.28-.96 0-1.65-2.27-2.06-6.82l-.19-.2h-.19c-1.63.02-5.05 1.02-10.28 2.98-.5 2.85-1.32 4.27-2.44 4.27-.75-.29-1.13-.86-1.13-1.7 0-1.64 3.43-9.19 10.29-22.62l.94-.64zm-.38 5.97c-1.5 2.71-2.88 5.56-4.13 8.55h1.32c1.27 0 2.9-.28 4.88-.86l-1.69-7.69h-.38zm11.95-6.01c.94 0 2.08 1.78 3.4 5.35 2.56 5.25 5.41 9.74 8.54 13.47 1.05-10.28 1.83-16.34 2.34-18.17l.86-.64h.64c.42 0 .64.29.64.86-1.28 14.69-2.06 22.53-2.35 23.52l-1.28.42c-2.29 0-6.13-4.84-11.54-14.53l-.86-.86-.22.64-.64 9.85v1.28l.21 1.29c-.19 1.71-.76 2.56-1.71 2.56-.88-.31-1.38-.74-1.5-1.28 1.09-15.39 1.87-23.09 2.34-23.09l1.08-.64zm31.36 0c4.44.62 6.67 3.28 6.67 7.99 0 6.17-2.44 11.27-7.32 15.31-2.01 1.15-3.81 1.72-5.39 1.72-3.87 0-6.36-2.08-7.47-6.25l-.16-1.94v-.65c0-6.73 3.07-11.83 9.21-15.31 1.55-.57 3.02-.86 4.44-.86zm-11.6 16.83c1.6 2.44 3.72 3.66 6.36 3.66 4.24 0 7.2-2.51 8.89-7.55l.31-2.37c0-3.54-1.75-5.62-5.24-6.25h-.49c-2.89 0-5.9 2.88-9.05 8.63-.53 1.73-.8 3.03-.8 3.89zm36.61-16.84c1.35 0 2.03.56 2.03 1.69v.42c0 1.56-1.21 2.33-3.63 2.33l-4.51.22c-1.35 7.22-2.03 13.43-2.03 18.63-.36 1.13-.74 1.69-1.12 1.69h-.69c-.78 0-1.24-.21-1.36-.64.76-7.99 1.59-14.48 2.48-19.47l-6.78 1.07c-.64 0-1.01-.63-1.13-1.9 0-2.11 1.88-3.17 5.65-3.17 2.26-.56 5.95-.84 11.08-.84zm18.08.02c.74.2 1.11.71 1.11 1.52v.2c-1.05 15.39-1.79 23.08-2.22 23.08l-.24.22h-.66c-.77 0-1.3-.36-1.57-1.08.29-2.05.44-4.92.44-8.62h-.22l-9.35 2.16-.66.86v4.09c0 1.22-.45 2.08-1.34 2.59h-.44c-.83 0-1.35-.36-1.56-1.08 1.03-15.53 2.52-23.3 4.45-23.3h.44l.67.87c-1.04 5.16-1.56 8.97-1.56 11.42 6.82-.89 10.23-1.97 10.23-3.23l.89-9.06 1.56-.64zm19.21.05c.72.16 1.08.71 1.08 1.64-.23 1.77-.94 2.66-2.14 2.66-7.85 0-11.78 1.1-11.78 3.28l-.22 1.85v1.01c5.13-1.23 8.63-1.85 10.5-1.85h.42c.72.31 1.08.99 1.08 2.04 0 1.5-1 2.25-3 2.25-6.57.86-9.86 1.88-9.86 3.08l-.2 2.05v.81c0 1.23.78 1.91 2.35 2.05 2.46-.27 5.53-.89 9.22-1.84h.64c.57.22.86.7.86 1.44v.61c0 1.68-3.57 2.98-10.72 3.89h-.64c-2.57 0-4-1.63-4.28-4.9 0-2.4.5-6.98 1.5-13.72l-.42-1.23c0-2.77 4.28-4.41 12.84-4.91l2.78-.2zm12.72-.04H517c3.31 0 4.96 1.15 4.96 3.45v.22c0 4.03-3.444 7.69-10.34 11v.2c3.45 3.16 6.324 5.54 8.626 7.12v.64c0 1.11-.36 1.83-1.08 2.15h-.86l-11.843-8.4-.22 4.31v3.24c-.36.72-.934 1.08-1.715 1.08-.575 0-1.007-.28-1.3-.86v-1.29l1.94-16.83c-.575 0-.86-.43-.86-1.29 0-2.59 2.15-4.1 6.45-4.53l4.09-.22zm-7.53 11.64h.22c7.46-1.92 11.19-4 11.19-6.25v-.22c0-.4-.72-.69-2.15-.86-2.38 0-5.25.5-8.61 1.51l-.64 5.81zM544.95 464h.41c.67.36 1 .93 1 1.7v.44c0 4.62.41 10.04 1.22 16.25h.207c4.456-11.69 7.08-17.53 7.873-17.53h.61c.593 0 1.536 4.06 2.83 12.18 1.21 4.17 1.81 7.65 1.81 10.47-.396 1-1 1.5-1.81 1.5-.54 0-1.28-3.5-2.22-10.49l-1.625-6.83c-1.157 1.856-3.246 6.7-6.267 14.533-.867.885-1.607 1.385-2.22 1.5-1.75 0-2.627-2.354-2.627-7.063l-1-8.97h-.2l-6.06 13.67c-.36 2.284-.7 3.424-1.01 3.424h-.79l-.81-.84v-1.08c0-1.916 1.68-6.046 5.05-12.39 2.4-6.667 3.95-10.09 4.64-10.266l1.02-.22zm27.19.04h.75c1.03 0 2.34 4.76 3.92 14.3 1.25 4.5 1.88 7.55 1.88 9.17-.26.85-.76 1.28-1.5 1.28-.96 0-1.647-2.28-2.063-6.83l-.19-.21h-.19c-1.623.02-5.05 1.018-10.28 2.986-.5 2.84-1.31 4.262-2.44 4.262-.75-.29-1.12-.86-1.12-1.7 0-1.646 3.43-9.19 10.296-22.625l.94-.64zm-.37 5.97c-1.5 2.71-2.876 5.55-4.126 8.54h1.316c1.274 0 2.9-.287 4.878-.86l-1.69-7.69h-.37zm11.953-6.02c.95 0 2.085 1.78 3.41 5.34 2.56 5.25 5.41 9.74 8.55 13.47 1.05-10.285 1.83-16.34 2.34-18.176l.86-.64h.64c.43 0 .64.285.64.86-1.28 14.685-2.06 22.524-2.343 23.513l-1.28.42c-2.284 0-6.128-4.847-11.534-14.53l-.86-.86-.22.64-.64 9.84v1.28l.216 1.28c-.19 1.71-.752 2.564-1.7 2.564-.876-.31-1.376-.74-1.5-1.28 1.09-15.39 1.874-23.09 2.34-23.09l1.08-.64zm20.58 19.68c1.397 0 2.266.85 2.61 2.55 0 1.696-1.22 2.623-3.656 2.78-1.22-.46-1.83-1.23-1.83-2.314v-.23c.48-1.86 1.437-2.78 2.875-2.78zm24.985-23.64h1.61c.534 0 .8.335.8 1-1.25 10.8-1.877 18.29-1.877 22.47v2.75c-.35 1.834-1.24 2.75-2.65 2.75h-.54l-1.06-1c.71-11.322 1.6-20.31 2.68-26.97l1.07-1zm30.188 4h.33c1.437.178 2.156.876 2.156 2.095v.42c0 2.103-.72 4.06-2.158 5.874h-.328c-.23-.07-.453-.41-.67-1.05l.843-3.14-.66-.43c-1.53.13-4.34 1.81-8.44 5.03v.2l10.9 2.11c1.1.87 1.66 2.34 1.66 4.41v1.25c0 2.82-1.82 5.27-5.46 7.34-1.43.56-2.81.84-4.14.84h-.34c-3.79 0-6.11-1.68-6.94-5.03v-1.26c0-1.54.38-2.31 1.15-2.31.76 2.66 2.14 4 4.14 4 0 .27.83.4 2.48.4 2.45 0 4.82-1.25 7.11-3.77 0-1.67-3.53-2.72-10.58-3.16-2.55-.71-3.82-1.76-3.82-3.14 0-3.41 3.41-6.83 10.25-10.28l2.48-.42zm22.91-.06c1.354 0 2.03.56 2.03 1.685v.42c0 1.55-1.207 2.33-3.624 2.33l-4.518.22c-1.354 7.215-2.03 13.423-2.03 18.62-.365 1.12-.74 1.685-1.126 1.685h-.687c-.78 0-1.23-.21-1.36-.64.76-7.99 1.59-14.48 2.49-19.47l-6.78 1.066c-.63 0-1.01-.634-1.12-1.905 0-2.11 1.89-3.17 5.66-3.17 2.26-.56 5.95-.84 11.08-.84zm6.406-.05h1.467c.49 0 .74.286.74.86-1.15 9.353-1.72 15.843-1.72 19.468v2.38c-.32 1.58-1.14 2.373-2.44 2.373h-.48l-.98-.86c.65-9.81 1.47-17.59 2.45-23.36l.97-.85zm6.873.06h.22c.675 0 1.243.35 1.7 1.05-.99 7.21-1.7 13.657-2.13 19.345l12.19-2.52.42.622v1.266c0 1.92-4.42 3.67-13.25 5.25-1.576-.28-2.36-.77-2.36-1.47 1.165-15.413 2.02-23.122 2.56-23.122l.64-.42zm16.14 0h.22c.676 0 1.243.35 1.702 1.05-.99 7.21-1.7 13.657-2.127 19.345l12.186-2.52.42.622v1.266c0 1.92-4.417 3.67-13.25 5.25-1.573-.28-2.36-.77-2.36-1.47 1.165-15.413 2.02-23.122 2.56-23.122l.64-.42zm-334.485 42h.22c.674 0 1.242.35 1.7 1.05-.99 7.21-1.7 13.657-2.126 19.345l12.19-2.52.42.622v1.266c0 1.92-4.41 3.67-13.25 5.25-1.57-.28-2.36-.77-2.36-1.47 1.17-15.413 2.02-23.122 2.57-23.122l.64-.42zm26.592 0c4.45.617 6.67 3.278 6.67 7.987 0 6.164-2.44 11.27-7.314 15.31-2.01 1.146-3.81 1.72-5.39 1.72-3.867 0-6.356-2.084-7.47-6.25l-.157-1.94v-.655c0-6.73 3.08-11.834 9.22-15.313 1.54-.57 3.02-.86 4.44-.86zM392.33 522.8c1.605 2.437 3.725 3.656 6.36 3.656 4.24 0 7.204-2.52 8.89-7.55l.314-2.375c0-3.54-1.747-5.62-5.237-6.25h-.48c-2.886 0-5.9 2.88-9.048 8.63-.53 1.73-.8 3.03-.8 3.89zm36.533-16.83h.625c.566.23.847.73.847 1.5 0 1.043-2.176 5.533-6.53 13.47-2.135 5.948-3.47 9.156-4 9.625l-2.094.422c-.91 0-1.55-1.64-1.9-4.923-2.8-9.88-4.2-15.94-4.2-18.17.23-.644.65-1.144 1.27-1.5h.84c.76 0 1.53 2.997 2.31 8.987l2.53 9.41h.21c1.46-3.85 4.62-9.98 9.47-18.39l.64-.42zm18.17.048c.72.16 1.08.705 1.08 1.64-.23 1.77-.943 2.66-2.14 2.66-7.855 0-11.782 1.092-11.782 3.28l-.22 1.843v1.02c5.13-1.23 8.63-1.84 10.5-1.84h.43c.72.31 1.08.99 1.08 2.04 0 1.5-1 2.25-3 2.25-6.57.86-9.86 1.88-9.86 3.08l-.2 2.05v.81c0 1.23.79 1.91 2.35 2.05 2.46-.27 5.53-.88 9.22-1.84h.64c.57.22.86.7.86 1.44v.61c0 1.68-3.57 2.97-10.72 3.89h-.64c-2.57 0-4-1.63-4.28-4.9 0-2.41.5-6.98 1.5-13.72l-.42-1.23c0-2.77 4.28-4.4 12.85-4.9l2.78-.2zm31.064-.045c.74.197 1.11.7 1.11 1.515v.202c-1.044 15.385-1.784 23.077-2.22 23.077l-.236.22h-.65c-.77 0-1.29-.36-1.56-1.078.29-2.05.44-4.93.44-8.63h-.22l-9.34 2.15-.65.86v4.09c0 1.22-.45 2.08-1.34 2.59h-.44c-.83 0-1.35-.36-1.56-1.08 1.04-15.53 2.52-23.3 4.46-23.3h.44l.67.87c-1.04 5.15-1.56 8.96-1.56 11.42 6.83-.9 10.24-1.98 10.24-3.24l.89-9.06 1.57-.64zm19.22.046c.715.16 1.075.7 1.075 1.64-.23 1.77-.945 2.65-2.14 2.65-7.857 0-11.78 1.09-11.78 3.28l-.22 1.84v1.01c5.123-1.23 8.623-1.85 10.5-1.85h.42c.72.31 1.077 1 1.077 2.05 0 1.5-1 2.25-3 2.25-6.58.85-9.86 1.88-9.86 3.08l-.2 2.04v.81c0 1.23.78 1.91 2.34 2.04 2.46-.27 5.53-.89 9.22-1.84h.64c.57.22.86.7.86 1.44v.61c0 1.67-3.58 2.97-10.72 3.89h-.64c-2.58 0-4-1.64-4.28-4.91 0-2.41.5-6.98 1.5-13.72l-.43-1.23c0-2.77 4.28-4.41 12.84-4.91l2.78-.21zm12.715-.05h2.155c3.307 0 4.958 1.15 4.958 3.45v.21c0 4.03-3.447 7.7-10.343 11v.2c3.447 3.16 6.322 5.54 8.624 7.12v.64c0 1.11-.36 1.83-1.077 2.15h-.86l-11.85-8.41-.22 4.31v3.23c-.36.72-.93 1.08-1.72 1.08-.57 0-1-.29-1.3-.86v-1.29l1.93-16.83c-.58 0-.86-.43-.86-1.28 0-2.6 2.15-4.11 6.45-4.53l4.09-.22zm-7.53 11.64h.22c7.46-1.92 11.184-4 11.184-6.25v-.22c0-.4-.718-.68-2.156-.86-2.384 0-5.254.5-8.61 1.51l-.64 5.81zm37.53-11.6c4.22 0 6.33 1.44 6.33 4.32v.64c0 2.01-.957 3.94-2.86 5.81v.22c3.133.94 4.7 2.52 4.7 4.73v.86c0 3.6-3.54 6.25-10.626 7.95l-3.483.43h-2.03c-1.096 0-1.643-.57-1.643-1.72v-.21l1.64-17.66c-.687 0-1.03-.14-1.03-.42v-1.3c0-2.44 3-3.66 9-3.66zm-5.94 9.69h.22c6.394 0 9.59-1.44 9.59-4.31-1.05-.71-2.82-1.06-5.31-1.06h-2.454c-1.083 0-1.624.5-1.624 1.5l-.423 3.87zm-.407 4.09l-.41 6.87 2.047.43.2-.22h1.02c5.725-.75 8.59-2.11 8.59-4.08-1.885-2.01-4.817-3.02-8.796-3.02h-.813l-.2-.22-.202.22h-1.43zm20.232-13.83c.668.27 1.038.55 1.11.84-1.187 7.42-1.78 12.82-1.78 16.18v2.31c3.98 0 7.24-1.83 9.78-5.47 1-8.84 1.964-13.25 2.89-13.25h.235c.884.09 1.33.31 1.33.64-1.337 8.04-2 14.07-2 18.08v3.36c0 1.1-.45 1.87-1.347 2.31h-.89l-.874-.85v-.42l.22-3.57c-.53 0-3.42 1.33-8.67 3.98l-1.56.42c-1.78-.23-2.67-1-2.67-2.31v-.2c1.08-14.72 2.34-22.08 3.78-22.08h.45zm31.564-.02c1.36 0 2.03.56 2.03 1.69v.42c0 1.55-1.21 2.32-3.62 2.32l-4.51.22c-1.35 7.22-2.03 13.43-2.03 18.62-.36 1.13-.74 1.69-1.12 1.69h-.69c-.78 0-1.23-.21-1.36-.64.76-7.99 1.59-14.48 2.49-19.47l-6.78 1.06c-.63 0-1.01-.64-1.12-1.91 0-2.12 1.89-3.17 5.66-3.17 2.26-.57 5.96-.85 11.08-.85zm20.36-3.94h1.61c.53 0 .8.34.8 1-1.25 10.8-1.87 18.29-1.87 22.47v2.75c-.35 1.83-1.24 2.75-2.65 2.75h-.54l-1.06-1c.71-11.32 1.6-20.31 2.67-26.97l1.07-1zm9.94.02c1.52.49 2.29 1.16 2.29 2-.32 1.32-2.32 4.23-5.98 8.72h-1.43l-1.12-.89v-.67l4.28-6.92c.29-1.49.96-2.23 1.99-2.23zm6.22 3.94h.22c.68 0 1.25.35 1.71 1.04-.99 7.21-1.7 13.65-2.12 19.34l12.19-2.52.42.62v1.27c0 1.91-4.41 3.66-13.25 5.25-1.57-.28-2.35-.77-2.35-1.47 1.17-15.42 2.02-23.13 2.57-23.13l.64-.42zm16.14 0h.22c.68 0 1.25.35 1.71 1.04-.99 7.21-1.7 13.65-2.12 19.34l12.19-2.52.43.62v1.27c0 1.91-4.41 3.66-13.25 5.25-1.57-.28-2.36-.77-2.36-1.47 1.17-15.42 2.02-23.13 2.57-23.13l.64-.42zm42.91 0c.74.19 1.11.7 1.11 1.51v.2c-1.04 15.38-1.78 23.07-2.22 23.07l-.23.22h-.65c-.77 0-1.29-.36-1.56-1.08.29-2.06.44-4.93.44-8.63h-.22l-9.34 2.15-.66.86v4.09c0 1.22-.44 2.08-1.34 2.59h-.44c-.83 0-1.35-.36-1.56-1.08 1.03-15.53 2.52-23.3 4.46-23.3h.44l.67.87c-1.04 5.16-1.56 8.97-1.56 11.42 6.83-.89 10.24-1.97 10.24-3.23l.89-9.06 1.56-.64zm12.16.04h.75c1.03 0 2.34 4.76 3.92 14.29 1.25 4.5 1.88 7.55 1.88 9.17-.26.85-.76 1.28-1.5 1.28-.96 0-1.64-2.28-2.06-6.83l-.19-.21h-.18c-1.62.02-5.05 1.01-10.28 2.98-.5 2.84-1.31 4.26-2.43 4.26-.75-.29-1.12-.86-1.12-1.7 0-1.65 3.43-9.19 10.3-22.63l.93-.64zm-.37 5.97c-1.5 2.7-2.87 5.55-4.12 8.54h1.3c1.27 0 2.9-.29 4.88-.86l-1.68-7.69h-.37zm25.8-6.02h.63c.56.23.84.73.84 1.5 0 1.04-2.17 5.53-6.53 13.47-2.13 5.95-3.47 9.15-4 9.62l-2.09.42c-.91 0-1.55-1.64-1.9-4.92-2.8-9.89-4.2-15.95-4.2-18.17.23-.65.65-1.15 1.27-1.5h.84c.76 0 1.53 2.99 2.31 8.98l2.53 9.4h.21c1.46-3.86 4.62-9.99 9.47-18.39l.64-.42zm18.17.05c.72.15 1.08.7 1.08 1.64-.23 1.77-.94 2.65-2.14 2.65-7.85 0-11.78 1.09-11.78 3.28l-.21 1.84v1.01c5.13-1.23 8.63-1.84 10.5-1.84h.42c.72.31 1.08.99 1.08 2.04 0 1.5-1 2.25-3 2.25-6.57.85-9.86 1.88-9.86 3.08l-.2 2.05v.81c0 1.23.78 1.91 2.35 2.04 2.46-.27 5.53-.89 9.22-1.84h.64c.57.22.86.7.86 1.44v.61c0 1.67-3.57 2.97-10.72 3.89h-.64c-2.57 0-4-1.64-4.28-4.91 0-2.41.5-6.98 1.5-13.72l-.42-1.23c0-2.77 4.28-4.41 12.84-4.91l2.78-.21zm-341.24 41.94c1.36 0 2.03.56 2.03 1.68v.42c0 1.55-1.2 2.33-3.62 2.33l-4.52.22c-1.35 7.22-2.03 13.42-2.03 18.62-.36 1.12-.74 1.68-1.12 1.68h-.68c-.78 0-1.23-.21-1.36-.64.76-7.99 1.59-14.48 2.49-19.47l-6.78 1.06c-.63 0-1.01-.63-1.12-1.9 0-2.12 1.89-3.17 5.66-3.17 2.26-.57 5.96-.85 11.08-.85zm15.05.01c4.45.61 6.67 3.27 6.67 7.98 0 6.17-2.44 11.27-7.31 15.31-2.01 1.15-3.81 1.72-5.39 1.72-3.86 0-6.35-2.08-7.47-6.25l-.15-1.94v-.66c0-6.73 3.07-11.84 9.22-15.32 1.54-.57 3.02-.86 4.44-.86zM399 564.81c1.604 2.44 3.724 3.658 6.36 3.658 4.24 0 7.202-2.51 8.89-7.55l.313-2.37c0-3.54-1.745-5.62-5.235-6.25h-.484c-2.886 0-5.9 2.88-9.047 8.63-.53 1.73-.797 3.03-.797 3.89zm42.156-16.78c4.22 0 6.328 1.438 6.328 4.31v.64c0 2.01-.953 3.95-2.86 5.816v.22c3.136.94 4.704 2.52 4.704 4.73v.86c0 3.61-3.542 6.26-10.625 7.96l-3.484.43h-2.04c-1.1 0-1.64-.58-1.64-1.72v-.22l1.64-17.66c-.69 0-1.03-.14-1.03-.42v-1.3c0-2.438 3-3.657 9-3.657zm-5.937 9.688h.21c6.39 0 9.59-1.44 9.59-4.31-1.05-.71-2.83-1.06-5.31-1.06h-2.46c-1.09 0-1.63.5-1.63 1.5l-.42 3.88zm-.41 4.09l-.41 6.88 2.04.44.2-.22h1.01c5.73-.75 8.59-2.11 8.59-4.07-1.89-2.01-4.82-3.01-8.8-3.01h-.82l-.2-.22-.2.22h-1.44zm27.22-13.82h2.15c3.3 0 4.95 1.15 4.95 3.46v.22c0 4.03-3.45 7.7-10.35 11v.2c3.45 3.17 6.32 5.54 8.62 7.13v.64c0 1.118-.36 1.836-1.08 2.16h-.86l-11.85-8.41-.22 4.31v3.235c-.37.72-.94 1.08-1.72 1.08-.57 0-1.01-.287-1.3-.86v-1.297l1.94-16.83c-.58 0-.86-.426-.86-1.28 0-2.594 2.15-4.105 6.45-4.53l4.09-.22zm-7.53 11.64h.22c7.45-1.91 11.18-4 11.18-6.25v-.22c0-.39-.72-.68-2.16-.86-2.39 0-5.26.51-8.61 1.52l-.64 5.82zm31.34-11.59c.72.16 1.08.71 1.08 1.65-.23 1.77-.95 2.66-2.14 2.66-7.86 0-11.78 1.094-11.78 3.28l-.22 1.845v1.016c5.12-1.23 8.62-1.85 10.5-1.85h.42c.72.31 1.08.99 1.08 2.04 0 1.5-1 2.25-3 2.25-6.58.85-9.86 1.88-9.86 3.08l-.21 2.04v.81c0 1.23.78 1.91 2.34 2.04 2.46-.27 5.53-.89 9.22-1.84h.64c.57.22.86.7.86 1.44v.61c0 1.67-3.58 2.97-10.72 3.89h-.64c-2.58 0-4-1.64-4.28-4.91 0-2.41.5-6.98 1.5-13.72l-.43-1.23c0-2.77 4.28-4.41 12.84-4.91l2.78-.2zm10.73 0h.75c1.03 0 2.34 4.77 3.92 14.3 1.25 4.5 1.87 7.56 1.87 9.17-.26.86-.76 1.28-1.5 1.28-.96 0-1.65-2.27-2.07-6.82l-.19-.2h-.19c-1.63.02-5.05 1.02-10.28 2.987-.5 2.845-1.32 4.267-2.44 4.267-.75-.29-1.13-.86-1.13-1.7 0-1.647 3.43-9.19 10.29-22.626l.94-.64zm-.37 5.97c-1.5 2.71-2.88 5.56-4.13 8.55h1.31c1.27 0 2.89-.28 4.87-.86l-1.67-7.7h-.38zm13.15-5.87l.62.86-.62 8.13 12.75-7.07c.55.687.82 1.54.82 2.56-1.44 2.02-5.13 4.59-11.08 7.704v.22c2.75 3.57 5.88 6.56 9.4 8.967v.44c0 1.99-.7 2.98-2.1 2.98l-10.44-8.55c-.42 5.69-.83 8.54-1.25 8.54l-1.05.22c-.7-.23-1.05-.66-1.05-1.29l.83-10.05-.21-2.57c.48 0 .89-3.14 1.25-9.42.57-1.14 1.27-1.71 2.09-1.71zm31.5-.14c.66.27 1.03.55 1.11.85-1.19 7.427-1.79 12.823-1.79 16.188v2.314c3.98 0 7.24-1.824 9.78-5.47 1-8.833 1.96-13.25 2.89-13.25h.23c.88.094 1.33.31 1.33.64-1.34 8.043-2 14.07-2 18.08v3.36c0 1.103-.45 1.873-1.35 2.31h-.89l-.88-.843v-.425l.21-3.56c-.53 0-3.42 1.33-8.67 3.984l-1.57.42c-1.78-.23-2.67-1-2.67-2.31v-.206c1.08-14.72 2.34-22.08 3.78-22.08h.45zm25.81 0c4.13 0 6.2 1.22 6.2 3.64 0 4.8-4.53 9.15-13.6 13.03-.67 0-1 .43-1 1.29-.1 4.708-.56 7.06-1.41 7.06h-1c-.27-.06-.54-.415-.8-1.06l1.8-17.53h-.2c-.53 0-.8-.65-.8-1.94 0-2.1 1.2-3.31 3.61-3.63l7.19-.86zm-8 12.41c4.57-1.19 8.04-3.19 10.4-5.98l.39-1.29v-.422l-1-.215h-1c-5.32.29-7.99.79-7.99 1.5l-.81 6.42zm29.06-12.36c.7 0 1.04 2.42 1.04 7.25l1.4 9.19h.34c0-.53 1.4-3.38 4.2-8.54.44-3.403 1.25-5.11 2.45-5.11h.34c.71 0 1.29 2.63 1.75 7.89.78 3.598 1.37 5.73 1.75 6.41.38-1.812 2.25-7.15 5.61-16.015.49-.56.96-.842 1.41-.842.62 0 1.03.28 1.22.85 0 .73-1.75 5.49-5.25 14.3-.59 2.09-1.11 4.94-1.58 8.55-.38.71-.85 1.06-1.41 1.06-1.06 0-1.88-2.41-2.44-7.25-1.15-4.72-1.85-7.28-2.11-7.68l-3.5 6.83c-.59 1.33-1.11 3.61-1.58 6.83-.31.52-.78.88-1.39 1.06-.98 0-1.8-3.69-2.46-11.09-.94-5.23-1.41-9.43-1.41-12.59 0-.43.53-.78 1.58-1.06zm26.54-.1h1.47c.49 0 .73.29.73.86-1.15 9.356-1.72 15.846-1.72 19.47v2.378c-.33 1.58-1.14 2.373-2.44 2.373h-.49l-.99-.86c.65-9.81 1.47-17.6 2.45-23.36l.97-.86zm21.01.05c1.35 0 2.03.56 2.03 1.687v.42c0 1.55-1.21 2.33-3.63 2.33l-4.52.22c-1.36 7.215-2.03 13.423-2.03 18.62-.37 1.126-.74 1.69-1.13 1.69h-.69c-.78 0-1.24-.215-1.36-.64.76-7.99 1.59-14.48 2.48-19.47l-6.79 1.06c-.64 0-1.01-.633-1.13-1.904 0-2.12 1.89-3.17 5.66-3.17 2.26-.56 5.95-.84 11.08-.84zm18.08.015c.74.2 1.11.705 1.11 1.518v.21c-1.04 15.39-1.78 23.08-2.22 23.08l-.24.22h-.66c-.77 0-1.29-.36-1.56-1.08.29-2.05.43-4.93.43-8.62H650l-9.34 2.16-.66.86v4.09c0 1.22-.45 2.09-1.34 2.6h-.44c-.834 0-1.355-.36-1.564-1.07 1.03-15.53 2.512-23.3 4.45-23.3h.44l.67.88c-1.04 5.16-1.564 8.97-1.564 11.43 6.82-.9 10.232-1.98 10.232-3.24l.89-9.06 1.563-.64zm32.48 0c.74.2 1.11.705 1.11 1.518v.21c-1.05 15.39-1.79 23.08-2.22 23.08l-.24.22h-.66c-.77 0-1.3-.36-1.57-1.08.29-2.05.44-4.93.44-8.62h-.22l-9.34 2.16-.66.86v4.09c0 1.22-.45 2.09-1.34 2.6h-.44c-.84 0-1.36-.36-1.56-1.07 1.03-15.53 2.51-23.3 4.45-23.3h.43l.67.88c-1.04 5.16-1.56 8.97-1.56 11.43 6.82-.9 10.23-1.98 10.23-3.24l.89-9.06 1.56-.64zm19.21.05c.72.16 1.08.704 1.08 1.64-.23 1.77-.94 2.656-2.14 2.656-7.85 0-11.78 1.09-11.78 3.28l-.22 1.84v1.01c5.13-1.23 8.63-1.85 10.5-1.85h.42c.72.31 1.08.99 1.08 2.05 0 1.5-1 2.25-3 2.25-6.57.85-9.86 1.88-9.86 3.07l-.2 2.05v.81c0 1.23.78 1.91 2.34 2.05 2.45-.27 5.53-.88 9.22-1.84h.64c.57.22.86.7.86 1.44v.61c0 1.67-3.58 2.97-10.72 3.89h-.64c-2.58 0-4-1.64-4.29-4.91 0-2.41.5-6.98 1.5-13.72l-.42-1.24c0-2.77 4.28-4.41 12.84-4.91l2.78-.21zm12.72-.046h2.16c3.3 0 4.95 1.15 4.95 3.45v.22c0 4.03-3.45 7.7-10.34 11v.2c3.44 3.17 6.32 5.54 8.62 7.126v.64c0 1.117-.36 1.835-1.08 2.158h-.86l-11.84-8.4-.22 4.31v3.24c-.36.72-.94 1.08-1.72 1.08-.57 0-1-.28-1.3-.86v-1.29l1.93-16.83c-.58 0-.86-.42-.86-1.28 0-2.59 2.15-4.1 6.45-4.53l4.09-.22zm-7.53 11.64h.22c7.46-1.92 11.19-4 11.19-6.25v-.22c0-.398-.72-.68-2.16-.86-2.39 0-5.26.504-8.61 1.514l-.64 5.81zm17.52 8.05c1.39 0 2.26.85 2.61 2.542 0 1.7-1.22 2.62-3.66 2.78-1.22-.46-1.83-1.23-1.83-2.31v-.23c.48-1.86 1.44-2.78 2.87-2.78z" fill="#000"/></g></svg>