<svg width="1540" height="820" viewBox="0 0 1540 820" xmlns="http://www.w3.org/2000/svg"><title>story18</title><g fill="none" fill-rule="evenodd"><path fill="green" d="M1540 280H0v540h1540z"/><path d="M1540 0v738.94c-177.35-42.932-446.83-70.377-748.677-70.377C464.2 668.563 175.01 700.743 0 750V0h1540z" fill="navy"/><path fill="#FFE680" d="M446.43 339.667l11.36-10.835 13.362 8.236-6.795-14.15 11.963-10.164-15.558 2.09-5.97-14.52-2.82 15.443-15.652 1.19 13.814 7.456m603.46 114.594l15.566-1.806 5.697 14.6 3.093-15.36 15.644-.9-13.654-7.69 3.972-15.15-11.532 10.61-13.19-8.46 6.528 14.25-12.124 9.93m252.582 68.19l14.286-7.04 10.435 12.04-2.28-15.76 14.668-6.2-15.696-2.7-1.37-15.87-7.42 14.09-15.52-3.6 11.11 11.41-8.22 13.64m-383 20.41l7.18-14.16 15.52 3.36-11.25-11.21 7.98-13.73-14.14 7.24-10.59-11.84 2.51 15.68-14.53 6.41 15.69 2.46 1.6 15.8M72.11 151.34l11.36-10.833 13.362 8.236-6.795-14.15L102 124.428l-15.558 2.088L80.472 112l-2.82 15.442L62 128.632l13.815 7.455m-15.25 316.176l5.874-14.546 15.56 1.99-12.02-10.082 6.7-14.184-13.3 8.32L51.96 413l3.8 15.22L42 435.758l15.65 1.092 2.915 15.413M579.573 230.38l15.698 2.777 1.3 15.888 7.49-14.07 15.52 3.674-11.06-11.48 8.29-13.62-14.33 6.98-10.39-12.09 2.21 15.79-14.71 6.14m-189 270.99l6.56-14.35 15.54 2.7-11.62-10.67 7.37-13.95-13.73 7.75-10.98-11.32 3.13 15.46-14.16 6.95 15.67 1.8 2.24 15.61m680.96-381.12l11.36-10.84 13.36 8.24-6.8-14.15 11.97-10.17-15.55 2.09-5.97-14.52-2.82 15.44-15.65 1.19 13.82 7.45m-659.4-18.41l14.29-7.04 10.44 12.03-2.28-15.77L453 69.57l-15.696-2.702L435.934 51l-7.42 14.092-15.514-3.6 11.11 11.412-8.22 13.642m-252.528 514.03l9.634-13.07 15.087 6-9.453-13.2L189 567.813l-15.477 4.91L164.845 559l-.112 16.237L149 579.25l15.407 5.123-1.045 16.204M707.155 571.8l11.615 10.672-7.376 13.943 13.74-7.748 10.98 11.324-3.12-15.46 14.16-6.94-15.668-1.81-2.23-15.61-6.56 14.35-15.54-2.7M1412.81 99.15l10.977-11.33 13.746 7.74-7.385-13.94 11.61-10.68-15.54 2.715-6.57-14.343-2.22 15.618-15.67 1.817 14.168 6.94-3.115 15.464m30.81 507.2l9.02 13.36-10.63 12.11 15.49-4.45 8.24 13.86.56-16.1 15.72-3.55-15.14-5.5 1.48-16.05-9.91 12.71-14.8-6.37M827.7 241.26l8.312 13.61-11.05 11.493 15.51-3.7 7.52 14.06 1.276-15.895 15.7-2.8-14.726-6.123 2.185-15.796-10.375 12.11-14.35-6.96"/><g transform="translate(874 529)"><rect fill="#000" x="96.016" y="118.701" width="24.023" height="91.815" rx="8"/><rect fill="#000" x="193.867" y="118.701" width="24.023" height="91.815" rx="8"/><path d="M192.792 3.834c-12.403 0-23.862 3.004-33.24 8.05-8.636-3.932-18.757-6.195-29.585-6.195-30.703 0-55.73 18.18-57.185 41.04-14.587 7.82-24.106 20.64-24.106 35.16 0 23.83 25.627 43.17 57.265 43.17 3.43 0 6.79-.28 10.05-.71 8.69 15.5 29.04 26.4 52.78 26.4 17.35 0 32.9-5.82 43.41-15 2.14.18 4.32.31 6.52.31 28.47 0 52.07-15.65 56.51-36.15 13.93-7.88 22.96-20.45 22.96-34.57 0-23.83-25.66-43.13-57.3-43.13-.39 0-.77-.01-1.15 0-10.37-11.1-27.52-18.39-46.9-18.39z" stroke="#000" stroke-width="3.458" fill="#FFF"/><rect fill="#000" x="230.719" y="119.069" width="24.023" height="91.815" rx="8"/><rect fill="#000" x="130.327" y="118.701" width="24.023" height="91.815" rx="8"/><ellipse stroke="#000" stroke-width="3.5" fill="#CCC" transform="rotate(32 91.97 35.598)" cx="91.971" cy="35.598" rx="14.614" ry="17.679"/><ellipse stroke="#000" stroke-width="3.5" fill="#CCC" cx="36.793" cy="27.5" rx="16.5" ry="20.5"/><path d="M64.82 22.504c18.807 6.514 27.182 31.633 18.705 56.104-4.07 11.752-11.562 21.78-20.826 27.877-9.27 6.097-19.55 7.765-28.58 4.637-9.03-3.13-16.08-10.797-19.59-21.32-3.51-10.52-3.19-23.033.88-34.785 4.07-11.75 11.56-21.777 20.82-27.877 9.26-6.09 19.54-7.76 28.57-4.63z" stroke="#000" stroke-width="3.458" fill="#CCC"/><path d="M46.738 47.16c1.357 3.24-.187 6.974-3.448 8.34-3.26 1.364-7.004-.156-8.36-3.396-1.357-3.24.187-6.974 3.448-8.34 3.26-1.365 7.004.155 8.36 3.396z" fill="#000"/><path d="M26.43 74.81c9.742 21.522 21.763 16.996 39.237 9.23" stroke="#000" stroke-width="3.458" stroke-linecap="round"/><path d="M72.062 53.443c1.357 3.24-.187 6.974-3.448 8.34-3.26 1.364-7.004-.156-8.36-3.396-1.358-3.24.186-6.974 3.447-8.34 3.27-1.364 7.01.156 8.37 3.396z" fill="#000"/></g><path d="M1203.756 571.036c8.256-2.02 17.256 4.88 24.373 19.45 6.73 13.792 16.71 24.217 4.02 32.043-7.07 4.36-23.59-.75-21.85-11.16-1.27 5.7-1.05 16.97-4.84 16.91-5.54-.08-11.69-5.59-8.54-16.65.77-2.7.52-5.36 1.29-7.51-.24-.66-.5-1.33-.67-2.03-3.9-15.73-2.05-29.05 6.21-31.07z" stroke="#050202" stroke-width="4" fill="#FFF6D5"/><path d="M1176.087 455.983l-6.42 25.512 32.093 109.7 35.944-17.857c-14.297-53.076-33.65-94.846-61.617-117.355z" stroke="#050202" stroke-width="4" fill="#502D16"/><path d="M1023.72 571.036c-8.258-2.02-17.257 4.88-24.375 19.45-6.738 13.792-16.712 24.217-4.025 32.043 7.072 4.36 23.59-.75 21.853-11.16 1.268 5.7 1.045 16.97 4.835 16.91 5.542-.08 11.69-5.59 8.54-16.65-.768-2.7-.52-5.36-1.287-7.51.25-.66.5-1.33.67-2.03 3.9-15.73 2.05-29.05-6.21-31.07z" stroke="#050202" stroke-width="4" fill="#FFF6D5"/><path d="M1051.388 455.983l6.418 25.512-32.092 109.7-35.943-17.857c14.3-53.076 33.65-94.846 61.62-117.355z" stroke="#050202" stroke-width="4" fill="#502D16"/><path d="M1114.29 779.984c0 4.737-3.45 9.28-9.59 12.628-6.138 3.35-14.464 5.23-23.145 5.23-8.682 0-17.008-1.88-23.147-5.23-6.14-3.35-9.587-7.89-9.587-12.628 0-9.863 14.66-17.858 32.74-17.858s32.74 7.995 32.74 17.858zm77.662 2.552c0 4.736-3.45 9.278-9.588 12.627-6.14 3.35-14.465 5.23-23.146 5.23-8.682 0-17.008-1.88-23.147-5.23-6.13-3.35-9.58-7.89-9.58-12.627 0-9.863 14.66-17.86 32.74-17.86s32.74 7.997 32.74 17.86z" stroke="#050202" stroke-width="4" fill="#504416"/><path d="M1199.498 596.122c5.312 57.704 13.268 154.976 1.1 167.46-12.475 12.798-66.365 23.52-87.332 15.192-20.24-8.04-63.808 4.587-79.17-25.82-15.363-30.405-2.52-103.843-6.155-154.126-7.35-101.737 2.75-180.562 91.68-181.75 75.67-1.01 84.81 77.644 79.88 179.044z" stroke="#050202" stroke-width="4" fill="#5AA02C"/><path d="M1027.73 585.322l172.532.162c-2.173 6.186-1.144 15.018-.49 22.608l-171.39-.324-.652-22.446z" stroke="#000" stroke-width="3.895" fill="#502D16"/><path d="M1164.923 398.954c0 15.19-4.973 29.76-13.825 40.5-8.852 10.742-20.858 16.776-33.376 16.776-12.518 0-24.524-6.034-33.376-16.776-8.852-10.74-13.825-25.31-13.825-40.5 0-15.19 4.98-29.76 13.83-40.5 8.85-10.742 20.86-16.776 33.38-16.776s24.53 6.034 33.38 16.776c8.85 10.74 13.83 25.31 13.83 40.5z" stroke="#050202" stroke-width="3.9" fill="#FFF6D5"/><path d="M1164.856 355.155c-4.483.767-8.95 3.354-10.652 7.483-1.114 2.88.146 6.25 2.633 8.134.93 1.502-.536 3.018-1.544 4.08-1.83 2.32-2.128 5.716-.4 8.16 1.317 2.803.826 6.287-1.294 8.63-1.55 2.55-.93 5.757.54 8.207.39 1.52 2.16 2.57 1.94 4.26.63 1.63-1.06 2.92-2 4.08-1.38 2.18-1.61 4.88-.95 7.31.23 2.5-1.23 5.16.2 7.5 2.88 4.52 8.61 7.09 14.14 6.84 4.81.03 9.76-2 12.55-5.77 1.38-2.17 1.63-4.87.85-7.27.06-2.56 1.26-5.39-.35-7.74-1.01-1.17-1.36-2.67-1.49-4.13-.85-.82-1.98-2.23-1.05-3.33 3.15-1.76 4.16-5.86 2.95-8.99-.24-1.57-2.22-2.45-2.45-3.8 1.39-1.08-1.28-2.5.72-3.25 2.31-1.47 3.4-4.22 3.36-6.77-.1-1.78-.79-3.59-2.3-4.74-1.29-.95-1.16-2.66-.1-3.71 1.19-1.32 2.3-2.83 2.36-4.63.36-3.93-2.53-7.65-6.28-9.15-3.37-1.43-7.18-1.72-10.82-1.56-.21.03-.41.06-.61.1z" stroke="#050202" stroke-width="3.897" fill="#FFF"/><path d="M1072.932 336.11c-1.474 3.213-2.91 4.472-2.713 2.68.19-1.79-1.81-2.776-3.39-3.114-4.86-1.494-10.83 1.106-12.31 5.81-.82 2.176-.43 4.53.19 6.698.24 1.668-1.27 2.75-2.47 3.69-1.76 1.22-3.31 2.846-3.8 4.903-1.05 3.153-.39 6.844 1.97 9.334.96 2.07-.79 4-1.85 5.67-1.42 3-1 6.54.53 9.42.38 2.88-2.83 4.68-3.03 7.44-.74 3.56.86 7.59 4.22 9.48 1.1 1.03.69 2.73-.32 3.67-2.31 3.65-1.63 8.73 1.58 11.71 1.43 2.28-.7 4.73-.32 7.11.38 5.03 5.61 9.43 11.01 8.76 3.55-1.09 7.11-2.35 10.89-2.51 5.58-1.53 8.91-8.13 6.35-13.11-.56-1.22-1-2.51-1.19-3.84-1.33-.01-1.6-2.3-.16-2.35 2.34-.56 3.23-3.31 2.4-5.27-.42-4.09-1.38-8.28-3.63-11.84-1.08-.97-.94-2.4-.05-3.41.91-2.04.92-4.36 2.06-6.32 1.3-2.78.65-6.02-1.07-8.51-.68-.85-1.08-2.22 0-2.96 1.23-.82 2.82-1.11 3.78-2.29 1.07-.98 1.54-2.5 2.74-3.32 1.73-.42 2.81 1.39 4.33 1.8 3.51 1.53 7.89.82 10.77-1.57 1.45-.53 2.59.91 3.06 2.02 2.56 4.14 8.78 5.83 13.24 3.45.77-1.07 2.99-1.39 3.58 0 1.94 2.49 4.06 5.42 7.54 5.95 4.4.87 9.28-1.31 11.26-5.13 1.59-1.3 3.69-.18 5.43.2 3.68.83 7.34-1.04 9.95-3.38 3.03-2.12 7.52-1.22 10.21-3.93 2.88-2.84 3.93-7.3 2.34-10.96.13-2.53 3.24-3.69 3.65-6.14 1.9-4.88-1.39-11.12-6.9-12.21-1.67-.36-3.41-.35-5.1-.1-1.36-.95-.04-2.62-.6-3.85-1.25-5.04-7.21-8.74-12.61-7.37-.947.52-2.458 1.22-3.26.12-1.52-4.19-6.45-6.95-11.09-6.36-3.717.55-6.957 3.26-7.988 6.67-3.906-3.33-10.67-3.05-14.15.71-.01 1.33-2.53 1.5-2.665.15-3.148-4.71-11.2-5.42-15.148-1.23-1.35 1.27-2.16 2.95-2.74 4.64-2.75.11-5.59-1.56-8.24-.21-3.68 1.24-4.9 6.08-6.38 9.29z" stroke="#050202" stroke-width="3.897" fill="#FFF"/><path d="M1106.36 393.075c0 2.366-1.93 4.285-4.31 4.285-2.382 0-4.313-1.92-4.313-4.285 0-1.136.455-2.226 1.263-3.03.81-.803 1.905-1.254 3.05-1.254 1.142 0 2.24.46 3.048 1.26.808.81 1.262 1.9 1.262 3.03z" fill="#000"/><path d="M1076.735 418.444c0 1.65.627 3.18 1.71 4.447-2.99 1.35-4.994 3.92-4.994 6.86 0 4.35 4.39 7.88 9.81 7.88.75 0 1.47-.08 2.16-.21.06.1.12.21.18.3-2 .77-3.66 2.04-4.63 3.64-.88-.21-1.82-.29-2.79-.29-5.41 0-9.8 3.53-9.8 7.88 0 1.9.85 3.64 2.25 5-.54.98-.81 2.09-.81 3.22 0 4.12 3.96 7.5 9 7.84-1.09 1.27-1.71 2.83-1.71 4.49 0 1.12.29 2.17.81 3.13-1.42 1.37-2.29 3.16-2.29 5.08 0 2.85 1.94 5.31 4.77 6.69-.25.7-.4 1.45-.4 2.21 0 4.35 4.39 7.84 9.81 7.84 1.66 0 3.22-.31 4.59-.89-.37.83-.58 1.7-.58 2.63 0 4.34 4.44 7.88 9.85 7.88 1.73 0 3.36-.38 4.77-1.01 1.73 2.23 4.76 3.73 8.28 3.73 4.28 0 7.93-2.18 9.27-5.25 1.55 2.71 4.99 4.58 8.95 4.58 5.42 0 9.81-3.53 9.81-7.87 0-.16-.03-.31-.04-.46 4.56-.67 8.05-3.89 8.05-7.75 0-1.14-.35-2.2-.9-3.17 1.88-1.43 3.06-3.47 3.06-5.72 0-4.34-4.39-7.88-9.8-7.88-.12 0 5.45-3.95 5.45-7.15 0-.65-.09-1.3-.27-1.91 3.18-1.3 5.35-3.93 5.35-6.99 0-3.59-3-6.64-7.1-7.58 1.69-1.41 2.74-3.3 2.74-5.42 0-1.27-.36-2.49-1.03-3.55 2.81-1.38 4.68-3.89 4.68-6.73 0-1.14-.31-2.2-.85-3.18 1.43-1.37 2.3-3.12 2.3-5.04 0-4.34-4.39-7.88-9.804-7.88-.87 0-1.72.13-2.52.3-.82-.18-1.68-.3-2.565-.3-5.42 0-9.805 3.54-9.805 7.88 0 .56.04 1.13.18 1.66-2 .68-3.66 1.88-4.726 3.388-1.52-.78-3.32-1.27-5.26-1.27-3.41 0-6.425 1.39-8.18 3.51-1.608-.91-3.51-1.44-5.62-1.44-1.52 0-2.95.27-4.23.764-.94-3.57-4.908-6.27-9.63-6.27-.748 0-1.46.08-2.16.21-.19-.3-.398-.62-.63-.89 2.98-1.35 4.99-3.92 4.99-6.86 0-4.35-4.388-7.84-9.8-7.84s-9.81 3.49-9.81 7.83z" stroke="#050202" stroke-width="3.897" fill="#FFF"/><path d="M1094.54 422.045c2.29.78 3.25-2.06 17.47-1.88 5.14 5.325 8.27-.396 11.638-.92 11.485 1.88 6.71 5.615 8.938 5.454" stroke="#000" stroke-width="3.897"/><path d="M1136.323 393.566c0 2.366-1.93 4.284-4.31 4.284-2.383 0-4.313-1.918-4.313-4.284 0-1.136.454-2.226 1.263-3.03.808-.803 1.905-1.254 3.05-1.254 1.142 0 2.24.45 3.047 1.254.81.804 1.263 1.894 1.263 3.03z" fill="#000"/><path d="M1449 575.816c6.32 29.473-8.272 38.884-37.143 24.104-31.23-15.987-46.618-12.668-41.907-23.052 5.263-11.6 19.454-28.583 41.907-23.052 13.266 3.268 23.213 13.89 37.144 22zm-264.368-9.832c-8.256-2.02-17.256 4.88-24.373 19.448-6.74 13.793-16.72 24.218-4.03 32.045 7.07 4.362 23.59-.75 21.85-11.16 1.27 5.708 1.04 16.97 4.83 16.917 5.54-.078 11.69-5.59 8.54-16.646-.77-2.702-.52-5.356-1.29-7.508.24-.664.49-1.333.66-2.032 3.89-15.725 2.05-29.044-6.21-31.064z" stroke="#050202" stroke-width="4" fill="#FFF6D5"/><path d="M1212.3 450.93l6.42 25.512-32.092 109.7-35.944-17.857c14.297-53.075 33.65-94.846 61.617-117.355z" stroke="#050202" stroke-width="4" fill="#5AA02C"/><path d="M1275.202 774.932c0 4.736-3.448 9.278-9.587 12.627-6.14 3.35-14.465 5.23-23.147 5.23-8.68 0-17.007-1.88-23.146-5.23-6.14-3.35-9.588-7.9-9.588-12.63 0-9.87 14.656-17.86 32.734-17.86 18.08 0 32.734 7.99 32.734 17.86zm77.663 2.55c0 4.737-3.448 9.28-9.587 12.63-6.14 3.35-14.465 5.23-23.147 5.23-8.68 0-17-1.88-23.14-5.23-6.14-3.35-9.59-7.89-9.59-12.628 0-9.863 14.66-17.858 32.74-17.858 18.08 0 32.74 7.995 32.74 17.858z" stroke="#050202" stroke-width="4" fill="#504416"/><path d="M1418.072 769.947c-.96-115.94-2.082-257.882-5.103-343.078-1.54-43.19 80.63-71.57 91.1 4.32 1.22 5.69-5.44 11.85-13.34 10.65-12.93-68.94-61.65-28.87-61.48-12.79 1.17 112.37 6.89 227.08 5.4 339.23l-16.6 1.65z" stroke="#000" stroke-width="4" fill="#A0892C"/><path d="M1428.32 562.74c0 4.106-6.03 7.435-13.47 7.435s-13.47-3.33-13.47-7.436c0-4.11 6.03-7.44 13.47-7.44s13.47 3.33 13.47 7.43z" stroke="#050202" stroke-width="4" fill="#FFF6D5"/><path d="M1345.805 456.032c16.122 32.878 37.41 60.623 60.334 86.74 3.16 33.08-6.36 40.936-12.84 54.852-24.11-6.32-33.9-9.798-41.08-12.756l-6.42-128.836z" stroke="#050202" stroke-width="4" fill="#5AA02C"/><path d="M1360.41 591.07c5.313 57.704 13.27 154.975 1.103 167.458-12.477 12.8-66.367 23.52-87.334 15.193-20.24-8.03-63.81 4.59-79.17-25.81-15.37-30.4-2.52-103.84-6.16-154.12-7.36-101.73 2.75-180.56 91.68-181.75 75.67-1.01 84.81 77.65 79.88 179.05z" stroke="#050202" stroke-width="4" fill="#447821"/><path d="M1323.353 395.028c0 15.19-4.973 29.76-13.825 40.5-8.852 10.742-20.858 16.776-33.376 16.776-12.518 0-24.524-6.034-33.376-16.776-8.852-10.74-13.825-25.31-13.825-40.5 0-15.19 4.98-29.76 13.83-40.5 8.85-10.742 20.86-16.776 33.38-16.776s24.53 6.034 33.38 16.776c8.85 10.74 13.83 25.31 13.83 40.5z" stroke="#050202" stroke-width="3.9" fill="#FFF6D5"/><path d="M1264.79 389.15c0 2.365-1.93 4.284-4.31 4.284-2.382 0-4.313-1.92-4.313-4.285 0-1.14.454-2.23 1.263-3.03.81-.81 1.905-1.26 3.05-1.26 1.142 0 2.24.45 3.048 1.25.808.8 1.262 1.89 1.262 3.03z" fill="#000"/><path d="M1237.053 484.21c8.892 15.9 49.965 26.485 63.198 17.536 12.4-21.513 16.59-56.46 12.79-80.73-6.68-4.162-11.91-6.06-27.98-5.74-4.87.1-22 1.21-28.46.754-43.28-3.056-29.82 33.885-19.53 68.18z" stroke="#050202" stroke-width="3.897" fill="#28170B"/><path d="M1294.753 389.64c0 2.366-1.93 4.284-4.312 4.284-2.38 0-4.31-1.918-4.31-4.284 0-1.136.46-2.226 1.27-3.03.81-.803 1.91-1.254 3.05-1.254s2.24.45 3.05 1.254c.81.804 1.27 1.894 1.27 3.03z" fill="#000"/><path d="M1188.643 580.27l172.532.162c-2.173 6.185-1.143 15.018-.49 22.608l-171.388-.325-.654-22.445z" stroke="#000" stroke-width="3.895" fill="#502D16"/><path d="M1245.758 325.084c-34.89 5.745-47.745 87.934-37.67 141.127 1.79 8.46 13.22 10.26 19.91 6.49 5.924-2.57 7.12-9.25 7.446-14.96.96-13.76-6.4-76.69 3.65-88.05 10.053-11.35 63.84-8.61 72.802 3.59 8.962 12.2-5.26 85.78 2.287 101.05 7.035 8.77 24.268 4.59 25.395-6.92-2.223-16.82 5.463-84.4 2.82-98.22-2.642-13.82-15.85-35.62-27.21-39.89-26.007-9.77-34.54-9.93-69.43-4.19z" stroke="#050202" stroke-width="3.897" fill="#5AA02C"/><path d="M1331.118 345.093c2.652 6.538 10.69 15.9 10.093 23.895l-128.45.91c2.01-7.155 3.03-13.08 9.06-23.768l109.31-1.037z" stroke="#000" stroke-width="4" fill="#502D16"/><path d="M1248.694 426.344c5.976 5.79 43.623 2.11 46.878-.65 3.254-2.758-14.83 22.454-24.174 22.4-9.346-.056-28.68-27.54-22.704-21.75z" stroke="#000" stroke-width="4" fill="#FFF6D5"/><path d="M572.568 570.807c-6.32 29.472 8.274 38.883 37.145 24.104 31.23-15.98 46.617-12.66 41.906-23.05-5.27-11.6-19.46-28.58-41.91-23.05-13.27 3.27-23.22 13.89-37.15 22z" stroke="#050202" stroke-width="4" fill="#FFF6D5"/><path d="M597.42 764.938c-1.164-115.976-11.295-229.172-2.49-343.08-1.77-12.12 22.353-9.128 17.494 4.188-9.543 112.128 1.565 225.09 1.595 337.243l-16.6 1.64z" stroke="#000" stroke-width="4" fill="#A0892C"/><path d="M593.25 557.73c0 4.106 6.03 7.436 13.47 7.436s13.47-3.33 13.47-7.436c0-4.107-6.03-7.437-13.47-7.437s-13.47 3.33-13.47 7.437z" stroke="#050202" stroke-width="4" fill="#FFF6D5"/><path d="M675.764 451.023c-16.122 32.877-37.408 60.623-60.333 86.74-3.16 33.08 6.36 40.936 12.84 54.85 24.1-6.32 33.9-9.797 41.08-12.755l6.42-128.835z" stroke="#050202" stroke-width="4" fill="#504416"/><path d="M836.937 560.974c8.257-2.02 17.256 4.88 24.374 19.45 6.74 13.792 16.72 24.217 4.03 32.043-7.07 4.363-23.59-.75-21.85-11.16-1.27 5.71-1.04 16.97-4.83 16.917-5.54-.077-11.69-5.59-8.54-16.645.77-2.71.52-5.36 1.29-7.51-.24-.67-.49-1.34-.66-2.03-3.9-15.73-2.05-29.05 6.21-31.07z" stroke="#050202" stroke-width="4" fill="#FFF6D5"/><path d="M809.268 445.92l-6.418 25.513 32.092 109.7 35.943-17.857c-14.296-53.076-33.65-94.846-61.617-117.355zm-62.9 324.002c0 4.737 3.45 9.28 9.587 12.628 6.138 3.35 14.465 5.23 23.146 5.23 8.69 0 17.01-1.88 23.15-5.23 6.14-3.35 9.59-7.89 9.59-12.628 0-9.863-14.65-17.858-32.73-17.858-18.07 0-32.73 7.995-32.73 17.858zm-77.664 2.552c0 4.736 3.45 9.278 9.588 12.627 6.138 3.35 14.465 5.24 23.146 5.24 8.682 0 17.008-1.88 23.147-5.23 6.14-3.35 9.587-7.89 9.587-12.63 0-9.86-14.655-17.86-32.734-17.86-18.078 0-32.734 8-32.734 17.86z" stroke="#050202" stroke-width="4" fill="#504416"/><path d="M661.158 586.06c-5.312 57.704-13.268 154.976-1.1 167.46 12.475 12.798 66.365 23.52 87.332 15.192 20.24-8.04 63.808 4.587 79.17-25.82 15.363-30.405 2.52-103.843 6.155-154.126 7.352-101.737-2.75-180.562-91.68-181.75-75.67-1.01-84.808 77.644-79.877 179.044z" stroke="#050202" stroke-width="4" fill="#806600"/><path d="M698.217 390.02c0 15.19 4.973 29.758 13.825 40.5 8.85 10.74 20.857 16.775 33.376 16.775 12.518 0 24.524-6.035 33.375-16.776 8.852-10.75 13.825-25.31 13.825-40.5 0-15.2-4.973-29.76-13.825-40.51-8.85-10.74-20.857-16.78-33.375-16.78-12.52 0-24.525 6.03-33.376 16.77-8.852 10.74-13.825 25.31-13.825 40.5z" stroke="#050202" stroke-width="3.9" fill="#FFF6D5"/><path d="M756.78 384.14c0 2.366 1.93 4.284 4.31 4.284 2.382 0 4.312-1.918 4.312-4.284 0-1.137-.454-2.226-1.263-3.03-.81-.803-1.91-1.255-3.05-1.255-1.15 0-2.24.452-3.05 1.255-.81.804-1.27 1.893-1.27 3.03z" fill="#000"/><path d="M784.516 479.2c-8.89 15.9-49.965 26.485-63.198 17.536-12.39-21.513-16.588-56.46-12.782-80.73 6.686-4.16 11.913-6.06 27.983-5.738 4.87.097 22 1.21 28.46.753 43.28-3.05 29.82 33.89 19.53 68.18z" stroke="#050202" stroke-width="3.897" fill="#803300"/><path d="M726.816 384.63c0 2.367 1.93 4.285 4.312 4.285 2.38 0 4.312-1.918 4.312-4.284 0-1.13-.455-2.22-1.263-3.03-.81-.8-1.905-1.25-3.05-1.25-1.142 0-2.24.45-3.048 1.26-.81.81-1.27 1.9-1.27 3.03z" fill="#000"/><path d="M832.926 575.26l-172.532.162c2.173 6.186 1.144 15.018.49 22.608l171.39-.324.652-22.446z" stroke="#000" stroke-width="3.895" fill="#2D5016"/><path d="M775.81 320.075c34.89 5.744 47.747 87.934 37.673 141.126-1.79 8.46-13.22 10.26-19.913 6.49-5.923-2.57-7.118-9.25-7.445-14.96-.96-13.76 6.402-76.69-3.65-88.05-10.053-11.35-63.84-8.61-72.8 3.59-8.964 12.2 5.26 85.78-2.288 101.05-7.035 8.76-24.268 4.58-25.395-6.92 2.222-16.82-5.464-84.4-2.82-98.22 2.64-13.82 15.85-35.61 27.21-39.89 26.006-9.77 34.54-9.93 69.43-4.19z" stroke="#050202" stroke-width="3.897" fill="#504416"/><path d="M690.452 340.084c-2.652 6.537-10.69 15.9-10.094 23.895l128.457.9c-2.005-7.16-3.03-13.08-9.06-23.77l-109.303-1.04z" stroke="#000" stroke-width="4" fill="#2D5016"/><path d="M772.876 421.334c-5.977 5.79-43.623 2.11-46.878-.65-3.255-2.757 14.83 22.455 24.174 22.4 9.345-.055 28.68-27.54 22.704-21.75z" stroke="#000" stroke-width="4" fill="#FFF6D5"/><g transform="translate(210 270)"><ellipse stroke="#000" stroke-width="3.5" fill="#FFF" transform="rotate(-135.477 290.066 118.666)" cx="290.066" cy="118.666" rx="75.453" ry="92.406"/><ellipse stroke="#000" stroke-width="3.5" fill="#FFF" transform="rotate(-44.523 119.78 118.666)" cx="119.78" cy="118.666" rx="75.453" ry="92.406"/><path d="M143.79 135.696l6.417 25.512-11.185 109.052L95.892 255c14.297-53.077 19.93-96.795 47.897-119.304z" stroke="#050202" stroke-width="4" fill="#FFF"/><ellipse stroke="#000" stroke-width="4" fill="#502D16" transform="matrix(-1 0 0 1 407.697 0)" cx="203.848" cy="97.97" rx="63.408" ry="71.157"/><path d="M268.294 135.696l-6.42 25.512L273.06 270.26 316.19 255c-14.296-53.077-19.93-96.795-47.896-119.304z" stroke="#050202" stroke-width="4" fill="#FFF"/><ellipse stroke="#050202" stroke-width="4" fill="#E6C2AA" transform="matrix(-1 0 0 1 476.253 0)" cx="238.126" cy="459.698" rx="32.734" ry="17.858"/><ellipse stroke="#050202" stroke-width="4" fill="#E6C2AA" transform="matrix(-1 0 0 1 320.927 0)" cx="160.463" cy="462.249" rx="32.734" ry="17.858"/><path d="M138.43 285.507c-4.518 57.766-15.686 146.037-4.856 157.966 34.48 17.88 114.923 24.43 141.655-10.637 13.07-30.44-8.97-96.993-5.88-147.33 16.44-98.954 9.39-187.6-66.89-188.91-67.23-1.152-81.39 87.4-64.04 188.91z" stroke="#000" stroke-width="3.691" fill="#FFF"/><path d="M231.914 119.72c-5.976 5.79-54.378.794-57.633-1.965-3.25-2.76 13.11 37.9 29.14 38.02 15.38.113 34.47-41.845 28.5-36.055z" stroke="#000" stroke-width="4" fill="#E6C2AA"/><ellipse stroke="#050202" stroke-width="3.9" fill="#E6C2AA" transform="matrix(-1 0 0 1 408.8 0)" cx="204.356" cy="79.794" rx="47.201" ry="57.276"/><ellipse fill="#000" transform="matrix(-1 0 0 1 440.33 0)" cx="221.484" cy="66.338" rx="4.312" ry="4.284"/><ellipse fill="#000" transform="matrix(-1 0 0 1 382.946 0)" cx="192.792" cy="66.829" rx="4.312" ry="4.284"/><path d="M227.28 93.2c-5.975 5.79-43.622 2.11-46.877-.648-3.254-2.76 14.83 22.454 24.174 22.4 9.346-.056 28.68-27.54 22.704-21.75z" stroke="#000" stroke-width="4" fill="#FFD5D5"/><path d="M177.972 7.55c-34.89 5.746-47.746 87.935-37.672 141.128 1.79 8.45 13.22 10.257 19.913 6.488 5.923-2.576 7.118-9.25 7.445-14.965-.37-9.79-10.92-62.84 3.65-88.05 14.57-25.21 64.72-19.61 72.8 3.59 8.082 23.2-5.26 86.45 2.288 101.05 7.035 8.76 24.268 4.59 25.395-6.92-2.22-16.82 5.47-84.4 2.83-98.22-2.64-13.82-15.85-35.62-27.21-39.89-26-9.77-34.54-9.93-69.42-4.19z" stroke="#050202" stroke-width="3.897" fill="#FC0"/><path d="M136.872 270.04l135.975.167c-1.713 6.323-.9 15.35-.386 23.108l-135.07-.332-.51-22.942z" stroke="#000" stroke-width="3.496" fill="#FC0"/><path d="M312.002 258c-2.03 6.303-.514 10.91-5.353 25.92-4.71 14.6-6.11 28.73-20.57 25.004-8.06-2.076-15.73-17.484-6.95-23.417-5.04 3.026-13.08 10.956-15.66 8.194-3.77-4.03-4-12.26 6.23-17.62 2.49-1.31 1.32-2.18 3.41-3.12.31-.63 3.33-2.65 3.96-3.02 10.71-6.16 29.27-10.6 34.91-11.94zm-211.922 0c2.032 6.303.514 10.91 5.353 25.92 4.708 14.6 6.11 28.73 20.564 25.004 8.057-2.076 15.73-17.484 6.95-23.417 5.033 3.026 13.082 10.956 15.658 8.194 3.768-4.03 3.995-12.26-6.23-17.62-2.5-1.31-1.32-2.18-3.42-3.12-.316-.63-3.332-2.65-3.96-3.02-10.71-6.16-29.274-10.6-34.914-11.93z" stroke="#050202" stroke-width="4" fill="#E6C2AA"/></g><path d="M719.004 256.075L524.516 324.21l99.625-101.314c-43.44-21.845-69.01-48.602-69.01-77.506 0-73.67 166.1-133.39 371-133.39s371 59.72 371 133.39c0 73.67-166.1 133.39-371 133.39-76.7 0-147.97-8.368-207.12-22.705z" stroke="#000" stroke-width="4" fill="#FFF"/><path d="M697.313 66.03h1.234c5.885 0 9.49 2.085 10.812 6.25l.25 1.986c0 8.29-6.89 15.12-20.66 20.484l-1.22.25h-.25c-.37 0-.69-.583-.99-1.75l2.45-21.47c-.98 0-1.47-.25-1.47-.75v-.5c0-2.665 1.31-4 3.94-4l5.89-.5zm-4.907 5.25c-1.48 8.543-2.218 14.282-2.218 17.22v1.25c10.322-4.594 15.484-8.922 15.484-12.984v-.25c0-2.323-.734-3.485-2.203-3.485-1.84-1.16-4.79-1.75-8.86-1.75h-2.21zm30.094-1.296c4.448.615 6.672 3.276 6.672 7.985 0 6.16-2.438 11.27-7.313 15.31-2.01 1.14-3.81 1.72-5.39 1.72-3.87 0-6.36-2.09-7.47-6.25l-.16-1.94v-.66c0-6.73 3.07-11.84 9.22-15.31 1.54-.58 3.02-.86 4.44-.86zm-11.594 16.83c1.604 2.436 3.724 3.655 6.36 3.655 4.24 0 7.203-2.52 8.89-7.55l.313-2.38c0-3.54-1.75-5.63-5.24-6.25h-.49c-2.89 0-5.9 2.87-9.05 8.62-.53 1.73-.8 3.02-.8 3.89zm22.688-16.83c.948 0 2.083 1.782 3.406 5.344 2.563 5.25 5.41 9.74 8.547 13.47 1.052-10.282 1.833-16.34 2.344-18.173l.86-.64h.64c.43 0 .64.286.64.86-1.28 14.686-2.06 22.525-2.34 23.514l-1.28.42c-2.28 0-6.12-4.85-11.53-14.53l-.86-.86-.22.64-.64 9.84v1.28l.22 1.28c-.19 1.71-.75 2.56-1.7 2.56-.87-.32-1.37-.74-1.5-1.28 1.1-15.4 1.88-23.1 2.35-23.1l1.08-.64zm23.968-3.937c1.52.49 2.282 1.156 2.282 2-.323 1.323-2.318 4.23-5.985 8.72h-1.44l-1.13-.892v-.672l4.28-6.922c.29-1.48.95-2.23 1.98-2.23zm20.36 3.922c1.354 0 2.03.56 2.03 1.68v.42c0 1.55-1.207 2.33-3.624 2.33l-4.515.22c-1.355 7.22-2.032 13.42-2.032 18.62-.36 1.12-.73 1.68-1.12 1.68h-.68c-.78 0-1.23-.22-1.36-.64.76-7.99 1.59-14.48 2.49-19.47l-6.78 1.06c-.63 0-1.01-.64-1.12-1.91 0-2.12 1.89-3.17 5.66-3.17 2.26-.57 5.96-.85 11.08-.85zm24.28.06c4.22 0 6.33 1.44 6.33 4.31v.64c0 2.01-.954 3.95-2.86 5.81v.22c3.135.94 4.703 2.52 4.703 4.73v.86c0 3.6-3.542 6.25-10.625 7.95l-3.484.43h-2.032c-1.093 0-1.64-.58-1.64-1.72v-.22l1.64-17.66c-.687 0-1.03-.14-1.03-.42v-1.29c0-2.44 3-3.66 9-3.66zm-5.936 9.69h.218c6.396 0 9.594-1.44 9.594-4.32-1.052-.71-2.823-1.06-5.312-1.06h-2.453c-1.084 0-1.625.5-1.625 1.5l-.422 3.87zm-.407 4.09l-.41 6.87 2.04.44.2-.22h1.01c5.73-.75 8.59-2.11 8.59-4.08-1.89-2.01-4.82-3.02-8.8-3.02h-.82l-.2-.22-.2.22h-1.44zm32.29-13.78c.72.15 1.08.7 1.08 1.64-.23 1.77-.94 2.65-2.14 2.65-7.86 0-11.78 1.09-11.78 3.28l-.22 1.84v1.01c5.12-1.23 8.62-1.85 10.5-1.85h.42c.72.31 1.08.99 1.08 2.05 0 1.5-1 2.25-3 2.25-6.58.85-9.86 1.88-9.86 3.08l-.21 2.04v.81c0 1.23.78 1.91 2.34 2.04 2.46-.27 5.53-.89 9.22-1.85h.64c.57.22.86.69.86 1.43v.61c0 1.68-3.58 2.97-10.72 3.89h-.64c-2.58 0-4-1.64-4.28-4.91 0-2.41.5-6.98 1.5-13.72l-.42-1.23c0-2.77 4.28-4.41 12.84-4.91l2.78-.21zm24.01 0h.75c1.03 0 2.34 4.76 3.92 14.29 1.25 4.5 1.87 7.55 1.87 9.17-.26.85-.76 1.28-1.5 1.28-.96 0-1.65-2.28-2.07-6.83l-.19-.21h-.19c-1.62.02-5.05 1.01-10.28 2.98-.5 2.84-1.31 4.26-2.44 4.26-.75-.3-1.13-.86-1.13-1.71 0-1.65 3.43-9.19 10.29-22.62l.94-.64zm-.37 5.97c-1.5 2.7-2.88 5.55-4.13 8.54h1.31c1.27 0 2.89-.29 4.87-.86L852.17 76h-.375zm22.39-5.97h2.01c.89.56 1.34 1.19 1.34 1.89-.24 1.67-.98 2.51-2.23 2.51-3.59 0-7.1.35-10.52 1.04l-.44 4.62 1.11.2h.89c2.64 0 5.7-.43 9.17-1.27l.67 1.26c-.33 2.52-1.38 3.78-3.13 3.78-1.08.55-4.14.97-9.17 1.25-.36 6.3-.96 9.45-1.8 9.45l-.89.2h-.2c-.38 0-.6-.28-.68-.85 0-3.43.59-9.72 1.78-18.88l-.66-.64c0-2.11 1.49-3.37 4.47-3.76 2.98-.57 5.74-.85 8.26-.85zm14.98-.05h2.16c3.3 0 4.95 1.15 4.95 3.45v.22c0 4.03-3.45 7.7-10.34 11v.21c3.44 3.16 6.32 5.54 8.62 7.12v.64c0 1.11-.36 1.83-1.08 2.15h-.86l-11.85-8.41-.22 4.31v3.23c-.37.72-.94 1.07-1.72 1.07-.58 0-1.01-.29-1.3-.86v-1.29L879.47 76c-.575 0-.86-.425-.86-1.28 0-2.59 2.15-4.1 6.452-4.53l4.093-.22zm-7.53 11.64h.22c7.45-1.92 11.18-4 11.18-6.25v-.22c0-.4-.72-.68-2.16-.86-2.39 0-5.26.5-8.61 1.51l-.64 5.81zm24.28-11.6h.75c1.03 0 2.34 4.76 3.92 14.3 1.25 4.5 1.87 7.55 1.87 9.17-.27.85-.77 1.28-1.5 1.28-.96 0-1.65-2.28-2.07-6.83l-.19-.21h-.19c-1.63.02-5.05 1.01-10.28 2.98-.5 2.84-1.32 4.26-2.44 4.26-.75-.29-1.13-.86-1.13-1.71 0-1.65 3.43-9.19 10.29-22.63l.94-.64zm-.38 5.97c-1.5 2.71-2.88 5.55-4.13 8.54h1.31c1.27 0 2.89-.29 4.87-.86L905.92 76h-.375zm13.54-6.08h1.47c.49 0 .73.28.73.86-1.15 9.35-1.72 15.84-1.72 19.46v2.37c-.32 1.58-1.14 2.37-2.44 2.37h-.49l-.98-.86c.65-9.81 1.47-17.6 2.45-23.36l.97-.86zm12 .06h.95c4.53 0 7.31 1.8 8.33 5.39l.19 1.72c0 7.15-5.31 13.05-15.91 17.69l-.94.22h-.21c-.28 0-.53-.51-.75-1.52l1.89-18.55c-.76 0-1.14-.22-1.14-.64v-.44c0-2.29 1.01-3.44 3.03-3.44l4.55-.44zm-3.78 4.53c-1.14 7.38-1.71 12.34-1.71 14.88v1.08c7.94-3.97 11.92-7.71 11.92-11.22v-.21c0-2.02-.57-3.03-1.7-3.03-1.41-1-3.68-1.5-6.81-1.5h-1.7zm23.59-8.45c.62.29.94.64.94 1.04-2.97 9.56-4.45 15.62-4.45 18.17-.85.98-1.55 1.47-2.13 1.47-.94-.34-1.41-.75-1.41-1.25 1.48-12.96 3.43-19.44 5.87-19.44h1.17zm-5.54 23.45c1.48.28 2.22 1.05 2.22 2.31v.2c-.6 1.98-2.02 2.97-4.27 2.97-1.12 0-1.79-.77-2.02-2.31 0-1.78 1.35-2.84 4.06-3.17zm25.46-23.48h1.61c.53 0 .79.33.79 1-1.25 10.8-1.88 18.29-1.88 22.47v2.75c-.35 1.83-1.24 2.75-2.66 2.75h-.55l-1.07-1c.7-11.33 1.6-20.32 2.67-26.97l1.06-1zm26.56 4c4.22 0 6.33 1.44 6.33 4.31v.64c0 2.01-.95 3.95-2.86 5.81V81c3.14.95 4.7 2.528 4.7 4.736v.86c0 3.604-3.54 6.255-10.63 7.953l-3.48.43h-2.03c-1.09 0-1.64-.58-1.64-1.72v-.22l1.64-17.66c-.69 0-1.03-.14-1.03-.43v-1.29c0-2.44 3-3.66 9-3.66zm-5.94 9.69h.22c6.39 0 9.59-1.44 9.59-4.32-1.06-.71-2.83-1.06-5.32-1.06h-2.46c-1.09 0-1.63.5-1.63 1.5l-.43 3.87zm-.41 4.09l-.41 6.87 2.04.44.2-.22h1.01c5.73-.75 8.59-2.11 8.59-4.08-1.89-2.01-4.82-3.02-8.8-3.02h-.81l-.21-.21-.2.22H991zm27.22-13.83h2.15c3.3 0 4.95 1.15 4.95 3.45v.22c0 4.03-3.45 7.7-10.35 11v.2c3.44 3.16 6.32 5.54 8.62 7.12v.64c0 1.11-.36 1.83-1.08 2.15h-.86l-11.85-8.41-.22 4.31v3.24c-.37.72-.94 1.08-1.72 1.08-.58 0-1.01-.29-1.3-.86v-1.29l1.94-16.83c-.58 0-.86-.43-.86-1.28 0-2.59 2.15-4.1 6.45-4.53l4.09-.22zm-7.53 11.64h.21c7.46-1.92 11.19-4 11.19-6.25v-.22c0-.4-.72-.68-2.15-.86-2.39 0-5.26.5-8.61 1.51l-.64 5.81zm19.65-11.71h1.47c.48 0 .73.28.73.86-1.15 9.35-1.72 15.84-1.72 19.47v2.37c-.32 1.58-1.14 2.37-2.44 2.37h-.49l-.99-.86c.65-9.82 1.47-17.6 2.45-23.36l.97-.86zm7.09.06c.94 0 2.08 1.78 3.4 5.35 2.56 5.25 5.41 9.74 8.55 13.47 1.05-10.28 1.83-16.34 2.34-18.17l.86-.64h.64c.43 0 .64.29.64.86-1.28 14.69-2.06 22.53-2.34 23.52l-1.28.42c-2.28 0-6.13-4.84-11.53-14.53l-.86-.86-.22.64-.64 9.84v1.28l.22 1.28c-.19 1.71-.76 2.56-1.7 2.56-.88-.32-1.38-.74-1.5-1.28 1.09-15.4 1.87-23.1 2.34-23.1l1.08-.64zm31.42 0h.15c1.38 0 2.31 1.36 2.78 4.07l-.33.42h-.16l-1.31-.42c-3.59.53-7.34 3.03-11.27 7.48-1.1 1.94-1.64 3.29-1.64 4.06v.86c0 2.28 2.34 3.7 7.03 4.26 2.93 0 5.16-1.57 6.68-4.71l-1.95-.84c-.73 0-2.75.85-6.05 2.56-.33-.73-.49-1.44-.49-2.14v-.22c0-2.27 2.17-3.84 6.53-4.7h.33c2.5 0 3.75 1.64 3.75 4.92 0 3.38-2.78 6.38-8.33 8.98l-1.96.42c-3.53 0-5.93-1.5-7.19-4.49l-.33-2.78c0-6.46 3.32-11.95 9.95-16.47 1.67-.86 2.93-1.28 3.76-1.28zm32.08 0h.15c1.38 0 2.31 1.36 2.78 4.07l-.33.42h-.16l-1.32-.42c-3.58.53-7.34 3.03-11.27 7.48-1.1 1.94-1.64 3.29-1.64 4.06v.86c0 2.28 2.34 3.7 7.03 4.26 2.94 0 5.16-1.57 6.69-4.71l-1.96-.84c-.73 0-2.75.85-6.05 2.56-.32-.73-.48-1.44-.48-2.14v-.22c0-2.27 2.18-3.84 6.53-4.7h.33c2.5 0 3.75 1.64 3.75 4.92 0 3.38-2.78 6.38-8.33 8.98l-1.96.42c-3.53 0-5.93-1.5-7.19-4.49l-.33-2.78c0-6.46 3.32-11.95 9.95-16.47 1.68-.86 2.93-1.28 3.77-1.28zm18.73 0c4.45.62 6.67 3.28 6.67 7.99 0 6.17-2.44 11.27-7.31 15.31-2.01 1.15-3.81 1.72-5.39 1.72-3.87 0-6.36-2.08-7.47-6.25l-.16-1.94v-.65c0-6.73 3.07-11.83 9.22-15.31 1.54-.58 3.02-.86 4.43-.86zm-11.59 16.83c1.6 2.44 3.72 3.66 6.36 3.66 4.24 0 7.2-2.52 8.89-7.55l.31-2.37c0-3.54-1.75-5.62-5.24-6.25h-.49c-2.89 0-5.9 2.88-9.05 8.63-.53 1.73-.8 3.03-.8 3.89zM1141 69.96c4.45.62 6.67 3.28 6.67 7.99 0 6.17-2.44 11.27-7.32 15.31-2.01 1.15-3.808 1.72-5.39 1.72-3.86 0-6.35-2.08-7.47-6.25l-.15-1.94v-.65c0-6.73 3.07-11.84 9.22-15.32 1.54-.57 3.02-.86 4.43-.86zm-11.59 16.83c1.6 2.44 3.72 3.66 6.36 3.66 4.23 0 7.2-2.52 8.89-7.55l.31-2.37c0-3.54-1.75-5.62-5.24-6.25h-.49c-2.887 0-5.9 2.88-9.05 8.63-.53 1.73-.795 3.03-.795 3.89zM1157 69.96h.95c4.53 0 7.31 1.8 8.33 5.39l.18 1.72c0 7.16-5.3 13.06-15.91 17.69l-.94.22h-.204c-.28 0-.53-.5-.75-1.51l1.89-18.55c-.76 0-1.14-.21-1.14-.64v-.44c0-2.29 1.01-3.44 3.03-3.44l4.55-.43zm-3.78 4.54c-1.14 7.38-1.71 12.34-1.71 14.88v1.08c7.94-3.97 11.92-7.71 11.92-11.22v-.2c0-2.02-.57-3.03-1.71-3.03-1.41-1-3.68-1.5-6.818-1.5h-1.7zM664 111.99c.948 0 2.083 1.78 3.406 5.34 2.563 5.25 5.412 9.74 8.547 13.47 1.052-10.283 1.833-16.34 2.344-18.174l.86-.64h.64c.427 0 .64.286.64.86-1.28 14.686-2.062 22.525-2.343 23.514l-1.282.42c-2.28 0-6.124-4.85-11.53-14.53l-.86-.86-.22.64-.64 9.84v1.28l.22 1.28c-.188 1.71-.756 2.56-1.704 2.56-.875-.317-1.375-.74-1.5-1.28 1.094-15.4 1.875-23.1 2.344-23.1l1.078-.64zm34.406.043c.72.16 1.078.71 1.078 1.65-.23 1.77-.942 2.66-2.14 2.66-7.854 0-11.782 1.1-11.782 3.28l-.218 1.85v1.02c5.125-1.23 8.625-1.84 10.5-1.84h.422c.718.313 1.078.995 1.078 2.047 0 1.5-1 2.25-3 2.25-6.573.855-9.86 1.88-9.86 3.08l-.203 2.05v.81c0 1.23.79 1.91 2.35 2.045 2.46-.27 5.53-.883 9.22-1.842h.64c.57.22.86.7.86 1.44v.61c0 1.675-3.57 2.97-10.72 3.89h-.64c-2.57 0-4-1.636-4.28-4.907 0-2.41.5-6.98 1.5-13.72l-.42-1.235c0-2.77 4.28-4.41 12.85-4.91l2.78-.2zm2.672 0c.698 0 1.047 2.42 1.047 7.25l1.406 9.19h.35c0-.53 1.4-3.38 4.21-8.54.44-3.4 1.26-5.11 2.46-5.11h.35c.71 0 1.3 2.63 1.75 7.89.78 3.6 1.37 5.73 1.75 6.41.38-1.81 2.25-7.15 5.61-16.01.49-.56.96-.84 1.41-.84.63 0 1.03.28 1.22.848 0 .73-1.75 5.5-5.25 14.3-.58 2.09-1.11 4.94-1.58 8.55-.37.71-.84 1.07-1.4 1.07-1.06 0-1.87-2.41-2.44-7.25-1.14-4.72-1.84-7.28-2.11-7.68l-3.5 6.83c-.58 1.33-1.1 3.61-1.57 6.83-.31.52-.77.88-1.39 1.06-.98 0-1.8-3.7-2.45-11.09-.94-5.23-1.4-9.42-1.4-12.59 0-.42.53-.78 1.58-1.06zm34.766 0h.328c1.437.18 2.156.88 2.156 2.1v.42c0 2.11-.72 4.06-2.156 5.88h-.328c-.23-.06-.453-.41-.672-1.04l.844-3.14-.657-.42c-1.54.14-4.35 1.818-8.44 5.03v.21l10.9 2.11c1.1.874 1.65 2.34 1.65 4.406v1.25c0 2.82-1.82 5.27-5.46 7.34-1.43.56-2.81.84-4.14.84h-.35c-3.79 0-6.11-1.68-6.94-5.03v-1.27c0-1.55.38-2.32 1.15-2.32.76 2.67 2.14 4 4.14 4 0 .27.83.41 2.48.41 2.45 0 4.82-1.26 7.11-3.77 0-1.67-3.53-2.72-10.58-3.16-2.55-.71-3.82-1.76-3.82-3.14 0-3.41 3.41-6.84 10.25-10.28l2.48-.42zm8.437 19.65c1.4 0 2.27.85 2.61 2.55 0 1.7-1.21 2.63-3.65 2.78-1.22-.45-1.83-1.23-1.83-2.31v-.23c.48-1.85 1.44-2.78 2.88-2.78zm38.35-23.64c1.54 0 2.32.66 2.32 1.97v.49c0 1.8-1.37 2.71-4.12 2.71l-5.14.25c-1.54 8.378-2.31 15.57-2.31 21.596-.41 1.31-.84 1.97-1.28 1.97h-.78c-.89 0-1.4-.25-1.55-.74.87-9.27 1.81-16.8 2.83-22.6l-7.72 1.23c-.72 0-1.14-.74-1.28-2.21 0-2.46 2.15-3.69 6.44-3.69 2.58-.66 6.78-.99 12.61-.99zm17.71 3.95c.74.2 1.11.71 1.11 1.52v.21c-1.04 15.39-1.78 23.08-2.22 23.08l-.23.22h-.65c-.77 0-1.29-.36-1.56-1.08.29-2.05.44-4.93.44-8.62H797l-9.343 2.155-.653.86v4.09c0 1.22-.45 2.086-1.347 2.596h-.438c-.84 0-1.36-.36-1.56-1.08 1.03-15.53 2.51-23.294 4.45-23.294h.44l.67.877c-1.04 5.156-1.56 8.964-1.56 11.42 6.82-.894 10.23-1.972 10.23-3.232l.89-9.06 1.56-.64zm19.22.05c.72.16 1.08.71 1.08 1.64-.23 1.77-.94 2.66-2.14 2.66-7.85 0-11.78 1.1-11.78 3.28l-.22 1.85v1.02c5.13-1.23 8.63-1.84 10.5-1.84h.43c.72.317 1.08 1 1.08 2.05 0 1.5-1 2.25-3 2.25-6.57.855-9.86 1.88-9.86 3.08l-.2 2.05v.81c0 1.23.78 1.91 2.35 2.046 2.46-.27 5.53-.89 9.22-1.85h.64c.58.22.86.7.86 1.44v.61c0 1.68-3.57 2.97-10.72 3.89h-.64c-2.57 0-4-1.63-4.28-4.91 0-2.41.5-6.98 1.5-13.72l-.42-1.24c0-2.77 4.28-4.41 12.85-4.91l2.78-.2zm31.13-4h.42c1.81.2 2.72 1.01 2.72 2.44v.49c0 2.44-.9 4.71-2.72 6.81h-.42c-.28-.07-.55-.48-.83-1.22l1.05-3.64-.84-.5c-1.93.16-5.49 2.11-10.69 5.85v.25l13.83 2.44c1.4 1.01 2.1 2.717 2.1 5.11v1.456c0 3.27-2.3 6.11-6.9 8.53-1.81.65-3.55.97-5.23.97h-.42c-4.81 0-7.74-1.95-8.79-5.85v-1.46c0-1.8.49-2.69 1.47-2.69.96 3.08 2.7 4.62 5.23 4.62 0 .32 1.05.48 3.14.48 3.11 0 6.11-1.46 9-4.38 0-1.93-4.46-3.15-13.4-3.66-3.21-.83-4.81-2.04-4.81-3.64 0-3.96 4.33-7.94 12.98-11.94l3.15-.49zm16.02 4h.75c1.03 0 2.34 4.77 3.92 14.3 1.25 4.5 1.88 7.56 1.88 9.18-.26.86-.76 1.28-1.5 1.28-.96 0-1.64-2.27-2.06-6.822l-.18-.2h-.19c-1.62.02-5.05 1.02-10.28 2.98-.5 2.85-1.31 4.27-2.44 4.27-.75-.29-1.12-.86-1.12-1.7 0-1.65 3.43-9.19 10.3-22.62l.94-.64zm-.37 5.97c-1.5 2.71-2.87 5.56-4.12 8.55h1.32c1.27 0 2.9-.28 4.88-.86l-1.69-7.69h-.37zm25.79-6.01h.63c.57.23.85.73.85 1.5 0 1.04-2.17 5.53-6.53 13.47-2.13 5.95-3.47 9.16-4 9.63l-2.09.424c-.92 0-1.55-1.64-1.91-4.922-2.8-9.88-4.2-15.94-4.2-18.17.23-.644.65-1.144 1.27-1.5h.84c.76 0 1.53 2.997 2.32 8.987l2.53 9.404h.2c1.46-3.852 4.62-9.982 9.47-18.39l.64-.42zm6.49-.06h1.47c.49 0 .74.29.74.86-1.14 9.36-1.72 15.85-1.72 19.47v2.38c-.32 1.585-1.13 2.377-2.43 2.377h-.48l-.98-.86c.66-9.81 1.48-17.6 2.46-23.36l.97-.86zm17.33.068c4.45.62 6.68 3.28 6.68 7.99 0 6.17-2.44 11.27-7.31 15.31-2.01 1.15-3.8 1.72-5.39 1.72-3.86 0-6.35-2.08-7.46-6.25l-.16-1.94v-.65c0-6.73 3.08-11.83 9.22-15.31 1.54-.57 3.02-.86 4.44-.86zm-11.59 16.83c1.61 2.44 3.73 3.66 6.36 3.66 4.24 0 7.2-2.51 8.89-7.55l.31-2.37c0-3.54-1.74-5.62-5.23-6.25h-.48c-2.88 0-5.9 2.88-9.04 8.63-.53 1.73-.8 3.03-.8 3.89zm23.9-16.83c.67.27 1.04.55 1.11.84-1.19 7.43-1.78 12.83-1.78 16.19v2.31c3.98 0 7.24-1.82 9.78-5.47 1-8.83 1.97-13.25 2.89-13.25h.24c.88.1 1.33.31 1.33.65-1.33 8.04-2 14.07-2 18.08v3.36c0 1.11-.44 1.88-1.34 2.31h-.89l-.87-.84v-.42l.22-3.56c-.53 0-3.42 1.33-8.67 3.99l-1.56.42c-1.78-.23-2.67-1-2.67-2.31v-.2c1.09-14.72 2.35-22.08 3.78-22.08h.46zm25.85 0h2.15c3.3 0 4.96 1.15 4.96 3.45v.22c0 4.03-3.44 7.7-10.34 11v.21c3.45 3.17 6.33 5.54 8.63 7.13v.64c0 1.12-.36 1.84-1.08 2.16h-.86l-11.84-8.4-.22 4.31v3.23c-.37.72-.94 1.08-1.72 1.08-.57 0-1.01-.29-1.3-.86v-1.3l1.94-16.83c-.57 0-.86-.42-.86-1.28 0-2.59 2.15-4.1 6.46-4.53l4.1-.22zm-7.53 11.64h.22c7.46-1.92 11.19-4 11.19-6.25v-.22c0-.39-.72-.68-2.15-.86-2.38 0-5.25.51-8.61 1.52l-.64 5.82zM988.13 112c4.45.612 6.67 3.273 6.67 7.982 0 6.165-2.435 11.27-7.31 15.31-2.01 1.147-3.807 1.72-5.39 1.72-3.865 0-6.354-2.083-7.47-6.25l-.155-1.938v-.655c0-6.73 3.07-11.84 9.22-15.32 1.54-.58 3.02-.86 4.437-.86zm-11.593 16.83c1.6 2.433 3.72 3.652 6.36 3.652 4.24 0 7.2-2.517 8.89-7.548l.31-2.374c0-3.54-1.748-5.623-5.238-6.25h-.49c-2.89 0-5.9 2.877-9.05 8.627-.53 1.73-.8 3.025-.8 3.89zm33.12-16.786h2.02c.896.564 1.344 1.194 1.344 1.89-.24 1.678-.98 2.517-2.23 2.517-3.59 0-7.1.35-10.51 1.05l-.44 4.63 1.11.21h.89c2.65 0 5.71-.42 9.18-1.26l.67 1.27c-.33 2.52-1.37 3.78-3.12 3.78-1.08.55-4.14.97-9.17 1.25-.35 6.3-.95 9.45-1.79 9.45l-.89.21h-.22c-.37 0-.59-.28-.67-.84 0-3.43.6-9.72 1.78-18.87l-.65-.64c0-2.11 1.49-3.37 4.47-3.76 2.99-.56 5.74-.84 8.26-.84zm33.99-.06c1.355 0 2.03.56 2.03 1.686v.42c0 1.555-1.21 2.33-3.624 2.33l-4.52.22c-1.35 7.22-2.03 13.427-2.03 18.625-.363 1.126-.74 1.69-1.123 1.69h-.687c-.78 0-1.232-.213-1.36-.64.76-7.99 1.59-14.48 2.488-19.47l-6.78 1.064c-.63 0-1.01-.64-1.12-1.91 0-2.11 1.89-3.17 5.66-3.17 2.26-.56 5.95-.84 11.08-.84zm18.08.014c.738.197 1.108.7 1.108 1.515v.203c-1.04 15.388-1.78 23.08-2.22 23.08l-.23.22h-.654c-.77 0-1.29-.36-1.56-1.08.29-2.05.44-4.925.44-8.623h-.22l-9.34 2.156-.65.86v4.09c0 1.22-.45 2.08-1.35 2.59h-.43c-.83 0-1.35-.36-1.56-1.08 1.04-15.53 2.52-23.3 4.46-23.3h.44l.67.87c-1.04 5.15-1.56 8.96-1.56 11.42 6.83-.9 10.24-1.98 10.24-3.24l.89-9.07 1.57-.64zm19.217.046c.72.156 1.08.702 1.08 1.64-.23 1.77-.946 2.656-2.144 2.656-7.856 0-11.78 1.096-11.78 3.28l-.22 1.847v1.015c5.123-1.23 8.623-1.845 10.5-1.845h.42c.72.31 1.076.994 1.076 2.046 0 1.5-1 2.25-3 2.25-6.575.855-9.86 1.88-9.86 3.08l-.205 2.046v.81c0 1.23.78 1.91 2.34 2.05 2.46-.27 5.53-.89 9.22-1.85h.64c.58.22.86.7.86 1.44v.61c0 1.67-3.57 2.97-10.72 3.89h-.64c-2.57 0-4-1.64-4.28-4.91 0-2.41.5-6.98 1.5-13.72l-.42-1.24c0-2.77 4.28-4.41 12.84-4.91l2.78-.21zm15.952 0c.7 0 1.045 2.416 1.045 7.25l1.41 9.19h.34c0-.535 1.41-3.38 4.21-8.55.44-3.406 1.26-5.11 2.46-5.11h.34c.71 0 1.3 2.63 1.75 7.89.79 3.595 1.37 5.73 1.75 6.407.38-1.81 2.25-7.15 5.61-16.01.49-.56.96-.84 1.41-.84.63 0 1.03.28 1.22.85 0 .73-1.75 5.49-5.25 14.3-.58 2.09-1.11 4.94-1.58 8.55-.37.71-.84 1.07-1.4 1.07-1.06 0-1.87-2.41-2.43-7.25-1.15-4.72-1.85-7.28-2.11-7.68l-3.5 6.83c-.58 1.33-1.11 3.61-1.58 6.83-.31.52-.77.87-1.39 1.06-.98 0-1.79-3.7-2.45-11.1-.94-5.23-1.41-9.43-1.41-12.59 0-.43.53-.78 1.58-1.06zm35.186-.048c4.45.612 6.67 3.273 6.67 7.982 0 6.165-2.436 11.27-7.31 15.31-2.01 1.147-3.808 1.72-5.39 1.72-3.866 0-6.355-2.083-7.47-6.25l-.156-1.938v-.656c0-6.73 3.075-11.834 9.22-15.313 1.54-.57 3.02-.86 4.438-.86zm-11.595 16.83c1.608 2.433 3.727 3.652 6.36 3.652 4.24 0 7.206-2.517 8.89-7.548l.316-2.375c0-3.54-1.742-5.622-5.232-6.25h-.48c-2.88 0-5.9 2.878-9.04 8.628-.53 1.73-.79 3.027-.79 3.89zm30.89-16.83h2.16c3.303 0 4.954 1.15 4.954 3.45v.217c0 4.034-3.45 7.7-10.34 11v.205c3.45 3.166 6.33 5.54 8.63 7.124v.64c0 1.113-.36 1.83-1.08 2.154h-.85l-11.84-8.408-.22 4.315v3.234c-.36.72-.93 1.077-1.72 1.077-.57 0-1-.286-1.29-.86v-1.296l1.94-16.83c-.57 0-.86-.425-.86-1.28 0-2.593 2.15-4.104 6.45-4.53l4.1-.22zm-7.53 11.64h.22c7.46-1.92 11.19-4 11.19-6.25v-.22c0-.397-.72-.68-2.156-.86-2.38 0-5.25.505-8.61 1.515l-.64 5.82zm17.846-11.64h.22c.68 0 1.247.35 1.7 1.044-.99 7.21-1.7 13.657-2.122 19.345l12.19-2.513.42.624v1.268c0 1.917-4.41 3.667-13.25 5.25-1.57-.28-2.36-.77-2.36-1.47 1.17-15.415 2.02-23.124 2.57-23.124l.64-.42zm21.27 0h.952c4.53 0 7.305 1.794 8.325 5.39l.19 1.72c0 7.153-5.304 13.05-15.908 17.684l-.94.22h-.206c-.28 0-.53-.505-.75-1.516l1.89-18.55c-.76 0-1.14-.21-1.14-.64v-.436c0-2.292 1.01-3.44 3.03-3.44l4.55-.436zm-3.78 4.53c-1.138 7.374-1.705 12.332-1.705 14.874v1.08c7.948-3.97 11.92-7.71 11.92-11.22v-.203c0-2.02-.566-3.03-1.702-3.03-1.41-1-3.68-1.5-6.816-1.5h-1.702zm-513.43 37.47c.74.195 1.11.7 1.11 1.513v.2c-1.044 15.38-1.784 23.08-2.22 23.08l-.236.22h-.652c-.77 0-1.29-.36-1.56-1.08.29-2.05.437-4.93.437-8.63h-.22l-9.342 2.15-.655.86v4.09c0 1.22-.446 2.09-1.34 2.6h-.438c-.83 0-1.35-.36-1.56-1.08 1.03-15.53 2.517-23.3 4.455-23.3h.437l.67.87c-1.04 5.16-1.56 8.97-1.56 11.42 6.82-.9 10.23-1.98 10.23-3.24l.89-9.06 1.56-.64zm12.154.044h.75c1.036 0 2.34 4.767 3.926 14.298 1.25 4.5 1.872 7.557 1.872 9.172-.26.854-.76 1.28-1.5 1.28-.96 0-1.646-2.275-2.062-6.827l-.19-.207h-.186c-1.62.02-5.05 1.016-10.28 2.984-.5 2.842-1.31 4.264-2.44 4.264-.75-.29-1.12-.86-1.12-1.7 0-1.648 3.433-9.19 10.298-22.627l.94-.64zm-.37 5.97c-1.5 2.708-2.876 5.557-4.126 8.547h1.32c1.27 0 2.9-.29 4.88-.86l-1.7-7.69h-.37zm21.765-5.97h.33c1.44.178 2.156.876 2.156 2.095v.425c0 2.104-.715 4.062-2.153 5.875h-.33c-.23-.066-.454-.415-.67-1.05l.84-3.14-.654-.424c-1.53.14-4.34 1.82-8.44 5.03v.2l10.91 2.11c1.11.88 1.66 2.35 1.66 4.41v1.25c0 2.82-1.82 5.27-5.45 7.34-1.43.57-2.81.85-4.14.85H693c-3.79 0-6.104-1.68-6.937-5.03v-1.27c0-1.54.385-2.31 1.156-2.31.76 2.67 2.14 4 4.14 4 0 .27.82.41 2.48.41 2.44 0 4.81-1.25 7.11-3.76 0-1.66-3.53-2.71-10.58-3.15-2.54-.7-3.81-1.75-3.81-3.14 0-3.4 3.41-6.83 10.25-10.28l2.48-.42zm28.454 0c4.22 0 6.325 1.44 6.325 4.314v.64c0 2.01-.95 3.947-2.86 5.81v.22c3.14.95 4.71 2.527 4.71 4.735v.86c0 3.6-3.54 6.25-10.62 7.95l-3.48.43h-2.03c-1.09 0-1.64-.58-1.64-1.72v-.22l1.64-17.66c-.68 0-1.03-.14-1.03-.42v-1.29c0-2.44 3-3.66 9-3.66zm-5.94 9.69h.215c6.4 0 9.6-1.44 9.6-4.314-1.05-.706-2.82-1.06-5.31-1.06h-2.45c-1.08 0-1.62.5-1.62 1.5l-.42 3.875zm-.41 4.093l-.41 6.87 2.046.436.2-.22h1.014c5.73-.75 8.595-2.11 8.595-4.08-1.88-2.01-4.82-3.02-8.79-3.02h-.81l-.2-.22-.2.22h-1.44zm32.297-13.786c.72.158 1.076.704 1.076 1.642-.23 1.77-.94 2.65-2.14 2.65-7.86 0-11.78 1.09-11.78 3.28l-.22 1.84v1.01c5.12-1.23 8.62-1.85 10.5-1.85h.42c.72.31 1.08.99 1.08 2.04 0 1.5-1 2.25-3 2.25-6.58.85-9.86 1.88-9.86 3.07l-.21 2.04v.81c0 1.23.78 1.91 2.35 2.04 2.45-.27 5.53-.88 9.22-1.84h.64c.57.22.86.69.86 1.43v.61c0 1.67-3.58 2.97-10.72 3.89h-.64c-2.58 0-4-1.64-4.29-4.91 0-2.41.5-6.98 1.5-13.72l-.42-1.23c0-2.77 4.28-4.41 12.84-4.91l2.78-.21zm17.795 0c.72.158 1.08.704 1.08 1.642-.23 1.77-.943 2.65-2.14 2.65-7.856 0-11.783 1.09-11.783 3.28l-.22 1.84v1.01c5.126-1.23 8.626-1.85 10.5-1.85h.42c.72.31 1.08.99 1.08 2.04 0 1.5-1 2.25-3 2.25-6.57.85-9.86 1.88-9.86 3.07l-.2 2.04v.81c0 1.23.78 1.91 2.342 2.04 2.46-.27 5.53-.88 9.22-1.84h.64c.57.22.86.69.86 1.43v.61c0 1.67-3.572 2.97-10.72 3.89h-.64c-2.572 0-4-1.64-4.28-4.91 0-2.41.5-6.98 1.5-13.72l-.422-1.23c0-2.77 4.28-4.41 12.85-4.91l2.78-.21zm4.517-.046c.95 0 2.083 1.78 3.406 5.35 2.56 5.25 5.41 9.74 8.55 13.47 1.05-10.28 1.84-16.34 2.35-18.17l.86-.64h.64c.43 0 .64.29.64.86-1.28 14.69-2.06 22.53-2.34 23.52l-1.28.42c-2.28 0-6.12-4.84-11.53-14.53l-.86-.86-.22.64-.64 9.85v1.28l.22 1.28c-.18 1.71-.75 2.56-1.7 2.56-.87-.31-1.37-.74-1.5-1.28 1.1-15.39 1.88-23.09 2.35-23.09l1.08-.64zm40.594.05c4.22 0 6.33 1.44 6.33 4.32v.64c0 2.01-.96 3.95-2.86 5.81v.22c3.13.95 4.7 2.53 4.7 4.74v.86c0 3.6-3.54 6.25-10.63 7.95l-3.48.44h-2.03c-1.1 0-1.64-.57-1.64-1.72v-.22l1.64-17.66c-.69 0-1.03-.14-1.03-.42v-1.3c0-2.44 3-3.65 9-3.65zm-5.94 9.69h.22c6.39 0 9.59-1.44 9.59-4.31-1.06-.7-2.83-1.06-5.32-1.06h-2.46c-1.08 0-1.62.5-1.62 1.5l-.43 3.88zm-.41 4.1l-.41 6.88 2.04.44.2-.22h1.01c5.73-.75 8.59-2.1 8.59-4.07-1.89-2.01-4.82-3.01-8.8-3.01h-.81l-.21-.22-.2.22h-1.44zM839.51 154c4.45.62 6.67 3.28 6.67 7.99 0 6.16-2.44 11.27-7.312 15.31-2.01 1.145-3.81 1.72-5.39 1.72-3.868 0-6.358-2.085-7.47-6.25l-.158-1.94v-.66c0-6.73 3.07-11.83 9.217-15.31 1.54-.57 3.02-.86 4.437-.86zm-11.594 16.83c1.604 2.44 3.724 3.66 6.36 3.66 4.24 0 7.203-2.52 8.89-7.55l.313-2.376c0-3.54-1.75-5.625-5.24-6.25h-.49c-2.89 0-5.9 2.875-9.05 8.625-.53 1.73-.8 3.02-.8 3.89zm30.89-16.83h2.157c3.3 0 4.95 1.154 4.95 3.456v.22c0 4.03-3.45 7.698-10.343 11v.203c3.45 3.16 6.327 5.54 8.63 7.12v.64c0 1.12-.36 1.83-1.08 2.16h-.86l-11.846-8.41-.22 4.31v3.23c-.363.72-.936 1.08-1.717 1.08-.574 0-1.007-.29-1.3-.86v-1.3l1.94-16.83c-.574 0-.86-.43-.86-1.28 0-2.59 2.15-4.1 6.453-4.53l4.096-.22zm-7.53 11.644h.22c7.46-1.917 11.19-4 11.19-6.25v-.22c0-.395-.72-.68-2.16-.86-2.384 0-5.254.507-8.61 1.518l-.64 5.81zM869.35 154c.944 0 2.08 1.78 3.402 5.342 2.563 5.25 5.412 9.74 8.547 13.47 1.05-10.282 1.83-16.34 2.34-18.173l.86-.64h.64c.42 0 .64.28.64.86-1.28 14.68-2.06 22.52-2.35 23.51l-1.28.42c-2.28 0-6.13-4.85-11.53-14.53l-.86-.86-.22.64-.64 9.84v1.28l.22 1.28c-.19 1.71-.76 2.56-1.71 2.56-.88-.32-1.38-.74-1.5-1.28 1.09-15.4 1.87-23.1 2.34-23.1l1.07-.64zm36-.064h1.47c.484 0 .73.285.73.86-1.146 9.352-1.72 15.842-1.72 19.47v2.372c-.32 1.584-1.134 2.376-2.436 2.376h-.484l-.983-.86c.658-9.814 1.476-17.6 2.455-23.36l.97-.86zm7.09.06c.947 0 2.082 1.783 3.405 5.345 2.564 5.25 5.41 9.74 8.55 13.47 1.05-10.28 1.832-16.34 2.343-18.17l.86-.64h.64c.424 0 .64.29.64.86-1.28 14.69-2.065 22.53-2.347 23.52l-1.28.42c-2.28 0-6.12-4.84-11.53-14.53l-.86-.86-.22.64-.64 9.85v1.28l.22 1.29c-.19 1.71-.76 2.56-1.7 2.56-.87-.31-1.37-.74-1.5-1.28 1.1-15.4 1.88-23.09 2.35-23.09l1.08-.64zm42.514-3.95c5.085 0 7.626 1.666 7.626 5v.75c0 2.333-1.145 4.58-3.436 6.734v.25c3.76 1.103 5.64 2.936 5.64 5.5v1c0 4.176-4.253 7.254-12.763 9.233l-4.17.5h-2.45c-1.31 0-1.97-.67-1.97-2v-.25l1.97-20.47c-.82 0-1.23-.167-1.23-.5v-1.5c0-2.834 3.6-4.25 10.8-4.25zm-7.11 11.234h.25c7.69 0 11.53-1.663 11.53-4.986-1.27-.835-3.394-1.25-6.373-1.25h-2.95c-1.31 0-1.97.58-1.97 1.75l-.48 4.483zm-.5 4.75l-.482 7.983 2.454.5.25-.25h1.217c6.873-.877 10.31-2.455 10.31-4.736-2.25-2.33-5.767-3.5-10.55-3.5h-.982l-.25-.25-.25.25h-1.72zm35.174-11.986c.72.155 1.076.7 1.076 1.64-.23 1.77-.942 2.655-2.14 2.655-7.854 0-11.78 1.09-11.78 3.28l-.22 1.84v1.02c5.125-1.23 8.625-1.85 10.5-1.85h.422c.72.31 1.077.99 1.077 2.04 0 1.5-1 2.25-3 2.25-6.573.85-9.86 1.88-9.86 3.08l-.202 2.04v.81c0 1.23.78 1.91 2.35 2.04 2.46-.27 5.53-.89 9.22-1.84h.64c.58.22.86.7.86 1.44v.61c0 1.68-3.57 2.97-10.72 3.89h-.64c-2.57 0-4-1.64-4.28-4.91 0-2.41.5-6.98 1.5-13.72l-.42-1.24c0-2.77 4.28-4.41 12.85-4.91l2.78-.2zm18.435-.06c1.356 0 2.03.56 2.03 1.683v.423c0 1.55-1.21 2.327-3.622 2.327l-4.51.22c-1.35 7.22-2.03 13.427-2.03 18.625-.37 1.12-.74 1.684-1.13 1.684H991c-.78 0-1.234-.213-1.36-.64.76-7.99 1.59-14.48 2.485-19.47l-6.78 1.064c-.637 0-1.01-.64-1.127-1.91 0-2.113 1.886-3.17 5.657-3.17 2.26-.56 5.952-.843 11.077-.843zm18.08.01c.74.2 1.11.703 1.11 1.516v.2c-1.04 15.386-1.78 23.08-2.22 23.08l-.232.22h-.65c-.77 0-1.29-.36-1.56-1.08.29-2.05.44-4.927.44-8.625h-.21l-9.34 2.16-.65.86v4.097c0 1.22-.44 2.084-1.34 2.594h-.44c-.83 0-1.35-.36-1.56-1.08 1.03-15.53 2.51-23.294 4.45-23.294h.44l.67.875c-1.04 5.155-1.56 8.963-1.56 11.42 6.82-.895 10.23-1.973 10.23-3.233l.89-9.063 1.57-.64zm5.72 0h.22c.677 0 1.245.35 1.703 1.047-.99 7.21-1.7 13.66-2.127 19.34l12.18-2.52.42.63v1.27c0 1.92-4.42 3.67-13.25 5.25-1.57-.28-2.36-.77-2.36-1.47 1.17-15.41 2.02-23.12 2.56-23.12l.64-.42zm29.64.047c.72.16 1.08.7 1.08 1.64-.23 1.77-.943 2.66-2.14 2.66-7.855 0-11.78 1.1-11.78 3.28l-.22 1.85v1.02c5.124-1.23 8.624-1.84 10.5-1.84h.42c.72.32 1.08 1 1.08 2.05 0 1.5-1 2.25-3 2.25-6.574.86-9.86 1.88-9.86 3.08l-.203 2.05v.82c0 1.23.78 1.91 2.348 2.05 2.46-.27 5.53-.88 9.22-1.84h.64c.576.22.86.7.86 1.44v.61c0 1.67-3.57 2.97-10.72 3.89h-.64c-2.57 0-4-1.64-4.28-4.91 0-2.4.5-6.98 1.5-13.72l-.42-1.23c0-2.77 4.28-4.4 12.846-4.9l2.78-.2zm17.78-.05c.74.2 1.11.71 1.11 1.52v.2c-1.04 15.39-1.78 23.08-2.217 23.08l-.237.22h-.66c-.77 0-1.3-.36-1.57-1.07.29-2.05.43-4.92.43-8.62h-.22l-9.34 2.16-.66.86v4.09c0 1.22-.45 2.09-1.35 2.6h-.44c-.84 0-1.36-.36-1.57-1.08 1.03-15.53 2.51-23.3 4.45-23.3h.43l.67.88c-1.04 5.16-1.56 8.97-1.56 11.43 6.82-.89 10.23-1.97 10.23-3.23l.89-9.06 1.56-.64zm19.22.05c.72.16 1.08.71 1.08 1.64-.23 1.77-.943 2.66-2.14 2.66-7.855 0-11.78 1.1-11.78 3.28l-.22 1.85v1.02c5.124-1.23 8.624-1.84 10.5-1.84h.42c.72.31 1.08 1 1.08 2.05 0 1.5-1 2.25-3 2.25-6.574.85-9.86 1.88-9.86 3.08l-.203 2.04v.81c0 1.23.78 1.91 2.348 2.05 2.46-.27 5.53-.88 9.22-1.84h.64c.576.22.86.7.86 1.44v.61c0 1.67-3.57 2.97-10.72 3.89h-.64c-2.57 0-4-1.64-4.28-4.91 0-2.41.5-6.98 1.5-13.72l-.42-1.23c0-2.77 4.28-4.4 12.846-4.9l2.78-.21zm10.798-.04h.41c.67.37 1 .93 1 1.7v.44c0 4.63.41 10.04 1.22 16.25h.2c4.46-11.69 7.08-17.53 7.88-17.53h.61c.6 0 1.54 4.06 2.83 12.19 1.21 4.17 1.82 7.66 1.82 10.47-.39 1-1 1.5-1.81 1.5-.54 0-1.28-3.49-2.21-10.48l-1.62-6.82c-1.15 1.86-3.24 6.7-6.26 14.53-.86.89-1.6 1.39-2.22 1.5-1.75 0-2.62-2.35-2.62-7.06l-1-8.97h-.2l-6.06 13.68c-.37 2.28-.71 3.42-1.02 3.42h-.8l-.81-.84v-1.08c0-1.91 1.68-6.04 5.05-12.39 2.4-6.66 3.95-10.09 4.64-10.26l1.02-.22zm27.89-3.92c.63.29.94.64.94 1.05-2.97 9.56-4.45 15.62-4.45 18.17-.84.98-1.55 1.47-2.12 1.47-.94-.33-1.4-.75-1.4-1.25 1.48-12.96 3.44-19.44 5.87-19.44h1.17zm-5.54 23.45c1.48.28 2.22 1.06 2.22 2.32v.2c-.59 1.98-2.01 2.97-4.26 2.97-1.11 0-1.78-.77-2.01-2.31 0-1.78 1.36-2.84 4.07-3.17zm22.32-23.48l6.36 8.43 2.8 1.99c3.52-5.47 5.98-8.77 7.38-9.91h1.27l1.02.99c-.13.88-4.12 7.07-11.95 18.58-1.95 3.22-3.4 6.11-4.32 8.66l-.75.25c-1.18-.49-1.78-1.23-1.78-2.23.06-1.29 2.1-5.33 6.1-12.12-5.76-5.39-8.64-9.77-8.64-13.12 1.07-.99 1.92-1.48 2.55-1.48zm30.58 3.96c4.45.62 6.67 3.28 6.67 7.99 0 6.17-2.43 11.27-7.31 15.31-2.01 1.15-3.8 1.72-5.39 1.72-3.86 0-6.35-2.08-7.47-6.25l-.15-1.93v-.66c0-6.73 3.07-11.83 9.22-15.31 1.54-.57 3.02-.86 4.44-.86zm-11.59 16.83c1.6 2.44 3.72 3.66 6.36 3.66 4.24 0 7.2-2.51 8.89-7.54l.31-2.37c0-3.54-1.74-5.63-5.23-6.25h-.48c-2.88 0-5.9 2.87-9.05 8.62-.53 1.73-.8 3.03-.8 3.89zm23.9-16.83c.67.27 1.04.56 1.11.85-1.19 7.43-1.78 12.82-1.78 16.19v2.32c3.98 0 7.24-1.82 9.78-5.47 1-8.83 1.97-13.25 2.89-13.25h.24c.89.1 1.33.31 1.33.64-1.33 8.04-2 14.07-2 18.08v3.36c0 1.1-.45 1.87-1.34 2.31h-.89l-.88-.84v-.42l.22-3.56c-.53 0-3.42 1.33-8.67 3.99l-1.56.42c-1.78-.23-2.67-1-2.67-2.31v-.2c1.09-14.72 2.35-22.08 3.78-22.08h.46zm-524.03 42.03c.7 0 1.05 2.42 1.05 7.25l1.41 9.19h.35c0-.53 1.4-3.38 4.2-8.55.44-3.4 1.26-5.11 2.45-5.11h.35c.71 0 1.29 2.63 1.75 7.89.78 3.6 1.37 5.73 1.75 6.41.38-1.81 2.25-7.15 5.61-16.02.49-.56.96-.84 1.41-.84.62 0 1.03.28 1.21.85 0 .73-1.75 5.5-5.25 14.3-.58 2.09-1.11 4.94-1.58 8.55-.38.71-.85 1.07-1.41 1.07-1.07 0-1.88-2.42-2.44-7.25-1.15-4.72-1.85-7.28-2.11-7.69l-3.5 6.83c-.58 1.33-1.11 3.61-1.58 6.83-.31.52-.78.88-1.39 1.06-.98 0-1.8-3.7-2.45-11.09-.94-5.23-1.41-9.42-1.41-12.59 0-.43.53-.78 1.58-1.06zm26.55-.11h1.47c.49 0 .74.29.74.86-1.15 9.36-1.72 15.85-1.72 19.47v2.38c-.33 1.59-1.14 2.38-2.44 2.38h-.49l-.98-.86c.65-9.82 1.47-17.6 2.45-23.36l.97-.86zm6.88.07h.22c.68 0 1.25.35 1.71 1.05-.99 7.21-1.7 13.66-2.12 19.35l12.19-2.51.42.63v1.27c0 1.92-4.41 3.67-13.25 5.25-1.57-.28-2.36-.77-2.36-1.47 1.17-15.41 2.02-23.12 2.56-23.12l.64-.42zm16.14 0h.22c.68 0 1.25.35 1.71 1.05-.99 7.21-1.69 13.66-2.12 19.35l12.19-2.51.42.63v1.27c0 1.92-4.41 3.67-13.25 5.25-1.57-.28-2.36-.77-2.36-1.47 1.17-15.41 2.02-23.12 2.57-23.12l.64-.42zm40.08.05h2.02c.9.57 1.34 1.2 1.34 1.9-.24 1.68-.98 2.52-2.23 2.52-3.59 0-7.1.35-10.51 1.05l-.44 4.63 1.11.2h.89c2.65 0 5.71-.42 9.17-1.26l.67 1.27c-.33 2.52-1.37 3.78-3.12 3.78-1.08.56-4.14.97-9.17 1.25-.35 6.31-.95 9.46-1.79 9.46l-.89.21h-.22c-.37 0-.6-.28-.67-.84 0-3.42.6-9.71 1.79-18.87l-.65-.64c0-2.11 1.49-3.37 4.47-3.76 2.99-.56 5.75-.84 8.27-.84zm8.38-.1h1.47c.49 0 .74.29.74.86-1.14 9.36-1.72 15.85-1.72 19.47v2.38c-.32 1.59-1.13 2.38-2.43 2.38h-.48l-.98-.86c.66-9.81 1.48-17.6 2.46-23.36l.97-.86zm7.09.06c.95 0 2.09 1.79 3.41 5.35 2.56 5.25 5.41 9.74 8.55 13.47 1.05-10.28 1.84-16.34 2.35-18.17l.86-.64h.64c.43 0 .64.28.64.86-1.28 14.68-2.06 22.52-2.34 23.51l-1.28.42c-2.28 0-6.12-4.84-11.53-14.53l-.86-.86-.22.64-.64 9.84v1.28l.22 1.28c-.18 1.71-.75 2.56-1.7 2.56-.87-.31-1.37-.74-1.5-1.28 1.09-15.4 1.88-23.1 2.34-23.1l1.08-.64zm26.03 0h.96c4.53 0 7.31 1.8 8.33 5.39l.19 1.72c0 7.16-5.3 13.06-15.9 17.69l-.93.22h-.2c-.28 0-.53-.5-.75-1.51l1.89-18.55c-.76 0-1.14-.22-1.14-.64v-.44c0-2.29 1.01-3.44 3.03-3.44l4.55-.44zm-3.78 4.54c-1.13 7.37-1.7 12.33-1.7 14.87v1.08c7.95-3.97 11.92-7.71 11.92-11.22v-.2c0-2.02-.56-3.03-1.7-3.03-1.4-1-3.67-1.5-6.81-1.5h-1.7zm43.22-4.53c.74.2 1.11.71 1.11 1.52v.21c-1.04 15.38-1.78 23.07-2.22 23.07l-.23.22h-.65c-.77 0-1.29-.36-1.56-1.08.29-2.05.44-4.93.44-8.62h-.22l-9.34 2.16-.66.86v4.09c0 1.22-.45 2.09-1.34 2.6h-.44c-.83 0-1.35-.36-1.56-1.08 1.03-15.53 2.52-23.29 4.45-23.29h.44l.67.88c-1.04 5.16-1.56 8.97-1.56 11.42 6.82-.89 10.23-1.97 10.23-3.23l.89-9.06 1.57-.64zm7.53-.06h1.47c.49 0 .74.29.74.86-1.14 9.36-1.72 15.85-1.72 19.47v2.38c-.32 1.58-1.13 2.37-2.43 2.37h-.48l-.98-.86c.66-9.81 1.48-17.6 2.45-23.36l.97-.86zm13.38.07h.41c.67.36 1 .93 1 1.7v.44c0 4.63.41 10.04 1.22 16.25h.21c4.46-11.69 7.08-17.53 7.88-17.53h.61c.6 0 1.54 4.06 2.83 12.19 1.21 4.17 1.81 7.66 1.81 10.47-.39 1-1 1.5-1.81 1.5-.54 0-1.28-3.49-2.22-10.48l-1.62-6.83c-1.15 1.85-3.24 6.69-6.26 14.53-.86.88-1.6 1.38-2.22 1.5-1.75 0-2.62-2.36-2.62-7.06l-1-8.97h-.2l-6.06 13.67c-.36 2.28-.7 3.42-1.01 3.42h-.8l-.81-.84v-1.08c0-1.92 1.69-6.05 5.05-12.39 2.4-6.67 3.94-10.09 4.64-10.27l1.02-.22zm34.03 0h.22c.68 0 1.25.35 1.71 1.05-.99 7.21-1.7 13.66-2.12 19.35l12.19-2.52.43.62v1.26c0 1.92-4.41 3.67-13.25 5.25-1.57-.28-2.36-.77-2.36-1.47 1.17-15.42 2.02-23.13 2.57-23.13l.64-.42zm14.84.05l4.78 7.25 2.1 1.72c2.65-4.7 4.49-7.55 5.54-8.54h.95l.77.86c-.1.76-3.09 6.1-8.97 16-1.48 2.78-2.56 5.27-3.25 7.47l-.56.22c-.89-.41-1.34-1.05-1.34-1.92.05-1.11 1.58-4.6 4.58-10.45-4.32-4.64-6.48-8.41-6.48-11.31.8-.85 1.44-1.28 1.91-1.28zm17.45-.1H925c.49 0 .74.29.74.86-1.14 9.35-1.72 15.84-1.72 19.47v2.38c-.32 1.58-1.13 2.37-2.44 2.37h-.48l-.98-.86c.655-9.81 1.47-17.6 2.45-23.36l.97-.86zm7.1.06c.95 0 2.09 1.78 3.41 5.35 2.56 5.25 5.41 9.74 8.55 13.47 1.05-10.28 1.83-16.34 2.34-18.17l.86-.64h.64c.43 0 .64.29.64.86-1.28 14.69-2.06 22.53-2.34 23.52l-1.28.42c-2.28 0-6.12-4.84-11.53-14.53l-.86-.86-.21.64-.64 9.84v1.28l.22 1.286c-.19 1.71-.76 2.56-1.7 2.56-.87-.31-1.37-.74-1.5-1.28 1.1-15.393 1.88-23.09 2.35-23.09l1.08-.64zm31.42 0h.16c1.39 0 2.32 1.36 2.78 4.06l-.32.42h-.15l-1.31-.42c-3.58.53-7.34 3.03-11.26 7.49-1.09 1.94-1.64 3.3-1.64 4.07v.86c0 2.28 2.34 3.7 7.03 4.27 2.94 0 5.17-1.57 6.69-4.7l-1.95-.84c-.73 0-2.74.86-6.04 2.56-.32-.73-.48-1.44-.48-2.14v-.22c0-2.27 2.18-3.84 6.53-4.7h.33c2.5 0 3.75 1.64 3.75 4.92 0 3.39-2.77 6.38-8.33 8.98l-1.95.42c-3.53 0-5.92-1.49-7.18-4.48l-.33-2.78c0-6.46 3.32-11.95 9.96-16.47 1.68-.86 2.93-1.28 3.77-1.28zm23.38-.06h1.47c.49 0 .74.29.74.86-1.14 9.36-1.72 15.85-1.72 19.47v2.38c-.32 1.58-1.13 2.37-2.44 2.37H983l-.985-.86c.654-9.81 1.47-17.6 2.45-23.36l.97-.86zm7.1.07c.95 0 2.09 1.78 3.41 5.34 2.56 5.25 5.41 9.74 8.55 13.47 1.05-10.28 1.83-16.34 2.35-18.17l.86-.64h.64c.43 0 .64.29.64.86-1.28 14.69-2.06 22.53-2.34 23.517l-1.28.42c-2.28 0-6.12-4.84-11.53-14.53l-.86-.86-.22.64-.64 9.846v1.28l.22 1.28c-.19 1.71-.75 2.566-1.7 2.566-.87-.31-1.37-.74-1.5-1.28 1.1-15.395 1.88-23.093 2.35-23.093l1.08-.64zm40.63.044h.75c1.03 0 2.34 4.766 3.92 14.297 1.25 4.5 1.88 7.56 1.88 9.18-.26.85-.76 1.28-1.5 1.28-.96 0-1.65-2.28-2.06-6.83l-.18-.21h-.19c-1.63.02-5.05 1.01-10.28 2.98-.5 2.84-1.31 4.26-2.44 4.26-.75-.29-1.12-.86-1.12-1.71 0-1.645 3.44-9.187 10.3-22.62l.94-.64zm-.37 5.97c-1.5 2.707-2.87 5.556-4.12 8.546h1.32c1.27 0 2.89-.28 4.87-.86l-1.69-7.68h-.38zm32.89-9.91h.47c.77.42 1.16 1.08 1.16 1.97v.5c0 5.34.46 11.6 1.38 18.78h.24c5.08-13.51 8.08-20.27 8.98-20.27h.69c.68 0 1.75 4.7 3.22 14.09 1.39 4.81 2.08 8.84 2.08 12.09-.44 1.15-1.14 1.73-2.07 1.73-.61 0-1.46-4.04-2.53-12.11l-1.84-7.91c-1.32 2.157-3.7 7.756-7.14 16.797-.99 1.02-1.83 1.6-2.53 1.74-2 0-3-2.72-3-8.16l-1.14-10.37h-.23l-6.91 15.81c-.41 2.635-.8 3.95-1.15 3.95h-.92l-.92-.982v-1.233c0-2.21 1.92-6.99 5.76-14.32 2.73-7.693 4.5-11.65 5.3-11.86l1.14-.25zm29.74 3.93h.75c1.03 0 2.34 4.76 3.93 14.3 1.25 4.5 1.87 7.55 1.87 9.17-.26.85-.76 1.28-1.5 1.28-.96 0-1.65-2.28-2.06-6.83l-.19-.21h-.19c-1.62.02-5.05 1.01-10.28 2.98-.5 2.845-1.31 4.267-2.44 4.267-.75-.29-1.12-.86-1.12-1.7 0-1.65 3.44-9.19 10.3-22.622l.94-.64zm-.4 5.97c-1.5 2.71-2.87 5.558-4.12 8.548h1.31c1.27 0 2.9-.285 4.88-.86l-1.68-7.685h-.38zm11.96-6.02c.95 0 2.09 1.78 3.41 5.347 2.56 5.25 5.41 9.74 8.54 13.47 1.05-10.28 1.83-16.34 2.34-18.17l.86-.64h.64c.42 0 .64.29.64.86-1.28 14.69-2.07 22.528-2.35 23.517l-1.28.42c-2.29 0-6.13-4.85-11.54-14.53l-.86-.86-.22.64-.64 9.84v1.28l.21 1.28c-.18 1.71-.75 2.56-1.7 2.56-.87-.32-1.37-.74-1.5-1.28 1.1-15.4 1.88-23.1 2.35-23.1l1.08-.64zm31.42 0h.16c1.39 0 2.32 1.358 2.79 4.066l-.33.42h-.15l-1.31-.43c-3.58.53-7.34 3.02-11.26 7.48-1.09 1.94-1.64 3.29-1.64 4.06v.86c0 2.28 2.35 3.7 7.03 4.26 2.94 0 5.17-1.57 6.69-4.71l-1.95-.84c-.73 0-2.74.85-6.04 2.56-.33-.73-.49-1.44-.49-2.14v-.22c0-2.27 2.18-3.84 6.53-4.7h.33c2.5 0 3.75 1.64 3.75 4.92 0 3.38-2.77 6.38-8.33 8.98l-1.95.42c-3.53 0-5.92-1.5-7.18-4.49l-.33-2.78c0-6.456 3.32-11.946 9.96-16.466 1.67-.85 2.93-1.28 3.76-1.28zm21.78.05c.72.16 1.08.71 1.08 1.65-.23 1.77-.94 2.66-2.14 2.66-7.85 0-11.78 1.1-11.78 3.28l-.22 1.85v1.02c5.13-1.23 8.63-1.84 10.5-1.84h.42c.72.31 1.08 1 1.08 2.05 0 1.5-1 2.25-3 2.25-6.57.85-9.86 1.88-9.86 3.08l-.2 2.05v.81c0 1.23.79 1.91 2.35 2.04 2.46-.27 5.53-.88 9.22-1.84h.64c.57.22.86.7.86 1.44v.61c0 1.676-3.57 2.97-10.72 3.89h-.64c-2.57 0-4-1.635-4.28-4.906 0-2.41.5-6.98 1.5-13.72l-.42-1.236c0-2.77 4.28-4.41 12.85-4.91l2.78-.2zm12.72-.04h2.16c3.31 0 4.96 1.15 4.96 3.46v.22c0 4.03-3.45 7.7-10.34 11v.2c3.45 3.17 6.33 5.54 8.63 7.13v.64c0 1.12-.36 1.84-1.08 2.16h-.86l-11.84-8.4-.21 4.31V220c-.36.72-.94 1.08-1.72 1.08-.57 0-1-.28-1.3-.86v-1.3l1.94-16.825c-.57 0-.86-.43-.86-1.286 0-2.59 2.15-4.1 6.46-4.53l4.1-.22zm-7.53 11.64h.22c7.46-1.91 11.19-4 11.19-6.25v-.22c0-.39-.72-.68-2.15-.86-2.38 0-5.25.51-8.61 1.52l-.64 5.81zm17.52 8.05c1.39 0 2.26.85 2.61 2.55 0 1.7-1.22 2.63-3.66 2.78-1.22-.45-1.83-1.23-1.83-2.31v-.23c.48-1.85 1.44-2.78 2.87-2.78z" fill="#000"/><g transform="matrix(-1 0 0 1 315 595)"><rect fill="#000" x="96.016" y="118.701" width="24.023" height="91.815" rx="8"/><rect fill="#000" x="193.867" y="118.701" width="24.023" height="91.815" rx="8"/><path d="M192.792 3.834c-12.403 0-23.862 3.004-33.24 8.05-8.636-3.932-18.757-6.195-29.585-6.195-30.703 0-55.73 18.18-57.185 41.04-14.587 7.82-24.106 20.64-24.106 35.16 0 23.83 25.627 43.17 57.265 43.17 3.43 0 6.79-.28 10.05-.71 8.69 15.5 29.04 26.4 52.78 26.4 17.35 0 32.9-5.82 43.41-15 2.14.18 4.32.31 6.52.31 28.47 0 52.07-15.65 56.51-36.15 13.93-7.88 22.96-20.45 22.96-34.57 0-23.83-25.66-43.13-57.3-43.13-.39 0-.77-.01-1.15 0-10.37-11.1-27.52-18.39-46.9-18.39z" stroke="#000" stroke-width="3.458" fill="#FFF"/><rect fill="#000" x="230.719" y="119.069" width="24.023" height="91.815" rx="8"/><rect fill="#000" x="130.327" y="118.701" width="24.023" height="91.815" rx="8"/><ellipse stroke="#000" stroke-width="3.5" fill="#CCC" transform="rotate(32 91.97 35.598)" cx="91.971" cy="35.598" rx="14.614" ry="17.679"/><ellipse stroke="#000" stroke-width="3.5" fill="#CCC" cx="36.793" cy="27.5" rx="16.5" ry="20.5"/><path d="M64.82 22.504c18.807 6.514 27.182 31.633 18.705 56.104-4.07 11.752-11.562 21.78-20.826 27.877-9.27 6.097-19.55 7.765-28.58 4.637-9.03-3.13-16.08-10.797-19.59-21.32-3.51-10.52-3.19-23.033.88-34.785 4.07-11.75 11.56-21.777 20.82-27.877 9.26-6.09 19.54-7.76 28.57-4.63z" stroke="#000" stroke-width="3.458" fill="#CCC"/><path d="M46.738 47.16c1.357 3.24-.187 6.974-3.448 8.34-3.26 1.364-7.004-.156-8.36-3.396-1.357-3.24.187-6.974 3.448-8.34 3.26-1.365 7.004.155 8.36 3.396z" fill="#000"/><path d="M26.43 74.81c9.742 21.522 21.763 16.996 39.237 9.23" stroke="#000" stroke-width="3.458" stroke-linecap="round"/><path d="M72.062 53.443c1.357 3.24-.187 6.974-3.448 8.34-3.26 1.364-7.004-.156-8.36-3.396-1.358-3.24.186-6.974 3.447-8.34 3.27-1.364 7.01.156 8.37 3.396z" fill="#000"/></g></g></svg>