<svg width="1540" height="820" viewBox="0 0 1540 820" xmlns="http://www.w3.org/2000/svg" xmlns:xlink="http://www.w3.org/1999/xlink"><title>story14</title><defs><path id="a" d="M0 0h1540v820H0z"/><mask id="b" x="0" y="0" width="1540" height="820" fill="#fff"><use xlink:href="#a"/></mask><path id="d" d="M40 40h1020v80H40z"/><filter x="-50%" y="-50%" width="200%" height="200%" filterUnits="objectBoundingBox" id="c"><feOffset dx="6" dy="6" in="SourceAlpha" result="shadowOffsetOuter1"/><feColorMatrix values="0 0 0 0 0 0 0 0 0 0 0 0 0 0 0 0 0 0 1 0" in="shadowOffsetOuter1"/></filter></defs><g fill="none" fill-rule="evenodd"><use stroke="#000" mask="url(#b)" stroke-width="8" fill="#402412" xlink:href="#a"/><path stroke="#000" stroke-width="4" fill="#371F0F" d="M235 132h1066v556H235z"/><path d="M4 2l229.457 129.306c0 .384.523.694 1.174.694h1065.19c.65 0 1.18-.31 1.18-.694L1538 2H4z" stroke="#000" stroke-width="4" stroke-linejoin="bevel" fill="#28170B"/><path d="M4 818l229.457-129.306c0-.384.523-.694 1.174-.694h1065.19c.65 0 1.18.31 1.18.694L1538 818H4z" stroke="#000" stroke-width="4" stroke-linejoin="bevel" fill="#2B2200"/><path stroke="#000" stroke-width="4" fill="#00002B" d="M860 190h380v265H860z"/><path fill="#FFE680" d="M935.89 260.923l-11.36-10.72-13.362 8.15 6.795-14L906 234.295l15.558 2.068 5.97-14.364 2.82 15.27L946 238.45l-13.815 7.375M1014 347.043l-15.566-1.786-5.697 14.443-3.093-15.196-15.644-.898L987.654 336l-3.97-15 11.53 10.498 13.19-8.372-6.527 14.095 12.123 9.83m175.11 60.13l-14.287-6.96-10.435 11.91 2.28-15.59L1152 390.4l15.696-2.675 1.37-15.7 7.42 13.94L1192 382.4l-11.11 11.29 8.22 13.5m-280.405 20.74l-7.184-14.01-15.52 3.31 11.25-11.088-7.98-13.58 14.14 7.16L913.98 388l-2.512 15.513 14.53 6.34-15.69 2.43-1.606 15.63"/><path fill="#FC0" d="M1093.18 295.82L1048 278l45.18-17.82L1111 215l17.82 45.18L1174 278l-45.18 17.82-17.82 76.74"/><path d="M478.707 519.154c-8.256-2.02-17.256 4.88-24.374 19.448-6.738 13.793-16.712 24.218-4.024 32.045 7.07 4.362 23.58-.75 21.85-11.16 1.27 5.708 1.04 16.97 4.83 16.917 5.54-.078 11.69-5.59 8.54-16.646-.77-2.702-.52-5.356-1.29-7.508.24-.664.49-1.333.66-2.032 3.89-15.725 2.05-29.044-6.21-31.064z" stroke="#050202" stroke-width="4" fill="#DEAA87"/><path d="M506.376 411.677l6.42 25.512-32.094 109.7-35.943-17.86c14.29-53.08 33.65-94.85 61.61-117.36z" stroke="#050202" stroke-width="4" fill="#D45500"/><path d="M658.744 519.154c8.257-2.02 17.256 4.88 24.374 19.448 6.738 13.793 16.712 24.218 4.025 32.045-7.072 4.362-23.59-.75-21.853-11.16-1.27 5.708-1.045 16.97-4.835 16.917-5.542-.078-11.69-5.59-8.542-16.646.77-2.702.52-5.356 1.29-7.508-.243-.664-.495-1.333-.668-2.032-3.896-15.725-2.048-29.044 6.21-31.064z" stroke="#050202" stroke-width="4" fill="#DEAA87"/><path d="M503.222 373.95c0 18.873 6.68 36.972 18.572 50.316 11.89 13.345 28.02 20.842 44.836 20.842 35.02 0 63.408-31.858 63.408-71.157 0-39.29-28.39-71.15-63.408-71.15-16.817 0-32.945 7.5-44.836 20.84-11.89 13.35-18.572 31.45-18.572 50.32z" stroke="#000" stroke-width="4" fill="#502D16"/><path d="M631.075 411.677l-6.418 25.512 32.092 109.7 35.94-17.86c-14.3-53.08-33.65-94.85-61.62-117.36z" stroke="#050202" stroke-width="4" fill="#D45500"/><path d="M568.174 735.678c0 4.737 3.45 9.28 9.588 12.628 6.138 3.35 14.464 5.23 23.146 5.23s17.008-1.88 23.147-5.23c6.138-3.35 9.587-7.89 9.587-12.628 0-9.863-14.655-17.858-32.734-17.858-18.08 0-32.734 7.995-32.734 17.858zm-77.664 2.552c0 4.736 3.45 9.278 9.59 12.627 6.137 3.35 14.463 5.23 23.145 5.23s17.008-1.88 23.147-5.23c6.138-3.35 9.587-7.89 9.587-12.627 0-9.863-14.66-17.86-32.74-17.86-18.08 0-32.74 7.997-32.74 17.86z" stroke="#050202" stroke-width="4" fill="#2B1100"/><path d="M482.965 551.816c-5.312 57.704-13.83 155.543-1.1 167.46 40.528 17.86 135.08 24.402 166.502-10.627 15.363-30.41 2.52-103.85 6.155-154.13 7.352-101.74-2.75-180.56-91.68-181.75-75.67-1.01-84.808 77.64-79.877 179.04z" stroke="#050202" stroke-width="4" fill="#D45500"/><path d="M520.024 355.775c0 15.19 4.973 29.76 13.824 40.5 8.852 10.74 20.858 16.776 33.376 16.776 12.52 0 24.524-6.03 33.376-16.77 8.852-10.74 13.825-25.31 13.825-40.5 0-15.19-4.973-29.76-13.825-40.5-8.852-10.74-20.857-16.77-33.376-16.77-12.518 0-24.524 6.04-33.376 16.78-8.85 10.74-13.824 25.31-13.824 40.5z" stroke="#050202" stroke-width="3.9" fill="#DEAA87"/><path d="M577.315 343.582c0 2.366 1.93 4.284 4.312 4.284 2.38 0 4.31-1.918 4.31-4.284 0-1.136-.453-2.226-1.26-3.03-.81-.803-1.907-1.254-3.05-1.254-1.144 0-2.24.45-3.05 1.254-.808.804-1.262 1.894-1.262 3.03zm-28.692.49c0 2.367 1.93 4.285 4.312 4.285 2.38 0 4.312-1.918 4.312-4.284 0-1.137-.455-2.226-1.263-3.03-.81-.803-1.906-1.255-3.05-1.255-1.143 0-2.24.452-3.048 1.255-.808.804-1.263 1.893-1.263 3.03z" fill="#000"/><path d="M583.696 390.39H550.72l-6.93 341.755c12.942 1.288 32.294 2.33 42.216.46l-2.31-342.215z" stroke="#000" stroke-width="4" fill="#2CA02C"/><path d="M566.8 429.743c19.038-.05 37.06-43.186 37.06-43.186 20.02-38.054-91.07-33.08-72.737 2.066 0 0 17.464 41.17 35.676 41.12z" stroke="#000" stroke-width="4" fill="#502D16"/><path d="M590.063 376.76c-5.977 5.788-43.623 2.108-46.878-.65-3.255-2.76 14.83 22.453 24.174 22.398 9.34-.055 28.68-27.54 22.7-21.75z" stroke="#000" stroke-width="4" fill="#DEAA87"/><path d="M482.368 538.717l172.53.163c-2.172 6.185-1.142 15.017-.49 22.607l-171.387-.324-.65-22.446z" stroke="#000" stroke-width="3.895" fill="#520"/><path d="M540.753 283.532c-34.89 5.744-47.745 87.934-37.67 141.127 1.79 8.45 13.22 10.25 19.91 6.48 5.924-2.58 7.12-9.25 7.446-14.97.96-13.77-6.41-76.7 3.65-88.05 10.05-11.36 63.83-8.61 72.8 3.58 8.96 12.19-5.26 85.77 2.28 101.04 7.03 8.76 24.27 4.58 25.39-6.92-2.23-16.83 5.46-84.41 2.82-98.23-2.64-13.82-15.85-35.62-27.21-39.89-26.01-9.78-34.54-9.94-69.43-4.19z" stroke="#050202" stroke-width="3.897" fill="#2CA02C"/><path d="M626.113 303.54c2.652 6.538 10.69 15.902 10.093 23.896l-128.456.91c2.004-7.155 3.03-13.08 9.06-23.768l109.303-1.037z" stroke="#000" stroke-width="4" fill="#520"/><path d="M212.32 411.677l6.42 25.512-11.185 109.05-43.13-15.26c14.296-53.08 19.928-96.8 47.896-119.31z" stroke="#050202" stroke-width="4.067" fill="#ACF"/><path d="M208.973 373.95c0 18.873 6.68 36.972 18.57 50.316 11.893 13.345 28.02 20.842 44.838 20.842 35.02 0 63.41-31.858 63.41-71.157 0-39.29-28.39-71.15-63.41-71.15-16.81 0-32.94 7.5-44.83 20.84-11.89 13.35-18.57 31.45-18.57 50.32z" stroke="#000" stroke-width="4.067" fill="#502D16"/><path d="M336.826 411.677l-6.42 25.512 11.186 109.05 43.13-15.26c-14.296-53.08-19.93-96.8-47.896-119.31z" stroke="#050202" stroke-width="4.067" fill="#ACF"/><path d="M273.924 735.678c0 4.737 3.45 9.28 9.588 12.628 6.14 3.35 14.465 5.23 23.147 5.23 8.68 0 17-1.88 23.14-5.23 6.14-3.35 9.59-7.89 9.59-12.628 0-9.863-14.66-17.858-32.74-17.858-18.08 0-32.74 7.995-32.74 17.858zm-77.664 2.552c0 4.736 3.45 9.278 9.59 12.627 6.138 3.35 14.464 5.23 23.146 5.23 8.68 0 17.007-1.88 23.146-5.23 6.14-3.35 9.588-7.89 9.588-12.627 0-9.863-14.656-17.86-32.734-17.86-18.08 0-32.735 7.997-32.735 17.86z" stroke="#050202" stroke-width="4.067" fill="#2B1100"/><path d="M206.963 561.487c-4.52 57.767-15.687 146.038-4.857 157.967 34.48 17.88 114.923 24.43 141.655-10.637 13.08-30.44-8.96-96.993-5.87-147.33 16.45-98.954 9.4-187.6-66.89-188.91-67.22-1.153-81.38 87.4-64.03 188.91z" stroke="#050202" stroke-width="3.753" fill="#06F"/><path d="M225.774 355.775c0 15.19 4.973 29.76 13.825 40.5 8.85 10.74 20.85 16.776 33.37 16.776 12.52 0 24.52-6.03 33.37-16.77 8.85-10.74 13.82-25.31 13.82-40.5 0-15.19-4.98-29.76-13.83-40.5-8.85-10.74-20.86-16.77-33.38-16.77-12.52 0-24.53 6.04-33.38 16.78-8.85 10.74-13.83 25.31-13.83 40.5z" stroke="#050202" stroke-width="3.965" fill="#E6C2AA"/><path d="M283.066 343.582c0 2.366 1.93 4.284 4.31 4.284 2.383 0 4.313-1.918 4.313-4.284 0-1.136-.46-2.226-1.27-3.03-.81-.803-1.91-1.254-3.05-1.254s-2.24.45-3.05 1.254c-.81.804-1.27 1.894-1.27 3.03zm-27.42.49c0 2.367 1.93 4.285 4.31 4.285s4.312-1.918 4.312-4.284c0-1.137-.454-2.226-1.263-3.03-.81-.803-1.905-1.255-3.05-1.255-1.142 0-2.24.452-3.048 1.255-.808.804-1.262 1.893-1.262 3.03z" fill="#000"/><path d="M295.554 408.967c-12.528 8.722-41.714 5.273-47.626-.792-25.434 67.066 3.47 324.16 1.54 324.16 12.987 1.184 32.404 2.142 42.36.422-2.786.107 25.683-251.68 3.726-323.79z" stroke="#000" stroke-width="3.953" fill="#ACF"/><path d="M295.813 369.182c-5.976 5.79-43.623 2.11-46.878-.65-3.254-2.758 14.83 22.454 24.174 22.4 9.34-.056 28.68-27.54 22.7-21.75z" stroke="#000" stroke-width="4.067" fill="#FFD5D5"/><path d="M246.504 283.532c-34.89 5.744-47.746 87.934-37.672 141.127 1.79 8.45 13.22 10.25 19.913 6.48 5.923-2.58 7.118-9.25 7.445-14.97-.37-9.8-10.92-62.84 3.65-88.05 14.57-25.22 64.72-19.61 72.8 3.58 8.082 23.19-5.26 86.44 2.288 101.04 7.035 8.76 24.268 4.58 25.395-6.92-2.222-16.83 5.464-84.41 2.82-98.23-2.64-13.82-15.85-35.62-27.21-39.89-26.006-9.78-34.54-9.94-69.43-4.19z" stroke="#050202" stroke-width="3.962" fill="#ACF"/><path d="M330.07 301.358c2.506 4.112 8.802 9.352 8.238 14.38l-121.484.572c1.896-4.5 2.54-9.2 8.243-15.923l105.002.97z" stroke="#000" stroke-width="3.956" fill="#06F"/><path d="M380.534 533.98c-2.03 6.303-.513 10.912-5.352 25.92-4.708 14.6-6.11 28.73-20.564 25.005-8.057-2.076-15.73-17.484-6.95-23.418-5.033 3.026-13.082 10.957-15.66 8.195-3.766-4.04-3.993-12.264 6.233-17.63 2.5-1.31 1.32-2.184 3.42-3.117.32-.632 3.34-2.657 3.96-3.017 10.71-6.16 29.28-10.598 34.92-11.937zm-211.92 0c2.03 6.303.512 10.912 5.35 25.92 4.71 14.6 6.11 28.73 20.565 25.005 8.05-2.076 15.73-17.484 6.95-23.418 5.03 3.026 13.08 10.957 15.65 8.195 3.77-4.04 3.99-12.264-6.23-17.63-2.5-1.31-1.32-2.184-3.42-3.117-.32-.632-3.33-2.657-3.96-3.017-10.71-6.16-29.28-10.598-34.92-11.937z" stroke="#050202" stroke-width="4.067" fill="#E6C2AA"/><g stroke="#000"><path d="M290.94 675.8c38.493 14.403 77.112 22.287 115.88 22.447 37.613.155 75.365-6.96 113.28-22.448 1.366 0 2.466 1.14 2.466 2.56v105.15c0 1.42-1.1 2.56-2.467 2.56H290.94c-1.368 0-2.468-1.15-2.468-2.56V678.36c0-1.418 1.1-2.56 2.467-2.56z" stroke-width="3.561" fill="#C8BEB7"/><path d="M329.758 645.693c22.785-1.435 45.35-6.698 68.18-6.51 23.39.193 46.42 5.93 69.734 7.823 22.642 1.838 53.633-14.012 68.063 3.422 11.443 13.826 6.024 41.597-7.737 53.15-16.045 13.47-42.09-3.535-62.997-1.51-20.3 1.964-39.34 12.79-59.74 13.17-18.51.346-36.14-9.3-54.65-9.93-18.18-.618-39.43 16.596-54.23 6.086-17.95-12.75-27.84-46.936-14.29-64.245 9.77-12.47 31.81-.46 47.68-1.46z" stroke-width="4.686" fill="#FD5"/></g><path d="M1089.822 640.068c-4.218-35.467-6.177-78.575-14.484-92.342-11.237-23.41-40.197-30.41-63.754-34.853-45.41-8.38-97.777 5.935-119.104 7.65-21.326 1.713-34.004 10.205-27.023-4.04 6.98-14.247 38.13-12.988 45.395-33.497 8.34-25.197-30.25-15.408-40.546-8.006-10.296 7.403-18.432 27.314-30.203 9.775-11.772-17.54-47.64-21.015-60.393-8.92-12.755 12.094-16.04 18.093-30.144 10.385-12.706-5.477-43.213-6.395-35.74 14.364 8.548 18.377 40.884 10.81 44.108 32.633.218 25.126 9.435 48.736 18.29 71.782 27.434 25.2 36.362 24.88 48.277 31.27 16.53 12.25 29.88 29.14 49.69 36.42 22.5 12.28-1.04 38.61-10.92 51.95 12.11 16.36 26.23 5.09 38.66 8.17 14.94 7.38 40 11.19 35.38-10.5 2.7-71.37 40.79-77.02 51.41-51.45 10.62 25.57 10.15 27.07 5.55 46.17-14.78 18.96 18.09 4.16 27.46 12.62 17.65 13.91 29.63 17.95 34.99-2.14-11.62-21.06.06-52.73 7.65-73.05 7.39-24.01 9.69-50.08 5.19-74.9 8.79 5.56 12.09 98.27 28.93 98.25-.68-7.17-7-24.08-8.63-37.77z" stroke="#000" stroke-width="3.5" stroke-linejoin="round" fill="#FFF"/><path d="M1001.592 511.73c-21.93 2.025-11.753 25.546-7.617 40.92 17.95 52.234 91.205 62.256 75.015-7.773-1.99-22.46-44.176-31.005-67.398-33.147z" stroke="#000" stroke-width="3.5" fill="#A05A2C"/><path d="M965.062 656.234c-16.657 9.544-11.562 15.88-8.827 23.932 2.16 6.356 10.333 11.115 17.036 10.74 5.32-.295 7.28-11.106 12.47-9.958 5.5 1.214 2.33 12.966 7.53 15.116 4.46 1.842 9.59-2.126 13.71-4.62 3.21-1.94 7.05-4.18 8.14-7.77 2.3-7.61.7-18.006-5.27-23.25-11.26-9.89-24.67-14.29-44.77-4.19" stroke="#000" stroke-width="3.5" fill="#FFD5D5"/><path d="M1010.63 661.738c-2.14 15.115 9.522 30.06 10.436 45.637.298 5.085-5.45 15.735-1.64 15.194 5.094-.35 29.92 2.75 32.414-.96-.58-10.31-.954-23.16 1.667-32.78 1.682-7.2 5.807-18.43 7.004-25.87 2.06-8.69-4.15-17.69-12.34-20.43-15.65-3.5-36.73 1.33-37.53 19.19zM793.526 474.814c-20.284-12.115-35.258 37.24-37.3 51.363 2.28 16.723-1.263 40.69 22.15 39.544 16.67-3.78 30.325-20.14 34.81-36.45 5.554-22.46-1.666-40.02-19.66-54.45zm50.512 171.82c-6.99 8.05 26.03 25.216 31.884 26.282 9.878-.178 7.33-19.815 3.77-23.874-7.52-8.57-28.835-10.26-35.654-2.408z" stroke="#000" stroke-width="3.5" fill="#A05A2C"/><path d="M940.433 733.455c-1.188-14.75-21.37-24.48-25.957-23.745-4.586.734-11.888 3.295-14.61 9.478-9.732-1.593-20.486-5.22-30.66-1.634-3.524 2.123-9.17 10.853-8.847 15.45 3.13 12.15 40.74 8.14 51.32 8.625 9.79 1.13 29.94 6.57 28.75-8.18zm87.807 9.572c7.087.63 24.3 2.405 29.582-4.095 4.5-11.71-3.943-21.926-14.87-24.77-3.7-.966-7.584-1.334-11.384-.76-3.348.508-9.318 4.856-12.042 4.64-3.234-.257-8.844-5.49-12.923-6.335-5.275-1.09-8.315-.72-11.774 3.678-1.63 2.062-2.81 4.696-3.53 7.196-1.27 4.44-1.14 4.76 2.91 6.18 4.09 1.43 9.36 1.35 13.65 1.78 1.45.15 5.47-.39 6.45.47.36.32.29 3.83.92 4.79 3.72 5.68 5.9 6.62 12.99 7.25z" stroke="#000" stroke-width="3.5" fill="#CCC"/><path d="M791.96 523.205c.02 4.046-2.094 7.336-4.718 7.347-2.623.01-4.764-3.26-4.782-7.306-.017-4.047 2.096-7.336 4.72-7.347 2.623-.02 4.764 3.25 4.78 7.3z" fill="#000"/><path d="M858.398 598.383c0 8.08-4.55 15.83-12.645 21.544-8.096 5.714-19.076 8.924-30.526 8.924-23.842 0-43.17-13.64-43.17-30.46s19.328-30.47 43.17-30.47c11.45 0 22.43 3.21 30.526 8.93s12.645 13.47 12.645 21.55z" stroke="#000" stroke-width="3.5" fill="#FFD5D5"/><path d="M791.307 610.2c17.944 14.215 40.677 6.284 44.537-.103" stroke="#000" stroke-width="3.5" stroke-linecap="round"/><path d="M842.276 519.613c.017 4.046-2.095 7.335-4.72 7.347-2.623.01-4.764-3.26-4.78-7.307-.018-4.046 2.094-7.336 4.718-7.347 2.623-.01 4.764 3.26 4.782 7.307zm-32.53 69.407c.017 4.046-2.096 7.335-4.72 7.346-2.623.01-4.763-3.26-4.78-7.307-.017-4.05 2.096-7.34 4.72-7.35 2.623-.01 4.764 3.26 4.78 7.3zm20.952-.212c.017 4.046-2.096 7.336-4.72 7.347-2.623.01-4.764-3.26-4.78-7.307-.017-4.047 2.096-7.336 4.72-7.347 2.623-.01 4.763 3.26 4.78 7.31z" fill="#000"/><path d="M755.46 502.546c-.468 2.34-2.632 4.24-6.013 5.285-3.382 1.05-7.705 1.15-12.02.28-8.98-1.8-15.47-7.21-14.494-12.08.977-4.87 9.05-7.36 18.033-5.56 4.313.87 8.264 2.63 10.982 4.89 2.718 2.27 3.982 4.86 3.513 7.2zm145.802-25.534c1.133 2.1.556 5.013-1.604 8.097-2.16 3.08-5.727 6.08-9.916 8.34-8.723 4.7-17.708 4.97-20.07.6-2.36-4.38 2.8-11.74 11.52-16.45 4.19-2.26 8.658-3.6 12.42-3.71 3.765-.12 6.516 1 7.65 3.1z" stroke="#000" stroke-width="3.573" fill="#FFD5D5"/><path d="M980.122 577.832c0 8.674-4.703 16.992-13.075 23.125-8.37 6.133-19.725 9.578-31.564 9.578-24.654 0-44.64-14.64-44.64-32.703 0-18.06 19.986-32.702 44.64-32.702 11.84 0 23.193 3.445 31.564 9.578 8.372 6.133 13.075 14.45 13.075 23.124z" stroke="#000" stroke-width="3.505" fill="#A05A2C"/><path d="M849.92 616.648c11.743-12.22 30.058-56.073 13.477-94.53m25.685 219.135c1.785-2.67 1.296-10.48 10.395-21.54 10.51-12.777 4.918-37.89-.913-36.99-5.832.9-12.404.16-23.3-9.498m143.866 44.955c-4.05 2.253-4.608 9.518-4.996 12.47" stroke="#000" stroke-width="3.5"/><path d="M1075.15 400.097c-.896 14.876-.34 31.347 8.775 43.815-2.054 31.206-27.592 68.776-52.223 78.118 21.396-6.353 21.987 25.384 26.11 43.208 4.913 13.678 50.696-8.86 47.925 5.264-10.67 50.193 28.15 89.786 30.2 137.633 8.277 1.347 17.155 5.817 24.45 9.872-1.472-17.143 7.69-46.036 5.802-54.194-.34-8.948-8.19-20.48-7.61-26.774 4.5 14.44 9.4 30.61 13.43 46.1 2.63 10.12-3.74 34.63 4.62 32.37 11.43 1.29 24.14 9.61 34.01 11.96-2.93-16.15 8.04-70.31 13.68-86.09-1.38 4.12-9.02 36.79-9.64 40.86 3.88-1.51 3.49-.28 8.41-1.04 5.43 3.91 4.23 27.15 1.2 33.07 3.68 2.4 17.29 3.46 20.82 6.07 12.53-3.46 11.36-31.05 8.64-41.18 19.07-9.35 10.14-33.79 22.29-51.63-4.25 6.55-8.54 17.26-8.77 29.3-1.45 8.87-12.03 59.61-.15 54.33 19.04-4.7 22.85 5.95 24-8 10.43-49.66 60.02-92.47 30.38-143.24-29.81-37.54-76.72-18.51-116.42-9.3-38.38 8.32-36.36-48.62-40.72-75.64 1.32-11.66 14.36-15.81 19.84-25.11 12.07-16.4 19-36.73 18.42-57.16-23 5.36-39.52 25.45-46.77 47.09-9.49 20.51-45.08 18.78-51.32-5.24-5.16-21.18-8.35-44.51-23.75-61.16 0 0-4.32 17.76-5.67 26.67z" stroke="#000" stroke-width="3.5" stroke-linecap="round" stroke-linejoin="round" fill="#A05A2C"/><path d="M1096.688 542.69c0 7.694-4.03 15.073-11.2 20.513-7.17 5.44-16.894 8.497-27.035 8.497-10.14 0-19.865-3.056-27.036-8.497-7.17-5.44-11.198-12.82-11.198-20.513 0-7.694 4.02-15.073 11.19-20.514 7.17-5.44 16.89-8.497 27.03-8.497s19.86 3.05 27.03 8.49c7.17 5.44 11.2 12.82 11.2 20.51z" stroke="#000" stroke-width="3.106" fill="#FFD5D5"/><path d="M1130.31 719.764c-.096.272-.194.532-.29.81-4.207 12.055-.55 13.818 11.59 14.972-13.15-1.25-15.467-3.64-11.3-15.782zm-44.97-273.15c-1.054-3.506-3.63-6.456-5.693-9.58 1.49 3.564 3.367 6.8 5.694 9.58zm-.53 5.376c-1.333 1.172-2.628 2.352-3.886 3.544.115-.1.23-.205.344-.306 1.42-1.238 2.71-2.146 3.542-3.238zm40.162-.04c.677.1 1.36.187 2.053.254.503-.133 1.036-.28 1.593-.44-1.257.14-2.476.198-3.646.186zm-44.14-78.528c-.29-.313-.56-.636-.86-.945-.09.3-.178.614-.266.92.176-.047.357-.083.55-.085.183-.002.377.038.576.11z"/><path d="M1262.328 712.77c-1.686 2.38-1.93 5.43-2.85 8.145-1.126 4.018-1.698 8.19-3.185 12.092 6.825 6.854 38.59 13.19 38.033-1.856-1.126-6.34-.89-14.36-5.463-19.36-6.187-3.1-20.755-3.53-26.535.98z" stroke="#000" stroke-width="3.5" fill="#520"/><path d="M1084.18 394.635c-.294 6.608-6.17 36.677 5.636 37.548 11.66-4.924-5.637-37.548-5.637-37.548z" stroke="#000" stroke-width="3.5" fill="#FFD5D5"/><path d="M1161.127 481.933c-1.54 7.314-2.023 12.144 2.72 22.857 4.745 10.712 11.076 30.75 17.5 43.724 6.424 12.973-.658 46.36-4.883 54.2-4.225 7.84 10.024 7.81 13.543 2.552 10.327-11.677 3.095-22.328 6.594-43.11 3.5-20.783-6.2-50.907-13.17-76.035-2.14-6.45-3.26-21.58-8.89-23.17-5.63-1.59-11.86 11.67-13.4 18.99zm160.143 78.1c11.846 34.307 8.23 74.435-9.71 105.29-3.28 4.457-8.44 19.776-1.598 23.87 5.97 3.57 11.96-2.082 17.69-11.076 18.554-32.875 13.435-70.442.366-104.22-1.613-4.112-5.1-9.765-6.748-13.863zm-97.217 155.4c-4.11 6.79-6.545 15.678-5.79 23.715 7.542 3.26 23.35 3.688 26.93-4.704.52-2.234 3.933-12.145 2.9-14.128-4.272-3.288-18.558-7.323-24.04-4.882zm-61.753 25.12c2.94 6.903 45.726 4.106 48.914-1.65 7.673-13.85-21.604-20.723-28.865-22.775-14.91-6.41-17.43 13.143-20.05 24.424zm-26.868-29.908c-11.8 18.373-8.508 25.342 14.69 25.657 1.716.59 3.86.157 5.615-.362 1.254-.858 5.657-14.423 4.91-16.635-7.252-4.403-16.323-14.25-25.215-8.66zm17.374-280.225c-6.85-12.434-22.4-7.94-33.865-5.824-11.16-2.677-10.13 8.397-13.48 15.895-1.85 2.25-5.84 1.3-7.16 4.17 4.23 29.63 63.08 11.29 54.51-14.23z" stroke="#000" stroke-width="3.5" fill="#520"/><path d="M1091.778 605.028c1.752 2.973-1.398-2.368 0 0zm9.192-129.628c-2.092 3.464-5.61 5.172-7.855 3.815-2.245-1.358-2.37-5.265-.275-8.728 2.093-3.463 5.61-5.17 7.855-3.814 2.245 1.358 2.37 5.265.276 8.728zm25.756 7.315c-1.098 3.895-4.034 6.476-6.56 5.765-2.525-.71-3.683-4.445-2.585-8.34 1.1-3.895 4.04-6.476 6.56-5.765 2.53.71 3.69 4.445 2.59 8.34z" fill="#000"/><path d="M1097.793 565.368c20.916 1.127 37.48-12.53 47.815-27.99" stroke="#000" stroke-width="3.5" stroke-linecap="round"/><path d="M1189.76 408.948c-5.11 5.608-32.366 27.796-22.6 37.23 13.89 4.22 22.6-37.23 22.6-37.23z" stroke="#000" stroke-width="3.5" fill="#FFD5D5"/><path d="M1087.667 566.99c24.062-9.096 29.536-35.59 25.606-42.998" stroke="#000" stroke-width="3.5" stroke-linecap="round"/><path d="M1130.31 719.764c-.096.272-.194.532-.29.81-4.207 12.055-.55 13.818 11.59 14.972-13.15-1.25-15.467-3.64-11.3-15.782zm-44.97-273.15c-1.054-3.506-3.63-6.456-5.693-9.58 1.49 3.564 3.367 6.8 5.694 9.58zm-.53 5.376c-1.333 1.172-2.628 2.352-3.886 3.544.115-.1.23-.205.344-.306 1.42-1.238 2.71-2.146 3.542-3.238zm40.162-.04c.677.1 1.36.187 2.053.254.503-.133 1.036-.28 1.593-.44-1.257.14-2.476.198-3.646.186zm-44.14-78.528c-.29-.313-.56-.636-.86-.945-.09.3-.178.614-.266.92.176-.047.357-.083.55-.085.183-.002.377.038.576.11z"/><path d="M1091.778 605.028c1.752 2.973-1.398-2.368 0 0zm9.192-129.628c-2.092 3.464-5.61 5.172-7.855 3.815-2.245-1.358-2.37-5.265-.275-8.728 2.093-3.463 5.61-5.17 7.855-3.814 2.245 1.358 2.37 5.265.276 8.728zm25.756 7.315c-1.098 3.895-4.034 6.476-6.56 5.765-2.525-.71-3.683-4.445-2.585-8.34 1.1-3.895 4.04-6.476 6.56-5.765 2.53.71 3.69 4.445 2.59 8.34zm-87.61 62.375c-.873 3.95-3.658 6.694-6.22 6.127-2.562-.566-3.93-4.228-3.056-8.18.873-3.95 3.658-6.694 6.22-6.128 2.562.56 3.93 4.22 3.056 8.18zm23.354 8.347c-1.097 3.895-4.033 6.476-6.56 5.765-2.524-.71-3.682-4.445-2.585-8.34 1.097-3.895 4.034-6.476 6.56-5.765 2.525.71 3.682 4.446 2.585 8.34z" fill="#000"/><use fill="#000" filter="url(#c)" xlink:href="#d"/><use fill="#FFF" xlink:href="#d"/><path d="M95.71 60h.475c2.04.223 3.058 1.137 3.058 2.742v.545c0 2.742-1.02 5.297-3.058 7.664h-.475c-.316-.08-.627-.53-.932-1.37l1.178-4.09-.95-.56c-2.167.18-6.175 2.37-12.023 6.58v.28l15.557 2.74c1.57 1.14 2.356 3.06 2.356 5.75v1.64c0 3.68-2.59 6.88-7.77 9.6-2.04.73-4.002 1.09-5.89 1.09h-.473c-5.414 0-8.713-2.19-9.897-6.57V84.4c0-2.014.55-3.02 1.653-3.02 1.07 3.47 3.04 5.203 5.88 5.203 0 .37 1.18.55 3.53.55 3.49 0 6.86-1.64 10.12-4.92 0-2.17-5.03-3.54-15.08-4.113-3.61-.924-5.42-2.294-5.42-4.094 0-4.452 4.87-8.93 14.6-13.43l3.54-.55zm22.535 4.447c5.004.692 7.506 3.686 7.506 8.983 0 6.937-2.74 12.68-8.22 17.226-2.26 1.29-4.28 1.934-6.06 1.934-4.34 0-7.14-2.344-8.4-7.03l-.17-2.18v-.74c0-7.57 3.46-13.312 10.37-17.226 1.74-.644 3.4-.967 5-.967zM105.202 83.38c1.805 2.74 4.19 4.112 7.154 4.112 4.77 0 8.104-2.83 10.002-8.49l.352-2.672c0-3.984-1.963-6.328-5.89-7.03h-.544c-3.246 0-6.638 3.233-10.177 9.702-.6 1.945-.9 3.404-.9 4.377zm49.078-23.31h.528c.867.48 1.3 1.22 1.3 2.215v.563c0 6.01.516 13.054 1.547 21.13h.264c5.71-15.2 9.08-22.8 10.1-22.8h.77c.76 0 1.97 5.285 3.62 15.855 1.56 5.414 2.34 9.95 2.34 13.606-.51 1.3-1.29 1.95-2.34 1.95-.69 0-1.64-4.54-2.85-13.63l-2.08-8.9c-1.49 2.42-4.17 8.72-8.04 18.89-1.12 1.14-2.07 1.8-2.85 1.95-2.25 0-3.38-3.06-3.38-9.18l-1.28-11.67h-.27l-7.77 17.79c-.47 2.96-.9 4.44-1.3 4.44h-1.04l-1.04-1.11V89.8c0-2.497 2.16-7.87 6.48-16.12 3.07-8.66 5.05-13.107 5.96-13.34l1.28-.283zm33.45 4.43h.845c1.16 0 2.63 5.36 4.412 16.084 1.407 5.063 2.11 8.502 2.11 10.318-.293.96-.856 1.442-1.688 1.442-1.08 0-1.86-2.56-2.32-7.682l-.22-.228h-.21c-1.83.023-5.69 1.142-11.57 3.357-.57 3.2-1.48 4.8-2.75 4.8-.85-.32-1.27-.96-1.27-1.91 0-1.85 3.86-10.33 11.58-25.45l1.05-.72zm-.42 6.715c-1.688 3.047-3.235 6.252-4.64 9.615h1.476c1.43 0 3.257-.322 5.484-.967l-1.9-8.648h-.42zm22.675-6.768h2.426c3.72 0 5.58 1.295 5.58 3.885v.246c0 4.535-3.88 8.66-11.63 12.375v.23c3.88 3.56 7.12 6.233 9.71 8.014v.72c0 1.255-.4 2.063-1.21 2.427h-.96l-13.32-9.457-.24 4.85v3.64c-.41.81-1.05 1.213-1.93 1.213-.64 0-1.13-.322-1.46-.967v-1.46l2.18-18.93c-.64 0-.96-.48-.96-1.442 0-2.91 2.42-4.61 7.26-5.09l4.61-.24zm-8.472 13.096h.246c8.39-2.156 12.58-4.5 12.58-7.03v-.247c0-.446-.81-.768-2.43-.967-2.69 0-5.92.56-9.69 1.7l-.72 6.54zM220.128 64.5l5.38 8.156 2.354 1.934c2.977-5.297 5.05-8.502 6.223-9.615h1.072l.862.966c-.12.86-3.49 6.86-10.09 18-1.67 3.13-2.89 5.93-3.66 8.41l-.63.25c-1.01-.47-1.52-1.19-1.52-2.16.06-1.25 1.77-5.17 5.15-11.76-4.87-5.23-7.3-9.47-7.3-12.73.9-.96 1.62-1.44 2.14-1.44zm39.78 0h.843c1.16 0 2.64 5.36 4.42 16.084 1.41 5.063 2.11 8.502 2.11 10.318-.29.96-.85 1.442-1.69 1.442-1.08 0-1.85-2.56-2.32-7.682l-.21-.228h-.21c-1.83.023-5.68 1.142-11.56 3.357-.56 3.2-1.47 4.8-2.74 4.8-.84-.32-1.26-.96-1.26-1.91 0-1.85 3.86-10.33 11.59-25.45l1.06-.72zm-.423 6.715c-1.687 3.047-3.234 6.252-4.64 9.615h1.476c1.43 0 3.26-.322 5.49-.967l-1.9-8.648h-.42zm13.448-6.768c1.066 0 2.343 2.004 3.832 6.012 2.882 5.9 6.088 10.95 9.615 15.15 1.183-11.57 2.062-18.38 2.637-20.45l.966-.72h.72c.482 0 .722.32.722.96-1.442 16.52-2.32 25.34-2.637 26.45l-1.44.47c-2.568 0-6.892-5.45-12.974-16.35l-.967-.97-.246.72-.72 11.07v1.44l.25 1.44c-.21 1.92-.85 2.88-1.91 2.88-.98-.35-1.54-.83-1.68-1.44 1.23-17.32 2.11-25.98 2.64-25.98l1.22-.72zm29.285 0h1.072c5.098 0 8.22 2.022 9.37 6.065l.21 1.933c0 8.05-5.965 14.684-17.894 19.9l-1.055.245h-.22c-.31 0-.59-.57-.84-1.705l2.13-20.865c-.85 0-1.28-.24-1.28-.72v-.493c0-2.578 1.14-3.868 3.41-3.868l5.12-.5zm-4.254 5.098c-1.277 8.297-1.916 13.875-1.916 16.734v1.21c8.94-4.47 13.412-8.67 13.412-12.62v-.23c0-2.28-.64-3.41-1.916-3.41-1.582-1.13-4.137-1.69-7.664-1.69h-1.916zM338.78 60l9.598.563L353.58 60l.546.844v1.125c0 3-1.734 4.5-5.203 4.5h-.28c-.435 16.28-1.894 24.43-4.378 24.43-1.278 1.12-3.018 1.69-5.22 1.69h-1.917c-6.21-.95-9.316-4.04-9.316-9.27.55-3.14 1.37-5.21 2.46-6.19h.282c.28 0 .738 2.06 1.37 6.18 1.255 2.42 3.264 3.64 6.03 3.64 4.02 0 6.03-1.69 6.03-5.05l1.37-15.74h-3.023c-4.01 0-6.02-.47-6.02-1.41v-.56c.55-2.82 1.38-4.22 2.48-4.22zm30.797 4.447c5.004.692 7.506 3.686 7.506 8.983 0 6.937-2.742 12.68-8.227 17.226-2.26 1.29-4.283 1.934-6.064 1.934-4.348 0-7.148-2.344-8.402-7.03l-.176-2.18v-.74c0-7.57 3.457-13.312 10.37-17.226 1.735-.644 3.4-.967 4.993-.967zM356.534 83.38c1.805 2.74 4.19 4.112 7.154 4.112 4.77 0 8.104-2.83 10.002-8.49l.352-2.672c0-3.984-1.963-6.328-5.89-7.03h-.544c-3.246 0-6.638 3.233-10.177 9.702-.59 1.945-.89 3.404-.89 4.377zm36.563-18.88h.37c1.616.2 2.425.984 2.425 2.355v.475c0 2.367-.81 4.57-2.426 6.61h-.37c-.257-.07-.51-.463-.755-1.178l.95-3.533-.73-.48c-1.72.15-4.88 2.04-9.49 5.66v.23l12.27 2.37c1.24.98 1.87 2.63 1.87 4.95v1.4c0 3.17-2.04 5.93-6.13 8.26-1.6.63-3.16.95-4.66.95h-.38c-4.26 0-6.86-1.89-7.8-5.66V85.5c0-1.735.43-2.602 1.3-2.602.86 3 2.41 4.5 4.66 4.5 0 .307.93.46 2.79.46 2.76 0 5.42-1.41 8-4.237 0-1.87-3.96-3.06-11.9-3.55-2.86-.79-4.29-1.97-4.29-3.53 0-3.83 3.85-7.69 11.54-11.56l2.79-.47zm25.05 0c.807.176 1.21.79 1.21 1.846-.256 1.992-1.06 2.988-2.407 2.988-8.836 0-13.254 1.23-13.254 3.69l-.246 2.076v1.142c5.766-1.383 9.703-2.074 11.813-2.074h.474c.81.352 1.213 1.12 1.213 2.303 0 1.69-1.125 2.54-3.375 2.54-7.394.96-11.092 2.12-11.092 3.47l-.228 2.31v.92c0 1.38.88 2.15 2.637 2.3 2.765-.3 6.222-.99 10.37-2.07h.72c.646.25.968.79.968 1.62v.69c0 1.89-4.02 3.35-12.058 4.38h-.72c-2.896 0-4.5-1.84-4.818-5.52 0-2.7.563-7.85 1.688-15.43l-.475-1.39c0-3.11 4.817-4.95 14.45-5.52l3.13-.23zm14.272-.053c4.65 0 6.97 1.365 6.97 4.096 0 5.402-5.1 10.29-15.3 14.66-.75 0-1.13.48-1.13 1.442-.11 5.296-.64 7.945-1.59 7.945h-1.13c-.31-.07-.61-.47-.9-1.195l2.02-19.723h-.23c-.6 0-.9-.727-.9-2.18 0-2.355 1.35-3.715 4.06-4.078l8.08-.967zm-9 13.957c5.14-1.347 9.04-3.59 11.7-6.732l.44-1.46v-.474l-1.13-.246h-1.13c-5.99.328-8.98.89-8.98 1.688l-.92 7.224zm34.75-13.957c.83.223 1.25.79 1.25 1.705v.23c-1.18 17.308-2.01 25.962-2.5 25.962l-.27.246h-.74c-.87 0-1.45-.404-1.76-1.213.33-2.31.49-5.543.49-9.703h-.25l-10.5 2.426-.74.966v4.606c0 1.37-.51 2.344-1.51 2.918h-.49c-.94 0-1.53-.404-1.76-1.213 1.16-17.473 2.83-26.21 5.01-26.21h.49l.75.985c-1.17 5.8-1.76 10.084-1.76 12.85 7.67-1.008 11.51-2.22 11.51-3.64l1-10.194 1.76-.72zm36.54 0c.83.223 1.25.79 1.25 1.705v.23c-1.17 17.308-2.01 25.962-2.5 25.962l-.27.246h-.74c-.87 0-1.46-.404-1.76-1.213.32-2.31.49-5.543.49-9.703h-.25l-10.5 2.426-.74.966v4.606c0 1.37-.51 2.344-1.51 2.918h-.5c-.94 0-1.53-.404-1.76-1.213 1.16-17.473 2.83-26.21 5.01-26.21h.49l.75.985c-1.17 5.8-1.76 10.084-1.76 12.85 7.67-1.008 11.51-2.22 11.51-3.64l1-10.194 1.76-.72zm13.67.053h.84c1.16 0 2.63 5.36 4.41 16.084 1.4 5.063 2.11 8.502 2.11 10.318-.3.96-.86 1.442-1.69 1.442-1.08 0-1.85-2.56-2.32-7.682l-.21-.228h-.21c-1.83.023-5.69 1.142-11.57 3.357-.57 3.2-1.48 4.8-2.74 4.8-.85-.32-1.27-.96-1.27-1.91 0-1.85 3.86-10.33 11.58-25.45l1.05-.72zm-.42 6.715c-1.69 3.047-3.24 6.252-4.64 9.615h1.47c1.43 0 3.25-.322 5.48-.967l-1.9-8.648h-.42zm18.96-6.768H528c5.096 0 8.22 2.022 9.368 6.065l.21 1.933c0 8.05-5.962 14.684-17.892 19.9l-1.054.245h-.23c-.315 0-.597-.57-.843-1.705l2.13-20.865c-.86 0-1.29-.24-1.29-.72v-.493c0-2.578 1.13-3.868 3.41-3.868l5.11-.5zm-4.26 5.098c-1.28 8.297-1.92 13.875-1.92 16.734v1.21c8.94-4.47 13.41-8.67 13.41-12.62v-.23c0-2.28-.64-3.41-1.92-3.41-1.58-1.13-4.14-1.69-7.67-1.69h-1.92zm49.36-5.115c1.52 0 2.28.632 2.28 1.898v.475c0 1.746-1.36 2.62-4.08 2.62l-5.08.245c-1.53 8.12-2.29 15.105-2.29 20.953-.41 1.27-.83 1.9-1.27 1.9h-.78c-.88 0-1.39-.24-1.53-.72.85-8.99 1.79-16.29 2.79-21.9l-7.63 1.2c-.71 0-1.14-.71-1.27-2.14 0-2.38 2.12-3.57 6.36-3.57 2.54-.63 6.694-.95 12.46-.95zm16.92.017c5 .692 7.5 3.686 7.5 8.983 0 6.937-2.75 12.68-8.23 17.226-2.26 1.29-4.28 1.934-6.07 1.934-4.35 0-7.15-2.344-8.4-7.03l-.18-2.18v-.74c0-7.57 3.45-13.312 10.37-17.226 1.73-.644 3.4-.967 4.99-.967zM575.92 83.38c1.805 2.74 4.19 4.112 7.155 4.112 4.77 0 8.103-2.83 10-8.49l.353-2.672c0-3.984-1.96-6.328-5.89-7.03H587c-3.244 0-6.637 3.233-10.176 9.702-.597 1.945-.896 3.404-.896 4.377zm51.51-18.88h.37c1.617.2 2.426.984 2.426 2.355v.475c0 2.367-.81 4.57-2.426 6.61h-.37c-.257-.07-.51-.463-.755-1.178l.95-3.533-.74-.48c-1.722.15-4.886 2.04-9.49 5.66v.23l12.268 2.37c1.242.98 1.863 2.63 1.863 4.95v1.4c0 3.17-2.045 5.93-6.134 8.26-1.606.63-3.16.95-4.66.95h-.385c-4.266 0-6.868-1.89-7.805-5.66V85.5c0-1.735.434-2.602 1.3-2.602.856 3 2.41 4.5 4.66 4.5 0 .307.93.46 2.794.46 2.754 0 5.42-1.41 7.998-4.237 0-1.87-3.967-3.06-11.9-3.55-2.86-.79-4.29-1.97-4.29-3.53 0-3.83 3.844-7.69 11.532-11.56l2.795-.47zm25.77-.07c1.524 0 2.285.632 2.285 1.898v.475c0 1.746-1.36 2.62-4.078 2.62l-5.08.245c-1.523 8.12-2.285 15.105-2.285 20.953-.41 1.27-.832 1.9-1.266 1.9h-.773c-.88 0-1.39-.24-1.53-.72.856-8.99 1.788-16.29 2.796-21.9l-7.63 1.2c-.72 0-1.14-.71-1.27-2.14 0-2.38 2.12-3.57 6.36-3.57 2.54-.63 6.7-.95 12.46-.95zm12.41.07h.844c1.16 0 2.63 5.36 4.412 16.084 1.406 5.063 2.11 8.502 2.11 10.318-.293.96-.856 1.442-1.688 1.442-1.078 0-1.85-2.56-2.32-7.682l-.21-.228h-.212c-1.828.023-5.684 1.142-11.567 3.357-.57 3.2-1.48 4.8-2.75 4.8-.85-.32-1.27-.96-1.27-1.91 0-1.85 3.86-10.33 11.58-25.45l1.05-.72zm-.422 6.715c-1.687 3.047-3.234 6.252-4.64 9.615h1.476c1.43 0 3.258-.322 5.485-.967l-1.9-8.648h-.43zM676.93 64.5l5.38 8.156 2.355 1.934c2.977-5.297 5.05-8.502 6.223-9.615h1.072l.86.966c-.116.86-3.48 6.86-10.09 18-1.663 3.13-2.88 5.93-3.655 8.41l-.633.25c-1.007-.47-1.51-1.19-1.51-2.16.057-1.25 1.774-5.17 5.15-11.76-4.864-5.23-7.296-9.47-7.296-12.73.902-.96 1.617-1.44 2.145-1.44zm30.71 0c.785 0 1.177 2.72 1.177 8.156l1.582 10.336h.38c0-.597 1.57-3.803 4.73-9.615.49-3.832 1.41-5.748 2.76-5.748h.38c.79 0 1.45 2.95 1.97 8.87.88 4.04 1.53 6.44 1.97 7.2.42-2.04 2.52-8.05 6.31-18.02.55-.64 1.07-.95 1.58-.95.7 0 1.16.31 1.37.95 0 .82-1.97 6.18-5.91 16.08-.66 2.34-1.25 5.55-1.78 9.61-.42.79-.95 1.19-1.58 1.19-1.2 0-2.11-2.72-2.75-8.16-1.29-5.31-2.08-8.19-2.38-8.65l-3.94 7.68c-.66 1.5-1.25 4.06-1.78 7.68-.35.59-.88.99-1.57 1.2-1.1 0-2.02-4.16-2.76-12.48-1.06-5.88-1.58-10.61-1.58-14.17 0-.48.59-.88 1.77-1.19zm29.865-.123h1.652c.55 0 .826.322.826.967-1.29 10.523-1.933 17.824-1.933 21.902v2.672c-.363 1.78-1.278 2.672-2.742 2.672h-.545l-1.108-.967c.74-11.04 1.658-19.8 2.76-26.28l1.09-.966zm23.642.053c1.524 0 2.286.632 2.286 1.898v.475c0 1.746-1.36 2.62-4.08 2.62l-5.08.245c-1.522 8.12-2.284 15.105-2.284 20.953-.41 1.27-.84 1.9-1.27 1.9h-.78c-.88 0-1.39-.24-1.53-.72.85-8.99 1.78-16.29 2.79-21.9l-7.63 1.2c-.72 0-1.14-.71-1.27-2.14 0-2.38 2.12-3.57 6.36-3.57 2.54-.63 6.7-.95 12.46-.95zm20.338.017c.832.223 1.248.79 1.248 1.705v.23c-1.17 17.308-2.004 25.962-2.496 25.962l-.263.246h-.74c-.866 0-1.452-.404-1.756-1.213.328-2.31.492-5.543.492-9.703h-.246L767.212 84.1l-.738.966v4.606c0 1.37-.504 2.344-1.512 2.918h-.492c-.938 0-1.524-.404-1.758-1.213 1.16-17.473 2.83-26.21 5.01-26.21h.492l.756.985c-1.172 5.8-1.758 10.084-1.758 12.85 7.676-1.008 11.514-2.22 11.514-3.64l1.002-10.194 1.757-.72zm37.284-.017c1.52 0 2.28.632 2.28 1.898v.475c0 1.746-1.36 2.62-4.08 2.62l-5.08.245c-1.53 8.12-2.29 15.105-2.29 20.953-.41 1.27-.84 1.9-1.27 1.9h-.78c-.88 0-1.39-.24-1.53-.72.85-8.99 1.78-16.29 2.79-21.9l-7.63 1.2c-.72 0-1.14-.71-1.27-2.14 0-2.38 2.12-3.57 6.36-3.57 2.54-.63 6.69-.95 12.46-.95zm20.33.017c.83.223 1.25.79 1.25 1.705v.23c-1.17 17.308-2.01 25.962-2.5 25.962l-.27.246h-.74c-.87 0-1.45-.404-1.76-1.213.32-2.31.49-5.543.49-9.703h-.25l-10.5 2.426-.74.966v4.606c0 1.37-.51 2.344-1.52 2.918h-.49c-.93 0-1.52-.404-1.75-1.213 1.16-17.473 2.83-26.21 5.01-26.21h.49l.76.985c-1.17 5.8-1.76 10.084-1.76 12.85 7.67-1.008 11.51-2.22 11.51-3.64l1-10.194 1.75-.72zm21.62.053c.81.176 1.21.79 1.21 1.846-.26 1.992-1.06 2.988-2.41 2.988-8.84 0-13.26 1.23-13.26 3.69l-.25 2.076v1.142c5.76-1.383 9.7-2.074 11.81-2.074h.47c.81.352 1.21 1.12 1.21 2.303 0 1.69-1.13 2.54-3.38 2.54-7.4.96-11.09 2.12-11.09 3.47l-.23 2.31v.92c0 1.38.88 2.15 2.64 2.3 2.76-.3 6.22-.99 10.37-2.07h.72c.64.25.97.79.97 1.62v.69c0 1.89-4.02 3.35-12.06 4.38h-.72c-2.9 0-4.5-1.84-4.82-5.52 0-2.7.56-7.85 1.69-15.43l-.48-1.39c0-3.11 4.81-4.95 14.45-5.52l3.12-.23zm27.01 0h.84c1.16 0 2.63 5.36 4.41 16.084 1.4 5.063 2.11 8.502 2.11 10.318-.3.96-.86 1.442-1.69 1.442-1.08 0-1.85-2.56-2.32-7.682l-.21-.228h-.21c-1.83.023-5.69 1.142-11.57 3.357-.57 3.2-1.48 4.8-2.75 4.8-.85-.32-1.27-.96-1.27-1.91 0-1.85 3.86-10.33 11.58-25.45l1.05-.72zm-.42 6.715c-1.69 3.047-3.24 6.252-4.64 9.615h1.47c1.43 0 3.25-.322 5.48-.967l-1.9-8.648h-.42zm13.45-6.768c1.06 0 2.34 2.004 3.83 6.012 2.88 5.9 6.08 10.95 9.61 15.15 1.18-11.57 2.06-18.38 2.63-20.45l.96-.72h.72c.48 0 .72.32.72.96-1.44 16.52-2.32 25.34-2.64 26.45l-1.44.47c-2.57 0-6.9-5.45-12.98-16.35l-.97-.97-.25.72-.73 11.07v1.44l.25 1.44c-.21 1.92-.85 2.88-1.92 2.88-.99-.35-1.55-.83-1.69-1.44 1.23-17.32 2.11-25.98 2.64-25.98l1.21-.72zm25.56-.07h1.65c.55 0 .82.322.82.967-1.29 10.523-1.94 17.824-1.94 21.902v2.672c-.37 1.78-1.28 2.672-2.74 2.672h-.55l-1.11-.967c.73-11.04 1.65-19.8 2.76-26.28l1.09-.966zm15.04.07h.45c.75.41 1.12 1.05 1.12 1.916v.492c0 5.204.45 11.297 1.37 18.282h.23c5.01-13.15 7.97-19.723 8.86-19.723h.68c.67 0 1.73 4.57 3.18 13.71 1.36 4.69 2.04 8.614 2.04 11.778-.45 1.125-1.13 1.688-2.04 1.688-.61 0-1.44-3.932-2.5-11.795l-1.83-7.682c-1.3 2.086-3.65 7.535-7.05 16.348-.98 1-1.81 1.56-2.5 1.69-1.97 0-2.95-2.65-2.95-7.94l-1.12-10.09h-.23l-6.82 15.38c-.41 2.57-.79 3.85-1.14 3.85h-.9l-.92-.95v-1.21c0-2.15 1.89-6.8 5.68-13.94 2.69-7.5 4.43-11.35 5.22-11.55l1.14-.24zm30.58.053h.84c1.16 0 2.63 5.36 4.41 16.084 1.4 5.063 2.11 8.502 2.11 10.318-.3.96-.86 1.442-1.69 1.442-1.08 0-1.86-2.56-2.32-7.682l-.22-.228h-.21c-1.83.023-5.69 1.142-11.57 3.357-.56 3.2-1.48 4.8-2.74 4.8-.85-.32-1.27-.96-1.27-1.91 0-1.85 3.86-10.33 11.58-25.45l1.06-.72zm-.42 6.715c-1.69 3.047-3.24 6.252-4.64 9.615h1.47c1.43 0 3.26-.322 5.48-.967l-1.9-8.648h-.42zm13.2-6.768h.24c.76 0 1.4.393 1.91 1.178-1.12 8.11-1.91 15.363-2.39 21.762l13.71-2.83.47.703v1.424c0 2.156-4.97 4.125-14.91 5.906-1.77-.317-2.66-.867-2.66-1.653 1.31-17.343 2.27-26.015 2.88-26.015l.72-.475zm29.44.053h.37c1.62.2 2.42.984 2.42 2.355v.475c0 2.367-.81 4.57-2.43 6.61h-.37c-.26-.07-.51-.463-.75-1.178l.95-3.533-.74-.48c-1.73.15-4.89 2.04-9.5 5.66v.23l12.27 2.37c1.24.98 1.86 2.63 1.86 4.95v1.4c0 3.17-2.05 5.93-6.14 8.26-1.61.63-3.16.95-4.66.95h-.39c-4.266 0-6.87-1.89-7.805-5.66V85.5c0-1.735.43-2.602 1.3-2.602.85 3 2.41 4.5 4.66 4.5 0 .307.93.46 2.79.46 2.752 0 5.42-1.41 7.996-4.237 0-1.87-3.967-3.06-11.9-3.55-2.86-.79-4.29-1.97-4.29-3.53 0-3.83 3.844-7.69 11.53-11.56l2.794-.47zm17.89-4.465c.7.328 1.05.72 1.05 1.178-3.34 10.758-5.01 17.572-5.01 20.443-.95 1.102-1.75 1.653-2.39 1.653-1.05-.38-1.58-.85-1.58-1.41 1.66-14.58 3.87-21.87 6.61-21.87h1.32zm-6.24 26.385c1.66.316 2.49 1.184 2.49 2.6v.23c-.67 2.227-2.27 3.34-4.8 3.34-1.25 0-2.01-.867-2.27-2.602 0-2.004 1.52-3.193 4.57-3.568z" fill="#000"/><path d="M1419.645 66.323l-3.944 102.985" stroke="#000" stroke-width="3.106"/><path d="M1461.87 192.217c0 8.123-4.772 15.913-13.266 21.656-8.494 5.744-20.014 8.97-32.027 8.97-12.012 0-23.533-3.226-32.027-8.97-8.494-5.743-13.266-13.533-13.266-21.656s4.772-15.913 13.266-21.656c8.494-5.74 20.015-8.97 32.027-8.97 12.013 0 23.533 3.23 32.027 8.97 8.494 5.75 13.266 13.54 13.266 21.66z" fill="#000"/><path d="M1395.504 169.96c-28.13-19.805-51.945-24.28-78.275-19.182m78.27 31.812c-28.13-19.807-51.95-24.283-78.28-19.185m80.99 22.945c-32.61-11.122-56.73-8.746-80.55 3.523m76.84.105c-34.45-1.387-56.88 7.748-76.16 26.274m121.04-46.292c28.13-19.805 51.94-24.28 78.27-19.182m-78.28 31.812c28.13-19.807 51.94-24.283 78.27-19.185m-80.99 22.945c32.61-11.122 56.73-8.746 80.54 3.523m-76.84.105c34.45-1.387 56.87 7.748 76.16 26.274" stroke="#000" stroke-width="3" stroke-linecap="round"/><path d="M1409.798 186.006c0 2.12-1.73 3.837-3.86 3.837-1.025 0-2.007-.404-2.73-1.124-.725-.72-1.132-1.7-1.132-2.72s.407-2 1.13-2.72c.725-.72 1.707-1.13 2.73-1.13 2.133 0 3.862 1.71 3.862 3.83zm20.332 0c0 2.12-1.728 3.837-3.86 3.837-1.025 0-2.007-.404-2.73-1.124-.725-.72-1.132-1.7-1.132-2.72s.407-2 1.13-2.72c.725-.72 1.707-1.13 2.73-1.13 2.134 0 3.863 1.71 3.863 3.83z" fill="#FFF"/><path d="M1394.45 199.26c4.997 8.452 27.79 14.247 44.93-.35" stroke="#FFF" stroke-width="2" stroke-linecap="round"/></g></svg>