<svg width="1540" height="820" viewBox="0 0 1540 820" xmlns="http://www.w3.org/2000/svg" xmlns:xlink="http://www.w3.org/1999/xlink" style="background:#2D32FD"><title>story22</title><defs><path d="M561.45 462.82c-.568.767-.043.24-.81.774-1.944 2.607-4.94 6.55-8.585 7.372-.934-1.902-1.895-3.83-2.857-5.72-3.085.23-7.837.997-9.394-1.223-6.696-11.038-.103-10.824 4.89-17.18.264.16.527.284.838.422 1.224 4.205 3.21 5.63 6.924 7.36.7-2.463 1.59-8.743 3.272-10.638 1.896.152 3.805.277 5.7.436 1.176 7.29-.477 11.598-4.89 15.09.124.27.262.554.408.83 1.508.81 2.995 1.646 4.503 2.476zm-40.834-39.276c-10.376.94-18.892-.567-26.584.415-1.41 5.94-4.143 6.9-7.332 10.63-1.764-1.77-3.535-3.54-5.306-5.31 1.467-3.26 3.258-7.06 6.53-8.56 4.89-.56 9.78-1.1 14.693-1.64 4.814-1.83 6.01-8.27 9.78-11.04 3.55-.94 7.077-1.9 10.647-2.86.408-.66.81-1.36 1.217-2.04.68.27 1.35.54 2.04.83-3.15 5.11-2.25 6.23-1.64 13.5-2.76 1.41-3 2.78-4.03 6.06zm1010.27 716.353c-5.805.802-8.607 3.188-12.252 4.51h-18.386c-6.55 1.133-14.41 4.21-22.835 2.848-6.33-.996-9.06-3.983-13.897-5.283-9.117-.125-18.227-.284-27.358-.436-10.34-4.502-15.785-4.502-21.243-4.502-3.148-1.307-7.443-4.17-11.83-4.89-.026-6.252-4.48-9.067-6.093-13.48-1.432-3.83-1.14-7.447-2.082-10.22-13.475-4.427-20.213-1.875-26.55.387-.705 3.28-9.94 8.7-12.65 11.04-5.583-.59-8.157-4.65-12.64-6.14-8.1-2.71-14.844-2.47-21.63-6.53-3.043-3.66-6.04-7.37-9.006-11.01-5.804-4.17-15.875-3.56-20.026-9.42-3.507-4.97-10.238-16.36-12.25-21.64v-6.53c-1.806-4.3-8.253-9.01-11.027-13.47-4.89 1.88-13.05 2.58-15.49-2.04-1.15-1.4-1.31-3.5-1.24-6.13-6.37 2.18-5.88 6.32-9.39 9.81-4.25-.13-13.4.24-15.11 2.44l1.65 7.76c-4.26 1.64-5.59 3.28-6.96 4.92 12.64 12.22 18.34 23.27 22.88 35.14 6.06 3.19 5.47 3.12 7.76 4.92 2.79 6.4 11.97 5.77 15.93 11.03-2.04 6.26-1.21 7.64-.4 8.98-2.93 7.24-1.28 7.84.81 14.7 5.36 8.46 9.37 18.25 12.27 22.06 3.89.34 3.71-1.23 3.24-5.74-3.14-7.62-.82-22.3 4.5-26.12 6.69 4.87 7.87 20.27 7.78 22.08-.26 5.7-7.27 8.17-4.92 13.89 8.85 4.99 12.47 5.74 17.17 5.31 7.34-.27 27.91.05 32.67-1.64 7.79-4.82 8.8-4.17 11.03-6.13 1.49-2.84 3.02-5.7 4.5-8.57 6.19-7.93 12.76-11.38 20.02-17.14 2.84-3.68 5.71-7.36 8.57-11.04 1.09 7.24-.38 10.34-3.24 14.71 5.18 4.59 3.17 10.1 4.48 14.3 1.75 5.6 8.9 12.8 13.5 15.93 5.7 3.12 11.42 6.27 17.14 9.38 3.94.94 7.59-1.71 10.64.43 4.08 5.16 8.17 10.35 12.25 15.51 2.75 2.53 9.43 3.96 10.22 8.17-2.91 5.59-6.41 10.79-10.22 15.55-2.71 2.55-5.44 5.15-8.17 7.75-2.4 4.01-2.86 10.78-6.53 13.51-3.12 1.76-7.42-1.16-11.03.41-2.4 7.43-1.02 19.49-1.61 26.96-10.26.39-19.34 2.47-22.44 10.23-1.14 2.79-.79 5.63-2.89 7.35-5.63 4.62-11.39.4-17.53 3.25-5.96 2.76-4.08 10.1-6.96 15.91-9.39 2.34-13.9 1.8-18.41 1.25-7.74 2.58-15.51 5.18-23.27 7.78-4.53 1.88-11.59 6.56-13.47 11.02-1.96 4.64-.94 7.76-4.92 10.21-14.27 8.85-34.07 8.83-49.39 17.17-4.21 2.3-5.39 7.92-9.81 10.24-4.2 2.22-9.69-.44-14.7 1.22-7.38 2.42-13.85 8.55-22.03 11.01-5.25 1.6-13.15-.96-19.21.83-3.66 3-7.33 6-11.02 8.98-10.87 6.99-29.39 9.46-35.52-3.67v-13.9c-3.35-9.14-8.7-20.82-10.62-31.87-.65-3.8 1.54-5.64 2.06-8.17-.7-4.36-1.4-8.7-2.06-13.06-2.56-7.15-9.59-17.5-15.11-22.08-2.2-1.59-4.34-3.25-6.54-4.89-5.73-11.73-11.45-23.42-17.17-35.15-4.74-5.78-14.7-6.93-19.2-13.07-3.24-4.64-6.52-9.26-9.78-13.9-3.4-9.25.96-21.21-3.26-29.41-4.2-7.62-8.46-15.26-12.64-22.88-6.51-6.31-15.41-8.39-20.83-15.93 2.6-12.03-5.25-18.99-10.64-26.54-7.12-10.05-12.52-19.73-19.16-30.66-3.02-3.8-6.01-7.63-8.99-11.42-6.26-8.21-2.3-17.73-.84-26.57-8.06-14.03-12.82-25.99-17.57-37.99 6.07-5.07 8.4-13.02 11.03-21.65.54-2.74 1.09-5.44 1.64-8.17 6.31-10.99 10.22-27.91 19.58-37.17-3.58-8.7.7-13.88-4.91-21.27 1.66-2.92 3.36-6.15 4.1-9.8-1.08-1.9-2.18-3.82-3.28-5.73 2.37-2.99 5.63-4.61 8.2-7.36-1.25-3.54-2.06-4.64-2.86-5.73-3.96 3.07-7.02 4.92-9.42 7.36-7.03-.93-9.52-4.41-18.37-4.49-3.52 4.06-7.53 5.38-10.21 10.62-5.13 1.21-15.77 5.49-24.5 2.89-6.11-1.84-8.36-7.98-13.05-11.03-6.4-4.17-15.81-6.44-24.92-5.31-.96 4.64-1.92 9.26-2.86 13.9-6.83-2.42-15.24 1.17-21.61-.82l-4.92-11.43c-8.75.63-8.86-1-14.3-.83-8.86-3.7-13.23-4.09-17.59-4.5 3.95-5.03 3.83-5.59 3.67-6.12-8.3-6.72-6.72-10.86-6.94-14.72-5.77-1.55-7.54-3.67-14.31-4.51.65-4.36 1.37-5.85 2.05-7.36 5.08-2.67 4.01-4.55 4.516-6.16 1.16-7.27 2.49-7.06 1.6-8.58-3.12-3.93-2.17-5.03-1.23-6.12-1.9-2.87-7.5-2.05-13.06-1.25.23-3.89 1.41-7.71 2.03-12.25 7.77-7.59 14.96-9.52 20.83-10.23 1.09 3.5 5.896 4.3 10.22 2.86 9.5-.87 15.94-1.16 23.29 0-4.92-5.38-4.41-5.5-3.29-6.95 5.85.02 13.33-.56 17.98-2.03-11.08-3.07-13.64-3.75-15.51-5.76 8.44-4.34 14.41-3.82 20.4-3.26 11.17.07 15.226 4.38 24.09-.39 10.86-6.95 20.07-14.94 32.65-18.01 13.97-3.35 23.61 5.09 34.74-2.02 2.87 3.694 2.4 8.06 7.76 9.4 4.45 1.113 9.17-2.213 11.03-.837 2.7 4.55 2.75 7.06 7.75 9.4 9.11-3.42 10.7 3.54 18.8 4.91 6.72 1.1 18.23 3.83 24.53 2.41 3.38-1.09 6.804-2.15 10.19-3.25 7.39-1.24 13.21 4.07 21.64 2.04 15.09-3.64 25.9-10.03 20.83-28.61-.94-3.38-1.9-6.82-2.856-10.22-4.53-6.93-17.91-8.63-24.51-13.48-3.19-3.44-7.55-9.86-10.63-12.29-5.66-4.48-11.23-10.38-17.98-13.5-10.96-4.09-12.03-6.8-14.7-8.56-9.25-1.97-13.07-7.66-15.94-11.44 3.64-.87 10.36-1.57 13.52-3.28.38-6.35 3.94-9.49 5.71-14.72 5.81-7.12 1.09-10.05-3.67-13.46 12.09-2.46 21.78-6.75 28.18-11.84-8.03-2.99-14.03-1.9-20.02-.83-5.57 2.19-10.34 2.74-15.11 3.28-12.51 6.41-20.57 7.89-28.58 9.393-8.15 4.57-7.97 4.91-9.39 4.09-4.78 1.91-6.61 3.594-9 6.13-6.93.18-12.99-.61-19.59 1.22 9.27 3.47 20.49 12.1 22.08 20.03 6.02 1.61 10.46-1.96 15.11-2.47 4.09.55 8.17 1.09 12.25 1.64-.72 2.75-2.59 5.26-4.08 7.36-10.22.7-12.06-1.55-15.94-.42-2.18 1.78-4.34 3.55-6.53 5.31-21.29 4.89-13.12 9.93-31.45 6.53 7.29-18.23-3.48-15.96-16.33-18.39 4.37-6.66 16.17-8.7 20.43-13.48-14.86-5.14-25.6-2.05-31.84-10.62 4.5-5.17 4.5-5.46 4.5-5.75-32.916-1.83-26.88 11.14-39.64 18.81-3.87 2.34-11.837 1.9-9.78 8.62 1.763 7.21.24 10.35-1.226 13.48-14.52.67-16.08 12.12-18.39 24.93-.26 2.58-.545 5.16-.81 7.76-8.56 6.945-10 11.32-11.03 16.758-3.47 1.35-4.19 2.71-6.524 4.89 5.703 2.34 11.58 19.33 17.17 22.47 4.29 2.45 10.6 1.88 13.463 5.75-1.16 2.51-2.41 4.22-4.09 6.11-10.39-.23-8.83-4.29-17.553-.82-10.74 3.157-11.7 5.045-12.66 6.975-3.93 1.77-7.88 3.54-11.82 5.27-3.18 2.347-4.77 6.41-8.99 7.79.53-2.033 1.1-4.11 1.64-6.14 3.06-5.36-1.516-6.02-3.695-7.37-2.51-6.9-17.25.46-20-6.12-3.22 1.68-4.73 3.23-9.79 3.25-9.38 3.77-7.72.8-16.36 2.48 2.62 7.04 8.27 8.11 12.25 13.09-5.49-3.49-7.45-4.04-9.78-4.48-.63 4.42 1.73 4.7 3.256 7.36-5.05-1.64-7.8-4.67-12.67-4.89 1.85 3.737 4.657 4.65 6.94 7.37-7.42-8.24-13.76-7.52-16.31-12.67-4.342 4.453-5.2 5.546-5.324 8.56 3.44 7.63 9.2 13.9 14.3 20.044-8.58.65-7.75 2.55-6.95 4.46-1.54 4.22 20.06 15.34 20.42 19.18-.81 2.99 0 5.58.83 8.17-4.57-1.53-8.22-6.2-11.474-6.55-6.94 5-6.67 6.69-5.28 9.8 2.27 3.33 1.62 3.92.4 6.12-5.03-4.36-7.22-5.04-9.39-5.72 2.57 8.3 5.8 12.13 6.13 20.83-9.68-.4-10.38.83-11.03 2.05-1.54-3.85-4.92-10.82-7.78-9.4-7.54-3.42-5.66-6.965-6.54-9.787l-7.34-8.99c1.37-2.45 2.71-4.9 4.1-7.365 4.95.2 7.73-2.38 10.2-2.03 7.7 1.12 14.36 11.08 20.84 2.47-6.67-.9-9.33-4.72-14.31-6.15-7.9-2.262-15.84 1.06-22.44 1.62-2.33-3.52-4.63-7.07-6.96-10.63 6.41-4.22 5.87-4.78 5.33-5.31-8.15 1.26-15.39-4.57-17.98-11.04-.43-1.9-.79-3.8-1.24-5.724-2.98-3.91-10.5-5.26-12.25-10.23 2.03-3.23.99-4.05-.39-6.1 1.1-2.04 2.18-4.08 3.256-6.12.237-.57-1.223-12.33-.82-15.14-.28-5.85-3-7.22-5.71-8.59-1.93-2.31-3.82-4.63-5.72-6.95-8.7-5.98-17.62-9.87-26.14-15.92-3.26-2.34-5.85-6.34-8.99-8.61-.72-.53-10.25-4.39-10.62-4.48-12.2-5.72-19.29-9.4-24.1-16.34-9.56-5.83 1.37-19.12-15.1-25.76-1.08 3.01-2.18 6.01-3.26 8.98-7.27-.98-10.46-5.97-11.81-12.24 4.21-3.54 3.54-4.63 2.86-5.69-10.35 1.063-10.48 2.15-10.63 3.25-6.05.393-13.13 2.66-15.92 4.5 1.24 9.2 2.93 9.07 4.94 11.47-1.36 2.53-3.19 3.32-4.92 5.32 2.71 12.88 7.91 16.44 17.56 22.06 2.89 1.71 6.61 2.31 8.58 4.89 2.61 3.43 2.3 9.23 4.1 13.5 2.9 6.89 11.17 14.4 16.3 19.63 5.57 5.6 23.57.17 26.58 4.88-2.56 3.02-3.66 4.79-5.7 6.54 21.82 7.53 37.23 18.236 49.83 30.62-.96 2.86-1.92 5.7-2.86 8.57-2.32-1.52-4.63-3-6.95-4.51-5.56-7.76-15.06-5.74-14.72-11.86-7.1-.96-12.55 10.03-12.64 17.17 3.96 2.17 7.91 4.35 11.84 6.53-1.27 2.86-1.29 5.88.41 8.6-8.2 2.2-9.34 3.77-12.25 6.53.33 2.94.98 4.75 0 6.94-5.06 1.61-6.9 6.51-9.41 10.64-7.73-3.28-7.73-4.9-7.73-6.532 4.37-1.9 5.38-4.7 4.09-9 7.146-4.52-2.32-30.8-4.454-31.46-7.36-.53-10.22-2.32-13.094-4.09.99-1.86 1.39-3.5.82-6.14-6.55-2.992-8.977-2.3-11.44-1.62-8.1-16.78-17.82-13.232-27.78-18.37-11.08-5.71-20.47-17.152-32.27-24.51-13.53-8.435-12.74-32.1-26.955-39.22-10.91-5.46-19.09-5.25-27.39 1.22-1.62 1.78-3.25 3.54-4.89 5.32-19.44 9.235-23.757 18.37-39.22 21.21-8.03 1.47-10.76-5.49-15.53-7.34-17.77.745-19.52-6.88-29.807.42-16.21 11.486-1.7 19.94-6.52 32.68-3.91 5.02-12.81 5.14-17.56 9.395-10.41 9.17-21.82 4.31-27.34 13.92-6.786 6.82-19.25 22.44-21.26 31.84 1.51 3.42 3 6.82 4.49 10.24-1.76 8.56-11.417 15.45-13.056 25.34-7.164 5.59-15.13 5.37-18.364 11.04-3.16 5.54-2.47 7.88-7.334 11.46-20.597.66-31.34.53-42.11.393-2.03 1.78-4.08 3.54-6.11 5.32-7.05 2.36-9.67 1.01-11.46 8.58-10.29 2.62-15.64-4.33-16.74-11.04-2.85-8.26-12.18-16.01-21.65-13.48-2.85 1.36-5.71 2.7-8.57 4.08-12.73-3.09-16.755-.98-20.42.81-1.07-4.12 2.1-8.03 2.87-11.04 1-4.03-.62-8-1.65-9.81.88-4.03 1.75-8.11 2.45-11.45-8.82-.7-9.1-1.76-9.38-2.86 6.42-4.37 5.85-5.46 5.32-6.54-2.31 3.45-4.06 4.15-6.53 5.32-1.46-6.338-.48-10.41-.83-15.54 10.48-5.66 15.11-40.42 8.97-53.14 1.12-1.89 5.42-14.59 4.91-15.53-1.72-5.28-4.56-8.56-10.62-9.79 2.04-9.03 5.56-10.77 12.25-11.03 6.13-2.17 6.96-4.37 7.77-6.54 8.89-3.52 14.89 1.38 23.69 2.84 7.01 1.18 12.23-3.4 17.17-4.5 1.08-.24 18.03 4.55 22.84 5.31 10.58 1.69 28.11 4.06 33.07-2.03 8.37 2.38 13.64 6.65 24.11 4.89 3.49-7.5 5.59-17.55 7.75-27.38-.53-8.91.28-16.97 2.86-21.63 2.6 2.7 4.77 5.44 6.94 8.15-1.38-6.25-5.31-8.78-8.56-13.07.36-3.42 1.91-5.59 3.26-8.147-4.63-9.84-3.16-5.43-11.85-9.81-2.61-3.14-5.18-6.28-7.76-9.4-.97-6.65-6.31-8.51-8.59-11.456-12.39-10-24-12.716-33.897-11.88-1.92-3.91-4.95-3.5-6.11-5.705 5.79-5.4 5.94-5.88 6.92-7.81-8.43-.51-8.3-2.318-8.16-4.08 5.8-.04 9.39-3.71 14.3-4.09 11.85-2.7 14.72-2.99 17.58-3.277 1.77 2.34 3.54 4.64 5.31 6.98 4.47.24 14.02-1.9 17.58-3.7 4.47-2.11 5.19-6.08 5.3-11.44-3.803-1.93-6.23-7.25-6.97-12.26 5.29.56 8.24.77 13.06 0-.48 4.19.15 6.14 1.64 8.99 9.21-4.55 19.68 4.73 27.36-2.85 1.7-10.25 11.48-8.65 18.79-13.49 6.41-4.19 3.27-13.14 5.74-20.81 2.99-1.51 5.99-3 8.97-4.5 10.5-2.74 14.02-5.04 17.58-7.37 4.89-1.93 10.47 2.5 13.89-1.62.25-8.61 5.02-12.67 9.82-16.75 2.43-6.14 4.89-12.27 7.34-18.39 8.13-.24 9.48 1 10.64 3.26-3.93 6.51-3.93 7.52-4.91 9.84 4.74.67 7.38 2.92 10.62.83 1.87-2.91 4.07-2.405 4.89-6.97-4.77-4.21-4.22-4.605-3.26-6.12-5.33-4.98-5.35-6.265-4.5-9.83 6.184-2.073 18.65-8.56 26.535-5.31.87 1.97 3.45 3.48 4.91 4.92.37-2.99-1.16-2.6-1.64-5.73 5.44-5.613 11.9-6.173 18.79-6.13.91 3.036 1.25 4.41 1.63 6.94 6.33-6.62 7.36-7.56 8.606-11.445 6-4.605 6.68-5.16 7.36-5.704-4.29-4.61-6.18-3.76-6.95-6.54 5.88-7.188 1.78-9.35.82-12.666-.92-3.1.15-11.61-.42-15.52-8.01-1.77-9.09-2.33-10.19-2.86 1.37-3.5 2.91-5.18 4.89-7.78-.45-6.75-5.76-11.51-1.22-18.37 11.08.7 11.56-4.05 14.7-5.72.84 1.896 1.61 3.798 2.44 5.72 3.29-4.63 3.68-8.06 4.11-11.47 5.85-.17 11.99-.92 16.31 1.25.07 3.26-.034 8.61 2.035 9.788 11.703 2.25 8.06 9.33 7.34 10.67-7.75 6.23-12.79 7.03-14.3 12.26-7.36 5.85-8.96 11.25-9.78 17.143 4.51 1.61 12.4 7.42 8.583 13.51 7.66.66 8.14 3.24 11.83 4.06 9.8 0 10.22.81 10.64 1.62-2.1 3.41-3.64 4.08-6.54 6.53 9.66 2.87 11.17 2.87 12.65 2.87 1.98-4.97 25.7-12.96 29.4-12.68 3.06 8.83 9.13 5.11 14.31 7.78.29 2.31.55 4.62.81 6.94 4.56 1.78 8.34 3.54 13.49 5.32-.05-3.74-.56-5.01-.82-9.4 22.68-1.59 36.02-12.55 54.7-18.39 4.31-1.34 18.32-4.79 18 .82 1.55 2.22 2.68 4.36 3.25 7.76 11.49 4.22 16.88-1.9 24.917-6.12.26-3.5.59-7.38 1.62-10.64 7.27.45 18.1 2.56 23.27-.42.35-2.71-.06-3.5-.8-5.7-.66-7.02-7.24-30.05-2.86-39.24 2.02-1.64 4.07-3.28 6.07-4.92.164-2.85.31-5.71.45-8.57 2.18-2.73 4.34-5.46 6.52-8.18 7.25-.05 9.873-3.42 17.17-3.69 2.99 5.06 5.992 7.23 8.97 9.39.95 2.61 1.912 5.18 2.853 7.79 6.56 6.05 18.18 1.89 20.84-4.91-3.32-11.74 1.117-18.71 2.44-29-9.97 1.62-11.46.63-15.11-.4.15-3.69.29-7.36.41-11.03-5.052-2.67-5.03-4.98-6.52-8.98 10.3-4.92 14.12-8.083 19.61-11.04 10.48-1.76 13.6-1.063 16.72-.413 5.62-.94 11.31-3.35 16.34-2.45 9.98 1.82 18.56 3.76 28.99 4.48 8.78-6.1 6.55-6.95 4.508-9.4 7.65-3.56 7.57-2.78 8.58-4.5 9.09-1.08 10.65-4.94 15.47-5.33 5.31 1.66 8.24 4.28 14.336 4.49-6.4-19.4-19.06-2.945-28.58-16.73.6-2.295 3.07-7.52 1.22-7.36-8.05 3.45-17.02 6.11-20.81 9.786-11.7 0-14.02-.82-16.33-1.603-6.26 5.13-11.58 2.41-12.67 7.74-7.27.07-13.05.67-16.35 2.45-5.69.104-7.8.8-10.58 4.51-11.32-.19-19.38 4.1-23.71.82-2.77-1.16-4.06-3.04-5.3-5.72-8.85-3.7-8.69-5.34-8.57-6.96-18.28-7.08-19.854-14.874-17.55-26.98.525-2.6 1.08-5.18 1.63-7.78-2.21-3.38-4.37-6.82-6.53-10.22.72-4.71 2.01-7.83 2.03-13.9-3.69-11.43-.59-13.637 4.06-17.987 2.948-6.58 5.61-6.03 9.395-4.48 9.16-4.7 4.44-11.96 10.21-17.98 8.78-1.7 37.38-31.25 43.69-33.06 7.93-2.05 8.22-3.32 7.36-4.5-2.44-6.2-1.11-11.52-2.032-13.92-11.27-3.757-13.79-7.17-18.77-11.06-5.28-.11-18.19 2.93-19.61 2.035-3.27-2.17-6.53-4.37-9.81-6.538-7.39 3.56-7.61 11.55-13.46 15.93-4.96 3.74-6.88-.52-11.84 6.15 1.47 1.88 4.326 4.19 2.86 6.53-1.54 3.33-6.416 7.08-9.78 8.56 2.91 4.68 6.816 6.47 8.99 9.84-7.694 4.57-8.08 11.58-12.63 17.15-6.4 4.35-12.814 8.71-19.19 13.07-8.63-.855-8.656 2.9-11.865 5.327-6.78 5.09-9.14 5.07-14.27 12.26-7.65 2.67-6.37 5.64-7.36 7.37-1.36 1.77-2.73 3.54-4.09 5.28-6.13 7.326-2.55 9.3-6.13 20.44-6.16 7.93.08 24.466-2.87 26.96 5.03.94 6.55 2.75 9.015 3.69 7.58 6 12.71 11.53 20.83 12.66 1.4 5.06 4.37 5.39 4.49 11.46-5.27 2.11-18.38 12.59-23.69 9.8-4.15-2.18-21.27-7.88-23.7-5.3 7.52.18 10.88 7.78 17.98 9 6.79 1.14 11.42-5.51 17.99-2.88-5.624 6.43-8.06 7.91-8.97 12.3-4.08-2.05-4.08-4.1-4.08-6.13-5.47 2.07-.916 12.63-12.275 10.61-4.22 2.6-8.04 2.73-11.84 2.89.86 4.13 10.57 15.84 4.5 20.42-3.17 5.3-2.21 5.74-1.25 6.13-1.13 2.8.64 4.81-.41 6.53-1.2 2.77-2.97 4.89-3.69 8.57-.14 2.6-.27 5.18-.42 7.77-3.82 6.93-7.62 13.88-11.45 20.82-10-2.56-14.14-2.003-21.24-2.05-7.02 4.48-7.9 7.54-9.38 11.42 1.57 2.475 3.58 3.67 1.24 5.73-10.04.58-16.85 4.52-26.55 2.44.76-3.78 2.23-4.67 3.28-8.56-4.57-3.45-7.56-8.98-10.22-14.316 3.94-3.13 3.82-4.22 3.68-5.284-1.47-8.93-7.9-13.2-11.02-23.73-3.04-7.955-5.13-9.628-8.17-13.45 1.2-3.018 3.36-7.57 2.84-10.65-7.35-3.115-8.57-2.99-9.8-2.85 0-4.775-.33-14.215-3.68-15.937.74-3.15 2.41-4.05 2.04-7.37-7.89 2.58-8.06-1.814-11.47-6.54 1.53-2.12 1.59-2.71.83-5.72-3.02 8.17-4.19 13.35-8.17 16.35-12.59 2.31-12.62 4.645-15.11 6.94-7.21 6.65-15.95 11.13-22.85 17.98-4.36 2.215-17.92 3.95-22.47 2.84-6.92-3.69-6.1-4.48-5.3-5.31-7.36-1.854-11.68-5.08-19.59-7.37-1.22-2.44-2.46-4.914-3.69-7.36 1.45-2.72 2.61-4.15 1.64-7.36 6.47.88 8.3 3.04 10.59 4.5-2.07-4.17-1.13-3.21-4.05-5.3 2.02-4.22 4.49-5.597 6.935-6.96-4.2-3.57-2.76-4.42-1.64-6.95l-5.29 4.9c-9.95.68-10.08 1.373-10.22 2.05-2.59-3.14-3.16-5.04-3.68-6.97 1.64-1.9 3.26-3.79 4.89-5.69 10.59.7 12.97-.48 14.72-2.87-9.13 1.204-10.06.395-11.04-.407 4.77-3.09 5.64-5.4 6.14-8.99-7.13-.72-10.89 2.14-14.3-2.86 2.49-2.46 5.52-5.14 8.16-7.36-5.28-1.06-7.14-1.47-9.78-3.3.64-7.3 2.92-8.054 6.53-10.99-4.21-2.334-4.763-4.824-6.97-7.81 2.4-3.75.88-8.67 2.45-13.48 4.218-.28 8.43-.53 12.65-.82-2.32-3.04-5.312-3.92-6.95-6.14 7.09-5.49 9.91-10.71 16.31-8.15 5.03-1.86 4.34-3.57 5.728-9.01 6.96.5 13.1 4.4 17.16-.41-4.69-.77-9.12-2.776-10.215-7.34 10.5-2.09 18.19-2.3 23.673 0-.18-6.736 9.17-19.04 14.3-15.54 7.07-3.61 12.64-4.8 15.13-9 .42-2.18.84-4.355 1.23-6.53 2.87-6.06 13.97-15.08 20.02-17.97 9.78-1.65 9.39-2.86 8.98-4.08 5.17-4.56 8.25-10.29 13.05-15.14 7.65-2.456 7.496-5.3 7.36-8.16-.1-8.425.136-17.146 10.64-14.72.39-2.74.827-5.44 1.22-8.166 5.956-5.734 2.7-6.94 0-10.24 1.35-2.15 2.72-4.35 4.08-6.53 4.22.21 7.29-.15 11.46-.4-1.37-2.753-2.724-5.063-4.1-7.38 5.976-3.28 16.59-4.55 18.78-9.4.387-5.25 1.31-8.002 4.1-10.222 9.73-.81 11.25-1.42 14.69-2.47-1.933-3.85-3.42-5.63-2.83-7.36 4.06-1.46 4.37-6.14 8.56-6.53 1.98 3.08 3.21 3.95 6.137 5.72 2.46-2.6 3.676-4.35 4.907-6.12-.67-3.01-1.37-6.01-2.05-8.99 4.24.89 8.736.8 11.03-2.46-3.69-5.88-2.47-7.23-1.22-8.6 7.29-2.34 5.14-6.69 9.38-9.79 8.03-5.92 9.97 2.73 13.9-13.064 13.51.96 15.4 5.31 24.08 6.12 3.15-5.27 7.24-17.06 12.65-20.02.5 6.41-.28 10.72-1.23 15.13 4.79-3.56 8.05-8.112 9.81-14.71 7.34-.83 9.97-3.7 13.07-8.582 3.95 2.74 6.68 5.05 9.395 7.36 6.5-22.87 12.48-11.47 24.49-5.3 1.75-5.66 6.36-14.77 11.033-17.564 17.02-9.98 19.93-15.26 38-13.91-6.52 8.49-13.97 9.93-13.88 25.77 7.48-10.09 19.21-20.87 28.16-26.99.28 6.02.524 12 .83 17.987 8.41-3.96 13.02-10.35 15.92-19.6 5.06-.94 12.27-3.43 15.51.81-4.43 6.39-5.52 9.68-8.154 18.01 8.75-5.83 13.03-11.54 17.55-15.54 7.82 2.313 12.36 7.32 19.17 10.23 3.28 1.397 8.07-.243 12.25 1.217 5.44 4.766 5.58 6.267 5.75 7.78-7.93 7.95-22.78 6.246-38 6.12 4.81 6.12 13.71 7.67 17.98 14.29 9.64-.664 16.35-3.11 23.69 1.64 12.93-5.18 16.91-7.49 20.84-9.78.29 13.58 10.7 15.7 22.45 17.96.28 2.99.53 5.98.82 9 17.3-3.69 28.86-2.87 40.42-2.07 6.97 2.45 13.89 4.92 20.86 7.37 4.34 1.38 8.71 2.73 13.08 4.11 7.76 6.53 15.48 13.07 23.28 19.59 8.15 2.46 16.31 4.9 24.5 7.38 7.68 2.51 15.38 8.04 21.23 12.65-.33 8.72.46 11.12 4.92 15.54.31 11.69-7.95 16.68-15.11 22.06-33.83 25.49-85.47 1.45-117.63-8.16-4.47-.69-8.97-1.39-13.49-2.04-5.784-3.25-7.82-16.19-22.06-8.99 7.546 6.97 14.55 15.6 23.28 21.26 5.3 3.41 15.39 4.35 19.61 8.98 6 6.55 3.36 16.5-4.48 18.82.53 5.33 11.1 32.47 13.88 33.91 5.5 2.8 13.886 1.22 18.82 3.69.65 2.41 2.19 6.03 4.08 7.36 3.39 2.12 8.87.97 13.48 2.04 10.35 2.4 26.42 3.55 16.74-13.5-3.43-.47-8.6 1.15-12.25-.42-4.17-1.77-12.04-10.61-12.26-14.704 3.41-3.12 3.19-8.1 9.81-8.144 10.98 6.82 24.8 13.15 38.77 17.15 6.1 1.74 10.6-.72 15.14-1.23 14.28-9.28-2.12-17.11-2.45-28.228 10.83-13.38 34.51-11.84 42.45-28.59 14.86-1.74 25.704 11.32 36.34 11.84.43-3.15.82-5.44 1.26-7.77 3.91-12.42 7.13-10.89 2.03-26.13-4.71-.71-7.64-2.51-9.8-5.74 4.1-6.01 7.34-11.19 10.62-16.37 2.5-11.12-8.87-12.13-7.75-21.66 5.31-1.37 8.64.87 13.87 2.04 6.27-.53 12.56-1.095 18.8-1.62 8.76 1.686 16.09 16.78 19.61 24.1-14.6.56-30.04.15-32.67 13.065 12.95 10.06 18.478 20.37 40.42 15.93 3.695-.67 7.36-1.37 11.035-2.04 5.8-4.18 3.35-17.94 8.96-22.46 3.29-.94 6.55-1.9 9.81-2.87 13.35-5.51 27.94-11.8 42.48-17.57 8.56-3.54 17.14-7.06 25.71-10.63.67 2.19 1.37 4.39 2.02 6.54 17.52-2.68 3.72-15.62 28.22-15.52-.55 4.73-1.62 8.86-1.63 15.11-8.53 2.97-9.01 3.74-8.99 6.96 9.74 3.29 12.448-1.01 24.097-1.23 8.2.44 8.01-8.24 13.88-10.62 5.29-2.144 16.51-3.98 23.283-2.034 3.77 1.08 8.66 5.21 15.11 3.28 2.732-2.18 5.44-4.37 8.17-6.53 10.59-8.07 17.58-7.32 29-2.06-1.908 2.45-3.82 4.93-5.73 7.37 1.6 4.55 7.8 8.83 13.88 5.71.88-2.08 1.91-7.25 3.26-9.39 11.07-1.55 18.15 1.26 18.82-13.07-3.97-5.03-7.92-10.07-11.85-15.1 4.8-2.99 7.07-8.22 12.25-9.41 11.28-2.6 32.92 3.52 40.84 5.72 36.78 10.26 22.41 1103.68 17.26 1092.93zM826.91 799.027c-1.086-.546-2.206-1.1-3.28-1.64-.275.7-.517 1.378-.822 2.035 2.684.477 3.687 1.466 5.3 2.863.29-.263.552-.526.836-.837-.67-1.26-.768-1.66-2.034-2.42zm518.222 1.667c-1.77-2.746-2.324-10.298-3.285-13.908-6.42-.387-11.92.637-17.53 1.62-1.362 5.09-.31 15.013-2.08 19.598v-.802c-1.37-2.282-4.034-5.47-4.892-7.372.14-1.238.263-2.462.422-3.687-.81-.415-1.64-.83-2.442-1.25-1.404-2.844.277-5.306-1.224-7.747 1.64-3.9 3.91-8.984 6.11-13.078-4.49-4.654-9.38-3.333-15.1-4.06-1.13-2.953-3.33-5.615-5.71-7.365h-5.72c.38-10.657-6.78-13.72-8.6-23.7-3.24-.485-9.36-1.55-11.8-3.258v-5.305c.41-.42.8-.836 1.23-1.224 7.87-.428 17.75 4.08 21.63 1.224-.41-.525-.8-1.1-1.22-1.652-3.23-.927-5.63-2.794-7.36-5.284 1.23-3.617 3.02-2.62 4.92-4.91.81-2.172 1.63-4.35 2.44-6.536 3.54.118 4.13-1.203 6.53-1.618 8.87.83 17.71 1.618 26.58 2.455-.16-.263-.3-.526-.43-.837-2.87-.802-7.12-2.386-7.35-6.12 5.99-7.975 8.34-10.727 5.32-21.26 1.09-1.086 2.16-2.178 3.24-3.257-.94-1.63-1.89-3.27-2.86-4.91-3.67-.83-7.34-1.61-11-2.42-2.36.83-3.6 4.3-8.58 3.25-4.67-1-7.34-5.24-13.47-5.72-11.02-.85-18.23 10.05-26.57 12.68-2.57.13-5.15.27-7.75.39-5.29 2.02-7.36 8.36-13.89 9.82.03 2.6-.19 3.22-1.25 4.48-.93-.52-1.91-1.08-2.84-1.61-5.15 2.97-11.25 8.15-17.98 4.89-.29.4-.52.83-.82 1.23-1.84 5.9-3.73 12.49-7.77 18.39-2.03 3-7.05 3.4-7.36 8.18v2.03c.89 2.19 3.69 1.67 5.73 2.87 6.43 3.83 7.29 11.1 7.36 18.39h.43c.68-2.44 1.35-4.9 2.03-7.36h1.64v1.23c-2.36 6.07-4.94 14.83-1.24 20.03 3.26 1.84.85 3.94 2.86 6.93.94.27 1.92.56 2.88.84 4.05 3.59 5.8 9.38 8.96 13.9 1.22.4 2.45.84 3.67 1.23 3.38 2.69 7.6 8.41 10.22 11.86 1.84 2.41.95 5.4 2.44 8.58 1.27 2.71 4.19 5.5 6.12 8.17 3.29 4.66 11.94-1.24 15.51 6.95.15.68.28 1.38.41 2.06h-.41c-17.28-7.31-18.76 10.87-17.98 21.66-1.5-.31-1.56-.18-2.83.42-.45 1.9-.83 3.8-1.27 5.69-.4-.26-.81-.51-1.23-.82-.38-1.76-.54-1.9-1.63-2.84-.4.29-.81.56-1.22.82.02 10.77-7.02 23.2-3.67 35.97 6.33 2.14 14.8 4.05 22.47 6.09 7.08 19.14 34.96 17.19 55.11 12.67 5.64-1.24 14.1.2 17.98-2.86 5.38-4.22-.45-20.39-1.6-26.96-.24-1.19 1.2-4.39 1.23-6.97.02-5.5 3.37-9.6 2.44-13.07-1.87-3.68-5.85-4.22-7.36-8.58-3.88-.73-5.45-1.43-8.15.43v-2.87c.67-.93 1.39-1.9 2.04-2.84 2.87.26 5.73.52 8.57.79v-1.23c-1.73-.5-3.55-1.38-4.45-2.87-.3-.8-.54-1.64-.83-2.44.96-1.22 1.92-2.43 2.86-3.7-5.3.12-11.35.99-13.89-.39-2.16-6.27-1.44-18.88 2.86-23.69 1.1 2.17 2.18 4.36 3.25 6.55 3.5-.49 3.87-.33 6.98.41.26-1.1.54-2.19.8-3.25.83.26 1.64.51 2.42.8.18 1.51.31 3.01.44 4.5.29.13.52.29.82.42 2.17-.67 4.32-1.37 6.54-2.03 2.5-.44 2.66 1.57 4.49.8-.55-1.61-1.11-3.25-1.64-4.89 2.6.53 2.67 1.51 5.31 2.04 1.97-.92 2.66-1.3 3.65-3.26-3.19-6.64-9.59-6.96-12.57-11.44zM333.57 566.964v.39c3.956.192 18.317 1.465 19.19 2.032h.808v5.747c-3.1.726-8.342 1.91-8.585 5.7-6.633-.61-8.294 3.173-13.06 4.093-3.956-.533-7.872-1.065-11.828-1.64-2.733.672-5.465 1.377-8.17 2.048-2.068-.387-3.01-2.483-6.135-2.047-5.43.81-10.875 1.64-16.312 2.44.263.942.526 1.903.837 2.864-11.953-1.06-15.342-2.35-28.174-.82-.42 12.87-6.55 9.53-13.49 5.72-1.66 1.12-3.21 2.2-6.13.84-5.7 1.97-10.55 5.38-13.86 9.82-.94-.94-1.89-1.9-2.85-2.86-2.04-.55-4.1-1.06-6.12-1.64.13-.26.25-.55.39-.83 7.54-2.27 21.63-11.67 22.45-20.42 4.89.81 3.84-1.86 6.14-4.51 7.17-3.35 13.67 1.74 22.06-.41.21-4.65 3.86-7.21 5.71-11.03-4.25 1.76-7.32 4.63-13.05 4.9h-.83c-3.93-1.9-7.89-3.8-11.85-5.72-5.44-.14-10.88-.26-16.32-.39-1.63-1.38-3.27-2.73-4.9-4.11.7-.65 1.37-1.35 2.05-2.02 2.06-3.8 14.2-4.19 19.18-11.42.12-3.59 1.04-7.93-.4-10.23v-.82h-8.59v-.4c4.75-9.51 17.63-10.88 31.45-11.03v-.41c-4.06-8.11.51-12.81.81-22.87h-.39c-2.33.41-4.63.83-6.96 1.21-2.18-2.56-4.09-3.55-5.7-6.92 1.11-5.53 4.87-7.8 7.77-11.48-11.61-3.02-8.3 1.53-17.17 2.05-2.42-.68-4.89-1.37-7.36-2.05-.3 2.48-.93 2.97-2.45 4.11-3.26-.8-6.52-1.63-9.78-2.44.96-6.31 9.93-13.98 7.75-17.98-2.73-1.42-3.84-4.55-3.26-8.17 2.35-.72 3.63-1.9 4.9-3.66-.39-1.78-.83-3.54-1.23-5.32h-1.63c-4.5 3.75-9.81 6.8-15.1 9.8v-.82c-3.04-6.07 3.62-13.85 5.71-19.6-1.63-1.07-3.26-2.16-4.89-3.25-.13.25-.28.53-.42.8-1.65 2.17-2.64 3.74-4.89 5.32-1.35-.69-2.73-1.37-4.08-2.04.8-1.38 7.36-13.07 7.36-13.07-.54-2.6-1.12-5.18-1.64-7.75 1.01-1.46 3.71-1.33 4.9-3.27-1.77-2.03-3.54-4.08-5.31-6.13 1-1.99 2.03-3.87 4.49-4.48 2.87.99 4.96 1.37 8.19 1.22-1.63-3.27-3.28-6.53-4.89-9.81 2.6-.82 5.16-1.63 7.75-2.46-1.22-1.9-2.45-3.8-3.66-5.7 1.22-1.64 2.44-3.26 3.67-4.91 2.47 1.51 4.89 3.03 7.36 4.5 7.62 2.12 17.82-6.18 26.13-2.85 1.27 2.44 2.69 2.44.4 4.49-4.59 8.77-19.76 7.39-20.84 20.04.44.53.84 1.1 1.23 1.63 10.46.06 33.56-3.04 40.02 1.63.9 1.92 1.65 1.65.83 3.28-3.45 9.01-8.49 27.14-21.24 27.35.16.26.29.53.42.84 2.18 1.23 4.37 2.44 6.52 3.69-.26.14-.54.27-.82.39-3.45 4.31-12.12 5.09-19.99 4.91.12.28.25.54.41.83 10.6 4.41 11.16.04 19.59-.39 5.21-.28 18.42 10.88 20.41 14.28 2.53 6.61 1.7 13.84 6.11 19.22 2.4 2.89 6.28 1.33 9.8 3.25 3.12 4.1 6.26 8.18 9.39 12.27 2.2 3.24 1.5 12.96 1.63 13.07 8.41 9.16 13.56 7.57 4.9 20.44 2.16.44 4.36.83 6.52 1.24 6.32-8.87 18.12-2.34 23.71 2.04.4 3.56.81 7.07 1.23 10.62-2.05 6.09-18.89 17.23-25.76 19.2zM220.85 459.902c1.087-.262 2.187-.553 3.273-.822.263 2.2.526 4.364.83 6.528-.7.802-1.37 1.625-2.054 2.442-.68-.125-1.35-.284-2.03-.415-.57-2.988-.55-4.627-.02-7.732zm.824 35.16c-3.84 6.613-6.64 7.816-14.72 10.223 3.473 4.806 10.113 20.318 7.782 28.182-1.44 4.792-5.485 7.83-6.537 14.703-3.14.138-6.26.263-9.38.415-.56.837-1.12 1.64-1.65 2.448-4.75.416-9.52.83-14.3 1.232-4.89 3.548-9.78 7.096-14.67 10.637-2.21.13-4.37.262-6.53.386-5.18 1.515-9.87 4.067-17.55 4.502.16-3.907.27-6.293-.84-9.385-2.33.25-4.63.52-6.95.823-.49-2.29-1.26-3.617-.83-5.726 1.48-.52 2.98-1.093 4.47-1.618v-.415c-2.99-.13-5.99-.27-8.98-.41.13-.94.26-1.91.38-2.87 3.47.13 9.8.74 11.86-.81 1.55-1.56 1.51-4.86 2.85-6.53 4.31-.75 9.08-.58 10.21-4.91-2.98.42-5.98.83-8.99 1.22.28-.27.54-.54.83-.81.82-1.22 1.63-2.48 2.45-3.69-1.08-1.66-1.32-1.05-.84-2.45 2.31-5.25 5.29-3.87 10.61-6.12-.4-1.09-.84-2.18-1.22-3.28-3.23 1.88-18.77-.92-22.05-2.44.83-1.1 1.63-2.19 2.44-3.28-.55-.53-1.07-1.1-1.63-1.62 1.89-.43 3.79-.84 5.69-1.25-.74-4.29.06-3.84 2.46-6.54h-.83c-2.49-2.27-4.53-1.81-8.17-.82v-2.43c1.14-4.22 2.47-6.3 5.3-8.61 6.54 2.44 15.86 2.63 24.11 3.28-.75-1.52-1.28-2.74-1.23-4.1 4.32-1.25 6.95-2.82 8.55-6.97H162c.42-.53.806-1.07 1.22-1.64 1.648-.39 3.28-.82 4.913-1.22 2.227-8.28 5.132-12.26 14.67-13.07.92 3.26 2.45 4.84 6.53 4.9 7.59-3.21 19.702-5.14 25.727-.83 2.21 6.82 5.44 12.87 6.595 20.84zM511.61 826.408c-.533 1.674-2.422 3.818-2.858 6.135.436 2.987.837 5.99 1.245 8.963.658 5.45-2.372 8.956-3.666 12.67-3.07-.79-5.95-2.476-9.38-.837-1.24 1.64-2.44 3.27-3.67 4.89-14.13-2.93-3.75-15.73-6.13-27.77-1.16-5.91-5.03-7.48-6.13-12.68.29-.26.54-.54.8-.8 9.47-1.76 14.57-2.2 20.02-7.38 3.54 1.32 11.8 10.7 9.78 16.79zm-10.218-51.883c.29-1.908.554-3.817.837-5.74.28-.124.54-.263.81-.387.53.387 1.08.823 1.63 1.224.26 12.014 2.11 28.813-4.9 35.964-.83-.14-1.64-.263-2.44-.422v-2.034c-1.23-.124-2.47-.262-3.7-.387-.67-.545-1.35-1.098-2.04-1.638.68-.94 1.36-1.902 2.03-2.863-1.35-.554-2.74-1.094-4.08-1.64.13-.263.26-.526.41-.802.67-.692 1.36-1.363 2.03-2.04v-.415c-2.78.193-2.78.836-3.67-1.245.67-.52 1.37-1.065 2.04-1.62-1.39-1.707-2.44-1.686-2.88-4.5.54-.416 1.12-.83 1.63-1.24-1.16-1.32-1.13-1.25-1.22-2.87 2.51-2.62 13.37-7.136 13.46-7.344zm113.14 126.65c-2.51 1.425-3.894 4.302-6.135 6.135-12.583-3.604-23.325-10.852-34.718-16.343-5.54-2.635-9.47-1.065-12.26-6.536 2.9-9.37 10.48-4.55 16.33-9.78 10.11 6.54 15.65 6.27 29.41 2.87 3.27-.83 7.27-2.51 11.03-1.64v.44c-1.93 4.37-8.87 12.68-6.54 18.8 1.19 2.53 3.73 3.72 2.86 6.08zm206.242 35.963c-.435 2.704-.96 4.71-2.047 6.536-9.13.54-18.24 1.086-27.372 1.64v-2.864c-6.15-2.47-17.287-1.972-22.855-4.51.387-2.027.81-4.102 1.224-6.142h2.055c.17-1.646.12-1.57.8-2.42v.795c1.33 1.59 2.73 1.694 4.91 2.462.96-.526 1.89-1.086 2.85-1.64.28.437.52.824.81 1.253-.41.512-.81 1.086-1.25 1.61 2.4.437 1.97.803 3.28 2.055 4.49-.415 8.96-.837 13.46-1.252 4.78 2.18 7.2 2.78 13.5 2.06l.4.4c-.26 1.09-.53 2.18-.81 3.26.55.29 1.12.54 1.63.83 3.16-1.81 6.47-2.25 9.37-4.06zm134.75-1.64c6.4-2.322 12.798-4.64 19.176-6.95-3.52 4.11-8.847 6.253-12.25 10.624.96 1.225 1.922 2.442 2.856 3.687-7.92.59-9.428 6.29-18.774 6.53-.173 2.14.263 1.64-1.224 2.47-2.297-1.71-7.312-2.34-10.217-3.28-1.07-2.8-2.12-3.92-2.87-7.37.86.07 11.46-2.49 11.85-2.87.79-1.55.67-2.62 0-4.08 3.86.38 7.68.82 11.46 1.22zm-802.864 71.498c1.826-3.763-.187-8.528 1.224-12.27 1.37-3.595 12.5-13.167 15.903-15.525 10.23-6.99 23.727-7.78 31.066-17.56 5.015-6.71 11.372-30.83 15.91-34.32 2.034-.96 4.088-1.91 6.108-2.87 5.78 5.72 9.09 12.87 18.01 15.54 8.47 2.54 30.13-4.24 30.63-4.08 2.23 5.62 12.06 8.15 20.43 5.71 7.56-2.23 7.1-7.37 12.25-11.04 2.09-1.48 13.02-5.29 15.5-5.72 1.58 1.51 2.78 2.21 5.7 2.45 5.54-4.74 9.88-10.86 17.17-13.9 7.73-3.21 18.46-.89 27.77-2.86 2.99-1.35 5.99-2.73 8.98-4.08 3.51-.48 5.5 2.91 10.22 1.23 2.45-1.35 4.92-2.74 7.36-4.08 12.79-3.3 21.14 6.58 32.28 4.09 7.17-1.57 12.14-5.42 17.14-8.96 4.19 1.44 6.53 4.53 11.42 5.29 3.22-1.62 4.54-4.33 8.61-4.9 5.02 1.68 7.43 5.69 8.97 6.14 10.72 3.04 21.67-8.3 27.78-10.63 1.91-.26 3.83-.53 5.73-.82 3 1.38 6.01 2.74 9 4.12.11 3.54 1.31 5.58 2.44 8.18 6.12-2.06 10.19-4.5 14.29-6.98.1 13.57-22.06 18.7-.43 31.06.67 2.73 1.37 5.45 2.05 8.17.11 5.33-17.03 19.53-20.82 23.72 1.37 6.34 7.81 10.88 13.05 13.48 3.31-.8 3.83-1.91 7.77-1.64.53 2.21 1.09 4.38 1.62 6.54 8.3 3.54 16.62 7.09 24.92 10.65 6.12-.43 12.25-.83 18.39-1.24 4.19.81 8.43 1.64 12.64 2.45 1.77 1.64 3.54 3.28 5.33 4.9 3.05 1.45 6.05.27 9.81 1.64 6.71 2.46 7.86 18.13 15.51 22.46 6.89 3.89 26.24 4.15 34.74 7.36 8.62 3.28 15.89 13.98 25.69 15.11 3.77.47 7-2.79 9.4-4.08 20.13-10.89.59-19.03 9.39-33.91 6.5-10.99 33.67-20.75 50.22-13.5 6.47 2.83 4.1 8.57 8.58 11.04 4.76 1.88 15.87 3.72 20.86 4.49h9.38c4.07 1.39 3.21 7.72 6.94 9.4H820c9.55 2.04 19.07 4.1 28.58 6.12.825 1.09 1.634 2.19 2.47 3.28 3.92.39 7.87.83 11.8 1.23 3.57 1 8.414 5.2 13.5 4.11 2.59-2.05 5.16-4.11 7.75-6.15 9.61-6.46 24.96-9.76 38.807-6.94 1.278 4.48 3.388 5.01 6.12 7.76 7.83-1.33 10.765 3.09 17.99-2.02 11.05 6.05 13.78-.24 21.63-1.25 4.77 12.26 9.537 24.54 14.29 36.78-8.15 7.1-6.675 22.44-11.83 32.69-1.88.39-3.713.49-4.903-.83-11.41-9.81-20.555-25.5-25.71-41.27-3.685 1.47-3.996 2.84-6.113 5.72 2.65 15.04 13.08 22.53 19.19 33.52 3.52 9.26 7.06 18.53 10.62 27.79 8.3 13.23 14.72 29.44 23.69 42.89 3.28 3.26 6.53 6.54 9.8 9.8-1.51 1.38-2.99 2.73-4.5 4.1 1.64 5.11 2.05 11.5 4.9 15.52 2.34 3.28 7 4.13 10.22 6.54 6.54 4.87 14.22 18.66 16.34 27.39 3.27 13.38-1.09 37.3 5.72 46.59 4.31 5.86 20.12 9.13 23.29 16.35 6.86 15.56 9.54 45.75 21.22 55.536 1.22-2.06.85-5.79 2.06-7.36 3.84 2.16 6.1 7.54 8.59 11.01 3.29-.15 5.95-.62 8.16.43 5.73 6.25 11.43 12.51 17.15 18.79 2.14 1.24 5.31.09 6.96 1.62 3.61 3.3 4.63 11.23 5.72 12.28 6.27 6.05 20.86 8.74 21.25 19.6-3.41 3.66-12.31 7.28-16.75 9.4 4.87 1.81 9.62 1.16 13.07 2.03 3.72 8.13 11.72 15.32 17.55 21.69H1170c5.854-2.57 11.706-5.17 17.558-7.79 7.21-1.35 9.2 4.8 15.51 2.44 4.624-2.97 9.252-6.01 13.88-8.97 4.63.44 8.425.81 12.27 1.26 3.73-1.03 7.13-5.61 12.65-4.49 2.95.54 7.38 2.71 12.25 1.62 11.13-2.46 17.223-8.02 24.91-13.49 3.26 1.38 6.53 2.72 9.79 4.07-.66 3.85-1.75 6.42-2.84 9.02-1.177 4.14 1.085 8.11 1.244 11.01.17 3.68-4.05 5.57-4.94 8.18-.4 5.583-.79 11.18-1.226 16.78-3.54 6.225-7.05 12.52-10.61 18.784-2.734 2.58-5.466 5.14-8.164 7.76.125 1.76.25 3.54.415 5.3-4.792 7.62-9.545 15.26-14.31 22.86-.67 3.15-1.35 6.27-2.046 9.4-6.99 16.99-23.1 30.3-33.89 44.16-5.43 6.66-10.89 13.35-16.33 20.02-14.72 11.79-683.82 4.51-684.39 2.5.67-2.76 1.37-5.46 2.06-8.17-1.07-6.05-5.2-10.43-6.53-15.54 1.23-.94 2.42-1.88 3.67-2.84-1.37-1.64-1.92-2.44-2.47-3.28-14.58.49-9.88-2.65-14.29-10.61-2.03-2.41-9.81-4.33-11.44-3.27.7 1.71.98 2.33.82 4.12-7.15 2.89-15.59 1.46-22.04.38-11.93 10.72-32.72.796-34.29-12.66.84-2.04 1.61-4.07 2.45-6.1-2.73-1.78-4.22-1.93-5.73-2.06-.93-1.62-1.89-3.28-2.85-4.914-2.87-3.63-16.28-12.14-21.24-13.08-2.77.97-3.26 2.94-5.29 3.68-13.74 1.25-27.51 2.44-41.27 3.67-4.67 1.61-4.8 6.09-8.13 8.58-5.6.55-11.19 1.12-16.75 1.64-13.21 6.02-26.42 11.97-39.61 17.957-2.59-1.98-15.76-10.27-18.39-10.61-.67.82-1.35 1.64-2.02 2.45-4.19 1.46-10.29-1.8-13.48-2.45-7.36-1.482-20.24-.09-26.13 1.64-6.83 1.9-13.61 3.83-20.43 5.72-6.52 3.39-13.06 6.8-19.58 10.21-4.94 1.356-20.94-9.004-24.91-11.01-12.75-6.51-19.69-15.574-30.63-23.285-5.16-2.74-10.35-5.47-15.52-8.19-6.99-4.68-11.67-11.53-20.81-14.3.42-3.13.75-3.91-.41-6.14-6.75-1.09-14.93-7.04-16.75-13.07 2.32-1.22 3.83-2.43 5.31-3.67-2.24-1.84-3.54-2.12-4.47-3.26v-6.12c-1.42-5-6.9-6.26-9.01-10.23-.43-2.027-.82-4.054-1.22-6.087-6.48-1.97-12.95-6.19-17.15-10.64.74-2.25.74-3.98 0-6.12-4.1.16-5.59-.54-7.76-2.03.24-1.9.53-2.403-.43-3.67-1.39-1.44-4.85-1.8-6.53-2.883-1.07-5.527 2.42-7.52 4.92-10.64-3.26-3.76-9.02-1.2-13.07-.4-2.73-1.64-5.45-3.28-8.15-4.914-.26-.94-.55-1.905-.84-2.86-6.45-4.24-3.82 2.14-8.99-6.56 1.39-5.38-1.12-12.33 2.04-16.75 1.23-.28 2.43-.51 3.68-.8.07-2.27-.19-3.63-.8-4.933-5.55-2.6-5.5-15.16-17.16-20.01 8.63-3.71 15.57-15.414 17.97-24.1.55-4.36 1.09-8.72 1.65-13.09 4.49-15.06 13.38-38.85-1.64-50.65 6.11-8.85 5.44-29.65-7.34-30.65-.93 1.087-1.89 2.18-2.84 3.25-1.2-8.46.48-19.56 4.08-24.91 3-3.28 5.99-6.535 9.01-9.813 4.08-9.4 8.14-18.78 12.24-28.18 3.97-5.42 12.94-8.63 15.5-15.11.15-2.87.29-5.74.41-8.6 1.43-6.9 4.58-14.79 8.2-20.01 3.43-4.96 11.75-5.83 15.5-10.62 4.72-6.03 6.11-21.1 13.06-24.53 6.05-2.96 13.86-2.47 19.59-4.9 11.11-4.68 30.65-21.456 37.17-31.05 10.24-15.25-4.53-21.93.33-34.76 2-5.33 7.51-8.78 9.78-13.47zm330.795 562.64v-3.665c2.857-1.05 3.93-4.88 5.714-6.95 2.62.6 3.73 1.23 4.89 3.28-3.89 2.1-2.86 7.54-8.15 8.15-.83-.27-1.64-.52-2.47-.8z" id="b"/><filter x="-50%" y="-50%" width="200%" height="200%" filterUnits="objectBoundingBox" id="a"><feOffset dx="2" dy="2" in="SourceAlpha" result="shadowOffsetOuter1"/><feColorMatrix values="0 0 0 0 0 0 0 0 0 0 0 0 0 0 0 0 0 0 1 0" in="shadowOffsetOuter1"/></filter><path d="M67.658.505v106.4l-67.5 26.6 67.5-133zm0 0v23.543l43.603 85.912-43.6-17.182v14.126l67.5 26.6-67.5-133z" id="d"/><filter x="-50%" y="-50%" width="200%" height="200%" filterUnits="objectBoundingBox" id="c"><feOffset dx="3" dy="3" in="SourceAlpha" result="shadowOffsetOuter1"/><feColorMatrix values="0 0 0 0 0 0 0 0 0 0 0 0 0 0 0 0 0 0 1 0" in="shadowOffsetOuter1"/></filter><path id="f" d="M40 40h1280v120H40z"/><filter x="-50%" y="-50%" width="200%" height="200%" filterUnits="objectBoundingBox" id="e"><feOffset dx="6" dy="6" in="SourceAlpha" result="shadowOffsetOuter1"/><feColorMatrix values="0 0 0 0 0 0 0 0 0 0 0 0 0 0 0 0 0 0 1 0" in="shadowOffsetOuter1"/></filter><circle id="h" cx="1011" cy="355" r="5"/><filter x="-50%" y="-50%" width="200%" height="200%" filterUnits="objectBoundingBox" id="g"><feOffset dx="2" dy="2" in="SourceAlpha" result="shadowOffsetOuter1"/><feColorMatrix values="0 0 0 0 0 0 0 0 0 0 0 0 0 0 0 0 0 0 1 0" in="shadowOffsetOuter1"/></filter></defs><g fill="none" fill-rule="evenodd"><g transform="translate(15 -647)"><use fill="#000" filter="url(#a)" xlink:href="#b"/><use fill="#2A7E00" xlink:href="#b"/></g><g transform="translate(201 645)"><use fill="#000" filter="url(#c)" xlink:href="#d"/><use fill="#FFF" xlink:href="#d"/></g><use fill="#000" filter="url(#e)" xlink:href="#f"/><use fill="#FFF" xlink:href="#f"/><path d="M92.646 60h1.107c1.535 0 3.475 6.228 5.818 18.686 1.86 5.882 2.78 9.878 2.78 11.988-.38 1.113-1.12 1.67-2.21 1.67-1.42 0-2.44-2.97-3.06-8.912l-.26-.282h-.28c-2.41.024-7.49 1.325-15.24 3.903-.72 3.715-1.92 5.572-3.6 5.572-1.11-.387-1.67-1.13-1.67-2.232 0-2.145 5.08-11.994 15.24-29.55L92.65 60zm-.44 7.805c-2.227 3.54-4.26 7.26-6.1 11.162h1.934c1.887 0 4.29-.375 7.207-1.125L92.75 67.805h-.544zm31.236-3.34c1.524 0 2.286.633 2.286 1.898v.475c0 1.746-1.36 2.62-4.08 2.62l-5.08.245c-1.522 8.12-2.284 15.106-2.284 20.953-.41 1.266-.832 1.9-1.265 1.9h-.78c-.88 0-1.39-.242-1.53-.722.85-8.988 1.79-16.29 2.79-21.902l-7.63 1.195c-.72 0-1.14-.715-1.27-2.145 0-2.378 2.12-3.568 6.36-3.568 2.54-.633 6.69-.95 12.46-.95zm36.018 0c1.523 0 2.285.633 2.285 1.898v.475c0 1.746-1.36 2.62-4.078 2.62l-5.08.245c-1.524 8.12-2.285 15.106-2.285 20.953-.41 1.266-.832 1.9-1.266 1.9h-.773c-.88 0-1.39-.242-1.53-.722.856-8.988 1.788-16.29 2.795-21.902l-7.63 1.195c-.713 0-1.135-.715-1.264-2.145 0-2.378 2.12-3.568 6.363-3.568 2.543-.633 6.697-.95 12.463-.95zm20.338.017c.832.223 1.248.79 1.248 1.706v.228c-1.172 17.31-2.004 25.963-2.496 25.963l-.264.24h-.738c-.867 0-1.453-.41-1.758-1.22.328-2.31.492-5.55.492-9.71h-.246l-10.512 2.42-.738.96v4.61c0 1.37-.504 2.34-1.512 2.92h-.492c-.937 0-1.523-.41-1.758-1.22 1.16-17.48 2.83-26.21 5.01-26.21h.492l.756.98c-1.172 5.8-1.758 10.09-1.758 12.85 7.676-1.01 11.514-2.22 11.514-3.64l1.002-10.19 1.758-.72zm21.62.053c.81.176 1.214.79 1.214 1.846-.258 2-1.06 2.99-2.408 2.99-8.836 0-13.254 1.23-13.254 3.69l-.246 2.08v1.14c5.765-1.38 9.703-2.07 11.812-2.07h.475c.81.35 1.22 1.12 1.22 2.31 0 1.69-1.12 2.53-3.37 2.53-7.39.96-11.09 2.12-11.09 3.47l-.23 2.31v.92c0 1.39.88 2.15 2.64 2.31 2.77-.3 6.22-1 10.37-2.07h.72c.65.25.97.79.97 1.62v.68c0 1.89-4.02 3.35-12.06 4.38h-.72c-2.89 0-4.5-1.84-4.81-5.52 0-2.71.56-7.85 1.69-15.43l-.47-1.39c0-3.12 4.82-4.96 14.45-5.52l3.13-.23zm31.06 0h.37c1.618.2 2.426.985 2.426 2.356v.48c0 2.37-.808 4.57-2.425 6.61h-.37c-.26-.07-.51-.46-.76-1.18l.95-3.53-.74-.47c-1.72.15-4.89 2.04-9.49 5.66v.23l12.27 2.38c1.24.99 1.86 2.64 1.86 4.96v1.41c0 3.18-2.05 5.93-6.14 8.27-1.61.64-3.16.95-4.66.95h-.39c-4.27 0-6.87-1.89-7.81-5.66v-1.43c0-1.73.43-2.6 1.3-2.6.85 3 2.41 4.5 4.66 4.5 0 .31.93.46 2.79.46 2.75 0 5.42-1.41 8-4.24 0-1.87-3.97-3.05-11.9-3.55-2.86-.79-4.29-1.97-4.29-3.53 0-3.83 3.84-7.69 11.53-11.57l2.79-.47zm17.105 0h.844c1.16 0 2.63 5.36 4.412 16.084 1.4 5.06 2.1 8.5 2.1 10.31-.3.96-.86 1.44-1.69 1.44-1.08 0-1.85-2.56-2.32-7.69l-.21-.23h-.21c-1.83.02-5.69 1.14-11.57 3.35-.56 3.2-1.48 4.8-2.74 4.8-.85-.33-1.27-.97-1.27-1.92 0-1.86 3.86-10.34 11.58-25.46l1.05-.72zm-.422 6.715c-1.68 3.047-3.23 6.252-4.64 9.615H246c1.43 0 3.258-.322 5.484-.967l-1.897-8.648h-.422zm20.52-6.768h.46c.75.41 1.13 1.05 1.13 1.916v.493c0 5.21.46 11.3 1.37 18.29h.23c5.02-13.15 7.97-19.72 8.86-19.72h.69c.67 0 1.73 4.57 3.19 13.71 1.36 4.69 2.04 8.62 2.04 11.78-.44 1.13-1.12 1.69-2.04 1.69-.61 0-1.44-3.93-2.49-11.79l-1.83-7.68c-1.3 2.09-3.65 7.54-7.05 16.35-.97 1-1.8 1.56-2.49 1.69-1.97 0-2.95-2.65-2.95-7.94l-1.12-10.09h-.23l-6.82 15.38c-.41 2.57-.79 3.85-1.14 3.85h-.9l-.91-.95v-1.22c0-2.15 1.89-6.8 5.68-13.94 2.7-7.5 4.44-11.35 5.22-11.54l1.15-.25zm38.53.053c.81.176 1.22.79 1.22 1.846-.26 2-1.06 2.99-2.41 2.99-8.83 0-13.25 1.23-13.25 3.69l-.24 2.08v1.14c5.77-1.38 9.71-2.07 11.82-2.07h.48c.81.35 1.22 1.12 1.22 2.31 0 1.69-1.12 2.53-3.37 2.53-7.39.96-11.09 2.12-11.09 3.47l-.23 2.31v.92c0 1.39.88 2.15 2.64 2.31 2.77-.3 6.22-1 10.37-2.07h.72c.64.25.97.79.97 1.62v.68c0 1.89-4.02 3.35-12.06 4.38h-.72c-2.89 0-4.5-1.84-4.82-5.52 0-2.71.56-7.85 1.69-15.43l-.47-1.39c0-3.12 4.82-4.96 14.45-5.52l3.13-.23zm35.69-.07c1.53 0 2.29.633 2.29 1.898v.475c0 1.746-1.36 2.62-4.08 2.62l-5.08.245c-1.52 8.12-2.28 15.106-2.28 20.953-.41 1.266-.83 1.9-1.26 1.9h-.77c-.88 0-1.38-.242-1.53-.722.86-8.988 1.79-16.29 2.8-21.902l-7.63 1.195c-.71 0-1.14-.715-1.26-2.145 0-2.378 2.12-3.568 6.37-3.568 2.55-.633 6.7-.95 12.47-.95zm7.21-.053h1.66c.55 0 .83.322.83.967-1.29 10.52-1.93 17.82-1.93 21.9v2.67c-.36 1.78-1.27 2.67-2.74 2.67h-.54l-1.1-.97c.74-11.04 1.66-19.8 2.76-26.28l1.09-.97zm15.05.07h.46c.75.41 1.13 1.05 1.13 1.916v.493c0 5.21.46 11.3 1.37 18.29h.23c5.02-13.15 7.97-19.72 8.86-19.72h.69c.67 0 1.73 4.57 3.18 13.71 1.36 4.69 2.04 8.62 2.04 11.78-.44 1.13-1.12 1.69-2.04 1.69-.61 0-1.44-3.93-2.49-11.79l-1.82-7.68c-1.3 2.09-3.65 7.54-7.05 16.35-.97 1-1.8 1.56-2.49 1.69-1.97 0-2.95-2.65-2.95-7.94l-1.12-10.09h-.23l-6.82 15.38c-.41 2.57-.79 3.85-1.14 3.85h-.89l-.91-.95v-1.22c0-2.15 1.89-6.8 5.68-13.94 2.7-7.5 4.44-11.35 5.22-11.54l1.15-.25zm38.53.053c.81.176 1.22.79 1.22 1.846-.26 2-1.06 2.99-2.41 2.99-8.83 0-13.25 1.23-13.25 3.69l-.25 2.08v1.14c5.77-1.38 9.71-2.07 11.82-2.07h.48c.81.35 1.22 1.12 1.22 2.31 0 1.69-1.12 2.53-3.37 2.53-7.39.96-11.09 2.12-11.09 3.47l-.23 2.31v.91c0 1.39.88 2.15 2.64 2.31 2.77-.3 6.23-1 10.37-2.07h.72c.65.25.97.78.97 1.62v.69c0 1.89-4.02 3.35-12.06 4.38h-.72c-2.89 0-4.5-1.84-4.82-5.52 0-2.7.57-7.85 1.69-15.43l-.47-1.39c0-3.12 4.82-4.96 14.45-5.52l3.13-.23zm27.14-4.5l9.6.563 5.21-.563.55.844V62c0 3-1.73 4.5-5.2 4.5h-.28c-.43 16.29-1.89 24.433-4.37 24.433-1.28 1.126-3.02 1.688-5.22 1.688h-1.92c-6.21-.95-9.31-4.03-9.31-9.26.55-3.14 1.37-5.2 2.46-6.18h.28c.28 0 .74 2.07 1.37 6.19 1.26 2.43 3.27 3.64 6.03 3.64 4.02 0 6.03-1.68 6.03-5.04l1.37-15.73h-3.02c-4.02 0-6.03-.47-6.03-1.4v-.56c.55-2.81 1.38-4.22 2.48-4.22zm34.23 4.5c.81.176 1.22.79 1.22 1.846-.25 2-1.06 2.99-2.4 2.99-8.83 0-13.25 1.23-13.25 3.69l-.24 2.08v1.14c5.77-1.38 9.71-2.07 11.81-2.07h.48c.81.35 1.21 1.12 1.21 2.31 0 1.69-1.12 2.53-3.37 2.53-7.39.96-11.09 2.12-11.09 3.47l-.23 2.31v.92c0 1.39.88 2.15 2.64 2.31 2.77-.3 6.22-1 10.37-2.07h.72c.65.25.97.79.97 1.62v.68c0 1.89-4.02 3.35-12.06 4.38h-.72c-2.89 0-4.5-1.84-4.81-5.52 0-2.71.57-7.85 1.69-15.43l-.47-1.39c0-3.12 4.82-4.96 14.45-5.52l3.13-.23zm16.12 0h.37c1.62.2 2.43.985 2.43 2.356v.48c0 2.37-.81 4.57-2.42 6.61h-.37c-.26-.07-.51-.46-.75-1.18l.95-3.53-.74-.47c-1.72.15-4.88 2.04-9.49 5.66v.23l12.27 2.38c1.24.99 1.87 2.64 1.87 4.96v1.41c0 3.18-2.05 5.93-6.14 8.27-1.6.64-3.16.95-4.66.95h-.38c-4.26 0-6.87-1.89-7.8-5.66v-1.43c0-1.73.44-2.6 1.3-2.6.86 3 2.41 4.5 4.66 4.5 0 .31.93.46 2.8.46 2.75 0 5.42-1.41 7.99-4.24 0-1.87-3.96-3.05-11.9-3.55-2.86-.79-4.29-1.97-4.29-3.53 0-3.83 3.85-7.69 11.53-11.57l2.8-.47zm11.48-.053c.75.305 1.17.622 1.25.95-1.33 8.355-2 14.425-2 18.21v2.602c4.48 0 8.15-2.05 11.01-6.152 1.13-9.938 2.21-14.906 3.26-14.906h.27c1 .105 1.5.345 1.5.72-1.5 9.047-2.25 15.826-2.25 20.338v3.78c0 1.242-.5 2.11-1.51 2.6h-1l-.99-.948V91.2l.25-4.007c-.6 0-3.85 1.494-9.75 4.483l-1.76.474c-2-.257-3-1.125-3-2.6v-.23c1.22-16.558 2.64-24.838 4.26-24.838h.51zm30.89.053h.37c1.62.2 2.43.985 2.43 2.356v.48c0 2.37-.8 4.57-2.42 6.61h-.37c-.26-.07-.51-.46-.75-1.18l.95-3.53-.74-.47c-1.72.15-4.88 2.04-9.49 5.66v.23l12.27 2.38c1.24.99 1.87 2.64 1.87 4.96v1.41c0 3.18-2.05 5.93-6.14 8.27-1.6.64-3.16.95-4.66.95h-.38c-4.26 0-6.86-1.89-7.8-5.66v-1.43c0-1.73.44-2.6 1.3-2.6.86 3 2.41 4.5 4.66 4.5 0 .31.93.46 2.8.46 2.76 0 5.42-1.41 8-4.24 0-1.87-3.96-3.05-11.9-3.55-2.86-.79-4.29-1.97-4.29-3.53 0-3.83 3.85-7.69 11.54-11.57l2.8-.47zm22.98 0c.79 0 1.18 2.72 1.18 8.156l1.58 10.34h.39c0-.59 1.58-3.8 4.73-9.61.49-3.83 1.41-5.75 2.76-5.75h.39c.8 0 1.45 2.96 1.97 8.88.88 4.05 1.54 6.45 1.97 7.21.42-2.04 2.53-8.04 6.31-18.01.55-.63 1.08-.95 1.58-.95.7 0 1.16.32 1.37.95 0 .82-1.97 6.18-5.91 16.09-.65 2.35-1.25 5.55-1.77 9.62-.42.8-.95 1.2-1.58 1.2-1.19 0-2.11-2.72-2.74-8.15-1.29-5.31-2.08-8.19-2.37-8.65l-3.94 7.68c-.65 1.5-1.25 4.06-1.77 7.69-.35.59-.87.98-1.56 1.2-1.1 0-2.02-4.16-2.76-12.48-1.05-5.88-1.58-10.6-1.58-14.16 0-.48.59-.88 1.78-1.19zm35.07 0h.85c1.16 0 2.63 5.36 4.41 16.084 1.41 5.06 2.11 8.5 2.11 10.31-.29.96-.85 1.44-1.69 1.44-1.07 0-1.85-2.56-2.32-7.69l-.21-.23h-.21c-1.82.02-5.68 1.14-11.56 3.35-.56 3.2-1.47 4.8-2.74 4.8-.84-.33-1.26-.97-1.26-1.92 0-1.86 3.86-10.34 11.58-25.46l1.06-.72zm-.42 6.715c-1.69 3.047-3.23 6.252-4.64 9.615H579c1.43 0 3.258-.322 5.485-.967l-1.9-8.648h-.42zm24.49-6.715h.37c1.62.2 2.43.985 2.43 2.356v.48c0 2.37-.81 4.57-2.42 6.61h-.37c-.26-.07-.51-.46-.75-1.18l.95-3.53-.74-.47c-1.72.15-4.89 2.04-9.49 5.66v.23l12.27 2.38c1.24.99 1.86 2.64 1.86 4.96v1.41c0 3.18-2.04 5.93-6.13 8.27-1.61.64-3.16.95-4.66.95h-.39c-4.27 0-6.87-1.89-7.8-5.66v-1.43c0-1.73.44-2.6 1.31-2.6.86 3 2.41 4.5 4.66 4.5 0 .31.93.46 2.8.46 2.75 0 5.42-1.41 8-4.24 0-1.87-3.96-3.05-11.9-3.55-2.86-.79-4.29-1.97-4.29-3.53 0-3.83 3.85-7.69 11.53-11.57l2.79-.47zm32.01 0c4.75 0 7.12 1.617 7.12 4.852v.72c0 2.262-1.07 4.442-3.21 6.54v.246c3.53 1.066 5.29 2.84 5.29 5.326v.96c0 4.05-3.98 7.03-11.95 8.94l-3.92.49h-2.29c-1.23 0-1.84-.65-1.84-1.94v-.25l1.85-19.87c-.77 0-1.16-.16-1.16-.47v-1.46c0-2.74 3.38-4.11 10.13-4.11zm-6.68 10.9h.25c7.2 0 10.8-1.62 10.8-4.853-1.18-.797-3.18-1.195-5.98-1.195h-2.76c-1.22 0-1.82.562-1.82 1.687l-.47 4.36zm-.45 4.604l-.46 7.73 2.31.49.23-.25h1.15c6.45-.85 9.67-2.38 9.67-4.59-2.12-2.26-5.42-3.39-9.89-3.39h-.91l-.23-.25-.23.24h-1.61zm32.91-15.56c5 .69 7.51 3.68 7.51 8.98 0 6.93-2.74 12.68-8.22 17.22-2.26 1.29-4.29 1.93-6.07 1.93-4.35 0-7.15-2.35-8.4-7.03l-.17-2.18v-.74c0-7.57 3.46-13.31 10.37-17.23 1.74-.65 3.4-.97 5-.97zM651.4 83.41c1.803 2.74 4.19 4.11 7.153 4.11 4.77 0 8.108-2.83 10.006-8.49l.35-2.67c0-3.99-1.97-6.33-5.89-7.03h-.55c-3.24 0-6.64 3.23-10.18 9.7-.6 1.94-.9 3.4-.9 4.37zm34.75-18.93h2.427c3.714 0 5.57 1.29 5.57 3.88v.24c0 4.53-3.88 8.66-11.636 12.37v.23c3.88 3.56 7.11 6.23 9.7 8.01v.72c0 1.25-.4 2.06-1.21 2.42h-1l-13.32-9.45-.24 4.85v3.64c-.41.81-1.05 1.21-1.93 1.21-.65 0-1.14-.325-1.46-.97v-1.46l2.18-18.93c-.65 0-.97-.48-.97-1.44 0-2.92 2.42-4.62 7.26-5.1l4.6-.248zm-8.47 13.09h.246c8.39-2.16 12.586-4.5 12.586-7.03v-.24c0-.45-.81-.77-2.43-.97-2.682 0-5.91.57-9.684 1.7l-.72 6.53zM698 64.47c1.066 0 2.344 2 3.83 6.01 2.88 5.9 6.087 10.95 9.614 15.15 1.183-11.57 2.06-18.38 2.636-20.45l.97-.72h.72c.48 0 .72.32.72.96-1.44 16.52-2.32 25.34-2.63 26.45l-1.44.472c-2.57 0-6.89-5.45-12.975-16.35l-.967-.963-.25.72-.72 11.07v1.44l.25 1.44c-.21 1.92-.85 2.88-1.91 2.88-.985-.35-1.547-.83-1.688-1.44 1.23-17.32 2.11-25.98 2.64-25.98l1.213-.72zm28.336 21.11c.75.22 1.295.62 1.635 1.21v.47c0 2.79-2.09 6.24-6.27 10.37l-1.09.24h-.28c-.98 0-1.71-.41-2.18-1.21v-.25c3.29-3.64 4.93-6.85 4.93-9.64 1.01-.81 2.1-1.21 3.27-1.21zm33.73-21.06h.37c1.618.2 2.426.98 2.426 2.35v.47c0 2.36-.81 4.57-2.43 6.61h-.37c-.256-.07-.51-.47-.754-1.18l.95-3.54-.74-.48c-1.72.15-4.883 2.037-9.49 5.66v.227l12.27 2.374c1.24.99 1.86 2.64 1.86 4.96v1.41c0 3.18-2.05 5.93-6.14 8.26-1.6.64-3.16.95-4.66.95h-.39c-4.26 0-6.86-1.89-7.8-5.66v-1.42c0-1.73.44-2.6 1.3-2.6.86 3 2.41 4.5 4.66 4.5 0 .31.93.46 2.8.46 2.753 0 5.42-1.41 7.997-4.24 0-1.88-3.964-3.06-11.9-3.55-2.86-.8-4.29-1.98-4.29-3.54 0-3.83 3.847-7.69 11.53-11.57l2.797-.47zm21.62-.05c5.006.69 7.508 3.68 7.508 8.98 0 6.93-2.74 12.68-8.22 17.22-2.26 1.29-4.28 1.93-6.06 1.93-4.345 0-7.145-2.35-8.4-7.03l-.175-2.18v-.74c0-7.57 3.45-13.31 10.37-17.23 1.73-.65 3.4-.97 4.99-.97zM768.63 83.4c1.807 2.74 4.19 4.11 7.157 4.11 4.77 0 8.11-2.83 10.008-8.49l.35-2.67c0-3.988-1.963-6.33-5.89-7.03h-.543c-3.25 0-6.64 3.23-10.18 9.7-.6 1.943-.9 3.402-.9 4.38zm32.59-18.93h.46c.75.41 1.122 1.05 1.122 1.91v.49c0 5.204.45 11.297 1.37 18.28h.23c5.01-13.15 7.97-19.72 8.86-19.72h.68c.67 0 1.73 4.57 3.18 13.71 1.36 4.687 2.04 8.61 2.04 11.777-.44 1.13-1.12 1.69-2.04 1.69-.61 0-1.44-3.93-2.49-11.79l-1.83-7.68c-1.3 2.09-3.65 7.54-7.05 16.35-.97 1-1.8 1.56-2.493 1.69-1.97 0-2.96-2.65-2.96-7.95l-1.13-10.09h-.23l-6.82 15.38c-.41 2.57-.79 3.85-1.14 3.85h-.9l-.92-.943v-1.21c0-2.157 1.89-6.804 5.68-13.94 2.69-7.5 4.43-11.35 5.22-11.55l1.14-.247zm38.53.05c.81.17 1.216.79 1.216 1.84-.255 1.993-1.06 2.99-2.405 2.99-8.83 0-13.25 1.23-13.25 3.69l-.24 2.075v1.14c5.77-1.38 9.71-2.08 11.82-2.08h.48c.81.35 1.22 1.12 1.22 2.3 0 1.684-1.12 2.53-3.37 2.53-7.39.96-11.09 2.113-11.09 3.46l-.23 2.303v.91c0 1.384.88 2.15 2.64 2.304 2.77-.306 6.22-1 10.37-2.076h.72c.65.244.97.783.97 1.616v.686c0 1.89-4.02 3.346-12.06 4.38h-.72c-2.89 0-4.5-1.84-4.82-5.52 0-2.71.56-7.85 1.69-15.436l-.48-1.39c0-3.113 4.82-4.953 14.45-5.515l3.13-.23zm35.6-.058h.7c.633.257.95.82.95 1.687 0 1.17-2.45 6.22-7.348 15.15-2.41 6.69-3.91 10.3-4.5 10.83l-2.36.48c-1.03 0-1.746-1.84-2.144-5.53-3.156-11.12-4.73-17.94-4.73-20.45.26-.73.73-1.29 1.422-1.69h.95c.86 0 1.727 3.37 2.6 10.11l2.85 10.58h.23c1.64-4.34 5.19-11.23 10.65-20.69l.72-.48zm20.44.052c.81.174 1.213.79 1.213 1.844-.256 1.99-1.06 2.99-2.41 2.99-8.84 0-13.26 1.23-13.26 3.69l-.244 2.073v1.14c5.76-1.38 9.7-2.07 11.81-2.07h.47c.81.36 1.21 1.12 1.21 2.31 0 1.69-1.13 2.53-3.38 2.53-7.39.97-11.09 2.12-11.09 3.47l-.23 2.3v.92c0 1.39.88 2.15 2.64 2.31 2.76-.3 6.22-1 10.37-2.07h.72c.64.25.97.79.97 1.62v.69c0 1.89-4.02 3.35-12.06 4.38h-.73c-2.9 0-4.5-1.84-4.82-5.52 0-2.7.56-7.85 1.69-15.43l-.48-1.39c0-3.11 4.82-4.95 14.45-5.52l3.13-.23zm14.31-.055h2.425c3.71 0 5.57 1.29 5.57 3.88v.24c0 4.54-3.88 8.66-11.64 12.38v.23c3.88 3.56 7.11 6.23 9.7 8.01v.72c0 1.25-.404 2.06-1.212 2.42h-.965l-13.325-9.45-.248 4.85v3.64c-.41.81-1.05 1.21-1.93 1.21-.642 0-1.13-.32-1.46-.96v-1.46l2.18-18.93c-.64 0-.963-.48-.963-1.44 0-2.92 2.42-4.62 7.26-5.1l4.604-.25zm-8.474 13.1h.25c8.39-2.16 12.585-4.5 12.585-7.03v-.24c0-.45-.81-.77-2.42-.97-2.68 0-5.91.57-9.68 1.7l-.72 6.53zm18.62-13.05l5.38 8.15 2.354 1.93c2.977-5.3 5.05-8.51 6.223-9.62h1.08l.86.97c-.113.85-3.48 6.85-10.09 18-1.66 3.13-2.88 5.93-3.652 8.4l-.63.24c-1-.47-1.51-1.19-1.51-2.16.06-1.26 1.78-5.18 5.15-11.76-4.86-5.23-7.29-9.47-7.29-12.73.9-.96 1.62-1.44 2.14-1.44zm46.107 0h1.038c1.3 0 2.08 1.05 2.34 3.14v.49c0 3.17-1.2 5.27-3.6 6.29l-.42-.49v-.25l1.08-4.12-.85-.48c-3.5 0-7.67 3.31-12.5 9.93-1.15 2-1.72 3.53-1.72 4.58v.25c0 2.57 1.56 3.86 4.68 3.86h.19c3 0 6.32-.8 9.97-2.41h.65c.57.25.85.82.85 1.68v1c-3 3.07-6.53 4.6-10.58 4.6-5.52-.58-8.28-3.32-8.28-8.23v-.49c0-6.27 4.45-12.41 13.34-18.41 1.69-.64 2.97-.96 3.83-.96zm6.98-.06h.246c.76 0 1.4.39 1.91 1.17-1.12 8.11-1.91 15.36-2.39 21.76l13.71-2.83.47.7v1.42c0 2.16-4.97 4.12-14.91 5.91-1.77-.32-2.66-.87-2.66-1.65 1.31-17.35 2.27-26.02 2.88-26.02l.72-.48zm33.345.05c.81.17 1.21.79 1.21 1.84-.252 1.99-1.06 2.99-2.402 2.99-8.83 0-13.25 1.23-13.25 3.69l-.242 2.07v1.14c5.77-1.38 9.706-2.08 11.815-2.08h.47c.81.35 1.21 1.12 1.21 2.3 0 1.68-1.12 2.53-3.37 2.53-7.4.96-11.09 2.11-11.09 3.46l-.23 2.3v.91c0 1.38.88 2.15 2.63 2.3 2.77-.31 6.22-1 10.37-2.08h.72c.64.24.96.78.96 1.62v.69c0 1.88-4.02 3.34-12.06 4.37h-.72c-2.89 0-4.5-1.84-4.82-5.52 0-2.7.56-7.85 1.69-15.43l-.48-1.39c0-3.11 4.82-4.95 14.45-5.51l3.13-.23zm20.654-.06h.703c.634.25.95.82.95 1.68 0 1.17-2.45 6.22-7.35 15.15-2.4 6.69-3.9 10.3-4.5 10.83l-2.353.47c-1.04 0-1.75-1.85-2.15-5.54-3.15-11.12-4.73-17.94-4.73-20.45.256-.73.73-1.29 1.422-1.69h.95c.86 0 1.72 3.37 2.6 10.1l2.85 10.58h.23c1.64-4.34 5.19-11.23 10.65-20.69l.72-.48zm20.443.05c.81.17 1.214.79 1.214 1.84-.26 1.99-1.06 2.99-2.41 2.99-8.84 0-13.26 1.23-13.26 3.69l-.25 2.08v1.14c5.77-1.39 9.71-2.08 11.82-2.08h.47c.81.35 1.21 1.12 1.21 2.3 0 1.69-1.13 2.53-3.38 2.53-7.4.96-11.1 2.11-11.1 3.46l-.23 2.3v.92c0 1.38.88 2.15 2.63 2.3 2.76-.31 6.22-1 10.37-2.08h.72c.64.25.97.78.97 1.62v.68c0 1.88-4.02 3.34-12.06 4.37h-.72c-2.9 0-4.5-1.84-4.82-5.52 0-2.7.56-7.85 1.69-15.43l-.48-1.39c0-3.11 4.82-4.95 14.45-5.51l3.13-.23zm14.31-.06h2.425c3.715 0 5.573 1.3 5.573 3.89v.25c0 4.54-3.88 8.66-11.64 12.38v.23c3.88 3.56 7.12 6.23 9.71 8.01v.72c0 1.25-.41 2.06-1.22 2.43h-.965l-13.327-9.46-.24 4.85v3.64c-.41.81-1.05 1.21-1.93 1.21-.64 0-1.13-.32-1.46-.97v-1.46l2.18-18.93c-.64 0-.96-.48-.96-1.44 0-2.92 2.42-4.62 7.26-5.1l4.61-.25zm-8.473 13.1h.24c8.39-2.15 12.59-4.5 12.59-7.03v-.24c0-.44-.81-.76-2.43-.96-2.683 0-5.91.57-9.685 1.71l-.72 6.53zm42.32-13.09h.454c.75.41 1.123 1.05 1.123 1.91v.49c0 5.21.45 11.3 1.37 18.28h.23c5.01-13.15 7.96-19.72 8.86-19.72h.68c.67 0 1.73 4.57 3.18 13.71 1.36 4.69 2.04 8.61 2.04 11.78-.45 1.13-1.13 1.69-2.04 1.69-.61 0-1.44-3.93-2.5-11.79l-1.83-7.69c-1.3 2.09-3.65 7.54-7.05 16.35-.98 1-1.81 1.56-2.5 1.69-1.97 0-2.96-2.65-2.96-7.95l-1.13-10.09h-.23l-6.82 15.38c-.41 2.57-.79 3.85-1.14 3.85h-.9l-.91-.95v-1.2c0-2.16 1.89-6.81 5.68-13.94 2.69-7.5 4.43-11.35 5.22-11.55l1.14-.25zm38.53.05c.81.17 1.21.79 1.21 1.84-.256 1.99-1.06 2.99-2.406 2.99-8.838 0-13.256 1.23-13.256 3.69l-.24 2.07v1.14c5.764-1.38 9.7-2.08 11.81-2.08h.474c.81.35 1.21 1.12 1.21 2.3 0 1.68-1.127 2.53-3.377 2.53-7.397.96-11.09 2.11-11.09 3.46l-.23 2.3v.91c0 1.38.88 2.15 2.634 2.3 2.77-.31 6.22-1 10.37-2.08h.72c.65.25.97.79.97 1.62v.68c0 1.88-4.02 3.34-12.06 4.37h-.72c-2.89 0-4.5-1.84-4.81-5.52 0-2.71.57-7.85 1.69-15.43l-.47-1.39c0-3.12 4.82-4.96 14.45-5.52l3.13-.23zm5.08-.06c1.065 0 2.342 2 3.83 6.01 2.89 5.9 6.09 10.95 9.62 15.15 1.183-11.57 2.06-18.38 2.636-20.45l.967-.72h.72c.48 0 .72.32.72.96-1.44 16.52-2.32 25.34-2.637 26.45l-1.44.48c-2.564 0-6.89-5.45-12.97-16.35l-.966-.97-.243.72-.72 11.08v1.44l.24 1.44c-.21 1.92-.85 2.89-1.92 2.89-.98-.35-1.55-.83-1.69-1.44 1.23-17.32 2.11-25.98 2.63-25.98l1.21-.72zm28.334 21.11c.75.22 1.293.62 1.633 1.21v.47c0 2.79-2.1 6.25-6.28 10.37l-1.09.25h-.28c-.99 0-1.71-.41-2.18-1.21v-.25c3.28-3.63 4.92-6.84 4.92-9.63 1.01-.81 2.1-1.21 3.27-1.21zm22.446-21.11h.25c.76 0 1.4.39 1.915 1.17-1.114 8.11-1.91 15.36-2.39 21.76l13.71-2.83.475.7v1.43c0 2.15-4.97 4.12-14.9 5.9-1.77-.32-2.656-.87-2.656-1.65 1.317-17.35 2.277-26.02 2.887-26.02l.72-.48zm20.2-.07h1.65c.56 0 .83.32.83.96-1.29 10.52-1.93 17.82-1.93 21.9v2.68c-.363 1.78-1.28 2.67-2.74 2.67h-.545l-1.11-.96c.74-11.04 1.66-19.8 2.76-26.28l1.09-.97zm23.56.07h.705c.63.25.95.82.95 1.68 0 1.17-2.45 6.22-7.35 15.15-2.4 6.69-3.9 10.3-4.5 10.82l-2.358.48c-1.03 0-1.75-1.85-2.15-5.54-3.15-11.12-4.73-17.94-4.73-20.44.25-.73.73-1.29 1.42-1.69h.95c.85 0 1.72 3.37 2.6 10.11l2.85 10.58h.23c1.64-4.34 5.19-11.23 10.65-20.69l.72-.48zm7.296-.07h1.652c.55 0 .824.32.824.96-1.29 10.52-1.933 17.82-1.933 21.9v2.68c-.36 1.78-1.28 2.67-2.74 2.67h-.54l-1.11-.96c.74-11.04 1.66-19.8 2.76-26.28l1.09-.97zm7.98.07c1.066 0 2.344 2 3.832 6.01 2.88 5.9 6.09 10.95 9.613 15.15 1.187-11.57 2.06-18.38 2.64-20.45l.967-.72h.72c.48 0 .72.32.72.96-1.44 16.52-2.32 25.34-2.638 26.45l-1.44.48c-2.57 0-6.896-5.45-12.978-16.35l-.97-.97-.245.72-.72 11.08v1.44l.24 1.44c-.21 1.92-.85 2.89-1.92 2.89-.99-.35-1.55-.83-1.69-1.44 1.23-17.32 2.11-25.98 2.64-25.98l1.21-.72zm35.35 0h.175c1.56 0 2.6 1.52 3.13 4.57l-.37.47h-.17l-1.476-.48c-4.03.59-8.25 3.4-12.67 8.42-1.23 2.18-1.845 3.7-1.845 4.57v1c0 2.56 2.636 4.16 7.91 4.8 3.304 0 5.81-1.77 7.523-5.3l-2.2-.95c-.82 0-3.083.96-6.8 2.88-.362-.82-.543-1.62-.543-2.41v-.24c0-2.55 2.45-4.32 7.35-5.29h.37c2.814 0 4.22 1.85 4.22 5.54 0 3.81-3.123 7.18-9.37 10.11l-2.196.48c-3.973 0-6.67-1.68-8.086-5.04l-.37-3.13c0-7.26 3.73-13.44 11.194-18.53 1.887-.96 3.3-1.44 4.236-1.44zM113.36 106.52h.37c1.614.2 2.423.98 2.423 2.352v.472c0 2.368-.81 4.57-2.427 6.61h-.37c-.255-.07-.51-.462-.753-1.177l.945-3.534-.738-.475c-1.725.15-4.89 2.036-9.494 5.66v.226l12.27 2.377c1.24.99 1.86 2.64 1.86 4.96v1.41c0 3.18-2.044 5.93-6.134 8.27-1.605.64-3.157.95-4.657.95h-.39c-4.263 0-6.864-1.89-7.802-5.66v-1.42c0-1.73.436-2.6 1.3-2.6.86 3 2.41 4.5 4.66 4.5 0 .31.93.46 2.796.46 2.75 0 5.42-1.41 8-4.23 0-1.87-3.97-3.06-11.9-3.55-2.86-.8-4.29-1.97-4.29-3.53 0-3.83 3.84-7.69 11.53-11.57l2.79-.47zm21.62-.057c5.003.696 7.505 3.69 7.505 8.987 0 6.935-2.74 12.68-8.226 17.224-2.26 1.29-4.29 1.938-6.07 1.938-4.35 0-7.15-2.344-8.4-7.03l-.18-2.18v-.74c0-7.57 3.45-13.312 10.37-17.226 1.73-.64 3.4-.964 4.99-.964zm-13.05 18.94c1.803 2.744 4.19 4.115 7.152 4.115 4.77 0 8.107-2.83 10.005-8.49l.35-2.67c0-3.98-1.963-6.32-5.89-7.03H133c-3.247 0-6.64 3.24-10.178 9.71-.6 1.943-.898 3.402-.898 4.375zm32.59-18.93h.455c.75.41 1.126 1.05 1.126 1.918v.5c0 5.2.46 11.3 1.37 18.28h.23c5.02-13.15 7.97-19.72 8.86-19.72h.69c.67 0 1.73 4.57 3.18 13.71 1.36 4.69 2.04 8.62 2.04 11.78-.44 1.13-1.12 1.69-2.04 1.69-.61 0-1.44-3.93-2.49-11.79l-1.83-7.68c-1.3 2.09-3.65 7.54-7.05 16.35-.97 1-1.8 1.56-2.49 1.69-1.97 0-2.95-2.65-2.95-7.94l-1.12-10.09h-.23l-6.82 15.38c-.41 2.57-.79 3.85-1.14 3.85h-.89l-.91-.95v-1.21c0-2.15 1.89-6.8 5.68-13.94 2.7-7.5 4.44-11.35 5.22-11.55l1.15-.25zm38.53.055c.81.177 1.212.79 1.212 1.847-.255 1.99-1.06 2.99-2.405 2.99-8.838 0-13.256 1.23-13.256 3.69l-.24 2.07v1.145c5.77-1.384 9.71-2.076 11.81-2.076h.48c.81.35 1.21 1.12 1.21 2.303 0 1.69-1.12 2.53-3.37 2.53-7.39.964-11.09 2.118-11.09 3.466l-.23 2.303v.912c0 1.38.88 2.15 2.64 2.3 2.77-.303 6.23-.995 10.37-2.073h.72c.65.245.97.784.97 1.617v.685c0 1.888-4.02 3.347-12.06 4.378h-.72c-2.89 0-4.5-1.84-4.81-5.52 0-2.705.56-7.85 1.69-15.43l-.47-1.39c0-3.116 4.82-4.956 14.45-5.52l3.13-.23zm3.005 0c.786 0 1.18 2.72 1.18 8.157l1.58 10.34h.387c0-.6 1.58-3.81 4.73-9.62.49-3.83 1.41-5.75 2.76-5.75h.388c.796 0 1.453 2.96 1.968 8.88.88 4.043 1.537 6.445 1.97 7.21.42-2.04 2.526-8.047 6.31-18.02.55-.63 1.08-.95 1.584-.95.702 0 1.16.32 1.37.95 0 .82-1.97 6.182-5.907 16.084-.655 2.34-1.247 5.55-1.774 9.61-.42.79-.95 1.19-1.58 1.19-1.19 0-2.11-2.72-2.74-8.16-1.29-5.31-2.08-8.19-2.37-8.65l-3.93 7.68c-.65 1.5-1.24 4.06-1.77 7.68-.35.58-.87.98-1.56 1.19-1.1 0-2.02-4.16-2.76-12.48-1.06-5.88-1.58-10.61-1.58-14.17 0-.48.59-.88 1.77-1.19zm42.997-.052c.833.224 1.25.79 1.25 1.707v.224c-1.173 17.31-2.005 25.96-2.497 25.96l-.265.245h-.738c-.868 0-1.454-.4-1.76-1.21.328-2.305.493-5.54.493-9.7h-.244l-10.51 2.425-.74.97v4.604c0 1.37-.5 2.35-1.51 2.92h-.49c-.94 0-1.53-.4-1.76-1.21 1.16-17.47 2.83-26.21 5.01-26.21h.49l.76.99c-1.17 5.8-1.76 10.09-1.76 12.85 7.68-1.01 11.52-2.22 11.52-3.64l1-10.19 1.76-.72zm21.62.054c.81.174 1.215.79 1.215 1.844-.26 1.995-1.06 2.99-2.41 2.99-8.834 0-13.252 1.23-13.252 3.69l-.246 2.077v1.15c5.76-1.38 9.7-2.07 11.81-2.07h.47c.8.35 1.21 1.12 1.21 2.3 0 1.69-1.13 2.53-3.38 2.53-7.39.96-11.09 2.12-11.09 3.47l-.23 2.31v.92c0 1.38.88 2.15 2.64 2.3 2.76-.31 6.22-1 10.37-2.08h.72c.64.25.97.79.97 1.62v.69c0 1.89-4.02 3.35-12.06 4.38h-.72c-2.89 0-4.5-1.84-4.82-5.52 0-2.7.56-7.85 1.68-15.43l-.48-1.39c0-3.11 4.81-4.95 14.45-5.52l3.13-.23zm14.31-.055h2.427c3.71 0 5.57 1.3 5.57 3.89v.25c0 4.535-3.88 8.66-11.64 12.375v.23c3.88 3.56 7.11 6.233 9.7 8.014v.72c0 1.258-.41 2.067-1.21 2.43h-.97l-13.33-9.46-.25 4.85v3.64c-.41.81-1.05 1.214-1.93 1.214-.64 0-1.13-.323-1.46-.97v-1.46l2.18-18.93c-.64 0-.96-.48-.96-1.443 0-2.917 2.42-4.616 7.26-5.096l4.61-.25zm-8.47 13.1h.244c8.39-2.15 12.583-4.5 12.583-7.03v-.24c0-.443-.81-.765-2.43-.964-2.68 0-5.91.57-9.69 1.71l-.72 6.54zm35.26-13.04c.806.18 1.21.79 1.21 1.85-.257 1.995-1.06 2.99-2.407 2.99-8.837 0-13.255 1.23-13.255 3.69l-.247 2.077v1.14c5.766-1.38 9.704-2.074 11.813-2.074h.474c.81.353 1.214 1.12 1.214 2.304 0 1.69-1.124 2.53-3.374 2.53-7.4.964-11.1 2.118-11.1 3.466l-.23 2.307v.914c0 1.38.88 2.15 2.64 2.3 2.77-.31 6.223-1 10.37-2.08h.72c.646.25.97.79.97 1.62v.68c0 1.89-4.02 3.35-12.06 4.38h-.72c-2.893 0-4.5-1.84-4.815-5.52 0-2.71.563-7.85 1.688-15.44l-.473-1.39c0-3.12 4.817-4.96 14.45-5.52l3.13-.23zm21.812-.12h1.65c.55 0 .828.32.828.97-1.29 10.52-1.935 17.822-1.935 21.9v2.672c-.364 1.78-1.278 2.67-2.743 2.67h-.544l-1.11-.966c.732-11.04 1.652-19.8 2.76-26.28l1.09-.96zm7.98.07c1.066 0 2.344 2.006 3.83 6.01 2.885 5.91 6.09 10.96 9.617 15.15 1.18-11.562 2.06-18.38 2.63-20.44l.97-.72h.72c.48 0 .72.32.72.966-1.44 16.52-2.32 25.34-2.63 26.46l-1.44.48c-2.57 0-6.89-5.45-12.97-16.35l-.96-.96-.25.72-.72 11.08v1.44l.25 1.44c-.21 1.92-.85 2.89-1.91 2.89-.98-.35-1.55-.83-1.69-1.44 1.23-17.32 2.11-25.98 2.64-25.98l1.22-.72zm49.9-4.48h1.11c1.54 0 3.48 6.23 5.82 18.687 1.85 5.88 2.78 9.88 2.78 11.99-.384 1.11-1.123 1.67-2.213 1.67-1.41 0-2.43-2.97-3.05-8.915l-.26-.28h-.28c-2.41.024-7.49 1.325-15.24 3.903-.73 3.715-1.93 5.572-3.6 5.572-1.11-.39-1.67-1.13-1.67-2.234 0-2.144 5.08-11.993 15.24-29.55l1.39-.842zm-.44 7.806c-2.225 3.54-4.26 7.26-6.1 11.16h1.936c1.885 0 4.288-.37 7.206-1.12l-2.497-10.04h-.55zm24.804-3.32h2.426c3.716 0 5.573 1.3 5.573 3.89v.25c0 4.54-3.88 8.66-11.637 12.38v.23c3.87 3.56 7.11 6.24 9.7 8.02v.72c0 1.26-.41 2.07-1.22 2.43h-.967l-13.325-9.46-.245 4.85v3.64c-.41.81-1.057 1.21-1.936 1.21-.646 0-1.13-.32-1.46-.96v-1.46l2.18-18.93c-.646 0-.968-.48-.968-1.44 0-2.92 2.42-4.62 7.26-5.1l4.6-.24zm-8.472 13.1h.246c8.39-2.15 12.587-4.5 12.587-7.03v-.24c0-.44-.81-.76-2.43-.96-2.68 0-5.91.57-9.68 1.71l-.72 6.54zm27.316-13.04h.845c1.16 0 2.63 5.36 4.41 16.09 1.407 5.06 2.11 8.5 2.11 10.32-.293.96-.855 1.45-1.687 1.45-1.08 0-1.86-2.56-2.32-7.68l-.22-.23h-.21c-1.83.02-5.685 1.14-11.568 3.36-.563 3.2-1.477 4.8-2.743 4.8-.85-.33-1.27-.97-1.27-1.92 0-1.85 3.86-10.34 11.58-25.45l1.05-.72zm-.42 6.72c-1.688 3.05-3.235 6.26-4.64 9.62h1.475c1.43 0 3.257-.32 5.484-.96l-1.9-8.65h-.42zm20.407-6.71c4.74 0 7.12 1.62 7.12 4.85v.72c0 2.27-1.08 4.45-3.22 6.54v.25c3.53 1.07 5.29 2.84 5.29 5.33v.97c0 4.05-3.98 7.04-11.95 8.95l-3.92.49h-2.29c-1.23 0-1.85-.64-1.85-1.93v-.24l1.84-19.86c-.78 0-1.16-.16-1.16-.47v-1.46c0-2.74 3.37-4.11 10.12-4.11zm-6.68 10.9h.24c7.19 0 10.79-1.62 10.79-4.85-1.19-.79-3.18-1.19-5.98-1.19h-2.76c-1.22 0-1.83.57-1.83 1.69l-.48 4.36zm-.46 4.61l-.45 7.73 2.3.5.23-.25h1.14c6.45-.84 9.67-2.37 9.67-4.59-2.12-2.26-5.42-3.39-9.9-3.39h-.91l-.23-.25-.23.25h-1.62zm23.19-15.63h1.65c.55 0 .83.32.83.97-1.29 10.53-1.94 17.83-1.94 21.9v2.68c-.37 1.78-1.28 2.67-2.74 2.67h-.55l-1.11-.96c.73-11.04 1.65-19.8 2.76-26.28l1.09-.96zm14.98.13h.84c1.16 0 2.63 5.36 4.41 16.09 1.4 5.07 2.11 8.5 2.11 10.32-.3.96-.86 1.45-1.69 1.45-1.08 0-1.85-2.56-2.32-7.68l-.21-.23h-.21c-1.83.02-5.69 1.14-11.57 3.36-.56 3.2-1.48 4.8-2.74 4.8-.85-.33-1.27-.97-1.27-1.92 0-1.85 3.86-10.33 11.58-25.45l1.05-.72zm-.42 6.72c-1.69 3.05-3.24 6.25-4.64 9.61h1.47c1.43 0 3.26-.32 5.48-.96l-1.9-8.65h-.42zm18.02 14.34c.75.23 1.29.63 1.63 1.22v.47c0 2.79-2.09 6.25-6.28 10.38l-1.09.25h-.28c-.98 0-1.71-.4-2.18-1.21v-.25c3.28-3.63 4.92-6.84 4.92-9.63 1.01-.81 2.1-1.21 3.27-1.21zm33.73-21.06h.37c1.61.2 2.42.99 2.42 2.36v.48c0 2.37-.81 4.57-2.43 6.61H527c-.257-.07-.51-.46-.755-1.18l.95-3.53-.74-.48c-1.722.15-4.886 2.04-9.49 5.66v.23l12.268 2.37c1.243.99 1.864 2.64 1.864 4.96v1.41c0 3.18-2.045 5.93-6.135 8.26-1.606.64-3.158.95-4.658.95h-.387c-4.266 0-6.867-1.88-7.805-5.66v-1.42c0-1.73.434-2.6 1.3-2.6.857 3 2.41 4.5 4.66 4.5 0 .3.93.46 2.794.46 2.754 0 5.42-1.41 7.998-4.23 0-1.87-3.966-3.05-11.9-3.55-2.86-.79-4.29-1.97-4.29-3.53 0-3.83 3.845-7.68 11.532-11.56l2.795-.47zm17.1 0h.84c1.16 0 2.63 5.37 4.41 16.09 1.4 5.06 2.11 8.5 2.11 10.32-.3.96-.86 1.45-1.69 1.45-1.08 0-1.85-2.56-2.32-7.69l-.21-.22h-.21c-1.83.02-5.69 1.14-11.57 3.36-.56 3.2-1.48 4.8-2.74 4.8-.85-.33-1.27-.97-1.27-1.91 0-1.85 3.86-10.34 11.58-25.45l1.05-.72zm-.42 6.72c-1.69 3.05-3.24 6.25-4.64 9.62h1.48c1.43 0 3.25-.32 5.48-.96l-1.9-8.65h-.42zm11.37-6.71c.78 0 1.17 2.72 1.17 8.16l1.58 10.34h.39c0-.59 1.58-3.8 4.73-9.61.49-3.83 1.41-5.75 2.76-5.75h.39c.79 0 1.45 2.96 1.97 8.88.87 4.04 1.53 6.45 1.96 7.21.42-2.04 2.52-8.05 6.31-18.02.55-.63 1.08-.95 1.58-.95.7 0 1.16.32 1.37.95 0 .82-1.97 6.18-5.91 16.08-.66 2.35-1.25 5.55-1.78 9.62-.43.8-.95 1.19-1.59 1.19-1.2 0-2.11-2.72-2.75-8.15-1.29-5.31-2.08-8.19-2.37-8.65l-3.94 7.68c-.66 1.5-1.25 4.06-1.78 7.69-.36.59-.88.99-1.57 1.2-1.1 0-2.02-4.16-2.76-12.48-1.05-5.88-1.58-10.6-1.58-14.17 0-.48.59-.88 1.78-1.19zm54.05 0h.37c1.62.2 2.42.99 2.42 2.36v.48c0 2.37-.81 4.57-2.43 6.61h-.37c-.26-.07-.51-.46-.76-1.18l.95-3.53-.74-.47c-1.73.15-4.89 2.04-9.5 5.66v.23l12.27 2.37c1.24.99 1.86 2.64 1.86 4.96v1.41c0 3.18-2.05 5.93-6.14 8.26-1.6.64-3.16.95-4.66.95h-.38c-4.27 0-6.87-1.88-7.8-5.66v-1.43c0-1.73.43-2.6 1.3-2.6.85 3 2.41 4.5 4.66 4.5 0 .31.93.46 2.79.46 2.75 0 5.42-1.41 8-4.23 0-1.87-3.97-3.06-11.9-3.55-2.86-.8-4.29-1.97-4.29-3.53 0-3.83 3.84-7.69 11.53-11.56l2.8-.47zm21.62-.05c5 .69 7.51 3.69 7.51 8.98 0 6.94-2.74 12.68-8.23 17.23-2.26 1.29-4.28 1.94-6.07 1.94-4.35 0-7.15-2.34-8.4-7.03l-.18-2.18v-.74c0-7.57 3.45-13.31 10.37-17.22 1.73-.64 3.4-.97 4.99-.97zm-13.04 18.93c1.8 2.74 4.19 4.11 7.15 4.11 4.77 0 8.1-2.83 10-8.49l.35-2.67c0-3.98-1.96-6.33-5.89-7.03h-.55c-3.25 0-6.64 3.23-10.18 9.7-.6 1.95-.9 3.4-.9 4.38zm32.59-18.93h.45c.75.41 1.12 1.05 1.12 1.92v.5c0 5.2.46 11.3 1.37 18.28h.23c5.02-13.15 7.97-19.72 8.86-19.72h.68c.66 0 1.72 4.57 3.18 13.71 1.36 4.69 2.04 8.62 2.04 11.78-.45 1.13-1.13 1.69-2.04 1.69-.61 0-1.44-3.93-2.5-11.79l-1.83-7.68c-1.3 2.09-3.65 7.54-7.05 16.35-.97 1-1.81 1.56-2.5 1.69-1.97 0-2.96-2.65-2.96-7.94l-1.13-10.09H648l-6.82 15.38c-.41 2.56-.79 3.85-1.14 3.85h-.9l-.912-.95v-1.22c0-2.15 1.896-6.8 5.68-13.94 2.697-7.5 4.438-11.35 5.22-11.54l1.145-.25zm38.53.05c.81.18 1.21.79 1.21 1.85-.26 2-1.06 2.99-2.41 2.99-8.84 0-13.26 1.23-13.26 3.69l-.25 2.08v1.14c5.76-1.38 9.7-2.07 11.81-2.07h.47c.81.35 1.21 1.12 1.21 2.3 0 1.69-1.12 2.53-3.37 2.53-7.4.96-11.09 2.12-11.09 3.46l-.23 2.3v.92c0 1.39.88 2.15 2.63 2.31 2.76-.31 6.22-1 10.37-2.08h.72c.64.25.96.79.96 1.62v.69c0 1.89-4.02 3.35-12.06 4.38h-.72c-2.9 0-4.5-1.84-4.82-5.52 0-2.7.56-7.85 1.68-15.43l-.48-1.39c0-3.11 4.82-4.95 14.45-5.52l3.13-.23zm20.74-.07c1.52 0 2.29.63 2.29 1.9v.47c0 1.75-1.36 2.62-4.08 2.62l-5.08.25c-1.53 8.12-2.29 15.11-2.29 20.96-.41 1.27-.83 1.9-1.27 1.9h-.78c-.88 0-1.39-.24-1.53-.72.86-8.99 1.79-16.29 2.79-21.9l-7.63 1.19c-.72 0-1.14-.71-1.27-2.14 0-2.37 2.12-3.56 6.36-3.56 2.54-.63 6.69-.95 12.46-.95zm20.34.02c.83.22 1.25.79 1.25 1.71v.23c-1.17 17.31-2.01 25.97-2.5 25.97l-.26.25h-.74c-.87 0-1.46-.41-1.76-1.22.32-2.31.49-5.54.49-9.7h-.25l-10.52 2.42-.74.97v4.6c0 1.37-.51 2.35-1.51 2.92h-.49c-.94 0-1.52-.4-1.76-1.21 1.16-17.47 2.83-26.21 5.01-26.21h.49l.75.99c-1.17 5.8-1.76 10.08-1.76 12.85 7.67-1.01 11.51-2.22 11.51-3.64l1-10.19 1.76-.72zm8.47-.07h1.65c.55 0 .82.32.82.97-1.29 10.53-1.94 17.83-1.94 21.9V132c-.37 1.78-1.28 2.67-2.74 2.67h-.55l-1.1-.97c.74-11.04 1.66-19.8 2.76-26.28l1.09-.968zm7.98.07c1.07 0 2.34 2 3.83 6.01 2.88 5.91 6.09 10.96 9.61 15.15 1.19-11.56 2.06-18.38 2.64-20.44l.97-.72h.72c.48 0 .72.32.72.97-1.44 16.53-2.32 25.34-2.64 26.46l-1.44.47c-2.57 0-6.9-5.45-12.98-16.35l-.97-.97-.24.72-.72 11.08v1.44l.24 1.44c-.21 1.92-.85 2.88-1.92 2.88-.99-.35-1.55-.83-1.69-1.44 1.23-17.32 2.11-25.98 2.64-25.98l1.21-.72zm35.35 0h.18c1.56 0 2.6 1.52 3.13 4.57l-.37.48h-.18l-1.48-.48c-4.04.6-8.26 3.41-12.68 8.42-1.23 2.18-1.85 3.71-1.85 4.57v.97c0 2.57 2.63 4.17 7.91 4.8 3.3 0 5.81-1.77 7.52-5.29l-2.2-.95c-.82 0-3.09.96-6.8 2.88-.36-.82-.54-1.62-.54-2.41v-.24c0-2.55 2.45-4.31 7.35-5.29h.37c2.81 0 4.22 1.85 4.22 5.54 0 3.81-3.13 7.18-9.37 10.11l-2.2.48c-3.97 0-6.67-1.68-8.09-5.04l-.37-3.13c0-7.26 3.73-13.44 11.19-18.53 1.88-.96 3.3-1.44 4.23-1.44zm31.5.05h.84c1.16 0 2.63 5.36 4.41 16.09 1.4 5.07 2.11 8.5 2.11 10.32-.3.96-.86 1.44-1.69 1.44-1.08 0-1.85-2.56-2.32-7.68l-.21-.23h-.21c-1.83.02-5.69 1.14-11.57 3.36-.56 3.2-1.48 4.8-2.74 4.8-.85-.33-1.27-.97-1.27-1.91 0-1.85 3.86-10.34 11.58-25.45l1.05-.72zm-.42 6.72c-1.69 3.05-3.24 6.25-4.64 9.62h1.48c1.43 0 3.25-.32 5.48-.96l-1.9-8.65h-.42zm20.51-6.77h.45c.75.41 1.12 1.05 1.12 1.92v.5c0 5.2.45 11.29 1.37 18.28h.23c5.01-13.15 7.97-19.72 8.86-19.72h.68c.67 0 1.73 4.57 3.18 13.71 1.36 4.68 2.04 8.61 2.04 11.77-.45 1.13-1.13 1.69-2.04 1.69-.61 0-1.44-3.93-2.5-11.79l-1.83-7.68c-1.3 2.09-3.65 7.54-7.05 16.35-.97 1-1.81 1.56-2.5 1.69-1.97 0-2.95-2.65-2.95-7.94l-1.13-10.09H831l-6.82 15.38c-.41 2.57-.79 3.85-1.14 3.85h-.9l-.916-.94v-1.21c0-2.16 1.9-6.81 5.68-13.94 2.7-7.5 4.44-11.35 5.22-11.55l1.15-.25zm30.58.06h.84c1.16 0 2.63 5.36 4.41 16.09 1.4 5.07 2.11 8.5 2.11 10.32-.3.96-.86 1.44-1.69 1.44-1.08 0-1.86-2.56-2.32-7.68l-.21-.22h-.22c-1.83.02-5.69 1.14-11.57 3.36-.56 3.2-1.48 4.8-2.74 4.8-.85-.33-1.27-.97-1.27-1.91 0-1.85 3.86-10.34 11.59-25.45l1.05-.72zm-.42 6.72c-1.69 3.05-3.24 6.25-4.64 9.62h1.47c1.43 0 3.25-.32 5.48-.97l-1.9-8.64h-.42zm22.36-6.77h1.6c2.42 0 3.64 1.15 3.64 3.43V112c-5.45 5.86-9.71 11.43-12.77 16.715h.23l8.2-.91c1.82 0 2.73 1.14 2.73 3.43 0 .78-.23 1.24-.69 1.37h-1.13c-2.29 0-6.54.683-12.76 2.06-1.22-.56-1.83-1.55-1.83-2.97 1.34-2.87 5.75-9.59 13.22-20.15v-.23h-.92c-1.68 0-4.86.61-9.56 1.83h-.23l-.69-.687v-.23c0-2.94 1.44-4.62 4.32-5.03 2.31-.46 4.51-.684 6.61-.684zm10.88-.07h1.65c.55 0 .82.33.82.97-1.29 10.52-1.94 17.82-1.94 21.9V132c-.36 1.78-1.28 2.676-2.74 2.676h-.55l-1.11-.97c.74-11.04 1.66-19.8 2.76-26.28l1.09-.97zm7.98.07c1.06 0 2.34 2.01 3.83 6.02 2.88 5.91 6.08 10.96 9.61 15.15 1.18-11.57 2.06-18.38 2.63-20.44l.97-.72h.72c.48 0 .72.33.72.97-1.44 16.52-2.32 25.34-2.64 26.46l-1.44.48c-2.57 0-6.89-5.45-12.98-16.35l-.97-.96-.25.72-.72 11.08v1.44l.24 1.44c-.21 1.92-.85 2.89-1.92 2.89-.99-.35-1.55-.83-1.69-1.44 1.23-17.32 2.11-25.98 2.64-25.98l1.21-.72zm35.35 0h.17c1.56 0 2.6 1.53 3.13 4.57l-.37.48h-.18l-1.48-.47c-4.03.6-8.26 3.4-12.68 8.42-1.23 2.18-1.85 3.7-1.85 4.57v.96c0 2.57 2.64 4.17 7.91 4.8 3.31 0 5.81-1.77 7.52-5.29l-2.2-.95c-.82 0-3.09.96-6.81 2.88-.37-.82-.55-1.62-.55-2.41v-.24c0-2.55 2.45-4.32 7.35-5.29h.37c2.81 0 4.21 1.85 4.21 5.54 0 3.81-3.12 7.17-9.37 10.1l-2.19.48c-3.97 0-6.66-1.68-8.08-5.05l-.37-3.13c0-7.26 3.73-13.44 11.2-18.53 1.88-.96 3.3-1.44 4.23-1.44zm26.29-.07h1.65c.55 0 .82.33.82.97-1.29 10.52-1.94 17.82-1.94 21.9V132c-.36 1.78-1.28 2.676-2.74 2.676h-.55l-1.11-.97c.73-11.04 1.65-19.8 2.76-26.28l1.09-.97zm7.98.07c1.07 0 2.34 2.01 3.83 6.02 2.88 5.91 6.09 10.96 9.61 15.15 1.18-11.57 2.06-18.38 2.64-20.44l.97-.72h.72c.48 0 .72.33.72.97-1.44 16.52-2.32 25.34-2.64 26.46l-1.44.48c-2.57 0-6.89-5.45-12.98-16.35l-.97-.96-.25.72-.72 11.08v1.44l.24 1.44c-.21 1.92-.85 2.89-1.92 2.89-.99-.35-1.55-.83-1.69-1.44 1.23-17.32 2.11-25.98 2.64-25.98l1.21-.72zm54.37-.01c1.52 0 2.28.63 2.28 1.9v.48c0 1.75-1.36 2.62-4.08 2.62l-5.08.25c-1.52 8.12-2.29 15.11-2.29 20.95-.41 1.27-.83 1.9-1.27 1.9h-.77c-.88 0-1.39-.24-1.53-.72.85-8.99 1.78-16.29 2.79-21.9l-7.63 1.2c-.72 0-1.14-.71-1.27-2.14 0-2.38 2.12-3.57 6.37-3.57 2.54-.63 6.69-.95 12.46-.95zm20.34.02c.83.23 1.25.79 1.25 1.71v.23c-1.18 17.31-2.01 25.96-2.5 25.96l-.27.25h-.74c-.87 0-1.46-.41-1.76-1.22.33-2.31.49-5.54.49-9.7h-.25l-10.51 2.42-.74.97v4.6c0 1.37-.5 2.35-1.51 2.92h-.49c-.94 0-1.53-.4-1.76-1.21 1.16-17.47 2.83-26.21 5.01-26.21h.49l.76.99c-1.17 5.8-1.76 10.09-1.76 12.85 7.67-1.01 11.51-2.22 11.51-3.64l1.01-10.19 1.76-.72zm21.62.06c.81.17 1.21.79 1.21 1.84-.26 1.99-1.06 2.99-2.41 2.99-8.84 0-13.25 1.23-13.25 3.69l-.25 2.08v1.14c5.76-1.38 9.7-2.07 11.81-2.07h.47c.8.35 1.21 1.12 1.21 2.31 0 1.69-1.12 2.53-3.37 2.53-7.4.96-11.1 2.12-11.1 3.46l-.23 2.3v.92c0 1.38.88 2.15 2.64 2.3 2.77-.3 6.22-.99 10.37-2.07h.72c.64.25.97.79.97 1.62v.69c0 1.89-4.02 3.35-12.06 4.38h-.72c-2.9 0-4.5-1.84-4.82-5.52 0-2.7.56-7.85 1.69-15.43l-.48-1.39c0-3.11 4.82-4.95 14.45-5.52l3.13-.23zm20.02-.05c1.06 0 2.34 2.01 3.83 6.01 2.88 5.91 6.08 10.96 9.61 15.15 1.18-11.56 2.06-18.38 2.64-20.44l.96-.72h.72c.48 0 .72.32.72.96-1.44 16.52-2.32 25.34-2.64 26.45l-1.45.48c-2.57 0-6.89-5.45-12.97-16.35l-.97-.96-.25.72-.72 11.08v1.44l.24 1.44c-.21 1.92-.85 2.88-1.91 2.88-.99-.35-1.55-.83-1.69-1.44 1.23-17.32 2.11-25.98 2.63-25.98l1.21-.72zm25.55-.07h1.65c.55 0 .82.32.82.97-1.29 10.52-1.94 17.82-1.94 21.9V132c-.36 1.78-1.28 2.68-2.74 2.68h-.55l-1.11-.97c.74-11.04 1.66-19.8 2.76-26.28l1.09-.97zm19.56.07h.18c1.56 0 2.6 1.53 3.13 4.57l-.37.48h-.17l-1.48-.47c-4.03.6-8.26 3.4-12.68 8.42-1.23 2.18-1.85 3.7-1.85 4.57v.96c0 2.56 2.64 4.16 7.91 4.8 3.3 0 5.81-1.77 7.52-5.3l-2.2-.95c-.82 0-3.09.96-6.8 2.89-.37-.82-.55-1.63-.55-2.41v-.25c0-2.55 2.44-4.32 7.34-5.29h.37c2.81 0 4.21 1.85 4.21 5.54 0 3.81-3.13 7.17-9.37 10.1l-2.2.48c-3.97 0-6.67-1.68-8.09-5.04l-.37-3.13c0-7.27 3.73-13.44 11.19-18.53 1.89-.96 3.3-1.44 4.24-1.44zm24.49 0c.83.22 1.24.79 1.24 1.71v.23c-1.17 17.31-2.01 25.96-2.5 25.96l-.27.25h-.74c-.87 0-1.45-.4-1.76-1.21.33-2.31.49-5.54.49-9.7h-.25l-10.5 2.42-.74.96v4.6c0 1.37-.51 2.35-1.51 2.92h-.5c-.94 0-1.52-.4-1.76-1.21 1.16-17.47 2.83-26.21 5.01-26.21h.49l.76.99c-1.17 5.8-1.76 10.09-1.76 12.85 7.68-1.01 11.52-2.22 11.52-3.64l1-10.19 1.76-.72zm22.34-.02c1.52 0 2.28.63 2.28 1.9v.47c0 1.75-1.36 2.62-4.08 2.62l-5.08.25c-1.53 8.12-2.29 15.1-2.29 20.95-.41 1.26-.84 1.9-1.27 1.9h-.77c-.88 0-1.39-.25-1.53-.73.86-8.99 1.79-16.29 2.8-21.9l-7.63 1.2c-.72 0-1.14-.71-1.27-2.14 0-2.38 2.12-3.57 6.36-3.57 2.54-.63 6.7-.95 12.46-.95zm31.39.07h.37c1.62.2 2.42.99 2.42 2.36v.48c0 2.36-.81 4.57-2.43 6.61h-.37c-.26-.07-.51-.47-.76-1.18l.95-3.53-.74-.47c-1.72.15-4.89 2.04-9.49 5.66v.23l12.27 2.37c1.24.99 1.86 2.64 1.86 4.96v1.4c0 3.18-2.04 5.93-6.13 8.26-1.61.64-3.16.95-4.66.95h-.39c-4.27 0-6.87-1.88-7.81-5.66v-1.43c0-1.73.43-2.6 1.3-2.6.86 3 2.41 4.5 4.66 4.5 0 .3.93.46 2.79.46 2.76 0 5.42-1.42 8-4.24 0-1.88-3.96-3.06-11.9-3.55-2.86-.8-4.29-1.98-4.29-3.54 0-3.83 3.85-7.69 11.53-11.57l2.8-.47zm11.46.11l.7.97-.7 9.14 14.34-7.94c.62.77.93 1.73.93 2.88-1.62 2.27-5.77 5.16-12.47 8.67v.25c3.09 4.02 6.62 7.38 10.58 10.09v.49c0 2.24-.79 3.36-2.36 3.36L1224.7 125c-.47 6.41-.94 9.62-1.41 9.62l-1.18.247c-.78-.26-1.18-.74-1.18-1.44l.93-11.302-.23-2.886c.54 0 1.01-3.53 1.4-10.6.643-1.27 1.43-1.91 2.354-1.91zm17.42-.1l5.38 8.15 2.35 1.94c2.98-5.3 5.05-8.5 6.23-9.61h1.07l.86.97c-.11.85-3.48 6.85-10.09 18-1.66 3.13-2.88 5.93-3.65 8.4l-.64.25c-1.01-.47-1.51-1.19-1.51-2.16.06-1.25 1.77-5.17 5.15-11.76-4.86-5.23-7.3-9.47-7.3-12.73.9-.96 1.62-1.44 2.14-1.44zm25.63-4.47c.7.33 1.05.72 1.05 1.18-3.34 10.76-5.01 17.57-5.01 20.44-.95 1.1-1.74 1.65-2.39 1.65-1.05-.37-1.58-.84-1.58-1.4 1.66-14.58 3.87-21.87 6.61-21.87h1.32zm-6.24 26.39c1.66.31 2.49 1.18 2.49 2.6v.23c-.67 2.22-2.27 3.34-4.8 3.34-1.26 0-2.01-.87-2.27-2.61 0-2 1.52-3.19 4.57-3.57z" fill="#000"/><path d="M874.03 343.273c3.814 0 5.72 1.25 5.72 3.75v.563c0 1.75-.86 3.434-2.578 5.05v.188c2.82.828 4.23 2.203 4.23 4.125v.75c0 3.13-3.19 5.44-9.574 6.92l-3.13.37h-1.84c-.983 0-1.475-.5-1.475-1.5v-.19l1.476-15.35c-.62 0-.93-.13-.93-.38v-1.13c0-2.13 2.7-3.19 8.09-3.19zm-5.33 8.426h.187c5.765 0 8.648-1.25 8.648-3.74-.953-.63-2.547-.94-4.78-.94h-2.216c-.99 0-1.48.44-1.48 1.31l-.37 3.36zm-.376 3.56l-.363 5.99 1.84.37.19-.19h.92c5.16-.66 7.74-1.84 7.74-3.55-1.69-1.75-4.32-2.63-7.91-2.63H870l-.187-.19-.187.18h-1.29zm26.38-8.99c.538.12.808.53.808 1.23-.172 1.33-.707 1.99-1.606 1.99-5.89 0-8.836.82-8.836 2.46l-.164 1.38v.76c3.844-.92 6.47-1.38 7.875-1.38h.32c.54.23.81.74.81 1.53 0 1.12-.75 1.68-2.25 1.68-4.93.64-7.39 1.41-7.39 2.31l-.15 1.53v.61c0 .92.59 1.43 1.76 1.53 1.85-.21 4.15-.67 6.92-1.39h.49c.43.16.65.52.65 1.07v.45c0 1.26-2.68 2.23-8.04 2.92h-.48c-1.93 0-3-1.23-3.21-3.68 0-1.81.38-5.24 1.13-10.29l-.31-.93c0-2.08 3.21-3.3 9.64-3.68l2.09-.15zm13.827-.05c1.02 0 1.53.42 1.53 1.26v.31c0 1.16-.9 1.74-2.72 1.74l-3.38.16c-1.01 5.41-1.52 10.07-1.52 13.96-.27.84-.55 1.26-.84 1.26h-.51c-.59 0-.92-.16-1.02-.48.57-6 1.19-10.86 1.86-14.61l-5.08.8c-.47 0-.76-.48-.84-1.43 0-1.59 1.42-2.38 4.25-2.38 1.69-.42 4.46-.63 8.31-.63zm13.56.01c.56.15.84.53.84 1.14v.15c-.78 11.54-1.33 17.31-1.66 17.31l-.17.16h-.49c-.57 0-.97-.27-1.17-.81.22-1.54.33-3.7.33-6.47h-.16l-7.01 1.61-.49.64v3.07c0 .91-.33 1.56-1.01 1.94h-.32c-.62 0-1.01-.27-1.17-.81.78-11.65 1.89-17.47 3.34-17.47h.33l.51.65c-.78 3.86-1.17 6.72-1.17 8.56 5.12-.67 7.68-1.48 7.68-2.43l.67-6.8 1.17-.48zm4.29 0h.17c.51 0 .94.26 1.28.78-.74 5.4-1.27 10.24-1.59 14.51l9.14-1.89.32.47v.95c0 1.43-3.31 2.75-9.93 3.93-1.18-.21-1.77-.58-1.77-1.11.88-11.57 1.52-17.35 1.92-17.35l.48-.32zm22.23.03c.54.12.81.53.81 1.23-.17 1.33-.7 1.99-1.6 1.99-5.89 0-8.83.82-8.83 2.46l-.16 1.38v.76c3.85-.92 6.47-1.38 7.88-1.38h.32c.54.23.81.74.81 1.53 0 1.12-.75 1.68-2.25 1.68-4.93.64-7.39 1.41-7.39 2.31l-.15 1.53v.61c0 .92.59 1.43 1.76 1.53 1.85-.21 4.15-.67 6.92-1.39h.48c.43.16.64.52.64 1.07v.46c0 1.26-2.68 2.23-8.04 2.92h-.48c-1.93 0-3-1.23-3.21-3.68 0-1.81.38-5.24 1.13-10.29l-.31-.93c0-2.08 3.22-3.3 9.64-3.68l2.09-.15zm13.34-.04c.56.15.83.53.83 1.13v.15c-.78 11.54-1.33 17.31-1.66 17.31l-.17.16h-.49c-.58 0-.97-.27-1.17-.81.22-1.54.33-3.7.33-6.47h-.16l-7.01 1.61-.49.64v3.07c0 .91-.34 1.56-1.01 1.94h-.33c-.62 0-1.01-.27-1.17-.81.78-11.65 1.89-17.47 3.34-17.47h.33l.51.65c-.78 3.87-1.17 6.72-1.17 8.57 5.12-.67 7.68-1.48 7.68-2.43l.67-6.8 1.17-.49zm14.42.03c.54.12.81.53.81 1.23-.17 1.33-.71 1.99-1.6 1.99-5.89 0-8.83.82-8.83 2.46l-.16 1.38v.76c3.85-.92 6.47-1.39 7.88-1.39h.32c.54.23.81.74.81 1.53 0 1.12-.75 1.69-2.25 1.69-4.93.64-7.39 1.41-7.39 2.31l-.15 1.53v.61c0 .92.59 1.43 1.76 1.53 1.85-.21 4.15-.67 6.92-1.39h.48c.43.16.65.52.65 1.08v.45c0 1.26-2.68 2.23-8.04 2.92h-.48c-1.93 0-3-1.23-3.21-3.68 0-1.81.38-5.24 1.13-10.29l-.31-.93c0-2.08 3.22-3.3 9.64-3.68l2.09-.15zm8.1-.04h.31c.5.27.75.7.75 1.27v.33c0 3.47.31 7.53.92 12.19h.15c3.35-8.77 5.32-13.15 5.91-13.15h.46c.45 0 1.16 3.04 2.13 9.14.91 3.12 1.36 5.74 1.36 7.85-.29.75-.75 1.12-1.36 1.12-.4 0-.96-2.62-1.66-7.87L992.2 352c-.868 1.39-2.434 5.023-4.7 10.9-.648.663-1.2 1.04-1.664 1.124-1.31 0-1.966-1.767-1.966-5.3l-.75-6.724h-.153l-4.547 10.26c-.275 1.71-.53 2.566-.76 2.566h-.6l-.61-.632v-.804c0-1.438 1.26-4.536 3.785-9.293 1.797-5 2.957-7.56 3.48-7.7l.76-.16z" fill="#FFF"/><use fill="#000" filter="url(#g)" xlink:href="#h"/><use fill="#F6A623" xlink:href="#h"/><circle fill-opacity=".4" fill="#D0011B" cx="1232" cy="558" r="250"/></g></svg>