<svg width="1540" height="820" viewBox="0 0 1540 820" xmlns="http://www.w3.org/2000/svg" xmlns:xlink="http://www.w3.org/1999/xlink"><title>story32</title><defs><path id="a" d="M0 0h1540v820H0z"/><mask id="b" x="0" y="0" width="1540" height="820" fill="#fff"><use xlink:href="#a"/></mask></defs><g fill="none" fill-rule="evenodd"><use stroke="#000" mask="url(#b)" stroke-width="8" fill="#402412" xlink:href="#a"/><path stroke="#000" stroke-width="4" fill="#371F0F" d="M235 132h1066v556H235z"/><path d="M4 2l229.457 129.306c0 .384.523.694 1.174.694h1065.19c.65 0 1.18-.31 1.18-.694L1538 2H4z" stroke="#000" stroke-width="4" stroke-linejoin="bevel" fill="#28170B"/><path d="M4 818l229.457-129.306c0-.384.523-.694 1.174-.694h1065.19c.65 0 1.18.31 1.18.694L1538 818H4z" stroke="#000" stroke-width="4" stroke-linejoin="bevel" fill="#2B2200"/><path stroke="#000" stroke-width="4.479" fill="#00002B" d="M350 688V213h265v475z"/><path fill="#FFE680" d="M412 485.28l-11.016 11.548 8.374 13.587-14.387-6.908-10.33 12.163 2.13-15.82-14.76-6.068 15.7-2.868 1.2-15.914 7.58 14.046L412 485.28M505.918 424l-1.846 15.918L519 445.743l-15.71 3.163-.926 15.998-7.863-13.963-15.5 4.07 10.85-11.79-8.65-13.48 14.57 6.68 10.15-12.4m71.16-160.14l-6.94 14.1 11.87 10.29-15.55-2.25-6.12 14.48-2.66-15.49-15.67-1.36 13.91-7.32-3.57-15.33 11.26 10.97 13.47-8.11M602 503.15l-14.04 7.122 3.324 15.39-11.113-11.154-13.6 7.918 7.18-14.016-11.74-10.5 15.55 2.49 6.36-14.4 2.44 15.55 15.66 1.59"/><path fill="#FC0" d="M427.18 318.163L382 300.343l45.18-17.82 17.82-45.18 17.82 45.18 45.18 17.82-45.18 17.82-17.82 76.74"/><path d="M1238.707 555.154c-8.256-2.02-17.256 4.88-24.374 19.448-6.738 13.793-16.712 24.218-4.024 32.045 7.07 4.362 23.58-.75 21.85-11.16 1.27 5.708 1.04 16.97 4.83 16.917 5.54-.078 11.69-5.59 8.54-16.646-.77-2.702-.52-5.356-1.29-7.508.24-.664.49-1.333.66-2.032 3.89-15.725 2.05-29.044-6.21-31.064z" stroke="#050202" stroke-width="4" fill="#DEAA87"/><path d="M1266.376 447.677l6.42 25.512-32.094 109.7-35.943-17.86c14.29-53.08 33.65-94.85 61.61-117.36z" stroke="#050202" stroke-width="4" fill="#D45500"/><path d="M1418.744 555.154c8.257-2.02 17.256 4.88 24.374 19.448 6.738 13.793 16.712 24.218 4.025 32.045-7.072 4.362-23.59-.75-21.853-11.16-1.27 5.708-1.045 16.97-4.835 16.917-5.542-.078-11.69-5.59-8.542-16.646.77-2.702.52-5.356 1.29-7.508-.243-.664-.495-1.333-.668-2.032-3.896-15.725-2.048-29.044 6.21-31.064z" stroke="#050202" stroke-width="4" fill="#DEAA87"/><path d="M1263.222 409.95c0 18.873 6.68 36.972 18.572 50.316 11.89 13.345 28.02 20.842 44.836 20.842 35.02 0 63.408-31.858 63.408-71.157 0-39.29-28.39-71.15-63.408-71.15-16.817 0-32.945 7.5-44.836 20.84-11.89 13.35-18.572 31.45-18.572 50.32z" stroke="#000" stroke-width="4" fill="#502D16"/><path d="M1391.075 447.677l-6.418 25.512 32.092 109.7 35.94-17.86c-14.3-53.08-33.65-94.85-61.62-117.36z" stroke="#050202" stroke-width="4" fill="#D45500"/><path d="M1328.174 771.678c0 4.737 3.45 9.28 9.588 12.628 6.138 3.35 14.464 5.23 23.146 5.23s17.008-1.88 23.147-5.23c6.138-3.35 9.587-7.89 9.587-12.628 0-9.863-14.655-17.858-32.734-17.858-18.08 0-32.734 7.995-32.734 17.858zm-77.664 2.552c0 4.736 3.45 9.278 9.59 12.627 6.137 3.35 14.463 5.23 23.145 5.23s17.008-1.88 23.147-5.23c6.138-3.35 9.587-7.89 9.587-12.627 0-9.863-14.66-17.86-32.74-17.86-18.08 0-32.74 7.997-32.74 17.86z" stroke="#050202" stroke-width="4" fill="#2B1100"/><path d="M1242.965 587.816c-5.312 57.704-13.83 155.543-1.1 167.46 40.528 17.86 135.08 24.402 166.502-10.627 15.363-30.41 2.52-103.85 6.155-154.13 7.352-101.74-2.75-180.56-91.68-181.75-75.67-1.01-84.808 77.64-79.877 179.04z" stroke="#050202" stroke-width="4" fill="#D45500"/><path d="M1280.024 391.775c0 15.19 4.973 29.76 13.824 40.5 8.852 10.74 20.858 16.776 33.376 16.776 12.52 0 24.524-6.03 33.376-16.77 8.852-10.74 13.825-25.31 13.825-40.5 0-15.19-4.973-29.76-13.825-40.5-8.852-10.74-20.857-16.77-33.376-16.77-12.518 0-24.524 6.04-33.376 16.78-8.85 10.74-13.824 25.31-13.824 40.5z" stroke="#050202" stroke-width="3.9" fill="#DEAA87"/><path d="M1337.315 379.582c0 2.366 1.93 4.284 4.312 4.284 2.38 0 4.31-1.918 4.31-4.284 0-1.136-.453-2.226-1.26-3.03-.81-.803-1.907-1.254-3.05-1.254-1.144 0-2.24.45-3.05 1.254-.808.804-1.262 1.894-1.262 3.03zm-28.692.49c0 2.367 1.93 4.285 4.312 4.285 2.38 0 4.312-1.918 4.312-4.284 0-1.137-.455-2.226-1.263-3.03-.81-.803-1.906-1.255-3.05-1.255-1.143 0-2.24.452-3.048 1.255-.808.804-1.263 1.893-1.263 3.03z" fill="#000"/><path d="M1343.696 426.39h-32.977l-6.93 341.755c12.94 1.288 32.29 2.33 42.21.46l-2.31-342.215z" stroke="#000" stroke-width="4" fill="#2CA02C"/><path d="M1326.8 465.743c19.038-.05 37.06-43.186 37.06-43.186 20.02-38.054-91.07-33.08-72.737 2.066 0 0 17.464 41.17 35.676 41.12z" stroke="#000" stroke-width="4" fill="#502D16"/><path d="M1350.063 412.76c-5.977 5.788-43.623 2.108-46.878-.65-3.255-2.76 14.83 22.453 24.174 22.398 9.34-.055 28.68-27.54 22.7-21.75z" stroke="#000" stroke-width="4" fill="#DEAA87"/><path d="M1242.368 574.717l172.53.163c-2.172 6.185-1.142 15.017-.49 22.607l-171.387-.324-.65-22.446z" stroke="#000" stroke-width="3.895" fill="#520"/><path d="M1300.753 319.532c-34.89 5.744-47.745 87.934-37.67 141.127 1.79 8.45 13.22 10.25 19.91 6.48 5.924-2.58 7.12-9.25 7.446-14.97.96-13.77-6.41-76.7 3.65-88.05 10.05-11.36 63.83-8.61 72.8 3.58 8.96 12.19-5.26 85.77 2.28 101.04 7.03 8.76 24.27 4.58 25.39-6.92-2.23-16.83 5.46-84.41 2.82-98.23-2.64-13.82-15.85-35.62-27.21-39.89-26.01-9.78-34.54-9.94-69.43-4.19z" stroke="#050202" stroke-width="3.897" fill="#2CA02C"/><path d="M1386.113 339.54c2.652 6.538 10.69 15.902 10.093 23.896l-128.456.91c2.004-7.155 3.03-13.08 9.06-23.768l109.303-1.037z" stroke="#000" stroke-width="4" fill="#520"/><path d="M1022.32 445.677l6.42 25.512-11.185 109.05-43.13-15.26c14.296-53.08 19.928-96.8 47.896-119.31z" stroke="#050202" stroke-width="4.067" fill="#ACF"/><path d="M1018.973 407.95c0 18.873 6.68 36.972 18.57 50.316 11.893 13.345 28.02 20.842 44.838 20.842 35.02 0 63.41-31.858 63.41-71.157 0-39.29-28.39-71.15-63.41-71.15-16.81 0-32.94 7.5-44.83 20.84-11.89 13.35-18.57 31.45-18.57 50.32z" stroke="#000" stroke-width="4.067" fill="#502D16"/><path d="M1146.826 445.677l-6.42 25.512 11.186 109.05 43.13-15.26c-14.296-53.08-19.93-96.8-47.896-119.31z" stroke="#050202" stroke-width="4.067" fill="#ACF"/><path d="M1083.924 769.678c0 4.737 3.45 9.28 9.588 12.628 6.14 3.35 14.465 5.23 23.147 5.23 8.68 0 17-1.88 23.14-5.23 6.14-3.35 9.59-7.89 9.59-12.628 0-9.863-14.66-17.858-32.74-17.858-18.08 0-32.74 7.995-32.74 17.858zm-77.664 2.552c0 4.736 3.45 9.278 9.59 12.627 6.138 3.35 14.464 5.23 23.146 5.23 8.68 0 17.007-1.88 23.146-5.23 6.14-3.35 9.588-7.89 9.588-12.627 0-9.863-14.656-17.86-32.734-17.86-18.08 0-32.735 7.997-32.735 17.86z" stroke="#050202" stroke-width="4.067" fill="#2B1100"/><path d="M1016.963 595.487c-4.52 57.767-15.687 146.038-4.857 157.967 34.48 17.88 114.923 24.43 141.655-10.637 13.08-30.44-8.96-96.993-5.87-147.33 16.45-98.954 9.4-187.6-66.89-188.91-67.22-1.153-81.38 87.4-64.03 188.91z" stroke="#050202" stroke-width="3.753" fill="#06F"/><path d="M1035.774 389.775c0 15.19 4.973 29.76 13.825 40.5 8.85 10.74 20.85 16.776 33.37 16.776 12.52 0 24.52-6.03 33.37-16.77 8.85-10.74 13.82-25.31 13.82-40.5 0-15.19-4.98-29.76-13.83-40.5-8.85-10.74-20.86-16.77-33.38-16.77-12.52 0-24.53 6.04-33.38 16.78-8.85 10.74-13.83 25.31-13.83 40.5z" stroke="#050202" stroke-width="3.965" fill="#E6C2AA"/><path d="M1093.066 377.582c0 2.366 1.93 4.284 4.31 4.284 2.383 0 4.313-1.918 4.313-4.284 0-1.136-.46-2.226-1.27-3.03-.81-.803-1.91-1.254-3.05-1.254s-2.24.45-3.05 1.254c-.81.804-1.27 1.894-1.27 3.03zm-27.42.49c0 2.367 1.93 4.285 4.31 4.285s4.312-1.918 4.312-4.284c0-1.137-.454-2.226-1.263-3.03-.81-.803-1.905-1.255-3.05-1.255-1.142 0-2.24.452-3.048 1.255-.808.804-1.262 1.893-1.262 3.03z" fill="#000"/><path d="M1105.554 442.967c-12.528 8.722-41.714 5.273-47.626-.792-25.434 67.066 3.47 324.16 1.54 324.16 12.987 1.184 32.404 2.142 42.36.422-2.786.107 25.683-251.68 3.726-323.79z" stroke="#000" stroke-width="3.953" fill="#ACF"/><path d="M1105.813 403.182c-5.976 5.79-43.623 2.11-46.878-.65-3.254-2.758 14.83 22.454 24.174 22.4 9.34-.056 28.68-27.54 22.7-21.75z" stroke="#000" stroke-width="4.067" fill="#FFD5D5"/><path d="M1056.504 317.532c-34.89 5.744-47.746 87.934-37.672 141.127 1.79 8.45 13.22 10.25 19.913 6.48 5.923-2.58 7.118-9.25 7.445-14.97-.37-9.8-10.92-62.84 3.65-88.05 14.57-25.22 64.72-19.61 72.8 3.58 8.082 23.19-5.26 86.44 2.288 101.04 7.035 8.76 24.268 4.58 25.395-6.92-2.222-16.83 5.464-84.41 2.82-98.23-2.64-13.82-15.85-35.62-27.21-39.89-26.006-9.78-34.54-9.94-69.43-4.19z" stroke="#050202" stroke-width="3.962" fill="#ACF"/><path d="M1140.07 335.358c2.506 4.112 8.802 9.352 8.238 14.38l-121.484.572c1.896-4.5 2.54-9.2 8.243-15.923l105.002.97z" stroke="#000" stroke-width="3.956" fill="#06F"/><path d="M1190.534 567.98c-2.03 6.303-.513 10.912-5.352 25.92-4.708 14.6-6.11 28.73-20.564 25.005-8.057-2.076-15.73-17.484-6.95-23.418-5.033 3.026-13.082 10.957-15.66 8.195-3.766-4.04-3.993-12.264 6.233-17.63 2.5-1.31 1.32-2.184 3.42-3.117.32-.632 3.34-2.657 3.96-3.017 10.71-6.16 29.28-10.598 34.92-11.937zm-211.92 0c2.03 6.303.512 10.912 5.35 25.92 4.71 14.6 6.11 28.73 20.565 25.005 8.05-2.076 15.73-17.484 6.95-23.418 5.03 3.026 13.08 10.957 15.65 8.195 3.77-4.04 3.99-12.264-6.23-17.63-2.5-1.31-1.32-2.184-3.42-3.117-.32-.632-3.33-2.657-3.96-3.017-10.71-6.16-29.28-10.598-34.92-11.937z" stroke="#050202" stroke-width="4.067" fill="#E6C2AA"/><path d="M1083.005 551.362c-13.877-1.113-26.713 1.186-36.36 5.855-5.984-5.437-14.26-9.127-23.614-9.877-19.77-1.586-36.87 10.576-38.2 27.154-1.33 16.58 13.62 31.312 33.39 32.898 9.36.75 18.11-1.573 24.89-5.986 8.78 6.147 21.08 10.507 34.96 11.62 8.99.722 17.56-.023 25.09-1.89 7.14 3.036 15.46 5.143 24.43 5.863 28.25 2.26 52.27-9.73 53.64-26.75 1.37-17.03-20.44-32.65-48.69-34.92-8.97-.72-17.51-.01-25.04 1.85-7.14-3.05-15.48-5.1-24.47-5.82z" stroke="#000" stroke-width="4.709" fill="#FFF"/><path d="M1045.424 578.22c-.876 10.92-12.51 18.894-25.985 17.813-13.48-1.08-23.69-10.81-22.82-21.728.87-10.92 12.51-18.896 25.98-17.815 13.47 1.08 23.69 10.81 22.81 21.73z" stroke="#000" stroke-width="2.145" fill="#E6C2AA"/><path d="M1015.015 578.84c-.145 1.816-1.86 3.16-3.832 3.002-1.972-.158-3.45-1.758-3.306-3.574.07-.872.513-1.678 1.232-2.24.71-.564 1.65-.838 2.6-.762.94.076 1.82.495 2.44 1.166.62.67.93 1.536.86 2.408zm5.865-11.168c-.146 1.816-1.862 3.16-3.833 3.002-1.97-.158-3.45-1.758-3.305-3.574.07-.872.513-1.678 1.232-2.24.718-.564 1.654-.838 2.6-.762.947.076 1.827.495 2.447 1.166.62.67.93 1.536.86 2.408z" fill="#000"/><path d="M1018.598 586.05c9.187-2.207 17.502-5.146 14.178-17.863" stroke="#000" stroke-width="2.034"/><g transform="translate(102 305)"><path d="M297.4 251.52c8.255-2.02 17.255 4.88 24.372 19.447 6.74 13.793 16.712 24.218 4.025 32.045-7.07 4.362-23.59-.75-21.852-11.16-1.27 5.708-1.046 16.97-4.836 16.917-5.55-.08-11.69-5.59-8.55-16.65.77-2.7.52-5.36 1.29-7.51-.25-.67-.5-1.34-.67-2.03-3.9-15.73-2.05-29.05 6.21-31.07zM36.95 272.045c-6.32 29.472 8.273 38.883 37.144 24.104 31.23-15.99 46.618-12.67 41.907-23.06-5.26-11.6-19.45-28.59-41.9-23.06-13.26 3.27-23.21 13.89-37.14 22z" stroke="#050202" stroke-width="4.008" fill="#DEAA87"/><path stroke="#000" stroke-width="4.008" stroke-linecap="round" stroke-linejoin="bevel" fill="#E3E2DB" d="M2.996 251.473l51.328-22.916 39.036 87.436-51.328 22.916z"/><rect stroke="#000" stroke-width="4.008" fill="#E3E2DB" transform="rotate(-24.058 1107.167 0)" x="3.599" y="221.077" width="41.285" height="19.365" rx="6.138"/><path d="M46.23 295.897c-2 4.478.032 9.74 4.54 11.752 2.164.96 4.62 1.03 6.83.2 2.21-.84 3.99-2.52 4.95-4.67s1.022-4.6.17-6.8c-.85-2.21-2.545-3.99-4.71-4.95-4.507-2.02-9.782-.02-11.78 4.46zm-15.92-34.892c-2 4.478.033 9.74 4.54 11.752 2.164.967 4.622 1.04 6.83.202 2.21-.84 3.99-2.52 4.95-4.67.962-2.15 1.023-4.6.17-6.8-.85-2.21-2.545-3.99-4.71-4.95-4.506-2.02-9.78-.02-11.78 4.46z" stroke="#000" stroke-width="3.006" fill="green"/><path d="M57.63 258.968c0 4.106 6.032 7.436 13.47 7.436 7.44 0 13.47-3.33 13.47-7.436 0-4.107-6.03-7.437-13.47-7.437-7.438 0-13.47 3.33-13.47 7.44z" stroke="#050202" stroke-width="4.008" fill="#DEAA87"/><path d="M140.146 152.26c-16.122 32.878-37.41 60.624-60.334 86.742-3.165 33.078 6.36 40.935 12.837 54.85 24.1-6.32 33.89-9.798 41.07-12.756l6.42-128.835z" stroke="#050202" stroke-width="4.008" fill="#0A0"/><path d="M82.135 258.166l39.844-26.135-.01 17.1-37.3 22.81c-1.48-4.28-2.3-8.88-2.54-13.77z" fill="green"/><path d="M141.877 106.316c0 18.872 6.68 36.97 18.57 50.315 11.893 13.35 28.02 20.85 44.838 20.85 35.02 0 63.408-31.86 63.408-71.15 0-39.3-28.39-71.15-63.408-71.15-16.817 0-32.945 7.5-44.837 20.84-11.89 13.35-18.57 31.45-18.57 50.32z" stroke="#000" stroke-width="4.008" fill="#502D16"/><path d="M269.73 144.042l-6.42 25.512 32.093 109.7 35.944-17.857c-14.297-53.076-33.65-94.846-61.617-117.355z" stroke="#050202" stroke-width="4.008" fill="#0A0"/><path d="M206.828 468.043c0 4.737 3.45 9.28 9.588 12.628 6.14 3.35 14.465 5.24 23.147 5.24 8.68 0 17.007-1.88 23.146-5.23 6.13-3.35 9.58-7.89 9.58-12.63 0-9.86-14.66-17.85-32.74-17.85-18.08 0-32.74 8-32.74 17.86zm-77.662 2.552c0 4.736 3.448 9.278 9.587 12.627 6.14 3.35 14.465 5.23 23.147 5.23 8.68 0 17.007-1.88 23.146-5.23 6.14-3.35 9.588-7.89 9.588-12.627 0-9.863-14.656-17.86-32.734-17.86-18.08 0-32.734 7.997-32.734 17.86z" stroke="#050202" stroke-width="4.008" fill="#2B1100"/><path d="M121.62 284.18c-5.312 57.705-13.832 155.544-1.102 167.46 40.53 17.86 135.082 24.403 166.504-10.626 15.363-30.406 2.52-103.844 6.154-154.127 7.353-101.737-2.75-180.562-91.678-181.75-75.67-1.01-84.81 77.644-79.878 179.044z" stroke="#050202" stroke-width="4.008" fill="#0A0"/><path d="M158.678 88.14c0 15.19 4.973 29.76 13.825 40.5 8.852 10.74 20.858 16.776 33.376 16.776 12.51 0 24.52-6.035 33.37-16.776 8.85-10.74 13.82-25.31 13.82-40.5 0-15.19-4.98-29.76-13.83-40.5-8.85-10.742-20.86-16.776-33.38-16.776-12.52 0-24.53 6.034-33.38 16.775-8.85 10.74-13.83 25.31-13.83 40.5z" stroke="#050202" stroke-width="3.908" fill="#DEAA87"/><path d="M215.97 75.947c0 2.366 1.93 4.284 4.31 4.284 2.383 0 4.313-1.91 4.313-4.28 0-1.13-.454-2.22-1.263-3.03-.808-.8-1.905-1.25-3.05-1.25-1.142 0-2.24.45-3.047 1.26-.81.81-1.263 1.9-1.263 3.03zm-29.963.49c0 2.367 1.93 4.285 4.312 4.285 2.38 0 4.31-1.918 4.31-4.284 0-1.137-.46-2.226-1.27-3.03-.81-.803-1.91-1.255-3.05-1.255s-2.24.452-3.05 1.255c-.81.804-1.27 1.893-1.27 3.03z" fill="#000"/><path d="M222.35 122.755h-32.977l-6.93 341.755c12.944 1.288 32.296 2.33 42.218.46l-2.31-342.215z" stroke="#000" stroke-width="4.008" fill="#0055D4"/><path d="M205.454 162.108c19.04-.05 37.062-43.186 37.062-43.186 20.018-38.054-91.073-33.08-72.738 2.066 0 0 17.464 41.17 35.676 41.12z" stroke="#000" stroke-width="4.008" fill="#502D16"/><path d="M228.717 109.124c-5.976 5.79-43.623 2.11-46.877-.65-3.255-2.758 14.828 22.454 24.174 22.4 9.345-.056 28.68-27.54 22.703-21.75z" stroke="#000" stroke-width="4.008" fill="#DEAA87"/><path d="M264.997 132.598c-3.245-3.61-6.27-7.245-11.897-10.56l-1.04 335.586c4.274-1 8.663-2.564 12.937-4.476v-320.55zm-119.45.69c3.244-3.61 6.384-9.083 12.01-12.396l.693 338.913c-4.273-1-8.893-1.187-13.166-3.1l.462-323.418zm152.16 104.926c-.137-10.39-.868-20.78-1.403-31.172l25.405 56.294c-2.78 1.198-7.07 3.858-12.01 5.813l-12-30.94z" fill="green"/><path stroke="#000" stroke-width="4.731" stroke-linejoin="bevel" fill="#FC0" d="M247.04 58.444l-41.145.183-41.146-.1-13.1-17.698-12.51-17.79 33.05-11.12 33.42-10.89 33.52 10.82 33.16 11.05-12.34 17.81z"/><path d="M215.853 37.362c0 2.8-1.12 5.486-3.112 7.466-1.99 1.98-4.69 3.093-7.51 3.093-5.87 0-10.62-4.72-10.62-10.55s4.76-10.56 10.63-10.56c2.82 0 5.52 1.12 7.52 3.1s3.12 4.67 3.12 7.47zm33.04-5.052c0 2.8-1.12 5.487-3.112 7.467-1.99 1.98-4.69 3.092-7.51 3.092-5.87 0-10.62-4.73-10.62-10.56s4.76-10.56 10.63-10.56c2.82 0 5.52 1.11 7.52 3.09 2 1.98 3.12 4.66 3.12 7.46zm-66.08 0c0 2.8-1.12 5.487-3.113 7.467-1.992 1.98-4.695 3.092-7.513 3.092-5.87 0-10.626-4.73-10.626-10.56s4.76-10.56 10.63-10.56c2.82 0 5.52 1.11 7.52 3.09 2 1.98 3.12 4.66 3.12 7.46z" stroke="#000" stroke-width="4.008" fill="#0A0"/></g><path d="M897.453 572.535c6.32 29.472-8.273 38.883-37.144 24.104-31.23-15.99-46.62-12.67-41.91-23.06 5.26-11.6 19.45-28.59 41.9-23.05 13.26 3.27 23.21 13.89 37.14 22z" stroke="#050202" stroke-width="4.008" fill="#502D16"/><path d="M904.066 536.815c-1.064 2.982-3.436 5.36-6.596 6.61-3.16 1.248-6.846 1.268-10.25.054-3.405-1.22-6.248-3.57-7.903-6.54-1.655-2.97-1.988-6.31-.924-9.29 1.064-2.98 3.436-5.36 6.595-6.61 3.16-1.25 6.847-1.27 10.252-.06 3.404 1.21 6.247 3.56 7.902 6.53 1.655 2.97 1.987 6.31.924 9.29z" stroke="#000" stroke-width="4.008" fill="#F60"/><path stroke="#000" stroke-width="4.008" stroke-linejoin="bevel" fill="#F60" d="M872.653 529.066l34.36 12.257-28.22 79.11-34.36-12.256z"/><path d="M891.036 553.948c-1.373 3.85-5.627 5.85-9.5 4.468-1.862-.664-3.384-2.034-4.233-3.81-.85-1.777-.956-3.814-.297-5.663.66-1.848 2.03-3.358 3.813-4.196 1.78-.838 3.82-.936 5.68-.272 3.87 1.382 5.9 5.623 4.53 9.473zm-8.513 23.83c-1.373 3.85-5.627 5.85-9.5 4.47-1.86-.665-3.384-2.036-4.233-3.812-.85-1.777-.956-3.813-.296-5.662.66-1.85 2.03-3.358 3.813-4.196 1.78-.838 3.828-.936 5.688-.272 3.874 1.382 5.902 5.623 4.528 9.472zm-7.835 22.842c-1.374 3.85-5.628 5.85-9.502 4.47-1.86-.665-3.382-2.035-4.232-3.812-.85-1.776-.955-3.813-.296-5.662.66-1.848 2.03-3.358 3.813-4.196 1.79-.838 3.83-.936 5.69-.272 3.88 1.382 5.9 5.623 4.53 9.473z" stroke="#000" stroke-width="3.006" fill="green"/><path d="M876.772 559.458c0 4.106-6.03 7.436-13.47 7.436s-13.47-3.33-13.47-7.436c0-4.107 6.03-7.437 13.47-7.437s13.47 3.33 13.47 7.44zm-243.687 3.244c-8.257-2.02-17.257 4.88-24.374 19.45-6.73 13.792-16.71 24.217-4.02 32.043 7.07 4.362 23.59-.75 21.86-11.16 1.27 5.71 1.05 16.97 4.84 16.917 5.54-.077 11.69-5.59 8.54-16.645-.77-2.702-.52-5.356-1.29-7.51.24-.662.5-1.332.67-2.03 3.9-15.726 2.05-29.045-6.2-31.065z" stroke="#050202" stroke-width="4.008" fill="#502D16"/><path d="M660.754 447.65l6.418 25.51-32.092 109.702-35.944-17.858c14.297-53.076 33.65-94.846 61.618-117.355z" stroke="#050202" stroke-width="4.008" fill="#330080"/><path d="M723.655 771.65c0 4.737-3.45 9.28-9.588 12.628-6.14 3.35-14.465 5.23-23.146 5.23-8.68 0-17-1.88-23.14-5.23-6.14-3.35-9.59-7.89-9.59-12.628 0-9.863 14.66-17.858 32.74-17.858 18.08 0 32.74 7.995 32.74 17.858zm77.663 2.55c0 4.738-3.45 9.28-9.588 12.63-6.14 3.348-14.465 5.23-23.146 5.23-8.682 0-17.008-1.882-23.147-5.23-6.14-3.35-9.588-7.892-9.588-12.63 0-9.86 14.65-17.857 32.73-17.857s32.73 7.996 32.73 17.858z" stroke="#050202" stroke-width="4.008" fill="#000"/><path d="M794.257 452.75c16.122 32.878 37.41 60.624 60.334 86.742 3.17 33.078-6.36 40.935-12.83 54.85-24.1-6.32-33.89-9.798-41.08-12.756l-6.42-128.835z" stroke="#050202" stroke-width="4.008" fill="#330080"/><path d="M808.864 587.788c5.312 57.704 13.268 154.976 1.1 167.46-12.475 12.798-66.366 23.52-87.333 15.192-21.72 4.498-64.76 12.65-79.17-25.82-15.36-30.405-2.52-103.843-6.15-154.126-7.35-101.737 2.75-180.562 91.68-181.75 75.67-1.01 84.81 77.644 79.88 179.044z" stroke="#050202" stroke-width="4.008" fill="#330080"/><path d="M771.805 391.747c0 15.19-4.973 29.758-13.825 40.5-8.852 10.74-20.857 16.776-33.376 16.776-12.518 0-24.524-6.035-33.376-16.776-8.852-10.742-13.824-25.31-13.824-40.5 0-15.19 4.972-29.76 13.824-40.5 8.852-10.742 20.858-16.776 33.376-16.776 12.52 0 24.524 6.04 33.376 16.78 8.852 10.74 13.825 25.31 13.825 40.5z" stroke="#050202" stroke-width="3.908" fill="#784421"/><path d="M715.784 379.554c0 2.366-1.93 4.284-4.31 4.284-2.383 0-4.313-1.918-4.313-4.284 0-1.136.46-2.226 1.27-3.03.81-.803 1.91-1.255 3.05-1.255s2.24.45 3.05 1.25c.81.8 1.27 1.89 1.27 3.03zm27.42.49c0 2.367-1.93 4.285-4.31 4.285-2.382 0-4.312-1.92-4.312-4.29 0-1.14.454-2.23 1.263-3.03.81-.81 1.905-1.26 3.05-1.26 1.142 0 2.24.45 3.047 1.25.81.8 1.263 1.89 1.263 3.03z" fill="#000"/><path d="M637.096 576.988l172.532.162c-2.174 6.186-1.144 15.018-.49 22.608l-171.39-.325-.652-22.445z" stroke="#000" stroke-width="3.903" fill="#FC0"/><path d="M701.766 404.008c5.976 5.79 43.623 2.11 46.878-.65 3.254-2.758-14.83 22.454-24.174 22.4-9.346-.055-28.68-27.54-22.704-21.75z" stroke="#000" stroke-width="4.008" fill="#784421"/><path d="M723.643 459.248l-17.204-29.61c10.35 5.532 21.45 7.394 34.4 0l-17.21 29.61z" stroke="#000" stroke-width="4.008" stroke-linejoin="round" fill="#000"/><path d="M732.14 485.665c0 4.088-3.335 7.4-7.448 7.4-1.975 0-3.87-.78-5.266-2.166-1.397-1.39-2.182-3.28-2.182-5.24 0-1.96.785-3.85 2.182-5.24 1.396-1.39 3.29-2.17 5.266-2.17 4.113 0 7.448 3.31 7.448 7.4zm0 37.885c0 4.086-3.335 7.4-7.448 7.4-1.975 0-3.87-.78-5.266-2.168-1.397-1.388-2.182-3.27-2.182-5.233 0-1.97.785-3.85 2.182-5.24 1.396-1.39 3.29-2.17 5.266-2.17 4.113 0 7.448 3.31 7.448 7.4zm0 35.356c0 4.088-3.335 7.4-7.448 7.4-1.975 0-3.87-.778-5.266-2.166-1.397-1.388-2.182-3.27-2.182-5.234 0-1.962.785-3.845 2.182-5.233 1.396-1.388 3.29-2.167 5.266-2.167 4.113 0 7.448 3.313 7.448 7.4zm0 65.664c0 4.088-3.335 7.402-7.448 7.402-1.975 0-3.87-.78-5.266-2.168-1.397-1.388-2.182-3.27-2.182-5.233 0-1.96.785-3.84 2.182-5.23 1.396-1.39 3.29-2.17 5.266-2.17 4.113 0 7.448 3.32 7.448 7.4zm0 35.36c0 4.086-3.335 7.4-7.448 7.4-1.975 0-3.87-.78-5.266-2.168-1.397-1.388-2.182-3.27-2.182-5.233 0-1.97.785-3.85 2.182-5.24 1.396-1.39 3.29-2.17 5.266-2.17 4.113 0 7.448 3.31 7.448 7.4zm0 37.882c0 4.087-3.335 7.4-7.448 7.4-1.975 0-3.87-.78-5.266-2.167-1.397-1.388-2.182-3.27-2.182-5.233 0-1.963.785-3.845 2.182-5.233 1.396-1.39 3.29-2.17 5.266-2.17 4.113 0 7.448 3.31 7.448 7.4zm0 40.408c0 4.088-3.335 7.402-7.448 7.402-1.975 0-3.87-.78-5.266-2.168-1.397-1.388-2.182-3.27-2.182-5.233 0-1.96.785-3.84 2.182-5.23 1.396-1.39 3.29-2.17 5.266-2.17 4.113 0 7.448 3.32 7.448 7.4z" stroke="#000" stroke-width="3.006" fill="#FC0"/><path d="M743.398 590.646c0 9.86-8.044 17.854-17.967 17.854-4.76 0-9.33-1.88-12.7-5.23-3.37-3.348-5.26-7.89-5.26-12.624 0-4.735 1.9-9.276 5.26-12.625 3.37-3.34 7.94-5.22 12.71-5.22 9.93 0 17.97 8 17.97 17.86z" stroke="#000" stroke-width="3.808" fill="#FC0"/><path d="M766.96 370.603c-15.854 3.71-41.1-20.698-41.1-20.698s-30.715 28.613-45.404 20.792c-12.445-6.627-13.214-29.22-6.542-41.586 8.982-16.64 32.793-23.81 51.8-23.69 19.92.12 46.048 7.33 53.976 25.49 5.562 12.74 2.277 35.57-12.73 39.7z" stroke="#000" stroke-width="4.008" fill="#4000A1"/><path d="M432.84 563.89c-8.256-2.02-17.256 4.88-24.373 19.448-6.74 13.793-16.713 24.218-4.025 32.044 7.07 4.363 23.59-.75 21.852-11.16 1.27 5.71 1.046 16.97 4.836 16.918 5.54-.078 11.69-5.59 8.54-16.646-.768-2.702-.52-5.356-1.288-7.51.242-.662.494-1.33.667-2.03 3.89-15.725 2.04-29.044-6.21-31.064z" stroke="#050202" stroke-width="4.008" fill="#DEAA87"/><path d="M460.51 448.836l6.418 25.512-32.093 109.7-35.943-17.857c14.297-53.07 33.65-94.84 61.617-117.35z" stroke="#050202" stroke-width="4.008" fill="#FC0"/><path d="M432.533 543.008c.136-10.39.867-20.78 1.402-31.172L408.53 568.13c2.775 1.198 7.07 3.858 12.008 5.813l11.995-30.935z" fill="#A80"/><path d="M454.814 411.11c0 18.872 6.68 36.97 18.57 50.316 11.893 13.344 28.02 20.84 44.838 20.84 35.02 0 63.408-31.857 63.408-71.156 0-39.3-28.39-71.157-63.408-71.157-16.817 0-32.945 7.497-44.837 20.842-11.89 13.344-18.57 31.443-18.57 50.315z" stroke="#000" stroke-width="4.008" fill="#E3DEDB"/><path d="M582.667 448.836l-6.42 25.512 32.093 109.7 35.944-17.857c-14.297-53.07-33.65-94.84-61.617-117.35z" stroke="#050202" stroke-width="4.008" fill="#FC0"/><path d="M519.765 772.837c0 4.737 3.45 9.28 9.588 12.628 6.14 3.35 14.465 5.23 23.147 5.23 8.68 0 17.007-1.88 23.146-5.23 6.14-3.35 9.588-7.89 9.588-12.628 0-9.862-14.656-17.858-32.734-17.858-18.08 0-32.735 7.99-32.735 17.85zm-77.663 2.553c0 4.735 3.45 9.277 9.588 12.626 6.14 3.35 14.465 5.23 23.147 5.23 8.68 0 17.007-1.88 23.146-5.23 6.14-3.35 9.588-7.89 9.588-12.627 0-9.87-14.65-17.86-32.73-17.86s-32.73 7.99-32.73 17.86z" stroke="#050202" stroke-width="4.008" fill="#2B1100"/><path d="M434.557 588.975c-5.312 57.705-13.832 155.543-1.102 167.46 40.53 17.86 135.082 24.402 166.504-10.627 15.36-30.406 2.52-103.844 6.15-154.127 7.35-101.73-2.75-180.56-91.68-181.74-75.67-1.01-84.81 77.65-79.88 179.05z" stroke="#050202" stroke-width="4.008" fill="#FC0"/><path d="M471.615 392.934c0 15.19 4.973 29.76 13.825 40.5 8.852 10.74 20.857 16.776 33.376 16.776 12.518 0 24.524-6.035 33.376-16.776 8.852-10.74 13.825-25.31 13.825-40.5 0-15.19-4.973-29.76-13.825-40.5-8.852-10.742-20.858-16.776-33.376-16.776-12.52 0-24.524 6.034-33.376 16.776-8.852 10.74-13.825 25.31-13.825 40.5z" stroke="#050202" stroke-width="3.908" fill="#DEAA87"/><path d="M528.907 379.478c0 2.367 1.93 4.285 4.31 4.285 2.383 0 4.313-1.918 4.313-4.285 0-1.136-.454-2.226-1.263-3.03-.81-.803-1.905-1.254-3.05-1.254-1.142 0-2.24.45-3.047 1.255-.81.8-1.263 1.89-1.263 3.02zm-29.963.492c0 2.365 1.93 4.284 4.312 4.284 2.38 0 4.31-1.92 4.31-4.285 0-1.14-.453-2.23-1.262-3.03-.808-.81-1.905-1.26-3.048-1.26-1.144 0-2.24.45-3.05 1.25-.808.8-1.262 1.89-1.262 3.03z" fill="#000"/><path d="M535.288 427.55H502.31l-6.93 341.754c12.944 1.288 32.296 2.33 42.218.46l-2.31-342.215z" stroke="#000" stroke-width="4.008" fill="maroon"/><path d="M518.39 494.17l37.063-70.454c20.018-38.054-91.073-33.08-72.738 2.066l35.676 68.388z" stroke="#000" stroke-width="4.008" fill="#E3DBDB"/><path stroke="#000" stroke-width="4.008" stroke-linejoin="round" fill="#FC0" d="M557.644 357.6l52.2-74.434-67.75 33.154-24.725-58.07-24.46 58.4-72.65-32.83 57.8 74.312 79.57-.533z"/><path d="M541.654 413.918c-5.976 5.79-43.623 2.11-46.878-.65-3.254-2.758 14.83 22.454 24.174 22.4 9.346-.056 28.68-27.54 22.704-21.75z" stroke="#000" stroke-width="4.008" fill="#DEAA87"/><path d="M498.548 333.383c0 9.86 8.044 17.854 17.967 17.854 4.765 0 9.335-1.88 12.705-5.23 3.37-3.348 5.262-7.89 5.262-12.624 0-4.735-1.893-9.276-5.262-12.624-3.37-3.35-7.94-5.23-12.705-5.23-9.923 0-17.967 7.99-17.967 17.85z" stroke="#000" stroke-width="4.008" fill="#00F"/><path d="M577.934 437.392c-3.246-3.61-6.27-7.245-11.897-10.56l-1.04 335.586c4.274-1 8.663-2.564 12.937-4.476v-320.55zm-119.45.688c3.244-3.608 6.384-9.08 12.01-12.394l.693 338.913c-4.273-1-8.893-1.19-13.166-3.1l.47-323.42zm152.16 104.928c-.137-10.39-.868-20.78-1.403-31.172l25.41 56.294c-2.77 1.198-7.07 3.858-12.01 5.813l-11.99-30.935z" fill="#A80"/><path d="M610.335 556.313c8.257-2.02 17.257 4.88 24.374 19.45 6.73 13.79 16.71 24.216 4.02 32.043-7.07 4.362-23.59-.75-21.85-11.16-1.27 5.708-1.05 16.97-4.84 16.917-5.54-.077-11.69-5.59-8.54-16.646.77-2.7.52-5.355 1.29-7.508-.24-.67-.5-1.34-.67-2.04-3.9-15.73-2.05-29.05 6.21-31.07z" stroke="#050202" stroke-width="4.008" fill="#DEAA87"/><path stroke="#000" stroke-width="4.008" stroke-linejoin="round" fill="#D4AA00" d="M388.68 548.87h266.57v79.206H388.68z"/><path stroke="#000" stroke-width="4.008" stroke-linejoin="round" fill="#00F" d="M420.596 602.67l-14.24-14.242 14.15-14.152 14.24 14.242z"/><path d="M459.718 588.473c0 2.8 1.12 5.486 3.113 7.466 2 1.98 4.7 3.09 7.52 3.09 5.87 0 10.63-4.73 10.63-10.56s-4.75-10.56-10.62-10.56c-2.82 0-5.52 1.11-7.51 3.09-1.99 1.98-3.11 4.66-3.11 7.46z" stroke="#000" stroke-width="4.008" fill="#D40000"/><path stroke="#000" stroke-width="4.008" stroke-linejoin="round" fill="#00F" d="M624.73 602.67l-14.243-14.242 14.152-14.152 14.24 14.24z"/><path d="M561.308 588.473c0 2.8 1.12 5.486 3.112 7.466 1.993 1.98 4.695 3.09 7.513 3.09 5.87 0 10.626-4.73 10.626-10.56s-4.76-10.56-10.63-10.56c-2.82 0-5.52 1.11-7.52 3.09-2 1.98-3.12 4.66-3.12 7.46z" stroke="#000" stroke-width="4.008" fill="#D40000"/><path stroke="#000" stroke-width="4.008" stroke-linejoin="round" fill="#00F" d="M519.396 602.67l-14.24-14.242 14.15-14.15 14.24 14.24z"/><path d="M233.694 270.483L237 349l-53.616-90.21C107.17 235.69 56 192.93 56 144 56 70.546 171.308 11 313.55 11c142.24 0 257.547 59.546 257.547 133 0 73.454-115.308 133-257.548 133-27.88 0-54.72-2.287-79.86-6.517z" stroke="#000" stroke-width="4" fill="#FFF"/><path d="M136.672 69.03c.917 0 1.375 2.81 1.375 8.423l1.828 10.64h.453c0-.603 1.833-3.905 5.5-9.906.573-3.958 1.64-5.937 3.203-5.937h.46c.92 0 1.68 3.052 2.28 9.156 1.02 4.167 1.79 6.646 2.3 7.438.48-2.104 2.92-8.297 7.31-18.578.65-.657 1.26-.985 1.83-.985.83 0 1.36.33 1.61.99 0 .85-2.28 6.38-6.86 16.6-.77 2.41-1.46 5.71-2.06 9.91-.49.83-1.1 1.24-1.82 1.24-1.39 0-2.46-2.8-3.2-8.42-1.49-5.47-2.4-8.44-2.75-8.9l-4.58 7.92c-.76 1.54-1.44 4.18-2.06 7.92-.4.61-1.01 1.02-1.83 1.24-1.27 0-2.33-4.29-3.2-12.87-1.22-6.06-1.83-10.93-1.83-14.61 0-.49.69-.9 2.07-1.23zm42.734 4c.72.158 1.078.704 1.078 1.642-.23 1.77-.942 2.656-2.14 2.656-7.854 0-11.78 1.094-11.78 3.28l-.22 1.845v1.016c5.125-1.23 8.625-1.85 10.5-1.85h.422c.718.31 1.078.99 1.078 2.04 0 1.5-1 2.25-3 2.25-6.573.85-9.86 1.88-9.86 3.08l-.203 2.04v.81c0 1.23.79 1.91 2.35 2.04 2.46-.27 5.53-.89 9.22-1.85h.64c.57.22.86.7.86 1.44v.61c0 1.67-3.57 2.97-10.72 3.89h-.64c-2.57 0-4-1.64-4.28-4.91 0-2.41.5-6.98 1.5-13.72l-.42-1.24c0-2.77 4.28-4.41 12.85-4.91l2.78-.21zm27.61 0h.328c1.437.178 2.156.876 2.156 2.095v.422c0 2.104-.72 4.062-2.156 5.875h-.328c-.23-.063-.453-.412-.672-1.047l.844-3.14-.657-.422c-1.53.135-4.34 1.812-8.43 5.03v.204l10.9 2.11c1.11.874 1.66 2.343 1.66 4.406v1.25c0 2.822-1.81 5.27-5.45 7.343-1.42.563-2.8.844-4.14.844h-.34c-3.79 0-6.11-1.677-6.94-5.03v-1.267c0-1.542.39-2.312 1.16-2.312.76 2.67 2.14 4 4.14 4 0 .27.83.41 2.49.41 2.45 0 4.82-1.25 7.11-3.76 0-1.66-3.52-2.71-10.58-3.15-2.54-.71-3.81-1.75-3.81-3.14 0-3.4 3.42-6.83 10.25-10.28l2.49-.42zm15.203 0h.75c1.03 0 2.33 4.767 3.92 14.298 1.25 4.5 1.87 7.557 1.87 9.172-.26.854-.76 1.28-1.5 1.28-.96 0-1.65-2.275-2.07-6.827l-.19-.203h-.19c-1.63.02-5.06 1.016-10.28 2.984-.5 2.844-1.32 4.266-2.44 4.266-.75-.292-1.13-.86-1.13-1.703 0-1.646 3.43-9.188 10.29-22.625l.94-.64zm-.38 5.97c-1.5 2.708-2.88 5.557-4.13 8.547h1.31c1.27 0 2.89-.287 4.87-.86L222.22 79h-.376zm10.11-5.97c.69 0 1.04 2.418 1.04 7.25l1.4 9.19h.34c0-.533 1.4-3.38 4.2-8.548.43-3.406 1.25-5.11 2.45-5.11h.34c.7 0 1.29 2.63 1.75 7.89.78 3.595 1.36 5.73 1.75 6.407.37-1.82 2.24-7.16 5.61-16.02.49-.57.95-.85 1.4-.85.62 0 1.03.28 1.22.84 0 .73-1.75 5.49-5.25 14.29-.59 2.08-1.11 4.93-1.58 8.54-.38.71-.84 1.06-1.41 1.06-1.06 0-1.88-2.42-2.44-7.25-1.14-4.72-1.85-7.28-2.11-7.69l-3.5 6.83c-.58 1.33-1.11 3.6-1.58 6.82-.32.52-.78.87-1.39 1.06-.98 0-1.8-3.7-2.46-11.09-.94-5.23-1.41-9.43-1.41-12.6 0-.43.53-.78 1.58-1.07zm44.45 0h.75c1.03 0 2.34 4.767 3.92 14.298 1.25 4.5 1.87 7.557 1.87 9.172-.26.854-.76 1.28-1.5 1.28-.96 0-1.65-2.275-2.06-6.827l-.19-.203H279c-1.625.02-5.05 1.016-10.28 2.984-.5 2.844-1.314 4.266-2.44 4.266-.75-.292-1.124-.86-1.124-1.703 0-1.646 3.433-9.188 10.3-22.625l.934-.64zm-.37 5.97c-1.5 2.708-2.88 5.557-4.13 8.547h1.31c1.27 0 2.89-.287 4.87-.86L276.4 79h-.37zm25.23-6.016c.95 0 2.08 1.782 3.4 5.344 2.56 5.25 5.41 9.74 8.54 13.47 1.05-10.282 1.83-16.34 2.34-18.173l.86-.64h.64c.43 0 .64.286.64.86-1.28 14.686-2.06 22.525-2.35 23.514l-1.29.42c-2.28 0-6.13-4.85-11.53-14.53l-.86-.86-.22.64-.64 9.84v1.28l.22 1.28c-.19 1.71-.76 2.56-1.71 2.56-.88-.32-1.38-.74-1.5-1.28 1.09-15.4 1.87-23.1 2.34-23.1l1.08-.64zm34.4.047c.72.16 1.08.71 1.08 1.65-.23 1.77-.95 2.66-2.14 2.66-7.86 0-11.79 1.1-11.79 3.28l-.22 1.85v1.02c5.12-1.23 8.62-1.84 10.5-1.84h.42c.72.32 1.08 1 1.08 2.05 0 1.5-1 2.25-3 2.25-6.57.86-9.86 1.88-9.86 3.08l-.2 2.05v.81c0 1.23.78 1.91 2.34 2.05 2.46-.27 5.53-.88 9.22-1.84h.64c.57.22.86.7.86 1.44v.61c0 1.68-3.58 2.97-10.72 3.89h-.64c-2.58 0-4-1.63-4.28-4.9 0-2.41.5-6.98 1.5-13.72l-.43-1.23c0-2.77 4.28-4.41 12.84-4.91l2.78-.2zm2.67 0c.69 0 1.04 2.42 1.04 7.25l1.41 9.19h.34c0-.53 1.4-3.38 4.2-8.54.43-3.4 1.25-5.11 2.45-5.11h.34c.71 0 1.29 2.63 1.75 7.89.78 3.6 1.36 5.73 1.75 6.41.37-1.81 2.24-7.15 5.61-16.01.49-.56.95-.84 1.4-.84.62 0 1.03.28 1.22.85 0 .73-1.75 5.5-5.25 14.3-.59 2.09-1.11 4.94-1.58 8.55-.38.71-.85 1.07-1.41 1.07-1.06 0-1.88-2.41-2.44-7.25-1.15-4.72-1.85-7.28-2.11-7.69l-3.5 6.83c-.59 1.33-1.11 3.61-1.58 6.83-.32.52-.78.88-1.39 1.06-.98 0-1.8-3.7-2.46-11.09-.94-5.23-1.41-9.42-1.41-12.59 0-.42.52-.78 1.57-1.06zm29.01 18.72c.66.2 1.15.56 1.45 1.08v.42c0 2.48-1.86 5.56-5.58 9.22l-.97.22H362c-.876 0-1.52-.36-1.94-1.08v-.21c2.918-3.23 4.376-6.08 4.376-8.56.894-.72 1.863-1.07 2.904-1.07zm29.98-18.72h.33c1.43.18 2.15.88 2.15 2.1v.42c0 2.11-.72 4.06-2.16 5.88h-.33c-.23-.06-.46-.41-.67-1.04l.84-3.14-.66-.42c-1.54.14-4.35 1.82-8.44 5.03v.21l10.9 2.11c1.1.88 1.65 2.34 1.65 4.41v1.25c0 2.83-1.82 5.27-5.46 7.35-1.43.56-2.81.84-4.14.84H391c-3.792 0-6.104-1.67-6.94-5.03v-1.27c0-1.54.386-2.31 1.157-2.31.76 2.67 2.14 4 4.14 4 0 .27.83.41 2.49.41 2.45 0 4.816-1.25 7.11-3.76 0-1.67-3.528-2.72-10.58-3.16-2.54-.71-3.813-1.76-3.813-3.14 0-3.41 3.415-6.83 10.25-10.28l2.483-.42zm17.15-.04c4.13 0 6.2 1.22 6.2 3.64 0 4.81-4.53 9.15-13.6 13.03-.67 0-1 .43-1 1.28-.09 4.71-.56 7.07-1.41 7.07h-1c-.27-.06-.54-.41-.8-1.06l1.8-17.53h-.2c-.53 0-.8-.64-.8-1.93 0-2.09 1.2-3.3 3.61-3.62l7.19-.86zm-8 12.41c4.57-1.19 8.04-3.19 10.4-5.98l.39-1.29v-.42l-1-.22h-1c-5.32.29-7.99.79-7.99 1.5l-.82 6.42zm30.9-12.36c.72.16 1.08.71 1.08 1.64-.23 1.77-.94 2.66-2.14 2.66-7.86 0-11.78 1.1-11.78 3.28l-.22 1.85v1.02c5.12-1.23 8.62-1.84 10.5-1.84h.42c.72.32 1.08 1 1.08 2.05 0 1.5-1 2.25-3 2.25-6.57.86-9.86 1.88-9.86 3.08l-.2 2.05v.81c0 1.23.78 1.91 2.34 2.05 2.46-.27 5.53-.88 9.22-1.84h.64c.57.22.86.7.86 1.44v.61c0 1.68-3.58 2.97-10.72 3.89h-.64c-2.58 0-4-1.63-4.28-4.9 0-2.4.5-6.98 1.5-13.72l-.42-1.23c0-2.77 4.28-4.4 12.84-4.9l2.78-.2zm16.36 0h.92c1.16 0 1.85.94 2.08 2.8v.44c0 2.82-1.07 4.69-3.21 5.59l-.37-.43v-.22l.95-3.65-.75-.42c-3.12 0-6.82 2.95-11.11 8.83-1.02 1.78-1.53 3.14-1.53 4.08v.22c0 2.29 1.38 3.44 4.15 3.44h.17c2.66 0 5.62-.71 8.86-2.14h.58c.5.23.75.73.75 1.5v.86c-2.67 2.73-5.8 4.09-9.41 4.09-4.91-.51-7.36-2.94-7.36-7.31v-.43c0-5.57 3.95-11.03 11.86-16.36 1.5-.57 2.63-.86 3.4-.86zm8.01-.11h1.47c.49 0 .73.29.73.86-1.15 9.36-1.72 15.85-1.72 19.47v2.38c-.33 1.59-1.14 2.38-2.44 2.38h-.49l-.98-.86c.65-9.81 1.47-17.6 2.45-23.36l.97-.86zm13.31.11h.75c1.03 0 2.34 4.77 3.92 14.3 1.25 4.5 1.87 7.56 1.87 9.18-.26.86-.76 1.28-1.5 1.28-.96 0-1.65-2.27-2.06-6.82l-.19-.2h-.19c-1.63.02-5.05 1.02-10.28 2.99-.5 2.85-1.32 4.27-2.44 4.27-.75-.29-1.13-.86-1.13-1.7 0-1.64 3.43-9.19 10.3-22.62l.93-.64zM474.7 79c-1.5 2.71-2.874 5.56-4.124 8.55h1.31c1.27 0 2.896-.28 4.875-.86L475.1 79h-.375zm11.735-6.01h.22c.673 0 1.24.35 1.7 1.05-.99 7.21-1.7 13.66-2.126 19.35l12.19-2.51.42.63v1.27c0 1.92-4.42 3.67-13.25 5.25-1.58-.28-2.36-.77-2.36-1.47 1.17-15.413 2.02-23.122 2.56-23.122l.64-.42zm-348.31 42.04h.33c1.433.18 2.152.88 2.152 2.1v.42c0 2.11-.72 4.06-2.155 5.88h-.33c-.23-.06-.46-.41-.67-1.042l.84-3.14-.66-.422c-1.53.136-4.35 1.813-8.44 5.03v.205l10.9 2.11c1.1.88 1.653 2.34 1.653 4.41v1.25c0 2.83-1.816 5.27-5.452 7.35-1.425.56-2.805.85-4.14.85h-.342c-3.79 0-6.1-1.67-6.94-5.03v-1.26c0-1.54.39-2.31 1.16-2.31.76 2.67 2.14 4 4.14 4 0 .27.83.41 2.49.41 2.45 0 4.82-1.25 7.11-3.76 0-1.66-3.53-2.71-10.58-3.15-2.54-.71-3.81-1.75-3.81-3.14 0-3.4 3.42-6.83 10.25-10.28l2.49-.42zm22.904-.06c1.35 0 2.03.56 2.03 1.69v.42c0 1.55-1.21 2.33-3.63 2.33l-4.52.22c-1.36 7.22-2.03 13.43-2.03 18.63-.37 1.13-.74 1.69-1.13 1.69h-.68c-.78 0-1.23-.21-1.36-.64.76-7.99 1.59-14.48 2.49-19.47l-6.78 1.066c-.64 0-1.01-.63-1.12-1.9 0-2.11 1.88-3.17 5.65-3.17 2.26-.56 5.95-.84 11.07-.84zm11.03.06h.75c1.03 0 2.34 4.77 3.92 14.3 1.25 4.5 1.87 7.56 1.87 9.17-.26.86-.76 1.28-1.5 1.28-.96 0-1.65-2.27-2.07-6.82l-.19-.2h-.19c-1.63.02-5.05 1.02-10.28 2.99-.5 2.843-1.32 4.265-2.44 4.265-.75-.29-1.13-.86-1.13-1.702 0-1.644 3.43-9.186 10.29-22.623l.93-.64zm-.37 5.97c-1.5 2.71-2.88 5.56-4.13 8.55h1.31c1.27 0 2.9-.28 4.88-.86l-1.69-7.69h-.38zm20.15-6.01H194c3.3 0 4.95 1.15 4.95 3.46v.218c0 4.033-3.45 7.7-10.35 11v.204c3.45 3.16 6.32 5.54 8.624 7.12v.64c0 1.11-.36 1.83-1.078 2.15h-.86l-11.845-8.41-.22 4.313v3.234c-.36.72-.93 1.08-1.72 1.08-.57 0-1-.29-1.29-.86v-1.3l1.94-16.83c-.57 0-.86-.43-.86-1.28 0-2.6 2.15-4.11 6.46-4.53l4.1-.22zm-7.54 11.64h.22c7.45-1.91 11.18-4 11.18-6.25v-.22c0-.39-.72-.68-2.16-.86-2.39 0-5.26.51-8.61 1.52l-.64 5.816zm45.26-11.65c1.35 0 2.03.56 2.03 1.68v.42c0 1.55-1.21 2.33-3.63 2.33l-4.52.22c-1.36 7.22-2.03 13.42-2.03 18.62-.37 1.12-.74 1.686-1.13 1.686h-.69c-.78 0-1.23-.214-1.36-.64.76-7.99 1.59-14.48 2.49-19.47l-6.78 1.063c-.64 0-1.01-.64-1.13-1.91 0-2.12 1.88-3.17 5.65-3.17 2.26-.57 5.95-.85 11.08-.85zm18.08.01c.74.2 1.11.7 1.11 1.51v.2c-1.04 15.38-1.78 23.077-2.22 23.077l-.24.22h-.66c-.77 0-1.29-.36-1.56-1.08.29-2.052.43-4.93.43-8.625h-.22l-9.35 2.156-.66.86v4.093c0 1.22-.45 2.09-1.34 2.6h-.44c-.84 0-1.36-.36-1.57-1.08 1.03-15.53 2.51-23.29 4.45-23.29h.43l.67.88c-1.04 5.16-1.56 8.97-1.56 11.43 6.82-.9 10.23-1.97 10.23-3.23l.89-9.06 1.56-.64zm12.15.04h.75c1.03 0 2.34 4.76 3.92 14.296 1.25 4.5 1.87 7.557 1.87 9.17-.26.85-.76 1.28-1.5 1.28-.96 0-1.65-2.276-2.06-6.83l-.19-.202h-.19c-1.63.02-5.05 1.02-10.28 2.988-.5 2.84-1.31 4.265-2.44 4.265-.75-.29-1.13-.86-1.13-1.702 0-1.642 3.43-9.184 10.3-22.62l.93-.64zm-.38 5.97c-1.5 2.706-2.87 5.55-4.12 8.54h1.31c1.27 0 2.89-.282 4.87-.86L259.8 121h-.372zm25.88-6.03c1.35 0 2.03.56 2.03 1.68v.426c0 1.55-1.21 2.327-3.63 2.327l-4.52.22c-1.36 7.22-2.04 13.43-2.04 18.626-.37 1.12-.74 1.68-1.13 1.68h-.69c-.78 0-1.23-.21-1.36-.64.76-7.99 1.59-14.48 2.49-19.47l-6.78 1.06c-.64 0-1.01-.64-1.13-1.91 0-2.11 1.89-3.17 5.66-3.17 2.26-.56 5.95-.85 11.08-.85zm24.37.01h.4c.66.367 1 .93 1 1.706v.437c0 4.625.4 10.04 1.21 16.25h.2c4.46-11.69 7.08-17.53 7.87-17.53h.61c.59 0 1.53 4.06 2.83 12.186 1.21 4.17 1.81 7.66 1.81 10.47-.4 1-1 1.5-1.81 1.5-.54 0-1.28-3.5-2.22-10.49l-1.63-6.83c-1.16 1.86-3.25 6.7-6.27 14.53-.87.89-1.61 1.39-2.22 1.5-1.75 0-2.63-2.35-2.63-7.06l-1-8.97h-.2l-6.07 13.67c-.37 2.28-.71 3.42-1.02 3.42h-.8l-.81-.85v-1.08c0-1.92 1.68-6.05 5.05-12.39 2.39-6.67 3.94-10.09 4.64-10.27l1.01-.22zm34.25.05c.72.16 1.08.705 1.08 1.643-.23 1.77-.94 2.66-2.14 2.66-7.86 0-11.78 1.09-11.78 3.28l-.22 1.84v1.02c5.12-1.23 8.62-1.847 10.5-1.847h.42c.72.316 1.08.998 1.08 2.05 0 1.5-1 2.25-3 2.25-6.57.855-9.86 1.88-9.86 3.08l-.2 2.046v.81c0 1.23.78 1.91 2.34 2.044 2.46-.27 5.53-.885 9.22-1.844h.64c.57.22.86.7.86 1.44v.61c0 1.674-3.58 2.97-10.72 3.89h-.64c-2.58 0-4-1.637-4.28-4.91 0-2.406.5-6.98 1.5-13.72l-.42-1.23c0-2.77 4.28-4.41 12.84-4.91l2.78-.202zm10.73 0h.75c1.03 0 2.34 4.77 3.92 14.3 1.25 4.5 1.87 7.556 1.87 9.17-.26.855-.76 1.28-1.5 1.28-.96 0-1.65-2.274-2.06-6.826l-.19-.203h-.19c-1.63.02-5.06 1.02-10.28 2.99-.5 2.85-1.32 4.27-2.44 4.27-.75-.29-1.13-.86-1.13-1.7 0-1.64 3.43-9.19 10.29-22.62l.94-.64zm-.38 5.97c-1.5 2.71-2.87 5.56-4.12 8.55h1.31c1.27 0 2.89-.288 4.87-.86l-1.68-7.68h-.38zm11.95-6.015c.94 0 2.08 1.78 3.4 5.345 2.56 5.25 5.41 9.74 8.55 13.47 1.05-10.285 1.83-16.34 2.34-18.176l.86-.64h.64c.43 0 .64.283.64.86-1.28 14.683-2.06 22.522-2.34 23.51l-1.28.42c-2.28 0-6.13-4.84-11.53-14.53l-.86-.86-.22.64-.64 9.848v1.28l.22 1.28c-.19 1.71-.76 2.564-1.71 2.564-.87-.31-1.37-.74-1.5-1.28 1.1-15.395 1.88-23.093 2.35-23.093l1.08-.64zm35.04-.014c1.36 0 2.03.56 2.03 1.69v.43c0 1.56-1.21 2.33-3.62 2.33l-4.52.22c-1.35 7.22-2.03 13.43-2.03 18.63-.36 1.13-.74 1.69-1.12 1.69h-.69c-.79 0-1.24-.21-1.36-.64.76-7.99 1.59-14.48 2.48-19.47l-6.78 1.07c-.64 0-1.01-.64-1.13-1.91 0-2.11 1.88-3.17 5.65-3.17 2.26-.56 5.95-.84 11.08-.84zm24.32.06h.75c1.03 0 2.34 4.77 3.92 14.3 1.25 4.5 1.87 7.56 1.87 9.17-.26.86-.76 1.28-1.5 1.28-.96 0-1.64-2.27-2.06-6.82l-.19-.2h-.19c-1.63.02-5.06 1.02-10.28 2.98-.5 2.85-1.32 4.27-2.44 4.27-.75-.29-1.13-.86-1.13-1.7 0-1.65 3.43-9.19 10.3-22.62l.93-.64zm-.37 5.97c-1.5 2.71-2.88 5.56-4.13 8.55h1.31c1.27 0 2.89-.28 4.87-.86L425.6 121h-.373zm25.23-6.01c.95 0 2.08 1.78 3.41 5.34 2.56 5.25 5.41 9.74 8.55 13.47 1.05-10.28 1.83-16.34 2.34-18.17l.86-.64h.64c.43 0 .65.29.65.86-1.28 14.69-2.06 22.52-2.34 23.51l-1.28.42c-2.28 0-6.13-4.84-11.53-14.53l-.86-.86-.22.64-.64 9.85v1.28l.22 1.28c-.19 1.71-.76 2.57-1.71 2.57-.88-.31-1.38-.74-1.5-1.28 1.09-15.4 1.87-23.09 2.34-23.09l1.08-.64zm34.41.05c.72.16 1.08.71 1.08 1.65-.23 1.77-.95 2.66-2.14 2.66-7.86 0-11.78 1.09-11.78 3.28l-.22 1.84v1.02c5.12-1.23 8.62-1.84 10.5-1.84h.42c.72.31 1.08 1 1.08 2.05 0 1.5-1 2.25-3 2.25-6.57.85-9.86 1.88-9.86 3.08l-.2 2.04v.81c0 1.23.78 1.91 2.34 2.04 2.45-.27 5.53-.88 9.21-1.84h.64c.57.22.86.7.86 1.44v.61c0 1.68-3.57 2.97-10.72 3.89h-.64c-2.57 0-4-1.63-4.28-4.9 0-2.41.5-6.98 1.5-13.72l-.42-1.23c0-2.77 4.28-4.4 12.84-4.9l2.78-.2zm2.67 0c.7 0 1.05 2.42 1.05 7.25l1.4 9.19h.34c0-.53 1.4-3.38 4.2-8.54.44-3.4 1.25-5.11 2.45-5.11h.35c.71 0 1.29 2.63 1.75 7.89.78 3.6 1.36 5.73 1.75 6.41.37-1.81 2.24-7.15 5.61-16.01.49-.56.95-.84 1.4-.84.62 0 1.03.28 1.22.85 0 .73-1.75 5.5-5.25 14.3-.59 2.09-1.11 4.94-1.58 8.55-.38.71-.84 1.06-1.41 1.06-1.06 0-1.88-2.41-2.44-7.25-1.15-4.72-1.85-7.28-2.11-7.69l-3.5 6.83c-.58 1.33-1.11 3.61-1.58 6.83-.32.52-.78.88-1.39 1.06-.98 0-1.8-3.69-2.46-11.09-.94-5.23-1.41-9.42-1.41-12.59 0-.43.52-.78 1.58-1.06zm-358.99 42.1l.62.86-.63 8.13 12.75-7.06c.55.69.83 1.54.83 2.56-1.44 2.02-5.13 4.59-11.08 7.7v.22c2.75 3.58 5.89 6.57 9.41 8.97v.44c0 1.99-.7 2.99-2.09 2.99l-10.43-8.54c-.42 5.7-.83 8.55-1.25 8.55l-1.05.22c-.7-.23-1.05-.65-1.05-1.28l.83-10.04-.21-2.56c.48 0 .9-3.14 1.25-9.42.57-1.14 1.27-1.7 2.09-1.7zm18.59-.2h1.47c.48 0 .73.29.73.86-1.15 9.36-1.72 15.85-1.72 19.47v2.38c-.32 1.59-1.13 2.38-2.44 2.38h-.49l-.98-.86c.65-9.81 1.47-17.6 2.45-23.36l.97-.86zm7.09.07c.94 0 2.08 1.78 3.4 5.35 2.56 5.25 5.41 9.74 8.55 13.47 1.05-10.28 1.83-16.34 2.34-18.17l.86-.64h.64c.43 0 .64.29.64.86-1.28 14.69-2.06 22.52-2.34 23.51l-1.28.42c-2.28 0-6.13-4.84-11.53-14.53l-.86-.86-.22.64-.64 9.84v1.28l.22 1.28c-.19 1.71-.76 2.56-1.71 2.56-.87-.31-1.37-.74-1.5-1.28 1.1-15.4 1.88-23.1 2.35-23.1l1.08-.64zm31.42 0h.15c1.38 0 2.31 1.36 2.78 4.06l-.33.42h-.16l-1.31-.42c-3.58.53-7.34 3.03-11.27 7.49-1.1 1.94-1.64 3.29-1.64 4.06v.86c0 2.28 2.34 3.7 7.03 4.26 2.94 0 5.16-1.57 6.69-4.7l-1.96-.84c-.73 0-2.75.85-6.05 2.56-.32-.73-.48-1.44-.48-2.14v-.22c0-2.27 2.18-3.83 6.53-4.7h.33c2.5 0 3.75 1.64 3.75 4.92 0 3.39-2.78 6.38-8.33 8.99l-1.95.43c-3.53 0-5.93-1.49-7.19-4.48l-.33-2.78c0-6.46 3.32-11.95 9.95-16.47 1.67-.85 2.93-1.28 3.76-1.28zm35.04 0c.74.2 1.11.7 1.11 1.52v.21c-1.04 15.39-1.78 23.08-2.22 23.08l-.23.22h-.66c-.77 0-1.29-.36-1.56-1.07.29-2.05.44-4.92.44-8.62h-.22l-9.34 2.15-.66.86v4.09c0 1.22-.45 2.08-1.34 2.59h-.44c-.84 0-1.36-.36-1.56-1.07 1.03-15.53 2.51-23.3 4.45-23.3h.44l.67.88c-1.04 5.16-1.56 8.96-1.56 11.42 6.82-.89 10.23-1.97 10.23-3.23l.89-9.06 1.56-.64zm12.16.05h.75c1.03 0 2.34 4.77 3.92 14.3 1.25 4.5 1.88 7.56 1.88 9.17-.26.86-.76 1.28-1.5 1.28-.96 0-1.65-2.27-2.07-6.82l-.19-.2h-.19c-1.63.02-5.05 1.02-10.28 2.99-.5 2.85-1.31 4.27-2.44 4.27-.75-.29-1.12-.86-1.12-1.7 0-1.65 3.43-9.19 10.29-22.63l.94-.64zm-.37 5.97c-1.5 2.71-2.88 5.56-4.13 8.55h1.31c1.27 0 2.89-.29 4.87-.86l-1.69-7.69h-.37zm16.88-6.03h.95c4.53 0 7.3 1.8 8.33 5.39l.19 1.72c0 7.16-5.31 13.05-15.91 17.69l-.92.22h-.21c-.28 0-.53-.5-.75-1.51l1.89-18.54c-.76 0-1.14-.21-1.14-.64v-.44c0-2.3 1.01-3.44 3.03-3.44l4.55-.44zm-3.79 4.53c-1.13 7.38-1.7 12.33-1.7 14.88v1.08c7.95-3.97 11.92-7.71 11.92-11.22v-.2c0-2.02-.57-3.03-1.7-3.03-1.41-1-3.68-1.5-6.81-1.5h-1.7zm36.14-4.48c4.22 0 6.33 1.44 6.33 4.32v.64c0 2.01-.95 3.95-2.86 5.81v.22c3.14.95 4.7 2.53 4.7 4.73v.86c0 3.61-3.54 6.26-10.63 7.96l-3.487.44h-2.03c-1.09 0-1.64-.57-1.64-1.72v-.21l1.64-17.65c-.687 0-1.03-.14-1.03-.42v-1.3c0-2.44 3-3.66 9-3.66zm-5.93 9.69h.22c6.4 0 9.59-1.44 9.59-4.31-1.05-.71-2.82-1.06-5.31-1.06h-2.45c-1.08 0-1.63.5-1.63 1.5l-.42 3.88zm-.4 4.1l-.4 6.87 2.05.44.21-.22h1.01c5.73-.75 8.59-2.11 8.59-4.07-1.89-2.01-4.82-3.01-8.8-3.01h-.81l-.2-.22-.2.22h-1.44zm32.3-13.78c.72.15 1.08.7 1.08 1.64-.23 1.77-.94 2.65-2.14 2.65-7.85 0-11.78 1.1-11.78 3.28l-.22 1.85v1.02c5.13-1.23 8.63-1.84 10.5-1.84h.42c.72.32 1.08 1 1.08 2.05 0 1.5-1 2.25-3 2.25-6.57.85-9.86 1.88-9.86 3.08l-.2 2.05v.82c0 1.23.78 1.91 2.34 2.05 2.46-.27 5.53-.89 9.22-1.84h.64c.57.22.86.69.86 1.43v.61c0 1.68-3.57 2.97-10.72 3.89h-.64c-2.57 0-4-1.64-4.28-4.91 0-2.41.5-6.98 1.5-13.72l-.42-1.24c0-2.77 4.28-4.4 12.85-4.9l2.78-.2zm17.8 0c.72.15 1.08.7 1.08 1.64-.23 1.77-.94 2.65-2.14 2.65-7.85 0-11.78 1.1-11.78 3.28l-.22 1.85v1.02c5.13-1.23 8.63-1.84 10.5-1.84h.42c.72.32 1.08 1 1.08 2.05 0 1.5-1 2.25-3 2.25-6.57.85-9.86 1.88-9.86 3.08l-.2 2.05v.82c0 1.23.78 1.91 2.35 2.05 2.46-.27 5.53-.89 9.22-1.84h.64c.58.22.86.69.86 1.43v.61c0 1.68-3.57 2.97-10.72 3.89h-.64c-2.57 0-4-1.64-4.28-4.91 0-2.41.5-6.98 1.5-13.72l-.42-1.24c0-2.77 4.28-4.4 12.85-4.9l2.78-.2zm4.52-.05c.95 0 2.08 1.78 3.4 5.34 2.56 5.25 5.41 9.74 8.55 13.47 1.05-10.28 1.83-16.34 2.34-18.17l.86-.64h.64c.43 0 .64.28.64.86-1.28 14.68-2.06 22.52-2.34 23.51l-1.28.42c-2.28 0-6.13-4.84-11.53-14.53l-.86-.86-.22.64-.64 9.85v1.28l.22 1.29c-.19 1.71-.76 2.57-1.71 2.57-.88-.31-1.38-.74-1.5-1.28 1.09-15.4 1.87-23.1 2.34-23.1l1.08-.64zm40.59.05c4.22 0 6.33 1.44 6.33 4.32v.64c0 2.01-.95 3.94-2.86 5.81v.22c3.14.94 4.71 2.52 4.71 4.73v.86c0 3.6-3.54 6.25-10.63 7.95l-3.49.43h-2.03c-1.1 0-1.65-.57-1.65-1.72v-.22l1.64-17.66c-.69 0-1.03-.14-1.03-.42v-1.3c0-2.44 3-3.65 9-3.65zm-5.94 9.69h.22c6.4 0 9.59-1.44 9.59-4.31-1.05-.71-2.82-1.06-5.31-1.06h-2.45c-1.08 0-1.62.5-1.62 1.5l-.42 3.88zm-.41 4.1l-.4 6.88 2.05.44.2-.22h1.02c5.73-.75 8.59-2.11 8.59-4.08-1.89-2.01-4.82-3.01-8.8-3.01h-.82l-.204-.22-.2.22h-1.43zM393.48 157c4.45.616 6.67 3.277 6.67 7.986 0 6.168-2.44 11.27-7.31 15.31-2.01 1.15-3.8 1.72-5.39 1.72-3.86 0-6.35-2.08-7.47-6.25l-.15-1.935v-.66c0-6.73 3.08-11.83 9.22-15.31 1.54-.57 3.02-.86 4.44-.86zm-11.58 16.83c1.6 2.436 3.72 3.655 6.36 3.655 4.24 0 7.2-2.517 8.89-7.548l.31-2.377c0-3.54-1.74-5.62-5.23-6.25h-.48c-2.88 0-5.9 2.88-9.04 8.63-.53 1.73-.79 3.03-.79 3.89zM412.79 157h2.16c3.3 0 4.95 1.15 4.95 3.453v.22c0 4.03-3.45 7.695-10.342 11v.2c3.45 3.166 6.33 5.54 8.63 7.124v.64c0 1.114-.36 1.83-1.08 2.155h-.86l-11.84-8.4-.22 4.32v3.23c-.36.72-.94 1.08-1.72 1.08-.57 0-1-.28-1.29-.86v-1.29l1.94-16.83c-.573 0-.86-.43-.86-1.28 0-2.595 2.15-4.106 6.45-4.53l4.098-.22zm-7.53 11.64h.22c7.46-1.916 11.19-4 11.19-6.25v-.22c0-.394-.72-.68-2.15-.857-2.385 0-5.255.503-8.61 1.514l-.64 5.81zM423.32 157c.95 0 2.09 1.78 3.41 5.344 2.57 5.25 5.41 9.74 8.55 13.47 1.057-10.284 1.84-16.34 2.35-18.175l.86-.64h.64c.43 0 .64.28.64.86-1.28 14.68-2.06 22.52-2.34 23.51l-1.28.42c-2.28 0-6.126-4.84-11.53-14.53l-.86-.86-.22.64-.64 9.85v1.28l.22 1.28c-.19 1.71-.757 2.57-1.705 2.57-.876-.31-1.376-.74-1.5-1.28 1.093-15.39 1.874-23.09 2.343-23.09l1.08-.64zm28.05-3.92c.63.29.94.64.94 1.043-2.97 9.56-4.45 15.62-4.45 18.17-.84.98-1.55 1.47-2.12 1.47-.93-.33-1.4-.75-1.4-1.25 1.48-12.96 3.44-19.44 5.88-19.44h1.175zm-5.542 23.45c1.48.28 2.22 1.06 2.22 2.32v.205c-.596 1.98-2.02 2.97-4.27 2.97-1.113 0-1.785-.77-2.014-2.316 0-1.78 1.36-2.84 4.06-3.17zm36.515-23.48h.425c1.81.2 2.714 1.02 2.714 2.44v.49c0 2.436-.904 4.706-2.72 6.81h-.42c-.282-.07-.56-.48-.83-1.22l1.046-3.64-.84-.5c-1.926.16-5.49 2.104-10.69 5.844v.25l13.83 2.437c1.397 1.01 2.095 2.72 2.095 5.11v1.46c0 3.27-2.3 6.12-6.905 8.53-1.82.65-3.56.97-5.24.97h-.42c-4.82 0-7.75-1.94-8.8-5.84v-1.46c0-1.79.49-2.69 1.47-2.69.96 3.09 2.7 4.63 5.23 4.63 0 .33 1.04.49 3.14.49 3.1 0 6.1-1.46 9-4.38 0-1.93-4.47-3.15-13.41-3.66-3.21-.82-4.81-2.04-4.81-3.64 0-3.96 4.33-7.94 12.98-11.94l3.14-.49zm20.03 3.96c4.45.616 6.676 3.28 6.676 7.986 0 6.17-2.44 11.27-7.32 15.31-2.01 1.15-3.81 1.72-5.39 1.72-3.87 0-6.36-2.08-7.47-6.25l-.16-1.934v-.65c0-6.73 3.07-11.83 9.22-15.31 1.54-.57 3.02-.86 4.44-.86zm-11.59 16.83c1.605 2.44 3.725 3.656 6.36 3.656 4.24 0 7.204-2.513 8.89-7.544l.314-2.37c0-3.54-1.74-5.62-5.23-6.25h-.48c-2.882 0-5.9 2.88-9.044 8.63-.53 1.73-.8 3.03-.8 3.89zm-345.43 25.22c.7 0 1.048 2.415 1.048 7.25l1.41 9.186h.34c0-.53 1.4-3.38 4.21-8.544.44-3.4 1.26-5.11 2.46-5.11h.35c.71 0 1.3 2.63 1.75 7.89.79 3.6 1.37 5.73 1.75 6.41.38-1.81 2.25-7.15 5.61-16.01.49-.56.96-.84 1.41-.84.63 0 1.03.28 1.22.85 0 .73-1.75 5.5-5.25 14.3-.58 2.09-1.11 4.94-1.58 8.55-.37.71-.84 1.068-1.4 1.068-1.06 0-1.87-2.42-2.43-7.25-1.14-4.72-1.85-7.28-2.11-7.69l-3.5 6.83c-.58 1.33-1.11 3.61-1.58 6.826-.31.52-.77.875-1.39 1.06-.97 0-1.79-3.696-2.45-11.09-.94-5.23-1.4-9.427-1.4-12.59 0-.43.53-.78 1.58-1.06zm38.236 0c.72.155 1.07.7 1.07 1.64-.23 1.77-.94 2.655-2.14 2.655-7.86 0-11.78 1.094-11.78 3.28l-.22 1.845v1.02c5.12-1.23 8.62-1.85 10.5-1.85h.42c.72.31 1.08 1 1.08 2.05 0 1.5-1 2.25-3 2.25-6.58.85-9.86 1.88-9.86 3.08l-.2 2.04v.81c0 1.23.78 1.91 2.34 2.04 2.45-.27 5.53-.89 9.21-1.848h.64c.57.22.86.7.86 1.44v.61c0 1.68-3.57 2.97-10.72 3.89h-.64c-2.58 0-4-1.633-4.28-4.91 0-2.4.5-6.98 1.5-13.72l-.43-1.23c0-2.77 4.29-4.41 12.85-4.91l2.78-.2zm29.64 0h.92c1.16 0 1.85.93 2.08 2.795v.44c0 2.82-1.07 4.685-3.21 5.59l-.38-.436v-.22l.96-3.66-.75-.42c-3.11 0-6.81 2.94-11.11 8.82-1.02 1.78-1.53 3.14-1.53 4.08v.22c0 2.3 1.39 3.44 4.16 3.44h.18c2.67 0 5.62-.71 8.86-2.14h.58c.5.23.75.73.75 1.5v.86c-2.67 2.73-5.8 4.09-9.41 4.09-4.91-.51-7.36-2.94-7.36-7.31v-.44c0-5.57 3.95-11.02 11.86-16.36 1.5-.57 2.63-.86 3.4-.86zm12.64 0h.75c1.03 0 2.34 4.764 3.92 14.295 1.25 4.5 1.87 7.56 1.87 9.172-.26.852-.76 1.28-1.5 1.28-.96 0-1.65-2.277-2.06-6.83l-.19-.2h-.19c-1.63.02-5.06 1.016-10.29 2.984-.5 2.85-1.31 4.27-2.44 4.27-.75-.29-1.12-.86-1.12-1.7 0-1.65 3.43-9.19 10.29-22.62l.93-.64zm-.38 5.97c-1.5 2.705-2.88 5.554-4.13 8.544h1.31c1.27 0 2.9-.286 4.87-.86l-1.69-7.69h-.37zm18.23-6.02h.4c.66.365 1 .933 1 1.703v.44c0 4.63.4 10.046 1.22 16.25h.2c4.46-11.684 7.08-17.53 7.87-17.53h.61c.59 0 1.53 4.06 2.83 12.19 1.21 4.17 1.81 7.656 1.81 10.47-.4 1-1 1.5-1.81 1.5-.54 0-1.28-3.496-2.22-10.485l-1.63-6.83c-1.16 1.85-3.25 6.694-6.27 14.53-.87.883-1.6 1.383-2.22 1.5-1.75 0-2.62-2.356-2.62-7.065l-1-8.97h-.21l-6.06 13.675c-.37 2.28-.71 3.42-1.02 3.42h-.8l-.81-.84v-1.078c0-1.92 1.69-6.05 5.05-12.39 2.39-6.67 3.94-10.09 4.64-10.27l1.01-.22zm34.25.05c.71.154 1.07.7 1.07 1.64-.23 1.77-.94 2.653-2.14 2.653-7.85 0-11.78 1.1-11.78 3.28l-.22 1.85v1.016c5.13-1.23 8.63-1.85 10.5-1.85h.42c.72.31 1.08.99 1.08 2.04 0 1.5-1 2.25-3 2.25-6.57.85-9.86 1.88-9.86 3.07l-.2 2.04v.81c0 1.23.78 1.91 2.35 2.04 2.46-.27 5.53-.89 9.22-1.85h.64c.57.22.86.7.86 1.44v.61c0 1.67-3.58 2.97-10.72 3.89h-.64c-2.58 0-4-1.64-4.29-4.91 0-2.41.5-6.98 1.5-13.72l-.42-1.23c0-2.77 4.28-4.41 12.84-4.91l2.78-.2zm31.71-.06c1.36 0 2.03.56 2.03 1.682v.42c0 1.56-1.21 2.33-3.62 2.33l-4.52.22c-1.36 7.22-2.03 13.43-2.03 18.63-.37 1.13-.74 1.69-1.13 1.69h-.69c-.78 0-1.24-.21-1.36-.64.76-7.99 1.59-14.48 2.48-19.47l-6.78 1.07c-.64 0-1.01-.63-1.13-1.902 0-2.11 1.89-3.17 5.66-3.17 2.26-.56 5.95-.84 11.08-.84zm15.05.01c4.45.614 6.67 3.275 6.67 7.984 0 6.165-2.44 11.27-7.31 15.31-2.01 1.147-3.81 1.72-5.39 1.72-3.87 0-6.36-2.083-7.47-6.25l-.16-1.94v-.654c0-6.73 3.07-11.84 9.22-15.32 1.54-.57 3.02-.86 4.43-.86zm-11.6 16.83c1.61 2.435 3.73 3.654 6.36 3.654 4.24 0 7.21-2.52 8.89-7.55l.32-2.373c0-3.54-1.75-5.62-5.23-6.25H323c-2.886 0-5.9 2.88-9.048 8.63-.53 1.73-.797 3.03-.797 3.89zm46.41-16.78h2.02c.89.56 1.34 1.19 1.34 1.89-.24 1.674-.99 2.513-2.24 2.513-3.6 0-7.1.347-10.52 1.045l-.44 4.623 1.11.2h.89c2.65 0 5.7-.42 9.17-1.26l.67 1.27c-.34 2.52-1.38 3.78-3.13 3.78-1.09.55-4.14.97-9.17 1.25-.36 6.3-.96 9.45-1.8 9.45l-.89.21h-.22c-.38 0-.6-.28-.67-.84 0-3.42.59-9.72 1.78-18.87l-.66-.64c0-2.11 1.49-3.37 4.47-3.76 2.99-.57 5.74-.85 8.27-.85zm8.38-.11h1.46c.49 0 .74.283.74.86-1.15 9.35-1.72 15.84-1.72 19.465v2.375c-.32 1.58-1.14 2.37-2.44 2.37h-.48l-.99-.86c.66-9.82 1.47-17.6 2.45-23.36l.97-.86zm7.09.06c.95 0 2.08 1.78 3.41 5.343 2.56 5.25 5.41 9.74 8.55 13.47 1.05-10.283 1.83-16.34 2.34-18.174l.86-.64h.64c.43 0 .64.28.64.86-1.28 14.68-2.06 22.52-2.34 23.51l-1.28.42c-2.28 0-6.13-4.85-11.53-14.53l-.86-.86-.22.64-.64 9.84v1.28l.22 1.28c-.19 1.71-.76 2.56-1.71 2.56-.88-.31-1.38-.74-1.5-1.28 1.09-15.39 1.87-23.09 2.34-23.09L375 199zm26.03 0h.95c4.53 0 7.31 1.8 8.33 5.39l.19 1.72c0 7.155-5.31 13.05-15.91 17.69l-.94.22h-.21c-.28 0-.53-.508-.75-1.52l1.89-18.544c-.76 0-1.14-.21-1.14-.64v-.44c0-2.29 1.01-3.434 3.03-3.434l4.55-.44zm-3.78 4.53c-1.14 7.38-1.7 12.336-1.7 14.88v1.08c7.95-3.97 11.92-7.71 11.92-11.22v-.2c0-2.02-.57-3.03-1.7-3.03-1.41-1-3.68-1.5-6.81-1.5h-1.71zm43.22-4.53c.74.2 1.11.705 1.11 1.52v.202c-1.04 15.39-1.78 23.08-2.22 23.08l-.24.22h-.66c-.77 0-1.29-.36-1.56-1.08.29-2.05.43-4.92.43-8.62h-.22l-9.34 2.16-.66.86v4.09c0 1.22-.45 2.08-1.34 2.59h-.44c-.83 0-1.36-.36-1.56-1.08 1.03-15.53 2.51-23.3 4.45-23.3h.44l.67.88c-1.04 5.16-1.56 8.97-1.56 11.43 6.82-.89 10.23-1.97 10.23-3.23l.89-9.06 1.56-.64zm7.53-.06h1.47c.49 0 .73.286.73.86-1.14 9.35-1.72 15.84-1.72 19.47v2.374c-.32 1.585-1.13 2.377-2.43 2.377h-.48l-.98-.86c.66-9.81 1.48-17.59 2.46-23.36l.96-.85zm13.37.06h.41c.66.37 1 .935 1 1.705v.44c0 4.625.4 10.042 1.21 16.25h.2c4.46-11.688 7.08-17.53 7.872-17.53h.61c.593 0 1.535 4.06 2.83 12.186 1.202 4.17 1.81 7.66 1.81 10.47-.4 1-1 1.5-1.81 1.5-.54 0-1.28-3.49-2.22-10.48l-1.63-6.83c-1.16 1.85-3.25 6.7-6.27 14.53-.867.89-1.606 1.39-2.22 1.5-1.75 0-2.626-2.35-2.626-7.06l-1-8.97h-.2l-6.06 13.68c-.36 2.28-.7 3.42-1.01 3.42h-.79l-.82-.84v-1.08c0-1.91 1.687-6.04 5.05-12.39 2.4-6.67 3.945-10.09 4.64-10.26l1.02-.22zm27.89-3.92c.63.29.94.64.94 1.05-2.97 9.56-4.46 15.62-4.46 18.17-.84.98-1.55 1.47-2.13 1.47-.94-.338-1.41-.75-1.41-1.25 1.48-12.96 3.44-19.44 5.87-19.44h1.17zm-5.55 23.454c1.48.28 2.22 1.05 2.22 2.31v.2c-.6 1.98-2.02 2.97-4.27 2.97-1.12 0-1.79-.77-2.02-2.31 0-1.78 1.35-2.84 4.06-3.17z" fill="#000"/><path d="M856.317 298.423L790 382l-3.502-77.04c-107.272-1.648-193.4-55.173-193.4-120.96 0-66.826 88.87-121 198.5-121 109.628 0 198.5 54.174 198.5 121 0 53.013-55.93 98.064-133.78 114.423z" stroke="#000" stroke-width="4" fill="#FFF"/><path d="M724.21 103h.985c1.365 0 3.09 5.536 5.172 16.61 1.646 5.23 2.47 8.78 2.47 10.656-.345.99-1 1.484-1.97 1.484-1.26 0-2.166-2.64-2.72-7.922l-.233-.25h-.25c-2.146.02-6.66 1.177-13.547 3.47-.646 3.3-1.713 4.952-3.203 4.952-.99-.344-1.484-1.005-1.484-1.984 0-1.907 4.515-10.662 13.547-26.266l1.234-.75zm-.39 6.938c-1.98 3.145-3.786 6.453-5.422 9.92h1.72c1.676 0 3.812-.332 6.405-1l-2.218-8.92h-.485zm13.844-2.954c.948 0 2.083 1.782 3.406 5.344 2.563 5.25 5.412 9.74 8.547 13.47 1.052-10.282 1.834-16.34 2.344-18.173l.86-.64h.64c.43 0 .65.286.65.86-1.28 14.686-2.06 22.525-2.34 23.514l-1.28.42c-2.28 0-6.12-4.85-11.53-14.53l-.86-.86-.22.64-.64 9.84v1.28l.22 1.28c-.19 1.71-.75 2.56-1.7 2.56-.87-.32-1.37-.74-1.5-1.28 1.1-15.4 1.88-23.1 2.35-23.1l1.08-.64zm26.03 0h.954c4.532 0 7.308 1.797 8.33 5.39l.186 1.72c0 7.156-5.302 13.052-15.906 17.687l-.938.22h-.203c-.28 0-.53-.5-.75-1.51l1.89-18.54c-.76 0-1.14-.21-1.14-.64v-.44c0-2.29 1.01-3.43 3.03-3.43l4.548-.44zm-3.78 4.532c-1.135 7.375-1.703 12.333-1.703 14.875v1.08c7.95-3.97 11.93-7.71 11.93-11.22v-.2c0-2.02-.57-3.03-1.7-3.03-1.4-1-3.67-1.5-6.81-1.5h-1.7zm28.11-4.485c.697 0 1.046 2.42 1.046 7.25l1.407 9.19h.343c0-.53 1.4-3.38 4.203-8.54.438-3.4 1.256-5.11 2.454-5.11h.343c.71 0 1.292 2.63 1.75 7.89.782 3.6 1.365 5.73 1.75 6.41.375-1.81 2.245-7.15 5.61-16.01.49-.56.958-.84 1.406-.84.625 0 1.03.28 1.22.85 0 .73-1.75 5.5-5.25 14.3-.585 2.09-1.11 4.94-1.58 8.55-.374.71-.843 1.07-1.406 1.07-1.062 0-1.875-2.41-2.437-7.25-1.146-4.72-1.85-7.28-2.11-7.69l-3.5 6.83c-.583 1.33-1.11 3.61-1.578 6.83-.312.52-.776.88-1.39 1.06-.98 0-1.797-3.7-2.453-11.09-.938-5.23-1.407-9.42-1.407-12.59 0-.42.526-.78 1.578-1.06zm38.234 0c.72.16 1.078.71 1.078 1.65-.23 1.77-.943 2.66-2.14 2.66-7.855 0-11.782 1.1-11.782 3.28l-.22 1.85v1.02c5.126-1.23 8.626-1.84 10.5-1.84h.423c.72.32 1.078 1 1.078 2.05 0 1.5-1 2.25-3 2.25-6.573.86-9.86 1.88-9.86 3.08l-.202 2.05v.81c0 1.23.78 1.91 2.344 2.05 2.458-.27 5.53-.88 9.218-1.84h.64c.574.22.86.7.86 1.44v.61c0 1.68-3.573 2.97-10.718 3.89h-.64c-2.574 0-4-1.63-4.282-4.9 0-2.41.5-6.98 1.5-13.72l-.422-1.23c0-2.77 4.28-4.41 12.844-4.91l2.78-.2zm7.36-3.98c1.52.49 2.28 1.16 2.28 2-.322 1.33-2.317 4.23-5.984 8.72h-1.437l-1.125-.89v-.67l4.28-6.92c.292-1.49.954-2.23 1.985-2.23zm20.28 3.94h.625c.563.23.844.73.844 1.5 0 1.04-2.177 5.53-6.53 13.47-2.136 5.95-3.47 9.16-4 9.63l-2.095.42c-.916 0-1.552-1.64-1.906-4.92-2.802-9.88-4.203-15.94-4.203-18.17.23-.64.65-1.14 1.265-1.5h.844c.76 0 1.53 3 2.313 8.99l2.53 9.41h.204c1.45-3.85 4.61-9.98 9.46-18.39l.64-.42zm18.172.05c.72.16 1.078.71 1.078 1.64-.23 1.77-.942 2.66-2.14 2.66-7.854 0-11.78 1.1-11.78 3.28l-.22 1.85v1.02c5.125-1.23 8.625-1.84 10.5-1.84h.422c.718.32 1.078 1 1.078 2.05 0 1.5-1 2.25-3 2.25-6.573.86-9.86 1.88-9.86 3.08l-.203 2.05v.81c0 1.23.782 1.91 2.344 2.05 2.45-.27 5.53-.88 9.21-1.84h.64c.57.22.86.7.86 1.44v.61c0 1.68-3.58 2.97-10.72 3.89h-.64c-2.57 0-4-1.63-4.28-4.9 0-2.4.5-6.98 1.5-13.72l-.43-1.23c0-2.77 4.28-4.4 12.84-4.9l2.78-.2zm-191.117 42c4.22 0 6.328 1.44 6.328 4.32v.64c0 2.01-.95 3.95-2.85 5.82v.22c3.14.95 4.71 2.53 4.71 4.74v.86c0 3.61-3.54 6.26-10.62 7.95l-3.48.44H673c-1.095 0-1.64-.57-1.64-1.72v-.22l1.64-17.66c-.69 0-1.03-.14-1.03-.42v-1.3c0-2.44 3-3.65 9-3.65zm-5.937 9.69h.218c6.396 0 9.594-1.44 9.594-4.31-1.052-.71-2.823-1.06-5.312-1.06h-2.453c-1.084 0-1.625.5-1.625 1.5l-.422 3.88zm-.407 4.1l-.41 6.88 2.04.44.2-.22h1.01c5.73-.75 8.59-2.1 8.59-4.07-1.89-2.01-4.82-3.01-8.8-3.01h-.82l-.2-.22-.2.22h-1.44zM701.82 149h2.15c3.3 0 4.952 1.15 4.952 3.453v.22c0 4.03-3.447 7.697-10.343 11v.2c3.45 3.168 6.32 5.54 8.62 7.126v.64c0 1.11-.36 1.83-1.08 2.15h-.86l-11.84-8.41-.22 4.31v3.23c-.37.72-.94 1.07-1.72 1.07-.58 0-1.01-.29-1.3-.86v-1.3l1.94-16.83c-.58 0-.86-.43-.86-1.29 0-2.6 2.15-4.11 6.45-4.53l4.09-.22zm-7.53 11.64h.22c7.46-1.917 11.18-4 11.18-6.25v-.22c0-.395-.72-.68-2.157-.86-2.386 0-5.255.506-8.61 1.517l-.64 5.813zM722.58 149c4.45.614 6.67 3.275 6.67 7.984 0 6.166-2.44 11.27-7.313 15.31-2.01 1.148-3.807 1.72-5.39 1.72-3.865 0-6.355-2.082-7.47-6.25l-.155-1.937v-.655c0-6.73 3.072-11.83 9.22-15.31 1.54-.573 3.02-.86 4.436-.86zM711 165.81c1.604 2.438 3.724 3.657 6.36 3.657 4.24 0 7.202-2.517 8.89-7.548l.313-2.38c0-3.54-1.745-5.63-5.235-6.25h-.484c-2.886 0-5.9 2.87-9.047 8.62-.53 1.73-.797 3.02-.797 3.89zm23.906-16.828c.667.27 1.037.552 1.11.844-1.188 7.427-1.782 12.823-1.782 16.188v2.312c3.98 0 7.24-1.823 9.782-5.47 1-8.832 1.963-13.25 2.89-13.25h.235c.89.095 1.33.31 1.33.642-1.33 8.042-2 14.068-2 18.078v3.36c0 1.104-.45 1.874-1.34 2.312h-.89l-.87-.844v-.422l.22-3.562c-.53 0-3.42 1.328-8.67 3.984l-1.56.422c-1.78-.23-2.67-1-2.67-2.312v-.203c1.08-14.72 2.35-22.08 3.78-22.08h.46zm27.938 0H763c1.385 0 2.312 1.355 2.78 4.063l-.327.422h-.156l-1.313-.423c-3.583.53-7.338 3.026-11.265 7.484-1.1 1.94-1.65 3.293-1.65 4.064v.86c0 2.28 2.34 3.702 7.03 4.265 2.94 0 5.17-1.57 6.69-4.704l-1.96-.844c-.73 0-2.75.85-6.05 2.56-.33-.73-.49-1.44-.49-2.14v-.22c0-2.27 2.18-3.84 6.53-4.7h.33c2.5 0 3.75 1.64 3.75 4.92 0 3.38-2.78 6.38-8.33 8.98l-1.96.42c-3.53 0-5.93-1.5-7.19-4.49l-.33-2.78c0-6.46 3.31-11.95 9.95-16.47 1.67-.86 2.93-1.28 3.76-1.28zm21.765 0c.74.198 1.11.703 1.11 1.516v.203c-1.05 15.39-1.79 23.08-2.22 23.08l-.24.22h-.66c-.77 0-1.29-.36-1.57-1.08.29-2.05.43-4.92.43-8.62h-.22l-9.35 2.16-.66.86v4.1c0 1.22-.45 2.09-1.35 2.6h-.44c-.84 0-1.36-.36-1.56-1.08 1.03-15.53 2.51-23.29 4.45-23.29h.44l.67.88c-1.04 5.15-1.56 8.96-1.56 11.42 6.82-.9 10.23-1.97 10.23-3.23l.89-9.06 1.56-.64zm19.86-.015c1.35 0 2.03.56 2.03 1.686v.422c0 1.552-1.21 2.328-3.63 2.328l-4.52.22c-1.36 7.218-2.03 13.426-2.03 18.624-.37 1.125-.74 1.688-1.13 1.688h-.69c-.78 0-1.24-.214-1.36-.64.76-7.99 1.59-14.48 2.48-19.47l-6.78 1.063c-.64 0-1.01-.635-1.13-1.906 0-2.114 1.88-3.172 5.65-3.172 2.26-.562 5.95-.843 11.08-.843zm28.39.014h.15c1.38 0 2.31 1.36 2.78 4.07l-.33.42h-.16l-1.32-.42c-3.59.53-7.34 3.03-11.27 7.49-1.1 1.94-1.64 3.3-1.64 4.07v.86c0 2.28 2.34 3.71 7.03 4.27 2.94 0 5.17-1.57 6.69-4.7l-1.96-.84c-.73 0-2.75.86-6.05 2.56-.33-.73-.49-1.44-.49-2.14v-.22c0-2.27 2.17-3.83 6.53-4.7h.33c2.5 0 3.75 1.64 3.75 4.93 0 3.38-2.78 6.38-8.33 8.98l-1.96.43c-3.53 0-5.93-1.49-7.19-4.48l-.33-2.78c0-6.46 3.32-11.95 9.95-16.47 1.67-.85 2.93-1.28 3.76-1.28zm10.09-.06h1.47c.49 0 .73.29.73.86-1.15 9.36-1.72 15.85-1.72 19.47v2.38c-.33 1.59-1.14 2.38-2.44 2.38h-.49l-.99-.86c.66-9.81 1.47-17.6 2.45-23.36l.97-.86zm17.53.11h2.01c.89.56 1.34 1.19 1.34 1.89-.24 1.68-.99 2.52-2.24 2.52-3.6 0-7.1.35-10.52 1.05l-.44 4.63 1.11.2h.89c2.64 0 5.7-.42 9.17-1.26l.67 1.27c-.33 2.52-1.38 3.78-3.13 3.78-1.08.56-4.14.97-9.17 1.25-.36 6.31-.95 9.46-1.8 9.46l-.89.2h-.22c-.37 0-.6-.28-.67-.84 0-3.42.59-9.72 1.78-18.87l-.66-.64c0-2.11 1.49-3.37 4.47-3.77 2.98-.56 5.74-.84 8.26-.84zm20.7-.06c1.35 0 2.03.56 2.03 1.69v.42c0 1.55-1.21 2.33-3.63 2.33l-4.52.22c-1.36 7.22-2.03 13.43-2.03 18.63-.37 1.13-.74 1.69-1.13 1.69h-.69c-.78 0-1.24-.21-1.36-.64.76-7.99 1.59-14.48 2.48-19.47l-6.78 1.06c-.64 0-1.01-.63-1.13-1.9 0-2.11 1.88-3.17 5.65-3.17 2.26-.56 5.95-.84 11.07-.84zm14.62.06h.33c1.43.18 2.15.88 2.15 2.1v.43c0 2.11-.72 4.06-2.16 5.88h-.33c-.23-.06-.46-.41-.68-1.04l.84-3.14-.66-.42c-1.53.14-4.35 1.82-8.44 5.04v.2l10.91 2.11c1.1.88 1.65 2.35 1.65 4.41v1.25c0 2.83-1.82 5.27-5.45 7.35-1.43.57-2.81.85-4.14.85h-.34c-3.8 0-6.11-1.67-6.94-5.03v-1.27c0-1.54.38-2.31 1.15-2.31.76 2.67 2.14 4 4.14 4 0 .27.83.41 2.48.41 2.45 0 4.82-1.25 7.11-3.76 0-1.66-3.53-2.71-10.58-3.15-2.54-.71-3.81-1.75-3.81-3.14 0-3.41 3.41-6.83 10.25-10.28l2.48-.42zm15.9-3.97c.62.29.93.64.93 1.05-2.97 9.56-4.46 15.62-4.46 18.17-.85.98-1.55 1.47-2.13 1.47-.94-.33-1.41-.75-1.41-1.25 1.48-12.96 3.44-19.44 5.87-19.44h1.17zm-5.55 23.46c1.48.28 2.22 1.05 2.22 2.31v.21c-.6 1.98-2.02 2.97-4.27 2.97-1.12 0-1.79-.77-2.02-2.31 0-1.78 1.35-2.84 4.06-3.17zm-257.12 18.52h.23c1.93 0 3.22 1.57 3.87 4.71l-.46.5h-.24l-1.83-.5c-5.01.62-10.26 3.51-15.74 8.67-1.52 2.24-2.28 3.81-2.28 4.71v.98c0 2.65 3.27 4.3 9.81 4.95 4.1 0 7.21-1.82 9.34-5.45l-2.73-.98c-1.01 0-3.83.99-8.44 2.97-.46-.84-.69-1.66-.69-2.47v-.25c0-2.63 3.04-4.45 9.12-5.45h.45c3.5 0 5.25 1.9 5.25 5.71 0 3.92-3.88 7.38-11.63 10.39l-2.75.5c-4.92 0-8.26-1.73-10.03-5.2l-.46-3.22c0-7.46 4.64-13.82 13.91-19.06 2.34-.99 4.09-1.48 5.25-1.48zm20.22 3.96c4.44.62 6.67 3.28 6.67 7.99 0 6.16-2.44 11.27-7.32 15.31-2.01 1.14-3.81 1.72-5.39 1.72-3.87 0-6.36-2.09-7.47-6.25l-.16-1.94v-.66c0-6.73 3.07-11.83 9.21-15.31 1.54-.57 3.02-.86 4.44-.86zm-11.59 16.82c1.6 2.44 3.72 3.66 6.36 3.66 4.24 0 7.2-2.52 8.89-7.55l.31-2.38c0-3.54-1.75-5.62-5.24-6.25h-.49c-2.89 0-5.9 2.88-9.05 8.63-.54 1.73-.8 3.03-.8 3.89zM680.13 191h.213c.675 0 1.243.35 1.7 1.045-.99 7.21-1.696 13.66-2.124 19.35l12.18-2.516.42.62v1.26c0 1.92-4.42 3.67-13.25 5.25-1.57-.28-2.36-.77-2.36-1.47 1.17-15.41 2.02-23.12 2.56-23.12l.64-.42zm21.26 0h.955c4.53 0 7.304 1.795 8.324 5.39l.18 1.72c0 7.154-5.3 13.05-15.91 17.685l-.94.22h-.2c-.28 0-.53-.5-.75-1.51l1.89-18.55c-.76 0-1.14-.212-1.14-.64v-.44c0-2.29 1.01-3.435 3.03-3.435l4.54-.435zm-3.78 4.53c-1.134 7.374-1.7 12.332-1.7 14.874v1.08c7.95-3.97 11.924-7.71 11.924-11.22v-.2c0-2.02-.567-3.03-1.702-3.03-1.404-1-3.674-1.5-6.81-1.5h-1.703zm20.735 14.233c.663.2 1.15.558 1.45 1.08v.42c0 2.48-1.86 5.553-5.58 9.22l-.97.22H713c-.873 0-1.52-.36-1.936-1.08v-.22c2.916-3.23 4.374-6.08 4.374-8.56.89-.72 1.86-1.08 2.9-1.08zm32.465-22.72h2.3c1.01.648 1.52 1.377 1.52 2.19-.28 1.948-1.126 2.92-2.53 2.92-4.086 0-8.06.408-11.925 1.22l-.516 5.36 1.26.234h1.01c3 0 6.47-.484 10.41-1.453l.76 1.454c-.39 2.927-1.57 4.39-3.56 4.39-1.22.647-4.68 1.13-10.39 1.454-.41 7.304-1.09 10.955-2.03 10.955l-1.02.25h-.25c-.43 0-.68-.323-.77-.97 0-3.978.68-11.285 2.03-21.92l-.76-.72c0-2.458 1.69-3.92 5.08-4.39 3.4-.646 6.52-.97 9.37-.97zm15.456 3.955h2.16c3.308 0 4.96 1.15 4.96 3.46v.22c0 4.03-3.447 7.7-10.343 11v.203c3.45 3.16 6.324 5.54 8.626 7.12v.64c0 1.12-.36 1.84-1.08 2.16h-.86l-11.84-8.4-.22 4.32v3.24c-.37.72-.94 1.08-1.72 1.08-.57 0-1.01-.28-1.3-.86v-1.29l1.94-16.83c-.57 0-.86-.43-.86-1.28 0-2.59 2.15-4.1 6.45-4.53l4.09-.22zm-7.53 11.64h.22c7.46-1.91 11.19-4 11.19-6.25v-.22c0-.39-.72-.68-2.154-.86-2.385 0-5.255.51-8.61 1.52l-.64 5.81zm24.28-11.59h.75c1.04 0 2.34 4.77 3.93 14.3 1.25 4.5 1.87 7.56 1.87 9.17-.26.86-.76 1.28-1.5 1.28-.96 0-1.65-2.27-2.064-6.82l-.186-.202h-.19c-1.624.02-5.05 1.018-10.28 2.986-.5 2.842-1.31 4.264-2.438 4.264-.75-.29-1.127-.86-1.127-1.7 0-1.646 3.43-9.19 10.3-22.625l.94-.64zm-.37 5.97c-1.5 2.71-2.873 5.56-4.123 8.55h1.316c1.27 0 2.89-.282 4.87-.86l-1.69-7.69h-.38zM794.6 191c.947 0 2.083 1.78 3.406 5.342 2.56 5.25 5.41 9.74 8.546 13.47 1.054-10.283 1.835-16.34 2.345-18.174l.86-.64h.64c.426 0 .64.285.64.86-1.28 14.685-2.063 22.524-2.344 23.513l-1.28.42c-2.28 0-6.124-4.84-11.53-14.53l-.86-.86-.214.64-.64 9.85v1.28l.22 1.28c-.19 1.71-.76 2.57-1.7 2.57-.88-.31-1.38-.74-1.5-1.28 1.09-15.4 1.87-23.09 2.34-23.09l1.08-.64zm22.327.14l.625.86-.623 8.123 12.75-7.063c.55.687.83 1.542.83 2.562-1.44 2.02-5.13 4.584-11.08 7.7v.22c2.75 3.57 5.88 6.56 9.41 8.97v.434c0 1.99-.7 2.983-2.1 2.983l-10.44-8.55c-.42 5.7-.83 8.54-1.25 8.54l-1.05.22c-.7-.23-1.05-.66-1.05-1.29l.82-10.05-.2-2.56c.48 0 .89-3.14 1.25-9.42.57-1.14 1.27-1.7 2.09-1.7zm18.594-.204H837c.49 0 .734.287.734.86-1.145 9.354-1.718 15.844-1.718 19.47v2.373c-.323 1.58-1.136 2.37-2.438 2.37h-.484l-.985-.86c.65-9.81 1.47-17.6 2.45-23.36l.97-.86zm7.1.06c.95 0 2.08 1.78 3.41 5.346 2.57 5.25 5.41 9.74 8.55 13.47 1.05-10.282 1.83-16.34 2.34-18.173l.86-.64h.64c.43 0 .64.28.64.86-1.28 14.68-2.06 22.52-2.34 23.51l-1.28.42c-2.28 0-6.12-4.84-11.53-14.53l-.86-.86-.22.64-.64 9.84v1.28l.22 1.28c-.19 1.71-.75 2.56-1.7 2.56-.87-.32-1.37-.74-1.5-1.28 1.1-15.4 1.88-23.1 2.35-23.1l1.08-.64zm32.97.05h.92c1.16 0 1.85.93 2.08 2.795v.44c0 2.82-1.07 4.69-3.2 5.59l-.37-.43v-.22l.96-3.65-.75-.42c-3.12 0-6.82 2.95-11.11 8.83-1.02 1.78-1.53 3.14-1.53 4.08v.22c0 2.29 1.39 3.44 4.16 3.44h.17c2.67 0 5.62-.71 8.86-2.14h.58c.5.23.75.73.75 1.5v.86c-2.67 2.73-5.8 4.1-9.41 4.1-4.9-.51-7.36-2.95-7.36-7.31v-.44c0-5.57 3.96-11.03 11.86-16.36 1.5-.57 2.64-.86 3.41-.86zm19.7 0c.72.155 1.08.7 1.08 1.64-.23 1.77-.94 2.654-2.14 2.654-7.85 0-11.78 1.094-11.78 3.28l-.22 1.845v1.017c5.13-1.23 8.63-1.843 10.5-1.843h.43c.72.31 1.08.99 1.08 2.05 0 1.5-1 2.25-3 2.25-6.57.85-9.86 1.88-9.86 3.07l-.2 2.05v.81c0 1.23.78 1.91 2.35 2.05 2.46-.27 5.53-.89 9.22-1.85h.64c.57.22.86.69.86 1.43v.61c0 1.67-3.57 2.97-10.72 3.89h-.64c-2.57 0-4-1.64-4.28-4.91 0-2.41.5-6.98 1.5-13.72l-.42-1.24c0-2.77 4.28-4.41 12.84-4.91l2.78-.2zm4.52-.05c.95 0 2.09 1.78 3.41 5.345 2.56 5.25 5.41 9.74 8.55 13.47 1.05-10.28 1.83-16.34 2.34-18.17l.86-.64h.64c.43 0 .64.29.64.86-1.28 14.69-2.06 22.53-2.34 23.52l-1.28.42c-2.28 0-6.12-4.84-11.53-14.53l-.86-.86-.22.64-.64 9.85v1.28l.22 1.28c-.19 1.71-.75 2.57-1.7 2.57-.87-.31-1.37-.74-1.5-1.28 1.1-15.39 1.88-23.09 2.35-23.09l1.08-.64zm30.94.048h.33c1.44.177 2.16.875 2.16 2.094v.42c0 2.108-.72 4.066-2.15 5.88h-.33c-.23-.063-.45-.41-.67-1.047l.84-3.14-.66-.42c-1.53.14-4.34 1.81-8.44 5.03v.21l10.91 2.11c1.11.88 1.66 2.35 1.66 4.41v1.25c0 2.83-1.81 5.27-5.45 7.35-1.43.57-2.81.85-4.14.85h-.34c-3.79 0-6.1-1.67-6.94-5.03v-1.26c0-1.54.39-2.31 1.16-2.31.76 2.67 2.14 4 4.14 4 0 .27.83.41 2.48.41 2.45 0 4.82-1.25 7.11-3.76 0-1.66-3.52-2.71-10.58-3.15-2.54-.71-3.81-1.76-3.81-3.14 0-3.41 3.42-6.83 10.25-10.28l2.49-.42zm22.27 0c.72.157 1.08.703 1.08 1.64-.23 1.77-.94 2.656-2.14 2.656-7.85 0-11.78 1.094-11.78 3.28l-.22 1.845v1.016c5.13-1.23 8.63-1.84 10.5-1.84h.43c.72.32 1.08 1 1.08 2.05 0 1.5-1 2.25-3 2.25-6.57.86-9.86 1.88-9.86 3.08l-.2 2.05v.81c0 1.23.78 1.91 2.35 2.05 2.46-.27 5.53-.88 9.22-1.84h.64c.57.22.86.7.86 1.44v.61c0 1.68-3.58 2.98-10.72 3.89h-.64c-2.58 0-4-1.63-4.28-4.9 0-2.4.5-6.98 1.5-13.72l-.42-1.23c0-2.77 4.28-4.4 12.84-4.9l2.78-.2zm-241.91 42h.75c1.03 0 2.34 4.766 3.92 14.297 1.25 4.5 1.88 7.56 1.88 9.18-.26.86-.76 1.28-1.5 1.28-.96 0-1.64-2.27-2.06-6.82l-.18-.2h-.19c-1.62.02-5.05 1.02-10.28 2.99-.5 2.85-1.31 4.27-2.44 4.27-.75-.29-1.12-.86-1.12-1.7 0-1.64 3.43-9.19 10.3-22.62l.94-.64zm-.37 5.97c-1.5 2.707-2.87 5.556-4.12 8.546h1.31c1.27 0 2.9-.287 4.88-.86l-1.68-7.7h-.37zm11.96-6.017c.95 0 2.08 1.78 3.41 5.343 2.57 5.25 5.41 9.74 8.55 13.47 1.06-10.28 1.84-16.34 2.35-18.173l.86-.64h.64c.43 0 .64.29.64.86-1.28 14.69-2.06 22.53-2.34 23.52l-1.28.42c-2.28 0-6.13-4.843-11.53-14.53l-.86-.86-.22.64-.64 9.844v1.28l.22 1.28c-.19 1.71-.75 2.57-1.7 2.57-.87-.31-1.37-.74-1.5-1.28 1.1-15.39 1.88-23.09 2.35-23.09l1.08-.64zm26.03 0h.96c4.53 0 7.31 1.796 8.33 5.39l.19 1.72c0 7.155-5.3 13.05-15.91 17.686l-.94.22h-.2c-.28 0-.53-.505-.75-1.516l1.89-18.546c-.76 0-1.14-.21-1.14-.64v-.44c0-2.29 1.01-3.43 3.03-3.43l4.55-.44zm-3.78 4.53c-1.13 7.375-1.7 12.333-1.7 14.875v1.08c7.95-3.97 11.92-7.71 11.92-11.22v-.203c0-2.02-.56-3.03-1.7-3.03-1.4-1-3.67-1.5-6.81-1.5h-1.7zm37.61-8.42h.46c.77.425 1.16 1.08 1.16 1.97v.5c0 5.34.46 11.6 1.38 18.78h.23c5.08-13.51 8.08-20.268 8.98-20.268h.69c.68 0 1.75 4.7 3.22 14.09 1.39 4.81 2.08 8.84 2.08 12.09-.44 1.15-1.14 1.73-2.07 1.73-.62 0-1.46-4.04-2.53-12.11l-1.85-7.91c-1.32 2.15-3.7 7.75-7.14 16.79-.99 1.02-1.84 1.6-2.53 1.73-2 0-3-2.72-3-8.16l-1.14-10.38h-.24l-6.91 15.81c-.42 2.63-.8 3.95-1.15 3.95h-.92l-.92-.99v-1.24c0-2.22 1.92-6.99 5.76-14.33 2.73-7.7 4.5-11.65 5.3-11.86l1.14-.25zm22 3.935l4.78 7.25 2.1 1.72c2.65-4.71 4.49-7.557 5.53-8.547h.95l.77.86c-.1.76-3.09 6.092-8.97 16-1.48 2.78-2.56 5.27-3.25 7.467l-.56.22c-.9-.42-1.34-1.06-1.34-1.924.05-1.112 1.58-4.6 4.58-10.45-4.32-4.643-6.48-8.414-6.48-11.31.8-.854 1.44-1.28 1.91-1.28zm24.06-.046h2.16c3.31 0 4.96 1.15 4.96 3.45v.22c0 4.03-3.44 7.7-10.34 11v.206c3.45 3.165 6.33 5.54 8.63 7.123v.64c0 1.115-.36 1.833-1.08 2.156h-.86l-11.84-8.4-.22 4.31v3.24c-.36.72-.93 1.08-1.72 1.08-.57 0-1-.28-1.29-.86v-1.29l1.94-16.83c-.57 0-.86-.43-.86-1.28 0-2.59 2.16-4.1 6.46-4.53l4.1-.22zm-7.53 11.64h.22c7.46-1.92 11.19-4 11.19-6.25v-.22c0-.395-.72-.68-2.15-.86-2.38 0-5.25.507-8.61 1.518l-.64 5.81zm26.27-11.64h2.16c3.31 0 4.96 1.15 4.96 3.45v.22c0 4.03-3.44 7.7-10.34 11v.206c3.45 3.165 6.33 5.54 8.63 7.123v.64c0 1.115-.36 1.833-1.08 2.156h-.85l-11.85-8.4-.21 4.31v3.24c-.36.72-.93 1.08-1.72 1.08-.57 0-1-.28-1.29-.86v-1.29l1.94-16.83c-.57 0-.86-.43-.86-1.28 0-2.59 2.15-4.1 6.46-4.53l4.1-.22zm-7.53 11.64h.22c7.46-1.92 11.19-4 11.19-6.25v-.22c0-.395-.71-.68-2.15-.86-2.38 0-5.25.507-8.61 1.518l-.64 5.81zm31.33-11.64c.74.197 1.11.7 1.11 1.515v.21c-1.04 15.39-1.78 23.08-2.22 23.08l-.23.22h-.66c-.77 0-1.29-.36-1.56-1.07.29-2.05.44-4.93.44-8.62h-.22l-9.34 2.16-.66.86v4.09c0 1.22-.45 2.09-1.34 2.6H856c-.834 0-1.354-.36-1.563-1.08 1.03-15.53 2.515-23.3 4.452-23.3h.43l.67.88c-1.05 5.16-1.57 8.97-1.57 11.42 6.82-.89 10.23-1.97 10.23-3.23l.89-9.06 1.56-.64zm5.39 19.687c1.4 0 2.27.85 2.61 2.547 0 1.697-1.22 2.624-3.65 2.78-1.22-.458-1.83-1.23-1.83-2.313v-.235c.48-1.855 1.44-2.78 2.88-2.78z" fill="#000"/><path d="M1265.834 301.146L1209 385l-20.605-85.108C1116.193 289.367 1063 253.334 1063 210.5c0-51.086 75.664-92.5 169-92.5s169 41.414 169 92.5c0 44.744-58.043 82.068-135.166 90.646z" stroke="#000" stroke-width="4" fill="#FFF"/><path d="M1121.25 184.063c1.833 0 2.75 5.614 2.75 16.843l3.656 21.28h.907c0-1.207 3.666-7.81 11-19.81 1.145-7.918 3.28-11.876 6.406-11.876h.9c1.83 0 3.35 6.104 4.56 18.313 2.04 8.333 3.57 13.29 4.59 14.875.96-4.21 5.83-16.594 14.62-37.157 1.29-1.31 2.51-1.96 3.65-1.96 1.64 0 2.71.66 3.21 1.97 0 1.69-4.57 12.75-13.72 33.19-1.54 4.81-2.92 11.42-4.13 19.81-.98 1.65-2.2 2.47-3.66 2.47-2.79 0-4.93-5.61-6.41-16.84-2.98-10.93-4.81-16.87-5.5-17.81l-9.16 15.85c-1.52 3.09-2.9 8.37-4.13 15.85-.82 1.21-2.03 2.04-3.66 2.47-2.54 0-4.68-8.58-6.41-25.75-2.44-12.12-3.65-21.86-3.65-29.22 0-.97 1.37-1.8 4.12-2.46zm85.47 0c10.874 1.416 16.31 7.572 16.31 18.468 0 14.3-5.957 26.12-17.874 35.47-4.916 2.67-9.312 4-13.187 4-9.46 0-15.56-4.83-18.29-14.5l-.38-4.47v-1.5c0-15.6 7.51-27.42 22.53-35.46 3.79-1.33 7.41-2 10.87-2zm-28.345 38.968c3.917 5.65 9.094 8.47 15.53 8.47 10.355 0 17.605-5.82 21.75-17.47l.783-5.5c0-8.2-4.27-13.03-12.813-14.46h-1.188c-7.062 0-14.437 6.66-22.124 19.97-1.292 4-1.938 7-1.938 9zm50.75-38.96c1.833 0 2.75 5.62 2.75 16.85l3.656 21.28h.91c0-1.2 3.67-7.81 11-19.81 1.15-7.92 3.28-11.87 6.41-11.87h.91c1.84 0 3.36 6.11 4.57 18.32 2.04 8.34 3.57 13.29 4.6 14.88.96-4.21 5.84-16.59 14.63-37.16 1.3-1.31 2.52-1.97 3.66-1.97 1.65 0 2.72.66 3.22 1.97 0 1.69-4.57 12.75-13.71 33.19-1.54 4.81-2.92 11.42-4.12 19.81-.98 1.65-2.19 2.47-3.65 2.47-2.79 0-4.92-5.61-6.4-16.84-2.98-10.93-4.81-16.87-5.5-17.81l-9.16 15.85c-1.52 3.08-2.89 8.36-4.12 15.84-.81 1.21-2.03 2.04-3.66 2.47-2.54 0-4.68-8.58-6.4-25.75-2.43-12.12-3.65-21.86-3.65-29.22 0-.97 1.38-1.8 4.13-2.46zm72.75.07c1.25.59 1.875 1.28 1.875 2.1-5.938 19.13-8.906 31.24-8.906 36.35-1.688 1.96-3.104 2.94-4.25 2.94-1.875-.66-2.813-1.5-2.813-2.5 2.96-25.91 6.88-38.87 11.75-38.87h2.35zm-11.094 46.91c2.96.57 4.44 2.11 4.44 4.63v.41c-1.19 3.96-4.03 5.94-8.53 5.94-2.23 0-3.57-1.54-4.03-4.62 0-3.56 2.71-5.68 8.13-6.34zm33.66-46.9c1.25.59 1.88 1.28 1.88 2.1-5.93 19.13-8.9 31.24-8.9 36.35-1.68 1.96-3.1 2.94-4.25 2.94-1.87-.66-2.81-1.5-2.81-2.5 2.96-25.91 6.88-38.87 11.75-38.87h2.35zm-11.09 46.91c2.96.57 4.44 2.11 4.44 4.63v.41c-1.18 3.96-4.03 5.94-8.53 5.94-2.23 0-3.57-1.54-4.03-4.62 0-3.56 2.71-5.67 8.13-6.34zm33.66-46.91c1.25.59 1.88 1.28 1.88 2.1-5.94 19.13-8.9 31.24-8.9 36.35-1.69 1.96-3.11 2.94-4.25 2.94-1.88-.67-2.81-1.5-2.81-2.5 2.96-25.92 6.88-38.88 11.75-38.88h2.34zm-11.09 46.91c2.96.57 4.44 2.11 4.44 4.63v.41c-1.18 3.96-4.03 5.94-8.53 5.94-2.23 0-3.57-1.54-4.03-4.63 0-3.56 2.71-5.67 8.13-6.34z" fill="#000"/></g></svg>