<svg width="1540" height="820" viewBox="0 0 1540 820" xmlns="http://www.w3.org/2000/svg" xmlns:xlink="http://www.w3.org/1999/xlink"><title>story08</title><defs><path id="a" d="M0 0h1540v820H0z"/><mask id="b" x="0" y="0" width="1540" height="820" fill="#fff"><use xlink:href="#a"/></mask><path id="d" d="M40 40h890v80H40z"/><filter x="-50%" y="-50%" width="200%" height="200%" filterUnits="objectBoundingBox" id="c"><feOffset dx="6" dy="6" in="SourceAlpha" result="shadowOffsetOuter1"/><feColorMatrix values="0 0 0 0 0 0 0 0 0 0 0 0 0 0 0 0 0 0 1 0" in="shadowOffsetOuter1"/></filter></defs><g fill="none" fill-rule="evenodd"><use stroke="#000" mask="url(#b)" stroke-width="8" fill="#402412" xlink:href="#a"/><path stroke="#000" stroke-width="4" fill="#371F0F" d="M235 132h1066v556H235z"/><path d="M4 2l229.457 129.306c0 .384.523.694 1.174.694h1065.19c.65 0 1.18-.31 1.18-.694L1538 2H4z" stroke="#000" stroke-width="4" stroke-linejoin="bevel" fill="#28170B"/><path d="M4 818l229.457-129.306c0-.384.523-.694 1.174-.694h1065.19c.65 0 1.18.31 1.18.694L1538 818H4z" stroke="#000" stroke-width="4" stroke-linejoin="bevel" fill="#2B2200"/><path stroke="#000" stroke-width="4" fill="#00002B" d="M320 190h380v265H320z"/><path fill="#FFE680" d="M411.89 249.34l-11.36-10.833-13.362 8.236 6.795-14.15L382 222.428l15.558 2.088 5.97-14.518 2.82 15.442L422 226.63l-13.815 7.455M503 336.325l-15.566-1.807-5.697 14.598-3.093-15.362-15.644-.906 13.654-7.69-3.97-15.158 11.53 10.61 13.19-8.462-6.527 14.247 12.123 9.93m129.11 67.22l-14.287-7.04-10.435 12.034 2.28-15.77-14.668-6.2 15.696-2.71 1.37-15.87 7.42 14.09 15.514-3.6-11.11 11.41 8.22 13.64m-219.405 30.8l-7.184-14.17-15.52 3.36 11.25-11.21-7.98-13.72 14.14 7.23L417.99 394l-2.51 15.68 14.53 6.41-15.69 2.457-1.607 15.796"/><path d="M625.56 226c18.968 21.77 15.5 55.838-7.745 76.093-23.247 20.255-57.47 19.026-76.437-2.744l-.378-.44s15.08-9.06 46.775-36.13C614.71 239.77 625.56 226 625.56 226z" stroke="#222" stroke-width="4.01" fill="#E6E6E6"/><use fill="#000" filter="url(#c)" xlink:href="#d"/><use fill="#FFF" xlink:href="#d"/><path d="M73.883 60c1.03 0 1.547 3.158 1.547 9.475l2.056 11.97h.51c0-.68 2.063-4.394 6.188-11.144.644-4.45 1.845-6.68 3.603-6.68h.51c1.03 0 1.887 3.44 2.566 10.31 1.15 4.69 2.01 7.48 2.584 8.37.54-2.36 3.28-9.33 8.227-20.9.726-.74 1.412-1.11 2.056-1.11.926 0 1.53.37 1.81 1.11 0 .95-2.57 7.17-7.716 18.67-.867 2.71-1.64 6.42-2.32 11.15-.55.93-1.236 1.39-2.057 1.39-1.57 0-2.77-3.15-3.603-9.47-1.676-6.15-2.707-9.49-3.094-10.02l-5.15 8.91c-.856 1.74-1.63 4.71-2.32 8.92-.458.68-1.143 1.14-2.057 1.39-1.43 0-2.63-4.83-3.604-14.48-1.38-6.82-2.06-12.3-2.06-16.43 0-.55.77-1.01 2.32-1.39zm48.058 4.447c.84.223 1.25.79 1.25 1.705v.23c-1.17 17.308-2 25.962-2.49 25.962l-.26.246h-.74c-.86 0-1.45-.404-1.75-1.213.33-2.31.49-5.543.49-9.703h-.24L107.67 84.1l-.738.966v4.606c0 1.37-.504 2.344-1.512 2.918h-.492c-.938 0-1.524-.404-1.758-1.213 1.16-17.473 2.83-26.21 5.01-26.21h.492l.756.985c-1.172 5.8-1.758 10.084-1.758 12.85 7.676-1.008 11.514-2.22 11.514-3.64l1.002-10.194 1.757-.72zm21.63.053c.81.176 1.21.79 1.21 1.846-.25 1.992-1.06 2.988-2.41 2.988-8.83 0-13.25 1.23-13.25 3.69l-.24 2.076v1.142c5.77-1.383 9.7-2.074 11.81-2.074h.48c.81.352 1.22 1.12 1.22 2.303 0 1.69-1.13 2.54-3.38 2.54-7.39.96-11.09 2.12-11.09 3.47l-.22 2.31v.92c0 1.38.88 2.15 2.64 2.3 2.77-.3 6.22-.99 10.37-2.07h.72c.65.25.97.79.97 1.62v.69c0 1.89-4.02 3.35-12.06 4.38h-.72c-2.89 0-4.5-1.84-4.81-5.52 0-2.7.56-7.85 1.69-15.43l-.49-1.4c0-3.11 4.82-4.95 14.45-5.52l3.13-.23zm5.08-.053c1.07 0 2.35 2.004 3.83 6.012 2.88 5.9 6.09 10.95 9.62 15.15 1.19-11.57 2.07-18.38 2.64-20.45l.97-.72h.72c.48 0 .72.32.72.96-1.44 16.52-2.32 25.34-2.63 26.45l-1.44.47c-2.57 0-6.89-5.45-12.97-16.35l-.97-.97-.24.72-.72 11.07v1.44l.25 1.44c-.21 1.92-.85 2.88-1.91 2.88-.98-.35-1.54-.83-1.69-1.44 1.23-17.32 2.11-25.98 2.64-25.98l1.21-.72zM194.47 60l9.596.563L209.27 60l.544.844v1.125c0 3-1.734 4.5-5.203 4.5h-.28c-.43 16.28-1.89 24.43-4.37 24.43-1.27 1.12-3.01 1.69-5.22 1.69h-1.91c-6.21-.95-9.31-4.04-9.31-9.27.55-3.14 1.37-5.21 2.46-6.19h.29c.28 0 .74 2.06 1.37 6.18 1.26 2.42 3.27 3.64 6.03 3.64 4.02 0 6.03-1.69 6.03-5.05l1.37-15.74h-3.02c-4.02 0-6.03-.47-6.03-1.41v-.56c.55-2.82 1.38-4.22 2.48-4.22zm30.796 4.447c5.004.692 7.505 3.686 7.505 8.983 0 6.937-2.74 12.68-8.22 17.226-2.26 1.29-4.28 1.934-6.06 1.934-4.34 0-7.14-2.344-8.4-7.03l-.17-2.18v-.74c0-7.57 3.46-13.312 10.37-17.226 1.74-.644 3.4-.967 5-.967zM212.223 83.38c1.804 2.74 4.19 4.112 7.154 4.112 4.77 0 8.103-2.83 10.002-8.49l.35-2.672c0-3.984-1.97-6.328-5.89-7.03h-.55c-3.25 0-6.64 3.233-10.18 9.702-.6 1.945-.9 3.404-.9 4.377zm36.562-18.88h.37c1.616.2 2.425.984 2.425 2.355v.475c0 2.367-.81 4.57-2.426 6.61h-.37c-.257-.07-.51-.463-.755-1.178l.95-3.533-.74-.48c-1.73.15-4.89 2.04-9.5 5.66v.23l12.27 2.37c1.24.98 1.86 2.63 1.86 4.95v1.4c0 3.17-2.05 5.93-6.14 8.26-1.61.63-3.16.95-4.66.95h-.39c-4.27 0-6.87-1.89-7.81-5.66V85.5c0-1.735.43-2.602 1.3-2.602.85 3 2.41 4.5 4.66 4.5 0 .307.93.46 2.79.46 2.75 0 5.42-1.41 8-4.237 0-1.87-3.97-3.06-11.9-3.55-2.86-.79-4.29-1.97-4.29-3.53 0-3.83 3.84-7.69 11.53-11.56l2.79-.47zm25.05 0c.808.176 1.212.79 1.212 1.846-.258 1.992-1.06 2.988-2.408 2.988-8.84 0-13.26 1.23-13.26 3.69l-.25 2.076v1.142c5.76-1.383 9.7-2.074 11.81-2.074h.47c.81.352 1.21 1.12 1.21 2.303 0 1.69-1.13 2.54-3.38 2.54-7.4.96-11.09 2.12-11.09 3.47l-.23 2.31v.92c0 1.38.88 2.15 2.63 2.3 2.77-.3 6.22-.99 10.37-2.07h.72c.64.25.96.79.96 1.62v.69c0 1.89-4.02 3.35-12.06 4.38h-.72c-2.9 0-4.5-1.84-4.82-5.52 0-2.7.56-7.85 1.68-15.43l-.47-1.39c0-3.11 4.82-4.95 14.45-5.52l3.13-.23zm14.272-.053c4.653 0 6.98 1.365 6.98 4.096 0 5.402-5.1 10.29-15.294 14.66-.75 0-1.125.48-1.125 1.442-.106 5.296-.633 7.945-1.582 7.945h-1.125c-.3-.07-.6-.47-.89-1.195l2.02-19.723h-.23c-.59 0-.89-.727-.89-2.18 0-2.355 1.36-3.715 4.06-4.078l8.09-.967zm-9 13.957c5.145-1.347 9.047-3.59 11.707-6.732l.44-1.46v-.474l-1.125-.246H289c-5.988.328-8.983.89-8.983 1.688l-.914 7.224zm34.752-13.957c.83.223 1.24.79 1.24 1.705v.23c-1.17 17.308-2.01 25.962-2.5 25.962l-.27.246h-.74c-.87 0-1.45-.404-1.76-1.213.33-2.31.49-5.543.49-9.703h-.25l-10.5 2.426-.74.966v4.606c0 1.37-.51 2.344-1.51 2.918h-.5c-.94 0-1.53-.404-1.76-1.213 1.16-17.473 2.83-26.21 5.01-26.21h.5l.76.985c-1.17 5.8-1.76 10.084-1.76 12.85 7.67-1.008 11.51-2.22 11.51-3.64l1-10.194 1.76-.72zm19.54.053c.78 0 1.18 2.72 1.18 8.156l1.58 10.336h.38c0-.597 1.57-3.803 4.73-9.615.49-3.832 1.41-5.748 2.76-5.748h.38c.79 0 1.45 2.95 1.97 8.87.88 4.04 1.53 6.44 1.97 7.2.42-2.04 2.52-8.05 6.31-18.02.55-.64 1.08-.95 1.58-.95.7 0 1.16.31 1.37.95 0 .82-1.97 6.18-5.91 16.08-.66 2.34-1.25 5.55-1.78 9.61-.42.79-.95 1.19-1.58 1.19-1.2 0-2.11-2.72-2.74-8.16-1.29-5.31-2.08-8.19-2.38-8.65l-3.94 7.68c-.66 1.5-1.25 4.06-1.78 7.68-.35.59-.88.99-1.57 1.2-1.1 0-2.02-4.16-2.76-12.48-1.05-5.88-1.58-10.61-1.58-14.17 0-.48.59-.88 1.78-1.19zm39.58-.053c5 .692 7.5 3.686 7.5 8.983 0 6.937-2.74 12.68-8.23 17.226-2.26 1.29-4.29 1.934-6.07 1.934-4.35 0-7.15-2.344-8.4-7.03l-.18-2.18v-.74c0-7.57 3.45-13.312 10.37-17.226 1.73-.644 3.39-.967 4.99-.967zM359.95 83.38c1.804 2.74 4.19 4.112 7.154 4.112 4.77 0 8.103-2.83 10-8.49l.353-2.672c0-3.984-1.963-6.328-5.89-7.03h-.544c-3.246 0-6.638 3.233-10.177 9.702-.598 1.945-.897 3.404-.897 4.377zm26.876-18.775l.703.967-.71 9.14 14.34-7.944c.62.773.93 1.734.93 2.882-1.62 2.274-5.77 5.162-12.46 8.666v.246c3.09 4.02 6.62 7.383 10.58 10.09v.493c0 2.238-.79 3.357-2.36 3.357l-11.74-9.615c-.47 6.41-.94 9.615-1.41 9.615l-1.18.246c-.79-.258-1.18-.738-1.18-1.44l.93-11.304-.23-2.883c.54 0 1.01-3.53 1.4-10.6.64-1.27 1.43-1.91 2.35-1.91zm34.067-.105c.808.176 1.212.79 1.212 1.846-.257 1.992-1.06 2.988-2.408 2.988-8.836 0-13.254 1.23-13.254 3.69l-.246 2.076v1.142c5.766-1.383 9.703-2.074 11.813-2.074h.474c.81.352 1.213 1.12 1.213 2.303 0 1.69-1.125 2.54-3.375 2.54-7.394.96-11.092 2.12-11.092 3.47l-.228 2.31v.92c0 1.38.88 2.15 2.637 2.3 2.76-.3 6.22-.99 10.37-2.07h.72c.64.25.96.79.96 1.62v.69c0 1.89-4.02 3.35-12.06 4.38h-.72c-2.9 0-4.5-1.84-4.82-5.52 0-2.7.56-7.85 1.68-15.43l-.48-1.39c0-3.11 4.82-4.95 14.45-5.52l3.13-.23zm21.392-.053c.75.305 1.166.62 1.248.95-1.336 8.355-2.004 14.425-2.004 18.21v2.602c4.47 0 8.14-2.06 11-6.16 1.12-9.94 2.21-14.91 3.25-14.91h.26c.99.1 1.49.34 1.49.72-1.5 9.04-2.25 15.82-2.25 20.34v3.77c0 1.24-.51 2.11-1.51 2.6h-1l-.99-.95v-.48l.24-4.01c-.6 0-3.85 1.49-9.76 4.48l-1.76.47c-2.01-.26-3.01-1.13-3.01-2.6v-.23c1.22-16.56 2.64-24.84 4.25-24.84h.51zm29.04 0c4.652 0 6.978 1.365 6.978 4.096 0 5.402-5.098 10.29-15.293 14.66-.75 0-1.125.48-1.125 1.442-.106 5.296-.633 7.945-1.582 7.945h-1.125c-.305-.07-.604-.47-.897-1.195l2.03-19.723h-.23c-.59 0-.89-.727-.89-2.18 0-2.355 1.36-3.715 4.06-4.078l8.09-.967zm-9 13.957c5.144-1.347 9.046-3.59 11.706-6.732l.44-1.46v-.474l-1.12-.246h-1.12c-5.99.328-8.98.89-8.98 1.688l-.91 7.224zm24.398 7.155c.75.22 1.295.62 1.634 1.21v.47c0 2.79-2.09 6.24-6.275 10.37l-1.09.24h-.28c-.985 0-1.712-.41-2.18-1.22v-.24c3.28-3.64 4.92-6.85 4.92-9.64 1.01-.81 2.1-1.21 3.27-1.21zm37.617-21.12c.832.22 1.248.79 1.248 1.7v.23c-1.172 17.31-2.004 25.96-2.496 25.96l-.264.24h-.738c-.867 0-1.453-.41-1.758-1.22.328-2.31.492-5.54.492-9.7h-.246l-10.512 2.43-.738.96v4.6c0 1.37-.504 2.34-1.512 2.92h-.492c-.937 0-1.523-.41-1.758-1.21 1.16-17.48 2.83-26.21 5.01-26.21h.492l.756.98c-1.172 5.8-1.758 10.08-1.758 12.85 7.676-1.01 11.514-2.22 11.514-3.64l1.002-10.2 1.758-.72zm21.62.05c.81.17 1.214.79 1.214 1.84-.258 1.99-1.06 2.99-2.408 2.99-8.836 0-13.254 1.23-13.254 3.69l-.246 2.07v1.14c5.765-1.38 9.703-2.08 11.812-2.08h.475c.808.35 1.213 1.12 1.213 2.3 0 1.69-1.125 2.53-3.375 2.53-7.39.96-11.09 2.11-11.09 3.46l-.23 2.3v.91c0 1.38.88 2.15 2.64 2.3 2.77-.3 6.23-1 10.37-2.07h.72c.65.24.97.78.97 1.62v.68c0 1.89-4.02 3.35-12.06 4.38h-.72c-2.89 0-4.5-1.84-4.81-5.52 0-2.71.57-7.85 1.69-15.44l-.47-1.39c0-3.12 4.82-4.96 14.45-5.52l3.13-.23zm17.948 0c.785 0 1.178 2.72 1.178 8.15l1.582 10.33h.387c0-.6 1.576-3.81 4.728-9.62.492-3.84 1.412-5.75 2.76-5.75h.387c.797 0 1.453 2.96 1.968 8.87.88 4.04 1.536 6.44 1.97 7.2.42-2.04 2.525-8.04 6.31-18.02.55-.63 1.078-.95 1.582-.95.703 0 1.16.32 1.37.95 0 .82-1.968 6.18-5.905 16.08-.657 2.34-1.248 5.55-1.776 9.62-.43.79-.95 1.19-1.59 1.19-1.2 0-2.11-2.72-2.74-8.16-1.29-5.31-2.08-8.19-2.38-8.65l-3.94 7.68c-.66 1.5-1.25 4.06-1.78 7.68-.36.59-.88.99-1.57 1.2-1.11 0-2.03-4.16-2.76-12.48-1.06-5.88-1.59-10.61-1.59-14.17 0-.48.59-.88 1.77-1.19zm35.07 0h.842c1.16 0 2.63 5.36 4.412 16.08 1.407 5.06 2.11 8.5 2.11 10.32-.293.96-.856 1.44-1.688 1.44-1.078 0-1.85-2.56-2.32-7.68l-.21-.23h-.212c-1.828.02-5.683 1.14-11.566 3.35-.563 3.2-1.477 4.8-2.742 4.8-.844-.33-1.266-.97-1.266-1.92 0-1.85 3.86-10.34 11.584-25.46l1.055-.72zm-.423 6.71c-1.688 3.04-3.235 6.25-4.64 9.61h1.476c1.43 0 3.26-.33 5.49-.97l-1.9-8.65h-.42zm24.485-6.71h.37c1.617.2 2.426.98 2.426 2.35v.47c0 2.36-.81 4.57-2.426 6.61h-.37c-.257-.07-.51-.47-.755-1.18l.95-3.53-.74-.48c-1.722.15-4.886 2.04-9.49 5.66v.23L625.273 77c1.243.984 1.864 2.636 1.864 4.957v1.405c0 3.173-2.045 5.93-6.135 8.26-1.606.63-3.158.95-4.658.95h-.387c-4.266 0-6.867-1.89-7.805-5.66V85.5c0-1.736.434-2.603 1.3-2.603.857 3 2.41 4.5 4.66 4.5 0 .307.93.46 2.794.46 2.754 0 5.42-1.41 7.998-4.237 0-1.875-3.966-3.06-11.9-3.55-2.86-.798-4.29-1.975-4.29-3.534 0-3.83 3.845-7.688 11.532-11.567l2.795-.48zm32.116-.06h.457c.75.41 1.125 1.05 1.125 1.91v.49c0 5.2.457 11.3 1.37 18.28h.23c5.016-13.15 7.97-19.73 8.86-19.73h.685c.668 0 1.728 4.57 3.18 13.71 1.36 4.69 2.04 8.61 2.04 11.78-.445 1.12-1.124 1.69-2.04 1.69-.608 0-1.44-3.93-2.495-11.8l-1.828-7.68c-1.3 2.08-3.65 7.53-7.05 16.35-.97 1-1.803 1.56-2.495 1.69-1.968 0-2.953-2.65-2.953-7.95l-1.125-10.09h-.228l-6.83 15.38c-.41 2.57-.79 3.85-1.14 3.85h-.9l-.92-.95v-1.21c0-2.16 1.89-6.81 5.68-13.94 2.69-7.5 4.43-11.35 5.22-11.55l1.14-.25zm24.96 0c.75.3 1.167.62 1.25.95-1.337 8.35-2.005 14.42-2.005 18.21v2.61c4.48 0 8.15-2.06 11.01-6.16 1.13-9.94 2.21-14.91 3.25-14.91h.27c1 .1 1.5.34 1.5.72-1.5 9.04-2.25 15.82-2.25 20.34v3.77c0 1.24-.5 2.11-1.51 2.6h-1l-.98-.95v-.48l.25-4.01c-.59 0-3.85 1.49-9.75 4.48l-1.75.47c-2-.26-3-1.13-3-2.6v-.23c1.22-16.56 2.64-24.84 4.26-24.84h.51zm33.17.05h1.038c1.3 0 2.08 1.05 2.338 3.14v.49c0 3.17-1.2 5.27-3.603 6.29l-.43-.5v-.25l1.07-4.12-.85-.48c-3.51 0-7.67 3.31-12.5 9.93-1.15 2-1.73 3.53-1.73 4.59v.24c0 2.58 1.56 3.87 4.67 3.87h.19c3 0 6.32-.8 9.97-2.41h.65c.56.26.84.82.84 1.69v.97c-3 3.07-6.53 4.6-10.58 4.6-5.52-.58-8.28-3.32-8.28-8.23v-.49c0-6.27 4.45-12.4 13.34-18.4 1.69-.65 2.97-.97 3.83-.97zm22.15-.06c.832.22 1.248.79 1.248 1.7v.23c-1.172 17.31-2.004 25.96-2.496 25.96l-.264.24h-.738c-.868 0-1.454-.41-1.758-1.22.328-2.31.492-5.54.492-9.7h-.246l-10.512 2.43-.738.96v4.6c0 1.37-.504 2.34-1.512 2.92h-.492c-.938 0-1.524-.4-1.758-1.21 1.16-17.48 2.83-26.21 5.01-26.21h.492l.756.98c-1.172 5.8-1.758 10.08-1.758 12.85 7.676-1.01 11.514-2.22 11.514-3.64l1.002-10.2 1.758-.72zm36.544 0c.833.22 1.25.79 1.25 1.7v.23c-1.173 17.31-2.005 25.96-2.498 25.96l-.263.24h-.74c-.87 0-1.46-.41-1.76-1.22.33-2.31.49-5.54.49-9.7h-.25l-10.51 2.43-.74.96v4.6c0 1.37-.51 2.34-1.51 2.92h-.49c-.94 0-1.53-.41-1.76-1.22 1.16-17.48 2.83-26.21 5.01-26.21h.49l.75.98c-1.17 5.8-1.76 10.08-1.76 12.85 7.67-1.01 11.51-2.22 11.51-3.64l1-10.2 1.76-.72zm13.676.05h.844c1.16 0 2.63 5.36 4.412 16.08 1.406 5.06 2.11 8.5 2.11 10.31-.293.96-.856 1.44-1.688 1.44-1.078 0-1.852-2.56-2.32-7.69l-.21-.23h-.212c-1.828.02-5.684 1.14-11.567 3.35-.562 3.2-1.476 4.8-2.742 4.8-.844-.32-1.265-.96-1.265-1.91 0-1.85 3.86-10.34 11.584-25.45l1.054-.72zm-.422 6.71c-1.687 3.04-3.234 6.25-4.64 9.61h1.476c1.43 0 3.258-.32 5.485-.97l-1.9-8.65h-.42zm22.64-6.77c4.653 0 6.98 1.36 6.98 4.09 0 5.4-5.098 10.29-15.293 14.66-.75 0-1.12.48-1.12 1.44-.1 5.29-.63 7.94-1.58 7.94h-1.12c-.3-.07-.6-.47-.89-1.2l2.02-19.72h-.23c-.59 0-.89-.73-.89-2.18 0-2.36 1.35-3.72 4.06-4.08l8.09-.97zm-9 13.95c5.146-1.35 9.048-3.59 11.708-6.73l.44-1.46v-.47l-1.126-.25h-1.125c-5.98.33-8.98.89-8.98 1.69l-.91 7.22zm29.022-13.96c4.653 0 6.98 1.36 6.98 4.09 0 5.4-5.1 10.29-15.294 14.66-.75 0-1.125.48-1.125 1.44-.105 5.29-.633 7.94-1.582 7.94h-1.125c-.305-.07-.604-.47-.896-1.2l2.02-19.73h-.228c-.597 0-.896-.73-.896-2.18 0-2.35 1.354-3.71 4.06-4.08l8.086-.97zm-9 13.95c5.145-1.35 9.047-3.59 11.708-6.73l.44-1.46v-.47l-1.126-.25h-1.125c-5.988.33-8.982.89-8.982 1.69l-.91 7.23zm21.622-14.03h1.652c.55 0 .826.32.826.96-1.29 10.52-1.933 17.82-1.933 21.9v2.67c-.364 1.78-1.278 2.67-2.743 2.67h-.545l-1.107-.97c.738-11.04 1.658-19.8 2.76-26.28l1.09-.97zm22.92.12c.81.17 1.214.79 1.214 1.84-.257 1.99-1.06 2.99-2.408 2.99-8.836 0-13.254 1.23-13.254 3.69l-.246 2.07v1.14c5.766-1.39 9.703-2.08 11.813-2.08h.474c.81.35 1.22 1.12 1.22 2.3 0 1.69-1.12 2.53-3.37 2.53-7.39.96-11.09 2.11-11.09 3.46l-.22 2.3v.912c0 1.38.88 2.15 2.64 2.3 2.77-.306 6.23-1 10.37-2.076h.72c.65.246.97.785.97 1.62v.683c0 1.89-4.02 3.35-12.06 4.38h-.72c-2.89 0-4.5-1.84-4.81-5.52 0-2.71.57-7.85 1.69-15.43l-.47-1.39c0-3.12 4.82-4.96 14.45-5.52l3.13-.23zm14.31-.06h2.426c3.715 0 5.572 1.29 5.572 3.88v.25c0 4.53-3.88 8.66-11.637 12.37v.23c3.87 3.56 7.11 6.24 9.7 8.02v.72c0 1.26-.41 2.063-1.21 2.43h-.97l-13.33-9.46-.25 4.85v3.64c-.41.81-1.06 1.212-1.94 1.212-.65 0-1.13-.323-1.46-.97V90.1l2.18-18.93c-.65 0-.97-.48-.97-1.442 0-2.91 2.42-4.61 7.26-5.09l4.6-.25zm-8.473 13.1h.246c8.4-2.15 12.59-4.5 12.59-7.03v-.25c0-.44-.81-.77-2.42-.97-2.68 0-5.91.57-9.68 1.7l-.72 6.54zM897.383 60c.703.33 1.054.72 1.054 1.18-3.34 10.76-5.01 17.57-5.01 20.443-.948 1.1-1.745 1.65-2.39 1.65-1.055-.38-1.582-.85-1.582-1.41 1.664-14.58 3.867-21.87 6.61-21.87h1.318zm-6.24 26.387c1.664.313 2.496 1.18 2.496 2.6v.23c-.67 2.224-2.27 3.34-4.8 3.34-1.26 0-2.01-.87-2.27-2.605 0-2 1.52-3.19 4.57-3.57z" fill="#000"/><path d="M829.686 598.91c157.66 4.084 302.21-6.206 472.588-1.948 16.872-8.49-2.81 39.292-7.603 87.354-163.64-4.894-311.1 5.115-464.45-2.346l-.52-83.06z" stroke="#000" stroke-width="3" fill="#A0892C"/><path d="M832.54 732.832c1.9-51.49 18.45-101.745 4.067-152.316 2.893-5.38-36.51-4.053-28.573 1.86 15.587 49.78-2.557 99.932-2.606 149.724l27.112.732z" stroke="#000" stroke-width="3" fill="#A0892C"/><path d="M1251.12 534.245c94.898-.59 100.38 68.652 1.528 73.61-121.75 6.104-110.634-72.934-1.527-73.61z" stroke="#050202" stroke-width="2.964" fill="#806600"/><path d="M1318.22 732.91c1.852-100.058 17.968-197.72 3.96-295.994 2.82-10.457-35.556-7.877-27.827 3.613 15.18 96.73-2.49 194.19-2.537 290.95l26.404 1.42z" stroke="#000" stroke-width="3" fill="#A0892C"/><path d="M959.707 562.154c-8.256-2.02-17.256 4.88-24.374 19.448-6.738 13.793-16.712 24.218-4.024 32.045 7.07 4.362 23.58-.75 21.85-11.16 1.27 5.708 1.04 16.97 4.83 16.917 5.54-.078 11.69-5.59 8.54-16.646-.77-2.702-.52-5.356-1.29-7.508.24-.664.49-1.333.66-2.032 3.89-15.725 2.05-29.044-6.21-31.064z" stroke="#050202" stroke-width="4" fill="#DEAA87"/><path d="M987.376 454.677l6.42 25.512-32.094 109.7-35.943-17.86c14.29-53.08 33.65-94.85 61.61-117.36z" stroke="#050202" stroke-width="4" fill="#D45500"/><path d="M1139.744 562.154c8.257-2.02 17.256 4.88 24.374 19.448 6.738 13.793 16.712 24.218 4.025 32.045-7.072 4.362-23.59-.75-21.853-11.16-1.27 5.708-1.045 16.97-4.835 16.917-5.542-.078-11.69-5.59-8.542-16.646.77-2.702.52-5.356 1.29-7.508-.243-.664-.495-1.333-.668-2.032-3.896-15.725-2.048-29.044 6.21-31.064z" stroke="#050202" stroke-width="4" fill="#DEAA87"/><path d="M984.222 416.95c0 18.873 6.68 36.972 18.572 50.316 11.89 13.345 28.02 20.842 44.836 20.842 35.02 0 63.408-31.858 63.408-71.157 0-39.29-28.39-71.15-63.408-71.15-16.817 0-32.945 7.5-44.836 20.84-11.89 13.35-18.572 31.45-18.572 50.32z" stroke="#000" stroke-width="4" fill="#502D16"/><path d="M1112.075 454.677l-6.418 25.512 32.092 109.7 35.94-17.86c-14.3-53.08-33.65-94.85-61.62-117.36z" stroke="#050202" stroke-width="4" fill="#D45500"/><path d="M1049.174 778.678c0 4.737 3.45 9.28 9.588 12.628 6.138 3.35 14.464 5.23 23.146 5.23s17.008-1.88 23.147-5.23c6.138-3.35 9.587-7.89 9.587-12.628 0-9.863-14.655-17.858-32.734-17.858-18.08 0-32.734 7.995-32.734 17.858zm-77.664 2.552c0 4.736 3.45 9.278 9.59 12.627 6.137 3.35 14.463 5.23 23.145 5.23s17.008-1.88 23.147-5.23c6.138-3.35 9.587-7.89 9.587-12.627 0-9.863-14.66-17.86-32.74-17.86-18.08 0-32.74 7.997-32.74 17.86z" stroke="#050202" stroke-width="4" fill="#2B1100"/><path d="M963.965 594.816c-5.312 57.704-13.83 155.543-1.1 167.46 40.528 17.86 135.08 24.402 166.502-10.627 15.363-30.41 2.52-103.85 6.155-154.13 7.352-101.74-2.75-180.56-91.68-181.75-75.67-1.01-84.808 77.64-79.877 179.04z" stroke="#050202" stroke-width="4" fill="#D45500"/><path d="M1001.024 398.775c0 15.19 4.973 29.76 13.824 40.5 8.852 10.74 20.858 16.776 33.376 16.776 12.52 0 24.524-6.03 33.376-16.77 8.852-10.74 13.825-25.31 13.825-40.5 0-15.19-4.973-29.76-13.825-40.5-8.852-10.74-20.857-16.77-33.376-16.77-12.518 0-24.524 6.04-33.376 16.78-8.85 10.74-13.824 25.31-13.824 40.5z" stroke="#050202" stroke-width="3.9" fill="#DEAA87"/><path d="M1058.315 386.582c0 2.366 1.93 4.284 4.312 4.284 2.38 0 4.31-1.918 4.31-4.284 0-1.136-.453-2.226-1.26-3.03-.81-.803-1.907-1.254-3.05-1.254-1.144 0-2.24.45-3.05 1.254-.808.804-1.262 1.894-1.262 3.03zm-28.692.49c0 2.367 1.93 4.285 4.312 4.285 2.38 0 4.312-1.918 4.312-4.284 0-1.137-.455-2.226-1.263-3.03-.81-.803-1.906-1.255-3.05-1.255-1.143 0-2.24.452-3.048 1.255-.808.804-1.263 1.893-1.263 3.03z" fill="#000"/><path d="M1064.696 433.39h-32.977l-6.93 341.755c12.94 1.288 32.29 2.33 42.21.46l-2.31-342.215z" stroke="#000" stroke-width="4" fill="#2CA02C"/><path d="M1047.8 472.743c19.038-.05 37.06-43.186 37.06-43.186 20.02-38.054-91.07-33.08-72.737 2.066 0 0 17.464 41.17 35.676 41.12z" stroke="#000" stroke-width="4" fill="#502D16"/><path d="M1071.063 419.76c-5.977 5.788-43.623 2.108-46.878-.65-3.255-2.76 14.83 22.453 24.174 22.398 9.34-.055 28.68-27.54 22.7-21.75z" stroke="#000" stroke-width="4" fill="#DEAA87"/><path d="M963.368 581.717l172.53.163c-2.172 6.185-1.142 15.017-.49 22.607l-171.387-.324-.65-22.446z" stroke="#000" stroke-width="3.895" fill="#520"/><path d="M1021.753 326.532c-34.89 5.744-47.745 87.934-37.67 141.127 1.79 8.45 13.22 10.25 19.91 6.48 5.924-2.58 7.12-9.25 7.446-14.97.96-13.77-6.41-76.7 3.65-88.05 10.05-11.36 63.83-8.61 72.8 3.58 8.96 12.19-5.26 85.77 2.28 101.04 7.03 8.76 24.27 4.58 25.39-6.92-2.23-16.83 5.46-84.41 2.82-98.23-2.64-13.82-15.85-35.62-27.21-39.89-26.01-9.78-34.54-9.94-69.43-4.19z" stroke="#050202" stroke-width="3.897" fill="#2CA02C"/><path d="M1107.113 346.54c2.652 6.538 10.69 15.902 10.093 23.896l-128.456.91c2.004-7.155 3.03-13.08 9.06-23.768l109.303-1.037z" stroke="#000" stroke-width="4" fill="#520"/><path d="M766.473 474.588l184.812-33.983-167.228-28.232C771.627 349.23 670.537 300 547.67 300 416.41 300 310 356.188 310 425.5S416.41 551 547.67 551c98.274 0 182.616-31.495 218.803-76.412z" stroke="#000" stroke-width="4" fill="#FFF"/><path d="M409.992 357.03c1.156 0 2.542 2.064 4.156 6.19 3.115 6.072 6.58 11.27 10.39 15.592 1.282-11.906 2.235-18.916 2.86-21.03l1.032-.75h.78c.522 0 .782.327.782.984-1.562 17.02-2.515 26.1-2.86 27.234l-1.562.5c-2.76 0-7.432-5.61-14.015-16.828l-1.047-1-.25.75-.78 11.39v1.485l.25 1.484c-.23 1.98-.923 2.97-2.08 2.97-1.052-.36-1.656-.86-1.812-1.48 1.333-17.82 2.286-26.73 2.86-26.73l1.296-.75zm34.485 3.954c4.448.615 6.67 3.276 6.67 7.985 0 6.16-2.436 11.27-7.31 15.31-2.01 1.14-3.808 1.72-5.392 1.72-3.864 0-6.354-2.09-7.468-6.25l-.157-1.94v-.66c0-6.73 3.073-11.84 9.22-15.31 1.54-.58 3.02-.86 4.437-.86zm-11.594 16.83c1.604 2.436 3.724 3.655 6.36 3.655 4.24 0 7.202-2.52 8.89-7.55l.312-2.38c0-3.54-1.744-5.63-5.234-6.25h-.48c-2.88 0-5.9 2.87-9.04 8.62-.53 1.73-.79 3.02-.79 3.89zm20.844-16.783c.697 0 1.046 2.42 1.046 7.25l1.407 9.19h.343c0-.53 1.4-3.38 4.204-8.54.437-3.4 1.255-5.11 2.453-5.11h.343c.71 0 1.292 2.63 1.75 7.89.782 3.6 1.365 5.73 1.75 6.41.375-1.81 2.245-7.15 5.61-16.01.49-.56.958-.84 1.406-.84.62 0 1.03.28 1.21.85 0 .73-1.75 5.5-5.25 14.3-.59 2.09-1.11 4.94-1.58 8.55-.38.71-.85 1.06-1.41 1.06-1.07 0-1.88-2.41-2.44-7.25-1.15-4.72-1.85-7.28-2.11-7.68l-3.5 6.83c-.59 1.33-1.11 3.61-1.58 6.83-.31.52-.78.87-1.39 1.06-.98 0-1.8-3.7-2.45-11.09-.94-5.23-1.41-9.42-1.41-12.59 0-.43.52-.78 1.58-1.06zm40.5-4h1.61c.53 0 .796.34.796 1-1.25 10.81-1.875 18.3-1.875 22.47v2.75c-.354 1.84-1.24 2.75-2.656 2.75h-.547l-1.063-1c.71-11.32 1.6-20.31 2.672-26.97l1.063-1zm34.296 3.94c1.355 0 2.032.56 2.032 1.69v.42c0 1.55-1.21 2.33-3.625 2.33l-4.516.22c-1.354 7.22-2.03 13.43-2.03 18.63-.366 1.13-.74 1.69-1.126 1.69h-.688c-.78 0-1.234-.21-1.36-.64.76-7.99 1.59-14.48 2.485-19.47l-6.78 1.07c-.636 0-1.01-.63-1.126-1.9 0-2.11 1.88-3.17 5.65-3.17 2.26-.56 5.95-.84 11.08-.84zm13.016.02h2.15c3.3 0 4.95 1.15 4.95 3.46v.22c0 4.04-3.45 7.7-10.35 11v.21c3.45 3.17 6.32 5.54 8.62 7.13v.64c0 1.12-.36 1.84-1.08 2.16h-.86l-11.84-8.4-.22 4.32v3.23c-.37.72-.94 1.08-1.72 1.08-.57 0-1.01-.28-1.3-.86v-1.29l1.93-16.83c-.57 0-.86-.42-.86-1.28 0-2.59 2.15-4.1 6.45-4.53l4.09-.22zM534 372.63h.22c7.457-1.916 11.186-4 11.186-6.25v-.22c0-.395-.72-.68-2.156-.86-2.386 0-5.255.507-8.61 1.518l-.64 5.812zm19.28-11.64c.668.27 1.038.55 1.11.844-1.187 7.427-1.78 12.823-1.78 16.188v2.313c3.978 0 7.24-1.825 9.78-5.47 1-8.834 1.964-13.25 2.89-13.25h.235c.886.093 1.33.31 1.33.64-1.335 8.042-2 14.07-2 18.08v3.36c0 1.102-.45 1.872-1.345 2.31h-.89l-.876-.844v-.42l.22-3.56c-.53 0-3.423 1.33-8.673 3.99l-1.56.42c-1.78-.23-2.67-1-2.67-2.31v-.2c1.08-14.71 2.34-22.07 3.78-22.07h.46zm27.454.047h.33c1.436.178 2.155.876 2.155 2.095v.42c0 2.105-.72 4.06-2.16 5.876h-.33c-.23-.063-.46-.412-.67-1.047l.84-3.14-.66-.42c-1.53.14-4.35 1.82-8.44 5.03v.21l10.9 2.11c1.1.88 1.65 2.34 1.65 4.41v1.25c0 2.82-1.82 5.27-5.46 7.35-1.43.57-2.81.85-4.14.85h-.35c-3.79 0-6.11-1.67-6.94-5.03v-1.26c0-1.54.38-2.31 1.15-2.31.76 2.67 2.14 4 4.14 4 0 .27.83.41 2.48.41 2.44 0 4.81-1.25 7.11-3.77 0-1.66-3.53-2.72-10.58-3.15-2.54-.71-3.81-1.75-3.81-3.14 0-3.41 3.41-6.83 10.25-10.28l2.48-.42zm22.906-.06c1.355 0 2.032.56 2.032 1.686v.42c0 1.554-1.21 2.33-3.627 2.33l-4.516.22c-1.36 7.218-2.03 13.426-2.03 18.624-.37 1.125-.74 1.688-1.13 1.688h-.69c-.78 0-1.24-.212-1.36-.64.76-7.99 1.59-14.48 2.48-19.47l-6.78 1.065c-.64 0-1.01-.636-1.13-1.907 0-2.114 1.88-3.17 5.65-3.17 2.26-.564 5.95-.845 11.08-.845zm33.83-3.94h.233c1.927 0 3.22 1.57 3.875 4.704l-.452.5h-.236l-1.828-.5c-5.01.62-10.256 3.51-15.735 8.67-1.52 2.24-2.28 3.81-2.28 4.71v.99c0 2.65 3.27 4.3 9.81 4.96 4.104 0 7.22-1.81 9.344-5.45l-2.73-.98c-1.01 0-3.82.99-8.44 2.97-.46-.84-.68-1.66-.68-2.47v-.25c0-2.63 3.04-4.45 9.13-5.45h.46c3.5 0 5.25 1.9 5.25 5.71 0 3.92-3.87 7.38-11.62 10.39l-2.75.5c-4.91 0-8.26-1.73-10.03-5.2l-.45-3.22c0-7.47 4.64-13.82 13.91-19.06 2.33-.99 4.08-1.48 5.25-1.48zm20.217 3.954c4.45.62 6.672 3.28 6.672 7.99 0 6.17-2.44 11.27-7.32 15.31-2.01 1.15-3.81 1.72-5.39 1.72-3.87 0-6.36-2.08-7.47-6.25l-.16-1.93v-.65c0-6.73 3.07-11.83 9.22-15.31 1.54-.57 3.02-.86 4.43-.86zm-11.59 16.83c1.605 2.44 3.725 3.66 6.36 3.66 4.24 0 7.203-2.51 8.89-7.54l.313-2.37c0-3.54-1.745-5.62-5.234-6.25h-.487c-2.89 0-5.9 2.88-9.05 8.63-.53 1.73-.8 3.03-.8 3.89zm27.594-16.83h.96c4.53 0 7.31 1.8 8.33 5.39l.19 1.72c0 7.16-5.3 13.05-15.9 17.69l-.94.22h-.2c-.28 0-.53-.5-.75-1.51l1.89-18.54c-.76 0-1.14-.21-1.14-.64v-.44c0-2.29 1.01-3.43 3.03-3.43l4.55-.44zm-3.78 4.53c-1.13 7.38-1.7 12.34-1.7 14.88v1.08c7.95-3.97 11.93-7.71 11.93-11.22v-.2c0-2.02-.57-3.03-1.7-3.03-1.4-1-3.67-1.5-6.81-1.5h-1.7zm-276.83 37.51h.75c1.03 0 2.34 4.77 3.93 14.3 1.25 4.5 1.87 7.56 1.87 9.17-.26.86-.76 1.28-1.5 1.28-.96 0-1.64-2.27-2.06-6.82l-.18-.2h-.19c-1.62.02-5.05 1.02-10.28 2.99-.5 2.85-1.31 4.27-2.44 4.27-.75-.29-1.12-.86-1.12-1.7 0-1.64 3.43-9.18 10.3-22.62l.94-.64zm-.38 5.97c-1.5 2.71-2.87 5.56-4.12 8.55h1.32c1.27 0 2.9-.28 4.88-.86l-1.69-7.69h-.37zm11.96-6.01c.95 0 2.09 1.78 3.41 5.35 2.56 5.25 5.41 9.74 8.55 13.47 1.05-10.29 1.83-16.34 2.34-18.18l.86-.64h.64c.43 0 .64.29.64.86-1.28 14.69-2.06 22.53-2.34 23.51l-1.28.42c-2.29 0-6.13-4.84-11.54-14.53l-.86-.86-.22.64-.64 9.84v1.28l.22 1.29c-.18 1.71-.75 2.56-1.7 2.56-.87-.31-1.37-.74-1.5-1.28 1.1-15.4 1.88-23.09 2.35-23.09l1.08-.64zm26.03 0h.96c4.53 0 7.31 1.8 8.33 5.39l.19 1.72c0 7.16-5.3 13.05-15.9 17.69l-.94.22h-.2c-.28 0-.53-.5-.75-1.51l1.89-18.55c-.76 0-1.14-.22-1.14-.64v-.44c0-2.29 1.01-3.44 3.03-3.44l4.55-.44zm-3.78 4.53c-1.13 7.38-1.7 12.34-1.7 14.88v1.08c7.95-3.97 11.93-7.71 11.93-11.22v-.2c0-2.02-.57-3.03-1.7-3.03-1.41-1-3.68-1.5-6.81-1.5h-1.71zm37.61-8.42h.47c.77.43 1.16 1.09 1.16 1.97v.5c0 5.35.46 11.61 1.38 18.78h.24c5.09-13.51 8.08-20.26 8.99-20.26h.69c.68 0 1.75 4.69 3.22 14.09 1.39 4.81 2.08 8.84 2.08 12.09-.45 1.16-1.14 1.74-2.08 1.74-.61 0-1.46-4.03-2.53-12.11l-1.84-7.9c-1.32 2.16-3.7 7.76-7.14 16.8-.99 1.03-1.83 1.6-2.53 1.74-2 0-3-2.72-3-8.16L462.49 408h-.24l-6.91 15.81c-.42 2.636-.804 3.954-1.16 3.954h-.92l-.92-.982v-1.234c0-2.215 1.92-6.99 5.767-14.324 2.73-7.7 4.498-11.65 5.3-11.86l1.14-.25zm29.74 3.94h.75c1.03 0 2.34 4.77 3.92 14.3 1.25 4.5 1.88 7.56 1.88 9.17-.26.86-.76 1.28-1.5 1.28-.95 0-1.64-2.27-2.06-6.82l-.18-.2h-.19c-1.62.02-5.05 1.02-10.28 2.99-.5 2.85-1.31 4.27-2.43 4.27-.75-.29-1.12-.86-1.12-1.7 0-1.64 3.44-9.18 10.3-22.62l.94-.64zm-.38 5.97c-1.5 2.71-2.88 5.56-4.13 8.55h1.31c1.27 0 2.89-.28 4.87-.86l-1.67-7.7h-.37zm20.15-6.01h2.16c3.3 0 4.96 1.15 4.96 3.45v.22c0 4.03-3.44 7.7-10.34 11v.2c3.45 3.17 6.33 5.54 8.63 7.12v.64c0 1.12-.36 1.84-1.07 2.16h-.86l-11.84-8.4-.21 4.31v3.24c-.36.72-.94 1.08-1.72 1.08-.57 0-1-.28-1.29-.86v-1.29l1.94-16.83c-.57 0-.86-.42-.86-1.28 0-2.59 2.15-4.1 6.46-4.53l4.09-.22zm-7.53 11.64h.22c7.46-1.92 11.18-4 11.18-6.25v-.22c0-.4-.72-.69-2.15-.86-2.38 0-5.25.5-8.61 1.51l-.64 5.81zm16.55-11.6l4.78 7.25 2.1 1.72c2.65-4.71 4.49-7.56 5.53-8.55h.96l.77.86c-.1.76-3.09 6.1-8.97 16-1.48 2.78-2.56 5.27-3.25 7.47l-.56.22c-.89-.42-1.34-1.06-1.34-1.92.06-1.11 1.58-4.6 4.58-10.45-4.32-4.65-6.48-8.42-6.48-11.31.8-.86 1.44-1.28 1.91-1.28zm15.31 19.64c1.4 0 2.27.85 2.61 2.55 0 1.7-1.22 2.63-3.66 2.78-1.22-.45-1.83-1.23-1.83-2.31v-.23c.48-1.85 1.44-2.78 2.88-2.78zm24.98-23.64h1.61c.53 0 .8.34.8 1-1.25 10.8-1.87 18.29-1.87 22.47v2.75c-.35 1.83-1.24 2.75-2.65 2.75h-.54l-1.06-1c.71-11.32 1.6-20.31 2.67-26.97l1.07-1zm9.94.02c1.52.49 2.28 1.16 2.28 2-.32 1.33-2.32 4.23-5.98 8.72h-1.43l-1.12-.89v-.67l4.28-6.92c.29-1.49.95-2.23 1.98-2.23zM586 403h.403c.665.365 1 .933 1 1.704v.44c0 4.628.404 10.045 1.22 16.25h.2c4.46-11.685 7.083-17.53 7.875-17.53h.61c.595 0 1.538 4.06 2.83 12.19 1.21 4.17 1.814 7.657 1.814 10.47-.396 1-1 1.5-1.812 1.5-.54 0-1.28-3.495-2.213-10.484l-1.626-6.83c-1.16 1.854-3.24 6.7-6.27 14.53-.86.885-1.6 1.385-2.21 1.5-1.75 0-2.62-2.354-2.62-7.063l-1-8.97h-.2l-6.06 13.67c-.36 2.28-.7 3.42-1.01 3.42h-.8l-.81-.84v-1.08c0-1.914 1.68-6.044 5.05-12.39 2.39-6.665 3.94-10.09 4.64-10.264l1.01-.22zm44.544 0h.15c1.39 0 2.316 1.355 2.78 4.063l-.324.42H633l-1.313-.424c-3.583.53-7.338 3.02-11.265 7.48-1.094 1.94-1.64 3.29-1.64 4.06v.86c0 2.28 2.343 3.7 7.03 4.26 2.938 0 5.167-1.57 6.688-4.7l-1.953-.85c-.73 0-2.745.85-6.047 2.56-.323-.73-.484-1.44-.484-2.14v-.22c0-2.27 2.177-3.84 6.53-4.7h.33c2.5 0 3.75 1.64 3.75 4.92 0 3.38-2.777 6.38-8.33 8.98l-1.952.42c-3.532 0-5.927-1.5-7.188-4.49l-.328-2.78c0-6.46 3.318-11.95 9.953-16.47 1.68-.86 2.94-1.28 3.77-1.28zm18.73 0c4.45.615 6.67 3.276 6.67 7.985 0 6.167-2.435 11.27-7.31 15.31-2.01 1.15-3.806 1.72-5.39 1.72-3.864 0-6.353-2.08-7.47-6.25l-.154-1.936v-.66c0-6.73 3.073-11.84 9.22-15.31 1.54-.58 3.02-.86 4.436-.86zm-11.59 16.83c1.6 2.436 3.72 3.655 6.36 3.655 4.235 0 7.2-2.515 8.89-7.546l.31-2.38c0-3.55-1.746-5.63-5.235-6.25h-.49c-2.89 0-5.9 2.87-9.05 8.62-.53 1.73-.8 3.02-.8 3.89zm24.28-16.89h1.47c.49 0 .73.284.73.86-1.145 9.35-1.72 15.84-1.72 19.47v2.37c-.32 1.585-1.133 2.377-2.435 2.377h-.49l-.98-.86c.65-9.81 1.47-17.6 2.45-23.36l.97-.86zm7.09.06c.95 0 2.085 1.78 3.408 5.343 2.56 5.25 5.41 9.74 8.54 13.47 1.05-10.28 1.83-16.34 2.34-18.173l.86-.64h.64c.428 0 .64.29.64.86-1.28 14.69-2.06 22.527-2.342 23.516l-1.28.42c-2.28 0-6.126-4.84-11.53-14.53l-.86-.86-.22.64-.64 9.846v1.28l.22 1.28c-.19 1.71-.756 2.56-1.704 2.56-.88-.31-1.38-.74-1.5-1.28 1.09-15.394 1.87-23.09 2.34-23.09l1.08-.64zm31.42 0h.16c1.387 0 2.314 1.354 2.78 4.062l-.33.42h-.16l-1.31-.427c-3.58.53-7.34 3.026-11.265 7.484-1.1 1.94-1.64 3.29-1.64 4.06v.86c0 2.28 2.34 3.7 7.03 4.26 2.94 0 5.17-1.57 6.69-4.7l-1.96-.84c-.73 0-2.75.85-6.05 2.56-.32-.73-.48-1.44-.48-2.14v-.22c0-2.27 2.17-3.84 6.53-4.7h.33c2.5 0 3.75 1.64 3.75 4.92 0 3.38-2.78 6.38-8.33 8.98l-1.95.42c-3.53 0-5.93-1.5-7.19-4.49l-.33-2.78c0-6.46 3.31-11.95 9.95-16.47 1.68-.86 2.93-1.28 3.76-1.28zM420.08 444.98c1.356 0 2.033.56 2.033 1.69v.42c0 1.55-1.21 2.33-3.627 2.33l-4.515.22c-1.35 7.22-2.03 13.426-2.03 18.624-.37 1.126-.74 1.69-1.13 1.69h-.69c-.78 0-1.23-.215-1.36-.64.77-7.99 1.59-14.48 2.49-19.47l-6.78 1.062c-.63 0-1.01-.634-1.12-1.905 0-2.11 1.89-3.17 5.66-3.17 2.26-.56 5.96-.84 11.08-.84zm15.05.02c4.45.615 6.673 3.276 6.673 7.985 0 6.17-2.44 11.27-7.315 15.31-2.01 1.15-3.805 1.72-5.39 1.72-3.863 0-6.353-2.08-7.47-6.25l-.154-1.934v-.66c0-6.73 3.078-11.83 9.22-15.31 1.54-.57 3.02-.86 4.44-.86zm-11.593 16.83c1.6 2.436 3.72 3.655 6.36 3.655 4.24 0 7.2-2.513 8.89-7.544l.31-2.37c0-3.54-1.747-5.62-5.237-6.25h-.488c-2.886 0-5.9 2.88-9.047 8.63-.533 1.73-.8 3.03-.8 3.89zm46.4-16.783h2.015c.895.565 1.34 1.195 1.34 1.893-.24 1.676-.982 2.514-2.232 2.514-3.594 0-7.1.35-10.515 1.048l-.44 4.627 1.11.2h.89c2.643 0 5.7-.42 9.17-1.27l.67 1.26c-.335 2.52-1.376 3.78-3.126 3.78-1.09.55-4.14.97-9.18 1.25-.35 6.3-.95 9.45-1.8 9.45l-.89.2h-.22c-.38 0-.6-.28-.67-.85 0-3.43.59-9.72 1.78-18.88l-.66-.64c0-2.12 1.49-3.37 4.47-3.77 2.99-.56 5.74-.85 8.27-.85zm8.374-.107h1.47c.49 0 .74.285.74.86-1.14 9.352-1.71 15.842-1.71 19.467v2.377c-.32 1.586-1.13 2.378-2.43 2.378h-.48l-.98-.86c.66-9.81 1.48-17.595 2.46-23.36l.97-.855zm7.1.06c.95 0 2.09 1.78 3.41 5.34 2.56 5.25 5.41 9.74 8.55 13.47 1.05-10.28 1.84-16.34 2.35-18.17l.86-.64h.64c.43 0 .64.285.64.86-1.28 14.685-2.06 22.524-2.34 23.513l-1.28.42c-2.28 0-6.12-4.84-11.53-14.53l-.86-.86-.22.64-.64 9.845v1.28l.22 1.286c-.19 1.71-.75 2.56-1.7 2.56-.87-.31-1.37-.74-1.5-1.28 1.1-15.394 1.88-23.092 2.35-23.092l1.08-.64zm26.03 0h.96c4.53 0 7.31 1.795 8.33 5.39l.19 1.72c0 7.154-5.3 13.05-15.9 17.685l-.94.22h-.2c-.28 0-.53-.504-.75-1.515l1.89-18.55c-.76 0-1.14-.215-1.14-.64v-.44c0-2.29 1.01-3.437 3.03-3.437l4.55-.44zm-3.78 4.53c-1.13 7.374-1.7 12.33-1.7 14.874v1.08c7.95-3.97 11.92-7.71 11.92-11.22v-.2c0-2.02-.56-3.03-1.7-3.03-1.41-1-3.68-1.5-6.81-1.5h-1.7zm37.61-8.423h.47c.77.43 1.16 1.085 1.16 1.97v.5c0 5.345.46 11.606 1.38 18.783h.24c5.08-13.51 8.08-20.27 8.98-20.27h.69c.68 0 1.75 4.7 3.22 14.098 1.39 4.81 2.08 8.843 2.08 12.093-.44 1.16-1.14 1.73-2.07 1.73-.62 0-1.46-4.04-2.53-12.11l-1.85-7.91c-1.32 2.16-3.7 7.76-7.14 16.8-.99 1.02-1.83 1.6-2.53 1.74-2 0-3-2.72-3-8.15L543.22 450h-.237l-6.906 15.81c-.42 2.637-.805 3.95-1.16 3.95h-.9l-.92-.98v-1.235c0-2.214 1.92-6.99 5.765-14.323 2.73-7.7 4.495-11.65 5.297-11.86l1.14-.25zm29.74 3.94h.75c1.03 0 2.34 4.77 3.92 14.3 1.25 4.5 1.88 7.558 1.88 9.173-.26.85-.76 1.28-1.5 1.28-.96 0-1.64-2.278-2.06-6.83l-.19-.2h-.18c-1.62.02-5.05 1.015-10.28 2.983-.5 2.844-1.31 4.266-2.44 4.266-.75-.3-1.12-.86-1.12-1.71 0-1.65 3.44-9.19 10.3-22.63l.94-.64zm-.37 5.97c-1.5 2.71-2.87 5.56-4.12 8.55h1.31c1.27 0 2.9-.285 4.88-.86L575 451h-.375zM594.79 445h2.16c3.3 0 4.95 1.15 4.95 3.455v.22c0 4.03-3.45 7.697-10.345 11v.202c3.448 3.167 6.32 5.54 8.62 7.125v.64c0 1.11-.36 1.83-1.08 2.152h-.85l-11.84-8.4-.22 4.32v3.235c-.364.72-.94 1.08-1.72 1.08-.57 0-1.003-.29-1.295-.86v-1.3l1.936-16.83c-.573 0-.86-.43-.86-1.29 0-2.6 2.15-4.11 6.45-4.53l4.098-.22zm-7.53 11.64h.22c7.46-1.915 11.19-4 11.19-6.25v-.22c0-.394-.72-.68-2.15-.86-2.386 0-5.256.51-8.61 1.52l-.64 5.81zm16.547-11.59l4.78 7.25 2.09 1.72c2.645-4.71 4.49-7.56 5.53-8.55h.95l.766.86c-.107.76-3.096 6.09-8.97 16-1.48 2.78-2.56 5.27-3.25 7.467l-.56.22c-.9-.412-1.35-1.052-1.35-1.92.05-1.11 1.58-4.6 4.58-10.45-4.325-4.644-6.487-8.415-6.487-11.31.804-.854 1.44-1.28 1.91-1.28zm35.36 0h.75c1.03 0 2.34 4.765 3.92 14.296 1.25 4.5 1.87 7.56 1.87 9.174-.262.853-.762 1.28-1.5 1.28-.96 0-1.647-2.276-2.064-6.828l-.19-.208h-.19c-1.625.02-5.05 1.016-10.28 2.984-.5 2.843-1.31 4.265-2.44 4.265-.75-.29-1.124-.86-1.124-1.702 0-1.64 3.43-9.18 10.3-22.62l.94-.64zm-.38 5.97c-1.5 2.706-2.875 5.555-4.125 8.545h1.313c1.27 0 2.9-.286 4.88-.86l-1.68-7.69h-.377zm11.95-6.02c.95 0 2.084 1.78 3.407 5.342 2.56 5.25 5.41 9.74 8.55 13.47 1.05-10.28 1.83-16.34 2.34-18.17l.86-.64h.64c.42 0 .64.29.64.86-1.28 14.69-2.06 22.527-2.35 23.516l-1.28.42c-2.28 0-6.12-4.842-11.53-14.53l-.86-.86-.22.64-.64 9.845v1.28l.22 1.285c-.185 1.71-.753 2.565-1.7 2.565-.876-.317-1.376-.74-1.5-1.28 1.093-15.4 1.874-23.1 2.343-23.1l1.08-.64zm26.03 0h.955c4.53 0 7.31 1.795 8.33 5.39l.185 1.72c0 7.154-5.3 13.05-15.906 17.685l-.93.22h-.2c-.28 0-.53-.505-.75-1.516l1.89-18.55c-.76 0-1.14-.21-1.14-.64v-.44c0-2.29 1.01-3.43 3.03-3.43l4.55-.44zm-3.78 4.53c-1.134 7.375-1.7 12.333-1.7 14.875v1.08c7.946-3.97 11.92-7.71 11.92-11.22v-.203c0-2.02-.57-3.03-1.704-3.03-1.41-1-3.68-1.5-6.816-1.5H673zM465.62 486.99h.406c.67.365 1 .933 1 1.704v.437c0 4.63.408 10.04 1.22 16.25h.204c4.458-11.69 7.083-17.53 7.875-17.53h.61c.593 0 1.536 4.06 2.83 12.19 1.206 4.17 1.81 7.66 1.81 10.47-.396 1-1 1.5-1.81 1.5-.544 0-1.284-3.49-2.22-10.48l-1.626-6.83c-1.16 1.86-3.25 6.7-6.27 14.54-.87.89-1.61 1.39-2.22 1.5-1.75 0-2.63-2.35-2.63-7.06l-1-8.97-.21.01-6.06 13.67c-.37 2.28-.71 3.42-1.02 3.42h-.8l-.81-.84v-1.08c0-1.91 1.68-6.04 5.04-12.39 2.39-6.66 3.94-10.08 4.64-10.26l1.01-.22zm27.188.047h.75c1.03 0 2.338 4.766 3.92 14.297 1.25 4.5 1.876 7.557 1.876 9.172-.26.853-.76 1.28-1.5 1.28-.96 0-1.646-2.276-2.063-6.828l-.19-.205h-.18c-1.62.02-5.05 1.016-10.28 2.984-.5 2.84-1.31 4.264-2.44 4.264-.75-.29-1.12-.86-1.12-1.7 0-1.64 3.43-9.18 10.3-22.62l.94-.64zm-.375 5.97c-1.5 2.707-2.876 5.556-4.126 8.546h1.31c1.27 0 2.897-.287 4.876-.86l-1.69-7.692h-.376zm20.155-6.017h2.156c3.302 0 4.953 1.15 4.953 3.454v.218c0 4.035-3.45 7.7-10.345 11v.206c3.45 3.167 6.323 5.54 8.625 7.125v.64c0 1.115-.36 1.833-1.078 2.156h-.86l-11.85-8.41-.22 4.31v3.23c-.37.72-.94 1.07-1.72 1.07-.58 0-1.01-.29-1.3-.86v-1.3l1.94-16.83c-.58 0-.86-.43-.86-1.28 0-2.59 2.15-4.1 6.45-4.53l4.09-.22zm-7.532 11.64h.22c7.46-1.916 11.188-4 11.188-6.25v-.22c0-.394-.72-.68-2.156-.86-2.385 0-5.255.508-8.61 1.52l-.64 5.81zm26.267-11.64h2.156c3.3 0 4.95 1.15 4.95 3.454v.218c0 4.035-3.45 7.7-10.35 11v.206c3.44 3.167 6.32 5.54 8.62 7.125v.64c0 1.115-.36 1.833-1.08 2.156h-.86l-11.84-8.41-.22 4.31v3.23c-.37.72-.94 1.07-1.72 1.07-.57 0-1.01-.29-1.3-.86v-1.3l1.94-16.83c-.58 0-.86-.43-.86-1.28 0-2.59 2.15-4.1 6.45-4.53l4.09-.22zm-7.53 11.64h.22c7.456-1.916 11.185-4 11.185-6.25v-.22c0-.394-.72-.68-2.156-.86-2.387 0-5.256.508-8.61 1.52l-.64 5.81zm16.546-11.593l4.78 7.25 2.09 1.72c2.64-4.708 4.49-7.557 5.53-8.547h.95l.76.86c-.1.76-3.09 6.09-8.97 16-1.48 2.78-2.56 5.27-3.25 7.465l-.56.22c-.9-.417-1.35-1.057-1.35-1.922.05-1.114 1.57-4.6 4.57-10.453-4.32-4.645-6.49-8.416-6.49-11.312.8-.854 1.44-1.28 1.91-1.28zm42.4-.046c.74.2 1.11.71 1.11 1.52v.21c-1.05 15.39-1.79 23.08-2.22 23.08l-.24.22h-.66c-.77 0-1.29-.36-1.56-1.08.29-2.05.43-4.92.43-8.62h-.22l-9.34 2.16-.66.86v4.1c0 1.22-.45 2.09-1.35 2.6h-.44c-.84 0-1.36-.36-1.57-1.08 1.03-15.53 2.51-23.29 4.45-23.29h.43l.67.87c-1.05 5.16-1.57 8.97-1.57 11.42 6.82-.89 10.23-1.97 10.23-3.23l.89-9.06 1.56-.64zm19.22.05c.71.16 1.07.71 1.07 1.64-.23 1.77-.95 2.66-2.14 2.66-7.86 0-11.79 1.1-11.79 3.28l-.22 1.85v1.02c5.12-1.23 8.62-1.84 10.5-1.84h.42c.72.31 1.08 1 1.08 2.05 0 1.5-1 2.25-3 2.25-6.58.86-9.86 1.88-9.86 3.08l-.2 2.05v.82c0 1.23.78 1.91 2.34 2.05 2.46-.27 5.53-.88 9.22-1.84h.64c.57.22.86.7.86 1.44v.61c0 1.68-3.58 2.98-10.72 3.89h-.64c-2.57 0-4-1.63-4.28-4.9 0-2.41.5-6.98 1.5-13.72l-.42-1.23c0-2.77 4.28-4.41 12.84-4.91l2.78-.2zm12.71-.04h2.15c3.3 0 4.95 1.15 4.95 3.46v.22c0 4.04-3.45 7.7-10.35 11v.21c3.45 3.17 6.32 5.54 8.62 7.13v.64c0 1.12-.36 1.84-1.08 2.16h-.86l-11.85-8.4-.22 4.32v3.24c-.36.72-.94 1.08-1.72 1.08-.58 0-1.01-.28-1.3-.86v-1.3l1.94-16.84c-.57 0-.86-.43-.86-1.28 0-2.6 2.15-4.11 6.45-4.53l4.09-.22zm-7.53 11.64h.21c7.45-1.91 11.18-4 11.18-6.25v-.21c0-.39-.72-.68-2.16-.86-2.39 0-5.26.51-8.61 1.52l-.64 5.82zm24.98-15.56c.62.29.93.64.93 1.05-2.97 9.57-4.45 15.62-4.45 18.17-.85.98-1.56 1.47-2.13 1.47-.94-.33-1.41-.75-1.41-1.25 1.48-12.95 3.44-19.43 5.87-19.43h1.17zm-5.55 23.46c1.48.28 2.21 1.06 2.21 2.32v.21c-.59 1.98-2.01 2.97-4.26 2.97-1.11 0-1.79-.77-2.02-2.31 0-1.78 1.35-2.83 4.06-3.17z" fill="#000"/></g></svg>