<svg width="1540" height="820" viewBox="0 0 1540 820" xmlns="http://www.w3.org/2000/svg" xmlns:xlink="http://www.w3.org/1999/xlink"><title>story34</title><defs><path id="a" d="M0 0h1540v820H0z"/><mask id="b" x="0" y="0" width="1540" height="820" fill="#fff"><use xlink:href="#a"/></mask><path id="d" d="M579 40h909v120H579z"/><filter x="-50%" y="-50%" width="200%" height="200%" filterUnits="objectBoundingBox" id="c"><feOffset dx="6" dy="6" in="SourceAlpha" result="shadowOffsetOuter1"/><feColorMatrix values="0 0 0 0 0 0 0 0 0 0 0 0 0 0 0 0 0 0 1 0" in="shadowOffsetOuter1"/></filter></defs><g fill="none" fill-rule="evenodd"><use stroke="#000" mask="url(#b)" stroke-width="8" fill="#402412" xlink:href="#a"/><path stroke="#000" stroke-width="4" fill="#371F0F" d="M235 132h1066v556H235z"/><path d="M4 2l229.457 129.306c0 .384.523.694 1.174.694h1065.19c.65 0 1.18-.31 1.18-.694L1538 2H4z" stroke="#000" stroke-width="4" stroke-linejoin="bevel" fill="#28170B"/><path d="M4 818l229.457-129.306c0-.384.523-.694 1.174-.694h1065.19c.65 0 1.18.31 1.18.694L1538 818H4z" stroke="#000" stroke-width="4" stroke-linejoin="bevel" fill="#2B2200"/><path stroke="#000" stroke-width="4" fill="#00002B" d="M860 190h380v265H860z"/><path fill="#FFE680" d="M942.89 256.34l-11.36-10.833-13.362 8.236 6.795-14.15L913 229.428l15.558 2.088 5.97-14.518 2.82 15.442L953 233.63l-13.815 7.455m99.815 87.24l-15.566-1.807-5.697 14.598-3.093-15.362-15.644-.906 13.654-7.69-3.97-15.158 11.53 10.61 13.19-8.462-6.527 14.247 12.123 9.93m146.11 74.22l-14.287-7.04-10.435 12.034 2.28-15.77-14.668-6.2 15.696-2.71 1.37-15.87 7.42 14.09 15.514-3.6-11.11 11.41 8.22 13.64m-239.405 24.8l-7.184-14.17-15.52 3.36 11.25-11.21-7.98-13.72 14.14 7.23L950.99 387l-2.51 15.68 14.53 6.41-15.69 2.457-1.607 15.796"/><path d="M1157.257 236c17.555 20.147 14.346 51.676-7.168 70.422-21.52 18.745-53.19 17.608-70.74-2.54-.12-.134-.24-.27-.35-.405 0 0 28.59 10.445 57.93-14.61 24.92-21.294 20.32-52.867 20.32-52.867z" stroke="#222" stroke-width="3.711" fill="#E6E6E6"/><use fill="#000" filter="url(#c)" xlink:href="#d"/><use fill="#FFF" xlink:href="#d"/><path d="M675.577 60c1.03 0 1.547 3.158 1.547 9.475l2.057 11.97h.51c0-.68 2.07-4.394 6.19-11.144.65-4.45 1.85-6.68 3.61-6.68h.51c1.03 0 1.89 3.44 2.57 10.31 1.15 4.69 2.01 7.48 2.59 8.37.54-2.36 3.28-9.33 8.23-20.9.73-.74 1.42-1.11 2.06-1.11.93 0 1.53.37 1.81 1.11 0 .95-2.57 7.17-7.71 18.67-.87 2.71-1.64 6.42-2.32 11.15-.55.93-1.23 1.39-2.05 1.39-1.57 0-2.77-3.15-3.6-9.47-1.67-6.15-2.7-9.49-3.09-10.02l-5.15 8.92c-.85 1.73-1.63 4.71-2.32 8.91-.45.68-1.14 1.14-2.05 1.39-1.43 0-2.63-4.83-3.6-14.48-1.37-6.82-2.05-12.3-2.05-16.43 0-.55.77-1.01 2.32-1.39zm48.06 4.447c.83.223 1.247.79 1.247 1.705v.23c-1.172 17.308-2.004 25.962-2.496 25.962l-.264.246h-.738c-.867 0-1.453-.404-1.758-1.213.328-2.31.492-5.543.492-9.703h-.246L709.362 84.1l-.738.966v4.606c0 1.37-.504 2.344-1.512 2.918h-.492c-.937 0-1.523-.404-1.758-1.213 1.16-17.473 2.83-26.21 5.01-26.21h.492l.756.985c-1.172 5.8-1.758 10.084-1.758 12.85 7.676-1.008 11.514-2.22 11.514-3.64l1.002-10.194 1.758-.72zm21.62.053c.808.176 1.213.79 1.213 1.846-.258 1.992-1.06 2.988-2.408 2.988-8.836 0-13.254 1.23-13.254 3.69l-.246 2.076v1.142c5.765-1.383 9.703-2.074 11.812-2.074h.475c.8.352 1.21 1.12 1.21 2.303 0 1.69-1.13 2.54-3.38 2.54-7.4.96-11.09 2.12-11.09 3.47l-.23 2.31v.92c0 1.38.88 2.15 2.64 2.3 2.76-.3 6.22-.99 10.37-2.07h.72c.64.25.96.79.96 1.62v.69c0 1.89-4.02 3.35-12.06 4.38h-.72c-2.9 0-4.5-1.84-4.82-5.52 0-2.7.56-7.85 1.68-15.43l-.48-1.39c0-3.11 4.81-4.95 14.45-5.52l3.13-.23zm5.08-.053c1.066 0 2.344 2.004 3.832 6.012 2.88 5.9 6.08 10.95 9.61 15.15 1.18-11.57 2.06-18.38 2.63-20.45l.96-.72h.72c.48 0 .72.32.72.96-1.44 16.52-2.32 25.34-2.64 26.45l-1.44.47c-2.57 0-6.89-5.45-12.98-16.35l-.97-.97-.25.72-.72 11.07v1.44l.24 1.44c-.21 1.92-.85 2.88-1.92 2.88-.99-.35-1.55-.83-1.69-1.44 1.23-17.32 2.11-25.98 2.64-25.98l1.21-.72zm54.37-.017c1.523 0 2.284.632 2.284 1.898v.475c0 1.746-1.35 2.62-4.07 2.62l-5.08.245c-1.52 8.12-2.28 15.105-2.28 20.953-.41 1.27-.83 1.9-1.26 1.9h-.77c-.88 0-1.39-.24-1.53-.72.86-8.99 1.79-16.29 2.8-21.9l-7.63 1.2c-.71 0-1.13-.71-1.26-2.14 0-2.38 2.12-3.57 6.37-3.57 2.54-.63 6.7-.95 12.46-.95zm20.337.017c.832.223 1.248.79 1.248 1.705v.23c-1.172 17.308-2.004 25.962-2.496 25.962l-.264.246h-.738c-.867 0-1.453-.404-1.758-1.213.328-2.31.492-5.543.492-9.703h-.246l-10.51 2.426-.74.966v4.606c0 1.37-.504 2.344-1.51 2.918h-.494c-.937 0-1.523-.404-1.757-1.213 1.16-17.473 2.83-26.21 5.01-26.21h.5l.76.985c-1.17 5.8-1.75 10.084-1.75 12.85 7.68-1.008 11.52-2.22 11.52-3.64l1-10.194 1.76-.72zm21.62.053c.81.176 1.214.79 1.214 1.846-.258 1.992-1.06 2.988-2.408 2.988-8.836 0-13.254 1.23-13.254 3.69l-.246 2.076v1.142c5.765-1.383 9.703-2.074 11.812-2.074h.475c.808.352 1.213 1.12 1.213 2.303 0 1.69-1.125 2.54-3.375 2.54-7.395.96-11.092 2.12-11.092 3.47l-.23 2.31v.92c0 1.38.88 2.15 2.638 2.3 2.77-.3 6.23-.99 10.38-2.07h.72c.65.25.97.79.97 1.62v.69c0 1.89-4.02 3.35-12.06 4.38h-.72c-2.89 0-4.5-1.84-4.81-5.52 0-2.7.57-7.85 1.69-15.43l-.47-1.39c0-3.11 4.82-4.95 14.45-5.52l3.13-.23zm18.493-4.5c1.03 0 1.547 3.158 1.547 9.475l2.057 11.97h.51c0-.68 2.07-4.394 6.19-11.144.65-4.45 1.85-6.68 3.61-6.68h.51c1.03 0 1.89 3.44 2.57 10.31 1.15 4.69 2.01 7.48 2.59 8.37.54-2.36 3.28-9.33 8.23-20.9.73-.74 1.41-1.11 2.06-1.11.93 0 1.53.37 1.81 1.11 0 .95-2.57 7.17-7.71 18.67-.87 2.71-1.64 6.42-2.32 11.15-.55.93-1.23 1.39-2.05 1.39-1.57 0-2.77-3.15-3.6-9.47-1.67-6.15-2.7-9.49-3.09-10.02l-5.15 8.92c-.85 1.73-1.63 4.71-2.32 8.91-.45.68-1.14 1.14-2.05 1.39-1.43 0-2.63-4.83-3.6-14.48-1.37-6.82-2.06-12.3-2.06-16.43 0-.55.78-1.01 2.32-1.39zm34.928 4.377h1.652c.55 0 .826.322.826.967-1.29 10.523-1.933 17.824-1.933 21.902v2.672c-.363 1.78-1.277 2.672-2.742 2.672h-.545l-1.108-.967c.74-11.04 1.66-19.8 2.76-26.28l1.09-.966zm19.02.123h.37c1.616.2 2.424.984 2.424 2.355v.475c0 2.367-.81 4.57-2.43 6.61h-.37c-.26-.07-.51-.463-.76-1.178l.95-3.533-.74-.48c-1.73.15-4.89 2.04-9.5 5.66v.23l12.27 2.37c1.24.98 1.86 2.63 1.86 4.95v1.4c0 3.17-2.05 5.93-6.14 8.26-1.61.63-3.16.95-4.66.95H912c-4.266 0-6.87-1.89-7.805-5.66V85.5c0-1.735.432-2.602 1.3-2.602.855 3 2.41 4.5 4.66 4.5 0 .307.93.46 2.793.46 2.752 0 5.42-1.41 7.996-4.237 0-1.87-3.965-3.06-11.9-3.55-2.86-.79-4.29-1.97-4.29-3.53 0-3.83 3.846-7.69 11.534-11.56l2.794-.47zm25.048 0c.81.176 1.213.79 1.213 1.846-.258 1.992-1.06 2.988-2.408 2.988-8.836 0-13.254 1.23-13.254 3.69l-.246 2.076v1.142c5.766-1.383 9.703-2.074 11.813-2.074h.48c.81.352 1.22 1.12 1.22 2.303 0 1.69-1.12 2.54-3.37 2.54-7.39.96-11.09 2.12-11.09 3.47l-.22 2.31v.92c0 1.38.88 2.15 2.64 2.3 2.77-.3 6.23-.99 10.37-2.07h.72c.65.25.97.79.97 1.62v.69c0 1.89-4.02 3.35-12.06 4.38h-.72c-2.89 0-4.5-1.84-4.81-5.52 0-2.7.56-7.85 1.69-15.43l-.47-1.39c0-3.11 4.82-4.95 14.45-5.52l3.13-.23zm28.635-4.43h.527c.868.48 1.3 1.22 1.3 2.215v.563c0 6.01.517 13.054 1.548 21.13h.264c5.72-15.2 9.088-22.8 10.107-22.8h.774c.76 0 1.968 5.285 3.62 15.855 1.56 5.414 2.34 9.95 2.34 13.606-.505 1.3-1.285 1.95-2.34 1.95-.69 0-1.64-4.54-2.847-13.63l-2.07-8.9c-1.49 2.42-4.16 8.72-8.03 18.89-1.11 1.14-2.06 1.8-2.85 1.95-2.25 0-3.37-3.06-3.37-9.18l-1.28-11.67h-.26l-7.77 17.79c-.47 2.96-.9 4.44-1.3 4.44h-1.04l-1.03-1.11V89.8c0-2.495 2.16-7.87 6.49-16.12 3.07-8.66 5.06-13.105 5.96-13.34l1.28-.28zm41.397 4.43c.808.176 1.212.79 1.212 1.846-.257 1.992-1.06 2.988-2.408 2.988-8.84 0-13.26 1.23-13.26 3.69l-.25 2.076v1.142c5.76-1.383 9.7-2.074 11.81-2.074h.47c.81.352 1.21 1.12 1.21 2.303 0 1.69-1.13 2.54-3.38 2.54-7.4.96-11.09 2.12-11.09 3.47l-.23 2.31v.92c0 1.38.88 2.15 2.64 2.3 2.76-.3 6.22-.99 10.37-2.07h.72c.64.25.96.79.96 1.62v.69c0 1.89-4.02 3.35-12.06 4.38h-.72c-2.9 0-4.5-1.84-4.82-5.52 0-2.7.56-7.85 1.69-15.43l-.48-1.39c0-3.11 4.81-4.95 14.45-5.52l3.13-.23zm5.08-.053c1.066 0 2.343 2.004 3.832 6.012 2.883 5.9 6.088 10.95 9.615 15.15 1.184-11.57 2.062-18.38 2.637-20.45l.96-.72h.72c.48 0 .72.32.72.96-1.44 16.52-2.32 25.34-2.64 26.45l-1.44.47c-2.57 0-6.9-5.45-12.98-16.35l-.97-.97-.25.72-.72 11.07v1.44l.24 1.44c-.22 1.92-.85 2.88-1.92 2.88-.99-.35-1.55-.83-1.69-1.44 1.23-17.32 2.11-25.98 2.63-25.98l1.21-.72zm53.63 0c.833.223 1.25.79 1.25 1.705v.23c-1.173 17.308-2.005 25.962-2.498 25.962l-.263.246h-.738c-.868 0-1.454-.404-1.758-1.213.328-2.31.492-5.543.492-9.703h-.246l-10.512 2.426-.738.966v4.606c0 1.37-.504 2.344-1.512 2.918h-.492c-.938 0-1.524-.404-1.758-1.213 1.16-17.473 2.83-26.21 5.01-26.21h.492l.756.985c-1.172 5.8-1.758 10.084-1.758 12.85 7.676-1.008 11.514-2.22 11.514-3.64l1.002-10.194 1.758-.72zm13.676.053h.85c1.16 0 2.63 5.36 4.41 16.084 1.41 5.063 2.11 8.502 2.11 10.318-.29.96-.85 1.442-1.69 1.442-1.08 0-1.85-2.56-2.32-7.682l-.21-.228h-.21c-1.83.023-5.68 1.142-11.57 3.357-.56 3.2-1.47 4.8-2.74 4.8-.84-.32-1.26-.96-1.26-1.91 0-1.85 3.86-10.33 11.59-25.45l1.06-.72zm-.42 6.715c-1.68 3.047-3.23 6.252-4.64 9.615h1.48c1.43 0 3.26-.322 5.49-.967l-1.9-8.648h-.42zm18.97-6.768h1.07c5.1 0 8.22 2.022 9.37 6.065l.21 1.933c0 8.05-5.96 14.684-17.89 19.9l-1.05.245h-.23c-.31 0-.59-.57-.84-1.705l2.13-20.865c-.85 0-1.28-.24-1.28-.72v-.493c0-2.578 1.14-3.868 3.41-3.868l5.12-.5zm-4.25 5.098c-1.27 8.297-1.91 13.875-1.91 16.734v1.21c8.94-4.47 13.41-8.67 13.41-12.62v-.23c0-2.28-.64-3.41-1.91-3.41-1.58-1.13-4.13-1.69-7.66-1.69h-1.91zm45.28-5.098h.18c1.56 0 2.6 1.524 3.13 4.57l-.37.475h-.17l-1.47-.474c-4.03.597-8.25 3.404-12.67 8.42-1.23 2.18-1.84 3.703-1.84 4.57v.967c0 2.566 2.64 4.166 7.91 4.798 3.31 0 5.81-1.763 7.53-5.29l-2.19-.95c-.82 0-3.09.96-6.8 2.883-.36-.82-.54-1.623-.54-2.408v-.246c0-2.555 2.45-4.32 7.35-5.29h.37c2.81 0 4.22 1.844 4.22 5.536 0 3.808-3.13 7.178-9.37 10.107l-2.2.475c-3.97 0-6.67-1.682-8.09-5.045l-.37-3.13c0-7.265 3.73-13.44 11.2-18.526 1.89-.97 3.3-1.45 4.24-1.45zm21.08 0c5.01.692 7.51 3.686 7.51 8.983 0 6.937-2.74 12.68-8.22 17.226-2.26 1.29-4.28 1.934-6.06 1.934-4.34 0-7.15-2.344-8.4-7.03l-.17-2.18v-.74c0-7.57 3.46-13.312 10.37-17.226 1.74-.644 3.4-.967 5-.967zm-13.05 18.933c1.81 2.74 4.19 4.11 7.16 4.11 4.77 0 8.11-2.83 10.01-8.49l.35-2.67c0-3.985-1.97-6.33-5.89-7.03h-.55c-3.24 0-6.64 3.232-10.18 9.7-.59 1.946-.89 3.405-.89 4.378zm25.53-18.934c1.07 0 2.35 2.004 3.84 6.012 2.89 5.905 6.09 10.956 9.62 15.15 1.19-11.565 2.07-18.38 2.64-20.442l.97-.72h.72c.48 0 .72.322.72.966-1.44 16.524-2.32 25.342-2.63 26.455l-1.44.474c-2.56 0-6.89-5.45-12.97-16.34l-.96-.96-.24.72-.72 11.08v1.45l.25 1.44c-.21 1.93-.85 2.89-1.91 2.89-.98-.35-1.54-.83-1.68-1.44 1.23-17.32 2.11-25.98 2.64-25.98l1.21-.72zm38.71.053c.81.17 1.22.79 1.22 1.84-.25 1.99-1.06 2.99-2.4 2.99-8.83 0-13.25 1.23-13.25 3.69l-.24 2.07v1.14c5.77-1.38 9.71-2.08 11.81-2.08h.48c.81.35 1.21 1.12 1.21 2.3 0 1.69-1.12 2.53-3.37 2.53-7.39.96-11.09 2.11-11.09 3.46l-.23 2.3v.91c0 1.38.88 2.15 2.64 2.3 2.77-.3 6.22-1 10.37-2.07h.72c.65.24.97.78.97 1.61v.68c0 1.89-4.02 3.35-12.06 4.38h-.72c-2.89 0-4.5-1.84-4.81-5.52 0-2.71.56-7.85 1.69-15.43l-.47-1.39c0-3.12 4.82-4.96 14.45-5.52l3.13-.23zm9.65 21.06c.75.22 1.3.62 1.64 1.21v.47c0 2.79-2.09 6.24-6.27 10.37l-1.09.24h-.28c-.98 0-1.71-.41-2.18-1.22v-.24c3.28-3.64 4.92-6.85 4.92-9.64 1.01-.81 2.1-1.21 3.27-1.21zm29.69-21.06h.85c1.16 0 2.63 5.36 4.42 16.08 1.41 5.06 2.11 8.5 2.11 10.32-.29.96-.85 1.44-1.69 1.44-1.07 0-1.85-2.56-2.32-7.68l-.21-.23h-.21c-1.83.02-5.68 1.14-11.56 3.35-.56 3.2-1.47 4.8-2.74 4.8-.84-.33-1.26-.97-1.26-1.92 0-1.85 3.86-10.34 11.59-25.46l1.05-.72zm-.42 6.71c-1.68 3.04-3.23 6.25-4.64 9.61h1.48c1.43 0 3.26-.33 5.49-.97l-1.9-8.65h-.42zm13.45-6.77c1.07 0 2.35 2 3.83 6.01 2.89 5.9 6.09 10.95 9.62 15.15 1.19-11.57 2.07-18.38 2.64-20.44l.97-.72h.72c.48 0 .72.32.72.96-1.44 16.52-2.32 25.34-2.63 26.45l-1.44.47c-2.57 0-6.89-5.45-12.97-16.35l-.96-.97-.24.72-.72 11.07v1.44l.25 1.44c-.21 1.92-.85 2.88-1.91 2.88-.98-.35-1.55-.83-1.69-1.44 1.23-17.32 2.11-25.98 2.64-25.98l1.21-.72zm45.71.05h.85c1.16 0 2.63 5.36 4.41 16.08 1.41 5.06 2.11 8.5 2.11 10.32-.29.96-.85 1.44-1.68 1.44-1.08 0-1.85-2.56-2.32-7.68l-.21-.23h-.21c-1.82.02-5.68 1.14-11.56 3.35-.56 3.2-1.47 4.8-2.74 4.8-.84-.33-1.26-.97-1.26-1.92 0-1.86 3.86-10.34 11.58-25.46l1.06-.72zm-.42 6.71c-1.69 3.04-3.23 6.25-4.64 9.61h1.48c1.43 0 3.26-.33 5.49-.97l-1.9-8.65h-.42zm13.45-6.77c1.07 0 2.35 2 3.84 6.01 2.88 5.9 6.09 10.95 9.62 15.15 1.19-11.57 2.07-18.38 2.64-20.44l.97-.72h.72c.48 0 .72.32.72.96-1.44 16.52-2.32 25.34-2.63 26.45l-1.44.47c-2.57 0-6.89-5.45-12.97-16.35l-1-.96-.24.72-.72 11.07v1.44l.25 1.44c-.21 1.92-.85 2.88-1.91 2.88-.99-.35-1.55-.83-1.69-1.44 1.23-17.32 2.11-25.98 2.64-25.98l1.21-.72zm35.35 0h.18c1.56 0 2.6 1.52 3.13 4.57l-.37.47h-.17l-1.48-.48c-4.03.6-8.25 3.4-12.67 8.42-1.23 2.18-1.85 3.7-1.85 4.57v.97c0 2.57 2.64 4.17 7.91 4.8 3.31 0 5.81-1.76 7.53-5.29l-2.19-.95c-.82 0-3.09.96-6.8 2.88-.36-.82-.54-1.63-.54-2.41v-.25c0-2.56 2.45-4.32 7.35-5.29h.37c2.81 0 4.22 1.84 4.22 5.53 0 3.81-3.12 7.18-9.37 10.11l-2.2.47c-3.97 0-6.66-1.69-8.08-5.05l-.37-3.13c0-7.27 3.73-13.44 11.2-18.53 1.89-.96 3.3-1.44 4.24-1.44zm24.51.05c.81.17 1.22.79 1.22 1.84-.26 1.99-1.06 2.99-2.41 2.99-8.83 0-13.25 1.23-13.25 3.69l-.24 2.07v1.14c5.77-1.38 9.71-2.07 11.82-2.07h.48c.81.35 1.22 1.12 1.22 2.3 0 1.68-1.13 2.53-3.38 2.53-7.39.96-11.09 2.11-11.09 3.46l-.22 2.3v.91c0 1.38.88 2.15 2.64 2.3 2.77-.31 6.22-1 10.37-2.08h.72c.64.24.97.78.97 1.62v.68c0 1.88-4.02 3.34-12.06 4.37h-.72c-2.9 0-4.5-1.84-4.82-5.52 0-2.7.56-7.85 1.69-15.43l-.47-1.39c0-3.11 4.82-4.95 14.45-5.52l3.13-.23zm4.84-.06h.25c.76 0 1.4.39 1.92 1.18-1.11 8.11-1.91 15.36-2.39 21.76l13.71-2.83.48.7v1.42c0 2.15-4.97 4.12-14.9 5.9-1.77-.32-2.65-.87-2.65-1.66 1.31-17.35 2.27-26.02 2.88-26.02l.72-.48zm-773.28 42.07c.79 0 1.18 2.72 1.18 8.15l1.59 10.33h.39c0-.6 1.58-3.81 4.73-9.62.49-3.83 1.41-5.75 2.76-5.75h.39c.8 0 1.46 2.95 1.97 8.87.88 4.04 1.54 6.44 1.97 7.2.43-2.04 2.53-8.05 6.31-18.02.55-.64 1.08-.95 1.59-.95.71 0 1.16.31 1.37.95 0 .82-1.96 6.18-5.9 16.08-.66 2.34-1.25 5.55-1.77 9.61-.42.8-.95 1.19-1.58 1.19-1.19 0-2.11-2.72-2.74-8.16-1.29-5.31-2.08-8.19-2.37-8.65l-3.93 7.68c-.65 1.5-1.25 4.06-1.77 7.68-.35.58-.87.98-1.57 1.19-1.1 0-2.02-4.16-2.76-12.48-1.05-5.88-1.58-10.61-1.58-14.17 0-.48.59-.88 1.78-1.19zm35.07 0h.85c1.16 0 2.63 5.36 4.41 16.08 1.4 5.06 2.11 8.5 2.11 10.32-.3.96-.86 1.44-1.69 1.44-1.08 0-1.85-2.56-2.32-7.68l-.21-.23h-.21c-1.83.02-5.69 1.14-11.57 3.35-.56 3.2-1.48 4.8-2.74 4.8-.85-.32-1.27-.96-1.27-1.91 0-1.85 3.86-10.33 11.58-25.45l1.06-.72zm-.42 6.71c-1.68 3.04-3.23 6.25-4.64 9.61h1.48c1.43 0 3.25-.33 5.48-.97l-1.9-8.65h-.42zm22.68-6.77h2.42c3.71 0 5.57 1.29 5.57 3.88v.24c0 4.53-3.88 8.66-11.64 12.37v.23c3.88 3.56 7.11 6.23 9.7 8.01v.72c0 1.25-.4 2.06-1.21 2.42h-.97l-13.32-9.46-.25 4.85v3.64c-.41.81-1.06 1.21-1.94 1.21-.64 0-1.13-.33-1.46-.97v-1.46l2.18-18.93c-.64 0-.96-.48-.96-1.45 0-2.91 2.42-4.61 7.26-5.09l4.6-.24zm-8.48 13.09h.24c8.39-2.16 12.59-4.5 12.59-7.03v-.25c0-.45-.81-.77-2.42-.97-2.68 0-5.91.56-9.68 1.7l-.72 6.54zm20.32-13.1c1.06 0 2.34 2 3.83 6.01 2.88 5.9 6.09 10.95 9.61 15.15 1.19-11.57 2.07-18.38 2.64-20.45l.97-.72h.72c.49 0 .73.32.73.96-1.44 16.52-2.32 25.34-2.64 26.45l-1.44.47c-2.57 0-6.89-5.45-12.97-16.35l-.96-.97-.24.72-.72 11.07v1.44l.25 1.44c-.21 1.92-.85 2.88-1.91 2.88-.99-.36-1.55-.84-1.69-1.45 1.23-17.32 2.11-25.98 2.64-25.98l1.21-.72zm38.71.05c.81.17 1.21.79 1.21 1.84-.26 1.99-1.06 2.99-2.41 2.99-8.84 0-13.25 1.23-13.25 3.69l-.24 2.07v1.14c5.77-1.38 9.71-2.07 11.81-2.07h.48c.81.35 1.21 1.12 1.21 2.3 0 1.69-1.12 2.54-3.37 2.54-7.39.96-11.09 2.12-11.09 3.47l-.23 2.3v.92c0 1.38.88 2.15 2.64 2.3 2.77-.3 6.22-1 10.37-2.07h.72c.65.24.97.78.97 1.62v.68c0 1.89-4.02 3.35-12.06 4.38h-.72c-2.89 0-4.5-1.84-4.82-5.52 0-2.71.56-7.85 1.69-15.43l-.48-1.39c0-3.12 4.82-4.96 14.45-5.52l3.13-.23zm10.6-.06h1.07c5.09 0 8.22 2.02 9.37 6.06l.21 1.93c0 8.05-5.97 14.68-17.9 19.9l-1.05.24h-.22c-.32 0-.6-.57-.84-1.7l2.1-20.84c-.85 0-1.28-.24-1.28-.72v-.49c0-2.58 1.14-3.87 3.41-3.87l5.11-.5zm-4.26 5.1c-1.28 8.29-1.92 13.87-1.92 16.73v1.21c8.94-4.47 13.42-8.67 13.42-12.62v-.23c0-2.28-.64-3.41-1.92-3.41-1.58-1.13-4.13-1.69-7.66-1.69h-1.91zm40.82-9.54l9.6.56 5.21-.57.55.84v1.12c0 3-1.73 4.5-5.2 4.5h-.28c-.43 16.28-1.89 24.43-4.38 24.43-1.28 1.12-3.02 1.69-5.22 1.69h-1.92c-6.21-.95-9.31-4.04-9.31-9.27.55-3.14 1.37-5.21 2.46-6.19h.29c.28 0 .74 2.06 1.37 6.18 1.25 2.43 3.26 3.64 6.03 3.64 4.02 0 6.03-1.68 6.03-5.05l1.37-15.74h-3.03c-4.02 0-6.03-.47-6.03-1.41v-.56c.55-2.82 1.37-4.22 2.48-4.22zm30.8 4.44c5.01.69 7.51 3.68 7.51 8.98 0 6.93-2.74 12.68-8.23 17.22-2.26 1.29-4.28 1.93-6.06 1.93-4.34 0-7.15-2.35-8.4-7.03l-.17-2.18v-.74c0-7.57 3.45-13.32 10.37-17.23 1.73-.65 3.4-.97 4.99-.97zm-13.04 18.93c1.81 2.74 4.19 4.11 7.16 4.11 4.77 0 8.1-2.83 10-8.49l.35-2.67c0-3.99-1.96-6.33-5.89-7.03h-.54c-3.25 0-6.64 3.23-10.18 9.7-.6 1.94-.9 3.4-.9 4.37zm36.56-18.88h.37c1.62.2 2.43.98 2.43 2.35v.47c0 2.36-.81 4.57-2.42 6.61h-.36c-.26-.07-.51-.47-.75-1.18l.95-3.53-.74-.48c-1.72.15-4.88 2.04-9.49 5.66v.23l12.27 2.37c1.24.98 1.86 2.63 1.86 4.95v1.4c0 3.18-2.04 5.93-6.13 8.26-1.6.63-3.16.95-4.66.95h-.39c-4.27 0-6.87-1.89-7.81-5.66v-1.42c0-1.73.44-2.6 1.3-2.6.86 3 2.41 4.5 4.66 4.5 0 .31.93.46 2.8.46 2.76 0 5.42-1.41 8-4.24 0-1.87-3.96-3.06-11.9-3.55-2.86-.79-4.29-1.97-4.29-3.53 0-3.83 3.85-7.69 11.53-11.57l2.8-.47zm25.05 0c.81.17 1.22.79 1.22 1.84-.26 1.99-1.06 2.99-2.41 2.99-8.84 0-13.25 1.23-13.25 3.69l-.24 2.07v1.14c5.77-1.38 9.71-2.07 11.81-2.07h.48c.81.35 1.21 1.12 1.21 2.3 0 1.69-1.12 2.54-3.37 2.54-7.39.96-11.09 2.12-11.09 3.47l-.23 2.3v.91c0 1.38.88 2.15 2.64 2.3 2.77-.31 6.23-1 10.37-2.08h.72c.65.25.97.79.97 1.62v.68c0 1.89-4.02 3.35-12.06 4.38h-.72c-2.89 0-4.5-1.84-4.81-5.52 0-2.71.56-7.85 1.69-15.43l-.48-1.39c0-3.12 4.82-4.96 14.45-5.52l3.13-.23zm14.28-.06c4.65 0 6.98 1.36 6.98 4.09 0 5.4-5.1 10.29-15.3 14.66-.75 0-1.12.48-1.12 1.44-.1 5.29-.63 7.94-1.58 7.94h-1.13c-.3-.07-.6-.47-.89-1.2l2.02-19.72h-.23c-.59 0-.89-.73-.89-2.18 0-2.36 1.36-3.72 4.06-4.08l8.09-.97zm-9 13.96c5.14-1.35 9.04-3.59 11.71-6.73l.44-1.46v-.48l-1.13-.25h-1.12c-5.99.33-8.98.89-8.98 1.69l-.92 7.22zm34.75-13.96c.83.22 1.25.79 1.25 1.7v.23c-1.17 17.31-2 25.96-2.5 25.96l-.26.24h-.74c-.86 0-1.45-.41-1.75-1.22.32-2.31.49-5.54.49-9.7h-.25l-10.51 2.42-.74.97v4.61c0 1.37-.5 2.34-1.51 2.92h-.49c-.93 0-1.52-.41-1.75-1.22 1.16-17.47 2.83-26.21 5.01-26.21h.49l.76.99c-1.17 5.8-1.75 10.08-1.75 12.85 7.68-1.01 11.51-2.22 11.51-3.64l1-10.2 1.76-.72zm28.62.05h.84c1.16 0 2.63 5.36 4.41 16.08 1.4 5.06 2.11 8.5 2.11 10.31-.3.96-.86 1.44-1.69 1.44-1.08 0-1.85-2.56-2.32-7.68l-.21-.23h-.21c-1.83.02-5.69 1.14-11.57 3.36-.56 3.2-1.48 4.8-2.74 4.8-.84-.32-1.27-.96-1.27-1.91 0-1.85 3.86-10.33 11.59-25.45l1.05-.72zm-.42 6.71c-1.69 3.04-3.24 6.25-4.64 9.61h1.47c1.43 0 3.26-.33 5.49-.97l-1.9-8.65h-.42zm20.41-6.71c4.74 0 7.12 1.61 7.12 4.85v.72c0 2.26-1.08 4.44-3.22 6.54v.24c3.53 1.07 5.29 2.84 5.29 5.33v.96c0 4.06-3.99 7.04-11.95 8.95l-3.92.5H935c-1.23 0-1.85-.64-1.85-1.93v-.25l1.84-19.87c-.772 0-1.16-.16-1.16-.48v-1.46c0-2.74 3.376-4.11 10.126-4.11zm-6.68 10.89h.24c7.2 0 10.79-1.61 10.79-4.85-1.19-.8-3.18-1.19-5.98-1.19h-2.76c-1.22 0-1.83.56-1.83 1.68l-.47 4.35zm-.46 4.61l-.46 7.73 2.3.49.22-.24h1.15c6.45-.84 9.67-2.37 9.67-4.59-2.12-2.26-5.42-3.4-9.9-3.4h-.91l-.23-.25-.23.25h-1.62zm32.9-15.56c5 .69 7.5 3.69 7.5 8.99 0 6.93-2.74 12.68-8.22 17.22-2.26 1.29-4.28 1.93-6.07 1.93-4.34 0-7.15-2.35-8.4-7.03l-.18-2.18v-.74c0-7.57 3.46-13.32 10.37-17.23 1.74-.64 3.4-.97 5-.97zm-13.06 18.95c1.81 2.74 4.19 4.11 7.16 4.11 4.77 0 8.11-2.83 10.01-8.49l.35-2.67c0-3.99-1.96-6.33-5.89-7.03h-.54c-3.24 0-6.63 3.23-10.17 9.7-.6 1.94-.89 3.4-.89 4.38zm26.9-18.94c.75.31 1.17.62 1.25.95-1.33 8.36-2 14.43-2 18.21v2.61c4.48 0 8.15-2.06 11.01-6.16 1.13-9.93 2.21-14.9 3.25-14.9h.27c.99.11 1.49.35 1.49.72-1.5 9.05-2.25 15.83-2.25 20.34v3.78c0 1.24-.51 2.11-1.51 2.6h-1l-.98-.95v-.47l.25-4.01c-.6 0-3.85 1.49-9.75 4.48l-1.75.47c-2-.26-3-1.13-3-2.6v-.23c1.22-16.56 2.64-24.84 4.25-24.84h.51zm35.51-.01c1.52 0 2.29.63 2.29 1.9v.47c0 1.74-1.36 2.62-4.08 2.62l-5.08.24c-1.52 8.12-2.28 15.11-2.28 20.96-.41 1.27-.83 1.9-1.26 1.9h-.77c-.88 0-1.39-.24-1.53-.72.86-8.99 1.79-16.29 2.8-21.9l-7.63 1.2c-.71 0-1.13-.72-1.26-2.15 0-2.38 2.12-3.57 6.36-3.57 2.54-.63 6.7-.95 12.46-.95zm22.47-4.43l.86 1.1-.86 10.6 17.46-9.19c.76.89 1.14 2.01 1.14 3.34-1.97 2.63-7.03 5.97-15.17 10.02v.28c3.76 4.67 8.06 8.57 12.88 11.71v.55c0 2.61-.96 3.91-2.87 3.91l-14.31-11.15c-.57 7.43-1.13 11.14-1.71 11.14l-1.44.28c-.95-.31-1.43-.86-1.43-1.67l1.14-13.1-.28-3.34c.64 0 1.21-4.09 1.7-12.25.78-1.49 1.74-2.23 2.86-2.23zm24.35 4.37h1.65c.55 0 .83.33.83.97-1.29 10.53-1.93 17.83-1.93 21.9v2.68c-.36 1.78-1.28 2.67-2.74 2.67h-.54l-1.1-.97c.73-11.04 1.65-19.8 2.76-26.28l1.09-.97zm7.98.07c1.06 0 2.34 2.01 3.83 6.02 2.88 5.91 6.09 10.96 9.62 15.15 1.19-11.56 2.07-18.38 2.64-20.44l.97-.72h.72c.48 0 .72.33.72.97-1.44 16.52-2.32 25.34-2.64 26.45l-1.44.48c-2.56 0-6.89-5.45-12.97-16.35l-.96-.97-.24.72-.72 11.07v1.44l.25 1.44c-.21 1.93-.85 2.89-1.91 2.89-.99-.35-1.55-.83-1.69-1.44 1.23-17.32 2.11-25.98 2.64-25.98l1.21-.72zm35.35 0h.17c1.56 0 2.6 1.53 3.13 4.57l-.37.48h-.18l-1.48-.47c-4.03.6-8.25 3.41-12.67 8.42-1.23 2.18-1.85 3.71-1.85 4.57v.97c0 2.57 2.64 4.17 7.91 4.8 3.31 0 5.81-1.76 7.52-5.29l-2.2-.95c-.82 0-3.09.96-6.8 2.88-.36-.82-.55-1.62-.55-2.41v-.24c0-2.56 2.45-4.32 7.35-5.29h.37c2.81 0 4.22 1.84 4.22 5.53 0 3.81-3.12 7.18-9.37 10.11l-2.19.47c-3.97 0-6.66-1.68-8.08-5.04l-.37-3.13c0-7.26 3.74-13.44 11.2-18.53 1.89-.97 3.3-1.45 4.24-1.45zm45.03-4.44c1.08.26 1.62.92 1.62 1.97v.28c-1.51 20.04-2.6 30.06-3.25 30.06l-.32.28h-.99c-1.13 0-1.88-.47-2.27-1.4.43-2.67.65-6.42.65-11.23h-.33l-13.64 2.81-.98 1.13v5.33c0 1.6-.65 2.72-1.95 3.38h-.65c-1.21 0-1.97-.47-2.27-1.41 1.51-20.23 3.68-30.34 6.5-30.34h.65l.96 1.12c-1.51 6.71-2.27 11.68-2.27 14.89 9.96-1.17 14.94-2.58 14.94-4.22l1.3-11.8 2.28-.85zm22.08 4.5c.81.18 1.22.79 1.22 1.85-.25 1.99-1.06 2.99-2.41 2.99-8.83 0-13.25 1.23-13.25 3.69l-.24 2.08v1.14c5.77-1.39 9.71-2.08 11.81-2.08h.48c.81.35 1.22 1.12 1.22 2.3 0 1.69-1.12 2.53-3.37 2.53-7.4.96-11.09 2.11-11.09 3.46l-.23 2.3v.91c0 1.38.88 2.15 2.63 2.3 2.76-.31 6.22-1 10.37-2.08h.72c.64.25.96.78.96 1.62v.68c0 1.88-4.02 3.34-12.06 4.37h-.73c-2.89 0-4.5-1.84-4.82-5.52 0-2.7.56-7.85 1.69-15.43l-.47-1.39c0-3.12 4.82-4.96 14.45-5.52l3.13-.23zm14.31-.05h2.43c3.72 0 5.57 1.3 5.57 3.89v.25c0 4.53-3.88 8.66-11.64 12.37v.23c3.88 3.56 7.11 6.23 9.7 8.01v.72c0 1.25-.4 2.06-1.21 2.43h-.97l-13.32-9.46-.24 4.85v3.64c-.41.81-1.06 1.21-1.94 1.21-.64 0-1.13-.33-1.46-.97v-1.46l2.18-18.93c-.64 0-.96-.48-.96-1.45 0-2.92 2.42-4.62 7.26-5.1l4.61-.25zm-8.47 13.1h.25c8.39-2.16 12.59-4.5 12.59-7.03v-.25c0-.45-.8-.77-2.42-.97-2.68 0-5.91.57-9.68 1.7l-.72 6.54zm31.84-13.1c5 .7 7.51 3.69 7.51 8.99 0 6.93-2.75 12.68-8.23 17.22-2.26 1.29-4.28 1.93-6.06 1.93-4.35 0-7.15-2.35-8.4-7.03l-.18-2.18v-.74c0-7.57 3.45-13.32 10.37-17.23 1.73-.65 3.4-.97 4.99-.97zM1201 125.35c1.8 2.74 4.19 4.117 7.15 4.117 4.77 0 8.106-2.83 10.004-8.49l.35-2.67c0-3.98-1.96-6.33-5.89-7.03h-.542c-3.244 0-6.64 3.23-10.176 9.7-.594 1.95-.893 3.4-.893 4.38zm31.03-18.93h1.07c5.096 0 8.22 2.02 9.37 6.068l.21 1.94c0 8.05-5.967 14.68-17.896 19.9l-1.05.24h-.23c-.315 0-.596-.57-.84-1.7l2.126-20.862c-.85 0-1.28-.24-1.28-.72v-.5c0-2.58 1.138-3.87 3.41-3.87l5.117-.492zm-4.257 5.1c-1.28 8.298-1.92 13.87-1.92 16.73v1.21c8.94-4.462 13.41-8.67 13.41-12.62v-.23c0-2.27-.64-3.41-1.914-3.41-1.59-1.122-4.14-1.69-7.67-1.69h-1.92zm35.49-5.17h1.65c.55 0 .827.32.827.97-1.29 10.52-1.94 17.82-1.94 21.9v2.67c-.36 1.78-1.273 2.67-2.74 2.67h-.544l-1.11-.962c.74-11.04 1.66-19.8 2.76-26.28l1.09-.96zm7.98.07c1.065 0 2.34 2 3.83 6.01 2.88 5.91 6.088 10.96 9.616 15.15 1.18-11.56 2.06-18.38 2.63-20.44l.96-.72h.72c.48 0 .72.32.72.968-1.44 16.53-2.32 25.35-2.63 26.46l-1.44.48c-2.57 0-6.89-5.45-12.98-16.34l-.97-.97-.25.72-.72 11.08v1.44l.25 1.44c-.21 1.93-.85 2.89-1.92 2.89-.98-.35-1.54-.83-1.68-1.44 1.23-17.32 2.11-25.98 2.64-25.98l1.21-.72zm45.7.05h.84c1.16 0 2.63 5.36 4.415 16.09 1.408 5.06 2.11 8.5 2.11 10.316-.292.96-.855 1.44-1.69 1.44-1.08 0-1.85-2.56-2.32-7.68l-.21-.22h-.21c-1.825.02-5.68 1.14-11.563 3.35-.564 3.2-1.48 4.8-2.74 4.8-.85-.33-1.27-.97-1.27-1.92 0-1.85 3.86-10.34 11.58-25.46l1.056-.72zm-.422 6.72c-1.68 3.047-3.23 6.25-4.64 9.61h1.48c1.43 0 3.26-.323 5.49-.97l-1.89-8.65h-.42zm33.91-6.77h1.07c5.1 0 8.22 2.02 9.37 6.067l.21 1.93c0 8.05-5.96 14.69-17.89 19.9l-1.05.25h-.23c-.31 0-.59-.57-.84-1.7l2.13-20.86c-.85 0-1.28-.24-1.28-.72v-.5c0-2.58 1.14-3.87 3.41-3.87l5.12-.49zm-4.25 5.1c-1.27 8.297-1.91 13.87-1.91 16.73v1.21c8.94-4.463 13.41-8.67 13.41-12.62v-.23c0-2.27-.64-3.41-1.91-3.41-1.58-1.123-4.13-1.69-7.66-1.69h-1.91zm27.99-5.1h2.43c3.72 0 5.57 1.297 5.57 3.887v.25c0 4.54-3.87 8.66-11.63 12.38v.23c3.88 3.56 7.12 6.23 9.71 8.01v.72c0 1.26-.4 2.067-1.21 2.43h-.97l-13.32-9.454-.24 4.85v3.64c-.41.81-1.05 1.212-1.93 1.212-.64 0-1.13-.32-1.46-.96v-1.46l2.18-18.93c-.64 0-.97-.48-.97-1.44 0-2.92 2.42-4.61 7.26-5.1l4.6-.24zm-8.47 13.098h.25c8.39-2.15 12.59-4.5 12.59-7.03v-.24c0-.45-.81-.77-2.42-.97-2.68 0-5.91.57-9.68 1.71l-.72 6.54zm35.26-13.04c.81.18 1.22.79 1.22 1.85-.25 1.99-1.06 2.99-2.41 2.99-8.83 0-13.25 1.23-13.25 3.69l-.25 2.08v1.14c5.76-1.38 9.7-2.07 11.81-2.07h.47c.81.35 1.21 1.12 1.21 2.3 0 1.69-1.12 2.53-3.37 2.53-7.39.96-11.09 2.12-11.09 3.47l-.23 2.3v.91c0 1.38.88 2.15 2.64 2.3 2.77-.303 6.23-.995 10.37-2.073h.72c.65.242.97.78.97 1.613v.68c0 1.885-4.02 3.344-12.06 4.375h-.72c-2.89 0-4.5-1.84-4.81-5.52 0-2.71.57-7.85 1.69-15.436l-.47-1.39c0-3.11 4.82-4.95 14.45-5.51l3.13-.23zm12.08 0h.85c1.16 0 2.63 5.36 4.42 16.09 1.41 5.06 2.11 8.5 2.11 10.32-.29.96-.85 1.44-1.68 1.44-1.08 0-1.85-2.56-2.32-7.68l-.21-.22h-.21c-1.83.02-5.68 1.14-11.56 3.35-.57 3.2-1.48 4.8-2.75 4.8-.84-.33-1.26-.97-1.26-1.92 0-1.85 3.86-10.333 11.59-25.45l1.05-.72zm-.42 6.72c-1.69 3.05-3.23 6.25-4.64 9.62h1.48c1.43 0 3.26-.32 5.49-.96l-1.89-8.65h-.42zm20.52-6.77h.46c.75.41 1.13 1.05 1.13 1.92v.49c0 5.21.46 11.3 1.37 18.28h.23c5.02-13.15 7.97-19.72 8.86-19.72h.69c.67 0 1.73 4.57 3.18 13.71 1.36 4.69 2.04 8.62 2.04 11.78-.45 1.12-1.13 1.69-2.04 1.69-.61 0-1.44-3.93-2.5-11.79l-1.83-7.68c-1.3 2.09-3.65 7.54-7.05 16.35-.97 1-1.8 1.56-2.49 1.69-1.97 0-2.95-2.65-2.95-7.95l-1.12-10.09h-.23l-6.82 15.38c-.41 2.57-.79 3.85-1.15 3.85h-.9l-.91-.95v-1.21c0-2.15 1.9-6.8 5.68-13.94 2.7-7.5 4.44-11.35 5.22-11.55l1.14-.24zm22.98 22.15c1.57 0 2.55.96 2.94 2.87 0 1.91-1.37 2.96-4.11 3.13-1.37-.51-2.06-1.38-2.06-2.6v-.26c.54-2.09 1.62-3.13 3.24-3.13z" fill="#000"/><path d="M829.686 598.91c157.66 4.084 302.21-6.206 472.588-1.948 16.872-8.49-2.81 39.292-7.603 87.354-163.64-4.894-311.1 5.115-464.45-2.346l-.52-83.06z" stroke="#000" stroke-width="3" fill="#A0892C"/><path d="M832.54 732.832c1.9-51.49 18.45-101.745 4.067-152.316 2.893-5.38-36.51-4.053-28.573 1.86 15.587 49.78-2.557 99.932-2.606 149.724l27.112.732z" stroke="#000" stroke-width="3" fill="#A0892C"/><path d="M1251.12 534.245c94.898-.59 100.38 68.652 1.528 73.61-121.75 6.104-110.634-72.934-1.527-73.61z" stroke="#050202" stroke-width="2.964" fill="#806600"/><path d="M1318.22 732.91c1.852-100.058 17.968-197.72 3.96-295.994 2.82-10.457-35.556-7.877-27.827 3.613 15.18 96.73-2.49 194.19-2.537 290.95l26.404 1.42z" stroke="#000" stroke-width="3" fill="#A0892C"/><path d="M385.934 211c-52.713 0-99.88 20.875-131.56 53.742-10.873-1.893-22.14-2.903-33.64-2.903C125.338 261.84 48 330.13 48 414.35c0 36.295 14.387 69.62 38.364 95.804-10.71 19.848-16.724 42.106-16.724 65.557 0 84.23 77.34 152.52 172.733 152.52 10.603 0 20.947-.95 31.023-2.56 31.667 34.48 79.98 56.58 134.177 56.58 50.27 0 95.528-19.02 127.093-49.28 12.094 2.37 24.632 3.65 37.534 3.65 92 0 167.182-63.53 172.414-143.6C781.56 565.03 805 523.55 805 477.21c0-68.944-51.82-127.163-122.943-146.035-22.857-60.59-87.62-104.31-163.924-104.31-15.44 0-30.378 1.843-44.62 5.198C447.84 218.707 417.89 211 385.933 211z" stroke="#000" stroke-width="4.161" fill="#FFF"/><path d="M357.242 385.03l8.53.5 4.626-.5.485.75v1c0 2.668-1.542 4-4.625 4h-.25c-.386 14.48-1.682 21.72-3.89 21.72-1.136 1-2.683 1.5-4.64 1.5h-1.705c-5.52-.844-8.28-3.59-8.28-8.234.49-2.792 1.218-4.625 2.187-5.5h.25c.25 0 .656 1.833 1.218 5.5 1.115 2.156 2.9 3.234 5.36 3.234 3.573 0 5.36-1.495 5.36-4.484l1.218-13.985h-2.688c-3.572 0-5.36-.41-5.36-1.25v-.5c.49-2.5 1.225-3.75 2.204-3.75zm27.375 3.954c4.448.615 6.672 3.276 6.672 7.985 0 6.16-2.44 11.27-7.32 15.31-2.01 1.14-3.81 1.72-5.39 1.72-3.87 0-6.36-2.09-7.47-6.25l-.16-1.94v-.66c0-6.73 3.07-11.84 9.22-15.31 1.54-.58 3.02-.86 4.43-.86zm-11.594 16.83c1.605 2.436 3.724 3.655 6.36 3.655 4.24 0 7.203-2.52 8.89-7.55l.313-2.38c0-3.54-1.745-5.63-5.234-6.25h-.485c-2.885 0-5.9 2.87-9.047 8.62-.53 1.73-.797 3.02-.797 3.89zm32.5-16.783h.33c1.436.18 2.155.88 2.155 2.1v.42c0 2.11-.72 4.06-2.156 5.88h-.33c-.228-.06-.452-.41-.67-1.04l.843-3.14-.656-.42c-1.54.14-4.35 1.82-8.44 5.03v.21l10.9 2.11c1.1.88 1.65 2.34 1.65 4.41v1.25c0 2.82-1.82 5.27-5.46 7.34-1.43.57-2.81.85-4.14.85h-.35c-3.79 0-6.11-1.67-6.94-5.03v-1.26c0-1.54.38-2.31 1.15-2.31.76 2.67 2.14 4 4.14 4 0 .27.83.41 2.48.41 2.45 0 4.82-1.25 7.11-3.76 0-1.67-3.53-2.72-10.58-3.16-2.54-.71-3.81-1.76-3.81-3.14 0-3.41 3.41-6.84 10.25-10.28l2.48-.42zm22.266 0c.71.16 1.07.71 1.07 1.65-.23 1.77-.95 2.66-2.14 2.66-7.86 0-11.78 1.1-11.78 3.28l-.22 1.85v1.02c5.12-1.23 8.62-1.84 10.5-1.84h.42c.72.32 1.08 1 1.08 2.05 0 1.5-1 2.25-3 2.25-6.58.86-9.86 1.88-9.86 3.08l-.21 2.05v.81c0 1.23.78 1.91 2.34 2.05 2.46-.27 5.53-.88 9.22-1.84h.64c.57.22.86.7.86 1.44v.61c0 1.68-3.58 2.97-10.72 3.89h-.64c-2.58 0-4-1.63-4.28-4.9 0-2.41.5-6.98 1.5-13.72l-.43-1.23c0-2.77 4.28-4.41 12.84-4.91l2.78-.2zm12.68-.04c4.13 0 6.2 1.22 6.2 3.64 0 4.81-4.54 9.15-13.6 13.03-.67 0-1 .43-1 1.28-.1 4.71-.57 7.07-1.41 7.07h-1c-.27-.06-.54-.41-.8-1.06l1.79-17.53h-.21c-.54 0-.8-.64-.8-1.93 0-2.09 1.2-3.3 3.61-3.62l7.18-.86zm-8 12.41c4.57-1.19 8.04-3.19 10.4-5.98l.39-1.29v-.42l-1-.21h-1c-5.33.29-7.99.79-7.99 1.5l-.82 6.42zm30.89-12.4c.74.2 1.11.71 1.11 1.52v.21c-1.04 15.39-1.78 23.08-2.22 23.08l-.24.22h-.66c-.77 0-1.29-.36-1.56-1.07.29-2.05.43-4.92.43-8.62H460l-9.34 2.16-.66.86v4.1c0 1.22-.446 2.09-1.34 2.6h-.44c-.835 0-1.356-.36-1.56-1.07 1.03-15.53 2.51-23.3 4.45-23.3h.436l.67.88c-1.04 5.16-1.56 8.97-1.56 11.43 6.824-.89 10.235-1.97 10.235-3.23l.89-9.06 1.57-.64zm12.86-3.92c.62.29.93.64.93 1.05-2.97 9.57-4.46 15.62-4.46 18.17-.85.98-1.55 1.47-2.13 1.47-.94-.33-1.41-.75-1.41-1.25 1.48-12.95 3.43-19.43 5.87-19.43h1.17zm-5.55 23.45c1.48.28 2.21 1.05 2.21 2.31v.21c-.6 1.98-2.02 2.97-4.27 2.97-1.12 0-1.79-.77-2.02-2.31 0-1.78 1.35-2.83 4.06-3.17zm25.06-23.48l.76.99-.77 9.42 15.51-8.17c.68.79 1.01 1.78 1.01 2.97-1.75 2.33-6.25 5.3-13.49 8.91v.25c3.34 4.15 7.16 7.62 11.45 10.41v.49c0 2.32-.85 3.47-2.55 3.47l-12.72-9.9c-.5 6.61-1.01 9.91-1.52 9.91l-1.28.25c-.85-.27-1.27-.76-1.27-1.48l1.01-11.64-.25-2.97c.57 0 1.08-3.63 1.52-10.89.7-1.32 1.55-1.98 2.55-1.98zm21.64 3.89h1.47c.49 0 .73.29.73.86-1.15 9.36-1.72 15.85-1.72 19.47v2.38c-.32 1.58-1.14 2.38-2.44 2.38h-.49l-.99-.86c.65-9.81 1.47-17.6 2.45-23.36l.97-.86zm7.09.07c.94 0 2.08 1.78 3.4 5.35 2.56 5.25 5.41 9.74 8.54 13.47 1.05-10.28 1.83-16.34 2.34-18.17l.86-.64h.64c.43 0 .64.29.64.86-1.28 14.69-2.06 22.53-2.35 23.52l-1.28.42c-2.28 0-6.13-4.84-11.53-14.53l-.86-.86-.22.64-.64 9.85v1.28l.21 1.28c-.19 1.71-.76 2.56-1.71 2.56-.88-.31-1.38-.74-1.5-1.28 1.09-15.39 1.87-23.09 2.34-23.09l1.08-.64zm31.42 0h.16c1.38 0 2.31 1.36 2.78 4.06l-.33.43h-.16l-1.32-.42c-3.59.53-7.34 3.03-11.27 7.49-1.09 1.94-1.64 3.29-1.64 4.06v.86c0 2.28 2.34 3.71 7.03 4.27 2.94 0 5.17-1.57 6.69-4.71l-1.96-.84c-.73 0-2.75.86-6.05 2.56-.33-.73-.49-1.44-.49-2.14v-.22c0-2.27 2.17-3.84 6.53-4.7h.33c2.5 0 3.75 1.64 3.75 4.93 0 3.39-2.78 6.38-8.33 8.99l-1.95.43c-3.53 0-5.93-1.49-7.19-4.48l-.33-2.78c0-6.46 3.31-11.95 9.95-16.47 1.68-.86 2.93-1.28 3.77-1.28zm40.03-3.95c.95.23 1.43.82 1.43 1.75v.25c-1.35 17.82-2.31 26.72-2.89 26.72l-.28.25h-.88c-1 0-1.67-.41-2.02-1.25.38-2.37.57-5.7.57-9.98h-.3l-12.12 2.5-.88 1v4.7c0 1.42-.58 2.42-1.74 3h-.58c-1.07 0-1.74-.41-2.01-1.25 1.34-17.98 3.27-26.97 5.78-26.97h.58l.86 1c-1.34 5.97-2.02 10.38-2.02 13.24 8.85-1.04 13.28-2.29 13.28-3.75l1.16-10.48 2.03-.75zm19.62 4c.72.16 1.08.71 1.08 1.64-.23 1.77-.95 2.66-2.14 2.66-7.86 0-11.79 1.1-11.79 3.28l-.22 1.85v1.02c5.12-1.23 8.62-1.84 10.5-1.84h.42c.72.31 1.08 1 1.08 2.05 0 1.5-1 2.25-3 2.25-6.57.86-9.86 1.88-9.86 3.08l-.2 2.05v.81c0 1.23.78 1.91 2.34 2.05 2.46-.27 5.53-.89 9.22-1.84h.64c.57.22.86.7.86 1.44v.61c0 1.68-3.58 2.97-10.72 3.89h-.64c-2.58 0-4-1.63-4.28-4.91 0-2.4.5-6.98 1.5-13.72l-.43-1.23c0-2.77 4.28-4.4 12.84-4.9l2.78-.2zm12.72-.04h2.15c3.3 0 4.95 1.15 4.95 3.45v.22c0 4.03-3.45 7.7-10.35 11v.2c3.45 3.17 6.32 5.54 8.62 7.13v.64c0 1.12-.36 1.84-1.08 2.16h-.86l-11.85-8.4-.22 4.31v3.24c-.36.72-.94 1.08-1.72 1.08-.58 0-1.01-.28-1.3-.86v-1.29l1.93-16.83c-.57 0-.86-.43-.86-1.28 0-2.59 2.15-4.11 6.45-4.53l4.09-.22zm-7.53 11.64h.21c7.46-1.92 11.19-4 11.19-6.25v-.22c0-.4-.72-.68-2.16-.86-2.39 0-5.26.51-8.61 1.52l-.64 5.81zm28.3-11.64c4.44.61 6.67 3.27 6.67 7.98 0 6.17-2.44 11.27-7.31 15.31-2.01 1.15-3.81 1.72-5.39 1.72-3.87 0-6.36-2.08-7.47-6.25l-.16-1.93v-.65c0-6.73 3.07-11.83 9.22-15.31 1.54-.57 3.02-.86 4.44-.86zm-11.6 16.83c1.6 2.43 3.72 3.65 6.36 3.65 4.24 0 7.2-2.51 8.89-7.54l.31-2.37c0-3.54-1.75-5.63-5.24-6.25h-.48c-2.89 0-5.9 2.87-9.05 8.62-.53 1.73-.8 3.03-.8 3.89zm27.6-16.84h.95c4.53 0 7.3 1.8 8.33 5.39l.18 1.72c0 7.16-5.3 13.05-15.91 17.69l-.94.22h-.2c-.28 0-.53-.5-.75-1.51l1.9-18.55c-.76 0-1.14-.21-1.14-.64v-.44c0-2.29 1.01-3.43 3.03-3.43l4.55-.43zm-3.79 4.53c-1.14 7.38-1.71 12.33-1.71 14.88v1.08c7.94-3.97 11.92-7.71 11.92-11.22v-.2c0-2.02-.57-3.03-1.71-3.03-1.41-1-3.68-1.5-6.81-1.5h-1.71zm-322.5 37.52c.7 0 1.04 2.42 1.04 7.25l1.4 9.19h.34c0-.53 1.4-3.38 4.2-8.54.43-3.4 1.25-5.11 2.45-5.11h.34c.7 0 1.29 2.63 1.75 7.89.78 3.6 1.36 5.73 1.75 6.41.37-1.81 2.24-7.15 5.61-16.01.49-.56.95-.84 1.4-.84.62 0 1.03.28 1.22.85 0 .73-1.75 5.49-5.25 14.29-.59 2.08-1.11 4.93-1.58 8.55-.38.71-.84 1.06-1.41 1.06-1.06 0-1.88-2.42-2.44-7.25-1.14-4.72-1.85-7.28-2.11-7.69l-3.5 6.83c-.58 1.33-1.11 3.61-1.58 6.83-.32.52-.78.87-1.39 1.06-.98 0-1.8-3.7-2.46-11.1-.94-5.23-1.41-9.43-1.41-12.59 0-.43.52-.78 1.57-1.06zm31.17 0h.75c1.03 0 2.34 4.77 3.92 14.3 1.25 4.5 1.87 7.56 1.87 9.17-.26.86-.76 1.28-1.5 1.28-.96 0-1.65-2.27-2.07-6.82l-.19-.2h-.19c-1.63.02-5.06 1.02-10.28 2.98-.5 2.85-1.32 4.27-2.44 4.27-.75-.29-1.13-.86-1.13-1.7 0-1.64 3.43-9.19 10.29-22.62l.94-.64zm-.38 5.97c-1.5 2.71-2.88 5.56-4.13 8.55h1.31c1.27 0 2.89-.28 4.87-.86l-1.66-7.7h-.38zm11.95-6.01c.95 0 2.08 1.78 3.4 5.34 2.56 5.25 5.41 9.74 8.55 13.47 1.05-10.28 1.83-16.34 2.34-18.17l.86-.64h.64c.43 0 .64.29.64.86-1.28 14.69-2.06 22.53-2.34 23.51l-1.29.42c-2.28 0-6.13-4.84-11.53-14.53l-.86-.86-.22.64-.64 9.85v1.28l.22 1.28c-.19 1.71-.76 2.57-1.7 2.57-.88-.32-1.38-.74-1.5-1.28 1.09-15.4 1.87-23.1 2.34-23.1l1.08-.64zm35.04-.01c1.35 0 2.03.56 2.03 1.69v.42c0 1.56-1.21 2.33-3.63 2.33l-4.52.22c-1.36 7.22-2.03 13.43-2.03 18.63-.37 1.13-.74 1.69-1.13 1.69h-.69c-.79 0-1.24-.21-1.36-.64.76-7.99 1.59-14.48 2.48-19.47l-6.79 1.07c-.64 0-1.01-.64-1.13-1.91 0-2.11 1.89-3.17 5.66-3.17 2.26-.56 5.95-.84 11.08-.84zm14.62.06h.32c1.43.18 2.15.88 2.15 2.1v.42c0 2.11-.72 4.06-2.16 5.88h-.33c-.23-.06-.46-.41-.67-1.05l.84-3.14-.66-.42c-1.53.14-4.35 1.82-8.44 5.03v.21l10.9 2.11c1.1.88 1.65 2.35 1.65 4.41v1.25c0 2.82-1.82 5.27-5.45 7.34-1.43.57-2.81.85-4.14.85h-.35c-3.79 0-6.11-1.68-6.94-5.03v-1.27c0-1.54.39-2.31 1.16-2.31.76 2.67 2.14 4 4.14 4 0 .27.82.41 2.48.41 2.45 0 4.82-1.25 7.11-3.76 0-1.67-3.53-2.72-10.58-3.16-2.54-.7-3.81-1.75-3.81-3.14 0-3.4 3.42-6.83 10.25-10.28l2.48-.42zm36.18-.06c1.35 0 2.03.56 2.03 1.69v.42c0 1.56-1.21 2.33-3.62 2.33l-4.52.22c-1.36 7.22-2.03 13.43-2.03 18.63-.37 1.13-.74 1.69-1.13 1.69h-.69c-.78 0-1.24-.21-1.36-.64.76-7.99 1.59-14.48 2.48-19.47l-6.78 1.07c-.64 0-1.01-.64-1.13-1.91 0-2.11 1.88-3.17 5.65-3.17 2.26-.56 5.95-.84 11.08-.84zm15.05.02c4.45.62 6.67 3.28 6.67 7.99 0 6.17-2.44 11.27-7.31 15.31-2.01 1.15-3.81 1.72-5.39 1.72-3.87 0-6.36-2.08-7.47-6.25l-.16-1.93v-.65c0-6.73 3.07-11.83 9.22-15.31 1.54-.57 3.02-.86 4.43-.86zm-11.59 16.83c1.6 2.44 3.72 3.66 6.36 3.66 4.24 0 7.2-2.51 8.89-7.54l.31-2.37c0-3.54-1.75-5.62-5.24-6.25h-.48c-2.89 0-5.9 2.88-9.05 8.63-.53 1.73-.8 3.03-.8 3.89zm37.17-16.69l.62.86-.63 8.13 12.75-7.06c.55.69.83 1.54.83 2.56-1.44 2.02-5.13 4.59-11.08 7.71v.22c2.75 3.58 5.88 6.57 9.4 8.97v.44c0 1.99-.7 2.99-2.1 2.99l-10.44-8.55c-.42 5.7-.84 8.55-1.25 8.55l-1.05.22c-.7-.23-1.05-.66-1.05-1.28l.83-10.05-.21-2.57c.48 0 .89-3.14 1.25-9.42.57-1.13 1.27-1.7 2.09-1.7zm18.59-.2H528c.49 0 .735.29.735.86-1.146 9.36-1.72 15.85-1.72 19.47v2.38c-.32 1.58-1.134 2.38-2.436 2.38h-.49l-.99-.86c.66-9.81 1.48-17.59 2.46-23.36l.97-.85zm6.87.07h.22c.67 0 1.24.35 1.7 1.05-.99 7.21-1.7 13.66-2.12 19.35l12.18-2.51.43.63v1.27c0 1.92-4.42 3.67-13.25 5.25-1.57-.28-2.36-.77-2.36-1.47 1.17-15.42 2.02-23.13 2.56-23.13l.64-.42zm16.14 0h.22c.67 0 1.24.35 1.7 1.05-.99 7.21-1.7 13.66-2.12 19.35l12.18-2.51.42.63v1.27c0 1.92-4.42 3.67-13.25 5.25-1.57-.28-2.36-.77-2.36-1.47 1.17-15.42 2.02-23.13 2.56-23.13l.64-.42zm35.97-3.95l8.53.5 4.62-.5.48.75v1c0 2.67-1.54 4-4.63 4h-.25c-.38 14.48-1.68 21.72-3.89 21.72-1.14 1-2.68 1.5-4.64 1.5h-1.7c-5.52-.84-8.28-3.59-8.28-8.23.49-2.79 1.22-4.62 2.19-5.5h.25c.25 0 .65 1.83 1.22 5.5 1.11 2.16 2.9 3.24 5.36 3.24 3.57 0 5.36-1.49 5.36-4.48l1.22-13.98h-2.69c-3.57 0-5.36-.41-5.36-1.25v-.5c.49-2.5 1.22-3.75 2.2-3.75zm30.42 4c.72.16 1.08.71 1.08 1.64-.23 1.77-.95 2.66-2.14 2.66-7.86 0-11.79 1.1-11.79 3.28l-.22 1.85v1.02c5.12-1.23 8.62-1.85 10.5-1.85h.42c.72.31 1.08 1 1.08 2.05 0 1.5-1 2.25-3 2.25-6.58.86-9.86 1.88-9.86 3.08l-.21 2.05v.81c0 1.23.78 1.91 2.35 2.05 2.46-.27 5.53-.89 9.22-1.85h.64c.57.22.86.7.86 1.44v.61c0 1.68-3.58 2.98-10.72 3.89h-.64c-2.58 0-4-1.63-4.28-4.9 0-2.41.5-6.98 1.5-13.72l-.43-1.23c0-2.77 4.28-4.4 12.84-4.9l2.78-.2zm14.33 0h.32c1.44.18 2.15.88 2.15 2.1v.42c0 2.11-.72 4.07-2.16 5.88h-.33c-.23-.06-.46-.41-.67-1.05l.84-3.14-.66-.42c-1.53.14-4.35 1.82-8.44 5.04v.2l10.91 2.11c1.1.88 1.65 2.35 1.65 4.41v1.25c0 2.83-1.82 5.27-5.45 7.35-1.43.57-2.81.85-4.14.85h-.35c-3.79 0-6.1-1.68-6.93-5.03v-1.27c0-1.54.38-2.31 1.15-2.31.76 2.67 2.14 4 4.14 4 0 .27.83.41 2.48.41 2.45 0 4.82-1.26 7.11-3.77 0-1.66-3.52-2.72-10.58-3.15-2.54-.71-3.81-1.75-3.81-3.14 0-3.41 3.42-6.83 10.25-10.28l2.49-.42zm10.2-.04c.67.27 1.04.55 1.11.85-1.19 7.43-1.78 12.83-1.78 16.19v2.31c3.98 0 7.24-1.82 9.78-5.47 1-8.83 1.96-13.25 2.89-13.25h.24c.88.1 1.32.31 1.32.65-1.33 8.04-2 14.07-2 18.08v3.36c0 1.1-.45 1.87-1.35 2.31h-.89l-.88-.84v-.42l.21-3.56c-.53 0-3.42 1.33-8.67 3.98l-1.56.43c-1.78-.23-2.67-1-2.67-2.31v-.2c1.08-14.72 2.34-22.08 3.78-22.08h.45zm27.45.05h.33c1.44.18 2.15.88 2.15 2.1v.43c0 2.11-.72 4.07-2.16 5.88h-.33c-.23-.06-.45-.41-.67-1.04l.84-3.14-.65-.42c-1.53.13-4.35 1.81-8.44 5.03v.2l10.91 2.11c1.11.87 1.66 2.34 1.66 4.4v1.25c0 2.82-1.82 5.27-5.45 7.34-1.43.57-2.81.85-4.14.85h-.35c-3.8 0-6.11-1.68-6.94-5.03v-1.27c0-1.54.38-2.31 1.15-2.31.76 2.66 2.14 4 4.14 4 0 .27.83.4 2.49.4 2.45 0 4.82-1.25 7.11-3.77 0-1.66-3.53-2.72-10.58-3.15-2.54-.71-3.82-1.75-3.82-3.14 0-3.41 3.42-6.83 10.25-10.28l2.49-.42zm15.9-3.97c.62.29.93.64.93 1.04-2.97 9.57-4.45 15.62-4.45 18.17-.85.98-1.55 1.47-2.13 1.47-.94-.33-1.41-.75-1.41-1.25 1.48-12.95 3.43-19.43 5.87-19.43h1.17zm-5.55 23.45c1.48.28 2.22 1.05 2.22 2.31v.2c-.6 1.98-2.02 2.97-4.27 2.97-1.12 0-1.79-.77-2.02-2.31 0-1.78 1.35-2.84 4.06-3.17zm-337.67 18.5h.23c1.92 0 3.22 1.57 3.87 4.71l-.46.5H344l-1.83-.5c-5.01.62-10.256 3.51-15.735 8.67-1.52 2.24-2.284 3.81-2.284 4.7v.98c0 2.65 3.27 4.3 9.82 4.96 4.1 0 7.22-1.81 9.34-5.45l-2.74-.98c-1.01 0-3.82.99-8.44 2.97-.46-.84-.69-1.66-.69-2.47v-.25c0-2.63 3.04-4.45 9.13-5.45h.46c3.5 0 5.25 1.9 5.25 5.71 0 3.92-3.87 7.38-11.62 10.39l-2.75.5c-4.92 0-8.26-1.73-10.03-5.2l-.45-3.22c0-7.47 4.64-13.82 13.91-19.06 2.34-.99 4.09-1.49 5.25-1.49zm23.27 4c.72.16 1.07.71 1.07 1.64-.23 1.77-.95 2.66-2.14 2.66-7.86 0-11.78 1.09-11.78 3.28l-.22 1.84v1.02c5.12-1.23 8.62-1.84 10.5-1.84h.42c.72.32 1.08 1 1.08 2.05 0 1.5-1 2.25-3 2.25-6.58.86-9.86 1.88-9.86 3.08l-.21 2.05v.81c0 1.23.78 1.91 2.34 2.04 2.46-.27 5.53-.89 9.22-1.85h.64c.57.22.86.7.86 1.44v.61c0 1.68-3.58 2.98-10.72 3.89h-.64c-2.58 0-4-1.63-4.28-4.9 0-2.41.5-6.98 1.5-13.72l-.43-1.23c0-2.77 4.28-4.41 12.84-4.91l2.78-.2zm18.43-.06c1.35 0 2.03.56 2.03 1.69v.42c0 1.55-1.21 2.33-3.63 2.33l-4.52.22c-1.35 7.22-2.03 13.43-2.03 18.63-.37 1.13-.74 1.69-1.13 1.69h-.69c-.78 0-1.23-.21-1.36-.64.76-7.99 1.59-14.48 2.49-19.47l-6.78 1.06c-.64 0-1.01-.64-1.13-1.91 0-2.11 1.88-3.17 5.66-3.17 2.26-.56 5.95-.84 11.08-.84zm19.31.02c.67.27 1.03.55 1.11.85-1.19 7.43-1.78 12.83-1.78 16.19v2.31c3.98 0 7.24-1.82 9.78-5.47 1-8.83 1.96-13.25 2.89-13.25h.23c.89.1 1.33.31 1.33.64-1.33 8.05-2 14.07-2 18.08v3.36c0 1.11-.45 1.88-1.34 2.32H411l-.875-.84v-.42l.22-3.56c-.533 0-3.423 1.33-8.673 3.99l-1.563.42c-1.79-.23-2.68-1-2.68-2.31v-.2c1.08-14.72 2.34-22.08 3.78-22.08h.45zm25.81 0c4.14 0 6.2 1.22 6.2 3.64 0 4.81-4.53 9.15-13.59 13.03-.67 0-1 .43-1 1.28-.1 4.71-.57 7.06-1.41 7.06h-1c-.27-.06-.53-.42-.79-1.06l1.8-17.53h-.2c-.53 0-.8-.65-.8-1.94 0-2.1 1.2-3.3 3.61-3.63l7.18-.86zm-8 12.41c4.57-1.19 8.04-3.19 10.41-5.98l.39-1.3v-.42l-1-.22h-1c-5.32.29-7.99.79-7.99 1.5l-.81 6.42zm37.13-12.36h.75c1.03 0 2.34 4.77 3.92 14.3 1.25 4.5 1.87 7.56 1.87 9.18-.26.86-.76 1.28-1.5 1.28-.96 0-1.65-2.27-2.06-6.82l-.19-.2h-.19c-1.63.02-5.05 1.02-10.28 2.99-.5 2.84-1.31 4.27-2.44 4.27-.75-.29-1.13-.86-1.13-1.71 0-1.65 3.43-9.19 10.3-22.63l.94-.64zm-.38 5.97c-1.5 2.71-2.88 5.56-4.13 8.55h1.31c1.27 0 2.9-.28 4.88-.86l-1.67-7.69h-.38zm11.96-6.01c.94 0 2.08 1.79 3.4 5.35 2.56 5.25 5.41 9.74 8.54 13.47 1.06-10.28 1.84-16.34 2.35-18.17l.86-.64h.64c.43 0 .64.28.64.86-1.28 14.68-2.06 22.52-2.34 23.51l-1.28.42c-2.28 0-6.13-4.84-11.53-14.53l-.86-.86-.22.64-.64 9.84v1.28l.22 1.29c-.19 1.71-.76 2.56-1.7 2.56-.88-.31-1.38-.74-1.5-1.28 1.09-15.39 1.87-23.09 2.34-23.09l1.07-.64zm26.03 0h.95c4.53 0 7.3 1.8 8.33 5.39l.19 1.72c0 7.16-5.3 13.06-15.9 17.69l-.94.22h-.21c-.28 0-.53-.5-.75-1.51l1.89-18.54c-.76 0-1.14-.21-1.14-.64v-.44c0-2.29 1.01-3.43 3.03-3.43l4.55-.44zm-3.78 4.54c-1.14 7.38-1.71 12.34-1.71 14.88v1.08c7.95-3.97 11.92-7.71 11.92-11.22v-.2c0-2.02-.57-3.03-1.71-3.03-1.41-1-3.68-1.5-6.81-1.5h-1.7zm43.87-4.54c1.35 0 2.03.56 2.03 1.69v.42c0 1.55-1.21 2.33-3.63 2.33l-4.52.22c-1.35 7.22-2.03 13.42-2.03 18.62-.37 1.13-.74 1.69-1.13 1.69h-.69c-.78 0-1.24-.21-1.36-.64.76-7.99 1.59-14.48 2.48-19.47l-6.78 1.07c-.63 0-1.01-.64-1.12-1.91 0-2.11 1.89-3.17 5.66-3.17 2.26-.56 5.95-.85 11.08-.85zm11.03.06h.75c1.03 0 2.34 4.77 3.92 14.3 1.25 4.5 1.87 7.56 1.87 9.17-.26.86-.76 1.28-1.5 1.28-.96 0-1.64-2.27-2.06-6.82l-.18-.2h-.19c-1.63.02-5.05 1.02-10.28 2.99-.5 2.85-1.32 4.27-2.44 4.27-.75-.29-1.13-.86-1.13-1.7 0-1.64 3.43-9.18 10.3-22.62l.94-.64zm-.38 5.97c-1.5 2.71-2.88 5.56-4.13 8.55h1.31c1.27 0 2.9-.28 4.87-.86l-1.67-7.7h-.38zm13.15-5.87l.62.86-.63 8.12 12.75-7.06c.55.69.82 1.55.82 2.57-1.44 2.02-5.13 4.59-11.08 7.7v.22c2.75 3.57 5.88 6.56 9.4 8.96v.44c0 1.99-.7 2.98-2.09 2.98l-10.44-8.55c-.42 5.7-.84 8.55-1.25 8.55l-1.05.22c-.7-.23-1.05-.66-1.05-1.29l.83-10.05-.21-2.56c.48 0 .9-3.14 1.25-9.42.58-1.14 1.27-1.71 2.1-1.71zm30.28-.1c.72.16 1.08.71 1.08 1.65-.23 1.77-.94 2.66-2.14 2.66-7.86 0-11.78 1.1-11.78 3.28l-.21 1.85v1.02c5.13-1.23 8.63-1.84 10.5-1.84h.42c.72.31 1.08 1 1.08 2.05 0 1.5-1 2.25-3 2.25-6.57.85-9.86 1.88-9.86 3.08l-.2 2.04v.81c0 1.23.78 1.91 2.34 2.05 2.46-.27 5.53-.88 9.22-1.84h.64c.57.22.86.7.86 1.44v.61c0 1.68-3.58 2.98-10.72 3.89h-.64c-2.58 0-4-1.63-4.28-4.9 0-2.4.5-6.98 1.5-13.72l-.43-1.23c0-2.77 4.28-4.4 12.84-4.9l2.78-.2zm24.12-4l8.54.5 4.62-.5.48.75v1c0 2.67-1.54 4-4.63 4h-.25c-.39 14.48-1.69 21.72-3.89 21.72-1.14 1-2.69 1.5-4.64 1.5H611c-5.52-.84-8.28-3.59-8.28-8.23.49-2.79 1.214-4.62 2.183-5.5h.25c.25 0 .656 1.83 1.22 5.5 1.114 2.16 2.9 3.24 5.36 3.24 3.572 0 5.36-1.5 5.36-4.48l1.22-13.99h-2.69c-3.57 0-5.36-.42-5.36-1.25v-.5c.49-2.5 1.224-3.75 2.203-3.75zm30.43 4c.72.16 1.07.71 1.07 1.65-.23 1.77-.94 2.66-2.14 2.66-7.86 0-11.78 1.1-11.78 3.28l-.22 1.85v1.02c5.12-1.23 8.62-1.84 10.5-1.84h.42c.71.31 1.07 1 1.07 2.05 0 1.5-1 2.25-3 2.25-6.57.85-9.86 1.88-9.86 3.08l-.2 2.04v.81c0 1.23.78 1.91 2.34 2.05 2.45-.27 5.53-.88 9.22-1.84h.64c.57.22.86.7.86 1.44v.61c0 1.68-3.58 2.98-10.72 3.89h-.64c-2.58 0-4-1.63-4.29-4.9 0-2.4.5-6.98 1.5-13.72l-.42-1.23c0-2.77 4.28-4.4 12.84-4.9l2.78-.2zm14.32 0h.33c1.43.18 2.15.88 2.15 2.1v.42c0 2.11-.72 4.07-2.16 5.88h-.33c-.23-.06-.45-.41-.67-1.05l.84-3.14-.66-.42c-1.53.14-4.35 1.81-8.44 5.03v.21l10.91 2.11c1.1.88 1.65 2.35 1.65 4.41v1.25c0 2.82-1.82 5.27-5.46 7.35-1.43.57-2.81.85-4.14.85h-.35c-3.79 0-6.1-1.67-6.94-5.03v-1.27c0-1.54.38-2.31 1.15-2.31.76 2.66 2.14 4 4.14 4 0 .27.83.4 2.48.4 2.44 0 4.81-1.26 7.11-3.77 0-1.66-3.53-2.72-10.58-3.15-2.54-.71-3.81-1.76-3.81-3.14 0-3.41 3.41-6.84 10.25-10.28l2.48-.43zm10.2-.04c.66.27 1.03.55 1.11.85-1.19 7.43-1.78 12.82-1.78 16.19v2.31c3.98 0 7.24-1.82 9.78-5.47 1-8.83 1.96-13.25 2.89-13.25h.23c.88.09 1.32.31 1.32.64-1.33 8.05-2 14.07-2 18.08v3.36c0 1.11-.45 1.88-1.34 2.32h-.89l-.88-.84v-.42l.22-3.56c-.53 0-3.42 1.33-8.67 3.99l-1.57.43c-1.78-.23-2.67-1-2.67-2.31v-.2c1.08-14.72 2.34-22.08 3.78-22.08h.45zm27.45.05h.33c1.43.18 2.15.88 2.15 2.1v.42c0 2.11-.72 4.07-2.16 5.88h-.33c-.23-.07-.45-.41-.67-1.05l.84-3.14-.66-.42c-1.53.13-4.34 1.81-8.44 5.03v.2l10.9 2.11c1.11.87 1.66 2.34 1.66 4.41v1.25c0 2.83-1.82 5.27-5.46 7.35-1.43.56-2.81.84-4.14.84h-.35c-3.79 0-6.1-1.68-6.94-5.03v-1.27c0-1.54.38-2.31 1.15-2.31.76 2.67 2.14 4 4.14 4 0 .27.83.41 2.48.41 2.45 0 4.82-1.25 7.11-3.76 0-1.66-3.53-2.72-10.58-3.15-2.54-.71-3.81-1.75-3.81-3.14 0-3.41 3.41-6.83 10.25-10.28l2.48-.42zm-377.23 42h.75c1.03 0 2.34 4.77 3.92 14.3 1.25 4.5 1.88 7.56 1.88 9.18-.26.85-.76 1.28-1.5 1.28-.96 0-1.64-2.28-2.06-6.83l-.19-.2h-.19c-1.63.02-5.06 1.01-10.28 2.98-.5 2.84-1.32 4.26-2.44 4.26-.75-.29-1.13-.86-1.13-1.7 0-1.64 3.43-9.18 10.3-22.62l.94-.64zm-.38 5.97c-1.5 2.71-2.88 5.56-4.13 8.55h1.32c1.27 0 2.89-.28 4.87-.86l-1.67-7.69h-.37zm11.95-6.01c.94 0 2.08 1.79 3.4 5.35 2.56 5.25 5.41 9.74 8.54 13.47 1.05-10.28 1.83-16.34 2.34-18.17l.86-.64h.64c.42 0 .64.29.64.86-1.28 14.69-2.06 22.53-2.35 23.52l-1.28.42c-2.28 0-6.12-4.84-11.53-14.53l-.86-.86-.22.64-.64 9.85v1.28l.22 1.28c-.19 1.71-.75 2.56-1.7 2.56-.88-.31-1.38-.74-1.5-1.28 1.09-15.39 1.87-23.09 2.34-23.09l1.08-.64zm26.03 0h.95c4.53 0 7.31 1.8 8.33 5.39l.18 1.72c0 7.16-5.3 13.06-15.91 17.69l-.94.22h-.21c-.28 0-.53-.5-.75-1.51l1.89-18.55c-.76 0-1.14-.21-1.14-.64v-.44c0-2.3 1.01-3.44 3.03-3.44l4.55-.44zm-3.78 4.54c-1.14 7.38-1.71 12.34-1.71 14.88v1.08c7.94-3.97 11.92-7.71 11.92-11.22v-.2c0-2.02-.57-3.03-1.7-3.03-1.41-1-3.68-1.5-6.82-1.5h-1.7zm37.6-8.42h.47c.77.43 1.15 1.09 1.15 1.97v.5c0 5.34.46 11.61 1.37 18.78h.24c5.08-13.51 8.08-20.26 8.98-20.26h.69c.67 0 1.75 4.7 3.21 14.1 1.39 4.81 2.08 8.85 2.08 12.1-.45 1.16-1.14 1.74-2.08 1.74-.61 0-1.46-4.04-2.53-12.11l-1.84-7.91c-1.33 2.16-3.71 7.76-7.14 16.8-.99 1.02-1.84 1.6-2.53 1.74-2 0-3-2.72-3-8.16l-1.1-10.42h-.24l-6.9 15.8c-.42 2.63-.8 3.95-1.16 3.95h-.93l-.93-.99v-1.24c0-2.22 1.92-7 5.76-14.33 2.73-7.7 4.49-11.65 5.3-11.86l1.14-.25zm29.73 3.94h.75c1.03 0 2.34 4.77 3.92 14.3 1.25 4.5 1.87 7.56 1.87 9.17-.26.86-.76 1.28-1.5 1.28-.96 0-1.65-2.27-2.06-6.82l-.19-.2h-.19c-1.63.02-5.05 1.02-10.28 2.98-.5 2.85-1.32 4.27-2.44 4.27-.75-.29-1.13-.86-1.13-1.7 0-1.64 3.43-9.18 10.29-22.62l.94-.64zm-.38 5.97c-1.5 2.71-2.87 5.56-4.12 8.55h1.31c1.27 0 2.89-.29 4.87-.86l-1.68-7.7h-.38zm20.16-6.02h2.16c3.3 0 4.95 1.15 4.95 3.46v.22c0 4.03-3.45 7.7-10.35 11v.21c3.45 3.16 6.32 5.54 8.62 7.12v.64c0 1.12-.36 1.83-1.08 2.16H442l-11.83-8.41-.22 4.32v3.2c-.366.72-.94 1.07-1.72 1.07-.57 0-1.005-.29-1.297-.86v-1.3l1.94-16.82c-.57 0-.86-.43-.86-1.28 0-2.59 2.15-4.1 6.45-4.53l4.09-.22zm-7.53 11.64h.22c7.46-1.91 11.18-4 11.18-6.25v-.21c0-.39-.72-.68-2.16-.86-2.39 0-5.25.51-8.61 1.52l-.64 5.81zm16.55-11.59l4.78 7.25 2.09 1.72c2.64-4.7 4.49-7.55 5.53-8.54h.95l.76.86c-.1.76-3.09 6.1-8.97 16-1.48 2.78-2.56 5.27-3.25 7.47l-.56.22c-.9-.41-1.35-1.05-1.35-1.92.05-1.11 1.57-4.6 4.57-10.45-4.33-4.65-6.49-8.42-6.49-11.31.8-.85 1.44-1.28 1.9-1.28zm43.06-.06c1.35 0 2.03.56 2.03 1.69v.42c0 1.55-1.21 2.33-3.63 2.33l-4.52.22c-1.35 7.22-2.03 13.43-2.03 18.63-.36 1.12-.74 1.69-1.12 1.69h-.69c-.78 0-1.24-.22-1.36-.64.76-7.99 1.59-14.48 2.48-19.47l-6.78 1.06c-.64 0-1.02-.64-1.13-1.91 0-2.11 1.88-3.17 5.65-3.17 2.26-.56 5.95-.84 11.08-.84zm15.04.02c4.45.62 6.67 3.28 6.67 7.99 0 6.17-2.44 11.27-7.31 15.31-2.01 1.15-3.81 1.72-5.39 1.72-3.87 0-6.36-2.08-7.47-6.25l-.16-1.94v-.65c0-6.73 3.07-11.83 9.22-15.31 1.54-.57 3.02-.86 4.43-.86zm-11.59 16.82c1.6 2.44 3.72 3.66 6.36 3.66 4.24 0 7.2-2.51 8.89-7.55l.31-2.37c0-3.54-1.74-5.62-5.23-6.25h-.4c-2.89 0-5.9 2.88-9.05 8.63-.53 1.73-.8 3.03-.8 3.89zm52.63-20.78c.85.18 1.28.82 1.28 1.91-.29 2.05-1.14 3.08-2.58 3.08-9.44 0-14.16 1.27-14.16 3.8l-.25 2.14v1.19c6.15-1.42 10.35-2.14 12.61-2.14h.52c.85.36 1.28 1.15 1.28 2.38 0 1.74-1.2 2.61-3.59 2.61-7.9.99-11.85 2.18-11.85 3.56l-.25 2.37v.96c0 1.43.94 2.22 2.83 2.38 2.94-.31 6.63-1.02 11.06-2.14h.77c.68.26 1.03.82 1.03 1.67v.71c0 1.95-4.29 3.46-12.86 4.52h-.78c-3.1 0-4.81-1.9-5.15-5.7 0-2.79.6-8.09 1.8-15.91l-.52-1.42c0-3.22 5.15-5.12 15.46-5.71l3.34-.23zm14.98 3.96h.16c1.38 0 2.31 1.36 2.78 4.07l-.33.42h-.15l-1.31-.42c-3.59.53-7.34 3.03-11.27 7.48-1.09 1.94-1.64 3.29-1.64 4.06v.86c0 2.28 2.34 3.71 7.03 4.27 2.94 0 5.17-1.57 6.69-4.71l-1.95-.85c-.73 0-2.75.86-6.05 2.56-.32-.73-.48-1.44-.48-2.14v-.22c0-2.27 2.17-3.83 6.53-4.7h.33c2.5 0 3.75 1.64 3.75 4.93 0 3.38-2.78 6.38-8.33 8.98l-1.95.42c-3.54 0-5.93-1.49-7.19-4.48l-.33-2.78c0-6.46 3.32-11.95 9.95-16.47 1.68-.85 2.93-1.28 3.77-1.28zm6.98.05l4.78 7.25 2.09 1.72c2.64-4.7 4.49-7.55 5.53-8.54h.95l.77.86c-.1.76-3.09 6.09-8.97 16-1.48 2.78-2.56 5.27-3.25 7.47l-.56.22c-.9-.42-1.34-1.06-1.34-1.92.05-1.11 1.58-4.6 4.58-10.45-4.32-4.65-6.48-8.42-6.48-11.31.8-.85 1.44-1.28 1.9-1.28zm24.04-.06c4.13 0 6.2 1.21 6.2 3.64 0 4.8-4.53 9.15-13.59 13.03-.67 0-1 .43-1 1.28-.1 4.71-.57 7.06-1.41 7.06h-1c-.27-.06-.54-.41-.8-1.06l1.79-17.53h-.21c-.53 0-.8-.65-.8-1.94 0-2.09 1.2-3.3 3.61-3.63l7.19-.86zm-8 12.41c4.57-1.2 8.04-3.19 10.4-5.98l.39-1.3v-.42l-1-.22h-1c-5.32.29-7.99.79-7.99 1.5l-.81 6.42zm31.57-12.45c1.35 0 2.03.56 2.03 1.68v.42c0 1.56-1.21 2.33-3.63 2.33l-4.51.22c-1.35 7.22-2.03 13.43-2.03 18.63-.36 1.12-.74 1.69-1.12 1.69h-.69c-.78 0-1.24-.22-1.36-.64.76-7.99 1.59-14.48 2.48-19.47l-6.78 1.06c-.64 0-1.01-.64-1.13-1.91 0-2.11 1.88-3.17 5.65-3.17 2.26-.56 5.95-.85 11.08-.85zm4.26 19.7c1.4 0 2.27.85 2.61 2.54 0 1.7-1.22 2.62-3.65 2.78-1.22-.46-1.83-1.23-1.83-2.31v-.24c.48-1.85 1.44-2.78 2.88-2.78zm36.05-23.64h.42c1.82.19 2.72 1.01 2.72 2.43v.48c0 2.44-.9 4.71-2.72 6.81h-.42c-.28-.07-.56-.48-.83-1.22l1.05-3.64-.84-.5c-1.93.16-5.49 2.11-10.69 5.85v.25l13.83 2.44c1.4 1.01 2.09 2.71 2.09 5.11v1.45c0 3.27-2.3 6.12-6.91 8.53-1.82.65-3.56.97-5.24.97h-.42c-4.82 0-7.75-1.94-8.8-5.84v-1.45c0-1.79.49-2.68 1.47-2.68.96 3.09 2.7 4.63 5.23 4.63 0 .33 1.04.49 3.14.49 3.1 0 6.1-1.45 9-4.37 0-1.92-4.47-3.14-13.41-3.65-3.21-.82-4.81-2.03-4.81-3.64 0-3.96 4.32-7.93 12.98-11.93l3.14-.49zm23.72 3.93c1.36 0 2.03.56 2.03 1.69v.42c0 1.55-1.21 2.33-3.62 2.33l-4.52.22c-1.36 7.22-2.03 13.42-2.03 18.62-.37 1.13-.74 1.69-1.13 1.69h-.69c-.78 0-1.23-.21-1.36-.64.76-7.99 1.59-14.48 2.49-19.47l-6.78 1.06c-.64 0-1.01-.64-1.13-1.91 0-2.11 1.89-3.17 5.66-3.17 2.26-.57 5.96-.85 11.08-.85zm11.03.06h.75c1.03 0 2.34 4.77 3.92 14.3 1.25 4.5 1.88 7.55 1.88 9.17-.26.85-.76 1.28-1.5 1.28-.96 0-1.65-2.28-2.07-6.83l-.19-.2H694c-1.626.02-5.05 1.02-10.28 2.98-.5 2.84-1.314 4.26-2.44 4.26-.75-.29-1.13-.86-1.13-1.7 0-1.65 3.43-9.19 10.295-22.62l.94-.64zm-.37 5.97c-1.5 2.71-2.87 5.56-4.12 8.55h1.31c1.27 0 2.89-.29 4.87-.86l-1.68-7.7H691zm10.44-5.97l4.78 7.25 2.09 1.72c2.64-4.71 4.49-7.56 5.53-8.55h.95l.77.86c-.1.76-3.09 6.09-8.97 16-1.48 2.78-2.56 5.27-3.25 7.47l-.56.22c-.89-.42-1.34-1.06-1.34-1.92.05-1.11 1.58-4.6 4.58-10.45-4.33-4.64-6.49-8.41-6.49-11.31.8-.85 1.44-1.28 1.91-1.28zm-353.9 41.89c1.35 0 2.03.56 2.03 1.69v.42c0 1.55-1.21 2.33-3.63 2.33l-4.52.22c-1.36 7.22-2.03 13.43-2.03 18.62-.37 1.13-.74 1.69-1.13 1.69h-.69c-.78 0-1.24-.21-1.36-.64.76-7.99 1.59-14.48 2.48-19.47l-6.78 1.07c-.638 0-1.01-.64-1.128-1.91 0-2.11 1.89-3.17 5.66-3.17 2.26-.57 5.95-.85 11.08-.85zm18.08.02c.74.2 1.11.7 1.11 1.52v.21c-1.04 15.38-1.78 23.07-2.22 23.07l-.24.22h-.66c-.77 0-1.29-.36-1.57-1.08.29-2.06.44-4.93.44-8.63h-.22l-9.34 2.15-.66.86v4.09c0 1.22-.45 2.08-1.347 2.59h-.434c-.83 0-1.35-.36-1.56-1.08 1.03-15.53 2.52-23.3 4.45-23.3h.44l.67.87c-1.04 5.15-1.56 8.96-1.56 11.42 6.83-.9 10.24-1.98 10.24-3.24l.89-9.07 1.57-.64zm19.22.05c.72.16 1.07.71 1.07 1.65-.23 1.77-.95 2.65-2.14 2.65-7.86 0-11.78 1.09-11.78 3.28l-.22 1.84v1.01c5.12-1.23 8.62-1.85 10.5-1.85h.42c.72.31 1.08.99 1.08 2.04 0 1.5-1 2.25-3 2.25-6.57.85-9.86 1.88-9.86 3.08l-.2 2.05v.81c0 1.23.78 1.91 2.34 2.04 2.45-.27 5.53-.89 9.21-1.85h.64c.573.22.86.7.86 1.44v.61c0 1.67-3.57 2.97-10.72 3.89h-.64c-2.57 0-4-1.64-4.28-4.91 0-2.41.5-6.98 1.5-13.72l-.42-1.24c0-2.77 4.28-4.41 12.84-4.91l2.78-.2zm12.72-.04h2.15c3.3 0 4.95 1.15 4.95 3.45v.22c0 4.03-3.45 7.7-10.35 11v.2c3.45 3.17 6.32 5.54 8.62 7.13v.64c0 1.12-.36 1.84-1.08 2.16h-.86l-11.85-8.41-.22 4.31v3.24c-.37.72-.94 1.08-1.72 1.08-.57 0-1-.28-1.3-.86v-1.29l1.93-16.83c-.57 0-.86-.43-.86-1.28 0-2.59 2.15-4.1 6.45-4.53l4.09-.22zM390 568.64h.22c7.457-1.917 11.186-4 11.186-6.25v-.22c0-.396-.72-.682-2.157-.86-2.39 0-5.26.506-8.61 1.516l-.64 5.813zm31.344-11.594c.718.158 1.078.704 1.078 1.642-.23 1.77-.943 2.656-2.14 2.656-7.855 0-11.782 1.095-11.782 3.28l-.22 1.846v1.016c5.126-1.23 8.626-1.845 10.5-1.845h.423c.72.32 1.08 1 1.08 2.05 0 1.5-1 2.25-3 2.25-6.574.86-9.86 1.88-9.86 3.08l-.203 2.05v.81c0 1.23.78 1.91 2.343 2.05 2.46-.27 5.532-.88 9.22-1.84h.64c.573.22.86.7.86 1.44v.61c0 1.68-3.574 2.98-10.72 3.89h-.64c-2.573 0-4-1.63-4.282-4.9 0-2.41.5-6.98 1.5-13.72l-.42-1.23c0-2.77 4.28-4.4 12.85-4.9l2.78-.2zM440.36 557c.667.27 1.037.552 1.11.844-1.188 7.428-1.78 12.824-1.78 16.19v2.31c3.98 0 7.24-1.822 9.78-5.47 1-8.83 1.963-13.25 2.89-13.25h.235c.885.096 1.328.31 1.328.643-1.334 8.042-2 14.068-2 18.078v3.36c0 1.105-.448 1.875-1.344 2.313h-.89l-.88-.844v-.423l.22-3.56c-.53 0-3.43 1.33-8.68 3.99l-1.56.42c-1.79-.23-2.68-1-2.68-2.31v-.2c1.08-14.72 2.34-22.08 3.78-22.08h.45zm17.64 0c.95 0 2.084 1.782 3.407 5.344 2.562 5.25 5.41 9.74 8.546 13.47 1.053-10.28 1.834-16.34 2.345-18.172l.86-.64h.64c.427 0 .64.285.64.86-1.28 14.685-2.06 22.524-2.343 23.513l-1.282.42c-2.28 0-6.125-4.84-11.53-14.53l-.86-.86-.22.64-.64 9.846v1.28l.22 1.29c-.188 1.71-.756 2.56-1.704 2.56-.88-.31-1.38-.74-1.5-1.28 1.09-15.39 1.87-23.09 2.34-23.09l1.08-.64zm35.05-.015c1.352 0 2.03.56 2.03 1.686v.42c0 1.56-1.21 2.33-3.626 2.33l-4.515.22c-1.36 7.22-2.03 13.43-2.03 18.63-.37 1.13-.74 1.69-1.13 1.69h-.69c-.78 0-1.24-.21-1.36-.64.76-7.99 1.59-14.48 2.48-19.47l-6.78 1.07c-.64 0-1.01-.63-1.13-1.9 0-2.11 1.88-3.17 5.65-3.17 2.26-.56 5.95-.84 11.08-.84zm6.404-.048h1.47c.49 0 .734.286.734.86-1.147 9.353-1.72 15.843-1.72 19.468v2.375c-.323 1.583-1.135 2.375-2.437 2.375h-.48l-.98-.86c.66-9.812 1.48-17.598 2.46-23.36l.97-.858zm6.876.062h.22c.677 0 1.244.35 1.703 1.04-.99 7.21-1.698 13.65-2.125 19.34l12.186-2.52.422.62v1.26c0 1.91-4.416 3.66-13.25 5.25-1.573-.28-2.36-.77-2.36-1.47 1.167-15.42 2.022-23.13 2.563-23.13l.64-.42zm31.907-3.96h1.61c.53 0 .796.33.796 1-1.25 10.8-1.875 18.29-1.875 22.47v2.75c-.355 1.83-1.24 2.75-2.657 2.75h-.54l-1.06-1c.71-11.33 1.6-20.31 2.67-26.97l1.06-1zm34.297 3.94c1.353 0 2.03.56 2.03 1.68v.42c0 1.55-1.208 2.33-3.625 2.33l-4.52.22c-1.36 7.21-2.03 13.42-2.03 18.62-.37 1.12-.74 1.69-1.13 1.69h-.69c-.78 0-1.24-.22-1.36-.64.76-7.99 1.59-14.48 2.48-19.47l-6.78 1.06c-.64 0-1.01-.64-1.13-1.91 0-2.12 1.88-3.18 5.65-3.18 2.26-.56 5.95-.85 11.08-.85zm18.093.06c.72.16 1.078.7 1.078 1.64-.228 1.77-.942 2.65-2.14 2.65-7.854 0-11.78 1.09-11.78 3.28l-.22 1.84v1.01c5.125-1.23 8.625-1.85 10.5-1.85h.422c.72.31 1.078 1 1.078 2.05 0 1.5-1 2.25-3 2.25-6.573.85-9.86 1.88-9.86 3.08l-.202 2.04v.81c0 1.23.78 1.91 2.344 2.04 2.458-.27 5.53-.89 9.218-1.85h.64c.574.22.86.7.86 1.44v.61c0 1.68-3.573 2.97-10.718 3.89h-.64c-2.574 0-4-1.63-4.282-4.91 0-2.41.5-6.98 1.5-13.72l-.422-1.24c0-2.77 4.28-4.41 12.844-4.91l2.78-.21zm4.297-.05h.218c.678 0 1.245.35 1.704 1.04-.99 7.21-1.698 13.65-2.125 19.34l12.19-2.52.42.62v1.26c0 1.91-4.41 3.66-13.25 5.25-1.57-.28-2.36-.77-2.36-1.47 1.17-15.42 2.02-23.13 2.57-23.13l.64-.43zm16.14 0h.22c.676 0 1.244.35 1.702 1.04-.99 7.21-1.698 13.65-2.125 19.34l12.19-2.52.42.62v1.26c0 1.91-4.41 3.66-13.25 5.25-1.57-.28-2.36-.77-2.36-1.47 1.17-15.42 2.02-23.13 2.57-23.13l.64-.43zm28.125.04l4.78 7.25 2.09 1.72c2.64-4.71 4.49-7.56 5.53-8.55h.95l.76.86c-.11.76-3.1 6.09-8.97 16-1.48 2.78-2.57 5.27-3.25 7.46l-.57.22c-.9-.42-1.35-1.06-1.35-1.92.05-1.12 1.57-4.6 4.57-10.45-4.33-4.65-6.49-8.42-6.49-11.32.8-.86 1.43-1.28 1.9-1.28zm26.09-.05c4.44.61 6.67 3.27 6.67 7.98 0 6.16-2.44 11.27-7.32 15.31-2.01 1.14-3.81 1.72-5.39 1.72-3.87 0-6.36-2.09-7.47-6.25l-.16-1.94v-.66c0-6.73 3.07-11.83 9.22-15.31 1.54-.58 3.02-.86 4.43-.86zm-11.6 16.83c1.6 2.43 3.72 3.65 6.36 3.65 4.24 0 7.2-2.52 8.89-7.55l.31-2.38c0-3.54-1.75-5.63-5.24-6.25h-.49c-2.89 0-5.9 2.87-9.05 8.62-.53 1.73-.8 3.03-.8 3.89zM677.59 557c.67.27 1.04.55 1.11.843-1.19 7.427-1.78 12.823-1.78 16.188v2.32c3.98 0 7.24-1.82 9.78-5.47 1-8.83 1.965-13.25 2.89-13.25h.237c.88.1 1.32.31 1.32.64-1.333 8.04-2 14.07-2 18.08v3.36c0 1.11-.448 1.88-1.344 2.31h-.89l-.875-.84v-.42l.218-3.56c-.53 0-3.42 1.33-8.67 3.99l-1.566.43c-1.78-.23-2.674-1-2.674-2.31v-.2c1.085-14.72 2.345-22.08 3.78-22.08h.456zm-355.05 41.92h1.468c.49 0 .734.286.734.86-1.146 9.353-1.72 15.843-1.72 19.468v2.375c-.32 1.583-1.134 2.375-2.436 2.375h-.484l-.985-.86c.656-9.812 1.474-17.598 2.453-23.36l.97-.858zm21.015.047c1.354 0 2.03.56 2.03 1.685v.422c0 1.552-1.207 2.328-3.624 2.328l-4.51.22c-1.35 7.218-2.03 13.426-2.03 18.624-.36 1.124-.74 1.687-1.12 1.687h-.68c-.78 0-1.23-.214-1.36-.64.76-7.99 1.59-14.48 2.49-19.47l-6.78 1.063c-.63 0-1.01-.635-1.12-1.906 0-2.114 1.89-3.172 5.66-3.172 2.26-.562 5.96-.843 11.08-.843zm7.656-3.924c1.53.49 2.29 1.156 2.29 2-.32 1.323-2.32 4.23-5.98 8.72h-1.44l-1.12-.892v-.67l4.28-6.92c.29-1.49.96-2.23 1.99-2.23zm16.25 3.984h.33c1.44.178 2.16.876 2.16 2.095v.422c0 2.104-.72 4.062-2.15 5.875h-.33c-.22-.07-.45-.42-.67-1.05l.85-3.14-.65-.43c-1.53.13-4.34 1.81-8.43 5.03v.2l10.91 2.11c1.11.87 1.66 2.34 1.66 4.4v1.25c0 2.82-1.81 5.27-5.45 7.34-1.42.56-2.8.84-4.14.84h-.34c-3.79 0-6.1-1.68-6.93-5.03v-1.26c0-1.55.39-2.32 1.16-2.32.76 2.67 2.14 4 4.14 4 0 .27.83.41 2.49.41 2.45 0 4.82-1.26 7.11-3.77 0-1.67-3.52-2.72-10.58-3.16-2.54-.71-3.81-1.76-3.81-3.14 0-3.41 3.42-6.84 10.25-10.28l2.49-.42zm32.08 0h.33c1.44.178 2.16.876 2.16 2.095v.422c0 2.104-.72 4.062-2.15 5.875h-.33c-.23-.07-.45-.42-.67-1.05l.85-3.14-.65-.43c-1.53.13-4.34 1.81-8.44 5.03v.2l10.91 2.11c1.11.87 1.66 2.34 1.66 4.4v1.25c0 2.82-1.81 5.27-5.45 7.34-1.42.56-2.8.84-4.14.84h-.34c-3.79 0-6.1-1.68-6.94-5.03v-1.26c0-1.55.39-2.32 1.16-2.32.76 2.67 2.14 4 4.14 4 0 .27.83.41 2.49.41 2.45 0 4.82-1.26 7.11-3.77 0-1.67-3.52-2.72-10.58-3.16-2.54-.71-3.81-1.76-3.81-3.14 0-3.41 3.42-6.84 10.25-10.28l2.49-.42zm15.21 0h.75c1.03 0 2.34 4.767 3.92 14.298 1.25 4.5 1.88 7.557 1.88 9.172-.26.854-.76 1.28-1.5 1.28-.96 0-1.64-2.275-2.06-6.827l-.18-.203h-.19c-1.62.02-5.05 1.016-10.28 2.984-.5 2.85-1.31 4.27-2.44 4.27-.75-.29-1.12-.86-1.12-1.7 0-1.64 3.43-9.19 10.3-22.62l.94-.64zm-.37 5.97c-1.5 2.708-2.87 5.557-4.12 8.547h1.32c1.27 0 2.9-.287 4.88-.86l-1.7-7.684h-.37zm22.39-5.97h2.02c.9.564 1.35 1.194 1.35 1.892-.24 1.67-.98 2.51-2.23 2.51-3.59 0-7.1.35-10.51 1.04l-.43 4.62 1.11.2h.89c2.65 0 5.71-.42 9.18-1.27l.67 1.26c-.33 2.52-1.37 3.78-3.12 3.78-1.08.55-4.14.96-9.17 1.25-.36 6.3-.96 9.45-1.8 9.45l-.89.2h-.22c-.37 0-.6-.28-.67-.85 0-3.43.59-9.72 1.78-18.87l-.66-.64c0-2.12 1.49-3.37 4.47-3.77 2.99-.57 5.75-.85 8.27-.85zm20.07 0c.72.158 1.08.704 1.08 1.642-.23 1.77-.94 2.65-2.14 2.65-7.85 0-11.78 1.09-11.78 3.28l-.22 1.84v1.01c5.13-1.23 8.63-1.85 10.5-1.85h.42c.72.31 1.08.99 1.08 2.04 0 1.5-1 2.25-3 2.25-6.57.85-9.86 1.88-9.86 3.08l-.2 2.05v.81c0 1.23.78 1.91 2.35 2.04 2.46-.27 5.53-.89 9.22-1.84h.64c.57.22.86.7.86 1.44v.61c0 1.68-3.57 2.97-10.72 3.89h-.64c-2.57 0-4-1.64-4.28-4.91 0-2.41.5-6.98 1.5-13.72l-.42-1.23c0-2.77 4.28-4.41 12.85-4.91l2.78-.2zm31.72-.06c1.36 0 2.03.56 2.03 1.686v.422c0 1.552-1.2 2.328-3.62 2.328l-4.51.22c-1.35 7.218-2.03 13.426-2.03 18.624-.36 1.125-.74 1.688-1.12 1.688h-.68c-.78 0-1.23-.214-1.36-.64.76-7.99 1.59-14.48 2.49-19.47l-6.78 1.063c-.63 0-1.01-.634-1.12-1.905 0-2.114 1.89-3.172 5.66-3.172 2.26-.56 5.96-.84 11.08-.84zm15.05.014c4.45.62 6.67 3.28 6.67 7.99 0 6.17-2.44 11.27-7.31 15.31-2.01 1.15-3.8 1.72-5.39 1.72-3.86 0-6.35-2.08-7.47-6.25l-.15-1.94v-.65c0-6.73 3.08-11.83 9.22-15.31 1.54-.57 3.02-.86 4.44-.86zM492 615.81c1.603 2.44 3.723 3.66 6.36 3.66 4.24 0 7.202-2.52 8.89-7.55l.312-2.372c0-3.542-1.745-5.625-5.235-6.25h-.483c-2.885 0-5.9 2.875-9.05 8.625-.53 1.73-.795 3.027-.795 3.89zm47.812-16.78h.92c1.156 0 1.85.93 2.078 2.8v.44c0 2.822-1.068 4.686-3.203 5.592l-.375-.44v-.22l.95-3.654-.75-.422c-3.114 0-6.817 2.944-11.11 8.83-1.02 1.78-1.53 3.14-1.53 4.077v.22c0 2.29 1.385 3.438 4.156 3.438h.17c2.668 0 5.62-.71 8.86-2.14h.58c.5.23.75.73.75 1.5v.86c-2.668 2.73-5.803 4.1-9.408 4.1-4.908-.51-7.36-2.95-7.36-7.31v-.43c0-5.57 3.952-11.02 11.86-16.36 1.5-.57 2.634-.86 3.405-.86zm16.656-.05c4.45.62 6.673 3.28 6.673 7.99 0 6.166-2.44 11.27-7.31 15.31-2.01 1.148-3.8 1.72-5.39 1.72-3.86 0-6.35-2.082-7.47-6.25l-.15-1.94v-.653c0-6.73 3.08-11.832 9.22-15.31 1.55-.574 3.02-.86 4.44-.86zm-11.593 16.83c1.604 2.44 3.724 3.66 6.36 3.66 4.24 0 7.203-2.52 8.89-7.55l.313-2.372c0-3.542-1.745-5.625-5.235-6.25h-.483c-2.884 0-5.9 2.875-9.046 8.625-.53 1.73-.796 3.027-.796 3.89zm28.97-16.83h.405c.667.37 1 .94 1 1.71v.438c0 4.625.406 10.042 1.22 16.25h.202c4.456-11.688 7.08-17.53 7.873-17.53h.61c.593 0 1.536 4.06 2.83 12.186 1.206 4.17 1.81 7.658 1.81 10.47-.396 1-1 1.5-1.81 1.5-.544 0-1.284-3.494-2.22-10.483l-1.626-6.83c-1.16 1.86-3.25 6.7-6.27 14.53-.86.89-1.6 1.39-2.22 1.5-1.75 0-2.62-2.35-2.62-7.06l-1-8.97h-.21l-6.06 13.67c-.37 2.28-.71 3.42-1.02 3.42h-.8l-.82-.84v-1.08c0-1.91 1.68-6.04 5.05-12.39 2.39-6.66 3.94-10.09 4.64-10.26l1.01-.22zm34.25.05c.718.16 1.077.71 1.077 1.647-.23 1.77-.945 2.657-2.14 2.657-7.857 0-11.784 1.093-11.784 3.28l-.22 1.844v1.017c5.126-1.23 8.626-1.844 10.5-1.844h.423c.72.32 1.08 1 1.08 2.05 0 1.5-1 2.25-3 2.25-6.57.86-9.86 1.88-9.86 3.08l-.2 2.05v.81c0 1.23.78 1.91 2.35 2.05 2.46-.27 5.53-.88 9.22-1.84h.64c.58.22.86.7.86 1.44v.61c0 1.68-3.57 2.98-10.72 3.89h-.64c-2.57 0-4-1.63-4.28-4.9 0-2.4.5-6.98 1.5-13.72l-.42-1.23c0-2.77 4.28-4.4 12.85-4.9l2.78-.2zm23.983 0c4.22 0 6.328 1.44 6.328 4.32v.64c0 2.01-.95 3.947-2.86 5.812v.22c3.14.947 4.707 2.525 4.707 4.733v.86c0 3.605-3.54 6.256-10.624 7.953l-3.49.438h-2.03c-1.1 0-1.64-.57-1.64-1.72v-.215l1.64-17.65c-.69 0-1.03-.14-1.03-.42v-1.3c0-2.44 3-3.65 9-3.65zm-5.937 9.69h.22c6.4 0 9.59-1.44 9.59-4.31-1.05-.71-2.82-1.06-5.31-1.06h-2.45c-1.08 0-1.62.5-1.62 1.5l-.42 3.874zm-.4 4.097l-.41 6.876 2.05.438.2-.22h1.02c5.73-.75 8.6-2.1 8.6-4.07-1.88-2.01-4.81-3.01-8.79-3.01h-.81l-.2-.22-.2.22h-1.43zm25.24-13.78h.75c1.03 0 2.34 4.766 3.93 14.297 1.25 4.5 1.88 7.556 1.88 9.17-.26.855-.76 1.28-1.5 1.28-.96 0-1.64-2.274-2.06-6.826l-.18-.202h-.19c-1.62.02-5.05 1.02-10.28 2.987-.5 2.844-1.31 4.266-2.43 4.266-.75-.29-1.12-.86-1.12-1.71 0-1.65 3.44-9.19 10.3-22.63l.94-.64zm-.37 5.97c-1.5 2.71-2.87 5.558-4.12 8.548h1.32c1.27 0 2.9-.286 4.88-.86l-1.7-7.695h-.37zm23.8-5.97h.92c1.16 0 1.85.935 2.08 2.8v.437c0 2.823-1.07 4.687-3.2 5.593l-.37-.438v-.22l.96-3.66-.75-.43c-3.11 0-6.81 2.94-11.11 8.82-1.02 1.78-1.53 3.14-1.53 4.08v.22c0 2.29 1.39 3.44 4.16 3.44h.17c2.67 0 5.62-.72 8.86-2.14h.58c.5.23.75.73.75 1.5v.86c-2.66 2.73-5.8 4.09-9.4 4.09-4.9-.51-7.36-2.95-7.36-7.32v-.44c0-5.58 3.96-11.03 11.86-16.36 1.5-.57 2.64-.86 3.41-.86zm7.63.096l.63.86-.62 8.124 12.75-7.063c.55.687.83 1.54.83 2.56-1.44 2.02-5.13 4.588-11.08 7.7v.22c2.75 3.574 5.89 6.564 9.41 8.97v.438c0 1.99-.7 2.985-2.09 2.985l-10.43-8.543c-.42 5.697-.84 8.546-1.25 8.546l-1.05.22c-.7-.23-1.05-.656-1.05-1.28l.83-10.05-.2-2.56c.48 0 .9-3.14 1.25-9.423.58-1.135 1.27-1.703 2.1-1.703zm16.46 19.547c1.4 0 2.27.85 2.61 2.546 0 1.697-1.21 2.624-3.65 2.78-1.22-.458-1.83-1.23-1.83-2.313v-.234c.48-1.86 1.44-2.78 2.88-2.78z" fill="#000"/><g transform="translate(76 346)"><ellipse stroke="#000" stroke-width="3.5" fill="#FFF" transform="rotate(-135.477 177.124 73.23)" cx="177.124" cy="73.231" rx="46.234" ry="56.549"/><ellipse stroke="#000" stroke-width="3.5" fill="#FFF" transform="rotate(-44.523 72.782 73.23)" cx="72.782" cy="73.231" rx="46.234" ry="56.549"/><path d="M87.493 83.652l3.933 15.613L84.573 166l-26.428-9.34c8.76-32.48 12.21-59.233 29.348-73.008z" stroke="#050202" stroke-width="4" fill="#FFF"/><ellipse stroke="#000" stroke-width="4" fill="#502D16" transform="matrix(-1 0 0 1 248.59 0)" cx="124.294" cy="60.566" rx="38.853" ry="43.545"/><path d="M163.783 83.652l-3.933 15.613L166.704 166l26.427-9.34c-8.76-32.48-12.21-59.233-29.34-73.008z" stroke="#050202" stroke-width="4" fill="#FFF"/><ellipse stroke="#050202" stroke-width="4" fill="#E6C2AA" transform="matrix(-1 0 0 1 290.596 0)" cx="145.298" cy="281.928" rx="20.058" ry="10.929"/><ellipse stroke="#050202" stroke-width="4" fill="#E6C2AA" transform="matrix(-1 0 0 1 195.42 0)" cx="97.71" cy="283.489" rx="20.058" ry="10.929"/><path d="M84.21 175.33c-2.77 35.35-9.612 89.37-2.976 96.67 21.128 10.94 70.418 14.95 86.8-6.51 8.007-18.628-5.493-59.356-3.6-90.16 10.076-60.556 5.758-114.804-40.985-115.605-41.2-.705-49.87 53.485-39.24 115.605z" stroke="#000" stroke-width="3.691" fill="#FFF"/><path d="M141.492 73.875c-3.663 3.543-33.32.486-35.315-1.202-1.994-1.688 8.032 23.194 17.854 23.266 9.43.07 21.13-25.61 17.47-22.07z" stroke="#000" stroke-width="4" fill="#E6C2AA"/><ellipse stroke="#050202" stroke-width="3.9" fill="#E6C2AA" transform="matrix(-1 0 0 1 249.317 0)" cx="124.659" cy="49.443" rx="28.922" ry="35.051"/><ellipse fill="#000" transform="matrix(-1 0 0 1 266.967 0)" cx="133.484" cy="41.208" rx="2.642" ry="2.622"/><ellipse fill="#000" transform="matrix(-1 0 0 1 231.806 0)" cx="115.903" cy="41.509" rx="2.642" ry="2.622"/><path d="M138.653 57.647c-3.662 3.543-26.73 1.29-28.724-.397-2-1.688 9.08 13.74 14.81 13.707 5.72-.034 17.57-16.853 13.91-13.31z" stroke="#000" stroke-width="4" fill="#FFD5D5"/><path d="M108.438 5.233C87.06 8.748 79.183 59.045 85.355 91.597c1.097 5.172 8.102 6.277 12.202 3.97 3.63-1.576 4.36-5.66 4.562-9.158-.23-6-6.69-38.46 2.23-53.89s39.65-12 44.61 2.19c4.95 14.19-3.23 52.9 1.4 61.83 4.31 5.36 14.87 2.8 15.56-4.24-1.36-10.3 3.35-51.66 1.73-60.11-1.62-8.46-9.72-21.8-16.68-24.41-15.94-5.99-21.17-6.08-42.55-2.57z" stroke="#050202" stroke-width="3.897" fill="#FC0"/><path d="M83.255 165.866l83.318.1c-1.05 3.87-.552 9.395-.237 14.143l-82.766-.21-.31-14.04z" stroke="#000" stroke-width="3.496" fill="#FC0"/><path d="M190.565 158.497c-1.245 3.857-.315 6.678-3.28 15.86-2.885 8.936-3.743 17.583-12.6 15.304-4.937-1.27-9.64-10.7-4.26-14.33-3.083 1.86-8.015 6.71-9.593 5.02-2.31-2.47-2.448-7.5 3.818-10.79 1.53-.8.81-1.33 2.095-1.91.193-.38 2.042-1.62 2.426-1.84 6.57-3.77 17.94-6.48 21.4-7.3zm-129.855 0c1.246 3.857.316 6.678 3.28 15.86 2.886 8.936 3.744 17.583 12.6 15.304 4.938-1.27 9.64-10.7 4.26-14.33 3.084 1.86 8.016 6.71 9.594 5.02 2.31-2.47 2.448-7.5-3.818-10.79-1.53-.8-.81-1.33-2.094-1.91-.194-.38-2.043-1.62-2.427-1.84-6.563-3.77-17.937-6.48-21.394-7.3z" stroke="#050202" stroke-width="4" fill="#E6C2AA"/></g><path d="M1166.063 418.014l-22.98 12.803-108.232 17.42 3.58-45.61c54.97.072 98.66-5.802 127.64 15.387z" stroke="#050202" stroke-width="4.067" fill="#ACF"/><path d="M1201.637 405.015c-18.23 4.885-33.982 16.022-43.795 30.962-9.812 14.94-12.88 32.46-8.526 48.702 9.063 33.82 47.183 53 85.143 42.83 37.96-10.17 61.38-45.84 52.32-79.67-4.36-16.25-15.77-29.88-31.74-37.92-15.97-8.04-35.18-9.8-53.41-4.92z" stroke="#000" stroke-width="4.067" fill="#502D16"/><path d="M1198.287 538.276l-26.304.403-102.44 39.02 25.903 37.71c47.567-27.55 88.338-44.3 102.84-77.14z" stroke="#050202" stroke-width="4.067" fill="#ACF"/><path d="M869.046 561.376c-4.575 1.226-8.07 5.733-9.716 12.53-1.647 6.796-1.31 15.325.938 23.71 2.247 8.387 6.22 15.942 11.043 21.005 4.83 5.07 10.11 7.22 14.68 6 9.53-2.55 13.46-18.78 8.78-36.24-4.68-17.46-16.19-29.55-25.72-26.99zM846.48 487.02c-4.574 1.225-8.07 5.732-9.715 12.53-1.646 6.795-1.31 15.325.938 23.71 2.247 8.386 6.22 15.942 11.043 21.004 4.824 5.063 10.104 7.22 14.68 5.993 9.526-2.553 13.456-18.778 8.777-36.24-4.68-17.463-16.195-29.55-25.722-26.997z" stroke="#050202" stroke-width="4.067" fill="#2B1100"/><path d="M1019.97 451.613c-56.967 10.585-145.12 22.644-153.84 36.193-8.347 37.933 6.146 117.33 46.937 134.075 32.785 4.75 91.368-33.76 140.79-43.8 99.838-9.73 183.64-39.48 165.16-113.5-16.285-65.23-105.486-55.99-199.046-12.96z" stroke="#050202" stroke-width="3.753" fill="#06F"/><path d="M1223.542 416.54c-14.673 3.932-27.458 12.506-35.542 23.836-8.084 11.33-10.806 24.49-7.566 36.58 3.24 12.092 12.176 22.127 24.843 27.897 12.666 5.77 28.025 6.803 42.698 2.872 14.673-3.932 27.458-12.506 35.542-23.836 8.085-11.33 10.806-24.49 7.566-36.59-3.24-12.09-12.176-22.13-24.842-27.9-12.66-5.77-28.02-6.81-42.69-2.87z" stroke="#050202" stroke-width="3.965" fill="#E6C2AA"/><path d="M1250.148 468.724c-2.286.612-3.64 2.973-3.023 5.273.616 2.3 2.97 3.668 5.254 3.056 1.09-.294 2.03-1.015 2.6-2.004.56-.99.71-2.17.42-3.27-.3-1.11-1.02-2.05-2-2.62-.99-.58-2.16-.73-3.26-.44zm-7.572-26.36c-2.285.612-3.638 2.973-3.022 5.274.616 2.3 2.97 3.668 5.254 3.055 1.098-.294 2.033-1.015 2.6-2.004.567-.99.72-2.17.423-3.27-.29-1.11-1.01-2.05-2-2.62-.98-.58-2.15-.73-3.25-.44z" fill="#000"/><path d="M1190.222 497.71c-11.666-9.844-15.89-38.928-11.56-46.21-71.364-7.21-312.217 87.252-312.717 85.388 2.218 12.85 6.318 31.854 10.556 41.025-.82-2.663 249.76-40.33 313.73-80.204z" stroke="#000" stroke-width="3.953" fill="#ACF"/><path d="M1228.72 487.663c-7.14-4.275-13.33-41.59-11.507-45.45 1.823-3.857-17.85 20.136-15.378 29.15 2.472 9.01 34.023 20.574 26.884 16.3z" stroke="#000" stroke-width="4.067" fill="#FFD5D5"/><path d="M1298.69 417.865c-14.58-32.213-97.297-23.36-146.07.14-7.7 3.915-6.485 15.424-1.113 20.912 4.022 5.054 10.778 4.48 16.383 3.318 9.37-2.892 57.872-26.81 85.995-19.263 28.124 7.547 35.694 57.44 15.38 71.248-20.315 13.81-84.86 17.292-97.01 28.36-6.64 9.064 1.856 24.628 13.258 22.74 15.677-6.502 82.942-16.568 95.608-22.698 12.67-6.13 30.31-24.53 31.49-36.61 2.72-27.65.66-35.933-13.92-68.147z" stroke="#050202" stroke-width="3.962" fill="#ACF"/><path d="M1303.098 503.197c-3.323 3.486-6.754 10.923-11.757 11.68l-31.99-117.197c4.84.67 9.55.074 17.52 3.844l26.24 101.675z" stroke="#000" stroke-width="3.956" fill="#06F"/><path d="M1091.463 612.15c-6.613-.33-10.672 2.328-26.42 1.538-15.322-.77-29.333 1.535-29.476-13.39-.08-8.32 12.817-19.72 20.82-12.775-4.225-4.08-13.97-9.8-11.967-13.004 2.926-4.69 10.812-7.04 18.64 1.45 1.913 2.07 2.452.71 3.897 2.49.692.14 3.43 2.53 3.94 3.04 8.722 8.75 17.813 25.53 20.566 30.63zm-54.85-204.7c-5.56 3.593-10.406 3.32-23.65 11.878-12.884 8.326-26.17 13.336-18.83 26.335 4.09 7.245 20.96 10.67 24.418.652-1.62 5.645-7.19 15.472-3.86 17.246 4.88 2.6 12.88.69 15.42-10.58.62-2.75 1.77-1.84 2.13-4.11.53-.47 1.71-3.9 1.89-4.6 3.18-11.94 2.66-31.02 2.5-36.81z" stroke="#050202" stroke-width="4.067" fill="#E6C2AA"/><path d="M1066.984 478.647c-.186-8.498-9.18-15.405-25.095-18.51-15.07-2.94-27.72-9.874-32 4.406-2.39 7.96 6.83 22.592 16.43 18.22-5.19 2.703-16.12 5.402-15.09 9.05 1.51 5.332 8.42 9.843 18.29 3.94 2.41-1.44 5.04-1.888 6.92-3.187.7.062 1.41.132 2.13.118 16.2-.306 28.58-5.54 28.4-14.037z" stroke="#050202" stroke-width="4" fill="#DEAA87"/><path d="M1177.96 477.556l-22.982 12.803-114.27-2.61 7.948-39.34c54.967.07 100.323 7.95 129.304 29.14z" stroke="#050202" stroke-width="4" fill="#D45500"/><path d="M1113.58 652.55c4.09 7.452-.247 17.93-12.477 28.576-11.58 10.08-19.067 22.41-29.91 12.18-6.045-5.7-5.382-22.978 5.123-23.995-5.842.26-16.662 3.39-17.592-.29-1.36-5.37 2.373-12.74 13.868-12.56 2.81.05 5.308-.88 7.586-.69.578-.4 1.16-.82 1.79-1.17 14.18-7.83 27.524-9.49 31.612-2.04z" stroke="#050202" stroke-width="4" fill="#DEAA87"/><path d="M1213.584 464.745c-18.23 4.885-33.983 16.022-43.795 30.962-9.82 14.94-12.88 32.458-8.53 48.702 9.06 33.82 47.18 53 85.14 42.83 37.96-10.17 61.38-45.84 52.32-79.67-4.35-16.25-15.77-29.88-31.74-37.92-15.97-8.03-35.18-9.8-53.41-4.92z" stroke="#000" stroke-width="4" fill="#502D16"/><path d="M1210.234 598.006l-26.304.403-97.657 59.39 26.553 30.09c47.566-27.55 82.904-57.05 97.408-89.89z" stroke="#050202" stroke-width="4" fill="#D45500"/><path d="M880.993 621.106c-4.575 1.226-8.07 5.733-9.717 12.53-1.646 6.795-1.308 15.325.94 23.71 2.246 8.386 6.218 15.942 11.042 21.005 4.824 5.07 10.104 7.22 14.68 6 9.526-2.55 13.456-18.78 8.777-36.24-4.68-17.46-16.196-29.55-25.722-26.99zm-22.565-74.356c-4.575 1.225-8.07 5.732-9.716 12.53-1.647 6.795-1.31 15.324.938 23.71 2.247 8.386 6.22 15.94 11.043 21.004 4.824 5.063 10.104 7.22 14.68 5.993 9.526-2.553 13.456-18.778 8.777-36.24-4.68-17.464-16.196-29.55-25.722-26.998z" stroke="#050202" stroke-width="4" fill="#2B1100"/><path d="M1036.536 491.213c-57.113 9.804-153.822 26.898-162.037 42.278-6.77 43.78 11.39 136.8 53.35 158.08 33.34 6.97 100.96-24.44 150.47-33.94 100.17-19.23 173.7-49.39 151.83-135.59-18.61-73.35-96.95-61.82-193.62-30.81z" stroke="#050202" stroke-width="4" fill="#D45500"/><path d="M1235.49 476.27c-14.674 3.93-27.46 12.506-35.543 23.836-8.084 11.33-10.806 24.49-7.566 36.58 3.24 12.092 12.18 22.127 24.85 27.897s28.03 6.803 42.7 2.872c14.68-3.932 27.46-12.506 35.54-23.836 8.09-11.34 10.81-24.49 7.57-36.59-3.24-12.09-12.17-22.13-24.84-27.9s-28.02-6.81-42.69-2.87z" stroke="#050202" stroke-width="3.9" fill="#DEAA87"/><path d="M1262.094 528.454c-2.285.612-3.638 2.973-3.022 5.273.616 2.3 2.97 3.668 5.254 3.056 1.098-.294 2.033-1.015 2.6-2.004.567-.99.72-2.17.423-3.27-.3-1.11-1.02-2.05-2.01-2.62-.99-.58-2.16-.73-3.26-.44zm-7.9-27.588c-2.285.613-3.638 2.974-3.022 5.274.616 2.3 2.97 3.668 5.254 3.056 1.098-.294 2.033-1.015 2.6-2.004.567-.99.72-2.165.423-3.27-.3-1.104-1.02-2.047-2.01-2.62-.99-.573-2.16-.73-3.26-.436z" fill="#000"/><path d="M1218.533 546.732l-8.535-31.854-331.904 81.76c2.106 12.835 6.108 31.797 10.483 40.897l329.956-90.803z" stroke="#000" stroke-width="4" fill="#2CA02C"/><path d="M1176.148 540.596c4.976 18.377 51.306 24.622 51.306 24.622 41.94 9.487 8.38-96.53-20.82-69.725 0 0-35.247 27.524-30.486 45.103z" stroke="#000" stroke-width="4" fill="#502D16"/><path d="M1233.348 549.354c-7.14-4.275-13.33-41.59-11.506-45.45 1.822-3.857-17.85 20.136-15.38 29.148 2.473 9.013 34.025 20.576 26.886 16.302z" stroke="#000" stroke-width="4" fill="#DEAA87"/><path d="M1049.034 487.246l44.498 166.695c-6.538-.49-14.802 2.79-21.964 5.38l-44.045-165.63 21.51-6.44z" stroke="#000" stroke-width="3.895" fill="#520"/><path d="M1310.636 477.595c-14.58-32.213-97.296-23.36-146.07.14-7.7 3.915-6.484 15.424-1.112 20.912 4.022 5.054 10.778 4.48 16.382 3.318 13.543-2.634 72.425-26.034 85.996-19.263 13.57 6.77 24.84 59.435 15.38 71.248-9.46 11.814-84.216 17.12-97.01 28.36-6.64 9.064 1.856 24.628 13.258 22.74 15.677-6.502 82.942-16.568 95.608-22.698 12.666-6.13 30.302-24.53 31.487-36.61 2.714-27.65.66-35.934-13.92-68.147z" stroke="#050202" stroke-width="3.897" fill="#2CA02C"/><path d="M1313.4 565.225c-5.627 4.253-12.59 14.442-20.468 15.934l-34.125-123.85c7.43.08 13.417-.46 25.303 2.6l29.29 105.31z" stroke="#000" stroke-width="4" fill="#520"/><path d="M1391.477 712.794c-81.393 2.103-156.017-3.196-243.975-1.004-8.71-4.37 1.45 20.23 3.925 44.975 84.48-2.52 160.61 2.634 239.778-1.208l.272-42.763z" stroke="#000" stroke-width="3" fill="#A0892C"/><path d="M1390.004 781.744c-.982-26.51-9.525-52.384-2.1-78.42-1.494-2.77 18.848-2.087 14.75.957-8.046 25.63 1.32 51.45 1.346 77.09l-13.996.38z" stroke="#000" stroke-width="3" fill="#A0892C"/><path d="M1173.91 679.5c-48.99-.302-51.82 35.346-.788 37.9 62.854 3.142 57.115-37.55.788-37.9z" stroke="#050202" stroke-width="2.964" fill="#806600"/><path d="M1139.27 781.784c-.956-51.515-9.276-101.797-2.045-152.393-1.454-5.38 18.357-4.05 14.366 1.86-7.83 49.81 1.29 99.99 1.31 149.81l-13.63.73z" stroke="#000" stroke-width="3" fill="#A0892C"/><path d="M1269.005 666.362c-13.877-1.113-26.713 1.186-36.36 5.855-5.984-5.437-14.26-9.127-23.614-9.877-19.77-1.586-36.87 10.576-38.2 27.154-1.33 16.58 13.62 31.312 33.39 32.898 9.36.75 18.11-1.573 24.89-5.986 8.78 6.147 21.08 10.507 34.96 11.62 8.99.722 17.56-.023 25.09-1.89 7.14 3.036 15.46 5.143 24.43 5.863 28.25 2.26 52.27-9.73 53.64-26.75 1.37-17.03-20.44-32.65-48.69-34.92-8.97-.72-17.51-.01-25.04 1.85-7.14-3.05-15.48-5.1-24.47-5.82z" stroke="#000" stroke-width="4.709" fill="#FFF"/><path d="M1231.424 693.22c-.876 10.92-12.51 18.894-25.985 17.813-13.48-1.08-23.69-10.81-22.82-21.728.87-10.92 12.51-18.896 25.98-17.815 13.47 1.08 23.69 10.81 22.81 21.73z" stroke="#000" stroke-width="2.145" fill="#E6C2AA"/><path d="M1201.015 693.84c-.145 1.816-1.86 3.16-3.832 3.002-1.972-.158-3.45-1.758-3.306-3.574.07-.872.513-1.678 1.232-2.24.71-.564 1.65-.838 2.6-.762.94.076 1.82.495 2.44 1.166.62.67.93 1.536.86 2.408zm5.865-11.168c-.146 1.816-1.862 3.16-3.833 3.002-1.97-.158-3.45-1.758-3.305-3.574.07-.872.513-1.678 1.232-2.24.718-.564 1.654-.838 2.6-.762.947.076 1.827.495 2.447 1.166.62.67.93 1.536.86 2.408z" fill="#000"/><path d="M1204.598 701.05c9.187-2.207 17.502-5.146 14.178-17.863" stroke="#000" stroke-width="2.034"/></g></svg>