<svg width="1540" height="820" viewBox="0 0 1540 820" xmlns="http://www.w3.org/2000/svg" xmlns:xlink="http://www.w3.org/1999/xlink"><title>story12</title><defs><path id="b" d="M40 40h1200v160H40z"/><filter x="-50%" y="-50%" width="200%" height="200%" filterUnits="objectBoundingBox" id="a"><feOffset dx="6" dy="6" in="SourceAlpha" result="shadowOffsetOuter1"/><feColorMatrix values="0 0 0 0 0 0 0 0 0 0 0 0 0 0 0 0 0 0 1 0" in="shadowOffsetOuter1"/></filter></defs><g fill="none" fill-rule="evenodd"><path fill="#000" d="M0 0h1540v820H0z"/><use fill="#000" filter="url(#a)" xlink:href="#b"/><use fill="#FFF" xlink:href="#b"/><path d="M111.58 60c1.03 0 1.546 3.158 1.546 9.475l2.057 11.97h.51c0-.68 2.062-4.394 6.187-11.144.644-4.45 1.846-6.68 3.603-6.68h.51c1.03 0 1.887 3.44 2.567 10.31 1.148 4.69 2.01 7.48 2.584 8.37.54-2.36 3.28-9.33 8.226-20.9.727-.74 1.412-1.11 2.057-1.11.926 0 1.53.37 1.81 1.11 0 .95-2.572 7.17-7.716 18.67-.86 2.71-1.64 6.42-2.32 11.15-.55.93-1.23 1.39-2.05 1.39-1.57 0-2.77-3.15-3.6-9.47-1.67-6.15-2.7-9.49-3.09-10.02l-5.15 8.92c-.85 1.73-1.63 4.71-2.32 8.91-.45.68-1.14 1.14-2.05 1.39-1.43 0-2.63-4.83-3.6-14.48-1.37-6.82-2.05-12.3-2.05-16.43 0-.55.77-1.01 2.32-1.39zm48.058 4.447c.832.223 1.248.79 1.248 1.705v.23c-1.172 17.308-2.004 25.962-2.496 25.962l-.264.246h-.738c-.867 0-1.453-.404-1.758-1.213.328-2.31.492-5.543.492-9.703h-.246L145.364 84.1l-.738.966v4.606c0 1.37-.504 2.344-1.512 2.918h-.492c-.937 0-1.523-.404-1.758-1.213 1.16-17.473 2.83-26.21 5.01-26.21h.492l.756.985c-1.172 5.8-1.758 10.084-1.758 12.85 7.676-1.008 11.514-2.22 11.514-3.64l1.002-10.194 1.758-.72zm21.62.053c.81.176 1.214.79 1.214 1.846-.258 1.992-1.06 2.988-2.41 2.988-8.835 0-13.252 1.23-13.252 3.69l-.247 2.076v1.142c5.766-1.383 9.704-2.074 11.813-2.074h.475c.81.352 1.22 1.12 1.22 2.303 0 1.69-1.12 2.54-3.37 2.54-7.39.96-11.09 2.12-11.09 3.47l-.23 2.31v.92c0 1.38.88 2.15 2.64 2.3 2.77-.3 6.23-.99 10.37-2.07h.72c.65.25.97.79.97 1.62v.69c0 1.89-4.02 3.35-12.06 4.38h-.72c-2.89 0-4.5-1.84-4.81-5.52 0-2.7.56-7.85 1.69-15.43l-.47-1.39c0-3.11 4.82-4.95 14.45-5.52l3.13-.23zm5.08-.053c1.067 0 2.345 2.004 3.833 6.012 2.89 5.9 6.09 10.95 9.62 15.15 1.19-11.57 2.07-18.38 2.64-20.45l.97-.72h.72c.48 0 .72.32.72.96-1.44 16.52-2.32 25.34-2.63 26.45l-1.44.47c-2.56 0-6.89-5.45-12.97-16.35l-.96-.97-.25.72-.72 11.07v1.44l.25 1.44c-.21 1.92-.85 2.88-1.92 2.88-.98-.35-1.54-.83-1.68-1.44 1.23-17.32 2.11-25.98 2.64-25.98l1.22-.72zm54.37-.017c1.523 0 2.285.632 2.285 1.898v.475c0 1.746-1.36 2.62-4.078 2.62l-5.08.245c-1.523 8.12-2.285 15.105-2.285 20.953-.41 1.27-.832 1.9-1.266 1.9h-.773c-.87 0-1.38-.24-1.53-.72.86-8.99 1.79-16.29 2.8-21.9l-7.63 1.2c-.71 0-1.13-.71-1.26-2.14 0-2.38 2.12-3.57 6.37-3.57 2.55-.63 6.7-.95 12.47-.95zm20.338.017c.832.223 1.248.79 1.248 1.705v.23c-1.172 17.308-2.004 25.962-2.496 25.962l-.264.246h-.738c-.867 0-1.453-.404-1.758-1.213.328-2.31.492-5.543.492-9.703h-.246L246.772 84.1l-.738.966v4.606c0 1.37-.504 2.344-1.512 2.918h-.492c-.937 0-1.523-.404-1.758-1.213 1.16-17.473 2.83-26.21 5.01-26.21h.492l.756.985c-1.172 5.8-1.758 10.084-1.758 12.85 7.676-1.008 11.514-2.22 11.514-3.64l1.002-10.194 1.758-.72zm21.62.053c.81.176 1.214.79 1.214 1.846-.258 1.992-1.06 2.988-2.408 2.988-8.836 0-13.254 1.23-13.254 3.69l-.246 2.076v1.142c5.765-1.383 9.703-2.074 11.812-2.074h.475c.8.352 1.21 1.12 1.21 2.303 0 1.69-1.13 2.54-3.38 2.54-7.4.96-11.09 2.12-11.09 3.47l-.23 2.31v.92c0 1.38.88 2.15 2.64 2.3 2.76-.3 6.22-.99 10.37-2.07h.72c.64.25.96.79.96 1.62v.69c0 1.89-4.02 3.35-12.06 4.38h-.72c-2.9 0-4.5-1.84-4.82-5.52 0-2.7.56-7.85 1.68-15.43l-.48-1.39c0-3.11 4.81-4.95 14.45-5.52l3.13-.23zm3.376 0l5.38 8.156 2.354 1.934c2.977-5.297 5.05-8.502 6.223-9.615h1.07l.86.966c-.12.86-3.48 6.86-10.09 18-1.67 3.13-2.89 5.93-3.66 8.41l-.64.25c-1.01-.47-1.51-1.19-1.51-2.16.06-1.25 1.77-5.17 5.15-11.76-4.87-5.23-7.3-9.47-7.3-12.73.9-.96 1.62-1.44 2.14-1.44zm42.012-.053h2.425c3.71 0 5.57 1.295 5.57 3.885v.246c0 4.535-3.88 8.66-11.64 12.375v.23c3.88 3.56 7.11 6.233 9.7 8.014v.72c0 1.255-.41 2.063-1.22 2.427h-.97l-13.32-9.457-.25 4.85v3.64c-.41.81-1.06 1.213-1.93 1.213-.65 0-1.13-.322-1.46-.967v-1.46l2.18-18.93c-.65 0-.97-.48-.97-1.442 0-2.91 2.42-4.61 7.26-5.09l4.6-.24zm-8.473 13.096h.25c8.39-2.156 12.59-4.5 12.59-7.03v-.247c0-.446-.81-.768-2.42-.967-2.68 0-5.91.56-9.68 1.7l-.72 6.54zM354.85 64.5c.808.176 1.213.79 1.213 1.846-.26 1.992-1.06 2.988-2.41 2.988-8.835 0-13.252 1.23-13.252 3.69l-.24 2.076v1.142c5.77-1.383 9.71-2.074 11.82-2.074h.48c.81.352 1.21 1.12 1.21 2.303 0 1.69-1.12 2.54-3.37 2.54-7.39.96-11.09 2.12-11.09 3.47l-.23 2.31v.92c0 1.38.88 2.15 2.64 2.3 2.77-.3 6.23-.99 10.37-2.07h.72c.65.25.97.79.97 1.62v.69c0 1.89-4.02 3.35-12.06 4.38h-.72c-2.89 0-4.5-1.84-4.81-5.52 0-2.7.56-7.85 1.69-15.43l-.48-1.39c0-3.11 4.82-4.95 14.45-5.52l3.13-.23zm12.076 0h.844c1.16 0 2.63 5.36 4.412 16.084 1.405 5.063 2.11 8.502 2.11 10.318-.295.96-.857 1.442-1.69 1.442-1.077 0-1.85-2.56-2.32-7.682l-.21-.228h-.21c-1.83.023-5.685 1.142-11.568 3.357-.562 3.2-1.476 4.8-2.742 4.8-.844-.32-1.266-.96-1.266-1.91 0-1.85 3.863-10.33 11.585-25.45l1.06-.72zm-.422 6.715c-1.686 3.047-3.233 6.252-4.64 9.615h1.477c1.43 0 3.26-.322 5.49-.967l-1.89-8.648h-.42zm26.77-6.715h1.037c1.3 0 2.08 1.05 2.34 3.146v.493c0 3.17-1.2 5.27-3.6 6.29l-.42-.5v-.25l1.07-4.12-.84-.48c-3.5 0-7.67 3.31-12.49 9.93-1.15 2-1.72 3.53-1.72 4.59v.24c0 2.58 1.56 3.87 4.68 3.87h.19c3 0 6.33-.8 9.97-2.41h.65c.57.25.85.82.85 1.68v.96c-3 3.07-6.52 4.6-10.58 4.6-5.52-.58-8.28-3.32-8.28-8.23v-.49c0-6.27 4.45-12.4 13.35-18.4 1.69-.65 2.97-.97 3.84-.97zm22.148-.053c.832.223 1.248.79 1.248 1.705v.23c-1.172 17.308-2.004 25.962-2.496 25.962l-.268.246h-.738c-.867 0-1.453-.404-1.758-1.213.327-2.31.49-5.543.49-9.703h-.245L401.14 84.1l-.74.966v4.606c0 1.37-.503 2.344-1.51 2.918h-.493c-.937 0-1.523-.404-1.757-1.213 1.16-17.473 2.83-26.21 5.01-26.21h.493l.755.985c-1.17 5.8-1.756 10.084-1.756 12.85 7.675-1.008 11.513-2.22 11.513-3.64l1.002-10.194 1.756-.72zm21.62.053c.81.176 1.214.79 1.214 1.846-.254 1.992-1.06 2.988-2.404 2.988-8.836 0-13.254 1.23-13.254 3.69l-.246 2.076v1.142c5.765-1.383 9.703-2.074 11.812-2.074h.475c.81.352 1.21 1.12 1.21 2.303 0 1.69-1.13 2.54-3.38 2.54-7.4.96-11.1 2.12-11.1 3.47l-.23 2.31v.92c0 1.38.88 2.15 2.64 2.3 2.76-.3 6.22-.99 10.37-2.07h.72c.64.25.96.79.96 1.62v.69c0 1.89-4.02 3.35-12.06 4.38h-.72c-2.9 0-4.5-1.84-4.82-5.52 0-2.7.56-7.85 1.69-15.43l-.48-1.39c0-3.11 4.81-4.95 14.45-5.52l3.13-.23zm10.6-.053h1.073c5.1 0 8.22 2.022 9.37 6.065l.21 1.933c0 8.05-5.964 14.684-17.893 19.9l-1.055.245h-.225c-.316 0-.597-.57-.843-1.705l2.12-20.865c-.86 0-1.29-.24-1.29-.72v-.493c0-2.578 1.13-3.868 3.41-3.868l5.11-.5zm-4.253 5.098c-1.28 8.297-1.92 13.875-1.92 16.734v1.21c8.94-4.47 13.41-8.67 13.41-12.62v-.23c0-2.28-.64-3.41-1.92-3.41-1.59-1.13-4.14-1.69-7.67-1.69h-1.92zM486.2 60c5.72 0 8.577 1.875 8.577 5.625v.844c0 2.62-1.29 5.15-3.867 7.57v.28c4.23 1.24 6.346 3.3 6.346 6.19v1.12c0 4.7-4.78 8.16-14.36 10.38l-4.69.56h-2.76c-1.475 0-2.214-.75-2.214-2.25v-.28l2.216-23.03c-.925 0-1.39-.19-1.39-.56v-1.69c0-3.19 4.05-4.78 12.148-4.78zm-8 12.64h.28c8.65 0 12.975-1.87 12.975-5.61-1.43-.936-3.82-1.405-7.173-1.405h-3.322c-1.477 0-2.215.656-2.215 1.97l-.54 5.044zm-.56 5.342l-.546 8.983 2.752.562.28-.28h1.37c7.735-.985 11.6-2.76 11.6-5.327-2.53-2.625-6.484-3.938-11.863-3.938h-1.106l-.283-.28-.28.28h-1.933zM517.21 64.5c.81.176 1.213.79 1.213 1.846-.258 1.992-1.06 2.988-2.408 2.988-8.836 0-13.254 1.23-13.254 3.69l-.24 2.076v1.142c5.77-1.383 9.71-2.074 11.81-2.074h.47c.81.352 1.22 1.12 1.22 2.303 0 1.69-1.12 2.54-3.37 2.54-7.39.96-11.09 2.12-11.09 3.47l-.23 2.31v.92c0 1.38.88 2.15 2.64 2.3 2.77-.3 6.23-.99 10.37-2.07h.73c.64.25.97.79.97 1.62v.69c0 1.89-4.02 3.35-12.06 4.38h-.72c-2.89 0-4.5-1.84-4.81-5.52 0-2.7.56-7.85 1.69-15.43l-.47-1.39c0-3.11 4.82-4.95 14.45-5.52l3.13-.23zm20.742-.07c1.524 0 2.285.632 2.285 1.898v.475c0 1.746-1.36 2.62-4.08 2.62l-5.08.245c-1.526 8.12-2.288 15.105-2.288 20.953-.41 1.27-.84 1.9-1.27 1.9h-.78c-.88 0-1.39-.24-1.53-.72.85-8.99 1.78-16.29 2.79-21.9l-7.63 1.2c-.72 0-1.14-.71-1.27-2.14 0-2.38 2.12-3.57 6.36-3.57 2.54-.63 6.69-.95 12.46-.95zm20.338.017c.832.223 1.248.79 1.248 1.705v.23c-1.172 17.308-2.004 25.962-2.496 25.962l-.264.246h-.738c-.867 0-1.453-.404-1.758-1.213.328-2.31.492-5.543.492-9.703h-.246L544.02 84.1l-.74.966v4.606c0 1.37-.504 2.344-1.51 2.918h-.494c-.937 0-1.523-.404-1.757-1.213 1.16-17.473 2.83-26.21 5-26.21h.49l.75.985c-1.17 5.8-1.76 10.084-1.76 12.85 7.67-1.008 11.51-2.22 11.51-3.64l1-10.194 1.76-.72zm6.434 0h.246c.76 0 1.4.393 1.916 1.178-1.114 8.11-1.91 15.363-2.39 21.762l13.71-2.83.475.703v1.424c0 2.156-4.97 4.125-14.9 5.906-1.77-.317-2.65-.867-2.65-1.653 1.32-17.343 2.28-26.015 2.89-26.015l.72-.475zm33.345.053c.81.176 1.21.79 1.21 1.846-.26 1.992-1.06 2.988-2.41 2.988-8.84 0-13.26 1.23-13.26 3.69l-.25 2.076v1.142c5.76-1.383 9.7-2.074 11.81-2.074h.47c.81.352 1.21 1.12 1.21 2.303 0 1.69-1.13 2.54-3.38 2.54-7.39.96-11.09 2.12-11.09 3.47l-.23 2.31v.92c0 1.38.88 2.15 2.64 2.3 2.76-.3 6.22-.99 10.37-2.07h.72c.64.25.96.79.96 1.62v.69c0 1.89-4.02 3.35-12.06 4.38h-.72c-2.9 0-4.5-1.84-4.82-5.52 0-2.7.56-7.85 1.69-15.43l-.48-1.39c0-3.11 4.81-4.95 14.45-5.52l3.12-.23zm20.01-.053c.83.223 1.24.79 1.24 1.705v.23c-1.17 17.308-2.01 25.962-2.5 25.962l-.27.246h-.74c-.87 0-1.46-.404-1.76-1.213.33-2.31.49-5.543.49-9.703h-.25L603.8 84.1l-.74.966v4.606c0 1.37-.502 2.344-1.51 2.918h-.492c-.936 0-1.522-.404-1.756-1.213 1.16-17.473 2.83-26.21 5.01-26.21h.492l.756.985c-1.17 5.8-1.757 10.084-1.757 12.85 7.676-1.008 11.513-2.22 11.513-3.64l1-10.194 1.76-.72zm21.62.053c.81.176 1.21.79 1.21 1.846-.26 1.992-1.06 2.988-2.41 2.988-8.84 0-13.25 1.23-13.25 3.69L625 75.1v1.142c5.767-1.383 9.704-2.074 11.813-2.074h.475c.81.352 1.213 1.12 1.213 2.303 0 1.69-1.12 2.54-3.37 2.54-7.39.96-11.09 2.12-11.09 3.47l-.23 2.31v.92c0 1.38.88 2.15 2.64 2.3 2.77-.3 6.23-.99 10.37-2.07h.72c.65.25.97.79.97 1.62v.69c0 1.89-4.02 3.35-12.06 4.38h-.72c-2.89 0-4.5-1.84-4.81-5.52 0-2.7.56-7.85 1.69-15.43l-.47-1.39c0-3.11 4.82-4.95 14.45-5.52l3.13-.23zm12.14-.053h.45c.75.41 1.12 1.05 1.12 1.916v.492c0 5.204.45 11.297 1.37 18.282h.23c5.01-13.15 7.96-19.723 8.86-19.723h.68c.66 0 1.72 4.57 3.18 13.71 1.36 4.69 2.04 8.614 2.04 11.778-.45 1.125-1.13 1.688-2.04 1.688-.61 0-1.44-3.932-2.5-11.795l-1.83-7.682c-1.3 2.086-3.65 7.535-7.05 16.348-.98 1-1.81 1.56-2.5 1.69-1.97 0-2.96-2.65-2.96-7.94l-1.12-10.09h-.23l-6.82 15.38c-.41 2.57-.79 3.85-1.15 3.85h-.9l-.92-.95v-1.21c0-2.15 1.89-6.8 5.68-13.94 2.7-7.5 4.44-11.35 5.22-11.55l1.14-.24zm54.19-.017c1.52 0 2.28.632 2.28 1.898v.475c0 1.746-1.36 2.62-4.08 2.62l-5.08.245c-1.53 8.12-2.29 15.105-2.29 20.953-.41 1.27-.83 1.9-1.27 1.9h-.78c-.88 0-1.39-.24-1.53-.72.86-8.99 1.79-16.29 2.79-21.9l-7.63 1.2c-.72 0-1.14-.71-1.27-2.14 0-2.38 2.12-3.57 6.36-3.57 2.54-.63 6.7-.95 12.46-.95zm20.33.017c.83.223 1.25.79 1.25 1.705v.23c-1.17 17.308-2.01 25.962-2.5 25.962l-.27.246h-.74c-.87 0-1.46-.404-1.76-1.213.32-2.31.49-5.543.49-9.703h-.25L712.1 84.1l-.74.966v4.606c0 1.37-.504 2.344-1.51 2.918h-.494c-.94 0-1.525-.404-1.76-1.213 1.16-17.473 2.83-26.21 5.01-26.21h.494l.755.985c-1.17 5.8-1.76 10.084-1.76 12.85 7.677-1.008 11.515-2.22 11.515-3.64l1.002-10.194 1.757-.72zm21.62.053c.81.176 1.21.79 1.21 1.846-.26 1.992-1.06 2.988-2.41 2.988-8.84 0-13.25 1.23-13.25 3.69l-.25 2.076v1.142c5.76-1.383 9.7-2.074 11.81-2.074h.47c.81.352 1.21 1.12 1.21 2.303 0 1.69-1.13 2.54-3.38 2.54-7.4.96-11.09 2.12-11.09 3.47l-.23 2.31v.92c0 1.38.88 2.15 2.64 2.3 2.77-.3 6.23-.99 10.37-2.07h.72c.65.25.97.79.97 1.62v.69c0 1.89-4.02 3.35-12.06 4.38H734c-2.89 0-4.5-1.84-4.81-5.52 0-2.7.56-7.85 1.686-15.43l-.474-1.39c0-3.11 4.817-4.95 14.45-5.52l3.13-.23zm3.37 0l5.38 8.156 2.35 1.934c2.98-5.297 5.05-8.502 6.22-9.615h1.07l.86.966c-.12.86-3.48 6.86-10.09 18-1.67 3.13-2.88 5.93-3.66 8.41l-.64.25c-1.01-.47-1.51-1.19-1.51-2.16.06-1.25 1.77-5.17 5.15-11.76-4.86-5.23-7.3-9.47-7.3-12.73.9-.96 1.61-1.44 2.14-1.44zm47.7-.053c.83.223 1.25.79 1.25 1.705v.23c-1.17 17.308-2.01 25.962-2.5 25.962l-.27.246h-.74c-.87 0-1.46-.404-1.76-1.213.32-2.31.49-5.543.49-9.703h-.25L784.8 84.1l-.74.966v4.606c0 1.37-.502 2.344-1.51 2.918h-.492c-.938 0-1.524-.404-1.758-1.213 1.16-17.473 2.83-26.21 5.01-26.21h.492l.756.985c-1.17 5.8-1.757 10.084-1.757 12.85 7.68-1.008 11.52-2.22 11.52-3.64l1-10.194 1.76-.72zm13.68.053h.84c1.16 0 2.63 5.36 4.41 16.084 1.4 5.063 2.1 8.502 2.1 10.318-.29.96-.85 1.442-1.69 1.442-1.08 0-1.85-2.56-2.32-7.682l-.21-.228h-.21c-1.83.023-5.69 1.142-11.57 3.357-.56 3.2-1.48 4.8-2.74 4.8-.84-.32-1.27-.96-1.27-1.91 0-1.85 3.86-10.33 11.58-25.45l1.05-.72zm-.42 6.715c-1.69 3.047-3.24 6.252-4.64 9.615h1.47c1.43 0 3.26-.322 5.48-.967l-1.9-8.648h-.43zm18.97-6.768h1.07c5.1 0 8.22 2.022 9.37 6.065l.21 1.933c0 8.05-5.97 14.684-17.9 19.9l-1.06.245h-.23c-.32 0-.6-.57-.85-1.705l2.12-20.865c-.86 0-1.29-.24-1.29-.72v-.493c0-2.578 1.13-3.868 3.41-3.868l5.11-.5zm-4.26 5.098c-1.28 8.297-1.92 13.875-1.92 16.734v1.21c8.94-4.47 13.41-8.67 13.41-12.62v-.23c0-2.28-.64-3.41-1.92-3.41-1.59-1.13-4.14-1.69-7.67-1.69H827zm42.89-5.098c4.65 0 6.98 1.365 6.98 4.096 0 5.402-5.1 10.29-15.3 14.66-.75 0-1.12.48-1.12 1.442-.11 5.296-.64 7.945-1.59 7.945h-1.13c-.31-.07-.61-.47-.9-1.195l2.02-19.723h-.23c-.6 0-.9-.727-.9-2.18 0-2.355 1.35-3.715 4.06-4.078l8.09-.967zm-9 13.957c5.14-1.347 9.05-3.59 11.71-6.732l.44-1.46v-.474l-1.13-.246h-1.13c-5.99.328-8.98.89-8.98 1.688l-.92 7.224zm29.06-13.957h2.42c3.71 0 5.57 1.295 5.57 3.885v.246c0 4.535-3.88 8.66-11.64 12.375v.23c3.88 3.56 7.11 6.233 9.7 8.014v.72c0 1.255-.41 2.063-1.21 2.427h-.97l-13.32-9.457-.25 4.85v3.64c-.41.81-1.06 1.213-1.94 1.213-.65 0-1.13-.322-1.46-.967v-1.46l2.18-18.93c-.65 0-.97-.48-.97-1.442 0-2.91 2.42-4.61 7.26-5.09l4.61-.25zm-8.47 13.096h.24c8.39-2.156 12.59-4.5 12.59-7.03v-.247c0-.446-.81-.768-2.43-.967-2.69 0-5.91.56-9.69 1.7l-.72 6.54zm31.83-13.096c5 .692 7.5 3.686 7.5 8.983 0 6.937-2.74 12.68-8.23 17.226-2.26 1.29-4.28 1.934-6.07 1.934-4.35 0-7.15-2.344-8.4-7.03l-.18-2.18v-.74c0-7.57 3.46-13.312 10.37-17.226 1.73-.644 3.4-.967 4.99-.967zM900.31 83.38c1.804 2.74 4.19 4.112 7.154 4.112 4.77 0 8.103-2.83 10.002-8.49l.35-2.672c0-3.984-1.96-6.328-5.887-7.03h-.55c-3.25 0-6.64 3.233-10.18 9.702-.6 1.945-.9 3.404-.9 4.377zm32.484-18.88c4.746 0 7.12 1.617 7.12 4.852v.72c0 2.262-1.073 4.442-3.218 6.54v.245c3.528 1.067 5.29 2.842 5.29 5.327v.966c0 4.055-3.983 7.037-11.952 8.948l-3.92.492h-2.285c-1.23 0-1.85-.645-1.85-1.934v-.246l1.84-19.863c-.78 0-1.16-.158-1.16-.475v-1.46c0-2.74 3.37-4.112 10.12-4.112zm-6.68 10.898h.246c7.196 0 10.793-1.617 10.793-4.85-1.183-.798-3.175-1.196-5.976-1.196h-2.76c-1.22 0-1.828.562-1.828 1.687l-.48 4.35zm-.457 4.606l-.457 7.734 2.303.492.228-.246h1.15c6.45-.843 9.67-2.373 9.67-4.588-2.12-2.26-5.42-3.392-9.89-3.392h-.91l-.22-.246-.23.246h-1.61zm21.147-15.557h.246c.762 0 1.4.393 1.916 1.178-1.113 8.11-1.91 15.363-2.39 21.762l13.71-2.83.475.703v1.424c0 2.156-4.96 4.125-14.9 5.906-1.77-.317-2.65-.867-2.65-1.653 1.32-17.343 2.28-26.015 2.89-26.015l.72-.475zm33.345.053c.8.176 1.21.79 1.21 1.846-.26 1.992-1.06 2.988-2.41 2.988-8.84 0-13.26 1.23-13.26 3.69l-.25 2.076v1.142c5.76-1.383 9.7-2.074 11.81-2.074h.47c.81.352 1.21 1.12 1.21 2.303 0 1.69-1.13 2.54-3.38 2.54-7.4.96-11.1 2.12-11.1 3.47l-.23 2.31v.92c0 1.38.88 2.15 2.63 2.3 2.76-.3 6.22-.99 10.37-2.07h.72c.64.25.97.79.97 1.62v.69c0 1.89-4.02 3.35-12.06 4.38h-.72c-2.9 0-4.5-1.84-4.82-5.52 0-2.7.56-7.85 1.68-15.43l-.48-1.39c0-3.11 4.81-4.95 14.45-5.52l3.13-.23zm12.14-.053h.45c.75.41 1.12 1.05 1.12 1.916v.492c0 5.204.45 11.297 1.37 18.282h.23c5.01-13.15 7.97-19.723 8.86-19.723h.68c.67 0 1.73 4.57 3.18 13.71 1.36 4.69 2.04 8.614 2.04 11.778-.45 1.125-1.13 1.688-2.04 1.688-.61 0-1.44-3.932-2.5-11.795l-1.83-7.682c-1.3 2.086-3.65 7.535-7.05 16.348-.98 1-1.81 1.56-2.5 1.69-1.97 0-2.95-2.65-2.95-7.94l-1.13-10.09H990l-6.82 15.38c-.41 2.57-.79 3.85-1.142 3.85h-.898l-.913-.95v-1.21c0-2.15 1.89-6.8 5.676-13.94 2.7-7.5 4.44-11.35 5.22-11.55l1.147-.24zm34.63.053h.37c1.61.2 2.42.984 2.42 2.355v.475c0 2.367-.81 4.57-2.43 6.61h-.37c-.26-.07-.51-.463-.76-1.178l.95-3.533-.74-.48c-1.72.15-4.89 2.04-9.49 5.66v.23l12.27 2.37c1.24.98 1.86 2.63 1.86 4.95v1.4c0 3.17-2.05 5.93-6.14 8.26-1.61.63-3.16.95-4.66.95h-.39c-4.27 0-6.87-1.89-7.81-5.66V85.5c0-1.735.44-2.602 1.3-2.602.86 3 2.41 4.5 4.66 4.5 0 .307.93.46 2.8.46 2.75 0 5.42-1.41 8-4.237 0-1.87-3.97-3.06-11.9-3.55-2.86-.79-4.29-1.97-4.29-3.53 0-3.83 3.84-7.69 11.53-11.56l2.79-.47zm36.79 0h2.26c1.01.633 1.51 1.342 1.51 2.127-.27 1.887-1.11 2.83-2.52 2.83-4.05 0-7.99.393-11.83 1.178l-.49 5.203 1.24.228h1c2.97 0 6.41-.474 10.31-1.423l.75 1.423c-.38 2.836-1.55 4.254-3.52 4.254-1.22.62-4.66 1.09-10.32 1.407-.4 7.09-1.07 10.634-2.02 10.634l-1 .23h-.25c-.42 0-.68-.31-.76-.95 0-3.85.67-10.93 2-21.23l-.74-.72c0-2.38 1.67-3.79 5.02-4.23 3.37-.63 6.47-.95 9.3-.95zm9.42-.123h1.65c.55 0 .82.322.82.967-1.29 10.523-1.94 17.824-1.94 21.902v2.672c-.37 1.78-1.28 2.672-2.75 2.672h-.55l-1.11-.967c.74-11.04 1.66-19.8 2.76-26.28l1.09-.966zm7.98.07c1.06 0 2.34 2.004 3.83 6.012 2.88 5.9 6.08 10.95 9.61 15.15 1.18-11.57 2.06-18.38 2.63-20.45l.96-.72h.72c.48 0 .72.32.72.96-1.44 16.52-2.32 25.34-2.64 26.45l-1.44.47c-2.57 0-6.89-5.45-12.98-16.35l-.97-.97-.25.72-.72 11.07v1.44l.24 1.44c-.21 1.92-.85 2.88-1.92 2.88-.98-.35-1.55-.83-1.69-1.44 1.23-17.32 2.11-25.98 2.63-25.98l1.21-.72zm29.28 0h1.07c5.09 0 8.22 2.022 9.37 6.065l.21 1.933c0 8.05-5.97 14.684-17.9 19.9l-1.06.245h-.23c-.32 0-.6-.57-.85-1.705l2.12-20.865c-.86 0-1.28-.24-1.28-.72v-.493c0-2.578 1.13-3.868 3.41-3.868l5.11-.5zm-4.26 5.098c-1.28 8.297-1.92 13.875-1.92 16.734v1.21c8.94-4.47 13.41-8.67 13.41-12.62v-.23c0-2.28-.64-3.41-1.92-3.41-1.59-1.13-4.14-1.69-7.67-1.69h-1.92zm20.55-5.168h1.65c.55 0 .82.322.82.967-1.29 10.523-1.94 17.824-1.94 21.902v2.672c-.37 1.78-1.28 2.672-2.74 2.672h-.55l-1.11-.967c.73-11.04 1.65-19.8 2.75-26.28l1.09-.966zm7.98.07c1.06 0 2.34 2.004 3.83 6.012 2.88 5.9 6.09 10.95 9.61 15.15 1.18-11.57 2.06-18.38 2.63-20.45l.96-.72h.72c.48 0 .72.32.72.96-1.44 16.52-2.32 25.34-2.64 26.45l-1.44.47c-2.57 0-6.9-5.45-12.98-16.35l-.97-.97-.25.72-.72 11.07v1.44l.25 1.44c-.21 1.92-.85 2.88-1.92 2.88-.99-.35-1.55-.83-1.69-1.44 1.23-17.32 2.11-25.98 2.64-25.98l1.21-.72zm35.35 0h.17c1.56 0 2.6 1.524 3.13 4.57l-.37.475h-.18l-1.48-.474c-4.03.597-8.26 3.404-12.68 8.42-1.23 2.18-1.85 3.703-1.85 4.57v.967c0 2.566 2.63 4.166 7.91 4.798 3.3 0 5.81-1.763 7.52-5.29l-2.2-.95c-.82 0-3.09.96-6.81 2.883-.37-.82-.55-1.623-.55-2.408v-.246c0-2.555 2.45-4.32 7.35-5.29h.37c2.81 0 4.22 1.844 4.22 5.536 0 3.808-3.12 7.178-9.37 10.107l-2.2.475c-3.98 0-6.67-1.682-8.09-5.045l-.37-3.13c0-7.265 3.73-13.44 11.2-18.526 1.89-.97 3.3-1.45 4.24-1.45zM147.74 106.5h.368c1.618.2 2.426.984 2.426 2.355v.475c0 2.367-.808 4.57-2.426 6.61h-.37c-.257-.07-.508-.463-.755-1.178l.95-3.533-.732-.48c-1.72.15-4.88 2.04-9.49 5.66v.23l12.27 2.37c1.25.98 1.87 2.63 1.87 4.95v1.4c0 3.17-2.04 5.93-6.13 8.26-1.6.63-3.16.95-4.66.95h-.38c-4.26 0-6.87-1.89-7.8-5.66v-1.42c0-1.74.44-2.61 1.3-2.61.86 3 2.41 4.5 4.66 4.5 0 .3.93.46 2.8.46 2.76 0 5.42-1.41 8-4.24 0-1.87-3.96-3.06-11.9-3.55-2.86-.8-4.29-1.97-4.29-3.53 0-3.83 3.85-7.69 11.54-11.57l2.8-.48zm21.62-.053c5.004.692 7.506 3.686 7.506 8.983 0 6.937-2.742 12.68-8.226 17.226-2.262 1.29-4.283 1.934-6.065 1.934-4.347 0-7.148-2.344-8.402-7.03l-.17-2.18v-.74c0-7.57 3.458-13.312 10.37-17.226 1.737-.644 3.4-.967 4.994-.967zm-13.043 18.932c1.805 2.74 4.19 4.11 7.155 4.11 4.77 0 8.103-2.83 10.002-8.49l.35-2.67c0-3.99-1.962-6.33-5.887-7.03h-.545c-3.246 0-6.64 3.23-10.178 9.7-.598 1.94-.897 3.4-.897 4.37zm32.59-18.94h.457c.75.41 1.125 1.05 1.125 1.91v.49c0 5.2.45 11.29 1.37 18.28h.23c5.01-13.15 7.97-19.72 8.86-19.72h.68c.67 0 1.73 4.57 3.18 13.71 1.36 4.69 2.04 8.61 2.04 11.78-.45 1.12-1.13 1.69-2.04 1.69-.61 0-1.44-3.94-2.5-11.8l-1.83-7.68c-1.31 2.09-3.65 7.53-7.05 16.35-.98.99-1.81 1.56-2.5 1.69-1.97 0-2.96-2.65-2.96-7.95l-1.13-10.09h-.23l-6.82 15.38c-.41 2.57-.79 3.85-1.15 3.85h-.9l-.92-.95v-1.22c0-2.16 1.89-6.8 5.68-13.94 2.69-7.5 4.43-11.35 5.22-11.55l1.14-.25zm38.532.05c.8.17 1.21.79 1.21 1.84-.26 1.99-1.06 2.99-2.41 2.99-8.84 0-13.26 1.23-13.26 3.69l-.25 2.07v1.14c5.76-1.38 9.7-2.08 11.81-2.08h.47c.81.35 1.21 1.12 1.21 2.3 0 1.68-1.13 2.53-3.38 2.53-7.39.96-11.09 2.11-11.09 3.46l-.23 2.3v.91c0 1.38.88 2.15 2.64 2.3 2.76-.31 6.22-1 10.37-2.08h.72c.64.25.97.79.97 1.62v.68c0 1.88-4.02 3.34-12.06 4.37h-.72c-2.9 0-4.5-1.84-4.82-5.52 0-2.71.56-7.85 1.68-15.44l-.48-1.39c0-3.12 4.81-4.96 14.45-5.52l3.13-.23zm3 0c.78 0 1.18 2.72 1.18 8.15l1.58 10.33h.38c0-.6 1.57-3.81 4.72-9.62.49-3.83 1.41-5.75 2.76-5.75h.39c.79 0 1.45 2.95 1.97 8.87.88 4.04 1.53 6.44 1.96 7.2.42-2.04 2.52-8.05 6.31-18.02.55-.63 1.08-.95 1.58-.95.7 0 1.16.32 1.37.95 0 .82-1.97 6.18-5.91 16.08-.66 2.34-1.25 5.54-1.78 9.61-.42.79-.95 1.19-1.59 1.19-1.2 0-2.11-2.72-2.74-8.16-1.29-5.31-2.08-8.19-2.38-8.65l-3.94 7.68c-.66 1.5-1.25 4.06-1.78 7.68-.35.59-.88.99-1.57 1.2-1.11 0-2.03-4.16-2.76-12.48-1.06-5.88-1.59-10.61-1.59-14.17 0-.48.59-.88 1.77-1.19zm42.99-.06c.83.22 1.25.79 1.25 1.7v.23c-1.18 17.31-2.01 25.96-2.5 25.96l-.26.24h-.74c-.87 0-1.46-.41-1.76-1.22.33-2.31.5-5.55.5-9.71h-.25l-10.51 2.42-.74.96v4.6c0 1.37-.51 2.34-1.52 2.92h-.5c-.94 0-1.53-.41-1.76-1.22 1.16-17.48 2.83-26.21 5.01-26.21h.49l.75.98c-1.17 5.8-1.76 10.08-1.76 12.85 7.67-1.01 11.51-2.22 11.51-3.64l1-10.2 1.76-.72zm21.62.05c.81.17 1.21.79 1.21 1.84-.26 1.99-1.06 2.99-2.41 2.99-8.84 0-13.26 1.23-13.26 3.69l-.25 2.07v1.14c5.76-1.38 9.7-2.08 11.81-2.08h.47c.81.35 1.22 1.12 1.22 2.3 0 1.69-1.13 2.53-3.38 2.53-7.4.96-11.09 2.11-11.09 3.46l-.23 2.3v.91c0 1.38.87 2.15 2.63 2.3 2.77-.31 6.22-1 10.37-2.08h.72c.65.24.97.78.97 1.62v.69c0 1.88-4.02 3.34-12.06 4.37h-.72c-2.89 0-4.5-1.84-4.81-5.52 0-2.71.56-7.85 1.68-15.44l-.48-1.39c0-3.12 4.82-4.96 14.45-5.52l3.13-.23zm14.31-.06h2.42c3.71 0 5.57 1.29 5.57 3.88v.24c0 4.53-3.88 8.66-11.64 12.37v.23c3.87 3.56 7.11 6.23 9.7 8.01v.72c0 1.26-.41 2.06-1.22 2.43h-.97l-13.33-9.46-.25 4.85v3.64c-.41.81-1.06 1.21-1.93 1.21-.65 0-1.13-.33-1.46-.97v-1.46l2.18-18.93c-.65 0-.97-.48-.97-1.45 0-2.92 2.42-4.62 7.26-5.1l4.6-.25zm-8.48 13.09h.24c8.39-2.16 12.58-4.5 12.58-7.03v-.25c0-.45-.81-.77-2.43-.97-2.69 0-5.92.57-9.69 1.7l-.72 6.54zm35.26-13.05c.81.17 1.21.79 1.21 1.84-.26 1.99-1.06 2.99-2.41 2.99-8.84 0-13.26 1.23-13.26 3.69l-.25 2.07v1.14c5.77-1.38 9.7-2.08 11.81-2.08h.47c.8.35 1.21 1.12 1.21 2.3 0 1.69-1.13 2.53-3.38 2.53-7.4.96-11.09 2.11-11.09 3.46l-.23 2.3v.91c0 1.38.88 2.15 2.63 2.3 2.76-.31 6.22-1 10.37-2.08h.72c.64.24.96.78.96 1.62v.68c0 1.88-4.02 3.34-12.06 4.37h-.72c-2.9 0-4.5-1.84-4.82-5.52 0-2.71.57-7.85 1.69-15.43l-.47-1.39c0-3.12 4.81-4.96 14.45-5.52l3.13-.23zm35.68-.07c1.53 0 2.29.63 2.29 1.89v.48c0 1.74-1.36 2.62-4.08 2.62l-5.08.24c-1.52 8.12-2.29 15.11-2.29 20.95-.41 1.26-.83 1.9-1.27 1.9h-.78c-.88 0-1.39-.24-1.53-.72.85-8.99 1.79-16.29 2.79-21.91l-7.63 1.19c-.72 0-1.14-.72-1.27-2.15 0-2.38 2.12-3.57 6.36-3.57 2.54-.64 6.7-.95 12.46-.95zm16.93.01c5 .69 7.51 3.68 7.51 8.98 0 6.93-2.75 12.68-8.23 17.22-2.26 1.29-4.29 1.93-6.07 1.93-4.35 0-7.15-2.35-8.41-7.03l-.18-2.18v-.74c0-7.57 3.46-13.32 10.37-17.23 1.73-.64 3.4-.97 4.99-.97zm-13.04 18.93c1.8 2.74 4.19 4.11 7.15 4.11 4.77 0 8.1-2.83 10-8.49l.35-2.67c0-3.99-1.96-6.33-5.89-7.03h-.55c-3.25 0-6.64 3.23-10.18 9.7-.6 1.94-.9 3.4-.9 4.38zm51.5-18.88h.37c1.61.2 2.42.98 2.42 2.35v.47c0 2.36-.81 4.57-2.43 6.61h-.37c-.26-.07-.51-.47-.76-1.18l.95-3.54-.74-.48c-1.73.15-4.89 2.04-9.5 5.66v.23l12.27 2.37c1.24.98 1.86 2.64 1.86 4.96v1.4c0 3.17-2.05 5.93-6.14 8.26-1.61.63-3.16.95-4.66.95h-.39c-4.27 0-6.87-1.89-7.81-5.66v-1.42c0-1.74.43-2.61 1.3-2.61.85 3 2.4 4.5 4.65 4.5 0 .3.93.45 2.79.45 2.75 0 5.42-1.41 8-4.23 0-1.88-3.97-3.06-11.9-3.55-2.86-.8-4.29-1.98-4.29-3.54 0-3.83 3.84-7.69 11.53-11.57l2.79-.48zm25.77-.07c1.52 0 2.28.63 2.28 1.9v.47c0 1.75-1.36 2.62-4.08 2.62l-5.08.24c-1.53 8.12-2.29 15.1-2.29 20.95-.41 1.27-.83 1.9-1.27 1.9h-.77c-.88 0-1.39-.24-1.53-.72.86-8.99 1.79-16.29 2.8-21.9l-7.63 1.19c-.71 0-1.14-.71-1.26-2.14 0-2.38 2.12-3.57 6.36-3.57 2.54-.64 6.7-.95 12.46-.95zm12.41.07h.84c1.16 0 2.63 5.36 4.41 16.08 1.4 5.06 2.11 8.5 2.11 10.32-.3.96-.86 1.44-1.69 1.44-1.08 0-1.85-2.56-2.32-7.69l-.21-.23h-.21c-1.83.02-5.69 1.14-11.57 3.36-.56 3.2-1.48 4.8-2.74 4.8-.85-.33-1.27-.97-1.27-1.92 0-1.85 3.86-10.33 11.58-25.45l1.05-.72zm-.42 6.71c-1.69 3.04-3.24 6.25-4.64 9.61h1.47c1.43 0 3.25-.32 5.48-.97l-1.9-8.65h-.42zm11.74-6.72l5.37 8.15 2.35 1.93c2.97-5.3 5.05-8.5 6.22-9.62h1.07l.86.96c-.12.86-3.48 6.86-10.09 18-1.67 3.13-2.88 5.93-3.66 8.4l-.63.25c-1.01-.47-1.51-1.19-1.51-2.16.06-1.26 1.77-5.18 5.15-11.76-4.87-5.23-7.3-9.47-7.3-12.73.9-.96 1.61-1.44 2.14-1.44zm17.22 22.09c1.57 0 2.55.95 2.93 2.86 0 1.91-1.37 2.95-4.11 3.13-1.37-.52-2.06-1.39-2.06-2.6v-.27c.54-2.09 1.62-3.13 3.24-3.13zM534.51 102h.473c2.04.223 3.06 1.137 3.06 2.742v.545c0 2.742-1.02 5.297-3.06 7.664h-.474c-.32-.08-.63-.53-.94-1.37l1.18-4.09-.95-.56c-2.17.18-6.18 2.37-12.03 6.58v.28l15.55 2.75c1.57 1.14 2.35 3.06 2.35 5.75v1.64c0 3.68-2.59 6.88-7.77 9.6-2.04.73-4 1.09-5.89 1.09h-.48c-5.42 0-8.72-2.19-9.9-6.57v-1.64c0-2.01.55-3.02 1.65-3.02 1.08 3.47 3.04 5.21 5.89 5.21 0 .37 1.17.55 3.53.55 3.49 0 6.86-1.64 10.12-4.92 0-2.17-5.03-3.54-15.08-4.11-3.61-.92-5.42-2.29-5.42-4.09 0-4.45 4.87-8.93 14.61-13.43l3.53-.54zm22.534 4.447c5.004.692 7.506 3.686 7.506 8.983 0 6.937-2.742 12.68-8.227 17.226-2.26 1.29-4.283 1.934-6.064 1.934-4.35 0-7.15-2.344-8.41-7.03l-.18-2.18v-.74c0-7.57 3.45-13.312 10.37-17.226 1.73-.644 3.4-.967 4.99-.967zM544 125.38c1.806 2.74 4.19 4.112 7.155 4.112 4.77 0 8.104-2.83 10.002-8.49l.352-2.672c0-3.984-1.97-6.328-5.89-7.03h-.55c-3.25 0-6.64 3.233-10.18 9.702-.6 1.945-.9 3.404-.9 4.377zm47.532-18.933h.457c.75.41 1.12 1.05 1.12 1.916v.492c0 5.204.45 11.297 1.37 18.282h.23c5.01-13.15 7.97-19.723 8.86-19.723h.68c.66 0 1.72 4.57 3.18 13.71 1.36 4.69 2.04 8.614 2.04 11.778-.45 1.125-1.13 1.688-2.04 1.688-.61 0-1.44-3.932-2.5-11.795l-1.83-7.682c-1.3 2.086-3.65 7.535-7.05 16.348-.97 1-1.81 1.56-2.5 1.69-1.97 0-2.96-2.65-2.96-7.94l-1.13-10.09h-.23l-6.82 15.38c-.41 2.57-.79 3.85-1.15 3.85h-.9l-.91-.95v-1.21c0-2.15 1.89-6.8 5.68-13.94 2.69-7.5 4.43-11.35 5.22-11.55l1.14-.24zm30.586.053h.844c1.16 0 2.63 5.36 4.412 16.084 1.406 5.063 2.11 8.502 2.11 10.318-.294.96-.856 1.442-1.688 1.442-1.078 0-1.852-2.56-2.32-7.682l-.21-.228h-.212c-1.828.023-5.684 1.142-11.567 3.357-.562 3.2-1.476 4.8-2.742 4.8-.844-.32-1.266-.96-1.266-1.91 0-1.85 3.86-10.33 11.58-25.45l1.05-.72zm-.422 6.715c-1.687 3.047-3.234 6.252-4.64 9.615h1.476c1.43 0 3.258-.322 5.485-.967l-1.9-8.648h-.42zm13.448-6.768c1.066 0 2.343 2.004 3.832 6.012 2.882 5.9 6.087 10.95 9.615 15.15 1.19-11.57 2.07-18.38 2.64-20.45l.97-.72h.72c.48 0 .72.32.72.96-1.44 16.52-2.32 25.34-2.63 26.45l-1.44.47c-2.57 0-6.89-5.45-12.97-16.35l-.96-.97-.24.72-.72 11.07v1.44l.25 1.44c-.21 1.92-.85 2.88-1.91 2.88-.98-.35-1.54-.83-1.68-1.44 1.23-17.32 2.11-25.98 2.64-25.98l1.22-.72zm22.06.053l5.38 8.156 2.354 1.934c2.977-5.297 5.05-8.502 6.223-9.615h1.08l.86.966c-.11.86-3.48 6.86-10.09 18-1.66 3.13-2.88 5.93-3.65 8.41l-.63.25c-1.01-.47-1.51-1.19-1.51-2.16.06-1.25 1.78-5.17 5.15-11.76-4.86-5.23-7.29-9.47-7.29-12.73.91-.96 1.62-1.44 2.15-1.44zm41.977-.053c4.66 0 6.98 1.365 6.98 4.096 0 5.402-5.09 10.29-15.29 14.66-.75 0-1.12.48-1.12 1.442-.1 5.296-.63 7.945-1.58 7.945h-1.12c-.3-.07-.6-.47-.89-1.195l2.02-19.723h-.22c-.59 0-.89-.727-.89-2.18 0-2.355 1.36-3.715 4.06-4.078l8.09-.967zm-9 13.957c5.15-1.347 9.05-3.59 11.71-6.732l.44-1.46v-.474l-1.12-.246h-1.12c-5.99.328-8.98.89-8.98 1.688l-.91 7.224zm34.77-13.904c.81.176 1.22.79 1.22 1.846-.26 1.992-1.06 2.988-2.41 2.988-8.83 0-13.25 1.23-13.25 3.69l-.24 2.076v1.142c5.77-1.383 9.71-2.074 11.81-2.074h.48c.81.352 1.22 1.12 1.22 2.303 0 1.69-1.12 2.54-3.37 2.54-7.39.96-11.09 2.12-11.09 3.47l-.22 2.31v.92c0 1.38.88 2.15 2.64 2.3 2.77-.3 6.23-.99 10.37-2.07h.72c.65.25.97.79.97 1.62v.69c0 1.89-4.02 3.35-12.06 4.38H711c-2.895 0-4.5-1.84-4.817-5.52 0-2.7.56-7.85 1.69-15.43l-.48-1.39c0-3.11 4.817-4.95 14.45-5.52l3.13-.23zm16.6-.053c5.01.692 7.51 3.686 7.51 8.983 0 6.937-2.74 12.68-8.22 17.226-2.26 1.29-4.28 1.934-6.06 1.934-4.35 0-7.15-2.344-8.4-7.03l-.17-2.18v-.74c0-7.57 3.46-13.312 10.38-17.226 1.74-.644 3.4-.967 4.99-.967zM728.5 125.38c1.806 2.74 4.19 4.112 7.155 4.112 4.77 0 8.104-2.83 10.002-8.49l.352-2.672c0-3.984-1.97-6.328-5.89-7.03h-.55c-3.25 0-6.64 3.233-10.18 9.702-.6 1.945-.9 3.404-.9 4.377zm34.718-18.933c4.652 0 6.978 1.365 6.978 4.096 0 5.402-5.097 10.29-15.293 14.66-.75 0-1.125.48-1.125 1.442-.105 5.296-.632 7.945-1.582 7.945h-1.125c-.3-.07-.6-.47-.89-1.195l2.02-19.723h-.22c-.6 0-.89-.727-.89-2.18 0-2.355 1.36-3.715 4.06-4.078l8.09-.967zm-9 13.957c5.144-1.347 9.047-3.59 11.707-6.732l.44-1.46v-.474l-1.126-.246h-1.13c-5.99.328-8.98.89-8.98 1.688l-.92 7.224zm19.582-13.957h.246c.762 0 1.4.393 1.916 1.178-1.113 8.11-1.91 15.363-2.39 21.762l13.71-2.83.475.703v1.424c0 2.156-4.97 4.125-14.906 5.906-1.77-.317-2.65-.867-2.65-1.653 1.32-17.343 2.28-26.015 2.89-26.015l.72-.475zm33.346.053c.808.176 1.212.79 1.212 1.846-.257 1.992-1.06 2.988-2.408 2.988-8.836 0-13.254 1.23-13.254 3.69l-.246 2.076v1.142c5.766-1.383 9.703-2.074 11.813-2.074h.474c.81.352 1.213 1.12 1.213 2.303 0 1.69-1.125 2.54-3.375 2.54-7.394.96-11.092 2.12-11.092 3.47l-.228 2.31v.92c0 1.38.88 2.15 2.637 2.3 2.765-.3 6.222-.99 10.37-2.07h.72c.646.25.968.79.968 1.62v.69c0 1.89-4.02 3.35-12.058 4.38h-.72c-2.896 0-4.5-1.84-4.818-5.52 0-2.7.563-7.85 1.688-15.43l-.475-1.39c0-3.11 4.817-4.95 14.45-5.52l3.13-.23zm34.945-.053c.84.223 1.25.79 1.25 1.705v.23c-1.17 17.308-2 25.962-2.49 25.962l-.26.246h-.74c-.86 0-1.45-.404-1.75-1.213.33-2.31.49-5.543.49-9.703h-.24l-10.52 2.426-.74.966v4.606c0 1.37-.5 2.344-1.51 2.918h-.49c-.93 0-1.52-.404-1.76-1.213 1.16-17.473 2.83-26.21 5.01-26.21h.49l.76.985c-1.17 5.8-1.76 10.084-1.76 12.85 7.68-1.008 11.52-2.22 11.52-3.64l1.01-10.194 1.76-.72zm13.68.053h.85c1.16 0 2.63 5.36 4.42 16.084 1.41 5.063 2.11 8.502 2.11 10.318-.29.96-.85 1.442-1.69 1.442-1.08 0-1.85-2.56-2.32-7.682l-.21-.228h-.21c-1.83.023-5.68 1.142-11.56 3.357-.56 3.2-1.47 4.8-2.74 4.8-.84-.32-1.26-.96-1.26-1.91 0-1.85 3.86-10.33 11.59-25.45l1.06-.72zm-.42 6.715c-1.69 3.047-3.23 6.252-4.64 9.615h1.48c1.43 0 3.26-.322 5.49-.967l-1.9-8.648h-.42zm18.97-6.768h1.07c5.1 0 8.22 2.022 9.37 6.065l.21 1.933c0 8.05-5.96 14.684-17.89 19.9l-1.05.245h-.23c-.31 0-.59-.57-.84-1.705l2.13-20.865c-.85 0-1.28-.24-1.28-.72v-.493c0-2.578 1.14-3.868 3.41-3.868l5.12-.5zm-4.25 5.098c-1.28 8.297-1.91 13.875-1.91 16.734v1.21c8.94-4.47 13.41-8.67 13.41-12.62v-.23c0-2.28-.64-3.41-1.91-3.41-1.58-1.13-4.14-1.69-7.66-1.69h-1.91zm47.02-5.045h1.04c1.3 0 2.08 1.05 2.34 3.146v.493c0 3.17-1.2 5.27-3.6 6.29l-.42-.5v-.25l1.07-4.12-.84-.48c-3.5 0-7.67 3.31-12.5 9.93-1.15 2-1.72 3.53-1.72 4.59v.24c0 2.58 1.56 3.87 4.68 3.87h.2c3 0 6.33-.8 9.97-2.41h.65c.57.25.85.82.85 1.68v.96c-3 3.07-6.53 4.6-10.58 4.6-5.52-.58-8.28-3.32-8.28-8.23v-.49c0-6.27 4.45-12.4 13.34-18.4 1.69-.65 2.97-.97 3.83-.97zm18.74-.053c5.01.692 7.51 3.686 7.51 8.983 0 6.937-2.74 12.68-8.22 17.226-2.26 1.29-4.28 1.934-6.06 1.934-4.34 0-7.15-2.344-8.4-7.03l-.17-2.18v-.74c0-7.57 3.46-13.312 10.37-17.226 1.74-.644 3.4-.967 4.99-.967zm-13.05 18.933c1.81 2.74 4.19 4.11 7.16 4.11 4.77 0 8.11-2.83 10-8.49l.36-2.67c0-3.99-1.96-6.33-5.89-7.03h-.55c-3.25 0-6.64 3.23-10.18 9.7-.6 1.942-.9 3.4-.9 4.374zm32.59-18.938h.46c.75.41 1.13 1.05 1.13 1.916v.492c0 5.204.46 11.297 1.37 18.282h.23c5.02-13.15 7.97-19.723 8.86-19.723h.69c.67 0 1.73 4.57 3.18 13.71 1.36 4.69 2.04 8.61 2.04 11.78-.45 1.12-1.13 1.69-2.04 1.69-.61 0-1.44-3.94-2.5-11.8l-1.83-7.68c-1.3 2.08-3.65 7.53-7.05 16.35-.97.99-1.8 1.56-2.49 1.68-1.97 0-2.95-2.65-2.95-7.95l-1.12-10.09h-.23l-6.82 15.38c-.41 2.57-.79 3.85-1.14 3.85h-.89l-.91-.95v-1.22c0-2.16 1.9-6.8 5.68-13.94 2.7-7.5 4.44-11.35 5.23-11.55l1.15-.25zm38.53.053c.81.175 1.22.79 1.22 1.845-.26 1.993-1.06 2.99-2.41 2.99-8.83 0-13.25 1.23-13.25 3.69l-.25 2.076v1.14c5.77-1.382 9.7-2.073 11.81-2.073h.48c.81.352 1.22 1.12 1.22 2.303 0 1.688-1.12 2.532-3.37 2.532-7.39.96-11.09 2.113-11.09 3.46l-.23 2.304v.914c0 1.38.88 2.15 2.64 2.3 2.76-.303 6.22-.995 10.37-2.073h.72c.65.246.97.785.97 1.617v.686c0 1.887-4.02 3.346-12.05 4.377h-.72c-2.89 0-4.5-1.84-4.82-5.52 0-2.707.57-7.85 1.69-15.433l-.47-1.39c0-3.116 4.82-4.956 14.45-5.518l3.13-.23zm31.77 0h2.27c1.01.632 1.51 1.34 1.51 2.126-.26 1.89-1.1 2.83-2.51 2.83-4.04 0-7.98.4-11.83 1.18l-.49 5.21 1.24.23h1.01c2.98 0 6.42-.47 10.32-1.42l.76 1.42c-.37 2.84-1.54 4.26-3.51 4.26-1.22.62-4.66 1.09-10.32 1.41-.4 7.09-1.07 10.64-2.02 10.64l-1 .23h-.25c-.42 0-.67-.31-.75-.95 0-3.85.67-10.93 2.01-21.23l-.73-.72c0-2.38 1.67-3.79 5.03-4.23 3.36-.63 6.46-.95 9.3-.95zm19.15-.054c5.01.7 7.51 3.69 7.51 8.99 0 6.94-2.74 12.68-8.23 17.23-2.26 1.29-4.28 1.94-6.06 1.94-4.35 0-7.15-2.34-8.4-7.03l-.17-2.18v-.74c0-7.57 3.46-13.31 10.37-17.22 1.74-.64 3.4-.96 5-.96zm-13.04 18.94c1.8 2.74 4.19 4.11 7.15 4.11 4.77 0 8.11-2.83 10.01-8.49l.35-2.67c0-3.98-1.97-6.33-5.89-7.03h-.55c-3.24 0-6.64 3.24-10.17 9.7-.6 1.95-.89 3.41-.89 4.38zm34.75-18.93h2.43c3.71 0 5.57 1.3 5.57 3.89v.25c0 4.54-3.88 8.66-11.64 12.38v.23c3.88 3.56 7.11 6.24 9.7 8.02v.72c0 1.26-.4 2.07-1.21 2.43h-.97l-13.32-9.46-.25 4.85v3.64c-.41.81-1.05 1.22-1.93 1.22-.64 0-1.13-.32-1.46-.96v-1.46l2.18-18.93c-.64 0-.96-.48-.96-1.44 0-2.92 2.42-4.62 7.26-5.1l4.61-.24zm-8.47 13.1h.25c8.39-2.15 12.59-4.5 12.59-7.03v-.24c0-.44-.81-.76-2.42-.96-2.68 0-5.91.57-9.68 1.71l-.72 6.54zm50.93-13.11c1.52 0 2.29.64 2.29 1.9v.48c0 1.75-1.36 2.62-4.08 2.62l-5.08.25c-1.53 8.12-2.29 15.11-2.29 20.96-.41 1.27-.83 1.9-1.26 1.9h-.77c-.88 0-1.39-.24-1.53-.72.86-8.99 1.79-16.29 2.8-21.9l-7.63 1.2c-.71 0-1.14-.71-1.27-2.14 0-2.38 2.12-3.57 6.37-3.57 2.54-.64 6.7-.95 12.46-.95zm20.34.02c.83.23 1.25.79 1.25 1.71v.23c-1.17 17.31-2 25.96-2.49 25.96l-.26.25h-.74c-.87 0-1.45-.4-1.76-1.21.33-2.31.49-5.54.49-9.7h-.24l-10.51 2.43-.74.97v4.61c0 1.37-.5 2.34-1.51 2.92h-.49c-.94 0-1.52-.4-1.76-1.21 1.16-17.47 2.83-26.21 5.01-26.21h.49l.76.99c-1.17 5.8-1.76 10.09-1.76 12.85 7.68-1.01 11.52-2.22 11.52-3.64l1-10.19 1.76-.72zm21.62.06c.81.18 1.21.79 1.21 1.85-.26 2-1.06 2.99-2.41 2.99-8.83 0-13.25 1.23-13.25 3.69l-.24 2.08v1.15c5.77-1.38 9.71-2.07 11.82-2.07h.48c.81.36 1.21 1.12 1.21 2.31 0 1.69-1.12 2.53-3.37 2.53-7.39.96-11.09 2.12-11.09 3.47l-.23 2.3v.92c0 1.39.88 2.15 2.64 2.31 2.77-.3 6.23-1 10.37-2.07h.73c.64.25.97.78.97 1.62v.69c0 1.89-4.02 3.35-12.06 4.38h-.72c-2.89 0-4.5-1.84-4.81-5.52 0-2.71.56-7.85 1.68-15.44l-.48-1.39c0-3.11 4.82-4.95 14.45-5.51l3.13-.23zm-1057.43 42h1.04c1.3 0 2.08 1.05 2.34 3.15v.5c0 3.18-1.2 5.27-3.6 6.29l-.42-.49v-.24l1.08-4.11-.84-.47c-3.51 0-7.67 3.31-12.5 9.94-1.15 2-1.72 3.53-1.72 4.59v.24c0 2.58 1.56 3.87 4.67 3.87h.2c3 0 6.32-.8 9.97-2.41h.65c.57.26.85.82.85 1.69v.96c-3 3.07-6.53 4.61-10.58 4.61-5.52-.57-8.28-3.32-8.28-8.23v-.49c0-6.27 4.45-12.4 13.34-18.4 1.69-.64 2.97-.96 3.83-.96zm22.17 0c.81.18 1.21.79 1.21 1.85-.26 2-1.06 2.99-2.41 2.99-8.84 0-13.26 1.23-13.26 3.69l-.24 2.08v1.15c5.77-1.38 9.71-2.07 11.81-2.07h.48c.81.36 1.22 1.12 1.22 2.31 0 1.69-1.13 2.53-3.38 2.53-7.39.96-11.09 2.12-11.09 3.47l-.23 2.3v.92c0 1.39.88 2.15 2.64 2.31 2.77-.3 6.22-1 10.37-2.07h.72c.64.25.97.78.97 1.62v.69c0 1.89-4.02 3.35-12.06 4.38h-.72c-2.89 0-4.5-1.84-4.81-5.52 0-2.71.56-7.85 1.69-15.44l-.48-1.39c0-3.11 4.82-4.95 14.45-5.51l3.13-.23zm5.08-.05c1.06 0 2.34 2.01 3.83 6.02 2.88 5.91 6.08 10.96 9.61 15.15 1.19-11.56 2.06-18.38 2.64-20.44l.96-.72h.72c.48 0 .72.32.72.97-1.44 16.53-2.32 25.35-2.63 26.46l-1.44.48c-2.56 0-6.89-5.45-12.97-16.35l-.97-.97-.24.72-.72 11.08v1.44l.25 1.44c-.21 1.93-.84 2.89-1.91 2.89-.99-.35-1.55-.83-1.69-1.44 1.23-17.32 2.11-25.98 2.63-25.98l1.21-.72zm34.8.06h.37c1.62.2 2.43.98 2.43 2.36v.48c0 2.37-.81 4.57-2.43 6.61h-.36c-.26-.07-.51-.46-.75-1.18l.95-3.53-.74-.47c-1.72.16-4.88 2.04-9.49 5.66v.23l12.27 2.38c1.24.99 1.86 2.64 1.86 4.96v1.41c0 3.17-2.04 5.93-6.13 8.26-1.61.63-3.16.95-4.66.95h-.39c-4.27 0-6.87-1.89-7.8-5.66v-1.43c0-1.74.44-2.6 1.3-2.6.86 3 2.41 4.5 4.66 4.5 0 .3.93.45 2.8.45 2.75 0 5.42-1.41 8-4.23 0-1.88-3.97-3.06-11.9-3.55-2.86-.8-4.29-1.98-4.29-3.54 0-3.83 3.84-7.68 11.53-11.56l2.79-.48zm11.48-.05c.75.31 1.17.62 1.25.95-1.34 8.36-2 14.43-2 18.21v2.61c4.48 0 8.14-2.05 11-6.15 1.12-9.94 2.21-14.91 3.25-14.91h.26c1 .11 1.5.35 1.5.72-1.5 9.05-2.25 15.83-2.25 20.34V174c0 1.24-.5 2.11-1.51 2.6h-1l-.98-.95v-.475l.24-4.01c-.59 0-3.85 1.496-9.75 4.485l-1.75.474c-2-.257-3.01-1.124-3.01-2.6v-.23c1.22-16.56 2.64-24.837 4.25-24.837h.51zm30.89.06h.37c1.62.2 2.43.99 2.43 2.36v.48c0 2.37-.81 4.57-2.42 6.61h-.37c-.25-.07-.51-.46-.75-1.18l.95-3.53-.74-.48c-1.72.16-4.89 2.04-9.49 5.66v.23l12.27 2.38c1.25.99 1.87 2.64 1.87 4.96v1.41c0 3.18-2.05 5.93-6.14 8.26-1.6.64-3.16.95-4.66.95h-.39c-4.26 0-6.86-1.88-7.8-5.66v-1.43c0-1.73.43-2.6 1.3-2.6.86 3 2.41 4.5 4.66 4.5 0 .31.93.46 2.79.46 2.76 0 5.42-1.41 8-4.23 0-1.88-3.97-3.06-11.9-3.55-2.86-.8-4.29-1.98-4.29-3.54 0-3.83 3.85-7.68 11.53-11.56l2.8-.47zm14.68 21.06c.75.22 1.3.63 1.64 1.21v.48c0 2.79-2.09 6.25-6.28 10.37l-1.09.25h-.28c-.98 0-1.71-.4-2.18-1.21v-.25c3.28-3.63 4.92-6.84 4.92-9.63 1.01-.81 2.1-1.21 3.27-1.21zm38.36-21.13c1.52 0 2.29.63 2.29 1.9v.47c0 1.75-1.36 2.62-4.07 2.62l-5.08.25c-1.53 8.12-2.29 15.1-2.29 20.95-.41 1.27-.83 1.9-1.27 1.9h-.77c-.88 0-1.39-.24-1.53-.72.85-8.99 1.78-16.29 2.79-21.9l-7.63 1.2c-.71 0-1.13-.71-1.26-2.14 0-2.38 2.12-3.57 6.36-3.57 2.54-.63 6.7-.95 12.46-.95zm20.34.02c.83.23 1.25.79 1.25 1.71v.23c-1.17 17.31-2 25.96-2.49 25.96l-.26.25h-.74c-.86 0-1.45-.4-1.75-1.21.33-2.31.49-5.54.49-9.7h-.25L257 168.1l-.737.966v4.606c0 1.37-.504 2.344-1.512 2.918h-.49c-.93 0-1.52-.404-1.75-1.213 1.16-17.473 2.83-26.21 5.01-26.21h.49l.76.985c-1.17 5.8-1.75 10.084-1.75 12.85 7.68-1.008 11.52-2.22 11.52-3.64l1.01-10.194 1.76-.72zm13.68.06h.85c1.16 0 2.63 5.36 4.41 16.09 1.41 5.06 2.11 8.5 2.11 10.32-.29.96-.86 1.44-1.69 1.44-1.08 0-1.85-2.56-2.32-7.68l-.21-.23h-.21c-1.82.02-5.68 1.14-11.56 3.36-.56 3.2-1.47 4.8-2.74 4.8-.84-.33-1.26-.97-1.26-1.92 0-1.85 3.86-10.33 11.58-25.45l1.05-.72zm-.42 6.72c-1.69 3.05-3.23 6.25-4.64 9.62h1.48c1.43 0 3.26-.32 5.49-.97l-1.9-8.65h-.42zm29.11-6.78c1.52 0 2.29.63 2.29 1.9v.48c0 1.75-1.36 2.62-4.08 2.62l-5.08.25c-1.52 8.12-2.28 15.11-2.28 20.96-.41 1.26-.83 1.9-1.27 1.9h-.77c-.88 0-1.38-.24-1.53-.72.86-8.99 1.79-16.29 2.8-21.91l-7.63 1.2c-.71 0-1.14-.71-1.26-2.14 0-2.38 2.12-3.57 6.36-3.57 2.54-.64 6.7-.95 12.46-.95zm35.3.07c.81.18 1.21.79 1.21 1.85-.25 1.99-1.06 2.99-2.41 2.99-8.83 0-13.25 1.23-13.25 3.69l-.24 2.08v1.14c5.77-1.38 9.71-2.07 11.82-2.07h.48c.81.36 1.21 1.12 1.21 2.31 0 1.69-1.12 2.53-3.37 2.53-7.4.96-11.09 2.11-11.09 3.46l-.23 2.31v.92c0 1.38.88 2.15 2.63 2.3 2.77-.3 6.22-1 10.37-2.07h.72c.65.25.97.78.97 1.62v.69c0 1.89-4.01 3.35-12.05 4.38H335c-2.9 0-4.5-1.84-4.82-5.52 0-2.703.56-7.85 1.69-15.43l-.475-1.39c0-3.11 4.82-4.95 14.45-5.51l3.13-.23zm20.66-.05h.71c.63.26.95.82.95 1.69 0 1.17-2.45 6.22-7.35 15.15-2.4 6.7-3.9 10.3-4.5 10.83l-2.36.48c-1.03 0-1.75-1.84-2.15-5.53-3.15-11.12-4.73-17.93-4.73-20.44.26-.72.74-1.29 1.43-1.68h.95c.86 0 1.72 3.37 2.6 10.11l2.84 10.57h.23c1.64-4.33 5.19-11.23 10.66-20.69l.72-.47zm20.45.06c.81.18 1.21.79 1.21 1.85-.26 2-1.06 2.99-2.41 2.99-8.83 0-13.25 1.23-13.25 3.69l-.25 2.08v1.14c5.77-1.38 9.7-2.07 11.81-2.07h.48c.81.35 1.22 1.12 1.22 2.3 0 1.69-1.13 2.53-3.38 2.53-7.39.96-11.09 2.12-11.09 3.47l-.23 2.3v.91c0 1.39.88 2.15 2.64 2.31 2.77-.3 6.22-1 10.37-2.07h.72c.65.25.97.78.97 1.62v.69c0 1.89-4.02 3.35-12.06 4.38h-.72c-2.89 0-4.5-1.84-4.81-5.52 0-2.71.56-7.85 1.68-15.43l-.47-1.39c0-3.11 4.82-4.95 14.45-5.52l3.13-.23zm14.31-.05h2.42c3.71 0 5.57 1.3 5.57 3.89v.25c0 4.53-3.88 8.66-11.64 12.37v.23c3.88 3.56 7.11 6.24 9.7 8.02v.72c0 1.26-.4 2.07-1.21 2.43h-.96l-13.32-9.46-.24 4.85v3.64c-.41.81-1.06 1.21-1.93 1.21-.64 0-1.13-.32-1.46-.97v-1.46l2.18-18.93c-.64 0-.97-.48-.97-1.44 0-2.92 2.42-4.61 7.26-5.1l4.6-.25zm-8.47 13.1h.24c8.39-2.15 12.59-4.5 12.59-7.03v-.24c0-.44-.81-.77-2.43-.96-2.69 0-5.91.57-9.69 1.71l-.72 6.54zm18.61-13.04l5.38 8.16 2.36 1.94c2.98-5.3 5.05-8.5 6.22-9.62h1.08l.86.97c-.11.85-3.48 6.85-10.09 18-1.66 3.13-2.88 5.93-3.65 8.4l-.63.24c-1.01-.47-1.51-1.19-1.51-2.16.06-1.26 1.78-5.18 5.15-11.76-4.86-5.23-7.29-9.47-7.29-12.73.91-.96 1.62-1.44 2.15-1.44zm47.71-.05c.83.22 1.25.79 1.25 1.7v.23c-1.17 17.31-2 25.96-2.49 25.96l-.26.24H460c-.87 0-1.45-.4-1.76-1.21.33-2.31.49-5.54.49-9.7h-.24l-10.51 2.43-.74.97v4.61c0 1.37-.5 2.35-1.51 2.92h-.49c-.94 0-1.52-.4-1.76-1.21 1.16-17.48 2.83-26.21 5.01-26.21h.49l.76.98c-1.17 5.8-1.76 10.09-1.76 12.85 7.68-1 11.52-2.22 11.52-3.64l1.002-10.19 1.758-.72zm18.2 0c5.01.69 7.51 3.68 7.51 8.98 0 6.94-2.75 12.68-8.23 17.23-2.26 1.29-4.28 1.94-6.06 1.94-4.35 0-7.15-2.34-8.4-7.03l-.18-2.18v-.74c0-7.57 3.46-13.31 10.37-17.22 1.73-.65 3.4-.97 4.99-.97zm-13.05 18.92c1.8 2.74 4.19 4.11 7.15 4.11 4.77 0 8.11-2.83 10-8.49l.35-2.67c0-3.98-1.96-6.32-5.89-7.03h-.54c-3.25 0-6.64 3.24-10.18 9.71-.6 1.94-.9 3.4-.9 4.38zm26.89-18.93c.75.3 1.17.62 1.25.95-1.34 8.35-2 14.42-2 18.21v2.6c4.48 0 8.15-2.06 11.01-6.16 1.12-9.94 2.21-14.91 3.25-14.91h.26c1 .1 1.5.34 1.5.72-1.5 9.04-2.25 15.82-2.25 20.34V174c0 1.242-.5 2.11-1.51 2.602h-1l-.98-.95v-.477l.24-4.007c-.6 0-3.85 1.494-9.75 4.483l-1.76.48c-2-.25-3.01-1.12-3.01-2.6v-.23c1.22-16.56 2.64-24.83 4.26-24.83h.51zm30.89.05h.37c1.62.2 2.43.98 2.43 2.35v.48c0 2.37-.81 4.57-2.43 6.61h-.37c-.25-.07-.51-.46-.75-1.18l.95-3.53-.74-.47c-1.72.15-4.89 2.04-9.49 5.66v.23l12.27 2.37c1.24.99 1.86 2.64 1.86 4.96v1.41c0 3.18-2.04 5.93-6.13 8.26-1.61.63-3.16.95-4.66.95h-.39c-4.27 0-6.87-1.89-7.81-5.66v-1.42c0-1.73.44-2.6 1.3-2.6.86 3 2.41 4.5 4.66 4.5 0 .31.93.46 2.8.46 2.75 0 5.42-1.41 7.99-4.23 0-1.87-3.97-3.06-11.9-3.55-2.86-.79-4.29-1.97-4.29-3.53 0-3.83 3.84-7.69 11.53-11.56l2.79-.47zm25.05 0c.81.18 1.22.79 1.22 1.85-.26 1.99-1.06 2.99-2.41 2.99-8.84 0-13.26 1.23-13.26 3.69l-.25 2.07v1.14c5.76-1.38 9.7-2.07 11.81-2.07h.47c.81.35 1.21 1.12 1.21 2.3 0 1.69-1.12 2.53-3.37 2.53-7.39.96-11.09 2.11-11.09 3.46l-.23 2.3v.91c0 1.38.88 2.15 2.64 2.3 2.77-.3 6.23-.99 10.37-2.07h.72c.64.25.97.78.97 1.62v.69c0 1.89-4.02 3.35-12.06 4.38h-.72c-2.89 0-4.5-1.84-4.82-5.52 0-2.71.56-7.85 1.69-15.44l-.47-1.39c0-3.12 4.81-4.96 14.45-5.52l3.12-.23zm17.95 0c.79 0 1.18 2.72 1.18 8.16l1.58 10.33h.39c0-.6 1.57-3.8 4.73-9.62.49-3.83 1.41-5.74 2.76-5.74h.38c.8 0 1.46 2.95 1.97 8.87.88 4.04 1.54 6.44 1.97 7.2.42-2.04 2.53-8.04 6.31-18.02.55-.63 1.08-.95 1.59-.95.7 0 1.16.32 1.37.95 0 .82-1.97 6.19-5.91 16.09-.65 2.35-1.24 5.55-1.77 9.62-.42.8-.95 1.19-1.58 1.19-1.19 0-2.11-2.72-2.74-8.16-1.29-5.31-2.08-8.19-2.37-8.65l-3.94 7.68c-.65 1.5-1.24 4.06-1.77 7.68-.35.59-.87.99-1.56 1.2-1.1 0-2.02-4.16-2.76-12.48-1.06-5.88-1.58-10.6-1.58-14.17 0-.48.6-.88 1.78-1.19zm35.07 0h.84c1.16 0 2.63 5.36 4.41 16.08 1.4 5.07 2.11 8.51 2.11 10.32-.3.96-.86 1.44-1.69 1.44-1.08 0-1.85-2.56-2.32-7.68l-.21-.23h-.21c-1.83.03-5.69 1.15-11.57 3.36-.57 3.2-1.48 4.8-2.75 4.8-.84-.33-1.26-.97-1.26-1.91 0-1.85 3.86-10.33 11.59-25.45l1.05-.72zm-.42 6.71c-1.69 3.05-3.24 6.25-4.64 9.62h1.47c1.43 0 3.26-.32 5.49-.96l-1.9-8.65h-.42zm24.48-6.71h.37c1.62.2 2.43.99 2.43 2.36v.48c0 2.37-.81 4.57-2.42 6.61h-.37c-.25-.07-.51-.46-.75-1.18l.95-3.53-.74-.48c-1.72.15-4.88 2.04-9.49 5.66v.23l12.27 2.37c1.25.98 1.87 2.64 1.87 4.96v1.4c0 3.17-2.05 5.93-6.14 8.26-1.6.63-3.15.95-4.65.95h-.39c-4.27 0-6.87-1.89-7.8-5.66v-1.42c0-1.73.43-2.6 1.3-2.6.85 3 2.41 4.5 4.66 4.5 0 .3.93.46 2.79.46 2.76 0 5.42-1.41 8-4.24 0-1.87-3.96-3.06-11.9-3.55-2.86-.79-4.29-1.97-4.29-3.53 0-3.83 3.85-7.69 11.53-11.57l2.8-.47zm36.8 0h2.27c1.01.64 1.51 1.34 1.51 2.13-.27 1.89-1.11 2.83-2.51 2.83-4.04 0-7.99.39-11.83 1.18l-.49 5.2 1.25.23h1c2.98 0 6.42-.47 10.32-1.42l.76 1.43c-.37 2.83-1.54 4.25-3.51 4.25-1.22.62-4.65 1.09-10.31 1.41-.4 7.09-1.07 10.63-2.02 10.63l-1 .23h-.24c-.42 0-.68-.31-.76-.95 0-3.85.67-10.93 2.01-21.23l-.73-.72c0-2.38 1.68-3.79 5.03-4.23 3.37-.64 6.47-.95 9.3-.95zm9-.05c.75.31 1.17.62 1.25.95-1.34 8.36-2 14.43-2 18.21v2.6c4.48 0 8.15-2.05 11.01-6.15 1.12-9.94 2.21-14.91 3.25-14.91h.26c1 .1 1.5.34 1.5.72-1.5 9.04-2.25 15.82-2.25 20.34V174c0 1.242-.5 2.11-1.51 2.602h-1l-.98-.95v-.476l.24-4.007c-.6 0-3.85 1.49-9.76 4.48l-1.76.47c-2-.26-3-1.13-3-2.6v-.23c1.22-16.56 2.64-24.84 4.25-24.84h.51zm19.6 0h.25c.76 0 1.4.39 1.92 1.18-1.12 8.11-1.91 15.36-2.39 21.76l13.71-2.83.47.7v1.43c0 2.16-4.97 4.13-14.9 5.91-1.77-.31-2.65-.86-2.65-1.65 1.31-17.34 2.27-26.02 2.88-26.02l.72-.47zm18.16 0h.25c.77 0 1.4.39 1.92 1.18-1.11 8.11-1.91 15.36-2.39 21.76l13.71-2.83.48.7v1.43c0 2.16-4.97 4.13-14.9 5.91-1.77-.31-2.65-.86-2.65-1.65 1.31-17.34 2.27-26.01 2.88-26.01l.72-.47zm40.34.05h.84c1.16 0 2.63 5.36 4.41 16.09 1.41 5.07 2.11 8.51 2.11 10.32-.29.96-.85 1.44-1.69 1.44-1.08 0-1.85-2.56-2.32-7.68l-.21-.23h-.21c-1.83.03-5.68 1.15-11.57 3.36-.56 3.2-1.47 4.8-2.74 4.8-.84-.33-1.26-.97-1.26-1.91 0-1.85 3.86-10.33 11.58-25.45l1.06-.72zm-.42 6.72c-1.69 3.05-3.23 6.25-4.64 9.61h1.48c1.43 0 3.26-.32 5.49-.97l-1.9-8.65h-.43zm13.45-6.77c1.07 0 2.34 2.01 3.83 6.01 2.88 5.91 6.09 10.96 9.61 15.15 1.19-11.56 2.06-18.38 2.64-20.44l.97-.72h.72c.48 0 .72.32.72.97-1.44 16.53-2.32 25.34-2.64 26.46l-1.44.48c-2.57 0-6.9-5.45-12.98-16.35l-.96-.96-.25.72-.72 11.08v1.44l.24 1.44c-.21 1.93-.85 2.89-1.91 2.89-.98-.35-1.55-.83-1.69-1.44 1.23-17.32 2.11-25.98 2.64-25.98l1.21-.72zm29.29 0h1.07c5.1 0 8.22 2.02 9.37 6.07l.21 1.93c0 8.05-5.97 14.69-17.9 19.9l-1.05.25H785c-.32 0-.6-.57-.84-1.7l2.13-20.86c-.86 0-1.29-.24-1.29-.72v-.49c0-2.57 1.14-3.86 3.41-3.86l5.12-.49zm-4.26 5.1c-1.28 8.3-1.92 13.87-1.92 16.73v1.21c8.94-4.46 13.41-8.67 13.41-12.62v-.23c0-2.27-.64-3.41-1.92-3.41-1.58-1.12-4.14-1.68-7.67-1.68h-1.91zm48.64-5.05c.81.17 1.21.79 1.21 1.84-.26 2-1.06 2.99-2.41 2.99-8.83 0-13.25 1.23-13.25 3.69l-.24 2.08v1.15c5.76-1.38 9.7-2.07 11.81-2.07h.47c.81.35 1.21 1.12 1.21 2.3 0 1.68-1.12 2.53-3.37 2.53-7.4.96-11.09 2.11-11.09 3.46l-.23 2.3v.92c0 1.38.88 2.15 2.64 2.3 2.77-.3 6.22-.99 10.37-2.07h.72c.65.25.97.79.97 1.62v.69c0 1.89-4.02 3.35-12.06 4.38h-.72c-2.89 0-4.5-1.84-4.814-5.52 0-2.71.56-7.85 1.684-15.43l-.47-1.39c0-3.11 4.82-4.95 14.45-5.52l3.13-.23zm20.65-.05h.7c.64.26.95.82.95 1.69 0 1.17-2.45 6.22-7.34 15.15-2.4 6.69-3.9 10.3-4.5 10.83l-2.36.47c-1.03 0-1.74-1.84-2.14-5.53-3.15-11.12-4.73-17.94-4.73-20.44.26-.73.73-1.29 1.42-1.69h.95c.85 0 1.72 3.37 2.6 10.1l2.85 10.58h.23c1.64-4.34 5.2-11.23 10.66-20.69l.72-.48zm20.45.05c.81.18 1.21.79 1.21 1.85-.26 1.99-1.06 2.99-2.41 2.99-8.83 0-13.25 1.23-13.25 3.69l-.25 2.08v1.14c5.76-1.38 9.7-2.07 11.81-2.07h.48c.81.35 1.21 1.12 1.21 2.3 0 1.69-1.12 2.54-3.37 2.54-7.39.96-11.09 2.11-11.09 3.46l-.23 2.3v.91c0 1.38.88 2.15 2.64 2.3 2.77-.3 6.22-.99 10.37-2.07h.72c.65.246.97.785.97 1.617v.69c0 1.89-4.02 3.343-12.06 4.38H865c-2.892 0-4.5-1.84-4.813-5.52 0-2.71.56-7.85 1.684-15.44l-.47-1.39c0-3.11 4.82-4.95 14.45-5.52l3.13-.23zm14.31-.05h2.42c3.72 0 5.57 1.3 5.57 3.89v.24c0 4.53-3.87 8.66-11.63 12.37v.23c3.88 3.56 7.12 6.23 9.71 8.02v.72c0 1.25-.402 2.06-1.21 2.42h-.965l-13.33-9.46-.25 4.85v3.64c-.41.81-1.05 1.21-1.93 1.21-.646 0-1.13-.32-1.46-.97v-1.46l2.18-18.93c-.64 0-.967-.48-.967-1.44 0-2.92 2.42-4.62 7.26-5.1l4.6-.24zm-8.48 13.09h.25c8.39-2.15 12.59-4.5 12.59-7.03v-.24c0-.45-.81-.77-2.43-.97-2.69 0-5.91.57-9.69 1.71l-.72 6.54zm18.62-13.04l5.38 8.16 2.36 1.94c2.976-5.29 5.05-8.5 6.22-9.61h1.07l.86.97c-.113.858-3.48 6.858-10.085 18-1.67 3.13-2.88 5.93-3.66 8.4l-.63.25c-1.01-.47-1.51-1.19-1.51-2.16.06-1.253 1.77-5.173 5.15-11.76-4.87-5.23-7.3-9.47-7.3-12.73.9-.96 1.62-1.44 2.14-1.44zm39.75 0c4.745 0 7.12 1.62 7.12 4.85v.72c0 2.26-1.074 4.44-3.22 6.54v.24c3.528 1.07 5.29 2.84 5.29 5.33v.97c0 4.06-3.983 7.04-11.952 8.95l-3.92.5h-2.29c-1.23 0-1.85-.64-1.85-1.93v-.24l1.85-19.86c-.77 0-1.16-.16-1.16-.48v-1.46c0-2.74 3.38-4.11 10.13-4.11zm-6.68 10.9h.245c7.19 0 10.79-1.62 10.79-4.85-1.18-.8-3.18-1.2-5.98-1.2h-2.76c-1.22 0-1.83.56-1.83 1.69l-.474 4.36zM936 164l-.458 7.736 2.302.492.227-.246h1.15c6.45-.842 9.67-2.372 9.67-4.587-2.12-2.26-5.42-3.392-9.89-3.392h-.91l-.22-.245-.23.246H936zm36.333-15.502c.81.176 1.213.79 1.213 1.846-.258 1.992-1.06 2.988-2.408 2.988-8.836 0-13.254 1.23-13.254 3.69l-.245 2.077v1.14c5.76-1.39 9.7-2.08 11.81-2.08h.47c.81.35 1.21 1.12 1.21 2.3 0 1.68-1.13 2.53-3.38 2.53-7.4.96-11.1 2.11-11.1 3.46l-.23 2.3v.91c0 1.38.88 2.15 2.63 2.3 2.76-.31 6.22-1 10.37-2.08h.72c.64.24.96.78.96 1.61v.69c0 1.89-4.02 3.35-12.06 4.38h-.72c-2.9 0-4.5-1.84-4.82-5.52 0-2.71.56-7.85 1.69-15.43l-.48-1.39c0-3.12 4.81-4.96 14.45-5.52l3.13-.23zm10.6-.053H984c5.097 0 8.22 2.022 9.368 6.065l.21 1.932c0 8.05-5.964 14.684-17.893 19.9l-1.055.245h-.23c-.315 0-.596-.57-.842-1.705l2.127-20.865c-.856 0-1.284-.24-1.284-.72v-.493c0-2.578 1.14-3.868 3.42-3.868l5.12-.493zm-4.254 5.098c-1.28 8.297-1.92 13.875-1.92 16.734v1.212c8.94-4.47 13.41-8.68 13.41-12.62v-.23c0-2.28-.64-3.41-1.92-3.41-1.58-1.13-4.14-1.69-7.67-1.69h-1.92zm31.62-5.045c.78 0 1.17 2.72 1.17 8.156l1.58 10.336h.38c0-.598 1.57-3.804 4.73-9.616.49-3.832 1.41-5.748 2.76-5.748h.38c.79 0 1.45 2.958 1.97 8.876.88 4.043 1.53 6.445 1.97 7.207.42-2.04 2.52-8.05 6.31-18.02.55-.64 1.08-.95 1.58-.95.7 0 1.16.31 1.37.95 0 .82-1.97 6.18-5.91 16.08-.66 2.34-1.25 5.55-1.78 9.61-.43.79-.95 1.19-1.59 1.19-1.2 0-2.11-2.72-2.74-8.16-1.29-5.31-2.08-8.2-2.37-8.65l-3.94 7.68c-.66 1.5-1.25 4.06-1.78 7.68-.36.58-.88.98-1.57 1.19-1.1 0-2.02-4.16-2.76-12.48-1.06-5.89-1.58-10.61-1.58-14.17 0-.48.59-.88 1.77-1.2zm35.06 0h.84c1.16 0 2.63 5.36 4.41 16.084 1.4 5.064 2.11 8.503 2.11 10.32-.3.96-.86 1.44-1.69 1.44-1.08 0-1.86-2.56-2.32-7.68l-.21-.23h-.22c-1.83.024-5.68 1.143-11.57 3.358-.57 3.2-1.48 4.8-2.75 4.8-.85-.328-1.27-.967-1.27-1.916 0-1.852 3.86-10.336 11.58-25.453l1.05-.72zm-.43 6.715c-1.69 3.047-3.24 6.252-4.64 9.615h1.47c1.43 0 3.26-.322 5.48-.967l-1.9-8.64h-.42zm24.48-6.715h.37c1.61.2 2.42.984 2.42 2.355v.475c0 2.367-.81 4.57-2.43 6.61h-.37c-.26-.07-.51-.463-.76-1.178l.95-3.534-.74-.476c-1.72.152-4.89 2.04-9.49 5.66v.23l12.27 2.372c1.24.984 1.86 2.636 1.86 4.957v1.4c0 3.17-2.05 5.93-6.14 8.26-1.61.63-3.16.95-4.66.95h-.39c-4.27 0-6.87-1.89-7.81-5.66v-1.42c0-1.74.43-2.6 1.3-2.6.85 3 2.41 4.5 4.66 4.5 0 .3.93.45 2.79.45 2.75 0 5.42-1.41 8-4.24 0-1.87-3.97-3.06-11.9-3.55-2.86-.8-4.29-1.97-4.29-3.53 0-3.83 3.84-7.69 11.53-11.57l2.79-.48zm40.71-.07c1.52 0 2.28.632 2.28 1.898v.475c0 1.75-1.36 2.62-4.08 2.62l-5.08.25c-1.53 8.12-2.29 15.11-2.29 20.96-.41 1.27-.83 1.9-1.27 1.9h-.78c-.88 0-1.39-.24-1.53-.72.86-8.99 1.79-16.29 2.8-21.9l-7.63 1.2c-.71 0-1.14-.71-1.27-2.14 0-2.38 2.12-3.57 6.36-3.57 2.54-.63 6.69-.95 12.46-.95zm12.41.07h.84c1.16 0 2.63 5.36 4.41 16.084 1.4 5.064 2.11 8.503 2.11 10.32-.3.96-.86 1.44-1.69 1.44-1.08 0-1.86-2.56-2.32-7.68l-.22-.23h-.21c-1.83.024-5.69 1.143-11.57 3.358-.56 3.2-1.48 4.8-2.74 4.8-.85-.328-1.27-.967-1.27-1.916 0-1.852 3.86-10.336 11.58-25.453l1.05-.72zm-.42 6.715c-1.69 3.047-3.24 6.252-4.64 9.615h1.47c1.43 0 3.26-.322 5.48-.967l-1.9-8.64h-.42zm14.8-6.61l.7.967-.71 9.14 14.34-7.945c.62.773.93 1.734.93 2.882-1.62 2.274-5.77 5.162-12.47 8.666v.246c3.09 4.02 6.62 7.38 10.58 10.09v.49c0 2.24-.78 3.35-2.35 3.35l-11.74-9.62c-.47 6.41-.94 9.61-1.41 9.61l-1.18.24c-.79-.26-1.18-.74-1.18-1.44l.93-11.3-.23-2.88c.54 0 1.01-3.53 1.4-10.6.64-1.28 1.43-1.92 2.36-1.92zm34.06-.105c.81.176 1.21.79 1.21 1.846-.26 1.992-1.06 2.988-2.41 2.988-8.84 0-13.25 1.23-13.25 3.69l-.25 2.077v1.14c5.76-1.39 9.7-2.08 11.81-2.08h.47c.81.35 1.21 1.12 1.21 2.3 0 1.68-1.13 2.53-3.38 2.53-7.4.96-11.09 2.11-11.09 3.46l-.23 2.3v.91c0 1.38.88 2.15 2.64 2.3 2.77-.31 6.22-1 10.37-2.08h.72c.64.24.97.78.97 1.61v.69c0 1.89-4.02 3.35-12.06 4.38h-.72c-2.9 0-4.5-1.84-4.82-5.52 0-2.71.56-7.85 1.68-15.43l-.48-1.39c0-3.12 4.81-4.96 14.45-5.52l3.13-.23zm5.08-.053c1.06 0 2.34 2.004 3.83 6.012 2.88 5.905 6.08 10.956 9.61 15.15 1.18-11.565 2.06-18.38 2.64-20.442l.96-.72h.72c.48 0 .72.322.72.966-1.44 16.53-2.32 25.35-2.64 26.46l-1.44.48c-2.57 0-6.89-5.45-12.98-16.35l-.97-.96-.25.72-.72 11.08v1.44l.24 1.44c-.21 1.93-.85 2.89-1.92 2.89-.99-.35-1.55-.83-1.69-1.44 1.23-17.32 2.11-25.98 2.63-25.98l1.21-.72zm31.55-4.412c.7.328 1.05.72 1.05 1.178-3.34 10.76-5.01 17.58-5.01 20.45-.95 1.1-1.75 1.66-2.39 1.66-1.06-.37-1.58-.84-1.58-1.41 1.66-14.58 3.86-21.86 6.61-21.86h1.32zm-6.24 26.385c1.66.316 2.49 1.184 2.49 2.6v.23c-.67 2.227-2.27 3.34-4.8 3.34-1.26 0-2.01-.867-2.27-2.602 0-2.004 1.52-3.193 4.57-3.568z" fill="#000"/><path d="M44.587 764.77c.184-.336.402-.724.657-1.175 1.496-2.643 3.1-4.8 6.55-8.807 1.342-1.56 3.4-4.15 4.573-5.756 1.172-1.607 2.3-2.927 2.502-2.934.2-.007.5.71.67 1.592.17.882.54 1.673.83 1.756.58.17.78 1.537.52 3.697-.14 1.15-.01 1.514.61 1.796.74.33.74.44.03 2.06-.42.93-.88 2-1.04 2.36-.2.45-.07.72.41.86.62.19.62.42-.04 2.42l-.7 2.12h-15.6zm15.724 0l.95-.598c1.95-1.233 3.76-3.928 4.68-6.958 1.11-3.648.77-6.192-1.27-9.315-.8-1.23-1.34-2.32-1.21-2.44.32-.28 1.68.58 3.26 2.05 1.09 1.01 1.3 1.11 1.62.7.56-.73.92-.44 2.29 1.85 1.12 1.87 1.34 2.07 1.78 1.64.73-.7 1.04-.51 2.16 1.29.55.87 1.11 1.62 1.25 1.66.5.14.35-1.98-.29-4.05-1.33-4.32-4.28-7.37-8.59-8.9-2.81-1-3.32-1.59-1.19-1.38.71.07 1.42.01 1.59-.14.17-.15.76-.3 1.32-.34 1.53-.12.62-.89-1.9-1.62-2.61-.76-4.8-.49-6.78.84l-1.49 1-.69-1.19c-1.47-2.53-4.72-4.12-7.6-3.73-1.26.17-1.36.25-.74.55.4.19.84.63.99.96.15.33.8.76 1.44.95.7.2 1.37.69 1.65 1.19.47.84.45.85-1.4.57-2.21-.34-4.03-.19-6.13.49l-1.54.5-1.42-2.63c-.83-1.54-2.21-3.39-3.33-4.44-1.74-1.64-2.24-1.9-5.62-3.03-2.56-.85-3.64-1.34-3.47-1.58.38-.54 2.75-.85 5.1-.65 2.2.18 2.46.07 1.97-.81-.52-.95.35-.92 3.66.12 3.21 1 3.69 1 3.12-.02-.44-.8.84-.78 3.56.04 1.53.46 2.34.57 2.33.3-.01-.23-1.04-1.2-2.29-2.17-2.09-1.63-2.63-1.88-6.62-3.04-4.14-1.22-4.46-1.26-6.91-.88-1.41.22-3.52.83-4.68 1.35-1.9.86-2.78.88-2.54.07.05-.17.67-.68 1.38-1.14.7-.47 1.32-1.14 1.36-1.49.09-.75 1.65-2.04 2.26-1.88.23.06.56-.02.73-.17.21-.19-.01-.26-.66-.21-2.2.17-4.09.7-5.66 1.6-2.6 1.49-3.55 2.66-4.29 5.26l-.64 2.27-2.3-.67c-2.8-.82-4.5-.66-7.27.68-1.76.85-4.88 3.62-4.61 4.1.05.08.72-.2 1.5-.62 1.04-.56 1.61-.65 2.13-.35.5.29 1.08.22 1.97-.23.78-.4 1.69-.54 2.38-.37.62.15 1.55.27 2.07.27.7-.01.3.3-1.57 1.19-6.28 3-9.38 9.62-8 17.1.79 4.3 1.44 4.87 1.73 1.52.1-1.12.41-2.42.69-2.88.43-.72.63-.78 1.34-.36.8.47.84.44.94-.72.05-.66.3-2.22.54-3.45l.43-2.25.98.53c.98.53.98.53 1.72-1.26 1.02-2.46 2.39-4.06 3.26-3.8.49.14 1.2-.3 2.42-1.54.95-.96 1.94-1.68 2.19-1.6 1.03.3 1.44 6.13 1.14 16.46-.23 8.18-.12 12.24.43 14.66.09.38.14.74.17 1.03H0V927.1h1539.984V752.7h-28.574v-19.55h-28.574V709.1h-16.543v33.09h-10.527v-10.52h-24.062v-7.52h-19.55V703.1h-27.07v49.63h-9.024v-25.56h-40.605v9.03h-9.024s-1-45.11-43.65-45.11c-42.64 0-46.58 46.62-46.58 46.62v10.53h-36.09v24.06h-21.05v-24.07h-30.07v28.58h-16.54v-19.55h-19.55v28.58h-15.04v-21.06h-42.11v-52.64h-19.55v42.11h-19.55V737.7h-24.2s-.98-42.11-45.91-42.11-47.19 42.11-47.19 42.11h-28.58v33.085H849.7v-34.59h-31.582V698.6h-31.58v-54.14h-31.583v-30.08H714.35v30.08h-31.582v94.744H622.61v-34.59h-42.108S577.778 611 486.552 611c-91.225 0-97.044 93.614-97.044 93.614h-40.605v28.574H320.33v-21.054h-36.095v21.054h-19.55v-1.504s-4.104-45.116-47.79-45.116c-43.685 0-45.452 45.116-45.452 45.116v1.504h-18.046l-12.03-13.535h-42.11l-15.04 16.543v28.574H60.312zm-19.24 0l.11-.202c1.41-2.647 2.58-4.063 8.71-10.6 5.25-5.59 7.78-8.79 7.45-9.387-.09-.17-1.01-.26-2.03-.2-1.04.06-2.21-.09-2.65-.35-.6-.35-1.32-.26-3.06.39-1.73.64-2.36.72-2.62.34-.25-.37-.53-.43-1.04-.21-.7.3-.96 1.23-1.23 4.37-.13 1.52-.78 1.39-1.1-.22-.12-.65-.51-1.26-.85-1.36-.34-.1-.76-.43-.93-.74-.26-.45-.71-.31-2.36.71-2.19 1.36-2.33 1.14-.84-1.36 1.09-1.82 1.11-2.89.08-5.01-.89-1.83-1.36-2.23-1.61-1.39-.25.84-.77.44-2.31-1.78-1.58-2.28-2.87-3.28-3.51-2.71-.3.27-.85 0-2.34-1.16-1.07-.83-2.07-1.48-2.23-1.43-.16.04-.06 1.61.22 3.49.28 1.88.66 6.89.84 11.15.34 8.08 1.05 13.56 2.14 16.57.18.49.32.86.5 1.15h10.7z" fill="#F6A623"/><path d="M295.804 609.015L223.648 676.3l9.85-71.602c-48.76-13.128-83.656-48.287-83.656-89.597 0-52.52 56.412-95.1 126-95.1s126 42.58 126 95.1c0 47.4-45.936 86.7-106.038 93.92zm715.612-134.14l33.39 229.426L910.04 494.79c-4.03.14-8.09.21-12.18.21-112.666 0-204-53.278-204-119 0-65.722 91.334-119 204-119 112.667 0 204 53.278 204 119 0 41.203-35.897 77.515-90.444 98.874zM599.576 570.1l74.76 160.66-107.38-155.275c-4.63.34-9.34.513-14.12.513-65.446 0-118.5-32.683-118.5-73s53.054-73 118.5-73 118.5 32.683 118.5 73c0 30.09-29.555 55.93-71.76 67.102z" stroke="#000" stroke-width="4" fill="#FFF"/><path d="M1379.126 637.6l72.692 77.953-125.376-62.335c-19.638 3.797-40.63 5.852-62.442 5.852-109.905 0-199-52.174-199-116.535 0-64.36 89.095-116.535 199-116.535s199 52.175 199 116.535c0 39.24-33.116 73.948-83.874 95.065z" stroke="#000" stroke-width="4" fill="#FFF"/><path d="M245.613 463.547c1.735 0 3.813 3.094 6.235 9.28 4.672 9.11 9.867 16.907 15.586 23.392 1.92-17.86 3.35-28.38 4.29-31.55l1.546-1.13h1.17c.783 0 1.173.49 1.173 1.47-2.343 25.53-3.773 39.15-4.29 40.85l-2.343.75c-4.14 0-11.148-8.42-21.023-25.25l-1.57-1.5-.375 1.12-1.172 17.08v2.22l.375 2.22c-.344 2.97-1.383 4.45-3.117 4.45-1.578-.55-2.485-1.29-2.72-2.23 2-26.74 3.43-40.1 4.29-40.1l1.945-1.13zm56.297 0c8.156 1.062 12.235 5.68 12.235 13.85 0 10.72-4.47 19.587-13.407 26.603-3.687 2-6.984 3-9.89 3-7.094 0-11.664-3.625-13.71-10.875l-.283-3.352v-1.125c0-11.703 5.633-20.57 16.9-26.6 2.843-1 5.56-1.5 8.155-1.5zm-21.258 29.226c2.938 4.235 6.82 6.352 11.65 6.352 7.764 0 13.202-4.367 16.31-13.102l.587-4.125c0-6.156-3.21-9.773-9.61-10.85h-.89c-5.3 0-10.83 4.99-16.6 14.975-.97 3-1.46 5.25-1.46 6.75zm-69.574 22.774h3.984c6.11 0 9.165 2 9.165 6v.375c0 7-6.375 13.367-19.125 19.1v.376c6.375 5.485 11.687 9.602 15.937 12.352v1.125c0 1.938-.67 3.187-2 3.75h-1.6l-21.92-14.602-.4 7.477v5.625c-.69 1.25-1.75 1.875-3.19 1.875-1.06 0-1.86-.5-2.39-1.5v-2.25l3.58-29.203c-1.06 0-1.6-.75-1.6-2.25 0-4.516 3.98-7.14 11.95-7.875l7.57-.375zm-13.945 20.226h.398c13.82-3.328 20.72-6.945 20.72-10.85v-.376c0-.703-1.32-1.203-3.98-1.5-4.42 0-9.73.875-15.94 2.625l-1.19 10.1zm52.148-20.226c8.16 1.062 12.24 5.68 12.24 13.85 0 10.72-4.47 19.587-13.4 26.603-3.68 2-6.98 3-9.89 3-7.09 0-11.66-3.625-13.71-10.875l-.28-3.352v-1.125c0-11.703 5.63-20.57 16.9-26.6 2.85-1 5.56-1.5 8.16-1.5zm-21.25 29.226c2.94 4.235 6.82 6.352 11.65 6.352 7.77 0 13.2-4.367 16.31-13.102l.59-4.125c0-6.156-3.2-9.773-9.61-10.85h-.89c-5.29 0-10.82 4.99-16.59 14.975-.97 3-1.45 5.25-1.45 6.75zm60.03-29.226c8.16 1.062 12.24 5.68 12.24 13.85 0 10.72-4.46 19.587-13.4 26.603-3.69 2-6.98 3-9.89 3-7.09 0-11.66-3.625-13.71-10.875l-.28-3.352v-1.125c0-11.703 5.64-20.57 16.9-26.6 2.85-1 5.57-1.5 8.16-1.5zm-21.26 29.226c2.94 4.235 6.82 6.352 11.65 6.352 7.77 0 13.21-4.367 16.31-13.102l.59-4.125c0-6.156-3.2-9.773-9.61-10.85h-.89c-5.29 0-10.83 4.99-16.59 14.975-.97 3-1.45 5.25-1.45 6.75zm51.59-29.132h.71c1.16.64 1.74 1.63 1.74 2.96v.75c0 8.02.69 17.41 2.06 28.17h.36c7.63-20.26 12.12-30.4 13.48-30.4h1.03c1.02 0 2.63 7.05 4.83 21.14 2.08 7.22 3.12 13.27 3.12 18.14-.67 1.74-1.71 2.6-3.11 2.6-.92 0-2.19-6.05-3.8-18.16l-2.8-11.86c-1.98 3.24-5.55 11.63-10.71 25.2-1.48 1.53-2.75 2.4-3.79 2.6-3 0-4.5-4.07-4.5-12.23l-1.71-15.57h-.35l-10.36 23.72c-.62 3.96-1.2 5.93-1.73 5.93h-1.38l-1.38-1.47v-1.85c0-3.33 2.89-10.49 8.65-21.49 4.1-11.54 6.74-17.47 7.95-17.79l1.71-.37zm45.66-.04c.94.44 1.41.96 1.41 1.57-4.45 14.35-6.68 23.43-6.68 27.26-1.26 1.47-2.33 2.21-3.19 2.21-1.4-.5-2.11-1.12-2.11-1.87 2.22-19.43 5.16-29.15 8.82-29.15h1.76zm-8.32 35.18c2.22.42 3.33 1.58 3.33 3.47v.31c-.89 2.97-3.02 4.46-6.4 4.46-1.67 0-2.68-1.15-3.02-3.47 0-2.67 2.03-4.25 6.1-4.75zm429.82-204.71h.47c3.86 0 6.44 3.14 7.75 9.41l-.91 1h-.47l-3.65-1c-10.02 1.23-20.51 7.01-31.47 17.34-3.04 4.48-4.56 7.62-4.56 9.41v1.97c0 5.29 6.54 8.6 19.63 9.91 8.2 0 14.43-3.64 18.68-10.91l-5.47-1.97c-2.02 0-7.64 1.98-16.87 5.94-.91-1.69-1.37-3.33-1.37-4.94v-.5c0-5.27 6.09-8.9 18.25-10.91h.91c7 0 10.5 3.8 10.5 11.4 0 7.84-7.75 14.76-23.25 20.78l-5.5 1c-9.83 0-16.52-3.47-20.06-10.4l-.91-6.44c0-14.93 9.27-27.64 27.82-38.12 4.66-1.98 8.16-2.96 10.5-2.96zm40.44 7.91c8.9 1.23 13.35 6.55 13.35 15.97 0 12.34-4.87 22.54-14.62 30.63-4.02 2.3-7.61 3.44-10.78 3.44-7.73 0-12.71-4.16-14.94-12.5l-.31-3.87v-1.31c0-13.46 6.15-23.66 18.44-30.62 3.09-1.14 6.04-1.72 8.88-1.72zm-23.18 33.65c3.21 4.88 7.45 7.32 12.72 7.32 8.48 0 14.41-5.03 17.78-15.09l.63-4.75c0-7.08-3.49-11.25-10.47-12.5h-.97c-5.77 0-11.8 5.75-18.09 17.25-1.06 3.46-1.59 6.05-1.59 7.78zM894.64 346h1.97c2.73 0 6.176 11.073 10.343 33.22 3.292 10.457 4.938 17.56 4.938 21.31-.68 1.98-2 2.97-3.93 2.97-2.52 0-4.33-5.28-5.43-15.844l-.47-.5h-.5c-4.29.042-13.32 2.354-27.09 6.938-1.29 6.604-3.42 9.906-6.4 9.906-1.98-.688-2.97-2.01-2.97-3.97 0-3.81 9.03-21.322 27.1-52.53l2.47-1.5zm-.78 13.875c-3.96 6.292-7.574 12.906-10.844 19.844h3.437c3.354 0 7.625-.67 12.813-2l-4.438-17.85h-.97zm24-5.813c1.395 0 2.093 4.834 2.093 14.5l2.813 18.375h.687c0-1.062 2.802-6.76 8.406-17.093.87-6.813 2.51-10.22 4.9-10.22h.68c1.41 0 2.58 5.26 3.5 15.782 1.56 7.188 2.73 11.46 3.5 12.813.75-3.63 4.49-14.31 11.22-32.04.98-1.13 1.91-1.69 2.81-1.69 1.25 0 2.06.56 2.44 1.68 0 1.46-3.5 10.99-10.5 28.59-1.17 4.17-2.22 9.86-3.16 17.09-.75 1.41-1.69 2.12-2.82 2.12-2.13 0-3.75-4.84-4.88-14.5-2.29-9.44-3.7-14.57-4.22-15.38l-7 13.65c-1.17 2.67-2.22 7.22-3.16 13.66-.63 1.04-1.55 1.75-2.78 2.12-1.96 0-3.6-7.4-4.91-22.19-1.88-10.46-2.82-18.86-2.82-25.19 0-.86 1.05-1.56 3.16-2.13zm62.343 0h1.5c2.063 0 4.677 9.532 7.844 28.594 2.5 9 3.75 15.115 3.75 18.344-.52 1.708-1.52 2.563-3 2.563-1.917 0-3.292-4.553-4.125-13.657l-.375-.406h-.375c-3.25.042-10.104 2.03-20.563 5.97-1 5.686-2.63 8.53-4.88 8.53-1.5-.583-2.25-1.72-2.25-3.406 0-3.292 6.86-18.375 20.59-45.25l1.87-1.28zm-.75 11.938c-3 5.417-5.75 11.115-8.25 17.094h2.625c2.542 0 5.792-.573 9.75-1.72L980.203 366h-.75zm20.875-11.938l9.563 14.5 4.19 3.438c5.29-9.417 8.98-15.115 11.07-17.094h1.91l1.53 1.72c-.2 1.52-6.18 12.186-17.93 32-2.96 5.562-5.12 10.54-6.5 14.937l-1.12.437c-1.79-.833-2.69-2.115-2.69-3.844.11-2.23 3.16-9.198 9.16-20.906-8.64-9.292-12.97-16.833-12.97-22.625 1.61-1.708 2.88-2.563 3.81-2.563zm45.563-7.937c1.25.583 1.88 1.28 1.88 2.094-5.94 19.12-8.9 31.23-8.9 36.34-1.68 1.96-3.1 2.94-4.25 2.94-1.87-.67-2.81-1.5-2.81-2.5 2.96-25.92 6.88-38.88 11.75-38.88h2.35zm-11.09 46.905c2.96.565 4.44 2.106 4.44 4.627v.406c-1.18 3.96-4.03 5.938-8.53 5.938-2.23 0-3.57-1.54-4.03-4.62 0-3.56 2.71-5.67 8.13-6.34zm-553.85 77c.92 0 1.38 2.81 1.38 8.423l1.83 10.64h.46c0-.603 1.84-3.905 5.5-9.906.57-3.958 1.64-5.937 3.21-5.937h.46c.92 0 1.68 3.052 2.28 9.156 1.03 4.167 1.79 6.646 2.3 7.438.48-2.104 2.92-8.297 7.31-18.578.65-.657 1.26-.985 1.83-.985.82 0 1.36.33 1.61.99 0 .85-2.28 6.38-6.86 16.6-.77 2.41-1.46 5.71-2.06 9.91-.49.83-1.1 1.24-1.82 1.24-1.4 0-2.47-2.8-3.21-8.42-1.49-5.47-2.4-8.44-2.75-8.9l-4.58 7.92c-.76 1.54-1.44 4.18-2.06 7.92-.4.61-1.01 1.02-1.83 1.24-1.27 0-2.34-4.29-3.2-12.87-1.21-6.06-1.82-10.93-1.82-14.61 0-.49.69-.9 2.06-1.23zm42.74 4c.72.158 1.08.704 1.08 1.642-.23 1.77-.94 2.656-2.14 2.656-7.85 0-11.78 1.094-11.78 3.28l-.22 1.845v1.016c5.13-1.23 8.63-1.85 10.5-1.85h.42c.72.31 1.08.99 1.08 2.04 0 1.5-1 2.25-3 2.25-6.57.85-9.86 1.88-9.86 3.08l-.2 2.04v.81c0 1.23.78 1.91 2.35 2.04 2.46-.27 5.54-.89 9.22-1.85h.64c.58.22.86.7.86 1.44v.61c0 1.67-3.57 2.97-10.72 3.89h-.64c-2.57 0-4-1.64-4.28-4.91 0-2.41.5-6.98 1.5-13.72l-.42-1.24c0-2.77 4.28-4.41 12.85-4.91l2.79-.21zm6.17-3.983c1.22.48 1.83 1.14 1.83 1.984-.26 1.3-1.85 4.16-4.78 8.6h-1.14l-.9-.87v-.67l3.42-6.83c.23-1.47.76-2.2 1.58-2.2zm15 3.937h2.16c3.31 0 4.96 1.15 4.96 3.454v.218c0 4.032-3.44 7.698-10.34 11v.203c3.45 3.16 6.33 5.54 8.63 7.12v.64c0 1.11-.36 1.83-1.07 2.15h-.86l-11.84-8.41-.22 4.31v3.23c-.36.72-.94 1.08-1.72 1.08-.57 0-1-.29-1.29-.86v-1.3L535.2 480c-.57 0-.86-.43-.86-1.28 0-2.6 2.152-4.11 6.454-4.53l4.09-.22zm-7.53 11.64h.22c7.46-1.916 11.19-4 11.19-6.25v-.218c0-.396-.72-.682-2.15-.86-2.38 0-5.25.506-8.61 1.517l-.64 5.812zm31.35-11.593c.72.16 1.08.71 1.08 1.65-.23 1.77-.94 2.66-2.14 2.66-7.85 0-11.78 1.1-11.78 3.28l-.22 1.85v1.02c5.13-1.23 8.63-1.84 10.5-1.84h.42c.72.32 1.08 1 1.08 2.05 0 1.5-1 2.25-3 2.25-6.57.86-9.86 1.88-9.86 3.08l-.2 2.05v.81c0 1.23.78 1.91 2.35 2.05 2.46-.27 5.53-.88 9.22-1.84h.64c.57.22.86.7.86 1.44v.61c0 1.68-3.57 2.97-10.72 3.89h-.64c-2.57 0-4-1.63-4.28-4.9 0-2.41.5-6.98 1.5-13.72l-.42-1.23c0-2.77 4.28-4.41 12.85-4.91l2.78-.2zm24.02 0h.75c1.03 0 2.34 4.77 3.92 14.3 1.25 4.5 1.88 7.56 1.88 9.17-.26.86-.76 1.28-1.5 1.28-.96 0-1.64-2.27-2.06-6.82l-.19-.2h-.19c-1.62.02-5.05 1.02-10.28 2.99-.5 2.85-1.31 4.27-2.44 4.27-.75-.29-1.13-.86-1.13-1.7 0-1.64 3.44-9.18 10.3-22.62l.94-.64zm-.37 5.97c-1.5 2.71-2.87 5.56-4.12 8.55h1.31c1.27 0 2.9-.28 4.88-.86l-1.7-7.69h-.37zm11.74-6.01h.22c.68 0 1.25.35 1.71 1.05-.99 7.21-1.69 13.66-2.12 19.35l12.19-2.51.42.63v1.27c0 1.92-4.42 3.67-13.25 5.25-1.57-.28-2.36-.77-2.36-1.47 1.17-15.41 2.02-23.12 2.56-23.12l.64-.42zm16.14 0h.22c.68 0 1.25.35 1.71 1.05-.99 7.21-1.69 13.66-2.12 19.35l12.19-2.51.42.63v1.27c0 1.92-4.42 3.67-13.25 5.25-1.57-.28-2.36-.77-2.36-1.47 1.17-15.41 2.02-23.12 2.56-23.12l.64-.42zm-115.12 42.04h2.02c.9.57 1.35 1.2 1.35 1.9-.24 1.68-.98 2.52-2.23 2.52-3.6 0-7.1.35-10.52 1.05l-.43 4.63 1.11.2h.89c2.65 0 5.71-.42 9.17-1.27l.67 1.26c-.33 2.52-1.37 3.79-3.12 3.79-1.08.55-4.14.97-9.17 1.25-.35 6.3-.95 9.45-1.79 9.45l-.89.2h-.22c-.37 0-.6-.28-.67-.84 0-3.42.6-9.72 1.78-18.87l-.65-.64c0-2.12 1.49-3.37 4.47-3.77 2.99-.56 5.74-.84 8.27-.84zm8-.04c.67.27 1.04.55 1.11.85-1.18 7.43-1.78 12.83-1.78 16.19v2.32c3.98 0 7.24-1.82 9.78-5.47 1-8.83 1.97-13.25 2.89-13.25h.24c.89.1 1.33.31 1.33.64-1.33 8.04-2 14.07-2 18.08v3.36c0 1.1-.45 1.87-1.34 2.31h-.9l-.88-.84v-.42l.22-3.56c-.53 0-3.42 1.33-8.67 3.99l-1.56.42c-1.78-.23-2.67-1-2.67-2.31v-.2c1.08-14.72 2.34-22.08 3.78-22.08h.45zm17.43 0h.22c.68 0 1.25.35 1.7 1.05-.99 7.21-1.7 13.66-2.12 19.35l12.18-2.51.42.63v1.27c0 1.92-4.42 3.67-13.25 5.25-1.57-.28-2.36-.77-2.36-1.47 1.17-15.41 2.02-23.12 2.56-23.12l.64-.42zm16.14 0h.22c.68 0 1.25.35 1.71 1.05-.99 7.21-1.7 13.66-2.12 19.35l12.19-2.51.43.63v1.27c0 1.92-4.42 3.67-13.25 5.25-1.58-.28-2.36-.77-2.36-1.47 1.16-15.41 2.02-23.12 2.56-23.12l.64-.42zm30.86 0c.67.27 1.04.55 1.11.85-1.19 7.43-1.78 12.83-1.78 16.19v2.32c3.98 0 7.24-1.82 9.79-5.47 1-8.83 1.97-13.25 2.89-13.25h.24c.89.1 1.33.31 1.33.64-1.33 8.04-2 14.07-2 18.08v3.36c0 1.1-.45 1.87-1.34 2.31h-.89l-.87-.84v-.42l.22-3.56c-.53 0-3.42 1.33-8.67 3.99l-1.56.42c-1.78-.23-2.67-1-2.67-2.31v-.2c1.08-14.72 2.34-22.08 3.78-22.08h.45zm25.82 0c4.14 0 6.2 1.22 6.2 3.64 0 4.81-4.53 9.15-13.59 13.03-.67 0-1 .43-1 1.28-.1 4.71-.56 7.06-1.41 7.06h-1c-.27-.06-.53-.41-.79-1.06l1.8-17.53h-.2c-.53 0-.79-.64-.79-1.94 0-2.1 1.2-3.31 3.61-3.63l7.19-.86zm-8 12.41c4.57-1.19 8.04-3.19 10.41-5.98l.4-1.29v-.42l-1-.21h-1c-5.32.29-7.98.79-7.98 1.5l-.81 6.42zm24.55-16.32c.63.29.94.64.94 1.05-2.97 9.57-4.46 15.62-4.46 18.17-.85.98-1.55 1.47-2.13 1.47-.94-.33-1.4-.75-1.4-1.25 1.48-12.95 3.44-19.43 5.88-19.43h1.17zm-5.54 23.46c1.48.28 2.22 1.05 2.22 2.31v.21c-.59 1.98-2.01 2.97-4.26 2.97-1.11 0-1.78-.77-2.01-2.31 0-1.78 1.36-2.84 4.07-3.17zm524.07-48.48h.42c1.82.2 2.72 1.01 2.72 2.44v.49c0 2.44-.9 4.71-2.72 6.82h-.42c-.28-.07-.56-.48-.83-1.22l1.05-3.64-.84-.5c-1.92.16-5.49 2.1-10.68 5.84v.25l13.83 2.44c1.4 1.01 2.1 2.72 2.1 5.11v1.45c0 3.27-2.3 6.12-6.91 8.53-1.81.65-3.56.97-5.23.97h-.42c-4.81 0-7.74-1.94-8.79-5.84v-1.45c0-1.79.49-2.68 1.47-2.68.96 3.08 2.7 4.62 5.23 4.62 0 .33 1.05.49 3.14.49 3.1 0 6.1-1.46 9-4.38 0-1.92-4.47-3.14-13.41-3.65-3.21-.82-4.81-2.04-4.81-3.64 0-3.96 4.33-7.94 12.99-11.94l3.14-.48zm20.03 3.96c4.45.62 6.67 3.28 6.67 7.99 0 6.16-2.43 11.27-7.31 15.31-2.01 1.15-3.8 1.72-5.39 1.72-3.86 0-6.35-2.08-7.47-6.25l-.15-1.94v-.66c0-6.73 3.07-11.83 9.22-15.31 1.54-.57 3.02-.86 4.44-.86zm-11.59 16.83c1.61 2.44 3.72 3.66 6.36 3.66 4.24 0 7.2-2.52 8.89-7.55l.31-2.37c0-3.54-1.75-5.62-5.23-6.25h-.48c-2.88 0-5.9 2.88-9.04 8.63-.53 1.73-.8 3.03-.8 3.89zm30.89-16.83h2.16c3.3 0 4.95 1.15 4.95 3.46v.22c0 4.03-3.45 7.7-10.35 11v.2c3.45 3.17 6.32 5.54 8.62 7.13v.64c0 1.12-.36 1.83-1.08 2.16h-.86l-11.84-8.4-.22 4.31v3.24c-.36.72-.94 1.08-1.72 1.08-.57 0-1-.28-1.3-.86v-1.3l1.94-16.83c-.57 0-.86-.43-.86-1.28 0-2.6 2.15-4.11 6.45-4.53l4.09-.22zm-7.53 11.64h.22c7.46-1.91 11.19-4 11.19-6.25v-.21c0-.4-.72-.68-2.15-.86-2.38 0-5.25.5-8.61 1.52l-.64 5.81zm26.24-11.66h2.16c3.3 0 4.96 1.15 4.96 3.46v.22c0 4.03-3.44 7.7-10.34 11v.2c3.45 3.17 6.32 5.54 8.63 7.13v.64c0 1.11-.36 1.83-1.08 2.15h-.86l-11.84-8.4-.22 4.31v3.23c-.36.72-.93 1.07-1.72 1.07-.58 0-1.01-.28-1.3-.86v-1.29l1.93-16.83c-.57 0-.86-.42-.86-1.28 0-2.59 2.15-4.1 6.46-4.53l4.1-.22zm-7.53 11.64h.22c7.46-1.91 11.19-4 11.19-6.25v-.21c0-.4-.72-.68-2.15-.86-2.39 0-5.26.5-8.61 1.52l-.64 5.82zm16.55-11.59l4.78 7.25 2.1 1.72c2.65-4.7 4.49-7.55 5.53-8.54h.96l.77.86c-.1.76-3.09 6.09-8.97 16-1.48 2.78-2.56 5.27-3.25 7.47l-.56.22c-.89-.41-1.34-1.05-1.34-1.92.05-1.11 1.58-4.6 4.58-10.45-4.32-4.64-6.48-8.41-6.48-11.31.8-.85 1.44-1.28 1.91-1.28zm19.92 18.72c.67.2 1.15.56 1.46 1.08v.42c0 2.48-1.86 5.56-5.58 9.22l-.97.22h-.25c-.87 0-1.52-.36-1.93-1.08v-.22c2.92-3.23 4.38-6.08 4.38-8.56.89-.72 1.86-1.08 2.9-1.08zm34.1-18.78c1.35 0 2.03.56 2.03 1.69v.42c0 1.55-1.21 2.33-3.63 2.33l-4.52.22c-1.35 7.22-2.03 13.43-2.03 18.63-.36 1.12-.74 1.69-1.12 1.69h-.68c-.78 0-1.23-.22-1.36-.64.76-7.99 1.59-14.48 2.49-19.47l-6.78 1.06c-.64 0-1.01-.64-1.13-1.91 0-2.12 1.89-3.17 5.66-3.17 2.26-.57 5.96-.85 11.08-.85zm18.07.02c.74.2 1.11.7 1.11 1.52v.21c-1.04 15.39-1.78 23.08-2.22 23.08l-.23.22h-.65c-.77 0-1.29-.36-1.56-1.07.29-2.05.44-4.93.44-8.63h-.22l-9.34 2.16-.65.86v4.09c0 1.22-.45 2.08-1.34 2.59h-.44c-.83 0-1.36-.36-1.56-1.08 1.03-15.53 2.52-23.29 4.45-23.29h.44l.67.88c-1.04 5.16-1.57 8.97-1.57 11.42 6.82-.89 10.23-1.97 10.23-3.23l.89-9.06 1.56-.64zm19.22.05c.72.16 1.08.7 1.08 1.64-.23 1.77-.94 2.65-2.14 2.65-7.85 0-11.78 1.09-11.78 3.28l-.22 1.84v1.01c5.13-1.23 8.63-1.84 10.5-1.84h.42c.72.31 1.08 1 1.08 2.05 0 1.5-1 2.25-3 2.25-6.57.86-9.86 1.88-9.86 3.08l-.2 2.05v.82c0 1.23.78 1.91 2.35 2.04 2.46-.27 5.53-.88 9.22-1.84h.64c.57.22.86.7.86 1.44v.61c0 1.67-3.57 2.97-10.72 3.89h-.64c-2.57 0-4-1.64-4.28-4.91 0-2.41.5-6.98 1.5-13.72l-.42-1.24c0-2.77 4.28-4.4 12.84-4.9l2.78-.2zm12.72-.05h2.16c3.31 0 4.96 1.15 4.96 3.45v.22c0 4.03-3.44 7.7-10.34 11v.2c3.45 3.16 6.33 5.54 8.63 7.12v.64c0 1.12-.36 1.83-1.08 2.16h-.86l-11.84-8.4-.22 4.32v3.24c-.36.72-.93 1.08-1.72 1.08-.57 0-1-.28-1.29-.86v-1.29l1.94-16.83c-.57 0-.86-.43-.86-1.28 0-2.59 2.15-4.1 6.46-4.53l4.1-.22zm-7.53 11.64h.22c7.46-1.92 11.19-4 11.19-6.25v-.22c0-.4-.72-.68-2.15-.86-2.38 0-5.25.51-8.61 1.52l-.64 5.81zm31.35-11.6c.72.16 1.08.7 1.08 1.64-.23 1.77-.94 2.65-2.14 2.65-7.85 0-11.78 1.1-11.78 3.28l-.22 1.85v1.01c5.13-1.23 8.63-1.85 10.5-1.85h.42c.72.31 1.08 1 1.08 2.05 0 1.5-1 2.25-3 2.25-6.57.86-9.86 1.88-9.86 3.08l-.2 2.05v.81c0 1.23.78 1.91 2.34 2.05 2.46-.27 5.53-.88 9.22-1.84h.64c.58.22.86.7.86 1.44v.61c0 1.68-3.57 2.98-10.72 3.89h-.64c-2.57 0-4-1.63-4.28-4.9 0-2.41.5-6.98 1.5-13.72l-.42-1.23c0-2.77 4.28-4.4 12.85-4.9l2.78-.21zm6.17-3.98c1.22.48 1.83 1.14 1.83 1.98-.26 1.29-1.85 4.15-4.78 8.59h-1.14l-.9-.87v-.67l3.42-6.83c.23-1.47.76-2.2 1.58-2.2zm16.61 3.98h.33c1.44.17 2.16.87 2.16 2.09v.42c0 2.11-.72 4.07-2.16 5.88h-.33c-.23-.06-.45-.41-.67-1.05l.85-3.14-.65-.42c-1.53.14-4.34 1.81-8.44 5.03v.21l10.91 2.11c1.11.88 1.66 2.35 1.66 4.41v1.25c0 2.82-1.82 5.27-5.45 7.34-1.43.57-2.81.85-4.14.85h-.35c-3.79 0-6.1-1.68-6.94-5.03v-1.27c0-1.54.39-2.31 1.16-2.31.76 2.67 2.14 4 4.14 4 0 .27.83.41 2.49.41 2.45 0 4.82-1.26 7.11-3.77 0-1.66-3.52-2.71-10.58-3.15-2.54-.7-3.81-1.75-3.81-3.14 0-3.4 3.42-6.83 10.25-10.28l2.49-.42zm22.27-.05c.95 0 2.08 1.78 3.41 5.34 2.57 5.25 5.41 9.74 8.55 13.47 1.05-10.28 1.84-16.34 2.35-18.17l.86-.64h.64c.43 0 .64.29.64.86-1.28 14.69-2.06 22.53-2.34 23.52l-1.28.42c-2.28 0-6.13-4.84-11.53-14.53l-.86-.86-.22.64-.64 9.85v1.28l.22 1.29c-.19 1.71-.76 2.56-1.7 2.56-.88-.31-1.38-.74-1.5-1.28 1.09-15.39 1.87-23.09 2.34-23.09l1.08-.64zm31.36 0c4.45.61 6.67 3.28 6.67 7.98 0 6.17-2.43 11.27-7.31 15.31-2.01 1.15-3.81 1.72-5.39 1.72-3.87 0-6.35-2.08-7.47-6.25l-.16-1.94v-.65c0-6.73 3.08-11.83 9.22-15.31 1.54-.57 3.02-.86 4.44-.86zm-11.59 16.83c1.61 2.44 3.73 3.65 6.36 3.65 4.24 0 7.21-2.52 8.89-7.55l.32-2.37c0-3.54-1.74-5.62-5.23-6.25h-.49c-2.89 0-5.9 2.88-9.05 8.63-.53 1.73-.79 3.03-.79 3.89zM1155.74 533h2.15c3.3 0 4.95 1.15 4.95 3.457v.22c0 4.03-3.45 7.698-10.34 11v.203c3.45 3.166 6.32 5.54 8.62 7.124v.64c0 1.118-.36 1.836-1.08 2.16h-.86l-11.85-8.407-.22 4.313v3.23c-.364.72-.94 1.08-1.72 1.08-.57 0-1.003-.29-1.295-.86v-1.3l1.937-16.83c-.57 0-.86-.43-.86-1.28 0-2.59 2.15-4.11 6.46-4.53l4.09-.22zm-7.53 11.64h.213c7.46-1.912 11.19-4 11.19-6.25v-.214c0-.396-.72-.682-2.15-.86-2.38 0-5.25.506-8.61 1.516l-.64 5.81zM1176.5 533c4.446.617 6.67 3.278 6.67 7.987 0 6.166-2.438 11.27-7.313 15.31-2.01 1.148-3.806 1.72-5.39 1.72-3.864 0-6.354-2.082-7.47-6.25l-.154-1.937v-.658c0-6.73 3.07-11.83 9.217-15.31 1.54-.572 3.02-.86 4.44-.86zm-11.596 16.83c1.602 2.438 3.722 3.657 6.36 3.657 4.24 0 7.2-2.516 8.89-7.547l.31-2.377c0-3.543-1.744-5.626-5.234-6.25h-.488c-2.886 0-5.9 2.874-9.047 8.624-.53 1.73-.797 3.026-.797 3.89zm32.92-16.83c4.45.617 6.672 3.278 6.672 7.987 0 6.166-2.438 11.27-7.313 15.31-2.01 1.148-3.807 1.72-5.39 1.72-3.865 0-6.354-2.082-7.47-6.25l-.155-1.937v-.658c0-6.73 3.07-11.83 9.215-15.31 1.542-.572 3.02-.86 4.438-.86zm-11.594 16.83c1.6 2.438 3.72 3.657 6.36 3.657 4.24 0 7.2-2.516 8.89-7.547l.31-2.377c0-3.543-1.747-5.626-5.237-6.25h-.485c-2.884 0-5.9 2.874-9.046 8.624-.533 1.73-.8 3.026-.8 3.89zM1215.2 533h.405c.668.367 1 .935 1 1.705v.44c0 4.624.407 10.04 1.22 16.25h.203c4.456-11.69 7.08-17.53 7.873-17.53h.61c.6 0 1.54 4.06 2.83 12.185 1.21 4.166 1.82 7.655 1.82 10.47-.39 1-1 1.5-1.81 1.5-.54 0-1.28-3.497-2.22-10.486l-1.62-6.828c-1.15 1.854-3.24 6.697-6.26 14.53-.86.886-1.6 1.386-2.22 1.5-1.75 0-2.62-2.353-2.62-7.062l-1-8.967h-.2l-6.06 13.67c-.36 2.284-.7 3.424-1.02 3.424h-.79l-.81-.84v-1.08c0-1.91 1.68-6.04 5.05-12.39 2.4-6.66 3.95-10.09 4.64-10.26l1.02-.22zm47.515 0c.74.2 1.11.705 1.11 1.518v.204c-1.042 15.387-1.78 23.08-2.22 23.08l-.233.22h-.656c-.77 0-1.29-.36-1.56-1.08.29-2.052.44-4.927.44-8.625h-.22l-9.347 2.156-.66.86v4.093c0 1.22-.45 2.084-1.35 2.594h-.44c-.83 0-1.36-.36-1.56-1.08 1.03-15.53 2.51-23.296 4.45-23.296h.44l.67.876c-1.04 5.155-1.56 8.963-1.56 11.42 6.82-.895 10.23-1.973 10.23-3.234l.89-9.064 1.56-.64zm19.22.05c.72.156 1.077.702 1.077 1.64-.23 1.77-.942 2.655-2.14 2.655-7.854 0-11.78 1.094-11.78 3.28l-.22 1.845v1.015c5.125-1.23 8.625-1.846 10.5-1.846h.422c.716.31 1.076.99 1.076 2.04 0 1.5-1 2.25-3 2.25-6.57.85-9.86 1.88-9.86 3.08l-.2 2.04v.81c0 1.23.78 1.91 2.343 2.04 2.46-.27 5.53-.88 9.22-1.84h.64c.573.22.86.69.86 1.43v.61c0 1.67-3.573 2.97-10.72 3.89h-.64c-2.572 0-4-1.64-4.28-4.91 0-2.41.5-6.98 1.5-13.72l-.423-1.24c0-2.77 4.28-4.4 12.844-4.9l2.78-.21zm12.72-.048h2.154c3.3 0 4.95 1.15 4.95 3.455v.22c0 4.03-3.45 7.698-10.35 11v.203c3.44 3.165 6.32 5.54 8.62 7.123v.64c0 1.115-.36 1.833-1.08 2.156h-.86l-11.85-8.41-.22 4.31v3.23c-.37.72-.94 1.08-1.72 1.08-.58 0-1.01-.29-1.3-.86v-1.3l1.93-16.83c-.57 0-.86-.43-.86-1.28 0-2.6 2.15-4.11 6.45-4.53l4.09-.22zm-7.533 11.64h.22c7.457-1.914 11.186-4 11.186-6.25v-.22c0-.392-.72-.68-2.158-.86-2.387 0-5.256.51-8.61 1.52l-.64 5.814zm31.344-11.59c.72.157 1.08.703 1.08 1.64-.23 1.77-.944 2.656-2.14 2.656-7.856 0-11.783 1.095-11.783 3.28l-.22 1.846v1.016c5.126-1.23 8.626-1.846 10.5-1.846h.423c.72.314 1.08.996 1.08 2.048 0 1.5-1 2.25-3 2.25-6.572.853-9.86 1.88-9.86 3.077l-.2 2.04v.81c0 1.23.78 1.91 2.34 2.04 2.46-.27 5.534-.89 9.22-1.85h.64c.575.21.86.69.86 1.43v.61c0 1.67-3.572 2.97-10.72 3.89h-.64c-2.57 0-4-1.64-4.28-4.91 0-2.41.5-6.98 1.5-13.72l-.42-1.24c0-2.77 4.28-4.41 12.84-4.91l2.784-.21zm3.97 19.64c1.395 0 2.265.85 2.61 2.547 0 1.69-1.22 2.62-3.658 2.78-1.22-.46-1.83-1.23-1.83-2.32v-.24c.48-1.86 1.44-2.78 2.875-2.78zm38.343-23.64c1.54 0 2.31.655 2.31 1.968v.483c0 1.803-1.38 2.704-4.13 2.704l-5.14.25c-1.54 8.377-2.31 15.574-2.31 21.595-.42 1.313-.85 1.97-1.28 1.97h-.79c-.88 0-1.4-.246-1.55-.735.86-9.27 1.8-16.8 2.83-22.593l-7.72 1.234c-.72 0-1.15-.733-1.28-2.202 0-2.457 2.14-3.686 6.43-3.686 2.57-.658 6.77-.986 12.61-.986zm12.64 3.95h2.15c3.3 0 4.95 1.15 4.95 3.455v.22c0 4.03-3.45 7.698-10.35 11v.203c3.45 3.165 6.32 5.54 8.62 7.123v.64c0 1.115-.36 1.833-1.08 2.156h-.86l-11.85-8.41-.22 4.31v3.23c-.36.72-.94 1.07-1.72 1.07-.58 0-1.01-.29-1.3-.86v-1.3l1.93-16.83c-.58 0-.86-.43-.86-1.28 0-2.59 2.15-4.11 6.45-4.53l4.09-.22zm-7.54 11.64h.22c7.46-1.914 11.19-4 11.19-6.25v-.216c0-.397-.72-.683-2.16-.86-2.39 0-5.26.505-8.61 1.515l-.64 5.82zm16.55-11.59l4.78 7.25 2.09 1.72c2.65-4.71 4.49-7.558 5.53-8.548h.95l.76.86c-.1.76-3.09 6.095-8.97 16-1.48 2.78-2.57 5.27-3.25 7.47l-.57.22c-.9-.417-1.35-1.057-1.35-1.922.05-1.114 1.58-4.6 4.58-10.453-4.32-4.65-6.49-8.42-6.49-11.32.8-.86 1.44-1.28 1.9-1.28zm-245.65 42h.33c1.44.177 2.15.875 2.15 2.094v.42c0 2.105-.72 4.063-2.16 5.876h-.33c-.23-.063-.45-.412-.67-1.047l.84-3.14-.66-.424c-1.53.14-4.35 1.81-8.44 5.03v.21l10.9 2.11c1.1.87 1.65 2.34 1.65 4.41v1.25c0 2.82-1.82 5.27-5.46 7.35-1.43.57-2.81.85-4.14.85h-.34c-3.8 0-6.11-1.67-6.94-5.03v-1.26c0-1.54.38-2.31 1.15-2.31.76 2.67 2.14 4 4.14 4 0 .27.83.41 2.48.41 2.45 0 4.82-1.25 7.11-3.76 0-1.67-3.52-2.72-10.58-3.16-2.54-.7-3.81-1.75-3.81-3.14 0-3.4 3.42-6.83 10.25-10.28l2.49-.42zm19.22-.047c4.45.616 6.67 3.277 6.67 7.986 0 6.17-2.44 11.27-7.31 15.31-2.01 1.15-3.81 1.72-5.39 1.72-3.87 0-6.36-2.08-7.47-6.25l-.16-1.94v-.65c0-6.73 3.07-11.83 9.22-15.31 1.54-.57 3.02-.86 4.44-.86zm-11.6 16.83c1.6 2.437 3.72 3.656 6.36 3.656 4.24 0 7.2-2.51 8.89-7.55l.31-2.37c0-3.54-1.75-5.62-5.24-6.25h-.49c-2.89 0-5.9 2.88-9.05 8.63-.54 1.73-.8 3.03-.8 3.89zm28.97-16.83h.4c.66.366 1 .934 1 1.704v.43c0 4.62.4 10.04 1.22 16.25h.2c4.46-11.69 7.08-17.53 7.87-17.53h.61c.59 0 1.53 4.06 2.82 12.18 1.21 4.17 1.81 7.66 1.81 10.47-.4 1-1 1.5-1.82 1.5-.54 0-1.28-3.5-2.22-10.49l-1.63-6.83c-1.15 1.85-3.24 6.69-6.26 14.53-.87.88-1.61 1.38-2.22 1.5-1.75 0-2.63-2.36-2.63-7.06l-1-8.97h-.2l-6.07 13.67c-.37 2.28-.7 3.42-1.02 3.42h-.8l-.82-.84v-1.08c0-1.92 1.68-6.05 5.04-12.39 2.4-6.67 3.94-10.09 4.64-10.27l1.02-.22zm34.25.048c.71.16 1.07.705 1.07 1.643-.23 1.77-.95 2.656-2.14 2.656-7.86 0-11.78 1.093-11.78 3.28l-.22 1.844v1.015c5.12-1.23 8.62-1.84 10.5-1.84h.42c.72.32 1.08 1 1.08 2.05 0 1.5-1 2.25-3 2.25-6.58.86-9.86 1.88-9.86 3.08l-.2 2.05v.81c0 1.23.78 1.91 2.34 2.05 2.46-.27 5.53-.88 9.22-1.84h.64c.58.22.86.7.86 1.44v.61c0 1.68-3.57 2.98-10.72 3.89h-.64c-2.57 0-4-1.63-4.28-4.9 0-2.4.5-6.98 1.5-13.72l-.42-1.23c0-2.77 4.28-4.4 12.84-4.9l2.78-.2zm2.67 0c.7 0 1.04 2.42 1.04 7.25l1.4 9.19h.34c0-.532 1.4-3.38 4.2-8.547.44-3.406 1.26-5.11 2.46-5.11h.34c.71 0 1.29 2.63 1.75 7.89.78 3.595 1.36 5.73 1.75 6.407.37-1.814 2.24-7.153 5.61-16.017.49-.564.96-.845 1.4-.845.62 0 1.03.28 1.22.85 0 .73-1.75 5.5-5.25 14.3-.59 2.09-1.11 4.93-1.58 8.55-.38.71-.85 1.07-1.41 1.07-1.06 0-1.88-2.42-2.44-7.25-1.15-4.72-1.85-7.28-2.11-7.69l-3.5 6.83c-.59 1.34-1.11 3.61-1.58 6.83-.31.52-.78.88-1.39 1.06-.98 0-1.8-3.69-2.46-11.09-.94-5.23-1.41-9.43-1.41-12.59 0-.42.52-.78 1.58-1.06zm38.22-.045c.74.2 1.11.704 1.11 1.517v.203c-1.05 15.388-1.79 23.08-2.22 23.08l-.24.22h-.66c-.77 0-1.29-.36-1.56-1.08.29-2.05.43-4.925.43-8.623h-.22l-9.35 2.155-.66.86v4.092c0 1.22-.45 2.083-1.34 2.593h-.44c-.83 0-1.36-.36-1.56-1.08 1.03-15.53 2.51-23.294 4.45-23.294h.44l.67.88c-1.04 5.16-1.56 8.97-1.56 11.42 6.82-.89 10.24-1.97 10.24-3.23l.89-9.06 1.56-.64zm19.22.048c.72.16 1.08.706 1.08 1.64-.23 1.77-.94 2.66-2.14 2.66-7.86 0-11.78 1.095-11.78 3.28l-.22 1.846v1.016c5.12-1.23 8.62-1.845 10.5-1.845h.42c.72.314 1.08.996 1.08 2.048 0 1.5-1 2.25-3 2.25-6.57.86-9.86 1.88-9.86 3.08l-.2 2.05v.81c0 1.23.78 1.91 2.34 2.05 2.45-.27 5.53-.88 9.21-1.84h.64c.58.22.86.7.86 1.44v.61c0 1.68-3.57 2.98-10.72 3.89h-.64c-2.57 0-4-1.63-4.28-4.9 0-2.4.5-6.98 1.5-13.72l-.42-1.23c0-2.77 4.28-4.4 12.84-4.9l2.78-.2zm12.72-.044h2.15c3.3 0 4.95 1.15 4.95 3.453v.22c0 4.03-3.45 7.696-10.35 11v.2c3.44 3.166 6.32 5.54 8.62 7.124v.64c0 1.11-.36 1.83-1.08 2.15h-.86l-11.85-8.41-.22 4.31v3.23c-.36.72-.93 1.08-1.72 1.08-.57 0-1.01-.29-1.3-.86v-1.3l1.94-16.83c-.57 0-.86-.43-.86-1.29 0-2.6 2.15-4.11 6.45-4.53l4.09-.22zm-7.53 11.64h.22c7.46-1.916 11.18-4 11.18-6.25v-.218c0-.398-.72-.684-2.16-.86-2.39 0-5.26.504-8.61 1.514l-.64 5.814zm31.34-11.593c.72.16 1.08.7 1.08 1.64-.23 1.77-.95 2.65-2.14 2.65-7.86 0-11.79 1.09-11.79 3.28l-.22 1.84v1.01c5.12-1.23 8.62-1.85 10.5-1.85h.42c.72.31 1.08.99 1.08 2.04 0 1.5-1 2.25-3 2.25-6.58.85-9.86 1.88-9.86 3.08l-.21 2.05v.81c0 1.23.78 1.91 2.34 2.04 2.46-.27 5.53-.89 9.22-1.85h.64c.57.22.86.7.86 1.44v.61c0 1.67-3.57 2.97-10.72 3.89h-.64c-2.57 0-4-1.64-4.28-4.91 0-2.41.5-6.98 1.5-13.72l-.42-1.24c0-2.77 4.28-4.41 12.85-4.91l2.78-.2zm31.08 0c.72.16 1.08.7 1.08 1.64-.23 1.77-.94 2.65-2.14 2.65-7.86 0-11.78 1.09-11.78 3.28l-.22 1.84v1.01c5.12-1.23 8.62-1.85 10.5-1.85h.42c.71.31 1.07.99 1.07 2.04 0 1.5-1 2.25-3 2.25-6.57.85-9.86 1.88-9.86 3.08l-.2 2.05v.81c0 1.23.78 1.91 2.34 2.04 2.45-.27 5.53-.89 9.22-1.85h.64c.57.22.86.7.86 1.44v.61c0 1.67-3.58 2.97-10.72 3.89h-.64c-2.58 0-4-1.64-4.29-4.91 0-2.41.5-6.98 1.5-13.72l-.42-1.24c0-2.77 4.28-4.41 12.84-4.91l2.78-.2zm4.29-.05h.22c.67 0 1.24.35 1.7 1.04-.99 7.21-1.7 13.65-2.13 19.34l12.18-2.52.42.62v1.26c0 1.92-4.42 3.67-13.25 5.25-1.57-.28-2.36-.77-2.36-1.47 1.17-15.42 2.02-23.12 2.56-23.12l.64-.43zm26.17.04h.32c1.44.18 2.16.87 2.16 2.09v.42c0 2.1-.72 4.06-2.16 5.87h-.33c-.23-.07-.45-.42-.67-1.05l.84-3.14-.66-.43c-1.53.13-4.35 1.81-8.44 5.03v.2l10.91 2.11c1.1.87 1.65 2.34 1.65 4.4v1.25c0 2.82-1.82 5.27-5.46 7.34-1.43.56-2.81.84-4.14.84h-.35c-3.79 0-6.1-1.68-6.94-5.03v-1.26c0-1.54.38-2.31 1.16-2.31.76 2.66 2.14 4 4.14 4 0 .27.83.4 2.48.4 2.45 0 4.82-1.26 7.11-3.77 0-1.66-3.53-2.72-10.58-3.15-2.54-.71-3.81-1.76-3.81-3.14 0-3.41 3.41-6.84 10.25-10.29l2.48-.42zm22.26 0c.72.16 1.08.7 1.08 1.64-.23 1.77-.95 2.65-2.14 2.65-7.86 0-11.79 1.09-11.79 3.28l-.22 1.84v1.01c5.12-1.23 8.62-1.85 10.5-1.85h.42c.72.31 1.07.99 1.07 2.04 0 1.5-1 2.25-3 2.25-6.57.85-9.86 1.88-9.86 3.07l-.21 2.05v.81c0 1.23.78 1.91 2.34 2.05 2.46-.27 5.53-.89 9.22-1.85h.64c.57.21.86.69.86 1.43v.61c0 1.67-3.58 2.97-10.72 3.89h-.64c-2.58 0-4-1.64-4.28-4.91 0-2.41.5-6.98 1.5-13.72l-.43-1.24c0-2.77 4.28-4.41 12.84-4.91l2.78-.21zm3.97 19.64c1.39 0 2.26.85 2.61 2.54 0 1.69-1.22 2.62-3.66 2.78-1.22-.46-1.83-1.23-1.83-2.32v-.24c.48-1.85 1.43-2.78 2.87-2.78zm9.33-.07c1.39 0 2.26.85 2.6 2.54 0 1.7-1.22 2.62-3.66 2.78-1.22-.46-1.83-1.23-1.83-2.32v-.24c.48-1.85 1.43-2.78 2.87-2.78zm9.35.06c1.39 0 2.26.85 2.61 2.55 0 1.69-1.22 2.62-3.66 2.78-1.22-.46-1.83-1.23-1.83-2.32v-.24c.48-1.86 1.43-2.78 2.87-2.78z" fill="#000"/></g></svg>