<svg width="1540" height="820" viewBox="0 0 1540 820" xmlns="http://www.w3.org/2000/svg"><title>story37</title><g fill="none" fill-rule="evenodd"><path fill="green" d="M1540 280H0v540h1540z"/><path d="M1540 0v738.94c-177.35-42.932-446.83-70.377-748.677-70.377C464.2 668.563 175.01 700.743 0 750V0h1540z" fill="navy"/><path fill="#FFE680" d="M181 275.324l-15.566-1.806-5.697 14.598-3.093-15.362-15.644-.906 13.654-7.69-3.97-15.158 11.53 10.61 13.19-8.462-6.527 14.247 12.123 9.93m36.824 231.873l-14.286-7.04-10.435 12.033 2.28-15.76-14.668-6.2 15.696-2.7 1.37-15.86 7.42 14.1 15.52-3.6-11.11 11.41 8.22 13.65m1234.06-355.87l-11.36-10.83-13.36 8.24 6.8-14.15-11.97-10.17 15.56 2.09 5.97-14.52 2.82 15.45 15.65 1.19-13.81 7.46m15.25 316.18l-5.87-14.54-15.56 1.99 12.02-10.08-6.7-14.18 13.3 8.32 11.42-10.76-3.8 15.22 13.76 7.54-15.65 1.09-2.91 15.41M1335 229.94l-15.698 2.777-1.298 15.885-7.492-14.073L1295 238.2l11.068-11.472-8.29-13.617 14.333 6.98L1322.5 208l-2.21 15.788 14.71 6.144M452.458 120.246L441.1 109.41l-13.363 8.238 6.795-14.15-11.963-10.164 15.55 2.09 5.97-14.52 2.82 15.443 15.65 1.19-13.82 7.455m659.36-18.446l-14.29-7.04-10.44 12.033 2.28-15.77-14.67-6.2 15.69-2.71 1.37-15.87 7.42 14.09 15.51-3.6-11.11 11.41 8.22 13.64m252.52 514.03l-9.64-13.07-15.09 6 9.45-13.2-10.36-12.49 15.47 4.91 8.68-13.72.11 16.23 15.74 4.02-15.41 5.12 1.04 16.2M111.19 99.14l-10.977-11.33-13.746 7.74 7.385-13.94-11.61-10.68 15.54 2.715 6.57-14.342 2.22 15.618 15.67 1.82-14.168 6.94 3.115 15.47M80.38 606.34l-9.02 13.357L82 631.807l-15.49-4.45-8.235 13.854-.555-16.1L42 621.56l15.147-5.507-1.48-16.05 9.916 12.705 14.805-6.367"/><path d="M590.617 777.012h.46c2.193 0 3.69 1 4.49 2.998l.236 1.62c0 4.31-2.536 7.387-7.608 9.23l-2.07.253c-2.773 0-4.463-1.33-5.068-3.994v-1.25c0-3.75 2.343-6.58 7.03-8.49.92-.25 1.762-.37 2.53-.37zm-7.832 8.486v.498c0 1.263.69 2.136 2.07 2.617l1.036.127h.24c2.99 0 5.41-1.33 7.26-3.994.39-.612.58-1.318.58-2.12-.25-2.16-1.25-3.24-2.99-3.24l-.81-.128c-2.89 0-5.19 1.413-6.91 4.238-.3.612-.46 1.28-.46 2.002zm6.68-4.863c.846.104 1.27.27 1.27.498v.117c0 .833-.616 1.25-1.846 1.25-1.85.365-2.77 1.032-2.77 2.002v.127c0 .57.3.86.92.86h.23l2.42-.37c.3.45.46.86.46 1.24-1 .75-2.15 1.12-3.46 1.12-1.46-.21-2.19-.96-2.19-2.25v-.12c0-2.48 1.65-3.98 4.95-4.49zM602.307 775l5.332.313 2.89-.313.3.47v.624c0 1.666-.97 2.5-2.89 2.5h-.16c-.24 9.05-1.05 13.574-2.43 13.574-.71.625-1.68.937-2.9.937h-1.07c-3.45-.527-5.18-2.242-5.18-5.146.3-1.75.76-2.9 1.36-3.44h.15c.15 0 .41 1.14.76 3.44.69 1.34 1.81 2.02 3.35 2.02 2.23 0 3.35-.94 3.35-2.81l.76-8.74h-1.68c-2.24 0-3.35-.26-3.35-.78v-.31c.3-1.57.76-2.35 1.37-2.35zm14.6 2.5h.468c.645 0 1.462 2.978 2.45 8.936.782 2.812 1.173 4.723 1.173 5.732-.163.534-.475.8-.937.8-.59 0-1.02-1.422-1.29-4.267l-.11-.12h-.11c-1.01.02-3.15.64-6.42 1.87-.31 1.78-.82 2.67-1.52 2.67-.47-.18-.7-.53-.7-1.06 0-1.02 2.15-5.74 6.44-14.14l.59-.4zm-.235 3.73c-.938 1.693-1.797 3.474-2.578 5.342h.82c.794 0 1.81-.18 3.047-.537l-1.05-4.805h-.23zm11.396-3.76h.254c.417.23.625.583.625 1.065v.274c0 2.89.254 6.27.762 10.15h.12c2.78-7.31 4.42-10.96 4.92-10.96h.38c.37 0 .96 2.54 1.77 7.61.75 2.6 1.13 4.78 1.13 6.54-.25.62-.63.93-1.14.93-.34 0-.8-2.18-1.39-6.55l-1.02-4.27c-.73 1.16-2.03 4.19-3.92 9.08-.54.55-1.01.86-1.39.94-1.1 0-1.64-1.47-1.64-4.42l-.63-5.61h-.13l-3.79 8.54c-.23 1.42-.44 2.14-.64 2.14h-.5l-.51-.53v-.67c0-1.2 1.05-3.78 3.15-7.75 1.5-4.17 2.46-6.31 2.9-6.42l.64-.14zm21.407.03c.45.098.673.44.673 1.025-.143 1.107-.59 1.66-1.337 1.66-4.9 0-7.36.684-7.36 2.05l-.13 1.154v.63c3.21-.77 5.39-1.15 6.57-1.15h.27c.45.19.68.62.68 1.28 0 .93-.62 1.4-1.87 1.4-4.11.53-6.16 1.17-6.16 1.92l-.12 1.28v.5c0 .77.49 1.19 1.47 1.28 1.54-.17 3.46-.56 5.76-1.16h.4c.36.13.54.43.54.9v.38c0 1.05-2.23 1.86-6.7 2.43h-.4c-1.6 0-2.5-1.02-2.67-3.07 0-1.51.32-4.37.94-8.58l-.26-.78c0-1.73 2.68-2.76 8.03-3.07l1.74-.13zm8.955 0h.205c.898.11 1.347.547 1.347 1.31v.262c0 1.315-.45 2.54-1.347 3.672h-.205c-.144-.04-.284-.257-.42-.654l.527-1.963-.41-.264c-.957.085-2.715 1.133-5.273 3.145v.127l6.816 1.318c.69.547 1.035 1.465 1.035 2.754v.78c0 1.766-1.136 3.296-3.408 4.59-.892.353-1.755.528-2.588.528h-.22c-2.37 0-3.82-1.048-4.34-3.144v-.79c0-.96.24-1.44.72-1.44.47 1.67 1.34 2.5 2.59 2.5 0 .17.51.26 1.55.26 1.53 0 3.01-.78 4.44-2.35 0-1.04-2.21-1.7-6.61-1.97-1.59-.44-2.39-1.09-2.39-1.96 0-2.13 2.13-4.27 6.41-6.42l1.55-.26zm23.838-2.5h.742c.918 0 1.465.677 1.64 2.03v.314c0 2.05-.843 3.4-2.53 4.052l-.302-.312v-.156l.752-2.647-.595-.31c-2.455 0-5.384 2.13-8.79 6.4-.794 1.3-1.19 2.29-1.19 2.97v.16c0 1.66 1.09 2.49 3.27 2.49h.157c2.103 0 4.433-.51 6.992-1.55h.45c.396.16.595.53.595 1.09v.63c-2.11 1.98-4.59 2.97-7.45 2.97-3.88-.36-5.81-2.13-5.81-5.3v-.31c0-4.04 3.12-7.99 9.38-11.86 1.19-.42 2.08-.62 2.67-.62zm10.918 2.47c2.78.385 4.17 2.048 4.17 4.99 0 3.855-1.524 7.045-4.57 9.57-1.257.717-2.38 1.075-3.37 1.075-2.415 0-3.97-1.302-4.668-3.906l-.098-1.22v-.41c0-4.21 1.92-7.4 5.762-9.57.964-.36 1.888-.54 2.774-.54zm-7.247 10.518c1 1.524 2.32 2.285 3.97 2.285 2.65 0 4.5-1.572 5.55-4.716l.19-1.485c0-2.213-1.09-3.515-3.27-3.906h-.31c-1.81 0-3.69 1.797-5.66 5.39-.34 1.08-.5 1.892-.5 2.432zm20.57-10.517c2.78.39 4.17 2.05 4.17 4.99 0 3.86-1.53 7.05-4.57 9.57-1.26.72-2.38 1.08-3.37 1.08-2.42 0-3.97-1.3-4.67-3.9l-.1-1.21v-.41c0-4.2 1.92-7.39 5.76-9.57.96-.36 1.89-.54 2.77-.54zm-7.25 10.52c1 1.53 2.32 2.29 3.97 2.29 2.65 0 4.5-1.57 5.55-4.71l.19-1.48c0-2.21-1.09-3.51-3.27-3.9h-.31c-1.81 0-3.69 1.8-5.66 5.39-.33 1.08-.5 1.89-.5 2.43zm19.28-10.51c2.58 0 3.87.76 3.87 2.28 0 3-2.83 5.72-8.5 8.15-.42 0-.63.27-.63.8-.06 2.95-.36 4.42-.88 4.42h-.63c-.17-.04-.34-.26-.5-.66l1.12-10.95h-.13c-.33 0-.5-.4-.5-1.21 0-1.31.75-2.06 2.25-2.26l4.49-.53zm-5 7.76c2.86-.75 5.02-1.99 6.5-3.74l.24-.81v-.26l-.63-.13h-.63c-3.33.19-4.99.5-4.99.94l-.51 4.02zm19.31-7.72c.45.1.67.44.67 1.03-.15 1.11-.59 1.66-1.34 1.66-4.91 0-7.37.68-7.37 2.05l-.14 1.15v.64c3.2-.77 5.39-1.15 6.56-1.15h.27c.45.2.67.63.67 1.28 0 .94-.63 1.41-1.88 1.41-4.11.54-6.16 1.18-6.16 1.93l-.13 1.28v.51c0 .77.49 1.2 1.46 1.28 1.54-.17 3.46-.55 5.76-1.15h.4c.36.14.54.44.54.9v.38c0 1.05-2.23 1.86-6.7 2.43h-.4c-1.61 0-2.5-1.02-2.68-3.06 0-1.5.31-4.36.93-8.57l-.27-.77c0-1.73 2.68-2.75 8.03-3.07l1.74-.12zm7.95-.03h1.34c2.06 0 3.09.72 3.09 2.16v.14c0 2.52-2.16 4.81-6.47 6.88v.13c2.15 1.98 3.95 3.47 5.39 4.46v.4c0 .7-.23 1.15-.68 1.35h-.54l-7.4-5.25-.14 2.7v2.02c-.23.45-.58.68-1.07.68-.36 0-.63-.18-.81-.53v-.81l1.21-10.52c-.36 0-.54-.26-.54-.8 0-1.62 1.35-2.56 4.03-2.83l2.56-.13zm-4.71 7.28h.14c4.66-1.2 6.99-2.5 6.99-3.9v-.14c0-.24-.45-.42-1.35-.53-1.49 0-3.29.32-5.38.95l-.4 3.63zm27.08-9.68c.58 0 1.01.28 1.29.84v.33c0 .34-2.52 5.44-7.57 15.31-.49 1.68-1.13 2.52-1.93 2.52-.65-.23-.97-.68-.97-1.34l8.85-17.48.16-.17h.15zm11.11 2.44c.43 0 .65 1.51.65 4.53l.88 5.75h.21c0-.33.87-2.11 2.62-5.34.27-2.13.78-3.19 1.53-3.19h.21c.44 0 .8 1.65 1.09 4.93.49 2.25.85 3.58 1.09 4.01.23-1.13 1.4-4.47 3.5-10.01.3-.35.6-.53.88-.53.39 0 .64.18.76.53 0 .46-1.09 3.44-3.28 8.94-.37 1.31-.7 3.09-.99 5.34-.24.45-.53.67-.88.67-.67 0-1.17-1.51-1.53-4.53-.71-2.95-1.15-4.55-1.32-4.8l-2.18 4.27c-.37.84-.7 2.26-.99 4.27-.2.33-.49.55-.87.67-.61 0-1.12-2.31-1.53-6.93-.59-3.27-.88-5.89-.88-7.87 0-.27.33-.49.98-.66zm23.88-.03c.46.13.69.44.69.95v.13c-.65 9.62-1.12 14.43-1.39 14.43l-.15.14h-.41c-.48 0-.81-.22-.98-.67.18-1.28.27-3.08.27-5.39h-.14l-5.84 1.35-.41.54v2.56c0 .76-.28 1.3-.84 1.62h-.27c-.52 0-.85-.22-.98-.67.64-9.71 1.57-14.56 2.78-14.56h.27l.42.55c-.65 3.22-.98 5.6-.98 7.14 4.26-.56 6.4-1.24 6.4-2.02l.55-5.67.97-.4zm2.76.03l2.98 4.53 1.31 1.08c1.65-2.94 2.8-4.72 3.45-5.34h.59l.47.54c-.06.48-1.93 3.81-5.6 10-.93 1.74-1.61 3.3-2.04 4.67l-.35.14c-.56-.26-.84-.66-.84-1.2.03-.7.98-2.88 2.86-6.53-2.7-2.9-4.05-5.26-4.05-7.07.5-.53.89-.8 1.19-.8zm17.31 0h.58c.72 0 1.15.59 1.3 1.75v.27c0 1.77-.67 2.93-2 3.5l-.24-.27v-.13l.59-2.28-.47-.26c-1.95 0-4.26 1.84-6.94 5.52-.64 1.11-.96 1.96-.96 2.55v.14c0 1.43.86 2.15 2.6 2.15h.1c1.67 0 3.51-.44 5.54-1.34h.36c.31.15.47.46.47.94v.54c-1.67 1.71-3.63 2.56-5.88 2.56-3.07-.32-4.6-1.84-4.6-4.57v-.27c0-3.48 2.47-6.89 7.41-10.23.94-.36 1.65-.54 2.13-.54zm12.31-.03c.46.13.69.44.69.95v.13c-.65 9.62-1.12 14.43-1.39 14.43l-.15.14h-.41c-.48 0-.81-.22-.98-.67.18-1.28.27-3.08.27-5.39h-.14l-5.84 1.35-.41.54v2.56c0 .76-.28 1.3-.84 1.62h-.27c-.52 0-.84-.22-.97-.67.64-9.71 1.57-14.56 2.78-14.56h.27l.42.55c-.65 3.22-.98 5.6-.98 7.14 4.27-.56 6.4-1.24 6.4-2.02l.56-5.67.97-.4zm8.84 0h1.35c2.06 0 3.09.72 3.09 2.16v.14c0 2.52-2.16 4.81-6.47 6.87v.13c2.16 1.98 3.95 3.47 5.39 4.46v.4c0 .7-.22 1.15-.67 1.35h-.54l-7.4-5.25-.14 2.69v2.03c-.23.45-.59.67-1.08.67-.36 0-.63-.18-.81-.54v-.81l1.21-10.51c-.36 0-.54-.27-.54-.8 0-1.62 1.34-2.57 4.03-2.83l2.56-.13zm-4.71 7.28h.13c4.66-1.2 6.99-2.5 6.99-3.91v-.13c0-.25-.45-.43-1.35-.54-1.49 0-3.29.32-5.38.95l-.4 3.63zm12.28-7.32h.92c.3 0 .46.18.46.54-.72 5.85-1.08 9.9-1.08 12.17v1.49c-.2.99-.71 1.49-1.52 1.49h-.3l-.62-.54c.41-6.13.92-11 1.53-14.6l.6-.54zm10.57.07h.2c.9.11 1.34.55 1.34 1.31v.27c0 1.32-.45 2.54-1.35 3.67h-.2c-.14-.04-.28-.25-.42-.65l.53-1.96-.41-.26c-.96.09-2.72 1.14-5.27 3.15v.13l6.81 1.32c.69.55 1.03 1.47 1.03 2.76v.78c0 1.76-1.14 3.29-3.41 4.59-.89.35-1.75.53-2.59.53h-.22c-2.37 0-3.81-1.05-4.33-3.15v-.79c0-.96.24-1.45.72-1.45.47 1.67 1.34 2.5 2.59 2.5 0 .17.52.26 1.55.26 1.53 0 3.01-.78 4.44-2.35 0-1.04-2.21-1.7-6.62-1.97-1.59-.44-2.38-1.1-2.38-1.97 0-2.13 2.13-4.27 6.4-6.43l1.55-.26zm14.31-.04c.85 0 1.27.36 1.27 1.06v.26c0 .97-.75 1.46-2.26 1.46l-2.82.14c-.85 4.52-1.27 8.4-1.27 11.65-.23.7-.46 1.06-.71 1.06h-.43c-.49 0-.77-.13-.85-.4.47-4.99.99-9.05 1.55-12.17l-4.24.67c-.4 0-.63-.39-.7-1.19 0-1.32 1.18-1.98 3.53-1.98 1.41-.35 3.72-.53 6.92-.53zm6.94.01h.25c.42.23.62.59.62 1.07v.28c0 2.89.25 6.28.76 10.16h.13c2.78-7.3 4.42-10.95 4.92-10.95h.38c.37 0 .96 2.54 1.77 7.62.76 2.61 1.13 4.79 1.13 6.55-.25.63-.62.94-1.13.94-.34 0-.8-2.18-1.38-6.55l-1.02-4.26c-.72 1.16-2.03 4.19-3.92 9.08-.54.55-1 .87-1.39.94-1.09 0-1.64-1.47-1.64-4.41l-.63-5.6h-.13l-3.79 8.55c-.23 1.42-.44 2.14-.64 2.14h-.5l-.51-.53v-.67c0-1.2 1.052-3.78 3.154-7.75 1.5-4.16 2.465-6.3 2.9-6.41l.64-.14zm16.99.03h.47c.64 0 1.46 2.98 2.45 8.94.78 2.81 1.17 4.72 1.17 5.73-.16.54-.47.8-.94.8-.6 0-1.03-1.42-1.29-4.27l-.12-.12h-.12c-1.02.01-3.16.64-6.43 1.87-.31 1.78-.82 2.67-1.53 2.67-.47-.18-.71-.53-.71-1.06 0-1.03 2.15-5.74 6.44-14.14l.59-.4zm-.24 3.73c-.94 1.7-1.8 3.48-2.58 5.35h.82c.79 0 1.81-.18 3.04-.54l-1.05-4.8h-.24zm13.6-3.73h.2c.9.11 1.35.55 1.35 1.31v.27c0 1.32-.45 2.54-1.35 3.67h-.21c-.14-.04-.28-.25-.42-.65l.53-1.96-.41-.26c-.96.09-2.72 1.14-5.28 3.15v.13l6.82 1.32c.69.55 1.04 1.47 1.04 2.76v.78c0 1.76-1.14 3.29-3.41 4.59-.9.35-1.76.53-2.59.53h-.22c-2.37 0-3.82-1.05-4.34-3.15v-.79c0-.96.24-1.45.72-1.45.47 1.67 1.332 2.5 2.582 2.5 0 .17.52.26 1.553.26 1.53 0 3.01-.78 4.444-2.35 0-1.04-2.206-1.7-6.61-1.97-1.59-.44-2.386-1.1-2.386-1.97 0-2.13 2.14-4.27 6.41-6.43l1.55-.26zm5.27 12.28c.87 0 1.41.53 1.63 1.59 0 1.06-.76 1.64-2.29 1.74-.76-.28-1.15-.77-1.15-1.44v-.14c.3-1.16.9-1.74 1.8-1.74zm13.3-12.27h.57c.72 0 1.15.59 1.3 1.75v.27c0 1.77-.67 2.93-2 3.5l-.23-.27v-.13l.59-2.28-.47-.26c-1.95 0-4.26 1.84-6.95 5.52-.637 1.11-.956 1.96-.956 2.55v.14c0 1.44.87 2.15 2.6 2.15h.11c1.67 0 3.514-.44 5.54-1.33h.36c.31.14.47.46.47.94v.54c-1.67 1.71-3.63 2.56-5.88 2.56-3.067-.32-4.6-1.84-4.6-4.57v-.27c0-3.48 2.47-6.89 7.41-10.22.94-.36 1.65-.53 2.13-.53zm10.41-.03c2.78.39 4.17 2.05 4.17 4.99 0 3.86-1.52 7.05-4.57 9.57-1.26.72-2.38 1.08-3.37 1.08-2.41 0-3.97-1.3-4.67-3.91l-.1-1.21v-.41c0-4.21 1.92-7.4 5.76-9.57.96-.36 1.88-.54 2.77-.54zm-7.24 10.51c1 1.53 2.33 2.29 3.97 2.29 2.65 0 4.5-1.57 5.55-4.71l.2-1.49c0-2.22-1.09-3.52-3.27-3.91H937c-1.806 0-3.69 1.79-5.657 5.39-.33 1.08-.5 1.89-.5 2.43zM949 777.48h.253c.416.23.625.584.625 1.066v.274c0 2.89.255 6.275.76 10.155h.13c2.788-7.304 4.428-10.956 4.923-10.956h.38c.37 0 .96 2.54 1.77 7.61.76 2.6 1.13 4.78 1.13 6.54-.24.62-.62.93-1.13.93-.34 0-.8-2.19-1.39-6.56l-1.01-4.27c-.72 1.16-2.03 4.18-3.91 9.08-.54.55-1 .86-1.39.94-1.09 0-1.64-1.48-1.64-4.42l-.62-5.61h-.12l-3.79 8.54c-.23 1.42-.44 2.14-.63 2.14h-.49l-.51-.53v-.67c0-1.2 1.05-3.78 3.16-7.74 1.5-4.17 2.46-6.31 2.9-6.42l.63-.14zM287.405 395l12.72 16.844 5.593 3.97c7.04-10.94 11.953-17.543 14.75-19.814H323l2.03 1.97c-.27 1.75-8.238 14.134-23.905 37.155-3.917 6.438-6.802 12.208-8.656 17.313l-1.5.5c-2.38-.98-3.57-2.47-3.57-4.47.12-2.583 4.19-10.666 12.19-24.25-11.52-10.79-17.28-19.54-17.28-26.25 2.14-1.978 3.84-2.968 5.09-2.968zm61.156 7.906c8.9 1.23 13.35 6.552 13.35 15.97 0 12.332-4.87 22.54-14.62 30.624-4.02 2.292-7.61 3.438-10.78 3.438-7.73 0-12.7-4.167-14.93-12.5l-.31-3.875v-1.313c0-13.458 6.15-23.667 18.44-30.625 3.09-1.146 6.04-1.72 8.88-1.72zm-23.18 33.656c3.21 4.876 7.45 7.313 12.72 7.313 8.48 0 14.41-5.03 17.78-15.094l.63-4.75c0-7.08-3.49-11.25-10.47-12.5h-.96c-5.77 0-11.8 5.75-18.09 17.25-1.07 3.46-1.6 6.06-1.6 7.79zm47.82-33.656c1.34.542 2.07 1.104 2.22 1.688-2.37 14.854-3.56 25.646-3.56 32.375v4.62c7.96 0 14.48-3.65 19.56-10.94 2-17.67 3.93-26.5 5.78-26.5h.47c1.77.19 2.66.61 2.66 1.28-2.66 16.08-4 28.13-4 36.16v6.72c0 2.2-.89 3.75-2.68 4.62h-1.78l-1.75-1.69v-.85l.44-7.13c-1.06 0-6.84 2.65-17.34 7.97l-3.12.84c-3.56-.46-5.34-2-5.34-4.63v-.41c2.17-29.44 4.69-44.16 7.56-44.16h.91zm85.53.094h1.85c2.32 0 3.7 1.865 4.16 5.594v.875c0 5.64-2.14 9.37-6.41 11.18l-.75-.88v-.44l1.91-7.32-1.5-.84c-6.23 0-13.63 5.88-22.22 17.65-2.04 3.56-3.06 6.28-3.06 8.15v.44c0 4.58 2.77 6.87 8.32 6.87h.35c5.34 0 11.24-1.43 17.72-4.28h1.16c1 .46 1.5 1.46 1.5 3v1.72c-5.33 5.46-11.6 8.19-18.81 8.19-9.81-1.02-14.72-5.9-14.72-14.63l.01-.88c0-11.15 7.91-22.05 23.72-32.72 3-1.15 5.27-1.72 6.81-1.72zm25.28 0h1.5c2.07 0 4.68 9.53 7.85 28.594 2.5 9 3.75 15.114 3.75 18.344-.52 1.708-1.52 2.562-3 2.562-1.91 0-3.29-4.552-4.12-13.656l-.38-.406h-.38c-3.25.04-10.1 2.03-20.56 5.968-1 5.688-2.62 8.53-4.87 8.53-1.5-.582-2.25-1.717-2.25-3.405 0-3.29 6.87-18.37 20.6-45.25L484 403zm-.75 11.938c-3 5.416-5.75 11.114-8.25 17.093h2.63c2.54 0 5.79-.57 9.75-1.71L484 414.94h-.75zm23.91-12.032c1.9 0 4.17 3.563 6.82 10.688 5.12 10.5 10.82 19.48 17.09 26.937 2.1-20.56 3.66-32.67 4.69-36.34l1.72-1.28h1.28c.85 0 1.28.58 1.28 1.72-2.56 29.38-4.13 45.05-4.69 47.03l-2.57.85c-4.56 0-12.25-9.68-23.06-29.06l-1.72-1.72-.43 1.28-1.28 19.69v2.56l.44 2.57c-.38 3.42-1.51 5.13-3.41 5.13-1.75-.62-2.75-1.48-3-2.56 2.19-30.79 3.75-46.19 4.69-46.19l2.16-1.28zm89.69.094h4.03c1.8 1.125 2.69 2.385 2.69 3.78-.48 3.355-1.97 5.033-4.47 5.033-7.18 0-14.19.697-21.03 2.093l-.87 9.25 2.22.406h1.78c5.3 0 11.41-.843 18.35-2.53l1.35 2.53c-.66 5.042-2.75 7.563-6.25 7.563-2.16 1.104-8.28 1.937-18.34 2.5-.7 12.604-1.9 18.906-3.59 18.906l-1.78.41h-.44c-.75 0-1.2-.56-1.34-1.69 0-6.85 1.19-19.43 3.57-37.75l-1.31-1.28c0-4.23 2.98-6.74 8.94-7.53 5.98-1.12 11.49-1.68 16.53-1.68zm16.75-.22h2.94c.98 0 1.47.574 1.47 1.72-2.29 18.708-3.43 31.687-3.43 38.938v4.75c-.64 3.166-2.27 4.75-4.87 4.75h-.97l-1.97-1.72c1.32-19.624 2.95-35.197 4.91-46.718l1.94-1.72zm14.19.126c1.9 0 4.17 3.563 6.82 10.688 5.13 10.5 10.83 19.48 17.1 26.937 2.11-20.56 3.67-32.67 4.69-36.34l1.72-1.28h1.28c.86 0 1.28.58 1.28 1.72-2.56 29.38-4.12 45.05-4.68 47.03l-2.56.85c-4.56 0-12.25-9.68-23.06-29.06l-1.72-1.71-.43 1.28-1.28 19.69v2.57l.44 2.57c-.37 3.42-1.51 5.13-3.41 5.13-1.75-.62-2.75-1.48-3-2.56 2.19-30.79 3.75-46.19 4.69-46.19l2.16-1.28zm52.07 0h1.91c9.07 0 14.62 3.594 16.66 10.78l.38 3.44c0 14.312-10.6 26.103-31.81 35.374l-1.87.438h-.41c-.56 0-1.06-1.01-1.5-3.032l3.78-37.094c-1.52 0-2.28-.427-2.28-1.28v-.876c0-4.583 2.02-6.875 6.07-6.875l9.09-.87zm-7.56 9.063c-2.27 14.75-3.4 24.66-3.4 29.75v2.15c15.9-7.94 23.85-15.42 23.85-22.44v-.41c0-4.04-1.13-6.06-3.41-6.06-2.81-2-7.35-3-13.62-3h-3.41zm80.38-9.07c8.9 1.23 13.35 6.55 13.35 15.97 0 12.33-4.87 22.54-14.62 30.62-4.02 2.29-7.61 3.43-10.78 3.43-7.73 0-12.71-4.17-14.94-12.5l-.31-3.88v-1.32c0-13.46 6.15-23.67 18.44-30.63 3.09-1.15 6.04-1.72 8.88-1.72zm-23.19 33.65c3.21 4.87 7.45 7.31 12.72 7.31 8.48 0 14.41-5.03 17.78-15.1l.63-4.75c0-7.09-3.49-11.25-10.47-12.5h-.97c-5.77 0-11.8 5.75-18.09 17.25-1.06 3.46-1.59 6.05-1.59 7.78zm47.81-33.66c1.34.54 2.08 1.1 2.22 1.69-2.37 14.85-3.56 25.64-3.56 32.37v4.62c7.96 0 14.48-3.65 19.56-10.94 2-17.67 3.93-26.5 5.78-26.5h.47c1.77.18 2.66.61 2.66 1.28-2.66 16.08-4 28.13-4 36.15v6.72c0 2.21-.89 3.75-2.69 4.62h-1.78l-1.75-1.69v-.85l.44-7.13c-1.06 0-6.84 2.65-17.34 7.97l-3.12.84c-3.56-.46-5.34-2-5.34-4.63V447c2.17-29.432 4.69-44.15 7.56-44.15h.91zm63.13-.03c2.71 0 4.07 1.12 4.07 3.37v.84c0 3.1-2.41 4.65-7.25 4.65l-9.03.43c-2.7 14.44-4.06 26.85-4.06 37.25-.73 2.25-1.48 3.37-2.25 3.37h-1.38c-1.56 0-2.47-.43-2.72-1.28 1.52-15.98 3.18-28.96 4.97-38.94l-13.59 2.15c-1.27 0-2.02-1.28-2.25-3.82 0-4.23 3.77-6.35 11.32-6.35 4.52-1.13 11.91-1.69 22.16-1.69zm48.75.03h.81c1.34.73 2 1.86 2 3.4v.87c0 9.25.81 20.08 2.44 32.5h.41c8.92-23.38 14.17-35.06 15.75-35.06h1.22c1.19 0 3.08 8.12 5.66 24.37 2.42 8.33 3.63 15.31 3.63 20.93-.79 2-2 3-3.62 3-1.08 0-2.56-6.99-4.44-20.97l-3.25-13.66c-2.31 3.71-6.49 13.4-12.53 29.07-1.73 1.77-3.21 2.77-4.44 3-3.5 0-5.25-4.71-5.25-14.13l-2-17.94h-.4L873 445.65c-.73 4.567-1.406 6.848-2.03 6.848h-1.595l-1.625-1.68v-2.15c0-3.83 3.365-12.09 10.094-24.78 4.79-13.33 7.885-20.18 9.28-20.53l2.032-.44zm62.41 0c8.9 1.23 13.35 6.55 13.35 15.97 0 12.33-4.87 22.54-14.62 30.62-4.02 2.29-7.61 3.43-10.78 3.43-7.73 0-12.71-4.17-14.94-12.5l-.31-3.88v-1.32c0-13.46 6.15-23.67 18.44-30.63 3.09-1.15 6.04-1.72 8.88-1.72zm-23.19 33.66c3.21 4.88 7.45 7.31 12.72 7.31 8.48 0 14.41-5.03 17.78-15.1l.63-4.75c0-7.08-3.49-11.25-10.47-12.5h-.96c-5.77 0-11.8 5.75-18.09 17.25-1.06 3.46-1.59 6.05-1.59 7.78zm61.78-33.66h4.32c6.61 0 9.91 2.3 9.91 6.9v.44c0 8.06-6.89 15.39-20.69 22v.4c6.9 6.33 12.65 11.08 17.25 14.25v1.28c0 2.23-.71 3.67-2.15 4.31h-1.72l-23.68-16.81-.44 8.62v6.47c-.73 1.44-1.87 2.15-3.44 2.15-1.14 0-2.01-.58-2.59-1.72v-2.59l3.87-33.66c-1.14 0-1.71-.86-1.71-2.56 0-5.19 4.31-8.21 12.91-9.06l8.19-.44zm-15.06 23.28h.44c14.92-3.84 22.38-8 22.38-12.5v-.44c0-.8-1.43-1.37-4.31-1.72-4.77 0-10.51 1.01-17.22 3.03l-1.28 11.62zm62.66-23.17c1.44.31 2.16 1.4 2.16 3.28-.46 3.54-1.88 5.31-4.28 5.31-15.71 0-23.56 2.18-23.56 6.56l-.43 3.69v2.03c10.25-2.46 17.25-3.69 21-3.69h.84c1.44.62 2.16 1.99 2.16 4.09 0 3-2 4.5-6 4.5-13.14 1.71-19.72 3.76-19.72 6.15l-.4 4.09v1.63c0 2.46 1.57 3.83 4.69 4.1 4.92-.54 11.06-1.77 18.44-3.68h1.28c1.14.44 1.72 1.4 1.72 2.88v1.22c0 3.35-7.15 5.94-21.44 7.78h-1.28c-5.14 0-8-3.27-8.56-9.81 0-4.82 1-13.96 3-27.44l-.84-2.47c0-5.55 8.57-8.82 25.69-9.82l5.56-.41zm48.04 0h1.5c2.06 0 4.68 9.53 7.85 28.59 2.5 9 3.75 15.11 3.75 18.34-.52 1.71-1.52 2.56-3 2.56-1.91 0-3.29-4.56-4.12-13.66l-.37-.41h-.38c-3.25.04-10.1 2.03-20.56 5.97-1 5.69-2.62 8.53-4.87 8.53-1.5-.58-2.25-1.72-2.25-3.41 0-3.29 6.87-18.38 20.6-45.25l1.88-1.28zm-.75 11.93c-3 5.41-5.75 11.11-8.25 17.09h2.63c2.54 0 5.79-.58 9.75-1.72l-3.38-15.38h-.75zm36.28-11.94c8.44 0 12.66 2.87 12.66 8.62v1.28c0 4.02-1.9 7.89-5.72 11.62v.44c6.28 1.89 9.41 5.05 9.41 9.46v1.72c0 7.21-7.08 12.51-21.25 15.9l-6.97.87h-4.06c-2.18 0-3.28-1.15-3.28-3.44v-.44l3.28-35.31c-1.37 0-2.06-.28-2.06-.85v-2.59c0-4.88 6-7.31 18-7.31zm-11.87 19.37h.44c12.79 0 19.19-2.88 19.19-8.63-2.11-1.42-5.65-2.13-10.63-2.13h-4.91c-2.17 0-3.25 1-3.25 3l-.85 7.75zm-.81 8.19l-.81 13.75 4.09.87.4-.44h2.03c11.46-1.5 17.18-4.22 17.18-8.16-3.77-4.02-9.63-6.03-17.59-6.03h-1.62l-.4-.44-.4.44h-2.87zm58.5-27.66c8.89 1.23 13.34 6.55 13.34 15.97 0 12.33-4.88 22.54-14.63 30.62-4.02 2.29-7.62 3.43-10.78 3.43-7.73 0-12.71-4.17-14.94-12.5l-.31-3.88v-1.32c0-13.46 6.14-23.67 18.43-30.63 3.09-1.15 6.05-1.72 8.88-1.72zm-23.19 33.65c3.21 4.87 7.45 7.31 12.72 7.31 8.48 0 14.41-5.03 17.78-15.1l.62-4.75c0-7.08-3.49-11.25-10.47-12.5h-.97c-5.77 0-11.81 5.75-18.1 17.25-1.06 3.46-1.59 6.05-1.59 7.78zm47.81-33.66c1.33.54 2.07 1.1 2.22 1.69-2.38 14.85-3.56 25.64-3.56 32.37v4.62c7.96 0 14.48-3.65 19.56-10.94 2-17.67 3.93-26.5 5.78-26.5h.47c1.77.18 2.65.61 2.65 1.28-2.66 16.08-4 28.13-4 36.15v6.72c0 2.21-.89 3.75-2.69 4.62h-1.78l-1.75-1.69v-.85l.44-7.13c-1.06 0-6.84 2.65-17.34 7.97l-3.12.84c-3.56-.46-5.34-2-5.34-4.63v-.4c2.17-29.44 4.69-44.16 7.57-44.16h.91zm63.12-.03c2.71 0 4.06 1.12 4.06 3.37v.84c0 3.1-2.42 4.65-7.25 4.65l-9.04.43c-2.71 14.43-4.06 26.85-4.06 37.25-.73 2.25-1.48 3.37-2.25 3.37H1235c-1.563 0-2.47-.43-2.72-1.28 1.522-15.98 3.178-28.96 4.97-38.93l-13.563 2.13c-1.27 0-2.02-1.27-2.25-3.82 0-4.23 3.77-6.35 11.313-6.35 4.52-1.13 11.906-1.69 22.156-1.69zm-855.63 74c2.71 0 4.07 1.12 4.07 3.37v.84c0 3.1-2.42 4.65-7.25 4.65l-9.03.43C384.36 500.58 383 513 383 523.39c-.73 2.25-1.48 3.38-2.25 3.38h-1.376c-1.563 0-2.47-.43-2.72-1.28 1.52-15.97 3.178-28.95 4.97-38.93l-13.563 2.13c-1.27 0-2.02-1.27-2.25-3.81 0-4.23 3.77-6.348 11.32-6.348 4.52-1.127 11.9-1.69 22.15-1.69zm36.16.03c1.48.39 2.22 1.4 2.22 3.03v.41c-2.08 30.77-3.56 46.15-4.43 46.15l-.47.43h-1.31c-1.54 0-2.58-.72-3.12-2.16.59-4.11.88-9.86.88-17.25h-.44l-18.68 4.31-1.31 1.72v8.18c0 2.44-.89 4.17-2.68 5.19h-.87c-1.66 0-2.71-.72-3.12-2.16 2.06-31.06 5.03-46.59 8.91-46.59h.87l1.35 1.75c-2.082 10.31-3.123 17.92-3.123 22.84 13.645-1.79 20.47-3.95 20.47-6.47l1.78-18.13 3.13-1.28zm38.44.09c1.44.31 2.16 1.4 2.16 3.28-.46 3.54-1.88 5.31-4.28 5.31-15.71 0-23.56 2.19-23.56 6.56l-.43 3.69v2.03c10.25-2.46 17.25-3.69 21-3.69h.85c1.43.62 2.15 1.99 2.15 4.09 0 3-2 4.5-6 4.5-13.15 1.71-19.72 3.76-19.72 6.15l-.41 4.1v1.63c0 2.46 1.57 3.82 4.69 4.09 4.92-.54 11.06-1.77 18.44-3.69h1.28c1.15.44 1.72 1.4 1.72 2.87v1.22c0 3.35-7.14 5.94-21.44 7.78h-1.28c-5.14 0-8-3.27-8.56-9.81 0-4.82 1-13.96 3-27.44l-.84-2.47c0-5.54 8.57-8.81 25.69-9.81l5.56-.41zm67.35-8h2.38c2.94 0 4.69 2.16 5.25 6.5v1c0 6.56-2.7 10.88-8.09 12.97l-.97-1v-.5l2.41-8.47-1.91-1c-7.85 0-17.23 6.82-28.12 20.47-2.54 4.14-3.81 7.31-3.81 9.5v.5c0 5.31 3.49 7.96 10.47 7.96h.5c6.73 0 14.19-1.66 22.38-4.97h1.43c1.27.52 1.91 1.67 1.91 3.46v2c-6.73 6.33-14.66 9.5-23.81 9.5-12.4-1.17-18.59-6.82-18.59-16.97v-1c0-12.94 10.01-25.6 30.03-37.97 3.81-1.34 6.67-2 8.56-2zm41 7.9c1.48.39 2.22 1.4 2.22 3.03v.41c-2.08 30.77-3.56 46.15-4.43 46.15l-.47.43h-1.31c-1.54 0-2.58-.72-3.12-2.16.59-4.11.88-9.86.88-17.25h-.44l-18.69 4.31-1.31 1.72v8.18c0 2.44-.89 4.17-2.68 5.19H552c-1.67 0-2.71-.72-3.13-2.16 2.06-31.06 5.03-46.59 8.91-46.59h.875l1.34 1.75c-2.082 10.31-3.123 17.93-3.123 22.84 13.643-1.79 20.47-3.95 20.47-6.47l1.78-18.13 3.122-1.28zm28.28 0h4.32c6.6 0 9.9 2.3 9.9 6.9v.44c0 8.06-6.9 15.39-20.69 22v.4c6.9 6.34 12.65 11.09 17.25 14.25v1.28c0 2.23-.72 3.67-2.16 4.31h-1.72l-23.68-16.81-.44 8.62v6.47c-.73 1.43-1.87 2.15-3.44 2.15-1.14 0-2.01-.57-2.59-1.72v-2.59l3.87-33.66c-1.14 0-1.72-.86-1.72-2.57 0-5.18 4.31-8.2 12.91-9.06l8.19-.43zm-15.06 23.28h.44c14.92-3.84 22.38-8 22.38-12.5v-.44c0-.8-1.43-1.37-4.31-1.72-4.77 0-10.51 1.01-17.22 3.03l-1.28 11.62zm39.32-23.41h2.94c.98 0 1.47.57 1.47 1.72-2.29 18.7-3.44 31.68-3.44 38.93v4.75c-.64 3.17-2.27 4.75-4.87 4.75h-.97l-1.97-1.72c1.32-19.62 2.95-35.2 4.91-46.72l1.94-1.72zm33.82.22h.66c2.87.35 4.31 1.75 4.31 4.18v.85c0 4.21-1.44 8.12-4.31 11.75h-.66c-.46-.13-.9-.82-1.34-2.09l1.69-6.29-1.31-.85c-3.06.27-8.69 3.62-16.87 10.06v.41l21.81 4.22c2.21 1.75 3.32 4.68 3.32 8.81v2.5c0 5.64-3.634 10.54-10.91 14.68-2.85 1.12-5.61 1.69-8.28 1.69h-.7c-7.58 0-12.21-3.36-13.87-10.06v-2.53c0-3.09.77-4.63 2.31-4.63 1.52 5.34 4.28 8 8.28 8 0 .54 1.655.81 4.967.81 4.9 0 9.64-2.51 14.22-7.53 0-3.33-7.05-5.43-21.154-6.31-5.09-1.42-7.63-3.51-7.63-6.28 0-6.81 6.83-13.67 20.5-20.56l4.96-.84zm45.81-.13c2.71 0 4.07 1.12 4.07 3.37v.84c0 3.1-2.41 4.65-7.25 4.65l-9.03.44c-2.71 14.43-4.06 26.85-4.06 37.25-.73 2.25-1.48 3.37-2.25 3.37h-1.38c-1.56 0-2.47-.43-2.72-1.28 1.52-15.98 3.18-28.95 4.97-38.93l-13.57 2.13c-1.27 0-2.02-1.27-2.25-3.82 0-4.23 3.77-6.34 11.32-6.34 4.52-1.13 11.91-1.69 22.16-1.69zm22.19.03h.81c1.34.73 2 1.86 2 3.4v.87c0 9.25.81 20.08 2.44 32.5h.41c8.92-23.38 14.17-35.07 15.75-35.07h1.22c1.19 0 3.07 8.12 5.66 24.37 2.42 8.33 3.63 15.31 3.63 20.93-.79 2-2 3-3.62 3-1.08 0-2.56-6.99-4.44-20.97l-3.25-13.65c-2.31 3.71-6.49 13.4-12.53 29.06-1.73 1.77-3.21 2.77-4.44 3-3.5 0-5.25-4.71-5.25-14.13l-2-17.94h-.41l-12.13 27.36c-.73 4.56-1.41 6.84-2.03 6.84h-1.6l-1.62-1.69v-2.15c0-3.84 3.36-12.1 10.09-24.78 4.8-13.34 7.89-20.18 9.28-20.53l2.04-.44zm54.38.09h1.5c2.07 0 4.68 9.53 7.85 28.59 2.5 9 3.75 15.11 3.75 18.34-.52 1.71-1.52 2.56-3 2.56-1.91 0-3.29-4.55-4.12-13.66l-.37-.41h-.372c-3.25.04-10.1 2.03-20.56 5.97-1 5.68-2.63 8.53-4.88 8.53-1.5-.59-2.25-1.72-2.25-3.41 0-3.29 6.86-18.37 20.59-45.25l1.88-1.28zm-.75 11.94c-3 5.41-5.75 11.11-8.25 17.09h2.63c2.54 0 5.79-.57 9.75-1.72l-3.38-15.38h-.75zm43.52-11.9h.66c2.87.35 4.31 1.75 4.31 4.18v.84c0 4.21-1.44 8.13-4.32 11.75h-.66c-.46-.12-.91-.82-1.35-2.09l1.69-6.28-1.31-.84c-3.07.27-8.69 3.63-16.88 10.07v.41l21.81 4.22c2.21 1.75 3.31 4.69 3.31 8.82v2.5c0 5.65-3.64 10.54-10.91 14.69-2.86 1.12-5.62 1.69-8.28 1.69h-.68c-7.59 0-12.21-3.36-13.88-10.06v-2.53c0-3.08.77-4.62 2.31-4.62 1.52 5.33 4.28 8 8.28 8 0 .54 1.66.81 4.97.81 4.9 0 9.64-2.51 14.22-7.53 0-3.33-7.05-5.44-21.16-6.31-5.08-1.42-7.62-3.51-7.62-6.28 0-6.81 6.83-13.67 20.5-20.56l4.97-.85zm71.19-8h.85c3.63.39 5.44 2.02 5.44 4.87v.97c0 4.87-1.81 9.41-5.44 13.62h-.84c-.56-.15-1.11-.96-1.65-2.44l2.1-7.28-1.69-1c-3.85.31-10.98 4.2-21.37 11.68v.5l27.66 4.87c2.79 2.02 4.19 5.42 4.19 10.22v2.9c0 6.54-4.6 12.23-13.81 17.06-3.62 1.29-7.11 1.93-10.47 1.93h-.9c-9.62 0-15.49-3.9-17.59-11.69v-2.91c0-3.59.98-5.38 2.94-5.38 1.92 6.16 5.41 9.25 10.47 9.25 0 .64 2.1.96 6.28.96 6.21 0 12.21-2.91 18-8.75 0-3.85-8.93-6.29-26.81-7.31-6.41-1.65-9.62-4.07-9.62-7.28 0-7.92 8.66-15.88 25.97-23.88l6.28-.97zm47.44 7.87c2.71 0 4.06 1.12 4.06 3.37v.84c0 3.1-2.41 4.65-7.25 4.65l-9.03.43c-2.71 14.44-4.06 26.85-4.06 37.25-.73 2.25-1.48 3.37-2.25 3.37h-1.37c-1.57 0-2.47-.43-2.72-1.28 1.52-15.97 3.17-28.95 4.97-38.93l-13.57 2.13c-1.27 0-2.02-1.27-2.25-3.81 0-4.23 3.77-6.34 11.31-6.34 4.52-1.12 11.9-1.68 22.15-1.68zm30.09.03c8.9 1.23 13.35 6.55 13.35 15.97 0 12.33-4.87 22.54-14.62 30.62-4.02 2.29-7.61 3.43-10.78 3.43-7.73 0-12.71-4.17-14.94-12.5l-.31-3.88v-1.32c0-13.46 6.15-23.67 18.44-30.63 3.09-1.15 6.04-1.72 8.88-1.72zm-23.18 33.66c3.21 4.87 7.45 7.31 12.72 7.31 8.48 0 14.41-5.03 17.78-15.1l.63-4.75c0-7.08-3.49-11.25-10.47-12.5h-.96c-5.77 0-11.8 5.75-18.09 17.25-1.06 3.46-1.59 6.06-1.59 7.79zm61.78-33.66h4.31c6.61 0 9.91 2.3 9.91 6.9v.44c0 8.06-6.89 15.39-20.69 22v.4c6.9 6.33 12.65 11.08 17.25 14.25v1.28c0 2.23-.71 3.66-2.15 4.31h-1.72l-23.69-16.82-.44 8.62v6.47c-.73 1.43-1.87 2.15-3.43 2.15-1.14 0-2.01-.57-2.59-1.72v-2.6l3.88-33.66c-1.14 0-1.71-.86-1.71-2.57 0-5.19 4.3-8.21 12.91-9.06l8.19-.44zM1006 500.17h.44c14.92-3.84 22.38-8 22.38-12.5v-.44c0-.8-1.43-1.37-4.31-1.72-4.77 0-10.51 1.01-17.22 3.03l-1.28 11.62zm33.07-23.17l9.564 14.5 4.188 3.43c5.29-9.42 8.98-15.117 11.063-17.096h1.905l1.534 1.72c-.21 1.52-6.19 12.186-17.94 32-2.957 5.562-5.124 10.54-6.5 14.94l-1.124.435c-1.79-.84-2.687-2.12-2.687-3.85.104-2.23 3.156-9.2 9.156-20.91-8.65-9.29-12.97-16.84-12.97-22.63 1.6-1.71 2.87-2.56 3.81-2.56zm78.75-.1c8.897 1.23 13.345 6.55 13.345 15.97 0 12.33-4.877 22.54-14.627 30.62-4.02 2.29-7.612 3.437-10.78 3.437-7.73 0-12.707-4.167-14.937-12.5l-.31-3.875v-1.314c0-13.46 6.15-23.668 18.44-30.626 3.08-1.145 6.04-1.72 8.88-1.72zm-23.186 33.652c3.208 4.876 7.448 7.313 12.72 7.313 8.478 0 14.405-5.03 17.78-15.094l.625-4.75c0-7.08-3.49-11.25-10.47-12.5h-.97c-5.77 0-11.81 5.75-18.1 17.25-1.07 3.46-1.6 6.06-1.6 7.79zm45.37-33.65c1.898 0 4.17 3.562 6.815 10.687 5.12 10.5 10.82 19.48 17.09 26.93 2.1-20.56 3.67-32.67 4.69-36.34l1.71-1.28h1.28c.85 0 1.28.58 1.28 1.72-2.56 29.38-4.13 45.05-4.69 47.03l-2.56.85c-4.57 0-12.25-9.68-23.07-29.06l-1.72-1.71-.44 1.28-1.28 19.69v2.57l.432 2.57c-.376 3.42-1.51 5.13-3.407 5.13-1.75-.62-2.75-1.48-3-2.56 2.19-30.79 3.75-46.19 4.69-46.19l2.154-1.28zM474.5 551c1.396 0 2.094 4.833 2.094 14.5l2.812 18.375h.688c0-1.063 2.802-6.76 8.406-17.094.875-6.81 2.51-10.21 4.906-10.21h.688c1.416 0 2.583 5.26 3.5 15.78 1.562 7.19 2.73 11.46 3.5 12.82.75-3.62 4.49-14.3 11.22-32.03.978-1.12 1.915-1.69 2.81-1.69 1.25 0 2.063.56 2.438 1.69 0 1.46-3.5 10.99-10.5 28.6-1.166 4.17-2.218 9.87-3.156 17.1-.75 1.42-1.687 2.13-2.812 2.13-2.125 0-3.75-4.83-4.875-14.5-2.3-9.43-3.7-14.56-4.22-15.37l-7 13.66c-1.17 2.67-2.22 7.22-3.16 13.66-.63 1.04-1.55 1.75-2.78 2.13-1.96 0-3.6-7.39-4.91-22.19-1.88-10.45-2.81-18.85-2.81-25.18 0-.85 1.05-1.56 3.15-2.12zm76.438-.094c1.48.396 2.218 1.406 2.218 3.032v.406c-2.083 30.77-3.562 46.156-4.437 46.156l-.47.438h-1.32c-1.54 0-2.59-.72-3.13-2.157.58-4.1.87-9.85.87-17.25h-.44l-18.69 4.32-1.31 1.72v8.19c0 2.44-.9 4.17-2.69 5.19h-.88c-1.67 0-2.71-.72-3.13-2.16 2.06-31.06 5.03-46.59 8.9-46.59h.87l1.34 1.75c-2.08 10.31-3.13 17.93-3.13 22.85 13.65-1.79 20.47-3.94 20.47-6.46l1.78-18.12 3.13-1.28zm8.843.094l9.57 14.5 4.19 3.438c5.3-9.417 8.98-15.115 11.07-17.094h1.91l1.53 1.718c-.2 1.52-6.18 12.188-17.93 32-2.96 5.563-5.12 10.542-6.5 14.938l-1.12.438c-1.79-.834-2.69-2.115-2.69-3.844.11-2.23 3.16-9.198 9.16-20.907-8.64-9.29-12.97-16.833-12.97-22.625 1.61-1.708 2.88-2.562 3.81-2.562zm55.41 0h1.85c2.32 0 3.7 1.865 4.16 5.594v.875c0 5.64-2.13 9.37-6.4 11.18l-.75-.88v-.44l1.91-7.32-1.5-.84c-6.23 0-13.63 5.88-22.22 17.65-2.04 3.56-3.06 6.28-3.06 8.15v.44c0 4.58 2.77 6.87 8.32 6.87h.34c5.34 0 11.24-1.43 17.72-4.28h1.16c1 .46 1.5 1.46 1.5 3v1.72c-5.33 5.46-11.6 8.19-18.81 8.19-9.81-1.02-14.72-5.9-14.72-14.63v-.88c0-11.15 7.91-22.05 23.72-32.72 3-1.15 5.27-1.72 6.82-1.72zm39.38-.094c1.48.396 2.22 1.406 2.22 3.032v.406c-2.08 30.77-3.56 46.156-4.43 46.156l-.47.438h-1.31c-1.54 0-2.58-.72-3.12-2.157.59-4.1.88-9.85.88-17.25h-.43l-18.68 4.32-1.31 1.72v8.19c0 2.44-.89 4.17-2.69 5.19h-.87c-1.66 0-2.7-.72-3.12-2.16 2.06-31.06 5.03-46.59 8.9-46.59h.87l1.34 1.75c-2.08 10.31-3.12 17.93-3.12 22.85 13.65-1.79 20.47-3.94 20.47-6.46l1.78-18.12 3.13-1.28zm28.28 0h4.32c6.61 0 9.91 2.302 9.91 6.907v.437c0 8.063-6.89 15.396-20.69 22v.406c6.9 6.334 12.65 11.084 17.25 14.25v1.282c0 2.23-.72 3.666-2.15 4.312h-1.72l-23.68-16.813-.43 8.625v6.47c-.73 1.437-1.87 2.155-3.44 2.155-1.14 0-2.01-.572-2.59-1.718v-2.6l3.88-33.66c-1.14 0-1.72-.86-1.72-2.57 0-5.19 4.3-8.21 12.91-9.06l8.19-.44zm-15.06 23.282h.44c14.92-3.834 22.38-8 22.38-12.5v-.438c0-.792-1.44-1.365-4.31-1.72-4.77 0-10.51 1.012-17.21 3.033l-1.28 11.625zm39.31-23.408h2.94c.98 0 1.47.578 1.47 1.72-2.29 18.71-3.44 31.69-3.44 38.94v4.75c-.64 3.168-2.27 4.75-4.87 4.75h-.96l-1.97-1.72c1.32-19.622 2.95-35.195 4.91-46.72l1.94-1.72zm33.81.22h.66c2.88.358 4.31 1.75 4.31 4.19v.845c0 4.21-1.44 8.126-4.31 11.75h-.65c-.46-.124-.91-.822-1.34-2.092l1.69-6.28-1.31-.844c-3.06.27-8.69 3.62-16.88 10.06v.4l21.81 4.22c2.21 1.75 3.31 4.68 3.31 8.81v2.5c0 5.64-3.63 10.54-10.9 14.68-2.85 1.12-5.61 1.69-8.28 1.69h-.69c-7.58 0-12.21-3.36-13.87-10.06v-2.53c0-3.09.77-4.63 2.31-4.63 1.52 5.33 4.28 8 8.28 8 0 .54 1.66.81 4.97.81 4.9 0 9.64-2.51 14.22-7.53 0-3.34-7.05-5.44-21.16-6.32-5.08-1.42-7.62-3.51-7.62-6.28 0-6.81 6.84-13.67 20.5-20.56l4.97-.85zm45.82-.12c2.71 0 4.06 1.124 4.06 3.374v.845c0 3.1-2.41 4.65-7.25 4.65l-9.03.44c-2.7 14.43-4.06 26.85-4.06 37.25-.73 2.25-1.48 3.37-2.25 3.37h-1.37c-1.56 0-2.47-.43-2.72-1.29 1.52-15.98 3.18-28.96 4.97-38.94l-13.56 2.12c-1.27 0-2.02-1.27-2.25-3.82 0-4.23 3.77-6.34 11.32-6.34 4.52-1.13 11.91-1.69 22.16-1.69zm22.19.03h.81c1.34.73 2 1.865 2 3.407v.875c0 9.25.81 20.083 2.44 32.5h.41c8.92-23.376 14.17-35.063 15.75-35.063h1.22c1.19 0 3.08 8.12 5.66 24.37 2.42 8.33 3.63 15.31 3.63 20.94-.79 2-2 3-3.62 3-1.08 0-2.56-6.99-4.44-20.97l-3.25-13.66c-2.31 3.7-6.49 13.39-12.53 29.06-1.73 1.77-3.21 2.77-4.44 3-3.5 0-5.25-4.71-5.25-14.13l-2-17.94h-.4l-12.12 27.34c-.73 4.56-1.4 6.84-2.03 6.84h-1.59l-1.62-1.69v-2.16c0-3.83 3.37-12.09 10.1-24.78 4.79-13.34 7.89-20.18 9.28-20.53l2.03-.44zm54.38.094h1.5c2.07 0 4.68 9.53 7.85 28.595 2.5 9 3.75 15.11 3.75 18.34-.52 1.71-1.52 2.56-3 2.56-1.92 0-3.29-4.55-4.12-13.66l-.37-.41h-.37c-3.25.04-10.1 2.03-20.56 5.97-1 5.68-2.62 8.53-4.87 8.53-1.5-.59-2.25-1.72-2.25-3.41 0-3.29 6.87-18.38 20.6-45.25l1.88-1.28zm-.75 11.94c-3 5.415-5.75 11.113-8.25 17.092h2.63c2.54 0 5.79-.572 9.75-1.717l-3.38-15.38h-.75zM906.07 551h.652c2.87.354 4.31 1.75 4.31 4.188v.843c0 4.21-1.44 8.13-4.31 11.75h-.66c-.46-.12-.907-.82-1.344-2.09l1.68-6.28-1.31-.84c-3.07.27-8.69 3.63-16.88 10.06v.41l21.81 4.22c2.21 1.75 3.31 4.69 3.31 8.82v2.5c0 5.65-3.635 10.54-10.906 14.69-2.85 1.13-5.61 1.69-8.28 1.69h-.68c-7.585 0-12.21-3.35-13.876-10.06v-2.53c0-3.08.77-4.62 2.31-4.62 1.52 5.34 4.28 8 8.28 8 0 .54 1.656.81 4.97.81 4.894 0 9.634-2.51 14.22-7.53 0-3.33-7.055-5.43-21.16-6.31-5.084-1.41-7.625-3.51-7.625-6.28 0-6.81 6.83-13.67 20.5-20.56l4.97-.84zm16.87 39.28c2.79 0 4.53 1.7 5.21 5.095 0 3.396-2.44 5.25-7.31 5.563-2.44-.917-3.66-2.46-3.66-4.625v-.47c.96-3.708 2.87-5.562 5.75-5.562zM965.5 551h1.844c2.312 0 3.698 1.865 4.156 5.594v.875c0 5.64-2.135 9.37-6.406 11.18l-.75-.88v-.44l1.906-7.32-1.5-.84c-6.23 0-13.635 5.88-22.22 17.65-2.04 3.56-3.06 6.28-3.06 8.15v.44c0 4.58 2.77 6.87 8.31 6.87h.345c5.333 0 11.24-1.43 17.72-4.28H967c1 .46 1.5 1.46 1.5 3v1.72c-5.333 5.46-11.604 8.19-18.813 8.19-9.812-1.02-14.718-5.9-14.718-14.63v-.88c0-11.15 7.9-22.05 23.71-32.72 3-1.15 5.27-1.72 6.81-1.72zm33.313-.094c8.895 1.23 13.343 6.552 13.343 15.97 0 12.332-4.875 22.54-14.625 30.624-4.02 2.292-7.61 3.438-10.78 3.438-7.73 0-12.7-4.167-14.93-12.5l-.31-3.875v-1.313c0-13.458 6.15-23.667 18.44-30.625 3.08-1.146 6.04-1.72 8.88-1.72zm-23.188 33.657c3.208 4.875 7.448 7.312 12.72 7.312 8.478 0 14.405-5.03 17.78-15.094l.625-4.75c0-7.08-3.49-11.25-10.47-12.5h-.967c-5.77 0-11.803 5.75-18.094 17.25-1.07 3.46-1.6 6.06-1.6 7.79zm57.938-33.657h.812c1.333.73 2 1.865 2 3.407v.875c0 9.25.812 20.083 2.438 32.5h.406c8.91-23.376 14.16-35.063 15.75-35.063h1.21c1.19 0 3.07 8.125 5.65 24.375 2.41 8.333 3.62 15.312 3.62 20.938-.8 2-2 3-3.63 3-1.09 0-2.57-6.99-4.44-20.97l-3.25-13.655c-2.32 3.708-6.49 13.395-12.53 29.062-1.73 1.77-3.21 2.77-4.44 3-3.5 0-5.25-4.708-5.25-14.125l-2-17.938h-.41l-12.13 27.344c-.73 4.563-1.41 6.844-2.03 6.844h-1.6l-1.62-1.688v-2.156c0-3.833 3.36-12.093 10.09-24.78 4.79-13.334 7.88-20.178 9.28-20.532l2.03-.438zM536.957 185c6.938 0 10.406 2.953 10.406 8.86v2.18c0 8.108-6.187 12.163-18.562 12.163l-23.13 1.125c-6.94 37.688-10.4 70.078-10.4 97.172-1.87 5.906-3.79 8.86-5.76 8.86H486c-3.983 0-6.303-1.102-6.96-3.305 3.89-41.72 8.133-75.61 12.727-101.672l-34.734 5.554c-3.235 0-5.157-3.304-5.766-9.914 0-11.062 9.65-16.593 28.97-16.593 11.572-2.953 30.49-4.43 56.74-4.43zm79.664 17.79c3.33.89 5 3.163 5 6.82v.913c-4.68 69.235-8.01 103.852-9.98 103.852l-1.05.984h-2.95c-3.46 0-5.81-1.62-7.03-4.86 1.32-9.24 1.97-22.17 1.97-38.82h-.98l-42.04 9.7-2.95 3.87v18.42c0 5.48-2.01 9.37-6.05 11.67h-1.96c-3.75 0-6.09-1.62-7.03-4.86 4.64-69.89 11.32-104.84 20.04-104.84h1.97l3.02 3.93c-4.69 23.2-7.03 40.33-7.03 51.4 30.7-4.03 46.05-8.88 46.05-14.56l4.01-40.78 7.03-2.89zm86.49.21c3.24.703 4.85 3.164 4.85 7.383-1.03 7.97-4.24 11.953-9.63 11.953-35.34 0-53.01 4.922-53.01 14.766l-.98 8.296v4.57c23.07-5.53 38.82-8.296 47.25-8.296h1.9c3.24 1.406 4.85 4.476 4.85 9.21 0 6.75-4.5 10.126-13.5 10.126-29.58 3.844-44.36 8.46-44.36 13.85l-.91 9.212v3.657c0 5.53 3.52 8.6 10.55 9.21 11.07-1.218 24.89-3.984 41.49-8.296h2.89c2.58.99 3.87 3.14 3.87 6.47v2.75c0 7.55-16.07 13.38-48.23 17.51h-2.88c-11.57 0-18-7.36-19.26-22.08 0-10.82 2.25-31.4 6.75-61.73l-1.9-5.55c0-12.47 19.27-19.83 57.8-22.08l12.51-.92zm155.04-18c3.85.797 5.77 3.656 5.77 8.578-1.26 9.235-5.13 13.852-11.6 13.852-42.47 0-63.7 5.695-63.7 17.086l-1.12 9.632v5.344c27.66-6.422 46.57-9.633 56.75-9.633h2.32c3.85 1.59 5.77 5.15 5.77 10.68 0 7.83-5.39 11.74-16.17 11.74-35.53 4.45-53.29 9.79-53.29 16.03L781.73 279v4.29c0 6.42 4.24 9.98 12.725 10.68 13.265-1.405 29.86-4.616 49.78-9.63h3.445c3.092 1.17 4.64 3.68 4.64 7.52v3.166c0 8.765-19.29 15.54-57.87 20.32h-3.514c-13.92 0-21.63-8.555-23.13-25.665 0-12.56 2.698-36.42 8.09-71.57l-2.32-6.39c0-14.49 23.18-23.04 69.54-25.66l15.04-1.05zm21.1 17.79c4.27 0 9.38 8.015 15.33 24.046 11.54 23.625 24.36 43.828 38.46 60.61 4.74-46.267 8.25-73.524 10.55-81.774l3.87-2.883h2.89c1.92 0 2.88 1.28 2.88 3.86-5.77 66.09-9.28 101.36-10.55 105.82l-5.76 1.9c-10.26 0-27.56-21.8-51.89-65.39l-3.86-3.87-.98 2.88-2.88 44.29v5.76l.99 5.76c-.84 7.69-3.4 11.53-7.66 11.53-3.94-1.41-6.19-3.33-6.75-5.77 4.92-69.29 8.44-103.93 10.55-103.93l4.85-2.88zm117.14 0h4.29c20.39 0 32.89 8.085 37.48 24.257l.85 7.734c0 32.21-23.86 58.74-71.58 79.6l-4.22.99h-.91c-1.26 0-2.39-2.27-3.37-6.82l8.51-83.46c-3.42 0-5.13-.96-5.13-2.88v-1.97c0-10.31 4.55-15.47 13.64-15.47l20.46-1.96zm-17.01 20.39c-5.11 33.187-7.66 55.5-7.66 66.937v4.852c35.77-17.86 53.65-34.69 53.65-50.49v-.92c0-9.1-2.55-13.64-7.66-13.64-6.33-4.5-16.54-6.75-30.65-6.75h-7.66zm106.17-38.04c2.82 1.313 4.22 2.883 4.22 4.712-13.36 43.03-20.04 70.29-20.04 81.773-3.79 4.406-6.98 6.61-9.56 6.61-4.21-1.5-6.32-3.376-6.32-5.626 6.66-58.32 15.47-87.47 26.44-87.47h5.28zm-24.96 105.54c6.66 1.265 9.99 4.734 9.99 10.406V302c-2.67 8.906-9.07 13.36-19.19 13.36-5.01 0-8.04-3.47-9.07-10.407 0-8.016 6.1-12.773 18.28-14.273z" fill="#FFF"/></g></svg>