<svg width="1540" height="820" viewBox="0 0 1540 820" xmlns="http://www.w3.org/2000/svg" xmlns:xlink="http://www.w3.org/1999/xlink"><title>story04</title><defs><path id="a" d="M0 0h1540v820H0z"/><mask id="b" x="0" y="0" width="1540" height="820" fill="#fff"><use xlink:href="#a"/></mask></defs><g fill="none" fill-rule="evenodd"><g transform="translate(0 -1)"><use stroke="#000" mask="url(#b)" stroke-width="8" fill="#402412" xlink:href="#a"/><path stroke="#000" stroke-width="4" fill="#371F0F" d="M235 132h1066v556H235z"/><path d="M4 2l229.457 129.306c0 .384.523.694 1.174.694h1065.19c.65 0 1.18-.31 1.18-.694L1538 2H4z" stroke="#000" stroke-width="4" stroke-linejoin="bevel" fill="#28170B"/><path d="M4 818l229.457-129.306c0-.384.523-.694 1.174-.694h1065.19c.65 0 1.18.31 1.18.694L1538 818H4z" stroke="#000" stroke-width="4" stroke-linejoin="bevel" fill="#2B2200"/><path stroke="#000" stroke-width="4" fill="#00002B" d="M860 190h380v265H860z"/><path fill="#FFE680" d="M942.89 256.34l-11.36-10.833-13.362 8.236 6.795-14.15L913 229.428l15.558 2.088 5.97-14.518 2.82 15.442L953 233.63l-13.815 7.455m99.815 87.24l-15.566-1.807-5.697 14.598-3.093-15.362-15.644-.906 13.654-7.69-3.97-15.158 11.53 10.61 13.19-8.462-6.527 14.247 12.123 9.93m146.11 74.22l-14.287-7.04-10.435 12.034 2.28-15.77-14.668-6.2 15.696-2.71 1.37-15.87 7.42 14.09 15.514-3.6-11.11 11.41 8.22 13.64m-239.405 24.8l-7.184-14.17-15.52 3.36 11.25-11.21-7.98-13.72 14.14 7.23L950.99 387l-2.51 15.68 14.53 6.41-15.69 2.457-1.607 15.796"/><path d="M1157.257 236c17.555 20.147 14.346 51.676-7.168 70.422-21.52 18.745-53.19 17.608-70.74-2.54-.12-.134-.24-.27-.35-.405 0 0 28.59 10.445 57.93-14.61 24.92-21.294 20.32-52.867 20.32-52.867z" stroke="#222" stroke-width="3.711" fill="#E6E6E6"/></g><path d="M681.314 608.91c-157.66 4.084-302.21-6.206-472.588-1.948-16.872-8.49 2.81 39.292 7.603 87.354 163.64-4.894 311.1 5.115 464.45-2.346l.52-83.06z" stroke="#000" stroke-width="3" fill="#A0892C"/><path d="M678.46 742.832c-1.9-51.49-18.45-101.745-4.067-152.316-2.893-5.38 36.51-4.053 28.573 1.86-15.587 49.78 2.557 99.932 2.606 149.724l-27.112.732z" stroke="#000" stroke-width="3" fill="#A0892C"/><path d="M259.88 544.245c-94.898-.59-100.38 68.652-1.528 73.61 121.75 6.104 110.634-72.934 1.527-73.61z" stroke="#050202" stroke-width="2.964" fill="#806600"/><path d="M192.78 742.91c-1.852-100.058-17.968-197.72-3.96-295.994-2.82-10.457 35.556-7.877 27.827 3.613-15.18 96.73 2.49 194.19 2.537 290.95l-26.404 1.42z" stroke="#000" stroke-width="3" fill="#A0892C"/><path d="M301.32 428.677l6.42 25.512-11.185 109.05-43.13-15.26c14.296-53.08 19.928-96.8 47.896-119.31z" stroke="#050202" stroke-width="4.067" fill="#ACF"/><path d="M297.973 390.95c0 18.873 6.68 36.972 18.57 50.316 11.893 13.345 28.02 20.842 44.838 20.842 35.02 0 63.41-31.858 63.41-71.157 0-39.29-28.39-71.15-63.41-71.15-16.81 0-32.94 7.5-44.83 20.84-11.89 13.35-18.57 31.45-18.57 50.32z" stroke="#000" stroke-width="4.067" fill="#502D16"/><path d="M425.826 428.677l-6.42 25.512 11.186 109.05 43.13-15.26c-14.296-53.08-19.93-96.8-47.896-119.31z" stroke="#050202" stroke-width="4.067" fill="#ACF"/><path d="M362.924 752.678c0 4.737 3.45 9.28 9.588 12.628 6.14 3.35 14.465 5.23 23.147 5.23 8.68 0 17-1.88 23.14-5.23 6.14-3.35 9.59-7.89 9.59-12.628 0-9.863-14.66-17.858-32.74-17.858-18.08 0-32.74 7.995-32.74 17.858zm-77.664 2.552c0 4.736 3.45 9.278 9.59 12.627 6.138 3.35 14.464 5.23 23.146 5.23 8.68 0 17.007-1.88 23.146-5.23 6.14-3.35 9.588-7.89 9.588-12.627 0-9.863-14.656-17.86-32.734-17.86-18.08 0-32.735 7.997-32.735 17.86z" stroke="#050202" stroke-width="4.067" fill="#2B1100"/><path d="M295.963 578.487c-4.52 57.767-15.687 146.038-4.857 157.967 34.48 17.88 114.923 24.43 141.655-10.637 13.08-30.44-8.96-96.993-5.87-147.33 16.45-98.954 9.4-187.6-66.89-188.91-67.22-1.153-81.38 87.4-64.03 188.91z" stroke="#050202" stroke-width="3.753" fill="#06F"/><path d="M314.774 372.775c0 15.19 4.973 29.76 13.825 40.5 8.85 10.74 20.85 16.776 33.37 16.776 12.52 0 24.52-6.03 33.37-16.77 8.85-10.74 13.82-25.31 13.82-40.5 0-15.19-4.98-29.76-13.83-40.5-8.85-10.74-20.86-16.77-33.38-16.77-12.52 0-24.53 6.04-33.38 16.78-8.85 10.74-13.83 25.31-13.83 40.5z" stroke="#050202" stroke-width="3.965" fill="#E6C2AA"/><path d="M372.066 360.582c0 2.366 1.93 4.284 4.31 4.284 2.383 0 4.313-1.918 4.313-4.284 0-1.136-.46-2.226-1.27-3.03-.81-.803-1.91-1.254-3.05-1.254s-2.24.45-3.05 1.254c-.81.804-1.27 1.894-1.27 3.03zm-27.42.49c0 2.367 1.93 4.285 4.31 4.285s4.312-1.918 4.312-4.284c0-1.137-.454-2.226-1.263-3.03-.81-.803-1.905-1.255-3.05-1.255-1.142 0-2.24.452-3.048 1.255-.808.804-1.262 1.893-1.262 3.03z" fill="#000"/><path d="M384.554 425.967c-12.528 8.722-41.714 5.273-47.626-.792-25.434 67.066 3.47 324.16 1.54 324.16 12.987 1.184 32.404 2.142 42.36.422-2.786.107 25.683-251.68 3.726-323.79z" stroke="#000" stroke-width="3.953" fill="#ACF"/><path d="M384.813 386.182c-5.976 5.79-43.623 2.11-46.878-.65-3.254-2.758 14.83 22.454 24.174 22.4 9.34-.056 28.68-27.54 22.7-21.75z" stroke="#000" stroke-width="4.067" fill="#FFD5D5"/><path d="M335.504 300.532c-34.89 5.744-47.746 87.934-37.672 141.127 1.79 8.45 13.22 10.25 19.913 6.48 5.923-2.58 7.118-9.25 7.445-14.97-.37-9.8-10.92-62.84 3.65-88.05 14.57-25.22 64.72-19.61 72.8 3.58 8.082 23.19-5.26 86.44 2.288 101.04 7.035 8.76 24.268 4.58 25.395-6.92-2.222-16.83 5.464-84.41 2.82-98.23-2.64-13.82-15.85-35.62-27.21-39.89-26.006-9.78-34.54-9.94-69.43-4.19z" stroke="#050202" stroke-width="3.962" fill="#ACF"/><path d="M419.07 318.358c2.506 4.112 8.802 9.352 8.238 14.38l-121.484.572c1.896-4.5 2.54-9.2 8.243-15.923l105.002.97z" stroke="#000" stroke-width="3.956" fill="#06F"/><path d="M469.534 550.98c-2.03 6.303-.513 10.912-5.352 25.92-4.708 14.6-6.11 28.73-20.564 25.005-8.057-2.076-15.73-17.484-6.95-23.418-5.033 3.026-13.082 10.957-15.66 8.195-3.766-4.04-3.993-12.264 6.233-17.63 2.5-1.31 1.32-2.184 3.42-3.117.32-.632 3.34-2.657 3.96-3.017 10.71-6.16 29.28-10.598 34.92-11.937zm-211.92 0c2.03 6.303.512 10.912 5.35 25.92 4.71 14.6 6.11 28.73 20.565 25.005 8.05-2.076 15.73-17.484 6.95-23.418 5.03 3.026 13.08 10.957 15.65 8.195 3.77-4.04 3.99-12.264-6.23-17.63-2.5-1.31-1.32-2.184-3.42-3.117-.32-.632-3.33-2.657-3.96-3.017-10.71-6.16-29.28-10.598-34.92-11.937z" stroke="#050202" stroke-width="4.067" fill="#E6C2AA"/><g transform="translate(1049 303)"><ellipse stroke="#000" stroke-width="3.5" fill="#FFF" transform="rotate(-135.477 290.066 118.666)" cx="290.066" cy="118.666" rx="75.453" ry="92.406"/><ellipse stroke="#000" stroke-width="3.5" fill="#FFF" transform="rotate(-44.523 119.78 118.666)" cx="119.78" cy="118.666" rx="75.453" ry="92.406"/><path d="M143.79 135.696l6.417 25.512-11.185 109.052L95.892 255c14.297-53.077 19.93-96.795 47.897-119.304z" stroke="#050202" stroke-width="4" fill="#FFF"/><ellipse stroke="#000" stroke-width="4" fill="#502D16" transform="matrix(-1 0 0 1 407.697 0)" cx="203.848" cy="97.97" rx="63.408" ry="71.157"/><path d="M268.294 135.696l-6.42 25.512L273.06 270.26 316.19 255c-14.296-53.077-19.93-96.795-47.896-119.304z" stroke="#050202" stroke-width="4" fill="#FFF"/><ellipse stroke="#050202" stroke-width="4" fill="#E6C2AA" transform="matrix(-1 0 0 1 476.253 0)" cx="238.126" cy="459.698" rx="32.734" ry="17.858"/><ellipse stroke="#050202" stroke-width="4" fill="#E6C2AA" transform="matrix(-1 0 0 1 320.927 0)" cx="160.463" cy="462.249" rx="32.734" ry="17.858"/><path d="M138.43 285.507c-4.518 57.766-15.686 146.037-4.856 157.966 34.48 17.88 114.923 24.43 141.655-10.637 13.07-30.44-8.97-96.993-5.88-147.33 16.44-98.954 9.39-187.6-66.89-188.91-67.23-1.152-81.39 87.4-64.04 188.91z" stroke="#000" stroke-width="3.691" fill="#FFF"/><path d="M231.914 119.72c-5.976 5.79-54.378.794-57.633-1.965-3.25-2.76 13.11 37.9 29.14 38.02 15.38.113 34.47-41.845 28.5-36.055z" stroke="#000" stroke-width="4" fill="#E6C2AA"/><ellipse stroke="#050202" stroke-width="3.9" fill="#E6C2AA" transform="matrix(-1 0 0 1 408.8 0)" cx="204.356" cy="79.794" rx="47.201" ry="57.276"/><ellipse fill="#000" transform="matrix(-1 0 0 1 440.33 0)" cx="221.484" cy="66.338" rx="4.312" ry="4.284"/><ellipse fill="#000" transform="matrix(-1 0 0 1 382.946 0)" cx="192.792" cy="66.829" rx="4.312" ry="4.284"/><path d="M227.28 93.2c-5.975 5.79-43.622 2.11-46.877-.648-3.254-2.76 14.83 22.454 24.174 22.4 9.346-.056 28.68-27.54 22.704-21.75z" stroke="#000" stroke-width="4" fill="#FFD5D5"/><path d="M177.972 7.55c-34.89 5.746-47.746 87.935-37.672 141.128 1.79 8.45 13.22 10.257 19.913 6.488 5.923-2.576 7.118-9.25 7.445-14.965-.37-9.79-10.92-62.84 3.65-88.05 14.57-25.21 64.72-19.61 72.8 3.59 8.082 23.2-5.26 86.45 2.288 101.05 7.035 8.76 24.268 4.59 25.395-6.92-2.22-16.82 5.47-84.4 2.83-98.22-2.64-13.82-15.85-35.62-27.21-39.89-26-9.77-34.54-9.93-69.42-4.19z" stroke="#050202" stroke-width="3.897" fill="#FC0"/><path d="M136.872 270.04l135.975.167c-1.713 6.323-.9 15.35-.386 23.108l-135.07-.332-.51-22.942z" stroke="#000" stroke-width="3.496" fill="#FC0"/><path d="M312.002 258c-2.03 6.303-.514 10.91-5.353 25.92-4.71 14.6-6.11 28.73-20.57 25.004-8.06-2.076-15.73-17.484-6.95-23.417-5.04 3.026-13.08 10.956-15.66 8.194-3.77-4.03-4-12.26 6.23-17.62 2.49-1.31 1.32-2.18 3.41-3.12.31-.63 3.33-2.65 3.96-3.02 10.71-6.16 29.27-10.6 34.91-11.94zm-211.922 0c2.032 6.303.514 10.91 5.353 25.92 4.708 14.6 6.11 28.73 20.564 25.004 8.057-2.076 15.73-17.484 6.95-23.417 5.033 3.026 13.082 10.956 15.658 8.194 3.768-4.03 3.995-12.26-6.23-17.62-2.5-1.31-1.32-2.18-3.42-3.12-.316-.63-3.332-2.65-3.96-3.02-10.71-6.16-29.274-10.6-34.914-11.93z" stroke="#050202" stroke-width="4" fill="#E6C2AA"/></g><path d="M1002.11 345.704l175.512 41.954-82.508-125.127c7.7-15.63 11.85-32.27 11.85-49.53 0-91.12-115.735-165-258.5-165-142.766 0-258.5 73.88-258.5 165s115.734 165 258.5 165c57.542 0 110.693-12 153.645-32.29zM571.736 471.358l-136.74-43.924 70.816 85.068C495.646 524.49 490 537.754 490 551.706c0 53.572 83.248 97 185.94 97 102.69 0 185.937-43.428 185.937-97s-83.247-97-185.938-97c-38.62 0-74.48 6.14-104.21 16.652z" stroke="#000" stroke-width="4" fill="#FFF"/><path d="M727.07 98c.96.23 1.438.812 1.438 1.75v.25c-1.344 17.813-2.307 26.72-2.89 26.72l-.282.25h-.875c-1 0-1.67-.418-2.01-1.25.39-2.376.58-5.704.58-9.986h-.29l-12.12 2.5-.87 1v4.735c0 1.41-.58 2.41-1.73 3h-.57c-1.07 0-1.74-.42-2.02-1.25 1.34-17.98 3.27-26.97 5.78-26.97h.58l.86 1c-1.34 5.97-2.02 10.38-2.02 13.23 8.86-1.04 13.28-2.29 13.28-3.75l1.16-10.49 2.03-.75zm19.625 4c.72.156 1.078.703 1.078 1.64-.23 1.77-.942 2.657-2.14 2.657-7.854 0-11.78 1.094-11.78 3.28l-.22 1.845v1.016c5.125-1.23 8.625-1.844 10.5-1.844h.422c.718.312 1.078.995 1.078 2.047 0 1.5-1 2.25-3 2.25-6.573.86-9.86 1.88-9.86 3.08l-.203 2.05v.81c0 1.23.782 1.91 2.344 2.05 2.458-.27 5.53-.88 9.22-1.84h.64c.572.22.86.7.86 1.44v.61c0 1.68-3.574 2.98-10.72 3.89h-.64c-2.573 0-4-1.63-4.282-4.9 0-2.4.5-6.98 1.5-13.72l-.422-1.23c0-2.77 4.282-4.4 12.844-4.9l2.78-.2zm15.953 0c.698 0 1.047 2.417 1.047 7.25l1.407 9.188h.343c0-.532 1.4-3.38 4.203-8.547.438-3.4 1.256-5.11 2.454-5.11h.343c.71 0 1.292 2.63 1.75 7.9.782 3.6 1.365 5.73 1.75 6.41.375-1.81 2.245-7.15 5.61-16.01.49-.56.958-.84 1.406-.84.63 0 1.04.28 1.22.85 0 .73-1.75 5.5-5.25 14.3-.58 2.08-1.11 4.93-1.57 8.54-.37.71-.84 1.06-1.4 1.06-1.06 0-1.87-2.41-2.43-7.25-1.14-4.72-1.85-7.28-2.11-7.69l-3.5 6.83c-.58 1.34-1.11 3.61-1.58 6.83-.31.52-.77.88-1.39 1.06-.98 0-1.79-3.69-2.45-11.09-.94-5.23-1.41-9.43-1.41-12.59 0-.43.53-.78 1.58-1.06zm26.547-.11h1.47c.49 0 .733.287.733.86-1.145 9.354-1.718 15.844-1.718 19.47v2.374c-.323 1.583-1.136 2.375-2.438 2.375h-.484l-.985-.86c.657-9.82 1.474-17.6 2.454-23.36l.968-.86zm6.875.063h.22c.676 0 1.244.35 1.702 1.047-.99 7.208-1.698 13.656-2.125 19.344l12.188-2.516.422.625v1.266c0 1.91-4.417 3.66-13.25 5.25-1.573-.29-2.36-.78-2.36-1.47 1.167-15.42 2.02-23.13 2.563-23.13l.64-.42zm16.14 0h.22c.677 0 1.244.35 1.703 1.047-.99 7.208-1.698 13.656-2.125 19.344l12.187-2.516.422.625v1.266c0 1.91-4.416 3.66-13.25 5.25-1.573-.29-2.36-.78-2.36-1.47 1.167-15.42 2.022-23.13 2.563-23.13l.64-.42zm35.83.047c4.218 0 6.327 1.437 6.327 4.313v.64c0 2.01-.953 3.948-2.86 5.813v.218c3.136.948 4.704 2.526 4.704 4.735v.85c0 3.6-3.54 6.25-10.62 7.95l-3.48.44h-2.03c-1.09 0-1.64-.58-1.64-1.72v-.22l1.64-17.66c-.68 0-1.03-.14-1.03-.42v-1.3c0-2.44 3-3.66 9-3.66zm-5.938 9.688h.218c6.396 0 9.594-1.438 9.594-4.313-1.052-.708-2.823-1.063-5.312-1.063h-2.454c-1.083 0-1.625.5-1.625 1.5l-.42 3.876zm-.407 4.093l-.406 6.88 2.04.44.2-.22h1.01c5.73-.75 8.59-2.11 8.59-4.07-1.89-2.01-4.82-3.01-8.8-3.01h-.82l-.2-.22-.21.22h-1.44zM873.992 102c.72.156 1.078.703 1.078 1.64-.23 1.77-.942 2.657-2.14 2.657-7.855 0-11.782 1.094-11.782 3.28l-.218 1.845v1.016c5.125-1.23 8.625-1.844 10.5-1.844h.422c.718.312 1.078.995 1.078 2.047 0 1.5-1 2.25-3 2.25-6.573.86-9.86 1.88-9.86 3.08l-.203 2.05v.81c0 1.23.78 1.91 2.344 2.05 2.46-.27 5.54-.88 9.22-1.84h.64c.58.22.86.7.86 1.44v.61c0 1.68-3.57 2.98-10.72 3.89h-.64c-2.57 0-4-1.63-4.28-4.9 0-2.4.5-6.98 1.5-13.72l-.42-1.23c0-2.77 4.28-4.4 12.85-4.9l2.78-.2zm29.64 0h.923c1.156 0 1.85.932 2.078 2.797v.437c0 2.823-1.068 4.688-3.203 5.594l-.375-.437v-.21l.953-3.65-.75-.42c-3.115 0-6.818 2.95-11.11 8.83-1.02 1.78-1.53 3.14-1.53 4.08v.22c0 2.29 1.385 3.44 4.155 3.44h.172c2.667 0 5.62-.71 8.86-2.14h.578c.5.23.75.73.75 1.5v.86c-2.667 2.73-5.802 4.1-9.406 4.1-4.907-.51-7.36-2.95-7.36-7.31v-.44c0-5.57 3.953-11.02 11.86-16.36 1.5-.57 2.635-.86 3.406-.86zm12.64 0h.75c1.033 0 2.34 4.766 3.923 14.297 1.25 4.5 1.875 7.557 1.875 9.172-.26.85-.76 1.28-1.5 1.28-.958 0-1.646-2.28-2.062-6.83l-.188-.21h-.187c-1.625.02-5.052 1.01-10.28 2.98-.5 2.84-1.314 4.26-2.44 4.26-.75-.3-1.124-.86-1.124-1.71 0-1.65 3.43-9.19 10.29-22.63l.93-.64zm-.374 5.97c-1.5 2.707-2.875 5.556-4.125 8.546h1.313c1.27 0 2.896-.287 4.875-.86l-1.68-7.687h-.37zm11.735-6.017h.22c.676 0 1.243.35 1.702 1.047-.99 7.208-1.698 13.656-2.125 19.344l12.187-2.516.422.625v1.266c0 1.91-4.42 3.66-13.25 5.25-1.58-.29-2.36-.78-2.36-1.47 1.16-15.42 2.02-23.13 2.56-23.13l.64-.42zm16.14 0h.22c.676 0 1.244.35 1.702 1.047-.99 7.208-1.698 13.656-2.125 19.344l12.188-2.516.422.625v1.266c0 1.91-4.417 3.66-13.25 5.25-1.573-.29-2.36-.78-2.36-1.47 1.167-15.42 2.02-23.13 2.563-23.13l.64-.42zm29.64.047c.72.156 1.08.703 1.08 1.64-.23 1.77-.944 2.657-2.14 2.657-7.856 0-11.783 1.094-11.783 3.28l-.218 1.845v1.016c5.125-1.23 8.625-1.844 10.5-1.844h.42c.72.312 1.08.995 1.08 2.047 0 1.5-1 2.25-3 2.25-6.573.86-9.86 1.88-9.86 3.08l-.203 2.05v.81c0 1.23.78 1.91 2.34 2.05 2.46-.27 5.53-.88 9.22-1.84h.64c.57.22.86.7.86 1.44v.61c0 1.68-3.58 2.98-10.72 3.89h-.64c-2.58 0-4-1.63-4.28-4.9 0-2.4.5-6.98 1.5-13.72l-.42-1.23c0-2.77 4.28-4.4 12.84-4.9l2.78-.2zm9.423-.047h.953c4.53 0 7.3 1.797 8.32 5.39l.19 1.72c0 7.156-5.3 13.052-15.91 17.687l-.94.22h-.21c-.28 0-.53-.506-.75-1.517l1.89-18.547c-.76 0-1.14-.213-1.14-.64v-.438c0-2.292 1.01-3.437 3.03-3.437l4.55-.43zm-3.78 4.53c-1.137 7.376-1.704 12.335-1.704 14.876v1.07c7.948-3.97 11.92-7.71 11.92-11.22v-.2c0-2.02-.566-3.03-1.702-3.03-1.406-1-3.677-1.5-6.812-1.5h-1.703zm-265.783 33.533c1.52.49 2.282 1.156 2.282 2-.323 1.323-2.318 4.23-5.985 8.718h-1.437l-1.125-.89v-.672l4.28-6.922c.293-1.49.954-2.234 1.985-2.234zM726.04 140l8.53.5 4.625-.5.485.75v1c0 2.667-1.542 4-4.625 4h-.25c-.386 14.48-1.683 21.72-3.89 21.72-1.136 1-2.683 1.5-4.642 1.5h-1.703c-5.52-.845-8.28-3.59-8.28-8.236.49-2.79 1.218-4.625 2.187-5.5h.25c.25 0 .656 1.834 1.218 5.5 1.115 2.157 2.9 3.235 5.36 3.235 3.573 0 5.36-1.5 5.36-4.49l1.218-13.99h-2.688c-3.573 0-5.36-.42-5.36-1.25v-.5c.49-2.5 1.225-3.75 2.204-3.75zm30.42 4c.72.156 1.08.703 1.08 1.64-.23 1.77-.944 2.657-2.142 2.657-7.854 0-11.78 1.094-11.78 3.28l-.22 1.845v1.016c5.125-1.23 8.625-1.844 10.5-1.844h.422c.72.312 1.078.995 1.078 2.047 0 1.5-1 2.25-3 2.25-6.573.86-9.86 1.88-9.86 3.08l-.202 2.05v.81c0 1.23.78 1.91 2.344 2.05 2.458-.27 5.53-.88 9.218-1.84h.64c.574.22.86.7.86 1.44v.61c0 1.68-3.572 2.98-10.718 3.89h-.64c-2.574 0-4-1.63-4.282-4.9 0-2.4.5-6.98 1.5-13.72l-.422-1.23c0-2.77 4.28-4.4 12.844-4.9l2.78-.2zm14.33 0h.327c1.438.177 2.156.875 2.156 2.094v.422c0 2.104-.718 4.062-2.156 5.875h-.328c-.23-.06-.46-.41-.68-1.04l.84-3.14-.66-.42c-1.53.14-4.35 1.82-8.44 5.03v.21l10.9 2.11c1.1.88 1.65 2.35 1.65 4.41v1.25c0 2.83-1.82 5.27-5.46 7.35-1.43.56-2.81.84-4.14.84h-.35c-3.79 0-6.11-1.68-6.94-5.03v-1.26c0-1.54.38-2.31 1.16-2.31.76 2.67 2.14 4 4.14 4 0 .27.83.41 2.48.41 2.44 0 4.81-1.26 7.11-3.77 0-1.66-3.53-2.72-10.58-3.15-2.54-.71-3.81-1.76-3.81-3.14 0-3.41 3.41-6.83 10.25-10.28l2.48-.42zm10.202-.047c.667.27 1.037.552 1.11.844-1.188 7.427-1.782 12.823-1.782 16.187v2.313c3.98 0 7.24-1.823 9.782-5.47 1-8.832 1.963-13.25 2.89-13.25h.235c.885.095 1.328.308 1.328.642-1.334 8.04-2 14.06-2 18.07v3.36c0 1.1-.448 1.87-1.344 2.31h-.89l-.87-.85v-.42l.22-3.56c-.53 0-3.42 1.33-8.67 3.98l-1.56.42c-1.78-.23-2.67-1-2.67-2.31v-.21c1.08-14.72 2.35-22.08 3.78-22.08h.45zm27.453.047h.328c1.438.177 2.157.875 2.157 2.094v.422c0 2.104-.72 4.062-2.157 5.875h-.328c-.23-.06-.453-.41-.672-1.04l.844-3.14-.656-.42c-1.53.14-4.34 1.82-8.43 5.03v.21l10.91 2.11c1.11.88 1.66 2.35 1.66 4.41v1.25c0 2.83-1.82 5.27-5.45 7.35-1.42.56-2.8.84-4.14.84h-.34c-3.79 0-6.1-1.68-6.93-5.03v-1.26c0-1.54.39-2.31 1.16-2.31.76 2.67 2.14 4 4.14 4 0 .27.83.41 2.49.41 2.45 0 4.82-1.26 7.11-3.77 0-1.66-3.52-2.72-10.58-3.15-2.54-.71-3.81-1.76-3.81-3.14 0-3.41 3.42-6.83 10.25-10.28l2.49-.42zm11.828-3.984c1.52.49 2.282 1.156 2.282 2-.323 1.323-2.318 4.23-5.985 8.718h-1.437l-1.125-.89v-.672l4.28-6.922c.293-1.49.954-2.234 1.985-2.234zM846.07 140h.453l.672.578v.39c0 .324-1.13 1.865-3.39 4.626-2.71 4.114-4.063 7.98-4.063 11.594 0 3.26 1.578 6.286 4.735 9.078l.234.765c0 .78-.45 1.42-1.35 1.94h-.9c-3.91-2.66-5.87-6.4-5.87-11.2v-.58c0-4.86 2.19-10.01 6.57-15.45 1.31-1.15 2.29-1.73 2.94-1.73zm6.172 3.89h1.47c.49 0 .733.287.733.86-1.146 9.354-1.718 15.844-1.718 19.47v2.374c-.323 1.583-1.136 2.375-2.438 2.375h-.49l-.99-.86c.65-9.82 1.47-17.6 2.45-23.36l.97-.86zm21.016.048c1.354 0 2.03.562 2.03 1.687v.422c0 1.552-1.207 2.328-3.624 2.328l-4.516.22c-1.354 7.218-2.03 13.426-2.03 18.624-.365 1.12-.74 1.68-1.126 1.68h-.687c-.782 0-1.235-.22-1.36-.64.76-7.99 1.59-14.48 2.485-19.47l-6.782 1.06c-.635 0-1.01-.64-1.125-1.91 0-2.12 1.886-3.17 5.657-3.17 2.26-.56 5.953-.85 11.078-.85zm24.375.015h.406c.66.365 1 .932 1 1.703v.438c0 4.625.4 10.04 1.21 16.25h.2c4.46-11.688 7.08-17.53 7.87-17.53h.61c.59 0 1.53 4.06 2.82 12.186 1.21 4.167 1.81 7.656 1.81 10.47-.4 1-1 1.5-1.82 1.5-.54 0-1.28-3.496-2.22-10.486l-1.63-6.828c-1.16 1.854-3.25 6.698-6.27 14.53-.87.887-1.61 1.387-2.22 1.5-1.75 0-2.63-2.353-2.63-7.06l-1-8.97h-.2l-6.06 13.672c-.37 2.28-.71 3.422-1.02 3.422h-.8l-.81-.844v-1.078c0-1.917 1.68-6.047 5.05-12.39 2.39-6.667 3.94-10.09 4.64-10.266l1.01-.22zm34.25.047c.72.156 1.078.703 1.078 1.64-.22 1.77-.94 2.657-2.14 2.657-7.85 0-11.78 1.094-11.78 3.28l-.22 1.845v1.016c5.13-1.23 8.63-1.844 10.5-1.844h.43c.72.312 1.08.995 1.08 2.047 0 1.5-1 2.25-3 2.25-6.57.86-9.86 1.88-9.86 3.08l-.2 2.05v.81c0 1.23.78 1.91 2.35 2.05 2.46-.27 5.53-.88 9.22-1.84h.64c.58.22.86.7.86 1.44v.61c0 1.68-3.57 2.98-10.71 3.89h-.64c-2.57 0-4-1.63-4.28-4.9 0-2.4.5-6.98 1.5-13.72l-.42-1.23c0-2.77 4.28-4.4 12.85-4.9l2.78-.2zm10.734 0h.75c1.03 0 2.34 4.766 3.922 14.297 1.25 4.5 1.87 7.557 1.87 9.172-.26.85-.76 1.28-1.5 1.28-.96 0-1.65-2.28-2.06-6.83l-.19-.21h-.19c-1.63.02-5.05 1.01-10.28 2.98-.5 2.84-1.31 4.26-2.44 4.26-.75-.3-1.13-.86-1.13-1.71 0-1.65 3.43-9.19 10.29-22.63l.93-.64zm-.375 5.97c-1.5 2.707-2.875 5.556-4.125 8.546h1.313c1.27 0 2.896-.287 4.875-.86l-1.688-7.687h-.375zm11.953-6.017c.948 0 2.084 1.78 3.407 5.344 2.562 5.25 5.41 9.74 8.546 13.47 1.053-10.283 1.834-16.34 2.344-18.173l.86-.64h.64c.427 0 .64.286.64.858-1.28 14.688-2.062 22.527-2.343 23.516l-1.29.422c-2.28 0-6.13-4.844-11.53-14.53l-.86-.86-.22.64-.64 9.844v1.28l.22 1.282c-.19 1.71-.76 2.563-1.71 2.563-.88-.32-1.38-.74-1.5-1.29 1.09-15.4 1.87-23.1 2.34-23.1l1.08-.64zm30.938.047h.328c1.44.177 2.16.875 2.16 2.094v.422c0 2.104-.72 4.062-2.15 5.875h-.32c-.23-.06-.45-.41-.67-1.04l.85-3.14-.65-.42c-1.53.14-4.34 1.82-8.43 5.03v.21l10.91 2.11c1.11.88 1.66 2.35 1.66 4.41v1.25c0 2.83-1.81 5.27-5.45 7.35-1.42.56-2.8.84-4.14.84h-.34c-3.79 0-6.1-1.68-6.94-5.03v-1.26c0-1.54.39-2.31 1.16-2.31.76 2.67 2.14 4 4.14 4 0 .27.83.41 2.48.41 2.45 0 4.82-1.26 7.11-3.77 0-1.66-3.53-2.72-10.58-3.15-2.54-.71-3.81-1.76-3.81-3.14 0-3.41 3.42-6.83 10.25-10.28l2.48-.42zM696.47 186h.327c1.437.177 2.156.875 2.156 2.094v.422c0 2.104-.72 4.062-2.156 5.875h-.328c-.23-.06-.46-.41-.68-1.04l.84-3.14-.66-.42c-1.53.14-4.35 1.82-8.44 5.03v.21l10.9 2.11c1.1.88 1.65 2.35 1.65 4.41v1.25c0 2.83-1.82 5.27-5.46 7.35-1.43.56-2.81.84-4.14.84h-.34c-3.79 0-6.11-1.68-6.94-5.03v-1.26c0-1.54.38-2.31 1.15-2.31.76 2.67 2.14 4 4.14 4 0 .27.83.41 2.48.41 2.45 0 4.82-1.26 7.11-3.77 0-1.66-3.53-2.72-10.58-3.15-2.54-.71-3.81-1.76-3.81-3.14 0-3.41 3.41-6.83 10.25-10.28l2.48-.42zm15.202 0h.75c1.03 0 2.338 4.766 3.922 14.297 1.25 4.5 1.875 7.557 1.875 9.172-.27.85-.77 1.28-1.5 1.28-.96 0-1.65-2.28-2.07-6.83l-.19-.21h-.19c-1.63.02-5.05 1.01-10.28 2.98-.5 2.84-1.31 4.26-2.44 4.26-.75-.3-1.13-.86-1.13-1.71 0-1.65 3.43-9.19 10.29-22.63l.94-.64zm-.375 5.97c-1.5 2.707-2.875 5.556-4.125 8.546h1.312c1.27 0 2.896-.287 4.875-.86l-1.69-7.687h-.38zm25.797-6.017h.625c.56.23.84.73.84 1.5 0 1.042-2.18 5.53-6.53 13.47-2.14 5.947-3.47 9.155-4 9.624l-2.1.422c-.92 0-1.55-1.65-1.91-4.93-2.8-9.89-4.21-15.95-4.21-18.17.23-.65.65-1.15 1.26-1.5h.84c.76 0 1.53 2.99 2.31 8.98l2.53 9.4h.2c1.46-3.86 4.61-9.99 9.47-18.39l.64-.42zm6.484-.062h1.47c.488 0 .733.29.733.86-1.14 9.36-1.71 15.85-1.71 19.47v2.38c-.32 1.59-1.13 2.38-2.44 2.38h-.48l-.98-.86c.66-9.81 1.48-17.6 2.46-23.36l.97-.86zm17.328.07c4.448.62 6.672 3.28 6.672 7.99 0 6.17-2.437 11.27-7.312 15.32-2.01 1.15-3.808 1.72-5.39 1.72-3.866 0-6.355-2.08-7.47-6.25l-.156-1.94v-.65c0-6.73 3.073-11.83 9.22-15.31 1.54-.57 3.02-.86 4.436-.86zm-11.593 16.83c1.604 2.44 3.723 3.66 6.36 3.66 4.238 0 7.202-2.51 8.89-7.54l.312-2.37c0-3.54-1.745-5.62-5.234-6.25h-.48c-2.88 0-5.9 2.88-9.04 8.63-.53 1.73-.79 3.03-.79 3.89zm23.906-16.82c.66.27 1.03.55 1.1.85-1.19 7.43-1.78 12.83-1.78 16.19v2.32c3.98 0 7.24-1.82 9.78-5.47 1-8.83 1.96-13.25 2.89-13.25h.23c.88.09 1.33.31 1.33.64-1.34 8.04-2 14.07-2 18.08v3.36c0 1.1-.45 1.87-1.35 2.31h-.89l-.88-.84v-.42l.22-3.56c-.53 0-3.42 1.33-8.67 3.99l-1.57.42c-1.78-.23-2.67-1-2.67-2.31v-.2c1.08-14.72 2.34-22.08 3.78-22.08h.45zm25.84 0h2.15c3.3 0 4.95 1.15 4.95 3.46v.22c0 4.03-3.45 7.7-10.35 11v.2c3.45 3.17 6.32 5.55 8.62 7.13v.64c0 1.12-.36 1.83-1.08 2.16h-.86l-11.85-8.4-.22 4.31v3.23c-.37.72-.94 1.08-1.72 1.08-.58 0-1.01-.29-1.3-.86v-1.3l1.94-16.83c-.57 0-.86-.42-.86-1.28 0-2.59 2.15-4.1 6.45-4.53l4.09-.22zm-7.53 11.64h.22c7.45-1.91 11.18-4 11.18-6.25v-.22c0-.39-.72-.68-2.16-.86-2.39 0-5.26.51-8.61 1.52l-.64 5.82zM811.7 182h.673c2.948 2.73 4.422 6.708 4.422 11.938 0 7.572-3.1 13.25-9.297 17.03h-.438c-.593-.208-.89-.666-.89-1.374 0-.615 1.255-1.985 3.765-4.11 2.365-3.208 3.547-6.6 3.547-10.172 0-3.343-1.182-7.13-3.547-11.36.428-.916 1.016-1.567 1.766-1.952zm28.048 4h.75c1.03 0 2.34 4.766 3.922 14.297 1.25 4.5 1.875 7.557 1.875 9.172-.26.85-.76 1.28-1.5 1.28-.958 0-1.646-2.28-2.063-6.83l-.187-.21h-.188c-1.626.02-5.053 1.01-10.282 2.98-.5 2.84-1.312 4.26-2.437 4.26-.75-.3-1.124-.86-1.124-1.71 0-1.65 3.432-9.19 10.297-22.63l.94-.64zm-.375 5.97c-1.5 2.707-2.875 5.556-4.125 8.546h1.313c1.27 0 2.9-.287 4.88-.86l-1.69-7.687h-.37zm11.953-6.017c.948 0 2.083 1.78 3.406 5.344 2.563 5.25 5.412 9.74 8.547 13.47 1.05-10.283 1.83-16.34 2.34-18.173l.86-.64h.64c.42 0 .64.286.64.858-1.28 14.688-2.06 22.527-2.35 23.516l-1.28.422c-2.29 0-6.13-4.844-11.54-14.53l-.86-.86-.22.64-.64 9.844v1.28l.22 1.282c-.19 1.71-.76 2.563-1.71 2.563-.88-.32-1.38-.74-1.5-1.29 1.09-15.4 1.87-23.1 2.34-23.1l1.08-.64zm26.03 0h.955c4.53 0 7.31 1.797 8.33 5.39l.19 1.72c0 7.156-5.3 13.052-15.9 17.687l-.93.22h-.2c-.28 0-.53-.506-.75-1.517l1.89-18.547c-.76 0-1.14-.213-1.14-.64v-.438c0-2.292 1.01-3.437 3.03-3.437l4.55-.43zm-3.78 4.53c-1.135 7.376-1.703 12.335-1.703 14.876v1.07c7.948-3.97 11.922-7.71 11.922-11.22V195c0-2.02-.568-3.03-1.703-3.03-1.407-1-3.677-1.5-6.813-1.5h-1.71zm43.22-4.53c.738.198 1.108.703 1.108 1.516v.2c-1.04 15.38-1.78 23.08-2.218 23.08l-.235.22h-.65c-.77 0-1.29-.36-1.56-1.08.29-2.05.44-4.93.44-8.63h-.22l-9.34 2.15-.65.86v4.09c0 1.22-.44 2.08-1.34 2.59h-.43c-.83 0-1.35-.36-1.56-1.08 1.03-15.53 2.52-23.3 4.45-23.3h.44l.68.87c-1.04 5.15-1.56 8.96-1.56 11.42 6.82-.9 10.23-1.98 10.23-3.24l.89-9.06 1.57-.64zm19.218.047c.718.156 1.078.703 1.078 1.64-.23 1.77-.943 2.657-2.14 2.657-7.855 0-11.782 1.094-11.782 3.28l-.22 1.845v1.016c5.126-1.23 8.626-1.844 10.5-1.844h.423c.72.312 1.078.995 1.078 2.047 0 1.5-1 2.25-3 2.25-6.57.86-9.86 1.88-9.86 3.08l-.2 2.05v.81c0 1.23.78 1.91 2.35 2.05 2.46-.27 5.53-.88 9.22-1.84h.64c.58.22.86.7.86 1.44v.61c0 1.68-3.57 2.98-10.72 3.89h-.64c-2.57 0-4-1.63-4.28-4.9 0-2.4.5-6.98 1.5-13.72l-.42-1.23c0-2.77 4.28-4.4 12.85-4.9l2.78-.2zm15.953 0c.697 0 1.046 2.417 1.046 7.25l1.406 9.188h.34c0-.532 1.4-3.38 4.2-8.547.43-3.4 1.25-5.11 2.45-5.11h.34c.71 0 1.29 2.63 1.75 7.9.78 3.6 1.36 5.73 1.75 6.41.37-1.81 2.24-7.15 5.61-16.01.49-.56.95-.84 1.4-.84.62 0 1.03.28 1.22.85 0 .73-1.75 5.5-5.25 14.3-.59 2.08-1.11 4.93-1.58 8.54-.38.71-.85 1.06-1.41 1.06-1.06 0-1.88-2.41-2.44-7.25-1.15-4.72-1.85-7.28-2.11-7.69l-3.5 6.83c-.59 1.34-1.11 3.61-1.58 6.83-.32.52-.78.88-1.39 1.06-.98 0-1.8-3.69-2.46-11.09-.94-5.23-1.41-9.42-1.41-12.59 0-.43.52-.78 1.58-1.06zm26.546-.11h1.468c.49 0 .74.287.74.86-1.14 9.354-1.72 15.844-1.72 19.47v2.374c-.32 1.583-1.13 2.375-2.44 2.375h-.48l-.98-.86c.66-9.82 1.48-17.6 2.46-23.36l.97-.86zm6.875.063h.22c.676 0 1.244.35 1.702 1.047-.99 7.208-1.697 13.656-2.125 19.344l12.188-2.516.422.625v1.266c0 1.91-4.417 3.66-13.25 5.25-1.573-.29-2.36-.78-2.36-1.47 1.167-15.42 2.02-23.13 2.563-23.13l.64-.42zm16.14 0h.22c.677 0 1.245.35 1.703 1.047-.99 7.208-1.69 13.656-2.12 19.344l12.19-2.516.42.625v1.266c0 1.91-4.41 3.66-13.25 5.25-1.57-.29-2.36-.78-2.36-1.47 1.17-15.42 2.02-23.13 2.57-23.13l.64-.42zM701.22 228c4.218 0 6.327 1.437 6.327 4.313v.64c0 2.01-.953 3.948-2.86 5.813v.218c3.136.948 4.704 2.526 4.704 4.735v.85c0 3.6-3.54 6.25-10.62 7.95l-3.48.44h-2.03c-1.09 0-1.64-.58-1.64-1.72v-.22l1.64-17.66c-.69 0-1.03-.14-1.03-.42v-1.3c0-2.44 3-3.66 9-3.66zm-5.94 9.688h.22c6.396 0 9.594-1.438 9.594-4.313-1.052-.708-2.823-1.063-5.313-1.063h-2.45c-1.08 0-1.62.5-1.62 1.5l-.42 3.875zm-.405 4.093l-.406 6.88 2.04.44.2-.22h1.01c5.73-.75 8.59-2.11 8.59-4.07-1.89-2.01-4.82-3.01-8.8-3.01h-.81l-.21-.22-.21.22h-1.44zM727.172 228c.72.156 1.078.703 1.078 1.64-.23 1.77-.943 2.657-2.14 2.657-7.855 0-11.782 1.094-11.782 3.28l-.22 1.845v1.016c5.126-1.23 8.626-1.844 10.5-1.844h.423c.72.312 1.08.995 1.08 2.047 0 1.5-1 2.25-3 2.25-6.57.86-9.86 1.88-9.86 3.08l-.2 2.05v.81c0 1.23.78 1.91 2.35 2.05 2.46-.27 5.53-.88 9.22-1.84h.64c.58.22.86.7.86 1.44v.61c0 1.68-3.57 2.98-10.72 3.89h-.64c-2.57 0-4-1.63-4.28-4.9 0-2.4.5-6.98 1.5-13.72l-.42-1.23c0-2.77 4.28-4.4 12.85-4.9l2.78-.2zm31.72-.063c1.353 0 2.03.563 2.03 1.688v.422c0 1.552-1.208 2.328-3.625 2.328l-4.516.22c-1.35 7.218-2.03 13.426-2.03 18.624-.36 1.12-.74 1.68-1.12 1.68h-.69c-.78 0-1.23-.22-1.36-.64.76-7.99 1.59-14.48 2.49-19.47l-6.78 1.06c-.63 0-1.01-.64-1.12-1.91 0-2.12 1.89-3.17 5.66-3.17 2.26-.56 5.96-.85 11.08-.85zm18.077.016c.73.198 1.1.703 1.1 1.516v.2c-1.04 15.38-1.78 23.08-2.22 23.08l-.24.22h-.66c-.77 0-1.3-.36-1.57-1.08.29-2.05.44-4.93.44-8.63h-.22l-9.34 2.15-.66.86v4.09c0 1.22-.45 2.08-1.35 2.59h-.44c-.84 0-1.36-.36-1.56-1.08 1.03-15.53 2.51-23.3 4.45-23.3h.44l.67.87c-1.05 5.15-1.57 8.96-1.57 11.42 6.82-.9 10.23-1.98 10.23-3.24l.89-9.06 1.56-.64zm19.21.047c.72.156 1.08.703 1.08 1.64-.23 1.77-.95 2.657-2.14 2.657-7.86 0-11.78 1.094-11.78 3.28l-.22 1.845v1.016c5.12-1.23 8.62-1.844 10.5-1.844h.42c.72.312 1.08.995 1.08 2.047 0 1.5-1 2.25-3 2.25-6.57.86-9.86 1.88-9.86 3.08l-.2 2.05v.81c0 1.23.78 1.91 2.34 2.05 2.46-.27 5.53-.88 9.22-1.84h.64c.57.22.86.7.86 1.44v.61c0 1.68-3.58 2.98-10.72 3.89h-.64c-2.58 0-4-1.63-4.28-4.9 0-2.4.5-6.98 1.5-13.72l-.42-1.23c0-2.77 4.28-4.4 12.84-4.9l2.78-.2zm31.12-4h.42c1.81.198 2.72 1.01 2.72 2.438v.484c0 2.437-.91 4.708-2.72 6.812h-.43c-.28-.073-.56-.48-.83-1.218l1.04-3.64-.84-.5c-1.93.155-5.49 2.103-10.69 5.843v.25l13.83 2.43c1.39 1.01 2.09 2.71 2.09 5.11v1.45c0 3.27-2.3 6.11-6.91 8.53-1.81.64-3.56.97-5.24.97h-.42c-4.81 0-7.75-1.95-8.8-5.85v-1.46c0-1.8.49-2.69 1.47-2.69.96 3.08 2.7 4.62 5.23 4.62 0 .32 1.04.48 3.14.48 3.1 0 6.1-1.46 9-4.37 0-1.93-4.47-3.15-13.41-3.66-3.21-.83-4.82-2.04-4.82-3.64 0-3.96 4.33-7.94 12.99-11.94l3.14-.49zm20.03 3.953c4.44.615 6.67 3.276 6.67 7.984 0 6.167-2.44 11.27-7.31 15.313-2.01 1.146-3.81 1.72-5.39 1.72-3.87 0-6.36-2.085-7.47-6.25l-.16-1.94v-.655c0-6.73 3.07-11.833 9.22-15.313 1.54-.572 3.02-.86 4.44-.86zm-11.59 16.827c1.6 2.44 3.72 3.657 6.36 3.657 4.24 0 7.2-2.515 8.89-7.546l.31-2.37c0-3.54-1.75-5.62-5.24-6.25h-.49c-2.89 0-5.9 2.88-9.05 8.63-.53 1.73-.8 3.03-.8 3.89zm22.68-16.827c.94 0 2.08 1.78 3.4 5.344 2.56 5.25 5.41 9.74 8.54 13.47 1.05-10.283 1.84-16.34 2.35-18.173l.86-.64h.64c.42 0 .64.286.64.858-1.28 14.688-2.06 22.527-2.35 23.516l-1.28.422c-2.28 0-6.13-4.844-11.53-14.53l-.86-.86-.22.64-.64 9.844v1.28l.22 1.282c-.19 1.71-.76 2.563-1.71 2.563-.87-.32-1.37-.74-1.5-1.29 1.09-15.4 1.88-23.1 2.34-23.1l1.08-.64zm44.64 0c4.45.615 6.67 3.276 6.67 7.984 0 6.167-2.44 11.27-7.32 15.313-2.01 1.146-3.81 1.72-5.39 1.72-3.87 0-6.36-2.085-7.47-6.25l-.16-1.94v-.655c0-6.73 3.07-11.833 9.22-15.313 1.54-.572 3.02-.86 4.43-.86zm-11.59 16.827c1.6 2.44 3.72 3.66 6.36 3.66 4.24 0 7.2-2.512 8.89-7.543l.31-2.374c0-3.542-1.75-5.625-5.24-6.25h-.49c-2.89 0-5.9 2.875-9.05 8.625-.53 1.73-.8 3.027-.8 3.89zM924.61 228h2.015c.896.563 1.344 1.193 1.344 1.89-.24 1.678-.99 2.516-2.24 2.516-3.6 0-7.1.35-10.52 1.047l-.44 4.625 1.11.203h.89c2.64 0 5.7-.42 9.17-1.26l.67 1.27c-.34 2.52-1.38 3.78-3.13 3.78-1.09.56-4.14.97-9.17 1.25-.36 6.31-.96 9.46-1.8 9.46l-.89.21h-.22c-.38 0-.6-.28-.67-.84 0-3.42.59-9.72 1.78-18.87l-.66-.64c0-2.11 1.49-3.37 4.47-3.76 2.99-.56 5.74-.84 8.26-.84zm35.796-4h.235c1.93 0 3.22 1.568 3.88 4.703l-.45.5h-.23l-1.83-.5c-5.01.615-10.25 3.505-15.73 8.672-1.52 2.24-2.28 3.807-2.28 4.703v.984c0 2.646 3.27 4.297 9.81 4.954 4.11 0 7.22-1.818 9.35-5.453l-2.73-.985c-1.01 0-3.82.99-8.44 2.97-.46-.845-.69-1.668-.69-2.47v-.25c0-2.635 3.05-4.453 9.13-5.453h.45c3.5 0 5.25 1.9 5.25 5.703 0 3.917-3.87 7.38-11.62 10.39l-2.75.5c-4.91 0-8.26-1.734-10.03-5.202l-.45-3.22c0-7.468 4.64-13.822 13.91-19.062 2.34-.99 4.09-1.484 5.25-1.484zm20.22 3.953c4.447.615 6.67 3.276 6.67 7.984 0 6.167-2.437 11.27-7.312 15.313-2.01 1.146-3.807 1.72-5.39 1.72-3.865 0-6.354-2.085-7.47-6.25l-.155-1.94v-.655c0-6.73 3.07-11.833 9.21-15.313 1.54-.572 3.02-.86 4.44-.86zM969.03 244.78c1.605 2.44 3.725 3.657 6.36 3.657 4.24 0 7.204-2.515 8.89-7.546l.314-2.37c0-3.54-1.745-5.62-5.235-6.25h-.49c-2.89 0-5.9 2.88-9.05 8.63-.53 1.73-.8 3.03-.8 3.89zm27.595-16.827h.953c4.53 0 7.307 1.797 8.328 5.39l.188 1.72c0 7.156-5.302 13.052-15.907 17.687l-.937.22h-.203c-.28 0-.53-.506-.75-1.517l1.89-18.547c-.76 0-1.14-.213-1.14-.64v-.438c0-2.292 1.01-3.437 3.03-3.437l4.548-.43zm-3.78 4.53c-1.137 7.376-1.704 12.335-1.704 14.876v1.07c7.95-3.97 11.93-7.71 11.93-11.22V237c0-2.02-.57-3.03-1.7-3.03-1.4-1-3.67-1.5-6.81-1.5h-1.7zM688.235 270h.75c1.03 0 2.337 4.766 3.92 14.297 1.25 4.5 1.875 7.557 1.875 9.172-.26.85-.76 1.28-1.5 1.28-.957 0-1.645-2.28-2.06-6.83l-.19-.21h-.186c-1.625.02-5.052 1.01-10.282 2.98-.5 2.84-1.312 4.26-2.437 4.26-.75-.3-1.125-.86-1.125-1.71 0-1.65 3.432-9.19 10.297-22.63l.937-.64zm-.377 5.97c-1.5 2.707-2.876 5.556-4.126 8.546h1.313c1.27 0 2.896-.287 4.875-.86l-1.688-7.687h-.375zm11.952-6.017c.948 0 2.084 1.78 3.407 5.344 2.56 5.25 5.41 9.74 8.546 13.47 1.052-10.283 1.833-16.34 2.343-18.173l.86-.64h.64c.426 0 .64.286.64.858-1.28 14.688-2.062 22.527-2.344 23.516l-1.28.422c-2.282 0-6.126-4.844-11.532-14.53l-.86-.86-.218.64-.64 9.844v1.28l.218 1.282c-.188 1.71-.755 2.563-1.703 2.563-.874-.32-1.374-.74-1.5-1.29 1.094-15.4 1.876-23.1 2.344-23.1l1.08-.64zm26.032 0h.953c4.53 0 7.307 1.797 8.328 5.39l.188 1.72c0 7.156-5.3 13.052-15.9 17.687l-.93.22h-.2c-.28 0-.53-.506-.75-1.517l1.89-18.547c-.76 0-1.14-.213-1.14-.64v-.438c0-2.292 1.01-3.437 3.03-3.437l4.55-.43zm-3.782 4.53c-1.135 7.376-1.703 12.335-1.703 14.876v1.07c7.947-3.97 11.92-7.71 11.92-11.22V279c0-2.02-.566-3.03-1.702-3.03-1.406-1-3.677-1.5-6.812-1.5h-1.703zm43.22-4.53c.74.198 1.11.703 1.11 1.516v.2c-1.043 15.38-1.783 23.08-2.22 23.08l-.235.22h-.656c-.77 0-1.29-.36-1.56-1.08.29-2.05.43-4.93.43-8.63h-.22l-9.35 2.15-.66.86v4.09c0 1.22-.45 2.08-1.35 2.59h-.44c-.84 0-1.36-.36-1.56-1.08 1.03-15.53 2.51-23.3 4.45-23.3h.43l.67.87c-1.04 5.15-1.56 8.96-1.56 11.42 6.82-.9 10.23-1.98 10.23-3.24l.89-9.06 1.56-.64zm7.53-.062h1.47c.49 0 .734.29.734.86-1.146 9.36-1.72 15.85-1.72 19.47v2.38c-.322 1.59-1.135 2.38-2.437 2.38h-.485l-.984-.86c.657-9.81 1.475-17.6 2.454-23.36l.968-.86zm16.907.11h.327c1.437.18 2.156.88 2.156 2.1v.42c0 2.11-.72 4.06-2.156 5.88h-.328c-.23-.06-.454-.41-.673-1.04l.844-3.14-.656-.42c-1.53.14-4.34 1.82-8.43 5.04v.2l10.91 2.11c1.11.88 1.66 2.35 1.66 4.41v1.25c0 2.82-1.82 5.27-5.45 7.35-1.42.56-2.8.84-4.14.84h-.34c-3.79 0-6.1-1.68-6.94-5.03v-1.27c0-1.54.39-2.31 1.16-2.31.76 2.67 2.14 4 4.14 4 0 .27.83.41 2.49.41 2.45 0 4.82-1.25 7.11-3.76 0-1.66-3.52-2.72-10.58-3.15-2.54-.71-3.81-1.75-3.81-3.14 0-3.4 3.42-6.83 10.25-10.28l2.49-.42zm23.467.1l.625.86-.63 8.13 12.75-7.06c.55.69.83 1.54.83 2.57-1.44 2.02-5.13 4.59-11.08 7.7v.22c2.75 3.58 5.88 6.57 9.4 8.97v.44c0 1.99-.7 2.99-2.1 2.99l-10.44-8.54c-.42 5.7-.84 8.55-1.25 8.55l-1.05.22c-.7-.23-1.05-.65-1.05-1.28l.82-10.04-.21-2.56c.48 0 .89-3.14 1.25-9.42.57-1.13 1.27-1.7 2.09-1.7zm18.594-.2h1.47c.49 0 .734.29.734.86-1.145 9.36-1.718 15.85-1.718 19.47v2.38c-.323 1.59-1.136 2.38-2.438 2.38h-.484l-.985-.86c.656-9.81 1.473-17.6 2.452-23.36l.97-.86zm7.095.07c.948 0 2.083 1.78 3.406 5.35 2.56 5.25 5.41 9.74 8.54 13.47 1.05-10.28 1.83-16.34 2.34-18.17l.86-.64h.64c.42 0 .64.29.64.86-1.28 14.69-2.06 22.53-2.35 23.52l-1.29.43c-2.28 0-6.13-4.84-11.53-14.53l-.86-.86-.22.64-.64 9.85v1.28l.22 1.29c-.19 1.71-.76 2.56-1.71 2.56-.88-.31-1.38-.74-1.5-1.28 1.09-15.39 1.87-23.09 2.34-23.09l1.07-.64zm31.422 0h.156c1.39 0 2.32 1.36 2.78 4.07l-.32.42h-.15l-1.31-.42c-3.58.53-7.34 3.03-11.26 7.49-1.09 1.94-1.64 3.29-1.64 4.07v.86c0 2.28 2.35 3.7 7.03 4.26 2.94 0 5.17-1.56 6.69-4.7l-1.95-.84c-.73 0-2.74.86-6.04 2.57-.32-.73-.48-1.44-.48-2.14v-.22c0-2.27 2.18-3.84 6.53-4.7h.33c2.5 0 3.75 1.64 3.75 4.93 0 3.39-2.77 6.38-8.33 8.99l-1.95.43c-3.53 0-5.92-1.49-7.18-4.48l-.33-2.78c0-6.46 3.32-11.95 9.95-16.47 1.68-.85 2.94-1.28 3.77-1.28zm13.406 0h.96c4.53 0 7.31 1.8 8.33 5.39l.19 1.72c0 7.16-5.3 13.05-15.9 17.69l-.94.22h-.2c-.28 0-.53-.5-.75-1.51l1.89-18.55c-.76 0-1.14-.21-1.14-.64v-.44c0-2.29 1.01-3.43 3.03-3.43l4.55-.43zm-3.78 4.53c-1.13 7.38-1.7 12.34-1.7 14.88v1.08c7.95-3.96 11.92-7.7 11.92-11.21v-.2c0-2.02-.56-3.03-1.7-3.03-1.4-1-3.68-1.5-6.81-1.5h-1.7zm26.91-4.53c4.45.62 6.67 3.28 6.67 7.99 0 6.17-2.43 11.27-7.31 15.32-2.01 1.15-3.8 1.72-5.39 1.72-3.86 0-6.35-2.08-7.47-6.25l-.15-1.94v-.65c0-6.73 3.08-11.83 9.22-15.31 1.54-.57 3.02-.86 4.44-.86zm-11.59 16.83c1.61 2.44 3.73 3.66 6.36 3.66 4.24 0 7.21-2.51 8.89-7.54l.32-2.37c0-3.54-1.74-5.62-5.23-6.25h-.48c-2.88 0-5.9 2.88-9.04 8.63-.53 1.73-.79 3.03-.79 3.89zm28.97-16.82h.41c.67.37 1 .93 1 1.71v.44c0 4.63.41 10.04 1.22 16.25h.21c4.46-11.68 7.09-17.53 7.88-17.53h.61c.59 0 1.54 4.07 2.83 12.19 1.21 4.17 1.82 7.66 1.82 10.47-.4 1-1 1.5-1.81 1.5-.54 0-1.28-3.49-2.22-10.48l-1.62-6.83c-1.16 1.86-3.25 6.7-6.27 14.53-.86.89-1.6 1.39-2.21 1.5-1.75 0-2.62-2.35-2.62-7.06l-1-8.97h-.2l-6.06 13.67c-.36 2.28-.7 3.42-1.01 3.42h-.8l-.81-.84v-1.08c0-1.92 1.68-6.05 5.05-12.39 2.4-6.67 3.95-10.09 4.64-10.27l1.02-.22zm32.41.05c.7 0 1.05 2.42 1.05 7.25l1.41 9.19h.35c0-.53 1.4-3.38 4.21-8.54.44-3.41 1.26-5.11 2.45-5.11h.35c.71 0 1.29 2.63 1.75 7.89.78 3.59 1.37 5.73 1.75 6.41.38-1.81 2.25-7.15 5.61-16.01.49-.56.96-.84 1.41-.84.62 0 1.03.28 1.22.84 0 .73-1.75 5.5-5.25 14.3-.59 2.09-1.11 4.94-1.58 8.55-.38.71-.84 1.06-1.41 1.06-1.06 0-1.87-2.41-2.43-7.25-1.15-4.72-1.85-7.28-2.11-7.69l-3.5 6.83c-.58 1.34-1.11 3.61-1.58 6.83-.31.52-.77.88-1.39 1.07-.98 0-1.79-3.7-2.45-11.09-.94-5.23-1.41-9.42-1.41-12.59 0-.43.53-.78 1.58-1.06zm26.55-.11h1.47c.49 0 .74.29.74.86-1.14 9.36-1.72 15.85-1.72 19.47v2.38c-.32 1.59-1.13 2.38-2.43 2.38h-.48l-.99-.86c.66-9.81 1.47-17.6 2.45-23.36l.97-.86zm6.88.07h.22c.68 0 1.25.35 1.71 1.05-.99 7.21-1.69 13.66-2.12 19.35l12.19-2.52.42.63v1.27c0 1.92-4.41 3.67-13.25 5.25-1.57-.28-2.36-.77-2.36-1.47 1.17-15.41 2.02-23.12 2.57-23.12l.64-.42zm16.14 0h.22c.68 0 1.25.35 1.71 1.05-.99 7.21-1.7 13.66-2.12 19.35l12.19-2.52.42.63v1.27c0 1.92-4.42 3.67-13.25 5.25-1.57-.28-2.36-.77-2.36-1.47 1.17-15.41 2.02-23.12 2.56-23.12l.64-.42zm-240.43 42c.95 0 2.09 1.78 3.41 5.34 2.57 5.25 5.41 9.74 8.55 13.47 1.06-10.28 1.84-16.34 2.35-18.17l.86-.64h.64c.43 0 .65.29.65.86-1.28 14.69-2.06 22.53-2.34 23.52l-1.28.43c-2.28 0-6.13-4.84-11.53-14.53l-.86-.86-.21.64-.64 9.85v1.28l.22 1.28c-.18 1.71-.75 2.57-1.7 2.57-.87-.31-1.37-.74-1.5-1.28 1.09-15.39 1.88-23.09 2.34-23.09l1.08-.64zm34.41.05c.72.16 1.08.71 1.08 1.64-.23 1.77-.94 2.66-2.14 2.66-7.85 0-11.78 1.1-11.78 3.28l-.22 1.85v1.02c5.13-1.23 8.63-1.84 10.5-1.84h.41c.72.32 1.08 1 1.08 2.05 0 1.5-1 2.25-3 2.25-6.57.86-9.86 1.88-9.86 3.08l-.2 2.05v.81c0 1.23.78 1.91 2.34 2.05 2.45-.27 5.53-.89 9.21-1.84h.64c.57.22.86.7.86 1.44v.61c0 1.68-3.58 2.98-10.72 3.89h-.64c-2.57 0-4-1.63-4.28-4.9 0-2.4.5-6.98 1.5-13.72l-.42-1.23c0-2.77 4.28-4.41 12.84-4.91l2.78-.203zm18.36-.04h.63c.57.23.85.73.85 1.5 0 1.04-2.18 5.53-6.53 13.47-2.13 5.95-3.47 9.16-4 9.63l-2.09.43c-.92 0-1.55-1.64-1.91-4.92-2.8-9.88-4.2-15.94-4.2-18.17.23-.65.65-1.15 1.27-1.5h.85c.76 0 1.53 2.99 2.31 8.98l2.53 9.41h.2c1.46-3.85 4.61-9.98 9.47-18.39l.64-.42zm18.17.05c.72.16 1.08.71 1.08 1.64-.23 1.77-.94 2.66-2.14 2.66-7.85 0-11.78 1.1-11.78 3.28l-.22 1.85v1.02c5.13-1.23 8.63-1.84 10.5-1.84h.43c.72.32 1.08 1 1.08 2.05 0 1.5-1 2.25-3 2.25-6.57.86-9.86 1.88-9.86 3.08l-.2 2.05v.81c0 1.23.78 1.91 2.35 2.05 2.46-.27 5.54-.88 9.22-1.84h.64c.58.22.86.7.86 1.44v.61c0 1.68-3.57 2.98-10.72 3.89h-.64c-2.57 0-4-1.63-4.28-4.9 0-2.4.5-6.98 1.5-13.72l-.42-1.23c0-2.77 4.28-4.406 12.85-4.906l2.79-.205zm12.72-.04h2.16c3.31 0 4.96 1.15 4.96 3.45v.22c0 4.03-3.45 7.7-10.34 11v.2c3.45 3.17 6.33 5.55 8.63 7.13v.64c0 1.12-.36 1.84-1.08 2.16h-.86l-11.84-8.41-.22 4.32v3.23c-.37.72-.94 1.08-1.72 1.08-.57 0-1.01-.29-1.3-.86v-1.3l1.94-16.82c-.57 0-.86-.43-.86-1.28 0-2.6 2.15-4.11 6.46-4.534l4.1-.22zm-7.53 11.64h.22c7.46-1.92 11.19-4 11.19-6.25v-.22c0-.4-.72-.68-2.15-.86-2.39 0-5.26.51-8.61 1.52l-.64 5.82zm44.6-11.63c.72.16 1.08.7 1.08 1.64-.23 1.77-.94 2.66-2.14 2.66-7.85 0-11.78 1.1-11.78 3.28l-.22 1.85v1.02c5.13-1.23 8.63-1.84 10.5-1.84h.43c.72.31 1.08 1 1.08 2.05 0 1.5-1 2.25-3 2.25-6.57.86-9.86 1.88-9.86 3.08l-.2 2.05v.81c0 1.23.78 1.91 2.35 2.05 2.46-.27 5.53-.88 9.22-1.84h.64c.58.22.86.7.86 1.44v.61c0 1.68-3.57 2.98-10.72 3.89h-.64c-2.57 0-4-1.63-4.28-4.9 0-2.4.5-6.98 1.5-13.71l-.42-1.24c0-2.77 4.28-4.4 12.84-4.9l2.78-.21zm4.52-.05c.95 0 2.08 1.78 3.4 5.35 2.57 5.25 5.41 9.74 8.55 13.47 1.05-10.28 1.83-16.34 2.35-18.17l.86-.64h.64c.43 0 .64.29.64.86-1.28 14.69-2.06 22.53-2.34 23.52l-1.28.42c-2.28 0-6.12-4.84-11.53-14.53l-.86-.86-.22.64-.64 9.85v1.28l.22 1.29c-.19 1.71-.75 2.57-1.7 2.57-.87-.31-1.37-.74-1.5-1.28 1.1-15.4 1.88-23.092 2.35-23.092l1.08-.64zm26.03 0h.95c4.53 0 7.31 1.8 8.33 5.39l.19 1.72c0 7.16-5.3 13.05-15.91 17.69l-.93.22h-.2c-.28 0-.53-.51-.75-1.52l1.89-18.54c-.76 0-1.14-.21-1.14-.64v-.44c0-2.29 1.01-3.43 3.03-3.43l4.55-.43zm-3.78 4.53c-1.14 7.38-1.7 12.34-1.7 14.88v1.08c7.95-3.97 11.92-7.71 11.92-11.22V321c0-2.02-.57-3.03-1.7-3.03-1.4-1-3.67-1.5-6.81-1.5h-1.7zm16.12 15.16c1.4 0 2.27.85 2.61 2.55 0 1.7-1.22 2.63-3.65 2.78-1.22-.46-1.83-1.23-1.83-2.31v-.23c.48-1.85 1.43-2.78 2.87-2.78zM574.68 500c.953.23 1.432.812 1.432 1.75v.25c-1.35 17.813-2.31 26.72-2.89 26.72l-.288.25h-.875c-1 0-1.67-.418-2.02-1.25.38-2.376.58-5.704.58-9.986h-.29l-12.12 2.5-.87 1v4.735c0 1.41-.58 2.41-1.73 3h-.57c-1.07 0-1.74-.42-2.02-1.25 1.34-17.98 3.27-26.97 5.78-26.97h.58l.86 1c-1.34 5.97-2.02 10.38-2.02 13.23 8.86-1.04 13.28-2.29 13.28-3.75l1.16-10.49 2.03-.75zm16.573 3.953c4.45.615 6.68 3.276 6.68 7.985 0 6.166-2.44 11.27-7.31 15.312-2.01 1.146-3.81 1.72-5.39 1.72-3.87 0-6.36-2.085-7.47-6.25l-.16-1.94v-.655c0-6.73 3.08-11.833 9.22-15.313 1.54-.572 3.02-.86 4.44-.86zm-11.59 16.827c1.61 2.44 3.73 3.66 6.36 3.66 4.24 0 7.21-2.512 8.89-7.543l.32-2.374c0-3.542-1.75-5.625-5.24-6.25h-.48c-2.88 0-5.9 2.875-9.04 8.625-.53 1.73-.8 3.027-.8 3.89zM600.5 504c.698 0 1.047 2.417 1.047 7.25l1.406 9.188h.344c0-.532 1.4-3.38 4.203-8.547.438-3.4 1.255-5.11 2.453-5.11h.344c.708 0 1.292 2.63 1.75 7.9.78 3.6 1.364 5.73 1.75 6.41.375-1.81 2.245-7.15 5.61-16.01.49-.56.958-.84 1.405-.84.626 0 1.032.28 1.22.85 0 .73-1.75 5.5-5.25 14.3-.584 2.08-1.11 4.93-1.58 8.54-.374.71-.843 1.06-1.405 1.06-1.063 0-1.875-2.41-2.438-7.25-1.15-4.72-1.85-7.28-2.11-7.69l-3.5 6.83c-.59 1.34-1.11 3.61-1.58 6.83-.32.52-.78.88-1.39 1.07-.98 0-1.8-3.69-2.46-11.09-.94-5.23-1.41-9.43-1.41-12.59 0-.42.52-.78 1.58-1.06zm50.078 0h.922c1.156 0 1.85.932 2.078 2.797v.437c0 2.823-1.068 4.688-3.203 5.594l-.375-.437v-.21l.953-3.65-.75-.42c-3.114 0-6.818 2.95-11.11 8.83-1.02 1.78-1.53 3.14-1.53 4.08v.22c0 2.29 1.385 3.44 4.156 3.44h.17c2.66 0 5.62-.71 8.86-2.14h.57c.5.23.75.73.75 1.5v.86c-2.67 2.73-5.8 4.1-9.41 4.1-4.91-.51-7.36-2.95-7.36-7.31v-.44c0-5.57 3.95-11.02 11.86-16.36 1.5-.57 2.63-.86 3.4-.86zm12.64 0h.75c1.032 0 2.34 4.766 3.923 14.297 1.25 4.5 1.88 7.557 1.88 9.172-.26.85-.76 1.28-1.5 1.28-.96 0-1.64-2.28-2.06-6.83l-.18-.21h-.19c-1.62.02-5.05 1.01-10.28 2.98-.5 2.84-1.31 4.26-2.44 4.26-.75-.3-1.12-.86-1.12-1.71 0-1.65 3.44-9.19 10.3-22.63l.94-.64zm-.374 5.97c-1.5 2.707-2.875 5.556-4.125 8.546h1.31c1.27 0 2.89-.287 4.87-.86l-1.69-7.687h-.38zm11.953-6.017c.948 0 2.083 1.78 3.406 5.344 2.563 5.25 5.412 9.74 8.547 13.47 1.052-10.283 1.833-16.34 2.344-18.173l.86-.64h.64c.427 0 .64.286.64.858-1.28 14.688-2.062 22.527-2.343 23.516l-1.28.422c-2.28 0-6.12-4.844-11.53-14.53l-.86-.86-.22.64-.64 9.844v1.28l.22 1.282c-.18 1.71-.75 2.563-1.7 2.563-.87-.32-1.37-.74-1.5-1.29 1.1-15.4 1.88-23.1 2.35-23.1l1.08-.64zM711.47 500h1.608c.53 0 .797.333.797 1-1.25 10.802-1.875 18.292-1.875 22.47v2.75c-.354 1.832-1.24 2.75-2.656 2.75h-.547l-1.063-1c.71-11.324 1.6-20.314 2.672-26.97l1.063-1zm33.64 3.953c.74.198 1.11.703 1.11 1.516v.2c-1.043 15.38-1.782 23.08-2.22 23.08l-.234.22h-.657c-.77 0-1.3-.36-1.57-1.08.29-2.05.43-4.93.43-8.63h-.22l-9.35 2.15-.66.86v4.09c0 1.22-.45 2.08-1.35 2.59h-.44c-.84 0-1.36-.36-1.57-1.08 1.03-15.53 2.52-23.3 4.46-23.3h.43l.67.87c-1.04 5.15-1.56 8.96-1.56 11.42 6.82-.9 10.23-1.98 10.23-3.24l.89-9.06 1.56-.64zm12.156.047h.75c1.03 0 2.338 4.766 3.922 14.297 1.25 4.5 1.875 7.557 1.875 9.172-.26.85-.76 1.28-1.5 1.28-.96 0-1.646-2.28-2.063-6.83l-.188-.21h-.187c-1.625.02-5.052 1.01-10.28 2.98-.5 2.84-1.314 4.26-2.44 4.26-.75-.3-1.124-.86-1.124-1.71 0-1.65 3.44-9.19 10.3-22.63l.94-.64zm-.375 5.97c-1.5 2.707-2.87 5.556-4.12 8.546h1.31c1.27 0 2.9-.287 4.88-.86l-1.68-7.687h-.37zm25.8-6.017h.63c.56.23.85.73.85 1.5 0 1.042-2.17 5.53-6.53 13.47-2.13 5.947-3.47 9.155-4 9.624l-2.09.422c-.91 0-1.55-1.65-1.9-4.93-2.8-9.89-4.2-15.95-4.2-18.17.23-.65.65-1.15 1.27-1.5h.85c.76 0 1.53 2.99 2.32 8.98l2.53 9.4h.21c1.46-3.86 4.62-9.99 9.47-18.39l.64-.42zm18.17.047c.72.156 1.08.703 1.08 1.64-.23 1.77-.94 2.657-2.14 2.657-7.85 0-11.78 1.094-11.78 3.28l-.22 1.845v1.015c5.13-1.23 8.63-1.843 10.5-1.843h.43c.72.312 1.08.995 1.08 2.047 0 1.5-1 2.25-3 2.25-6.57.86-9.86 1.88-9.86 3.08l-.2 2.05v.81c0 1.23.79 1.91 2.35 2.05 2.46-.27 5.53-.88 9.22-1.84h.64c.57.22.86.7.86 1.44v.61c0 1.68-3.57 2.98-10.72 3.89h-.64c-2.57 0-4-1.63-4.28-4.9 0-2.4.5-6.98 1.5-13.72l-.42-1.23c0-2.77 4.28-4.4 12.85-4.9l2.78-.2zm-202.69 42h.75c1.03 0 2.34 4.766 3.93 14.297 1.25 4.5 1.88 7.557 1.88 9.172-.26.85-.76 1.28-1.5 1.28-.95 0-1.64-2.28-2.06-6.83l-.18-.21h-.18c-1.62.02-5.05 1.01-10.28 2.98-.5 2.84-1.31 4.26-2.44 4.26-.75-.3-1.12-.86-1.12-1.71 0-1.65 3.43-9.19 10.3-22.63l.94-.64zm-.37 5.97c-1.5 2.707-2.87 5.556-4.12 8.546H595c1.27 0 2.896-.287 4.876-.86l-1.69-7.687h-.374zm31.42-5.97c4.22 0 6.33 1.437 6.33 4.313v.64c0 2.01-.95 3.948-2.86 5.813v.218c3.14.948 4.71 2.526 4.71 4.735v.85c0 3.6-3.54 6.25-10.62 7.95l-3.48.44h-2.03c-1.09 0-1.64-.58-1.64-1.72v-.22l1.64-17.66c-.69 0-1.03-.14-1.03-.42v-1.3c0-2.44 3-3.66 9-3.66zm-5.93 9.688h.22c6.4 0 9.6-1.438 9.6-4.313-1.05-.708-2.82-1.063-5.31-1.063h-2.45c-1.08 0-1.62.5-1.62 1.5l-.42 3.875zm-.4 4.093l-.4 6.88 2.05.44.2-.22h1.02c5.73-.75 8.59-2.11 8.59-4.07-1.88-2.01-4.81-3.01-8.79-3.01h-.81l-.2-.21-.2.22h-1.44zM648.11 546h.75c1.03 0 2.337 4.77 3.92 14.3 1.25 4.5 1.875 7.56 1.875 9.17-.26.85-.76 1.28-1.5 1.28-.96 0-1.647-2.28-2.064-6.83l-.19-.2h-.18c-1.62.02-5.05 1.013-10.28 2.982-.5 2.844-1.31 4.266-2.43 4.266-.75-.293-1.12-.86-1.12-1.704 0-1.646 3.43-9.19 10.3-22.625l.94-.64zm-.376 5.97c-1.5 2.71-2.875 5.56-4.125 8.55h1.31c1.27 0 2.89-.285 4.87-.86l-1.69-7.685h-.38zm18.14-5.97c4.22 0 6.328 1.44 6.328 4.32v.64c0 2.01-.952 3.947-2.86 5.812v.218c3.137.948 4.705 2.526 4.705 4.735v.854c0 3.6-3.546 6.25-10.63 7.95l-3.483.44H657.9c-1.094 0-1.64-.58-1.64-1.72v-.22l1.64-17.66c-.688 0-1.03-.14-1.03-.42v-1.3c0-2.44 3-3.66 9-3.66zm-5.937 9.69h.22c6.396 0 9.594-1.44 9.594-4.31-1.05-.71-2.82-1.062-5.31-1.062h-2.45c-1.08 0-1.62.5-1.62 1.5l-.42 3.875zm-.405 4.097l-.405 6.88 2.047.44.203-.22h1.015c5.73-.75 8.594-2.11 8.594-4.078-1.887-2.01-4.82-3.02-8.8-3.02h-.81l-.203-.22-.203.22h-1.433zm17.5-13.78l4.783 7.25 2.092 1.72c2.645-4.71 4.49-7.56 5.53-8.543h.954l.77.86c-.1.76-3.09 6.093-8.97 16-1.48 2.78-2.56 5.27-3.25 7.468l-.56.22c-.89-.416-1.34-1.06-1.34-1.92.06-1.115 1.58-4.6 4.58-10.453-4.32-4.65-6.48-8.42-6.48-11.32.8-.85 1.44-1.28 1.91-1.28zm22.58-3.97c5.104.49 7.656 1.918 7.656 4.27 0 2.42-3.444 5.34-10.33 8.767l-1.952 2.016v.234l1.78.22h1.064l.36.453v1.124c0 1.68-1.066 2.65-3.2 2.92h-.89c-1.106 0-1.997-.52-2.674-1.57v-1.58c0-3.42 3.5-7.02 10.5-10.78l.72-.89-2.674-.45h-.355c-3.46 0-6.366 1.58-8.72 4.72-.948-.45-1.42-1.2-1.42-2.25 0-3.55 3.38-5.95 10.14-7.19zm-4.094 22.02c1.54 0 2.31.67 2.31 2.017 0 1.803-1.42 2.928-4.264 3.375h-.172c-1.427-.15-2.14-.9-2.14-2.25 0-1.74 1.42-2.79 4.265-3.14zM726.23 542h1.607c.53 0 .797.336.797 1-1.25 10.805-1.875 18.295-1.875 22.47v2.75c-.36 1.835-1.24 2.75-2.66 2.75h-.55l-1.07-1c.71-11.32 1.6-20.31 2.67-26.97l1.06-1zm9.935.02c1.52.49 2.28 1.155 2.28 2-.322 1.322-2.316 4.23-5.983 8.717h-1.433l-1.13-.89v-.672l4.28-6.922c.29-1.49.95-2.233 1.98-2.233zm12.72 3.936h.405c.662.365 1 .932 1 1.703v.43c0 4.62.4 10.04 1.214 16.25h.203c4.46-11.69 7.083-17.53 7.875-17.53h.61c.593 0 1.536 4.06 2.827 12.19 1.21 4.17 1.81 7.65 1.81 10.47-.4 1-1 1.5-1.82 1.5-.54 0-1.28-3.5-2.22-10.49l-1.63-6.83c-1.16 1.85-3.25 6.69-6.27 14.53-.87.88-1.61 1.38-2.22 1.5-1.75 0-2.63-2.36-2.63-7.07l-1-8.97h-.21l-6.06 13.67c-.37 2.28-.7 3.42-1.02 3.42h-.8l-.81-.85v-1.08c0-1.92 1.68-6.05 5.04-12.39 2.39-6.67 3.94-10.09 4.64-10.27l1.01-.22zm-152.532 42c4.448.615 6.67 3.276 6.67 7.985 0 6.17-2.436 11.27-7.31 15.31-2.01 1.15-3.808 1.72-5.392 1.72-3.86 0-6.35-2.08-7.46-6.25l-.15-1.94v-.65c0-6.73 3.08-11.83 9.22-15.31 1.54-.57 3.02-.86 4.44-.86zm-11.594 16.828c1.6 2.44 3.72 3.66 6.36 3.66 4.24 0 7.2-2.516 8.89-7.547l.31-2.374c0-3.542-1.75-5.625-5.24-6.25h-.49c-2.89 0-5.9 2.875-9.05 8.625-.53 1.73-.8 3.027-.8 3.89zm22.68-16.825c.95 0 2.08 1.78 3.4 5.34 2.56 5.25 5.41 9.74 8.54 13.47 1.05-10.29 1.83-16.34 2.34-18.18l.86-.64h.64c.42 0 .64.28.64.86-1.28 14.68-2.06 22.52-2.35 23.51l-1.29.42c-2.28 0-6.13-4.85-11.53-14.53l-.86-.86-.22.64-.64 9.84v1.28l.22 1.28c-.19 1.71-.76 2.56-1.71 2.56-.88-.32-1.38-.74-1.5-1.28 1.09-15.4 1.87-23.1 2.34-23.1l1.07-.64zm20.9 0h.22c.67 0 1.24.35 1.7 1.04-.99 7.21-1.7 13.65-2.13 19.34l12.18-2.52.42.62v1.26c0 1.91-4.42 3.66-13.25 5.25-1.58-.29-2.36-.77-2.36-1.47 1.16-15.42 2.02-23.13 2.56-23.13l.64-.42zm14.84.04l4.78 7.25 2.09 1.72c2.64-4.71 4.49-7.56 5.53-8.55h.95l.76.86c-.1.76-3.09 6.09-8.97 16-1.48 2.78-2.57 5.27-3.25 7.46l-.57.22c-.9-.42-1.35-1.06-1.35-1.92.06-1.12 1.58-4.6 4.58-10.45-4.32-4.65-6.48-8.42-6.48-11.31.8-.86 1.44-1.28 1.9-1.28zm27.62 0l4.78 7.25 2.09 1.72c2.64-4.71 4.49-7.56 5.53-8.55h.95l.76.86c-.1.76-3.09 6.09-8.97 16-1.48 2.78-2.57 5.27-3.25 7.46l-.57.22c-.9-.42-1.34-1.06-1.34-1.92.05-1.12 1.58-4.6 4.58-10.45-4.33-4.65-6.49-8.42-6.49-11.31.8-.86 1.44-1.28 1.91-1.28zm26.09-.05c4.45.61 6.67 3.27 6.67 7.98 0 6.16-2.44 11.27-7.31 15.31-2.01 1.15-3.81 1.72-5.39 1.72-3.87 0-6.36-2.09-7.47-6.25l-.16-1.94v-.66c0-6.73 3.07-11.83 9.22-15.31 1.54-.58 3.02-.86 4.43-.86zm-11.59 16.82c1.6 2.44 3.72 3.65 6.36 3.65 4.24 0 7.2-2.52 8.89-7.55l.31-2.37c0-3.54-1.75-5.63-5.24-6.25h-.49c-2.89 0-5.9 2.87-9.05 8.62-.53 1.73-.8 3.02-.8 3.89zm23.91-16.83c.66.27 1.03.55 1.11.84-1.19 7.42-1.79 12.82-1.79 16.18v2.31c3.98 0 7.24-1.83 9.78-5.47 1-8.83 1.96-13.25 2.89-13.25h.23c.89.09 1.33.31 1.33.64-1.33 8.04-2 14.06-2 18.07v3.36c0 1.1-.45 1.87-1.34 2.31h-.89l-.88-.85v-.42l.22-3.56c-.53 0-3.42 1.33-8.67 3.98l-1.57.42c-1.78-.23-2.67-1-2.67-2.31v-.2c1.08-14.72 2.34-22.08 3.78-22.08h.45zm17.64 0c.94 0 2.08 1.78 3.4 5.34 2.56 5.25 5.41 9.74 8.54 13.47 1.05-10.29 1.83-16.34 2.34-18.18l.86-.64h.64c.42 0 .64.28.64.86-1.28 14.68-2.06 22.52-2.35 23.51l-1.28.42c-2.28 0-6.12-4.85-11.53-14.53l-.86-.86-.22.64-.64 9.84v1.28l.22 1.28c-.18 1.71-.75 2.56-1.7 2.56-.88-.32-1.38-.74-1.5-1.29 1.09-15.39 1.87-23.09 2.34-23.09l1.08-.64zm31.42 0h.15c1.38 0 2.31 1.35 2.78 4.06l-.33.42h-.16l-1.31-.42c-3.59.53-7.34 3.02-11.27 7.48-1.1 1.93-1.64 3.29-1.64 4.06v.86c0 2.28 2.34 3.7 7.03 4.26 2.94 0 5.16-1.57 6.69-4.71l-1.95-.85c-.73 0-2.75.86-6.05 2.56-.33-.73-.49-1.45-.49-2.14v-.22c0-2.27 2.17-3.84 6.53-4.71h.33c2.5 0 3.75 1.64 3.75 4.92 0 3.38-2.78 6.38-8.33 8.98l-1.96.42c-3.53 0-5.93-1.5-7.19-4.49l-.33-2.78c0-6.46 3.31-11.95 9.95-16.47 1.68-.86 2.93-1.28 3.77-1.28zm7.95 19.68c1.39 0 2.26.85 2.61 2.55 0 1.7-1.22 2.62-3.66 2.78-1.22-.46-1.83-1.23-1.83-2.31v-.24c.48-1.86 1.43-2.78 2.87-2.78z" fill="#000"/></g></svg>