<svg width="1540" height="820" viewBox="0 0 1540 820" xmlns="http://www.w3.org/2000/svg" xmlns:xlink="http://www.w3.org/1999/xlink" style="background:#2D32FD"><title>story25</title><defs><path d="M561.45 462.82c-.568.767-.043.24-.81.774-1.944 2.607-4.94 6.55-8.585 7.372-.934-1.902-1.895-3.83-2.857-5.72-3.085.23-7.837.997-9.394-1.223-6.696-11.038-.103-10.824 4.89-17.18.264.16.527.284.838.422 1.224 4.205 3.21 5.63 6.924 7.36.7-2.463 1.59-8.743 3.272-10.638 1.896.152 3.805.277 5.7.436 1.176 7.29-.477 11.598-4.89 15.09.124.27.262.554.408.83 1.508.81 2.995 1.646 4.503 2.476zm-40.834-39.276c-10.376.94-18.892-.567-26.584.415-1.41 5.94-4.143 6.9-7.332 10.63-1.764-1.77-3.535-3.54-5.306-5.31 1.467-3.26 3.258-7.06 6.53-8.56 4.89-.56 9.78-1.1 14.693-1.64 4.814-1.83 6.01-8.27 9.78-11.04 3.55-.94 7.077-1.9 10.647-2.86.408-.66.81-1.36 1.217-2.04.68.27 1.35.54 2.04.83-3.15 5.11-2.25 6.23-1.64 13.5-2.76 1.41-3 2.78-4.03 6.06zm1010.27 716.353c-5.805.802-8.607 3.188-12.252 4.51h-18.386c-6.55 1.133-14.41 4.21-22.835 2.848-6.33-.996-9.06-3.983-13.897-5.283-9.117-.125-18.227-.284-27.358-.436-10.34-4.502-15.785-4.502-21.243-4.502-3.148-1.307-7.443-4.17-11.83-4.89-.026-6.252-4.48-9.067-6.093-13.48-1.432-3.83-1.14-7.447-2.082-10.22-13.475-4.427-20.213-1.875-26.55.387-.705 3.28-9.94 8.7-12.65 11.04-5.583-.59-8.157-4.65-12.64-6.14-8.1-2.71-14.844-2.47-21.63-6.53-3.043-3.66-6.04-7.37-9.006-11.01-5.804-4.17-15.875-3.56-20.026-9.42-3.507-4.97-10.238-16.36-12.25-21.64v-6.53c-1.806-4.3-8.253-9.01-11.027-13.47-4.89 1.88-13.05 2.58-15.49-2.04-1.15-1.4-1.31-3.5-1.24-6.13-6.37 2.18-5.88 6.32-9.39 9.81-4.25-.13-13.4.24-15.11 2.44l1.65 7.76c-4.26 1.64-5.59 3.28-6.96 4.92 12.64 12.22 18.34 23.27 22.88 35.14 6.06 3.19 5.47 3.12 7.76 4.92 2.79 6.4 11.97 5.77 15.93 11.03-2.04 6.26-1.21 7.64-.4 8.98-2.93 7.24-1.28 7.84.81 14.7 5.36 8.46 9.37 18.25 12.27 22.06 3.89.34 3.71-1.23 3.24-5.74-3.14-7.62-.82-22.3 4.5-26.12 6.69 4.87 7.87 20.27 7.78 22.08-.26 5.7-7.27 8.17-4.92 13.89 8.85 4.99 12.47 5.74 17.17 5.31 7.34-.27 27.91.05 32.67-1.64 7.79-4.82 8.8-4.17 11.03-6.13 1.49-2.84 3.02-5.7 4.5-8.57 6.19-7.93 12.76-11.38 20.02-17.14 2.84-3.68 5.71-7.36 8.57-11.04 1.09 7.24-.38 10.34-3.24 14.71 5.18 4.59 3.17 10.1 4.48 14.3 1.75 5.6 8.9 12.8 13.5 15.93 5.7 3.12 11.42 6.27 17.14 9.38 3.94.94 7.59-1.71 10.64.43 4.08 5.16 8.17 10.35 12.25 15.51 2.75 2.53 9.43 3.96 10.22 8.17-2.91 5.59-6.41 10.79-10.22 15.55-2.71 2.55-5.44 5.15-8.17 7.75-2.4 4.01-2.86 10.78-6.53 13.51-3.12 1.76-7.42-1.16-11.03.41-2.4 7.43-1.02 19.49-1.61 26.96-10.26.39-19.34 2.47-22.44 10.23-1.14 2.79-.79 5.63-2.89 7.35-5.63 4.62-11.39.4-17.53 3.25-5.96 2.76-4.08 10.1-6.96 15.91-9.39 2.34-13.9 1.8-18.41 1.25-7.74 2.58-15.51 5.18-23.27 7.78-4.53 1.88-11.59 6.56-13.47 11.02-1.96 4.64-.94 7.76-4.92 10.21-14.27 8.85-34.07 8.83-49.39 17.17-4.21 2.3-5.39 7.92-9.81 10.24-4.2 2.22-9.69-.44-14.7 1.22-7.38 2.42-13.85 8.55-22.03 11.01-5.25 1.6-13.15-.96-19.21.83-3.66 3-7.33 6-11.02 8.98-10.87 6.99-29.39 9.46-35.52-3.67v-13.9c-3.35-9.14-8.7-20.82-10.62-31.87-.65-3.8 1.54-5.64 2.06-8.17-.7-4.36-1.4-8.7-2.06-13.06-2.56-7.15-9.59-17.5-15.11-22.08-2.2-1.59-4.34-3.25-6.54-4.89-5.73-11.73-11.45-23.42-17.17-35.15-4.74-5.78-14.7-6.93-19.2-13.07-3.24-4.64-6.52-9.26-9.78-13.9-3.4-9.25.96-21.21-3.26-29.41-4.2-7.62-8.46-15.26-12.64-22.88-6.51-6.31-15.41-8.39-20.83-15.93 2.6-12.03-5.25-18.99-10.64-26.54-7.12-10.05-12.52-19.73-19.16-30.66-3.02-3.8-6.01-7.63-8.99-11.42-6.26-8.21-2.3-17.73-.84-26.57-8.06-14.03-12.82-25.99-17.57-37.99 6.07-5.07 8.4-13.02 11.03-21.65.54-2.74 1.09-5.44 1.64-8.17 6.31-10.99 10.22-27.91 19.58-37.17-3.58-8.7.7-13.88-4.91-21.27 1.66-2.92 3.36-6.15 4.1-9.8-1.08-1.9-2.18-3.82-3.28-5.73 2.37-2.99 5.63-4.61 8.2-7.36-1.25-3.54-2.06-4.64-2.86-5.73-3.96 3.07-7.02 4.92-9.42 7.36-7.03-.93-9.52-4.41-18.37-4.49-3.52 4.06-7.53 5.38-10.21 10.62-5.13 1.21-15.77 5.49-24.5 2.89-6.11-1.84-8.36-7.98-13.05-11.03-6.4-4.17-15.81-6.44-24.92-5.31-.96 4.64-1.92 9.26-2.86 13.9-6.83-2.42-15.24 1.17-21.61-.82l-4.92-11.43c-8.75.63-8.86-1-14.3-.83-8.86-3.7-13.23-4.09-17.59-4.5 3.95-5.03 3.83-5.59 3.67-6.12-8.3-6.72-6.72-10.86-6.94-14.72-5.77-1.55-7.54-3.67-14.31-4.51.65-4.36 1.37-5.85 2.05-7.36 5.08-2.67 4.01-4.55 4.516-6.16 1.16-7.27 2.49-7.06 1.6-8.58-3.12-3.93-2.17-5.03-1.23-6.12-1.9-2.87-7.5-2.05-13.06-1.25.23-3.89 1.41-7.71 2.03-12.25 7.77-7.59 14.96-9.52 20.83-10.23 1.09 3.5 5.896 4.3 10.22 2.86 9.5-.87 15.94-1.16 23.29 0-4.92-5.38-4.41-5.5-3.29-6.95 5.85.02 13.33-.56 17.98-2.03-11.08-3.07-13.64-3.75-15.51-5.76 8.44-4.34 14.41-3.82 20.4-3.26 11.17.07 15.226 4.38 24.09-.39 10.86-6.95 20.07-14.94 32.65-18.01 13.97-3.35 23.61 5.09 34.74-2.02 2.87 3.694 2.4 8.06 7.76 9.4 4.45 1.113 9.17-2.213 11.03-.837 2.7 4.55 2.75 7.06 7.75 9.4 9.11-3.42 10.7 3.54 18.8 4.91 6.72 1.1 18.23 3.83 24.53 2.41 3.38-1.09 6.804-2.15 10.19-3.25 7.39-1.24 13.21 4.07 21.64 2.04 15.09-3.64 25.9-10.03 20.83-28.61-.94-3.38-1.9-6.82-2.856-10.22-4.53-6.93-17.91-8.63-24.51-13.48-3.19-3.44-7.55-9.86-10.63-12.29-5.66-4.48-11.23-10.38-17.98-13.5-10.96-4.09-12.03-6.8-14.7-8.56-9.25-1.97-13.07-7.66-15.94-11.44 3.64-.87 10.36-1.57 13.52-3.28.38-6.35 3.94-9.49 5.71-14.72 5.81-7.12 1.09-10.05-3.67-13.46 12.09-2.46 21.78-6.75 28.18-11.84-8.03-2.99-14.03-1.9-20.02-.83-5.57 2.19-10.34 2.74-15.11 3.28-12.51 6.41-20.57 7.89-28.58 9.393-8.15 4.57-7.97 4.91-9.39 4.09-4.78 1.91-6.61 3.594-9 6.13-6.93.18-12.99-.61-19.59 1.22 9.27 3.47 20.49 12.1 22.08 20.03 6.02 1.61 10.46-1.96 15.11-2.47 4.09.55 8.17 1.09 12.25 1.64-.72 2.75-2.59 5.26-4.08 7.36-10.22.7-12.06-1.55-15.94-.42-2.18 1.78-4.34 3.55-6.53 5.31-21.29 4.89-13.12 9.93-31.45 6.53 7.29-18.23-3.48-15.96-16.33-18.39 4.37-6.66 16.17-8.7 20.43-13.48-14.86-5.14-25.6-2.05-31.84-10.62 4.5-5.17 4.5-5.46 4.5-5.75-32.916-1.83-26.88 11.14-39.64 18.81-3.87 2.34-11.837 1.9-9.78 8.62 1.763 7.21.24 10.35-1.226 13.48-14.52.67-16.08 12.12-18.39 24.93-.26 2.58-.545 5.16-.81 7.76-8.56 6.945-10 11.32-11.03 16.758-3.47 1.35-4.19 2.71-6.524 4.89 5.703 2.34 11.58 19.33 17.17 22.47 4.29 2.45 10.6 1.88 13.463 5.75-1.16 2.51-2.41 4.22-4.09 6.11-10.39-.23-8.83-4.29-17.553-.82-10.74 3.157-11.7 5.045-12.66 6.975-3.93 1.77-7.88 3.54-11.82 5.27-3.18 2.347-4.77 6.41-8.99 7.79.53-2.033 1.1-4.11 1.64-6.14 3.06-5.36-1.516-6.02-3.695-7.37-2.51-6.9-17.25.46-20-6.12-3.22 1.68-4.73 3.23-9.79 3.25-9.38 3.77-7.72.8-16.36 2.48 2.62 7.04 8.27 8.11 12.25 13.09-5.49-3.49-7.45-4.04-9.78-4.48-.63 4.42 1.73 4.7 3.256 7.36-5.05-1.64-7.8-4.67-12.67-4.89 1.85 3.737 4.657 4.65 6.94 7.37-7.42-8.24-13.76-7.52-16.31-12.67-4.342 4.453-5.2 5.546-5.324 8.56 3.44 7.63 9.2 13.9 14.3 20.044-8.58.65-7.75 2.55-6.95 4.46-1.54 4.22 20.06 15.34 20.42 19.18-.81 2.99 0 5.58.83 8.17-4.57-1.53-8.22-6.2-11.474-6.55-6.94 5-6.67 6.69-5.28 9.8 2.27 3.33 1.62 3.92.4 6.12-5.03-4.36-7.22-5.04-9.39-5.72 2.57 8.3 5.8 12.13 6.13 20.83-9.68-.4-10.38.83-11.03 2.05-1.54-3.85-4.92-10.82-7.78-9.4-7.54-3.42-5.66-6.965-6.54-9.787l-7.34-8.99c1.37-2.45 2.71-4.9 4.1-7.365 4.95.2 7.73-2.38 10.2-2.03 7.7 1.12 14.36 11.08 20.84 2.47-6.67-.9-9.33-4.72-14.31-6.15-7.9-2.262-15.84 1.06-22.44 1.62-2.33-3.52-4.63-7.07-6.96-10.63 6.41-4.22 5.87-4.78 5.33-5.31-8.15 1.26-15.39-4.57-17.98-11.04-.43-1.9-.79-3.8-1.24-5.724-2.98-3.91-10.5-5.26-12.25-10.23 2.03-3.23.99-4.05-.39-6.1 1.1-2.04 2.18-4.08 3.256-6.12.237-.57-1.223-12.33-.82-15.14-.28-5.85-3-7.22-5.71-8.59-1.93-2.31-3.82-4.63-5.72-6.95-8.7-5.98-17.62-9.87-26.14-15.92-3.26-2.34-5.85-6.34-8.99-8.61-.72-.53-10.25-4.39-10.62-4.48-12.2-5.72-19.29-9.4-24.1-16.34-9.56-5.83 1.37-19.12-15.1-25.76-1.08 3.01-2.18 6.01-3.26 8.98-7.27-.98-10.46-5.97-11.81-12.24 4.21-3.54 3.54-4.63 2.86-5.69-10.35 1.063-10.48 2.15-10.63 3.25-6.05.393-13.13 2.66-15.92 4.5 1.24 9.2 2.93 9.07 4.94 11.47-1.36 2.53-3.19 3.32-4.92 5.32 2.71 12.88 7.91 16.44 17.56 22.06 2.89 1.71 6.61 2.31 8.58 4.89 2.61 3.43 2.3 9.23 4.1 13.5 2.9 6.89 11.17 14.4 16.3 19.63 5.57 5.6 23.57.17 26.58 4.88-2.56 3.02-3.66 4.79-5.7 6.54 21.82 7.53 37.23 18.236 49.83 30.62-.96 2.86-1.92 5.7-2.86 8.57-2.32-1.52-4.63-3-6.95-4.51-5.56-7.76-15.06-5.74-14.72-11.86-7.1-.96-12.55 10.03-12.64 17.17 3.96 2.17 7.91 4.35 11.84 6.53-1.27 2.86-1.29 5.88.41 8.6-8.2 2.2-9.34 3.77-12.25 6.53.33 2.94.98 4.75 0 6.94-5.06 1.61-6.9 6.51-9.41 10.64-7.73-3.28-7.73-4.9-7.73-6.532 4.37-1.9 5.38-4.7 4.09-9 7.146-4.52-2.32-30.8-4.454-31.46-7.36-.53-10.22-2.32-13.094-4.09.99-1.86 1.39-3.5.82-6.14-6.55-2.992-8.977-2.3-11.44-1.62-8.1-16.78-17.82-13.232-27.78-18.37-11.08-5.71-20.47-17.152-32.27-24.51-13.53-8.435-12.74-32.1-26.955-39.22-10.91-5.46-19.09-5.25-27.39 1.22-1.62 1.78-3.25 3.54-4.89 5.32-19.44 9.235-23.757 18.37-39.22 21.21-8.03 1.47-10.76-5.49-15.53-7.34-17.77.745-19.52-6.88-29.807.42-16.21 11.486-1.7 19.94-6.52 32.68-3.91 5.02-12.81 5.14-17.56 9.395-10.41 9.17-21.82 4.31-27.34 13.92-6.786 6.82-19.25 22.44-21.26 31.84 1.51 3.42 3 6.82 4.49 10.24-1.76 8.56-11.417 15.45-13.056 25.34-7.164 5.59-15.13 5.37-18.364 11.04-3.16 5.54-2.47 7.88-7.334 11.46-20.597.66-31.34.53-42.11.393-2.03 1.78-4.08 3.54-6.11 5.32-7.05 2.36-9.67 1.01-11.46 8.58-10.29 2.62-15.64-4.33-16.74-11.04-2.85-8.26-12.18-16.01-21.65-13.48-2.85 1.36-5.71 2.7-8.57 4.08-12.73-3.09-16.755-.98-20.42.81-1.07-4.12 2.1-8.03 2.87-11.04 1-4.03-.62-8-1.65-9.81.88-4.03 1.75-8.11 2.45-11.45-8.82-.7-9.1-1.76-9.38-2.86 6.42-4.37 5.85-5.46 5.32-6.54-2.31 3.45-4.06 4.15-6.53 5.32-1.46-6.338-.48-10.41-.83-15.54 10.48-5.66 15.11-40.42 8.97-53.14 1.12-1.89 5.42-14.59 4.91-15.53-1.72-5.28-4.56-8.56-10.62-9.79 2.04-9.03 5.56-10.77 12.25-11.03 6.13-2.17 6.96-4.37 7.77-6.54 8.89-3.52 14.89 1.38 23.69 2.84 7.01 1.18 12.23-3.4 17.17-4.5 1.08-.24 18.03 4.55 22.84 5.31 10.58 1.69 28.11 4.06 33.07-2.03 8.37 2.38 13.64 6.65 24.11 4.89 3.49-7.5 5.59-17.55 7.75-27.38-.53-8.91.28-16.97 2.86-21.63 2.6 2.7 4.77 5.44 6.94 8.15-1.38-6.25-5.31-8.78-8.56-13.07.36-3.42 1.91-5.59 3.26-8.147-4.63-9.84-3.16-5.43-11.85-9.81-2.61-3.14-5.18-6.28-7.76-9.4-.97-6.65-6.31-8.51-8.59-11.456-12.39-10-24-12.716-33.897-11.88-1.92-3.91-4.95-3.5-6.11-5.705 5.79-5.4 5.94-5.88 6.92-7.81-8.43-.51-8.3-2.318-8.16-4.08 5.8-.04 9.39-3.71 14.3-4.09 11.85-2.7 14.72-2.99 17.58-3.277 1.77 2.34 3.54 4.64 5.31 6.98 4.47.24 14.02-1.9 17.58-3.7 4.47-2.11 5.19-6.08 5.3-11.44-3.803-1.93-6.23-7.25-6.97-12.26 5.29.56 8.24.77 13.06 0-.48 4.19.15 6.14 1.64 8.99 9.21-4.55 19.68 4.73 27.36-2.85 1.7-10.25 11.48-8.65 18.79-13.49 6.41-4.19 3.27-13.14 5.74-20.81 2.99-1.51 5.99-3 8.97-4.5 10.5-2.74 14.02-5.04 17.58-7.37 4.89-1.93 10.47 2.5 13.89-1.62.25-8.61 5.02-12.67 9.82-16.75 2.43-6.14 4.89-12.27 7.34-18.39 8.13-.24 9.48 1 10.64 3.26-3.93 6.51-3.93 7.52-4.91 9.84 4.74.67 7.38 2.92 10.62.83 1.87-2.91 4.07-2.405 4.89-6.97-4.77-4.21-4.22-4.605-3.26-6.12-5.33-4.98-5.35-6.265-4.5-9.83 6.184-2.073 18.65-8.56 26.535-5.31.87 1.97 3.45 3.48 4.91 4.92.37-2.99-1.16-2.6-1.64-5.73 5.44-5.613 11.9-6.173 18.79-6.13.91 3.036 1.25 4.41 1.63 6.94 6.33-6.62 7.36-7.56 8.606-11.445 6-4.605 6.68-5.16 7.36-5.704-4.29-4.61-6.18-3.76-6.95-6.54 5.88-7.188 1.78-9.35.82-12.666-.92-3.1.15-11.61-.42-15.52-8.01-1.77-9.09-2.33-10.19-2.86 1.37-3.5 2.91-5.18 4.89-7.78-.45-6.75-5.76-11.51-1.22-18.37 11.08.7 11.56-4.05 14.7-5.72.84 1.896 1.61 3.798 2.44 5.72 3.29-4.63 3.68-8.06 4.11-11.47 5.85-.17 11.99-.92 16.31 1.25.07 3.26-.034 8.61 2.035 9.788 11.703 2.25 8.06 9.33 7.34 10.67-7.75 6.23-12.79 7.03-14.3 12.26-7.36 5.85-8.96 11.25-9.78 17.143 4.51 1.61 12.4 7.42 8.583 13.51 7.66.66 8.14 3.24 11.83 4.06 9.8 0 10.22.81 10.64 1.62-2.1 3.41-3.64 4.08-6.54 6.53 9.66 2.87 11.17 2.87 12.65 2.87 1.98-4.97 25.7-12.96 29.4-12.68 3.06 8.83 9.13 5.11 14.31 7.78.29 2.31.55 4.62.81 6.94 4.56 1.78 8.34 3.54 13.49 5.32-.05-3.74-.56-5.01-.82-9.4 22.68-1.59 36.02-12.55 54.7-18.39 4.31-1.34 18.32-4.79 18 .82 1.55 2.22 2.68 4.36 3.25 7.76 11.49 4.22 16.88-1.9 24.917-6.12.26-3.5.59-7.38 1.62-10.64 7.27.45 18.1 2.56 23.27-.42.35-2.71-.06-3.5-.8-5.7-.66-7.02-7.24-30.05-2.86-39.24 2.02-1.64 4.07-3.28 6.07-4.92.164-2.85.31-5.71.45-8.57 2.18-2.73 4.34-5.46 6.52-8.18 7.25-.05 9.873-3.42 17.17-3.69 2.99 5.06 5.992 7.23 8.97 9.39.95 2.61 1.912 5.18 2.853 7.79 6.56 6.05 18.18 1.89 20.84-4.91-3.32-11.74 1.117-18.71 2.44-29-9.97 1.62-11.46.63-15.11-.4.15-3.69.29-7.36.41-11.03-5.052-2.67-5.03-4.98-6.52-8.98 10.3-4.92 14.12-8.083 19.61-11.04 10.48-1.76 13.6-1.063 16.72-.413 5.62-.94 11.31-3.35 16.34-2.45 9.98 1.82 18.56 3.76 28.99 4.48 8.78-6.1 6.55-6.95 4.508-9.4 7.65-3.56 7.57-2.78 8.58-4.5 9.09-1.08 10.65-4.94 15.47-5.33 5.31 1.66 8.24 4.28 14.336 4.49-6.4-19.4-19.06-2.945-28.58-16.73.6-2.295 3.07-7.52 1.22-7.36-8.05 3.45-17.02 6.11-20.81 9.786-11.7 0-14.02-.82-16.33-1.603-6.26 5.13-11.58 2.41-12.67 7.74-7.27.07-13.05.67-16.35 2.45-5.69.104-7.8.8-10.58 4.51-11.32-.19-19.38 4.1-23.71.82-2.77-1.16-4.06-3.04-5.3-5.72-8.85-3.7-8.69-5.34-8.57-6.96-18.28-7.08-19.854-14.874-17.55-26.98.525-2.6 1.08-5.18 1.63-7.78-2.21-3.38-4.37-6.82-6.53-10.22.72-4.71 2.01-7.83 2.03-13.9-3.69-11.43-.59-13.637 4.06-17.987 2.948-6.58 5.61-6.03 9.395-4.48 9.16-4.7 4.44-11.96 10.21-17.98 8.78-1.7 37.38-31.25 43.69-33.06 7.93-2.05 8.22-3.32 7.36-4.5-2.44-6.2-1.11-11.52-2.032-13.92-11.27-3.757-13.79-7.17-18.77-11.06-5.28-.11-18.19 2.93-19.61 2.035-3.27-2.17-6.53-4.37-9.81-6.538-7.39 3.56-7.61 11.55-13.46 15.93-4.96 3.74-6.88-.52-11.84 6.15 1.47 1.88 4.326 4.19 2.86 6.53-1.54 3.33-6.416 7.08-9.78 8.56 2.91 4.68 6.816 6.47 8.99 9.84-7.694 4.57-8.08 11.58-12.63 17.15-6.4 4.35-12.814 8.71-19.19 13.07-8.63-.855-8.656 2.9-11.865 5.327-6.78 5.09-9.14 5.07-14.27 12.26-7.65 2.67-6.37 5.64-7.36 7.37-1.36 1.77-2.73 3.54-4.09 5.28-6.13 7.326-2.55 9.3-6.13 20.44-6.16 7.93.08 24.466-2.87 26.96 5.03.94 6.55 2.75 9.015 3.69 7.58 6 12.71 11.53 20.83 12.66 1.4 5.06 4.37 5.39 4.49 11.46-5.27 2.11-18.38 12.59-23.69 9.8-4.15-2.18-21.27-7.88-23.7-5.3 7.52.18 10.88 7.78 17.98 9 6.79 1.14 11.42-5.51 17.99-2.88-5.624 6.43-8.06 7.91-8.97 12.3-4.08-2.05-4.08-4.1-4.08-6.13-5.47 2.07-.916 12.63-12.275 10.61-4.22 2.6-8.04 2.73-11.84 2.89.86 4.13 10.57 15.84 4.5 20.42-3.17 5.3-2.21 5.74-1.25 6.13-1.13 2.8.64 4.81-.41 6.53-1.2 2.77-2.97 4.89-3.69 8.57-.14 2.6-.27 5.18-.42 7.77-3.82 6.93-7.62 13.88-11.45 20.82-10-2.56-14.14-2.003-21.24-2.05-7.02 4.48-7.9 7.54-9.38 11.42 1.57 2.475 3.58 3.67 1.24 5.73-10.04.58-16.85 4.52-26.55 2.44.76-3.78 2.23-4.67 3.28-8.56-4.57-3.45-7.56-8.98-10.22-14.316 3.94-3.13 3.82-4.22 3.68-5.284-1.47-8.93-7.9-13.2-11.02-23.73-3.04-7.955-5.13-9.628-8.17-13.45 1.2-3.018 3.36-7.57 2.84-10.65-7.35-3.115-8.57-2.99-9.8-2.85 0-4.775-.33-14.215-3.68-15.937.74-3.15 2.41-4.05 2.04-7.37-7.89 2.58-8.06-1.814-11.47-6.54 1.53-2.12 1.59-2.71.83-5.72-3.02 8.17-4.19 13.35-8.17 16.35-12.59 2.31-12.62 4.645-15.11 6.94-7.21 6.65-15.95 11.13-22.85 17.98-4.36 2.215-17.92 3.95-22.47 2.84-6.92-3.69-6.1-4.48-5.3-5.31-7.36-1.854-11.68-5.08-19.59-7.37-1.22-2.44-2.46-4.914-3.69-7.36 1.45-2.72 2.61-4.15 1.64-7.36 6.47.88 8.3 3.04 10.59 4.5-2.07-4.17-1.13-3.21-4.05-5.3 2.02-4.22 4.49-5.597 6.935-6.96-4.2-3.57-2.76-4.42-1.64-6.95l-5.29 4.9c-9.95.68-10.08 1.373-10.22 2.05-2.59-3.14-3.16-5.04-3.68-6.97 1.64-1.9 3.26-3.79 4.89-5.69 10.59.7 12.97-.48 14.72-2.87-9.13 1.204-10.06.395-11.04-.407 4.77-3.09 5.64-5.4 6.14-8.99-7.13-.72-10.89 2.14-14.3-2.86 2.49-2.46 5.52-5.14 8.16-7.36-5.28-1.06-7.14-1.47-9.78-3.3.64-7.3 2.92-8.054 6.53-10.99-4.21-2.334-4.763-4.824-6.97-7.81 2.4-3.75.88-8.67 2.45-13.48 4.218-.28 8.43-.53 12.65-.82-2.32-3.04-5.312-3.92-6.95-6.14 7.09-5.49 9.91-10.71 16.31-8.15 5.03-1.86 4.34-3.57 5.728-9.01 6.96.5 13.1 4.4 17.16-.41-4.69-.77-9.12-2.776-10.215-7.34 10.5-2.09 18.19-2.3 23.673 0-.18-6.736 9.17-19.04 14.3-15.54 7.07-3.61 12.64-4.8 15.13-9 .42-2.18.84-4.355 1.23-6.53 2.87-6.06 13.97-15.08 20.02-17.97 9.78-1.65 9.39-2.86 8.98-4.08 5.17-4.56 8.25-10.29 13.05-15.14 7.65-2.456 7.496-5.3 7.36-8.16-.1-8.425.136-17.146 10.64-14.72.39-2.74.827-5.44 1.22-8.166 5.956-5.734 2.7-6.94 0-10.24 1.35-2.15 2.72-4.35 4.08-6.53 4.22.21 7.29-.15 11.46-.4-1.37-2.753-2.724-5.063-4.1-7.38 5.976-3.28 16.59-4.55 18.78-9.4.387-5.25 1.31-8.002 4.1-10.222 9.73-.81 11.25-1.42 14.69-2.47-1.933-3.85-3.42-5.63-2.83-7.36 4.06-1.46 4.37-6.14 8.56-6.53 1.98 3.08 3.21 3.95 6.137 5.72 2.46-2.6 3.676-4.35 4.907-6.12-.67-3.01-1.37-6.01-2.05-8.99 4.24.89 8.736.8 11.03-2.46-3.69-5.88-2.47-7.23-1.22-8.6 7.29-2.34 5.14-6.69 9.38-9.79 8.03-5.92 9.97 2.73 13.9-13.064 13.51.96 15.4 5.31 24.08 6.12 3.15-5.27 7.24-17.06 12.65-20.02.5 6.41-.28 10.72-1.23 15.13 4.79-3.56 8.05-8.112 9.81-14.71 7.34-.83 9.97-3.7 13.07-8.582 3.95 2.74 6.68 5.05 9.395 7.36 6.5-22.87 12.48-11.47 24.49-5.3 1.75-5.66 6.36-14.77 11.033-17.564 17.02-9.98 19.93-15.26 38-13.91-6.52 8.49-13.97 9.93-13.88 25.77 7.48-10.09 19.21-20.87 28.16-26.99.28 6.02.524 12 .83 17.987 8.41-3.96 13.02-10.35 15.92-19.6 5.06-.94 12.27-3.43 15.51.81-4.43 6.39-5.52 9.68-8.154 18.01 8.75-5.83 13.03-11.54 17.55-15.54 7.82 2.313 12.36 7.32 19.17 10.23 3.28 1.397 8.07-.243 12.25 1.217 5.44 4.766 5.58 6.267 5.75 7.78-7.93 7.95-22.78 6.246-38 6.12 4.81 6.12 13.71 7.67 17.98 14.29 9.64-.664 16.35-3.11 23.69 1.64 12.93-5.18 16.91-7.49 20.84-9.78.29 13.58 10.7 15.7 22.45 17.96.28 2.99.53 5.98.82 9 17.3-3.69 28.86-2.87 40.42-2.07 6.97 2.45 13.89 4.92 20.86 7.37 4.34 1.38 8.71 2.73 13.08 4.11 7.76 6.53 15.48 13.07 23.28 19.59 8.15 2.46 16.31 4.9 24.5 7.38 7.68 2.51 15.38 8.04 21.23 12.65-.33 8.72.46 11.12 4.92 15.54.31 11.69-7.95 16.68-15.11 22.06-33.83 25.49-85.47 1.45-117.63-8.16-4.47-.69-8.97-1.39-13.49-2.04-5.784-3.25-7.82-16.19-22.06-8.99 7.546 6.97 14.55 15.6 23.28 21.26 5.3 3.41 15.39 4.35 19.61 8.98 6 6.55 3.36 16.5-4.48 18.82.53 5.33 11.1 32.47 13.88 33.91 5.5 2.8 13.886 1.22 18.82 3.69.65 2.41 2.19 6.03 4.08 7.36 3.39 2.12 8.87.97 13.48 2.04 10.35 2.4 26.42 3.55 16.74-13.5-3.43-.47-8.6 1.15-12.25-.42-4.17-1.77-12.04-10.61-12.26-14.704 3.41-3.12 3.19-8.1 9.81-8.144 10.98 6.82 24.8 13.15 38.77 17.15 6.1 1.74 10.6-.72 15.14-1.23 14.28-9.28-2.12-17.11-2.45-28.228 10.83-13.38 34.51-11.84 42.45-28.59 14.86-1.74 25.704 11.32 36.34 11.84.43-3.15.82-5.44 1.26-7.77 3.91-12.42 7.13-10.89 2.03-26.13-4.71-.71-7.64-2.51-9.8-5.74 4.1-6.01 7.34-11.19 10.62-16.37 2.5-11.12-8.87-12.13-7.75-21.66 5.31-1.37 8.64.87 13.87 2.04 6.27-.53 12.56-1.095 18.8-1.62 8.76 1.686 16.09 16.78 19.61 24.1-14.6.56-30.04.15-32.67 13.065 12.95 10.06 18.478 20.37 40.42 15.93 3.695-.67 7.36-1.37 11.035-2.04 5.8-4.18 3.35-17.94 8.96-22.46 3.29-.94 6.55-1.9 9.81-2.87 13.35-5.51 27.94-11.8 42.48-17.57 8.56-3.54 17.14-7.06 25.71-10.63.67 2.19 1.37 4.39 2.02 6.54 17.52-2.68 3.72-15.62 28.22-15.52-.55 4.73-1.62 8.86-1.63 15.11-8.53 2.97-9.01 3.74-8.99 6.96 9.74 3.29 12.448-1.01 24.097-1.23 8.2.44 8.01-8.24 13.88-10.62 5.29-2.144 16.51-3.98 23.283-2.034 3.77 1.08 8.66 5.21 15.11 3.28 2.732-2.18 5.44-4.37 8.17-6.53 10.59-8.07 17.58-7.32 29-2.06-1.908 2.45-3.82 4.93-5.73 7.37 1.6 4.55 7.8 8.83 13.88 5.71.88-2.08 1.91-7.25 3.26-9.39 11.07-1.55 18.15 1.26 18.82-13.07-3.97-5.03-7.92-10.07-11.85-15.1 4.8-2.99 7.07-8.22 12.25-9.41 11.28-2.6 32.92 3.52 40.84 5.72 36.78 10.26 22.41 1103.68 17.26 1092.93zM826.91 799.027c-1.086-.546-2.206-1.1-3.28-1.64-.275.7-.517 1.378-.822 2.035 2.684.477 3.687 1.466 5.3 2.863.29-.263.552-.526.836-.837-.67-1.26-.768-1.66-2.034-2.42zm518.222 1.667c-1.77-2.746-2.324-10.298-3.285-13.908-6.42-.387-11.92.637-17.53 1.62-1.362 5.09-.31 15.013-2.08 19.598v-.802c-1.37-2.282-4.034-5.47-4.892-7.372.14-1.238.263-2.462.422-3.687-.81-.415-1.64-.83-2.442-1.25-1.404-2.844.277-5.306-1.224-7.747 1.64-3.9 3.91-8.984 6.11-13.078-4.49-4.654-9.38-3.333-15.1-4.06-1.13-2.953-3.33-5.615-5.71-7.365h-5.72c.38-10.657-6.78-13.72-8.6-23.7-3.24-.485-9.36-1.55-11.8-3.258v-5.305c.41-.42.8-.836 1.23-1.224 7.87-.428 17.75 4.08 21.63 1.224-.41-.525-.8-1.1-1.22-1.652-3.23-.927-5.63-2.794-7.36-5.284 1.23-3.617 3.02-2.62 4.92-4.91.81-2.172 1.63-4.35 2.44-6.536 3.54.118 4.13-1.203 6.53-1.618 8.87.83 17.71 1.618 26.58 2.455-.16-.263-.3-.526-.43-.837-2.87-.802-7.12-2.386-7.35-6.12 5.99-7.975 8.34-10.727 5.32-21.26 1.09-1.086 2.16-2.178 3.24-3.257-.94-1.63-1.89-3.27-2.86-4.91-3.67-.83-7.34-1.61-11-2.42-2.36.83-3.6 4.3-8.58 3.25-4.67-1-7.34-5.24-13.47-5.72-11.02-.85-18.23 10.05-26.57 12.68-2.57.13-5.15.27-7.75.39-5.29 2.02-7.36 8.36-13.89 9.82.03 2.6-.19 3.22-1.25 4.48-.93-.52-1.91-1.08-2.84-1.61-5.15 2.97-11.25 8.15-17.98 4.89-.29.4-.52.83-.82 1.23-1.84 5.9-3.73 12.49-7.77 18.39-2.03 3-7.05 3.4-7.36 8.18v2.03c.89 2.19 3.69 1.67 5.73 2.87 6.43 3.83 7.29 11.1 7.36 18.39h.43c.68-2.44 1.35-4.9 2.03-7.36h1.64v1.23c-2.36 6.07-4.94 14.83-1.24 20.03 3.26 1.84.85 3.94 2.86 6.93.94.27 1.92.56 2.88.84 4.05 3.59 5.8 9.38 8.96 13.9 1.22.4 2.45.84 3.67 1.23 3.38 2.69 7.6 8.41 10.22 11.86 1.84 2.41.95 5.4 2.44 8.58 1.27 2.71 4.19 5.5 6.12 8.17 3.29 4.66 11.94-1.24 15.51 6.95.15.68.28 1.38.41 2.06h-.41c-17.28-7.31-18.76 10.87-17.98 21.66-1.5-.31-1.56-.18-2.83.42-.45 1.9-.83 3.8-1.27 5.69-.4-.26-.81-.51-1.23-.82-.38-1.76-.54-1.9-1.63-2.84-.4.29-.81.56-1.22.82.02 10.77-7.02 23.2-3.67 35.97 6.33 2.14 14.8 4.05 22.47 6.09 7.08 19.14 34.96 17.19 55.11 12.67 5.64-1.24 14.1.2 17.98-2.86 5.38-4.22-.45-20.39-1.6-26.96-.24-1.19 1.2-4.39 1.23-6.97.02-5.5 3.37-9.6 2.44-13.07-1.87-3.68-5.85-4.22-7.36-8.58-3.88-.73-5.45-1.43-8.15.43v-2.87c.67-.93 1.39-1.9 2.04-2.84 2.87.26 5.73.52 8.57.79v-1.23c-1.73-.5-3.55-1.38-4.45-2.87-.3-.8-.54-1.64-.83-2.44.96-1.22 1.92-2.43 2.86-3.7-5.3.12-11.35.99-13.89-.39-2.16-6.27-1.44-18.88 2.86-23.69 1.1 2.17 2.18 4.36 3.25 6.55 3.5-.49 3.87-.33 6.98.41.26-1.1.54-2.19.8-3.25.83.26 1.64.51 2.42.8.18 1.51.31 3.01.44 4.5.29.13.52.29.82.42 2.17-.67 4.32-1.37 6.54-2.03 2.5-.44 2.66 1.57 4.49.8-.55-1.61-1.11-3.25-1.64-4.89 2.6.53 2.67 1.51 5.31 2.04 1.97-.92 2.66-1.3 3.65-3.26-3.19-6.64-9.59-6.96-12.57-11.44zM333.57 566.964v.39c3.956.192 18.317 1.465 19.19 2.032h.808v5.747c-3.1.726-8.342 1.91-8.585 5.7-6.633-.61-8.294 3.173-13.06 4.093-3.956-.533-7.872-1.065-11.828-1.64-2.733.672-5.465 1.377-8.17 2.048-2.068-.387-3.01-2.483-6.135-2.047-5.43.81-10.875 1.64-16.312 2.44.263.942.526 1.903.837 2.864-11.953-1.06-15.342-2.35-28.174-.82-.42 12.87-6.55 9.53-13.49 5.72-1.66 1.12-3.21 2.2-6.13.84-5.7 1.97-10.55 5.38-13.86 9.82-.94-.94-1.89-1.9-2.85-2.86-2.04-.55-4.1-1.06-6.12-1.64.13-.26.25-.55.39-.83 7.54-2.27 21.63-11.67 22.45-20.42 4.89.81 3.84-1.86 6.14-4.51 7.17-3.35 13.67 1.74 22.06-.41.21-4.65 3.86-7.21 5.71-11.03-4.25 1.76-7.32 4.63-13.05 4.9h-.83c-3.93-1.9-7.89-3.8-11.85-5.72-5.44-.14-10.88-.26-16.32-.39-1.63-1.38-3.27-2.73-4.9-4.11.7-.65 1.37-1.35 2.05-2.02 2.06-3.8 14.2-4.19 19.18-11.42.12-3.59 1.04-7.93-.4-10.23v-.82h-8.59v-.4c4.75-9.51 17.63-10.88 31.45-11.03v-.41c-4.06-8.11.51-12.81.81-22.87h-.39c-2.33.41-4.63.83-6.96 1.21-2.18-2.56-4.09-3.55-5.7-6.92 1.11-5.53 4.87-7.8 7.77-11.48-11.61-3.02-8.3 1.53-17.17 2.05-2.42-.68-4.89-1.37-7.36-2.05-.3 2.48-.93 2.97-2.45 4.11-3.26-.8-6.52-1.63-9.78-2.44.96-6.31 9.93-13.98 7.75-17.98-2.73-1.42-3.84-4.55-3.26-8.17 2.35-.72 3.63-1.9 4.9-3.66-.39-1.78-.83-3.54-1.23-5.32h-1.63c-4.5 3.75-9.81 6.8-15.1 9.8v-.82c-3.04-6.07 3.62-13.85 5.71-19.6-1.63-1.07-3.26-2.16-4.89-3.25-.13.25-.28.53-.42.8-1.65 2.17-2.64 3.74-4.89 5.32-1.35-.69-2.73-1.37-4.08-2.04.8-1.38 7.36-13.07 7.36-13.07-.54-2.6-1.12-5.18-1.64-7.75 1.01-1.46 3.71-1.33 4.9-3.27-1.77-2.03-3.54-4.08-5.31-6.13 1-1.99 2.03-3.87 4.49-4.48 2.87.99 4.96 1.37 8.19 1.22-1.63-3.27-3.28-6.53-4.89-9.81 2.6-.82 5.16-1.63 7.75-2.46-1.22-1.9-2.45-3.8-3.66-5.7 1.22-1.64 2.44-3.26 3.67-4.91 2.47 1.51 4.89 3.03 7.36 4.5 7.62 2.12 17.82-6.18 26.13-2.85 1.27 2.44 2.69 2.44.4 4.49-4.59 8.77-19.76 7.39-20.84 20.04.44.53.84 1.1 1.23 1.63 10.46.06 33.56-3.04 40.02 1.63.9 1.92 1.65 1.65.83 3.28-3.45 9.01-8.49 27.14-21.24 27.35.16.26.29.53.42.84 2.18 1.23 4.37 2.44 6.52 3.69-.26.14-.54.27-.82.39-3.45 4.31-12.12 5.09-19.99 4.91.12.28.25.54.41.83 10.6 4.41 11.16.04 19.59-.39 5.21-.28 18.42 10.88 20.41 14.28 2.53 6.61 1.7 13.84 6.11 19.22 2.4 2.89 6.28 1.33 9.8 3.25 3.12 4.1 6.26 8.18 9.39 12.27 2.2 3.24 1.5 12.96 1.63 13.07 8.41 9.16 13.56 7.57 4.9 20.44 2.16.44 4.36.83 6.52 1.24 6.32-8.87 18.12-2.34 23.71 2.04.4 3.56.81 7.07 1.23 10.62-2.05 6.09-18.89 17.23-25.76 19.2zM220.85 459.902c1.087-.262 2.187-.553 3.273-.822.263 2.2.526 4.364.83 6.528-.7.802-1.37 1.625-2.054 2.442-.68-.125-1.35-.284-2.03-.415-.57-2.988-.55-4.627-.02-7.732zm.824 35.16c-3.84 6.613-6.64 7.816-14.72 10.223 3.473 4.806 10.113 20.318 7.782 28.182-1.44 4.792-5.485 7.83-6.537 14.703-3.14.138-6.26.263-9.38.415-.56.837-1.12 1.64-1.65 2.448-4.75.416-9.52.83-14.3 1.232-4.89 3.548-9.78 7.096-14.67 10.637-2.21.13-4.37.262-6.53.386-5.18 1.515-9.87 4.067-17.55 4.502.16-3.907.27-6.293-.84-9.385-2.33.25-4.63.52-6.95.823-.49-2.29-1.26-3.617-.83-5.726 1.48-.52 2.98-1.093 4.47-1.618v-.415c-2.99-.13-5.99-.27-8.98-.41.13-.94.26-1.91.38-2.87 3.47.13 9.8.74 11.86-.81 1.55-1.56 1.51-4.86 2.85-6.53 4.31-.75 9.08-.58 10.21-4.91-2.98.42-5.98.83-8.99 1.22.28-.27.54-.54.83-.81.82-1.22 1.63-2.48 2.45-3.69-1.08-1.66-1.32-1.05-.84-2.45 2.31-5.25 5.29-3.87 10.61-6.12-.4-1.09-.84-2.18-1.22-3.28-3.23 1.88-18.77-.92-22.05-2.44.83-1.1 1.63-2.19 2.44-3.28-.55-.53-1.07-1.1-1.63-1.62 1.89-.43 3.79-.84 5.69-1.25-.74-4.29.06-3.84 2.46-6.54h-.83c-2.49-2.27-4.53-1.81-8.17-.82v-2.43c1.14-4.22 2.47-6.3 5.3-8.61 6.54 2.44 15.86 2.63 24.11 3.28-.75-1.52-1.28-2.74-1.23-4.1 4.32-1.25 6.95-2.82 8.55-6.97H162c.42-.53.806-1.07 1.22-1.64 1.648-.39 3.28-.82 4.913-1.22 2.227-8.28 5.132-12.26 14.67-13.07.92 3.26 2.45 4.84 6.53 4.9 7.59-3.21 19.702-5.14 25.727-.83 2.21 6.82 5.44 12.87 6.595 20.84zM511.61 826.408c-.533 1.674-2.422 3.818-2.858 6.135.436 2.987.837 5.99 1.245 8.963.658 5.45-2.372 8.956-3.666 12.67-3.07-.79-5.95-2.476-9.38-.837-1.24 1.64-2.44 3.27-3.67 4.89-14.13-2.93-3.75-15.73-6.13-27.77-1.16-5.91-5.03-7.48-6.13-12.68.29-.26.54-.54.8-.8 9.47-1.76 14.57-2.2 20.02-7.38 3.54 1.32 11.8 10.7 9.78 16.79zm-10.218-51.883c.29-1.908.554-3.817.837-5.74.28-.124.54-.263.81-.387.53.387 1.08.823 1.63 1.224.26 12.014 2.11 28.813-4.9 35.964-.83-.14-1.64-.263-2.44-.422v-2.034c-1.23-.124-2.47-.262-3.7-.387-.67-.545-1.35-1.098-2.04-1.638.68-.94 1.36-1.902 2.03-2.863-1.35-.554-2.74-1.094-4.08-1.64.13-.263.26-.526.41-.802.67-.692 1.36-1.363 2.03-2.04v-.415c-2.78.193-2.78.836-3.67-1.245.67-.52 1.37-1.065 2.04-1.62-1.39-1.707-2.44-1.686-2.88-4.5.54-.416 1.12-.83 1.63-1.24-1.16-1.32-1.13-1.25-1.22-2.87 2.51-2.62 13.37-7.136 13.46-7.344zm113.14 126.65c-2.51 1.425-3.894 4.302-6.135 6.135-12.583-3.604-23.325-10.852-34.718-16.343-5.54-2.635-9.47-1.065-12.26-6.536 2.9-9.37 10.48-4.55 16.33-9.78 10.11 6.54 15.65 6.27 29.41 2.87 3.27-.83 7.27-2.51 11.03-1.64v.44c-1.93 4.37-8.87 12.68-6.54 18.8 1.19 2.53 3.73 3.72 2.86 6.08zm206.242 35.963c-.435 2.704-.96 4.71-2.047 6.536-9.13.54-18.24 1.086-27.372 1.64v-2.864c-6.15-2.47-17.287-1.972-22.855-4.51.387-2.027.81-4.102 1.224-6.142h2.055c.17-1.646.12-1.57.8-2.42v.795c1.33 1.59 2.73 1.694 4.91 2.462.96-.526 1.89-1.086 2.85-1.64.28.437.52.824.81 1.253-.41.512-.81 1.086-1.25 1.61 2.4.437 1.97.803 3.28 2.055 4.49-.415 8.96-.837 13.46-1.252 4.78 2.18 7.2 2.78 13.5 2.06l.4.4c-.26 1.09-.53 2.18-.81 3.26.55.29 1.12.54 1.63.83 3.16-1.81 6.47-2.25 9.37-4.06zm134.75-1.64c6.4-2.322 12.798-4.64 19.176-6.95-3.52 4.11-8.847 6.253-12.25 10.624.96 1.225 1.922 2.442 2.856 3.687-7.92.59-9.428 6.29-18.774 6.53-.173 2.14.263 1.64-1.224 2.47-2.297-1.71-7.312-2.34-10.217-3.28-1.07-2.8-2.12-3.92-2.87-7.37.86.07 11.46-2.49 11.85-2.87.79-1.55.67-2.62 0-4.08 3.86.38 7.68.82 11.46 1.22zm-802.864 71.498c1.826-3.763-.187-8.528 1.224-12.27 1.37-3.595 12.5-13.167 15.903-15.525 10.23-6.99 23.727-7.78 31.066-17.56 5.015-6.71 11.372-30.83 15.91-34.32 2.034-.96 4.088-1.91 6.108-2.87 5.78 5.72 9.09 12.87 18.01 15.54 8.47 2.54 30.13-4.24 30.63-4.08 2.23 5.62 12.06 8.15 20.43 5.71 7.56-2.23 7.1-7.37 12.25-11.04 2.09-1.48 13.02-5.29 15.5-5.72 1.58 1.51 2.78 2.21 5.7 2.45 5.54-4.74 9.88-10.86 17.17-13.9 7.73-3.21 18.46-.89 27.77-2.86 2.99-1.35 5.99-2.73 8.98-4.08 3.51-.48 5.5 2.91 10.22 1.23 2.45-1.35 4.92-2.74 7.36-4.08 12.79-3.3 21.14 6.58 32.28 4.09 7.17-1.57 12.14-5.42 17.14-8.96 4.19 1.44 6.53 4.53 11.42 5.29 3.22-1.62 4.54-4.33 8.61-4.9 5.02 1.68 7.43 5.69 8.97 6.14 10.72 3.04 21.67-8.3 27.78-10.63 1.91-.26 3.83-.53 5.73-.82 3 1.38 6.01 2.74 9 4.12.11 3.54 1.31 5.58 2.44 8.18 6.12-2.06 10.19-4.5 14.29-6.98.1 13.57-22.06 18.7-.43 31.06.67 2.73 1.37 5.45 2.05 8.17.11 5.33-17.03 19.53-20.82 23.72 1.37 6.34 7.81 10.88 13.05 13.48 3.31-.8 3.83-1.91 7.77-1.64.53 2.21 1.09 4.38 1.62 6.54 8.3 3.54 16.62 7.09 24.92 10.65 6.12-.43 12.25-.83 18.39-1.24 4.19.81 8.43 1.64 12.64 2.45 1.77 1.64 3.54 3.28 5.33 4.9 3.05 1.45 6.05.27 9.81 1.64 6.71 2.46 7.86 18.13 15.51 22.46 6.89 3.89 26.24 4.15 34.74 7.36 8.62 3.28 15.89 13.98 25.69 15.11 3.77.47 7-2.79 9.4-4.08 20.13-10.89.59-19.03 9.39-33.91 6.5-10.99 33.67-20.75 50.22-13.5 6.47 2.83 4.1 8.57 8.58 11.04 4.76 1.88 15.87 3.72 20.86 4.49h9.38c4.07 1.39 3.21 7.72 6.94 9.4H820c9.55 2.04 19.07 4.1 28.58 6.12.825 1.09 1.634 2.19 2.47 3.28 3.92.39 7.87.83 11.8 1.23 3.57 1 8.414 5.2 13.5 4.11 2.59-2.05 5.16-4.11 7.75-6.15 9.61-6.46 24.96-9.76 38.807-6.94 1.278 4.48 3.388 5.01 6.12 7.76 7.83-1.33 10.765 3.09 17.99-2.02 11.05 6.05 13.78-.24 21.63-1.25 4.77 12.26 9.537 24.54 14.29 36.78-8.15 7.1-6.675 22.44-11.83 32.69-1.88.39-3.713.49-4.903-.83-11.41-9.81-20.555-25.5-25.71-41.27-3.685 1.47-3.996 2.84-6.113 5.72 2.65 15.04 13.08 22.53 19.19 33.52 3.52 9.26 7.06 18.53 10.62 27.79 8.3 13.23 14.72 29.44 23.69 42.89 3.28 3.26 6.53 6.54 9.8 9.8-1.51 1.38-2.99 2.73-4.5 4.1 1.64 5.11 2.05 11.5 4.9 15.52 2.34 3.28 7 4.13 10.22 6.54 6.54 4.87 14.22 18.66 16.34 27.39 3.27 13.38-1.09 37.3 5.72 46.59 4.31 5.86 20.12 9.13 23.29 16.35 6.86 15.56 9.54 45.75 21.22 55.536 1.22-2.06.85-5.79 2.06-7.36 3.84 2.16 6.1 7.54 8.59 11.01 3.29-.15 5.95-.62 8.16.43 5.73 6.25 11.43 12.51 17.15 18.79 2.14 1.24 5.31.09 6.96 1.62 3.61 3.3 4.63 11.23 5.72 12.28 6.27 6.05 20.86 8.74 21.25 19.6-3.41 3.66-12.31 7.28-16.75 9.4 4.87 1.81 9.62 1.16 13.07 2.03 3.72 8.13 11.72 15.32 17.55 21.69H1170c5.854-2.57 11.706-5.17 17.558-7.79 7.21-1.35 9.2 4.8 15.51 2.44 4.624-2.97 9.252-6.01 13.88-8.97 4.63.44 8.425.81 12.27 1.26 3.73-1.03 7.13-5.61 12.65-4.49 2.95.54 7.38 2.71 12.25 1.62 11.13-2.46 17.223-8.02 24.91-13.49 3.26 1.38 6.53 2.72 9.79 4.07-.66 3.85-1.75 6.42-2.84 9.02-1.177 4.14 1.085 8.11 1.244 11.01.17 3.68-4.05 5.57-4.94 8.18-.4 5.583-.79 11.18-1.226 16.78-3.54 6.225-7.05 12.52-10.61 18.784-2.734 2.58-5.466 5.14-8.164 7.76.125 1.76.25 3.54.415 5.3-4.792 7.62-9.545 15.26-14.31 22.86-.67 3.15-1.35 6.27-2.046 9.4-6.99 16.99-23.1 30.3-33.89 44.16-5.43 6.66-10.89 13.35-16.33 20.02-14.72 11.79-683.82 4.51-684.39 2.5.67-2.76 1.37-5.46 2.06-8.17-1.07-6.05-5.2-10.43-6.53-15.54 1.23-.94 2.42-1.88 3.67-2.84-1.37-1.64-1.92-2.44-2.47-3.28-14.58.49-9.88-2.65-14.29-10.61-2.03-2.41-9.81-4.33-11.44-3.27.7 1.71.98 2.33.82 4.12-7.15 2.89-15.59 1.46-22.04.38-11.93 10.72-32.72.796-34.29-12.66.84-2.04 1.61-4.07 2.45-6.1-2.73-1.78-4.22-1.93-5.73-2.06-.93-1.62-1.89-3.28-2.85-4.914-2.87-3.63-16.28-12.14-21.24-13.08-2.77.97-3.26 2.94-5.29 3.68-13.74 1.25-27.51 2.44-41.27 3.67-4.67 1.61-4.8 6.09-8.13 8.58-5.6.55-11.19 1.12-16.75 1.64-13.21 6.02-26.42 11.97-39.61 17.957-2.59-1.98-15.76-10.27-18.39-10.61-.67.82-1.35 1.64-2.02 2.45-4.19 1.46-10.29-1.8-13.48-2.45-7.36-1.482-20.24-.09-26.13 1.64-6.83 1.9-13.61 3.83-20.43 5.72-6.52 3.39-13.06 6.8-19.58 10.21-4.94 1.356-20.94-9.004-24.91-11.01-12.75-6.51-19.69-15.574-30.63-23.285-5.16-2.74-10.35-5.47-15.52-8.19-6.99-4.68-11.67-11.53-20.81-14.3.42-3.13.75-3.91-.41-6.14-6.75-1.09-14.93-7.04-16.75-13.07 2.32-1.22 3.83-2.43 5.31-3.67-2.24-1.84-3.54-2.12-4.47-3.26v-6.12c-1.42-5-6.9-6.26-9.01-10.23-.43-2.027-.82-4.054-1.22-6.087-6.48-1.97-12.95-6.19-17.15-10.64.74-2.25.74-3.98 0-6.12-4.1.16-5.59-.54-7.76-2.03.24-1.9.53-2.403-.43-3.67-1.39-1.44-4.85-1.8-6.53-2.883-1.07-5.527 2.42-7.52 4.92-10.64-3.26-3.76-9.02-1.2-13.07-.4-2.73-1.64-5.45-3.28-8.15-4.914-.26-.94-.55-1.905-.84-2.86-6.45-4.24-3.82 2.14-8.99-6.56 1.39-5.38-1.12-12.33 2.04-16.75 1.23-.28 2.43-.51 3.68-.8.07-2.27-.19-3.63-.8-4.933-5.55-2.6-5.5-15.16-17.16-20.01 8.63-3.71 15.57-15.414 17.97-24.1.55-4.36 1.09-8.72 1.65-13.09 4.49-15.06 13.38-38.85-1.64-50.65 6.11-8.85 5.44-29.65-7.34-30.65-.93 1.087-1.89 2.18-2.84 3.25-1.2-8.46.48-19.56 4.08-24.91 3-3.28 5.99-6.535 9.01-9.813 4.08-9.4 8.14-18.78 12.24-28.18 3.97-5.42 12.94-8.63 15.5-15.11.15-2.87.29-5.74.41-8.6 1.43-6.9 4.58-14.79 8.2-20.01 3.43-4.96 11.75-5.83 15.5-10.62 4.72-6.03 6.11-21.1 13.06-24.53 6.05-2.96 13.86-2.47 19.59-4.9 11.11-4.68 30.65-21.456 37.17-31.05 10.24-15.25-4.53-21.93.33-34.76 2-5.33 7.51-8.78 9.78-13.47zm330.795 562.64v-3.665c2.857-1.05 3.93-4.88 5.714-6.95 2.62.6 3.73 1.23 4.89 3.28-3.89 2.1-2.86 7.54-8.15 8.15-.83-.27-1.64-.52-2.47-.8z" id="b"/><filter x="-50%" y="-50%" width="200%" height="200%" filterUnits="objectBoundingBox" id="a"><feOffset dx="2" dy="2" in="SourceAlpha" result="shadowOffsetOuter1"/><feColorMatrix values="0 0 0 0 0 0 0 0 0 0 0 0 0 0 0 0 0 0 1 0" in="shadowOffsetOuter1"/></filter><path d="M67.658.505v106.4l-67.5 26.6 67.5-133zm0 0v23.543l43.603 85.912-43.6-17.182v14.126l67.5 26.6-67.5-133z" id="d"/><filter x="-50%" y="-50%" width="200%" height="200%" filterUnits="objectBoundingBox" id="c"><feOffset dx="3" dy="3" in="SourceAlpha" result="shadowOffsetOuter1"/><feColorMatrix values="0 0 0 0 0 0 0 0 0 0 0 0 0 0 0 0 0 0 1 0" in="shadowOffsetOuter1"/></filter><path id="f" d="M40 40h1141v160H40z"/><filter x="-50%" y="-50%" width="200%" height="200%" filterUnits="objectBoundingBox" id="e"><feOffset dx="6" dy="6" in="SourceAlpha" result="shadowOffsetOuter1"/><feColorMatrix values="0 0 0 0 0 0 0 0 0 0 0 0 0 0 0 0 0 0 1 0" in="shadowOffsetOuter1"/></filter><circle id="h" cx="1011" cy="355" r="5"/><filter x="-50%" y="-50%" width="200%" height="200%" filterUnits="objectBoundingBox" id="g"><feOffset dx="2" dy="2" in="SourceAlpha" result="shadowOffsetOuter1"/><feColorMatrix values="0 0 0 0 0 0 0 0 0 0 0 0 0 0 0 0 0 0 1 0" in="shadowOffsetOuter1"/></filter></defs><g fill="none" fill-rule="evenodd"><g transform="translate(15 -647)"><use fill="#000" filter="url(#a)" xlink:href="#b"/><use fill="#2A7E00" xlink:href="#b"/></g><g transform="translate(201 645)"><use fill="#000" filter="url(#c)" xlink:href="#d"/><use fill="#FFF" xlink:href="#d"/></g><use fill="#000" filter="url(#e)" xlink:href="#f"/><use fill="#FFF" xlink:href="#f"/><path d="M94 60h.476c2.04.223 3.058 1.137 3.058 2.742v.545c0 2.742-1.02 5.297-3.058 7.664H94c-.315-.08-.626-.53-.93-1.37l1.177-4.09-.95-.56c-2.167.18-6.175 2.37-12.023 6.58v.28l15.556 2.74c1.57 1.14 2.357 3.06 2.357 5.75v1.64c0 3.68-2.59 6.88-7.77 9.6-2.04.73-4.002 1.09-5.89 1.09h-.473c-5.414 0-8.713-2.19-9.897-6.57V84.4c0-2.014.55-3.02 1.653-3.02 1.078 3.47 3.04 5.203 5.888 5.203 0 .37 1.178.55 3.533.55 3.5 0 6.87-1.64 10.13-4.92 0-2.17-5.02-3.54-15.08-4.113-3.61-.923-5.41-2.29-5.41-4.093 0-4.452 4.87-8.93 14.61-13.43L94 60zm22.536 4.447c5.004.692 7.506 3.686 7.506 8.983 0 6.937-2.742 12.68-8.227 17.226-2.26 1.29-4.283 1.934-6.064 1.934-4.34 0-7.14-2.344-8.4-7.03l-.17-2.18v-.74c0-7.57 3.46-13.312 10.37-17.226 1.74-.644 3.4-.967 5-.967zM103.493 83.38c1.805 2.74 4.19 4.112 7.154 4.112 4.77 0 8.104-2.83 10.002-8.49l.35-2.672c0-3.984-1.97-6.328-5.89-7.03h-.55c-3.25 0-6.64 3.233-10.18 9.702-.6 1.945-.9 3.404-.9 4.377zm56.127-18.95c1.524 0 2.285.632 2.285 1.898v.475c0 1.746-1.36 2.62-4.078 2.62l-5.08.245c-1.523 8.12-2.285 15.105-2.285 20.953-.41 1.27-.832 1.9-1.266 1.9h-.773c-.88 0-1.39-.24-1.53-.72.856-8.99 1.788-16.29 2.795-21.9l-7.628 1.2c-.715 0-1.137-.71-1.266-2.14 0-2.38 2.12-3.57 6.363-3.57 2.543-.63 6.697-.95 12.463-.95zm20.338.017c.832.223 1.248.79 1.248 1.705v.23c-1.172 17.308-2.004 25.962-2.496 25.962l-.264.246h-.738c-.867 0-1.453-.404-1.758-1.213.328-2.31.492-5.543.492-9.703h-.246l-10.51 2.426-.74.966v4.606c0 1.37-.504 2.344-1.51 2.918h-.494c-.937 0-1.523-.404-1.757-1.213 1.16-17.473 2.83-26.21 5.01-26.21h.492l.755.985c-1.17 5.8-1.757 10.084-1.757 12.85 7.675-1.008 11.513-2.22 11.513-3.64L178.2 65.17l1.758-.72zm21.62.053c.81.176 1.214.79 1.214 1.846-.258 1.992-1.06 2.988-2.408 2.988-8.836 0-13.254 1.23-13.254 3.69l-.246 2.076v1.142c5.765-1.383 9.703-2.074 11.812-2.074h.475c.81.352 1.22 1.12 1.22 2.303 0 1.69-1.12 2.54-3.37 2.54-7.39.96-11.09 2.12-11.09 3.47l-.23 2.31v.92c0 1.38.88 2.15 2.64 2.3 2.77-.3 6.22-.99 10.37-2.07h.72c.65.25.97.79.97 1.62v.69c0 1.89-4.02 3.35-12.06 4.38h-.72c-2.89 0-4.5-1.84-4.81-5.52 0-2.7.57-7.85 1.69-15.43l-.47-1.39c0-3.11 4.82-4.95 14.45-5.52l3.13-.23zM220.07 60c1.034 0 1.55 3.158 1.55 9.475l2.056 11.97h.51c0-.68 2.062-4.394 6.187-11.144.645-4.45 1.846-6.68 3.604-6.68h.51c1.03 0 1.886 3.44 2.566 10.31 1.148 4.69 2.01 7.48 2.584 8.37.54-2.36 3.28-9.33 8.226-20.9.727-.74 1.412-1.11 2.057-1.11.925 0 1.528.37 1.81 1.11 0 .95-2.573 7.17-7.717 18.67-.867 2.71-1.64 6.42-2.32 11.15-.55.93-1.237 1.39-2.057 1.39-1.57 0-2.772-3.15-3.604-9.47-1.676-6.15-2.707-9.49-3.094-10.02l-5.15 8.92c-.855 1.73-1.63 4.71-2.32 8.91-.457.68-1.143 1.14-2.057 1.39-1.43 0-2.63-4.83-3.6-14.48-1.37-6.82-2.05-12.3-2.05-16.43 0-.55.78-1.01 2.32-1.39zM255 64.377h1.65c.552 0 .828.322.828.967-1.29 10.523-1.934 17.824-1.934 21.902v2.672c-.363 1.78-1.277 2.672-2.742 2.672h-.545l-1.108-.967c.73-11.04 1.65-19.8 2.76-26.28l1.09-.966zm19.02.123h.368c1.617.2 2.425.984 2.425 2.355v.475c0 2.367-.808 4.57-2.425 6.61h-.37c-.257-.07-.51-.463-.755-1.178l.95-3.533-.74-.48c-1.722.15-4.886 2.04-9.492 5.66v.23l12.27 2.37c1.25.98 1.87 2.63 1.87 4.95v1.4c0 3.17-2.04 5.93-6.13 8.26-1.6.63-3.16.95-4.66.95h-.38c-4.26 0-6.87-1.89-7.8-5.66V85.5c0-1.735.44-2.602 1.3-2.602.86 3 2.41 4.5 4.66 4.5 0 .307.93.46 2.8.46 2.75 0 5.42-1.41 8-4.237 0-1.87-3.96-3.06-11.9-3.55-2.86-.79-4.29-1.97-4.29-3.53 0-3.83 3.85-7.69 11.53-11.56l2.8-.47zm25.047 0c.81.176 1.213.79 1.213 1.846-.258 1.992-1.06 2.988-2.408 2.988-8.836 0-13.254 1.23-13.254 3.69l-.246 2.076v1.142c5.766-1.383 9.703-2.074 11.813-2.074h.474c.8.352 1.21 1.12 1.21 2.303 0 1.69-1.13 2.54-3.38 2.54-7.4.96-11.09 2.12-11.09 3.47l-.23 2.31v.92c0 1.38.88 2.15 2.63 2.3 2.76-.3 6.22-.99 10.37-2.07h.72c.64.25.97.79.97 1.62v.69c0 1.89-4.02 3.35-12.06 4.38h-.72c-2.9 0-4.5-1.84-4.82-5.52 0-2.7.56-7.85 1.68-15.43l-.48-1.39c0-3.11 4.81-4.95 14.44-5.52l3.13-.23zm28.635-4.43h.527c.86.48 1.3 1.22 1.3 2.215v.563c0 6.01.51 13.054 1.54 21.13h.26c5.72-15.2 9.09-22.8 10.1-22.8h.77c.76 0 1.97 5.285 3.62 15.855 1.56 5.414 2.34 9.95 2.34 13.606-.51 1.3-1.29 1.95-2.34 1.95-.69 0-1.64-4.54-2.85-13.63l-2.08-8.9c-1.49 2.42-4.17 8.72-8.03 18.89-1.12 1.14-2.07 1.8-2.85 1.95-2.25 0-3.38-3.06-3.38-9.18l-1.29-11.67h-.27l-7.77 17.79c-.47 2.96-.91 4.44-1.3 4.44h-1l-1.04-1.11V89.8c0-2.497 2.16-7.87 6.48-16.12 3.07-8.66 5.06-13.107 5.96-13.34l1.29-.283zM369.1 64.5c.807.176 1.212.79 1.212 1.846-.258 1.992-1.06 2.988-2.41 2.988-8.835 0-13.253 1.23-13.253 3.69l-.25 2.076v1.142c5.76-1.383 9.7-2.074 11.81-2.074h.47c.81.352 1.21 1.12 1.21 2.303 0 1.69-1.13 2.54-3.38 2.54-7.4.96-11.09 2.12-11.09 3.47l-.23 2.31v.92c0 1.38.88 2.15 2.63 2.3 2.76-.3 6.22-.99 10.37-2.07h.72c.64.25.96.79.96 1.62v.69c0 1.89-4.02 3.35-12.06 4.38h-.72c-2.9 0-4.5-1.84-4.82-5.52 0-2.7.56-7.85 1.68-15.43l-.47-1.39c0-3.11 4.81-4.95 14.45-5.52l3.13-.23zm5.08-.053c1.065 0 2.342 2.004 3.83 6.012 2.884 5.9 6.09 10.95 9.616 15.15 1.184-11.57 2.062-18.38 2.637-20.45l.966-.72h.72c.48 0 .72.32.72.96-1.44 16.52-2.32 25.34-2.64 26.45l-1.44.47c-2.57 0-6.89-5.45-12.98-16.35l-.97-.97-.25.72-.72 11.07v1.44l.24 1.44c-.21 1.92-.85 2.88-1.92 2.88-.99-.35-1.55-.83-1.69-1.44 1.23-17.32 2.11-25.98 2.63-25.98l1.21-.72zm50.29 0h.176c1.558 0 2.6 1.524 3.128 4.57l-.37.475h-.175l-1.48-.474c-4.03.597-8.26 3.404-12.68 8.42-1.23 2.18-1.85 3.703-1.85 4.57v.967c0 2.566 2.63 4.166 7.91 4.798 3.3 0 5.81-1.763 7.52-5.29l-2.2-.95c-.82 0-3.09.96-6.81 2.883-.36-.82-.55-1.623-.55-2.408v-.246c0-2.555 2.45-4.32 7.34-5.29h.37c2.81 0 4.22 1.844 4.22 5.536 0 3.808-3.13 7.178-9.37 10.107l-2.2.475c-3.97 0-6.67-1.682-8.09-5.045l-.37-3.13c0-7.265 3.73-13.44 11.2-18.526 1.88-.97 3.3-1.45 4.23-1.45zm21.076 0c5.004.692 7.506 3.686 7.506 8.983 0 6.937-2.742 12.68-8.227 17.226-2.262 1.29-4.283 1.934-6.064 1.934-4.34 0-7.14-2.344-8.4-7.03l-.17-2.18v-.74c0-7.57 3.46-13.312 10.37-17.226 1.74-.644 3.4-.967 5-.967zM432.503 83.38c1.805 2.74 4.19 4.112 7.154 4.112 4.77 0 8.104-2.83 10.002-8.49l.35-2.672c0-3.984-1.97-6.328-5.89-7.03h-.55c-3.25 0-6.64 3.233-10.18 9.702-.6 1.945-.9 3.404-.9 4.377zm41.185-18.95c1.524 0 2.286.632 2.286 1.898v.475c0 1.746-1.36 2.62-4.078 2.62l-5.08.245c-1.524 8.12-2.286 15.105-2.286 20.953-.41 1.27-.832 1.9-1.265 1.9h-.774c-.87 0-1.38-.24-1.52-.72.86-8.99 1.79-16.29 2.8-21.9l-7.63 1.2c-.71 0-1.13-.71-1.26-2.14 0-2.38 2.12-3.57 6.37-3.57 2.55-.63 6.7-.95 12.46-.95zm29.55.017c4.652 0 6.978 1.365 6.978 4.096 0 5.402-5.098 10.29-15.293 14.66-.75 0-1.125.48-1.125 1.442-.106 5.296-.633 7.945-1.582 7.945h-1.125c-.3-.07-.6-.47-.89-1.195l2.02-19.723h-.23c-.59 0-.89-.727-.89-2.18 0-2.355 1.36-3.715 4.06-4.078l8.09-.967zm-9 13.957c5.144-1.347 9.046-3.59 11.706-6.732l.44-1.46v-.474l-1.125-.246h-1.13c-5.99.328-8.99.89-8.99 1.688l-.92 7.224zM521.06 64.5h.843c1.16 0 2.63 5.36 4.412 16.084 1.407 5.063 2.11 8.502 2.11 10.318-.293.96-.856 1.442-1.688 1.442-1.08 0-1.852-2.56-2.32-7.682l-.212-.228h-.21c-1.83.023-5.684 1.142-11.567 3.357-.562 3.2-1.476 4.8-2.742 4.8-.843-.32-1.265-.96-1.265-1.91 0-1.85 3.86-10.33 11.59-25.45l1.06-.72zm-.422 6.715c-1.688 3.047-3.235 6.252-4.64 9.615h1.476c1.43 0 3.257-.322 5.484-.967l-1.898-8.648h-.422zm26.77-6.715h1.038c1.3 0 2.08 1.05 2.338 3.146v.493c0 3.17-1.2 5.27-3.603 6.29l-.42-.5v-.25l1.08-4.12-.84-.48c-3.5 0-7.67 3.31-12.5 9.93-1.14 2-1.72 3.53-1.72 4.59v.24c0 2.58 1.56 3.87 4.68 3.87h.2c3 0 6.33-.8 9.97-2.41h.65c.57.25.85.82.85 1.68v.96c-3 3.07-6.53 4.6-10.58 4.6-5.52-.58-8.28-3.32-8.28-8.23v-.49c0-6.27 4.45-12.4 13.34-18.4 1.69-.65 2.97-.97 3.83-.97zm8.58.105l.702.967-.703 9.14 14.343-7.944c.62.773.932 1.734.932 2.882-1.618 2.274-5.772 5.162-12.463 8.666v.246c3.09 4.02 6.62 7.383 10.58 10.09v.493c0 2.238-.79 3.357-2.36 3.357l-11.74-9.615c-.47 6.41-.94 9.615-1.41 9.615l-1.18.246c-.79-.258-1.18-.738-1.18-1.44l.93-11.304-.23-2.883c.54 0 1-3.53 1.4-10.6.64-1.27 1.43-1.91 2.35-1.91zm34.066-.105c.808.176 1.213.79 1.213 1.846-.26 1.992-1.062 2.988-2.41 2.988-8.836 0-13.254 1.23-13.254 3.69l-.246 2.076v1.142c5.766-1.383 9.703-2.074 11.813-2.074h.474c.81.352 1.213 1.12 1.213 2.303 0 1.69-1.125 2.54-3.375 2.54-7.394.96-11.09 2.12-11.09 3.47l-.23 2.31v.92c0 1.38.88 2.15 2.637 2.3 2.76-.3 6.22-.99 10.37-2.07h.72c.64.25.96.79.96 1.62v.69c0 1.89-4.02 3.35-12.06 4.38h-.72c-2.9 0-4.5-1.84-4.82-5.52 0-2.7.56-7.85 1.68-15.43l-.48-1.39c0-3.11 4.81-4.95 14.45-5.52l3.13-.23zm10.6-.053h1.072c5.097 0 8.22 2.022 9.37 6.065l.21 1.933c0 8.05-5.965 14.684-17.895 19.9l-1.05.245h-.23c-.31 0-.6-.57-.84-1.705l2.13-20.865c-.85 0-1.28-.24-1.28-.72v-.493c0-2.578 1.14-3.868 3.41-3.868l5.12-.5zm-4.255 5.098c-1.28 8.297-1.92 13.875-1.92 16.734v1.21c8.94-4.47 13.41-8.67 13.41-12.62v-.23c0-2.28-.64-3.41-1.92-3.41-1.58-1.13-4.14-1.69-7.67-1.69h-1.91zm40.69-5.045h.84c1.16 0 2.63 5.36 4.41 16.084 1.4 5.063 2.11 8.502 2.11 10.318-.3.96-.86 1.442-1.69 1.442-1.08 0-1.85-2.56-2.32-7.682l-.21-.228h-.21c-1.83.023-5.69 1.142-11.57 3.357-.57 3.2-1.48 4.8-2.74 4.8-.85-.32-1.27-.96-1.27-1.91 0-1.85 3.86-10.33 11.58-25.45l1.05-.72zm-.43 6.715c-1.69 3.047-3.24 6.252-4.64 9.615h1.47c1.43 0 3.25-.322 5.48-.967l-1.9-8.648h-.42zm13.45-6.768c1.06 0 2.34 2.004 3.83 6.012 2.88 5.9 6.09 10.95 9.61 15.15 1.18-11.57 2.06-18.38 2.63-20.45l.97-.72h.72c.48 0 .72.32.72.96-1.44 16.52-2.32 25.34-2.64 26.45l-1.44.47c-2.57 0-6.89-5.45-12.98-16.35l-.97-.97-.25.72-.72 11.07v1.44l.24 1.44c-.21 1.92-.85 2.88-1.92 2.88-.99-.35-1.55-.83-1.69-1.44 1.23-17.32 2.11-25.98 2.63-25.98l1.21-.72zm29.28 0h1.07c5.09 0 8.22 2.022 9.37 6.065l.21 1.933c0 8.05-5.97 14.684-17.9 19.9l-1.06.245h-.23c-.32 0-.6-.57-.85-1.705l2.12-20.865c-.86 0-1.29-.24-1.29-.72v-.493c0-2.578 1.13-3.868 3.41-3.868l5.11-.5zm-4.26 5.098c-1.28 8.297-1.92 13.875-1.92 16.734v1.21c8.94-4.47 13.41-8.67 13.41-12.62v-.23c0-2.28-.64-3.41-1.92-3.41-1.58-1.13-4.14-1.69-7.67-1.69h-1.92zm44.74-5.045h.37c1.61.2 2.42.984 2.42 2.355v.475c0 2.367-.81 4.57-2.43 6.61h-.37c-.26-.07-.51-.463-.76-1.178l.95-3.533-.74-.48c-1.72.15-4.89 2.04-9.49 5.66v.23l12.27 2.37c1.24.98 1.86 2.63 1.86 4.95v1.4c0 3.17-2.05 5.93-6.14 8.26-1.61.63-3.16.95-4.66.95h-.39c-4.26 0-6.87-1.89-7.8-5.66V85.5c0-1.735.43-2.602 1.3-2.602.85 3 2.41 4.5 4.66 4.5 0 .307.93.46 2.79.46 2.75 0 5.42-1.41 8-4.237 0-1.87-3.97-3.06-11.9-3.55-2.86-.79-4.29-1.97-4.29-3.53 0-3.83 3.84-7.69 11.53-11.56l2.8-.47zm25.77-.07c1.52 0 2.28.632 2.28 1.898v.475c0 1.746-1.36 2.62-4.08 2.62l-5.08.245c-1.52 8.12-2.29 15.105-2.29 20.953-.41 1.27-.83 1.9-1.27 1.9h-.78c-.88 0-1.39-.24-1.53-.72.85-8.99 1.79-16.29 2.79-21.9l-7.63 1.2c-.72 0-1.14-.71-1.27-2.14 0-2.38 2.12-3.57 6.36-3.57 2.54-.63 6.7-.95 12.46-.95zm12.41.07h.84c1.16 0 2.63 5.36 4.41 16.084 1.4 5.063 2.11 8.502 2.11 10.318-.3.96-.86 1.442-1.69 1.442-1.08 0-1.85-2.56-2.32-7.682l-.21-.228h-.2c-1.83.023-5.69 1.142-11.57 3.357-.57 3.2-1.48 4.8-2.75 4.8-.85-.32-1.27-.96-1.27-1.91 0-1.85 3.86-10.33 11.58-25.45l1.05-.72zm-.42 6.715c-1.69 3.047-3.24 6.252-4.64 9.615h1.47c1.43 0 3.26-.322 5.48-.967l-1.9-8.648h-.42zm22.67-6.768h2.43c3.71 0 5.57 1.295 5.57 3.885v.246c0 4.535-3.88 8.66-11.64 12.375v.23c3.88 3.56 7.11 6.233 9.7 8.014v.72c0 1.255-.41 2.063-1.22 2.427h-.97l-13.33-9.457-.25 4.85v3.64c-.41.81-1.06 1.213-1.94 1.213-.65 0-1.13-.322-1.46-.967v-1.46l2.18-18.93c-.65 0-.97-.48-.97-1.442 0-2.91 2.42-4.61 7.26-5.09l4.6-.24zm-8.47 13.096h.24c8.39-2.156 12.59-4.5 12.59-7.03v-.247c0-.446-.81-.768-2.43-.967-2.69 0-5.91.56-9.69 1.7l-.72 6.54zm35.98-13.113c1.52 0 2.28.632 2.28 1.898v.475c0 1.746-1.36 2.62-4.08 2.62l-5.08.245c-1.52 8.12-2.29 15.105-2.29 20.953-.41 1.27-.83 1.9-1.27 1.9h-.77c-.88 0-1.39-.24-1.53-.72.85-8.99 1.79-16.29 2.79-21.9l-7.63 1.2c-.72 0-1.14-.71-1.27-2.14 0-2.38 2.12-3.57 6.36-3.57 2.54-.63 6.69-.95 12.46-.95zm20.36.07c.8.176 1.21.79 1.21 1.846-.26 1.992-1.06 2.988-2.41 2.988-8.84 0-13.26 1.23-13.26 3.69l-.25 2.076v1.142c5.77-1.383 9.7-2.074 11.81-2.074h.47c.81.352 1.21 1.12 1.21 2.303 0 1.69-1.13 2.54-3.38 2.54-7.4.96-11.1 2.12-11.1 3.47l-.23 2.31v.92c0 1.38.88 2.15 2.63 2.3 2.77-.3 6.22-.99 10.37-2.07h.72c.65.25.97.79.97 1.62v.69c0 1.89-4.02 3.35-12.06 4.38h-.72c-2.9 0-4.5-1.84-4.82-5.52 0-2.7.56-7.85 1.69-15.43l-.48-1.39c0-3.11 4.82-4.95 14.45-5.52l3.13-.23zm10.6-.053h1.07c5.1 0 8.22 2.022 9.37 6.065l.21 1.933c0 8.05-5.97 14.684-17.9 19.9l-1.06.245h-.23c-.32 0-.6-.57-.84-1.705l2.12-20.865c-.85 0-1.28-.24-1.28-.72v-.493c0-2.578 1.14-3.868 3.41-3.868l5.12-.5zm-4.26 5.098c-1.27 8.297-1.91 13.875-1.91 16.735v1.21c8.94-4.47 13.41-8.67 13.41-12.62v-.23c0-2.28-.64-3.41-1.91-3.41-1.59-1.13-4.14-1.69-7.67-1.69h-1.92zm40.7-5.045h.84c1.16 0 2.63 5.36 4.41 16.084 1.41 5.063 2.11 8.502 2.11 10.318-.29.96-.86 1.442-1.69 1.442-1.08 0-1.85-2.56-2.32-7.682l-.21-.228h-.21c-1.83.023-5.68 1.142-11.57 3.357-.56 3.2-1.48 4.8-2.74 4.8-.85-.32-1.27-.96-1.27-1.91 0-1.85 3.86-10.33 11.58-25.45l1.06-.72zm-.43 6.715c-1.69 3.047-3.24 6.252-4.64 9.615h1.47c1.43 0 3.25-.322 5.48-.967l-1.9-8.648h-.43zm28.14-6.768h.24c.76 0 1.4.393 1.91 1.178-1.12 8.11-1.91 15.363-2.39 21.762l13.71-2.83.47.703v1.424c0 2.156-4.97 4.125-14.91 5.906-1.77-.317-2.66-.867-2.66-1.653 1.31-17.343 2.27-26.015 2.88-26.015l.72-.475zm29.91 0c5 .692 7.5 3.686 7.5 8.983 0 6.937-2.74 12.68-8.23 17.226-2.26 1.29-4.29 1.934-6.07 1.934-4.35 0-7.15-2.344-8.41-7.03l-.18-2.18v-.74c0-7.57 3.46-13.312 10.37-17.226 1.73-.644 3.4-.967 4.99-.967zM919.82 83.38c1.806 2.74 4.19 4.112 7.156 4.112 4.77 0 8.103-2.83 10.002-8.49l.35-2.672c0-3.984-1.962-6.328-5.888-7.03h-.544c-3.247 0-6.64 3.233-10.178 9.702-.598 1.945-.897 3.404-.897 4.377zm25.525-18.933c1.066 0 2.343 2.004 3.832 6.012 2.883 5.9 6.088 10.95 9.615 15.15 1.184-11.57 2.062-18.38 2.637-20.45l.96-.72h.72c.48 0 .72.32.72.96-1.44 16.52-2.32 25.34-2.64 26.45l-1.44.47c-2.57 0-6.9-5.45-12.98-16.35l-.97-.97-.25.72-.72 11.07v1.44l.24 1.44c-.22 1.92-.85 2.88-1.92 2.88-.99-.35-1.55-.83-1.69-1.44 1.23-17.32 2.11-25.98 2.63-25.98l1.21-.72zm35.35 0h.175c1.56 0 2.602 1.524 3.13 4.57l-.37.475h-.176l-1.476-.474c-4.032.597-8.256 3.404-12.674 8.42-1.23 2.18-1.846 3.703-1.846 4.57v.967c0 2.566 2.637 4.166 7.91 4.798 3.305 0 5.813-1.763 7.524-5.29l-2.198-.95c-.82 0-3.088.96-6.802 2.883-.364-.82-.545-1.623-.545-2.408v-.246c0-2.555 2.45-4.32 7.347-5.29h.37c2.812 0 4.218 1.844 4.218 5.536 0 3.808-3.123 7.178-9.37 10.107l-2.196.475c-3.973 0-6.668-1.682-8.086-5.045l-.37-3.13c0-7.265 3.733-13.44 11.198-18.526 1.887-.97 3.3-1.45 4.236-1.45zm28.687 0l7.03.492 3.816-.5.404.72v.98c0 2.58-1.272 3.87-3.815 3.87h-.21c-.317 14.07-1.383 21.11-3.2 21.11-.937.97-2.21 1.46-3.814 1.46h-1.406c-4.56-.82-6.838-3.49-6.838-8 .39-2.72 1-4.5 1.81-5.35h.19c.21 0 .54 1.78 1 5.34.92 2.1 2.4 3.15 4.43 3.15 2.94 0 4.41-1.46 4.41-4.36l1-13.59H1012c-2.952 0-4.43-.4-4.43-1.21v-.49c.41-2.43 1.015-3.64 1.812-3.64zm26.613 0c5.004.692 7.506 3.686 7.506 8.983 0 6.937-2.74 12.68-8.22 17.226-2.26 1.29-4.28 1.934-6.06 1.934-4.34 0-7.14-2.344-8.4-7.03l-.17-2.18v-.74c0-7.57 3.46-13.312 10.37-17.226 1.74-.644 3.4-.967 5-.967zm-13.043 18.932c1.805 2.74 4.19 4.11 7.154 4.11 4.77 0 8.104-2.83 10.002-8.49l.352-2.67c0-3.99-1.963-6.33-5.89-7.03h-.544c-3.246 0-6.638 3.23-10.177 9.7-.6 1.94-.9 3.4-.9 4.37zm26.895-18.94c.75.3 1.166.62 1.248.95-1.336 8.35-2.004 14.42-2.004 18.21v2.6c4.48 0 8.15-2.06 11.01-6.16 1.13-9.94 2.21-14.91 3.25-14.91h.27c1 .1 1.5.34 1.5.72-1.5 9.04-2.25 15.82-2.25 20.34v3.77c0 1.24-.5 2.11-1.51 2.6h-1l-.98-.95v-.48l.25-4.01c-.59 0-3.85 1.49-9.75 4.48l-1.76.47c-2-.26-3-1.13-3-2.6v-.23c1.22-16.56 2.64-24.84 4.26-24.84h.51zm29.074 0h2.43c3.72 0 5.57 1.29 5.57 3.88v.24c0 4.53-3.88 8.66-11.63 12.37v.23c3.88 3.56 7.12 6.23 9.71 8.01v.72c0 1.25-.4 2.06-1.21 2.42h-.96l-13.32-9.46-.24 4.85v3.64c-.41.81-1.05 1.22-1.93 1.22-.64 0-1.13-.33-1.46-.97v-1.46l2.18-18.93c-.64 0-.96-.48-.96-1.44 0-2.92 2.42-4.62 7.26-5.1l4.61-.25zm-8.47 13.09h.25c8.39-2.16 12.59-4.5 12.59-7.03v-.25c0-.45-.8-.77-2.42-.97-2.68 0-5.91.56-9.68 1.7l-.72 6.54zm20.32-13.1c1.07 0 2.35 2 3.84 6.01 2.89 5.9 6.09 10.95 9.62 15.15 1.19-11.57 2.06-18.38 2.64-20.45l.97-.72h.72c.48 0 .72.32.72.97-1.44 16.52-2.32 25.34-2.63 26.45l-1.44.47c-2.56 0-6.89-5.45-12.97-16.35l-.96-.97-.24.72-.72 11.07v1.44l.25 1.44c-.21 1.92-.85 2.88-1.91 2.88-.98-.36-1.54-.84-1.68-1.45 1.23-17.32 2.11-25.98 2.64-25.98l1.22-.72zm38.71.05c.81.17 1.21.79 1.21 1.84-.25 1.99-1.06 2.98-2.41 2.98-8.83 0-13.25 1.23-13.25 3.69l-.24 2.08v1.14c5.77-1.39 9.71-2.08 11.82-2.08h.48c.81.35 1.22 1.12 1.22 2.3 0 1.68-1.12 2.53-3.37 2.53-7.39.96-11.09 2.11-11.09 3.46l-.22 2.3v.91c0 1.38.88 2.15 2.64 2.3 2.77-.31 6.22-1 10.37-2.08h.72c.65.24.97.78.97 1.62v.68c0 1.88-4.02 3.34-12.06 4.37h-.72c-2.89 0-4.5-1.84-4.82-5.52 0-2.71.56-7.85 1.69-15.44l-.48-1.39c0-3.12 4.82-4.96 14.45-5.52l3.13-.23zm3.38 0l5.38 8.15 2.36 1.93c2.98-5.3 5.05-8.51 6.23-9.62h1.08l.86.97c-.11.85-3.48 6.85-10.09 18-1.66 3.13-2.88 5.93-3.65 8.4l-.63.24c-1.01-.47-1.51-1.19-1.51-2.17.06-1.25 1.78-5.17 5.15-11.76-4.86-5.23-7.29-9.47-7.29-12.73.9-.96 1.62-1.44 2.15-1.44zM132.03 106.42c1.525 0 2.287.633 2.287 1.9v.475c0 1.748-1.36 2.62-4.08 2.62l-5.08.247c-1.522 8.12-2.284 15.105-2.284 20.953-.41 1.267-.832 1.9-1.265 1.9h-.774c-.88 0-1.39-.24-1.53-.72.856-8.99 1.788-16.29 2.796-21.904l-7.627 1.2c-.718 0-1.14-.71-1.27-2.14 0-2.38 2.12-3.56 6.365-3.56 2.544-.63 6.698-.95 12.463-.95zm16.93.018c5.003.694 7.505 3.688 7.505 8.985 0 6.937-2.742 12.68-8.227 17.226-2.26 1.29-4.283 1.93-6.064 1.93-4.35 0-7.15-2.35-8.402-7.03l-.175-2.18v-.74c0-7.57 3.458-13.31 10.37-17.23 1.736-.65 3.4-.97 4.994-.97zm-13.044 18.934c1.805 2.74 4.19 4.11 7.155 4.11 4.77 0 8.11-2.83 10-8.49l.36-2.67c0-3.985-1.96-6.33-5.89-7.03H147c-3.246 0-6.64 3.232-10.177 9.7-.597 1.946-.896 3.405-.896 4.378zM183.49 102l9.6.563 5.202-.563.545.844v1.125c0 3-1.734 4.5-5.203 4.5h-.28c-.435 16.28-1.894 24.43-4.378 24.43-1.278 1.12-3.018 1.69-5.22 1.69h-1.917c-6.22-.95-9.32-4.04-9.32-9.27.55-3.14 1.37-5.21 2.46-6.19h.28c.28 0 .74 2.06 1.37 6.18 1.25 2.42 3.26 3.64 6.03 3.64 4.02 0 6.03-1.69 6.03-5.05l1.37-15.74h-3.03c-4.02 0-6.03-.47-6.03-1.41v-.56c.55-2.82 1.38-4.22 2.48-4.22zm34.226 4.5c.808.176 1.213.79 1.213 1.846-.26 1.992-1.07 2.988-2.41 2.988-8.84 0-13.26 1.23-13.26 3.69l-.25 2.076v1.142c5.76-1.383 9.7-2.074 11.81-2.074h.47c.81.352 1.21 1.12 1.21 2.303 0 1.69-1.13 2.54-3.38 2.54-7.4.96-11.09 2.12-11.09 3.47l-.23 2.31v.92c0 1.38.88 2.15 2.64 2.3 2.76-.3 6.22-.99 10.37-2.07h.72c.64.25.97.79.97 1.62v.69c0 1.89-4.02 3.35-12.06 4.38h-.72c-2.9 0-4.5-1.84-4.82-5.52 0-2.7.56-7.85 1.68-15.43l-.48-1.39c0-3.11 4.81-4.95 14.45-5.52l3.13-.23zm14.308-.053h2.426c3.715 0 5.572 1.295 5.572 3.885v.246c0 4.535-3.878 8.66-11.636 12.375v.23c3.88 3.56 7.113 6.233 9.703 8.014v.72c0 1.255-.41 2.063-1.22 2.427h-.97l-13.33-9.457-.25 4.85v3.64c-.41.81-1.06 1.213-1.94 1.213-.65 0-1.13-.322-1.46-.967v-1.46l2.18-18.93c-.65 0-.97-.48-.97-1.442 0-2.91 2.42-4.61 7.26-5.09l4.6-.24zm-8.472 13.096h.246c8.39-2.156 12.586-4.5 12.586-7.03v-.247c0-.446-.81-.768-2.426-.967-2.684 0-5.912.56-9.686 1.7l-.72 6.54zm21.69-13.096c.75.305 1.167.62 1.25.95-1.337 8.355-2.005 14.425-2.005 18.21v2.602c4.477 0 8.145-2.06 11.004-6.16 1.13-9.94 2.21-14.91 3.26-14.91h.27c1 .1 1.5.34 1.5.72-1.5 9.04-2.25 15.82-2.25 20.34v3.77c0 1.24-.5 2.11-1.51 2.6h-1l-.98-.95v-.48l.25-4.01c-.6 0-3.85 1.49-9.75 4.48l-1.75.47c-2-.26-3-1.13-3-2.6v-.23c1.22-16.56 2.64-24.84 4.26-24.84h.51zm30.886.053h.37c1.616.2 2.425.984 2.425 2.355v.475c0 2.367-.81 4.57-2.426 6.61h-.37c-.257-.07-.51-.463-.755-1.178l.95-3.533-.74-.48c-1.722.15-4.886 2.04-9.49 5.66v.23l12.268 2.37c1.243.98 1.864 2.63 1.864 4.95v1.4c0 3.17-2.045 5.93-6.135 8.26-1.61.63-3.16.95-4.66.95h-.39c-4.27 0-6.87-1.89-7.81-5.66v-1.42c0-1.74.43-2.61 1.3-2.61.85 3 2.41 4.5 4.66 4.5 0 .3.93.46 2.79.46 2.75 0 5.42-1.41 8-4.24 0-1.87-3.97-3.06-11.9-3.55-2.86-.8-4.29-1.97-4.29-3.53 0-3.83 3.84-7.69 11.53-11.57l2.79-.48zm17.103 0h.85c1.16 0 2.63 5.36 4.41 16.084 1.41 5.063 2.11 8.502 2.11 10.318-.29.96-.85 1.442-1.69 1.442-1.08 0-1.85-2.56-2.32-7.682l-.21-.228h-.21c-1.83.023-5.68 1.142-11.56 3.357-.56 3.2-1.47 4.8-2.74 4.8-.84-.32-1.26-.96-1.26-1.91 0-1.85 3.86-10.33 11.59-25.45l1.06-.72zm-.42 6.715c-1.68 3.047-3.23 6.252-4.64 9.615h1.48c1.43 0 3.26-.322 5.49-.967l-1.9-8.648h-.42zm13.2-6.768h.25c.76 0 1.4.393 1.92 1.178-1.11 8.11-1.91 15.363-2.39 21.762l13.71-2.83.48.703v1.424c0 2.156-4.97 4.125-14.9 5.906-1.77-.317-2.65-.867-2.65-1.653 1.32-17.343 2.28-26.015 2.89-26.015l.72-.475zm33.35.053c.81.176 1.22.79 1.22 1.846-.25 1.992-1.06 2.988-2.41 2.988-8.83 0-13.25 1.23-13.25 3.69l-.24 2.076v1.142c5.77-1.383 9.71-2.074 11.82-2.074h.48c.81.352 1.22 1.12 1.22 2.303 0 1.69-1.12 2.54-3.37 2.54-7.4.96-11.09 2.12-11.09 3.47l-.23 2.31v.92c0 1.38.88 2.15 2.64 2.3 2.76-.3 6.22-.99 10.37-2.07h.72c.64.25.97.79.97 1.62v.69c0 1.89-4.01 3.35-12.05 4.38h-.72c-2.89 0-4.5-1.84-4.82-5.52 0-2.7.56-7.85 1.69-15.43l-.47-1.39c0-3.11 4.82-4.95 14.45-5.52l3.13-.23zm12.15-.053h.46c.75.41 1.13 1.05 1.13 1.916v.492c0 5.204.46 11.297 1.37 18.282h.23c5.02-13.15 7.97-19.723 8.86-19.723h.69c.67 0 1.73 4.57 3.18 13.71 1.36 4.69 2.04 8.614 2.04 11.778-.44 1.125-1.12 1.688-2.04 1.688-.61 0-1.44-3.932-2.49-11.795l-1.83-7.682c-1.3 2.086-3.65 7.535-7.05 16.348-.97 1-1.8 1.56-2.49 1.69-1.97 0-2.95-2.65-2.95-7.94l-1.12-10.09h-.23l-6.82 15.38c-.41 2.57-.79 3.85-1.14 3.85h-.89l-.91-.95v-1.21c0-2.15 1.9-6.8 5.68-13.94 2.7-7.5 4.44-11.35 5.22-11.55l1.14-.24zM396.88 102h.51l.754.65v.44c0 .363-1.272 2.097-3.815 5.203-3.05 4.63-4.57 8.977-4.57 13.043 0 3.668 1.77 7.072 5.32 10.213l.26.86c0 .86-.51 1.59-1.53 2.18h-1.02c-4.41-3-6.61-7.2-6.61-12.61v-.65c0-5.48 2.46-11.27 7.38-17.39 1.48-1.3 2.58-1.95 3.3-1.95zm20.81 4.43c1.523 0 2.285.632 2.285 1.898v.475c0 1.746-1.36 2.62-4.077 2.62l-5.08.245c-1.524 8.12-2.286 15.105-2.286 20.953-.41 1.27-.83 1.9-1.264 1.9h-.773c-.88 0-1.39-.24-1.53-.72.857-8.99 1.79-16.29 2.797-21.9l-7.63 1.2c-.715 0-1.137-.71-1.266-2.14 0-2.38 2.12-3.57 6.365-3.57 2.54-.63 6.7-.95 12.46-.95zm20.337.017c.832.223 1.25.79 1.25 1.705v.23c-1.173 17.308-2.005 25.962-2.498 25.962l-.27.246h-.74c-.87 0-1.46-.404-1.76-1.213.32-2.31.49-5.543.49-9.703h-.25l-10.51 2.426-.74.966v4.606c0 1.37-.51 2.344-1.51 2.918H421c-.934 0-1.52-.404-1.754-1.213 1.16-17.473 2.83-26.21 5.01-26.21h.49l.756.985c-1.174 5.8-1.76 10.084-1.76 12.85 7.675-1.008 11.513-2.22 11.513-3.64l1-10.194 1.757-.72zm21.622.053c.8.176 1.21.79 1.21 1.846-.26 1.992-1.06 2.988-2.41 2.988-8.84 0-13.26 1.23-13.26 3.69l-.25 2.076v1.142c5.76-1.383 9.7-2.074 11.81-2.074h.47c.81.352 1.21 1.12 1.21 2.303 0 1.69-1.13 2.54-3.38 2.54-7.4.96-11.09 2.12-11.09 3.47l-.23 2.31v.92c0 1.38.88 2.15 2.63 2.3 2.76-.3 6.22-.99 10.37-2.07h.72c.64.25.97.79.97 1.62v.69c0 1.89-4.02 3.35-12.06 4.38h-.72c-2.9 0-4.5-1.84-4.82-5.52 0-2.7.56-7.85 1.68-15.43l-.48-1.39c0-3.11 4.81-4.95 14.45-5.52l3.13-.23zm33.34 0h1.03c1.3 0 2.08 1.05 2.33 3.146v.493c0 3.17-1.2 5.27-3.61 6.29l-.42-.5v-.25l1.07-4.12-.84-.48c-3.51 0-7.67 3.31-12.5 9.93-1.15 2-1.73 3.53-1.73 4.59v.24c0 2.58 1.56 3.87 4.67 3.87h.19c3 0 6.32-.8 9.96-2.41h.65c.56.25.84.82.84 1.68v.96c-3 3.07-6.53 4.6-10.59 4.6-5.52-.58-8.28-3.32-8.28-8.23v-.49c0-6.27 4.45-12.4 13.34-18.4 1.68-.65 2.96-.97 3.83-.97zm14.22 0h.84c1.16 0 2.63 5.36 4.41 16.084 1.4 5.063 2.11 8.502 2.11 10.318-.3.96-.86 1.442-1.69 1.442-1.08 0-1.85-2.56-2.32-7.682l-.21-.228h-.21c-1.83.023-5.69 1.142-11.57 3.357-.56 3.2-1.48 4.8-2.74 4.8-.85-.32-1.27-.96-1.27-1.91 0-1.85 3.86-10.33 11.58-25.45l1.05-.72zm-.42 6.715c-1.69 3.047-3.24 6.252-4.64 9.615h1.47c1.43 0 3.25-.322 5.48-.967l-1.9-8.648h-.42zm22.64-6.768c4.65 0 6.98 1.365 6.98 4.096 0 5.402-5.1 10.29-15.3 14.66-.75 0-1.13.48-1.13 1.442-.11 5.296-.64 7.945-1.59 7.945h-1.13c-.3-.07-.6-.47-.9-1.195l2.02-19.723h-.23c-.6 0-.9-.727-.9-2.18 0-2.355 1.35-3.715 4.06-4.078l8.09-.967zm-9 13.957c5.14-1.347 9.04-3.59 11.7-6.732l.44-1.46v-.474l-1.13-.246h-1.13c-5.99.328-8.99.89-8.99 1.688l-.91 7.224zm21.62-14.027h1.65c.55 0 .82.322.82.967-1.29 10.523-1.94 17.824-1.94 21.902v2.672c-.37 1.78-1.28 2.672-2.75 2.672h-.55l-1.11-.967c.74-11.04 1.66-19.8 2.76-26.28l1.09-.966zm23.64.053c1.52 0 2.28.632 2.28 1.898v.475c0 1.746-1.36 2.62-4.08 2.62l-5.08.245c-1.52 8.12-2.29 15.105-2.29 20.953-.41 1.27-.84 1.9-1.27 1.9h-.78c-.88 0-1.39-.24-1.53-.72.85-8.99 1.78-16.29 2.79-21.9l-7.63 1.2c-.72 0-1.14-.71-1.27-2.14 0-2.38 2.12-3.57 6.36-3.57 2.54-.63 6.69-.95 12.46-.95zm12.41.07h.84c1.16 0 2.63 5.36 4.41 16.084 1.4 5.063 2.11 8.502 2.11 10.318-.3.96-.86 1.442-1.69 1.442-1.08 0-1.85-2.56-2.32-7.682l-.21-.228h-.21c-1.83.023-5.69 1.142-11.57 3.357-.57 3.2-1.48 4.8-2.75 4.8-.84-.32-1.27-.96-1.27-1.91 0-1.85 3.86-10.33 11.58-25.45l1.05-.72zm-.42 6.715c-1.69 3.047-3.24 6.252-4.64 9.615h1.48c1.43 0 3.26-.322 5.48-.967l-1.9-8.648h-.42zm13.2-6.768h.24c.76 0 1.4.393 1.91 1.178-1.12 8.11-1.91 15.363-2.39 21.762l13.71-2.83.47.703v1.424c0 2.156-4.97 4.125-14.91 5.906-1.77-.317-2.66-.867-2.66-1.653 1.31-17.343 2.27-26.015 2.88-26.015l.72-.475zm46.67.053h1.03c1.3 0 2.08 1.05 2.33 3.146v.493c0 3.17-1.2 5.27-3.61 6.29l-.42-.5v-.25l1.07-4.12-.85-.48c-3.51 0-7.67 3.31-12.5 9.93-1.15 2-1.72 3.53-1.72 4.59v.24c0 2.58 1.56 3.87 4.67 3.87h.19c3 0 6.32-.8 9.96-2.41h.65c.56.25.84.82.84 1.68v.96c-3 3.07-6.53 4.6-10.59 4.6-5.52-.58-8.28-3.32-8.28-8.23v-.49c0-6.27 4.45-12.4 13.34-18.4 1.68-.65 2.96-.97 3.83-.97zm9.01-.123h1.65c.55 0 .82.322.82.967-1.29 10.523-1.94 17.824-1.94 21.902v2.672c-.37 1.78-1.28 2.672-2.75 2.672h-.54l-1.11-.967c.74-11.04 1.66-19.8 2.76-26.28l1.09-.966zm23.64.053c1.52 0 2.28.632 2.28 1.898v.475c0 1.746-1.36 2.62-4.08 2.62l-5.08.245c-1.53 8.12-2.29 15.105-2.29 20.953-.41 1.27-.83 1.9-1.27 1.9H659c-.88 0-1.39-.24-1.53-.72.86-8.99 1.79-16.29 2.8-21.9l-7.63 1.2c-.714 0-1.136-.71-1.265-2.14 0-2.38 2.12-3.57 6.363-3.57 2.54-.63 6.693-.95 12.46-.95zm3.71.07l5.38 8.156 2.35 1.934c2.97-5.297 5.05-8.502 6.22-9.615h1.07l.86.966c-.12.86-3.48 6.86-10.09 18-1.67 3.13-2.88 5.93-3.66 8.41l-.63.25c-1.01-.47-1.51-1.19-1.51-2.16.06-1.25 1.77-5.17 5.15-11.76-4.87-5.23-7.3-9.47-7.3-12.73.9-.96 1.62-1.44 2.14-1.44zm30.71 0c.78 0 1.17 2.72 1.17 8.156l1.58 10.336h.38c0-.597 1.57-3.803 4.73-9.615.49-3.832 1.41-5.748 2.76-5.748h.38c.8 0 1.45 2.95 1.97 8.87.88 4.04 1.53 6.44 1.97 7.2.42-2.04 2.52-8.05 6.31-18.02.55-.64 1.08-.95 1.58-.95.7 0 1.16.31 1.37.95 0 .82-1.97 6.18-5.91 16.08-.66 2.34-1.25 5.55-1.78 9.61-.42.79-.95 1.19-1.58 1.19-1.2 0-2.11-2.72-2.74-8.16-1.29-5.31-2.08-8.19-2.38-8.65l-3.94 7.68c-.66 1.5-1.25 4.06-1.78 7.68-.35.59-.87.99-1.57 1.2-1.1 0-2.02-4.16-2.76-12.48-1.06-5.88-1.58-10.61-1.58-14.17 0-.48.59-.88 1.77-1.19zm42.99-.053c.83.223 1.24.79 1.24 1.705v.23c-1.18 17.308-2.01 25.962-2.5 25.962l-.27.246h-.74c-.87 0-1.46-.404-1.76-1.213.32-2.31.49-5.543.49-9.703h-.25l-10.51 2.426-.74.966v4.606c0 1.37-.51 2.344-1.51 2.918h-.5c-.94 0-1.52-.404-1.76-1.213 1.16-17.473 2.83-26.21 5.01-26.21h.49l.76.985c-1.17 5.8-1.76 10.084-1.76 12.85 7.67-1.008 11.51-2.22 11.51-3.64l1-10.194 1.76-.72zm21.62.053c.81.176 1.21.79 1.21 1.846-.26 1.992-1.06 2.988-2.41 2.988-8.84 0-13.26 1.23-13.26 3.69l-.25 2.076v1.142c5.76-1.383 9.7-2.074 11.81-2.074h.47c.81.352 1.21 1.12 1.21 2.303 0 1.69-1.12 2.54-3.37 2.54-7.4.96-11.09 2.12-11.09 3.47l-.23 2.31v.92c0 1.38.88 2.15 2.63 2.3 2.77-.3 6.22-.99 10.37-2.07h.72c.64.25.97.79.97 1.62v.69c0 1.89-4.02 3.35-12.06 4.38h-.72c-2.9 0-4.5-1.84-4.82-5.52 0-2.7.56-7.85 1.69-15.43l-.48-1.39c0-3.11 4.81-4.95 14.45-5.52l3.13-.23zm14.31-.053h2.42c3.71 0 5.57 1.295 5.57 3.885v.246c0 4.535-3.88 8.66-11.64 12.375v.23c3.88 3.56 7.11 6.233 9.7 8.014v.72c0 1.255-.41 2.063-1.22 2.427h-.97l-13.33-9.457-.25 4.85v3.64c-.41.81-1.06 1.213-1.93 1.213-.65 0-1.13-.322-1.46-.967v-1.46l2.18-18.93c-.65 0-.97-.48-.97-1.442 0-2.91 2.42-4.61 7.26-5.09l4.6-.24zm-8.48 13.096h.24c8.39-2.156 12.58-4.5 12.58-7.03v-.247c0-.446-.81-.768-2.43-.967-2.69 0-5.92.56-9.69 1.7l-.72 6.54zm35.27-13.043c.8.176 1.21.79 1.21 1.846-.26 1.992-1.06 2.988-2.41 2.988-8.84 0-13.26 1.23-13.26 3.69l-.25 2.076v1.142c5.76-1.383 9.7-2.074 11.81-2.074h.47c.81.352 1.22 1.12 1.22 2.303 0 1.69-1.13 2.54-3.38 2.54-7.39.96-11.09 2.12-11.09 3.47l-.23 2.31v.92c0 1.38.88 2.15 2.64 2.3 2.76-.3 6.22-.99 10.37-2.07h.72c.65.25.97.79.97 1.62v.69c0 1.89-4.02 3.35-12.06 4.38h-.72c-2.9 0-4.5-1.84-4.82-5.52 0-2.7.56-7.85 1.69-15.43l-.48-1.39c0-3.11 4.81-4.95 14.45-5.52l3.13-.23zm35.68-.07c1.52 0 2.28.632 2.28 1.898v.475c0 1.746-1.36 2.62-4.08 2.62l-5.08.245c-1.53 8.12-2.29 15.105-2.29 20.953-.41 1.27-.83 1.9-1.27 1.9h-.77c-.88 0-1.39-.24-1.53-.72.85-8.99 1.79-16.29 2.79-21.9l-7.63 1.2c-.72 0-1.14-.71-1.27-2.14 0-2.38 2.12-3.57 6.36-3.57 2.54-.63 6.7-.95 12.46-.95zm20.33.017c.83.223 1.24.79 1.24 1.705v.23c-1.17 17.308-2.01 25.962-2.5 25.962l-.27.246h-.74c-.87 0-1.45-.404-1.76-1.213.33-2.31.49-5.543.49-9.703h-.25l-10.51 2.426-.74.966v4.606c0 1.37-.51 2.344-1.51 2.918h-.5c-.93 0-1.52-.404-1.75-1.213 1.16-17.473 2.83-26.21 5.01-26.21h.49l.76.985c-1.17 5.8-1.76 10.084-1.76 12.85 7.67-1.008 11.51-2.22 11.51-3.64l1-10.194 1.76-.72zm21.62.053c.81.176 1.21.79 1.21 1.846-.26 1.992-1.06 2.988-2.41 2.988-8.84 0-13.25 1.23-13.25 3.69l-.25 2.076v1.142c5.77-1.383 9.7-2.074 11.81-2.074h.47c.81.352 1.21 1.12 1.21 2.303 0 1.69-1.13 2.54-3.38 2.54-7.39.96-11.09 2.12-11.09 3.47l-.23 2.31v.92c0 1.38.88 2.15 2.63 2.3 2.77-.3 6.22-.99 10.37-2.07h.72c.64.25.96.79.96 1.62v.69c0 1.89-4.02 3.35-12.06 4.38h-.7c-2.9 0-4.5-1.84-4.82-5.52 0-2.7.56-7.85 1.69-15.43l-.48-1.39c0-3.11 4.82-4.95 14.45-5.52l3.13-.23zm22.13-4.5l.86 1.107-.86 10.6 17.45-9.193c.76.89 1.14 2.004 1.14 3.34-1.97 2.625-7.03 5.964-15.17 10.02v.28c3.76 4.664 8.05 8.567 12.88 11.707v.55c0 2.6-.95 3.91-2.86 3.91l-14.3-11.14c-.56 7.43-1.13 11.15-1.71 11.15l-1.44.28c-.95-.3-1.43-.86-1.43-1.67l1.14-13.09-.28-3.34c.65 0 1.21-4.08 1.71-12.25.78-1.48 1.74-2.23 2.86-2.23zm24.34 4.377h1.65c.55 0 .82.322.82.967-1.29 10.523-1.93 17.824-1.93 21.902v2.672c-.36 1.78-1.28 2.672-2.74 2.672h-.54l-1.11-.967c.74-11.04 1.66-19.8 2.76-26.28l1.09-.966zm7.98.07c1.06 0 2.34 2.004 3.83 6.012 2.88 5.9 6.09 10.95 9.61 15.15 1.19-11.57 2.07-18.38 2.64-20.45l.97-.72h.72c.48 0 .73.32.73.96-1.45 16.52-2.32 25.34-2.64 26.45l-1.45.47c-2.57 0-6.89-5.45-12.98-16.35l-.97-.97-.24.72-.72 11.07v1.44l.24 1.44c-.21 1.92-.85 2.88-1.92 2.88-.99-.35-1.55-.83-1.69-1.44 1.23-17.32 2.11-25.98 2.64-25.98l1.21-.72zm35.35 0h.17c1.55 0 2.6 1.524 3.13 4.57l-.37.475h-.18l-1.48-.474c-4.03.597-8.26 3.404-12.68 8.42-1.23 2.18-1.84 3.703-1.84 4.57v.967c0 2.566 2.63 4.166 7.91 4.798 3.3 0 5.81-1.763 7.52-5.29l-2.2-.95c-.82 0-3.09.96-6.81 2.883-.36-.82-.54-1.623-.54-2.408v-.246c0-2.555 2.45-4.32 7.35-5.29h.37c2.81 0 4.22 1.844 4.22 5.536 0 3.808-3.12 7.178-9.37 10.107l-2.2.475c-3.98 0-6.67-1.682-8.09-5.045l-.37-3.13c0-7.265 3.73-13.44 11.2-18.526 1.89-.97 3.3-1.45 4.24-1.45zm24.25 0h.25c.77 0 1.4.393 1.92 1.178-1.11 8.11-1.91 15.363-2.39 21.762l13.71-2.83.48.703v1.424c0 2.156-4.97 4.125-14.91 5.906-1.77-.317-2.66-.867-2.66-1.653 1.31-17.343 2.27-26.015 2.88-26.015l.72-.475zm20.2-.07h1.65c.55 0 .83.322.83.967-1.29 10.523-1.93 17.824-1.93 21.902v2.672c-.36 1.78-1.28 2.672-2.74 2.672h-.55l-1.11-.967c.74-11.04 1.66-19.8 2.76-26.28l1.09-.966zm23.56.07h.7c.63.258.95.82.95 1.688 0 1.172-2.45 6.222-7.35 15.152-2.4 6.692-3.9 10.3-4.5 10.828l-2.35.475c-1.03 0-1.75-1.846-2.15-5.537-3.15-11.12-4.73-17.936-4.73-20.444.26-.73.73-1.29 1.42-1.69h.95c.86 0 1.72 3.37 2.6 10.1l2.85 10.58h.23c1.64-4.34 5.19-11.23 10.65-20.69l.72-.48zm20.44.053c.81.176 1.21.79 1.21 1.846-.26 1.992-1.06 2.988-2.41 2.988-8.83 0-13.25 1.23-13.25 3.69l-.24 2.076v1.142c5.76-1.383 9.7-2.074 11.81-2.074h.47c.81.352 1.21 1.12 1.21 2.303 0 1.69-1.13 2.54-3.38 2.54-7.4.96-11.09 2.12-11.09 3.47l-.23 2.31v.92c0 1.38.88 2.15 2.64 2.3 2.77-.3 6.23-.99 10.37-2.07h.72c.64.25.97.79.97 1.62v.69c0 1.89-4.02 3.35-12.06 4.38h-.72c-2.9 0-4.5-1.84-4.82-5.52 0-2.7.56-7.85 1.69-15.43l-.47-1.39c0-3.11 4.82-4.95 14.45-5.52l3.13-.23zm10.6-.053h1.07c5.1 0 8.22 2.022 9.37 6.065l.21 1.933c0 8.05-5.96 14.684-17.89 19.9l-1.06.245h-.23c-.32 0-.6-.57-.85-1.705l2.13-20.865c-.85 0-1.28-.24-1.28-.72v-.493c0-2.578 1.14-3.868 3.41-3.868l5.12-.5zm-4.25 5.098c-1.28 8.297-1.92 13.875-1.92 16.734v1.21c8.94-4.47 13.41-8.67 13.41-12.62v-.23c0-2.28-.64-3.41-1.92-3.41-1.58-1.13-4.14-1.69-7.66-1.69h-1.92zM1093.7 102h.757c3.313 3.07 4.97 7.547 4.97 13.43 0 8.52-3.49 14.906-10.46 19.16h-.49c-.67-.235-1.007-.75-1.007-1.547 0-.69 1.41-2.232 4.23-4.623 2.66-3.61 3.99-7.424 3.99-11.443 0-3.762-1.33-8.022-3.99-12.78.48-1.03 1.145-1.763 1.99-2.197zm9 26.596c1.57 0 2.55.955 2.936 2.865 0 1.91-1.37 2.96-4.113 3.13-1.37-.51-2.06-1.38-2.06-2.6v-.26c.54-2.08 1.62-3.13 3.235-3.13zM165.58 144h1.81c.597 0 .896.375.896 1.125-1.406 12.152-2.11 20.578-2.11 25.277v3.094c-.398 2.063-1.394 3.094-2.988 3.094h-.615l-1.194-1.125c.79-12.74 1.8-22.852 3-30.34l1.2-1.125zm23.642 4.43c1.523 0 2.285.632 2.285 1.898v.475c0 1.746-1.36 2.62-4.078 2.62l-5.08.245c-1.53 8.12-2.29 15.105-2.29 20.953-.41 1.27-.83 1.9-1.27 1.9h-.78c-.88 0-1.39-.24-1.53-.72.86-8.99 1.79-16.29 2.79-21.9l-7.63 1.2c-.72 0-1.14-.71-1.27-2.14 0-2.38 2.12-3.57 6.36-3.57 2.54-.63 6.69-.95 12.46-.95zm36.017 0c1.52 0 2.28.632 2.28 1.898v.475c0 1.746-1.36 2.62-4.08 2.62l-5.08.245c-1.53 8.12-2.29 15.105-2.29 20.953-.41 1.27-.83 1.9-1.27 1.9h-.78c-.88 0-1.39-.24-1.53-.72.85-8.99 1.78-16.29 2.79-21.9l-7.63 1.2c-.72 0-1.14-.71-1.27-2.14 0-2.38 2.12-3.57 6.36-3.57 2.54-.63 6.7-.95 12.46-.95zm16.92.017c5 .692 7.5 3.686 7.5 8.983 0 6.937-2.74 12.68-8.23 17.226-2.26 1.29-4.29 1.934-6.07 1.934-4.35 0-7.15-2.344-8.41-7.03l-.18-2.18v-.74c0-7.57 3.46-13.312 10.37-17.226 1.74-.644 3.4-.967 4.99-.967zm-13.04 18.933c1.8 2.74 4.19 4.11 7.15 4.11 4.77 0 8.1-2.83 10-8.49l.35-2.67c0-3.985-1.97-6.33-5.89-7.03h-.55c-3.25 0-6.64 3.232-10.18 9.7-.6 1.946-.9 3.405-.9 4.378zm37.03-18.934c5 .692 7.5 3.686 7.5 8.983 0 6.93-2.74 12.68-8.23 17.22-2.26 1.29-4.29 1.93-6.07 1.93-4.35 0-7.15-2.35-8.4-7.03l-.18-2.18v-.74c0-7.57 3.45-13.32 10.37-17.23 1.73-.65 3.4-.97 4.99-.97zm-13.03 18.934c1.8 2.74 4.19 4.112 7.15 4.112 4.77 0 8.1-2.83 10-8.49l.35-2.672c0-3.984-1.97-6.328-5.89-7.03h-.55c-3.25 0-6.64 3.233-10.18 9.702-.6 1.945-.9 3.404-.9 4.377zm26.87-18.775l.7.967-.71 9.14 14.34-7.944c.62.773.93 1.734.93 2.882-1.61 2.274-5.77 5.162-12.46 8.666v.246c3.1 4.02 6.62 7.383 10.58 10.09v.493c0 2.238-.78 3.357-2.35 3.357l-11.74-9.615c-.47 6.41-.94 9.615-1.4 9.615l-1.18.246c-.79-.258-1.18-.738-1.18-1.44l.93-11.304-.23-2.883c.54 0 1.01-3.53 1.41-10.6.64-1.27 1.43-1.91 2.36-1.91zm49.73-.175c1.52 0 2.28.632 2.28 1.898v.475c0 1.746-1.36 2.62-4.08 2.62l-5.08.245c-1.52 8.12-2.28 15.105-2.28 20.953-.41 1.27-.83 1.9-1.26 1.9h-.77c-.88 0-1.39-.24-1.53-.72.85-8.99 1.79-16.29 2.79-21.9l-7.63 1.2c-.72 0-1.14-.71-1.27-2.14 0-2.38 2.12-3.57 6.36-3.57 2.54-.63 6.7-.95 12.46-.95zm20.33.017c.83.223 1.25.79 1.25 1.705v.23c-1.17 17.308-2.01 25.962-2.5 25.962l-.27.246h-.74c-.87 0-1.46-.404-1.76-1.213.33-2.31.49-5.543.49-9.703h-.25l-10.51 2.426-.74.966v4.606c0 1.37-.51 2.344-1.51 2.918h-.49c-.94 0-1.53-.404-1.76-1.213 1.16-17.473 2.83-26.21 5.01-26.21h.49l.75.985c-1.17 5.8-1.76 10.084-1.76 12.85 7.68-1.008 11.51-2.22 11.51-3.64l1-10.194 1.76-.72zm21.62.053c.81.176 1.21.79 1.21 1.846-.26 1.992-1.06 2.988-2.41 2.988-8.84 0-13.26 1.23-13.26 3.69l-.25 2.076v1.142c5.76-1.383 9.7-2.074 11.81-2.074h.47c.81.352 1.21 1.12 1.21 2.303 0 1.69-1.13 2.54-3.38 2.54-7.4.96-11.09 2.12-11.09 3.47l-.23 2.31v.92c0 1.38.88 2.15 2.63 2.3 2.76-.3 6.22-.99 10.37-2.07h.72c.64.25.96.79.96 1.62v.69c0 1.89-4.02 3.35-12.06 4.38h-.73c-2.9 0-4.5-1.84-4.82-5.52 0-2.7.56-7.85 1.69-15.43l-.48-1.39c0-3.11 4.81-4.95 14.45-5.52l3.13-.23zm12.14-.053h.46c.75.41 1.13 1.05 1.13 1.916v.492c0 5.204.46 11.297 1.37 18.282h.23c5.02-13.15 7.97-19.723 8.86-19.723h.69c.66 0 1.72 4.57 3.18 13.71 1.36 4.69 2.04 8.614 2.04 11.778-.45 1.125-1.13 1.688-2.04 1.688-.61 0-1.44-3.932-2.5-11.795l-1.83-7.682c-1.3 2.086-3.65 7.535-7.05 16.348-.97 1-1.8 1.56-2.5 1.69-1.97 0-2.95-2.65-2.95-7.94l-1.13-10.09h-.23l-6.82 15.38c-.41 2.57-.79 3.85-1.14 3.85h-.9l-.92-.95v-1.21c0-2.15 1.89-6.8 5.68-13.94 2.69-7.5 4.43-11.35 5.22-11.55l1.14-.24zm45.53.053h.85c1.16 0 2.63 5.36 4.41 16.084 1.4 5.063 2.11 8.502 2.11 10.318-.3.96-.86 1.442-1.69 1.442-1.08 0-1.85-2.56-2.32-7.682l-.21-.228h-.21c-1.83.023-5.69 1.142-11.57 3.357-.57 3.2-1.48 4.8-2.75 4.8-.85-.32-1.27-.96-1.27-1.91 0-1.85 3.86-10.33 11.58-25.45l1.05-.72zm-.42 6.715c-1.69 3.047-3.23 6.252-4.64 9.615h1.48c1.43 0 3.26-.322 5.49-.967l-1.9-8.648h-.42zm26.32-6.715c.78 0 1.18 2.72 1.18 8.156l1.58 10.336h.38c0-.597 1.57-3.803 4.73-9.615.49-3.832 1.41-5.748 2.76-5.748h.38c.8 0 1.45 2.95 1.97 8.87.88 4.04 1.53 6.44 1.97 7.2.42-2.04 2.52-8.05 6.31-18.02.55-.64 1.08-.95 1.58-.95.71 0 1.16.31 1.38.95 0 .82-1.97 6.18-5.91 16.08-.66 2.34-1.25 5.55-1.77 9.61-.42.79-.95 1.19-1.58 1.19-1.2 0-2.11-2.72-2.75-8.16-1.29-5.31-2.08-8.19-2.38-8.65l-3.94 7.68c-.66 1.5-1.25 4.06-1.78 7.68-.35.59-.87.99-1.57 1.2-1.1 0-2.02-4.16-2.76-12.48-1.05-5.88-1.58-10.61-1.58-14.17 0-.48.59-.88 1.77-1.19zm43-.053c.83.223 1.24.79 1.24 1.705v.23c-1.17 17.308-2.01 25.962-2.5 25.962l-.26.246H496c-.868 0-1.454-.404-1.76-1.213.33-2.31.493-5.543.493-9.703h-.248l-10.51 2.426-.74.966v4.606c0 1.37-.504 2.344-1.51 2.918h-.494c-.93 0-1.52-.404-1.75-1.213 1.16-17.473 2.83-26.21 5.01-26.21h.49l.76.985c-1.17 5.8-1.76 10.084-1.76 12.85 7.68-1.008 11.51-2.22 11.51-3.64l1.01-10.194 1.76-.72zm8.47-.07h1.65c.55 0 .83.322.83.967-1.29 10.523-1.94 17.824-1.94 21.902v2.672c-.37 1.78-1.28 2.672-2.74 2.672h-.55l-1.11-.967c.74-11.04 1.66-19.8 2.76-26.28l1.09-.966zm7.73.07h.24c.76 0 1.4.393 1.91 1.178-1.11 8.11-1.91 15.363-2.39 21.762l13.71-2.83.47.703v1.424c0 2.156-4.97 4.125-14.91 5.906-1.77-.317-2.65-.867-2.65-1.653 1.31-17.343 2.27-26.015 2.88-26.015l.72-.475zm33.34.053c.8.176 1.21.79 1.21 1.846-.26 1.992-1.06 2.988-2.41 2.988-8.84 0-13.25 1.23-13.25 3.69l-.25 2.076v1.142c5.76-1.383 9.7-2.074 11.81-2.074h.47c.8.352 1.21 1.12 1.21 2.303 0 1.69-1.13 2.54-3.38 2.54-7.39.96-11.09 2.12-11.09 3.47l-.23 2.31v.92c0 1.38.88 2.15 2.64 2.3 2.76-.3 6.22-.99 10.37-2.07h.72c.64.25.97.79.97 1.62v.69c0 1.89-4.02 3.35-12.06 4.38h-.72c-2.9 0-4.5-1.84-4.82-5.52 0-2.7.56-7.85 1.68-15.43l-.48-1.39c0-3.11 4.82-4.95 14.45-5.52l3.13-.23zm26.98 0c4.74 0 7.12 1.617 7.12 4.852v.72c0 2.262-1.08 4.442-3.22 6.54v.245c3.53 1.067 5.29 2.842 5.29 5.327v.966c0 4.055-3.99 7.037-11.95 8.948l-3.92.492h-2.28c-1.23 0-1.85-.645-1.85-1.934v-.246l1.84-19.863c-.78 0-1.16-.158-1.16-.475v-1.46c0-2.74 3.37-4.112 10.12-4.112zm-6.68 10.898h.24c7.19 0 10.79-1.617 10.79-4.85-1.18-.798-3.18-1.196-5.98-1.196h-2.76c-1.22 0-1.83.562-1.83 1.687l-.47 4.35zm-.46 4.606l-.46 7.734 2.3.492.23-.246h1.14c6.44-.843 9.66-2.373 9.66-4.588-2.12-2.26-5.42-3.392-9.9-3.392h-.92l-.23-.246-.23.246h-1.62zm36.33-15.504c.81.176 1.21.79 1.21 1.846-.26 1.992-1.06 2.988-2.41 2.988-8.84 0-13.26 1.23-13.26 3.69l-.25 2.076v1.142c5.76-1.383 9.7-2.074 11.81-2.074h.47c.81.352 1.21 1.12 1.21 2.303 0 1.69-1.13 2.54-3.38 2.54-7.4.96-11.09 2.12-11.09 3.47l-.23 2.31v.92c0 1.38.88 2.15 2.63 2.3 2.76-.3 6.22-.99 10.37-2.07h.72c.64.25.96.79.96 1.62v.69c0 1.89-4.02 3.35-12.06 4.38h-.7c-2.89 0-4.5-1.84-4.82-5.52 0-2.7.56-7.85 1.68-15.43l-.47-1.39c0-3.11 4.82-4.95 14.45-5.52l3.13-.23zm18.4 0h1.03c1.3 0 2.08 1.05 2.33 3.146v.493c0 3.17-1.2 5.27-3.6 6.29l-.43-.5v-.25l1.07-4.12-.84-.48c-3.51 0-7.67 3.31-12.5 9.93-1.15 2-1.73 3.53-1.73 4.59v.24c0 2.58 1.55 3.87 4.67 3.87h.19c3 0 6.32-.8 9.96-2.41h.65c.57.25.85.82.85 1.68v.96c-3 3.07-6.53 4.6-10.58 4.6-5.52-.58-8.28-3.32-8.28-8.23v-.49c0-6.27 4.45-12.4 13.34-18.4 1.69-.65 2.96-.97 3.83-.97zm14.22 0h.84c1.16 0 2.63 5.36 4.41 16.084 1.4 5.063 2.11 8.502 2.11 10.318-.3.96-.86 1.442-1.69 1.442-1.08 0-1.85-2.56-2.32-7.682l-.21-.228h-.21c-1.83.023-5.69 1.142-11.57 3.357-.57 3.2-1.48 4.8-2.75 4.8-.85-.32-1.27-.96-1.27-1.91 0-1.85 3.86-10.33 11.58-25.45l1.05-.72zm-.42 6.715c-1.69 3.047-3.24 6.252-4.65 9.615h1.5c1.43 0 3.26-.322 5.49-.967l-1.9-8.648h-.43zm14.81-6.768c.75.305 1.16.62 1.24.95-1.34 8.355-2.01 14.425-2.01 18.21v2.602c4.47 0 8.14-2.06 11-6.16 1.12-9.94 2.21-14.91 3.25-14.91h.26c1 .1 1.5.34 1.5.72-1.5 9.04-2.25 15.82-2.25 20.34v3.77c0 1.24-.5 2.11-1.51 2.6h-1l-.98-.95v-.48l.24-4.01c-.6 0-3.85 1.49-9.76 4.48l-1.76.47c-2.01-.26-3.01-1.13-3.01-2.6v-.23c1.22-16.56 2.64-24.84 4.25-24.84h.51zm30.88.053h.37c1.61.2 2.42.984 2.42 2.355v.475c0 2.367-.81 4.57-2.43 6.61h-.37c-.25-.07-.51-.463-.75-1.178l.95-3.533-.74-.48c-1.72.15-4.88 2.04-9.49 5.66v.23l12.27 2.37c1.24.98 1.87 2.63 1.87 4.95v1.4c0 3.17-2.05 5.93-6.14 8.26-1.61.63-3.16.95-4.66.95h-.39c-4.27 0-6.87-1.89-7.81-5.66v-1.42c0-1.74.43-2.61 1.3-2.61.85 3 2.41 4.5 4.66 4.5 0 .3.93.46 2.79.46 2.75 0 5.42-1.41 7.99-4.24 0-1.87-3.97-3.06-11.9-3.55-2.86-.8-4.29-1.97-4.29-3.53 0-3.83 3.84-7.69 11.53-11.57l2.79-.48zm25.05 0c.8.176 1.21.79 1.21 1.846-.26 1.992-1.06 2.988-2.41 2.988-8.84 0-13.25 1.23-13.25 3.69l-.25 2.076v1.142c5.76-1.383 9.7-2.074 11.81-2.074h.47c.81.352 1.21 1.12 1.21 2.303 0 1.69-1.13 2.54-3.38 2.54-7.4.96-11.09 2.12-11.09 3.47l-.23 2.31v.92c0 1.38.88 2.15 2.63 2.3 2.76-.3 6.22-.99 10.37-2.07h.72c.64.25.96.79.96 1.62v.69c0 1.89-4.02 3.35-12.06 4.38h-.72c-2.89 0-4.5-1.84-4.82-5.52 0-2.7.56-7.85 1.68-15.43l-.48-1.39c0-3.11 4.81-4.95 14.45-5.52l3.13-.23zm21.81-.123h1.65c.55 0 .82.322.82.967-1.29 10.523-1.94 17.824-1.94 21.902v2.672c-.36 1.78-1.28 2.672-2.74 2.672h-.5l-1.11-.967c.74-11.04 1.66-19.8 2.76-26.28l1.09-.966zm23.64.053c1.52 0 2.28.632 2.28 1.898v.475c0 1.746-1.36 2.62-4.08 2.62l-5.08.245c-1.53 8.12-2.29 15.105-2.29 20.953-.41 1.27-.83 1.9-1.27 1.9h-.77c-.88 0-1.39-.24-1.53-.72.86-8.99 1.79-16.29 2.8-21.9l-7.63 1.2c-.72 0-1.14-.71-1.27-2.14 0-2.38 2.12-3.57 6.37-3.57 2.54-.63 6.69-.95 12.46-.95zm18.28.07c.78 0 1.18 2.72 1.18 8.156l1.58 10.336h.38c0-.597 1.57-3.803 4.73-9.615.49-3.832 1.41-5.748 2.76-5.748h.38c.8 0 1.45 2.95 1.97 8.87.88 4.04 1.53 6.44 1.97 7.2.42-2.04 2.52-8.05 6.31-18.02.55-.64 1.08-.95 1.58-.95.7 0 1.16.31 1.37.95 0 .82-1.97 6.18-5.91 16.08-.66 2.34-1.25 5.55-1.78 9.61-.42.79-.95 1.19-1.58 1.19-1.2 0-2.11-2.72-2.74-8.16-1.29-5.31-2.08-8.19-2.38-8.65l-3.94 7.68c-.66 1.5-1.25 4.06-1.78 7.68-.35.59-.87.99-1.56 1.2-1.1 0-2.02-4.16-2.76-12.48-1.05-5.88-1.58-10.61-1.58-14.17 0-.48.59-.88 1.77-1.19zm35.07 0h.84c1.16 0 2.63 5.36 4.41 16.084 1.4 5.063 2.11 8.502 2.11 10.318-.3.96-.86 1.442-1.69 1.442-1.08 0-1.85-2.56-2.32-7.682l-.21-.228h-.21c-1.83.023-5.69 1.142-11.57 3.357-.56 3.2-1.48 4.8-2.74 4.8-.85-.32-1.27-.96-1.27-1.91 0-1.85 3.86-10.33 11.58-25.45l1.05-.72zm-.43 6.715c-1.69 3.047-3.24 6.252-4.64 9.615h1.47c1.43 0 3.26-.322 5.48-.967l-1.9-8.648h-.42zm24.49-6.715h.37c1.61.2 2.42.984 2.42 2.355v.475c0 2.367-.81 4.57-2.43 6.61h-.37c-.26-.07-.51-.463-.76-1.178l.95-3.533-.74-.48c-1.72.15-4.89 2.04-9.49 5.66v.23l12.27 2.37c1.24.98 1.86 2.63 1.86 4.95v1.4c0 3.17-2.05 5.93-6.14 8.26-1.61.63-3.16.95-4.66.95h-.39c-4.27 0-6.87-1.89-7.8-5.66v-1.42c0-1.74.43-2.61 1.3-2.61.86 3 2.41 4.5 4.66 4.5 0 .3.93.46 2.79.46 2.75 0 5.42-1.41 8-4.24 0-1.87-3.97-3.06-11.9-3.55-2.86-.8-4.29-1.97-4.29-3.53 0-3.83 3.84-7.69 11.53-11.57l2.79-.48zm32.04 0h.84c1.16 0 2.63 5.36 4.41 16.084 1.41 5.063 2.11 8.502 2.11 10.318-.29.96-.85 1.442-1.69 1.442-1.08 0-1.85-2.56-2.32-7.682l-.21-.228h-.21c-1.83.023-5.68 1.142-11.57 3.357-.57 3.2-1.48 4.8-2.74 4.8-.85-.32-1.27-.96-1.27-1.91 0-1.85 3.86-10.33 11.58-25.45l1.05-.72zm-.42 6.715c-1.69 3.047-3.24 6.252-4.64 9.615h1.47c1.43 0 3.25-.322 5.48-.967l-1.9-8.648h-.43zm28.14-6.768h.24c.76 0 1.4.393 1.91 1.178-1.11 8.11-1.91 15.363-2.39 21.762l13.71-2.83.47.703v1.424c0 2.156-4.97 4.125-14.91 5.906-1.77-.317-2.66-.867-2.66-1.653 1.31-17.343 2.27-26.015 2.88-26.015l.72-.475zm29.91 0c5 .692 7.51 3.686 7.51 8.983 0 6.937-2.75 12.68-8.23 17.226-2.26 1.29-4.28 1.934-6.06 1.934-4.35 0-7.15-2.344-8.41-7.03l-.17-2.18v-.74c0-7.57 3.45-13.312 10.37-17.226 1.73-.644 3.4-.967 4.99-.967zM906.4 167.38c1.806 2.74 4.19 4.11 7.156 4.11 4.77 0 8.107-2.83 10-8.49l.357-2.67c0-3.985-1.96-6.33-5.89-7.03h-.54c-3.25 0-6.64 3.232-10.18 9.7-.598 1.946-.897 3.405-.897 4.378zm25.525-18.934c1.066 0 2.344 2.004 3.832 6.012 2.88 5.905 6.09 10.956 9.613 15.15 1.184-11.565 2.063-18.38 2.637-20.442l.96-.72h.72c.48 0 .72.322.72.966-1.44 16.524-2.32 25.342-2.64 26.455l-1.44.474c-2.57 0-6.89-5.45-12.97-16.34l-.97-.96-.25.72-.72 11.08v1.45l.25 1.44c-.21 1.93-.85 2.89-1.916 2.89-.98-.35-1.54-.83-1.68-1.44 1.23-17.32 2.11-25.98 2.64-25.98l1.21-.72zm35.35 0h.175c1.56 0 2.6 1.524 3.13 4.57l-.37.475h-.177l-1.48-.47c-4.03.6-8.255 3.41-12.673 8.42-1.23 2.18-1.847 3.71-1.847 4.57v.97c0 2.57 2.63 4.17 7.91 4.8 3.3 0 5.81-1.76 7.52-5.29l-2.2-.95c-.82 0-3.09.96-6.8 2.89-.368-.82-.55-1.62-.55-2.41v-.24c0-2.55 2.45-4.32 7.347-5.29h.37c2.82 0 4.22 1.85 4.22 5.54 0 3.81-3.12 7.18-9.37 10.11l-2.19.48c-3.97 0-6.67-1.68-8.082-5.04l-.37-3.13c0-7.26 3.732-13.44 11.2-18.52 1.885-.96 3.3-1.44 4.234-1.44zm22.43.053c.784 0 1.177 2.72 1.177 8.15l1.587 10.33h.39c0-.6 1.58-3.81 4.73-9.62.49-3.83 1.41-5.75 2.76-5.75h.39c.8 0 1.45 2.95 1.97 8.87.88 4.04 1.53 6.44 1.97 7.2.42-2.04 2.52-8.05 6.31-18.02.55-.63 1.08-.95 1.58-.95.7 0 1.16.32 1.37.95 0 .82-1.97 6.18-5.91 16.08-.66 2.34-1.25 5.55-1.78 9.61-.43.8-.95 1.19-1.59 1.19-1.2 0-2.11-2.72-2.74-8.16-1.29-5.31-2.08-8.19-2.38-8.65l-3.94 7.68c-.66 1.5-1.25 4.06-1.78 7.68-.35.59-.87.99-1.57 1.2-1.1 0-2.02-4.16-2.76-12.48-1.05-5.88-1.58-10.61-1.58-14.17 0-.48.59-.88 1.78-1.19zm35.067 0h.85c1.16 0 2.63 5.36 4.41 16.08 1.41 5.06 2.11 8.5 2.11 10.32-.29.96-.854 1.44-1.686 1.44-1.08 0-1.85-2.56-2.32-7.68l-.21-.23h-.22c-1.826.02-5.68 1.14-11.564 3.35-.567 3.2-1.48 4.8-2.747 4.8-.846-.33-1.268-.97-1.268-1.92 0-1.85 3.86-10.34 11.583-25.46l1.053-.72zm-.42 6.71c-1.69 3.04-3.23 6.25-4.64 9.61h1.48c1.43 0 3.26-.33 5.485-.97l-1.9-8.65h-.42zm11.74-6.72l5.38 8.15 2.36 1.93c2.98-5.3 5.05-8.51 6.225-9.62h1.07l.86.96c-.114.85-3.48 6.85-10.086 18-1.66 3.13-2.88 5.93-3.65 8.4l-.63.24c-1-.47-1.51-1.19-1.51-2.16.06-1.26 1.78-5.18 5.15-11.76-4.86-5.23-7.29-9.47-7.29-12.73.91-.96 1.62-1.44 2.15-1.44zm25.63-4.47c.708.33 1.06.72 1.06 1.18-3.34 10.75-5.01 17.57-5.01 20.44-.95 1.1-1.746 1.65-2.39 1.65-1.055-.38-1.58-.85-1.58-1.41 1.663-14.58 3.866-21.87 6.61-21.87h1.32zm-6.24 26.38c1.668.31 2.5 1.18 2.5 2.6v.23c-.67 2.22-2.27 3.34-4.8 3.34-1.253 0-2.01-.87-2.27-2.61 0-2.01 1.527-3.2 4.57-3.57z" fill="#000"/><path d="M874.03 346.273c3.814 0 5.72 1.25 5.72 3.75v.563c0 1.75-.86 3.434-2.578 5.05v.188c2.82.828 4.23 2.203 4.23 4.125v.75c0 3.13-3.19 5.44-9.574 6.92l-3.13.37h-1.84c-.983 0-1.475-.5-1.475-1.5v-.19l1.476-15.35c-.62 0-.93-.13-.93-.38v-1.13c0-2.13 2.7-3.19 8.09-3.19zm-5.33 8.426h.187c5.765 0 8.648-1.25 8.648-3.74-.953-.63-2.547-.94-4.78-.94h-2.216c-.99 0-1.48.44-1.48 1.31l-.37 3.36zm-.376 3.56l-.363 5.99 1.84.37.19-.19h.92c5.16-.66 7.74-1.84 7.74-3.55-1.69-1.75-4.32-2.63-7.91-2.63H870l-.187-.19-.187.18h-1.29zm26.38-8.99c.538.12.808.53.808 1.23-.172 1.33-.707 1.99-1.606 1.99-5.89 0-8.836.82-8.836 2.46l-.164 1.38v.76c3.844-.92 6.47-1.38 7.875-1.38h.32c.54.23.81.74.81 1.53 0 1.12-.75 1.68-2.25 1.68-4.93.64-7.39 1.41-7.39 2.31l-.15 1.53v.61c0 .92.59 1.43 1.76 1.53 1.85-.21 4.15-.67 6.92-1.39h.49c.43.16.65.52.65 1.07v.45c0 1.26-2.68 2.23-8.04 2.92h-.48c-1.93 0-3-1.23-3.21-3.68 0-1.81.38-5.24 1.13-10.29l-.31-.93c0-2.08 3.21-3.3 9.64-3.68l2.09-.15zm13.827-.05c1.02 0 1.53.42 1.53 1.26v.31c0 1.16-.9 1.74-2.72 1.74l-3.38.16c-1.01 5.41-1.52 10.07-1.52 13.96-.27.84-.55 1.26-.84 1.26h-.51c-.59 0-.92-.16-1.02-.48.57-6 1.19-10.86 1.86-14.61l-5.08.8c-.47 0-.76-.48-.84-1.43 0-1.59 1.42-2.38 4.25-2.38 1.69-.42 4.46-.63 8.31-.63zm13.56.01c.56.15.84.53.84 1.14v.15c-.78 11.54-1.33 17.31-1.66 17.31l-.17.16h-.49c-.57 0-.97-.27-1.17-.81.22-1.54.33-3.7.33-6.47h-.16l-7.01 1.61-.49.64v3.07c0 .91-.33 1.56-1.01 1.94h-.32c-.62 0-1.01-.27-1.17-.81.78-11.65 1.89-17.47 3.34-17.47h.33l.51.65c-.78 3.86-1.17 6.72-1.17 8.56 5.12-.67 7.68-1.48 7.68-2.43l.67-6.8 1.17-.48zm4.29 0h.17c.51 0 .94.26 1.28.78-.74 5.4-1.27 10.24-1.59 14.51l9.14-1.89.32.47v.95c0 1.43-3.31 2.75-9.93 3.93-1.18-.21-1.77-.58-1.77-1.11.88-11.57 1.52-17.35 1.92-17.35l.48-.32zm22.23.03c.54.12.81.53.81 1.23-.17 1.33-.7 1.99-1.6 1.99-5.89 0-8.83.82-8.83 2.46l-.16 1.38v.76c3.85-.92 6.47-1.38 7.88-1.38h.32c.54.23.81.74.81 1.53 0 1.12-.75 1.68-2.25 1.68-4.93.64-7.39 1.41-7.39 2.31l-.15 1.53v.61c0 .92.59 1.43 1.76 1.53 1.85-.21 4.15-.67 6.92-1.39h.48c.43.16.64.52.64 1.07v.46c0 1.26-2.68 2.23-8.04 2.92h-.48c-1.93 0-3-1.23-3.21-3.68 0-1.81.38-5.24 1.13-10.29l-.31-.93c0-2.08 3.22-3.3 9.64-3.68l2.09-.15zm13.34-.04c.56.15.83.53.83 1.13v.15c-.78 11.54-1.33 17.31-1.66 17.31l-.17.16h-.49c-.58 0-.97-.27-1.17-.81.22-1.54.33-3.7.33-6.47h-.16l-7.01 1.61-.49.64v3.07c0 .91-.34 1.56-1.01 1.94h-.33c-.62 0-1.01-.27-1.17-.81.78-11.65 1.89-17.47 3.34-17.47h.33l.51.65c-.78 3.87-1.17 6.72-1.17 8.57 5.12-.67 7.68-1.48 7.68-2.43l.67-6.8 1.17-.49zm14.42.03c.54.12.81.53.81 1.23-.17 1.33-.71 1.99-1.6 1.99-5.89 0-8.83.82-8.83 2.46l-.16 1.38v.76c3.85-.92 6.47-1.39 7.88-1.39h.32c.54.23.81.74.81 1.53 0 1.12-.75 1.69-2.25 1.69-4.93.64-7.39 1.41-7.39 2.31l-.15 1.53v.61c0 .92.59 1.43 1.76 1.53 1.85-.21 4.15-.67 6.92-1.39h.48c.43.16.65.52.65 1.08v.45c0 1.26-2.68 2.23-8.04 2.92h-.48c-1.93 0-3-1.23-3.21-3.68 0-1.81.38-5.24 1.13-10.29l-.31-.93c0-2.08 3.22-3.3 9.64-3.68l2.09-.15zm8.1-.04h.31c.5.27.75.7.75 1.27v.33c0 3.47.31 7.53.92 12.19h.15c3.35-8.77 5.32-13.15 5.91-13.15h.46c.45 0 1.16 3.04 2.13 9.14.91 3.12 1.36 5.74 1.36 7.85-.29.75-.75 1.12-1.36 1.12-.4 0-.96-2.62-1.66-7.87L992.2 355c-.868 1.39-2.434 5.023-4.7 10.9-.648.663-1.2 1.04-1.664 1.124-1.31 0-1.966-1.767-1.966-5.3l-.75-6.724h-.153l-4.547 10.26c-.275 1.71-.53 2.566-.76 2.566h-.6l-.61-.632v-.804c0-1.438 1.26-4.536 3.785-9.293 1.797-5 2.957-7.56 3.48-7.7l.76-.16z" fill="#FFF"/><use fill="#000" filter="url(#g)" xlink:href="#h"/><use fill="#F6A623" xlink:href="#h"/><path d="M1021 352.608s51.316-28.227 62.806-28.595c11.49-.368 18.307 7.09 18.078 21.877-.23 14.787-24.65 16.815-26.295 33.643-1.65 16.83 16.27 24.702 32.86 26.94 16.6 2.235 26.02-8.115 36.97-21.037 10.95-12.922 8.36-24.08 23.83-32.828 7.94-4.49 28.34-3.06 33.69 8.414 5.07 10.885-4.62 31.506-7.8 39.547-6.45 16.3-19.16 24.43-16.86 39.54 2.67 17.52 36.15 59.74 18.9 85.82-17.26 26.08-76.27 3.6-95.32-4.2-40.89-16.75-40.66-56.67-34.51-69.84 6.14-13.17 29.53-34.01 68.2 5.89 38.66 39.89 61.83 73.69 69.84 90.87 8.01 17.18 2.28 21.52-8.22 41.23-10.5 19.71-46 44.3-41.91 66.46 4.08 22.15 35.76 59.64 65.73 54.64 29.97-5 36.69-27.59 24.97-42-13-16-39.75-21.52-34-56 2.83-16.99 13.15-27.89 29.57-23.94 16.42 3.94 17.38 17.84 27.11 32.8 9.73 14.95 15.61 34.5 44.37 31.14 28.76-3.36 70.03-53.6 41.08-66.48-28.95-12.88-71.83 4.34-80.53 1.68-8.7-2.67-16.03-16.02.82-26.09 16.85-10.06 46.34 4.46 53.41-4.22 4.11-5.05 7.42-15.31-14.79-28.61-27.43-16.41-83.35-35.14-90.39-41.22-12.75-11-17.26-16.83-1.64-42.92" stroke="#FFF" stroke-width="4"/><g stroke="#000" stroke-width="2"><path stroke-linejoin="round" fill="#FC0" d="M1230.168 457.766l18.682-26.796-24.248 11.935-8.848-20.905-8.753 21.024-26-11.818 20.69 26.752 28.48-.192z"/><path d="M1209.018 449.048c0 3.55 2.88 6.427 6.43 6.427 1.706 0 3.34-.677 4.547-1.882 1.206-1.206 1.884-2.84 1.884-4.545s-.68-3.34-1.89-4.545-2.84-1.882-4.55-1.882c-3.55 0-6.43 2.88-6.43 6.43z" fill="#00F"/></g></g></svg>