<svg width="1540" height="820" viewBox="0 0 1540 820" xmlns="http://www.w3.org/2000/svg" xmlns:xlink="http://www.w3.org/1999/xlink"><title>story13</title><defs><path id="b" d="M40 40h1335v80H40z"/><filter x="-50%" y="-50%" width="200%" height="200%" filterUnits="objectBoundingBox" id="a"><feOffset dx="6" dy="6" in="SourceAlpha" result="shadowOffsetOuter1"/><feColorMatrix values="0 0 0 0 0 0 0 0 0 0 0 0 0 0 0 0 0 0 1 0" in="shadowOffsetOuter1"/></filter></defs><g fill="none" fill-rule="evenodd"><path fill="#000" d="M0 0h1540v820H0z"/><use fill="#000" filter="url(#a)" xlink:href="#b"/><use fill="#FFF" xlink:href="#b"/><path d="M97.597 60c1.734 0 2.6.738 2.6 2.215v.545c0 2.027-1.546 3.04-4.64 3.04l-5.783.282c-1.734 9.422-2.6 17.52-2.6 24.293-.47 1.477-.95 2.215-1.443 2.215h-.87c-.99 0-1.57-.276-1.74-.826.97-10.43 2.04-18.903 3.18-25.418l-8.68 1.388c-.8 0-1.29-.826-1.44-2.478 0-2.766 2.42-4.15 7.24-4.15C86.31 60.37 91.04 60 97.6 60zm19.916 4.447c.832.223 1.248.79 1.248 1.705v.23c-1.17 17.308-2 25.962-2.49 25.962l-.26.246h-.73c-.86 0-1.45-.404-1.76-1.213.33-2.31.49-5.543.49-9.703h-.24L103.24 84.1l-.74.966v4.606c0 1.37-.503 2.344-1.51 2.918h-.493c-.937 0-1.523-.404-1.758-1.213 1.16-17.473 2.83-26.21 5.01-26.21h.49l.75.985c-1.17 5.8-1.76 10.084-1.76 12.85 7.67-1.008 11.51-2.22 11.51-3.64l1-10.194 1.75-.72zm21.62.053c.81.176 1.214.79 1.214 1.846-.258 1.992-1.06 2.988-2.41 2.988-8.835 0-13.252 1.23-13.252 3.69l-.247 2.076v1.142c5.766-1.383 9.704-2.074 11.813-2.074h.48c.81.352 1.21 1.12 1.21 2.303 0 1.69-1.12 2.54-3.37 2.54-7.39.96-11.09 2.12-11.09 3.47l-.23 2.31v.92c0 1.38.88 2.15 2.64 2.3 2.77-.3 6.23-.99 10.37-2.07h.73c.65.25.97.79.97 1.62v.69c0 1.89-4.02 3.35-12.06 4.38h-.72c-2.89 0-4.5-1.84-4.81-5.52 0-2.7.56-7.85 1.69-15.43l-.47-1.39c0-3.11 4.82-4.95 14.45-5.52l3.13-.23zm31.536-.053c5 .692 7.5 3.686 7.5 8.983 0 6.937-2.74 12.68-8.23 17.226-2.26 1.29-4.29 1.934-6.07 1.934-4.35 0-7.15-2.344-8.41-7.03l-.18-2.18v-.74c0-7.57 3.45-13.312 10.37-17.226 1.73-.644 3.4-.967 4.99-.967zM157.62 83.38c1.805 2.74 4.19 4.112 7.154 4.112 4.77 0 8.103-2.83 10-8.49l.353-2.672c0-3.984-1.963-6.328-5.89-7.03h-.544c-3.247 0-6.64 3.233-10.18 9.702-.596 1.945-.895 3.404-.895 4.377zm25.523-18.933c1.066 0 2.343 2.004 3.83 6.012 2.884 5.9 6.09 10.95 9.617 15.15 1.183-11.57 2.062-18.38 2.636-20.45l.967-.72h.72c.48 0 .722.32.722.96-1.443 16.52-2.32 25.34-2.638 26.45l-1.443.47c-2.564 0-6.89-5.45-12.97-16.35l-.966-.97-.245.72-.72 11.07v1.44l.245 1.44c-.21 1.92-.85 2.88-1.916 2.88-.984-.35-1.547-.83-1.687-1.44 1.23-17.32 2.11-25.98 2.636-25.98l1.22-.72zm23.52 0h.245c.763 0 1.4.393 1.917 1.178-1.113 8.11-1.91 15.363-2.39 21.762l13.71-2.83.475.703v1.424c0 2.156-4.97 4.125-14.906 5.906-1.77-.317-2.656-.867-2.656-1.653 1.314-17.343 2.275-26.015 2.884-26.015l.72-.475zm16.698.053l5.38 8.156 2.36 1.934c2.98-5.297 5.05-8.502 6.22-9.615h1.07l.87.966c-.12.86-3.48 6.86-10.09 18-1.66 3.13-2.88 5.93-3.65 8.41l-.63.25c-1-.47-1.51-1.19-1.51-2.16.06-1.25 1.78-5.17 5.15-11.76-4.86-5.23-7.29-9.47-7.29-12.73.91-.96 1.62-1.44 2.15-1.44zm41.98-.053c4.66 0 6.98 1.365 6.98 4.096 0 5.402-5.09 10.29-15.29 14.66-.75 0-1.12.48-1.12 1.442-.1 5.296-.63 7.945-1.58 7.945h-1.13c-.3-.07-.6-.47-.89-1.195l2.02-19.723h-.22c-.6 0-.89-.727-.89-2.18 0-2.355 1.36-3.715 4.06-4.078l8.09-.967zm-9 13.957c5.15-1.347 9.05-3.59 11.71-6.732l.44-1.46v-.474l-1.12-.246h-1.12c-5.99.328-8.98.89-8.98 1.688l-.91 7.224zm19.59-13.957h.25c.76 0 1.4.393 1.92 1.178-1.11 8.11-1.91 15.363-2.39 21.762l13.71-2.83.48.703v1.424c0 2.156-4.97 4.125-14.9 5.906-1.77-.317-2.65-.867-2.65-1.653 1.32-17.343 2.28-26.015 2.89-26.015l.72-.475zm25.4.053h.85c1.16 0 2.63 5.36 4.41 16.084 1.41 5.063 2.11 8.502 2.11 10.318-.29.96-.86 1.442-1.69 1.442-1.08 0-1.85-2.56-2.32-7.682l-.21-.228h-.21c-1.83.023-5.68 1.142-11.57 3.357-.56 3.2-1.47 4.8-2.74 4.8-.84-.32-1.26-.96-1.26-1.91 0-1.85 3.87-10.33 11.59-25.45l1.05-.72zm-.42 6.715c-1.68 3.047-3.23 6.252-4.64 9.615h1.48c1.43 0 3.26-.322 5.49-.967l-1.9-8.648h-.42zm26.77-6.715h1.04c1.3 0 2.08 1.05 2.34 3.146v.493c0 3.17-1.2 5.27-3.6 6.29l-.42-.5v-.25l1.08-4.12-.84-.48c-3.5 0-7.67 3.31-12.49 9.93-1.15 2-1.72 3.53-1.72 4.59v.24c0 2.58 1.56 3.87 4.68 3.87h.2c3 0 6.33-.8 9.97-2.41h.65c.57.25.85.82.85 1.68v.96c-3 3.07-6.52 4.6-10.58 4.6-5.52-.58-8.28-3.32-8.28-8.23v-.49c0-6.27 4.45-12.4 13.35-18.4 1.69-.65 2.97-.97 3.83-.97zm22.17 0c.81.176 1.22.79 1.22 1.846-.26 1.992-1.06 2.988-2.41 2.988-8.83 0-13.25 1.23-13.25 3.69l-.24 2.076v1.142c5.77-1.383 9.71-2.074 11.82-2.074h.48c.81.352 1.21 1.12 1.21 2.303 0 1.69-1.12 2.54-3.37 2.54-7.39.96-11.09 2.12-11.09 3.47l-.23 2.31v.92c0 1.38.88 2.15 2.64 2.3 2.76-.3 6.22-.99 10.37-2.07h.72c.64.25.97.79.97 1.62v.69c0 1.89-4.02 3.35-12.06 4.38h-.73c-2.89 0-4.5-1.84-4.82-5.52 0-2.7.57-7.85 1.69-15.43l-.47-1.39c0-3.11 4.81-4.95 14.45-5.52l3.13-.23zm35.69-.07c1.53 0 2.29.632 2.29 1.898v.475c0 1.746-1.36 2.62-4.08 2.62l-5.08.245c-1.52 8.12-2.28 15.105-2.28 20.953-.41 1.27-.83 1.9-1.26 1.9h-.77c-.88 0-1.39-.24-1.53-.72.86-8.99 1.79-16.29 2.8-21.9L368 71.1c-.716 0-1.138-.71-1.267-2.14 0-2.38 2.12-3.57 6.36-3.57 2.54-.63 6.7-.95 12.46-.95zm20.34.017c.84.223 1.25.79 1.25 1.705v.23c-1.17 17.308-2 25.962-2.49 25.962l-.26.246h-.74c-.86 0-1.45-.404-1.75-1.213.33-2.31.49-5.543.49-9.703h-.25L391.59 84.1l-.737.966v4.606c0 1.37-.504 2.344-1.512 2.918h-.49c-.94 0-1.52-.404-1.76-1.213 1.16-17.473 2.83-26.21 5.01-26.21h.5l.76.985c-1.17 5.8-1.76 10.084-1.76 12.85 7.68-1.008 11.52-2.22 11.52-3.64l1-10.194 1.76-.72zm21.62.053c.81.176 1.22.79 1.22 1.846-.25 1.992-1.06 2.988-2.4 2.988-8.83 0-13.25 1.23-13.25 3.69l-.25 2.076v1.142c5.77-1.383 9.71-2.074 11.82-2.074h.48c.81.352 1.22 1.12 1.22 2.303 0 1.69-1.12 2.54-3.37 2.54-7.39.96-11.09 2.12-11.09 3.47l-.22 2.31v.92c0 1.38.88 2.15 2.64 2.3 2.77-.3 6.23-.99 10.38-2.07h.72c.65.25.97.79.97 1.62v.69c0 1.89-4.02 3.35-12.06 4.38h-.72c-2.89 0-4.5-1.84-4.81-5.52 0-2.7.57-7.85 1.69-15.43l-.47-1.39c0-3.11 4.82-4.95 14.45-5.52l3.13-.23zm3.38 0l5.38 8.156 2.36 1.934c2.98-5.297 5.05-8.502 6.22-9.615h1.08l.86.966c-.12.86-3.48 6.86-10.09 18-1.66 3.13-2.88 5.93-3.65 8.41l-.63.25c-1.01-.47-1.51-1.19-1.51-2.16.06-1.25 1.78-5.17 5.15-11.76-4.86-5.23-7.29-9.47-7.29-12.73.9-.96 1.62-1.44 2.15-1.44zm46.11 0h1.04c1.3 0 2.08 1.05 2.34 3.146v.493c0 3.17-1.2 5.27-3.6 6.29l-.42-.5v-.25l1.07-4.12-.84-.48c-3.5 0-7.67 3.31-12.5 9.93-1.15 2-1.72 3.53-1.72 4.59v.24c0 2.58 1.56 3.87 4.68 3.87h.19c3 0 6.33-.8 9.97-2.41h.65c.56.25.84.82.84 1.68v.96c-3 3.07-6.52 4.6-10.58 4.6-5.52-.58-8.28-3.32-8.28-8.23v-.49c0-6.27 4.45-12.4 13.34-18.4 1.69-.65 2.97-.97 3.83-.97zm18.74-.053c5.01.692 7.51 3.686 7.51 8.983 0 6.937-2.74 12.68-8.23 17.226-2.26 1.29-4.28 1.934-6.06 1.934-4.35 0-7.15-2.344-8.4-7.03l-.18-2.18v-.74c0-7.57 3.46-13.312 10.37-17.226 1.74-.644 3.4-.967 5-.967zM482.67 83.38c1.803 2.74 4.19 4.112 7.152 4.112 4.77 0 8.105-2.83 10.003-8.49l.35-2.672c0-3.984-1.966-6.328-5.89-7.03h-.547c-3.246 0-6.638 3.233-10.177 9.702-.6 1.945-.9 3.404-.9 4.377zm26.893-18.933c.75.305 1.165.62 1.247.95-1.337 8.355-2.005 14.425-2.005 18.21v2.602c4.477 0 8.145-2.06 11.005-6.16 1.125-9.94 2.21-14.91 3.252-14.91h.26c1 .1 1.498.34 1.498.72-1.5 9.04-2.25 15.82-2.25 20.34v3.77c0 1.24-.504 2.11-1.51 2.6h-1.004l-.985-.95v-.48l.25-4.01c-.59 0-3.85 1.49-9.75 4.48l-1.76.47c-2-.26-3-1.13-3-2.6v-.23c1.22-16.56 2.64-24.84 4.26-24.84h.51zm19.6 0h.244c.762 0 1.4.393 1.916 1.178-1.118 8.11-1.91 15.363-2.39 21.762l13.71-2.83.47.703v1.424c0 2.156-4.968 4.125-14.906 5.906-1.77-.317-2.654-.867-2.654-1.653 1.313-17.343 2.274-26.015 2.884-26.015l.72-.475zm23.922 0h1.077c5.098 0 8.22 2.022 9.37 6.065l.21 1.933c0 8.05-5.964 14.684-17.894 19.9l-1.054.245h-.23c-.315 0-.596-.57-.842-1.705l2.127-20.865c-.86 0-1.29-.24-1.29-.72v-.493c0-2.578 1.13-3.868 3.41-3.868l5.11-.5zm-4.25 5.098c-1.276 8.297-1.915 13.875-1.915 16.734v1.21c8.942-4.47 13.412-8.67 13.412-12.62v-.23c0-2.28-.638-3.41-1.916-3.41-1.582-1.13-4.136-1.69-7.664-1.69h-1.916zm45.44-5.045h2.268c1.008.633 1.512 1.342 1.512 2.127-.27 1.887-1.11 2.83-2.515 2.83-4.044 0-7.987.393-11.83 1.178l-.493 5.203 1.25.228h1c2.978 0 6.417-.474 10.32-1.423l.755 1.423c-.375 2.836-1.547 4.254-3.515 4.254-1.22.62-4.66 1.09-10.32 1.407-.398 7.09-1.072 10.634-2.02 10.634l-1.003.23h-.248c-.42 0-.672-.31-.754-.95 0-3.85.667-10.93 2.003-21.23l-.74-.72c0-2.38 1.68-3.79 5.03-4.23 3.365-.63 6.465-.95 9.3-.95zm9.42-.123h1.655c.55 0 .826.322.826.967-1.29 10.523-1.934 17.824-1.934 21.902v2.672c-.363 1.78-1.277 2.672-2.742 2.672h-.544l-1.11-.967c.737-11.04 1.657-19.8 2.76-26.28l1.09-.966zm7.98.07c1.068 0 2.346 2.004 3.83 6.012 2.887 5.9 6.09 10.95 9.62 15.15 1.183-11.57 2.062-18.38 2.636-20.45l.97-.72h.72c.48 0 .72.32.72.96-1.44 16.52-2.32 25.34-2.63 26.45l-1.44.47c-2.56 0-6.89-5.45-12.97-16.35l-.96-.97-.24.72-.72 11.07v1.44l.25 1.44c-.21 1.92-.85 2.88-1.92 2.88-.98-.35-1.54-.83-1.69-1.44 1.23-17.32 2.11-25.98 2.64-25.98l1.21-.72zm29.287 0h1.07c5.1 0 8.22 2.022 9.37 6.065l.21 1.933c0 8.05-5.963 14.684-17.893 19.9l-1.06.245h-.23c-.32 0-.6-.57-.85-1.705l2.12-20.865c-.86 0-1.28-.24-1.28-.72v-.493c0-2.578 1.13-3.868 3.41-3.868l5.11-.5zm-4.254 5.098c-1.275 8.297-1.914 13.875-1.914 16.734v1.21c8.94-4.47 13.41-8.67 13.41-12.62v-.23c0-2.28-.636-3.41-1.914-3.41-1.58-1.13-4.135-1.69-7.663-1.69h-1.92zm49.36-5.115c1.525 0 2.287.632 2.287 1.898v.475c0 1.746-1.36 2.62-4.08 2.62l-5.08.245c-1.524 8.12-2.286 15.105-2.286 20.953-.41 1.27-.83 1.9-1.27 1.9h-.78c-.88 0-1.39-.24-1.53-.72.85-8.99 1.79-16.29 2.79-21.9l-7.63 1.2c-.72 0-1.14-.71-1.27-2.14 0-2.38 2.12-3.57 6.36-3.57 2.54-.63 6.69-.95 12.46-.95zm16.93.017c5.003.692 7.505 3.686 7.505 8.983 0 6.937-2.74 12.68-8.225 17.226-2.262 1.29-4.284 1.934-6.065 1.934-4.35 0-7.15-2.344-8.403-7.03l-.175-2.18v-.74c0-7.57 3.457-13.312 10.37-17.226 1.736-.644 3.4-.967 4.993-.967zm-13.05 18.933c1.806 2.74 4.19 4.112 7.156 4.112 4.765 0 8.1-2.83 10-8.49l.35-2.672c0-3.984-1.964-6.328-5.89-7.03h-.544c-3.248 0-6.64 3.233-10.18 9.702-.597 1.945-.896 3.404-.896 4.377zM741.45 64.5h.37c1.617.2 2.425.984 2.425 2.355v.475c0 2.367-.808 4.57-2.426 6.61h-.37c-.26-.07-.51-.463-.76-1.178l.95-3.533-.74-.48c-1.72.15-4.89 2.04-9.49 5.66v.23l12.27 2.37c1.24.98 1.86 2.63 1.86 4.95v1.4c0 3.17-2.05 5.93-6.14 8.26-1.61.63-3.16.95-4.66.95h-.39c-4.27 0-6.87-1.89-7.81-5.66V85.5c0-1.735.43-2.602 1.3-2.602.85 3 2.41 4.5 4.66 4.5 0 .307.93.46 2.79.46 2.75 0 5.42-1.41 8-4.237 0-1.87-3.97-3.06-11.91-3.55-2.86-.79-4.29-1.97-4.29-3.53 0-3.83 3.84-7.69 11.53-11.56l2.79-.47zm25.77-.07c1.523 0 2.285.632 2.285 1.898v.475c0 1.746-1.36 2.62-4.078 2.62l-5.08.245c-1.524 8.12-2.285 15.105-2.285 20.953-.41 1.27-.833 1.9-1.267 1.9h-.773c-.875 0-1.385-.24-1.53-.72.86-8.99 1.79-16.29 2.8-21.9l-7.63 1.2c-.715 0-1.136-.71-1.265-2.14 0-2.38 2.12-3.57 6.363-3.57 2.543-.63 6.697-.95 12.463-.95zm12.41.07h.844c1.16 0 2.63 5.36 4.413 16.084 1.406 5.063 2.11 8.502 2.11 10.318-.294.96-.856 1.442-1.688 1.442-1.08 0-1.86-2.56-2.32-7.682l-.22-.228h-.21c-1.83.023-5.69 1.142-11.57 3.357-.57 3.2-1.48 4.8-2.75 4.8-.85-.32-1.27-.96-1.27-1.91 0-1.85 3.86-10.33 11.58-25.45l1.05-.72zm-.422 6.715c-1.687 3.047-3.234 6.252-4.64 9.615h1.476c1.43 0 3.26-.322 5.485-.967l-1.9-8.648h-.43zM790.95 64.5l5.38 8.156 2.355 1.934c2.976-5.297 5.05-8.502 6.222-9.615h1.073l.86.966c-.116.86-3.48 6.86-10.09 18-1.663 3.13-2.882 5.93-3.655 8.41l-.633.25c-1.01-.47-1.513-1.19-1.513-2.16.06-1.25 1.77-5.17 5.15-11.76-4.87-5.23-7.3-9.47-7.3-12.73.9-.96 1.61-1.44 2.14-1.44zm30.71 0c.784 0 1.177 2.72 1.177 8.156l1.582 10.336h.38c0-.597 1.57-3.803 4.73-9.615.49-3.832 1.41-5.748 2.76-5.748h.39c.79 0 1.45 2.95 1.96 8.87.88 4.04 1.53 6.44 1.97 7.2.42-2.04 2.52-8.05 6.31-18.02.55-.64 1.08-.95 1.58-.95.7 0 1.16.31 1.37.95 0 .82-1.97 6.18-5.91 16.08-.66 2.34-1.25 5.55-1.78 9.61-.42.79-.95 1.19-1.58 1.19-1.2 0-2.11-2.72-2.74-8.16-1.29-5.31-2.08-8.19-2.37-8.65l-3.94 7.68c-.66 1.5-1.25 4.06-1.78 7.68-.35.59-.88.99-1.57 1.2-1.1 0-2.02-4.16-2.76-12.48-1.06-5.88-1.58-10.61-1.58-14.17 0-.48.59-.88 1.77-1.19zm35.068 0h.843c1.16 0 2.63 5.36 4.41 16.084 1.41 5.063 2.11 8.502 2.11 10.318-.29.96-.86 1.442-1.69 1.442-1.08 0-1.85-2.56-2.32-7.682l-.21-.228h-.21c-1.83.023-5.68 1.142-11.56 3.357-.56 3.2-1.47 4.8-2.74 4.8-.84-.32-1.26-.96-1.26-1.91 0-1.85 3.86-10.33 11.59-25.45l1.06-.72zm-.422 6.715c-1.688 3.047-3.235 6.252-4.64 9.615h1.476c1.43 0 3.256-.322 5.483-.967l-1.898-8.648h-.422zM880.79 64.5h.37c1.616.2 2.425.984 2.425 2.355v.475c0 2.367-.81 4.57-2.426 6.61h-.37c-.26-.07-.51-.463-.76-1.178l.95-3.533-.74-.48c-1.72.15-4.89 2.04-9.49 5.66v.23l12.27 2.37c1.24.98 1.86 2.63 1.86 4.95v1.4c0 3.17-2.05 5.93-6.14 8.26-1.61.63-3.16.95-4.66.95h-.39c-4.27 0-6.87-1.89-7.81-5.66V85.5c0-1.735.43-2.602 1.3-2.602.85 3 2.41 4.5 4.66 4.5 0 .307.93.46 2.79.46 2.75 0 5.42-1.41 7.99-4.237 0-1.87-3.97-3.06-11.9-3.55-2.86-.79-4.29-1.97-4.29-3.53 0-3.83 3.84-7.69 11.53-11.56l2.79-.47zm22.975 0c.785 0 1.177 2.72 1.177 8.156l1.582 10.336h.387c0-.597 1.58-3.803 4.73-9.615.5-3.832 1.42-5.748 2.76-5.748h.39c.8 0 1.46 2.95 1.97 8.87.88 4.04 1.54 6.44 1.97 7.2.42-2.04 2.53-8.05 6.31-18.02.55-.64 1.08-.95 1.58-.95.71 0 1.16.31 1.37.95 0 .82-1.96 6.18-5.9 16.08-.65 2.34-1.24 5.55-1.77 9.61-.42.79-.95 1.19-1.58 1.19-1.19 0-2.11-2.72-2.74-8.16-1.28-5.31-2.08-8.19-2.37-8.65l-3.93 7.68c-.65 1.5-1.25 4.06-1.77 7.68-.35.59-.87.99-1.56 1.2-1.1 0-2.02-4.16-2.76-12.48-1.05-5.88-1.58-10.61-1.58-14.17 0-.48.59-.88 1.78-1.19zm42.996-.053c.84.223 1.25.79 1.25 1.705v.23c-1.17 17.308-2 25.962-2.49 25.962l-.26.246h-.74c-.86 0-1.45-.404-1.75-1.213.33-2.31.49-5.543.49-9.703H943L932.486 84.1l-.738.966v4.606c0 1.37-.505 2.344-1.513 2.918h-.492c-.937 0-1.523-.404-1.758-1.213 1.16-17.473 2.83-26.21 5.01-26.21h.492l.755.985c-1.172 5.8-1.758 10.084-1.758 12.85 7.676-1.008 11.514-2.22 11.514-3.64L945 65.168l1.76-.72zm21.63.053c.81.176 1.22.79 1.22 1.846-.26 1.992-1.06 2.988-2.41 2.988-8.83 0-13.25 1.23-13.25 3.69l-.25 2.076v1.142c5.77-1.383 9.7-2.074 11.81-2.074h.48c.81.352 1.22 1.12 1.22 2.303 0 1.69-1.12 2.54-3.37 2.54-7.39.96-11.09 2.12-11.09 3.47l-.23 2.31v.92c0 1.38.88 2.15 2.64 2.3 2.77-.3 6.23-.99 10.37-2.07h.72c.65.25.97.79.97 1.62v.69c0 1.89-4.02 3.35-12.06 4.38h-.72c-2.89 0-4.5-1.84-4.81-5.52 0-2.7.57-7.85 1.69-15.43l-.47-1.39c0-3.11 4.82-4.95 14.45-5.52l3.13-.23zm14.31-.053h2.43c3.72 0 5.57 1.295 5.57 3.885v.246c0 4.535-3.88 8.66-11.63 12.375v.23c3.88 3.56 7.12 6.233 9.71 8.014v.72c0 1.255-.4 2.063-1.21 2.427h-.96l-13.32-9.457-.24 4.85v3.64c-.41.81-1.05 1.213-1.93 1.213-.64 0-1.13-.322-1.45-.967v-1.46l2.18-18.93c-.64 0-.97-.48-.97-1.442 0-2.91 2.42-4.61 7.26-5.09l4.61-.24zm-8.47 13.096h.25c8.39-2.156 12.59-4.5 12.59-7.03v-.247c0-.446-.81-.768-2.42-.967-2.68 0-5.91.56-9.68 1.7l-.72 6.54zm35.26-13.043c.81.176 1.22.79 1.22 1.846-.25 1.992-1.06 2.988-2.41 2.988-8.83 0-13.25 1.23-13.25 3.69l-.25 2.076v1.142c5.77-1.383 9.71-2.074 11.82-2.074h.48c.81.352 1.22 1.12 1.22 2.303 0 1.69-1.12 2.54-3.37 2.54-7.4.96-11.09 2.12-11.09 3.47l-.23 2.31v.92c0 1.38.88 2.15 2.63 2.3 2.77-.3 6.23-.99 10.37-2.07h.72c.65.25.97.79.97 1.62v.69c0 1.89-4.02 3.35-12.06 4.38h-.72c-2.89 0-4.5-1.84-4.81-5.52 0-2.7.57-7.85 1.69-15.43l-.47-1.39c0-3.11 4.82-4.95 14.45-5.52l3.13-.23zm35.69-.07c1.53 0 2.29.632 2.29 1.898v.475c0 1.746-1.36 2.62-4.08 2.62l-5.08.245c-1.52 8.12-2.28 15.105-2.28 20.953-.41 1.27-.83 1.9-1.26 1.9h-.77c-.88 0-1.39-.24-1.53-.72.86-8.99 1.79-16.29 2.8-21.9l-7.62 1.2c-.71 0-1.14-.71-1.26-2.14 0-2.38 2.12-3.57 6.36-3.57 2.55-.63 6.7-.95 12.47-.95zm20.34.017c.84.223 1.25.79 1.25 1.705v.23c-1.17 17.308-2 25.962-2.49 25.962l-.26.246h-.74c-.86 0-1.45-.404-1.75-1.213.33-2.31.49-5.543.49-9.703h-.25l-10.52 2.426-.74.966v4.606c0 1.37-.5 2.344-1.51 2.918h-.49c-.93 0-1.52-.404-1.75-1.213 1.16-17.473 2.83-26.21 5.01-26.21h.49l.76.985c-1.17 5.8-1.75 10.084-1.75 12.85 7.68-1.008 11.52-2.22 11.52-3.64l1-10.194 1.76-.72zm21.63.053c.81.176 1.21.79 1.21 1.846-.26 1.992-1.06 2.988-2.41 2.988-8.83 0-13.25 1.23-13.25 3.69l-.24 2.076v1.142c5.77-1.383 9.71-2.074 11.81-2.074h.48c.81.352 1.21 1.12 1.21 2.303 0 1.69-1.12 2.54-3.37 2.54-7.39.96-11.09 2.12-11.09 3.47l-.23 2.31v.92c0 1.38.88 2.15 2.64 2.3 2.77-.3 6.23-.99 10.37-2.07h.72c.65.25.97.79.97 1.62v.69c0 1.89-4.02 3.35-12.06 4.38h-.72c-2.89 0-4.5-1.84-4.81-5.52 0-2.7.57-7.85 1.69-15.43l-.47-1.39c0-3.11 4.82-4.95 14.45-5.52l3.13-.23zm27.02 0h.85c1.16 0 2.63 5.36 4.41 16.084 1.41 5.063 2.11 8.502 2.11 10.318-.29.96-.85 1.442-1.69 1.442-1.07 0-1.85-2.56-2.32-7.682l-.21-.228h-.21c-1.83.023-5.68 1.142-11.56 3.357-.56 3.2-1.47 4.8-2.74 4.8-.84-.32-1.26-.96-1.26-1.91 0-1.85 3.86-10.33 11.59-25.45l1.06-.72zm-.42 6.715c-1.68 3.047-3.23 6.252-4.64 9.615h1.48c1.43 0 3.26-.322 5.49-.967l-1.89-8.648h-.42zm13.45-6.768c1.07 0 2.35 2.004 3.83 6.012 2.89 5.9 6.09 10.95 9.62 15.15 1.19-11.57 2.07-18.38 2.64-20.45l.97-.72h.72c.48 0 .72.32.72.96-1.44 16.52-2.32 25.34-2.63 26.45l-1.44.47c-2.56 0-6.89-5.45-12.97-16.35l-.96-.97-.25.72-.72 11.07v1.44l.25 1.44c-.21 1.92-.85 2.88-1.92 2.88-.98-.35-1.54-.83-1.69-1.44 1.23-17.32 2.11-25.98 2.64-25.98l1.21-.72zm25.56-.07h1.65c.55 0 .83.322.83.967-1.29 10.523-1.93 17.824-1.93 21.902v2.672c-.36 1.78-1.28 2.672-2.74 2.672h-.55l-1.11-.967c.74-11.04 1.66-19.8 2.76-26.28l1.09-.966zm15.05.07h.46c.75.41 1.13 1.05 1.13 1.916v.492c0 5.204.46 11.297 1.37 18.282h.23c5.02-13.15 7.97-19.723 8.86-19.723h.69c.67 0 1.73 4.57 3.19 13.71 1.36 4.69 2.04 8.614 2.04 11.778-.44 1.125-1.12 1.688-2.04 1.688-.61 0-1.44-3.932-2.49-11.795l-1.83-7.682c-1.3 2.086-3.65 7.535-7.04 16.348-.97 1-1.8 1.56-2.49 1.69-1.97 0-2.95-2.65-2.95-7.94l-1.12-10.09h-.23l-6.82 15.38c-.41 2.57-.79 3.85-1.14 3.85h-.89l-.91-.95v-1.21c0-2.15 1.9-6.8 5.68-13.94 2.7-7.5 4.44-11.35 5.22-11.55l1.14-.24zm30.59.053h.85c1.16 0 2.63 5.36 4.41 16.084 1.41 5.063 2.11 8.502 2.11 10.318-.29.96-.86 1.442-1.69 1.442-1.08 0-1.85-2.56-2.32-7.682l-.21-.228h-.21c-1.83.023-5.68 1.142-11.57 3.357-.56 3.2-1.47 4.8-2.74 4.8-.84-.32-1.27-.96-1.27-1.91 0-1.85 3.86-10.33 11.59-25.45l1.05-.72zm-.42 6.715c-1.69 3.047-3.23 6.252-4.64 9.615h1.48c1.43 0 3.26-.322 5.49-.967l-1.9-8.648h-.42zm13.2-6.768h.25c.76 0 1.4.393 1.92 1.178-1.11 8.11-1.91 15.363-2.39 21.762l13.71-2.83.48.703v1.424c0 2.156-4.97 4.125-14.9 5.906-1.77-.317-2.65-.867-2.65-1.653 1.32-17.343 2.28-26.015 2.89-26.015l.72-.475zm29.45.053h.37c1.62.2 2.43.984 2.43 2.355v.475c0 2.367-.81 4.57-2.42 6.61h-.37c-.25-.07-.51-.463-.75-1.178l.95-3.533-.74-.48c-1.72.15-4.89 2.04-9.49 5.66v.23l12.27 2.37c1.24.98 1.86 2.63 1.86 4.95v1.4c0 3.17-2.04 5.93-6.13 8.26-1.61.63-3.16.95-4.66.95h-.39c-4.26 0-6.86-1.89-7.8-5.66V85.5c0-1.735.44-2.602 1.3-2.602.86 3 2.41 4.5 4.66 4.5 0 .307.93.46 2.8.46 2.75 0 5.42-1.41 8-4.237 0-1.87-3.97-3.06-11.9-3.55-2.86-.79-4.29-1.97-4.29-3.53 0-3.83 3.84-7.69 11.53-11.56l2.79-.47zm24.8-.053h.25c.76 0 1.4.393 1.92 1.178-1.11 8.11-1.91 15.363-2.39 21.762l13.71-2.83.47.703v1.424c0 2.156-4.97 4.125-14.9 5.906-1.77-.317-2.65-.867-2.65-1.653 1.32-17.343 2.28-26.015 2.89-26.015l.72-.475zm20.2-.07h1.65c.56 0 .83.322.83.967-1.29 10.523-1.93 17.824-1.93 21.902v2.672c-.36 1.78-1.27 2.672-2.74 2.672h-.54l-1.11-.967c.74-11.04 1.66-19.8 2.76-26.28l1.09-.966zm23.56.07h.71c.64.258.95.82.95 1.688 0 1.172-2.45 6.222-7.35 15.152-2.4 6.692-3.9 10.3-4.5 10.828l-2.35.475c-1.03 0-1.74-1.846-2.14-5.537-3.15-11.12-4.73-17.936-4.73-20.444.26-.73.74-1.29 1.43-1.69h.95c.86 0 1.72 3.37 2.6 10.1l2.85 10.58h.23c1.64-4.34 5.19-11.23 10.65-20.69l.72-.48zm20.45.053c.81.176 1.22.79 1.22 1.846-.26 1.992-1.06 2.988-2.41 2.988-8.83 0-13.25 1.23-13.25 3.69l-.24 2.076v1.142c5.76-1.383 9.7-2.074 11.81-2.074h.477c.806.352 1.21 1.12 1.21 2.303 0 1.69-1.126 2.54-3.376 2.54-7.4.96-11.095 2.12-11.095 3.47l-.23 2.31v.92c0 1.38.877 2.15 2.635 2.3 2.76-.3 6.22-.99 10.37-2.07h.72c.64.25.96.79.96 1.62v.69c0 1.89-4.02 3.35-12.06 4.38h-.72c-2.89 0-4.5-1.84-4.81-5.52 0-2.7.56-7.85 1.684-15.43l-.474-1.39c0-3.11 4.818-4.95 14.45-5.52l3.13-.23zm10.6-.053h1.07c5.1 0 8.22 2.022 9.37 6.065l.21 1.933c0 8.05-5.96 14.684-17.89 19.9l-1.05.245h-.23c-.32 0-.6-.57-.84-1.705L1333 70.02c-.86 0-1.286-.24-1.286-.72v-.493c0-2.578 1.14-3.868 3.41-3.868l5.11-.5zm-4.25 5.098c-1.28 8.297-1.91 13.875-1.91 16.734v1.21c8.94-4.47 13.42-8.67 13.42-12.62v-.23c0-2.28-.64-3.41-1.92-3.41-1.58-1.13-4.14-1.69-7.66-1.69H1336zm18.14 17.05c1.57 0 2.55.956 2.94 2.866 0 1.91-1.37 2.96-4.11 3.13-1.37-.51-2.06-1.38-2.06-2.6v-.26c.54-2.08 1.62-3.13 3.24-3.13z" fill="#000"/><path d="M44.587 764.77c.184-.336.402-.724.657-1.175 1.496-2.643 3.1-4.8 6.55-8.807 1.342-1.56 3.4-4.15 4.573-5.756 1.172-1.607 2.3-2.927 2.502-2.934.2-.007.5.71.67 1.592.17.882.54 1.673.83 1.756.58.17.78 1.537.52 3.697-.14 1.15-.01 1.514.61 1.796.74.33.74.44.03 2.06-.42.93-.88 2-1.04 2.36-.2.45-.07.72.41.86.62.19.62.42-.04 2.42l-.7 2.12h-15.6zm15.724 0l.95-.598c1.95-1.233 3.76-3.928 4.68-6.958 1.11-3.648.77-6.192-1.27-9.315-.8-1.23-1.34-2.32-1.21-2.44.32-.28 1.68.58 3.26 2.05 1.09 1.01 1.3 1.11 1.62.7.56-.73.92-.44 2.29 1.85 1.12 1.87 1.34 2.07 1.78 1.64.73-.7 1.04-.51 2.16 1.29.55.87 1.11 1.62 1.25 1.66.5.14.35-1.98-.29-4.05-1.33-4.32-4.28-7.37-8.59-8.9-2.81-1-3.32-1.59-1.19-1.38.71.07 1.42.01 1.59-.14.17-.15.76-.3 1.32-.34 1.53-.12.62-.89-1.9-1.62-2.61-.76-4.8-.49-6.78.84l-1.49 1-.69-1.19c-1.47-2.53-4.72-4.12-7.6-3.73-1.26.17-1.36.25-.74.55.4.19.84.63.99.96.15.33.8.76 1.44.95.7.2 1.37.69 1.65 1.19.47.84.45.85-1.4.57-2.21-.34-4.03-.19-6.13.49l-1.54.5-1.42-2.63c-.83-1.54-2.21-3.39-3.33-4.44-1.74-1.64-2.24-1.9-5.62-3.03-2.56-.85-3.64-1.34-3.47-1.58.38-.54 2.75-.85 5.1-.65 2.2.18 2.46.07 1.97-.81-.52-.95.35-.92 3.66.12 3.21 1 3.69 1 3.12-.02-.44-.8.84-.78 3.56.04 1.53.46 2.34.57 2.33.3-.01-.23-1.04-1.2-2.29-2.17-2.09-1.63-2.63-1.88-6.62-3.04-4.14-1.22-4.46-1.26-6.91-.88-1.41.22-3.52.83-4.68 1.35-1.9.86-2.78.88-2.54.07.05-.17.67-.68 1.38-1.14.7-.47 1.32-1.14 1.36-1.49.09-.75 1.646-2.04 2.26-1.88.23.06.56-.02.73-.17.21-.19-.013-.26-.66-.21-2.2.17-4.093.7-5.66 1.6-2.6 1.49-3.55 2.66-4.29 5.26l-.643 2.27-2.3-.67c-2.8-.82-4.5-.66-7.27.68-1.766.85-4.88 3.62-4.616 4.1.05.08.72-.2 1.5-.62 1.04-.56 1.61-.65 2.13-.35.493.29 1.08.224 1.97-.23.78-.4 1.69-.54 2.38-.37.62.15 1.55.27 2.07.27.7-.007.3.3-1.57 1.19-6.28 3-9.38 9.62-8 17.105.783 4.3 1.433 4.87 1.73 1.52.1-1.12.41-2.413.688-2.88.43-.72.627-.773 1.34-.36.8.47.84.44.936-.713.05-.66.3-2.218.54-3.45l.43-2.25.98.53c.98.53.98.53 1.72-1.255 1.02-2.46 2.39-4.056 3.26-3.8.49.142 1.197-.3 2.42-1.537.95-.956 1.936-1.677 2.19-1.6 1.03.3 1.435 6.13 1.136 16.46-.237 8.186-.118 12.24.43 14.667.09.38.142.74.164 1.03H0v162.42h1539.984v-174.4h-28.574v-19.55h-28.574V709.1h-16.543v33.09h-10.527v-10.52h-24.062v-7.52h-19.55V703.1h-27.07v49.63h-9.024v-25.56h-40.605v9.03h-9.024s-1-45.11-43.65-45.11c-42.64 0-46.58 46.62-46.58 46.62v10.53h-36.09v24.06h-21.05v-24.07h-30.07v28.58h-16.54v-19.55h-19.55v28.58h-15.04v-21.06h-42.11v-52.64h-19.55v42.11h-19.55V737.7h-24.2s-.98-42.11-45.91-42.11-47.19 42.11-47.19 42.11h-28.58v33.085H849.7v-34.59h-31.582V698.6h-31.58v-54.14h-31.583v-30.08H714.35v30.08h-31.582v94.744H622.61v-34.59h-42.108S577.778 611 486.552 611c-91.225 0-97.044 93.614-97.044 93.614h-40.605v28.574H320.33v-21.054h-36.095v21.054h-19.55v-1.504s-4.104-45.116-47.79-45.116c-43.685 0-45.452 45.116-45.452 45.116v1.504h-18.046l-12.03-13.535h-42.11l-15.04 16.543v28.574H60.312zm-19.24 0l.11-.202c1.41-2.647 2.58-4.063 8.71-10.6 5.25-5.59 7.78-8.79 7.45-9.387-.09-.17-1.01-.26-2.03-.2-1.04.06-2.21-.09-2.65-.35-.6-.35-1.32-.26-3.06.39-1.73.64-2.36.72-2.62.34-.25-.37-.53-.43-1.04-.21-.7.3-.96 1.23-1.23 4.37-.13 1.52-.78 1.39-1.1-.22-.12-.65-.51-1.26-.85-1.36-.34-.1-.76-.43-.93-.74-.26-.45-.71-.31-2.36.71-2.19 1.36-2.33 1.14-.84-1.36 1.09-1.82 1.11-2.89.08-5.01-.89-1.83-1.36-2.23-1.61-1.39-.25.84-.77.44-2.31-1.78-1.58-2.28-2.87-3.28-3.51-2.71-.3.27-.85 0-2.34-1.16-1.07-.83-2.07-1.48-2.23-1.43-.16.04-.06 1.61.22 3.49.28 1.88.66 6.89.84 11.15.34 8.08 1.05 13.56 2.14 16.57.18.49.32.86.5 1.15h10.7z" fill="#F6A623"/><path d="M421.356 465.745L129.72 701.578l214.527-260.436C313.862 423.872 295 399.77 295 373.102 295 320.577 368.166 278 458.42 278c90.256 0 163.422 42.578 163.422 95.1 0 52.523-73.166 95.1-163.42 95.1-12.75 0-25.157-.848-37.066-2.455z" stroke="#000" stroke-width="4" fill="#FFF"/><path d="M366.75 322.03c1.542 0 2.313.657 2.313 1.97v.484c0 1.802-1.375 2.704-4.125 2.704l-5.14.25c-1.543 8.375-2.314 15.572-2.314 21.593-.416 1.32-.843 1.97-1.28 1.97h-.782c-.886 0-1.4-.24-1.547-.73.865-9.27 1.807-16.8 2.828-22.59l-7.72 1.24c-.717 0-1.144-.73-1.28-2.2 0-2.46 2.146-3.68 6.438-3.68 2.58-.66 6.78-.98 12.61-.98zm17.703 3.954c.74.198 1.11.703 1.11 1.516v.203c-1.042 15.386-1.782 23.078-2.22 23.078l-.234.22h-.66c-.77 0-1.29-.36-1.56-1.07.29-2.05.43-4.92.43-8.62h-.22l-9.34 2.16-.66.86v4.1c0 1.22-.45 2.09-1.35 2.6h-.44c-.83 0-1.36-.36-1.56-1.07 1.03-15.53 2.51-23.3 4.45-23.3h.43l.67.88c-1.04 5.16-1.56 8.97-1.56 11.43 6.82-.9 10.23-1.97 10.23-3.23l.89-9.06 1.56-.64zm19.22.047c.718.16 1.077.71 1.077 1.65-.23 1.77-.943 2.66-2.14 2.66-7.855 0-11.782 1.1-11.782 3.28l-.22 1.85v1.02c5.126-1.23 8.626-1.84 10.5-1.84h.423c.72.32 1.08 1 1.08 2.05 0 1.5-1 2.25-3 2.25-6.57.86-9.86 1.88-9.86 3.08l-.2 2.05v.81c0 1.23.78 1.91 2.35 2.05 2.46-.27 5.53-.88 9.22-1.84h.64c.58.22.86.7.86 1.44v.61c0 1.68-3.57 2.97-10.72 3.89h-.64c-2.57 0-4-1.63-4.28-4.9 0-2.41.5-6.98 1.5-13.72l-.42-1.23c0-2.77 4.28-4.41 12.85-4.91l2.78-.2zm12.718-.04h2.16c3.3 0 4.96 1.15 4.96 3.46v.22c0 4.04-3.44 7.7-10.34 11v.21c3.45 3.17 6.33 5.54 8.63 7.13v.64c0 1.12-.36 1.84-1.07 2.16h-.86l-11.85-8.41-.22 4.32v3.24c-.36.72-.93 1.08-1.71 1.08-.57 0-1-.28-1.29-.86v-1.29l1.94-16.83c-.57 0-.86-.42-.86-1.28 0-2.59 2.15-4.1 6.45-4.53l4.09-.22zm-7.53 11.64h.22c7.46-1.91 11.19-4 11.19-6.25v-.22c0-.39-.72-.68-2.15-.86-2.38 0-5.25.51-8.61 1.52l-.64 5.81zm31.35-11.59c.72.16 1.08.71 1.08 1.64-.23 1.77-.94 2.66-2.14 2.66-7.85 0-11.78 1.1-11.78 3.28l-.22 1.85v1.02c5.13-1.23 8.63-1.84 10.5-1.84h.43c.72.32 1.08 1 1.08 2.05 0 1.5-1 2.25-3 2.25-6.57.86-9.86 1.88-9.86 3.08l-.2 2.05v.81c0 1.23.78 1.91 2.35 2.05 2.46-.27 5.53-.88 9.22-1.84h.64c.57.22.86.7.86 1.44v.61c0 1.68-3.57 2.97-10.72 3.89h-.64c-2.57 0-4-1.63-4.28-4.9 0-2.4.5-6.98 1.5-13.72l-.42-1.23c0-2.77 4.28-4.4 12.85-4.9l2.78-.2zm7.36-3.98c1.52.49 2.28 1.16 2.28 2-.32 1.33-2.31 4.23-5.98 8.72h-1.43l-1.12-.89v-.67l4.28-6.92c.3-1.49.96-2.23 1.99-2.23zm16.25 3.99h.33c1.44.18 2.16.88 2.16 2.1v.42c0 2.11-.72 4.07-2.15 5.88h-.32c-.23-.06-.45-.41-.67-1.04l.85-3.14-.65-.42c-1.53.14-4.34 1.81-8.44 5.03v.2l10.91 2.11c1.11.88 1.66 2.35 1.66 4.41v1.25c0 2.83-1.82 5.27-5.45 7.35-1.42.56-2.8.85-4.14.85h-.34c-3.79 0-6.1-1.67-6.93-5.03v-1.26c0-1.54.39-2.31 1.16-2.31.76 2.67 2.14 4 4.14 4 0 .27.83.41 2.49.41 2.45 0 4.82-1.26 7.11-3.77 0-1.66-3.53-2.71-10.58-3.15-2.54-.7-3.81-1.75-3.81-3.14 0-3.4 3.42-6.83 10.25-10.28l2.49-.42zm30.47-.04h2.16c3.31 0 4.96 1.15 4.96 3.46v.22c0 4.03-3.44 7.7-10.34 11v.21c3.45 3.17 6.33 5.54 8.63 7.13v.64c0 1.12-.36 1.83-1.08 2.16h-.86l-11.84-8.4-.21 4.31v3.24c-.36.72-.94 1.08-1.72 1.08-.57 0-1-.29-1.29-.86v-1.3l1.94-16.83c-.57 0-.86-.43-.86-1.28 0-2.59 2.15-4.11 6.45-4.53l4.1-.22zm-7.53 11.64h.22c7.46-1.91 11.19-4 11.19-6.25v-.21c0-.4-.72-.68-2.15-.86-2.38 0-5.25.51-8.61 1.52l-.64 5.82zm28.3-11.64c4.45.62 6.67 3.28 6.67 7.99 0 6.17-2.44 11.27-7.31 15.31-2.01 1.15-3.8 1.72-5.39 1.72-3.86 0-6.35-2.08-7.47-6.25l-.15-1.94v-.65c0-6.73 3.08-11.83 9.22-15.31 1.54-.57 3.02-.86 4.44-.86zm-11.59 16.83c1.61 2.44 3.73 3.66 6.36 3.66 4.24 0 7.21-2.52 8.89-7.55l.32-2.37c0-3.54-1.74-5.62-5.23-6.25h-.48c-2.88 0-5.9 2.88-9.04 8.63-.53 1.73-.79 3.03-.79 3.89zM536.39 326c4.45.616 6.673 3.277 6.673 7.986 0 6.163-2.44 11.27-7.315 15.31-2.01 1.145-3.807 1.72-5.39 1.72-3.865 0-6.354-2.085-7.47-6.25l-.155-1.94v-.656c0-6.73 3.07-11.835 9.216-15.314 1.54-.573 3.02-.86 4.44-.86zm-11.593 16.83c1.606 2.437 3.726 3.656 6.36 3.656 4.24 0 7.205-2.52 8.89-7.55l.315-2.375c0-3.54-1.743-5.62-5.233-6.25h-.49c-2.89 0-5.9 2.88-9.05 8.63-.53 1.73-.8 3.03-.8 3.89zm28.97-16.83h.407c.665.366 1 .934 1 1.705v.44c0 4.624.404 10.04 1.22 16.25h.2c4.46-11.69 7.083-17.53 7.875-17.53h.61c.59 0 1.53 4.06 2.82 12.185 1.21 4.165 1.81 7.654 1.81 10.47-.4 1-1 1.5-1.82 1.5-.54 0-1.28-3.498-2.22-10.487l-1.63-6.83c-1.16 1.856-3.24 6.7-6.27 14.533-.87.883-1.61 1.383-2.22 1.5-1.75 0-2.63-2.356-2.63-7.065l-1-8.97h-.21l-6.06 13.67c-.37 2.29-.71 3.43-1.02 3.43h-.8l-.81-.84v-1.08c0-1.91 1.68-6.04 5.05-12.39 2.4-6.66 3.94-10.09 4.64-10.26l1.02-.22zm-162.05 42.044c.7 0 1.048 2.42 1.048 7.25l1.408 9.19h.347c0-.53 1.4-3.38 4.204-8.546.437-3.406 1.254-5.11 2.45-5.11h.347c.71 0 1.3 2.63 1.75 7.89.78 3.595 1.37 5.73 1.75 6.407.38-1.814 2.25-7.153 5.61-16.017.49-.564.96-.845 1.41-.845.63 0 1.03.28 1.22.845 0 .73-1.75 5.496-5.25 14.3-.58 2.083-1.11 4.93-1.58 8.547-.37.71-.84 1.062-1.4 1.062-1.06 0-1.87-2.42-2.43-7.25-1.14-4.72-1.85-7.28-2.11-7.69l-3.5 6.83c-.58 1.332-1.11 3.61-1.57 6.827-.31.52-.77.874-1.39 1.06-.98 0-1.79-3.697-2.45-11.092-.94-5.23-1.41-9.426-1.41-12.592 0-.424.53-.78 1.58-1.06zm26.548-.106h1.47c.49 0 .735.286.735.86-1.147 9.353-1.72 15.843-1.72 19.468v2.377c-.323 1.584-1.135 2.376-2.437 2.376h-.484l-.99-.86c.65-9.81 1.47-17.6 2.45-23.36l.97-.86zm21.018.047c1.357 0 2.03.56 2.03 1.685v.42c0 1.55-1.204 2.33-3.62 2.33l-4.517.22c-1.354 7.214-2.03 13.422-2.03 18.62-.366 1.126-.74 1.69-1.126 1.69h-.688c-.78 0-1.235-.215-1.36-.64.76-7.99 1.59-14.48 2.485-19.47l-6.783 1.062c-.634 0-1.01-.633-1.124-1.904 0-2.116 1.89-3.17 5.66-3.17 2.26-.566 5.953-.847 11.078-.847zm18.08.013c.74.197 1.11.702 1.11 1.515v.204c-1.042 15.387-1.78 23.08-2.22 23.08L456 393h-.656c-.77 0-1.292-.36-1.563-1.078.3-2.052.44-4.927.44-8.625H454l-9.344 2.156-.656.86v4.093c0 1.22-.448 2.084-1.344 2.594h-.437c-.84 0-1.36-.36-1.57-1.078 1.03-15.53 2.51-23.297 4.45-23.297h.43l.67.875c-1.05 5.156-1.57 8.964-1.57 11.422 6.82-.896 10.23-1.974 10.23-3.235l.89-9.062 1.56-.64zm33.14-.016c1.356 0 2.03.56 2.03 1.69v.422c0 1.55-1.21 2.328-3.622 2.328l-4.51.22c-1.35 7.215-2.03 13.423-2.03 18.62-.36 1.127-.74 1.69-1.12 1.69h-.69c-.78 0-1.23-.214-1.35-.64.76-7.99 1.59-14.48 2.48-19.47l-6.78 1.063c-.63 0-1.01-.634-1.12-1.905 0-2.112 1.89-3.17 5.66-3.17 2.26-.562 5.96-.843 11.08-.843zm18.08.017c.74.2 1.11.7 1.11 1.51v.2c-1.043 15.38-1.78 23.08-2.22 23.08l-.234.22h-.66c-.77 0-1.29-.36-1.56-1.08.29-2.05.43-4.93.43-8.63h-.22l-9.34 2.15-.66.86v4.09c0 1.22-.45 2.09-1.35 2.6h-.44c-.84 0-1.36-.36-1.56-1.08 1.03-15.53 2.51-23.3 4.45-23.3h.43l.67.87c-1.04 5.15-1.56 8.96-1.56 11.42 6.82-.9 10.23-1.98 10.23-3.24l.89-9.06 1.56-.64zm19.218.05c.72.15 1.08.7 1.08 1.64-.23 1.77-.94 2.65-2.14 2.65-7.85 0-11.78 1.09-11.78 3.28l-.22 1.84v1.01c5.13-1.23 8.63-1.85 10.5-1.85h.42c.72.31 1.08.99 1.08 2.05 0 1.5-1 2.25-3 2.25-6.57.85-9.86 1.88-9.86 3.08l-.2 2.04v.81c0 1.23.78 1.91 2.35 2.04 2.46-.27 5.53-.89 9.22-1.85h.64c.58.22.86.69.86 1.43v.61c0 1.68-3.57 2.97-10.72 3.89h-.64c-2.57 0-4-1.63-4.28-4.91 0-2.4.5-6.98 1.5-13.72l-.42-1.23c0-2.77 4.28-4.41 12.85-4.91l2.78-.2zm-135.77 42h.75c1.03 0 2.34 4.76 3.92 14.29 1.25 4.5 1.88 7.56 1.88 9.17-.26.85-.76 1.28-1.5 1.28-.96 0-1.64-2.28-2.06-6.83l-.18-.21h-.19c-1.62.02-5.05 1.01-10.28 2.98-.5 2.84-1.31 4.26-2.44 4.26-.75-.29-1.12-.86-1.12-1.71 0-1.65 3.43-9.19 10.3-22.63l.94-.64zm-.37 5.97c-1.5 2.7-2.87 5.55-4.12 8.54h1.31c1.27 0 2.9-.29 4.88-.86l-1.69-7.69h-.37zm11.95-6.02c.95 0 2.09 1.78 3.41 5.34 2.56 5.25 5.41 9.74 8.55 13.47 1.05-10.28 1.84-16.34 2.35-18.18l.86-.64h.64c.43 0 .64.28.64.86-1.28 14.68-2.06 22.52-2.34 23.51l-1.28.42c-2.28 0-6.12-4.84-11.53-14.53l-.86-.86-.22.64-.64 9.84v1.28l.22 1.28c-.19 1.71-.75 2.56-1.7 2.56-.87-.32-1.37-.74-1.5-1.28 1.1-15.4 1.88-23.1 2.35-23.1l1.07-.64zm22.72-.06h1.47c.49 0 .74.28.74.86-1.14 9.35-1.72 15.84-1.72 19.47v2.37c-.32 1.58-1.13 2.37-2.43 2.37h-.48l-.98-.86c.66-9.82 1.48-17.6 2.46-23.36l.97-.86zm13.37.06h.41c.67.36 1 .93 1 1.7v.43c0 4.62.41 10.04 1.22 16.25h.2c4.46-11.69 7.09-17.53 7.88-17.53h.61c.6 0 1.54 4.06 2.83 12.18 1.21 4.17 1.82 7.65 1.82 10.47-.39 1-1 1.5-1.81 1.5-.54 0-1.28-3.5-2.21-10.49L450 417.7c-1.158 1.857-3.246 6.7-6.267 14.534-.862.88-1.6 1.38-2.216 1.5-1.75 0-2.627-2.357-2.627-7.066l-1-8.97h-.203l-6.062 13.67c-.363 2.284-.702 3.424-1.014 3.424h-.79l-.81-.843v-1.08c0-1.92 1.69-6.05 5.05-12.39 2.4-6.67 3.95-10.09 4.64-10.27l1.02-.22zm27.19.04h.75c1.03 0 2.34 4.76 3.93 14.29 1.25 4.5 1.88 7.55 1.88 9.17-.26.85-.76 1.28-1.5 1.28-.96 0-1.64-2.28-2.06-6.83l-.19-.2h-.18c-1.62.02-5.05 1.01-10.28 2.98-.5 2.84-1.31 4.26-2.43 4.26-.75-.3-1.13-.86-1.13-1.71 0-1.65 3.44-9.19 10.3-22.63l.94-.64zm-.37 5.97c-1.5 2.7-2.87 5.55-4.12 8.54h1.32c1.27 0 2.9-.28 4.88-.86l-1.7-7.69h-.37zm11.74-6.02h.22c.68 0 1.25.35 1.71 1.04-.99 7.21-1.69 13.66-2.12 19.34l12.19-2.52.42.62v1.26c0 1.92-4.41 3.67-13.25 5.25-1.57-.28-2.36-.77-2.36-1.47 1.17-15.41 2.02-23.12 2.57-23.12l.64-.42zm26.17.04h.33c1.44.18 2.16.87 2.16 2.09v.42c0 2.1-.72 4.06-2.15 5.87h-.33c-.22-.06-.45-.41-.67-1.05l.85-3.14-.65-.42c-1.53.13-4.34 1.81-8.44 5.03v.2l10.91 2.11c1.11.87 1.66 2.34 1.66 4.4v1.25c0 2.82-1.82 5.27-5.45 7.34-1.43.56-2.81.84-4.14.84h-.34c-3.79 0-6.11-1.67-6.94-5.03v-1.26c0-1.54.39-2.31 1.16-2.31.76 2.66 2.14 4 4.14 4 0 .27.83.4 2.49.4 2.45 0 4.82-1.26 7.11-3.77 0-1.67-3.52-2.72-10.58-3.16-2.54-.706-3.81-1.75-3.81-3.14 0-3.4 3.42-6.83 10.25-10.28l2.49-.42zm8.44 19.64c1.4 0 2.27.85 2.61 2.54 0 1.69-1.22 2.62-3.65 2.78-1.22-.46-1.83-1.23-1.83-2.32v-.24c.48-1.85 1.44-2.78 2.88-2.78zm8.89 0c1.4 0 2.27.85 2.61 2.54 0 1.69-1.22 2.62-3.65 2.78-1.22-.46-1.82-1.23-1.82-2.32v-.24c.48-1.85 1.44-2.78 2.88-2.78zm8.89 0c1.4 0 2.27.85 2.61 2.54 0 1.69-1.22 2.62-3.65 2.78-1.21-.46-1.82-1.23-1.82-2.32v-.24c.48-1.85 1.44-2.78 2.88-2.78z" fill="#000"/></g></svg>