<svg width="1540" height="820" viewBox="0 0 1540 820" xmlns="http://www.w3.org/2000/svg" xmlns:xlink="http://www.w3.org/1999/xlink"><title>story29</title><defs><path id="a" d="M0 0h1540v820H0z"/><mask id="b" x="0" y="0" width="1540" height="820" fill="#fff"><use xlink:href="#a"/></mask></defs><g fill="none" fill-rule="evenodd"><use stroke="#000" mask="url(#b)" stroke-width="8" fill="#D4AA00" xlink:href="#a"/><path stroke="#000" stroke-width="4" fill="#A80" d="M235 132h1066v556H235z"/><path d="M4 2l229.457 129.306c0 .384.523.694 1.174.694h1065.19c.65 0 1.18-.31 1.18-.694L1538 2H4z" stroke="#000" stroke-width="4" stroke-linejoin="bevel" fill="#D4AA00"/><path d="M4 818l229.457-129.306c0-.384.523-.694 1.174-.694h1065.19c.65 0 1.18.31 1.18.694L1538 818H4z" stroke="#000" stroke-width="4" stroke-linejoin="bevel" fill="purple"/><path stroke="#000" stroke-width="4" fill="#00002B" d="M814 190h380v265H814z"/><path fill="#FFE680" d="M903.89 257.34l-11.36-10.833-13.362 8.236 6.795-14.15L874 230.428l15.558 2.088 5.97-14.518 2.82 15.442L914 234.63l-13.815 7.455M963 317.325l-15.566-1.807-5.697 14.598-3.093-15.362-15.644-.906 13.654-7.69-3.97-15.158 11.53 10.61 13.19-8.462-6.527 14.247 12.123 9.93m188.11 37.22l-14.287-7.04-10.435 12.034 2.28-15.77-14.668-6.2 15.696-2.71 1.37-15.87 7.42 14.09 15.514-3.6-11.11 11.41 8.22 13.64m-274.405 72.8l-7.184-14.17-15.52 3.36 11.25-11.21-7.98-13.72 14.14 7.23L881.99 387l-2.51 15.68 14.53 6.41-15.69 2.457-1.607 15.796"/><path stroke="#000" stroke-width="4" fill="#00002B" d="M340 190h380v265H340z"/><path fill="#FFE680" d="M416.89 253.34l-11.36-10.833-13.362 8.236 6.795-14.15L387 226.428l15.558 2.088 5.97-14.518 2.82 15.442L427 230.63l-13.815 7.455M634 382.325l-15.566-1.807-5.697 14.598-3.093-15.362-15.644-.906 13.654-7.69-3.97-15.158 11.53 10.61 13.19-8.462-6.527 14.247 12.123 9.93m37.11-112.78l-14.287-7.04-10.435 12.034 2.28-15.77-14.668-6.2 15.696-2.71 1.37-15.87 7.42 14.09 15.514-3.6-11.11 11.41 8.22 13.64m-134.405 66.8l-7.184-14.17-15.52 3.36 11.25-11.21-7.98-13.72 14.14 7.23L541.99 296l-2.51 15.68 14.53 6.41-15.69 2.457-1.607 15.796m-92.595 89.203l-14.286-7.04-10.435 12.03 2.28-15.77-14.672-6.2 15.698-2.703L424.07 390l7.42 14.09 15.514-3.6-11.11 11.413 8.22 13.644"/><path fill="#FC0" d="M1053.18 298.82L1008 281l45.18-17.82L1071 218l17.82 45.18L1134 281l-45.18 17.82-17.82 76.74"/><path stroke="#000" stroke-width="3.97" fill="#D4AA00" d="M235 132h75v556h-75z"/><path d="M252.63 673V148.865m20 524.135V148.865m20 524.135V148.865" stroke="#000" stroke-width="4"/><path stroke="#000" stroke-width="3.97" fill="#D4AA00" d="M1301 132h-75v556h75z"/><path d="M1283.417 673V148.865m-20 524.135V148.865m-20 524.135V148.865" stroke="#000" stroke-width="4"/><g stroke="#000"><path stroke-width="4" fill="#D4AA00" d="M946.74 446.638h151.023v148.94H946.74z"/><path stroke-width="4" fill="#00F" d="M1022.503 458.534l32.45 32.45-32.45 32.45-32.45-32.45z"/><path stroke-width="4" fill="#D4AA00" d="M1087.086 405.483h27.083v302.083h-27.09zm-158.584 0h27.083v302.083h-27.083z"/><path d="M1109.083 599.695c0 12.427-39.44 22.5-88.095 22.5-23.364 0-45.77-2.37-62.293-6.59-16.52-4.22-25.802-9.942-25.802-15.91 0-5.967 9.28-11.69 25.802-15.91 16.522-4.22 38.93-6.59 62.293-6.59 48.654 0 88.095 10.074 88.095 22.5z" stroke-width="4.148" fill="#D40000"/><path stroke-width="4" fill="#D4AA00" d="M1097.35 538.442h27.193V707.94h-27.192zm-179.222 0h27.192V707.94h-27.192zm41.38-142.596c0 4.736-1.88 9.278-5.23 12.627-3.35 3.35-7.89 5.23-12.627 5.23-9.86 0-17.85-7.995-17.85-17.857 0-4.736 1.88-9.278 5.23-12.627 3.35-3.35 7.89-5.23 12.63-5.23 4.74 0 9.28 1.88 12.63 5.23 3.35 3.34 5.23 7.89 5.23 12.62zm160 0c0 4.736-1.88 9.278-5.23 12.627-3.35 3.35-7.89 5.23-12.627 5.23-9.86 0-17.85-7.995-17.85-17.857 0-4.736 1.88-9.278 5.23-12.627 3.35-3.35 7.89-5.23 12.63-5.23 4.74 0 9.28 1.88 12.63 5.23 3.35 3.34 5.23 7.89 5.23 12.62z"/><path d="M1129.217 542.105c0 4.736-1.88 9.278-5.23 12.627-3.35 3.35-7.89 5.23-12.627 5.23-9.862 0-17.857-7.995-17.857-17.857 0-4.736 1.88-9.278 5.23-12.627 3.35-3.35 7.89-5.23 12.627-5.23 4.736 0 9.278 1.88 12.627 5.23 3.35 3.35 5.23 7.89 5.23 12.627zm-180 0c0 4.736-1.88 9.278-5.23 12.627-3.35 3.35-7.89 5.23-12.627 5.23-9.862 0-17.857-7.995-17.857-17.857 0-4.736 1.88-9.278 5.23-12.627 3.35-3.35 7.89-5.23 12.627-5.23 4.736 0 9.278 1.88 12.627 5.23 3.35 3.35 5.23 7.89 5.23 12.627z" stroke-width="4" fill="#D4AA00"/><path stroke-width="4" fill="#00F" d="M941.516 441.178l-7.07-7.07 7.07-7.072 7.07 7.07zm0 36.002l-7.07-7.07 7.07-7.07 7.07 7.07zm0 38.004l-7.072-7.07 7.072-7.072 7.07 7.07zm159.01-74.006l-7.07-7.07 7.07-7.072 7.07 7.07zm0 36.002l-7.07-7.07 7.07-7.07 7.07 7.07zm0 38.004l-7.07-7.07 7.07-7.072 7.07 7.07z"/><path d="M925.13 578.13c-1.32-2.956.007-6.422 2.962-7.74 1.42-.635 3.033-.68 4.484-.123 1.452.555 2.624 1.665 3.257 3.084.634 1.42.678 3.04.122 4.49-.555 1.45-1.665 2.63-3.084 3.26-2.95 1.32-6.42 0-7.74-2.96zm0 26c-1.32-2.956.007-6.422 2.962-7.74 1.42-.635 3.033-.68 4.484-.123 1.452.555 2.624 1.665 3.257 3.084.634 1.42.678 3.04.122 4.49-.555 1.45-1.665 2.63-3.084 3.26-2.95 1.32-6.42 0-7.74-2.96zm0 26c-1.32-2.956.007-6.422 2.962-7.74 1.42-.635 3.033-.68 4.484-.123 1.452.555 2.624 1.665 3.257 3.084.634 1.42.678 3.04.122 4.49-.555 1.45-1.665 2.63-3.084 3.26-2.95 1.32-6.42 0-7.74-2.96zm0 28c-1.32-2.956.007-6.422 2.962-7.74 1.42-.635 3.033-.68 4.484-.123 1.452.555 2.624 1.665 3.257 3.084.634 1.42.678 3.04.122 4.49-.555 1.45-1.665 2.63-3.084 3.26-2.95 1.32-6.42 0-7.74-2.96zm0 28c-1.32-2.956.007-6.422 2.962-7.74 1.42-.635 3.033-.68 4.484-.123 1.452.555 2.624 1.665 3.257 3.084.634 1.42.678 3.04.122 4.49-.555 1.45-1.665 2.63-3.084 3.26-2.95 1.32-6.42 0-7.74-2.96zm180-107c-1.32-2.956.007-6.422 2.962-7.74 1.42-.635 3.033-.68 4.484-.123 1.452.555 2.624 1.665 3.257 3.084.634 1.42.678 3.04.122 4.49-.555 1.45-1.665 2.63-3.084 3.26-2.95 1.32-6.42 0-7.74-2.96zm0 26c-1.32-2.956.007-6.422 2.962-7.74 1.42-.635 3.033-.68 4.484-.123 1.452.555 2.624 1.665 3.257 3.084.634 1.42.678 3.04.122 4.49-.555 1.45-1.665 2.63-3.084 3.26-2.95 1.32-6.42 0-7.74-2.96zm0 26c-1.32-2.956.007-6.422 2.962-7.74 1.42-.635 3.033-.68 4.484-.123 1.452.555 2.624 1.665 3.257 3.084.634 1.42.678 3.04.122 4.49-.555 1.45-1.665 2.63-3.084 3.26-2.95 1.32-6.42 0-7.74-2.96zm0 28c-1.32-2.956.007-6.422 2.962-7.74 1.42-.635 3.033-.68 4.484-.123 1.452.555 2.624 1.665 3.257 3.084.634 1.42.678 3.04.122 4.49-.555 1.45-1.665 2.63-3.084 3.26-2.95 1.32-6.42 0-7.74-2.96zm0 28c-1.32-2.956.007-6.422 2.962-7.74 1.42-.635 3.033-.68 4.484-.123 1.452.555 2.624 1.665 3.257 3.084.634 1.42.678 3.04.122 4.49-.555 1.45-1.665 2.63-3.084 3.26-2.95 1.32-6.42 0-7.74-2.96zm-130-221c-1.32-2.956.007-6.422 2.962-7.74 1.42-.635 3.033-.68 4.484-.123 1.452.555 2.624 1.665 3.257 3.084.634 1.42.678 3.04.122 4.49-.555 1.45-1.665 2.63-3.084 3.26-2.95 1.32-6.42 0-7.74-2.96zm82 0c-1.32-2.956.007-6.422 2.962-7.74 1.42-.635 3.033-.68 4.484-.123 1.452.555 2.624 1.665 3.257 3.084.634 1.42.678 3.04.122 4.49-.555 1.45-1.665 2.63-3.084 3.26-2.95 1.32-6.42 0-7.74-2.96zm-82 52c-1.32-2.956.007-6.422 2.962-7.74 1.42-.635 3.033-.68 4.484-.123 1.452.555 2.624 1.665 3.257 3.084.634 1.42.678 3.04.122 4.49-.555 1.45-1.665 2.63-3.084 3.26-2.95 1.32-6.42 0-7.74-2.96zm82 0c-1.32-2.956.007-6.422 2.962-7.74 1.42-.635 3.033-.68 4.484-.123 1.452.555 2.624 1.665 3.257 3.084.634 1.42.678 3.04.122 4.49-.555 1.45-1.665 2.63-3.084 3.26-2.95 1.32-6.42 0-7.74-2.96z" stroke-width="3" fill="green"/></g><g transform="translate(28 313)"><path d="M297.4 251.52c8.255-2.02 17.255 4.88 24.372 19.447 6.74 13.793 16.712 24.218 4.025 32.045-7.07 4.362-23.59-.75-21.852-11.16-1.27 5.708-1.046 16.97-4.836 16.917-5.55-.08-11.69-5.59-8.55-16.65.77-2.7.52-5.36 1.29-7.51-.25-.67-.5-1.34-.67-2.03-3.9-15.73-2.05-29.05 6.21-31.07zM36.95 272.045c-6.32 29.472 8.273 38.883 37.144 24.104 31.23-15.99 46.618-12.67 41.907-23.06-5.26-11.6-19.45-28.59-41.9-23.06-13.26 3.27-23.21 13.89-37.14 22z" stroke="#050202" stroke-width="4.008" fill="#DEAA87"/><path stroke="#000" stroke-width="4.008" stroke-linecap="round" stroke-linejoin="bevel" fill="#E3E2DB" d="M2.996 251.473l51.328-22.916 39.036 87.436-51.328 22.916z"/><rect stroke="#000" stroke-width="4.008" fill="#E3E2DB" transform="rotate(-24.058 1107.167 0)" x="3.599" y="221.077" width="41.285" height="19.365" rx="6.138"/><path d="M46.23 295.897c-2 4.478.032 9.74 4.54 11.752 2.164.96 4.62 1.03 6.83.2 2.21-.84 3.99-2.52 4.95-4.67s1.022-4.6.17-6.8c-.85-2.21-2.545-3.99-4.71-4.95-4.507-2.02-9.782-.02-11.78 4.46zm-15.92-34.892c-2 4.478.033 9.74 4.54 11.752 2.164.967 4.622 1.04 6.83.202 2.21-.84 3.99-2.52 4.95-4.67.962-2.15 1.023-4.6.17-6.8-.85-2.21-2.545-3.99-4.71-4.95-4.506-2.02-9.78-.02-11.78 4.46z" stroke="#000" stroke-width="3.006" fill="green"/><path d="M57.63 258.968c0 4.106 6.032 7.436 13.47 7.436 7.44 0 13.47-3.33 13.47-7.436 0-4.107-6.03-7.437-13.47-7.437-7.438 0-13.47 3.33-13.47 7.44z" stroke="#050202" stroke-width="4.008" fill="#DEAA87"/><path d="M140.146 152.26c-16.122 32.878-37.41 60.624-60.334 86.742-3.165 33.078 6.36 40.935 12.837 54.85 24.1-6.32 33.89-9.798 41.07-12.756l6.42-128.835z" stroke="#050202" stroke-width="4.008" fill="#0A0"/><path d="M82.135 258.166l39.844-26.135-.01 17.1-37.3 22.81c-1.48-4.28-2.3-8.88-2.54-13.77z" fill="green"/><path d="M141.877 106.316c0 18.872 6.68 36.97 18.57 50.315 11.893 13.35 28.02 20.85 44.838 20.85 35.02 0 63.408-31.86 63.408-71.15 0-39.3-28.39-71.15-63.408-71.15-16.817 0-32.945 7.5-44.837 20.84-11.89 13.35-18.57 31.45-18.57 50.32z" stroke="#000" stroke-width="4.008" fill="#502D16"/><path d="M269.73 144.042l-6.42 25.512 32.093 109.7 35.944-17.857c-14.297-53.076-33.65-94.846-61.617-117.355z" stroke="#050202" stroke-width="4.008" fill="#0A0"/><path d="M206.828 468.043c0 4.737 3.45 9.28 9.588 12.628 6.14 3.35 14.465 5.24 23.147 5.24 8.68 0 17.007-1.88 23.146-5.23 6.13-3.35 9.58-7.89 9.58-12.63 0-9.86-14.66-17.85-32.74-17.85-18.08 0-32.74 8-32.74 17.86zm-77.662 2.552c0 4.736 3.448 9.278 9.587 12.627 6.14 3.35 14.465 5.23 23.147 5.23 8.68 0 17.007-1.88 23.146-5.23 6.14-3.35 9.588-7.89 9.588-12.627 0-9.863-14.656-17.86-32.734-17.86-18.08 0-32.734 7.997-32.734 17.86z" stroke="#050202" stroke-width="4.008" fill="#2B1100"/><path d="M121.62 284.18c-5.312 57.705-13.832 155.544-1.102 167.46 40.53 17.86 135.082 24.403 166.504-10.626 15.363-30.406 2.52-103.844 6.154-154.127 7.353-101.737-2.75-180.562-91.678-181.75-75.67-1.01-84.81 77.644-79.878 179.044z" stroke="#050202" stroke-width="4.008" fill="#0A0"/><path d="M158.678 88.14c0 15.19 4.973 29.76 13.825 40.5 8.852 10.74 20.858 16.776 33.376 16.776 12.51 0 24.52-6.035 33.37-16.776 8.85-10.74 13.82-25.31 13.82-40.5 0-15.19-4.98-29.76-13.83-40.5-8.85-10.742-20.86-16.776-33.38-16.776-12.52 0-24.53 6.034-33.38 16.775-8.85 10.74-13.83 25.31-13.83 40.5z" stroke="#050202" stroke-width="3.908" fill="#DEAA87"/><path d="M215.97 75.947c0 2.366 1.93 4.284 4.31 4.284 2.383 0 4.313-1.91 4.313-4.28 0-1.13-.454-2.22-1.263-3.03-.808-.8-1.905-1.25-3.05-1.25-1.142 0-2.24.45-3.047 1.26-.81.81-1.263 1.9-1.263 3.03zm-29.963.49c0 2.367 1.93 4.285 4.312 4.285 2.38 0 4.31-1.918 4.31-4.284 0-1.137-.46-2.226-1.27-3.03-.81-.803-1.91-1.255-3.05-1.255s-2.24.452-3.05 1.255c-.81.804-1.27 1.893-1.27 3.03z" fill="#000"/><path d="M222.35 122.755h-32.977l-6.93 341.755c12.944 1.288 32.296 2.33 42.218.46l-2.31-342.215z" stroke="#000" stroke-width="4.008" fill="#0055D4"/><path d="M205.454 162.108c19.04-.05 37.062-43.186 37.062-43.186 20.018-38.054-91.073-33.08-72.738 2.066 0 0 17.464 41.17 35.676 41.12z" stroke="#000" stroke-width="4.008" fill="#502D16"/><path d="M228.717 109.124c-5.976 5.79-43.623 2.11-46.877-.65-3.255-2.758 14.828 22.454 24.174 22.4 9.345-.056 28.68-27.54 22.703-21.75z" stroke="#000" stroke-width="4.008" fill="#DEAA87"/><path d="M264.997 132.598c-3.245-3.61-6.27-7.245-11.897-10.56l-1.04 335.586c4.274-1 8.663-2.564 12.937-4.476v-320.55zm-119.45.69c3.244-3.61 6.384-9.083 12.01-12.396l.693 338.913c-4.273-1-8.893-1.187-13.166-3.1l.462-323.418zm152.16 104.926c-.137-10.39-.868-20.78-1.403-31.172l25.405 56.294c-2.78 1.198-7.07 3.858-12.01 5.813l-12-30.94z" fill="green"/><path stroke="#000" stroke-width="4.731" stroke-linejoin="bevel" fill="#FC0" d="M247.04 58.444l-41.145.183-41.146-.1-13.1-17.698-12.51-17.79 33.05-11.12 33.42-10.89 33.52 10.82 33.16 11.05-12.34 17.81z"/><path d="M215.853 37.362c0 2.8-1.12 5.486-3.112 7.466-1.99 1.98-4.69 3.093-7.51 3.093-5.87 0-10.62-4.72-10.62-10.55s4.76-10.56 10.63-10.56c2.82 0 5.52 1.12 7.52 3.1s3.12 4.67 3.12 7.47zm33.04-5.052c0 2.8-1.12 5.487-3.112 7.467-1.99 1.98-4.69 3.092-7.51 3.092-5.87 0-10.62-4.73-10.62-10.56s4.76-10.56 10.63-10.56c2.82 0 5.52 1.11 7.52 3.09 2 1.98 3.12 4.66 3.12 7.46zm-66.08 0c0 2.8-1.12 5.487-3.113 7.467-1.992 1.98-4.695 3.092-7.513 3.092-5.87 0-10.626-4.73-10.626-10.56s4.76-10.56 10.63-10.56c2.82 0 5.52 1.11 7.52 3.09 2 1.98 3.12 4.66 3.12 7.46z" stroke="#000" stroke-width="4.008" fill="#0A0"/></g><path d="M875.453 580.535c6.32 29.472-8.273 38.883-37.144 24.104-31.23-15.99-46.62-12.67-41.91-23.06 5.26-11.6 19.45-28.59 41.9-23.05 13.26 3.27 23.21 13.89 37.14 22z" stroke="#050202" stroke-width="4.008" fill="#502D16"/><path d="M882.066 544.815c-1.064 2.982-3.436 5.36-6.596 6.61-3.16 1.248-6.846 1.268-10.25.054-3.405-1.22-6.248-3.57-7.903-6.54-1.655-2.97-1.988-6.31-.924-9.29 1.064-2.98 3.436-5.36 6.595-6.61 3.16-1.25 6.847-1.27 10.252-.06 3.404 1.21 6.247 3.56 7.902 6.53 1.655 2.97 1.987 6.31.924 9.29z" stroke="#000" stroke-width="4.008" fill="#F60"/><path stroke="#000" stroke-width="4.008" stroke-linejoin="bevel" fill="#F60" d="M850.653 537.066l34.36 12.257-28.22 79.11-34.36-12.256z"/><path d="M869.036 561.948c-1.373 3.85-5.627 5.85-9.5 4.468-1.862-.664-3.384-2.034-4.233-3.81-.85-1.777-.956-3.814-.297-5.663.66-1.848 2.03-3.358 3.813-4.196 1.78-.838 3.82-.936 5.68-.272 3.87 1.382 5.9 5.623 4.53 9.473zm-8.513 23.83c-1.373 3.85-5.627 5.85-9.5 4.47-1.86-.665-3.384-2.036-4.233-3.812-.85-1.777-.956-3.813-.296-5.662.66-1.85 2.03-3.358 3.813-4.196 1.78-.838 3.828-.936 5.688-.272 3.874 1.382 5.902 5.623 4.528 9.472zm-7.835 22.842c-1.374 3.85-5.628 5.85-9.502 4.47-1.86-.665-3.382-2.035-4.232-3.812-.85-1.776-.955-3.813-.296-5.662.66-1.848 2.03-3.358 3.813-4.196 1.79-.838 3.83-.936 5.69-.272 3.88 1.382 5.9 5.623 4.53 9.473z" stroke="#000" stroke-width="3.006" fill="green"/><path d="M854.772 567.458c0 4.106-6.03 7.436-13.47 7.436s-13.47-3.33-13.47-7.436c0-4.107 6.03-7.437 13.47-7.437s13.47 3.33 13.47 7.44zm-243.687 3.244c-8.257-2.02-17.257 4.88-24.374 19.45-6.73 13.792-16.71 24.217-4.02 32.043 7.07 4.362 23.59-.75 21.86-11.16 1.27 5.71 1.05 16.97 4.84 16.917 5.54-.077 11.69-5.59 8.54-16.645-.77-2.702-.52-5.356-1.29-7.51.24-.662.5-1.332.67-2.03 3.9-15.726 2.05-29.045-6.2-31.065z" stroke="#050202" stroke-width="4.008" fill="#502D16"/><path d="M638.754 455.65l6.418 25.51-32.092 109.702-35.944-17.858c14.297-53.076 33.65-94.846 61.618-117.355z" stroke="#050202" stroke-width="4.008" fill="#330080"/><path d="M701.655 779.65c0 4.737-3.45 9.28-9.588 12.628-6.14 3.35-14.465 5.23-23.146 5.23-8.68 0-17-1.88-23.14-5.23-6.14-3.35-9.59-7.89-9.59-12.628 0-9.863 14.66-17.858 32.74-17.858 18.08 0 32.74 7.995 32.74 17.858zm77.663 2.55c0 4.738-3.45 9.28-9.588 12.63-6.14 3.348-14.465 5.23-23.146 5.23-8.682 0-17.008-1.882-23.147-5.23-6.14-3.35-9.588-7.892-9.588-12.63 0-9.86 14.65-17.857 32.73-17.857s32.73 7.996 32.73 17.858z" stroke="#050202" stroke-width="4.008" fill="#000"/><path d="M772.257 460.75c16.122 32.878 37.41 60.624 60.334 86.742 3.17 33.078-6.36 40.935-12.83 54.85-24.1-6.32-33.89-9.798-41.08-12.756l-6.42-128.835z" stroke="#050202" stroke-width="4.008" fill="#330080"/><path d="M786.864 595.788c5.312 57.704 13.268 154.976 1.1 167.46-12.475 12.798-66.366 23.52-87.333 15.192-21.72 4.498-64.76 12.65-79.17-25.82-15.36-30.405-2.52-103.843-6.15-154.126-7.35-101.737 2.75-180.562 91.68-181.75 75.67-1.01 84.81 77.644 79.88 179.044z" stroke="#050202" stroke-width="4.008" fill="#330080"/><path d="M749.805 399.747c0 15.19-4.973 29.758-13.825 40.5-8.852 10.74-20.857 16.776-33.376 16.776-12.518 0-24.524-6.035-33.376-16.776-8.852-10.742-13.824-25.31-13.824-40.5 0-15.19 4.972-29.76 13.824-40.5 8.852-10.742 20.858-16.776 33.376-16.776 12.52 0 24.524 6.04 33.376 16.78 8.852 10.74 13.825 25.31 13.825 40.5z" stroke="#050202" stroke-width="3.908" fill="#784421"/><path d="M693.784 387.554c0 2.366-1.93 4.284-4.31 4.284-2.383 0-4.313-1.918-4.313-4.284 0-1.136.46-2.226 1.27-3.03.81-.803 1.91-1.255 3.05-1.255s2.24.45 3.05 1.25c.81.8 1.27 1.89 1.27 3.03zm27.42.49c0 2.367-1.93 4.285-4.31 4.285-2.382 0-4.312-1.92-4.312-4.29 0-1.14.454-2.23 1.263-3.03.81-.81 1.905-1.26 3.05-1.26 1.142 0 2.24.45 3.047 1.25.81.8 1.263 1.89 1.263 3.03z" fill="#000"/><path d="M615.096 584.988l172.532.162c-2.174 6.186-1.144 15.018-.49 22.608l-171.39-.325-.652-22.445z" stroke="#000" stroke-width="3.903" fill="#FC0"/><path d="M679.766 412.008c5.976 5.79 43.623 2.11 46.878-.65 3.254-2.758-14.83 22.454-24.174 22.4-9.346-.055-28.68-27.54-22.704-21.75z" stroke="#000" stroke-width="4.008" fill="#784421"/><path d="M701.643 467.248l-17.204-29.61c10.35 5.532 21.45 7.394 34.4 0l-17.21 29.61z" stroke="#000" stroke-width="4.008" stroke-linejoin="round" fill="#000"/><path d="M710.14 493.665c0 4.088-3.335 7.4-7.448 7.4-1.975 0-3.87-.78-5.266-2.166-1.397-1.39-2.182-3.28-2.182-5.24 0-1.96.785-3.85 2.182-5.24 1.396-1.39 3.29-2.17 5.266-2.17 4.113 0 7.448 3.31 7.448 7.4zm0 37.885c0 4.086-3.335 7.4-7.448 7.4-1.975 0-3.87-.78-5.266-2.168-1.397-1.388-2.182-3.27-2.182-5.233 0-1.97.785-3.85 2.182-5.24 1.396-1.39 3.29-2.17 5.266-2.17 4.113 0 7.448 3.31 7.448 7.4zm0 35.356c0 4.088-3.335 7.4-7.448 7.4-1.975 0-3.87-.778-5.266-2.166-1.397-1.388-2.182-3.27-2.182-5.234 0-1.962.785-3.845 2.182-5.233 1.396-1.388 3.29-2.167 5.266-2.167 4.113 0 7.448 3.313 7.448 7.4zm0 65.664c0 4.088-3.335 7.402-7.448 7.402-1.975 0-3.87-.78-5.266-2.168-1.397-1.388-2.182-3.27-2.182-5.233 0-1.96.785-3.84 2.182-5.23 1.396-1.39 3.29-2.17 5.266-2.17 4.113 0 7.448 3.32 7.448 7.4zm0 35.36c0 4.086-3.335 7.4-7.448 7.4-1.975 0-3.87-.78-5.266-2.168-1.397-1.388-2.182-3.27-2.182-5.233 0-1.97.785-3.85 2.182-5.24 1.396-1.39 3.29-2.17 5.266-2.17 4.113 0 7.448 3.31 7.448 7.4zm0 37.882c0 4.087-3.335 7.4-7.448 7.4-1.975 0-3.87-.78-5.266-2.167-1.397-1.388-2.182-3.27-2.182-5.233 0-1.963.785-3.845 2.182-5.233 1.396-1.39 3.29-2.17 5.266-2.17 4.113 0 7.448 3.31 7.448 7.4zm0 40.408c0 4.088-3.335 7.402-7.448 7.402-1.975 0-3.87-.78-5.266-2.168-1.397-1.388-2.182-3.27-2.182-5.233 0-1.96.785-3.84 2.182-5.23 1.396-1.39 3.29-2.17 5.266-2.17 4.113 0 7.448 3.32 7.448 7.4z" stroke="#000" stroke-width="3.006" fill="#FC0"/><path d="M721.398 598.646c0 9.86-8.044 17.854-17.967 17.854-4.76 0-9.33-1.88-12.7-5.23-3.37-3.348-5.26-7.89-5.26-12.624 0-4.735 1.9-9.276 5.26-12.625 3.37-3.34 7.94-5.22 12.71-5.22 9.93 0 17.97 8 17.97 17.86z" stroke="#000" stroke-width="3.808" fill="#FC0"/><path d="M744.96 378.603c-15.854 3.71-41.1-20.698-41.1-20.698s-30.715 28.613-45.404 20.792c-12.445-6.627-13.214-29.22-6.542-41.586 8.982-16.64 32.793-23.81 51.8-23.69 19.92.12 46.048 7.33 53.976 25.49 5.562 12.74 2.277 35.57-12.73 39.7z" stroke="#000" stroke-width="4.008" fill="#4000A1"/><path d="M366.84 571.89c-8.256-2.02-17.256 4.88-24.373 19.448-6.74 13.793-16.713 24.218-4.025 32.044 7.07 4.363 23.59-.75 21.852-11.16 1.27 5.71 1.046 16.97 4.836 16.918 5.54-.078 11.69-5.59 8.54-16.646-.768-2.702-.52-5.356-1.288-7.51.242-.662.494-1.33.667-2.03 3.89-15.725 2.04-29.044-6.21-31.064z" stroke="#050202" stroke-width="4.008" fill="#DEAA87"/><path d="M394.51 456.836l6.418 25.512-32.093 109.7-35.943-17.857c14.297-53.07 33.65-94.84 61.617-117.35z" stroke="#050202" stroke-width="4.008" fill="#FC0"/><path d="M366.533 551.008c.136-10.39.867-20.78 1.402-31.172L342.53 576.13c2.775 1.198 7.07 3.858 12.008 5.813l11.995-30.935z" fill="#A80"/><path d="M388.814 419.11c0 18.872 6.68 36.97 18.57 50.316 11.893 13.344 28.02 20.84 44.838 20.84 35.02 0 63.408-31.857 63.408-71.156 0-39.3-28.39-71.157-63.408-71.157-16.817 0-32.945 7.497-44.837 20.842-11.89 13.344-18.57 31.443-18.57 50.315z" stroke="#000" stroke-width="4.008" fill="#E3DEDB"/><path d="M516.667 456.836l-6.42 25.512 32.093 109.7 35.944-17.857c-14.297-53.07-33.65-94.84-61.617-117.35z" stroke="#050202" stroke-width="4.008" fill="#FC0"/><path d="M453.765 780.837c0 4.737 3.45 9.28 9.588 12.628 6.14 3.35 14.465 5.23 23.147 5.23 8.68 0 17.007-1.88 23.146-5.23 6.14-3.35 9.588-7.89 9.588-12.628 0-9.862-14.656-17.858-32.734-17.858-18.08 0-32.735 7.99-32.735 17.85zm-77.663 2.553c0 4.735 3.45 9.277 9.588 12.626 6.14 3.35 14.465 5.23 23.147 5.23 8.68 0 17.007-1.88 23.146-5.23 6.14-3.35 9.588-7.89 9.588-12.627 0-9.87-14.65-17.86-32.73-17.86s-32.73 7.99-32.73 17.86z" stroke="#050202" stroke-width="4.008" fill="#2B1100"/><path d="M368.557 596.975c-5.312 57.705-13.832 155.543-1.102 167.46 40.53 17.86 135.082 24.402 166.504-10.627 15.36-30.406 2.52-103.844 6.15-154.127 7.35-101.73-2.75-180.56-91.68-181.74-75.67-1.01-84.81 77.65-79.88 179.05z" stroke="#050202" stroke-width="4.008" fill="#FC0"/><path d="M405.615 400.934c0 15.19 4.973 29.76 13.825 40.5 8.852 10.74 20.857 16.776 33.376 16.776 12.518 0 24.524-6.035 33.376-16.776 8.852-10.74 13.825-25.31 13.825-40.5 0-15.19-4.973-29.76-13.825-40.5-8.852-10.742-20.858-16.776-33.376-16.776-12.52 0-24.524 6.034-33.376 16.776-8.852 10.74-13.825 25.31-13.825 40.5z" stroke="#050202" stroke-width="3.908" fill="#DEAA87"/><path d="M462.907 387.478c0 2.367 1.93 4.285 4.31 4.285 2.383 0 4.313-1.918 4.313-4.285 0-1.136-.454-2.226-1.263-3.03-.81-.803-1.905-1.254-3.05-1.254-1.142 0-2.24.45-3.047 1.255-.81.8-1.263 1.89-1.263 3.02zm-29.963.492c0 2.365 1.93 4.284 4.312 4.284 2.38 0 4.31-1.92 4.31-4.285 0-1.14-.453-2.23-1.262-3.03-.808-.81-1.905-1.26-3.048-1.26-1.144 0-2.24.45-3.05 1.25-.808.8-1.262 1.89-1.262 3.03z" fill="#000"/><path d="M469.288 435.55H436.31l-6.93 341.754c12.944 1.288 32.296 2.33 42.218.46l-2.31-342.215z" stroke="#000" stroke-width="4.008" fill="maroon"/><path d="M452.39 502.17l37.063-70.454c20.018-38.054-91.073-33.08-72.738 2.066l35.676 68.388z" stroke="#000" stroke-width="4.008" fill="#E3DBDB"/><path stroke="#000" stroke-width="4.008" stroke-linejoin="round" fill="#FC0" d="M491.644 365.6l52.2-74.434-67.75 33.154-24.725-58.07-24.46 58.4-72.65-32.83 57.8 74.312 79.57-.533z"/><path d="M475.654 421.918c-5.976 5.79-43.623 2.11-46.878-.65-3.254-2.758 14.83 22.454 24.174 22.4 9.346-.056 28.68-27.54 22.704-21.75z" stroke="#000" stroke-width="4.008" fill="#DEAA87"/><path d="M432.548 341.383c0 9.86 8.044 17.854 17.967 17.854 4.765 0 9.335-1.88 12.705-5.23 3.37-3.348 5.262-7.89 5.262-12.624 0-4.735-1.893-9.276-5.262-12.624-3.37-3.35-7.94-5.23-12.705-5.23-9.923 0-17.967 7.99-17.967 17.85z" stroke="#000" stroke-width="4.008" fill="#00F"/><path d="M511.934 445.392c-3.246-3.61-6.27-7.245-11.897-10.56l-1.04 335.586c4.274-1 8.663-2.564 12.937-4.476v-320.55zm-119.45.688c3.244-3.608 6.384-9.08 12.01-12.394l.693 338.913c-4.273-1-8.893-1.19-13.166-3.1l.47-323.42zm152.16 104.928c-.137-10.39-.868-20.78-1.403-31.172l25.41 56.294c-2.77 1.198-7.07 3.858-12.01 5.813l-11.99-30.935z" fill="#A80"/><path d="M544.335 564.313c8.257-2.02 17.257 4.88 24.374 19.45 6.73 13.79 16.71 24.216 4.02 32.043-7.07 4.362-23.59-.75-21.85-11.16-1.27 5.708-1.05 16.97-4.84 16.917-5.54-.077-11.69-5.59-8.54-16.646.77-2.7.52-5.355 1.29-7.508-.24-.67-.5-1.34-.67-2.04-3.9-15.73-2.05-29.05 6.21-31.07z" stroke="#050202" stroke-width="4.008" fill="#DEAA87"/><path stroke="#000" stroke-width="4.008" stroke-linejoin="round" fill="#D4AA00" d="M322.68 556.87h266.57v79.206H322.68z"/><path stroke="#000" stroke-width="4.008" stroke-linejoin="round" fill="#00F" d="M354.596 610.67l-14.24-14.242 14.15-14.152 14.24 14.242z"/><path d="M393.718 596.473c0 2.8 1.12 5.486 3.113 7.466 2 1.98 4.7 3.09 7.52 3.09 5.87 0 10.63-4.73 10.63-10.56s-4.75-10.56-10.62-10.56c-2.82 0-5.52 1.11-7.51 3.09-1.99 1.98-3.11 4.66-3.11 7.46z" stroke="#000" stroke-width="4.008" fill="#D40000"/><path stroke="#000" stroke-width="4.008" stroke-linejoin="round" fill="#00F" d="M558.73 610.67l-14.243-14.242 14.152-14.152 14.24 14.24z"/><path d="M495.308 596.473c0 2.8 1.12 5.486 3.112 7.466 1.993 1.98 4.695 3.09 7.513 3.09 5.87 0 10.626-4.73 10.626-10.56s-4.76-10.56-10.63-10.56c-2.82 0-5.52 1.11-7.52 3.09-2 1.98-3.12 4.66-3.12 7.46z" stroke="#000" stroke-width="4.008" fill="#D40000"/><path stroke="#000" stroke-width="4.008" stroke-linejoin="round" fill="#00F" d="M453.396 610.67l-14.24-14.242 14.15-14.15 14.24 14.24z"/><path d="M1034.622 579.698c-6.432 30.207 8.42 39.852 37.802 24.704 31.782-16.385 47.443-12.984 42.648-23.626-5.356-11.89-19.798-29.296-42.648-23.627-13.5 3.35-23.624 14.23-37.802 22.54z" stroke="#050202" stroke-width="4" fill="#DEAA87"/><path d="M1055.67 566.295c0 4.21 6.136 7.62 13.707 7.62 7.57 0 13.71-3.41 13.71-7.62s-6.14-7.622-13.71-7.622c-7.57 0-13.708 3.412-13.708 7.622z" stroke="#050202" stroke-width="4" fill="#DEAA87"/><path d="M1139.645 456.93c-16.408 33.695-38.07 62.132-61.402 88.9-3.22 33.903 6.473 41.957 13.064 56.22 24.53-6.48 34.496-10.044 41.805-13.075l6.533-132.046z" stroke="#050202" stroke-width="4" fill="#32007E"/><path d="M1080.606 565.473l52.674-34.538-.677 19.542-49.415 29.11c-1.5-4.385-2.336-9.1-2.582-14.114z" fill="#FC0"/><path d="M1396.91 583.52c6.433 30.208-8.42 39.854-37.8 24.706-31.784-16.386-47.444-12.984-42.65-23.627 5.357-11.89 19.8-29.3 42.65-23.63 13.5 3.35 23.623 14.23 37.8 22.55z" stroke="#050202" stroke-width="4" fill="#DEAA87"/><path d="M1375.864 570.118c0 4.21-6.138 7.62-13.71 7.62-7.57 0-13.707-3.41-13.707-7.62s6.137-7.622 13.708-7.622c7.57 0 13.71 3.413 13.71 7.622z" stroke="#050202" stroke-width="4" fill="#DEAA87"/><path d="M1291.888 460.752c16.408 33.697 38.07 62.134 61.402 88.902 3.22 33.903-6.473 41.956-13.065 56.218-24.53-6.478-34.496-10.042-41.805-13.074l-6.532-132.046z" stroke="#050202" stroke-width="4" fill="#32007E"/><path d="M1350.926 569.296l-52.674-34.538.678 19.542 49.414 29.11c1.5-4.384 2.337-9.1 2.583-14.114z" fill="#FC0"/><path d="M1214.97 779.916c0 4.855 3.51 9.51 9.757 12.943 6.248 3.43 14.72 5.36 23.557 5.36 8.835 0 17.308-1.93 23.556-5.36 6.247-3.44 9.757-8.09 9.757-12.95 0-10.11-14.915-18.31-33.313-18.31-18.4 0-33.314 8.19-33.314 18.3zm-79.038 2.614c0 4.856 3.51 9.51 9.758 12.944 6.247 3.432 14.72 5.36 23.556 5.36 8.835 0 17.31-1.928 23.556-5.36 6.248-3.433 9.757-8.088 9.757-12.943 0-10.1-14.92-18.3-33.32-18.3s-33.32 8.2-33.32 18.31z" stroke="#050202" stroke-width="4" fill="#D4AA00"/><path d="M1128.253 591.472c-5.406 59.142-14.076 159.42-1.12 171.632 41.246 18.306 137.472 25.01 169.45-10.89 15.635-31.164 2.565-106.433 6.263-157.968 7.483-104.273-2.797-185.062-93.3-186.28-77.01-1.035-86.312 79.58-81.293 183.506z" stroke="#050202" stroke-width="4" fill="#330080"/><path d="M1230.718 409.872h-33.475l-7.034 366.3c13.13 1.38 32.78 2.496 42.85.49l-2.35-366.79z" stroke="#000" stroke-width="4.085" fill="#D40000"/><path d="M1274.168 436.11c-3.303-3.698-6.38-7.425-12.107-10.82l-1.05 343.947c4.35-1.023 8.82-2.628 13.17-4.587V436.11zm-121.566.707c3.303-3.7 6.5-9.308 12.225-12.704l.705 347.36c-4.35-1.024-9.05-1.217-13.4-3.177l.47-331.48z" fill="#FC0"/><path d="M1164.9 380.478c0 15.57 5.062 30.5 14.07 41.51 9.01 11.008 21.227 17.193 33.967 17.193 12.74 0 24.96-6.18 33.967-17.19 9.01-11.01 14.07-25.94 14.07-41.51 0-15.57-5.06-30.5-14.07-41.51-9.008-11.01-21.227-17.19-33.967-17.19-12.74 0-24.958 6.19-33.967 17.2-9.008 11.01-14.07 25.94-14.07 41.51z" stroke="#050202" stroke-width="3.9" fill="#DEAA87"/><path d="M1221.913 366.687c0 2.425 1.965 4.39 4.388 4.39 2.43 0 4.39-1.965 4.39-4.39 0-1.165-.46-2.282-1.28-3.105-.82-.824-1.94-1.287-3.1-1.287s-2.28.463-3.1 1.287c-.82.823-1.28 1.94-1.28 3.105zm-30.493.503c0 2.425 1.965 4.39 4.388 4.39 2.424 0 4.388-1.965 4.388-4.39 0-1.165-.462-2.282-1.285-3.105-.82-.824-1.93-1.286-3.1-1.286-1.16 0-2.28.46-3.1 1.28-.82.82-1.28 1.94-1.28 3.1z" fill="#000"/><path d="M1153.927 288.026c0 10.106 25.61 18.3 57.2 18.3 15.17 0 29.718-1.93 40.445-5.36 10.727-3.433 16.753-8.087 16.753-12.94s-6.026-9.508-16.753-12.94c-10.727-3.43-25.276-5.36-40.446-5.36-31.59 0-57.2 8.194-57.2 18.3z" stroke="#000" stroke-width="4.158" fill="#D40000"/><path stroke="#000" stroke-width="4" fill="#CDA500" d="M1252.508 341.068l53.123-76.29-68.95 33.982-25.16-59.517-24.89 59.854-73.93-33.646 58.83 76.17 80.99-.54z"/><path d="M1197.017 231.632c0 8.245 6.68 14.928 14.918 14.928 3.956 0 7.75-1.572 10.548-4.372s4.37-6.597 4.37-10.556c0-3.96-1.572-7.757-4.37-10.557-2.797-2.8-6.592-4.372-10.548-4.372-8.24 0-14.918 6.684-14.918 14.93zm94.295 33.668c0 8.244 6.68 14.927 14.918 14.927 3.956 0 7.75-1.572 10.548-4.372s4.37-6.597 4.37-10.556c0-3.96-1.572-7.76-4.37-10.56-2.797-2.8-6.592-4.37-10.548-4.37-8.24 0-14.918 6.68-14.918 14.93zm-191.75-.337c0 8.245 6.68 14.93 14.918 14.93 3.957 0 7.75-1.574 10.55-4.374 2.797-2.8 4.368-6.6 4.368-10.56 0-3.96-1.57-7.76-4.37-10.56-2.797-2.8-6.59-4.37-10.548-4.37-8.238 0-14.917 6.68-14.917 14.93zm93.352 49.442c0 10.106 8.187 18.3 18.286 18.3 4.85 0 9.5-1.93 12.93-5.36 3.428-3.433 5.355-8.087 5.355-12.94s-1.927-9.508-5.356-12.94c-3.43-3.43-8.08-5.36-12.93-5.36-10.1 0-18.29 8.194-18.29 18.3z" stroke="#000" stroke-width="4" fill="#FC0"/><path d="M1189.587 396.884c6.21 3.742 45.317 1.363 48.698-.42 3.38-1.782-15.404 14.512-25.113 14.477-9.708-.03-29.794-17.79-23.585-14.05z" stroke="#000" stroke-width="3.209" fill="#FAA"/><path d="M1212.34 464.603l-16.76-52.803c10.087 9.866 20.893 13.186 33.515 0l-16.758 52.803z" stroke="#000" stroke-width="4" stroke-linecap="round" stroke-linejoin="round" fill="#CCC"/><path d="M1185.973 352.787l20.368 6.087m33.63-6.087l-20.36 6.087m-8.06 28.623c-10.61-9.464-20.19 10.605-29.28.688m31.04-.688c10.62-9.464 20.2 10.605 29.28.688" stroke="#000" stroke-width="4" stroke-linecap="round"/><g stroke="#000" fill="#FFF"><path d="M853.33 29.085c-34.213 0-64.825 11.812-85.388 30.41-7.056-1.07-14.37-1.642-21.833-1.642-61.92 0-112.11 38.643-112.11 86.303 0 20.538 9.33 39.395 24.9 54.212-6.96 11.23-10.86 23.826-10.86 37.096 0 47.66 50.19 86.303 112.11 86.303 6.88 0 13.59-.538 20.13-1.452 20.55 19.513 51.91 32.015 87.08 32.015 32.62 0 62-10.763 82.48-27.89 7.85 1.342 15.98 2.064 24.36 2.064 59.71 0 108.5-35.95 111.9-81.26 23.98-15.827 39.19-39.298 39.19-65.52 0-39.012-33.63-71.957-79.79-82.635-14.84-34.29-56.87-59.03-106.39-59.03-10.02 0-19.72 1.04-28.96 2.94-16.67-7.56-36.1-11.92-56.84-11.92z" stroke-width="4.161"/><path d="M1099.588 318.44c0 4.096-2.4 8.024-6.676 10.92-4.275 2.896-10.072 4.522-16.118 4.522-6.045 0-11.843-1.626-16.118-4.522-4.274-2.896-6.676-6.824-6.676-10.92 0-4.094 2.402-8.022 6.676-10.917 4.275-2.896 10.073-4.523 16.118-4.523 6.046 0 11.843 1.627 16.118 4.523 4.275 2.895 6.676 6.823 6.676 10.918zm32.765 22.325c0 6.497-7.243 11.764-16.177 11.764S1100 347.26 1100 340.76c0-6.498 7.242-11.765 16.176-11.765 8.934 0 16.177 5.266 16.177 11.764zm29.06 20.795c0 5.278-6.585 9.558-14.707 9.558s-14.706-4.28-14.706-9.56c0-5.278 6.584-9.558 14.706-9.558s14.706 4.28 14.706 9.56z" stroke-width="4"/></g><path d="M686.148 118.094h.47c.77.427 1.155 1.083 1.155 1.97v.5c0 5.342.46 11.603 1.375 18.78h.235c5.083-13.51 8.078-20.266 8.984-20.266h.688c.677 0 1.75 4.698 3.218 14.094 1.386 4.812 2.08 8.844 2.08 12.094-.45 1.156-1.142 1.734-2.08 1.734-.614 0-1.458-4.036-2.53-12.11l-1.845-7.906c-1.322 2.157-3.703 7.756-7.14 16.797-.99 1.03-1.834 1.6-2.53 1.74-2 0-3-2.72-3-8.15L684.086 127h-.234l-6.907 15.813c-.416 2.636-.802 3.954-1.156 3.954h-.93l-.92-.983v-1.234c0-2.22 1.92-6.995 5.76-14.328 2.73-7.7 4.49-11.65 5.29-11.86l1.14-.25zm24.735 3.89c.666.27 1.036.552 1.11.844-1.188 7.427-1.782 12.823-1.782 16.188v2.312c3.98 0 7.24-1.823 9.79-5.47 1-8.832 1.97-13.25 2.89-13.25h.24c.89.095 1.33.31 1.33.642-1.33 8.042-2 14.068-2 18.078v3.36c0 1.104-.44 1.874-1.34 2.312h-.89l-.87-.844v-.422l.22-3.562c-.53 0-3.42 1.328-8.67 3.984l-1.56.422c-1.78-.23-2.67-1-2.67-2.312v-.203c1.09-14.72 2.35-22.08 3.78-22.08h.46zm30.906 0c.74.198 1.1.703 1.1 1.516v.203c-1.04 15.386-1.78 23.078-2.22 23.078l-.24.22h-.66c-.77 0-1.3-.36-1.57-1.07.29-2.05.43-4.92.43-8.62h-.22l-9.35 2.16-.66.86v4.1c0 1.22-.45 2.09-1.35 2.6h-.44c-.84 0-1.36-.36-1.56-1.07 1.03-15.53 2.51-23.3 4.45-23.3h.44l.67.88c-1.04 5.16-1.56 8.97-1.56 11.43 6.82-.9 10.23-1.97 10.23-3.23l.89-9.06 1.56-.64zm12.15.047h.75c1.03 0 2.34 4.77 3.92 14.3 1.25 4.5 1.87 7.56 1.87 9.17-.26.86-.76 1.28-1.5 1.28-.96 0-1.65-2.27-2.06-6.82l-.19-.2h-.19c-1.63.02-5.05 1.02-10.28 2.99-.5 2.85-1.31 4.27-2.44 4.27-.75-.29-1.13-.86-1.13-1.7 0-1.64 3.43-9.18 10.29-22.62l.93-.64zm-.38 5.97c-1.5 2.71-2.88 5.56-4.13 8.55h1.31c1.27 0 2.89-.28 4.87-.86l-1.68-7.69h-.38zm25.22-6.01c.74.2 1.1.71 1.1 1.52v.21c-1.04 15.39-1.78 23.08-2.22 23.08l-.24.22h-.66c-.77 0-1.29-.36-1.56-1.07.29-2.05.43-4.93.43-8.62h-.22l-9.34 2.16-.66.86v4.09c0 1.22-.45 2.09-1.35 2.6h-.44c-.83 0-1.36-.36-1.56-1.08 1.03-15.53 2.51-23.29 4.45-23.29h.43l.67.88c-1.05 5.16-1.57 8.96-1.57 11.42 6.83-.89 10.24-1.97 10.24-3.23l.89-9.06 1.56-.64zm12.15.05h.75c1.03 0 2.34 4.77 3.92 14.3 1.25 4.5 1.87 7.56 1.87 9.18-.26.86-.76 1.28-1.5 1.28-.96 0-1.65-2.27-2.06-6.82l-.19-.2h-.19c-1.63.02-5.05 1.02-10.28 2.98-.5 2.85-1.31 4.27-2.44 4.27-.75-.29-1.13-.86-1.13-1.7 0-1.64 3.43-9.19 10.29-22.62l.94-.64zm-.38 5.97c-1.5 2.71-2.88 5.56-4.13 8.55h1.31c1.27 0 2.89-.28 4.87-.86l-1.69-7.69h-.38zm25.22-6.01c.74.2 1.1.71 1.1 1.52v.21c-1.04 15.39-1.78 23.08-2.22 23.08l-.24.22h-.66c-.77 0-1.29-.36-1.56-1.07.29-2.05.43-4.93.43-8.62h-.22l-9.34 2.16-.66.86v4.1c0 1.22-.45 2.08-1.35 2.59h-.44c-.84 0-1.36-.36-1.57-1.07 1.03-15.53 2.51-23.3 4.45-23.3h.44l.67.88c-1.04 5.16-1.56 8.97-1.56 11.42 6.82-.89 10.23-1.97 10.23-3.23l.89-9.06 1.56-.64zm12.15.05h.75c1.03 0 2.34 4.77 3.92 14.3 1.25 4.5 1.87 7.56 1.87 9.18-.26.86-.76 1.28-1.5 1.28-.96 0-1.65-2.27-2.06-6.82l-.19-.2h-.19c-1.63.02-5.05 1.02-10.28 2.99-.5 2.85-1.32 4.27-2.44 4.27-.75-.29-1.13-.86-1.13-1.7 0-1.65 3.43-9.19 10.3-22.63l.94-.64zm-.38 5.97c-1.5 2.71-2.88 5.56-4.13 8.55h1.31c1.27 0 2.89-.28 4.87-.86l-1.68-7.7h-.37zm25.22-6.01c.74.2 1.1.71 1.1 1.52v.2c-1.04 15.39-1.78 23.08-2.22 23.08l-.24.22h-.66c-.77 0-1.3-.36-1.57-1.08.29-2.05.44-4.92.44-8.62h-.22l-9.35 2.16-.66.86v4.1c0 1.22-.45 2.09-1.35 2.6h-.44c-.83 0-1.35-.36-1.56-1.08 1.03-15.53 2.51-23.29 4.45-23.29h.44l.67.88c-1.04 5.16-1.56 8.97-1.56 11.43 6.82-.89 10.23-1.97 10.23-3.23l.89-9.06 1.56-.64zm12.15.05h.75c1.03 0 2.34 4.77 3.92 14.3 1.25 4.5 1.87 7.56 1.87 9.17-.26.86-.76 1.28-1.5 1.28-.95 0-1.64-2.27-2.06-6.82l-.19-.2h-.18c-1.63.02-5.05 1.02-10.28 2.99-.5 2.84-1.31 4.27-2.44 4.27-.75-.29-1.13-.86-1.13-1.7 0-1.64 3.43-9.19 10.29-22.62l.94-.64zm-.38 5.97c-1.5 2.71-2.88 5.56-4.13 8.55h1.31c1.27 0 2.89-.28 4.87-.86l-1.69-7.69h-.38zm16.01 12.75c.66.2 1.15.56 1.45 1.08v.42c0 2.48-1.86 5.56-5.58 9.22l-.97.22h-.25c-.88 0-1.52-.36-1.94-1.08v-.22c2.91-3.23 4.37-6.08 4.37-8.56.89-.72 1.86-1.08 2.9-1.08zm18.33-18.72c.7 0 1.04 2.42 1.04 7.25l1.41 9.19h.34c0-.53 1.4-3.38 4.2-8.54.44-3.41 1.25-5.11 2.45-5.11h.34c.71 0 1.29 2.63 1.75 7.89.78 3.59 1.36 5.73 1.75 6.41.37-1.81 2.24-7.15 5.61-16.01.49-.57.96-.85 1.4-.85.63 0 1.03.28 1.22.85 0 .73-1.75 5.49-5.25 14.3-.59 2.09-1.11 4.93-1.58 8.55-.38.71-.85 1.07-1.41 1.07-1.07 0-1.88-2.42-2.44-7.25-1.14-4.72-1.85-7.28-2.11-7.69l-3.5 6.83c-.58 1.33-1.11 3.61-1.58 6.83-.31.52-.78.88-1.39 1.06-.98 0-1.8-3.69-2.45-11.09-.94-5.23-1.41-9.42-1.41-12.59 0-.43.52-.78 1.58-1.06zm38.22-.04c.74.2 1.11.71 1.11 1.52v.21c-1.04 15.39-1.78 23.08-2.22 23.08l-.24.22h-.66c-.77 0-1.29-.36-1.56-1.07.29-2.05.43-4.93.43-8.63h-.22l-9.35 2.16-.66.86v4.09c0 1.22-.45 2.08-1.35 2.59h-.4c-.84 0-1.36-.36-1.56-1.07 1.03-15.53 2.51-23.3 4.45-23.3h.43l.67.87c-1.05 5.16-1.57 8.97-1.57 11.42 6.82-.89 10.23-1.97 10.23-3.23l.89-9.06 1.56-.64zm19.22.05c.72.16 1.08.71 1.08 1.65-.23 1.77-.95 2.66-2.14 2.66-7.86 0-11.79 1.1-11.79 3.28l-.22 1.85v1.01c5.12-1.23 8.62-1.84 10.5-1.84h.42c.72.31 1.08 1 1.08 2.05 0 1.5-1 2.25-3 2.25-6.58.86-9.86 1.88-9.86 3.08l-.21 2.05v.82c0 1.23.78 1.91 2.34 2.04 2.46-.27 5.53-.88 9.22-1.84h.64c.57.22.86.7.86 1.44v.61c0 1.68-3.58 2.98-10.72 3.89h-.64c-2.58 0-4-1.63-4.29-4.9 0-2.4.5-6.98 1.5-13.72l-.42-1.23c0-2.77 4.28-4.4 12.84-4.9l2.78-.2zm4.51-.04c.95 0 2.08 1.78 3.41 5.35 2.56 5.25 5.41 9.74 8.55 13.47 1.05-10.28 1.83-16.34 2.34-18.17l.86-.64h.64c.42 0 .64.29.64.86-1.28 14.69-2.06 22.53-2.35 23.52l-1.28.42c-2.28 0-6.13-4.84-11.53-14.53l-.86-.86-.22.64-.64 9.85v1.28l.21 1.28c-.19 1.71-.76 2.56-1.71 2.56-.88-.31-1.38-.74-1.5-1.28 1.09-15.39 1.87-23.09 2.34-23.09l1.07-.64zm48.33-.01c1.35 0 2.03.56 2.03 1.69v.42c0 1.55-1.21 2.33-3.62 2.33l-4.51.22c-1.36 7.22-2.03 13.43-2.03 18.63-.37 1.13-.74 1.69-1.13 1.69h-.69c-.78 0-1.24-.21-1.36-.64.76-7.99 1.59-14.48 2.48-19.47l-6.78 1.06c-.64 0-1.01-.63-1.13-1.9 0-2.12 1.88-3.17 5.65-3.17 2.26-.57 5.95-.85 11.08-.85zm18.08.01c.74.2 1.11.71 1.11 1.52v.2c-1.04 15.39-1.78 23.08-2.22 23.08l-.23.22h-.66c-.77 0-1.29-.36-1.56-1.08.29-2.05.43-4.93.43-8.62h-.22l-9.35 2.16-.66.86v4.09c0 1.22-.45 2.09-1.35 2.6h-.44c-.83 0-1.35-.36-1.56-1.08 1.03-15.53 2.51-23.29 4.45-23.29h.43l.67.88c-1.04 5.16-1.56 8.97-1.56 11.42 6.82-.89 10.23-1.97 10.23-3.23l.89-9.06 1.57-.64zm19.22.05c.72.16 1.08.71 1.08 1.65-.23 1.77-.95 2.66-2.14 2.66-7.86 0-11.79 1.09-11.79 3.28l-.22 1.85v1.02c5.12-1.23 8.62-1.84 10.5-1.84h.42c.72.31 1.08.99 1.08 2.04 0 1.5-1 2.25-3 2.25-6.58.86-9.86 1.88-9.86 3.08l-.21 2.05v.81c0 1.23.78 1.91 2.34 2.05 2.46-.27 5.53-.89 9.22-1.85h.64c.57.22.86.7.86 1.44v.61c0 1.68-3.58 2.97-10.72 3.89h-.64c-2.58 0-4-1.63-4.28-4.9 0-2.4.5-6.98 1.5-13.72l-.43-1.23c0-2.77 4.28-4.41 12.85-4.91l2.78-.2zm3 0l4.78 7.25 2.09 1.72c2.65-4.7 4.49-7.55 5.53-8.54h.96l.76.86c-.11.76-3.1 6.09-8.97 16-1.48 2.78-2.56 5.27-3.25 7.47l-.56.22c-.9-.42-1.35-1.06-1.35-1.92.05-1.12 1.58-4.6 4.58-10.45-4.33-4.64-6.49-8.41-6.49-11.31.8-.85 1.43-1.28 1.9-1.28zm-316.65 41.9c1.35 0 2.03.56 2.03 1.69v.43c0 1.55-1.21 2.33-3.63 2.33l-4.52.22c-1.35 7.22-2.03 13.43-2.03 18.63-.36 1.12-.74 1.68-1.12 1.68h-.69c-.78 0-1.23-.22-1.36-.64.76-7.99 1.59-14.48 2.49-19.47l-6.78 1.06c-.63 0-1.01-.64-1.12-1.91 0-2.11 1.89-3.17 5.66-3.17 2.26-.56 5.96-.84 11.08-.84zm18.09.06c.72.16 1.08.71 1.08 1.64-.23 1.77-.95 2.66-2.14 2.66-7.85 0-11.78 1.1-11.78 3.28l-.22 1.85v1.01c5.13-1.23 8.63-1.84 10.5-1.84h.43c.72.31 1.08.99 1.08 2.04 0 1.5-1 2.25-3 2.25-6.57.85-9.86 1.88-9.86 3.08l-.2 2.05v.82c0 1.23.79 1.91 2.35 2.05 2.46-.27 5.53-.88 9.22-1.84h.64c.57.22.86.7.86 1.44v.61c0 1.68-3.57 2.97-10.72 3.89h-.64c-2.57 0-4-1.63-4.28-4.9 0-2.4.5-6.98 1.5-13.72l-.42-1.23c0-2.77 4.28-4.4 12.85-4.9l2.78-.2zm4.29-.04h.22c.67 0 1.24.35 1.7 1.04-.99 7.21-1.7 13.66-2.13 19.35l12.19-2.51.42.63v1.27c0 1.91-4.42 3.66-13.25 5.25-1.57-.28-2.36-.77-2.36-1.47 1.17-15.42 2.02-23.13 2.56-23.13l.64-.42zm16.14 0h.22c.67 0 1.24.35 1.7 1.04-.99 7.21-1.7 13.66-2.13 19.35l12.18-2.51.42.63v1.27c0 1.91-4.42 3.66-13.25 5.25-1.57-.28-2.36-.77-2.36-1.47 1.17-15.42 2.02-23.13 2.56-23.13l.64-.42zm35.92 0h.4c.66.36 1 .93 1 1.7v.44c0 4.62.4 10.04 1.22 16.25h.2c4.46-11.69 7.08-17.53 7.87-17.53h.61c.59 0 1.53 4.06 2.83 12.18 1.21 4.17 1.81 7.66 1.81 10.47-.4 1-1 1.5-1.81 1.5-.54 0-1.28-3.49-2.22-10.48l-1.63-6.83c-1.16 1.85-3.25 6.69-6.27 14.53-.87.88-1.61 1.38-2.22 1.5-1.75 0-2.63-2.36-2.63-7.07l-1-8.97h-.21l-6.07 13.67c-.37 2.28-.71 3.42-1.02 3.42h-.8l-.81-.85v-1.08c0-1.92 1.68-6.05 5.05-12.39 2.39-6.67 3.94-10.09 4.64-10.27l1.02-.22zm34.25.04c.72.16 1.07.71 1.07 1.64-.23 1.77-.94 2.66-2.14 2.66-7.85 0-11.78 1.1-11.78 3.28l-.22 1.85v1.02c5.13-1.23 8.63-1.84 10.5-1.84h.43c.72.32 1.08 1 1.08 2.05 0 1.5-1 2.25-3 2.25-6.57.86-9.86 1.88-9.86 3.08l-.2 2.05v.81c0 1.23.78 1.91 2.35 2.05 2.46-.27 5.53-.88 9.22-1.84h.64c.58.22.86.7.86 1.44v.61c0 1.68-3.57 2.98-10.71 3.89h-.64c-2.57 0-4-1.63-4.28-4.9 0-2.4.5-6.98 1.5-13.72l-.42-1.23c0-2.77 4.28-4.4 12.85-4.9l2.78-.2zm15.95 0c.7 0 1.04 2.42 1.04 7.25l1.4 9.19h.34c0-.53 1.4-3.38 4.2-8.55.44-3.4 1.26-5.11 2.45-5.11h.35c.71 0 1.29 2.63 1.75 7.89.78 3.6 1.36 5.73 1.75 6.41.37-1.81 2.24-7.15 5.61-16.01.49-.56.96-.84 1.4-.84.62 0 1.03.28 1.22.85 0 .73-1.75 5.5-5.25 14.3-.59 2.09-1.11 4.94-1.58 8.55-.38.71-.85 1.07-1.41 1.07-1.07 0-1.88-2.41-2.44-7.25-1.15-4.72-1.85-7.28-2.11-7.68l-3.5 6.83c-.58 1.33-1.11 3.61-1.58 6.83-.32.52-.78.88-1.39 1.06-.98 0-1.8-3.69-2.46-11.09-.94-5.23-1.41-9.43-1.41-12.59 0-.42.52-.78 1.58-1.06zm38.22-.04c.74.2 1.11.7 1.11 1.52v.2c-1.05 15.39-1.79 23.08-2.22 23.08l-.24.22h-.66c-.77 0-1.3-.36-1.57-1.07.29-2.05.44-4.93.44-8.62h-.22l-9.34 2.16-.65.86v4.1c0 1.22-.45 2.08-1.34 2.59h-.43c-.83 0-1.35-.36-1.56-1.08 1.03-15.53 2.52-23.29 4.46-23.29h.44l.67.88c-1.04 5.16-1.56 8.96-1.56 11.42 6.83-.9 10.24-1.97 10.24-3.23l.89-9.06 1.57-.64zm19.21.05c.72.16 1.08.7 1.08 1.64-.23 1.77-.95 2.65-2.14 2.65-7.86 0-11.78 1.1-11.78 3.28l-.22 1.85v1.02c5.12-1.23 8.62-1.85 10.5-1.85h.42c.72.32 1.07 1 1.07 2.05 0 1.5-1 2.25-3 2.25-6.57.86-9.86 1.88-9.86 3.08l-.2 2.05v.81c0 1.23.78 1.91 2.34 2.05 2.46-.27 5.53-.88 9.22-1.84h.64c.57.22.86.7.86 1.44v.61c0 1.68-3.58 2.97-10.72 3.89h-.64c-2.58 0-4-1.63-4.28-4.9 0-2.41.5-6.98 1.5-13.72l-.42-1.23c0-2.77 4.28-4.41 12.84-4.91l2.78-.2zm12.72-.05h2.15c3.3 0 4.95 1.15 4.95 3.46v.22c0 4.03-3.45 7.7-10.35 11v.2c3.44 3.17 6.32 5.54 8.62 7.13v.64c0 1.12-.36 1.84-1.08 2.16h-.86l-11.85-8.4-.22 4.31v3.24c-.37.72-.94 1.08-1.72 1.08-.58 0-1.01-.28-1.3-.86v-1.29l1.94-16.83c-.58 0-.86-.43-.86-1.28 0-2.59 2.15-4.1 6.45-4.53l4.09-.22zm-7.53 11.64h.22c7.45-1.91 11.18-4 11.18-6.25v-.22c0-.39-.72-.68-2.16-.86-2.38 0-5.25.51-8.61 1.52l-.64 5.81zm31.34-11.59c.72.16 1.08.7 1.08 1.64-.23 1.77-.95 2.66-2.14 2.66-7.86 0-11.79 1.09-11.79 3.28l-.22 1.84v1.02c5.13-1.23 8.63-1.85 10.5-1.85h.42c.71.31 1.07.99 1.07 2.04 0 1.5-1 2.25-3 2.25-6.57.85-9.86 1.88-9.86 3.07l-.2 2.05v.81c0 1.23.78 1.91 2.35 2.05 2.46-.27 5.53-.89 9.22-1.85h.64c.58.22.86.7.86 1.44v.61c0 1.67-3.57 2.97-10.72 3.89H939c-2.57 0-4-1.64-4.28-4.91 0-2.41.5-6.98 1.5-13.72l-.42-1.24c0-2.77 4.28-4.4 12.85-4.9l2.78-.2zm31.72-.06c1.35 0 2.03.56 2.03 1.69v.42c0 1.55-1.21 2.33-3.63 2.33l-4.51.22c-1.35 7.22-2.03 13.43-2.03 18.63-.36 1.13-.74 1.69-1.12 1.69h-.69c-.78 0-1.23-.21-1.36-.64.76-7.99 1.59-14.48 2.49-19.47l-6.78 1.06c-.63 0-1.01-.63-1.12-1.9 0-2.12 1.89-3.17 5.66-3.17 2.26-.56 5.95-.84 11.08-.84zm18.08.01c.73.2 1.1.71 1.1 1.52v.21c-1.04 15.39-1.78 23.08-2.22 23.08l-.23.22h-.66c-.77 0-1.29-.36-1.57-1.08.29-2.05.43-4.92.43-8.62h-.22l-9.35 2.16-.66.86v4.1c0 1.22-.45 2.09-1.35 2.6h-.44c-.84 0-1.36-.36-1.57-1.08 1.03-15.53 2.51-23.3 4.45-23.3h.43l.67.87c-1.05 5.16-1.57 8.96-1.57 11.42 6.82-.89 10.23-1.97 10.23-3.23l.89-9.06 1.56-.64zm19.21.05c.72.16 1.08.71 1.08 1.64-.23 1.77-.94 2.66-2.14 2.66-7.85 0-11.78 1.09-11.78 3.28l-.22 1.85v1.02c5.13-1.23 8.63-1.84 10.5-1.84h.42c.72.31 1.08 1 1.08 2.05 0 1.5-1 2.25-3 2.25-6.57.86-9.86 1.88-9.86 3.08l-.2 2.05v.81c0 1.23.78 1.91 2.35 2.05 2.46-.27 5.53-.88 9.22-1.84h.64c.58.22.86.7.86 1.44v.61c0 1.68-3.57 2.98-10.72 3.89h-.64c-2.57 0-4-1.63-4.28-4.9 0-2.41.5-6.98 1.5-13.72l-.42-1.23c0-2.77 4.28-4.4 12.85-4.9l2.78-.2zm-315.59 42c4.22 0 6.33 1.44 6.33 4.32v.64c0 2.01-.95 3.95-2.86 5.82v.22c3.14.95 4.71 2.53 4.71 4.74v.86c0 3.6-3.54 6.26-10.62 7.95l-3.48.44h-2.03c-1.09 0-1.64-.57-1.64-1.72v-.22l1.64-17.65c-.69 0-1.03-.14-1.03-.42v-1.3c0-2.43 3-3.65 9-3.65zm-5.94 9.69h.22c6.4 0 9.6-1.44 9.6-4.31-1.05-.7-2.82-1.06-5.31-1.06h-2.45c-1.08 0-1.62.5-1.62 1.5l-.42 3.88zm-.4 4.09l-.4 6.88 2.05.44.21-.22h1.02c5.73-.75 8.6-2.11 8.6-4.08-1.88-2.01-4.81-3.01-8.79-3.01h-.81l-.21-.21-.21.22h-1.44zm25.24-13.78h.75c1.03 0 2.34 4.77 3.92 14.3 1.25 4.5 1.88 7.56 1.88 9.17-.26.86-.76 1.28-1.5 1.28-.96 0-1.65-2.27-2.06-6.82l-.18-.2h-.19c-1.62.02-5.05 1.02-10.28 2.99-.5 2.84-1.31 4.27-2.43 4.27-.75-.29-1.12-.86-1.12-1.7 0-1.65 3.43-9.19 10.29-22.63l.94-.64zm-.37 5.97c-1.5 2.71-2.87 5.56-4.12 8.55h1.31c1.27 0 2.9-.29 4.88-.86l-1.69-7.69h-.37zm18.14-5.97c4.22 0 6.33 1.44 6.33 4.32v.64c0 2.01-.95 3.95-2.86 5.81v.22c3.14.95 4.71 2.53 4.71 4.73v.86c0 3.6-3.54 6.25-10.62 7.95l-3.48.44h-2.03c-1.09 0-1.64-.57-1.64-1.72v-.22l1.64-17.66c-.68 0-1.03-.14-1.03-.42v-1.29c0-2.44 3-3.65 9-3.65zm-5.93 9.69h.22c6.4 0 9.6-1.44 9.6-4.31-1.05-.71-2.82-1.06-5.31-1.06h-2.45c-1.08 0-1.62.5-1.62 1.5l-.42 3.88zm-.4 4.1l-.4 6.88 2.05.44.21-.22h1.02c5.73-.75 8.59-2.1 8.59-4.07-1.89-2.01-4.82-3.02-8.8-3.02h-.81l-.21-.22-.2.22h-1.44zm17.5-13.78l4.78 7.25 2.1 1.72c2.65-4.7 4.49-7.55 5.53-8.54h.95l.77.86c-.1.76-3.09 6.1-8.97 16-1.48 2.78-2.56 5.27-3.25 7.47l-.56.22c-.89-.42-1.34-1.06-1.34-1.92.05-1.11 1.58-4.6 4.58-10.45-4.32-4.65-6.48-8.42-6.48-11.31.8-.85 1.44-1.28 1.9-1.28zm30.74-.1h1.47c.49 0 .74.29.74.86-1.15 9.36-1.72 15.85-1.72 19.47v2.38c-.32 1.59-1.13 2.38-2.44 2.38H781l-.984-.86c.656-9.81 1.474-17.6 2.453-23.36l.97-.86zm16.91.11h.33c1.44.18 2.16.88 2.16 2.1v.42c0 2.1-.72 4.06-2.16 5.88h-.33c-.23-.06-.45-.41-.67-1.04l.84-3.14-.66-.42c-1.53.14-4.34 1.81-8.44 5.03v.2l10.9 2.11c1.1.88 1.66 2.35 1.66 4.41v1.25c0 2.82-1.82 5.27-5.46 7.34-1.43.56-2.81.85-4.14.85h-.4c-3.79 0-6.11-1.67-6.94-5.03v-1.26c0-1.54.39-2.31 1.16-2.31.76 2.67 2.14 4 4.14 4 0 .27.82.41 2.48.41 2.44 0 4.81-1.26 7.11-3.77 0-1.66-3.53-2.71-10.58-3.15-2.54-.71-3.81-1.75-3.81-3.14 0-3.41 3.41-6.83 10.25-10.28l2.48-.42zm31.99 9.41l.48.42v1.94c0 1.26-3.14 2.05-9.42 2.36-2.26 0-3.39-.43-3.39-1.28v-.22c0-1.57.72-2.35 2.17-2.35h4.36l5.8-.86zm20.56-13.4h1.61c.53 0 .8.34.8 1-1.25 10.8-1.87 18.29-1.87 22.47v2.75c-.36 1.83-1.24 2.75-2.66 2.75h-.55l-1.07-1c.71-11.32 1.6-20.31 2.67-26.97l1.06-1zm9.94.02c1.52.49 2.28 1.16 2.28 2-.32 1.32-2.32 4.23-5.98 8.72h-1.44l-1.13-.89v-.67l4.28-6.92c.29-1.49.95-2.23 1.98-2.23zm6.22 3.94h.22c.68 0 1.24.35 1.7 1.05-.99 7.21-1.7 13.66-2.12 19.35l12.19-2.52.42.62v1.26c0 1.92-4.42 3.67-13.25 5.25-1.58-.28-2.36-.77-2.36-1.47 1.16-15.42 2.02-23.12 2.56-23.12l.64-.42zm16.14 0h.22c.68 0 1.24.35 1.7 1.05-.99 7.21-1.7 13.66-2.12 19.35l12.19-2.52.42.62v1.26c0 1.92-4.42 3.67-13.25 5.25-1.58-.28-2.36-.77-2.36-1.47 1.16-15.42 2.02-23.12 2.56-23.12l.64-.42zm39.45.05h.33c1.44.18 2.16.88 2.16 2.1v.42c0 2.11-.72 4.06-2.16 5.88h-.33c-.23-.06-.45-.41-.67-1.05l.84-3.14-.66-.43c-1.53.14-4.35 1.82-8.44 5.03v.21l10.91 2.11c1.1.87 1.65 2.34 1.65 4.4v1.25c0 2.83-1.82 5.27-5.45 7.35-1.43.57-2.81.85-4.14.85h-.34c-3.79 0-6.1-1.68-6.94-5.03v-1.28c0-1.54.39-2.31 1.16-2.31.76 2.67 2.14 4 4.14 4 0 .27.83.41 2.49.41 2.45 0 4.82-1.25 7.11-3.76 0-1.67-3.53-2.72-10.58-3.16-2.54-.71-3.81-1.75-3.81-3.14 0-3.41 3.41-6.83 10.25-10.28l2.48-.42zm22.27 0c.72.16 1.08.7 1.08 1.64-.23 1.77-.94 2.66-2.14 2.66-7.85 0-11.78 1.1-11.78 3.28l-.22 1.85v1.01c5.12-1.23 8.62-1.84 10.5-1.84h.42c.72.31 1.08 1 1.08 2.05 0 1.5-1 2.25-3 2.25-6.58.86-9.86 1.88-9.86 3.08l-.21 2.05v.81c0 1.23.78 1.91 2.34 2.05 2.45-.27 5.53-.88 9.22-1.84h.64c.57.22.86.7.86 1.44v.61c0 1.68-3.58 2.97-10.72 3.89h-.64c-2.58 0-4-1.63-4.29-4.91 0-2.41.5-6.98 1.5-13.72l-.43-1.23c0-2.77 4.28-4.4 12.85-4.9l2.78-.2zm4.52-.05c.95 0 2.08 1.78 3.41 5.34 2.56 5.25 5.41 9.74 8.55 13.47 1.05-10.28 1.83-16.34 2.34-18.17l.86-.64h.64c.42 0 .64.29.64.86-1.28 14.69-2.07 22.52-2.35 23.51l-1.28.42c-2.28 0-6.13-4.84-11.53-14.53l-.86-.86-.22.64-.64 9.85v1.28l.22 1.28c-.19 1.71-.76 2.56-1.7 2.56-.87-.31-1.37-.74-1.5-1.28 1.1-15.39 1.88-23.09 2.35-23.09l1.08-.64zm26.03 0h.95c4.53 0 7.3 1.79 8.33 5.39l.18 1.72c0 7.15-5.3 13.05-15.91 17.68l-.94.22h-.2c-.28 0-.53-.51-.75-1.52l1.89-18.55c-.76 0-1.14-.21-1.14-.64v-.43c0-2.3 1.01-3.44 3.03-3.44l4.55-.44zm-3.78 4.53c-1.14 7.37-1.7 12.33-1.7 14.87v1.08c7.95-3.97 11.92-7.71 11.92-11.22v-.2c0-2.02-.57-3.03-1.71-3.03-1.41-1-3.68-1.5-6.82-1.5h-1.7zm36.23-4.54h.4c.67.37 1 .94 1 1.71v.44c0 4.62.41 10.04 1.22 16.25h.2c4.46-11.69 7.08-17.53 7.87-17.53h.61c.59 0 1.54 4.06 2.83 12.19 1.21 4.17 1.81 7.66 1.81 10.47-.4 1-1 1.5-1.81 1.5-.54 0-1.28-3.49-2.22-10.48l-1.62-6.83c-1.16 1.86-3.25 6.7-6.27 14.53-.87.89-1.61 1.39-2.22 1.5-1.75 0-2.63-2.35-2.63-7.06l-1-8.97h-.2l-6.06 13.67c-.37 2.28-.71 3.42-1.02 3.42h-.8l-.82-.84v-1.08c0-1.92 1.68-6.05 5.05-12.39 2.4-6.67 3.94-10.09 4.64-10.27l1.02-.22zm19.45.05l4.78 7.25 2.09 1.72c2.64-4.7 4.49-7.55 5.53-8.54h.95l.77.86c-.11.76-3.09 6.09-8.97 16-1.48 2.78-2.56 5.27-3.25 7.47l-.56.22c-.9-.42-1.35-1.06-1.35-1.93.05-1.11 1.58-4.6 4.58-10.45-4.33-4.65-6.49-8.42-6.49-11.31.8-.86 1.44-1.28 1.91-1.28zm-330.66 42h.32c1.44.18 2.15.88 2.15 2.1v.42c0 2.11-.71 4.06-2.15 5.88h-.32c-.23-.06-.46-.41-.68-1.05l.84-3.14-.66-.42c-1.53.14-4.35 1.82-8.44 5.03v.21l10.91 2.11c1.1.88 1.65 2.35 1.65 4.41v1.25c0 2.82-1.82 5.27-5.45 7.34-1.43.56-2.81.84-4.14.84h-.35c-3.79 0-6.1-1.67-6.94-5.03v-1.28c0-1.54.38-2.31 1.15-2.31.76 2.67 2.14 4 4.14 4 0 .27.83.41 2.48.41 2.45 0 4.82-1.26 7.11-3.77 0-1.67-3.53-2.72-10.58-3.16-2.54-.71-3.81-1.76-3.81-3.14 0-3.41 3.41-6.84 10.25-10.28l2.48-.43zm19.22-.04c4.44.61 6.67 3.28 6.67 7.98 0 6.16-2.44 11.27-7.32 15.31-2.01 1.15-3.8 1.72-5.39 1.72-3.86 0-6.35-2.08-7.47-6.25l-.15-1.94v-.66c0-6.73 3.07-11.83 9.22-15.31 1.54-.57 3.02-.86 4.44-.86zm-11.6 16.83c1.6 2.44 3.72 3.66 6.36 3.66 4.24 0 7.2-2.52 8.89-7.55l.31-2.37c0-3.54-1.75-5.62-5.24-6.25h-.48c-2.89 0-5.9 2.88-9.05 8.63-.53 1.73-.79 3.03-.79 3.89zm22.47-16.83h.22c.67 0 1.24.35 1.7 1.05-.99 7.21-1.7 13.66-2.13 19.35l12.19-2.51.42.63v1.26c0 1.92-4.42 3.67-13.25 5.25-1.57-.28-2.36-.77-2.36-1.47 1.17-15.42 2.02-23.12 2.56-23.12l.64-.42zm21.26 0h.95c4.53 0 7.31 1.8 8.33 5.39l.19 1.72c0 7.16-5.3 13.05-15.91 17.69l-.94.22h-.2c-.28 0-.53-.5-.75-1.51l1.9-18.55c-.76 0-1.14-.22-1.14-.64v-.44c0-2.29 1.01-3.44 3.03-3.44l4.54-.43zm-3.78 4.53c-1.14 7.38-1.7 12.34-1.7 14.88v1.08c7.94-3.97 11.92-7.71 11.92-11.22v-.2c0-2.02-.57-3.03-1.7-3.03-1.41-1-3.68-1.5-6.82-1.5h-1.71zm18.26-4.59h1.5c.49 0 .73.29.73.86-1.15 9.35-1.72 15.84-1.72 19.47v2.37c-.33 1.58-1.14 2.38-2.44 2.38h-.49l-.99-.86c.65-9.81 1.47-17.6 2.45-23.36l.97-.86zm20.38.11c.72.16 1.08.7 1.08 1.64-.23 1.77-.94 2.66-2.14 2.66-7.85 0-11.78 1.1-11.78 3.28l-.22 1.85v1.02c5.12-1.23 8.62-1.84 10.5-1.84h.42c.72.31 1.07 1 1.07 2.05 0 1.5-1 2.25-3 2.25-6.57.85-9.86 1.88-9.86 3.08l-.2 2.05v.81c0 1.23.78 1.91 2.34 2.04 2.45-.27 5.53-.88 9.21-1.84h.64c.57.22.86.7.86 1.44v.61c0 1.68-3.57 2.98-10.72 3.89h-.64c-2.58 0-4-1.63-4.28-4.9 0-2.41.5-6.98 1.5-13.72l-.42-1.24c0-2.77 4.28-4.4 12.84-4.9l2.78-.2zm12.72-.05h2.15c3.3 0 4.95 1.15 4.95 3.46v.22c0 4.03-3.45 7.7-10.34 11v.2c3.45 3.16 6.32 5.54 8.62 7.12v.64c0 1.12-.36 1.83-1.08 2.16h-.86l-11.84-8.41-.22 4.31v3.24c-.37.72-.94 1.08-1.72 1.08-.57 0-1.01-.28-1.3-.86v-1.3l1.94-16.83c-.57 0-.86-.43-.86-1.28 0-2.59 2.15-4.1 6.45-4.53l4.09-.22zm-7.53 11.64h.22c7.45-1.91 11.18-4 11.18-6.25v-.21c0-.4-.72-.68-2.16-.86-2.38 0-5.25.5-8.61 1.52l-.64 5.82zm27.87-11.59h.33c1.44.18 2.15.88 2.15 2.1v.42c0 2.11-.72 4.07-2.16 5.88h-.33c-.23-.06-.45-.41-.67-1.04l.85-3.14-.66-.43c-1.53.14-4.35 1.81-8.44 5.03v.2l10.91 2.11c1.1.88 1.65 2.35 1.65 4.41v1.25c0 2.82-1.82 5.27-5.45 7.34-1.43.57-2.81.85-4.14.85h-.34c-3.79 0-6.11-1.67-6.94-5.03v-1.27c0-1.54.38-2.31 1.16-2.31.76 2.67 2.14 4 4.14 4 0 .27.83.41 2.48.41 2.45 0 4.82-1.25 7.11-3.76 0-1.66-3.53-2.72-10.58-3.15-2.54-.71-3.81-1.75-3.81-3.14 0-3.41 3.41-6.83 10.25-10.28l2.48-.42zm36.19-.06c1.35 0 2.03.56 2.03 1.69v.42c0 1.55-1.21 2.33-3.63 2.33l-4.52.22c-1.35 7.22-2.03 13.43-2.03 18.62-.36 1.13-.74 1.69-1.12 1.69h-.68c-.78 0-1.23-.22-1.36-.64.76-7.99 1.59-14.48 2.49-19.47l-6.78 1.06c-.64 0-1.01-.63-1.13-1.9 0-2.11 1.89-3.17 5.66-3.17 2.26-.56 5.96-.84 11.08-.84zm15.04.01c4.44.62 6.67 3.28 6.67 7.99 0 6.17-2.44 11.27-7.32 15.31-2.01 1.15-3.81 1.72-5.39 1.72-3.87 0-6.36-2.08-7.47-6.25l-.16-1.94v-.65c0-6.73 3.07-11.83 9.22-15.31 1.54-.57 3.02-.86 4.43-.86zm-11.6 16.83c1.6 2.44 3.72 3.66 6.36 3.66 4.24 0 7.2-2.52 8.89-7.55l.31-2.37c0-3.54-1.75-5.62-5.24-6.25h-.49c-2.89 0-5.9 2.88-9.05 8.63-.53 1.73-.8 3.03-.8 3.89zm37.17-16.68l.62.86-.62 8.13 12.75-7.06c.55.69.83 1.54.83 2.56-1.44 2.02-5.13 4.59-11.08 7.7v.22c2.75 3.57 5.88 6.56 9.4 8.97v.44c0 1.99-.69 2.98-2.09 2.98l-10.44-8.55c-.41 5.7-.83 8.55-1.25 8.55l-1.04.22c-.7-.23-1.05-.65-1.05-1.28l.83-10.05-.2-2.56c.48 0 .9-3.14 1.25-9.42.57-1.14 1.27-1.71 2.09-1.71zm18.59-.2h1.47c.49 0 .73.29.73.86-1.14 9.36-1.72 15.85-1.72 19.47v2.38c-.32 1.59-1.13 2.38-2.44 2.38h-.48l-.98-.86c.66-9.81 1.472-17.6 2.45-23.36l.97-.86zm6.88.06h.22c.68 0 1.25.35 1.7 1.04-.99 7.21-1.69 13.66-2.12 19.35l12.19-2.51.42.63v1.27c0 1.91-4.41 3.66-13.25 5.25-1.57-.28-2.36-.77-2.36-1.47 1.17-15.42 2.02-23.13 2.57-23.13l.64-.42zm16.14 0h.22c.67 0 1.24.35 1.7 1.04-.99 7.21-1.7 13.66-2.13 19.35l12.19-2.51.42.63v1.27c0 1.91-4.41 3.66-13.25 5.25-1.57-.28-2.36-.77-2.36-1.47 1.17-15.42 2.02-23.13 2.57-23.13l.64-.42zm42.9 0c.74.2 1.11.7 1.11 1.51v.21c-1.04 15.39-1.78 23.08-2.22 23.08l-.23.22h-.66c-.77 0-1.29-.36-1.56-1.08.29-2.05.44-4.92.44-8.62h-.21l-9.35 2.15-.66.86v4.1c0 1.22-.45 2.09-1.35 2.6h-.44c-.83 0-1.35-.36-1.56-1.08 1.03-15.53 2.52-23.3 4.45-23.3h.43l.67.88c-1.04 5.15-1.56 8.96-1.56 11.42 6.82-.9 10.23-1.97 10.23-3.23l.89-9.06 1.57-.64zm7.53-.06h1.47c.49 0 .74.29.74.86-1.15 9.35-1.72 15.84-1.72 19.47v2.38c-.32 1.58-1.13 2.38-2.44 2.38h-.48l-.98-.86c.65-9.81 1.47-17.59 2.45-23.36l.97-.85zm13.38.06h.41c.67.37 1 .94 1 1.71v.44c0 4.63.41 10.04 1.22 16.25h.2c4.46-11.69 7.08-17.53 7.88-17.53h.61c.59 0 1.53 4.06 2.82 12.19 1.21 4.17 1.81 7.66 1.81 10.47-.39 1-1 1.5-1.81 1.5-.54 0-1.28-3.49-2.22-10.48l-1.62-6.83c-1.16 1.85-3.24 6.7-6.27 14.53-.87.89-1.61 1.39-2.22 1.5-1.75 0-2.63-2.35-2.63-7.06l-1-8.97h-.2l-6.06 13.67c-.36 2.28-.7 3.42-1.01 3.42h-.8l-.81-.84v-1.08c0-1.91 1.68-6.04 5.05-12.39 2.393-6.67 3.94-10.09 4.64-10.26l1.014-.22zm27.89-3.92c.63.29.94.64.94 1.05-2.97 9.56-4.45 15.62-4.45 18.17-.84.98-1.55 1.47-2.12 1.47-.94-.33-1.41-.75-1.41-1.25 1.48-12.96 3.44-19.44 5.87-19.44h1.17zm-5.55 23.45c1.48.28 2.22 1.06 2.22 2.32v.2c-.59 1.98-2.01 2.97-4.26 2.97-1.11 0-1.79-.77-2.01-2.31 0-1.78 1.35-2.84 4.06-3.17zm16.83-23.45c.63.29.94.64.94 1.05-2.97 9.56-4.45 15.62-4.45 18.17-.84.98-1.55 1.47-2.12 1.47-.94-.33-1.41-.75-1.41-1.25 1.48-12.96 3.44-19.44 5.87-19.44h1.17zm-5.55 23.46c1.48.28 2.22 1.06 2.22 2.32v.2c-.59 1.98-2.01 2.97-4.26 2.97-1.11 0-1.78-.77-2.01-2.31 0-1.78 1.35-2.84 4.06-3.17zm16.83-23.45c.63.29.94.64.94 1.05-2.97 9.56-4.45 15.62-4.45 18.17-.84.98-1.55 1.47-2.12 1.47-.94-.33-1.41-.75-1.41-1.25 1.48-12.96 3.44-19.44 5.88-19.44h1.17zm-5.54 23.46c1.48.28 2.22 1.05 2.22 2.31v.2c-.59 1.98-2.02 2.97-4.27 2.97-1.11 0-1.78-.77-2.01-2.31 0-1.78 1.35-2.83 4.06-3.17z" fill="#000"/></g></svg>