<svg width="1540" height="820" viewBox="0 0 1540 820" xmlns="http://www.w3.org/2000/svg" xmlns:xlink="http://www.w3.org/1999/xlink"><title>story03</title><defs><path id="a" d="M0 0h1540v820H0z"/><mask id="b" x="0" y="0" width="1540" height="820" fill="#fff"><use xlink:href="#a"/></mask><path id="d" d="M40 40h788v160H40z"/><filter x="-50%" y="-50%" width="200%" height="200%" filterUnits="objectBoundingBox" id="c"><feOffset dx="6" dy="6" in="SourceAlpha" result="shadowOffsetOuter1"/><feColorMatrix values="0 0 0 0 0 0 0 0 0 0 0 0 0 0 0 0 0 0 1 0" in="shadowOffsetOuter1"/></filter></defs><g fill="none" fill-rule="evenodd"><g transform="translate(0 -1)"><use stroke="#000" mask="url(#b)" stroke-width="8" fill="#402412" xlink:href="#a"/><path stroke="#000" stroke-width="4" fill="#371F0F" d="M235 132h1066v556H235z"/><path d="M4 2l229.457 129.306c0 .384.523.694 1.174.694h1065.19c.65 0 1.18-.31 1.18-.694L1538 2H4z" stroke="#000" stroke-width="4" stroke-linejoin="bevel" fill="#28170B"/><path d="M4 818l229.457-129.306c0-.384.523-.694 1.174-.694h1065.19c.65 0 1.18.31 1.18.694L1538 818H4z" stroke="#000" stroke-width="4" stroke-linejoin="bevel" fill="#2B2200"/><path stroke="#000" stroke-width="4" fill="#00002B" d="M860 190h380v265H860z"/><path fill="#FFE680" d="M942.89 256.34l-11.36-10.833-13.362 8.236 6.795-14.15L913 229.428l15.558 2.088 5.97-14.518 2.82 15.442L953 233.63l-13.815 7.455m99.815 87.24l-15.566-1.807-5.697 14.598-3.093-15.362-15.644-.906 13.654-7.69-3.97-15.158 11.53 10.61 13.19-8.462-6.527 14.247 12.123 9.93m146.11 74.22l-14.287-7.04-10.435 12.034 2.28-15.77-14.668-6.2 15.696-2.71 1.37-15.87 7.42 14.09 15.514-3.6-11.11 11.41 8.22 13.64m-239.405 24.8l-7.184-14.17-15.52 3.36 11.25-11.21-7.98-13.72 14.14 7.23L950.99 387l-2.51 15.68 14.53 6.41-15.69 2.457-1.607 15.796"/><path d="M1157.257 236c17.555 20.147 14.346 51.676-7.168 70.422-21.52 18.745-53.19 17.608-70.74-2.54-.12-.134-.24-.27-.35-.405 0 0 28.59 10.445 57.93-14.61 24.92-21.294 20.32-52.867 20.32-52.867z" stroke="#222" stroke-width="3.711" fill="#E6E6E6"/></g><use fill="#000" filter="url(#c)" xlink:href="#d"/><use fill="#FFF" xlink:href="#d"/><path d="M89.898 60c1.735 0 2.602.738 2.602 2.215v.545c0 2.027-1.547 3.04-4.64 3.04l-5.784.282c-1.734 9.422-2.6 17.52-2.6 24.293-.47 1.477-.95 2.215-1.443 2.215h-.88c-.995 0-1.575-.276-1.74-.826.974-10.43 2.034-18.903 3.183-25.418l-8.684 1.388c-.808 0-1.29-.826-1.44-2.478 0-2.766 2.413-4.15 7.24-4.15C78.608 60.37 83.337 60 89.9 60zm19.916 4.447c.832.223 1.25.79 1.25 1.705v.23c-1.173 17.308-2.005 25.962-2.498 25.962l-.263.246h-.74c-.866 0-1.452-.404-1.756-1.213.328-2.31.492-5.543.492-9.703h-.25L95.54 84.1l-.737.966v4.606c0 1.37-.504 2.344-1.512 2.918h-.49c-.94 0-1.52-.404-1.76-1.213 1.16-17.473 2.83-26.21 5.01-26.21h.5l.76.985c-1.17 5.8-1.76 10.084-1.76 12.85 7.68-1.008 11.52-2.22 11.52-3.64l1-10.194 1.76-.72zm21.622.053c.808.176 1.212.79 1.212 1.846-.257 1.992-1.06 2.988-2.408 2.988-8.836 0-13.254 1.23-13.254 3.69l-.246 2.076v1.142c5.766-1.383 9.703-2.074 11.813-2.074h.474c.81.352 1.213 1.12 1.213 2.303 0 1.69-1.125 2.54-3.375 2.54-7.394.96-11.092 2.12-11.092 3.47l-.228 2.31v.92c0 1.38.88 2.15 2.637 2.3 2.765-.3 6.222-.99 10.37-2.07h.72c.646.25.968.79.968 1.62v.69c0 1.89-4.02 3.35-12.058 4.38h-.72c-2.896 0-4.5-1.84-4.817-5.52 0-2.7.562-7.85 1.687-15.43l-.475-1.39c0-3.11 4.817-4.95 14.45-5.52l3.13-.23zm14.308-.053h2.426c3.715 0 5.572 1.295 5.572 3.885v.246c0 4.535-3.88 8.66-11.637 12.375v.23c3.88 3.56 7.114 6.233 9.704 8.014v.72c0 1.255-.41 2.063-1.22 2.427h-.97l-13.32-9.457-.25 4.85v3.64c-.41.81-1.06 1.213-1.94 1.213-.65 0-1.13-.322-1.46-.967v-1.46l2.18-18.93c-.65 0-.97-.48-.97-1.442 0-2.91 2.42-4.61 7.26-5.09l4.6-.24zm-8.473 13.096h.25c8.39-2.156 12.59-4.5 12.59-7.03v-.247c0-.446-.81-.768-2.42-.967-2.68 0-5.91.56-9.68 1.7l-.72 6.54zM172.54 64.5c.81.176 1.213.79 1.213 1.846-.26 1.992-1.06 2.988-2.41 2.988-8.835 0-13.253 1.23-13.253 3.69l-.246 2.076v1.142c5.765-1.383 9.7-2.074 11.81-2.074h.476c.81.352 1.213 1.12 1.213 2.303 0 1.69-1.127 2.54-3.377 2.54-7.395.96-11.092 2.12-11.092 3.47l-.226 2.31v.92c0 1.38.878 2.15 2.636 2.3 2.763-.3 6.22-.99 10.37-2.07h.72c.644.25.97.79.97 1.62v.69c0 1.89-4.02 3.35-12.06 4.38h-.72c-2.898 0-4.5-1.84-4.82-5.52 0-2.7.563-7.85 1.69-15.43l-.476-1.39c0-3.11 4.816-4.95 14.45-5.52l3.128-.23zm17.947 0c.787 0 1.18 2.72 1.18 8.156l1.58 10.336h.388c0-.597 1.577-3.803 4.73-9.615.492-3.832 1.412-5.748 2.76-5.748h.386c.8 0 1.46 2.95 1.97 8.87.88 4.04 1.54 6.44 1.97 7.2.42-2.04 2.53-8.05 6.31-18.02.55-.64 1.08-.95 1.58-.95.71 0 1.16.31 1.37.95 0 .82-1.97 6.18-5.9 16.08-.65 2.34-1.25 5.55-1.77 9.61-.42.79-.94 1.19-1.58 1.19-1.19 0-2.11-2.72-2.74-8.16-1.29-5.31-2.08-8.19-2.37-8.65l-3.94 7.69c-.65 1.5-1.24 4.06-1.77 7.68-.35.58-.87.98-1.56 1.19-1.1 0-2.02-4.16-2.76-12.48-1.05-5.88-1.58-10.61-1.58-14.17 0-.48.59-.88 1.78-1.19zm35.07 0h.844c1.16 0 2.63 5.36 4.41 16.084 1.41 5.063 2.11 8.502 2.11 10.318-.29.96-.85 1.442-1.69 1.442-1.08 0-1.85-2.56-2.32-7.682l-.21-.228h-.21c-1.83.023-5.68 1.142-11.56 3.357-.56 3.2-1.47 4.8-2.74 4.8-.84-.32-1.26-.96-1.26-1.91 0-1.85 3.86-10.33 11.59-25.45l1.06-.72zm-.422 6.715c-1.687 3.047-3.233 6.252-4.64 9.615h1.477c1.43 0 3.257-.322 5.483-.967l-1.897-8.648h-.423zM249.62 64.5h.37c1.616.2 2.424.984 2.424 2.355v.475c0 2.367-.81 4.57-2.426 6.61h-.37c-.257-.07-.508-.463-.755-1.178l.95-3.533-.74-.48c-1.72.15-4.885 2.04-9.49 5.66v.23l12.27 2.37c1.24.98 1.86 2.63 1.86 4.95v1.4c0 3.17-2.044 5.93-6.134 8.26-1.61.63-3.16.95-4.66.95h-.39c-4.27 0-6.87-1.89-7.81-5.66V85.5c0-1.735.43-2.602 1.3-2.602.85 3 2.41 4.5 4.66 4.5 0 .307.93.46 2.79.46 2.75 0 5.41-1.41 7.99-4.237 0-1.87-3.97-3.06-11.9-3.55-2.86-.79-4.29-1.97-4.29-3.53 0-3.83 3.84-7.69 11.53-11.56l2.79-.47zm32.044 0h.844c1.16 0 2.63 5.36 4.412 16.084 1.406 5.063 2.11 8.502 2.11 10.318-.294.96-.856 1.442-1.688 1.442-1.078 0-1.852-2.56-2.32-7.682l-.21-.228h-.212c-1.828.023-5.684 1.142-11.567 3.357-.562 3.2-1.476 4.8-2.742 4.8-.84-.32-1.26-.96-1.26-1.91 0-1.85 3.86-10.33 11.59-25.45l1.06-.72zm-.422 6.715c-1.687 3.047-3.234 6.252-4.64 9.615h1.476c1.43 0 3.258-.322 5.485-.967l-1.9-8.648h-.42zm26.68-6.715l5.38 8.156 2.354 1.934c2.977-5.297 5.05-8.502 6.223-9.615h1.07l.86.966c-.12.86-3.48 6.86-10.09 18-1.67 3.13-2.89 5.93-3.66 8.41l-.63.25c-1.01-.47-1.51-1.19-1.51-2.16.06-1.25 1.77-5.17 5.15-11.76-4.87-5.23-7.3-9.47-7.3-12.73.9-.96 1.62-1.44 2.14-1.44zm29.355-.053c5.004.692 7.506 3.686 7.506 8.983 0 6.937-2.74 12.68-8.222 17.226-2.26 1.29-4.28 1.934-6.06 1.934-4.34 0-7.14-2.344-8.4-7.03l-.17-2.18v-.74c0-7.57 3.46-13.312 10.37-17.226 1.74-.644 3.4-.967 5-.967zM324.232 83.38c1.805 2.74 4.19 4.112 7.155 4.112 4.77 0 8.103-2.83 10.002-8.49l.35-2.672c0-3.984-1.97-6.328-5.89-7.03h-.55c-3.25 0-6.64 3.233-10.18 9.702-.6 1.945-.9 3.404-.9 4.377zm26.895-18.933c.75.305 1.166.62 1.248.95-1.336 8.355-2.004 14.425-2.004 18.21v2.602c4.48 0 8.15-2.06 11.01-6.16 1.13-9.94 2.21-14.91 3.25-14.91h.27c1 .1 1.5.34 1.5.72-1.5 9.04-2.25 15.82-2.25 20.34v3.77c0 1.24-.5 2.11-1.51 2.6h-1l-.98-.95v-.48l.25-4.01c-.59 0-3.85 1.49-9.75 4.48l-1.75.47c-2-.26-3-1.13-3-2.6v-.23c1.22-16.56 2.64-24.84 4.26-24.84h.51zm19.846 0c1.066 0 2.343 2.004 3.832 6.012 2.883 5.9 6.088 10.95 9.615 15.15 1.184-11.57 2.062-18.38 2.637-20.45l.966-.72h.72c.482 0 .722.32.722.96-1.442 16.52-2.32 25.34-2.637 26.45l-1.44.47c-2.568 0-6.892-5.45-12.974-16.35l-.967-.97-.246.72-.72 11.07v1.44l.25 1.44c-.21 1.92-.85 2.88-1.91 2.88-.98-.35-1.54-.83-1.68-1.44 1.23-17.32 2.11-25.98 2.64-25.98l1.22-.72zm35.35 0h.175c1.56 0 2.602 1.524 3.13 4.57l-.37.475h-.176l-1.477-.474c-4.03.597-8.255 3.404-12.673 8.42-1.23 2.18-1.846 3.703-1.846 4.57v.967c0 2.566 2.637 4.166 7.91 4.798 3.305 0 5.813-1.763 7.524-5.29l-2.198-.95c-.82 0-3.088.96-6.802 2.883-.364-.82-.545-1.623-.545-2.408v-.246c0-2.555 2.45-4.32 7.347-5.29h.37c2.812 0 4.218 1.844 4.218 5.536 0 3.808-3.123 7.178-9.37 10.107l-2.196.475c-3.973 0-6.668-1.682-8.086-5.045l-.37-3.13c0-7.265 3.733-13.44 11.198-18.526 1.887-.97 3.3-1.45 4.236-1.45zm22.43.053c.784 0 1.177 2.72 1.177 8.156l1.582 10.336h.386c0-.597 1.577-3.803 4.73-9.615.49-3.832 1.41-5.748 2.76-5.748h.385c.797 0 1.454 2.95 1.97 8.87.878 4.04 1.534 6.44 1.968 7.2.43-2.04 2.53-8.05 6.31-18.02.56-.64 1.08-.95 1.59-.95.71 0 1.16.31 1.37.95 0 .82-1.97 6.18-5.9 16.08-.65 2.34-1.25 5.55-1.77 9.61-.42.79-.95 1.19-1.58 1.19-1.19 0-2.1-2.72-2.74-8.16-1.29-5.31-2.08-8.19-2.37-8.65l-3.94 7.68c-.65 1.5-1.24 4.06-1.77 7.68-.35.59-.87.99-1.56 1.2-1.1 0-2.02-4.16-2.76-12.48-1.05-5.88-1.58-10.61-1.58-14.17 0-.48.59-.88 1.78-1.19zm39.585-.053c5.004.692 7.506 3.686 7.506 8.983 0 6.937-2.742 12.68-8.227 17.226-2.262 1.29-4.283 1.934-6.064 1.934-4.348 0-7.15-2.344-8.403-7.03l-.175-2.18v-.74c0-7.57 3.457-13.312 10.37-17.226 1.735-.644 3.4-.967 4.993-.967zM455.295 83.38c1.805 2.74 4.19 4.112 7.154 4.112 4.77 0 8.1-2.83 10-8.49l.35-2.672c0-3.984-1.97-6.328-5.89-7.03h-.55c-3.25 0-6.64 3.233-10.18 9.702-.6 1.945-.9 3.404-.9 4.377zm32.59-18.933h.457c.75.41 1.125 1.05 1.125 1.916v.492c0 5.204.457 11.297 1.37 18.282h.23c5.015-13.15 7.968-19.723 8.86-19.723h.684c.67 0 1.73 4.57 3.19 13.71 1.36 4.69 2.04 8.614 2.04 11.778-.44 1.125-1.12 1.688-2.04 1.688-.61 0-1.44-3.932-2.49-11.795l-1.83-7.682c-1.3 2.086-3.65 7.535-7.05 16.348-.97 1-1.8 1.56-2.49 1.69-1.97 0-2.95-2.65-2.95-7.94l-1.12-10.09h-.23l-6.82 15.38c-.41 2.57-.79 3.85-1.14 3.85h-.9l-.91-.95v-1.21c0-2.15 1.89-6.8 5.68-13.94 2.7-7.5 4.44-11.35 5.23-11.55l1.15-.24zm30.586.053h.85c1.16 0 2.63 5.36 4.42 16.084 1.41 5.063 2.11 8.502 2.11 10.318-.29.96-.85 1.442-1.69 1.442-1.07 0-1.85-2.56-2.32-7.682l-.21-.228h-.21c-1.83.023-5.68 1.142-11.56 3.357-.56 3.2-1.47 4.8-2.74 4.8-.84-.32-1.26-.96-1.26-1.91 0-1.85 3.86-10.33 11.59-25.45l1.06-.72zm-.42 6.715c-1.69 3.047-3.23 6.252-4.64 9.615h1.48c1.43 0 3.26-.322 5.49-.967l-1.9-8.648h-.42zm13.45-6.768c1.07 0 2.35 2.004 3.83 6.012 2.89 5.9 6.09 10.95 9.62 15.15 1.19-11.57 2.07-18.38 2.64-20.45l.97-.72h.72c.48 0 .72.32.72.96-1.44 16.52-2.32 25.34-2.63 26.45l-1.44.47c-2.56 0-6.89-5.45-12.97-16.35L532 75l-.247.72-.72 11.074v1.442l.245 1.44c-.21 1.92-.85 2.88-1.915 2.88-.98-.352-1.546-.832-1.69-1.442 1.23-17.32 2.11-25.98 2.64-25.98l1.213-.72zm52.03.053h1.04c1.3 0 2.08 1.05 2.34 3.146v.493c0 3.17-1.2 5.27-3.6 6.29l-.42-.5v-.25l1.08-4.12-.84-.48c-3.5 0-7.67 3.31-12.5 9.93-1.15 2-1.72 3.53-1.72 4.59v.24c0 2.58 1.56 3.87 4.68 3.87h.2c3 0 6.32-.8 9.97-2.41h.65c.57.25.85.82.85 1.68v.96c-3 3.07-6.52 4.6-10.58 4.6-5.52-.58-8.28-3.32-8.28-8.23v-.49c0-6.27 4.45-12.4 13.34-18.4 1.69-.65 2.97-.97 3.84-.97zm14.22 0h.85c1.16 0 2.63 5.36 4.41 16.084 1.41 5.063 2.11 8.502 2.11 10.318-.29.96-.85 1.442-1.69 1.442-1.08 0-1.85-2.56-2.32-7.682l-.21-.228h-.21c-1.83.023-5.68 1.142-11.56 3.357-.56 3.2-1.47 4.8-2.74 4.8-.84-.32-1.26-.96-1.26-1.91 0-1.85 3.86-10.33 11.59-25.45l1.06-.72zm-.42 6.715c-1.68 3.047-3.23 6.252-4.64 9.615h1.48c1.43 0 3.26-.322 5.49-.967l-1.9-8.648h-.42zm13.2-6.768h.25c.76 0 1.4.393 1.92 1.178-1.11 8.11-1.91 15.363-2.39 21.762l13.71-2.83.48.703v1.424c0 2.156-4.97 4.125-14.9 5.906-1.77-.317-2.65-.867-2.65-1.653 1.31-17.343 2.27-26.015 2.88-26.015l.72-.475zm18.16 0h.25c.76 0 1.4.393 1.92 1.178-1.11 8.11-1.91 15.363-2.39 21.762l13.71-2.83.48.703v1.424c0 2.156-4.97 4.125-14.9 5.906-1.77-.317-2.65-.867-2.65-1.653 1.32-17.343 2.28-26.015 2.89-26.015l.72-.475zm33.35.053c.81.176 1.22.79 1.22 1.846-.26 1.992-1.06 2.988-2.41 2.988-8.83 0-13.25 1.23-13.25 3.69l-.24 2.076v1.142c5.77-1.383 9.7-2.074 11.81-2.074h.48c.81.352 1.21 1.12 1.21 2.303 0 1.69-1.12 2.54-3.37 2.54-7.39.96-11.09 2.12-11.09 3.47l-.23 2.31v.92c0 1.38.88 2.15 2.64 2.3 2.77-.3 6.22-.99 10.37-2.07h.72c.65.25.97.79.97 1.62v.69c0 1.89-4.02 3.35-12.06 4.38h-.72c-2.89 0-4.5-1.84-4.81-5.52 0-2.7.57-7.85 1.69-15.43l-.47-1.39c0-3.11 4.82-4.95 14.45-5.52l3.13-.23zm10.6-.053h1.08c5.1 0 8.22 2.022 9.37 6.065l.21 1.933c0 8.05-5.96 14.684-17.89 19.9l-1.05.245h-.23c-.31 0-.59-.57-.84-1.705l2.12-20.865c-.85 0-1.28-.24-1.28-.72v-.493c0-2.578 1.14-3.868 3.41-3.868l5.12-.5zm-4.25 5.098c-1.28 8.297-1.91 13.875-1.91 16.734v1.21c8.94-4.47 13.42-8.67 13.42-12.62v-.23c0-2.28-.64-3.41-1.91-3.41-1.58-1.13-4.14-1.69-7.66-1.69h-1.92zm42.31-9.475h.53c.87.48 1.3 1.22 1.3 2.215v.563c0 6.01.52 13.054 1.55 21.13h.27c5.72-15.2 9.09-22.8 10.11-22.8h.77c.76 0 1.97 5.285 3.62 15.855 1.56 5.414 2.34 9.95 2.34 13.606-.5 1.3-1.28 1.95-2.34 1.95-.69 0-1.64-4.54-2.85-13.63l-2.07-8.9c-1.49 2.42-4.16 8.72-8.03 18.89-1.11 1.14-2.06 1.8-2.84 1.95-2.25 0-3.37-3.06-3.37-9.18l-1.28-11.67h-.26l-7.77 17.79c-.47 2.96-.9 4.44-1.3 4.44H698l-1.038-1.11V89.8c0-2.497 2.16-7.87 6.488-16.12 3.07-8.66 5.057-13.107 5.96-13.34l1.283-.283zm33.45 4.43h.85c1.16 0 2.63 5.36 4.42 16.084 1.41 5.063 2.11 8.502 2.11 10.318-.29.96-.85 1.442-1.69 1.442-1.07 0-1.85-2.56-2.32-7.682l-.21-.228h-.21c-1.83.023-5.68 1.142-11.56 3.357-.56 3.2-1.48 4.8-2.74 4.8-.85-.32-1.27-.96-1.27-1.91 0-1.85 3.86-10.33 11.59-25.45l1.06-.72zm-.42 6.715c-1.68 3.047-3.23 6.252-4.64 9.615h1.48c1.43 0 3.26-.322 5.49-.967l-1.89-8.648h-.42zm22.68-6.768h2.43c3.72 0 5.57 1.295 5.57 3.885v.246c0 4.535-3.87 8.66-11.63 12.375v.23c3.88 3.56 7.12 6.233 9.71 8.014v.72c0 1.255-.4 2.063-1.21 2.427h-.97l-13.32-9.457-.25 4.85v3.64c-.41.81-1.05 1.213-1.93 1.213-.64 0-1.13-.322-1.46-.967v-1.46l2.18-18.93c-.64 0-.96-.48-.96-1.442 0-2.91 2.42-4.61 7.26-5.09l4.61-.24zm-8.47 13.096h.25c8.39-2.156 12.59-4.5 12.59-7.03v-.247c0-.446-.81-.768-2.42-.967-2.68 0-5.91.56-9.68 1.7l-.72 6.54zm18.6-13.043l5.38 8.156 2.36 1.934c2.98-5.297 5.05-8.502 6.23-9.615h1.08l.86.966c-.12.86-3.48 6.86-10.09 18-1.66 3.13-2.88 5.93-3.66 8.41l-.63.25c-1-.47-1.51-1.19-1.51-2.16.06-1.25 1.78-5.17 5.15-11.76-4.86-5.23-7.29-9.47-7.29-12.73.91-.96 1.62-1.44 2.15-1.44zm17.23 22.096c1.57 0 2.55.955 2.94 2.865 0 1.91-1.37 2.96-4.11 3.13-1.37-.51-2.05-1.38-2.05-2.6v-.26c.54-2.08 1.62-3.13 3.24-3.13zM152.96 102c6.117.797 9.176 4.26 9.176 10.39 0 8.038-3.352 14.688-10.055 19.95-2.76 1.5-5.23 2.25-7.41 2.25-5.32 0-8.75-2.72-10.28-8.156l-.21-2.514v-.844c0-8.777 4.23-15.428 12.68-19.95 2.14-.75 4.17-1.126 6.12-1.126zm-15.943 21.92c2.203 3.176 5.115 4.764 8.736 4.764 5.824 0 9.902-3.276 12.234-9.827l.44-3.093c0-4.618-2.403-7.33-7.207-8.14h-.668c-3.973 0-8.12 3.745-12.446 11.233-.726 2.25-1.09 3.938-1.09 5.063zm30.076-17.473c1.066 0 2.344 2.004 3.832 6.012 2.883 5.9 6.088 10.95 9.615 15.15 1.184-11.57 2.063-18.38 2.637-20.45l.967-.72h.72c.48 0 .72.32.72.96-1.44 16.52-2.32 25.34-2.636 26.45l-1.44.47c-2.568 0-6.892-5.45-12.974-16.35l-.967-.97-.246.72-.72 11.07v1.44l.25 1.44c-.21 1.92-.85 2.88-1.91 2.88-.98-.35-1.54-.83-1.68-1.44 1.23-17.32 2.11-25.98 2.64-25.98l1.22-.72zm38.707.053c.808.176 1.213.79 1.213 1.846-.258 1.992-1.06 2.988-2.41 2.988-8.834 0-13.252 1.23-13.252 3.69l-.24 2.076v1.142c5.77-1.383 9.71-2.074 11.82-2.074h.48c.81.352 1.21 1.12 1.21 2.303 0 1.69-1.12 2.54-3.37 2.54-7.39.96-11.09 2.12-11.09 3.47l-.23 2.31v.92c0 1.38.88 2.15 2.64 2.3 2.77-.3 6.23-.99 10.37-2.07h.73c.64.25.97.79.97 1.62v.69c0 1.89-4.02 3.35-12.06 4.38h-.72c-2.89 0-4.5-1.84-4.81-5.52 0-2.7.56-7.85 1.69-15.43l-.47-1.39c0-3.11 4.82-4.95 14.45-5.52l3.13-.23zm25.54-.053h1.073c5.098 0 8.22 2.022 9.37 6.065l.21 1.933c0 8.05-5.965 14.684-17.894 19.9l-1.06.245h-.23c-.32 0-.6-.57-.84-1.705l2.12-20.865c-.86 0-1.29-.24-1.29-.72v-.493c0-2.578 1.13-3.868 3.41-3.868l5.11-.5zm-4.253 5.098c-1.277 8.297-1.916 13.875-1.916 16.734v1.21c8.95-4.47 13.42-8.67 13.42-12.62v-.23c0-2.28-.64-3.41-1.91-3.41-1.58-1.13-4.13-1.69-7.66-1.69h-1.92zm25.752-5.045h.84c1.16 0 2.63 5.36 4.41 16.084 1.4 5.063 2.11 8.502 2.11 10.318-.3.96-.86 1.442-1.69 1.442-1.08 0-1.85-2.56-2.32-7.682l-.21-.228h-.21c-1.83.023-5.69 1.142-11.57 3.357-.56 3.2-1.48 4.8-2.74 4.8-.85-.32-1.27-.96-1.27-1.91 0-1.85 3.86-10.33 11.58-25.45l1.05-.72zm-.43 6.715c-1.69 3.047-3.24 6.252-4.64 9.615h1.47c1.43 0 3.26-.322 5.48-.967l-1.9-8.648h-.43zm11.74-6.715l5.38 8.156 2.35 1.934c2.97-5.297 5.05-8.502 6.22-9.615h1.07l.86.966c-.12.86-3.48 6.86-10.09 18-1.67 3.13-2.89 5.93-3.66 8.41l-.63.25c-1.01-.47-1.51-1.19-1.51-2.16.05-1.25 1.77-5.17 5.15-11.76-4.87-5.23-7.3-9.47-7.3-12.73.9-.96 1.61-1.44 2.14-1.44zm41.39-4.43h.52c.86.48 1.3 1.22 1.3 2.215v.563c0 6.01.51 13.054 1.55 21.13h.26c5.72-15.2 9.08-22.8 10.1-22.8h.77c.76 0 1.97 5.285 3.62 15.855 1.56 5.414 2.34 9.95 2.34 13.606-.51 1.3-1.29 1.95-2.34 1.95-.69 0-1.64-4.54-2.85-13.63l-2.08-8.9c-1.49 2.42-4.17 8.72-8.04 18.89-1.12 1.14-2.06 1.8-2.85 1.95-2.25 0-3.38-3.06-3.38-9.18l-1.29-11.67h-.26l-7.77 17.79c-.47 2.96-.91 4.44-1.3 4.44h-1.04l-1.04-1.11v-1.38c0-2.5 2.16-7.87 6.48-16.12 3.07-8.66 5.06-13.11 5.96-13.34l1.28-.29zM339 106.5h.846c1.16 0 2.63 5.36 4.412 16.084 1.405 5.063 2.11 8.502 2.11 10.318-.295.96-.857 1.442-1.69 1.442-1.08 0-1.85-2.56-2.32-7.682l-.21-.228h-.21c-1.83.023-5.685 1.142-11.568 3.357-.563 3.2-1.477 4.8-2.742 4.8-.843-.32-1.265-.96-1.265-1.91 0-1.85 3.86-10.33 11.584-25.45l1.054-.72zm-.42 6.715c-1.69 3.047-3.234 6.252-4.64 9.615h1.477c1.43 0 3.26-.322 5.484-.967l-1.89-8.648h-.42zm22.676-6.768h2.426c3.714 0 5.572 1.295 5.572 3.885v.246c0 4.535-3.88 8.66-11.638 12.375v.23c3.88 3.56 7.113 6.233 9.703 8.014v.72c0 1.255-.41 2.063-1.22 2.427h-.97l-13.33-9.457-.25 4.85v3.64c-.41.81-1.06 1.213-1.93 1.213-.65 0-1.13-.322-1.46-.967v-1.46l2.18-18.93c-.65 0-.97-.48-.97-1.442 0-2.91 2.42-4.61 7.26-5.09l4.6-.24zm-8.473 13.096h.246c8.39-2.156 12.58-4.5 12.58-7.03v-.247c0-.446-.81-.768-2.43-.967-2.69 0-5.92.56-9.69 1.7l-.72 6.54zM371.4 106.5l5.38 8.156 2.355 1.934c2.976-5.297 5.05-8.502 6.222-9.615h1.072l.86.966c-.12.86-3.48 6.86-10.09 18-1.67 3.13-2.89 5.93-3.66 8.41l-.64.25c-1.01-.47-1.51-1.19-1.51-2.16.06-1.25 1.77-5.17 5.15-11.76-4.87-5.23-7.3-9.47-7.3-12.73.9-.96 1.61-1.44 2.14-1.44zm47.707-.053c.83.223 1.247.79 1.247 1.705v.23c-1.17 17.308-2.004 25.962-2.496 25.962l-.262.246h-.74c-.867 0-1.453-.404-1.757-1.213.33-2.31.49-5.543.49-9.703h-.25l-10.51 2.426-.74.966v4.606c0 1.37-.51 2.344-1.52 2.918h-.49c-.94 0-1.53-.404-1.76-1.213 1.16-17.473 2.83-26.21 5.01-26.21h.49l.75.985c-1.18 5.8-1.76 10.084-1.76 12.85 7.67-1.008 11.51-2.22 11.51-3.64l1-10.194 1.75-.72zm13.675.053h.844c1.16 0 2.63 5.36 4.41 16.084 1.407 5.063 2.11 8.502 2.11 10.318-.293.96-.855 1.442-1.687 1.442-1.08 0-1.86-2.56-2.32-7.682l-.21-.228h-.22c-1.83.023-5.69 1.142-11.57 3.357-.56 3.2-1.48 4.8-2.74 4.8-.85-.32-1.27-.96-1.27-1.91 0-1.85 3.86-10.33 11.58-25.45l1.05-.72zm-.422 6.715c-1.687 3.047-3.234 6.252-4.64 9.615h1.476c1.43 0 3.257-.322 5.484-.967l-1.9-8.648h-.42zm18.967-6.768h1.073c5.098 0 8.22 2.022 9.37 6.065l.21 1.933c0 8.05-5.964 14.684-17.894 19.9l-1.057.245h-.23c-.32 0-.6-.57-.85-1.705l2.13-20.865c-.86 0-1.29-.24-1.29-.72v-.493c0-2.578 1.13-3.868 3.41-3.868l5.11-.5zm-4.253 5.098c-1.277 8.297-1.916 13.875-1.916 16.734v1.21c8.944-4.47 13.414-8.67 13.414-12.62v-.23c0-2.28-.638-3.41-1.916-3.41-1.582-1.13-4.136-1.69-7.664-1.69h-1.916zm40.694-5.045h.845c1.16 0 2.63 5.36 4.412 16.084 1.407 5.063 2.11 8.502 2.11 10.318-.293.96-.856 1.442-1.688 1.442-1.08 0-1.85-2.56-2.32-7.682l-.21-.228h-.213c-1.828.023-5.684 1.142-11.566 3.357-.562 3.2-1.476 4.8-2.742 4.8-.843-.32-1.265-.96-1.265-1.91 0-1.85 3.86-10.33 11.59-25.45l1.06-.72zm-.42 6.715c-1.69 3.047-3.235 6.252-4.64 9.615h1.476c1.43 0 3.257-.322 5.484-.967l-1.9-8.648h-.42zm43.963-6.768h.71c.63.258.95.82.95 1.688 0 1.172-2.45 6.222-7.35 15.152-2.4 6.692-3.9 10.3-4.5 10.828l-2.35.475c-1.03 0-1.74-1.846-2.14-5.537-3.15-11.12-4.73-17.936-4.73-20.444.26-.73.73-1.29 1.43-1.69h.95c.86 0 1.72 3.37 2.6 10.1l2.85 10.58h.23c1.64-4.34 5.19-11.23 10.66-20.69l.72-.48zm20.45.053c.81.176 1.22.79 1.22 1.846-.26 1.992-1.06 2.988-2.41 2.988-8.83 0-13.25 1.23-13.25 3.69l-.24 2.076v1.142c5.77-1.383 9.71-2.074 11.82-2.074h.48c.81.352 1.21 1.12 1.21 2.303 0 1.69-1.12 2.54-3.37 2.54-7.39.96-11.09 2.12-11.09 3.47l-.23 2.31v.92c0 1.38.88 2.15 2.64 2.3 2.77-.3 6.23-.99 10.38-2.07h.72c.65.25.97.79.97 1.62v.69c0 1.89-4.02 3.35-12.06 4.38h-.72c-2.89 0-4.5-1.84-4.81-5.52 0-2.7.56-7.85 1.68-15.43l-.47-1.39c0-3.11 4.82-4.95 14.45-5.52l3.13-.23zm14.31-.053h2.43c3.72 0 5.57 1.295 5.57 3.885v.246c0 4.535-3.88 8.66-11.63 12.375v.23c3.88 3.56 7.12 6.233 9.71 8.014v.72c0 1.255-.4 2.063-1.21 2.427h-.96l-13.32-9.457-.24 4.85v3.64c-.41.81-1.05 1.213-1.93 1.213-.64 0-1.13-.322-1.46-.967v-1.46l2.18-18.93c-.64 0-.96-.48-.96-1.442 0-2.91 2.42-4.61 7.26-5.09l4.61-.24zm-8.47 13.096h.25c8.39-2.156 12.59-4.5 12.59-7.03v-.247c0-.446-.81-.768-2.42-.967-2.68 0-5.91.56-9.68 1.7l-.72 6.54zm18.61-13.043l5.38 8.156 2.36 1.934c2.98-5.297 5.05-8.502 6.23-9.615h1.07l.86.966c-.12.86-3.48 6.86-10.09 18-1.67 3.13-2.89 5.93-3.66 8.41l-.63.25c-1.01-.47-1.51-1.19-1.51-2.16.06-1.25 1.77-5.17 5.15-11.76-4.86-5.23-7.3-9.47-7.3-12.73.91-.96 1.62-1.44 2.15-1.44zm43.82 0h.37c1.62.2 2.43.984 2.43 2.355v.475c0 2.367-.81 4.57-2.42 6.61h-.37c-.26-.07-.51-.463-.76-1.178l.95-3.533-.74-.48c-1.72.15-4.88 2.04-9.49 5.66v.23l12.27 2.37c1.24.98 1.86 2.63 1.86 4.95v1.4c0 3.17-2.04 5.93-6.13 8.26-1.6.63-3.16.95-4.66.95h-.38c-4.26 0-6.87-1.89-7.8-5.66v-1.42c0-1.74.43-2.61 1.3-2.61.86 3 2.41 4.5 4.66 4.5 0 .3.93.46 2.8.46 2.76 0 5.42-1.41 8-4.24 0-1.87-3.96-3.06-11.9-3.55-2.86-.8-4.29-1.97-4.29-3.53 0-3.83 3.85-7.69 11.53-11.57l2.8-.48zm19.3-.053c4.66 0 6.98 1.365 6.98 4.096 0 5.402-5.1 10.29-15.29 14.66-.75 0-1.12.48-1.12 1.442-.1 5.296-.63 7.945-1.58 7.945h-1.12c-.3-.07-.6-.47-.89-1.195l2.02-19.723h-.23c-.6 0-.9-.727-.9-2.18 0-2.355 1.35-3.715 4.06-4.078l8.09-.967zm-9 13.957c5.15-1.347 9.05-3.59 11.71-6.732l.44-1.46v-.474l-1.12-.246h-1.12c-5.99.328-8.98.89-8.98 1.688l-.91 7.224zM665.1 106.5c.81.176 1.214.79 1.214 1.846-.258 1.992-1.06 2.988-2.41 2.988-8.835 0-13.253 1.23-13.253 3.69l-.24 2.076v1.142c5.77-1.383 9.71-2.074 11.82-2.074h.48c.81.352 1.22 1.12 1.22 2.303 0 1.69-1.12 2.54-3.37 2.54-7.39.96-11.09 2.12-11.09 3.47l-.23 2.31v.92c0 1.38.88 2.15 2.64 2.3 2.77-.3 6.22-.99 10.37-2.07h.72c.65.25.97.79.97 1.62v.69c0 1.89-4.02 3.35-12.06 4.38h-.72c-2.89 0-4.5-1.84-4.81-5.52 0-2.7.56-7.85 1.69-15.43l-.47-1.39c0-3.11 4.82-4.95 14.45-5.52l3.13-.23zm18.405 0h1.037c1.3 0 2.08 1.05 2.338 3.146v.493c0 3.17-1.2 5.27-3.604 6.29l-.42-.5v-.25l1.07-4.12-.843-.48c-3.503 0-7.67 3.31-12.497 9.93-1.148 2-1.723 3.53-1.723 4.59v.24c0 2.58 1.56 3.87 4.676 3.87h.19c3 0 6.32-.8 9.96-2.41h.65c.56.25.84.82.84 1.68v.96c-3 3.07-6.53 4.6-10.58 4.6-5.52-.58-8.28-3.32-8.28-8.23v-.49c0-6.27 4.44-12.4 13.34-18.4 1.69-.65 2.96-.97 3.83-.97zm9.018-.123h1.653c.55 0 .826.322.826.967-1.29 10.523-1.935 17.824-1.935 21.902v2.672c-.363 1.78-1.277 2.672-2.742 2.672h-.545l-1.107-.967c.74-11.04 1.66-19.8 2.76-26.28l1.09-.966zm14.977.123h.844c1.16 0 2.632 5.36 4.413 16.084 1.406 5.063 2.11 8.502 2.11 10.318-.294.96-.856 1.442-1.688 1.442-1.08 0-1.86-2.56-2.32-7.682l-.21-.228h-.22c-1.83.023-5.69 1.142-11.57 3.357-.57 3.2-1.48 4.8-2.75 4.8-.85-.32-1.27-.96-1.27-1.91 0-1.85 3.86-10.33 11.58-25.45l1.05-.72zm-.422 6.715c-1.687 3.047-3.234 6.252-4.64 9.615h1.476c1.43 0 3.26-.322 5.486-.967l-1.9-8.648h-.42zm13.2-6.768h.247c.762 0 1.4.393 1.916 1.178-1.11 8.11-1.91 15.363-2.39 21.762l13.71-2.83.48.703v1.424c0 2.156-4.97 4.125-14.9 5.906-1.77-.317-2.65-.867-2.65-1.653 1.31-17.343 2.28-26.015 2.89-26.015l.72-.475zm-577.37 42h.703c.64.258.95.82.95 1.688 0 1.172-2.45 6.222-7.34 15.152-2.4 6.692-3.9 10.3-4.5 10.828l-2.35.475c-1.03 0-1.74-1.846-2.14-5.537-3.15-11.12-4.73-17.936-4.73-20.444.26-.73.74-1.29 1.43-1.69h.95c.86 0 1.72 3.37 2.6 10.1l2.85 10.58h.23c1.64-4.34 5.2-11.23 10.66-20.69l.72-.48zm7.295-.07h1.653c.55 0 .826.322.826.967-1.29 10.523-1.935 17.824-1.935 21.902v2.672c-.363 1.78-1.277 2.672-2.742 2.672h-.545l-1.107-.967c.74-11.04 1.66-19.8 2.76-26.28l1.09-.966zm19.02.123h.37c1.616.2 2.425.984 2.425 2.355v.475c0 2.367-.81 4.57-2.426 6.61h-.37c-.258-.07-.51-.463-.756-1.178l.95-3.533-.74-.48c-1.722.15-4.886 2.04-9.49 5.66v.23l12.268 2.37c1.242.98 1.863 2.63 1.863 4.95v1.4c0 3.17-2.044 5.93-6.134 8.26-1.605.63-3.158.95-4.658.95h-.386c-4.27 0-6.87-1.89-7.81-5.66v-1.42c0-1.74.43-2.61 1.3-2.61.85 3 2.41 4.5 4.66 4.5 0 .3.93.46 2.79.46 2.75 0 5.42-1.41 7.99-4.24 0-1.87-3.97-3.06-11.9-3.55-2.86-.8-4.29-1.97-4.29-3.53 0-3.83 3.84-7.69 11.53-11.57l2.79-.48zm11.9-.123h1.652c.55 0 .827.322.827.967-1.29 10.523-1.935 17.824-1.935 21.902v2.672c-.363 1.78-1.277 2.672-2.742 2.672h-.545l-1.107-.967c.74-11.04 1.66-19.8 2.76-26.28l1.09-.966zm23.643.053c1.523 0 2.285.632 2.285 1.898v.475c0 1.746-1.36 2.62-4.07 2.62l-5.08.245c-1.52 8.12-2.28 15.105-2.28 20.953-.41 1.27-.83 1.9-1.26 1.9h-.77c-.88 0-1.39-.24-1.53-.72.86-8.99 1.79-16.29 2.8-21.9l-7.63 1.2c-.71 0-1.13-.71-1.26-2.14 0-2.38 2.12-3.57 6.37-3.57 2.54-.63 6.7-.95 12.46-.95zm16.927.017c5.004.692 7.506 3.686 7.506 8.983 0 6.937-2.75 12.68-8.23 17.226-2.26 1.29-4.29 1.934-6.07 1.934-4.35 0-7.15-2.344-8.4-7.03l-.18-2.18v-.74c0-7.57 3.45-13.312 10.37-17.226 1.73-.644 3.4-.967 4.99-.967zM208.65 167.38c1.805 2.74 4.19 4.11 7.155 4.11 4.77 0 8.103-2.83 10.002-8.49l.35-2.67c0-3.985-1.962-6.33-5.887-7.03h-.545c-3.246 0-6.64 3.232-10.178 9.7-.598 1.946-.897 3.405-.897 4.378zm34.752-18.934h2.425c3.715 0 5.572 1.295 5.572 3.885v.25c0 4.54-3.88 8.66-11.64 12.38v.23c3.88 3.56 7.11 6.24 9.7 8.02v.72c0 1.26-.41 2.07-1.22 2.43h-.97l-13.32-9.46-.25 4.85v3.64c-.41.81-1.06 1.21-1.94 1.21-.65 0-1.13-.32-1.46-.96v-1.46l2.18-18.93c-.65 0-.97-.48-.97-1.44 0-2.91 2.42-4.61 7.26-5.09l4.6-.24zm-8.473 13.096h.24c8.39-2.156 12.58-4.5 12.58-7.03v-.247c0-.446-.81-.768-2.43-.967-2.69 0-5.91.567-9.69 1.704l-.72 6.54zm24.89 8.016c.75.22 1.29.626 1.63 1.21v.476c0 2.79-2.09 6.246-6.28 10.37l-1.09.247h-.28c-.99 0-1.72-.4-2.18-1.21v-.24c3.28-3.63 4.92-6.84 4.92-9.63 1.01-.8 2.1-1.21 3.27-1.21zm29.69-21.06h.84c1.16 0 2.63 5.36 4.41 16.084 1.4 5.063 2.11 8.502 2.11 10.318-.3.96-.86 1.442-1.69 1.442-1.08 0-1.85-2.56-2.32-7.682l-.21-.228h-.21c-1.83.023-5.69 1.142-11.57 3.357-.57 3.2-1.48 4.8-2.75 4.8-.85-.33-1.27-.97-1.27-1.92 0-1.85 3.86-10.34 11.58-25.46l1.05-.72zm-.43 6.715c-1.69 3.047-3.24 6.252-4.64 9.615h1.47c1.43 0 3.26-.322 5.48-.967l-1.9-8.64h-.43zm13.44-6.768c1.06 0 2.34 2.004 3.83 6.012 2.88 5.905 6.08 10.956 9.61 15.15 1.18-11.565 2.06-18.38 2.63-20.442l.97-.72h.72c.48 0 .72.322.72.966-1.44 16.53-2.32 25.35-2.64 26.46l-1.45.48c-2.57 0-6.89-5.45-12.97-16.34l-.97-.96-.25.72-.72 11.08v1.44l.24 1.44c-.21 1.93-.85 2.89-1.92 2.89-.99-.35-1.55-.83-1.69-1.44 1.23-17.32 2.11-25.98 2.64-25.98l1.21-.72zm49.9-4.482h1.1c1.53 0 3.47 6.228 5.82 18.685 1.85 5.883 2.78 9.88 2.78 11.99-.39 1.112-1.13 1.67-2.22 1.67-1.42 0-2.44-2.972-3.06-8.914l-.27-.28h-.28c-2.42.023-7.5 1.323-15.24 3.902-.73 3.714-1.93 5.572-3.6 5.572-1.12-.387-1.67-1.13-1.67-2.233 0-2.144 5.08-11.994 15.24-29.548l1.39-.845zm-.44 7.805c-2.23 3.54-4.26 7.26-6.1 11.162h1.93c1.89 0 4.29-.375 7.21-1.125l-2.5-10.037H352zm15.57-3.323c1.07 0 2.34 2.004 3.83 6.012 2.88 5.905 6.08 10.956 9.61 15.15 1.18-11.565 2.06-18.38 2.63-20.442l.96-.72h.72c.48 0 .72.322.72.966-1.44 16.53-2.32 25.35-2.63 26.46l-1.45.48c-2.57 0-6.89-5.45-12.98-16.34l-.97-.96-.25.72-.72 11.08v1.44l.24 1.44c-.21 1.93-.85 2.89-1.91 2.89-.99-.35-1.55-.83-1.69-1.44 1.23-17.32 2.11-25.98 2.64-25.98l1.21-.72zm35.35 0h.17c1.56 0 2.6 1.524 3.13 4.57l-.37.475h-.18l-1.48-.474c-4.03.597-8.26 3.404-12.68 8.42-1.23 2.18-1.85 3.703-1.85 4.57v.967c0 2.566 2.63 4.166 7.91 4.798 3.3 0 5.81-1.76 7.52-5.29l-2.2-.95c-.82 0-3.09.96-6.8 2.89-.37-.82-.55-1.62-.55-2.41v-.24c0-2.55 2.45-4.32 7.35-5.29h.37c2.81 0 4.22 1.85 4.22 5.54 0 3.81-3.13 7.18-9.37 10.11l-2.2.48c-3.98 0-6.67-1.68-8.09-5.04l-.37-3.13c0-7.26 3.73-13.44 11.2-18.52 1.88-.96 3.29-1.44 4.23-1.44zm24.5.053c.8.176 1.21.79 1.21 1.846-.26 1.992-1.06 2.988-2.41 2.988-8.84 0-13.25 1.23-13.25 3.69l-.25 2.076v1.142c5.76-1.383 9.7-2.074 11.81-2.074h.48c.8.352 1.21 1.12 1.21 2.303 0 1.68-1.13 2.53-3.38 2.53-7.4.96-11.09 2.11-11.09 3.46l-.23 2.3v.91c0 1.38.88 2.15 2.64 2.3 2.76-.31 6.22-1 10.37-2.08h.72c.64.24.97.78.97 1.61v.68c0 1.88-4.02 3.34-12.06 4.37h-.72c-2.9 0-4.5-1.84-4.82-5.52 0-2.71.56-7.85 1.68-15.44l-.47-1.39c0-3.12 4.82-4.96 14.45-5.52l3.13-.23zm4.83-.053h.24c.76 0 1.4.393 1.91 1.178-1.11 8.11-1.91 15.363-2.39 21.762l13.71-2.83.48.703v1.424c0 2.156-4.97 4.125-14.91 5.906-1.77-.317-2.66-.867-2.66-1.653 1.31-17.343 2.27-26.015 2.88-26.015l.72-.475zm46.67.053h1.03c1.3 0 2.08 1.05 2.34 3.146v.493c0 3.174-1.2 5.272-3.61 6.292l-.43-.5v-.25l1.07-4.12-.84-.48c-3.5 0-7.67 3.31-12.5 9.93-1.15 2-1.72 3.53-1.72 4.58v.24c0 2.58 1.56 3.87 4.68 3.87h.19c3 0 6.32-.81 9.96-2.41h.65c.56.26.84.82.84 1.69v.96c-3 3.07-6.53 4.61-10.58 4.61-5.52-.58-8.28-3.32-8.28-8.23v-.49c0-6.27 4.45-12.41 13.34-18.41 1.69-.65 2.96-.97 3.83-.97zm14.22 0h.84c1.16 0 2.63 5.36 4.41 16.084 1.4 5.063 2.11 8.502 2.11 10.318-.3.96-.86 1.442-1.69 1.442-1.08 0-1.85-2.56-2.32-7.682l-.21-.228h-.22c-1.83.023-5.69 1.142-11.57 3.357-.57 3.2-1.48 4.8-2.75 4.8-.84-.33-1.26-.97-1.26-1.92 0-1.85 3.86-10.34 11.58-25.46l1.05-.72zm-.42 6.715c-1.69 3.047-3.24 6.252-4.64 9.615h1.47c1.43 0 3.25-.322 5.48-.967l-1.9-8.64h-.42zm13.2-6.768h.24c.76 0 1.4.393 1.92 1.178-1.11 8.11-1.91 15.363-2.39 21.762l13.71-2.83.48.703v1.424c0 2.156-4.97 4.125-14.91 5.906-1.77-.317-2.66-.867-2.66-1.653 1.31-17.343 2.27-26.015 2.88-26.015l.72-.475zm18.16 0h.24c.76 0 1.4.393 1.91 1.178-1.12 8.11-1.91 15.363-2.39 21.762l13.71-2.83.47.703v1.424c0 2.156-4.97 4.125-14.91 5.906-1.77-.317-2.66-.867-2.66-1.653 1.31-17.343 2.27-26.015 2.88-26.015l.72-.475zm33.34.053c.8.176 1.21.79 1.21 1.846-.26 1.992-1.06 2.988-2.41 2.988-8.84 0-13.26 1.23-13.26 3.69l-.25 2.076v1.142c5.77-1.383 9.7-2.074 11.81-2.074h.47c.81.352 1.21 1.12 1.21 2.303 0 1.68-1.13 2.53-3.38 2.53-7.4.96-11.09 2.11-11.09 3.46l-.23 2.3v.91c0 1.38.88 2.15 2.63 2.3 2.76-.31 6.22-1 10.37-2.08h.72c.65.24.97.78.97 1.61v.68c0 1.88-4.02 3.34-12.06 4.37h-.72c-2.9 0-4.5-1.84-4.82-5.52 0-2.71.56-7.85 1.69-15.44l-.48-1.39c0-3.12 4.82-4.96 14.45-5.52l3.13-.23zm10.6-.053h1.07c5.1 0 8.22 2.022 9.37 6.065l.21 1.933c0 8.05-5.97 14.684-17.9 19.9l-1.06.245h-.23c-.32 0-.6-.57-.85-1.705l2.13-20.865c-.86 0-1.29-.24-1.29-.72v-.493c0-2.578 1.14-3.868 3.41-3.868l5.11-.493zm-4.26 5.098c-1.28 8.297-1.92 13.875-1.92 16.734v1.212c8.94-4.47 13.41-8.68 13.41-12.62v-.23c0-2.28-.64-3.41-1.92-3.41-1.58-1.13-4.14-1.69-7.66-1.69h-1.92zm51.4-9.545h.26c2.17 0 3.62 1.764 4.36 5.29l-.51.564H619l-2.057-.563c-5.636.69-11.536 3.94-17.7 9.75-1.71 2.52-2.57 4.28-2.57 5.29v1.11c0 2.97 3.68 4.83 11.04 5.57 4.62 0 8.12-2.05 10.51-6.14l-3.07-1.11c-1.14 0-4.3 1.11-9.496 3.34-.516-.95-.774-1.88-.774-2.78v-.28c0-2.97 3.42-5.01 10.263-6.14h.51c3.936 0 5.905 2.14 5.905 6.41 0 4.41-4.36 8.3-13.07 11.69l-3.09.56c-5.53 0-9.29-1.95-11.28-5.86l-.51-3.62c0-8.41 5.21-15.55 15.64-21.45 2.63-1.11 4.6-1.67 5.91-1.67zm18.23 4.5h.84c1.16 0 2.63 5.36 4.41 16.084 1.4 5.063 2.11 8.502 2.11 10.318-.29.96-.86 1.442-1.69 1.442-1.08 0-1.85-2.56-2.32-7.682l-.21-.228h-.21c-1.83.023-5.68 1.142-11.57 3.357-.56 3.2-1.48 4.8-2.74 4.8-.85-.33-1.27-.97-1.27-1.92 0-1.85 3.86-10.34 11.58-25.46l1.05-.72zm-.43 6.715c-1.69 3.047-3.24 6.252-4.64 9.615h1.47c1.43 0 3.25-.322 5.48-.967l-1.9-8.64h-.42zm20.41-6.715c4.74 0 7.12 1.617 7.12 4.852v.72c0 2.262-1.07 4.442-3.22 6.54v.245c3.53 1.067 5.29 2.842 5.29 5.327v.966c0 4.055-3.98 7.037-11.95 8.948l-3.92.492h-2.28c-1.23 0-1.85-.645-1.85-1.934v-.246l1.84-19.863c-.78 0-1.16-.158-1.16-.475v-1.46c0-2.74 3.37-4.112 10.12-4.112zm-6.68 10.898h.24c7.2 0 10.79-1.617 10.79-4.85-1.18-.798-3.17-1.196-5.97-1.196H649c-1.217 0-1.826.562-1.826 1.687l-.477 4.358zm-.46 4.606l-.46 7.734 2.3.492.23-.246h1.14c6.44-.843 9.67-2.373 9.67-4.588-2.12-2.26-5.42-3.392-9.9-3.392h-.92l-.23-.246-.23.246h-1.62zm30.62-15.557h2.42c3.71 0 5.57 1.295 5.57 3.885v.246c0 4.535-3.88 8.66-11.64 12.375v.23c3.88 3.56 7.11 6.24 9.7 8.02v.72c0 1.26-.41 2.07-1.21 2.43h-.97l-13.32-9.45-.25 4.85v3.64c-.41.81-1.06 1.22-1.94 1.22-.65 0-1.13-.32-1.46-.96v-1.46l2.18-18.93c-.65 0-.97-.48-.97-1.44 0-2.92 2.42-4.61 7.26-5.1l4.6-.24zm-8.47 13.095h.24c8.39-2.15 12.59-4.5 12.59-7.03v-.242c0-.446-.81-.768-2.43-.967-2.68 0-5.91.57-9.69 1.71l-.72 6.54zm22.11-13.16h1.65c.55 0 .83.32.83.966-1.29 10.523-1.94 17.824-1.94 21.902v2.672c-.37 1.78-1.28 2.67-2.75 2.67h-.55l-1.11-.967c.74-11.04 1.66-19.8 2.76-26.28l1.09-.965zm22.92.122c.81.176 1.21.79 1.21 1.846-.26 1.992-1.06 2.988-2.41 2.988-8.84 0-13.26 1.23-13.26 3.69l-.25 2.076v1.14c5.77-1.383 9.71-2.074 11.82-2.074h.48c.81.352 1.21 1.12 1.21 2.303 0 1.69-1.13 2.53-3.38 2.53-7.4.96-11.1 2.12-11.1 3.47l-.23 2.31v.92c0 1.39.88 2.15 2.63 2.31 2.76-.3 6.22-.99 10.37-2.07h.72c.65.25.97.78.97 1.62v.69c0 1.89-4.02 3.35-12.06 4.38h-.72c-2.9 0-4.5-1.84-4.82-5.52 0-2.71.56-7.85 1.68-15.43l-.48-1.39c0-3.11 4.82-4.95 14.45-5.51l3.13-.23zm4.83-.053h.25c.76 0 1.4.39 1.91 1.17-1.11 8.11-1.91 15.36-2.39 21.76l13.71-2.83.48.7v1.42c0 2.15-4.97 4.12-14.91 5.9-1.77-.32-2.65-.87-2.65-1.66 1.31-17.35 2.27-26.02 2.88-26.02l.72-.48zm26.19-4.42c.7.33 1.05.72 1.05 1.18-3.34 10.76-5.01 17.57-5.01 20.44-.95 1.1-1.75 1.65-2.39 1.65-1.06-.38-1.59-.85-1.59-1.41 1.66-14.58 3.87-21.87 6.61-21.87h1.32zm-6.24 26.38c1.66.31 2.49 1.18 2.49 2.6v.23c-.67 2.22-2.27 3.34-4.8 3.34-1.26 0-2.01-.87-2.27-2.61 0-2.01 1.52-3.2 4.57-3.57z" fill="#000"/><path d="M681.314 608.91c-157.66 4.084-302.21-6.206-472.588-1.948-16.872-8.49 2.81 39.292 7.603 87.354 163.64-4.894 311.1 5.115 464.45-2.346l.52-83.06z" stroke="#000" stroke-width="3" fill="#A0892C"/><path d="M678.46 742.832c-1.9-51.49-18.45-101.745-4.067-152.316-2.893-5.38 36.51-4.053 28.573 1.86-15.587 49.78 2.557 99.932 2.606 149.724l-27.112.732z" stroke="#000" stroke-width="3" fill="#A0892C"/><path d="M259.88 544.245c-94.898-.59-100.38 68.652-1.528 73.61 121.75 6.104 110.634-72.934 1.527-73.61z" stroke="#050202" stroke-width="2.964" fill="#806600"/><path d="M192.78 742.91c-1.852-100.058-17.968-197.72-3.96-295.994-2.82-10.457 35.556-7.877 27.827 3.613-15.18 96.73 2.49 194.19 2.537 290.95l-26.404 1.42z" stroke="#000" stroke-width="3" fill="#A0892C"/><path d="M301.32 428.677l6.42 25.512-11.185 109.05-43.13-15.26c14.296-53.08 19.928-96.8 47.896-119.31z" stroke="#050202" stroke-width="4.067" fill="#ACF"/><path d="M297.973 390.95c0 18.873 6.68 36.972 18.57 50.316 11.893 13.345 28.02 20.842 44.838 20.842 35.02 0 63.41-31.858 63.41-71.157 0-39.29-28.39-71.15-63.41-71.15-16.81 0-32.94 7.5-44.83 20.84-11.89 13.35-18.57 31.45-18.57 50.32z" stroke="#000" stroke-width="4.067" fill="#502D16"/><path d="M425.826 428.677l-6.42 25.512 11.186 109.05 43.13-15.26c-14.296-53.08-19.93-96.8-47.896-119.31z" stroke="#050202" stroke-width="4.067" fill="#ACF"/><path d="M362.924 752.678c0 4.737 3.45 9.28 9.588 12.628 6.14 3.35 14.465 5.23 23.147 5.23 8.68 0 17-1.88 23.14-5.23 6.14-3.35 9.59-7.89 9.59-12.628 0-9.863-14.66-17.858-32.74-17.858-18.08 0-32.74 7.995-32.74 17.858zm-77.664 2.552c0 4.736 3.45 9.278 9.59 12.627 6.138 3.35 14.464 5.23 23.146 5.23 8.68 0 17.007-1.88 23.146-5.23 6.14-3.35 9.588-7.89 9.588-12.627 0-9.863-14.656-17.86-32.734-17.86-18.08 0-32.735 7.997-32.735 17.86z" stroke="#050202" stroke-width="4.067" fill="#2B1100"/><path d="M295.963 578.487c-4.52 57.767-15.687 146.038-4.857 157.967 34.48 17.88 114.923 24.43 141.655-10.637 13.08-30.44-8.96-96.993-5.87-147.33 16.45-98.954 9.4-187.6-66.89-188.91-67.22-1.153-81.38 87.4-64.03 188.91z" stroke="#050202" stroke-width="3.753" fill="#06F"/><path d="M314.774 372.775c0 15.19 4.973 29.76 13.825 40.5 8.85 10.74 20.85 16.776 33.37 16.776 12.52 0 24.52-6.03 33.37-16.77 8.85-10.74 13.82-25.31 13.82-40.5 0-15.19-4.98-29.76-13.83-40.5-8.85-10.74-20.86-16.77-33.38-16.77-12.52 0-24.53 6.04-33.38 16.78-8.85 10.74-13.83 25.31-13.83 40.5z" stroke="#050202" stroke-width="3.965" fill="#E6C2AA"/><path d="M372.066 360.582c0 2.366 1.93 4.284 4.31 4.284 2.383 0 4.313-1.918 4.313-4.284 0-1.136-.46-2.226-1.27-3.03-.81-.803-1.91-1.254-3.05-1.254s-2.24.45-3.05 1.254c-.81.804-1.27 1.894-1.27 3.03zm-27.42.49c0 2.367 1.93 4.285 4.31 4.285s4.312-1.918 4.312-4.284c0-1.137-.454-2.226-1.263-3.03-.81-.803-1.905-1.255-3.05-1.255-1.142 0-2.24.452-3.048 1.255-.808.804-1.262 1.893-1.262 3.03z" fill="#000"/><path d="M384.554 425.967c-12.528 8.722-41.714 5.273-47.626-.792-25.434 67.066 3.47 324.16 1.54 324.16 12.987 1.184 32.404 2.142 42.36.422-2.786.107 25.683-251.68 3.726-323.79z" stroke="#000" stroke-width="3.953" fill="#ACF"/><path d="M384.813 386.182c-5.976 5.79-43.623 2.11-46.878-.65-3.254-2.758 14.83 22.454 24.174 22.4 9.34-.056 28.68-27.54 22.7-21.75z" stroke="#000" stroke-width="4.067" fill="#FFD5D5"/><path d="M335.504 300.532c-34.89 5.744-47.746 87.934-37.672 141.127 1.79 8.45 13.22 10.25 19.913 6.48 5.923-2.58 7.118-9.25 7.445-14.97-.37-9.8-10.92-62.84 3.65-88.05 14.57-25.22 64.72-19.61 72.8 3.58 8.082 23.19-5.26 86.44 2.288 101.04 7.035 8.76 24.268 4.58 25.395-6.92-2.222-16.83 5.464-84.41 2.82-98.23-2.64-13.82-15.85-35.62-27.21-39.89-26.006-9.78-34.54-9.94-69.43-4.19z" stroke="#050202" stroke-width="3.962" fill="#ACF"/><path d="M419.07 318.358c2.506 4.112 8.802 9.352 8.238 14.38l-121.484.572c1.896-4.5 2.54-9.2 8.243-15.923l105.002.97z" stroke="#000" stroke-width="3.956" fill="#06F"/><path d="M469.534 550.98c-2.03 6.303-.513 10.912-5.352 25.92-4.708 14.6-6.11 28.73-20.564 25.005-8.057-2.076-15.73-17.484-6.95-23.418-5.033 3.026-13.082 10.957-15.66 8.195-3.766-4.04-3.993-12.264 6.233-17.63 2.5-1.31 1.32-2.184 3.42-3.117.32-.632 3.34-2.657 3.96-3.017 10.71-6.16 29.28-10.598 34.92-11.937zm-211.92 0c2.03 6.303.512 10.912 5.35 25.92 4.71 14.6 6.11 28.73 20.565 25.005 8.05-2.076 15.73-17.484 6.95-23.418 5.03 3.026 13.08 10.957 15.65 8.195 3.77-4.04 3.99-12.264-6.23-17.63-2.5-1.31-1.32-2.184-3.42-3.117-.32-.632-3.33-2.657-3.96-3.017-10.71-6.16-29.28-10.598-34.92-11.937z" stroke="#050202" stroke-width="4.067" fill="#E6C2AA"/><g transform="translate(1049 303)"><ellipse stroke="#000" stroke-width="3.5" fill="#FFF" transform="rotate(-135.477 290.066 118.666)" cx="290.066" cy="118.666" rx="75.453" ry="92.406"/><ellipse stroke="#000" stroke-width="3.5" fill="#FFF" transform="rotate(-44.523 119.78 118.666)" cx="119.78" cy="118.666" rx="75.453" ry="92.406"/><path d="M143.79 135.696l6.417 25.512-11.185 109.052L95.892 255c14.297-53.077 19.93-96.795 47.897-119.304z" stroke="#050202" stroke-width="4" fill="#FFF"/><ellipse stroke="#000" stroke-width="4" fill="#502D16" transform="matrix(-1 0 0 1 407.697 0)" cx="203.848" cy="97.97" rx="63.408" ry="71.157"/><path d="M268.294 135.696l-6.42 25.512L273.06 270.26 316.19 255c-14.296-53.077-19.93-96.795-47.896-119.304z" stroke="#050202" stroke-width="4" fill="#FFF"/><ellipse stroke="#050202" stroke-width="4" fill="#E6C2AA" transform="matrix(-1 0 0 1 476.253 0)" cx="238.126" cy="459.698" rx="32.734" ry="17.858"/><ellipse stroke="#050202" stroke-width="4" fill="#E6C2AA" transform="matrix(-1 0 0 1 320.927 0)" cx="160.463" cy="462.249" rx="32.734" ry="17.858"/><path d="M138.43 285.507c-4.518 57.766-15.686 146.037-4.856 157.966 34.48 17.88 114.923 24.43 141.655-10.637 13.07-30.44-8.97-96.993-5.88-147.33 16.44-98.954 9.39-187.6-66.89-188.91-67.23-1.152-81.39 87.4-64.04 188.91z" stroke="#000" stroke-width="3.691" fill="#FFF"/><path d="M231.914 119.72c-5.976 5.79-54.378.794-57.633-1.965-3.25-2.76 13.11 37.9 29.14 38.02 15.38.113 34.47-41.845 28.5-36.055z" stroke="#000" stroke-width="4" fill="#E6C2AA"/><ellipse stroke="#050202" stroke-width="3.9" fill="#E6C2AA" transform="matrix(-1 0 0 1 408.8 0)" cx="204.356" cy="79.794" rx="47.201" ry="57.276"/><ellipse fill="#000" transform="matrix(-1 0 0 1 440.33 0)" cx="221.484" cy="66.338" rx="4.312" ry="4.284"/><ellipse fill="#000" transform="matrix(-1 0 0 1 382.946 0)" cx="192.792" cy="66.829" rx="4.312" ry="4.284"/><path d="M227.28 93.2c-5.975 5.79-43.622 2.11-46.877-.648-3.254-2.76 14.83 22.454 24.174 22.4 9.346-.056 28.68-27.54 22.704-21.75z" stroke="#000" stroke-width="4" fill="#FFD5D5"/><path d="M177.972 7.55c-34.89 5.746-47.746 87.935-37.672 141.128 1.79 8.45 13.22 10.257 19.913 6.488 5.923-2.576 7.118-9.25 7.445-14.965-.37-9.79-10.92-62.84 3.65-88.05 14.57-25.21 64.72-19.61 72.8 3.59 8.082 23.2-5.26 86.45 2.288 101.05 7.035 8.76 24.268 4.59 25.395-6.92-2.22-16.82 5.47-84.4 2.83-98.22-2.64-13.82-15.85-35.62-27.21-39.89-26-9.77-34.54-9.93-69.42-4.19z" stroke="#050202" stroke-width="3.897" fill="#FC0"/><path d="M136.872 270.04l135.975.167c-1.713 6.323-.9 15.35-.386 23.108l-135.07-.332-.51-22.942z" stroke="#000" stroke-width="3.496" fill="#FC0"/><path d="M312.002 258c-2.03 6.303-.514 10.91-5.353 25.92-4.71 14.6-6.11 28.73-20.57 25.004-8.06-2.076-15.73-17.484-6.95-23.417-5.04 3.026-13.08 10.956-15.66 8.194-3.77-4.03-4-12.26 6.23-17.62 2.49-1.31 1.32-2.18 3.41-3.12.31-.63 3.33-2.65 3.96-3.02 10.71-6.16 29.27-10.6 34.91-11.94zm-211.922 0c2.032 6.303.514 10.91 5.353 25.92 4.708 14.6 6.11 28.73 20.564 25.004 8.057-2.076 15.73-17.484 6.95-23.417 5.033 3.026 13.082 10.956 15.658 8.194 3.768-4.03 3.995-12.26-6.23-17.62-2.5-1.31-1.32-2.18-3.42-3.12-.316-.63-3.332-2.65-3.96-3.02-10.71-6.16-29.274-10.6-34.914-11.93z" stroke="#050202" stroke-width="4" fill="#E6C2AA"/></g><path d="M1143.153 426.766l60.81-6.834-35.537-26.716c6.212-12.46 9.537-25.617 9.537-39.216 0-78.977-112.152-143-250.5-143-138.347 0-250.5 64.023-250.5 143s112.153 143 250.5 143c91.802 0 172.07-28.19 215.69-70.234zm-663.14 28.704l-47.977-32.598 70.693-10.32C519.39 398.722 543.77 390 570.94 390c50.223 0 90.937 29.818 90.937 66.6 0 36.783-40.714 66.6-90.938 66.6-50.23 0-90.94-29.817-90.94-66.6 0-.377 0-.753.01-1.13z" stroke="#000" stroke-width="4" fill="#FFF"/><path d="M770.695 265.03h.235c1.927 0 3.218 1.57 3.875 4.704l-.453.5h-.235l-1.828-.5c-5.01.615-10.26 3.506-15.74 8.672-1.52 2.24-2.28 3.808-2.28 4.703v.98c0 2.64 3.27 4.29 9.81 4.95 4.1 0 7.22-1.82 9.34-5.46l-2.74-.99c-1.01 0-3.83.99-8.44 2.97-.46-.85-.69-1.67-.69-2.47v-.25c0-2.64 3.04-4.45 9.12-5.45h.45c3.5 0 5.25 1.9 5.25 5.7 0 3.91-3.88 7.38-11.63 10.39l-2.75.5c-4.92 0-8.26-1.74-10.03-5.2l-.46-3.22c0-7.47 4.63-13.82 13.9-19.06 2.33-.99 4.08-1.49 5.25-1.49zm18.188 3.954h2.156c3.3 0 4.95 1.15 4.95 3.454v.218c0 4.032-3.45 7.698-10.35 11v.203c3.45 3.16 6.32 5.54 8.62 7.12v.64c0 1.11-.36 1.83-1.08 2.15h-.86l-11.85-8.41-.22 4.31v3.23c-.37.72-.94 1.08-1.72 1.08-.58 0-1.01-.29-1.3-.86v-1.3l1.95-16.82c-.58 0-.86-.43-.86-1.28 0-2.6 2.15-4.11 6.45-4.53l4.09-.22zm-7.53 11.64h.217c7.46-1.916 11.188-4 11.188-6.25v-.218c0-.396-.72-.682-2.156-.86-2.386 0-5.256.506-8.61 1.517l-.64 5.812zm31.342-11.593c.72.16 1.078.71 1.078 1.65-.23 1.77-.942 2.66-2.14 2.66-7.854 0-11.78 1.1-11.78 3.28l-.22 1.85v1.02c5.125-1.23 8.625-1.84 10.5-1.84h.422c.718.32 1.078 1 1.078 2.05 0 1.5-1 2.25-3 2.25-6.573.86-9.86 1.88-9.86 3.08l-.203 2.05v.81c0 1.23.782 1.91 2.344 2.05 2.458-.27 5.53-.88 9.22-1.84h.64c.572.22.86.7.86 1.44v.61c0 1.68-3.574 2.97-10.72 3.89h-.64c-2.573 0-4-1.63-4.282-4.9 0-2.41.5-6.98 1.5-13.72l-.422-1.23c0-2.77 4.282-4.41 12.844-4.91l2.78-.2zm17.797 0c.72.16 1.078.71 1.078 1.65-.23 1.77-.942 2.66-2.14 2.66-7.855 0-11.782 1.1-11.782 3.28l-.218 1.85v1.02c5.125-1.23 8.625-1.84 10.5-1.84h.422c.718.32 1.078 1 1.078 2.05 0 1.5-1 2.25-3 2.25-6.573.86-9.86 1.88-9.86 3.08l-.203 2.05v.81c0 1.23.78 1.91 2.344 2.05 2.46-.27 5.54-.88 9.22-1.84h.64c.58.22.86.7.86 1.44v.61c0 1.68-3.57 2.97-10.72 3.89h-.64c-2.57 0-4-1.63-4.28-4.9 0-2.41.5-6.98 1.5-13.72l-.42-1.23c0-2.77 4.28-4.41 12.85-4.91l2.78-.2zm18.438-.06c1.354 0 2.03.56 2.03 1.69v.42c0 1.55-1.207 2.33-3.624 2.33l-4.516.22c-1.354 7.22-2.03 13.43-2.03 18.63-.366 1.13-.74 1.69-1.126 1.69h-.687c-.782 0-1.235-.21-1.36-.64.76-7.99 1.59-14.48 2.485-19.47l-6.782 1.07c-.635 0-1.01-.63-1.125-1.9 0-2.11 1.886-3.17 5.657-3.17 2.26-.56 5.953-.84 11.078-.84zm6.406-.04h1.47c.488 0 .733.29.733.86-1.15 9.36-1.72 15.85-1.72 19.47v2.38c-.33 1.59-1.14 2.38-2.44 2.38h-.49l-.99-.86c.65-9.81 1.47-17.59 2.45-23.36l.97-.85zm7.094.06c.948 0 2.083 1.78 3.406 5.35 2.562 5.25 5.41 9.74 8.547 13.47 1.052-10.28 1.833-16.34 2.344-18.17l.86-.64h.64c.427 0 .64.29.64.86-1.28 14.69-2.062 22.53-2.344 23.52l-1.28.42c-2.282 0-6.126-4.84-11.532-14.53l-.85-.86-.22.64-.64 9.85v1.28l.22 1.28c-.19 1.71-.75 2.56-1.7 2.56-.87-.31-1.37-.74-1.5-1.28 1.1-15.39 1.88-23.09 2.35-23.09l1.08-.64zm31.422 0h.156c1.385 0 2.312 1.36 2.78 4.07l-.327.42h-.15l-1.31-.42c-3.58.53-7.34 3.03-11.26 7.49-1.09 1.94-1.64 3.3-1.64 4.07v.86c0 2.28 2.35 3.71 7.03 4.27 2.94 0 5.17-1.57 6.69-4.7l-1.95-.84c-.73 0-2.74.86-6.04 2.56-.32-.73-.48-1.44-.48-2.14v-.22c0-2.27 2.18-3.84 6.53-4.7h.33c2.5 0 3.75 1.64 3.75 4.92 0 3.39-2.77 6.38-8.33 8.99l-1.95.43c-3.53 0-5.93-1.49-7.19-4.48l-.33-2.78c0-6.45 3.32-11.94 9.96-16.46 1.68-.86 2.94-1.28 3.77-1.28zm18.312.05h.328c1.438.18 2.156.88 2.156 2.1v.42c0 2.11-.718 4.06-2.156 5.88h-.328c-.23-.06-.453-.41-.672-1.04l.844-3.14-.656-.42c-1.532.14-4.344 1.82-8.438 5.03v.21l10.906 2.11c1.105.88 1.657 2.34 1.657 4.41v1.25c0 2.82-1.818 5.27-5.453 7.34-1.428.57-2.808.85-4.14.85h-.345c-3.79 0-6.104-1.67-6.937-5.03v-1.26c0-1.54.385-2.31 1.156-2.31.76 2.67 2.14 4 4.14 4 0 .27.83.41 2.485.41 2.45 0 4.82-1.25 7.11-3.76 0-1.67-3.52-2.72-10.57-3.16-2.54-.71-3.81-1.75-3.81-3.14 0-3.41 3.42-6.83 10.25-10.28l2.49-.42zm29.922-3.93h.47c.77.43 1.155 1.09 1.155 1.97v.5c0 5.35.46 11.61 1.38 18.79h.24c5.09-13.51 8.08-20.27 8.99-20.27h.68c.68 0 1.75 4.7 3.22 14.1 1.39 4.81 2.08 8.85 2.08 12.1-.45 1.16-1.14 1.74-2.08 1.74-.61 0-1.45-4.03-2.53-12.11l-1.84-7.91c-1.32 2.16-3.7 7.76-7.14 16.8-.99 1.02-1.83 1.6-2.53 1.74-2 0-3-2.72-3-8.15l-1.14-10.4h-.23l-6.91 15.81c-.41 2.64-.8 3.96-1.15 3.96h-.93l-.92-.98v-1.23c0-2.21 1.92-6.99 5.77-14.32 2.73-7.7 4.5-11.65 5.3-11.86l1.14-.25zm29.734 3.94h.75c1.032 0 2.34 4.77 3.922 14.3 1.25 4.5 1.875 7.56 1.875 9.18-.26.86-.76 1.28-1.5 1.28-.958 0-1.646-2.27-2.062-6.82l-.188-.2h-.187c-1.625.02-5.052 1.02-10.282 2.99-.5 2.85-1.312 4.27-2.437 4.27-.75-.29-1.12-.86-1.12-1.7 0-1.65 3.43-9.19 10.3-22.63l.94-.64zm-.375 5.97c-1.5 2.71-2.875 5.56-4.125 8.55h1.313c1.27 0 2.896-.28 4.875-.86l-1.688-7.7h-.375zm20.157-6.02h2.156c3.302 0 4.953 1.15 4.953 3.46v.22c0 4.03-3.44 7.7-10.34 11v.21c3.45 3.17 6.33 5.54 8.63 7.12v.64c0 1.11-.36 1.83-1.08 2.16h-.86l-11.84-8.4-.22 4.32v3.24c-.36.72-.93 1.08-1.72 1.08-.57 0-1-.28-1.29-.86v-1.29l1.94-16.82c-.57 0-.86-.43-.86-1.28 0-2.59 2.15-4.1 6.46-4.53l4.1-.22zm-7.532 11.64h.22c7.457-1.91 11.187-4 11.187-6.25v-.22c0-.39-.72-.68-2.157-.86-2.385 0-5.255.51-8.61 1.52l-.64 5.82zm16.547-11.59l4.78 7.25 2.095 1.72c2.646-4.7 4.49-7.55 5.53-8.54h.955l.765.86c-.104.76-3.094 6.09-8.97 16-1.478 2.78-2.56 5.27-3.25 7.47l-.56.22c-.897-.41-1.345-1.05-1.345-1.92.052-1.11 1.578-4.6 4.578-10.45-4.323-4.65-6.484-8.42-6.484-11.31.81-.86 1.44-1.28 1.91-1.28zm22.78-3.96c.626.29.94.64.94 1.04-2.97 9.56-4.454 15.62-4.454 18.17-.844.98-1.552 1.47-2.125 1.47-.938-.33-1.406-.75-1.406-1.25 1.48-12.96 3.437-19.44 5.875-19.44h1.17zm-5.545 23.45c1.48.28 2.218 1.05 2.218 2.31v.21c-.593 1.98-2.015 2.97-4.265 2.97-1.115 0-1.787-.77-2.016-2.31 0-1.78 1.35-2.84 4.06-3.17zm38.92-23.48h.236c1.927 0 3.22 1.57 3.875 4.71l-.453.5h-.235l-1.828-.5c-5.01.62-10.255 3.51-15.734 8.67-1.52 2.24-2.28 3.81-2.28 4.71v.99c0 2.65 3.27 4.3 9.81 4.95 4.105 0 7.22-1.81 9.345-5.45l-2.735-.98c-1.01 0-3.822.99-8.437 2.97-.458-.84-.688-1.66-.688-2.47v-.25c0-2.63 3.042-4.45 9.125-5.45h.454c3.5 0 5.25 1.9 5.25 5.71 0 3.91-3.875 7.38-11.625 10.39l-2.75.5c-4.917 0-8.26-1.74-10.032-5.21l-.453-3.22c0-7.47 4.636-13.82 13.906-19.06 2.334-.99 4.084-1.48 5.25-1.48zm20.22 3.96c4.448.62 6.672 3.28 6.672 7.99 0 6.17-2.437 11.27-7.312 15.31-2.01 1.15-3.808 1.72-5.39 1.72-3.866 0-6.355-2.08-7.47-6.25l-.156-1.94v-.65c0-6.73 3.073-11.83 9.22-15.31 1.54-.57 3.02-.86 4.436-.86zm-11.594 16.83c1.605 2.44 3.724 3.66 6.36 3.66 4.24 0 7.203-2.51 8.89-7.55l.313-2.37c0-3.54-1.74-5.62-5.23-6.25h-.48c-2.88 0-5.9 2.88-9.04 8.63-.53 1.73-.79 3.03-.79 3.89zm27.594-16.83h.953c4.532 0 7.308 1.8 8.328 5.39l.188 1.72c0 7.16-5.3 13.05-15.9 17.69l-.94.22h-.2c-.28 0-.53-.5-.75-1.51l1.89-18.54c-.76 0-1.14-.21-1.14-.64v-.44c0-2.29 1.01-3.43 3.03-3.43l4.55-.44zm-3.78 4.53c-1.136 7.38-1.704 12.34-1.704 14.88v1.08c7.948-3.97 11.922-7.71 11.922-11.22v-.2c0-2.02-.568-3.03-1.703-3.03-1.407-1-3.678-1.5-6.813-1.5h-1.703zM784.712 311c.74.196 1.108.7 1.108 1.514v.208c-1.04 15.382-1.78 23.074-2.218 23.074l-.235.22h-.656c-.77 0-1.29-.36-1.56-1.08.29-2.052.44-4.93.44-8.625h-.22l-9.34 2.16-.65.86v4.09c0 1.22-.45 2.09-1.34 2.6h-.43c-.83 0-1.35-.36-1.56-1.07 1.03-15.53 2.52-23.29 4.45-23.29h.44l.67.88c-1.04 5.16-1.56 8.97-1.56 11.42 6.82-.9 10.24-1.97 10.24-3.24l.89-9.06 1.56-.64zm12.155.045h.75c1.03 0 2.34 4.768 3.922 14.3 1.25 4.5 1.87 7.556 1.87 9.17-.26.855-.76 1.28-1.5 1.28-.96 0-1.65-2.274-2.06-6.826l-.19-.21h-.19c-1.63.02-5.05 1.01-10.28 2.98-.5 2.84-1.31 4.26-2.44 4.26-.75-.29-1.13-.86-1.13-1.71 0-1.65 3.43-9.19 10.29-22.63l.93-.64zm-.375 5.97c-1.5 2.71-2.875 5.558-4.125 8.548h1.313c1.27 0 2.896-.286 4.875-.86l-1.688-7.7h-.375zm21.766-5.97h.328c1.437.18 2.156.877 2.156 2.096v.43c0 2.11-.72 4.07-2.156 5.88h-.328c-.23-.06-.453-.41-.672-1.05l.844-3.14-.657-.42c-1.53.14-4.343 1.82-8.437 5.03v.21l10.906 2.11c1.104.88 1.656 2.34 1.656 4.41v1.25c0 2.82-1.817 5.27-5.453 7.34-1.427.56-2.807.84-4.14.84h-.344c-3.79 0-6.1-1.67-6.93-5.03v-1.26c0-1.54.39-2.31 1.16-2.31.76 2.67 2.14 4 4.14 4 0 .27.83.41 2.49.41 2.45 0 4.82-1.25 7.11-3.76 0-1.66-3.52-2.71-10.58-3.15-2.54-.71-3.81-1.75-3.81-3.14 0-3.4 3.42-6.83 10.25-10.28l2.49-.42zm32.078 0h.328c1.438.18 2.156.877 2.156 2.096v.43c0 2.11-.718 4.07-2.156 5.88h-.328c-.23-.06-.453-.41-.672-1.05l.844-3.14-.656-.42c-1.532.14-4.344 1.82-8.438 5.03v.21l10.906 2.11c1.104.88 1.657 2.34 1.657 4.41v1.25c0 2.82-1.818 5.27-5.454 7.34-1.427.56-2.807.84-4.14.84h-.344c-3.8 0-6.11-1.67-6.94-5.03v-1.26c0-1.54.38-2.31 1.15-2.31.76 2.67 2.14 4 4.14 4 0 .27.83.41 2.48.41 2.45 0 4.82-1.25 7.11-3.76 0-1.66-3.53-2.71-10.58-3.15-2.54-.71-3.81-1.75-3.81-3.14 0-3.4 3.41-6.83 10.25-10.28l2.48-.42zm22.266 0c.718.16 1.078.705 1.078 1.643-.23 1.77-.943 2.652-2.14 2.652-7.855 0-11.782 1.095-11.782 3.28l-.22 1.846v1.014c5.126-1.23 8.626-1.842 10.5-1.842h.423c.72.31 1.08.993 1.08 2.045 0 1.5-1 2.25-3 2.25-6.57.858-9.86 1.88-9.86 3.08l-.2 2.05v.815c0 1.23.78 1.91 2.35 2.047 2.46-.27 5.54-.88 9.22-1.84h.64c.58.22.86.7.86 1.44v.61c0 1.677-3.57 2.974-10.72 3.89h-.64c-2.57 0-4-1.634-4.28-4.905 0-2.405.5-6.98 1.5-13.72l-.42-1.23c0-2.77 4.28-4.407 12.84-4.907l2.79-.205zm4.515-.045c.948 0 2.084 1.785 3.406 5.347 2.563 5.25 5.412 9.74 8.547 13.47 1.052-10.282 1.834-16.34 2.344-18.173l.86-.64h.64c.427 0 .64.29.64.86-1.28 14.69-2.062 22.53-2.343 23.52l-1.28.42c-2.28 0-6.12-4.845-11.53-14.53l-.86-.86-.22.64-.64 9.84v1.28l.22 1.286c-.18 1.71-.75 2.563-1.7 2.563-.87-.315-1.37-.74-1.5-1.28 1.1-15.4 1.88-23.097 2.35-23.097l1.08-.64zm35.047-.012c1.354 0 2.03.56 2.03 1.686v.43c0 1.55-1.207 2.327-3.624 2.327l-4.515.22c-1.354 7.22-2.032 13.43-2.032 18.63-.364 1.13-.74 1.69-1.125 1.69h-.687c-.78 0-1.23-.21-1.35-.64.76-7.99 1.59-14.48 2.49-19.47l-6.78 1.06c-.63 0-1.01-.64-1.12-1.91 0-2.11 1.89-3.17 5.66-3.17 2.26-.56 5.96-.84 11.08-.84zm24.375.014h.4c.66.36 1 .93 1 1.7v.437c0 4.62.4 10.04 1.22 16.25h.2c4.46-11.69 7.08-17.53 7.87-17.53h.61c.59 0 1.53 4.06 2.83 12.18 1.2 4.17 1.81 7.65 1.81 10.47-.4 1-1 1.5-1.81 1.5-.55 0-1.29-3.5-2.22-10.49l-1.63-6.83c-1.16 1.86-3.25 6.7-6.27 14.53-.87.88-1.61 1.38-2.22 1.5-1.75 0-2.63-2.36-2.63-7.07l-1-8.97h-.21l-6.06 13.67c-.37 2.28-.71 3.42-1.02 3.42h-.8l-.82-.84v-1.08c0-1.92 1.68-6.05 5.05-12.39 2.4-6.67 3.94-10.09 4.64-10.27l1.02-.22zm34.25.05c.71.15 1.07.7 1.07 1.64-.23 1.77-.95 2.65-2.14 2.65-7.86 0-11.78 1.094-11.78 3.28l-.22 1.845v1.013c5.12-1.23 8.62-1.845 10.5-1.845h.42c.72.31 1.08.992 1.08 2.044 0 1.5-1 2.25-3 2.25-6.58.85-9.86 1.88-9.86 3.07l-.21 2.04v.81c0 1.23.78 1.91 2.34 2.04 2.46-.27 5.53-.89 9.22-1.85h.64c.57.22.86.7.86 1.44v.61c0 1.67-3.58 2.97-10.72 3.89h-.64c-2.58 0-4-1.64-4.28-4.91 0-2.41.5-6.98 1.5-13.72l-.43-1.23c0-2.77 4.28-4.41 12.84-4.91l2.78-.21zm15.95 0c.7 0 1.04 2.41 1.04 7.25l1.4 9.19h.34c0-.54 1.4-3.38 4.2-8.55.43-3.41 1.25-5.11 2.45-5.11h.34c.7 0 1.29 2.63 1.75 7.89.78 3.59 1.36 5.73 1.75 6.4.37-1.812 2.24-7.15 5.61-16.015.49-.566.96-.847 1.41-.847.62 0 1.03.28 1.22.845 0 .73-1.75 5.493-5.25 14.296-.59 2.09-1.11 4.93-1.58 8.55-.38.71-.85 1.07-1.41 1.07-1.06 0-1.88-2.42-2.44-7.25-1.15-4.72-1.85-7.28-2.11-7.69l-3.5 6.83c-.59 1.33-1.11 3.61-1.58 6.83-.32.52-.78.88-1.39 1.06-.98 0-1.8-3.69-2.46-11.09-.94-5.23-1.41-9.42-1.41-12.59 0-.43.52-.78 1.57-1.06zm26.54-.11h1.47c.49 0 .73.28.73.86-1.15 9.35-1.72 15.84-1.72 19.462v2.375c-.32 1.58-1.14 2.37-2.44 2.37h-.49l-.99-.86c.66-9.81 1.47-17.6 2.45-23.36l.97-.86zm21.01.04c1.35 0 2.03.56 2.03 1.687v.42c0 1.55-1.21 2.33-3.63 2.33l-4.52.22c-1.35 7.22-2.03 13.43-2.03 18.62-.37 1.12-.74 1.69-1.13 1.69h-.69c-.78 0-1.24-.22-1.36-.64.76-7.99 1.59-14.48 2.48-19.47l-6.78 1.06c-.64 0-1.01-.64-1.13-1.91 0-2.11 1.89-3.17 5.66-3.17 2.26-.56 5.95-.85 11.08-.85zm18.08.015c.74.195 1.11.7 1.11 1.513v.204c-1.04 15.387-1.78 23.08-2.22 23.08l-.24.22h-.66c-.77 0-1.3-.36-1.57-1.08.29-2.05.44-4.926.44-8.624h-.22l-9.35 2.16-.66.86v4.09c0 1.22-.45 2.087-1.35 2.597h-.44c-.84 0-1.36-.36-1.56-1.078 1.03-15.53 2.51-23.3 4.45-23.3h.44l.67.87c-1.04 5.15-1.56 8.96-1.56 11.42 6.82-.9 10.23-1.97 10.23-3.23l.89-9.06 1.56-.64zm25.43.044h.75c1.03 0 2.34 4.77 3.92 14.3 1.25 4.5 1.87 7.56 1.87 9.17-.26.86-.76 1.28-1.5 1.28-.96 0-1.65-2.27-2.06-6.82l-.19-.2h-.19c-1.63.02-5.05 1.02-10.28 2.99-.5 2.85-1.32 4.27-2.44 4.27-.75-.29-1.13-.86-1.13-1.7 0-1.65 3.43-9.19 10.29-22.63l.93-.64zm-.38 5.97c-1.5 2.71-2.88 5.56-4.13 8.55h1.31c1.27 0 2.9-.28 4.88-.86l-1.69-7.69h-.38zM765.57 353h.624c.57.23.85.73.85 1.5 0 1.04-2.177 5.53-6.53 13.47-2.137 5.946-3.47 9.154-4 9.623l-2.095.423c-.91 0-1.55-1.64-1.9-4.923-2.8-9.886-4.2-15.944-4.2-18.173.23-.646.65-1.146 1.27-1.5h.84c.76 0 1.53 2.995 2.31 8.985l2.53 9.407h.2c1.45-3.856 4.61-9.986 9.46-18.39l.64-.425zm18.17.046c.72.16 1.078.705 1.078 1.643-.23 1.77-.94 2.65-2.14 2.65-7.85 0-11.78 1.09-11.78 3.28l-.215 1.84v1.01c5.125-1.23 8.624-1.85 10.5-1.85h.42c.72.31 1.08.99 1.08 2.05 0 1.5-1 2.25-3 2.25-6.573.85-9.86 1.88-9.86 3.08l-.203 2.04v.81c0 1.23.78 1.91 2.35 2.05 2.46-.27 5.53-.89 9.22-1.85h.64c.575.22.86.7.86 1.44v.61c0 1.67-3.57 2.97-10.717 3.89h-.642c-2.57 0-4-1.64-4.28-4.91 0-2.41.5-6.98 1.5-13.72l-.42-1.24c0-2.77 4.28-4.41 12.85-4.91l2.78-.2zm12.72-.045h2.155c3.304 0 4.955 1.15 4.955 3.46v.22c0 4.03-3.448 7.7-10.344 11v.21c3.45 3.17 6.323 5.54 8.63 7.13v.64c0 1.12-.36 1.84-1.08 2.16h-.86l-11.85-8.4-.22 4.32v3.23c-.367.72-.94 1.08-1.72 1.08-.57 0-1.006-.29-1.297-.86v-1.3l1.93-16.82c-.57 0-.86-.42-.86-1.28 0-2.59 2.15-4.1 6.45-4.53l4.09-.22zm-7.533 11.64h.22c7.45-1.91 11.18-4 11.18-6.25v-.21c0-.39-.72-.68-2.16-.86-2.387 0-5.257.51-8.61 1.52l-.64 5.82zm16.54-11.59l4.78 7.25 2.09 1.72c2.645-4.71 4.49-7.55 5.53-8.54h.954l.77.86c-.1.76-3.09 6.1-8.97 16-1.48 2.78-2.56 5.27-3.25 7.47l-.56.22c-.89-.42-1.34-1.06-1.34-1.92.06-1.11 1.58-4.6 4.58-10.45-4.32-4.64-6.48-8.41-6.48-11.31.8-.85 1.44-1.28 1.91-1.28zm38.95 0h.33c1.434.18 2.153.88 2.153 2.1v.42c0 2.11-.72 4.06-2.157 5.88h-.33c-.23-.06-.454-.41-.67-1.04l.84-3.14-.656-.42c-1.53.14-4.34 1.82-8.434 5.04v.2l10.905 2.11c1.1.88 1.65 2.35 1.65 4.41v1.25c0 2.82-1.814 5.27-5.45 7.34-1.424.56-2.804.85-4.14.85h-.34c-3.79 0-6.104-1.67-6.937-5.03v-1.26c0-1.54.39-2.31 1.16-2.31.76 2.67 2.14 4 4.14 4 0 .27.83.41 2.49.41 2.45 0 4.82-1.25 7.11-3.76 0-1.66-3.52-2.71-10.57-3.15-2.54-.71-3.81-1.76-3.81-3.14 0-3.41 3.42-6.83 10.25-10.28l2.48-.42zm17.153-.04c4.135 0 6.203 1.22 6.203 3.64 0 4.81-4.53 9.15-13.596 13.03-.66 0-1 .43-1 1.28-.09 4.71-.56 7.07-1.4 7.07h-1c-.27-.06-.54-.42-.8-1.06l1.8-17.53h-.206c-.53 0-.79-.65-.79-1.94 0-2.09 1.2-3.3 3.61-3.62l7.19-.86zm-8 12.41c4.573-1.19 8.04-3.19 10.406-5.98l.39-1.3v-.42l-1-.22h-1c-5.323.29-7.985.79-7.985 1.5l-.81 6.42zm30.906-12.36c.72.16 1.077.71 1.077 1.64-.23 1.77-.945 2.66-2.14 2.66-7.857 0-11.784 1.1-11.784 3.28l-.22 1.85v1.02c5.12-1.23 8.62-1.84 10.5-1.84h.42c.72.31 1.08 1 1.08 2.05 0 1.5-1 2.25-3 2.25-6.58.86-9.86 1.88-9.86 3.08l-.21 2.05v.81c0 1.23.78 1.91 2.34 2.05 2.46-.27 5.53-.88 9.22-1.84h.64c.57.22.86.7.86 1.44v.61c0 1.68-3.57 2.98-10.72 3.89h-.64c-2.58 0-4-1.63-4.28-4.9 0-2.41.5-6.98 1.5-13.72l-.43-1.23c0-2.77 4.28-4.4 12.85-4.9l2.78-.2zm16.36 0h.92c1.157 0 1.85.94 2.08 2.8v.44c0 2.82-1.07 4.69-3.205 5.59l-.37-.44v-.22l.95-3.65-.75-.42c-3.11 0-6.81 2.95-11.11 8.83-1.02 1.78-1.53 3.14-1.53 4.08v.22c0 2.29 1.39 3.44 4.16 3.44h.17c2.67 0 5.62-.71 8.86-2.14h.58c.5.23.75.73.75 1.5v.86c-2.67 2.73-5.8 4.1-9.41 4.1-4.9-.51-7.36-2.95-7.36-7.31v-.43c0-5.57 3.96-11.02 11.86-16.36 1.5-.57 2.64-.86 3.41-.86zm8.014-.11h1.47c.49 0 .74.29.74.86-1.146 9.36-1.72 15.85-1.72 19.47v2.38c-.32 1.59-1.134 2.38-2.436 2.38h-.485l-.99-.86c.66-9.81 1.48-17.6 2.46-23.36l.97-.86zm13.32.11h.75c1.03 0 2.34 4.77 3.92 14.3 1.25 4.5 1.876 7.56 1.876 9.17-.26.85-.76 1.28-1.5 1.28-.96 0-1.643-2.27-2.06-6.83l-.19-.2h-.183c-1.627.02-5.054 1.02-10.28 2.99-.5 2.85-1.316 4.27-2.44 4.27-.75-.29-1.126-.86-1.126-1.7 0-1.64 3.438-9.19 10.3-22.62l.94-.64zm-.375 5.97c-1.5 2.71-2.87 5.56-4.12 8.55H919c1.27 0 2.896-.28 4.875-.86l-1.688-7.7h-.375zm11.74-6.02h.22c.674 0 1.24.35 1.7 1.05-.99 7.21-1.7 13.66-2.127 19.35l12.19-2.51.427.63v1.27c0 1.92-4.41 3.67-13.25 5.25-1.57-.28-2.36-.77-2.36-1.47 1.17-15.41 2.028-23.12 2.57-23.12l.64-.42zm35.92 0h.404c.67.37 1 .93 1 1.71v.44c0 4.63.4 10.05 1.22 16.25h.2c4.45-11.68 7.08-17.53 7.87-17.53h.61c.59 0 1.53 4.06 2.83 12.19 1.21 4.17 1.81 7.66 1.81 10.47-.4 1-1 1.5-1.82 1.5-.55 0-1.29-3.49-2.22-10.48l-1.63-6.83c-1.16 1.86-3.25 6.7-6.27 14.54-.87.88-1.61 1.38-2.22 1.5-1.75 0-2.63-2.36-2.63-7.07l-1-8.97h-.2l-6.06 13.67c-.37 2.28-.71 3.42-1.02 3.42h-.8l-.82-.84v-1.08c0-1.91 1.68-6.04 5.04-12.39 2.39-6.66 3.94-10.09 4.64-10.26l1.01-.22zm34.25.05c.716.16 1.076.71 1.076 1.65-.23 1.77-.94 2.66-2.14 2.66-7.85 0-11.78 1.1-11.78 3.28l-.22 1.85v1.02c5.13-1.23 8.63-1.85 10.5-1.85h.43c.72.31 1.08 1 1.08 2.05 0 1.5-1 2.25-3 2.25-6.58.86-9.86 1.88-9.86 3.08l-.2 2.05v.81c0 1.23.78 1.91 2.35 2.05 2.46-.27 5.53-.88 9.22-1.84h.64c.58.22.86.7.86 1.44v.61c0 1.68-3.57 2.97-10.72 3.89h-.64c-2.57 0-4-1.63-4.28-4.91 0-2.4.5-6.98 1.5-13.72l-.42-1.23c0-2.77 4.28-4.41 12.85-4.91l2.78-.2zm14.326 0h.33c1.44.18 2.16.88 2.16 2.1v.42c0 2.11-.72 4.07-2.15 5.88h-.32c-.23-.06-.45-.41-.67-1.05l.85-3.14-.66-.42c-1.53.14-4.34 1.82-8.43 5.03v.21l10.91 2.11c1.11.87 1.66 2.34 1.66 4.41v1.25c0 2.82-1.81 5.27-5.45 7.35-1.42.56-2.8.84-4.14.84h-.34c-3.79 0-6.11-1.67-6.94-5.03v-1.26c0-1.54.39-2.31 1.16-2.31.76 2.67 2.14 4 4.14 4 0 .27.83.41 2.48.41 2.45 0 4.82-1.25 7.11-3.77 0-1.66-3.52-2.72-10.58-3.15-2.54-.71-3.81-1.76-3.81-3.14 0-3.41 3.42-6.84 10.25-10.28l2.49-.42zm18.8 0h.33c1.44.18 2.16.88 2.16 2.1v.42c0 2.11-.72 4.07-2.15 5.88h-.33c-.23-.06-.45-.41-.67-1.05l.85-3.14-.66-.42c-1.53.14-4.34 1.82-8.44 5.03v.21l10.91 2.11c1.11.87 1.66 2.34 1.66 4.41v1.25c0 2.82-1.81 5.27-5.45 7.35-1.42.56-2.8.84-4.14.84h-.34c-3.79 0-6.11-1.67-6.94-5.03v-1.26c0-1.54.38-2.31 1.15-2.31.76 2.67 2.14 4 4.14 4 0 .27.83.41 2.49.41 2.45 0 4.82-1.25 7.11-3.77 0-1.66-3.52-2.72-10.58-3.15-2.54-.71-3.81-1.76-3.81-3.14 0-3.41 3.42-6.84 10.25-10.28l2.48-.42zm15.2 0h.75c1.03 0 2.34 4.77 3.92 14.3 1.25 4.5 1.88 7.56 1.88 9.17-.26.86-.76 1.28-1.5 1.28-.96 0-1.64-2.27-2.06-6.82l-.19-.2h-.19c-1.62.02-5.05 1.02-10.28 2.99-.5 2.85-1.31 4.27-2.43 4.27-.75-.29-1.12-.86-1.12-1.7 0-1.64 3.44-9.18 10.3-22.62l.94-.64zm-.37 5.97c-1.5 2.71-2.88 5.56-4.13 8.55h1.32c1.27 0 2.89-.28 4.87-.86l-1.68-7.68h-.37zm22.25-6.01h.16c1.38 0 2.31 1.36 2.78 4.07l-.33.43h-.15l-1.31-.42c-3.58.53-7.33 3.03-11.26 7.49-1.09 1.94-1.64 3.29-1.64 4.06v.86c0 2.28 2.35 3.7 7.03 4.27 2.94 0 5.17-1.57 6.69-4.7l-1.95-.84c-.73 0-2.74.85-6.04 2.56-.32-.73-.48-1.44-.48-2.14v-.22c0-2.27 2.18-3.84 6.53-4.7h.33c2.5 0 3.75 1.64 3.75 4.92 0 3.39-2.77 6.38-8.33 8.99l-1.95.42c-3.53 0-5.92-1.49-7.19-4.48l-.32-2.78c0-6.46 3.32-11.95 9.96-16.47 1.68-.85 2.94-1.28 3.77-1.28zm21.78.05c.72.16 1.08.71 1.08 1.65-.23 1.77-.94 2.66-2.14 2.66-7.86 0-11.78 1.09-11.78 3.28l-.22 1.85v1.02c5.12-1.23 8.62-1.84 10.5-1.84h.42c.72.31 1.08.99 1.08 2.05 0 1.5-1 2.25-3 2.25-6.58.86-9.86 1.88-9.86 3.08l-.21 2.05v.81c0 1.23.78 1.91 2.35 2.05 2.46-.27 5.53-.88 9.22-1.84h.64c.57.22.86.7.86 1.44v.61c0 1.68-3.57 2.98-10.72 3.89h-.64c-2.57 0-4-1.63-4.28-4.9 0-2.41.5-6.98 1.5-13.72l-.42-1.23c0-2.77 4.28-4.4 12.85-4.9l2.78-.21zm3.97 19.65c1.4 0 2.26.85 2.61 2.55 0 1.7-1.22 2.62-3.66 2.78-1.22-.46-1.83-1.23-1.83-2.31v-.23c.48-1.85 1.44-2.78 2.88-2.78zm-343.94 18.36l6.36 8.42 2.79 1.99c3.52-5.47 5.98-8.77 7.38-9.9h1.26l1.02.99c-.13.87-4.12 7.07-11.95 18.58-1.96 3.22-3.4 6.11-4.33 8.66l-.75.25c-1.19-.49-1.78-1.23-1.78-2.23.06-1.29 2.09-5.33 6.09-12.12-5.76-5.39-8.64-9.77-8.64-13.12 1.07-.99 1.92-1.49 2.55-1.49zm30.58 3.95c4.44.62 6.67 3.28 6.67 7.99 0 6.17-2.44 11.27-7.31 15.31-2.01 1.15-3.81 1.72-5.39 1.72-3.87 0-6.36-2.08-7.47-6.25l-.16-1.94v-.66c0-6.73 3.07-11.83 9.22-15.31 1.54-.57 3.02-.86 4.43-.86zm-11.6 16.83c1.61 2.44 3.73 3.66 6.36 3.66 4.24 0 7.2-2.51 8.89-7.55l.31-2.38c0-3.54-1.74-5.62-5.23-6.25h-.49c-2.88 0-5.9 2.88-9.04 8.63-.53 1.73-.79 3.03-.79 3.89zm23.9-16.84c.67.27 1.04.56 1.11.85-1.19 7.43-1.78 12.82-1.78 16.19v2.31c3.98 0 7.24-1.82 9.78-5.47 1-8.83 1.97-13.25 2.89-13.25h.24c.89.1 1.33.31 1.33.64-1.33 8.05-2 14.07-2 18.08v3.36c0 1.11-.45 1.88-1.34 2.31h-.89l-.87-.84v-.43l.22-3.56c-.53 0-3.42 1.33-8.67 3.98l-1.56.42c-1.78-.23-2.67-1-2.67-2.31v-.2c1.09-14.72 2.35-22.08 3.78-22.08h.46zm20.49-3.93c1.52.49 2.28 1.16 2.28 2-.32 1.33-2.32 4.23-5.98 8.72h-1.44l-1.12-.89v-.67l4.28-6.92c.29-1.49.95-2.23 1.98-2.23zm14.64 3.94h2.16c3.3 0 4.96 1.15 4.96 3.46v.22c0 4.03-3.44 7.7-10.34 11v.21c3.45 3.17 6.33 5.54 8.63 7.13v.64c0 1.12-.36 1.84-1.07 2.16h-.86l-11.84-8.4-.22 4.31v3.23c-.36.72-.93 1.08-1.72 1.08-.58 0-1.01-.28-1.3-.86v-1.3l1.94-16.83c-.58 0-.86-.42-.86-1.28 0-2.59 2.15-4.1 6.45-4.53l4.1-.22zm-7.53 11.64h.22c7.46-1.91 11.19-4 11.19-6.25v-.21c0-.39-.72-.68-2.15-.86-2.38 0-5.25.51-8.61 1.52l-.64 5.81zm31.34-11.59c.71.16 1.07.71 1.07 1.64-.23 1.77-.94 2.66-2.14 2.66-7.85 0-11.78 1.1-11.78 3.28l-.22 1.85v1.02c5.13-1.23 8.63-1.84 10.5-1.84h.43c.72.32 1.08 1 1.08 2.05 0 1.5-1 2.25-3 2.25-6.57.86-9.86 1.88-9.86 3.08l-.2 2.05v.81c0 1.23.78 1.91 2.35 2.05 2.46-.27 5.53-.88 9.22-1.84h.64c.58.22.86.7.86 1.44v.61c0 1.68-3.57 2.97-10.72 3.89h-.64c-2.57 0-4-1.64-4.28-4.91 0-2.4.5-6.98 1.5-13.72l-.42-1.23c0-2.77 4.28-4.4 12.84-4.9l2.78-.2zm28.09-.04h.15c1.39 0 2.32 1.36 2.78 4.07l-.32.42h-.16l-1.31-.42c-3.58.53-7.34 3.03-11.26 7.48-1.09 1.94-1.64 3.29-1.64 4.07v.86c0 2.28 2.35 3.7 7.03 4.27 2.94 0 5.17-1.57 6.69-4.7l-1.95-.84c-.73 0-2.74.85-6.05 2.56-.32-.73-.48-1.44-.48-2.14v-.22c0-2.27 2.18-3.84 6.53-4.7h.33c2.5 0 3.75 1.64 3.75 4.93 0 3.39-2.78 6.38-8.33 8.99l-1.95.42c-3.53 0-5.93-1.49-7.19-4.48l-.33-2.78c0-6.45 3.32-11.94 9.95-16.46 1.68-.85 2.94-1.28 3.77-1.28zm18.73 0c4.45.62 6.67 3.28 6.67 7.99 0 6.17-2.44 11.27-7.31 15.31-2.01 1.15-3.81 1.72-5.39 1.72-3.86 0-6.35-2.08-7.47-6.25l-.15-1.93v-.65c0-6.73 3.07-11.83 9.22-15.31 1.54-.57 3.02-.86 4.44-.86zm-11.59 16.83c1.61 2.44 3.73 3.66 6.36 3.66 4.24 0 7.21-2.51 8.89-7.54l.32-2.37c0-3.54-1.74-5.62-5.23-6.25h-.48c-2.88 0-5.9 2.88-9.05 8.63-.53 1.73-.79 3.03-.79 3.89zm24.28-16.89h1.47c.49 0 .74.29.74.86-1.14 9.36-1.72 15.85-1.72 19.47v2.38c-.32 1.58-1.13 2.38-2.44 2.38h-.48l-.98-.86c.66-9.81 1.47-17.6 2.45-23.36l.97-.86zm7.1.07c.95 0 2.09 1.78 3.41 5.35 2.56 5.25 5.41 9.74 8.55 13.47 1.05-10.28 1.84-16.34 2.35-18.17l.86-.64h.64c.43 0 .65.29.65.86-1.29 14.69-2.07 22.53-2.35 23.52l-1.28.42c-2.28 0-6.13-4.84-11.53-14.53l-.86-.86-.21.64-.64 9.85v1.28l.22 1.28c-.19 1.71-.76 2.56-1.7 2.56-.88-.31-1.38-.74-1.5-1.28 1.09-15.39 1.87-23.09 2.34-23.09l1.08-.64zm31.42 0h.16c1.39 0 2.31 1.36 2.78 4.06l-.33.42H958l-1.316-.42c-3.583.53-7.34 3.03-11.265 7.49-1.1 1.94-1.64 3.29-1.64 4.06v.86c0 2.28 2.34 3.7 7.03 4.27 2.93 0 5.16-1.57 6.68-4.7l-1.95-.84c-.73 0-2.75.86-6.05 2.56-.33-.73-.49-1.44-.49-2.14v-.22c0-2.27 2.18-3.83 6.53-4.7h.33c2.5 0 3.75 1.64 3.75 4.93 0 3.39-2.78 6.38-8.33 8.98l-1.95.42c-3.53 0-5.93-1.49-7.19-4.48l-.33-2.78c0-6.45 3.32-11.94 9.95-16.46 1.67-.85 2.93-1.28 3.76-1.28zm35.7-.01c1.36 0 2.03.56 2.03 1.69v.42c0 1.55-1.21 2.33-3.62 2.33l-4.51.22c-1.35 7.22-2.03 13.43-2.03 18.63-.36 1.13-.74 1.69-1.12 1.69h-.69c-.78 0-1.23-.21-1.36-.64.76-7.99 1.59-14.48 2.49-19.47l-6.78 1.06c-.63 0-1.01-.63-1.12-1.9 0-2.12 1.89-3.17 5.66-3.17 2.26-.57 5.96-.85 11.08-.85zm15.05.02c4.45.61 6.67 3.27 6.67 7.98 0 6.17-2.43 11.27-7.31 15.31-2.01 1.15-3.81 1.72-5.39 1.72-3.86 0-6.35-2.08-7.47-6.25l-.15-1.93v-.65c0-6.73 3.08-11.83 9.22-15.31 1.54-.57 3.02-.86 4.44-.86zm-11.59 16.83c1.61 2.43 3.73 3.65 6.36 3.65 4.24 0 7.21-2.51 8.89-7.54l.32-2.37c0-3.54-1.74-5.62-5.23-6.25h-.48c-2.88 0-5.9 2.88-9.05 8.63-.53 1.73-.8 3.03-.8 3.89zm49.24-16.83c.74.2 1.11.7 1.11 1.51v.21c-1.05 15.39-1.78 23.08-2.22 23.08l-.24.22h-.66c-.77 0-1.29-.36-1.56-1.08.29-2.05.44-4.93.44-8.63h-.22l-9.34 2.16-.65.86v4.09c0 1.22-.45 2.09-1.34 2.6h-.43c-.83 0-1.35-.36-1.56-1.07 1.03-15.53 2.52-23.3 4.45-23.3h.44l.67.88c-1.04 5.16-1.56 8.96-1.56 11.42 6.82-.89 10.23-1.97 10.23-3.23l.89-9.06 1.57-.64zm12.15.04h.75c1.03 0 2.34 4.77 3.92 14.3 1.25 4.5 1.88 7.56 1.88 9.17-.26.86-.76 1.28-1.5 1.28-.96 0-1.64-2.27-2.06-6.83l-.18-.2h-.19c-1.62.02-5.05 1.02-10.28 2.99-.5 2.85-1.31 4.27-2.44 4.27-.75-.29-1.12-.86-1.12-1.7 0-1.65 3.43-9.19 10.29-22.63l.94-.64zm-.37 5.97c-1.5 2.71-2.88 5.56-4.13 8.55h1.31c1.27 0 2.9-.29 4.88-.86l-1.68-7.69h-.38zm25.8-6.02h.63c.56.23.84.73.84 1.5 0 1.04-2.18 5.53-6.53 13.47-2.14 5.95-3.47 9.15-4 9.62l-2.09.42c-.92 0-1.55-1.64-1.91-4.92-2.8-9.88-4.2-15.94-4.2-18.17.23-.64.65-1.14 1.27-1.5h.85c.76 0 1.53 3 2.31 8.99l2.54 9.41h.21c1.46-3.85 4.62-9.98 9.47-18.39l.64-.42zm18.17.05c.72.16 1.08.7 1.08 1.64-.23 1.77-.94 2.66-2.14 2.66-7.86 0-11.78 1.1-11.78 3.28l-.22 1.85v1.02c5.12-1.23 8.62-1.84 10.5-1.84h.42c.72.31 1.08.99 1.08 2.05 0 1.5-1 2.25-3 2.25-6.57.85-9.86 1.88-9.86 3.08l-.2 2.05v.81c0 1.23.78 1.91 2.35 2.04 2.46-.27 5.53-.88 9.22-1.84h.64c.57.22.86.7.86 1.44v.61c0 1.68-3.58 2.98-10.72 3.89h-.64c-2.57 0-4-1.63-4.28-4.9 0-2.41.5-6.98 1.5-13.72l-.42-1.24c0-2.77 4.28-4.4 12.84-4.9l2.78-.2zm-282.28 42h.75c1.03 0 2.34 4.77 3.92 14.3 1.25 4.5 1.88 7.56 1.88 9.17-.26.86-.76 1.28-1.5 1.28-.96 0-1.64-2.27-2.06-6.83l-.18-.2h-.19c-1.62.02-5.05 1.02-10.28 2.99-.5 2.84-1.31 4.26-2.44 4.26-.75-.29-1.12-.86-1.12-1.7 0-1.64 3.43-9.19 10.3-22.62l.93-.64zm-.38 5.97c-1.5 2.71-2.87 5.56-4.12 8.55h1.32c1.27 0 2.9-.28 4.88-.86l-1.69-7.7h-.38zm35.05-5.97h.33c1.44.18 2.16.88 2.16 2.1v.42c0 2.1-.72 4.06-2.16 5.87h-.32c-.23-.06-.45-.41-.67-1.04l.85-3.14-.66-.42c-1.53.14-4.34 1.82-8.44 5.03v.2l10.91 2.11c1.1.88 1.65 2.34 1.65 4.41v1.25c0 2.82-1.82 5.27-5.45 7.35-1.43.56-2.81.84-4.14.84h-.34c-3.79 0-6.1-1.68-6.93-5.03v-1.27c0-1.54.39-2.31 1.16-2.31.76 2.67 2.14 4 4.14 4 0 .27.83.41 2.49.41 2.45 0 4.82-1.25 7.11-3.76 0-1.66-3.52-2.71-10.58-3.15-2.54-.71-3.81-1.76-3.81-3.14 0-3.41 3.42-6.84 10.25-10.28l2.49-.42zm17.16-.05c4.13 0 6.2 1.21 6.2 3.64 0 4.8-4.53 9.15-13.59 13.03-.67 0-1 .43-1 1.28-.09 4.71-.56 7.07-1.41 7.07h-1c-.27-.07-.53-.42-.79-1.07l1.8-17.53h-.2c-.53 0-.8-.64-.8-1.93 0-2.09 1.2-3.3 3.61-3.62l7.18-.86zm-8 12.41c4.57-1.19 8.04-3.19 10.41-5.98l.39-1.29v-.42l-1-.22h-1c-5.32.29-7.98.79-7.98 1.5l-.81 6.42zm30.91-12.36c.72.16 1.08.71 1.08 1.64-.23 1.77-.94 2.66-2.14 2.66-7.85 0-11.78 1.09-11.78 3.28l-.22 1.85v1.01c5.13-1.23 8.63-1.84 10.5-1.84h.42c.72.31 1.08 1 1.08 2.05 0 1.5-1 2.25-3 2.25-6.57.86-9.86 1.88-9.86 3.08l-.2 2.05v.82c0 1.23.78 1.91 2.35 2.04 2.46-.27 5.53-.88 9.22-1.84h.64c.58.22.86.7.86 1.44v.61c0 1.67-3.57 2.97-10.72 3.89h-.64c-2.57 0-4-1.64-4.28-4.91 0-2.41.5-6.98 1.5-13.72l-.42-1.24c0-2.77 4.28-4.41 12.85-4.91l2.78-.21zm16.36 0h.92c1.16 0 1.85.94 2.08 2.8v.44c0 2.83-1.07 4.69-3.2 5.6l-.38-.44v-.22l.96-3.65-.75-.42c-3.11 0-6.82 2.95-11.11 8.83-1.02 1.78-1.53 3.14-1.53 4.08v.22c0 2.29 1.39 3.44 4.16 3.44h.18c2.67 0 5.62-.72 8.86-2.14h.58c.5.22.75.72.75 1.5v.85c-2.67 2.73-5.8 4.09-9.4 4.09-4.91-.51-7.36-2.95-7.36-7.31v-.43c0-5.57 3.95-11.02 11.86-16.36 1.5-.57 2.63-.86 3.4-.86zm8.02-.11H918c.49 0 .73.29.73.86-1.142 9.36-1.72 15.85-1.72 19.47v2.38c-.32 1.59-1.13 2.38-2.432 2.38h-.486l-.985-.86c.653-9.81 1.47-17.59 2.45-23.36l.97-.85zm13.31.11h.75c1.03 0 2.34 4.77 3.92 14.3 1.25 4.5 1.88 7.56 1.88 9.17-.26.85-.76 1.28-1.5 1.28-.96 0-1.65-2.28-2.06-6.83l-.19-.21h-.18c-1.63.02-5.05 1.02-10.28 2.99-.5 2.84-1.31 4.26-2.44 4.26-.75-.29-1.12-.86-1.12-1.7 0-1.64 3.43-9.18 10.3-22.62l.94-.64zm-.37 5.97c-1.5 2.71-2.88 5.56-4.13 8.55h1.32c1.27 0 2.9-.29 4.88-.86l-1.68-7.7h-.37zm11.74-6.02h.21c.68 0 1.25.35 1.71 1.05-.99 7.21-1.7 13.66-2.12 19.35l12.19-2.51.43.62v1.27c0 1.92-4.42 3.67-13.25 5.25-1.57-.28-2.36-.77-2.36-1.47 1.17-15.41 2.02-23.12 2.56-23.12l.64-.42zm35.82.05c4.22 0 6.33 1.44 6.33 4.32v.64c0 2.01-.95 3.95-2.86 5.81v.22c3.14.95 4.71 2.53 4.71 4.74v.86c0 3.61-3.54 6.26-10.62 7.95l-3.48.44h-2.03c-1.1 0-1.64-.57-1.64-1.72v-.22l1.64-17.66c-.68 0-1.03-.14-1.03-.42v-1.3c0-2.44 3-3.65 9-3.65zm-5.93 9.69h.22c6.4 0 9.6-1.44 9.6-4.31-1.05-.7-2.82-1.06-5.31-1.06h-2.45c-1.08 0-1.62.5-1.62 1.5l-.42 3.88zm-.4 4.09l-.4 6.87 2.04.44.2-.22h1.02c5.73-.75 8.6-2.11 8.6-4.08-1.88-2.01-4.82-3.01-8.8-3.01h-.81l-.2-.22-.21.22h-1.44zm25.24-13.78h.75c1.03 0 2.34 4.76 3.92 14.3 1.25 4.5 1.87 7.56 1.87 9.17-.26.85-.76 1.28-1.5 1.28-.96 0-1.65-2.27-2.06-6.83l-.19-.2h-.19c-1.62.02-5.05 1.02-10.28 2.98-.5 2.84-1.31 4.27-2.44 4.27-.75-.29-1.12-.86-1.12-1.7 0-1.64 3.436-9.19 10.3-22.62l.94-.64zm-.38 5.95c-1.5 2.71-2.88 5.56-4.13 8.55h1.32c1.27 0 2.9-.28 4.88-.86l-1.66-7.69h-.38zm18.14-5.97c4.22 0 6.33 1.44 6.33 4.31v.64c0 2.01-.96 3.95-2.86 5.81v.22c3.13.95 4.7 2.53 4.7 4.74v.86c0 3.61-3.54 6.26-10.63 7.95l-3.48.44h-2.03c-1.1 0-1.64-.57-1.64-1.72v-.21l1.64-17.65c-.69 0-1.03-.14-1.03-.42v-1.3c0-2.44 3-3.66 9-3.66zm-5.94 9.69h.22c6.39 0 9.59-1.44 9.59-4.31-1.05-.7-2.82-1.06-5.31-1.06h-2.46c-1.08 0-1.62.5-1.62 1.5l-.42 3.88zm-.41 4.09l-.4 6.88 2.05.44.21-.22h1.02c5.73-.75 8.596-2.11 8.596-4.07-1.89-2.01-4.82-3.02-8.8-3.02h-.81l-.2-.22-.2.22h-1.44zm17.5-13.78l4.78 7.25 2.1 1.72c2.64-4.71 4.49-7.56 5.53-8.55h.95l.76.86c-.1.76-3.09 6.1-8.97 16-1.48 2.78-2.56 5.27-3.25 7.47l-.56.22c-.9-.41-1.34-1.05-1.34-1.92.05-1.11 1.58-4.6 4.58-10.45-4.32-4.64-6.48-8.41-6.48-11.31.81-.85 1.44-1.28 1.91-1.28zm15.32 19.64c1.4 0 2.27.85 2.61 2.55 0 1.69-1.22 2.62-3.65 2.78-1.22-.46-1.83-1.23-1.83-2.32v-.23c.48-1.85 1.436-2.78 2.87-2.78zm-494.8-26.58c10.21.98 15.32 3.83 15.32 8.53 0 4.84-6.89 10.68-20.66 17.54l-3.91 4.03v.47l3.565.44h2.12l.72.91v2.25c0 3.36-2.14 5.31-6.41 5.85h-1.78c-2.21 0-3.99-1.05-5.35-3.16v-3.15c0-6.85 7-14.04 21-21.56l1.44-1.78-5.35-.91h-.72c-6.91 0-12.73 3.15-17.43 9.44-1.89-.89-2.84-2.39-2.84-4.5 0-7.1 6.76-11.89 20.28-14.37zm-8.18 44.03c3.08 0 4.62 1.35 4.62 4.04 0 3.61-2.845 5.86-8.53 6.75h-.345c-2.853-.29-4.28-1.79-4.28-4.5 0-3.48 2.84-5.57 8.53-6.28zm44.18-44.03c1.25.59 1.877 1.28 1.877 2.1-5.94 19.13-8.9 31.24-8.9 36.34-1.69 1.96-3.1 2.94-4.25 2.94-1.87-.67-2.81-1.5-2.81-2.5 2.96-25.92 6.87-38.87 11.75-38.87h2.34zm-11.09 46.91c2.96.57 4.44 2.11 4.44 4.63v.41c-1.19 3.96-4.03 5.94-8.53 5.94-2.23 0-3.576-1.54-4.035-4.62 0-3.56 2.71-5.67 8.12-6.34zm33.25-46.9c10.21.98 15.314 3.83 15.314 8.53 0 4.84-6.88 10.68-20.65 17.54l-3.91 4.03v.47l3.56.44H600l.72.91v2.25c0 3.36-2.137 5.3-6.408 5.85h-1.78c-2.21 0-3.99-1.05-5.345-3.15v-3.15c0-6.85 7-14.04 21-21.56l1.438-1.78-5.344-.9h-.71c-6.91 0-12.73 3.15-17.44 9.44-1.89-.89-2.84-2.39-2.84-4.5 0-7.1 6.76-11.89 20.29-14.37zm-8.186 44.03c3.086 0 4.63 1.35 4.63 4.04 0 3.61-2.85 5.86-8.53 6.75h-.35c-2.856-.29-4.28-1.79-4.28-4.5 0-3.48 2.84-5.57 8.53-6.28z" fill="#000"/></g></svg>