<svg width="1540" height="820" viewBox="0 0 1540 820" xmlns="http://www.w3.org/2000/svg" xmlns:xlink="http://www.w3.org/1999/xlink"><title>story20</title><defs><path id="b" d="M40 40h855v120H40z"/><filter x="-50%" y="-50%" width="200%" height="200%" filterUnits="objectBoundingBox" id="a"><feOffset dx="6" dy="6" in="SourceAlpha" result="shadowOffsetOuter1"/><feColorMatrix values="0 0 0 0 0 0 0 0 0 0 0 0 0 0 0 0 0 0 1 0" in="shadowOffsetOuter1"/></filter></defs><g fill="none" fill-rule="evenodd"><path fill="green" d="M1540 280H0v540h1540z"/><path d="M1540 0v738.94c-177.35-42.932-446.83-70.377-748.677-70.377C464.2 668.563 175.01 700.743 0 750V0h1540z" fill="navy"/><path fill="#FFE680" d="M446.43 339.667l11.36-10.835 13.362 8.236-6.795-14.15 11.963-10.164-15.558 2.09-5.97-14.52-2.82 15.443-15.652 1.19 13.814 7.456m603.46 114.594l15.566-1.806 5.697 14.6 3.093-15.36 15.644-.9-13.654-7.69 3.972-15.15-11.532 10.61-13.19-8.46 6.528 14.25-12.124 9.93m252.582 68.19l14.286-7.04 10.435 12.04-2.28-15.76 14.668-6.2-15.696-2.7-1.37-15.87-7.42 14.09-15.52-3.6 11.11 11.41-8.22 13.64m-383 20.41l7.18-14.16 15.52 3.36-11.25-11.21 7.98-13.73-14.14 7.24-10.59-11.84 2.51 15.68-14.53 6.41 15.69 2.46 1.6 15.8M72.11 151.34l11.36-10.833 13.362 8.236-6.795-14.15L102 124.428l-15.558 2.088L80.472 112l-2.82 15.442L62 128.632l13.815 7.455m-15.25 316.176l5.874-14.546 15.56 1.99-12.02-10.082 6.7-14.184-13.3 8.32L51.96 413l3.8 15.22L42 435.758l15.65 1.092 2.915 15.413M579.573 230.38l15.698 2.777 1.3 15.888 7.49-14.07 15.52 3.674-11.06-11.48 8.29-13.62-14.33 6.98-10.39-12.09 2.21 15.79-14.71 6.14m-189 270.99l6.56-14.35 15.54 2.7-11.62-10.67 7.37-13.95-13.73 7.75-10.98-11.32 3.13 15.46-14.16 6.95 15.67 1.8 2.24 15.61m680.96-381.12l11.36-10.84 13.36 8.24-6.8-14.15 11.97-10.17-15.55 2.09-5.97-14.52-2.82 15.44-15.65 1.19 13.82 7.45m-659.4-18.41l14.29-7.04 10.44 12.03-2.28-15.77L453 69.57l-15.696-2.702L435.934 51l-7.42 14.092-15.514-3.6 11.11 11.412-8.22 13.642m-252.528 514.03l9.634-13.07 15.087 6-9.453-13.2L189 567.813l-15.477 4.91L164.845 559l-.112 16.237L149 579.25l15.407 5.123-1.045 16.204M707.155 571.8l11.615 10.672-7.376 13.943 13.74-7.748 10.98 11.324-3.12-15.46 14.16-6.94-15.668-1.81-2.23-15.61-6.56 14.35-15.54-2.7M1412.81 99.15l10.977-11.33 13.746 7.74-7.385-13.94 11.61-10.68-15.54 2.715-6.57-14.343-2.22 15.618-15.67 1.817 14.168 6.94-3.115 15.464m30.81 507.2l9.02 13.36-10.63 12.11 15.49-4.45 8.24 13.86.56-16.1 15.72-3.55-15.14-5.5 1.48-16.05-9.91 12.71-14.8-6.37M827.7 241.26l8.312 13.61-11.05 11.493 15.51-3.7 7.52 14.06 1.276-15.895 15.7-2.8-14.726-6.123 2.185-15.796-10.375 12.11-14.35-6.96"/><g transform="translate(874 529)"><rect fill="#000" x="96.016" y="118.701" width="24.023" height="91.815" rx="8"/><rect fill="#000" x="193.867" y="118.701" width="24.023" height="91.815" rx="8"/><path d="M192.792 3.834c-12.403 0-23.862 3.004-33.24 8.05-8.636-3.932-18.757-6.195-29.585-6.195-30.703 0-55.73 18.18-57.185 41.04-14.587 7.82-24.106 20.64-24.106 35.16 0 23.83 25.627 43.17 57.265 43.17 3.43 0 6.79-.28 10.05-.71 8.69 15.5 29.04 26.4 52.78 26.4 17.35 0 32.9-5.82 43.41-15 2.14.18 4.32.31 6.52.31 28.47 0 52.07-15.65 56.51-36.15 13.93-7.88 22.96-20.45 22.96-34.57 0-23.83-25.66-43.13-57.3-43.13-.39 0-.77-.01-1.15 0-10.37-11.1-27.52-18.39-46.9-18.39z" stroke="#000" stroke-width="3.458" fill="#FFF"/><rect fill="#000" x="230.719" y="119.069" width="24.023" height="91.815" rx="8"/><rect fill="#000" x="130.327" y="118.701" width="24.023" height="91.815" rx="8"/><ellipse stroke="#000" stroke-width="3.5" fill="#CCC" transform="rotate(32 91.97 35.598)" cx="91.971" cy="35.598" rx="14.614" ry="17.679"/><ellipse stroke="#000" stroke-width="3.5" fill="#CCC" cx="36.793" cy="27.5" rx="16.5" ry="20.5"/><path d="M64.82 22.504c18.807 6.514 27.182 31.633 18.705 56.104-4.07 11.752-11.562 21.78-20.826 27.877-9.27 6.097-19.55 7.765-28.58 4.637-9.03-3.13-16.08-10.797-19.59-21.32-3.51-10.52-3.19-23.033.88-34.785 4.07-11.75 11.56-21.777 20.82-27.877 9.26-6.09 19.54-7.76 28.57-4.63z" stroke="#000" stroke-width="3.458" fill="#CCC"/><path d="M46.738 47.16c1.357 3.24-.187 6.974-3.448 8.34-3.26 1.364-7.004-.156-8.36-3.396-1.357-3.24.187-6.974 3.448-8.34 3.26-1.365 7.004.155 8.36 3.396z" fill="#000"/><path d="M26.43 74.81c9.742 21.522 21.763 16.996 39.237 9.23" stroke="#000" stroke-width="3.458" stroke-linecap="round"/><path d="M72.062 53.443c1.357 3.24-.187 6.974-3.448 8.34-3.26 1.364-7.004-.156-8.36-3.396-1.358-3.24.186-6.974 3.447-8.34 3.27-1.364 7.01.156 8.37 3.396z" fill="#000"/></g><path d="M1203.756 571.036c8.256-2.02 17.256 4.88 24.373 19.45 6.73 13.792 16.71 24.217 4.02 32.043-7.07 4.36-23.59-.75-21.85-11.16-1.27 5.7-1.05 16.97-4.84 16.91-5.54-.08-11.69-5.59-8.54-16.65.77-2.7.52-5.36 1.29-7.51-.24-.66-.5-1.33-.67-2.03-3.9-15.73-2.05-29.05 6.21-31.07z" stroke="#050202" stroke-width="4" fill="#FFF6D5"/><path d="M1176.087 455.983l-6.42 25.512 32.093 109.7 35.944-17.857c-14.297-53.076-33.65-94.846-61.617-117.355z" stroke="#050202" stroke-width="4" fill="#502D16"/><path d="M1023.72 571.036c-8.258-2.02-17.257 4.88-24.375 19.45-6.738 13.792-16.712 24.217-4.025 32.043 7.072 4.36 23.59-.75 21.853-11.16 1.268 5.7 1.045 16.97 4.835 16.91 5.542-.08 11.69-5.59 8.54-16.65-.768-2.7-.52-5.36-1.287-7.51.25-.66.5-1.33.67-2.03 3.9-15.73 2.05-29.05-6.21-31.07z" stroke="#050202" stroke-width="4" fill="#FFF6D5"/><path d="M1051.388 455.983l6.418 25.512-32.092 109.7-35.943-17.857c14.3-53.076 33.65-94.846 61.62-117.355z" stroke="#050202" stroke-width="4" fill="#502D16"/><path d="M1114.29 779.984c0 4.737-3.45 9.28-9.59 12.628-6.138 3.35-14.464 5.23-23.145 5.23-8.682 0-17.008-1.88-23.147-5.23-6.14-3.35-9.587-7.89-9.587-12.628 0-9.863 14.66-17.858 32.74-17.858s32.74 7.995 32.74 17.858zm77.662 2.552c0 4.736-3.45 9.278-9.588 12.627-6.14 3.35-14.465 5.23-23.146 5.23-8.682 0-17.008-1.88-23.147-5.23-6.13-3.35-9.58-7.89-9.58-12.627 0-9.863 14.66-17.86 32.74-17.86s32.74 7.997 32.74 17.86z" stroke="#050202" stroke-width="4" fill="#504416"/><path d="M1199.498 596.122c5.312 57.704 13.268 154.976 1.1 167.46-12.475 12.798-66.365 23.52-87.332 15.192-20.24-8.04-63.808 4.587-79.17-25.82-15.363-30.405-2.52-103.843-6.155-154.126-7.35-101.737 2.75-180.562 91.68-181.75 75.67-1.01 84.81 77.644 79.88 179.044z" stroke="#050202" stroke-width="4" fill="#5AA02C"/><path d="M1027.73 585.322l172.532.162c-2.173 6.186-1.144 15.018-.49 22.608l-171.39-.324-.652-22.446z" stroke="#000" stroke-width="3.895" fill="#502D16"/><path d="M1164.923 398.954c0 15.19-4.973 29.76-13.825 40.5-8.852 10.742-20.858 16.776-33.376 16.776-12.518 0-24.524-6.034-33.376-16.776-8.852-10.74-13.825-25.31-13.825-40.5 0-15.19 4.98-29.76 13.83-40.5 8.85-10.742 20.86-16.776 33.38-16.776s24.53 6.034 33.38 16.776c8.85 10.74 13.83 25.31 13.83 40.5z" stroke="#050202" stroke-width="3.9" fill="#FFF6D5"/><path d="M1164.856 355.155c-4.483.767-8.95 3.354-10.652 7.483-1.114 2.88.146 6.25 2.633 8.134.93 1.502-.536 3.018-1.544 4.08-1.83 2.32-2.128 5.716-.4 8.16 1.317 2.803.826 6.287-1.294 8.63-1.55 2.55-.93 5.757.54 8.207.39 1.52 2.16 2.57 1.94 4.26.63 1.63-1.06 2.92-2 4.08-1.38 2.18-1.61 4.88-.95 7.31.23 2.5-1.23 5.16.2 7.5 2.88 4.52 8.61 7.09 14.14 6.84 4.81.03 9.76-2 12.55-5.77 1.38-2.17 1.63-4.87.85-7.27.06-2.56 1.26-5.39-.35-7.74-1.01-1.17-1.36-2.67-1.49-4.13-.85-.82-1.98-2.23-1.05-3.33 3.15-1.76 4.16-5.86 2.95-8.99-.24-1.57-2.22-2.45-2.45-3.8 1.39-1.08-1.28-2.5.72-3.25 2.31-1.47 3.4-4.22 3.36-6.77-.1-1.78-.79-3.59-2.3-4.74-1.29-.95-1.16-2.66-.1-3.71 1.19-1.32 2.3-2.83 2.36-4.63.36-3.93-2.53-7.65-6.28-9.15-3.37-1.43-7.18-1.72-10.82-1.56-.21.03-.41.06-.61.1z" stroke="#050202" stroke-width="3.897" fill="#FFF"/><path d="M1072.932 336.11c-1.474 3.213-2.91 4.472-2.713 2.68.19-1.79-1.81-2.776-3.39-3.114-4.86-1.494-10.83 1.106-12.31 5.81-.82 2.176-.43 4.53.19 6.698.24 1.668-1.27 2.75-2.47 3.69-1.76 1.22-3.31 2.846-3.8 4.903-1.05 3.153-.39 6.844 1.97 9.334.96 2.07-.79 4-1.85 5.67-1.42 3-1 6.54.53 9.42.38 2.88-2.83 4.68-3.03 7.44-.74 3.56.86 7.59 4.22 9.48 1.1 1.03.69 2.73-.32 3.67-2.31 3.65-1.63 8.73 1.58 11.71 1.43 2.28-.7 4.73-.32 7.11.38 5.03 5.61 9.43 11.01 8.76 3.55-1.09 7.11-2.35 10.89-2.51 5.58-1.53 8.91-8.13 6.35-13.11-.56-1.22-1-2.51-1.19-3.84-1.33-.01-1.6-2.3-.16-2.35 2.34-.56 3.23-3.31 2.4-5.27-.42-4.09-1.38-8.28-3.63-11.84-1.08-.97-.94-2.4-.05-3.41.91-2.04.92-4.36 2.06-6.32 1.3-2.78.65-6.02-1.07-8.51-.68-.85-1.08-2.22 0-2.96 1.23-.82 2.82-1.11 3.78-2.29 1.07-.98 1.54-2.5 2.74-3.32 1.73-.42 2.81 1.39 4.33 1.8 3.51 1.53 7.89.82 10.77-1.57 1.45-.53 2.59.91 3.06 2.02 2.56 4.14 8.78 5.83 13.24 3.45.77-1.07 2.99-1.39 3.58 0 1.94 2.49 4.06 5.42 7.54 5.95 4.4.87 9.28-1.31 11.26-5.13 1.59-1.3 3.69-.18 5.43.2 3.68.83 7.34-1.04 9.95-3.38 3.03-2.12 7.52-1.22 10.21-3.93 2.88-2.84 3.93-7.3 2.34-10.96.13-2.53 3.24-3.69 3.65-6.14 1.9-4.88-1.39-11.12-6.9-12.21-1.67-.36-3.41-.35-5.1-.1-1.36-.95-.04-2.62-.6-3.85-1.25-5.04-7.21-8.74-12.61-7.37-.95.52-2.46 1.22-3.26.12-1.52-4.19-6.45-6.95-11.09-6.36-3.72.55-6.96 3.26-7.99 6.67-3.91-3.33-10.67-3.05-14.15.71-.01 1.33-2.53 1.5-2.67.15-3.15-4.71-11.2-5.42-15.15-1.23-1.35 1.27-2.16 2.95-2.74 4.64-2.75.11-5.59-1.56-8.24-.21-3.68 1.24-4.9 6.08-6.38 9.29z" stroke="#050202" stroke-width="3.897" fill="#FFF"/><path d="M1106.36 393.075c0 2.366-1.93 4.285-4.31 4.285-2.382 0-4.313-1.92-4.313-4.285 0-1.136.455-2.226 1.263-3.03.81-.803 1.905-1.254 3.05-1.254 1.142 0 2.24.46 3.048 1.26.808.81 1.262 1.9 1.262 3.03z" fill="#000"/><path d="M1076.735 418.444c0 1.65.627 3.18 1.71 4.447-2.99 1.35-4.994 3.92-4.994 6.86 0 4.35 4.39 7.88 9.81 7.88.75 0 1.47-.08 2.16-.21.06.1.12.21.18.3-2 .77-3.66 2.04-4.63 3.64-.88-.21-1.82-.29-2.79-.29-5.41 0-9.8 3.53-9.8 7.88 0 1.9.85 3.64 2.25 5-.54.98-.81 2.09-.81 3.22 0 4.12 3.96 7.5 9 7.84-1.09 1.27-1.71 2.83-1.71 4.49 0 1.12.29 2.17.81 3.13-1.42 1.37-2.29 3.16-2.29 5.08 0 2.85 1.94 5.31 4.77 6.69-.25.7-.4 1.45-.4 2.21 0 4.35 4.39 7.84 9.81 7.84 1.66 0 3.22-.31 4.59-.89-.37.83-.58 1.7-.58 2.63 0 4.34 4.44 7.88 9.85 7.88 1.73 0 3.36-.38 4.77-1.01 1.73 2.23 4.76 3.73 8.28 3.73 4.28 0 7.93-2.18 9.27-5.25 1.55 2.71 4.99 4.58 8.95 4.58 5.42 0 9.81-3.53 9.81-7.87 0-.16-.03-.31-.04-.46 4.56-.67 8.05-3.89 8.05-7.75 0-1.14-.35-2.2-.9-3.17 1.88-1.43 3.06-3.47 3.06-5.72 0-4.34-4.39-7.88-9.8-7.88-.12 0 5.45-3.95 5.45-7.15 0-.65-.09-1.3-.27-1.91 3.18-1.3 5.35-3.93 5.35-6.99 0-3.59-3-6.64-7.1-7.58 1.69-1.41 2.74-3.3 2.74-5.42 0-1.27-.36-2.49-1.03-3.55 2.81-1.38 4.68-3.89 4.68-6.73 0-1.14-.31-2.2-.85-3.18 1.43-1.37 2.3-3.12 2.3-5.04 0-4.34-4.39-7.88-9.8-7.88-.87 0-1.72.13-2.52.3-.82-.18-1.68-.3-2.56-.3-5.42 0-9.804 3.54-9.804 7.88 0 .56.04 1.13.18 1.66-2 .68-3.66 1.88-4.726 3.39-1.52-.78-3.32-1.27-5.26-1.27-3.41 0-6.425 1.39-8.18 3.51-1.608-.91-3.51-1.44-5.62-1.44-1.52 0-2.95.27-4.23.77-.94-3.57-4.908-6.27-9.63-6.27-.748 0-1.46.08-2.16.21-.19-.3-.398-.62-.63-.89 2.98-1.35 4.99-3.92 4.99-6.86 0-4.35-4.388-7.84-9.8-7.84s-9.81 3.49-9.81 7.83z" stroke="#050202" stroke-width="3.897" fill="#FFF"/><path d="M1094.54 422.045c2.29.78 3.25-2.06 17.47-1.88 5.14 5.325 8.27-.396 11.638-.92 11.485 1.88 6.71 5.615 8.938 5.454" stroke="#000" stroke-width="3.897"/><path d="M1136.323 393.566c0 2.366-1.93 4.284-4.31 4.284-2.383 0-4.313-1.918-4.313-4.284 0-1.136.454-2.226 1.263-3.03.808-.803 1.905-1.254 3.05-1.254 1.142 0 2.24.45 3.047 1.254.81.804 1.263 1.894 1.263 3.03z" fill="#000"/><path d="M1449 575.816c6.32 29.473-8.272 38.884-37.143 24.104-31.23-15.987-46.618-12.668-41.907-23.052 5.263-11.6 19.454-28.583 41.907-23.052 13.266 3.268 23.213 13.89 37.144 22zm-264.368-9.832c-8.256-2.02-17.256 4.88-24.373 19.448-6.74 13.793-16.72 24.218-4.03 32.045 7.07 4.362 23.59-.75 21.85-11.16 1.27 5.708 1.04 16.97 4.83 16.917 5.54-.078 11.69-5.59 8.54-16.646-.77-2.702-.52-5.356-1.29-7.508.24-.664.49-1.333.66-2.032 3.89-15.725 2.05-29.044-6.21-31.064z" stroke="#050202" stroke-width="4" fill="#FFF6D5"/><path d="M1212.3 450.93l6.42 25.512-32.092 109.7-35.944-17.857c14.297-53.075 33.65-94.846 61.617-117.355z" stroke="#050202" stroke-width="4" fill="#5AA02C"/><path d="M1275.202 774.932c0 4.736-3.448 9.278-9.587 12.627-6.14 3.35-14.465 5.23-23.147 5.23-8.68 0-17.007-1.88-23.146-5.23-6.14-3.35-9.588-7.9-9.588-12.63 0-9.87 14.656-17.86 32.734-17.86 18.08 0 32.734 7.99 32.734 17.86zm77.663 2.55c0 4.737-3.448 9.28-9.587 12.63-6.14 3.35-14.465 5.23-23.147 5.23-8.68 0-17-1.88-23.14-5.23-6.14-3.35-9.59-7.89-9.59-12.628 0-9.863 14.66-17.858 32.74-17.858 18.08 0 32.74 7.995 32.74 17.858z" stroke="#050202" stroke-width="4" fill="#504416"/><path d="M1418.072 769.947c-.96-115.94-2.082-257.882-5.103-343.078-1.54-43.19 80.63-71.57 91.1 4.32 1.22 5.69-5.44 11.85-13.34 10.65-12.93-68.94-61.65-28.87-61.48-12.79 1.17 112.37 6.89 227.08 5.4 339.23l-16.6 1.65z" stroke="#000" stroke-width="4" fill="#A0892C"/><path d="M1428.32 562.74c0 4.106-6.03 7.435-13.47 7.435s-13.47-3.33-13.47-7.436c0-4.11 6.03-7.44 13.47-7.44s13.47 3.33 13.47 7.43z" stroke="#050202" stroke-width="4" fill="#FFF6D5"/><path d="M1345.805 456.032c16.122 32.878 37.41 60.623 60.334 86.74 3.16 33.08-6.36 40.936-12.84 54.852-24.11-6.32-33.9-9.798-41.08-12.756l-6.42-128.836z" stroke="#050202" stroke-width="4" fill="#5AA02C"/><path d="M1360.41 591.07c5.313 57.704 13.27 154.975 1.103 167.458-12.477 12.8-66.367 23.52-87.334 15.193-20.24-8.03-63.81 4.59-79.17-25.81-15.37-30.4-2.52-103.84-6.16-154.12-7.36-101.73 2.75-180.56 91.68-181.75 75.67-1.01 84.81 77.65 79.88 179.05z" stroke="#050202" stroke-width="4" fill="#447821"/><path d="M1323.353 395.028c0 15.19-4.973 29.76-13.825 40.5-8.852 10.742-20.858 16.776-33.376 16.776-12.518 0-24.524-6.034-33.376-16.776-8.852-10.74-13.825-25.31-13.825-40.5 0-15.19 4.98-29.76 13.83-40.5 8.85-10.742 20.86-16.776 33.38-16.776s24.53 6.034 33.38 16.776c8.85 10.74 13.83 25.31 13.83 40.5z" stroke="#050202" stroke-width="3.9" fill="#FFF6D5"/><path d="M1264.79 389.15c0 2.365-1.93 4.284-4.31 4.284-2.382 0-4.313-1.92-4.313-4.285 0-1.14.454-2.23 1.263-3.03.81-.81 1.905-1.26 3.05-1.26 1.142 0 2.24.45 3.048 1.25.808.8 1.262 1.89 1.262 3.03z" fill="#000"/><path d="M1237.053 484.21c8.892 15.9 49.965 26.485 63.198 17.536 12.4-21.513 16.59-56.46 12.79-80.73-6.68-4.162-11.91-6.06-27.98-5.74-4.87.1-22 1.21-28.46.754-43.28-3.056-29.82 33.885-19.53 68.18z" stroke="#050202" stroke-width="3.897" fill="#28170B"/><path d="M1294.753 389.64c0 2.366-1.93 4.284-4.312 4.284-2.38 0-4.31-1.918-4.31-4.284 0-1.136.46-2.226 1.27-3.03.81-.803 1.91-1.254 3.05-1.254s2.24.45 3.05 1.254c.81.804 1.27 1.894 1.27 3.03z" fill="#000"/><path d="M1188.643 580.27l172.532.162c-2.173 6.185-1.143 15.018-.49 22.608l-171.388-.325-.654-22.445z" stroke="#000" stroke-width="3.895" fill="#502D16"/><path d="M1245.758 325.084c-34.89 5.745-47.745 87.934-37.67 141.127 1.79 8.46 13.22 10.26 19.91 6.49 5.924-2.57 7.12-9.25 7.446-14.96.96-13.76-6.4-76.69 3.65-88.05 10.053-11.35 63.84-8.61 72.802 3.59 8.962 12.2-5.26 85.78 2.287 101.05 7.035 8.77 24.268 4.59 25.395-6.92-2.223-16.82 5.463-84.4 2.82-98.22-2.642-13.82-15.85-35.62-27.21-39.89-26.007-9.77-34.54-9.93-69.43-4.19z" stroke="#050202" stroke-width="3.897" fill="#5AA02C"/><path d="M1331.118 345.093c2.652 6.538 10.69 15.9 10.093 23.895l-128.45.91c2.01-7.155 3.03-13.08 9.06-23.768l109.31-1.037z" stroke="#000" stroke-width="4" fill="#502D16"/><path d="M1248.694 426.344c5.976 5.79 43.623 2.11 46.878-.65 3.254-2.758-14.83 22.454-24.174 22.4-9.346-.056-28.68-27.54-22.704-21.75z" stroke="#000" stroke-width="4" fill="#FFF6D5"/><path d="M572.568 570.807c-6.32 29.472 8.274 38.883 37.145 24.104 31.23-15.98 46.617-12.66 41.906-23.05-5.27-11.6-19.46-28.58-41.91-23.05-13.27 3.27-23.22 13.89-37.15 22z" stroke="#050202" stroke-width="4" fill="#FFF6D5"/><path d="M597.42 764.938c-1.164-115.976-11.295-229.172-2.49-343.08-1.77-12.12 22.353-9.128 17.494 4.188-9.543 112.128 1.565 225.09 1.595 337.243l-16.6 1.64z" stroke="#000" stroke-width="4" fill="#A0892C"/><path d="M593.25 557.73c0 4.106 6.03 7.436 13.47 7.436s13.47-3.33 13.47-7.436c0-4.107-6.03-7.437-13.47-7.437s-13.47 3.33-13.47 7.437z" stroke="#050202" stroke-width="4" fill="#FFF6D5"/><path d="M675.764 451.023c-16.122 32.877-37.408 60.623-60.333 86.74-3.16 33.08 6.36 40.936 12.84 54.85 24.1-6.32 33.9-9.797 41.08-12.755l6.42-128.835z" stroke="#050202" stroke-width="4" fill="#504416"/><path d="M836.937 560.974c8.257-2.02 17.256 4.88 24.374 19.45 6.74 13.792 16.72 24.217 4.03 32.043-7.07 4.363-23.59-.75-21.85-11.16-1.27 5.71-1.04 16.97-4.83 16.917-5.54-.077-11.69-5.59-8.54-16.645.77-2.71.52-5.36 1.29-7.51-.24-.67-.49-1.34-.66-2.03-3.9-15.73-2.05-29.05 6.21-31.07z" stroke="#050202" stroke-width="4" fill="#FFF6D5"/><path d="M809.268 445.92l-6.418 25.513 32.092 109.7 35.943-17.857c-14.296-53.076-33.65-94.846-61.617-117.355zm-62.9 324.002c0 4.737 3.45 9.28 9.587 12.628 6.138 3.35 14.465 5.23 23.146 5.23 8.69 0 17.01-1.88 23.15-5.23 6.14-3.35 9.59-7.89 9.59-12.628 0-9.863-14.65-17.858-32.73-17.858-18.07 0-32.73 7.995-32.73 17.858zm-77.664 2.552c0 4.736 3.45 9.278 9.588 12.627 6.138 3.35 14.465 5.24 23.146 5.24 8.682 0 17.008-1.88 23.147-5.23 6.14-3.35 9.587-7.89 9.587-12.63 0-9.86-14.655-17.86-32.734-17.86-18.078 0-32.734 8-32.734 17.86z" stroke="#050202" stroke-width="4" fill="#504416"/><path d="M661.158 586.06c-5.312 57.704-13.268 154.976-1.1 167.46 12.475 12.798 66.365 23.52 87.332 15.192 20.24-8.04 63.808 4.587 79.17-25.82 15.363-30.405 2.52-103.843 6.155-154.126 7.352-101.737-2.75-180.562-91.68-181.75-75.67-1.01-84.808 77.644-79.877 179.044z" stroke="#050202" stroke-width="4" fill="#806600"/><path d="M698.217 390.02c0 15.19 4.973 29.758 13.825 40.5 8.85 10.74 20.857 16.775 33.376 16.775 12.518 0 24.524-6.035 33.375-16.776 8.852-10.75 13.825-25.31 13.825-40.5 0-15.2-4.973-29.76-13.825-40.51-8.85-10.74-20.857-16.78-33.375-16.78-12.52 0-24.525 6.03-33.376 16.77-8.852 10.74-13.825 25.31-13.825 40.5z" stroke="#050202" stroke-width="3.9" fill="#FFF6D5"/><path d="M756.78 384.14c0 2.366 1.93 4.284 4.31 4.284 2.382 0 4.312-1.918 4.312-4.284 0-1.137-.454-2.226-1.263-3.03-.81-.803-1.91-1.255-3.05-1.255-1.15 0-2.24.452-3.05 1.255-.81.804-1.27 1.893-1.27 3.03z" fill="#000"/><path d="M784.516 479.2c-8.89 15.9-49.965 26.485-63.198 17.536-12.39-21.513-16.588-56.46-12.782-80.73 6.686-4.16 11.913-6.06 27.983-5.738 4.87.097 22 1.21 28.46.753 43.28-3.05 29.82 33.89 19.53 68.18z" stroke="#050202" stroke-width="3.897" fill="#803300"/><path d="M726.816 384.63c0 2.367 1.93 4.285 4.312 4.285 2.38 0 4.312-1.918 4.312-4.284 0-1.13-.455-2.22-1.263-3.03-.81-.8-1.905-1.25-3.05-1.25-1.142 0-2.24.45-3.048 1.26-.81.81-1.27 1.9-1.27 3.03z" fill="#000"/><path d="M832.926 575.26l-172.532.162c2.173 6.186 1.144 15.018.49 22.608l171.39-.324.652-22.446z" stroke="#000" stroke-width="3.895" fill="#2D5016"/><path d="M775.81 320.075c34.89 5.744 47.747 87.934 37.673 141.126-1.79 8.46-13.22 10.26-19.913 6.49-5.923-2.57-7.118-9.25-7.445-14.96-.96-13.76 6.402-76.69-3.65-88.05-10.053-11.35-63.84-8.61-72.8 3.59-8.964 12.2 5.26 85.78-2.288 101.05-7.035 8.76-24.268 4.58-25.395-6.92 2.222-16.82-5.464-84.4-2.82-98.22 2.64-13.82 15.85-35.61 27.21-39.89 26.006-9.77 34.54-9.93 69.43-4.19z" stroke="#050202" stroke-width="3.897" fill="#504416"/><path d="M690.452 340.084c-2.652 6.537-10.69 15.9-10.094 23.895l128.457.9c-2.005-7.16-3.03-13.08-9.06-23.77l-109.303-1.04z" stroke="#000" stroke-width="4" fill="#2D5016"/><path d="M772.876 421.334c-5.977 5.79-43.623 2.11-46.878-.65-3.255-2.757 14.83 22.455 24.174 22.4 9.345-.055 28.68-27.54 22.704-21.75z" stroke="#000" stroke-width="4" fill="#FFF6D5"/><path d="M1175.89 269.915l14.993 52.765-86.762-45.867c-83.59-3.055-149.75-43.217-149.75-92.313 0-51.086 71.64-92.5 160-92.5 88.37 0 160 41.414 160 92.5 0 38.483-40.65 71.478-98.48 85.415z" stroke="#000" stroke-width="4" fill="#FFF"/><path d="M1058.71 126.03h1.188c1.47 0 2.344 1.085 2.625 3.25v.5c0 3.283-1.35 5.444-4.046 6.486l-.485-.5v-.25l1.203-4.235-.953-.5c-3.927 0-8.614 3.42-14.062 10.24-1.27 2.08-1.907 3.66-1.907 4.75v.25c0 2.66 1.745 3.99 5.235 3.99h.25c3.364 0 7.094-.82 11.187-2.48h.72c.634.26.952.84.952 1.74v1c-3.364 3.17-7.333 4.75-11.906 4.75-6.19-.58-9.29-3.41-9.29-8.48v-.5c0-6.47 5.01-12.79 15.02-18.98 1.91-.66 3.34-1 4.28-1zm17.47 3.954c4.448.615 6.672 3.276 6.672 7.985 0 6.16-2.438 11.27-7.313 15.31-2.01 1.14-3.81 1.72-5.4 1.72-3.87 0-6.36-2.09-7.47-6.25l-.16-1.94v-.66c0-6.73 3.07-11.84 9.22-15.31 1.54-.58 3.02-.86 4.43-.86zm-11.594 16.828c1.604 2.438 3.724 3.657 6.36 3.657 4.24 0 7.202-2.52 8.89-7.55l.312-2.38c0-3.54-1.744-5.63-5.234-6.25h-.484c-2.886 0-5.9 2.87-9.047 8.62-.53 1.73-.797 3.02-.797 3.89zm28.97-16.828h.405c.67.365 1 .933 1 1.703v.438c0 4.625.41 10.042 1.22 16.25h.21c4.46-11.688 7.09-17.53 7.88-17.53h.61c.6 0 1.54 4.06 2.83 12.186 1.21 4.17 1.82 7.66 1.82 10.47-.4 1-1 1.5-1.81 1.5-.54 0-1.28-3.49-2.21-10.48l-1.62-6.83c-1.15 1.86-3.24 6.7-6.26 14.53-.86.89-1.6 1.39-2.22 1.5-1.75 0-2.62-2.35-2.62-7.06l-1-8.97h-.2l-6.06 13.68c-.36 2.28-.7 3.42-1.01 3.42h-.79l-.81-.84v-1.07c0-1.92 1.69-6.05 5.05-12.39 2.4-6.67 3.94-10.09 4.64-10.27l1.02-.22zm34.25.047c.717.16 1.077.71 1.077 1.65-.23 1.77-.943 2.66-2.14 2.66-7.855 0-11.782 1.1-11.782 3.28l-.21 1.85v1.02c5.13-1.23 8.63-1.84 10.5-1.84h.42c.72.32 1.08 1 1.08 2.05 0 1.5-1 2.25-3 2.25-6.57.86-9.86 1.88-9.86 3.08l-.2 2.05v.81c0 1.23.78 1.91 2.35 2.05 2.46-.27 5.53-.88 9.22-1.84h.64c.57.22.86.7.86 1.44v.61c0 1.68-3.57 2.97-10.72 3.89h-.64c-2.57 0-4-1.63-4.28-4.9 0-2.41.5-6.98 1.5-13.72l-.42-1.23c0-2.77 4.28-4.41 12.85-4.91l2.78-.2zm28.03-.04c4.448.62 6.672 3.28 6.672 7.99 0 6.17-2.438 11.27-7.313 15.31-2.01 1.15-3.807 1.72-5.39 1.72-3.865 0-6.354-2.08-7.47-6.25l-.155-1.93v-.65c0-6.73 3.073-11.83 9.218-15.31 1.542-.57 3.02-.86 4.438-.86zm-11.594 16.83c1.604 2.44 3.724 3.66 6.36 3.66 4.24 0 7.203-2.51 8.89-7.54l.313-2.37c0-3.54-1.745-5.62-5.235-6.25h-.484c-2.885 0-5.9 2.88-9.047 8.63-.54 1.73-.8 3.03-.8 3.89zm22.688-16.83c.948 0 2.083 1.78 3.406 5.35 2.562 5.25 5.41 9.74 8.547 13.47 1.052-10.28 1.833-16.34 2.344-18.17l.86-.64h.64c.427 0 .64.29.64.86-1.28 14.69-2.062 22.53-2.344 23.52l-1.28.42c-2.282 0-6.126-4.84-11.532-14.53l-.85-.86-.22.64-.64 9.85v1.28l.22 1.28c-.19 1.71-.75 2.56-1.7 2.56-.87-.31-1.37-.74-1.5-1.28 1.1-15.39 1.88-23.09 2.35-23.09l1.08-.64zm25.187 18.77c.667.2 1.15.56 1.453 1.08v.42c0 2.48-1.86 5.56-5.578 9.22l-.97.22h-.25c-.874 0-1.52-.36-1.936-1.08v-.22c2.917-3.23 4.375-6.08 4.375-8.56.9-.72 1.87-1.08 2.91-1.08zM1026.953 172h.22c.676 0 1.244.35 1.702 1.047-.99 7.21-1.698 13.657-2.125 19.345l12.188-2.515.42.626v1.267c0 1.92-4.415 3.67-13.25 5.25-1.572-.28-2.358-.77-2.358-1.47 1.167-15.413 2.02-23.122 2.563-23.122l.64-.42zm29.64.047c.72.158 1.08.704 1.08 1.64-.23 1.77-.944 2.657-2.142 2.657-7.85 0-11.78 1.094-11.78 3.28l-.22 1.845v1.01c5.13-1.23 8.63-1.85 10.5-1.85h.43c.72.31 1.08.99 1.08 2.04 0 1.5-1 2.25-3 2.25-6.57.85-9.86 1.88-9.86 3.08l-.2 2.05v.81c0 1.23.78 1.91 2.35 2.04 2.46-.27 5.53-.89 9.22-1.85h.64c.57.22.86.69.86 1.43v.61c0 1.67-3.57 2.97-10.72 3.89h-.64c-2.57 0-4-1.64-4.28-4.91 0-2.41.5-6.98 1.5-13.72l-.42-1.24c0-2.77 4.28-4.41 12.84-4.91l2.79-.2zm18.438-.06c1.36 0 2.04.56 2.04 1.686v.423c0 1.55-1.21 2.328-3.62 2.328l-4.51.22c-1.35 7.22-2.03 13.428-2.03 18.626-.36 1.126-.74 1.69-1.12 1.69h-.69c-.78 0-1.23-.215-1.36-.64.76-7.99 1.59-14.48 2.49-19.47l-6.78 1.062c-.64 0-1.01-.637-1.13-1.91 0-2.113 1.89-3.17 5.66-3.17 2.26-.564 5.96-.845 11.08-.845zm7.66-3.923c1.52.49 2.28 1.156 2.28 2-.32 1.323-2.31 4.23-5.98 8.72h-1.43l-1.12-.892v-.67l4.28-6.92c.3-1.49.96-2.234 1.99-2.234zm16.25 3.984h.33c1.44.18 2.16.877 2.16 2.096v.42c0 2.104-.72 4.062-2.15 5.875h-.33c-.23-.07-.45-.42-.67-1.05l.85-3.14-.65-.43c-1.53.13-4.34 1.81-8.43 5.03v.2l10.91 2.11c1.11.87 1.66 2.34 1.66 4.4v1.25c0 2.82-1.82 5.27-5.45 7.34-1.43.56-2.81.84-4.14.84h-.34c-3.79 0-6.1-1.68-6.93-5.03v-1.26c0-1.54.39-2.31 1.16-2.31.76 2.66 2.14 4 4.14 4 0 .27.83.4 2.49.4 2.44 0 4.81-1.26 7.11-3.77 0-1.67-3.53-2.72-10.58-3.16-2.55-.71-3.82-1.76-3.82-3.14 0-3.41 3.42-6.84 10.25-10.28l2.48-.43zm32.56-.045h.16c1.39 0 2.32 1.358 2.78 4.066l-.33.42h-.15l-1.31-.43c-3.58.53-7.34 3.02-11.26 7.48-1.09 1.94-1.64 3.29-1.64 4.06v.86c0 2.28 2.35 3.7 7.03 4.26 2.94 0 5.17-1.57 6.69-4.71l-1.95-.84c-.73 0-2.74.85-6.04 2.56-.32-.73-.48-1.44-.48-2.14v-.22c0-2.27 2.18-3.84 6.53-4.7h.33c2.5 0 3.75 1.64 3.75 4.92 0 3.38-2.77 6.38-8.33 8.98l-1.95.42c-3.53 0-5.92-1.5-7.19-4.49l-.33-2.78c0-6.46 3.32-11.95 9.96-16.47 1.68-.85 2.94-1.28 3.77-1.28zm18.74 0c4.45.618 6.67 3.28 6.67 7.988 0 6.17-2.43 11.27-7.31 15.31-2.01 1.15-3.81 1.72-5.39 1.72-3.86 0-6.35-2.08-7.47-6.25l-.15-1.93v-.66c0-6.73 3.08-11.83 9.22-15.31 1.54-.57 3.02-.86 4.44-.86zm-11.59 16.83c1.61 2.44 3.73 3.658 6.36 3.658 4.24 0 7.21-2.51 8.89-7.54l.32-2.37c0-3.54-1.74-5.62-5.23-6.25h-.48c-2.88 0-5.9 2.88-9.04 8.63-.53 1.73-.79 3.03-.79 3.89zm49.89-16.842c1.36 0 2.04.56 2.04 1.69v.42c0 1.56-1.21 2.33-3.62 2.33l-4.51.22c-1.35 7.22-2.03 13.43-2.03 18.63-.36 1.13-.74 1.69-1.12 1.69h-.69c-.78 0-1.23-.21-1.36-.64.76-7.99 1.59-14.48 2.49-19.47l-6.78 1.07c-.64 0-1.01-.63-1.12-1.91 0-2.11 1.88-3.17 5.65-3.17 2.26-.56 5.96-.84 11.08-.84zm15.05.02c4.45.62 6.68 3.28 6.68 7.99 0 6.17-2.43 11.27-7.31 15.31-2.01 1.15-3.81 1.72-5.39 1.72-3.86 0-6.35-2.08-7.47-6.25l-.15-1.93v-.66c0-6.73 3.08-11.83 9.22-15.31 1.54-.57 3.02-.86 4.44-.86zM1192 188.83c1.605 2.438 3.724 3.657 6.36 3.657 4.24 0 7.203-2.515 8.89-7.546l.313-2.37c0-3.54-1.746-5.62-5.236-6.25h-.484c-2.887 0-5.9 2.88-9.05 8.63-.53 1.73-.795 3.03-.795 3.89zm-156.75 21.22c5.084 0 7.625 1.666 7.625 5v.75c0 2.333-1.145 4.577-3.437 6.734v.25c3.76 1.104 5.64 2.937 5.64 5.5v1c0 4.177-4.254 7.255-12.764 9.234l-4.172.5h-2.452c-1.312 0-1.97-.667-1.97-2v-.25l1.97-20.47c-.822 0-1.234-.165-1.234-.5v-1.5c0-2.832 3.6-4.25 10.798-4.25zm-7.11 11.234h.25c7.69 0 11.53-1.66 11.53-4.985-1.27-.84-3.395-1.25-6.374-1.25h-2.952c-1.31 0-1.97.58-1.97 1.75l-.48 4.48zm-.5 4.75l-.483 7.984 2.454.5.25-.25h1.22c6.88-.875 10.31-2.453 10.31-4.734-2.25-2.336-5.76-3.5-10.54-3.5h-.98l-.25-.25-.25.25h-1.72zm35.173-11.985c.72.15 1.077.7 1.077 1.64-.23 1.77-.945 2.65-2.14 2.65-7.857 0-11.784 1.09-11.784 3.28l-.22 1.84v1.01c5.126-1.23 8.626-1.85 10.5-1.85h.423c.72.31 1.07.99 1.07 2.04 0 1.5-1 2.25-3 2.25-6.58.85-9.86 1.88-9.86 3.08l-.21 2.04v.81c0 1.23.78 1.91 2.34 2.05 2.45-.27 5.53-.89 9.21-1.84h.64c.57.22.86.69.86 1.43v.61c0 1.68-3.58 2.97-10.72 3.89h-.64c-2.58 0-4-1.63-4.29-4.91 0-2.41.5-6.98 1.5-13.72l-.42-1.24c0-2.77 4.28-4.41 12.84-4.91l2.78-.21zm18.436-.06c1.35 0 2.03.56 2.03 1.68v.42c0 1.55-1.21 2.33-3.63 2.33l-4.52.22c-1.36 7.22-2.03 13.42-2.03 18.62-.37 1.12-.74 1.68-1.13 1.68h-.69c-.78 0-1.24-.21-1.36-.64.76-7.99 1.58-14.48 2.48-19.47l-6.78 1.06c-.64 0-1.01-.64-1.13-1.91 0-2.12 1.88-3.17 5.65-3.17 2.26-.56 5.95-.85 11.08-.85zm18.08.01c.73.2 1.1.7 1.1 1.51v.2c-1.04 15.38-1.78 23.07-2.22 23.07l-.23.22h-.66c-.77 0-1.29-.36-1.56-1.08.29-2.06.44-4.93.44-8.63h-.22l-9.35 2.15-.66.86v4.09c0 1.22-.45 2.08-1.35 2.59h-.44c-.84 0-1.36-.36-1.56-1.08 1.03-15.53 2.51-23.3 4.45-23.3h.43l.67.88c-1.04 5.15-1.56 8.96-1.56 11.42 6.82-.9 10.23-1.98 10.23-3.24l.89-9.07 1.56-.64zm5.71 0h.22c.67 0 1.24.35 1.7 1.05-.99 7.21-1.7 13.65-2.13 19.34l12.19-2.52.42.62v1.26c0 1.91-4.42 3.66-13.25 5.25-1.57-.28-2.36-.77-2.36-1.47 1.17-15.42 2.02-23.13 2.56-23.13l.64-.43zm29.64.05c.72.16 1.08.7 1.08 1.64-.23 1.77-.95 2.65-2.14 2.65-7.86 0-11.79 1.09-11.79 3.28l-.22 1.84v1.01c5.12-1.23 8.62-1.85 10.5-1.85h.42c.72.31 1.08.99 1.08 2.04 0 1.5-1 2.25-3 2.25-6.58.85-9.86 1.88-9.86 3.07l-.2 2.05v.81c0 1.23.78 1.91 2.34 2.05 2.46-.27 5.53-.89 9.22-1.85h.64c.57.22.86.7.86 1.44v.61c0 1.67-3.57 2.97-10.72 3.89h-.64c-2.57 0-4-1.64-4.28-4.91 0-2.41.5-6.98 1.5-13.72l-.42-1.23c0-2.77 4.28-4.41 12.84-4.91l2.78-.21zm17.78-.05c.74.19 1.11.7 1.11 1.51v.2c-1.04 15.38-1.78 23.07-2.22 23.07l-.24.22h-.66c-.77 0-1.29-.36-1.56-1.08.29-2.06.43-4.93.43-8.63h-.22l-9.34 2.15-.66.86v4.09c0 1.22-.45 2.08-1.35 2.59h-.44c-.83 0-1.35-.36-1.56-1.08 1.03-15.53 2.51-23.3 4.45-23.3h.43l.67.87c-1.04 5.16-1.56 8.96-1.56 11.42 6.82-.9 10.23-1.98 10.23-3.24l.89-9.06 1.56-.64zm19.22.04c.72.16 1.08.7 1.08 1.64-.23 1.77-.95 2.65-2.14 2.65-7.86 0-11.79 1.09-11.79 3.28l-.22 1.84v1.01c5.12-1.23 8.62-1.85 10.5-1.85h.42c.72.31 1.08.99 1.08 2.04 0 1.5-1 2.25-3 2.25-6.58.85-9.86 1.88-9.86 3.08l-.2 2.04v.81c0 1.23.78 1.91 2.34 2.04 2.46-.27 5.53-.89 9.22-1.85h.64c.57.22.86.69.86 1.43v.61c0 1.67-3.57 2.97-10.72 3.89h-.64c-2.57 0-4-1.64-4.28-4.91 0-2.41.5-6.98 1.5-13.72l-.42-1.23c0-2.77 4.28-4.41 12.84-4.91l2.78-.2zm10.8-.05h.4c.66.36 1 .93 1 1.7v.44c0 4.62.4 10.04 1.22 16.25h.2c4.45-11.69 7.08-17.53 7.87-17.53h.61c.59 0 1.53 4.06 2.82 12.18 1.21 4.16 1.81 7.65 1.81 10.47-.4 1-1 1.5-1.82 1.5-.54 0-1.28-3.5-2.22-10.49l-1.62-6.83c-1.16 1.85-3.25 6.69-6.27 14.53-.87.88-1.61 1.38-2.22 1.5-1.75 0-2.63-2.36-2.63-7.07l-1-8.97h-.21l-6.06 13.68c-.36 2.28-.7 3.42-1.01 3.42h-.8l-.81-.85v-1.08c0-1.92 1.68-6.05 5.04-12.39 2.4-6.67 3.94-10.09 4.64-10.27l1.02-.22zm27.89-3.93c.62.29.94.64.94 1.05-2.97 9.56-4.46 15.62-4.46 18.17-.85.98-1.55 1.47-2.13 1.47-.94-.34-1.41-.75-1.41-1.25 1.48-12.96 3.43-19.44 5.87-19.44h1.17zm-5.55 23.45c1.48.28 2.22 1.05 2.22 2.31v.2c-.59 1.98-2.01 2.97-4.26 2.97-1.12 0-1.79-.77-2.02-2.32 0-1.78 1.35-2.84 4.06-3.17z" fill="#000"/><path d="M398.38 551.392l-88.58 82.6 10.782-72.255C245.324 558.09 186 517.07 186 467c0-52.467 65.143-95 145.5-95S477 414.533 477 467c0 36.723-31.914 68.58-78.62 84.392z" stroke="#000" stroke-width="4" fill="#FFF"/><path d="M280.883 406.03c5.083 0 7.625 1.668 7.625 5v.75c0 2.335-1.146 4.58-3.438 6.736v.25c3.76 1.104 5.64 2.937 5.64 5.5v1c0 4.177-4.254 7.255-12.765 9.234l-4.172.5h-2.453c-1.312 0-1.968-.667-1.968-2v-.25l1.968-20.47c-.823 0-1.234-.165-1.234-.5v-1.5c0-2.832 3.6-4.25 10.797-4.25zm-7.11 11.236h.25c7.688 0 11.532-1.662 11.532-4.985-1.27-.83-3.396-1.25-6.375-1.25h-2.953c-1.313 0-1.97.59-1.97 1.75l-.484 4.49zm-.5 4.75L272.79 430l2.452.5.25-.25h1.22c6.874-.875 10.31-2.453 10.31-4.734-2.25-2.334-5.764-3.5-10.545-3.5h-.985l-.25-.25-.25.25h-1.72zM305.117 406h.985c1.364 0 3.088 5.536 5.17 16.61 1.647 5.23 2.47 8.78 2.47 10.656-.344.99-1 1.484-1.97 1.484-1.26 0-2.165-2.64-2.717-7.922l-.235-.25h-.25c-2.146.02-6.66 1.177-13.547 3.47-.645 3.3-1.713 4.952-3.203 4.952-.99-.344-1.484-1.005-1.484-1.984 0-1.907 4.516-10.662 13.547-26.266l1.234-.75zm-.39 6.938c-1.98 3.145-3.787 6.453-5.422 9.92h1.718c1.678 0 3.813-.332 6.407-1l-2.22-8.92h-.483zM328.523 406h.985c1.364 0 3.088 5.536 5.172 16.61 1.646 5.23 2.468 8.78 2.468 10.656-.343.99-1 1.484-1.968 1.484-1.26 0-2.167-2.64-2.72-7.922l-.233-.25h-.25c-2.146.02-6.662 1.177-13.547 3.47-.646 3.3-1.714 4.952-3.203 4.952-.99-.344-1.485-1.005-1.485-1.984 0-1.907 4.516-10.662 13.547-26.266l1.23-.75zm-.39 6.938c-1.98 3.145-3.787 6.453-5.422 9.92h1.72c1.68 0 3.82-.332 6.41-1l-2.22-8.92h-.48zM351.93 406h.984c1.365 0 3.09 5.536 5.172 16.61 1.646 5.23 2.47 8.78 2.47 10.656-.345.99-1 1.484-1.97 1.484-1.26 0-2.167-2.64-2.72-7.922l-.233-.25h-.25c-2.146.02-6.662 1.177-13.547 3.47-.646 3.3-1.714 4.952-3.203 4.952-.99-.344-1.485-1.005-1.485-1.984 0-1.907 4.516-10.662 13.547-26.266l1.235-.75zm-.39 6.938c-1.98 3.145-3.787 6.453-5.423 9.92h1.72c1.676 0 3.81-.332 6.405-1l-2.22-8.92h-.483zM375.335 406h.984c1.36 0 3.09 5.536 5.17 16.61 1.64 5.23 2.47 8.78 2.47 10.656-.35.99-1 1.484-1.97 1.484-1.26 0-2.17-2.64-2.72-7.922l-.24-.25h-.25c-2.15.02-6.66 1.177-13.55 3.47-.65 3.3-1.72 4.952-3.21 4.952-.99-.344-1.49-1.005-1.49-1.984 0-1.907 4.51-10.662 13.54-26.266l1.23-.75zm-.39 6.938c-1.98 3.145-3.787 6.453-5.423 9.92h1.72c1.676 0 3.812-.332 6.405-1l-2.218-8.92h-.49zm20.765-6.875c.626.29.938.64.938 1.046-2.968 9.56-4.453 15.62-4.453 18.17-.843.98-1.552 1.47-2.125 1.47-.937-.34-1.406-.75-1.406-1.25 1.48-12.96 3.438-19.44 5.875-19.44h1.17zm-5.546 23.453c1.48.28 2.22 1.052 2.22 2.312v.203c-.595 1.98-2.017 2.97-4.267 2.97-1.114 0-1.786-.77-2.015-2.31 0-1.78 1.354-2.84 4.062-3.17zm-97.226 18.515h.453l.68.58v.39c0 .33-1.13 1.87-3.39 4.63-2.71 4.12-4.06 7.98-4.06 11.6 0 3.26 1.58 6.29 4.74 9.08l.24.77c0 .77-.45 1.42-1.36 1.94h-.9c-3.91-2.66-5.87-6.4-5.87-11.2v-.58c0-4.86 2.19-10.02 6.56-15.45 1.32-1.15 2.3-1.73 2.94-1.73zm2.734 4c.698 0 1.047 2.42 1.047 7.25l1.4 9.19h.34c0-.53 1.4-3.38 4.2-8.54.43-3.4 1.25-5.11 2.45-5.11h.34c.7 0 1.29 2.63 1.75 7.89.78 3.6 1.36 5.73 1.75 6.41.37-1.81 2.24-7.15 5.61-16.01.49-.56.96-.84 1.4-.84.62 0 1.03.28 1.22.85 0 .73-1.75 5.5-5.25 14.3-.59 2.09-1.11 4.94-1.58 8.55-.38.71-.84 1.06-1.41 1.06-1.07 0-1.88-2.41-2.44-7.25-1.15-4.72-1.85-7.28-2.11-7.68l-3.5 6.83c-.59 1.33-1.11 3.61-1.58 6.83-.32.52-.78.87-1.39 1.06-.98 0-1.8-3.7-2.46-11.09-.94-5.23-1.41-9.42-1.41-12.59 0-.43.52-.78 1.58-1.06zm38.22-.04c.738.2 1.108.71 1.108 1.52v.21c-1.042 15.39-1.78 23.08-2.22 23.08l-.233.22h-.656c-.77 0-1.29-.36-1.56-1.07.29-2.05.44-4.93.44-8.62h-.22l-9.34 2.16-.65.86v4.09c0 1.22-.45 2.09-1.34 2.6h-.43c-.83 0-1.35-.36-1.56-1.08 1.03-15.53 2.52-23.29 4.45-23.29h.44l.67.88c-1.04 5.16-1.56 8.96-1.56 11.42 6.83-.89 10.24-1.97 10.24-3.23l.89-9.06 1.57-.64zm7.53-.06h1.47c.488 0 .733.29.733.86-1.146 9.36-1.72 15.85-1.72 19.47v2.38c-.322 1.59-1.134 2.38-2.436 2.38h-.49l-.99-.86c.65-9.81 1.47-17.59 2.45-23.36l.97-.85zm18.937.11h.92c1.15 0 1.85.93 2.08 2.8v.44c0 2.83-1.07 4.69-3.21 5.6l-.38-.43v-.22l.95-3.65-.75-.42c-3.12 0-6.82 2.95-11.11 8.83-1.02 1.78-1.53 3.14-1.53 4.08v.22c0 2.3 1.38 3.44 4.15 3.44h.17c2.67 0 5.62-.71 8.86-2.14h.58c.5.23.75.73.75 1.5v.86c-2.67 2.73-5.81 4.1-9.41 4.1-4.91-.51-7.36-2.95-7.36-7.31v-.43c0-5.57 3.95-11.02 11.86-16.36 1.5-.57 2.63-.86 3.4-.86zm19.68-.05c.74.2 1.11.71 1.11 1.52v.21c-1.04 15.39-1.78 23.08-2.22 23.08l-.24.22h-.66c-.77 0-1.29-.36-1.57-1.08.29-2.05.44-4.93.44-8.62h-.22l-9.35 2.16-.66.86v4.09c0 1.22-.45 2.09-1.34 2.6h-.44c-.84 0-1.36-.36-1.57-1.08 1.03-15.53 2.51-23.29 4.45-23.29h.43l.67.88c-1.04 5.16-1.56 8.97-1.56 11.42 6.82-.89 10.23-1.97 10.23-3.23l.89-9.06 1.56-.64zm-131.81 42h.4c.66.37 1 .94 1 1.71v.44c0 4.63.4 10.04 1.22 16.25h.2c4.46-11.69 7.08-17.53 7.87-17.53h.61c.59 0 1.53 4.06 2.83 12.19 1.21 4.17 1.81 7.66 1.81 10.47-.4 1-1 1.5-1.81 1.5-.54 0-1.28-3.49-2.22-10.48l-1.63-6.83c-1.16 1.86-3.25 6.7-6.27 14.54-.87.89-1.61 1.39-2.22 1.5-1.75 0-2.63-2.35-2.63-7.06l-1-8.97-.2.01-6.07 13.67c-.37 2.29-.7 3.43-1.02 3.43h-.79l-.81-.84v-1.08c0-1.91 1.68-6.04 5.04-12.39 2.39-6.67 3.94-10.09 4.64-10.26l1.01-.22zm34.25.05c.72.16 1.08.71 1.08 1.64-.23 1.77-.95 2.66-2.14 2.66-7.86 0-11.79 1.1-11.79 3.28l-.22 1.85v1.02c5.12-1.23 8.62-1.84 10.5-1.84h.42c.72.32 1.08 1 1.08 2.05 0 1.5-1 2.25-3 2.25-6.58.86-9.86 1.88-9.86 3.08l-.21 2.05v.82c0 1.23.78 1.91 2.34 2.05 2.46-.27 5.53-.88 9.22-1.84h.64c.57.22.86.7.86 1.44v.61c0 1.68-3.58 2.97-10.72 3.89h-.64c-2.58 0-4-1.63-4.28-4.91 0-2.4.5-6.98 1.5-13.72l-.43-1.23c0-2.77 4.28-4.4 12.85-4.9l2.78-.2zm10.73 0h.75c1.03 0 2.34 4.77 3.92 14.3 1.25 4.5 1.87 7.56 1.87 9.18-.26.86-.76 1.28-1.5 1.28-.96 0-1.65-2.27-2.06-6.82l-.19-.2h-.19c-1.63.02-5.05 1.02-10.28 2.98-.5 2.85-1.31 4.27-2.44 4.27-.75-.29-1.12-.86-1.12-1.7 0-1.64 3.43-9.19 10.29-22.62l.93-.64zm-.38 5.97c-1.5 2.71-2.88 5.56-4.13 8.55h1.31c1.27 0 2.89-.28 4.87-.86l-1.69-7.69h-.38zm11.96-6.01c.95 0 2.08 1.78 3.41 5.35 2.56 5.25 5.41 9.74 8.55 13.47 1.05-10.28 1.83-16.34 2.34-18.17l.86-.64h.64c.43 0 .64.29.64.86-1.28 14.69-2.06 22.53-2.34 23.52l-1.28.42c-2.29 0-6.13-4.84-11.54-14.53l-.86-.86-.22.64-.64 9.85v1.28l.21 1.29c-.19 1.71-.76 2.56-1.7 2.56-.88-.31-1.38-.74-1.5-1.28 1.09-15.39 1.87-23.09 2.34-23.09l1.08-.64zm30.94.05h.33c1.43.18 2.15.88 2.15 2.1v.42c0 2.11-.72 4.07-2.16 5.88h-.33c-.23-.06-.45-.41-.67-1.05l.84-3.14-.65-.42c-1.53.14-4.35 1.82-8.44 5.03v.21l10.9 2.11c1.1.88 1.65 2.35 1.65 4.41v1.25c0 2.83-1.82 5.27-5.46 7.35-1.43.56-2.81.84-4.14.84h-.35c-3.79 0-6.11-1.67-6.94-5.03v-1.26c0-1.54.39-2.31 1.16-2.31.76 2.67 2.14 4 4.14 4 0 .27.83.41 2.48.41 2.45 0 4.82-1.25 7.11-3.76 0-1.66-3.53-2.72-10.58-3.15-2.54-.71-3.81-1.75-3.81-3.14 0-3.41 3.41-6.83 10.25-10.28l2.48-.42zm20.75 0l4.78 7.25 2.09 1.72c2.64-4.71 4.49-7.55 5.53-8.54h.95l.76.86c-.11.76-3.1 6.09-8.97 16-1.48 2.78-2.56 5.27-3.25 7.47l-.56.22c-.9-.41-1.35-1.05-1.35-1.92.05-1.11 1.58-4.6 4.58-10.45-4.33-4.64-6.49-8.41-6.49-11.31.8-.85 1.43-1.28 1.9-1.28zm29.14 0c.72.16 1.08.71 1.08 1.64-.23 1.77-.95 2.66-2.14 2.66-7.86 0-11.78 1.1-11.78 3.28l-.22 1.85v1.02c5.12-1.23 8.62-1.85 10.5-1.85h.42c.72.32 1.08 1 1.08 2.05 0 1.5-1 2.25-3 2.25-6.58.86-9.86 1.88-9.86 3.08l-.21 2.05v.81c0 1.23.78 1.91 2.34 2.05 2.46-.27 5.53-.88 9.22-1.84h.64c.57.22.86.7.86 1.44v.61c0 1.68-3.58 2.98-10.72 3.89h-.64c-2.58 0-4-1.63-4.28-4.9 0-2.41.5-6.98 1.5-13.72l-.42-1.24c0-2.77 4.28-4.4 12.84-4.9l2.78-.2zm14.33 0h.32c1.43.18 2.15.88 2.15 2.1v.42c0 2.11-.72 4.07-2.15 5.88h-.33c-.23-.06-.46-.41-.67-1.05l.84-3.14-.66-.42c-1.53.14-4.34 1.82-8.44 5.03v.21l10.9 2.11c1.1.88 1.65 2.35 1.65 4.41v1.25c0 2.83-1.82 5.27-5.46 7.35-1.43.56-2.81.84-4.14.84h-.35c-3.79 0-6.1-1.67-6.94-5.03v-1.26c0-1.54.39-2.31 1.16-2.31.76 2.67 2.14 4 4.14 4 0 .27.83.41 2.49.41 2.45 0 4.82-1.25 7.11-3.76 0-1.66-3.53-2.72-10.58-3.15-2.54-.71-3.81-1.75-3.81-3.14 0-3.41 3.41-6.83 10.25-10.28l2.48-.42zm15.9-3.96c.62.29.94.64.94 1.05-2.97 9.56-4.46 15.62-4.46 18.17-.84.98-1.55 1.47-2.12 1.47-.94-.33-1.41-.75-1.41-1.25 1.48-12.96 3.44-19.44 5.87-19.44h1.17zm-5.55 23.45c1.48.28 2.22 1.05 2.22 2.31v.21c-.6 1.98-2.02 2.97-4.27 2.97-1.12 0-1.79-.77-2.02-2.31 0-1.78 1.35-2.83 4.06-3.17zm12.01-23.48h.68c2.94 2.73 4.42 6.71 4.42 11.94 0 7.58-3.1 13.25-9.3 17.03h-.44c-.6-.2-.89-.66-.89-1.37 0-.61 1.25-1.98 3.76-4.11 2.36-3.21 3.54-6.6 3.54-10.17 0-3.34-1.19-7.13-3.55-11.36.42-.92 1.01-1.57 1.76-1.95z" fill="#000"/><use fill="#000" filter="url(#a)" xlink:href="#b"/><use fill="#FFF" xlink:href="#b"/><path d="M68.676 60c1.03 0 1.547 3.158 1.547 9.475l2.056 11.97h.51c0-.68 2.06-4.394 6.18-11.144.64-4.45 1.84-6.68 3.6-6.68h.51c1.03 0 1.88 3.44 2.56 10.31 1.15 4.69 2.01 7.48 2.58 8.37.54-2.36 3.28-9.33 8.22-20.9.73-.74 1.41-1.11 2.06-1.11.92 0 1.53.37 1.81 1.11 0 .95-2.57 7.17-7.72 18.67-.87 2.71-1.64 6.42-2.32 11.15-.55.93-1.24 1.39-2.06 1.39-1.57 0-2.77-3.15-3.61-9.47-1.68-6.15-2.71-9.49-3.1-10.02l-5.15 8.92c-.86 1.73-1.63 4.71-2.32 8.91-.46.68-1.14 1.14-2.06 1.39-1.43 0-2.63-4.83-3.61-14.48-1.37-6.82-2.06-12.3-2.06-16.43 0-.55.77-1.01 2.32-1.39zm48.058 4.447c.832.223 1.248.79 1.248 1.705v.23c-1.17 17.308-2.003 25.962-2.496 25.962l-.263.246h-.74c-.866 0-1.452-.404-1.756-1.213.328-2.31.492-5.543.492-9.703h-.25L102.46 84.1l-.737.966v4.606c0 1.37-.504 2.344-1.512 2.918h-.49c-.94 0-1.52-.404-1.76-1.213 1.16-17.473 2.83-26.21 5.01-26.21h.5l.76.985c-1.17 5.8-1.76 10.084-1.76 12.85 7.68-1.008 11.52-2.22 11.52-3.64l1-10.194 1.76-.72zm21.62.053c.81.176 1.214.79 1.214 1.846-.257 1.992-1.06 2.988-2.408 2.988-8.836 0-13.254 1.23-13.254 3.69l-.246 2.076v1.142c5.766-1.383 9.703-2.074 11.813-2.074h.474c.81.352 1.213 1.12 1.213 2.303 0 1.69-1.125 2.54-3.375 2.54-7.394.96-11.092 2.12-11.092 3.47l-.228 2.31v.92c0 1.38.88 2.15 2.637 2.3 2.765-.3 6.222-.99 10.37-2.07h.72c.646.25.968.79.968 1.62v.69c0 1.89-4.02 3.35-12.058 4.38h-.72c-2.896 0-4.5-1.84-4.818-5.52 0-2.7.563-7.85 1.688-15.43l-.475-1.39c0-3.11 4.817-4.95 14.45-5.52l3.128-.23zm5.082-.053c1.066 0 2.343 2.004 3.832 6.012 2.882 5.9 6.087 10.95 9.615 15.15 1.183-11.57 2.062-18.38 2.637-20.45l.966-.72h.72c.482 0 .722.32.722.96-1.442 16.52-2.32 25.34-2.637 26.45l-1.44.47c-2.56 0-6.89-5.45-12.97-16.35l-.96-.97-.24.72-.72 11.07v1.44l.25 1.44c-.21 1.92-.85 2.88-1.91 2.88-.98-.35-1.54-.83-1.68-1.44 1.23-17.32 2.11-25.98 2.64-25.98l1.22-.72zm54.37-.017c1.522 0 2.284.632 2.284 1.898v.475c0 1.746-1.36 2.62-4.078 2.62l-5.08.245c-1.524 8.12-2.286 15.105-2.286 20.953-.41 1.27-.832 1.9-1.265 1.9h-.77c-.88 0-1.39-.24-1.53-.72.86-8.99 1.79-16.29 2.8-21.9l-7.63 1.2c-.71 0-1.13-.71-1.26-2.14 0-2.38 2.12-3.57 6.37-3.57 2.55-.63 6.7-.95 12.47-.95zm20.337.017c.832.223 1.248.79 1.248 1.705v.23c-1.17 17.308-2 25.962-2.49 25.962l-.26.246h-.73c-.87 0-1.45-.404-1.76-1.213.33-2.31.49-5.543.49-9.703h-.24L203.87 84.1l-.74.966v4.606c0 1.37-.503 2.344-1.51 2.918h-.493c-.938 0-1.523-.404-1.758-1.213 1.16-17.473 2.83-26.21 5.01-26.21h.49l.75.985c-1.17 5.8-1.76 10.084-1.76 12.85 7.67-1.008 11.51-2.22 11.51-3.64l1-10.194 1.75-.72zm21.62.053c.81.176 1.214.79 1.214 1.846-.258 1.992-1.06 2.988-2.41 2.988-8.835 0-13.253 1.23-13.253 3.69l-.246 2.076v1.142c5.766-1.383 9.703-2.074 11.813-2.074h.48c.81.352 1.22 1.12 1.22 2.303 0 1.69-1.12 2.54-3.37 2.54-7.39.96-11.09 2.12-11.09 3.47l-.23 2.31v.92c0 1.38.88 2.15 2.64 2.3 2.77-.3 6.23-.99 10.37-2.07h.73c.65.25.97.79.97 1.62v.69c0 1.89-4.02 3.35-12.06 4.38h-.72c-2.89 0-4.5-1.84-4.82-5.52 0-2.7.56-7.85 1.69-15.43l-.47-1.39c0-3.11 4.82-4.95 14.45-5.52l3.13-.23zm27.018 0h.85c1.16 0 2.63 5.36 4.41 16.084 1.41 5.063 2.11 8.502 2.11 10.318-.29.96-.85 1.442-1.69 1.442-1.08 0-1.85-2.56-2.32-7.682l-.21-.228h-.21c-1.83.023-5.68 1.142-11.57 3.357-.56 3.2-1.47 4.8-2.74 4.8-.84-.32-1.26-.96-1.26-1.91 0-1.85 3.86-10.33 11.59-25.45l1.06-.72zm-.42 6.715c-1.68 3.047-3.23 6.252-4.64 9.615h1.48c1.43 0 3.26-.322 5.49-.967l-1.9-8.648h-.42zm13.45-6.768c1.07 0 2.35 2.004 3.83 6.012 2.88 5.9 6.09 10.95 9.62 15.15 1.19-11.57 2.06-18.38 2.64-20.45l.97-.72h.72c.49 0 .73.32.73.96-1.44 16.52-2.32 25.34-2.64 26.45l-1.44.47c-2.57 0-6.89-5.45-12.97-16.35l-.96-.97-.24.72-.72 11.07v1.44l.25 1.44c-.21 1.92-.85 2.88-1.92 2.88-.98-.35-1.55-.83-1.69-1.44 1.23-17.32 2.11-25.98 2.64-25.98l1.22-.72zm35.35 0h.18c1.56 0 2.6 1.524 3.13 4.57l-.37.475h-.17l-1.47-.474c-4.03.597-8.25 3.404-12.67 8.42-1.23 2.18-1.85 3.703-1.85 4.57v.967c0 2.566 2.64 4.166 7.91 4.798 3.31 0 5.82-1.763 7.53-5.29l-2.2-.95c-.82 0-3.09.96-6.8 2.883-.36-.82-.54-1.623-.54-2.408v-.246c0-2.555 2.45-4.32 7.35-5.29h.37c2.81 0 4.22 1.844 4.22 5.536 0 3.808-3.12 7.178-9.37 10.107l-2.19.475c-3.97 0-6.67-1.682-8.08-5.045l-.37-3.13c0-7.265 3.74-13.44 11.2-18.526 1.89-.97 3.3-1.45 4.24-1.45zm24.51.053c.81.176 1.22.79 1.22 1.846-.26 1.992-1.06 2.988-2.41 2.988-8.83 0-13.25 1.23-13.25 3.69l-.24 2.076v1.142c5.77-1.383 9.71-2.074 11.81-2.074h.48c.81.352 1.22 1.12 1.22 2.303 0 1.69-1.12 2.54-3.37 2.54-7.39.96-11.09 2.12-11.09 3.47l-.22 2.31v.92c0 1.38.88 2.15 2.64 2.3 2.77-.3 6.22-.99 10.37-2.07h.72c.65.25.97.79.97 1.62v.69c0 1.89-4.02 3.35-12.06 4.38h-.72c-2.89 0-4.5-1.84-4.82-5.52 0-2.7.56-7.85 1.69-15.43l-.48-1.39c0-3.11 4.82-4.95 14.45-5.52l3.13-.23zm4.84-.053h.25c.77 0 1.4.393 1.92 1.178-1.11 8.11-1.91 15.363-2.39 21.762l13.71-2.83.48.703v1.424c0 2.156-4.97 4.125-14.9 5.906-1.77-.317-2.65-.867-2.65-1.653 1.32-17.343 2.28-26.015 2.89-26.015l.72-.475zm29.45.053h.37c1.62.2 2.43.984 2.43 2.355v.475c0 2.367-.81 4.57-2.42 6.61h-.37c-.25-.07-.51-.463-.75-1.178l.95-3.533-.74-.48c-1.72.15-4.88 2.04-9.49 5.66v.23l12.27 2.37c1.25.98 1.87 2.63 1.87 4.95v1.4c0 3.17-2.04 5.93-6.13 8.26-1.6.63-3.16.95-4.66.95h-.38c-4.26 0-6.86-1.89-7.8-5.66V85.5c0-1.735.43-2.602 1.3-2.602.86 3 2.41 4.5 4.66 4.5 0 .307.93.46 2.8.46 2.76 0 5.42-1.41 8-4.237 0-1.87-3.97-3.06-11.9-3.55-2.86-.79-4.29-1.97-4.29-3.53 0-3.83 3.85-7.69 11.53-11.56l2.8-.47zm39.98-.053c.84.223 1.25.79 1.25 1.705v.23c-1.17 17.308-2 25.962-2.5 25.962l-.26.246h-.74c-.86 0-1.45-.404-1.75-1.213.33-2.31.49-5.543.49-9.703h-.24L399.64 84.1l-.74.966v4.606c0 1.37-.504 2.344-1.51 2.918h-.494c-.938 0-1.524-.404-1.758-1.213 1.16-17.473 2.83-26.21 5.01-26.21h.492l.755.985c-1.172 5.8-1.758 10.084-1.758 12.85 7.676-1.008 11.513-2.22 11.513-3.64l1.002-10.194 1.758-.72zm13.68.053h.85c1.16 0 2.63 5.36 4.42 16.084 1.41 5.063 2.11 8.502 2.11 10.318-.29.96-.85 1.442-1.69 1.442-1.08 0-1.85-2.56-2.32-7.682l-.21-.228h-.21c-1.83.023-5.68 1.142-11.57 3.357-.56 3.2-1.47 4.8-2.74 4.8-.84-.32-1.26-.96-1.26-1.91 0-1.85 3.87-10.33 11.59-25.45l1.06-.72zm-.42 6.715c-1.69 3.047-3.23 6.252-4.64 9.615H424c1.43 0 3.258-.322 5.484-.967l-1.898-8.648h-.422zm18.97-6.768h1.07c5.1 0 8.22 2.022 9.37 6.065l.21 1.933c0 8.05-5.96 14.684-17.89 19.9l-1.05.245h-.23c-.31 0-.59-.57-.84-1.705l2.12-20.865c-.85 0-1.28-.24-1.28-.72v-.493c0-2.578 1.14-3.868 3.41-3.868l5.12-.5zm-4.25 5.098C440.64 77.842 440 83.42 440 86.28v1.21c8.94-4.47 13.41-8.67 13.41-12.62v-.23c0-2.28-.64-3.41-1.916-3.41-1.585-1.13-4.14-1.69-7.667-1.69h-1.92zm45.28-5.098h.18c1.56 0 2.6 1.524 3.13 4.57l-.37.475h-.17l-1.47-.474c-4.03.597-8.25 3.404-12.67 8.42-1.23 2.18-1.84 3.703-1.84 4.57v.967c0 2.566 2.64 4.166 7.91 4.798 3.31 0 5.82-1.763 7.53-5.29l-2.19-.95c-.82 0-3.09.96-6.8 2.883-.36-.82-.54-1.623-.54-2.408v-.246c0-2.555 2.45-4.32 7.35-5.29h.37c2.81 0 4.22 1.844 4.22 5.536 0 3.808-3.12 7.178-9.37 10.107l-2.19.475c-3.97 0-6.66-1.682-8.08-5.045l-.37-3.13c0-7.265 3.73-13.44 11.2-18.526 1.89-.97 3.3-1.45 4.24-1.45zm21.08 0c5.01.692 7.51 3.686 7.51 8.983 0 6.937-2.74 12.68-8.22 17.226-2.26 1.29-4.28 1.934-6.06 1.934-4.34 0-7.15-2.344-8.4-7.03l-.17-2.18v-.74c0-7.57 3.46-13.312 10.37-17.226 1.73-.644 3.4-.967 4.99-.967zM495.19 83.38c1.806 2.74 4.19 4.112 7.156 4.112 4.77 0 8.103-2.83 10.002-8.49l.35-2.672c0-3.984-1.962-6.328-5.887-7.03h-.54c-3.24 0-6.64 3.233-10.18 9.702-.6 1.945-.89 3.404-.89 4.377zm25.525-18.933c1.066 0 2.344 2.004 3.832 6.012 2.883 5.9 6.088 10.95 9.615 15.15 1.184-11.57 2.063-18.38 2.637-20.45l.96-.72h.72c.48 0 .72.32.72.96-1.44 16.52-2.32 25.34-2.64 26.45l-1.44.47c-2.57 0-6.9-5.45-12.98-16.35l-.97-.97-.25.72-.72 11.07v1.44l.24 1.44c-.22 1.92-.85 2.88-1.92 2.88-.99-.35-1.55-.83-1.69-1.44 1.23-17.32 2.11-25.98 2.63-25.98l1.21-.72zm38.707.053c.808.176 1.213.79 1.213 1.846-.258 1.992-1.06 2.988-2.408 2.988-8.836 0-13.254 1.23-13.254 3.69l-.246 2.076v1.142c5.765-1.383 9.703-2.074 11.812-2.074h.47c.81.352 1.21 1.12 1.21 2.303 0 1.69-1.13 2.54-3.38 2.54-7.4.96-11.09 2.12-11.09 3.47l-.23 2.31v.92c0 1.38.88 2.15 2.63 2.3 2.76-.3 6.22-.99 10.37-2.07h.72c.64.25.96.79.96 1.62v.69c0 1.89-4.02 3.35-12.06 4.38h-.72c-2.9 0-4.5-1.84-4.82-5.52 0-2.7.56-7.85 1.68-15.43l-.48-1.39c0-3.11 4.81-4.95 14.45-5.52l3.12-.23zm26.982 0c4.746 0 7.12 1.617 7.12 4.852v.72c0 2.262-1.073 4.442-3.217 6.54v.245c3.527 1.067 5.29 2.842 5.29 5.327v.966c0 4.055-3.984 7.037-11.952 8.948l-3.92.492h-2.286c-1.23 0-1.85-.645-1.85-1.934v-.246l1.84-19.863c-.78 0-1.16-.158-1.16-.475v-1.46c0-2.74 3.37-4.112 10.12-4.112zm-6.68 10.898h.247c7.2 0 10.8-1.617 10.8-4.85-1.18-.798-3.17-1.196-5.97-1.196h-2.76c-1.22 0-1.83.562-1.83 1.687l-.47 4.35zm-.456 4.606l-.457 7.734 2.31.492.23-.246h1.14c6.45-.843 9.67-2.373 9.67-4.588-2.12-2.26-5.42-3.392-9.89-3.392h-.91l-.23-.246-.22.246h-1.61zM607.656 64.5h.844c1.16 0 2.63 5.36 4.412 16.084 1.406 5.063 2.11 8.502 2.11 10.318-.293.96-.856 1.442-1.688 1.442-1.078 0-1.852-2.56-2.32-7.682l-.21-.228h-.212c-1.828.023-5.684 1.142-11.567 3.357-.562 3.2-1.476 4.8-2.742 4.8-.844-.32-1.265-.96-1.265-1.91 0-1.85 3.86-10.33 11.584-25.45l1.054-.72zm-.422 6.715c-1.687 3.047-3.234 6.252-4.64 9.615h1.476c1.43 0 3.258-.322 5.485-.967l-1.9-8.648h-.42zm26.772-6.715h1.037c1.3 0 2.08 1.05 2.338 3.146v.493c0 3.17-1.2 5.27-3.6 6.29l-.42-.5v-.25l1.08-4.12-.84-.48c-3.5 0-7.67 3.31-12.5 9.93-1.15 2-1.72 3.53-1.72 4.59v.24c0 2.58 1.56 3.87 4.68 3.87h.2c3 0 6.33-.8 9.97-2.41h.65c.56.25.84.82.84 1.68v.96c-3 3.07-6.52 4.6-10.58 4.6-5.52-.58-8.28-3.32-8.28-8.23v-.49c0-6.27 4.45-12.4 13.35-18.4 1.69-.65 2.97-.97 3.84-.97zm8.578.105l.703.967-.703 9.14 14.344-7.944c.62.773.93 1.734.93 2.882-1.616 2.274-5.77 5.162-12.462 8.666v.246c3.094 4.02 6.622 7.383 10.583 10.09v.493c0 2.238-.79 3.357-2.36 3.357l-11.74-9.615c-.47 6.41-.94 9.615-1.41 9.615l-1.18.246c-.79-.258-1.18-.738-1.18-1.44l.93-11.304-.23-2.883c.54 0 1.01-3.53 1.41-10.6.64-1.27 1.43-1.91 2.35-1.91zm49.73-.175c1.522 0 2.284.632 2.284 1.898v.475c0 1.746-1.36 2.62-4.078 2.62l-5.08.245c-1.524 8.12-2.286 15.105-2.286 20.953-.41 1.27-.832 1.9-1.265 1.9h-.78c-.88 0-1.39-.24-1.53-.72.85-8.99 1.79-16.29 2.79-21.9l-7.63 1.2c-.72 0-1.14-.71-1.27-2.14 0-2.38 2.12-3.57 6.36-3.57 2.54-.63 6.69-.95 12.46-.95zm16.926.017c5.004.692 7.506 3.686 7.506 8.983 0 6.937-2.742 12.68-8.226 17.226-2.262 1.29-4.284 1.934-6.065 1.934-4.348 0-7.148-2.344-8.402-7.03l-.176-2.18v-.74c0-7.57 3.457-13.312 10.37-17.226 1.735-.644 3.4-.967 4.993-.967zM696.197 83.38c1.805 2.74 4.19 4.112 7.155 4.112 4.77 0 8.103-2.83 10.002-8.49l.35-2.672c0-3.984-1.962-6.328-5.888-7.03h-.545c-3.24 0-6.63 3.233-10.17 9.702-.6 1.945-.89 3.404-.89 4.377zm55.39-18.933c.83.223 1.247.79 1.247 1.705v.23c-1.172 17.308-2.004 25.962-2.496 25.962l-.264.246h-.738c-.867 0-1.453-.404-1.758-1.213.328-2.31.492-5.543.492-9.703h-.246l-10.51 2.426-.74.966v4.606c0 1.37-.504 2.344-1.51 2.918h-.494c-.937 0-1.523-.404-1.758-1.213 1.16-17.473 2.83-26.21 5.01-26.21h.492l.756.985c-1.172 5.8-1.758 10.084-1.758 12.85 7.676-1.008 11.514-2.22 11.514-3.64l1.002-10.194 1.758-.72zm21.62.053c.81.176 1.213.79 1.213 1.846-.258 1.992-1.06 2.988-2.408 2.988-8.836 0-13.254 1.23-13.254 3.69l-.246 2.076v1.142c5.765-1.383 9.703-2.074 11.812-2.074h.475c.8.352 1.21 1.12 1.21 2.303 0 1.69-1.13 2.54-3.38 2.54-7.4.96-11.09 2.12-11.09 3.47l-.23 2.31v.92c0 1.38.88 2.15 2.64 2.3 2.76-.3 6.22-.99 10.37-2.07h.72c.64.25.96.79.96 1.62v.69c0 1.89-4.02 3.35-12.06 4.38h-.72c-2.9 0-4.5-1.84-4.82-5.52 0-2.7.56-7.85 1.69-15.43l-.48-1.39c0-3.11 4.81-4.95 14.45-5.52l3.13-.23zm12.076 0h.844c1.16 0 2.63 5.36 4.412 16.084 1.4 5.063 2.1 8.502 2.1 10.318-.3.96-.86 1.442-1.69 1.442-1.08 0-1.85-2.56-2.32-7.682l-.21-.228h-.21c-1.83.023-5.69 1.142-11.57 3.357-.56 3.2-1.48 4.8-2.74 4.8-.85-.32-1.27-.96-1.27-1.91 0-1.85 3.86-10.33 11.58-25.45l1.05-.72zm-.422 6.715c-1.68 3.047-3.23 6.252-4.64 9.615h1.48c1.43 0 3.26-.322 5.49-.967l-1.9-8.648h-.42zm29.03-6.768h.71c.64.258.95.82.95 1.688 0 1.172-2.45 6.222-7.35 15.152-2.4 6.692-3.9 10.3-4.5 10.828l-2.35.475c-1.03 0-1.74-1.846-2.14-5.537-3.15-11.12-4.73-17.936-4.73-20.444.26-.73.73-1.29 1.43-1.69h.95c.86 0 1.72 3.37 2.6 10.1l2.84 10.58h.23c1.64-4.34 5.19-11.23 10.66-20.69l.72-.48zm20.45.053c.81.176 1.22.79 1.22 1.846-.26 1.992-1.06 2.988-2.41 2.988-8.83 0-13.25 1.23-13.25 3.69l-.24 2.076v1.142c5.77-1.383 9.71-2.074 11.82-2.074h.48c.81.352 1.22 1.12 1.22 2.303 0 1.69-1.12 2.54-3.37 2.54-7.4.96-11.1 2.12-11.1 3.47l-.23 2.31v.92c0 1.38.88 2.15 2.64 2.3 2.77-.3 6.23-.99 10.37-2.07h.72c.64.25.97.79.97 1.62v.69c0 1.89-4.02 3.35-12.05 4.38h-.72c-2.9 0-4.5-1.84-4.82-5.52 0-2.7.56-7.85 1.69-15.43l-.47-1.39c0-3.11 4.82-4.95 14.45-5.52l3.13-.23zm5.08-.053c1.07 0 2.35 2.004 3.83 6.012 2.89 5.9 6.09 10.95 9.62 15.15 1.19-11.57 2.06-18.38 2.64-20.45l.97-.72h.72c.48 0 .72.32.72.96-1.44 16.52-2.32 25.34-2.63 26.45l-1.44.47c-2.56 0-6.89-5.45-12.97-16.35l-.97-.97-.24.72-.72 11.07v1.44l.25 1.44c-.21 1.92-.85 2.88-1.91 2.88-.99-.35-1.55-.83-1.69-1.44 1.23-17.32 2.11-25.98 2.64-25.98l1.22-.72zm28.33 21.113c.75.22 1.3.62 1.64 1.21v.47c0 2.79-2.09 6.245-6.27 10.37l-1.09.246h-.29c-.98 0-1.71-.404-2.18-1.213V96.4c3.29-3.632 4.93-6.842 4.93-9.632 1.01-.807 2.1-1.21 3.27-1.21zM96.57 106.43c1.524 0 2.286.63 2.286 1.89v.476c0 1.746-1.36 2.62-4.08 2.62l-5.08.245c-1.522 8.12-2.284 15.11-2.284 20.96-.41 1.27-.832 1.9-1.265 1.9h-.773c-.88 0-1.387-.24-1.53-.72.857-8.99 1.79-16.29 2.797-21.9l-7.63 1.2c-.71 0-1.13-.71-1.26-2.14 0-2.38 2.12-3.56 6.37-3.56 2.55-.63 6.7-.95 12.47-.95zm20.34.01c.83.223 1.246.79 1.246 1.705v.23c-1.17 17.31-2.003 25.962-2.496 25.962l-.264.245h-.74c-.865 0-1.45-.406-1.755-1.215.33-2.31.49-5.542.49-9.702h-.24l-10.51 2.426-.74.97v4.61c0 1.37-.5 2.35-1.51 2.92h-.49c-.93 0-1.52-.4-1.75-1.21 1.16-17.47 2.83-26.21 5.01-26.21h.49l.76.99c-1.17 5.8-1.75 10.09-1.75 12.85 7.68-1 11.51-2.22 11.51-3.64l1-10.19 1.76-.72zm21.62.053c.81.175 1.212.79 1.212 1.845-.257 1.992-1.06 2.99-2.41 2.99-8.835 0-13.253 1.23-13.253 3.69l-.25 2.075v1.14c5.76-1.382 9.7-2.073 11.81-2.073h.47c.81.352 1.21 1.12 1.21 2.303 0 1.688-1.13 2.532-3.38 2.532-7.4.96-11.1 2.113-11.1 3.46l-.23 2.304v.91c0 1.38.88 2.15 2.63 2.3 2.76-.31 6.22-1 10.37-2.08h.72c.64.24.96.78.96 1.61v.68c0 1.88-4.02 3.34-12.06 4.37h-.72c-2.9 0-4.5-1.84-4.82-5.52 0-2.71.56-7.85 1.69-15.44l-.48-1.39c0-3.12 4.82-4.96 14.45-5.52l3.13-.23zm31.06 0h.37c1.616.2 2.425.983 2.425 2.354v.475c0 2.366-.81 4.57-2.425 6.61h-.37c-.258-.07-.51-.464-.756-1.18l.95-3.532-.74-.475c-1.723.15-4.887 2.04-9.49 5.66v.23l12.267 2.37c1.25.985 1.87 2.637 1.87 4.958v1.407c0 3.175-2.04 5.93-6.13 8.26-1.6.633-3.16.95-4.66.95h-.38c-4.27 0-6.87-1.887-7.8-5.66v-1.42c0-1.734.44-2.6 1.3-2.6.86 3 2.41 4.5 4.66 4.5 0 .305.93.457 2.8.457 2.76 0 5.42-1.41 8-4.235 0-1.875-3.96-3.06-11.9-3.55-2.86-.798-4.29-1.975-4.29-3.534 0-3.83 3.85-7.687 11.53-11.566l2.8-.475zm25.03-.054c.833.22 1.25.79 1.25 1.7v.23c-1.173 17.31-2.005 25.96-2.497 25.96l-.265.24h-.74c-.866 0-1.452-.41-1.757-1.22.33-2.31.5-5.55.5-9.71h-.24l-10.51 2.43-.73.96v4.61c0 1.37-.5 2.34-1.51 2.92h-.49c-.94 0-1.52-.41-1.76-1.22 1.16-17.48 2.83-26.21 5.01-26.21h.5l.76.98c-1.17 5.8-1.76 10.08-1.76 12.85 7.68-1.01 11.52-2.22 11.52-3.64l1-10.2 1.76-.72zm21.62.05c.81.17 1.215.79 1.215 1.84-.26 1.99-1.06 2.99-2.41 2.99-8.833 0-13.25 1.23-13.25 3.69l-.247 2.07v1.14c5.768-1.38 9.705-2.08 11.815-2.08h.474c.81.35 1.213 1.12 1.213 2.3 0 1.69-1.125 2.53-3.375 2.53-7.395.96-11.092 2.11-11.092 3.46l-.227 2.3v.91c0 1.38.88 2.15 2.635 2.3 2.77-.31 6.23-1 10.38-2.08h.72c.65.24.97.78.97 1.61v.68c0 1.88-4.02 3.34-12.06 4.37h-.72c-2.89 0-4.5-1.84-4.81-5.52 0-2.71.56-7.85 1.69-15.43l-.47-1.39c0-3.12 4.82-4.96 14.45-5.52l3.13-.23zm14.276-.06c4.65 0 6.978 1.36 6.978 4.09 0 5.4-5.096 10.29-15.292 14.66-.75 0-1.124.48-1.124 1.44-.107 5.29-.634 7.94-1.584 7.94h-1.126c-.302-.07-.6-.47-.894-1.2l2.02-19.73h-.23c-.6 0-.9-.73-.9-2.18 0-2.35 1.356-3.71 4.06-4.08l8.09-.97zm-9 13.95c5.144-1.35 9.047-3.59 11.707-6.74l.44-1.46v-.48l-1.128-.25h-1.124c-5.99.33-8.98.89-8.98 1.69l-.91 7.22zm34.75-13.96c.834.22 1.25.79 1.25 1.7v.23c-1.172 17.31-2.004 25.96-2.496 25.96l-.265.24h-.74c-.867 0-1.453-.4-1.758-1.21.328-2.31.492-5.54.492-9.7h-.25l-10.51 2.42-.74.96v4.61c0 1.37-.51 2.34-1.52 2.92h-.49c-.94 0-1.53-.41-1.76-1.22 1.16-17.48 2.83-26.21 5.01-26.21h.49l.75.98c-1.17 5.8-1.76 10.08-1.76 12.85 7.67-1.01 11.51-2.22 11.51-3.64l1-10.2 1.76-.72zm21.623.05c.8.17 1.21.79 1.21 1.84-.26 1.99-1.06 2.99-2.41 2.99-8.84 0-13.25 1.23-13.25 3.69l-.25 2.07v1.14c5.76-1.39 9.7-2.08 11.81-2.08h.47c.8.35 1.21 1.12 1.21 2.3 0 1.69-1.13 2.53-3.38 2.53-7.4.96-11.09 2.11-11.09 3.46l-.23 2.3v.91c0 1.38.88 2.15 2.64 2.3 2.76-.31 6.22-1 10.37-2.08h.72c.64.24.96.78.96 1.62v.69c0 1.88-4.02 3.34-12.06 4.37h-.72c-2.9 0-4.5-1.84-4.82-5.52 0-2.71.56-7.85 1.69-15.44l-.47-1.39c0-3.12 4.81-4.96 14.45-5.52l3.13-.23zm14.3-.06h2.42c3.71 0 5.57 1.29 5.57 3.88v.24c0 4.54-3.88 8.66-11.64 12.38v.23c3.88 3.56 7.11 6.23 9.7 8.01v.72c0 1.25-.41 2.06-1.22 2.42h-.97l-13.33-9.46-.25 4.85v3.64c-.41.81-1.06 1.21-1.94 1.21-.64 0-1.13-.33-1.46-.97v-1.46l2.18-18.93c-.65 0-.97-.48-.97-1.45 0-2.91 2.42-4.61 7.26-5.09l4.61-.25zm-8.47 13.09h.24c8.39-2.16 12.58-4.5 12.58-7.03v-.25c0-.45-.81-.77-2.43-.97-2.69 0-5.92.56-9.69 1.7l-.72 6.54zm25.84-13.1h1.07c5.1 0 8.22 2.02 9.37 6.06l.21 1.93c0 8.05-5.97 14.68-17.9 19.9l-1.06.24h-.23c-.32 0-.6-.57-.85-1.71l2.14-20.86c-.86 0-1.28-.24-1.28-.72v-.49c0-2.58 1.13-3.87 3.41-3.87l5.11-.49zm-4.26 5.1c-1.28 8.29-1.92 13.87-1.92 16.73v1.21c8.94-4.47 13.41-8.67 13.41-12.62v-.23c0-2.27-.64-3.41-1.92-3.41-1.59-1.13-4.14-1.69-7.67-1.69h-1.91zm29.79-5.04h.37c1.62.2 2.43.98 2.43 2.35v.47c0 2.36-.81 4.57-2.43 6.61h-.37c-.26-.07-.51-.47-.76-1.18l.95-3.53-.74-.48c-1.72.15-4.89 2.04-9.49 5.66v.23l12.27 2.37c1.24.98 1.86 2.64 1.86 4.96v1.4c0 3.17-2.05 5.93-6.14 8.26-1.6.63-3.16.95-4.66.95H328c-4.265 0-6.87-1.89-7.804-5.66v-1.42c0-1.74.437-2.61 1.3-2.61.86 3 2.41 4.5 4.66 4.5 0 .3.93.46 2.797.46 2.75 0 5.42-1.41 7.993-4.24 0-1.88-3.963-3.06-11.9-3.55-2.86-.8-4.29-1.98-4.29-3.54 0-3.83 3.848-7.68 11.536-11.56l2.796-.48zm22.97 0c.78 0 1.17 2.72 1.17 8.15l1.58 10.34h.38c0-.6 1.57-3.8 4.73-9.62.49-3.84 1.41-5.75 2.76-5.75h.38c.8 0 1.45 2.95 1.97 8.87.88 4.04 1.53 6.44 1.97 7.2.42-2.04 2.52-8.05 6.31-18.02.55-.63 1.08-.95 1.58-.95.7 0 1.16.32 1.37.95 0 .82-1.97 6.18-5.91 16.08-.66 2.34-1.25 5.55-1.78 9.61-.42.8-.95 1.2-1.58 1.2-1.2 0-2.11-2.72-2.75-8.16-1.29-5.31-2.08-8.19-2.37-8.65l-3.93 7.68c-.66 1.5-1.25 4.06-1.78 7.68-.35.58-.88.98-1.57 1.19-1.1 0-2.02-4.16-2.76-12.48-1.06-5.88-1.58-10.61-1.58-14.17 0-.48.59-.88 1.77-1.19zm43.01 0c.81.17 1.21.79 1.21 1.84-.26 1.99-1.06 2.99-2.41 2.99-8.84 0-13.26 1.23-13.26 3.69l-.25 2.07v1.14c5.76-1.38 9.7-2.07 11.81-2.07h.47c.8.35 1.21 1.12 1.21 2.3 0 1.69-1.13 2.53-3.38 2.53-7.4.96-11.09 2.11-11.09 3.46l-.23 2.3v.91c0 1.38.88 2.15 2.63 2.3 2.77-.31 6.22-1 10.37-2.08h.72c.65.25.97.78.97 1.62v.68c0 1.88-4.02 3.34-12.06 4.37h-.72c-2.89 0-4.5-1.84-4.81-5.52 0-2.71.56-7.85 1.68-15.43l-.48-1.39c0-3.12 4.81-4.96 14.45-5.52l3.13-.23zm5.08-.06c1.06 0 2.34 2 3.83 6.01 2.88 5.9 6.08 10.95 9.61 15.15 1.18-11.57 2.06-18.38 2.63-20.45l.97-.72h.72c.48 0 .72.32.72.96-1.44 16.52-2.32 25.34-2.64 26.45l-1.44.48c-2.57 0-6.89-5.45-12.98-16.35l-.97-.97-.25.72-.72 11.07v1.44l.25 1.44c-.21 1.92-.85 2.88-1.91 2.88-.99-.36-1.55-.84-1.69-1.45 1.23-17.32 2.11-25.98 2.63-25.98l1.21-.72zm39.43-.02c1.52 0 2.28.63 2.28 1.89v.48c0 1.74-1.36 2.62-4.08 2.62l-5.08.24c-1.53 8.12-2.29 15.1-2.29 20.95-.41 1.27-.83 1.9-1.27 1.9h-.77c-.88 0-1.39-.24-1.53-.72.85-8.99 1.78-16.29 2.79-21.9l-7.63 1.2c-.72 0-1.14-.71-1.27-2.14 0-2.38 2.12-3.57 6.36-3.57 2.54-.64 6.69-.95 12.46-.95zm36.01 0c1.52 0 2.28.63 2.28 1.89v.48c0 1.74-1.36 2.62-4.08 2.62l-5.08.24c-1.53 8.12-2.29 15.1-2.29 20.95-.41 1.27-.83 1.9-1.27 1.9h-.77c-.88 0-1.39-.24-1.53-.72.85-8.99 1.79-16.29 2.79-21.9l-7.63 1.19c-.71 0-1.14-.71-1.27-2.14 0-2.38 2.12-3.57 6.36-3.57 2.54-.64 6.69-.95 12.46-.95zm16.92.01c5 .69 7.5 3.68 7.5 8.98 0 6.93-2.75 12.68-8.23 17.22-2.27 1.29-4.29 1.93-6.07 1.93-4.35 0-7.15-2.35-8.4-7.03l-.18-2.18v-.74c0-7.57 3.45-13.32 10.37-17.23 1.73-.65 3.4-.97 4.99-.97zm-13.04 18.95c1.8 2.74 4.19 4.11 7.15 4.11 4.77 0 8.1-2.83 10-8.49l.35-2.67c0-3.99-1.97-6.33-5.89-7.03h-.55c-3.25 0-6.64 3.23-10.18 9.7-.6 1.94-.9 3.4-.9 4.37zm52.2-18.88h2.27c1 .63 1.51 1.34 1.51 2.12-.27 1.89-1.11 2.83-2.51 2.83-4.05 0-7.99.39-11.83 1.18l-.5 5.2 1.25.23h1c2.98 0 6.42-.47 10.32-1.42l.75 1.42c-.38 2.83-1.55 4.25-3.52 4.25-1.22.62-4.66 1.09-10.32 1.4-.4 7.09-1.08 10.63-2.02 10.63l-1.01.23h-.25c-.42 0-.68-.31-.76-.95 0-3.85.67-10.93 2-21.23l-.74-.72c0-2.38 1.68-3.79 5.03-4.24 3.36-.64 6.46-.95 9.3-.95zm9.42-.13h1.65c.55 0 .82.32.82.97-1.29 10.52-1.94 17.82-1.94 21.9v2.67c-.36 1.78-1.28 2.67-2.74 2.67h-.55l-1.11-.97c.74-11.04 1.66-19.8 2.76-26.28l1.09-.97zm7.98.07c1.06 0 2.34 2 3.83 6.01 2.88 5.9 6.09 10.95 9.61 15.15 1.18-11.57 2.06-18.38 2.63-20.44l.97-.72h.72c.48 0 .72.32.72.96-1.45 16.52-2.32 25.34-2.64 26.46l-1.44.47c-2.57 0-6.89-5.45-12.97-16.35l-.97-.97-.25.72-.72 11.07v1.44l.24 1.44c-.21 1.92-.85 2.88-1.92 2.88-.99-.35-1.55-.83-1.69-1.44 1.23-17.32 2.11-25.98 2.63-25.98l1.21-.72zm29.28 0h1.07c5.1 0 8.22 2.02 9.37 6.06l.21 1.93c0 8.05-5.97 14.68-17.9 19.9l-1.06.24h-.23c-.32 0-.6-.57-.85-1.71l2.13-20.87c-.86 0-1.29-.24-1.29-.72v-.49c0-2.57 1.13-3.86 3.41-3.86l5.11-.5zm-4.26 5.1c-1.28 8.3-1.92 13.88-1.92 16.73v1.22c8.94-4.47 13.41-8.68 13.41-12.62v-.23c0-2.28-.64-3.41-1.92-3.41-1.58-1.13-4.14-1.69-7.66-1.69h-1.91zm49.36-5.11c1.52 0 2.28.63 2.28 1.89v.47c0 1.74-1.36 2.62-4.08 2.62l-5.08.24c-1.52 8.12-2.29 15.1-2.29 20.95-.41 1.26-.84 1.9-1.27 1.9h-.77c-.88 0-1.39-.24-1.53-.72.85-8.99 1.78-16.29 2.79-21.91l-7.63 1.2c-.72 0-1.14-.72-1.27-2.15 0-2.38 2.12-3.57 6.36-3.57 2.54-.64 6.69-.95 12.46-.95zm20.33.01c.83.22 1.25.79 1.25 1.7v.23c-1.17 17.31-2.01 25.96-2.5 25.96l-.27.24h-.74c-.87 0-1.46-.41-1.76-1.22.33-2.31.49-5.54.49-9.7H646l-10.51 2.42-.74.96v4.61c0 1.37-.5 2.34-1.51 2.92h-.49c-.94 0-1.53-.41-1.76-1.22 1.16-17.48 2.83-26.21 5.01-26.21h.49l.754.98c-1.175 5.8-1.76 10.09-1.76 12.85 7.67-1.01 11.51-2.22 11.51-3.64l1-10.19 1.76-.72zm21.62.05c.81.18 1.21.79 1.21 1.85-.26 1.99-1.07 2.99-2.41 2.99-8.84 0-13.26 1.23-13.26 3.69l-.24 2.07v1.14c5.76-1.38 9.7-2.07 11.81-2.07h.48c.81.35 1.21 1.12 1.21 2.3 0 1.68-1.12 2.53-3.37 2.53-7.4.96-11.09 2.11-11.09 3.46l-.23 2.3v.91c0 1.39.88 2.15 2.64 2.31 2.76-.3 6.22-1 10.37-2.07h.72c.64.24.96.78.96 1.61v.69c0 1.88-4.02 3.34-12.06 4.37h-.72c-2.9 0-4.5-1.84-4.82-5.52 0-2.71.56-7.85 1.69-15.44l-.48-1.39c0-3.11 4.82-4.95 14.45-5.52l3.13-.23zm20.02-.05c1.06 0 2.34 2.01 3.83 6.01 2.88 5.91 6.08 10.96 9.61 15.15 1.18-11.56 2.06-18.38 2.63-20.44l.97-.72h.72c.48 0 .72.32.72.97-1.44 16.52-2.32 25.34-2.64 26.45l-1.44.47c-2.57 0-6.89-5.45-12.98-16.35l-.97-.97-.25.72-.72 11.07v1.44l.24 1.44c-.21 1.92-.85 2.88-1.92 2.88-.99-.35-1.55-.83-1.69-1.44 1.23-17.32 2.11-25.98 2.64-25.98l1.21-.72zm38.71.05c.8.17 1.21.79 1.21 1.84-.26 1.99-1.06 2.99-2.41 2.99-8.84 0-13.26 1.23-13.26 3.69l-.25 2.07v1.14c5.76-1.38 9.7-2.07 11.81-2.07h.47c.81.35 1.21 1.12 1.21 2.3 0 1.69-1.13 2.53-3.38 2.53-7.39.96-11.09 2.11-11.09 3.46l-.23 2.3v.91c0 1.38.88 2.15 2.64 2.3 2.76-.31 6.22-1 10.37-2.08h.72c.65.24.97.78.97 1.61v.69c0 1.89-4.02 3.35-12.06 4.38h-.72c-2.9 0-4.5-1.84-4.82-5.52 0-2.71.56-7.85 1.69-15.44l-.47-1.39c0-3.11 4.82-4.95 14.45-5.514l3.13-.23zm3 0c.78 0 1.18 2.72 1.18 8.15l1.58 10.34h.38c0-.6 1.57-3.81 4.73-9.62.49-3.83 1.41-5.74 2.76-5.74h.39c.79 0 1.45 2.96 1.97 8.87.88 4.05 1.53 6.45 1.96 7.21.42-2.04 2.52-8.04 6.31-18.02.55-.63 1.08-.95 1.58-.95.7 0 1.16.32 1.37.95 0 .82-1.97 6.19-5.91 16.09-.66 2.35-1.25 5.55-1.78 9.62-.42.8-.95 1.2-1.58 1.2-1.2 0-2.11-2.72-2.75-8.16-1.29-5.31-2.08-8.19-2.38-8.65l-3.94 7.68c-.66 1.5-1.25 4.06-1.78 7.68-.35.58-.87.98-1.56 1.19-1.11 0-2.03-4.16-2.76-12.48-1.06-5.89-1.59-10.61-1.59-14.17 0-.48.59-.88 1.78-1.2zm49.97 0c4.74 0 7.12 1.62 7.12 4.85v.72c0 2.26-1.08 4.44-3.22 6.54v.25c3.53 1.07 5.29 2.84 5.29 5.33v.96c0 4.05-3.99 7.03-11.95 8.95l-3.92.49h-2.29c-1.23 0-1.85-.65-1.85-1.94v-.25l1.84-19.87c-.78 0-1.16-.16-1.16-.48v-1.46c0-2.74 3.37-4.11 10.12-4.11zm-6.68 10.9h.24c7.2 0 10.8-1.62 10.8-4.85-1.18-.8-3.18-1.2-5.98-1.2h-2.76c-1.22 0-1.83.56-1.83 1.68l-.47 4.36zm-.46 4.6l-.46 7.73 2.31.49.23-.25h1.14c6.44-.85 9.67-2.38 9.67-4.59-2.12-2.26-5.42-3.39-9.9-3.39h-.92l-.23-.25-.23.24H776zm28.39-15.51h.84c1.16 0 2.63 5.36 4.41 16.08 1.4 5.06 2.11 8.5 2.11 10.32-.3.96-.86 1.44-1.69 1.44-1.08 0-1.85-2.56-2.32-7.69l-.21-.23h-.21c-1.83.02-5.69 1.14-11.57 3.36-.56 3.2-1.48 4.8-2.74 4.8-.85-.33-1.27-.97-1.27-1.92 0-1.85 3.86-10.34 11.58-25.45l1.05-.72zm-.42 6.71c-1.69 3.04-3.24 6.25-4.64 9.61h1.47c1.43 0 3.26-.32 5.48-.97l-1.9-8.65h-.4zm20.41-6.72c4.75 0 7.12 1.61 7.12 4.85v.72c0 2.26-1.07 4.44-3.22 6.54v.24c3.53 1.07 5.29 2.84 5.29 5.33v.97c0 4.05-3.99 7.03-11.95 8.95l-3.92.49h-2.28c-1.23 0-1.85-.65-1.85-1.94v-.25l1.84-19.868c-.77 0-1.16-.154-1.16-.47v-1.46c0-2.74 3.38-4.11 10.13-4.11zm-6.68 10.9h.25c7.19 0 10.79-1.62 10.79-4.85-1.19-.8-3.18-1.2-5.98-1.2H820c-1.22 0-1.83.56-1.83 1.68l-.47 4.36zm-.45 4.6l-.46 7.73 2.3.49.23-.25h1.14c6.44-.84 9.67-2.37 9.67-4.59-2.12-2.26-5.42-3.39-9.9-3.39h-.92l-.23-.25-.23.25h-1.62zm19.68-15.5l5.38 8.15 2.35 1.93c2.97-5.3 5.05-8.5 6.22-9.62h1.07l.86.962c-.12.86-3.48 6.86-10.09 18-1.67 3.13-2.88 5.93-3.66 8.403l-.63.245c-1.01-.47-1.51-1.19-1.51-2.16.06-1.257 1.77-5.177 5.15-11.76-4.87-5.23-7.3-9.47-7.3-12.73.9-.96 1.62-1.44 2.14-1.44zm17.22 22.09c1.57 0 2.55.95 2.94 2.86 0 1.91-1.37 2.95-4.11 3.13-1.37-.52-2.06-1.39-2.06-2.61v-.26c.54-2.09 1.62-3.13 3.23-3.13z" fill="#000"/><g transform="matrix(-1 0 0 1 315 595)"><rect fill="#000" x="96.016" y="118.701" width="24.023" height="91.815" rx="8"/><rect fill="#000" x="193.867" y="118.701" width="24.023" height="91.815" rx="8"/><path d="M192.792 3.834c-12.403 0-23.862 3.004-33.24 8.05-8.636-3.932-18.757-6.195-29.585-6.195-30.703 0-55.73 18.18-57.185 41.04-14.587 7.82-24.106 20.64-24.106 35.16 0 23.83 25.627 43.17 57.265 43.17 3.43 0 6.79-.28 10.05-.71 8.69 15.5 29.04 26.4 52.78 26.4 17.35 0 32.9-5.82 43.41-15 2.14.18 4.32.31 6.52.31 28.47 0 52.07-15.65 56.51-36.15 13.93-7.88 22.96-20.45 22.96-34.57 0-23.83-25.66-43.13-57.3-43.13-.39 0-.77-.01-1.15 0-10.37-11.1-27.52-18.39-46.9-18.39z" stroke="#000" stroke-width="3.458" fill="#FFF"/><rect fill="#000" x="230.719" y="119.069" width="24.023" height="91.815" rx="8"/><rect fill="#000" x="130.327" y="118.701" width="24.023" height="91.815" rx="8"/><ellipse stroke="#000" stroke-width="3.5" fill="#CCC" transform="rotate(32 91.97 35.598)" cx="91.971" cy="35.598" rx="14.614" ry="17.679"/><ellipse stroke="#000" stroke-width="3.5" fill="#CCC" cx="36.793" cy="27.5" rx="16.5" ry="20.5"/><path d="M64.82 22.504c18.807 6.514 27.182 31.633 18.705 56.104-4.07 11.752-11.562 21.78-20.826 27.877-9.27 6.097-19.55 7.765-28.58 4.637-9.03-3.13-16.08-10.797-19.59-21.32-3.51-10.52-3.19-23.033.88-34.785 4.07-11.75 11.56-21.777 20.82-27.877 9.26-6.09 19.54-7.76 28.57-4.63z" stroke="#000" stroke-width="3.458" fill="#CCC"/><path d="M46.738 47.16c1.357 3.24-.187 6.974-3.448 8.34-3.26 1.364-7.004-.156-8.36-3.396-1.357-3.24.187-6.974 3.448-8.34 3.26-1.365 7.004.155 8.36 3.396z" fill="#000"/><path d="M26.43 74.81c9.742 21.522 21.763 16.996 39.237 9.23" stroke="#000" stroke-width="3.458" stroke-linecap="round"/><path d="M72.062 53.443c1.357 3.24-.187 6.974-3.448 8.34-3.26 1.364-7.004-.156-8.36-3.396-1.358-3.24.186-6.974 3.447-8.34 3.27-1.364 7.01.156 8.37 3.396z" fill="#000"/></g></g></svg>