<svg width="1540" height="820" viewBox="0 0 1540 820" xmlns="http://www.w3.org/2000/svg" xmlns:xlink="http://www.w3.org/1999/xlink"><title>story05</title><defs><path id="a" d="M0 0h1540v820H0z"/><mask id="b" x="0" y="0" width="1540" height="820" fill="#fff"><use xlink:href="#a"/></mask></defs><g fill="none" fill-rule="evenodd"><g transform="translate(0 -1)"><use stroke="#000" mask="url(#b)" stroke-width="8" fill="#402412" xlink:href="#a"/><path stroke="#000" stroke-width="4" fill="#371F0F" d="M235 132h1066v556H235z"/><path d="M4 2l229.457 129.306c0 .384.523.694 1.174.694h1065.19c.65 0 1.18-.31 1.18-.694L1538 2H4z" stroke="#000" stroke-width="4" stroke-linejoin="bevel" fill="#28170B"/><path d="M4 818l229.457-129.306c0-.384.523-.694 1.174-.694h1065.19c.65 0 1.18.31 1.18.694L1538 818H4z" stroke="#000" stroke-width="4" stroke-linejoin="bevel" fill="#2B2200"/><path stroke="#000" stroke-width="4" fill="#00002B" d="M860 190h380v265H860z"/><path fill="#FFE680" d="M942.89 256.34l-11.36-10.833-13.362 8.236 6.795-14.15L913 229.428l15.558 2.088 5.97-14.518 2.82 15.442L953 233.63l-13.815 7.455m99.815 87.24l-15.566-1.807-5.697 14.598-3.093-15.362-15.644-.906 13.654-7.69-3.97-15.158 11.53 10.61 13.19-8.462-6.527 14.247 12.123 9.93m146.11 74.22l-14.287-7.04-10.435 12.034 2.28-15.77-14.668-6.2 15.696-2.71 1.37-15.87 7.42 14.09 15.514-3.6-11.11 11.41 8.22 13.64m-239.405 24.8l-7.184-14.17-15.52 3.36 11.25-11.21-7.98-13.72 14.14 7.23L950.99 387l-2.51 15.68 14.53 6.41-15.69 2.457-1.607 15.796"/><path d="M1157.257 236c17.555 20.147 14.346 51.676-7.168 70.422-21.52 18.745-53.19 17.608-70.74-2.54-.12-.134-.24-.27-.35-.405 0 0 28.59 10.445 57.93-14.61 24.92-21.294 20.32-52.867 20.32-52.867z" stroke="#222" stroke-width="3.711" fill="#E6E6E6"/></g><path d="M681.314 608.91c-157.66 4.084-302.21-6.206-472.588-1.948-16.872-8.49 2.81 39.292 7.603 87.354 163.64-4.894 311.1 5.115 464.45-2.346l.52-83.06z" stroke="#000" stroke-width="3" fill="#A0892C"/><path d="M678.46 742.832c-1.9-51.49-18.45-101.745-4.067-152.316-2.893-5.38 36.51-4.053 28.573 1.86-15.587 49.78 2.557 99.932 2.606 149.724l-27.112.732z" stroke="#000" stroke-width="3" fill="#A0892C"/><path d="M259.88 544.245c-94.898-.59-100.38 68.652-1.528 73.61 121.75 6.104 110.634-72.934 1.527-73.61z" stroke="#050202" stroke-width="2.964" fill="#806600"/><path d="M192.78 742.91c-1.852-100.058-17.968-197.72-3.96-295.994-2.82-10.457 35.556-7.877 27.827 3.613-15.18 96.73 2.49 194.19 2.537 290.95l-26.404 1.42z" stroke="#000" stroke-width="3" fill="#A0892C"/><path d="M301.32 428.677l6.42 25.512-11.185 109.05-43.13-15.26c14.296-53.08 19.928-96.8 47.896-119.31z" stroke="#050202" stroke-width="4.067" fill="#ACF"/><path d="M297.973 390.95c0 18.873 6.68 36.972 18.57 50.316 11.893 13.345 28.02 20.842 44.838 20.842 35.02 0 63.41-31.858 63.41-71.157 0-39.29-28.39-71.15-63.41-71.15-16.81 0-32.94 7.5-44.83 20.84-11.89 13.35-18.57 31.45-18.57 50.32z" stroke="#000" stroke-width="4.067" fill="#502D16"/><path d="M425.826 428.677l-6.42 25.512 11.186 109.05 43.13-15.26c-14.296-53.08-19.93-96.8-47.896-119.31z" stroke="#050202" stroke-width="4.067" fill="#ACF"/><path d="M362.924 752.678c0 4.737 3.45 9.28 9.588 12.628 6.14 3.35 14.465 5.23 23.147 5.23 8.68 0 17-1.88 23.14-5.23 6.14-3.35 9.59-7.89 9.59-12.628 0-9.863-14.66-17.858-32.74-17.858-18.08 0-32.74 7.995-32.74 17.858zm-77.664 2.552c0 4.736 3.45 9.278 9.59 12.627 6.138 3.35 14.464 5.23 23.146 5.23 8.68 0 17.007-1.88 23.146-5.23 6.14-3.35 9.588-7.89 9.588-12.627 0-9.863-14.656-17.86-32.734-17.86-18.08 0-32.735 7.997-32.735 17.86z" stroke="#050202" stroke-width="4.067" fill="#2B1100"/><path d="M295.963 578.487c-4.52 57.767-15.687 146.038-4.857 157.967 34.48 17.88 114.923 24.43 141.655-10.637 13.08-30.44-8.96-96.993-5.87-147.33 16.45-98.954 9.4-187.6-66.89-188.91-67.22-1.153-81.38 87.4-64.03 188.91z" stroke="#050202" stroke-width="3.753" fill="#06F"/><path d="M314.774 372.775c0 15.19 4.973 29.76 13.825 40.5 8.85 10.74 20.85 16.776 33.37 16.776 12.52 0 24.52-6.03 33.37-16.77 8.85-10.74 13.82-25.31 13.82-40.5 0-15.19-4.98-29.76-13.83-40.5-8.85-10.74-20.86-16.77-33.38-16.77-12.52 0-24.53 6.04-33.38 16.78-8.85 10.74-13.83 25.31-13.83 40.5z" stroke="#050202" stroke-width="3.965" fill="#E6C2AA"/><path d="M372.066 360.582c0 2.366 1.93 4.284 4.31 4.284 2.383 0 4.313-1.918 4.313-4.284 0-1.136-.46-2.226-1.27-3.03-.81-.803-1.91-1.254-3.05-1.254s-2.24.45-3.05 1.254c-.81.804-1.27 1.894-1.27 3.03zm-27.42.49c0 2.367 1.93 4.285 4.31 4.285s4.312-1.918 4.312-4.284c0-1.137-.454-2.226-1.263-3.03-.81-.803-1.905-1.255-3.05-1.255-1.142 0-2.24.452-3.048 1.255-.808.804-1.262 1.893-1.262 3.03z" fill="#000"/><path d="M384.554 425.967c-12.528 8.722-41.714 5.273-47.626-.792-25.434 67.066 3.47 324.16 1.54 324.16 12.987 1.184 32.404 2.142 42.36.422-2.786.107 25.683-251.68 3.726-323.79z" stroke="#000" stroke-width="3.953" fill="#ACF"/><path d="M384.813 386.182c-5.976 5.79-43.623 2.11-46.878-.65-3.254-2.758 14.83 22.454 24.174 22.4 9.34-.056 28.68-27.54 22.7-21.75z" stroke="#000" stroke-width="4.067" fill="#FFD5D5"/><path d="M335.504 300.532c-34.89 5.744-47.746 87.934-37.672 141.127 1.79 8.45 13.22 10.25 19.913 6.48 5.923-2.58 7.118-9.25 7.445-14.97-.37-9.8-10.92-62.84 3.65-88.05 14.57-25.22 64.72-19.61 72.8 3.58 8.082 23.19-5.26 86.44 2.288 101.04 7.035 8.76 24.268 4.58 25.395-6.92-2.222-16.83 5.464-84.41 2.82-98.23-2.64-13.82-15.85-35.62-27.21-39.89-26.006-9.78-34.54-9.94-69.43-4.19z" stroke="#050202" stroke-width="3.962" fill="#ACF"/><path d="M419.07 318.358c2.506 4.112 8.802 9.352 8.238 14.38l-121.484.572c1.896-4.5 2.54-9.2 8.243-15.923l105.002.97z" stroke="#000" stroke-width="3.956" fill="#06F"/><path d="M469.534 550.98c-2.03 6.303-.513 10.912-5.352 25.92-4.708 14.6-6.11 28.73-20.564 25.005-8.057-2.076-15.73-17.484-6.95-23.418-5.033 3.026-13.082 10.957-15.66 8.195-3.766-4.04-3.993-12.264 6.233-17.63 2.5-1.31 1.32-2.184 3.42-3.117.32-.632 3.34-2.657 3.96-3.017 10.71-6.16 29.28-10.598 34.92-11.937zm-211.92 0c2.03 6.303.512 10.912 5.35 25.92 4.71 14.6 6.11 28.73 20.565 25.005 8.05-2.076 15.73-17.484 6.95-23.418 5.03 3.026 13.08 10.957 15.65 8.195 3.77-4.04 3.99-12.264-6.23-17.63-2.5-1.31-1.32-2.184-3.42-3.117-.32-.632-3.33-2.657-3.96-3.017-10.71-6.16-29.28-10.598-34.92-11.937z" stroke="#050202" stroke-width="4.067" fill="#E6C2AA"/><g transform="translate(1049 303)"><ellipse stroke="#000" stroke-width="3.5" fill="#FFF" transform="rotate(-135.477 290.066 118.666)" cx="290.066" cy="118.666" rx="75.453" ry="92.406"/><ellipse stroke="#000" stroke-width="3.5" fill="#FFF" transform="rotate(-44.523 119.78 118.666)" cx="119.78" cy="118.666" rx="75.453" ry="92.406"/><path d="M143.79 135.696l6.417 25.512-11.185 109.052L95.892 255c14.297-53.077 19.93-96.795 47.897-119.304z" stroke="#050202" stroke-width="4" fill="#FFF"/><ellipse stroke="#000" stroke-width="4" fill="#502D16" transform="matrix(-1 0 0 1 407.697 0)" cx="203.848" cy="97.97" rx="63.408" ry="71.157"/><path d="M268.294 135.696l-6.42 25.512L273.06 270.26 316.19 255c-14.296-53.077-19.93-96.795-47.896-119.304z" stroke="#050202" stroke-width="4" fill="#FFF"/><ellipse stroke="#050202" stroke-width="4" fill="#E6C2AA" transform="matrix(-1 0 0 1 476.253 0)" cx="238.126" cy="459.698" rx="32.734" ry="17.858"/><ellipse stroke="#050202" stroke-width="4" fill="#E6C2AA" transform="matrix(-1 0 0 1 320.927 0)" cx="160.463" cy="462.249" rx="32.734" ry="17.858"/><path d="M138.43 285.507c-4.518 57.766-15.686 146.037-4.856 157.966 34.48 17.88 114.923 24.43 141.655-10.637 13.07-30.44-8.97-96.993-5.88-147.33 16.44-98.954 9.39-187.6-66.89-188.91-67.23-1.152-81.39 87.4-64.04 188.91z" stroke="#000" stroke-width="3.691" fill="#FFF"/><path d="M231.914 119.72c-5.976 5.79-54.378.794-57.633-1.965-3.25-2.76 13.11 37.9 29.14 38.02 15.38.113 34.47-41.845 28.5-36.055z" stroke="#000" stroke-width="4" fill="#E6C2AA"/><ellipse stroke="#050202" stroke-width="3.9" fill="#E6C2AA" transform="matrix(-1 0 0 1 408.8 0)" cx="204.356" cy="79.794" rx="47.201" ry="57.276"/><ellipse fill="#000" transform="matrix(-1 0 0 1 440.33 0)" cx="221.484" cy="66.338" rx="4.312" ry="4.284"/><ellipse fill="#000" transform="matrix(-1 0 0 1 382.946 0)" cx="192.792" cy="66.829" rx="4.312" ry="4.284"/><path d="M227.28 93.2c-5.975 5.79-43.622 2.11-46.877-.648-3.254-2.76 14.83 22.454 24.174 22.4 9.346-.056 28.68-27.54 22.704-21.75z" stroke="#000" stroke-width="4" fill="#FFD5D5"/><path d="M177.972 7.55c-34.89 5.746-47.746 87.935-37.672 141.128 1.79 8.45 13.22 10.257 19.913 6.488 5.923-2.576 7.118-9.25 7.445-14.965-.37-9.79-10.92-62.84 3.65-88.05 14.57-25.21 64.72-19.61 72.8 3.59 8.082 23.2-5.26 86.45 2.288 101.05 7.035 8.76 24.268 4.59 25.395-6.92-2.22-16.82 5.47-84.4 2.83-98.22-2.64-13.82-15.85-35.62-27.21-39.89-26-9.77-34.54-9.93-69.42-4.19z" stroke="#050202" stroke-width="3.897" fill="#FC0"/><path d="M136.872 270.04l135.975.167c-1.713 6.323-.9 15.35-.386 23.108l-135.07-.332-.51-22.942z" stroke="#000" stroke-width="3.496" fill="#FC0"/><path d="M312.002 258c-2.03 6.303-.514 10.91-5.353 25.92-4.71 14.6-6.11 28.73-20.57 25.004-8.06-2.076-15.73-17.484-6.95-23.417-5.04 3.026-13.08 10.956-15.66 8.194-3.77-4.03-4-12.26 6.23-17.62 2.49-1.31 1.32-2.18 3.41-3.12.31-.63 3.33-2.65 3.96-3.02 10.71-6.16 29.27-10.6 34.91-11.94zm-211.922 0c2.032 6.303.514 10.91 5.353 25.92 4.708 14.6 6.11 28.73 20.564 25.004 8.057-2.076 15.73-17.484 6.95-23.417 5.033 3.026 13.082 10.956 15.658 8.194 3.768-4.03 3.995-12.26-6.23-17.62-2.5-1.31-1.32-2.18-3.42-3.12-.316-.63-3.332-2.65-3.96-3.02-10.71-6.16-29.274-10.6-34.914-11.93z" stroke="#050202" stroke-width="4" fill="#E6C2AA"/></g><path d="M1020.422 347.425l157.2 40.233-85.81-96.477c9.794-14.67 15.15-30.57 15.15-47.18 0-74-106.407-134-237.67-134-131.26 0-237.67 60-237.67 134s106.41 134 237.67 134c57.404 0 110.054-11.47 151.13-30.57zm-453.32 141.868l-132.106-61.86 84.165 95.435C500.57 541.488 490 562.852 490 585.57c0 72.274 106.977 130.864 238.94 130.864 131.96 0 238.937-58.59 238.937-130.864S860.9 454.706 728.94 454.706c-62.433 0-119.272 13.114-161.837 34.587z" stroke="#000" stroke-width="4" fill="#FFF"/><path d="M752.594 165.03l6.36 8.423 2.796 1.984c3.52-5.468 5.98-8.77 7.375-9.906h1.266l1.02.99c-.13.88-4.12 7.07-11.95 18.58-1.96 3.22-3.4 6.11-4.33 8.66l-.75.25c-1.19-.49-1.78-1.23-1.78-2.23.06-1.29 2.09-5.33 6.09-12.12-5.76-5.39-8.64-9.77-8.64-13.12 1.08-.99 1.92-1.48 2.55-1.48zm30.578 3.954c4.448.615 6.672 3.276 6.672 7.985 0 6.16-2.438 11.27-7.313 15.31-2.01 1.14-3.8 1.72-5.39 1.72-3.86 0-6.35-2.09-7.46-6.25l-.15-1.94v-.66c0-6.73 3.08-11.84 9.22-15.31 1.55-.58 3.02-.86 4.44-.86zm-11.594 16.828c1.604 2.438 3.724 3.657 6.36 3.657 4.24 0 7.203-2.52 8.89-7.55l.313-2.38c0-3.54-1.74-5.63-5.23-6.25h-.48c-2.88 0-5.9 2.87-9.04 8.62-.53 1.73-.79 3.02-.79 3.89zm23.906-16.828c.667.27 1.037.552 1.11.844-1.188 7.427-1.782 12.823-1.782 16.188v2.312c3.98 0 7.24-1.823 9.782-5.47 1-8.832 1.963-13.25 2.89-13.25h.235c.88.095 1.32.31 1.32.642-1.34 8.042-2 14.068-2 18.078v3.36c0 1.104-.45 1.874-1.35 2.312h-.89l-.88-.844v-.422l.22-3.562c-.53 0-3.42 1.328-8.67 3.984l-1.56.422c-1.78-.23-2.67-1-2.67-2.312v-.203c1.08-14.72 2.34-22.08 3.78-22.08h.45zm29.078.047c.698 0 1.047 2.42 1.047 7.25l1.4 9.19h.34c0-.53 1.4-3.38 4.2-8.54.43-3.4 1.25-5.11 2.45-5.11h.34c.71 0 1.29 2.63 1.75 7.89.78 3.6 1.36 5.73 1.75 6.41.37-1.81 2.24-7.15 5.61-16.01.49-.56.95-.84 1.4-.84.62 0 1.03.28 1.22.85 0 .73-1.75 5.5-5.25 14.3-.59 2.09-1.11 4.94-1.58 8.55-.38.71-.85 1.06-1.41 1.06-1.07 0-1.88-2.41-2.44-7.25-1.15-4.72-1.85-7.28-2.11-7.68l-3.5 6.83c-.58 1.33-1.11 3.61-1.58 6.83-.32.52-.78.87-1.39 1.06-.98 0-1.8-3.7-2.46-11.09-.94-5.23-1.41-9.42-1.41-12.59 0-.43.52-.78 1.58-1.06zm26.547-.1h1.46c.49 0 .73.29.73.86-1.15 9.36-1.72 15.85-1.72 19.47v2.38c-.32 1.59-1.14 2.38-2.44 2.38h-.49l-.99-.86c.65-9.81 1.47-17.59 2.45-23.36l.97-.85zm6.87.06h.22c.67 0 1.24.35 1.7 1.05-.99 7.21-1.7 13.66-2.13 19.35l12.19-2.51.42.63v1.27c0 1.92-4.42 3.67-13.25 5.25-1.58-.28-2.36-.77-2.36-1.47 1.16-15.41 2.02-23.12 2.56-23.12l.64-.42zm16.14 0h.22c.67 0 1.24.35 1.7 1.05-.99 7.21-1.7 13.66-2.13 19.35l12.18-2.51.42.63v1.27c0 1.92-4.42 3.67-13.25 5.25-1.57-.28-2.36-.77-2.36-1.47 1.16-15.41 2.02-23.12 2.56-23.12l.64-.42zm42.9 0c.74.2 1.11.71 1.11 1.52v.21c-1.04 15.39-1.78 23.08-2.22 23.08l-.24.22h-.66c-.77 0-1.29-.36-1.56-1.08.29-2.05.43-4.93.43-8.62h-.22l-9.35 2.16-.66.86v4.09c0 1.22-.45 2.09-1.34 2.6h-.44c-.84 0-1.36-.36-1.56-1.08 1.03-15.53 2.52-23.29 4.45-23.29h.43l.67.88c-1.04 5.16-1.56 8.97-1.56 11.42 6.82-.89 10.23-1.97 10.23-3.23l.89-9.06 1.56-.64zm12.15.05h.75c1.03 0 2.34 4.77 3.92 14.3 1.25 4.5 1.87 7.56 1.87 9.18-.26.86-.76 1.28-1.5 1.28-.96 0-1.65-2.27-2.06-6.82l-.19-.2h-.19c-1.63.02-5.05 1.02-10.28 2.98-.5 2.85-1.31 4.27-2.44 4.27-.75-.29-1.12-.86-1.12-1.7 0-1.64 3.43-9.19 10.3-22.62l.93-.64zm-.38 5.97c-1.5 2.71-2.88 5.56-4.13 8.55H926c1.27 0 2.896-.28 4.875-.86l-1.688-7.69h-.375zm25.8-6.01h.62c.56.23.84.73.84 1.5 0 1.04-2.18 5.53-6.53 13.47-2.14 5.95-3.47 9.16-4 9.63l-2.1.43c-.92 0-1.56-1.64-1.91-4.92-2.81-9.88-4.21-15.94-4.21-18.17.23-.64.65-1.14 1.26-1.5h.84c.76 0 1.53 3 2.31 8.99l2.53 9.41h.2c1.45-3.85 4.61-9.98 9.47-18.39l.64-.42zm18.17.05c.72.16 1.08.71 1.08 1.64-.23 1.77-.94 2.66-2.14 2.66-7.86 0-11.78 1.1-11.78 3.28l-.22 1.85v1.02c5.12-1.23 8.62-1.84 10.5-1.84h.42c.72.32 1.08 1 1.08 2.05 0 1.5-1 2.25-3 2.25-6.58.86-9.86 1.88-9.86 3.08l-.21 2.05v.81c0 1.23.78 1.91 2.34 2.05 2.46-.27 5.53-.88 9.22-1.84h.64c.57.22.86.7.86 1.44v.61c0 1.68-3.57 2.98-10.72 3.89h-.64c-2.57 0-4-1.63-4.28-4.9 0-2.41.5-6.98 1.5-13.72l-.42-1.23c0-2.77 4.28-4.4 12.84-4.9l2.78-.2zm24.02 0h.75c1.03 0 2.34 4.77 3.92 14.3 1.25 4.5 1.87 7.56 1.87 9.18-.26.86-.76 1.28-1.5 1.28-.96 0-1.65-2.27-2.07-6.82l-.18-.2h-.19c-1.63.02-5.06 1.02-10.28 2.99-.5 2.85-1.32 4.27-2.44 4.27-.75-.29-1.13-.86-1.13-1.7 0-1.64 3.43-9.19 10.29-22.62l.93-.64zm-.38 5.97c-1.5 2.71-2.88 5.56-4.13 8.55h1.31c1.27 0 2.89-.28 4.87-.86l-1.69-7.69h-.38zm-265.43 36.03c4.22 0 6.33 1.44 6.33 4.32v.64c0 2.01-.96 3.95-2.86 5.82v.22c3.13.95 4.7 2.53 4.7 4.74v.86c0 3.61-3.54 6.26-10.63 7.96l-3.49.44H723c-1.09 0-1.64-.57-1.64-1.72v-.22l1.64-17.66c-.684 0-1.03-.14-1.03-.42v-1.3c0-2.43 3-3.65 9-3.65zm-5.94 9.69h.21c6.4 0 9.59-1.44 9.59-4.31-1.06-.71-2.83-1.06-5.32-1.06h-2.45c-1.08 0-1.63.5-1.63 1.5l-.42 3.88zm-.41 4.1l-.41 6.88 2.05.44.2-.22h1.01c5.73-.75 8.59-2.1 8.59-4.07-1.89-2.01-4.82-3.01-8.8-3.01h-.81l-.21-.22-.2.22h-1.44zm25.23-13.78h.75c1.03 0 2.34 4.77 3.92 14.3 1.25 4.5 1.87 7.55 1.87 9.17-.26.85-.76 1.28-1.5 1.28-.96 0-1.65-2.28-2.06-6.83l-.19-.2h-.19c-1.63.02-5.05 1.02-10.28 2.99-.5 2.84-1.31 4.27-2.44 4.27-.75-.29-1.12-.86-1.12-1.7 0-1.64 3.43-9.19 10.29-22.62l.94-.64zm-.38 5.97c-1.5 2.71-2.88 5.56-4.13 8.55h1.31c1.27 0 2.89-.28 4.87-.86l-1.69-7.69h-.37zm18.14-5.97c4.22 0 6.33 1.44 6.33 4.31v.64c0 2.01-.96 3.95-2.86 5.81v.22c3.13.95 4.7 2.53 4.7 4.74v.86c0 3.61-3.54 6.26-10.63 7.95l-3.49.44h-2.03c-1.1 0-1.64-.57-1.64-1.72v-.22l1.64-17.66c-.69 0-1.03-.14-1.03-.42v-1.3c0-2.43 3-3.65 9-3.65zm-5.94 9.69h.22c6.4 0 9.59-1.44 9.59-4.31-1.05-.7-2.82-1.06-5.31-1.06h-2.45c-1.09 0-1.63.5-1.63 1.5l-.42 3.88zm-.41 4.09l-.41 6.88 2.05.44.21-.22h1.01c5.73-.75 8.59-2.11 8.59-4.07-1.89-2.01-4.82-3.01-8.8-3.01h-.81l-.2-.22-.2.22h-1.43zm17.5-13.78l4.78 7.25 2.09 1.72c2.64-4.71 4.49-7.55 5.53-8.54h.95l.76.86c-.11.76-3.1 6.09-8.97 16-1.48 2.78-2.56 5.27-3.25 7.47l-.56.22c-.9-.41-1.35-1.05-1.35-1.92.05-1.11 1.57-4.6 4.57-10.45-4.32-4.64-6.48-8.41-6.48-11.31.8-.85 1.44-1.28 1.91-1.28zm35.33 0c4.22 0 6.32 1.44 6.32 4.32v.64c0 2.01-.95 3.95-2.86 5.82v.22c3.13.95 4.7 2.53 4.7 4.73v.86c0 3.61-3.54 6.26-10.63 7.96l-3.49.44h-2.03c-1.09 0-1.64-.57-1.64-1.72v-.21l1.64-17.66c-.68 0-1.03-.14-1.03-.42v-1.3c0-2.44 3-3.65 9-3.65zm-5.94 9.69h.22c6.39 0 9.59-1.44 9.59-4.31-1.05-.7-2.82-1.06-5.31-1.06h-2.45c-1.08 0-1.62.5-1.62 1.5l-.42 3.88zm-.41 4.1l-.41 6.87 2.05.44.2-.22h1.01c5.73-.75 8.59-2.1 8.59-4.07-1.88-2.01-4.82-3.01-8.8-3.01h-.81l-.2-.22-.2.22h-1.44zm17.5-13.78l4.78 7.25 2.09 1.72c2.64-4.7 4.49-7.55 5.53-8.54h.95l.76.86c-.11.76-3.1 6.09-8.97 16-1.48 2.78-2.56 5.27-3.25 7.47l-.56.22c-.9-.41-1.35-1.05-1.35-1.92.05-1.11 1.58-4.6 4.58-10.45-4.32-4.64-6.48-8.42-6.48-11.31.8-.85 1.43-1.28 1.9-1.28zm44.87-4h.23c1.93 0 3.22 1.57 3.87 4.71l-.46.5h-.24l-1.83-.5c-5.01.62-10.25 3.51-15.73 8.68-1.52 2.24-2.28 3.81-2.28 4.71v.99c0 2.64 3.27 4.3 9.81 4.95 4.11 0 7.22-1.82 9.35-5.45l-2.73-.99c-1.01 0-3.82.99-8.43 2.97-.46-.84-.69-1.67-.69-2.47v-.25c0-2.63 3.04-4.45 9.12-5.45h.45c3.5 0 5.25 1.9 5.25 5.7 0 3.92-3.88 7.38-11.63 10.39l-2.75.5c-4.92 0-8.26-1.73-10.03-5.2l-.45-3.22c0-7.47 4.63-13.82 13.9-19.06 2.33-.99 4.08-1.49 5.25-1.49zm20.25 3.93c4.44.62 6.67 3.28 6.67 7.99 0 6.17-2.44 11.27-7.31 15.31-2.01 1.15-3.81 1.72-5.39 1.72-3.87 0-6.36-2.08-7.47-6.25l-.16-1.94v-.66c0-6.73 3.07-11.83 9.22-15.31 1.54-.57 3.02-.86 4.44-.86zm-11.6 16.83c1.6 2.44 3.72 3.66 6.36 3.66 4.24 0 7.2-2.52 8.89-7.55l.31-2.38c0-3.54-1.74-5.62-5.23-6.25h-.48c-2.89 0-5.9 2.88-9.05 8.63-.53 1.73-.8 3.02-.8 3.89zM906.37 211h.953c4.53 0 7.306 1.8 8.327 5.39l.19 1.72c0 7.16-5.302 13.054-15.907 17.69l-.94.22h-.2c-.283 0-.533-.506-.75-1.517l1.89-18.542c-.76 0-1.14-.21-1.14-.64v-.44c0-2.29 1.01-3.44 3.03-3.44l4.547-.43zm-3.78 4.534c-1.137 7.375-1.705 12.333-1.705 14.875v1.08c7.946-3.97 11.92-7.71 11.92-11.22v-.21c0-2.02-.567-3.03-1.703-3.03-1.405-1-3.676-1.5-6.81-1.5h-1.7zm19.514-8.47c1.52.49 2.28 1.157 2.28 2-.32 1.324-2.317 4.23-5.98 8.72h-1.44l-1.127-.89v-.673l4.28-6.92c.29-1.49.953-2.23 1.984-2.23zm16.25 3.985h.33c1.435.17 2.154.87 2.154 2.09v.42c0 2.1-.72 4.06-2.157 5.87h-.33c-.23-.06-.45-.41-.67-1.05l.84-3.14-.66-.42c-1.53.13-4.34 1.81-8.44 5.03v.2l10.91 2.11c1.11.87 1.66 2.34 1.66 4.4v1.25c0 2.82-1.82 5.27-5.45 7.34-1.42.56-2.81.84-4.14.84h-.34c-3.79 0-6.1-1.68-6.94-5.03v-1.26c0-1.54.39-2.31 1.16-2.31.76 2.66 2.14 4 4.14 4 0 .27.83.4 2.49.4 2.45 0 4.82-1.26 7.11-3.77 0-1.67-3.53-2.72-10.58-3.16-2.54-.71-3.81-1.76-3.81-3.14 0-3.41 3.42-6.84 10.25-10.28l2.48-.43zm40.515-4c.96.23 1.44.81 1.44 1.75v.25c-1.35 17.81-2.31 26.72-2.89 26.72l-.28.25h-.88c-1 0-1.67-.42-2.02-1.25.38-2.38.58-5.71.58-9.99h-.3l-12.13 2.5-.88 1V233c0 1.417-.58 2.417-1.74 3h-.58c-1.07 0-1.75-.417-2.02-1.25 1.34-17.98 3.27-26.97 5.78-26.97h.57l.86 1c-1.35 5.97-2.02 10.38-2.02 13.236 8.85-1.042 13.28-2.292 13.28-3.75l1.16-10.485 2.03-.75zm16.58 3.95c4.45.61 6.67 3.27 6.67 7.98 0 6.16-2.44 11.27-7.32 15.31-2.01 1.14-3.81 1.72-5.39 1.72-3.87 0-6.36-2.09-7.47-6.25l-.16-1.94v-.66c0-6.73 3.07-11.84 9.21-15.32 1.54-.57 3.02-.86 4.44-.86zm-11.6 16.83c1.61 2.43 3.73 3.65 6.36 3.65 4.24 0 7.2-2.52 8.89-7.55l.31-2.38c0-3.55-1.75-5.63-5.24-6.25h-.49c-2.88 0-5.9 2.87-9.04 8.62-.53 1.73-.8 3.02-.8 3.89zm22.47-16.83h.22c.68 0 1.25.35 1.7 1.04-.99 7.21-1.7 13.66-2.13 19.35l12.18-2.52.42.62v1.27c0 1.92-4.42 3.67-13.25 5.25-1.57-.28-2.36-.77-2.36-1.47 1.17-15.41 2.02-23.12 2.56-23.12l.64-.43zm14.84.04l4.78 7.25 2.09 1.72c2.64-4.71 4.49-7.56 5.53-8.55h.95l.76.86c-.11.76-3.1 6.09-8.97 16-1.48 2.78-2.56 5.27-3.25 7.47l-.56.22c-.89-.42-1.34-1.06-1.34-1.93.05-1.11 1.58-4.6 4.58-10.45-4.32-4.65-6.49-8.42-6.49-11.32.8-.85 1.44-1.28 1.91-1.28zm-250.27 38h.42c1.81.2 2.72 1.01 2.72 2.44v.48c0 2.44-.91 4.71-2.72 6.81h-.42c-.28-.08-.56-.48-.83-1.22l1.05-3.64-.85-.5c-1.93.15-5.49 2.1-10.69 5.84v.25l13.82 2.44c1.4 1.01 2.09 2.71 2.09 5.11v1.45c0 3.27-2.3 6.11-6.9 8.53-1.81.65-3.56.97-5.24.97h-.42c-4.82 0-7.75-1.95-8.8-5.84v-1.46c0-1.79.49-2.69 1.47-2.69.96 3.08 2.7 4.62 5.23 4.62 0 .32 1.05.48 3.14.48 3.1 0 6.1-1.46 9-4.38 0-1.93-4.47-3.15-13.41-3.66-3.21-.82-4.81-2.04-4.81-3.64 0-3.96 4.32-7.94 12.98-11.94l3.14-.49zm17.97 3.96c4.13 0 6.2 1.21 6.2 3.64 0 4.8-4.53 9.14-13.6 13.03-.67 0-1 .42-1 1.28-.1 4.71-.56 7.06-1.41 7.06h-1c-.27-.06-.54-.42-.8-1.06l1.79-17.53h-.2c-.53 0-.8-.65-.8-1.94 0-2.1 1.2-3.3 3.61-3.63l7.18-.86zm-8 12.4c4.57-1.2 8.04-3.19 10.4-5.99l.39-1.3v-.43l-1-.22h-1c-5.32.29-7.98.79-7.98 1.5l-.82 6.42zm19.21-12.47h1.47c.49 0 .73.29.73.86-1.15 9.35-1.72 15.84-1.72 19.47v2.37c-.32 1.58-1.14 2.37-2.44 2.37h-.49l-.99-.86c.65-9.81 1.47-17.6 2.45-23.36l.97-.86zm15.29.06h2.16c3.3 0 4.95 1.15 4.95 3.45v.22c0 4.03-3.45 7.69-10.34 11v.2c3.44 3.16 6.32 5.54 8.62 7.12v.64c0 1.11-.36 1.83-1.08 2.15h-.86l-11.84-8.4-.22 4.31v3.23c-.36.72-.94 1.08-1.72 1.08-.58 0-1.01-.29-1.3-.86v-1.3l1.94-16.83c-.58 0-.86-.43-.86-1.28 0-2.6 2.15-4.11 6.45-4.53l4.1-.22zm-7.53 11.64h.22c7.46-1.92 11.19-4 11.19-6.25v-.22c0-.4-.72-.68-2.16-.86-2.38 0-5.25.5-8.61 1.51l-.64 5.81zm19.66-11.7h1.47c.49 0 .73.28.73.86-1.14 9.35-1.72 15.84-1.72 19.47v2.37c-.32 1.58-1.13 2.37-2.44 2.37h-.49l-.99-.86c.66-9.81 1.48-17.6 2.45-23.36l.96-.86zm21.01.05c1.35 0 2.03.56 2.03 1.68v.42c0 1.55-1.21 2.33-3.63 2.33l-4.52.22c-1.35 7.22-2.03 13.42-2.03 18.62-.37 1.13-.74 1.69-1.13 1.69h-.68c-.78 0-1.24-.21-1.36-.64.76-7.99 1.59-14.48 2.48-19.47l-6.78 1.06c-.63 0-1.01-.64-1.12-1.91 0-2.12 1.89-3.17 5.66-3.17 2.26-.57 5.95-.85 11.08-.85zm8.87 18.78c.67.2 1.15.56 1.45 1.08v.42c0 2.48-1.86 5.55-5.58 9.22l-.97.22h-.25c-.88 0-1.52-.36-1.94-1.08v-.22c2.91-3.23 4.37-6.09 4.37-8.57.89-.72 1.86-1.08 2.9-1.08zm29.98-18.72h.33c1.43.18 2.15.87 2.15 2.09v.42c0 2.1-.72 4.06-2.15 5.87h-.33c-.23-.07-.45-.41-.67-1.05l.84-3.14-.66-.42c-1.53.13-4.34 1.81-8.43 5.03v.2l10.91 2.11c1.1.87 1.66 2.34 1.66 4.4v1.25c0 2.82-1.82 5.27-5.46 7.34-1.43.56-2.81.84-4.14.84h-.34c-3.8 0-6.11-1.68-6.94-5.03v-1.26c0-1.54.38-2.31 1.15-2.31.76 2.66 2.14 4 4.14 4 0 .27.83.4 2.48.4 2.44 0 4.81-1.26 7.11-3.77 0-1.67-3.53-2.72-10.58-3.16-2.54-.71-3.82-1.76-3.82-3.14 0-3.41 3.42-6.84 10.25-10.28l2.482-.43zm19.22-.05c4.44.61 6.67 3.27 6.67 7.98 0 6.16-2.44 11.27-7.31 15.31-2.01 1.15-3.81 1.72-5.39 1.72-3.87 0-6.36-2.08-7.47-6.25l-.16-1.94v-.66c0-6.73 3.07-11.84 9.22-15.32 1.54-.57 3.02-.86 4.43-.86zM895 269.81c1.607 2.44 3.726 3.66 6.36 3.66 4.24 0 7.205-2.52 8.89-7.55l.315-2.38c0-3.54-1.74-5.63-5.23-6.25h-.48c-2.888 0-5.9 2.87-9.05 8.62-.53 1.73-.795 3.02-.795 3.89zm34.456-16.78l4.78 7.25 2.098 1.72c2.646-4.71 4.49-7.56 5.53-8.55h.955l.76.86c-.11.76-3.1 6.092-8.97 16-1.48 2.78-2.56 5.27-3.25 7.47l-.56.22c-.9-.42-1.35-1.06-1.35-1.92.05-1.12 1.58-4.6 4.58-10.458-4.33-4.647-6.49-8.418-6.49-11.314.8-.858 1.43-1.28 1.9-1.28zm26.096-.05c4.447.61 6.67 3.27 6.67 7.98 0 6.162-2.436 11.27-7.31 15.31-2.01 1.144-3.81 1.72-5.39 1.72-3.87 0-6.356-2.086-7.47-6.25l-.16-1.94v-.66c0-6.73 3.07-11.837 9.22-15.31 1.54-.578 3.02-.86 4.436-.86zm-11.59 16.823c1.602 2.44 3.722 3.66 6.36 3.66 4.24 0 7.2-2.517 8.89-7.548l.31-2.38c0-3.54-1.748-5.63-5.237-6.25h-.487c-2.88 0-5.9 2.87-9.046 8.62-.53 1.73-.8 3.023-.8 3.89zm23.9-16.82c.67.27 1.04.55 1.11.84-1.18 7.426-1.78 12.822-1.78 16.187v2.314c3.98 0 7.24-1.82 9.78-5.47 1-8.83 1.97-13.25 2.89-13.25h.24c.884.1 1.33.31 1.33.65-1.338 8.04-2 14.07-2 18.08v3.36c0 1.106-.45 1.876-1.348 2.314h-.89l-.87-.843v-.42l.22-3.56c-.536 0-3.426 1.33-8.676 3.987l-1.565.425c-1.78-.23-2.67-1-2.67-2.31v-.2c1.09-14.72 2.35-22.08 3.782-22.08h.45zm25.85 0h2.153c3.304 0 4.955 1.15 4.955 3.45v.22c0 4.03-3.45 7.696-10.342 11v.2c3.45 3.17 6.322 5.54 8.624 7.126v.64c0 1.12-.36 1.84-1.08 2.16h-.86l-11.847-8.41-.22 4.31v3.23c-.36.72-.934 1.08-1.716 1.08-.57 0-1.01-.29-1.3-.86v-1.3l1.93-16.83c-.58 0-.86-.43-.86-1.28 0-2.59 2.15-4.1 6.45-4.53l4.09-.22zm-7.53 11.64h.22c7.452-1.92 11.182-4 11.182-6.25v-.22c0-.398-.72-.68-2.15-.86-2.39 0-5.26.504-8.61 1.515l-.64 5.816zm-244.26 30.4c4.22 0 6.33 1.44 6.33 4.31v.64c0 2.01-.955 3.95-2.86 5.816v.22c3.134.94 4.7 2.52 4.7 4.73v.86c0 3.6-3.54 6.25-10.625 7.95L736 320h-2.03c-1.095 0-1.642-.573-1.642-1.72v-.217l1.64-17.657c-.687 0-1.03-.14-1.03-.422v-1.296c0-2.438 3-3.657 9-3.657zm-5.94 9.68h.22c6.394 0 9.59-1.44 9.59-4.315-1.05-.71-2.82-1.06-5.31-1.06h-2.454c-1.085 0-1.627.5-1.627 1.5l-.42 3.874zm-.407 4.09l-.41 6.876 2.046.43.21-.22h1.02c5.73-.75 8.6-2.11 8.6-4.08-1.88-2.01-4.82-3.02-8.79-3.02h-.82l-.2-.22-.2.22h-1.43zm25.232-13.78h.75c1.03 0 2.34 4.766 3.923 14.297 1.25 4.5 1.87 7.558 1.87 9.173-.26.855-.76 1.28-1.5 1.28-.96 0-1.647-2.274-2.064-6.826l-.19-.2h-.187c-1.63.02-5.05 1.015-10.28 2.983-.5 2.846-1.31 4.268-2.44 4.268-.75-.29-1.13-.86-1.13-1.702 0-1.64 3.43-9.183 10.29-22.62l.93-.64zm-.376 5.97c-1.5 2.71-2.87 5.557-4.12 8.547h1.32c1.27 0 2.9-.29 4.88-.86l-1.69-7.69h-.37zm18.14-5.97c4.22 0 6.33 1.44 6.33 4.314v.64c0 2.01-.95 3.95-2.86 5.813v.22c3.14.946 4.7 2.524 4.7 4.73v.86c0 3.6-3.54 6.254-10.62 7.95l-3.48.44h-2.03c-1.09 0-1.64-.574-1.64-1.72v-.22l1.64-17.655c-.68 0-1.03-.14-1.03-.426v-1.3c0-2.44 3-3.66 9-3.66zm-5.94 9.69h.22c6.4 0 9.59-1.44 9.59-4.314-1.06-.71-2.83-1.07-5.32-1.07h-2.45c-1.09 0-1.63.5-1.63 1.5l-.42 3.87zm-.4 4.092l-.41 6.873 2.05.437.21-.22h1.02c5.73-.75 8.6-2.11 8.6-4.077-1.89-2.01-4.82-3.013-8.8-3.013h-.81l-.2-.22-.2.22h-1.44zm17.5-13.78l4.78 7.25 2.09 1.716c2.65-4.7 4.49-7.55 5.53-8.54h.96l.76.86c-.11.76-3.1 6.09-8.97 16-1.48 2.78-2.56 5.27-3.25 7.47l-.56.22c-.9-.41-1.35-1.05-1.35-1.92.05-1.11 1.57-4.6 4.57-10.45-4.32-4.64-6.48-8.41-6.48-11.31.8-.85 1.44-1.28 1.91-1.28zm27.29 0c.7 0 1.05 2.414 1.05 7.25l1.41 9.185h.35c0-.54 1.4-3.38 4.2-8.55.44-3.41 1.26-5.11 2.46-5.11h.34c.71 0 1.29 2.63 1.75 7.89.78 3.59 1.37 5.73 1.75 6.4.38-1.82 2.25-7.15 5.61-16.02.49-.57.96-.85 1.41-.85.62 0 1.03.28 1.21.84 0 .73-1.75 5.496-5.25 14.3-.59 2.08-1.11 4.93-1.58 8.546-.38.71-.85 1.067-1.41 1.067-1.07 0-1.88-2.415-2.44-7.25-1.15-4.72-1.85-7.28-2.11-7.69l-3.5 6.83c-.58 1.336-1.11 3.61-1.58 6.83-.31.52-.78.876-1.39 1.06-.98 0-1.79-3.695-2.45-11.09-.93-5.23-1.4-9.43-1.4-12.593 0-.422.52-.78 1.58-1.06zm26.55-.11h1.47c.49 0 .74.284.74.86-1.14 9.35-1.72 15.84-1.72 19.466v2.38c-.32 1.58-1.13 2.38-2.43 2.38h-.48l-.98-.86c.66-9.81 1.48-17.59 2.46-23.36l.97-.85zm6.88.06h.21c.68 0 1.24.35 1.7 1.047-.99 7.21-1.7 13.66-2.13 19.35l12.19-2.51.42.63v1.27c0 1.92-4.41 3.67-13.25 5.25-1.57-.28-2.36-.77-2.36-1.47 1.17-15.41 2.02-23.12 2.57-23.12l.64-.42zm16.14 0h.21c.67 0 1.24.35 1.7 1.047-.99 7.21-1.7 13.66-2.13 19.35l12.19-2.51.42.63v1.27c0 1.92-4.41 3.67-13.25 5.25-1.57-.28-2.36-.77-2.36-1.47 1.17-15.41 2.02-23.12 2.57-23.12l.64-.42zm35.82.047c4.22 0 6.33 1.44 6.33 4.32v.64c0 2.01-.96 3.95-2.86 5.82v.22c3.13.95 4.7 2.53 4.7 4.74v.86c0 3.61-3.54 6.26-10.63 7.96l-3.48.434h-2.03c-1.09 0-1.64-.57-1.64-1.72v-.215l1.64-17.66c-.68 0-1.03-.14-1.03-.42v-1.3c0-2.44 3-3.65 9-3.65zm-5.94 9.69h.22c6.39 0 9.59-1.44 9.59-4.31-1.05-.71-2.82-1.06-5.31-1.06h-2.46c-1.08 0-1.62.5-1.62 1.5l-.42 3.88zm-.41 4.1l-.41 6.88 2.05.44.21-.22h1.02c5.73-.75 8.6-2.1 8.6-4.07-1.89-2.01-4.82-3.01-8.8-3.01h-.81l-.2-.22-.2.22h-1.43zm32.3-13.78c.72.16 1.08.7 1.08 1.64-.23 1.77-.94 2.66-2.14 2.66-7.85 0-11.78 1.1-11.78 3.28l-.22 1.85v1.02c5.13-1.23 8.63-1.84 10.5-1.84h.42c.72.315 1.08.997 1.08 2.05 0 1.5-1 2.25-3 2.25-6.57.856-9.86 1.88-9.86 3.08l-.2 2.05v.81c0 1.23.78 1.91 2.35 2.046 2.46-.27 5.53-.885 9.22-1.844h.64c.58.22.86.7.86 1.44v.61c0 1.676-3.57 2.97-10.72 3.89h-.64c-2.57 0-4-1.635-4.28-4.906 0-2.41.5-6.98 1.5-13.72l-.42-1.233c0-2.77 4.28-4.41 12.85-4.91l2.78-.2zm31.07-.05c.74.2 1.11.71 1.11 1.52v.21c-1.04 15.39-1.78 23.08-2.22 23.08l-.23.22h-.66c-.77 0-1.29-.36-1.56-1.08.29-2.05.44-4.93.44-8.62h-.22l-9.34 2.157-.66.86v4.09c0 1.22-.45 2.08-1.34 2.59h-.44c-.83 0-1.35-.36-1.56-1.08 1.03-15.53 2.52-23.3 4.46-23.3h.44l.67.87c-1.04 5.15-1.56 8.96-1.56 11.42 6.82-.9 10.23-1.98 10.23-3.24l.89-9.06 1.57-.64zm16.18 0c4.45.62 6.67 3.28 6.67 7.99 0 6.17-2.44 11.27-7.32 15.31-2.01 1.15-3.8 1.72-5.39 1.72-3.86 0-6.35-2.08-7.47-6.25l-.15-1.93v-.65c0-6.73 3.07-11.83 9.22-15.31 1.54-.573 3.02-.86 4.44-.86zM964 311.81c1.604 2.44 3.724 3.66 6.36 3.66 4.24 0 7.203-2.51 8.89-7.54l.313-2.37c0-3.54-1.745-5.625-5.235-6.25h-.487c-2.89 0-5.9 2.875-9.05 8.625-.53 1.73-.8 3.025-.8 3.89zm22.47-16.83h.22c.675 0 1.243.35 1.7 1.05-.99 7.21-1.7 13.66-2.127 19.35l12.183-2.51.42.63v1.264c0 1.916-4.415 3.666-13.25 5.25-1.572-.28-2.36-.77-2.36-1.47 1.17-15.416 2.023-23.125 2.564-23.125l.64-.42zm14.843.05l4.78 7.25 2.095 1.72c2.643-4.71 4.486-7.55 5.53-8.54h.95l.767.86c-.105.76-3.095 6.09-8.97 16-1.48 2.78-2.563 5.27-3.25 7.47l-.563.22c-.9-.413-1.347-1.053-1.347-1.92.056-1.11 1.58-4.6 4.58-10.45-4.32-4.643-6.482-8.414-6.482-11.31.8-.853 1.437-1.28 1.906-1.28zm15.312 19.64c1.395 0 2.265.85 2.61 2.55 0 1.7-1.22 2.63-3.658 2.78-1.22-.45-1.83-1.23-1.83-2.31v-.23c.48-1.85 1.44-2.78 2.872-2.78zm-456.31 203.35h1.61c.53 0 .795.34.795 1-1.25 10.81-1.874 18.3-1.874 22.47v2.75c-.355 1.84-1.24 2.75-2.657 2.75h-.54l-1.06-1c.71-11.32 1.6-20.31 2.67-26.97l1.07-1zm9.936.02c1.52.49 2.29 1.16 2.29 2-.32 1.328-2.32 4.23-5.98 8.72h-1.44l-1.12-.89v-.67l4.28-6.92c.29-1.48.95-2.23 1.98-2.23zm12.72 3.94h.41c.67.368 1 .936 1 1.706v.44c0 4.627.41 10.044 1.22 16.25h.2c4.46-11.686 7.09-17.53 7.88-17.53h.61c.59 0 1.54 4.06 2.83 12.188 1.21 4.17 1.82 7.66 1.82 10.47-.39 1-1 1.5-1.81 1.5-.54 0-1.28-3.49-2.22-10.48l-1.62-6.83c-1.16 1.86-3.25 6.7-6.27 14.53-.87.89-1.61 1.39-2.22 1.5-1.75 0-2.63-2.35-2.63-7.06l-1-8.97h-.2l-6.06 13.67c-.36 2.28-.7 3.42-1.01 3.42h-.79l-.81-.84v-1.08c0-1.91 1.68-6.04 5.05-12.39 2.4-6.66 3.948-10.09 4.64-10.26l1.02-.22zm34.25 0c.95 0 2.09 1.785 3.41 5.347 2.56 5.25 5.41 9.74 8.55 13.47 1.05-10.28 1.84-16.34 2.35-18.173l.85-.64h.64c.43 0 .64.285.64.86-1.28 14.685-2.06 22.524-2.34 23.513l-1.28.42c-2.28 0-6.12-4.85-11.53-14.53l-.86-.86-.22.64-.64 9.84v1.28l.22 1.28c-.19 1.71-.76 2.56-1.7 2.56-.87-.32-1.37-.74-1.5-1.28 1.1-15.4 1.88-23.1 2.35-23.1l1.08-.64zm31.36 0c4.45.618 6.67 3.28 6.67 7.988 0 6.16-2.43 11.27-7.31 15.31-2.01 1.14-3.8 1.72-5.39 1.72-3.86 0-6.35-2.09-7.46-6.25l-.15-1.94v-.66c0-6.73 3.07-11.84 9.22-15.31 1.54-.58 3.02-.86 4.44-.86zM637 538.82c1.602 2.437 3.722 3.656 6.36 3.656 4.24 0 7.2-2.52 8.89-7.55l.31-2.38c0-3.54-1.744-5.63-5.234-6.25h-.484c-2.883 0-5.9 2.87-9.044 8.62-.532 1.73-.797 3.023-.797 3.89zm36.61-16.844c1.35 0 2.03.56 2.03 1.68v.42c0 1.55-1.21 2.33-3.627 2.33l-4.512.22c-1.35 7.22-2.03 13.42-2.03 18.62-.36 1.12-.74 1.683-1.12 1.683h-.69c-.78 0-1.23-.22-1.36-.64.76-7.99 1.59-14.48 2.49-19.47l-6.78 1.06c-.64 0-1.01-.64-1.13-1.91 0-2.12 1.89-3.17 5.66-3.17 2.26-.57 5.96-.85 11.08-.85zm27.903.06h.33c1.44.17 2.158.87 2.158 2.09v.42c0 2.1-.72 4.06-2.15 5.87h-.33c-.23-.066-.45-.41-.67-1.05l.84-3.14-.65-.423c-1.54.14-4.35 1.814-8.44 5.033v.205l10.9 2.11c1.1.88 1.66 2.35 1.66 4.41v1.25c0 2.82-1.82 5.27-5.45 7.34-1.42.57-2.8.85-4.14.85h-.34c-3.79 0-6.1-1.68-6.93-5.03v-1.27c0-1.54.38-2.31 1.15-2.31.76 2.67 2.14 4 4.14 4 0 .27.83.41 2.49.41 2.45 0 4.82-1.25 7.11-3.76 0-1.66-3.52-2.71-10.58-3.15-2.54-.71-3.81-1.76-3.81-3.14 0-3.41 3.42-6.84 10.25-10.28l2.49-.42zm10.207-.05c.666.27 1.036.55 1.11.84-1.19 7.42-1.782 12.82-1.782 16.19v2.31c3.98 0 7.24-1.83 9.78-5.47 1-8.83 1.965-13.25 2.893-13.25h.24c.89.09 1.33.31 1.33.64-1.33 8.04-2 14.063-2 18.073v3.36c0 1.1-.45 1.87-1.34 2.31h-.89l-.87-.85v-.42l.22-3.57c-.53 0-3.42 1.33-8.67 3.98l-1.56.42c-1.78-.23-2.67-1-2.67-2.31v-.2c1.09-14.72 2.35-22.08 3.78-22.08h.46zm25.843 0h2.153c3.302 0 4.953 1.15 4.953 3.45v.22c0 4.03-3.45 7.69-10.35 11v.2c3.45 3.16 6.32 5.54 8.62 7.12v.64c0 1.114-.35 1.83-1.07 2.155h-.86l-11.84-8.4-.22 4.32v3.24c-.36.72-.94 1.08-1.72 1.08-.57 0-1.01-.29-1.3-.86v-1.3l1.94-16.82c-.57 0-.86-.42-.86-1.28 0-2.59 2.15-4.1 6.45-4.53l4.09-.22zm-7.53 11.64h.22c7.452-1.92 11.18-4 11.18-6.25v-.22c0-.4-.717-.68-2.155-.86-2.39 0-5.26.5-8.61 1.51l-.64 5.81zm31.34-11.6c.72.153 1.08.7 1.08 1.64-.22 1.77-.94 2.653-2.14 2.653-7.85 0-11.78 1.09-11.78 3.28l-.22 1.84v1.01c5.13-1.23 8.63-1.85 10.5-1.85h.43c.72.31 1.08.99 1.08 2.04 0 1.5-1 2.25-3 2.25-6.57.85-9.86 1.88-9.86 3.08l-.2 2.04v.81c0 1.23.78 1.91 2.342 2.05 2.46-.27 5.53-.89 9.22-1.85h.64c.576.22.86.7.86 1.44v.61c0 1.68-3.57 2.97-10.716 3.89h-.64c-2.58 0-4-1.63-4.29-4.91 0-2.41.5-6.98 1.5-13.72l-.42-1.24c0-2.77 4.28-4.41 12.84-4.91l2.78-.2zm20.06-4h1.61c.53 0 .798.33.798 1-1.25 10.8-1.87 18.29-1.87 22.47v2.75c-.35 1.83-1.24 2.75-2.65 2.75h-.55l-1.06-1c.71-11.33 1.6-20.317 2.68-26.97l1.06-1zm28.58 3.95h2.157c3.302 0 4.953 1.15 4.953 3.45v.22c0 4.03-3.448 7.7-10.344 11v.204c3.44 3.164 6.32 5.54 8.62 7.122v.64c0 1.113-.36 1.83-1.08 2.154h-.86l-11.85-8.403-.22 4.315v3.233c-.37.72-.94 1.08-1.72 1.08-.58 0-1.01-.28-1.3-.86v-1.29l1.94-16.83c-.57 0-.86-.42-.86-1.28 0-2.59 2.15-4.1 6.45-4.53l4.09-.22zm-7.53 11.64h.22c7.46-1.917 11.19-4 11.19-6.25v-.22c0-.396-.72-.682-2.15-.86-2.38 0-5.25.506-8.61 1.516l-.64 5.81zm31.343-11.594c.72.16 1.08.705 1.08 1.643-.23 1.77-.94 2.66-2.14 2.66-7.855 0-11.78 1.09-11.78 3.28l-.22 1.84v1.02c5.125-1.23 8.625-1.847 10.5-1.847h.422c.72.316 1.078.998 1.078 2.05 0 1.5-1 2.25-3 2.25-6.57.855-9.86 1.88-9.86 3.08l-.2 2.046v.81c0 1.23.79 1.91 2.35 2.045 2.46-.27 5.53-.89 9.22-1.84h.64c.58.22.86.69.86 1.43v.61c0 1.67-3.57 2.97-10.72 3.89h-.64c-2.57 0-4-1.64-4.28-4.91 0-2.41.5-6.98 1.5-13.72l-.42-1.23c0-2.77 4.28-4.41 12.847-4.91l2.78-.21zm10.734 0h.75c1.032 0 2.34 4.77 3.922 14.3 1.25 4.5 1.873 7.556 1.873 9.17-.26.855-.76 1.28-1.5 1.28-.96 0-1.648-2.274-2.064-6.826l-.18-.204h-.18c-1.62.02-5.05 1.016-10.28 2.984-.5 2.845-1.31 4.267-2.43 4.267-.75-.29-1.12-.86-1.12-1.7 0-1.645 3.43-9.19 10.3-22.624l.94-.64zm-.375 5.97c-1.5 2.71-2.875 5.56-4.125 8.55h1.313c1.27 0 2.895-.29 4.874-.86l-1.69-7.68h-.376zm11.735-6.015h.22c.676 0 1.243.35 1.702 1.048-.99 7.21-1.697 13.657-2.124 19.345l12.184-2.513.423.625v1.265c0 1.92-4.415 3.67-13.25 5.25-1.57-.28-2.36-.77-2.36-1.47 1.17-15.414 2.02-23.12 2.565-23.12l.64-.426zm16.14 0h.22c.676 0 1.244.35 1.702 1.048-.99 7.21-1.697 13.657-2.124 19.345l12.185-2.513.42.625v1.265c0 1.92-4.417 3.67-13.25 5.25-1.573-.28-2.36-.77-2.36-1.47 1.167-15.414 2.02-23.12 2.563-23.12l.64-.426zm14.844.048l4.78 7.25 2.094 1.72c2.64-4.71 4.49-7.557 5.53-8.547h.95l.76.86c-.108.76-3.098 6.09-8.97 16-1.48 2.78-2.56 5.27-3.25 7.464l-.56.22c-.9-.414-1.348-1.054-1.348-1.92.053-1.11 1.58-4.6 4.58-10.45-4.324-4.646-6.485-8.42-6.485-11.313.803-.86 1.44-1.28 1.907-1.28zM587.47 563.98h.156c1.385 0 2.312 1.356 2.78 4.064l-.327.422h-.16l-1.32-.426c-3.59.53-7.34 3.028-11.27 7.486-1.1 1.94-1.64 3.297-1.64 4.07v.86c0 2.28 2.34 3.7 7.03 4.263 2.94 0 5.16-1.57 6.69-4.71l-1.96-.85c-.73 0-2.75.85-6.05 2.56-.33-.73-.49-1.45-.49-2.14v-.22c0-2.27 2.18-3.84 6.53-4.71h.32c2.5 0 3.75 1.64 3.75 4.92 0 3.38-2.78 6.38-8.33 8.98l-1.96.42c-3.53 0-5.93-1.49-7.19-4.48l-.33-2.79c0-6.46 3.31-11.95 9.95-16.47 1.67-.86 2.93-1.28 3.76-1.28zm21.78.048c.72.16 1.08.705 1.08 1.643-.23 1.77-.944 2.66-2.14 2.66-7.856 0-11.783 1.1-11.783 3.28l-.218 1.85v1.02c5.12-1.23 8.62-1.84 10.5-1.84h.42c.72.32 1.08 1 1.08 2.05 0 1.5-1 2.25-3 2.25-6.58.86-9.86 1.88-9.86 3.08l-.21 2.05v.82c0 1.23.78 1.91 2.34 2.05 2.45-.27 5.53-.88 9.21-1.84h.64c.57.22.86.7.86 1.44v.61c0 1.68-3.57 2.98-10.72 3.89h-.64c-2.58 0-4-1.63-4.28-4.9 0-2.41.5-6.98 1.5-13.72l-.43-1.23c0-2.77 4.28-4.4 12.84-4.9l2.78-.2zm18.44-.06c1.353 0 2.03.56 2.03 1.69v.42c0 1.55-1.21 2.326-3.625 2.326l-4.516.22c-1.36 7.218-2.03 13.426-2.03 18.624-.37 1.128-.74 1.69-1.13 1.69h-.69c-.78 0-1.24-.213-1.36-.64.76-7.99 1.59-14.48 2.48-19.47l-6.79 1.064c-.64 0-1.01-.635-1.13-1.906 0-2.116 1.88-3.174 5.65-3.174 2.26-.562 5.95-.843 11.07-.843zm19.686-.047h1.47c.488 0 .733.29.733.86-1.15 9.36-1.72 15.85-1.72 19.47v2.38c-.33 1.58-1.14 2.38-2.44 2.38h-.49l-.99-.86c.65-9.81 1.47-17.59 2.45-23.36l.97-.85zm21.016.05c1.36 0 2.04.56 2.04 1.69v.42c0 1.55-1.21 2.33-3.622 2.33l-4.516.22c-1.353 7.22-2.03 13.43-2.03 18.63-.365 1.13-.74 1.69-1.125 1.69h-.69c-.78 0-1.24-.21-1.36-.64.76-7.99 1.59-14.48 2.48-19.47l-6.78 1.07c-.64 0-1.01-.63-1.13-1.91 0-2.11 1.88-3.17 5.65-3.17 2.26-.56 5.95-.84 11.07-.84zm8.88 18.78c.67.2 1.15.56 1.46 1.08v.42c0 2.48-1.86 5.56-5.58 9.22l-.967.22h-.25c-.875 0-1.52-.36-1.94-1.08v-.22c2.918-3.23 4.376-6.08 4.376-8.56.9-.72 1.87-1.08 2.91-1.08zm26.36-18.72c4.22 0 6.33 1.44 6.33 4.32v.64c0 2.01-.95 3.95-2.86 5.82v.22c3.14.95 4.708 2.53 4.708 4.74v.86c0 3.61-3.542 6.26-10.625 7.96l-3.485.44h-2.03c-1.097 0-1.64-.57-1.64-1.72v-.21l1.64-17.65c-.69 0-1.034-.14-1.034-.42v-1.3c0-2.43 3-3.65 9-3.65zm-5.94 9.69h.22c6.4 0 9.6-1.44 9.6-4.31-1.05-.71-2.82-1.06-5.31-1.06h-2.454c-1.083 0-1.625.5-1.625 1.5l-.422 3.88zm-.4 4.1l-.404 6.88 2.047.44.203-.22h1.014c5.73-.75 8.593-2.1 8.593-4.07-1.885-2.01-4.817-3.01-8.797-3.01h-.81l-.204-.22-.204.22h-1.44zm20.237-13.83c.66.27 1.03.55 1.11.85-1.19 7.43-1.79 12.83-1.79 16.19v2.32c3.98 0 7.24-1.82 9.78-5.47 1-8.83 1.96-13.25 2.89-13.25h.23c.88.1 1.33.31 1.33.64-1.34 8.04-2 14.07-2 18.08v3.36c0 1.1-.45 1.87-1.35 2.31h-.89l-.88-.84v-.42l.22-3.56c-.53 0-3.42 1.33-8.67 3.99l-1.57.42c-1.78-.23-2.68-1-2.68-2.31v-.2c1.08-14.72 2.34-22.08 3.78-22.08h.45zm31.56-.01c1.35 0 2.03.56 2.03 1.69v.42c0 1.55-1.21 2.33-3.63 2.33l-4.52.22c-1.36 7.22-2.03 13.43-2.03 18.63-.37 1.13-.74 1.69-1.13 1.69h-.69c-.78 0-1.24-.21-1.36-.64.76-7.99 1.59-14.48 2.48-19.47l-6.78 1.06c-.64 0-1.01-.63-1.13-1.9 0-2.11 1.88-3.17 5.65-3.17 2.26-.56 5.95-.84 11.08-.84zm20.36-3.94h1.61c.53 0 .79.34.79 1-1.25 10.81-1.88 18.3-1.88 22.47v2.75c-.36 1.84-1.24 2.75-2.66 2.75h-.55l-1.07-1c.71-11.32 1.6-20.31 2.67-26.97l1.06-1zm34.29 3.94c1.35 0 2.03.56 2.03 1.69v.42c0 1.55-1.21 2.33-3.63 2.33l-4.52.22c-1.36 7.22-2.03 13.43-2.03 18.63-.37 1.13-.74 1.69-1.13 1.69h-.69c-.78 0-1.23-.21-1.36-.64.76-7.99 1.59-14.48 2.48-19.47l-6.78 1.06c-.64 0-1.01-.63-1.13-1.9 0-2.11 1.89-3.17 5.66-3.17 2.26-.56 5.95-.84 11.08-.84zm13.01.02h2.15c3.3 0 4.95 1.15 4.95 3.45v.22c0 4.03-3.45 7.7-10.34 11v.21c3.44 3.17 6.32 5.54 8.62 7.13v.64c0 1.12-.36 1.84-1.08 2.16h-.86l-11.85-8.4-.22 4.31v3.24c-.37.72-.94 1.08-1.72 1.08-.58 0-1.01-.28-1.3-.86v-1.29l1.94-16.83c-.58 0-.86-.42-.86-1.28 0-2.59 2.15-4.1 6.45-4.53l4.09-.22zm-7.53 11.64h.21c7.46-1.92 11.18-4 11.18-6.25v-.22c0-.4-.72-.68-2.16-.86-2.39 0-5.26.51-8.61 1.52l-.64 5.82zM828.5 564c.668.27 1.037.55 1.11.84-1.19 7.43-1.78 12.826-1.78 16.19v2.314c3.98 0 7.24-1.823 9.78-5.47 1-8.832 1.967-13.25 2.894-13.25h.235c.88.095 1.32.31 1.32.64-1.33 8.044-2 14.07-2 18.08v3.36c0 1.104-.45 1.874-1.34 2.31h-.89l-.88-.842v-.42l.22-3.564c-.53 0-3.42 1.33-8.67 3.985l-1.57.42c-1.78-.23-2.67-1-2.67-2.313v-.202c1.08-14.72 2.34-22.08 3.78-22.08h.45zm27.454.044h.327c1.44.18 2.16.878 2.16 2.097v.43c0 2.11-.72 4.07-2.15 5.88h-.32c-.23-.07-.45-.42-.67-1.05l.85-3.14-.66-.42c-1.53.14-4.34 1.81-8.44 5.03v.2l10.91 2.11c1.1.88 1.66 2.35 1.66 4.41v1.25c0 2.83-1.82 5.27-5.45 7.35-1.42.57-2.81.85-4.14.85h-.34c-3.79 0-6.1-1.68-6.93-5.03v-1.27c0-1.54.39-2.31 1.16-2.31.76 2.67 2.14 4 4.14 4 0 .27.83.41 2.49.41 2.45 0 4.82-1.25 7.11-3.76 0-1.66-3.53-2.72-10.58-3.15-2.54-.71-3.81-1.76-3.81-3.14 0-3.41 3.42-6.84 10.25-10.28l2.48-.43zm22.905-.06c1.35 0 2.03.56 2.03 1.688v.42c0 1.55-1.21 2.33-3.62 2.33l-4.52.22c-1.35 7.22-2.03 13.43-2.03 18.63-.37 1.125-.74 1.69-1.13 1.69h-.69c-.78 0-1.24-.216-1.36-.64.76-7.99 1.59-14.48 2.48-19.47l-6.78 1.06c-.64 0-1.01-.636-1.13-1.907 0-2.114 1.88-3.17 5.65-3.17 2.26-.564 5.95-.845 11.08-.845zM571.32 602.03h.23c1.927 0 3.22 1.57 3.875 4.706l-.453.5h-.232l-1.83-.5c-5.01.614-10.254 3.505-15.733 8.67-1.52 2.24-2.28 3.81-2.28 4.703v.98c0 2.64 3.27 4.29 9.81 4.95 4.106 0 7.22-1.82 9.345-5.45l-2.736-.99c-1.01 0-3.826.99-8.44 2.97-.46-.85-.69-1.67-.69-2.47v-.25c0-2.64 3.04-4.45 9.127-5.45h.45c3.5 0 5.25 1.9 5.25 5.7 0 3.91-3.874 7.38-11.624 10.39l-2.75.5c-4.92 0-8.26-1.74-10.03-5.21l-.46-3.22c0-7.47 4.63-13.83 13.9-19.06 2.33-.99 4.08-1.49 5.25-1.49zm20.215 3.956c4.45.614 6.673 3.275 6.673 7.984 0 6.165-2.438 11.27-7.313 15.31-2.01 1.147-3.81 1.72-5.39 1.72-3.867 0-6.357-2.083-7.47-6.25l-.158-1.938v-.656c0-6.73 3.07-11.83 9.22-15.31 1.54-.573 3.02-.86 4.436-.86zm-11.592 16.827c1.606 2.438 3.726 3.657 6.36 3.657 4.24 0 7.204-2.517 8.89-7.548l.314-2.375c0-3.54-1.744-5.62-5.233-6.25h-.484c-2.885 0-5.9 2.88-9.046 8.63-.53 1.73-.796 3.025-.796 3.89zm27.595-16.828h.954c4.53 0 7.31 1.792 8.33 5.39l.186 1.72c0 7.15-5.302 13.05-15.906 17.682l-.94.22h-.2c-.28 0-.53-.505-.75-1.516l1.89-18.55c-.76 0-1.14-.21-1.14-.64v-.44c0-2.29 1.01-3.43 3.03-3.43l4.546-.43zm-3.78 4.53c-1.136 7.37-1.704 12.33-1.704 14.87v1.08c7.948-3.97 11.92-7.71 11.92-11.22v-.2c0-2.02-.566-3.03-1.7-3.03-1.405-1-3.676-1.5-6.81-1.5h-1.706zm39.765-4.49h.328c1.44.18 2.16.878 2.16 2.097v.42c0 2.102-.72 4.06-2.15 5.873h-.32c-.23-.06-.45-.41-.67-1.044l.85-3.14-.65-.42c-1.53.14-4.34 1.82-8.43 5.04v.21l10.91 2.11c1.11.87 1.66 2.34 1.66 4.4v1.25c0 2.82-1.82 5.27-5.45 7.35-1.42.57-2.8.85-4.14.85h-.34c-3.79 0-6.1-1.68-6.93-5.03v-1.27c0-1.54.39-2.31 1.16-2.31.76 2.67 2.14 4 4.14 4 0 .27.83.41 2.49.41 2.45 0 4.82-1.26 7.11-3.77 0-1.66-3.52-2.72-10.58-3.15-2.54-.71-3.81-1.76-3.81-3.14 0-3.41 3.42-6.84 10.25-10.28l2.49-.42zm19.22-.044c4.447.62 6.67 3.28 6.67 7.99 0 6.17-2.437 11.27-7.312 15.31-2.01 1.15-3.8 1.72-5.39 1.72-3.86 0-6.35-2.08-7.47-6.25l-.15-1.93v-.65c0-6.73 3.08-11.83 9.22-15.31 1.54-.57 3.02-.86 4.44-.86zm-11.595 16.83c1.602 2.44 3.722 3.66 6.36 3.66 4.24 0 7.2-2.51 8.89-7.54l.31-2.37c0-3.54-1.746-5.62-5.236-6.25h-.484c-2.884 0-5.9 2.88-9.045 8.63-.53 1.73-.796 3.03-.796 3.89zm35.75-16.83h.22c.674 0 1.24.35 1.7 1.05-.99 7.21-1.7 13.66-2.127 19.35l12.19-2.51.43.63v1.27c0 1.92-4.41 3.67-13.25 5.25-1.57-.28-2.36-.77-2.36-1.47 1.17-15.41 2.02-23.12 2.57-23.12l.64-.42zm29.64.05c.72.16 1.08.71 1.08 1.65-.23 1.77-.946 2.66-2.144 2.66-7.852 0-11.78 1.1-11.78 3.28l-.22 1.85v1.02c5.127-1.23 8.627-1.84 10.5-1.84h.424c.72.31 1.076 1 1.076 2.05 0 1.5-1 2.25-3 2.25-6.572.86-9.858 1.88-9.858 3.08l-.206 2.05v.81c0 1.23.785 1.91 2.347 2.05 2.46-.27 5.53-.88 9.22-1.84h.64c.57.22.86.7.86 1.44v.61c0 1.68-3.576 2.98-10.72 3.89h-.64c-2.575 0-4-1.63-4.284-4.9 0-2.41.5-6.98 1.5-13.72l-.423-1.23c0-2.77 4.284-4.4 12.846-4.9l2.78-.2zm18.436-.06c1.356 0 2.033.56 2.033 1.69v.42c0 1.55-1.21 2.33-3.626 2.33l-4.51.22c-1.35 7.22-2.03 13.43-2.03 18.62-.36 1.13-.74 1.69-1.12 1.69h-.69c-.78 0-1.23-.21-1.36-.64.76-7.99 1.59-14.48 2.49-19.47l-6.78 1.07c-.63 0-1.01-.63-1.12-1.9 0-2.11 1.89-3.17 5.66-3.17 2.26-.56 5.96-.84 11.08-.84zm19.69-.04h1.47c.49 0 .734.29.734.86-1.15 9.36-1.72 15.85-1.72 19.47v2.38c-.324 1.59-1.137 2.38-2.44 2.38h-.483l-.982-.86c.657-9.81 1.475-17.6 2.454-23.36l.966-.86zm21.016.05c1.357 0 2.03.56 2.03 1.69v.42c0 1.56-1.204 2.33-3.62 2.33l-4.517.22c-1.354 7.22-2.03 13.43-2.03 18.63-.366 1.13-.74 1.69-1.127 1.69h-.686c-.78 0-1.234-.21-1.36-.64.76-7.99 1.59-14.48 2.485-19.47l-6.78 1.07c-.64 0-1.014-.63-1.128-1.9 0-2.12 1.885-3.17 5.656-3.17 2.26-.56 5.95-.84 11.077-.84zm31.36.02c.74.2 1.11.7 1.11 1.52v.21c-1.04 15.39-1.78 23.08-2.22 23.08l-.23.22h-.66c-.77 0-1.29-.36-1.562-1.07.294-2.05.44-4.92.44-8.62h-.218l-9.347 2.16-.657.86v4.1c0 1.22-.45 2.09-1.346 2.6h-.44c-.83 0-1.35-.36-1.56-1.07 1.03-15.53 2.517-23.3 4.454-23.3h.438l.67.88c-1.04 5.16-1.56 8.97-1.56 11.42 6.82-.9 10.23-1.97 10.23-3.23l.89-9.06 1.566-.64zm12.16.05h.75c1.03 0 2.336 4.77 3.92 14.3 1.25 4.5 1.872 7.56 1.872 9.17-.26.86-.76 1.28-1.5 1.28-.96 0-1.646-2.27-2.063-6.82l-.19-.21h-.19c-1.63.02-5.06 1.02-10.28 2.99-.5 2.85-1.32 4.27-2.44 4.27-.75-.29-1.13-.86-1.13-1.7 0-1.64 3.43-9.19 10.29-22.62l.93-.64zm-.377 5.97c-1.5 2.71-2.875 5.56-4.125 8.55H816c1.27 0 2.895-.29 4.874-.86l-1.69-7.69h-.375zm20.125-6.02c4.133 0 6.2 1.21 6.2 3.64 0 4.8-4.53 9.14-13.593 13.03-.668 0-1 .43-1 1.28-.095 4.71-.563 7.06-1.407 7.06h-1c-.27-.06-.536-.42-.796-1.06l1.796-17.53h-.204c-.53 0-.796-.64-.796-1.93 0-2.09 1.2-3.3 3.61-3.62l7.184-.86zm-8 12.4c4.57-1.19 8.04-3.19 10.404-5.98l.39-1.29v-.42l-1-.22h-1c-5.323.29-7.985.79-7.985 1.5l-.813 6.42zm25.795-12.4c4.134 0 6.202 1.22 6.202 3.64 0 4.81-4.533 9.15-13.595 13.04-.667 0-1 .43-1 1.28-.094 4.71-.563 7.06-1.406 7.06h-1c-.27-.06-.537-.41-.797-1.06l1.794-17.53h-.2c-.53 0-.8-.65-.8-1.94 0-2.09 1.21-3.3 3.61-3.62l7.19-.86zm-8 12.41c4.572-1.19 8.04-3.19 10.405-5.98l.39-1.3v-.42l-1-.22h-1c-5.326.29-7.987.79-7.987 1.5l-.81 6.42zm30.905-12.36c.72.16 1.075.71 1.075 1.65-.228 1.77-.942 2.65-2.14 2.65-7.854 0-11.78 1.09-11.78 3.28l-.22 1.85v1.02c5.125-1.23 8.625-1.85 10.5-1.85h.422c.72.31 1.076 1 1.076 2.05 0 1.5-1 2.25-3 2.25-6.57.85-9.86 1.88-9.86 3.08l-.2 2.04v.82c0 1.23.78 1.91 2.35 2.04 2.46-.27 5.53-.88 9.22-1.84h.64c.57.22.86.7.86 1.44v.61c0 1.68-3.57 2.97-10.72 3.89h-.64c-2.57 0-4-1.63-4.28-4.9 0-2.41.5-6.98 1.5-13.72l-.42-1.23c0-2.77 4.28-4.4 12.85-4.9l2.78-.2zm4.512-.04c.948 0 2.084 1.78 3.407 5.35 2.56 5.25 5.41 9.74 8.546 13.47 1.052-10.28 1.833-16.34 2.343-18.17l.86-.64h.64c.43 0 .64.28.64.86-1.28 14.68-2.06 22.52-2.34 23.51l-1.28.42c-2.285 0-6.13-4.84-11.535-14.53l-.86-.86-.21.64-.64 9.85v1.28l.22 1.28c-.18 1.71-.75 2.56-1.7 2.56-.87-.31-1.37-.74-1.5-1.28 1.09-15.4 1.88-23.09 2.34-23.09l1.08-.64zm-266.93 42.05h.75c1.032 0 2.34 4.77 3.923 14.3 1.25 4.5 1.876 7.56 1.876 9.18-.26.86-.76 1.28-1.5 1.28-.96 0-1.65-2.27-2.07-6.82l-.19-.2h-.19c-1.63.02-5.05 1.02-10.28 2.99-.5 2.84-1.32 4.27-2.44 4.27-.75-.29-1.13-.86-1.13-1.7 0-1.64 3.43-9.18 10.29-22.62l.94-.64zm-.374 5.97c-1.5 2.71-2.877 5.56-4.127 8.55h1.31c1.27 0 2.9-.28 4.88-.86l-1.69-7.69h-.38zm21.763-5.97h.33c1.43.18 2.15.88 2.15 2.1v.42c0 2.11-.72 4.07-2.16 5.88h-.33c-.23-.06-.46-.41-.68-1.04l.84-3.14-.66-.42c-1.53.14-4.35 1.82-8.44 5.04v.21l10.9 2.11c1.1.88 1.66 2.34 1.66 4.41v1.25c0 2.83-1.82 5.27-5.46 7.35-1.43.56-2.81.85-4.14.85h-.35c-3.79 0-6.1-1.67-6.94-5.03v-1.26c0-1.54.38-2.31 1.15-2.31.76 2.67 2.14 4 4.14 4 0 .27.83.41 2.48.41 2.45 0 4.82-1.25 7.11-3.76 0-1.67-3.52-2.72-10.58-3.16-2.55-.71-3.82-1.75-3.82-3.14 0-3.4 3.41-6.83 10.25-10.28l2.48-.42zm38-4h.23c1.92 0 3.22 1.57 3.87 4.71l-.45.5h-.24l-1.83-.5c-5.01.62-10.26 3.51-15.74 8.67-1.52 2.24-2.29 3.81-2.29 4.71v.99c0 2.64 3.27 4.29 9.81 4.95 4.1 0 7.22-1.82 9.34-5.45l-2.74-.98c-1.01 0-3.83.99-8.44 2.97-.46-.84-.69-1.67-.69-2.47v-.25c0-2.63 3.04-4.45 9.12-5.45h.45c3.5 0 5.25 1.9 5.25 5.7 0 3.91-3.88 7.38-11.63 10.39l-2.75.5c-4.92 0-8.26-1.74-10.03-5.2l-.45-3.22c0-7.47 4.64-13.82 13.91-19.06 2.33-.99 4.08-1.49 5.25-1.49zm20.22 3.95c4.45.62 6.67 3.28 6.67 7.99 0 6.17-2.44 11.27-7.31 15.31-2.01 1.15-3.81 1.72-5.39 1.72-3.87 0-6.36-2.08-7.47-6.25l-.16-1.93v-.65c0-6.73 3.07-11.83 9.22-15.31 1.54-.57 3.02-.86 4.43-.86zm-11.6 16.83c1.6 2.44 3.72 3.66 6.36 3.66 4.24 0 7.2-2.51 8.89-7.54l.31-2.37c0-3.54-1.75-5.62-5.24-6.25h-.49c-2.89 0-5.9 2.88-9.05 8.63-.53 1.73-.8 3.03-.8 3.89zM712.83 648h.95c4.533 0 7.31 1.795 8.33 5.39l.19 1.72c0 7.154-5.307 13.05-15.91 17.685l-.938.22h-.204c-.28 0-.53-.507-.75-1.518l1.89-18.547c-.76 0-1.14-.215-1.14-.64v-.44c0-2.29 1.01-3.438 3.03-3.438l4.546-.44zm-3.78 4.53c-1.14 7.375-1.707 12.333-1.707 14.875v1.08c7.946-3.97 11.92-7.71 11.92-11.22v-.205c0-2.02-.568-3.03-1.703-3.03-1.41-1-3.68-1.5-6.815-1.5h-1.7zm28.105-4.485c.7 0 1.05 2.416 1.05 7.25l1.403 9.19h.342c0-.535 1.4-3.38 4.202-8.55.44-3.408 1.253-5.11 2.45-5.11h.34c.71 0 1.294 2.63 1.75 7.89.78 3.593 1.367 5.73 1.75 6.405.377-1.814 2.247-7.15 5.61-16.017.49-.566.96-.847 1.408-.847.626 0 1.03.28 1.22.842 0 .73-1.75 5.494-5.25 14.297-.584 2.085-1.11 4.93-1.58 8.55-.375.705-.843 1.06-1.406 1.06-1.06 0-1.876-2.42-2.438-7.25-1.147-4.72-1.85-7.28-2.11-7.69l-3.5 6.83c-.584 1.33-1.11 3.606-1.58 6.825-.31.52-.775.872-1.39 1.06-.98 0-1.796-3.7-2.453-11.09-.934-5.23-1.403-9.43-1.403-12.598 0-.43.525-.78 1.577-1.063zm31.174 0h.75c1.03 0 2.34 4.765 3.92 14.296 1.25 4.5 1.87 7.56 1.87 9.18-.26.85-.76 1.28-1.5 1.28-.96 0-1.65-2.27-2.07-6.83l-.19-.2h-.19c-1.63.02-5.05 1.02-10.28 2.99-.5 2.85-1.32 4.27-2.44 4.27-.75-.29-1.13-.86-1.13-1.71 0-1.64 3.43-9.18 10.29-22.62l.94-.64zm-.38 5.97c-1.5 2.706-2.88 5.555-4.13 8.545h1.31c1.27 0 2.89-.288 4.87-.86l-1.69-7.69h-.38zm11.95-6.018c.94 0 2.08 1.782 3.4 5.344 2.56 5.25 5.41 9.74 8.55 13.47 1.05-10.28 1.83-16.34 2.34-18.17l.86-.64h.64c.42 0 .64.29.64.86-1.28 14.69-2.07 22.53-2.35 23.52l-1.28.42c-2.29 0-6.13-4.84-11.54-14.53l-.86-.86-.22.64-.64 9.85v1.28l.21 1.29c-.19 1.71-.75 2.56-1.7 2.56-.88-.31-1.38-.74-1.5-1.28 1.09-15.39 1.87-23.09 2.34-23.09l1.08-.64zm35.04-.015c1.35 0 2.03.56 2.03 1.688v.423c0 1.55-1.21 2.328-3.62 2.328l-4.52.22c-1.35 7.22-2.03 13.43-2.03 18.63-.36 1.13-.74 1.69-1.13 1.69h-.7c-.78 0-1.23-.21-1.36-.64.76-7.99 1.59-14.48 2.49-19.47l-6.78 1.06c-.64 0-1.02-.64-1.13-1.91 0-2.11 1.88-3.17 5.65-3.17 2.26-.56 5.95-.84 11.08-.84zm14.62.06h.32c1.43.18 2.15.878 2.15 2.097v.42c0 2.1-.72 4.06-2.16 5.88h-.33c-.23-.07-.46-.41-.67-1.05l.84-3.14-.66-.43c-1.54.14-4.35 1.81-8.44 5.03v.2l10.9 2.11c1.11.88 1.66 2.34 1.66 4.41v1.25c0 2.82-1.82 5.27-5.45 7.34-1.43.56-2.81.84-4.14.84h-.35c-3.79 0-6.11-1.68-6.94-5.03v-1.27c0-1.54.38-2.31 1.15-2.31.76 2.66 2.14 4 4.14 4 0 .27.83.4 2.48.4 2.45 0 4.82-1.26 7.11-3.77 0-1.66-3.52-2.72-10.58-3.15-2.54-.71-3.81-1.76-3.81-3.14 0-3.41 3.42-6.84 10.25-10.28l2.49-.42zm15.9-3.965c.62.29.94.64.94 1.044-2.97 9.56-4.45 15.62-4.45 18.17-.85.98-1.56 1.47-2.13 1.47-.94-.33-1.41-.75-1.41-1.25 1.48-12.96 3.44-19.44 5.87-19.44h1.17zm-5.55 23.45c1.48.28 2.22 1.054 2.22 2.314v.21c-.6 1.98-2.02 2.97-4.27 2.97-1.12 0-1.79-.77-2.02-2.31 0-1.78 1.35-2.84 4.06-3.17z" fill="#000"/></g></svg>