<svg width="88" height="77" viewBox="0 0 88 77" xmlns="http://www.w3.org/2000/svg"><title>icon-story</title><g fill="#FFF" fill-rule="evenodd"><path d="M32 24H16v-8h16v8zm0 16H16v-8h16v8zm0 16H16v-8h16v8zm40-32H56v-8h16v8zm0 16H56v-8h16v8zm0 16H56v-8h16v8z"/><path d="M64 0c-6.914 0-13.785 1.852-20 5.367C37.785 1.852 30.914 0 24 0 15.578 0 7.156 2.602 0 7.82V73c0 2.21 1.79 4 4 4 .395 0 13.832-4.82 20-4.82 6.355 0 12.656 1.625 18.46 4.61l.067-.04.004-.008c.458.18.946.297 1.47.297s1.012-.118 1.47-.298l.003.008.066.04c5.804-2.985 12.105-4.61 18.46-4.61 6.168 0 19.605 4.82 20 4.82 2.21 0 4-1.79 4-4V7.82C80.844 2.602 72.422 0 64 0zM8 66.844v-54.65c4.875-2.74 10.336-4.17 16-4.17s11.125 1.43 16 4.17v54.65c-5.098-1.782-10.484-2.69-16-2.69s-10.902.91-16 2.69zm72 0c-5.098-1.78-10.484-2.688-16-2.688s-10.902.906-16 2.688V12.196c4.875-2.742 10.336-4.172 16-4.172s11.125 1.43 16 4.172v54.648z"/></g></svg>