<svg width="104" height="120" viewBox="0 0 104 120" xmlns="http://www.w3.org/2000/svg"><title>Shape</title><path d="M100 16c-2.21 0-4 1.79-4 4v2.223L40 9.777V4c0-2.21-1.79-4-4-4s-4 1.79-4 4v71.273C28.648 73.246 24.523 72 20 72 8.953 72 0 79.164 0 88s8.953 16 20 16 20-7.164 20-16V41.777l56 12.445v37.05C92.648 89.247 88.523 88 84 88c-11.047 0-20 7.164-20 16s8.953 16 20 16 20-7.164 20-16V20c0-2.21-1.79-4-4-4zM20 96c-6.39 0-12-3.738-12-8 0-4.262 5.61-8 12-8s12 3.738 12 8c0 4.262-5.61 8-12 8zm64 16c-6.39 0-12-3.738-12-8 0-4.262 5.61-8 12-8s12 3.738 12 8c0 4.262-5.61 8-12 8zM40 33.582v-15.61L96 30.42v15.61L40 33.58z" fill="#FFF" fill-rule="evenodd"/></svg>