<svg width="1540" height="820" viewBox="0 0 1540 820" xmlns="http://www.w3.org/2000/svg"><title>story na 03</title><g fill="none" fill-rule="evenodd"><path fill="green" d="M1540 280H0v540h1540z"/><path d="M1540 0v738.94c-177.35-42.932-446.83-70.377-748.677-70.377C464.2 668.563 175.01 700.743 0 750V0h1540z" fill="navy"/><path fill="#FFE680" d="M446.43 339.667l11.36-10.835 13.362 8.236-6.795-14.15 11.963-10.164-15.558 2.09-5.97-14.52-2.82 15.443-15.652 1.19 13.814 7.456m603.46 114.594l15.566-1.806 5.697 14.6 3.093-15.36 15.644-.9-13.654-7.69 3.972-15.15-11.532 10.61-13.19-8.46 6.528 14.25-12.124 9.93m252.582 68.19l14.286-7.04 10.435 12.04-2.28-15.76 14.668-6.2-15.696-2.7-1.37-15.87-7.42 14.09-15.52-3.6 11.11 11.41-8.22 13.64m-383 20.41l7.18-14.16 15.52 3.36-11.25-11.21 7.98-13.73-14.14 7.24-10.59-11.84 2.51 15.68-14.53 6.41 15.69 2.46 1.6 15.8M72.11 151.34l11.36-10.833 13.362 8.236-6.795-14.15L102 124.428l-15.558 2.088L80.472 112l-2.82 15.442L62 128.632l13.815 7.455m-15.25 316.176l5.874-14.546 15.56 1.99-12.02-10.082 6.7-14.184-13.3 8.32L51.96 413l3.8 15.22L42 435.758l15.65 1.092 2.915 15.413M579.573 230.38l15.698 2.777 1.3 15.888 7.49-14.07 15.52 3.674-11.06-11.48 8.29-13.62-14.33 6.98-10.39-12.09 2.21 15.79-14.71 6.14m-189 270.99l6.56-14.35 15.54 2.7-11.62-10.67 7.37-13.95-13.73 7.75-10.98-11.32 3.13 15.46-14.16 6.95 15.67 1.8 2.24 15.61m680.96-381.12l11.36-10.84 13.36 8.24-6.8-14.15 11.97-10.17-15.55 2.09-5.97-14.52-2.82 15.44-15.65 1.19 13.82 7.45m-659.4-18.41l14.29-7.04 10.436 12.03-2.28-15.77L453 69.57l-15.696-2.702L435.934 51l-7.42 14.092-15.514-3.6 11.11 11.412-8.22 13.642m-252.528 514.03l9.634-13.07 15.087 6-9.453-13.2L189 567.813l-15.477 4.91L164.845 559l-.112 16.237L149 579.25l15.407 5.123-1.045 16.204M707.155 571.8l11.615 10.672-7.376 13.943 13.74-7.748 10.98 11.324-3.12-15.46 14.16-6.94-15.668-1.81-2.23-15.61-6.56 14.35-15.54-2.7M1412.81 99.15l10.977-11.33 13.746 7.74-7.385-13.94 11.61-10.68-15.54 2.715-6.57-14.343-2.22 15.618-15.67 1.817 14.168 6.94-3.115 15.464m30.81 507.2l9.02 13.36-10.63 12.11 15.49-4.45 8.24 13.86.56-16.1 15.72-3.55-15.14-5.5 1.48-16.05-9.91 12.71-14.8-6.37M827.7 241.26l8.312 13.61-11.05 11.493 15.51-3.7 7.52 14.06 1.276-15.895 15.7-2.8-14.726-6.123 2.185-15.796-10.375 12.11-14.35-6.96"/><g transform="translate(874 529)"><rect fill="#000" x="96.016" y="118.701" width="24.023" height="91.815" rx="8"/><rect fill="#000" x="193.867" y="118.701" width="24.023" height="91.815" rx="8"/><path d="M192.792 3.834c-12.403 0-23.862 3.004-33.24 8.05-8.636-3.932-18.757-6.195-29.585-6.195-30.703 0-55.73 18.18-57.185 41.04-14.587 7.82-24.106 20.64-24.106 35.16 0 23.83 25.627 43.17 57.265 43.17 3.43 0 6.79-.28 10.05-.71 8.69 15.5 29.04 26.4 52.78 26.4 17.35 0 32.9-5.82 43.41-15 2.14.18 4.32.31 6.52.31 28.47 0 52.07-15.65 56.51-36.15 13.93-7.88 22.96-20.45 22.96-34.57 0-23.83-25.66-43.13-57.3-43.13-.39 0-.77-.01-1.15 0-10.37-11.1-27.52-18.39-46.9-18.39z" stroke="#000" stroke-width="3.458" fill="#FFF"/><rect fill="#000" x="230.719" y="119.069" width="24.023" height="91.815" rx="8"/><rect fill="#000" x="130.327" y="118.701" width="24.023" height="91.815" rx="8"/><ellipse stroke="#000" stroke-width="3.5" fill="#CCC" transform="rotate(32 91.97 35.598)" cx="91.971" cy="35.598" rx="14.614" ry="17.679"/><ellipse stroke="#000" stroke-width="3.5" fill="#CCC" cx="36.793" cy="27.5" rx="16.5" ry="20.5"/><path d="M64.82 22.504c18.807 6.514 27.182 31.633 18.705 56.104-4.07 11.752-11.562 21.78-20.826 27.877-9.27 6.097-19.55 7.765-28.58 4.637-9.03-3.13-16.08-10.797-19.59-21.32-3.51-10.52-3.19-23.033.88-34.785 4.07-11.75 11.56-21.777 20.82-27.877 9.26-6.09 19.54-7.76 28.57-4.63z" stroke="#000" stroke-width="3.458" fill="#CCC"/><path d="M46.738 47.16c1.357 3.24-.187 6.974-3.448 8.34-3.26 1.364-7.004-.156-8.36-3.396-1.357-3.24.187-6.974 3.448-8.34 3.26-1.365 7.004.155 8.36 3.396z" fill="#000"/><path d="M26.43 74.81c9.742 21.522 21.763 16.996 39.237 9.23" stroke="#000" stroke-width="3.458" stroke-linecap="round"/><path d="M72.062 53.443c1.357 3.24-.187 6.974-3.448 8.34-3.26 1.364-7.004-.156-8.36-3.396-1.358-3.24.186-6.974 3.447-8.34 3.27-1.364 7.01.156 8.37 3.396z" fill="#000"/></g><path d="M1203.756 571.036c8.256-2.02 17.256 4.88 24.373 19.45 6.73 13.792 16.71 24.217 4.02 32.043-7.07 4.36-23.59-.75-21.85-11.16-1.27 5.7-1.05 16.97-4.84 16.91-5.54-.08-11.69-5.59-8.54-16.65.77-2.7.52-5.36 1.29-7.51-.24-.66-.5-1.33-.67-2.03-3.9-15.73-2.05-29.05 6.21-31.07z" stroke="#050202" stroke-width="4" fill="#FFF6D5"/><path d="M1176.087 455.983l-6.42 25.512 32.093 109.7 35.944-17.857c-14.297-53.076-33.65-94.846-61.617-117.355z" stroke="#050202" stroke-width="4" fill="#502D16"/><path d="M1023.72 571.036c-8.258-2.02-17.257 4.88-24.375 19.45-6.738 13.792-16.712 24.217-4.025 32.043 7.072 4.36 23.59-.75 21.853-11.16 1.268 5.7 1.045 16.97 4.835 16.91 5.542-.08 11.69-5.59 8.54-16.65-.768-2.7-.52-5.36-1.287-7.51.25-.66.5-1.33.67-2.03 3.9-15.73 2.05-29.05-6.21-31.07z" stroke="#050202" stroke-width="4" fill="#FFF6D5"/><path d="M1051.388 455.983l6.418 25.512-32.092 109.7-35.943-17.857c14.3-53.076 33.65-94.846 61.62-117.355z" stroke="#050202" stroke-width="4" fill="#502D16"/><path d="M1114.29 779.984c0 4.737-3.45 9.28-9.59 12.628-6.138 3.35-14.464 5.23-23.145 5.23-8.682 0-17.008-1.88-23.147-5.23-6.14-3.35-9.587-7.89-9.587-12.628 0-9.863 14.66-17.858 32.74-17.858s32.74 7.995 32.74 17.858zm77.662 2.552c0 4.736-3.45 9.278-9.588 12.627-6.14 3.35-14.465 5.23-23.146 5.23-8.682 0-17.008-1.88-23.147-5.23-6.13-3.35-9.58-7.89-9.58-12.627 0-9.863 14.66-17.86 32.74-17.86s32.74 7.997 32.74 17.86z" stroke="#050202" stroke-width="4" fill="#504416"/><path d="M1199.498 596.122c5.312 57.704 13.268 154.976 1.1 167.46-12.475 12.798-66.365 23.52-87.332 15.192-20.24-8.04-63.808 4.587-79.17-25.82-15.363-30.405-2.52-103.843-6.155-154.126-7.35-101.737 2.75-180.562 91.68-181.75 75.67-1.01 84.81 77.644 79.88 179.044z" stroke="#050202" stroke-width="4" fill="#5AA02C"/><path d="M1027.73 585.322l172.532.162c-2.173 6.186-1.144 15.018-.49 22.608l-171.39-.324-.652-22.446z" stroke="#000" stroke-width="3.895" fill="#502D16"/><path d="M1164.923 398.954c0 15.19-4.973 29.76-13.825 40.5-8.852 10.742-20.858 16.776-33.376 16.776-12.518 0-24.524-6.034-33.376-16.776-8.852-10.74-13.825-25.31-13.825-40.5 0-15.19 4.98-29.76 13.83-40.5 8.85-10.742 20.86-16.776 33.38-16.776s24.53 6.034 33.38 16.776c8.85 10.74 13.83 25.31 13.83 40.5z" stroke="#050202" stroke-width="3.9" fill="#FFF6D5"/><path d="M1164.856 355.155c-4.483.767-8.95 3.354-10.652 7.483-1.114 2.88.146 6.25 2.633 8.134.93 1.502-.536 3.018-1.544 4.08-1.83 2.32-2.128 5.716-.4 8.16 1.317 2.803.826 6.287-1.294 8.63-1.55 2.55-.93 5.757.54 8.207.39 1.52 2.16 2.57 1.94 4.26.63 1.63-1.06 2.92-2 4.08-1.38 2.18-1.61 4.88-.95 7.31.23 2.5-1.23 5.16.2 7.5 2.88 4.52 8.61 7.09 14.14 6.84 4.81.03 9.76-2 12.55-5.77 1.38-2.17 1.63-4.87.85-7.27.06-2.56 1.26-5.39-.35-7.74-1.01-1.17-1.36-2.67-1.49-4.13-.85-.82-1.98-2.23-1.05-3.33 3.15-1.76 4.16-5.86 2.95-8.99-.24-1.57-2.22-2.45-2.45-3.8 1.39-1.08-1.28-2.5.72-3.25 2.31-1.47 3.4-4.22 3.36-6.77-.1-1.78-.79-3.59-2.3-4.74-1.29-.95-1.16-2.66-.1-3.71 1.19-1.32 2.3-2.83 2.36-4.63.36-3.93-2.53-7.65-6.28-9.15-3.37-1.43-7.18-1.72-10.82-1.56-.21.03-.41.06-.61.1z" stroke="#050202" stroke-width="3.897" fill="#FFF"/><path d="M1072.932 336.11c-1.474 3.213-2.91 4.472-2.713 2.68.19-1.79-1.81-2.776-3.39-3.114-4.86-1.494-10.83 1.106-12.31 5.81-.82 2.176-.43 4.53.19 6.698.24 1.668-1.27 2.75-2.47 3.69-1.76 1.22-3.31 2.846-3.8 4.903-1.05 3.153-.39 6.844 1.97 9.334.96 2.07-.79 4-1.85 5.67-1.42 3-1 6.54.53 9.42.38 2.88-2.83 4.68-3.03 7.44-.74 3.56.86 7.59 4.22 9.48 1.1 1.03.69 2.73-.32 3.67-2.31 3.65-1.63 8.73 1.58 11.71 1.43 2.28-.7 4.73-.32 7.11.38 5.03 5.61 9.43 11.01 8.76 3.55-1.09 7.11-2.35 10.89-2.51 5.58-1.53 8.91-8.13 6.35-13.11-.56-1.22-1-2.51-1.19-3.84-1.33-.01-1.6-2.3-.16-2.35 2.34-.56 3.23-3.31 2.4-5.27-.42-4.09-1.38-8.28-3.63-11.84-1.08-.97-.94-2.4-.05-3.41.91-2.04.92-4.36 2.06-6.32 1.3-2.78.65-6.02-1.07-8.51-.68-.85-1.08-2.22.002-2.96 1.23-.82 2.82-1.11 3.78-2.29 1.07-.98 1.54-2.5 2.74-3.32 1.73-.42 2.816 1.39 4.335 1.8 3.51 1.53 7.89.82 10.77-1.57 1.453-.53 2.594.91 3.06 2.02 2.566 4.14 8.786 5.83 13.24 3.45.77-1.07 2.99-1.39 3.58 0 1.94 2.49 4.06 5.42 7.54 5.95 4.4.87 9.283-1.31 11.26-5.13 1.59-1.3 3.69-.18 5.432.2 3.68.83 7.34-1.04 9.95-3.38 3.032-2.12 7.522-1.22 10.21-3.93 2.88-2.84 3.932-7.3 2.34-10.96.13-2.53 3.24-3.69 3.654-6.14 1.9-4.88-1.39-11.12-6.9-12.21-1.67-.36-3.41-.35-5.1-.1-1.36-.95-.037-2.62-.6-3.85-1.25-5.04-7.204-8.74-12.604-7.37-.945.52-2.456 1.22-3.26.12-1.52-4.19-6.45-6.95-11.09-6.36-3.715.55-6.955 3.26-7.986 6.667-3.908-3.335-10.67-3.05-14.15.71-.01 1.33-2.53 1.5-2.667.15-3.148-4.71-11.2-5.42-15.148-1.236-1.35 1.27-2.16 2.95-2.74 4.64-2.75.107-5.59-1.56-8.24-.214-3.68 1.234-4.9 6.076-6.38 9.29z" stroke="#050202" stroke-width="3.897" fill="#FFF"/><path d="M1106.36 393.075c0 2.366-1.93 4.285-4.31 4.285-2.382 0-4.313-1.92-4.313-4.285 0-1.136.455-2.226 1.263-3.03.81-.803 1.905-1.254 3.05-1.254 1.142 0 2.24.46 3.048 1.26.808.81 1.262 1.9 1.262 3.03z" fill="#000"/><path d="M1076.735 418.444c0 1.65.627 3.18 1.71 4.447-2.99 1.35-4.994 3.92-4.994 6.86 0 4.35 4.39 7.88 9.81 7.88.75 0 1.47-.08 2.16-.21.06.1.12.21.18.3-2 .77-3.66 2.04-4.63 3.64-.88-.21-1.82-.29-2.79-.29-5.41 0-9.8 3.53-9.8 7.88 0 1.9.85 3.64 2.25 5-.54.98-.81 2.09-.81 3.22 0 4.12 3.96 7.5 9 7.84-1.09 1.27-1.71 2.83-1.71 4.49 0 1.12.29 2.17.81 3.13-1.42 1.37-2.29 3.16-2.29 5.08 0 2.85 1.94 5.31 4.77 6.69-.25.7-.4 1.45-.4 2.21 0 4.35 4.39 7.84 9.81 7.84 1.66 0 3.22-.31 4.59-.89-.37.83-.58 1.7-.58 2.63 0 4.34 4.44 7.88 9.85 7.88 1.73 0 3.36-.38 4.77-1.01 1.73 2.23 4.76 3.73 8.28 3.73 4.28 0 7.93-2.18 9.27-5.25 1.55 2.71 4.99 4.58 8.95 4.58 5.42 0 9.81-3.53 9.81-7.87 0-.16-.03-.31-.04-.463 4.56-.673 8.05-3.893 8.05-7.75 0-1.14-.353-2.2-.9-3.172 1.88-1.434 3.06-3.474 3.06-5.72 0-4.345-4.39-7.88-9.803-7.88-.12 0 5.445-3.953 5.445-7.153 0-.65-.09-1.306-.27-1.91 3.18-1.302 5.35-3.93 5.35-6.99 0-3.59-3-6.64-7.105-7.58 1.69-1.41 2.74-3.304 2.74-5.42 0-1.27-.364-2.49-1.033-3.553 2.81-1.387 4.68-3.896 4.68-6.736 0-1.14-.31-2.2-.85-3.18 1.43-1.37 2.297-3.12 2.297-5.04 0-4.342-4.39-7.88-9.806-7.88-.87 0-1.72.13-2.52.3-.82-.18-1.68-.3-2.566-.3-5.42 0-9.807 3.538-9.807 7.88 0 .56.04 1.13.18 1.657-2 .68-3.66 1.88-4.722 3.385-1.52-.78-3.32-1.27-5.26-1.27-3.41 0-6.424 1.39-8.18 3.51-1.607-.91-3.51-1.44-5.62-1.44-1.52 0-2.95.27-4.23.763-.94-3.57-4.907-6.27-9.63-6.27-.747 0-1.46.08-2.16.21-.19-.3-.397-.62-.63-.89 2.98-1.35 4.99-3.92 4.99-6.86 0-4.35-4.387-7.84-9.8-7.84s-9.81 3.49-9.81 7.833z" stroke="#050202" stroke-width="3.897" fill="#FFF"/><path d="M1094.54 422.045c2.29.78 3.25-2.06 17.47-1.88 5.14 5.325 8.27-.396 11.638-.92 11.485 1.88 6.71 5.615 8.938 5.454" stroke="#000" stroke-width="3.897"/><path d="M1136.323 393.566c0 2.366-1.93 4.284-4.31 4.284-2.383 0-4.313-1.918-4.313-4.284 0-1.136.454-2.226 1.263-3.03.808-.803 1.905-1.254 3.05-1.254 1.142 0 2.24.45 3.047 1.254.81.804 1.263 1.894 1.263 3.03z" fill="#000"/><path d="M1449 575.816c6.32 29.473-8.272 38.884-37.143 24.104-31.23-15.987-46.618-12.668-41.907-23.052 5.263-11.6 19.454-28.583 41.907-23.052 13.266 3.268 23.213 13.89 37.144 22zm-264.368-9.832c-8.256-2.02-17.256 4.88-24.373 19.448-6.74 13.793-16.72 24.218-4.03 32.045 7.07 4.362 23.59-.75 21.85-11.16 1.27 5.708 1.04 16.97 4.83 16.917 5.54-.078 11.69-5.59 8.54-16.646-.77-2.702-.52-5.356-1.29-7.508.24-.664.49-1.333.66-2.032 3.89-15.725 2.05-29.044-6.21-31.064z" stroke="#050202" stroke-width="4" fill="#FFF6D5"/><path d="M1212.3 450.93l6.42 25.512-32.092 109.7-35.944-17.857c14.297-53.075 33.65-94.846 61.617-117.355z" stroke="#050202" stroke-width="4" fill="#5AA02C"/><path d="M1275.202 774.932c0 4.736-3.448 9.278-9.587 12.627-6.14 3.35-14.465 5.23-23.147 5.23-8.68 0-17.007-1.88-23.146-5.23-6.14-3.35-9.588-7.9-9.588-12.63 0-9.87 14.656-17.86 32.734-17.86 18.08 0 32.734 7.99 32.734 17.86zm77.663 2.55c0 4.737-3.448 9.28-9.587 12.63-6.14 3.35-14.465 5.23-23.147 5.23-8.68 0-17-1.88-23.14-5.23-6.14-3.35-9.59-7.89-9.59-12.628 0-9.863 14.66-17.858 32.74-17.858 18.08 0 32.74 7.995 32.74 17.858z" stroke="#050202" stroke-width="4" fill="#504416"/><path d="M1418.072 769.947c-.96-115.94-2.082-257.882-5.103-343.078-1.54-43.19 80.63-71.57 91.1 4.32 1.22 5.69-5.44 11.85-13.34 10.65-12.93-68.94-61.65-28.87-61.48-12.79 1.17 112.37 6.89 227.08 5.4 339.23l-16.6 1.65z" stroke="#000" stroke-width="4" fill="#A0892C"/><path d="M1428.32 562.74c0 4.106-6.03 7.435-13.47 7.435s-13.47-3.33-13.47-7.436c0-4.11 6.03-7.44 13.47-7.44s13.47 3.33 13.47 7.43z" stroke="#050202" stroke-width="4" fill="#FFF6D5"/><path d="M1345.805 456.032c16.122 32.878 37.41 60.623 60.334 86.74 3.16 33.08-6.36 40.936-12.84 54.852-24.11-6.32-33.9-9.798-41.08-12.756l-6.42-128.836z" stroke="#050202" stroke-width="4" fill="#5AA02C"/><path d="M1360.41 591.07c5.313 57.704 13.27 154.975 1.103 167.458-12.477 12.8-66.367 23.52-87.334 15.193-20.24-8.03-63.81 4.59-79.17-25.81-15.37-30.4-2.52-103.84-6.16-154.12-7.36-101.73 2.75-180.56 91.68-181.75 75.67-1.01 84.81 77.65 79.88 179.05z" stroke="#050202" stroke-width="4" fill="#447821"/><path d="M1323.353 395.028c0 15.19-4.973 29.76-13.825 40.5-8.852 10.742-20.858 16.776-33.376 16.776-12.518 0-24.524-6.034-33.376-16.776-8.852-10.74-13.825-25.31-13.825-40.5 0-15.19 4.98-29.76 13.83-40.5 8.85-10.742 20.86-16.776 33.38-16.776s24.53 6.034 33.38 16.776c8.85 10.74 13.83 25.31 13.83 40.5z" stroke="#050202" stroke-width="3.9" fill="#FFF6D5"/><path d="M1264.79 389.15c0 2.365-1.93 4.284-4.31 4.284-2.382 0-4.313-1.92-4.313-4.285 0-1.14.454-2.23 1.263-3.03.81-.81 1.905-1.26 3.05-1.26 1.142 0 2.24.45 3.048 1.25.808.8 1.262 1.89 1.262 3.03z" fill="#000"/><path d="M1237.053 484.21c8.892 15.9 49.965 26.485 63.198 17.536 12.4-21.513 16.59-56.46 12.79-80.73-6.68-4.162-11.91-6.06-27.98-5.74-4.87.1-22 1.21-28.46.754-43.28-3.056-29.82 33.885-19.53 68.18z" stroke="#050202" stroke-width="3.897" fill="#28170B"/><path d="M1294.753 389.64c0 2.366-1.93 4.284-4.312 4.284-2.38 0-4.31-1.918-4.31-4.284 0-1.136.46-2.226 1.27-3.03.81-.803 1.91-1.254 3.05-1.254s2.24.45 3.05 1.254c.81.804 1.27 1.894 1.27 3.03z" fill="#000"/><path d="M1188.643 580.27l172.532.162c-2.173 6.185-1.143 15.018-.49 22.608l-171.388-.325-.654-22.445z" stroke="#000" stroke-width="3.895" fill="#502D16"/><path d="M1245.758 325.084c-34.89 5.745-47.745 87.934-37.67 141.127 1.79 8.46 13.22 10.26 19.91 6.49 5.924-2.57 7.12-9.25 7.446-14.96.96-13.76-6.4-76.69 3.65-88.05 10.053-11.35 63.84-8.61 72.802 3.59 8.962 12.2-5.26 85.78 2.287 101.05 7.035 8.77 24.268 4.59 25.395-6.92-2.223-16.82 5.463-84.4 2.82-98.22-2.642-13.82-15.85-35.62-27.21-39.89-26.007-9.77-34.54-9.93-69.43-4.19z" stroke="#050202" stroke-width="3.897" fill="#5AA02C"/><path d="M1331.118 345.093c2.652 6.538 10.69 15.9 10.093 23.895l-128.45.91c2.01-7.155 3.03-13.08 9.06-23.768l109.31-1.037z" stroke="#000" stroke-width="4" fill="#502D16"/><path d="M1248.694 426.344c5.976 5.79 43.623 2.11 46.878-.65 3.254-2.758-14.83 22.454-24.174 22.4-9.346-.056-28.68-27.54-22.704-21.75z" stroke="#000" stroke-width="4" fill="#FFF6D5"/><path d="M572.568 570.807c-6.32 29.472 8.274 38.883 37.145 24.104 31.23-15.98 46.617-12.66 41.906-23.05-5.27-11.6-19.46-28.58-41.91-23.05-13.27 3.27-23.22 13.89-37.15 22z" stroke="#050202" stroke-width="4" fill="#FFF6D5"/><path d="M597.42 764.938c-1.164-115.976-11.295-229.172-2.49-343.08-1.77-12.12 22.353-9.128 17.494 4.188-9.543 112.128 1.565 225.09 1.595 337.243l-16.6 1.64z" stroke="#000" stroke-width="4" fill="#A0892C"/><path d="M593.25 557.73c0 4.106 6.03 7.436 13.47 7.436s13.47-3.33 13.47-7.436c0-4.107-6.03-7.437-13.47-7.437s-13.47 3.33-13.47 7.437z" stroke="#050202" stroke-width="4" fill="#FFF6D5"/><path d="M675.764 451.023c-16.122 32.877-37.408 60.623-60.333 86.74-3.16 33.08 6.36 40.936 12.84 54.85 24.1-6.32 33.9-9.797 41.08-12.755l6.42-128.835z" stroke="#050202" stroke-width="4" fill="#504416"/><path d="M836.937 560.974c8.257-2.02 17.256 4.88 24.374 19.45 6.74 13.792 16.72 24.217 4.03 32.043-7.07 4.363-23.59-.75-21.85-11.16-1.27 5.71-1.04 16.97-4.83 16.917-5.54-.077-11.69-5.59-8.54-16.645.77-2.71.52-5.36 1.29-7.51-.24-.67-.49-1.34-.66-2.03-3.9-15.73-2.05-29.05 6.21-31.07z" stroke="#050202" stroke-width="4" fill="#FFF6D5"/><path d="M809.268 445.92l-6.418 25.513 32.092 109.7 35.943-17.857c-14.296-53.076-33.65-94.846-61.617-117.355zm-62.9 324.002c0 4.737 3.45 9.28 9.587 12.628 6.138 3.35 14.465 5.23 23.146 5.23 8.69 0 17.01-1.88 23.15-5.23 6.14-3.35 9.59-7.89 9.59-12.628 0-9.863-14.65-17.858-32.73-17.858-18.07 0-32.73 7.995-32.73 17.858zm-77.664 2.552c0 4.736 3.45 9.278 9.588 12.627 6.138 3.35 14.465 5.24 23.146 5.24 8.682 0 17.008-1.88 23.147-5.23 6.14-3.35 9.587-7.89 9.587-12.63 0-9.86-14.655-17.86-32.734-17.86-18.078 0-32.734 8-32.734 17.86z" stroke="#050202" stroke-width="4" fill="#504416"/><path d="M661.158 586.06c-5.312 57.704-13.268 154.976-1.1 167.46 12.475 12.798 66.365 23.52 87.332 15.192 20.24-8.04 63.808 4.587 79.17-25.82 15.363-30.405 2.52-103.843 6.155-154.126 7.352-101.737-2.75-180.562-91.68-181.75-75.67-1.01-84.808 77.644-79.877 179.044z" stroke="#050202" stroke-width="4" fill="#806600"/><path d="M698.217 390.02c0 15.19 4.973 29.758 13.825 40.5 8.85 10.74 20.857 16.775 33.376 16.775 12.518 0 24.524-6.035 33.375-16.776 8.852-10.75 13.825-25.31 13.825-40.5 0-15.2-4.973-29.76-13.825-40.51-8.85-10.74-20.857-16.78-33.375-16.78-12.52 0-24.525 6.03-33.376 16.77-8.852 10.74-13.825 25.31-13.825 40.5z" stroke="#050202" stroke-width="3.9" fill="#FFF6D5"/><path d="M756.78 384.14c0 2.366 1.93 4.284 4.31 4.284 2.382 0 4.312-1.918 4.312-4.284 0-1.137-.454-2.226-1.263-3.03-.81-.803-1.91-1.255-3.05-1.255-1.15 0-2.24.452-3.05 1.255-.81.804-1.27 1.893-1.27 3.03z" fill="#000"/><path d="M784.516 479.2c-8.89 15.9-49.965 26.485-63.198 17.536-12.39-21.513-16.588-56.46-12.782-80.73 6.686-4.16 11.913-6.06 27.983-5.738 4.87.097 22 1.21 28.46.753 43.28-3.05 29.82 33.89 19.53 68.18z" stroke="#050202" stroke-width="3.897" fill="#803300"/><path d="M726.816 384.63c0 2.367 1.93 4.285 4.312 4.285 2.38 0 4.312-1.918 4.312-4.284 0-1.13-.455-2.22-1.263-3.03-.81-.8-1.905-1.25-3.05-1.25-1.142 0-2.24.45-3.048 1.26-.81.81-1.27 1.9-1.27 3.03z" fill="#000"/><path d="M832.926 575.26l-172.532.162c2.173 6.186 1.144 15.018.49 22.608l171.39-.324.652-22.446z" stroke="#000" stroke-width="3.895" fill="#2D5016"/><path d="M775.81 320.075c34.89 5.744 47.747 87.934 37.673 141.126-1.79 8.46-13.22 10.26-19.913 6.49-5.923-2.57-7.118-9.25-7.445-14.96-.96-13.76 6.402-76.69-3.65-88.05-10.053-11.35-63.84-8.61-72.8 3.59-8.964 12.2 5.26 85.78-2.288 101.05-7.035 8.76-24.268 4.58-25.395-6.92 2.222-16.82-5.464-84.4-2.82-98.22 2.64-13.82 15.85-35.61 27.21-39.89 26.006-9.77 34.54-9.93 69.43-4.19z" stroke="#050202" stroke-width="3.897" fill="#504416"/><path d="M690.452 340.084c-2.652 6.537-10.69 15.9-10.094 23.895l128.457.9c-2.005-7.16-3.03-13.08-9.06-23.77l-109.303-1.04z" stroke="#000" stroke-width="4" fill="#2D5016"/><path d="M772.876 421.334c-5.977 5.79-43.623 2.11-46.878-.65-3.255-2.757 14.83 22.455 24.174 22.4 9.345-.055 28.68-27.54 22.704-21.75z" stroke="#000" stroke-width="4" fill="#FFF6D5"/><g transform="translate(68 72)"><ellipse stroke="#000" stroke-width="3.5" fill="#FFF" transform="rotate(-135.477 290.066 118.666)" cx="290.066" cy="118.666" rx="75.453" ry="92.406"/><ellipse stroke="#000" stroke-width="3.5" fill="#FFF" transform="rotate(-44.523 119.78 118.666)" cx="119.78" cy="118.666" rx="75.453" ry="92.406"/><path d="M143.79 135.696l6.417 25.512-11.185 109.052L95.892 255c14.297-53.077 19.93-96.795 47.897-119.304z" stroke="#050202" stroke-width="4" fill="#FFF"/><ellipse stroke="#000" stroke-width="4" fill="#502D16" transform="matrix(-1 0 0 1 407.697 0)" cx="203.848" cy="97.97" rx="63.408" ry="71.157"/><path d="M268.294 135.696l-6.42 25.512L273.06 270.26 316.19 255c-14.296-53.077-19.93-96.795-47.896-119.304z" stroke="#050202" stroke-width="4" fill="#FFF"/><ellipse stroke="#050202" stroke-width="4" fill="#E6C2AA" transform="matrix(-1 0 0 1 476.253 0)" cx="238.126" cy="459.698" rx="32.734" ry="17.858"/><ellipse stroke="#050202" stroke-width="4" fill="#E6C2AA" transform="matrix(-1 0 0 1 320.927 0)" cx="160.463" cy="462.249" rx="32.734" ry="17.858"/><path d="M138.43 285.507c-4.518 57.766-15.686 146.037-4.856 157.966 34.48 17.88 114.923 24.43 141.655-10.637 13.07-30.44-8.97-96.993-5.88-147.33 16.44-98.954 9.39-187.6-66.89-188.91-67.23-1.152-81.39 87.4-64.04 188.91z" stroke="#000" stroke-width="3.691" fill="#FFF"/><path d="M231.914 119.72c-5.976 5.79-54.378.794-57.633-1.965-3.25-2.76 13.11 37.9 29.14 38.02 15.38.113 34.47-41.845 28.5-36.055z" stroke="#000" stroke-width="4" fill="#E6C2AA"/><ellipse stroke="#050202" stroke-width="3.9" fill="#E6C2AA" transform="matrix(-1 0 0 1 408.8 0)" cx="204.356" cy="79.794" rx="47.201" ry="57.276"/><ellipse fill="#000" transform="matrix(-1 0 0 1 440.33 0)" cx="221.484" cy="66.338" rx="4.312" ry="4.284"/><ellipse fill="#000" transform="matrix(-1 0 0 1 382.946 0)" cx="192.792" cy="66.829" rx="4.312" ry="4.284"/><path d="M227.28 93.2c-5.975 5.79-43.622 2.11-46.877-.648-3.254-2.76 14.83 22.454 24.174 22.4 9.346-.056 28.68-27.54 22.704-21.75z" stroke="#000" stroke-width="4" fill="#FFD5D5"/><path d="M177.972 7.55c-34.89 5.746-47.746 87.935-37.672 141.128 1.79 8.45 13.22 10.257 19.913 6.488 5.923-2.576 7.118-9.25 7.445-14.965-.37-9.79-10.92-62.84 3.65-88.05 14.57-25.21 64.72-19.61 72.8 3.59 8.082 23.2-5.26 86.45 2.288 101.05 7.035 8.76 24.268 4.59 25.395-6.92-2.22-16.82 5.47-84.4 2.83-98.22-2.64-13.82-15.85-35.62-27.21-39.89-26-9.77-34.54-9.93-69.42-4.19z" stroke="#050202" stroke-width="3.897" fill="#FC0"/><path d="M136.872 270.04l135.975.167c-1.713 6.323-.9 15.35-.386 23.108l-135.07-.332-.51-22.942z" stroke="#000" stroke-width="3.496" fill="#FC0"/><path d="M312.002 258c-2.03 6.303-.514 10.91-5.353 25.92-4.71 14.6-6.11 28.73-20.57 25.004-8.06-2.076-15.73-17.484-6.95-23.417-5.04 3.026-13.08 10.956-15.66 8.194-3.77-4.03-4-12.26 6.23-17.62 2.49-1.31 1.32-2.18 3.41-3.12.31-.63 3.33-2.65 3.96-3.02 10.71-6.16 29.27-10.6 34.91-11.94zm-211.922 0c2.032 6.303.514 10.91 5.353 25.92 4.708 14.6 6.11 28.73 20.564 25.004 8.057-2.076 15.73-17.484 6.95-23.417 5.033 3.026 13.082 10.956 15.658 8.194 3.768-4.03 3.995-12.26-6.23-17.62-2.5-1.31-1.32-2.18-3.42-3.12-.316-.63-3.332-2.65-3.96-3.02-10.71-6.16-29.274-10.6-34.914-11.93z" stroke="#050202" stroke-width="4" fill="#E6C2AA"/></g><g transform="matrix(-1 0 0 1 315 595)"><rect fill="#000" x="96.016" y="118.701" width="24.023" height="91.815" rx="8"/><rect fill="#000" x="193.867" y="118.701" width="24.023" height="91.815" rx="8"/><path d="M192.792 3.834c-12.403 0-23.862 3.004-33.24 8.05-8.636-3.932-18.757-6.195-29.585-6.195-30.703 0-55.73 18.18-57.185 41.04-14.587 7.82-24.106 20.64-24.106 35.16 0 23.83 25.627 43.17 57.265 43.17 3.43 0 6.79-.28 10.05-.71 8.69 15.5 29.04 26.4 52.78 26.4 17.35 0 32.9-5.82 43.41-15 2.14.18 4.32.31 6.52.31 28.47 0 52.07-15.65 56.51-36.15 13.93-7.88 22.96-20.45 22.96-34.57 0-23.83-25.66-43.13-57.3-43.13-.39 0-.77-.01-1.15 0-10.37-11.1-27.52-18.39-46.9-18.39z" stroke="#000" stroke-width="3.458" fill="#FFF"/><rect fill="#000" x="230.719" y="119.069" width="24.023" height="91.815" rx="8"/><rect fill="#000" x="130.327" y="118.701" width="24.023" height="91.815" rx="8"/><ellipse stroke="#000" stroke-width="3.5" fill="#CCC" transform="rotate(32 91.97 35.598)" cx="91.971" cy="35.598" rx="14.614" ry="17.679"/><ellipse stroke="#000" stroke-width="3.5" fill="#CCC" cx="36.793" cy="27.5" rx="16.5" ry="20.5"/><path d="M64.82 22.504c18.807 6.514 27.182 31.633 18.705 56.104-4.07 11.752-11.562 21.78-20.826 27.877-9.27 6.097-19.55 7.765-28.58 4.637-9.03-3.13-16.08-10.797-19.59-21.32-3.51-10.52-3.19-23.033.88-34.785 4.07-11.75 11.56-21.777 20.82-27.877 9.26-6.09 19.54-7.76 28.57-4.63z" stroke="#000" stroke-width="3.458" fill="#CCC"/><path d="M46.738 47.16c1.357 3.24-.187 6.974-3.448 8.34-3.26 1.364-7.004-.156-8.36-3.396-1.357-3.24.187-6.974 3.448-8.34 3.26-1.365 7.004.155 8.36 3.396z" fill="#000"/><path d="M26.43 74.81c9.742 21.522 21.763 16.996 39.237 9.23" stroke="#000" stroke-width="3.458" stroke-linecap="round"/><path d="M72.062 53.443c1.357 3.24-.187 6.974-3.448 8.34-3.26 1.364-7.004-.156-8.36-3.396-1.358-3.24.186-6.974 3.447-8.34 3.27-1.364 7.01.156 8.37 3.396z" fill="#000"/></g></g></svg>