<svg width="1540" height="820" viewBox="0 0 1540 820" xmlns="http://www.w3.org/2000/svg" xmlns:xlink="http://www.w3.org/1999/xlink"><title>story na 02</title><defs><path id="a" d="M0 0h1540v820H0z"/><mask id="b" x="0" y="0" width="1540" height="820" fill="#fff"><use xlink:href="#a"/></mask></defs><g fill="none" fill-rule="evenodd"><use stroke="#000" mask="url(#b)" stroke-width="8" fill="#402412" xlink:href="#a"/><path stroke="#000" stroke-width="4" fill="#371F0F" d="M235 132h1066v556H235z"/><path d="M4 2l229.457 129.306c0 .384.523.694 1.174.694h1065.19c.65 0 1.18-.31 1.18-.694L1538 2H4z" stroke="#000" stroke-width="4" stroke-linejoin="bevel" fill="#28170B"/><path d="M4 818l229.457-129.306c0-.384.523-.694 1.174-.694h1065.19c.65 0 1.18.31 1.18.694L1538 818H4z" stroke="#000" stroke-width="4" stroke-linejoin="bevel" fill="#2B2200"/><path stroke="#000" stroke-width="4" fill="#00002B" d="M860 190h380v265H860z"/><path fill="#FFE680" d="M935.89 260.923l-11.36-10.72-13.362 8.15 6.795-14L906 234.295l15.558 2.068 5.97-14.364 2.82 15.27L946 238.45l-13.815 7.375M1014 347.043l-15.566-1.786-5.697 14.443-3.093-15.196-15.644-.898L987.654 336l-3.97-15 11.53 10.498 13.19-8.372-6.527 14.095 12.123 9.83m175.11 60.13l-14.287-6.96-10.435 11.91 2.28-15.59L1152 390.4l15.696-2.675 1.37-15.7 7.42 13.94L1192 382.4l-11.11 11.29 8.22 13.5m-280.405 20.74l-7.184-14.01-15.52 3.31 11.25-11.088-7.98-13.58 14.14 7.16L913.98 388l-2.512 15.513 14.53 6.34-15.69 2.43-1.606 15.63"/><path fill="#FC0" d="M1093.18 295.82L1048 278l45.18-17.82L1111 215l17.82 45.18L1174 278l-45.18 17.82-17.82 76.74"/><path d="M1387.822 673.068c-4.218-35.467-6.177-78.575-14.484-92.342-11.237-23.41-40.197-30.41-63.754-34.853-45.41-8.38-97.777 5.935-119.104 7.65-21.326 1.713-34.004 10.205-27.023-4.04 6.98-14.247 38.13-12.988 45.395-33.497 8.34-25.197-30.25-15.408-40.546-8.006-10.296 7.403-18.432 27.314-30.203 9.775-11.772-17.54-47.64-21.015-60.394-8.92-12.76 12.094-16.04 18.093-30.15 10.385-12.71-5.477-43.22-6.395-35.74 14.364 8.55 18.377 40.88 10.81 44.11 32.633.22 25.126 9.43 48.736 18.29 71.782 27.43 25.2 36.36 24.88 48.27 31.27 16.52 12.25 29.87 29.14 49.69 36.42 22.5 12.28-1.05 38.61-10.93 51.95 12.11 16.36 26.23 5.09 38.65 8.17 14.93 7.38 39.99 11.19 35.37-10.5 2.69-71.37 40.79-77.02 51.4-51.45 10.61 25.57 10.14 27.07 5.55 46.17-14.79 18.96 18.08 4.16 27.45 12.62 17.64 13.91 29.63 17.95 34.99-2.14-11.63-21.06.05-52.73 7.65-73.05 7.39-24.01 9.68-50.08 5.18-74.9 8.78 5.56 12.09 98.27 28.92 98.25-.68-7.17-7-24.08-8.63-37.77z" stroke="#000" stroke-width="3.5" stroke-linejoin="round" fill="#FFF"/><path d="M1299.592 544.73c-21.93 2.025-11.753 25.546-7.617 40.92 17.95 52.234 91.205 62.256 75.015-7.773-1.99-22.46-44.176-31.005-67.398-33.147z" stroke="#000" stroke-width="3.5" fill="#A05A2C"/><path d="M1263.062 689.234c-16.657 9.544-11.56 15.88-8.827 23.932 2.16 6.356 10.333 11.115 17.036 10.74 5.32-.295 7.28-11.106 12.47-9.958 5.5 1.214 2.33 12.966 7.53 15.116 4.46 1.842 9.59-2.126 13.71-4.62 3.21-1.94 7.05-4.18 8.14-7.77 2.3-7.61.7-18.006-5.27-23.25-11.26-9.89-24.67-14.29-44.77-4.19" stroke="#000" stroke-width="3.5" fill="#FFD5D5"/><path d="M1308.63 694.738c-2.14 15.115 9.522 30.06 10.436 45.637.298 5.085-5.45 15.735-1.64 15.194 5.094-.35 29.92 2.75 32.414-.96-.58-10.31-.954-23.16 1.667-32.78 1.682-7.2 5.807-18.43 7.004-25.87 2.06-8.69-4.15-17.69-12.34-20.43-15.65-3.5-36.73 1.33-37.53 19.19zm-217.104-186.924c-20.284-12.115-35.258 37.24-37.3 51.363 2.28 16.723-1.263 40.69 22.15 39.544 16.67-3.78 30.325-20.14 34.81-36.45 5.554-22.46-1.666-40.02-19.66-54.45zm50.512 171.82c-6.99 8.05 26.03 25.216 31.884 26.282 9.878-.178 7.33-19.815 3.77-23.874-7.52-8.57-28.835-10.26-35.654-2.408z" stroke="#000" stroke-width="3.5" fill="#A05A2C"/><path d="M1238.432 766.455c-1.187-14.75-21.37-24.48-25.956-23.745-4.586.734-11.888 3.295-14.61 9.478-9.732-1.593-20.486-5.22-30.66-1.634-3.524 2.123-9.17 10.853-8.847 15.45 3.13 12.15 40.74 8.14 51.32 8.625 9.78 1.13 29.94 6.57 28.75-8.18zm87.808 9.572c7.087.63 24.3 2.405 29.582-4.095 4.5-11.71-3.943-21.926-14.87-24.77-3.7-.966-7.584-1.334-11.384-.76-3.348.508-9.318 4.856-12.042 4.64-3.234-.257-8.844-5.49-12.923-6.335-5.275-1.09-8.315-.72-11.775 3.678-1.626 2.062-2.81 4.696-3.525 7.196-1.267 4.44-1.14 4.76 2.91 6.18 4.095 1.43 9.36 1.35 13.657 1.78 1.455.15 5.477-.39 6.453.47.36.32.29 3.83.923 4.79 3.727 5.68 5.908 6.62 12.995 7.25z" stroke="#000" stroke-width="3.5" fill="#CCC"/><path d="M1089.96 556.205c.02 4.046-2.094 7.336-4.718 7.347-2.623.01-4.764-3.26-4.782-7.306-.017-4.047 2.096-7.336 4.72-7.347 2.623-.02 4.764 3.25 4.78 7.3z" fill="#000"/><path d="M1156.398 631.383c0 8.08-4.55 15.83-12.645 21.544-8.096 5.714-19.076 8.924-30.526 8.924-23.842 0-43.17-13.64-43.17-30.46s19.328-30.47 43.17-30.47c11.45 0 22.43 3.21 30.526 8.93s12.645 13.47 12.645 21.55z" stroke="#000" stroke-width="3.5" fill="#FFD5D5"/><path d="M1089.306 643.2c17.945 14.215 40.677 6.284 44.538-.103" stroke="#000" stroke-width="3.5" stroke-linecap="round"/><path d="M1140.276 552.613c.017 4.046-2.095 7.335-4.72 7.347-2.623.01-4.764-3.26-4.78-7.307-.018-4.046 2.094-7.336 4.718-7.347 2.623-.01 4.764 3.26 4.782 7.307zm-32.53 69.407c.017 4.046-2.096 7.335-4.72 7.346-2.623.01-4.763-3.26-4.78-7.307-.017-4.05 2.096-7.34 4.72-7.35 2.623-.01 4.764 3.26 4.78 7.3zm20.952-.212c.017 4.046-2.096 7.336-4.72 7.347-2.623.01-4.764-3.26-4.78-7.307-.017-4.047 2.096-7.336 4.72-7.347 2.623-.01 4.763 3.26 4.78 7.31z" fill="#000"/><path d="M1053.46 535.546c-.468 2.34-2.632 4.24-6.013 5.285-3.382 1.05-7.705 1.15-12.02.28-8.98-1.8-15.47-7.21-14.494-12.08.977-4.87 9.05-7.36 18.033-5.56 4.313.87 8.264 2.63 10.982 4.89 2.718 2.27 3.982 4.86 3.513 7.2zm145.802-25.534c1.133 2.1.556 5.013-1.604 8.097-2.16 3.08-5.727 6.08-9.916 8.34-8.723 4.7-17.708 4.97-20.07.6-2.36-4.38 2.8-11.74 11.52-16.45 4.19-2.26 8.658-3.6 12.42-3.71 3.765-.12 6.516 1 7.65 3.1z" stroke="#000" stroke-width="3.573" fill="#FFD5D5"/><path d="M1278.122 610.832c0 8.674-4.703 16.992-13.075 23.125-8.37 6.133-19.725 9.578-31.564 9.578-24.654 0-44.64-14.64-44.64-32.703 0-18.06 19.986-32.702 44.64-32.702 11.84 0 23.193 3.445 31.564 9.578 8.372 6.133 13.075 14.45 13.075 23.124z" stroke="#000" stroke-width="3.505" fill="#A05A2C"/><path d="M1147.92 649.648c11.743-12.22 30.058-56.073 13.477-94.53m25.685 219.135c1.785-2.67 1.296-10.48 10.395-21.54 10.51-12.777 4.918-37.89-.914-36.99-5.83.9-12.404.16-23.3-9.498m143.867 44.955c-4.05 2.253-4.608 9.518-4.996 12.47" stroke="#000" stroke-width="3.5"/><path d="M463.85 368.097c.896 14.876.34 31.347-8.775 43.815 2.054 31.206 27.592 68.776 52.223 78.118-21.396-6.353-21.987 25.384-26.11 43.208-4.913 13.678-50.696-8.86-47.925 5.264 10.67 50.193-28.15 89.786-30.2 137.633-8.277 1.347-17.155 5.817-24.45 9.872 1.472-17.143-7.69-46.036-5.802-54.194.34-8.948 8.19-20.48 7.61-26.774-4.5 14.44-9.4 30.61-13.43 46.1-2.63 10.12 3.74 34.63-4.62 32.37-11.43 1.29-24.14 9.61-34.01 11.96 2.93-16.15-8.04-70.31-13.68-86.09 1.38 4.12 9.02 36.79 9.64 40.86-3.88-1.51-3.49-.28-8.41-1.04-5.43 3.91-4.23 27.15-1.2 33.07-3.68 2.4-17.29 3.46-20.82 6.07-12.53-3.46-11.36-31.05-8.64-41.18-19.07-9.35-10.14-33.79-22.29-51.63 4.25 6.55 8.54 17.26 8.77 29.3 1.45 8.87 12.03 59.61.15 54.33-19.04-4.7-22.85 5.95-24-8-10.43-49.66-60.02-92.47-30.38-143.24 29.81-37.54 76.72-18.51 116.42-9.3 38.38 8.32 36.36-48.62 40.72-75.64-1.32-11.66-14.36-15.81-19.84-25.11-12.07-16.4-19-36.73-18.42-57.16 23 5.36 39.52 25.45 46.77 47.09 9.49 20.51 45.08 18.78 51.32-5.24 5.16-21.18 8.35-44.51 23.75-61.16 0 0 4.32 17.76 5.67 26.67z" stroke="#000" stroke-width="3.5" stroke-linecap="round" stroke-linejoin="round" fill="#A05A2C"/><path d="M442.312 510.69c0 7.694 4.03 15.073 11.2 20.513 7.17 5.44 16.894 8.497 27.035 8.497 10.14 0 19.865-3.056 27.036-8.497 7.17-5.44 11.198-12.82 11.198-20.513 0-7.694-4.02-15.073-11.19-20.514-7.17-5.44-16.89-8.497-27.03-8.497s-19.86 3.05-27.03 8.49c-7.17 5.44-11.2 12.82-11.2 20.51z" stroke="#000" stroke-width="3.106" fill="#FFD5D5"/><path d="M408.69 687.764c.096.272.194.532.29.81 4.207 12.055.55 13.818-11.59 14.972 13.15-1.25 15.467-3.64 11.3-15.782zm44.97-273.15c1.054-3.506 3.63-6.456 5.692-9.58-1.488 3.564-3.366 6.8-5.693 9.58zm.53 5.376c1.333 1.172 2.628 2.352 3.886 3.544-.115-.1-.23-.205-.344-.306-1.42-1.238-2.71-2.146-3.542-3.238zm-40.162-.04c-.677.1-1.36.187-2.053.254-.504-.133-1.036-.28-1.593-.44 1.257.14 2.476.198 3.646.186zm44.14-78.528c.29-.313.56-.636.86-.945.09.3.178.614.266.92-.176-.047-.357-.083-.548-.085-.185-.002-.378.038-.578.11z"/><path d="M276.672 680.77c1.686 2.38 1.93 5.43 2.85 8.145 1.126 4.018 1.698 8.19 3.185 12.092-6.825 6.854-38.59 13.19-38.033-1.856 1.126-6.34.89-14.36 5.463-19.36 6.187-3.1 20.755-3.53 26.535.98z" stroke="#000" stroke-width="3.5" fill="#520"/><path d="M454.82 362.635c.294 6.608 6.17 36.677-5.636 37.548-11.66-4.924 5.637-37.548 5.637-37.548z" stroke="#000" stroke-width="3.5" fill="#FFD5D5"/><path d="M377.873 449.933c1.54 7.314 2.023 12.144-2.72 22.857-4.745 10.712-11.076 30.75-17.5 43.724-6.424 12.973.658 46.36 4.883 54.2 4.225 7.84-10.024 7.81-13.543 2.552-10.327-11.677-3.095-22.328-6.594-43.11-3.5-20.783 6.2-50.907 13.17-76.035 2.14-6.45 3.26-21.58 8.89-23.17 5.63-1.59 11.86 11.67 13.4 18.99zm-160.143 78.1c-11.846 34.307-8.23 74.435 9.71 105.29 3.28 4.457 8.44 19.776 1.598 23.87-5.97 3.57-11.96-2.082-17.69-11.076-18.554-32.875-13.435-70.442-.366-104.22 1.613-4.112 5.1-9.765 6.748-13.863zm97.217 155.4c4.11 6.79 6.545 15.678 5.79 23.715-7.542 3.26-23.35 3.688-26.93-4.704-.52-2.234-3.933-12.145-2.9-14.128 4.272-3.288 18.558-7.323 24.04-4.882zm61.753 25.12c-2.94 6.903-45.726 4.106-48.914-1.65-7.673-13.85 21.604-20.723 28.865-22.775 14.91-6.41 17.43 13.143 20.05 24.424zm26.868-29.908c11.8 18.373 8.508 25.342-14.69 25.657-1.716.59-3.86.157-5.615-.362-1.254-.858-5.657-14.423-4.91-16.635 7.252-4.403 16.323-14.25 25.215-8.66zM386.194 398.42c6.85-12.434 22.4-7.94 33.865-5.824 11.16-2.677 10.13 8.397 13.48 15.895 1.85 2.25 5.84 1.3 7.16 4.17-4.23 29.63-63.08 11.29-54.51-14.23z" stroke="#000" stroke-width="3.5" fill="#520"/><path d="M447.222 573.028c-1.752 2.973 1.398-2.368 0 0zM438.03 443.4c2.092 3.464 5.61 5.172 7.855 3.815 2.245-1.358 2.37-5.265.275-8.728-2.093-3.463-5.61-5.17-7.855-3.814-2.245 1.358-2.37 5.265-.276 8.728zm-25.756 7.315c1.098 3.895 4.034 6.476 6.56 5.765 2.525-.71 3.683-4.445 2.585-8.34-1.1-3.895-4.04-6.476-6.56-5.765-2.53.71-3.69 4.445-2.59 8.34z" fill="#000"/><path d="M441.207 533.368c-20.916 1.127-37.48-12.53-47.815-27.99" stroke="#000" stroke-width="3.5" stroke-linecap="round"/><path d="M349.24 376.948c5.11 5.608 32.366 27.796 22.6 37.23-13.89 4.22-22.6-37.23-22.6-37.23z" stroke="#000" stroke-width="3.5" fill="#FFD5D5"/><path d="M451.333 534.99c-24.062-9.096-29.536-35.59-25.606-42.998" stroke="#000" stroke-width="3.5" stroke-linecap="round"/><path d="M408.69 687.764c.096.272.194.532.29.81 4.207 12.055.55 13.818-11.59 14.972 13.15-1.25 15.467-3.64 11.3-15.782zm44.97-273.15c1.054-3.506 3.63-6.456 5.692-9.58-1.488 3.564-3.366 6.8-5.693 9.58zm.53 5.376c1.333 1.172 2.628 2.352 3.886 3.544-.115-.1-.23-.205-.344-.306-1.42-1.238-2.71-2.146-3.542-3.238zm-40.162-.04c-.677.1-1.36.187-2.053.254-.504-.133-1.036-.28-1.593-.44 1.257.14 2.476.198 3.646.186zm44.14-78.528c.29-.313.56-.636.86-.945.09.3.178.614.266.92-.176-.047-.357-.083-.548-.085-.185-.002-.378.038-.578.11z"/><path d="M447.222 573.028c-1.752 2.973 1.398-2.368 0 0zM438.03 443.4c2.092 3.464 5.61 5.172 7.855 3.815 2.245-1.358 2.37-5.265.275-8.728-2.093-3.463-5.61-5.17-7.855-3.814-2.245 1.358-2.37 5.265-.276 8.728zm-25.756 7.315c1.098 3.895 4.034 6.476 6.56 5.765 2.525-.71 3.683-4.445 2.585-8.34-1.1-3.895-4.04-6.476-6.56-5.765-2.53.71-3.69 4.445-2.59 8.34zm87.61 62.375c.873 3.95 3.658 6.694 6.22 6.127 2.562-.566 3.93-4.228 3.056-8.18-.873-3.95-3.658-6.694-6.22-6.128-2.562.56-3.93 4.22-3.056 8.18zm-23.354 8.347c1.097 3.895 4.033 6.476 6.56 5.765 2.524-.71 3.682-4.445 2.585-8.34-1.097-3.895-4.034-6.476-6.56-5.765-2.525.71-3.682 4.446-2.585 8.34z" fill="#000"/><path d="M794.707 519.154c-8.256-2.02-17.256 4.88-24.374 19.448-6.738 13.793-16.712 24.218-4.024 32.045 7.07 4.362 23.58-.75 21.85-11.16 1.27 5.708 1.04 16.97 4.83 16.917 5.54-.078 11.69-5.59 8.54-16.646-.77-2.702-.52-5.356-1.29-7.508.24-.664.49-1.333.66-2.032 3.89-15.725 2.05-29.044-6.21-31.064z" stroke="#050202" stroke-width="4" fill="#DEAA87"/><path d="M822.376 411.677l6.42 25.512-32.094 109.7-35.943-17.86c14.29-53.08 33.65-94.85 61.61-117.36z" stroke="#050202" stroke-width="4" fill="#D45500"/><path d="M974.744 519.154c8.257-2.02 17.256 4.88 24.374 19.448 6.738 13.793 16.712 24.218 4.025 32.045-7.072 4.362-23.59-.75-21.853-11.16-1.27 5.708-1.045 16.97-4.835 16.917-5.542-.078-11.69-5.59-8.542-16.646.77-2.702.52-5.356 1.29-7.508-.243-.664-.495-1.333-.668-2.032-3.896-15.725-2.048-29.044 6.21-31.064z" stroke="#050202" stroke-width="4" fill="#DEAA87"/><path d="M819.222 373.95c0 18.873 6.68 36.972 18.572 50.316 11.89 13.345 28.02 20.842 44.836 20.842 35.02 0 63.408-31.858 63.408-71.157 0-39.29-28.39-71.15-63.408-71.15-16.817 0-32.945 7.5-44.836 20.84-11.89 13.35-18.572 31.45-18.572 50.32z" stroke="#000" stroke-width="4" fill="#502D16"/><path d="M947.075 411.677l-6.418 25.512 32.092 109.7 35.94-17.86c-14.3-53.08-33.65-94.85-61.62-117.36z" stroke="#050202" stroke-width="4" fill="#D45500"/><path d="M884.174 735.678c0 4.737 3.45 9.28 9.588 12.628 6.138 3.35 14.464 5.23 23.146 5.23s17.008-1.88 23.147-5.23c6.138-3.35 9.587-7.89 9.587-12.628 0-9.863-14.655-17.858-32.734-17.858-18.08 0-32.734 7.995-32.734 17.858zm-77.664 2.552c0 4.736 3.45 9.278 9.59 12.627 6.137 3.35 14.463 5.23 23.145 5.23s17.008-1.88 23.147-5.23c6.138-3.35 9.587-7.89 9.587-12.627 0-9.863-14.66-17.86-32.74-17.86-18.08 0-32.74 7.997-32.74 17.86z" stroke="#050202" stroke-width="4" fill="#2B1100"/><path d="M798.965 551.816c-5.312 57.704-13.83 155.543-1.1 167.46 40.528 17.86 135.08 24.402 166.502-10.627 15.363-30.41 2.52-103.85 6.155-154.13 7.352-101.74-2.75-180.56-91.68-181.75-75.67-1.01-84.808 77.64-79.877 179.04z" stroke="#050202" stroke-width="4" fill="#D45500"/><path d="M836.024 355.775c0 15.19 4.973 29.76 13.824 40.5 8.852 10.74 20.858 16.776 33.376 16.776 12.52 0 24.524-6.03 33.376-16.77 8.852-10.74 13.825-25.31 13.825-40.5 0-15.19-4.973-29.76-13.825-40.5-8.852-10.74-20.857-16.77-33.376-16.77-12.518 0-24.524 6.04-33.376 16.78-8.85 10.74-13.824 25.31-13.824 40.5z" stroke="#050202" stroke-width="3.9" fill="#DEAA87"/><path d="M893.315 343.582c0 2.366 1.93 4.284 4.312 4.284 2.38 0 4.31-1.918 4.31-4.284 0-1.136-.453-2.226-1.26-3.03-.81-.803-1.907-1.254-3.05-1.254-1.144 0-2.24.45-3.05 1.254-.808.804-1.262 1.894-1.262 3.03zm-28.692.49c0 2.367 1.93 4.285 4.312 4.285 2.38 0 4.312-1.918 4.312-4.284 0-1.137-.455-2.226-1.263-3.03-.81-.803-1.906-1.255-3.05-1.255-1.143 0-2.24.452-3.048 1.255-.808.804-1.263 1.893-1.263 3.03z" fill="#000"/><path d="M899.696 390.39H866.72l-6.93 341.755c12.942 1.288 32.294 2.33 42.216.46l-2.31-342.215z" stroke="#000" stroke-width="4" fill="#2CA02C"/><path d="M882.8 429.743c19.038-.05 37.06-43.186 37.06-43.186 20.02-38.054-91.07-33.08-72.737 2.066 0 0 17.464 41.17 35.676 41.12z" stroke="#000" stroke-width="4" fill="#502D16"/><path d="M906.063 376.76c-5.977 5.788-43.623 2.108-46.878-.65-3.255-2.76 14.83 22.453 24.174 22.398 9.34-.055 28.68-27.54 22.7-21.75z" stroke="#000" stroke-width="4" fill="#DEAA87"/><path d="M798.368 538.717l172.53.163c-2.172 6.185-1.142 15.017-.49 22.607l-171.387-.324-.65-22.446z" stroke="#000" stroke-width="3.895" fill="#520"/><path d="M856.753 283.532c-34.89 5.744-47.745 87.934-37.67 141.127 1.79 8.45 13.22 10.25 19.91 6.48 5.924-2.58 7.12-9.25 7.446-14.97.96-13.77-6.41-76.7 3.65-88.05 10.05-11.36 63.83-8.61 72.8 3.58 8.96 12.19-5.26 85.77 2.28 101.04 7.03 8.76 24.27 4.58 25.39-6.92-2.23-16.83 5.46-84.41 2.82-98.23-2.64-13.82-15.85-35.62-27.21-39.89-26.01-9.78-34.54-9.94-69.43-4.19z" stroke="#050202" stroke-width="3.897" fill="#2CA02C"/><path d="M942.113 303.54c2.652 6.538 10.69 15.902 10.093 23.896l-128.456.91c2.004-7.155 3.03-13.08 9.06-23.768l109.303-1.037z" stroke="#000" stroke-width="4" fill="#520"/><path d="M578.32 411.677l6.42 25.512-11.185 109.05-43.13-15.26c14.296-53.08 19.928-96.8 47.896-119.31z" stroke="#050202" stroke-width="4.067" fill="#ACF"/><path d="M574.973 373.95c0 18.873 6.68 36.972 18.57 50.316 11.893 13.345 28.02 20.842 44.838 20.842 35.02 0 63.41-31.858 63.41-71.157 0-39.29-28.39-71.15-63.41-71.15-16.81 0-32.94 7.5-44.83 20.84-11.89 13.35-18.57 31.45-18.57 50.32z" stroke="#000" stroke-width="4.067" fill="#502D16"/><path d="M702.826 411.677l-6.42 25.512 11.186 109.05 43.13-15.26c-14.296-53.08-19.93-96.8-47.896-119.31z" stroke="#050202" stroke-width="4.067" fill="#ACF"/><path d="M639.924 735.678c0 4.737 3.45 9.28 9.588 12.628 6.14 3.35 14.465 5.23 23.147 5.23 8.68 0 17-1.88 23.14-5.23 6.14-3.35 9.59-7.89 9.59-12.628 0-9.863-14.66-17.858-32.74-17.858-18.08 0-32.74 7.995-32.74 17.858zm-77.664 2.552c0 4.736 3.45 9.278 9.59 12.627 6.138 3.35 14.464 5.23 23.146 5.23 8.68 0 17.007-1.88 23.146-5.23 6.14-3.35 9.588-7.89 9.588-12.627 0-9.863-14.656-17.86-32.734-17.86-18.08 0-32.735 7.997-32.735 17.86z" stroke="#050202" stroke-width="4.067" fill="#2B1100"/><path d="M572.963 561.487c-4.52 57.767-15.687 146.038-4.857 157.967 34.48 17.88 114.923 24.43 141.655-10.637 13.08-30.44-8.96-96.993-5.87-147.33 16.45-98.954 9.4-187.6-66.89-188.91-67.22-1.153-81.38 87.4-64.03 188.91z" stroke="#050202" stroke-width="3.753" fill="#06F"/><path d="M591.774 355.775c0 15.19 4.973 29.76 13.825 40.5 8.85 10.74 20.85 16.776 33.37 16.776 12.52 0 24.52-6.03 33.37-16.77 8.85-10.74 13.82-25.31 13.82-40.5 0-15.19-4.98-29.76-13.83-40.5-8.85-10.74-20.86-16.77-33.38-16.77-12.52 0-24.53 6.04-33.38 16.78-8.85 10.74-13.83 25.31-13.83 40.5z" stroke="#050202" stroke-width="3.965" fill="#E6C2AA"/><path d="M649.066 343.582c0 2.366 1.93 4.284 4.31 4.284 2.383 0 4.313-1.918 4.313-4.284 0-1.136-.46-2.226-1.27-3.03-.81-.803-1.91-1.254-3.05-1.254s-2.24.45-3.05 1.254c-.81.804-1.27 1.894-1.27 3.03zm-27.42.49c0 2.367 1.93 4.285 4.31 4.285s4.312-1.918 4.312-4.284c0-1.137-.454-2.226-1.263-3.03-.81-.803-1.905-1.255-3.05-1.255-1.142 0-2.24.452-3.048 1.255-.808.804-1.262 1.893-1.262 3.03z" fill="#000"/><path d="M661.554 408.967c-12.528 8.722-41.714 5.273-47.626-.792-25.434 67.066 3.47 324.16 1.54 324.16 12.987 1.184 32.404 2.142 42.36.422-2.786.107 25.683-251.68 3.726-323.79z" stroke="#000" stroke-width="3.953" fill="#ACF"/><path d="M661.813 369.182c-5.976 5.79-43.623 2.11-46.878-.65-3.254-2.758 14.83 22.454 24.174 22.4 9.34-.056 28.68-27.54 22.7-21.75z" stroke="#000" stroke-width="4.067" fill="#FFD5D5"/><path d="M612.504 283.532c-34.89 5.744-47.746 87.934-37.672 141.127 1.79 8.45 13.22 10.25 19.913 6.48 5.923-2.58 7.118-9.25 7.445-14.97-.37-9.8-10.92-62.84 3.65-88.05 14.57-25.22 64.72-19.61 72.8 3.58 8.082 23.19-5.26 86.44 2.288 101.04 7.035 8.76 24.268 4.58 25.395-6.92-2.222-16.83 5.464-84.41 2.82-98.23-2.64-13.82-15.85-35.62-27.21-39.89-26.006-9.78-34.54-9.94-69.43-4.19z" stroke="#050202" stroke-width="3.962" fill="#ACF"/><path d="M696.07 301.358c2.506 4.112 8.802 9.352 8.238 14.38l-121.484.572c1.896-4.5 2.54-9.2 8.243-15.923l105.002.97z" stroke="#000" stroke-width="3.956" fill="#06F"/><path d="M746.534 533.98c-2.03 6.303-.513 10.912-5.352 25.92-4.708 14.6-6.11 28.73-20.564 25.005-8.057-2.076-15.73-17.484-6.95-23.418-5.033 3.026-13.082 10.957-15.66 8.195-3.766-4.04-3.993-12.264 6.233-17.63 2.5-1.31 1.32-2.184 3.42-3.117.32-.632 3.34-2.657 3.96-3.017 10.71-6.16 29.28-10.598 34.92-11.937zm-211.92 0c2.03 6.303.512 10.912 5.35 25.92 4.71 14.6 6.11 28.73 20.565 25.005 8.05-2.076 15.73-17.484 6.95-23.418 5.03 3.026 13.08 10.957 15.65 8.195 3.77-4.04 3.99-12.264-6.23-17.63-2.5-1.31-1.32-2.184-3.42-3.117-.32-.632-3.33-2.657-3.96-3.017-10.71-6.16-29.28-10.598-34.92-11.937z" stroke="#050202" stroke-width="4.067" fill="#E6C2AA"/><g stroke="#000"><path d="M656.94 675.8c38.493 14.403 77.112 22.287 115.88 22.447 37.613.155 75.365-6.96 113.28-22.448 1.366 0 2.466 1.14 2.466 2.56v105.15c0 1.42-1.1 2.56-2.467 2.56H656.94c-1.368 0-2.468-1.15-2.468-2.56V678.36c0-1.418 1.1-2.56 2.467-2.56z" stroke-width="3.561" fill="#C8BEB7"/><path d="M695.758 645.693c22.785-1.435 45.35-6.698 68.18-6.51 23.39.193 46.42 5.93 69.734 7.823 22.642 1.838 53.633-14.012 68.063 3.422 11.443 13.826 6.024 41.597-7.737 53.15-16.045 13.47-42.09-3.535-62.997-1.51-20.3 1.964-39.34 12.79-59.74 13.17-18.51.346-36.14-9.3-54.65-9.93-18.18-.618-39.43 16.596-54.23 6.086-17.95-12.75-27.84-46.936-14.29-64.245 9.77-12.47 31.81-.46 47.68-1.46z" stroke-width="4.686" fill="#FD5"/></g><path d="M771.005 618.362c-13.877-1.113-26.713 1.186-36.36 5.855-5.984-5.437-14.26-9.127-23.614-9.877-19.77-1.586-36.87 10.576-38.2 27.154-1.33 16.58 13.62 31.312 33.39 32.898 9.36.75 18.11-1.573 24.89-5.986 8.78 6.147 21.08 10.507 34.96 11.62 8.99.722 17.56-.023 25.09-1.89 7.14 3.036 15.46 5.143 24.43 5.863 28.25 2.26 52.27-9.73 53.64-26.75 1.37-17.03-20.44-32.65-48.69-34.92-8.97-.72-17.51-.01-25.04 1.85-7.14-3.05-15.48-5.1-24.47-5.82z" stroke="#000" stroke-width="4.709" fill="#FFF"/><path d="M733.424 645.22c-.876 10.92-12.51 18.894-25.985 17.813-13.48-1.08-23.69-10.81-22.82-21.728.87-10.92 12.51-18.896 25.98-17.815 13.47 1.08 23.69 10.81 22.81 21.73z" stroke="#000" stroke-width="2.145" fill="#E6C2AA"/><path d="M703.015 645.84c-.145 1.816-1.86 3.16-3.832 3.002-1.972-.158-3.45-1.758-3.306-3.574.07-.872.513-1.678 1.232-2.24.71-.564 1.65-.838 2.6-.762.94.076 1.82.495 2.44 1.166.62.67.93 1.536.86 2.408zm5.865-11.168c-.146 1.816-1.862 3.16-3.833 3.002-1.97-.158-3.45-1.758-3.305-3.574.07-.872.513-1.678 1.232-2.24.718-.564 1.654-.838 2.6-.762.947.076 1.827.495 2.447 1.166.62.67.93 1.536.86 2.408z" fill="#000"/><path d="M706.598 653.05c9.187-2.207 17.502-5.146 14.178-17.863" stroke="#000" stroke-width="2.034"/><path d="M1419.645 66.323l-3.944 102.985" stroke="#000" stroke-width="3.106"/><path d="M1461.87 192.217c0 8.123-4.772 15.913-13.266 21.656-8.494 5.744-20.014 8.97-32.027 8.97-12.012 0-23.533-3.226-32.027-8.97-8.494-5.743-13.266-13.533-13.266-21.656s4.772-15.913 13.266-21.656c8.494-5.74 20.015-8.97 32.027-8.97 12.013 0 23.533 3.23 32.027 8.97 8.494 5.75 13.266 13.54 13.266 21.66z" fill="#000"/><path d="M1395.504 169.96c-28.13-19.805-51.945-24.28-78.275-19.182m78.27 31.812c-28.13-19.807-51.95-24.283-78.28-19.185m80.99 22.945c-32.61-11.122-56.73-8.746-80.55 3.523m76.84.105c-34.45-1.387-56.88 7.748-76.16 26.274m121.04-46.292c28.13-19.805 51.94-24.28 78.27-19.182m-78.28 31.812c28.13-19.807 51.94-24.283 78.27-19.185m-80.99 22.945c32.61-11.122 56.73-8.746 80.54 3.523m-76.84.105c34.45-1.387 56.87 7.748 76.16 26.274" stroke="#000" stroke-width="3" stroke-linecap="round"/><path d="M1409.798 186.006c0 2.12-1.73 3.837-3.86 3.837-1.025 0-2.007-.404-2.73-1.124-.725-.72-1.132-1.7-1.132-2.72s.407-2 1.13-2.72c.725-.72 1.707-1.13 2.73-1.13 2.133 0 3.862 1.71 3.862 3.83zm20.332 0c0 2.12-1.728 3.837-3.86 3.837-1.025 0-2.007-.404-2.73-1.124-.725-.72-1.132-1.7-1.132-2.72s.407-2 1.13-2.72c.725-.72 1.707-1.13 2.73-1.13 2.134 0 3.863 1.71 3.863 3.83z" fill="#FFF"/><path d="M1394.45 199.26c4.997 8.452 27.79 14.247 44.93-.35" stroke="#FFF" stroke-width="2" stroke-linecap="round"/><g transform="matrix(-1 0 0 1 519 577)"><rect fill="#000" x="96.016" y="118.701" width="24.023" height="91.815" rx="8"/><rect fill="#000" x="193.867" y="118.701" width="24.023" height="91.815" rx="8"/><path d="M192.792 3.834c-12.403 0-23.862 3.004-33.24 8.05-8.636-3.932-18.757-6.195-29.585-6.195-30.703 0-55.73 18.18-57.185 41.04-14.587 7.82-24.106 20.64-24.106 35.16 0 23.83 25.627 43.17 57.265 43.17 3.43 0 6.79-.28 10.05-.71 8.69 15.5 29.04 26.4 52.78 26.4 17.35 0 32.9-5.82 43.41-15 2.14.18 4.32.31 6.52.31 28.47 0 52.07-15.65 56.51-36.15 13.93-7.88 22.96-20.45 22.96-34.57 0-23.83-25.66-43.13-57.3-43.13-.39 0-.77-.01-1.15 0-10.37-11.1-27.52-18.39-46.9-18.39z" stroke="#000" stroke-width="3.458" fill="#FFF"/><rect fill="#000" x="230.719" y="119.069" width="24.023" height="91.815" rx="8"/><rect fill="#000" x="130.327" y="118.701" width="24.023" height="91.815" rx="8"/><ellipse stroke="#000" stroke-width="3.5" fill="#CCC" transform="rotate(32 91.97 35.598)" cx="91.971" cy="35.598" rx="14.614" ry="17.679"/><ellipse stroke="#000" stroke-width="3.5" fill="#CCC" cx="36.793" cy="27.5" rx="16.5" ry="20.5"/><path d="M64.82 22.504c18.807 6.514 27.182 31.633 18.705 56.104-4.07 11.752-11.562 21.78-20.826 27.877-9.27 6.097-19.55 7.765-28.58 4.637-9.03-3.13-16.08-10.797-19.59-21.32-3.51-10.52-3.19-23.033.88-34.785 4.07-11.75 11.56-21.777 20.82-27.877 9.26-6.09 19.54-7.76 28.57-4.63z" stroke="#000" stroke-width="3.458" fill="#CCC"/><path d="M46.738 47.16c1.357 3.24-.187 6.974-3.448 8.34-3.26 1.364-7.004-.156-8.36-3.396-1.357-3.24.187-6.974 3.448-8.34 3.26-1.365 7.004.155 8.36 3.396z" fill="#000"/><path d="M26.43 74.81c9.742 21.522 21.763 16.996 39.237 9.23" stroke="#000" stroke-width="3.458" stroke-linecap="round"/><path d="M72.062 53.443c1.357 3.24-.187 6.974-3.448 8.34-3.26 1.364-7.004-.156-8.36-3.396-1.358-3.24.186-6.974 3.447-8.34 3.27-1.364 7.01.156 8.37 3.396z" fill="#000"/></g></g></svg>